M48
; DRILL file {KiCad (5.1.5)-3} date 11/25/2020 10:35:56 PM
; FORMAT={-:-/ absolute / metric / decimal}
; #@! TF.CreationDate,2020-11-25T22:35:56-07:00
; #@! TF.GenerationSoftware,Kicad,Pcbnew,(5.1.5)-3
FMAT,2
METRIC
T1C0.400
T2C0.762
T3C0.800
T4C0.900
T5C1.000
T6C1.300
T7C2.300
%
G90
G05
T1
X1.143Y-108.902
X1.206Y-1.143
X18.796Y-1.27
X18.796Y-108.839
X21.209Y-87.757
X21.399Y-1.27
X29.146Y-108.14
X48.641Y-74.231
X49.657Y-74.105
X50.546Y-41.783
X50.609Y-32.639
X50.609Y-37.02
X54.102Y-47.18
X54.446Y-39.56
X58.547Y-1.333
X61.562Y-108.712
X64.356Y-51.435
X64.356Y-58.166
X78.707Y-52.832
X78.707Y-108.839
X78.834Y-57.658
X78.834Y-95.123
T2
X68.19Y-75.46
X68.19Y-78.0
X68.19Y-80.54
X70.73Y-75.46
X70.73Y-78.0
X70.73Y-80.54
X75.81Y-80.54
X75.84Y-75.46
T3
X36.0Y-67.0
X36.0Y-69.54
X36.0Y-72.08
X36.0Y-74.62
X36.0Y-77.16
X36.0Y-79.7
X36.0Y-82.24
X43.62Y-67.0
X43.62Y-69.54
X43.62Y-72.08
X43.62Y-74.62
X43.62Y-77.16
X43.62Y-79.7
X43.62Y-82.24
X48.0Y-107.0
X58.16Y-107.0
X68.0Y-94.0
X68.0Y-104.16
X13.0Y-60.0
X13.0Y-70.16
X13.0Y-43.0
X13.0Y-50.62
X31.0Y-91.0
X31.0Y-93.0
X48.0Y-97.0
X58.16Y-97.0
X27.0Y-4.0
X37.16Y-4.0
X41.8Y-9.0
X51.96Y-9.0
X48.14Y-77.0
X58.3Y-77.0
X38.0Y-60.0
X40.5Y-60.0
X45.0Y-56.0
X52.62Y-56.0
X48.0Y-87.0
X58.16Y-87.0
X63.0Y-94.0
X63.0Y-104.16
X27.0Y-9.0
X37.16Y-9.0
X25.0Y-30.0
X32.62Y-30.0
X36.0Y-45.0
X36.0Y-47.54
X36.0Y-50.08
X36.0Y-52.62
X43.62Y-45.0
X43.62Y-47.54
X43.62Y-50.08
X43.62Y-52.62
X32.0Y-61.84
X32.0Y-72.0
X32.0Y-47.84
X32.0Y-58.0
X13.0Y-82.0
X13.0Y-92.16
X37.0Y-107.0
X42.0Y-107.0
X43.0Y-25.0
X45.54Y-25.0
X48.08Y-25.0
X38.5Y-39.0
X41.0Y-39.0
X41.84Y-4.0
X52.0Y-4.0
X35.84Y-30.0
X46.0Y-30.0
X32.0Y-16.0
X34.54Y-16.0
X37.08Y-16.0
X49.0Y-30.0
X54.0Y-30.0
X28.0Y-43.0
X33.0Y-43.0
X64.0Y-4.84
X64.0Y-15.0
X48.0Y-92.0
X58.16Y-92.0
X32.0Y-25.0
X34.54Y-25.0
X37.08Y-25.0
X27.0Y-14.84
X27.0Y-25.0
X43.0Y-16.0
X45.54Y-16.0
X48.08Y-16.0
X31.0Y-97.0
X31.0Y-99.0
X64.0Y-24.84
X64.0Y-35.0
X48.0Y-102.0
X58.16Y-102.0
X48.0Y-82.0
X58.16Y-82.0
X28.0Y-38.0
X33.0Y-38.0
X32.0Y-75.0
X32.0Y-82.62
X44.88Y-60.0
X52.5Y-60.0
T4
X75.46Y-55.0
X78.0Y-55.0
T5
X58.0Y-37.0
X58.0Y-39.54
X58.0Y-42.08
X58.0Y-44.62
X58.0Y-47.16
X58.0Y-49.7
X58.0Y-52.24
X58.0Y-54.78
X58.0Y-57.32
X58.0Y-59.86
X58.0Y-62.4
X58.0Y-64.94
X3.5Y-30.0
X3.5Y-32.5
X3.5Y-35.0
X18.0Y-37.0
X18.0Y-39.54
X18.0Y-42.08
X18.0Y-44.62
X18.0Y-47.16
X18.0Y-49.7
X18.0Y-52.24
X18.0Y-54.78
X18.0Y-57.32
X18.0Y-59.86
X18.0Y-62.4
X18.0Y-64.94
X77.4Y-97.75
X77.4Y-102.25
X22.0Y-37.0
X22.0Y-39.54
X22.0Y-42.08
X22.0Y-44.62
X22.0Y-47.16
X22.0Y-49.7
X22.0Y-52.24
X22.0Y-54.78
X22.0Y-57.32
X22.0Y-59.86
X22.0Y-62.4
X22.0Y-64.94
X3.5Y-70.0
X3.5Y-72.5
X3.5Y-75.0
X62.0Y-45.06
X62.0Y-47.6
X62.0Y-50.14
X62.0Y-52.68
X62.0Y-55.22
X62.0Y-57.76
X62.0Y-60.3
X62.0Y-62.84
X62.0Y-65.38
X62.0Y-67.92
X62.0Y-70.46
X62.0Y-73.0
X22.0Y-90.0
X22.0Y-92.54
X22.0Y-95.08
X22.0Y-97.62
X22.0Y-100.16
X22.0Y-102.7
X22.0Y-105.24
X22.0Y-107.78
X24.54Y-90.0
X24.54Y-92.54
X24.54Y-95.08
X24.54Y-97.62
X24.54Y-100.16
X24.54Y-102.7
X24.54Y-105.24
X24.54Y-107.78
X3.5Y-90.0
X3.5Y-92.5
X3.5Y-95.0
X3.5Y-50.0
X3.5Y-52.5
X3.5Y-55.0
T6
X74.9Y-96.5
X74.9Y-103.5
T7
X6.8Y-67.5
X6.8Y-77.5
X6.8Y-87.5
X6.8Y-97.5
X6.8Y-47.5
X6.8Y-57.5
X6.8Y-27.5
X6.8Y-37.5
T1
G00X67.0Y-24.4
M15
G01X67.0Y-23.6
M16
G05
G00X70.6Y-33.2
M15
G01X69.8Y-33.2
M16
G05
G00X72.0Y-30.5
M15
G01X71.2Y-30.5
M16
G05
G00X75.0Y-23.5
M15
G01X74.2Y-23.5
M16
G05
G00X78.0Y-28.4
M15
G01X78.0Y-27.6
M16
G05
G00X2.0Y-9.6
M15
G01X2.0Y-10.4
M16
G05
G00X5.0Y-14.5
M15
G01X5.8Y-14.5
M16
G05
G00X8.0Y-7.5
M15
G01X8.8Y-7.5
M16
G05
G00X9.4Y-4.8
M15
G01X10.2Y-4.8
M16
G05
G00X13.0Y-13.6
M15
G01X13.0Y-14.4
M16
G05
G00X67.0Y-5.4
M15
G01X67.0Y-4.6
M16
G05
G00X70.6Y-14.2
M15
G01X69.8Y-14.2
M16
G05
G00X72.0Y-11.5
M15
G01X71.2Y-11.5
M16
G05
G00X75.0Y-4.5
M15
G01X74.2Y-4.5
M16
G05
G00X78.0Y-9.4
M15
G01X78.0Y-8.6
M16
G05
T0
M30
