M48
; DRILL file {KiCad (5.1.5)-3} date 8/9/2020 3:11:37 PM
; FORMAT={-:-/ absolute / metric / decimal}
; #@! TF.CreationDate,2020-08-09T15:11:37-07:00
; #@! TF.GenerationSoftware,Kicad,Pcbnew,(5.1.5)-3
FMAT,2
METRIC
T1C0.400
T2C0.800
T3C0.900
T4C1.000
%
G90
G05
T1
X36.083Y-59.821
X44.651Y-49.644
X47.799Y-46.518
X49.908Y-9.848
X53.031Y-61.012
X63.173Y-29.498
T2
X46.19Y-9.0
X46.19Y-11.54
X46.19Y-14.08
X46.19Y-16.62
X46.19Y-19.16
X46.19Y-21.7
X46.19Y-24.24
X53.81Y-9.0
X53.81Y-11.54
X53.81Y-14.08
X53.81Y-16.62
X53.81Y-19.16
X53.81Y-21.7
X53.81Y-24.24
X36.5Y-64.38
X36.5Y-72.0
X58.0Y-43.84
X58.0Y-54.0
X43.0Y-3.5
X53.16Y-3.5
X18.0Y-38.6
X18.0Y-48.76
X76.92Y-18.75
X79.46Y-18.75
X82.0Y-18.75
X58.0Y-1.84
X58.0Y-12.0
X78.0Y-76.5
X78.0Y-86.66
X40.0Y-73.0
X42.5Y-73.0
X36.5Y-54.38
X36.5Y-62.0
X36.5Y-2.38
X36.5Y-10.0
X23.0Y-63.5
X23.0Y-73.66
X23.0Y-75.95
X23.0Y-86.11
X18.0Y-13.7
X18.0Y-23.86
X46.19Y-65.0
X46.19Y-67.54
X46.19Y-70.08
X46.19Y-72.62
X46.19Y-75.16
X46.19Y-77.7
X46.19Y-80.24
X53.81Y-65.0
X53.81Y-67.54
X53.81Y-70.08
X53.81Y-72.62
X53.81Y-75.16
X53.81Y-77.7
X53.81Y-80.24
X58.0Y-73.0
X60.5Y-73.0
X76.92Y-68.75
X79.46Y-68.75
X82.0Y-68.75
X58.0Y-17.84
X58.0Y-28.0
X58.0Y-75.84
X58.0Y-86.0
X23.0Y-88.4
X23.0Y-98.56
X23.0Y-51.05
X23.0Y-61.21
X23.0Y-13.7
X23.0Y-23.86
X48.75Y-33.0
X51.25Y-33.0
X76.92Y-43.75
X79.46Y-43.75
X82.0Y-43.75
X84.0Y-26.5
X84.0Y-36.66
X40.0Y-15.0
X42.5Y-15.0
X78.0Y-1.5
X78.0Y-11.66
X36.5Y-22.88
X36.5Y-30.5
X36.5Y-33.38
X36.5Y-41.0
X18.0Y-75.95
X18.0Y-86.11
X43.0Y-86.0
X53.16Y-86.0
X23.0Y-26.15
X23.0Y-36.31
X46.19Y-38.0
X46.19Y-40.54
X46.19Y-43.08
X46.19Y-45.62
X46.19Y-48.16
X46.19Y-50.7
X46.19Y-53.24
X53.81Y-38.0
X53.81Y-40.54
X53.81Y-43.08
X53.81Y-45.62
X53.81Y-48.16
X53.81Y-50.7
X53.81Y-53.24
X78.0Y-51.5
X78.0Y-61.66
X84.0Y-76.5
X84.0Y-86.66
X36.5Y-43.88
X36.5Y-51.5
X84.0Y-1.5
X84.0Y-11.66
X32.5Y-70.38
X32.5Y-78.0
X36.5Y-12.586
X36.5Y-20.206
X18.0Y-26.15
X18.0Y-36.31
X18.0Y-51.05
X18.0Y-61.21
X23.0Y-38.6
X23.0Y-48.76
X90.0Y-76.5
X90.0Y-86.66
X18.0Y-1.25
X18.0Y-11.41
X67.5Y-81.34
X67.5Y-91.5
X90.0Y-51.5
X90.0Y-61.66
X90.0Y-26.5
X90.0Y-36.66
X58.0Y-56.84
X58.0Y-67.0
X18.0Y-88.4
X18.0Y-98.56
X58.0Y-15.0
X60.5Y-15.0
X84.0Y-51.5
X84.0Y-61.66
X76.92Y-93.75
X79.46Y-93.75
X82.0Y-93.75
X58.0Y-88.59
X58.0Y-98.75
X90.0Y-1.5
X90.0Y-11.66
X23.0Y-1.25
X23.0Y-11.41
X18.0Y-63.5
X18.0Y-73.66
X78.0Y-26.5
X78.0Y-36.66
X58.0Y-30.84
X58.0Y-41.0
T3
X61.46Y-69.0
X64.0Y-69.0
X96.0Y-56.25
X98.54Y-56.25
X61.46Y-31.5
X64.0Y-31.5
X61.46Y-19.0
X64.0Y-19.0
X96.0Y-81.25
X98.54Y-81.25
X61.46Y-81.5
X64.0Y-81.5
X61.46Y-6.015
X64.0Y-6.015
X96.0Y-6.75
X98.54Y-6.75
X61.46Y-94.0
X64.0Y-94.0
X61.46Y-56.5
X64.0Y-56.5
X96.0Y-31.25
X98.54Y-31.25
X61.46Y-44.0
X64.0Y-44.0
T4
X72.0Y-34.75
X72.0Y-37.29
X72.0Y-39.83
X72.0Y-42.37
X72.0Y-44.91
X72.0Y-47.45
X72.0Y-49.99
X72.0Y-52.53
X72.0Y-55.07
X72.0Y-57.61
X72.0Y-60.15
X72.0Y-62.69
X36.0Y-80.0
X36.0Y-82.54
X36.0Y-85.08
X36.0Y-87.62
X36.0Y-90.16
X36.0Y-92.7
X36.0Y-95.24
X36.0Y-97.78
X38.54Y-80.0
X38.54Y-82.54
X38.54Y-85.08
X38.54Y-87.62
X38.54Y-90.16
X38.54Y-92.7
X38.54Y-95.24
X38.54Y-97.78
X68.0Y-60.0
X68.0Y-62.54
X68.0Y-65.08
X68.0Y-67.62
X68.0Y-70.16
X68.0Y-72.7
X68.0Y-75.24
X68.0Y-77.78
X28.0Y-15.0
X28.0Y-17.54
X28.0Y-20.08
X28.0Y-22.62
X28.0Y-25.16
X28.0Y-27.7
X28.0Y-30.24
X28.0Y-32.78
X68.0Y-15.0
X68.0Y-17.54
X68.0Y-20.08
X68.0Y-22.62
X68.0Y-25.16
X68.0Y-27.7
X68.0Y-30.24
X68.0Y-32.78
X28.0Y-60.0
X28.0Y-62.54
X28.0Y-65.08
X28.0Y-67.62
X28.0Y-70.16
X28.0Y-72.7
X28.0Y-75.24
X28.0Y-77.78
X32.0Y-35.0
X32.0Y-37.54
X32.0Y-40.08
X32.0Y-42.62
X32.0Y-45.16
X32.0Y-47.7
X32.0Y-50.24
X32.0Y-52.78
X32.0Y-55.32
X32.0Y-57.86
X32.0Y-60.4
X32.0Y-62.94
T1
G00X87.0Y-90.15
M15
G01X87.0Y-89.35
M16
G05
G00X90.6Y-98.95
M15
G01X89.8Y-98.95
M16
G05
G00X92.0Y-96.25
M15
G01X91.2Y-96.25
M16
G05
G00X95.0Y-89.25
M15
G01X94.2Y-89.25
M16
G05
G00X98.0Y-94.15
M15
G01X98.0Y-93.35
M16
G05
G00X2.0Y-93.6
M15
G01X2.0Y-94.4
M16
G05
G00X5.0Y-98.5
M15
G01X5.8Y-98.5
M16
G05
G00X8.0Y-91.5
M15
G01X8.8Y-91.5
M16
G05
G00X9.4Y-88.8
M15
G01X10.2Y-88.8
M16
G05
G00X13.0Y-97.6
M15
G01X13.0Y-98.4
M16
G05
G00X2.0Y-43.6
M15
G01X2.0Y-44.4
M16
G05
G00X5.0Y-48.5
M15
G01X5.8Y-48.5
M16
G05
G00X8.0Y-41.5
M15
G01X8.8Y-41.5
M16
G05
G00X9.4Y-38.8
M15
G01X10.2Y-38.8
M16
G05
G00X13.0Y-47.6
M15
G01X13.0Y-48.4
M16
G05
G00X2.0Y-68.6
M15
G01X2.0Y-69.4
M16
G05
G00X5.0Y-73.5
M15
G01X5.8Y-73.5
M16
G05
G00X8.0Y-66.5
M15
G01X8.8Y-66.5
M16
G05
G00X9.4Y-63.8
M15
G01X10.2Y-63.8
M16
G05
G00X13.0Y-72.6
M15
G01X13.0Y-73.4
M16
G05
G00X87.0Y-15.15
M15
G01X87.0Y-14.35
M16
G05
G00X90.6Y-23.95
M15
G01X89.8Y-23.95
M16
G05
G00X92.0Y-21.25
M15
G01X91.2Y-21.25
M16
G05
G00X95.0Y-14.25
M15
G01X94.2Y-14.25
M16
G05
G00X98.0Y-19.15
M15
G01X98.0Y-18.35
M16
G05
G00X2.0Y-81.1
M15
G01X2.0Y-81.9
M16
G05
G00X5.0Y-86.0
M15
G01X5.8Y-86.0
M16
G05
G00X8.0Y-79.0
M15
G01X8.8Y-79.0
M16
G05
G00X9.4Y-76.3
M15
G01X10.2Y-76.3
M16
G05
G00X13.0Y-85.1
M15
G01X13.0Y-85.9
M16
G05
G00X2.0Y-6.1
M15
G01X2.0Y-6.9
M16
G05
G00X5.0Y-11.0
M15
G01X5.8Y-11.0
M16
G05
G00X8.0Y-4.0
M15
G01X8.8Y-4.0
M16
G05
G00X9.4Y-1.3
M15
G01X10.2Y-1.3
M16
G05
G00X13.0Y-10.1
M15
G01X13.0Y-10.9
M16
G05
G00X2.0Y-18.6
M15
G01X2.0Y-19.4
M16
G05
G00X5.0Y-23.5
M15
G01X5.8Y-23.5
M16
G05
G00X8.0Y-16.5
M15
G01X8.8Y-16.5
M16
G05
G00X9.4Y-13.8
M15
G01X10.2Y-13.8
M16
G05
G00X13.0Y-22.6
M15
G01X13.0Y-23.4
M16
G05
G00X87.0Y-65.15
M15
G01X87.0Y-64.35
M16
G05
G00X90.6Y-73.95
M15
G01X89.8Y-73.95
M16
G05
G00X92.0Y-71.25
M15
G01X91.2Y-71.25
M16
G05
G00X95.0Y-64.25
M15
G01X94.2Y-64.25
M16
G05
G00X98.0Y-69.15
M15
G01X98.0Y-68.35
M16
G05
G00X2.0Y-56.1
M15
G01X2.0Y-56.9
M16
G05
G00X5.0Y-61.0
M15
G01X5.8Y-61.0
M16
G05
G00X8.0Y-54.0
M15
G01X8.8Y-54.0
M16
G05
G00X9.4Y-51.3
M15
G01X10.2Y-51.3
M16
G05
G00X13.0Y-60.1
M15
G01X13.0Y-60.9
M16
G05
G00X87.0Y-40.15
M15
G01X87.0Y-39.35
M16
G05
G00X90.6Y-48.95
M15
G01X89.8Y-48.95
M16
G05
G00X92.0Y-46.25
M15
G01X91.2Y-46.25
M16
G05
G00X95.0Y-39.25
M15
G01X94.2Y-39.25
M16
G05
G00X98.0Y-44.15
M15
G01X98.0Y-43.35
M16
G05
G00X2.0Y-31.1
M15
G01X2.0Y-31.9
M16
G05
G00X5.0Y-36.0
M15
G01X5.8Y-36.0
M16
G05
G00X8.0Y-29.0
M15
G01X8.8Y-29.0
M16
G05
G00X9.4Y-26.3
M15
G01X10.2Y-26.3
M16
G05
G00X13.0Y-35.1
M15
G01X13.0Y-35.9
M16
G05
T0
M30
