M48
; DRILL file {KiCad 9.0.0} date 2025-02-23T15:44:20-0700
; FORMAT={-:-/ absolute / inch / decimal}
; #@! TF.CreationDate,2025-02-23T15:44:20-07:00
; #@! TF.GenerationSoftware,Kicad,Pcbnew,9.0.0
; #@! TF.FileFunction,Plated,1,2,PTH
FMAT,2
INCH
; #@! TA.AperFunction,Plated,PTH,ViaDrill
T1C0.0157
; #@! TA.AperFunction,Plated,PTH,ComponentDrill
T2C0.0157
; #@! TA.AperFunction,Plated,PTH,ComponentDrill
T3C0.0300
; #@! TA.AperFunction,Plated,PTH,ComponentDrill
T4C0.0354
; #@! TA.AperFunction,Plated,PTH,ComponentDrill
T5C0.0394
; #@! TA.AperFunction,Plated,PTH,ComponentDrill
T6C0.0906
%
G90
G05
T1
X0.0453Y-0.0453
X0.0453Y-4.2874
X0.7362Y-0.0453
X0.7382Y-4.2874
X0.8406Y-0.0531
X1.002Y-2.1161
X1.002Y-2.3642
X1.0531Y-4.2815
X1.1551Y-2.4104
X1.2972Y-3.5354
X1.3327Y-1.9587
X1.3376Y-0.3834
X1.3376Y-2.144
X1.3386Y-0.3248
X1.3592Y-1.8641
X1.502Y-0.6457
X1.5035Y-2.4952
X1.5374Y-2.2067
X1.5769Y-2.5435
X1.5961Y-2.2881
X1.6671Y-1.2624
X1.6713Y-0.2362
X1.6769Y-2.1082
X1.7028Y-2.1909
X1.7087Y-3.2776
X1.7146Y-3.0886
X1.7167Y-2.9517
X1.7167Y-2.0865
X1.8209Y-1.6535
X1.8516Y-1.416
X1.8617Y-2.3336
X1.8744Y-2.9575
X1.9017Y-3.2792
X1.9019Y-3.1992
X1.9058Y-3.1486
X1.9173Y-3.0217
X1.9291Y-1.4154
X1.9552Y-3.3779
X2.003Y-2.9838
X2.0236Y-3.9547
X2.0256Y-3.5945
X2.0371Y-2.5581
X2.0563Y-3.4687
X2.0603Y-1.8375
X2.0866Y-2.2343
X2.1148Y-3.5044
X2.1262Y-3.3535
X2.1831Y-1.8898
X2.1907Y-1.4634
X2.2948Y-2.155
X2.313Y-3.2065
X2.3371Y-1.6535
X2.4466Y-2.6926
X2.4557Y-1.3265
X2.5186Y-2.4122
X2.5395Y-3.0106
X2.5694Y-0.8607
X2.6201Y-1.187
X2.624Y-3.1673
X2.7008Y-3.7008
X2.7087Y-0.8465
X2.7221Y-2.6519
X2.7522Y-2.7599
X2.7832Y-3.6185
X2.874Y-2.563
X2.9154Y-1.6693
X2.9955Y-1.9357
X3.0945Y-4.2835
X3.0984Y-0.0453
X3.1988Y-4.2854
X3.2008Y-0.0413
X3.8898Y-4.2854
X3.8917Y-0.0433
T3
X3.472Y-2.6559
X3.472Y-2.7559
X3.472Y-2.8559
X3.572Y-2.6559
X3.572Y-2.7559
X3.572Y-2.8559
X3.772Y-2.8559
X3.7732Y-2.6559
T4
X3.7583Y-4.0157
X3.8583Y-4.0157
T5
X0.1378Y-1.5748
X0.1378Y-1.6732
X0.1378Y-1.7717
X0.1378Y-2.4409
X0.1378Y-2.5394
X0.1378Y-2.6378
X0.7087Y-1.5748
X0.7087Y-1.6748
X0.7087Y-1.7748
X0.7087Y-1.8748
X0.7087Y-1.9748
X0.7087Y-2.0748
X0.7087Y-2.1748
X0.8661Y-1.7622
X0.8661Y-1.8622
X0.8661Y-1.9622
X0.8661Y-2.0622
X0.8661Y-2.1622
X0.8661Y-2.2622
X0.8661Y-2.3622
X0.8661Y-3.5433
X0.8661Y-3.6433
X0.8661Y-3.7433
X0.8661Y-3.8433
X0.8661Y-3.9433
X0.8661Y-4.0433
X0.8661Y-4.1433
X0.8661Y-4.2433
X0.9661Y-3.5433
X0.9661Y-3.6433
X0.9661Y-3.7433
X0.9661Y-3.8433
X0.9661Y-3.9433
X0.9661Y-4.0433
X0.9661Y-4.1433
X0.9661Y-4.2433
X3.0709Y-1.0654
X3.0709Y-1.1654
X3.0709Y-1.2654
X3.0709Y-1.3654
X3.0709Y-1.4654
X3.0709Y-1.5654
X3.0709Y-1.6654
X3.0709Y-1.7654
X3.0709Y-1.8654
X3.0709Y-1.9654
X3.0709Y-2.0654
X3.0709Y-2.1654
X3.2283Y-1.0654
X3.2283Y-1.1654
X3.2283Y-1.2654
X3.2283Y-1.3654
X3.2283Y-1.4654
X3.2283Y-1.5654
X3.2283Y-1.6654
X3.2283Y-1.7654
X3.2283Y-1.8654
X3.2283Y-1.9654
X3.2283Y-2.0654
X3.2283Y-2.1654
X3.7992Y-1.6929
X3.7992Y-1.7913
X3.7992Y-1.8898
T6
X0.2677Y-1.4764
X0.2677Y-1.8701
X0.2677Y-2.3425
X0.2677Y-2.7362
X3.6693Y-1.5945
X3.6693Y-1.9882
T2
G00X0.0787Y-0.8504
M15
G01X0.0787Y-0.8819
M16
G05
G00X0.0787Y-3.4094
M15
G01X0.0787Y-3.4409
M16
G05
G00X0.0787Y-4.0
M15
G01X0.0787Y-4.0315
M16
G05
G00X0.1969Y-1.0433
M15
G01X0.2283Y-1.0433
M16
G05
G00X0.1969Y-3.6024
M15
G01X0.2283Y-3.6024
M16
G05
G00X0.1969Y-4.1929
M15
G01X0.2283Y-4.1929
M16
G05
G00X0.315Y-0.7677
M15
G01X0.3465Y-0.7677
M16
G05
G00X0.315Y-3.3268
M15
G01X0.3465Y-3.3268
M16
G05
G00X0.315Y-3.9173
M15
G01X0.3465Y-3.9173
M16
G05
G00X0.3701Y-0.6614
M15
G01X0.4016Y-0.6614
M16
G05
G00X0.3701Y-3.2205
M15
G01X0.4016Y-3.2205
M16
G05
G00X0.3701Y-3.811
M15
G01X0.4016Y-3.811
M16
G05
G00X0.5118Y-1.0079
M15
G01X0.5118Y-1.0394
M16
G05
G00X0.5118Y-3.5669
M15
G01X0.5118Y-3.5984
M16
G05
G00X0.5118Y-4.1575
M15
G01X0.5118Y-4.189
M16
G05
G00X3.4252Y-0.1732
M15
G01X3.4252Y-0.1417
M16
G05
G00X3.4252Y-0.7638
M15
G01X3.4252Y-0.7323
M16
G05
G00X3.4252Y-3.3228
M15
G01X3.4252Y-3.2913
M16
G05
G00X3.5669Y-0.5197
M15
G01X3.5354Y-0.5197
M16
G05
G00X3.5669Y-1.1102
M15
G01X3.5354Y-1.1102
M16
G05
G00X3.5669Y-3.6693
M15
G01X3.5354Y-3.6693
M16
G05
G00X3.622Y-0.4134
M15
G01X3.5906Y-0.4134
M16
G05
G00X3.622Y-1.0039
M15
G01X3.5906Y-1.0039
M16
G05
G00X3.622Y-3.563
M15
G01X3.5906Y-3.563
M16
G05
G00X3.7402Y-0.1378
M15
G01X3.7087Y-0.1378
M16
G05
G00X3.7402Y-0.7283
M15
G01X3.7087Y-0.7283
M16
G05
G00X3.7402Y-3.2874
M15
G01X3.7087Y-3.2874
M16
G05
G00X3.8583Y-0.3307
M15
G01X3.8583Y-0.2992
M16
G05
G00X3.8583Y-0.9213
M15
G01X3.8583Y-0.8898
M16
G05
G00X3.8583Y-3.4803
M15
G01X3.8583Y-3.4488
M16
G05
M30
