G04 #@! TF.GenerationSoftware,KiCad,Pcbnew,9.0.0*
G04 #@! TF.CreationDate,2025-02-23T15:44:18-07:00*
G04 #@! TF.ProjectId,LFO,4c464f2e-6b69-4636-9164-5f7063625858,rev?*
G04 #@! TF.SameCoordinates,Original*
G04 #@! TF.FileFunction,Legend,Top*
G04 #@! TF.FilePolarity,Positive*
%FSLAX46Y46*%
G04 Gerber Fmt 4.6, Leading zero omitted, Abs format (unit mm)*
G04 Created by KiCad (PCBNEW 9.0.0) date 2025-02-23 15:44:18*
%MOMM*%
%LPD*%
G01*
G04 APERTURE LIST*
%ADD10C,0.150000*%
%ADD11C,0.120000*%
G04 APERTURE END LIST*
D10*
X44571429Y-102654819D02*
X45095238Y-101988152D01*
X44571429Y-101988152D02*
X45095238Y-102654819D01*
X46000000Y-102654819D02*
X45428572Y-102654819D01*
X45714286Y-102654819D02*
X45714286Y-101654819D01*
X45714286Y-101654819D02*
X45619048Y-101797676D01*
X45619048Y-101797676D02*
X45523810Y-101892914D01*
X45523810Y-101892914D02*
X45428572Y-101940533D01*
X46428572Y-102559580D02*
X46476191Y-102607200D01*
X46476191Y-102607200D02*
X46428572Y-102654819D01*
X46428572Y-102654819D02*
X46380953Y-102607200D01*
X46380953Y-102607200D02*
X46428572Y-102559580D01*
X46428572Y-102559580D02*
X46428572Y-102654819D01*
X47095238Y-101654819D02*
X47190476Y-101654819D01*
X47190476Y-101654819D02*
X47285714Y-101702438D01*
X47285714Y-101702438D02*
X47333333Y-101750057D01*
X47333333Y-101750057D02*
X47380952Y-101845295D01*
X47380952Y-101845295D02*
X47428571Y-102035771D01*
X47428571Y-102035771D02*
X47428571Y-102273866D01*
X47428571Y-102273866D02*
X47380952Y-102464342D01*
X47380952Y-102464342D02*
X47333333Y-102559580D01*
X47333333Y-102559580D02*
X47285714Y-102607200D01*
X47285714Y-102607200D02*
X47190476Y-102654819D01*
X47190476Y-102654819D02*
X47095238Y-102654819D01*
X47095238Y-102654819D02*
X47000000Y-102607200D01*
X47000000Y-102607200D02*
X46952381Y-102559580D01*
X46952381Y-102559580D02*
X46904762Y-102464342D01*
X46904762Y-102464342D02*
X46857143Y-102273866D01*
X46857143Y-102273866D02*
X46857143Y-102035771D01*
X46857143Y-102035771D02*
X46904762Y-101845295D01*
X46904762Y-101845295D02*
X46952381Y-101750057D01*
X46952381Y-101750057D02*
X47000000Y-101702438D01*
X47000000Y-101702438D02*
X47095238Y-101654819D01*
X48952381Y-102131009D02*
X49095238Y-102178628D01*
X49095238Y-102178628D02*
X49142857Y-102226247D01*
X49142857Y-102226247D02*
X49190476Y-102321485D01*
X49190476Y-102321485D02*
X49190476Y-102464342D01*
X49190476Y-102464342D02*
X49142857Y-102559580D01*
X49142857Y-102559580D02*
X49095238Y-102607200D01*
X49095238Y-102607200D02*
X49000000Y-102654819D01*
X49000000Y-102654819D02*
X48619048Y-102654819D01*
X48619048Y-102654819D02*
X48619048Y-101654819D01*
X48619048Y-101654819D02*
X48952381Y-101654819D01*
X48952381Y-101654819D02*
X49047619Y-101702438D01*
X49047619Y-101702438D02*
X49095238Y-101750057D01*
X49095238Y-101750057D02*
X49142857Y-101845295D01*
X49142857Y-101845295D02*
X49142857Y-101940533D01*
X49142857Y-101940533D02*
X49095238Y-102035771D01*
X49095238Y-102035771D02*
X49047619Y-102083390D01*
X49047619Y-102083390D02*
X48952381Y-102131009D01*
X48952381Y-102131009D02*
X48619048Y-102131009D01*
X49619048Y-102654819D02*
X49619048Y-101988152D01*
X49619048Y-101654819D02*
X49571429Y-101702438D01*
X49571429Y-101702438D02*
X49619048Y-101750057D01*
X49619048Y-101750057D02*
X49666667Y-101702438D01*
X49666667Y-101702438D02*
X49619048Y-101654819D01*
X49619048Y-101654819D02*
X49619048Y-101750057D01*
X50523809Y-102654819D02*
X50523809Y-102131009D01*
X50523809Y-102131009D02*
X50476190Y-102035771D01*
X50476190Y-102035771D02*
X50380952Y-101988152D01*
X50380952Y-101988152D02*
X50190476Y-101988152D01*
X50190476Y-101988152D02*
X50095238Y-102035771D01*
X50523809Y-102607200D02*
X50428571Y-102654819D01*
X50428571Y-102654819D02*
X50190476Y-102654819D01*
X50190476Y-102654819D02*
X50095238Y-102607200D01*
X50095238Y-102607200D02*
X50047619Y-102511961D01*
X50047619Y-102511961D02*
X50047619Y-102416723D01*
X50047619Y-102416723D02*
X50095238Y-102321485D01*
X50095238Y-102321485D02*
X50190476Y-102273866D01*
X50190476Y-102273866D02*
X50428571Y-102273866D01*
X50428571Y-102273866D02*
X50523809Y-102226247D01*
X50952381Y-102607200D02*
X51047619Y-102654819D01*
X51047619Y-102654819D02*
X51238095Y-102654819D01*
X51238095Y-102654819D02*
X51333333Y-102607200D01*
X51333333Y-102607200D02*
X51380952Y-102511961D01*
X51380952Y-102511961D02*
X51380952Y-102464342D01*
X51380952Y-102464342D02*
X51333333Y-102369104D01*
X51333333Y-102369104D02*
X51238095Y-102321485D01*
X51238095Y-102321485D02*
X51095238Y-102321485D01*
X51095238Y-102321485D02*
X51000000Y-102273866D01*
X51000000Y-102273866D02*
X50952381Y-102178628D01*
X50952381Y-102178628D02*
X50952381Y-102131009D01*
X50952381Y-102131009D02*
X51000000Y-102035771D01*
X51000000Y-102035771D02*
X51095238Y-101988152D01*
X51095238Y-101988152D02*
X51238095Y-101988152D01*
X51238095Y-101988152D02*
X51333333Y-102035771D01*
X44571429Y-94654819D02*
X45095238Y-93988152D01*
X44571429Y-93988152D02*
X45095238Y-94654819D01*
X45666667Y-93654819D02*
X45761905Y-93654819D01*
X45761905Y-93654819D02*
X45857143Y-93702438D01*
X45857143Y-93702438D02*
X45904762Y-93750057D01*
X45904762Y-93750057D02*
X45952381Y-93845295D01*
X45952381Y-93845295D02*
X46000000Y-94035771D01*
X46000000Y-94035771D02*
X46000000Y-94273866D01*
X46000000Y-94273866D02*
X45952381Y-94464342D01*
X45952381Y-94464342D02*
X45904762Y-94559580D01*
X45904762Y-94559580D02*
X45857143Y-94607200D01*
X45857143Y-94607200D02*
X45761905Y-94654819D01*
X45761905Y-94654819D02*
X45666667Y-94654819D01*
X45666667Y-94654819D02*
X45571429Y-94607200D01*
X45571429Y-94607200D02*
X45523810Y-94559580D01*
X45523810Y-94559580D02*
X45476191Y-94464342D01*
X45476191Y-94464342D02*
X45428572Y-94273866D01*
X45428572Y-94273866D02*
X45428572Y-94035771D01*
X45428572Y-94035771D02*
X45476191Y-93845295D01*
X45476191Y-93845295D02*
X45523810Y-93750057D01*
X45523810Y-93750057D02*
X45571429Y-93702438D01*
X45571429Y-93702438D02*
X45666667Y-93654819D01*
X46428572Y-94559580D02*
X46476191Y-94607200D01*
X46476191Y-94607200D02*
X46428572Y-94654819D01*
X46428572Y-94654819D02*
X46380953Y-94607200D01*
X46380953Y-94607200D02*
X46428572Y-94559580D01*
X46428572Y-94559580D02*
X46428572Y-94654819D01*
X47428571Y-94654819D02*
X46857143Y-94654819D01*
X47142857Y-94654819D02*
X47142857Y-93654819D01*
X47142857Y-93654819D02*
X47047619Y-93797676D01*
X47047619Y-93797676D02*
X46952381Y-93892914D01*
X46952381Y-93892914D02*
X46857143Y-93940533D01*
X48952381Y-94131009D02*
X49095238Y-94178628D01*
X49095238Y-94178628D02*
X49142857Y-94226247D01*
X49142857Y-94226247D02*
X49190476Y-94321485D01*
X49190476Y-94321485D02*
X49190476Y-94464342D01*
X49190476Y-94464342D02*
X49142857Y-94559580D01*
X49142857Y-94559580D02*
X49095238Y-94607200D01*
X49095238Y-94607200D02*
X49000000Y-94654819D01*
X49000000Y-94654819D02*
X48619048Y-94654819D01*
X48619048Y-94654819D02*
X48619048Y-93654819D01*
X48619048Y-93654819D02*
X48952381Y-93654819D01*
X48952381Y-93654819D02*
X49047619Y-93702438D01*
X49047619Y-93702438D02*
X49095238Y-93750057D01*
X49095238Y-93750057D02*
X49142857Y-93845295D01*
X49142857Y-93845295D02*
X49142857Y-93940533D01*
X49142857Y-93940533D02*
X49095238Y-94035771D01*
X49095238Y-94035771D02*
X49047619Y-94083390D01*
X49047619Y-94083390D02*
X48952381Y-94131009D01*
X48952381Y-94131009D02*
X48619048Y-94131009D01*
X49619048Y-94654819D02*
X49619048Y-93988152D01*
X49619048Y-93654819D02*
X49571429Y-93702438D01*
X49571429Y-93702438D02*
X49619048Y-93750057D01*
X49619048Y-93750057D02*
X49666667Y-93702438D01*
X49666667Y-93702438D02*
X49619048Y-93654819D01*
X49619048Y-93654819D02*
X49619048Y-93750057D01*
X50523809Y-94654819D02*
X50523809Y-94131009D01*
X50523809Y-94131009D02*
X50476190Y-94035771D01*
X50476190Y-94035771D02*
X50380952Y-93988152D01*
X50380952Y-93988152D02*
X50190476Y-93988152D01*
X50190476Y-93988152D02*
X50095238Y-94035771D01*
X50523809Y-94607200D02*
X50428571Y-94654819D01*
X50428571Y-94654819D02*
X50190476Y-94654819D01*
X50190476Y-94654819D02*
X50095238Y-94607200D01*
X50095238Y-94607200D02*
X50047619Y-94511961D01*
X50047619Y-94511961D02*
X50047619Y-94416723D01*
X50047619Y-94416723D02*
X50095238Y-94321485D01*
X50095238Y-94321485D02*
X50190476Y-94273866D01*
X50190476Y-94273866D02*
X50428571Y-94273866D01*
X50428571Y-94273866D02*
X50523809Y-94226247D01*
X50952381Y-94607200D02*
X51047619Y-94654819D01*
X51047619Y-94654819D02*
X51238095Y-94654819D01*
X51238095Y-94654819D02*
X51333333Y-94607200D01*
X51333333Y-94607200D02*
X51380952Y-94511961D01*
X51380952Y-94511961D02*
X51380952Y-94464342D01*
X51380952Y-94464342D02*
X51333333Y-94369104D01*
X51333333Y-94369104D02*
X51238095Y-94321485D01*
X51238095Y-94321485D02*
X51095238Y-94321485D01*
X51095238Y-94321485D02*
X51000000Y-94273866D01*
X51000000Y-94273866D02*
X50952381Y-94178628D01*
X50952381Y-94178628D02*
X50952381Y-94131009D01*
X50952381Y-94131009D02*
X51000000Y-94035771D01*
X51000000Y-94035771D02*
X51095238Y-93988152D01*
X51095238Y-93988152D02*
X51238095Y-93988152D01*
X51238095Y-93988152D02*
X51333333Y-94035771D01*
X68166665Y-23654819D02*
X67690475Y-23654819D01*
X67690475Y-23654819D02*
X67690475Y-22654819D01*
X68642856Y-23654819D02*
X68547618Y-23607200D01*
X68547618Y-23607200D02*
X68499999Y-23559580D01*
X68499999Y-23559580D02*
X68452380Y-23464342D01*
X68452380Y-23464342D02*
X68452380Y-23178628D01*
X68452380Y-23178628D02*
X68499999Y-23083390D01*
X68499999Y-23083390D02*
X68547618Y-23035771D01*
X68547618Y-23035771D02*
X68642856Y-22988152D01*
X68642856Y-22988152D02*
X68785713Y-22988152D01*
X68785713Y-22988152D02*
X68880951Y-23035771D01*
X68880951Y-23035771D02*
X68928570Y-23083390D01*
X68928570Y-23083390D02*
X68976189Y-23178628D01*
X68976189Y-23178628D02*
X68976189Y-23464342D01*
X68976189Y-23464342D02*
X68928570Y-23559580D01*
X68928570Y-23559580D02*
X68880951Y-23607200D01*
X68880951Y-23607200D02*
X68785713Y-23654819D01*
X68785713Y-23654819D02*
X68642856Y-23654819D01*
X69309523Y-22988152D02*
X69499999Y-23654819D01*
X69499999Y-23654819D02*
X69690475Y-23178628D01*
X69690475Y-23178628D02*
X69880951Y-23654819D01*
X69880951Y-23654819D02*
X70071427Y-22988152D01*
X70833332Y-23607200D02*
X70738094Y-23654819D01*
X70738094Y-23654819D02*
X70547618Y-23654819D01*
X70547618Y-23654819D02*
X70452380Y-23607200D01*
X70452380Y-23607200D02*
X70404761Y-23511961D01*
X70404761Y-23511961D02*
X70404761Y-23131009D01*
X70404761Y-23131009D02*
X70452380Y-23035771D01*
X70452380Y-23035771D02*
X70547618Y-22988152D01*
X70547618Y-22988152D02*
X70738094Y-22988152D01*
X70738094Y-22988152D02*
X70833332Y-23035771D01*
X70833332Y-23035771D02*
X70880951Y-23131009D01*
X70880951Y-23131009D02*
X70880951Y-23226247D01*
X70880951Y-23226247D02*
X70404761Y-23321485D01*
X71261904Y-23607200D02*
X71357142Y-23654819D01*
X71357142Y-23654819D02*
X71547618Y-23654819D01*
X71547618Y-23654819D02*
X71642856Y-23607200D01*
X71642856Y-23607200D02*
X71690475Y-23511961D01*
X71690475Y-23511961D02*
X71690475Y-23464342D01*
X71690475Y-23464342D02*
X71642856Y-23369104D01*
X71642856Y-23369104D02*
X71547618Y-23321485D01*
X71547618Y-23321485D02*
X71404761Y-23321485D01*
X71404761Y-23321485D02*
X71309523Y-23273866D01*
X71309523Y-23273866D02*
X71261904Y-23178628D01*
X71261904Y-23178628D02*
X71261904Y-23131009D01*
X71261904Y-23131009D02*
X71309523Y-23035771D01*
X71309523Y-23035771D02*
X71404761Y-22988152D01*
X71404761Y-22988152D02*
X71547618Y-22988152D01*
X71547618Y-22988152D02*
X71642856Y-23035771D01*
X71976190Y-22988152D02*
X72357142Y-22988152D01*
X72119047Y-22654819D02*
X72119047Y-23511961D01*
X72119047Y-23511961D02*
X72166666Y-23607200D01*
X72166666Y-23607200D02*
X72261904Y-23654819D01*
X72261904Y-23654819D02*
X72357142Y-23654819D01*
X74023809Y-23654819D02*
X73690476Y-23178628D01*
X73452381Y-23654819D02*
X73452381Y-22654819D01*
X73452381Y-22654819D02*
X73833333Y-22654819D01*
X73833333Y-22654819D02*
X73928571Y-22702438D01*
X73928571Y-22702438D02*
X73976190Y-22750057D01*
X73976190Y-22750057D02*
X74023809Y-22845295D01*
X74023809Y-22845295D02*
X74023809Y-22988152D01*
X74023809Y-22988152D02*
X73976190Y-23083390D01*
X73976190Y-23083390D02*
X73928571Y-23131009D01*
X73928571Y-23131009D02*
X73833333Y-23178628D01*
X73833333Y-23178628D02*
X73452381Y-23178628D01*
X74880952Y-23654819D02*
X74880952Y-23131009D01*
X74880952Y-23131009D02*
X74833333Y-23035771D01*
X74833333Y-23035771D02*
X74738095Y-22988152D01*
X74738095Y-22988152D02*
X74547619Y-22988152D01*
X74547619Y-22988152D02*
X74452381Y-23035771D01*
X74880952Y-23607200D02*
X74785714Y-23654819D01*
X74785714Y-23654819D02*
X74547619Y-23654819D01*
X74547619Y-23654819D02*
X74452381Y-23607200D01*
X74452381Y-23607200D02*
X74404762Y-23511961D01*
X74404762Y-23511961D02*
X74404762Y-23416723D01*
X74404762Y-23416723D02*
X74452381Y-23321485D01*
X74452381Y-23321485D02*
X74547619Y-23273866D01*
X74547619Y-23273866D02*
X74785714Y-23273866D01*
X74785714Y-23273866D02*
X74880952Y-23226247D01*
X75214286Y-22988152D02*
X75595238Y-22988152D01*
X75357143Y-22654819D02*
X75357143Y-23511961D01*
X75357143Y-23511961D02*
X75404762Y-23607200D01*
X75404762Y-23607200D02*
X75500000Y-23654819D01*
X75500000Y-23654819D02*
X75595238Y-23654819D01*
X76309524Y-23607200D02*
X76214286Y-23654819D01*
X76214286Y-23654819D02*
X76023810Y-23654819D01*
X76023810Y-23654819D02*
X75928572Y-23607200D01*
X75928572Y-23607200D02*
X75880953Y-23511961D01*
X75880953Y-23511961D02*
X75880953Y-23131009D01*
X75880953Y-23131009D02*
X75928572Y-23035771D01*
X75928572Y-23035771D02*
X76023810Y-22988152D01*
X76023810Y-22988152D02*
X76214286Y-22988152D01*
X76214286Y-22988152D02*
X76309524Y-23035771D01*
X76309524Y-23035771D02*
X76357143Y-23131009D01*
X76357143Y-23131009D02*
X76357143Y-23226247D01*
X76357143Y-23226247D02*
X75880953Y-23321485D01*
X65261904Y-106607200D02*
X65404761Y-106654819D01*
X65404761Y-106654819D02*
X65642856Y-106654819D01*
X65642856Y-106654819D02*
X65738094Y-106607200D01*
X65738094Y-106607200D02*
X65785713Y-106559580D01*
X65785713Y-106559580D02*
X65833332Y-106464342D01*
X65833332Y-106464342D02*
X65833332Y-106369104D01*
X65833332Y-106369104D02*
X65785713Y-106273866D01*
X65785713Y-106273866D02*
X65738094Y-106226247D01*
X65738094Y-106226247D02*
X65642856Y-106178628D01*
X65642856Y-106178628D02*
X65452380Y-106131009D01*
X65452380Y-106131009D02*
X65357142Y-106083390D01*
X65357142Y-106083390D02*
X65309523Y-106035771D01*
X65309523Y-106035771D02*
X65261904Y-105940533D01*
X65261904Y-105940533D02*
X65261904Y-105845295D01*
X65261904Y-105845295D02*
X65309523Y-105750057D01*
X65309523Y-105750057D02*
X65357142Y-105702438D01*
X65357142Y-105702438D02*
X65452380Y-105654819D01*
X65452380Y-105654819D02*
X65690475Y-105654819D01*
X65690475Y-105654819D02*
X65833332Y-105702438D01*
X66261904Y-106654819D02*
X66261904Y-105988152D01*
X66261904Y-105654819D02*
X66214285Y-105702438D01*
X66214285Y-105702438D02*
X66261904Y-105750057D01*
X66261904Y-105750057D02*
X66309523Y-105702438D01*
X66309523Y-105702438D02*
X66261904Y-105654819D01*
X66261904Y-105654819D02*
X66261904Y-105750057D01*
X66738094Y-105988152D02*
X66738094Y-106654819D01*
X66738094Y-106083390D02*
X66785713Y-106035771D01*
X66785713Y-106035771D02*
X66880951Y-105988152D01*
X66880951Y-105988152D02*
X67023808Y-105988152D01*
X67023808Y-105988152D02*
X67119046Y-106035771D01*
X67119046Y-106035771D02*
X67166665Y-106131009D01*
X67166665Y-106131009D02*
X67166665Y-106654819D01*
X68357141Y-105607200D02*
X67499999Y-106892914D01*
X68547618Y-105654819D02*
X69119046Y-105654819D01*
X68833332Y-106654819D02*
X68833332Y-105654819D01*
X69452380Y-106654819D02*
X69452380Y-105988152D01*
X69452380Y-106178628D02*
X69499999Y-106083390D01*
X69499999Y-106083390D02*
X69547618Y-106035771D01*
X69547618Y-106035771D02*
X69642856Y-105988152D01*
X69642856Y-105988152D02*
X69738094Y-105988152D01*
X70071428Y-106654819D02*
X70071428Y-105988152D01*
X70071428Y-105654819D02*
X70023809Y-105702438D01*
X70023809Y-105702438D02*
X70071428Y-105750057D01*
X70071428Y-105750057D02*
X70119047Y-105702438D01*
X70119047Y-105702438D02*
X70071428Y-105654819D01*
X70071428Y-105654819D02*
X70071428Y-105750057D01*
X71261904Y-106607200D02*
X71404761Y-106654819D01*
X71404761Y-106654819D02*
X71642856Y-106654819D01*
X71642856Y-106654819D02*
X71738094Y-106607200D01*
X71738094Y-106607200D02*
X71785713Y-106559580D01*
X71785713Y-106559580D02*
X71833332Y-106464342D01*
X71833332Y-106464342D02*
X71833332Y-106369104D01*
X71833332Y-106369104D02*
X71785713Y-106273866D01*
X71785713Y-106273866D02*
X71738094Y-106226247D01*
X71738094Y-106226247D02*
X71642856Y-106178628D01*
X71642856Y-106178628D02*
X71452380Y-106131009D01*
X71452380Y-106131009D02*
X71357142Y-106083390D01*
X71357142Y-106083390D02*
X71309523Y-106035771D01*
X71309523Y-106035771D02*
X71261904Y-105940533D01*
X71261904Y-105940533D02*
X71261904Y-105845295D01*
X71261904Y-105845295D02*
X71309523Y-105750057D01*
X71309523Y-105750057D02*
X71357142Y-105702438D01*
X71357142Y-105702438D02*
X71452380Y-105654819D01*
X71452380Y-105654819D02*
X71690475Y-105654819D01*
X71690475Y-105654819D02*
X71833332Y-105702438D01*
X72166666Y-105988152D02*
X72404761Y-106654819D01*
X72642856Y-105988152D02*
X72404761Y-106654819D01*
X72404761Y-106654819D02*
X72309523Y-106892914D01*
X72309523Y-106892914D02*
X72261904Y-106940533D01*
X72261904Y-106940533D02*
X72166666Y-106988152D01*
X73023809Y-106654819D02*
X73023809Y-105988152D01*
X73023809Y-106083390D02*
X73071428Y-106035771D01*
X73071428Y-106035771D02*
X73166666Y-105988152D01*
X73166666Y-105988152D02*
X73309523Y-105988152D01*
X73309523Y-105988152D02*
X73404761Y-106035771D01*
X73404761Y-106035771D02*
X73452380Y-106131009D01*
X73452380Y-106131009D02*
X73452380Y-106654819D01*
X73452380Y-106131009D02*
X73499999Y-106035771D01*
X73499999Y-106035771D02*
X73595237Y-105988152D01*
X73595237Y-105988152D02*
X73738094Y-105988152D01*
X73738094Y-105988152D02*
X73833333Y-106035771D01*
X73833333Y-106035771D02*
X73880952Y-106131009D01*
X73880952Y-106131009D02*
X73880952Y-106654819D01*
X74738094Y-106607200D02*
X74642856Y-106654819D01*
X74642856Y-106654819D02*
X74452380Y-106654819D01*
X74452380Y-106654819D02*
X74357142Y-106607200D01*
X74357142Y-106607200D02*
X74309523Y-106511961D01*
X74309523Y-106511961D02*
X74309523Y-106131009D01*
X74309523Y-106131009D02*
X74357142Y-106035771D01*
X74357142Y-106035771D02*
X74452380Y-105988152D01*
X74452380Y-105988152D02*
X74642856Y-105988152D01*
X74642856Y-105988152D02*
X74738094Y-106035771D01*
X74738094Y-106035771D02*
X74785713Y-106131009D01*
X74785713Y-106131009D02*
X74785713Y-106226247D01*
X74785713Y-106226247D02*
X74309523Y-106321485D01*
X75071428Y-105988152D02*
X75452380Y-105988152D01*
X75214285Y-105654819D02*
X75214285Y-106511961D01*
X75214285Y-106511961D02*
X75261904Y-106607200D01*
X75261904Y-106607200D02*
X75357142Y-106654819D01*
X75357142Y-106654819D02*
X75452380Y-106654819D01*
X75785714Y-106654819D02*
X75785714Y-105988152D01*
X75785714Y-106178628D02*
X75833333Y-106083390D01*
X75833333Y-106083390D02*
X75880952Y-106035771D01*
X75880952Y-106035771D02*
X75976190Y-105988152D01*
X75976190Y-105988152D02*
X76071428Y-105988152D01*
X76309524Y-105988152D02*
X76547619Y-106654819D01*
X76785714Y-105988152D02*
X76547619Y-106654819D01*
X76547619Y-106654819D02*
X76452381Y-106892914D01*
X76452381Y-106892914D02*
X76404762Y-106940533D01*
X76404762Y-106940533D02*
X76309524Y-106988152D01*
X95991905Y-104464819D02*
X95991905Y-103464819D01*
X95991905Y-103464819D02*
X96230000Y-103464819D01*
X96230000Y-103464819D02*
X96372857Y-103512438D01*
X96372857Y-103512438D02*
X96468095Y-103607676D01*
X96468095Y-103607676D02*
X96515714Y-103702914D01*
X96515714Y-103702914D02*
X96563333Y-103893390D01*
X96563333Y-103893390D02*
X96563333Y-104036247D01*
X96563333Y-104036247D02*
X96515714Y-104226723D01*
X96515714Y-104226723D02*
X96468095Y-104321961D01*
X96468095Y-104321961D02*
X96372857Y-104417200D01*
X96372857Y-104417200D02*
X96230000Y-104464819D01*
X96230000Y-104464819D02*
X95991905Y-104464819D01*
X97515714Y-104464819D02*
X96944286Y-104464819D01*
X97230000Y-104464819D02*
X97230000Y-103464819D01*
X97230000Y-103464819D02*
X97134762Y-103607676D01*
X97134762Y-103607676D02*
X97039524Y-103702914D01*
X97039524Y-103702914D02*
X96944286Y-103750533D01*
X91348166Y-81041319D02*
X91348166Y-81755604D01*
X91348166Y-81755604D02*
X91300547Y-81898461D01*
X91300547Y-81898461D02*
X91205309Y-81993700D01*
X91205309Y-81993700D02*
X91062452Y-82041319D01*
X91062452Y-82041319D02*
X90967214Y-82041319D01*
X92348166Y-82041319D02*
X91776738Y-82041319D01*
X92062452Y-82041319D02*
X92062452Y-81041319D01*
X92062452Y-81041319D02*
X91967214Y-81184176D01*
X91967214Y-81184176D02*
X91871976Y-81279414D01*
X91871976Y-81279414D02*
X91776738Y-81327033D01*
X81666666Y-56784819D02*
X81666666Y-57499104D01*
X81666666Y-57499104D02*
X81619047Y-57641961D01*
X81619047Y-57641961D02*
X81523809Y-57737200D01*
X81523809Y-57737200D02*
X81380952Y-57784819D01*
X81380952Y-57784819D02*
X81285714Y-57784819D01*
X82095238Y-56880057D02*
X82142857Y-56832438D01*
X82142857Y-56832438D02*
X82238095Y-56784819D01*
X82238095Y-56784819D02*
X82476190Y-56784819D01*
X82476190Y-56784819D02*
X82571428Y-56832438D01*
X82571428Y-56832438D02*
X82619047Y-56880057D01*
X82619047Y-56880057D02*
X82666666Y-56975295D01*
X82666666Y-56975295D02*
X82666666Y-57070533D01*
X82666666Y-57070533D02*
X82619047Y-57213390D01*
X82619047Y-57213390D02*
X82047619Y-57784819D01*
X82047619Y-57784819D02*
X82666666Y-57784819D01*
X77666666Y-56784819D02*
X77666666Y-57499104D01*
X77666666Y-57499104D02*
X77619047Y-57641961D01*
X77619047Y-57641961D02*
X77523809Y-57737200D01*
X77523809Y-57737200D02*
X77380952Y-57784819D01*
X77380952Y-57784819D02*
X77285714Y-57784819D01*
X78047619Y-56784819D02*
X78666666Y-56784819D01*
X78666666Y-56784819D02*
X78333333Y-57165771D01*
X78333333Y-57165771D02*
X78476190Y-57165771D01*
X78476190Y-57165771D02*
X78571428Y-57213390D01*
X78571428Y-57213390D02*
X78619047Y-57261009D01*
X78619047Y-57261009D02*
X78666666Y-57356247D01*
X78666666Y-57356247D02*
X78666666Y-57594342D01*
X78666666Y-57594342D02*
X78619047Y-57689580D01*
X78619047Y-57689580D02*
X78571428Y-57737200D01*
X78571428Y-57737200D02*
X78476190Y-57784819D01*
X78476190Y-57784819D02*
X78190476Y-57784819D01*
X78190476Y-57784819D02*
X78095238Y-57737200D01*
X78095238Y-57737200D02*
X78047619Y-57689580D01*
X91348166Y-16041319D02*
X91348166Y-16755604D01*
X91348166Y-16755604D02*
X91300547Y-16898461D01*
X91300547Y-16898461D02*
X91205309Y-16993700D01*
X91205309Y-16993700D02*
X91062452Y-17041319D01*
X91062452Y-17041319D02*
X90967214Y-17041319D01*
X92252928Y-16374652D02*
X92252928Y-17041319D01*
X92014833Y-15993700D02*
X91776738Y-16707985D01*
X91776738Y-16707985D02*
X92395785Y-16707985D01*
X91348166Y-1041319D02*
X91348166Y-1755604D01*
X91348166Y-1755604D02*
X91300547Y-1898461D01*
X91300547Y-1898461D02*
X91205309Y-1993700D01*
X91205309Y-1993700D02*
X91062452Y-2041319D01*
X91062452Y-2041319D02*
X90967214Y-2041319D01*
X92300547Y-1041319D02*
X91824357Y-1041319D01*
X91824357Y-1041319D02*
X91776738Y-1517509D01*
X91776738Y-1517509D02*
X91824357Y-1469890D01*
X91824357Y-1469890D02*
X91919595Y-1422271D01*
X91919595Y-1422271D02*
X92157690Y-1422271D01*
X92157690Y-1422271D02*
X92252928Y-1469890D01*
X92252928Y-1469890D02*
X92300547Y-1517509D01*
X92300547Y-1517509D02*
X92348166Y-1612747D01*
X92348166Y-1612747D02*
X92348166Y-1850842D01*
X92348166Y-1850842D02*
X92300547Y-1946080D01*
X92300547Y-1946080D02*
X92252928Y-1993700D01*
X92252928Y-1993700D02*
X92157690Y-2041319D01*
X92157690Y-2041319D02*
X91919595Y-2041319D01*
X91919595Y-2041319D02*
X91824357Y-1993700D01*
X91824357Y-1993700D02*
X91776738Y-1946080D01*
X7985166Y-27868319D02*
X7985166Y-28582604D01*
X7985166Y-28582604D02*
X7937547Y-28725461D01*
X7937547Y-28725461D02*
X7842309Y-28820700D01*
X7842309Y-28820700D02*
X7699452Y-28868319D01*
X7699452Y-28868319D02*
X7604214Y-28868319D01*
X8889928Y-27868319D02*
X8699452Y-27868319D01*
X8699452Y-27868319D02*
X8604214Y-27915938D01*
X8604214Y-27915938D02*
X8556595Y-27963557D01*
X8556595Y-27963557D02*
X8461357Y-28106414D01*
X8461357Y-28106414D02*
X8413738Y-28296890D01*
X8413738Y-28296890D02*
X8413738Y-28677842D01*
X8413738Y-28677842D02*
X8461357Y-28773080D01*
X8461357Y-28773080D02*
X8508976Y-28820700D01*
X8508976Y-28820700D02*
X8604214Y-28868319D01*
X8604214Y-28868319D02*
X8794690Y-28868319D01*
X8794690Y-28868319D02*
X8889928Y-28820700D01*
X8889928Y-28820700D02*
X8937547Y-28773080D01*
X8937547Y-28773080D02*
X8985166Y-28677842D01*
X8985166Y-28677842D02*
X8985166Y-28439747D01*
X8985166Y-28439747D02*
X8937547Y-28344509D01*
X8937547Y-28344509D02*
X8889928Y-28296890D01*
X8889928Y-28296890D02*
X8794690Y-28249271D01*
X8794690Y-28249271D02*
X8604214Y-28249271D01*
X8604214Y-28249271D02*
X8508976Y-28296890D01*
X8508976Y-28296890D02*
X8461357Y-28344509D01*
X8461357Y-28344509D02*
X8413738Y-28439747D01*
X22936666Y-87124819D02*
X22936666Y-87839104D01*
X22936666Y-87839104D02*
X22889047Y-87981961D01*
X22889047Y-87981961D02*
X22793809Y-88077200D01*
X22793809Y-88077200D02*
X22650952Y-88124819D01*
X22650952Y-88124819D02*
X22555714Y-88124819D01*
X23317619Y-87124819D02*
X23984285Y-87124819D01*
X23984285Y-87124819D02*
X23555714Y-88124819D01*
X17666666Y-37124819D02*
X17666666Y-37839104D01*
X17666666Y-37839104D02*
X17619047Y-37981961D01*
X17619047Y-37981961D02*
X17523809Y-38077200D01*
X17523809Y-38077200D02*
X17380952Y-38124819D01*
X17380952Y-38124819D02*
X17285714Y-38124819D01*
X18285714Y-37553390D02*
X18190476Y-37505771D01*
X18190476Y-37505771D02*
X18142857Y-37458152D01*
X18142857Y-37458152D02*
X18095238Y-37362914D01*
X18095238Y-37362914D02*
X18095238Y-37315295D01*
X18095238Y-37315295D02*
X18142857Y-37220057D01*
X18142857Y-37220057D02*
X18190476Y-37172438D01*
X18190476Y-37172438D02*
X18285714Y-37124819D01*
X18285714Y-37124819D02*
X18476190Y-37124819D01*
X18476190Y-37124819D02*
X18571428Y-37172438D01*
X18571428Y-37172438D02*
X18619047Y-37220057D01*
X18619047Y-37220057D02*
X18666666Y-37315295D01*
X18666666Y-37315295D02*
X18666666Y-37362914D01*
X18666666Y-37362914D02*
X18619047Y-37458152D01*
X18619047Y-37458152D02*
X18571428Y-37505771D01*
X18571428Y-37505771D02*
X18476190Y-37553390D01*
X18476190Y-37553390D02*
X18285714Y-37553390D01*
X18285714Y-37553390D02*
X18190476Y-37601009D01*
X18190476Y-37601009D02*
X18142857Y-37648628D01*
X18142857Y-37648628D02*
X18095238Y-37743866D01*
X18095238Y-37743866D02*
X18095238Y-37934342D01*
X18095238Y-37934342D02*
X18142857Y-38029580D01*
X18142857Y-38029580D02*
X18190476Y-38077200D01*
X18190476Y-38077200D02*
X18285714Y-38124819D01*
X18285714Y-38124819D02*
X18476190Y-38124819D01*
X18476190Y-38124819D02*
X18571428Y-38077200D01*
X18571428Y-38077200D02*
X18619047Y-38029580D01*
X18619047Y-38029580D02*
X18666666Y-37934342D01*
X18666666Y-37934342D02*
X18666666Y-37743866D01*
X18666666Y-37743866D02*
X18619047Y-37648628D01*
X18619047Y-37648628D02*
X18571428Y-37601009D01*
X18571428Y-37601009D02*
X18476190Y-37553390D01*
X21666666Y-61784819D02*
X21666666Y-62499104D01*
X21666666Y-62499104D02*
X21619047Y-62641961D01*
X21619047Y-62641961D02*
X21523809Y-62737200D01*
X21523809Y-62737200D02*
X21380952Y-62784819D01*
X21380952Y-62784819D02*
X21285714Y-62784819D01*
X22190476Y-62784819D02*
X22380952Y-62784819D01*
X22380952Y-62784819D02*
X22476190Y-62737200D01*
X22476190Y-62737200D02*
X22523809Y-62689580D01*
X22523809Y-62689580D02*
X22619047Y-62546723D01*
X22619047Y-62546723D02*
X22666666Y-62356247D01*
X22666666Y-62356247D02*
X22666666Y-61975295D01*
X22666666Y-61975295D02*
X22619047Y-61880057D01*
X22619047Y-61880057D02*
X22571428Y-61832438D01*
X22571428Y-61832438D02*
X22476190Y-61784819D01*
X22476190Y-61784819D02*
X22285714Y-61784819D01*
X22285714Y-61784819D02*
X22190476Y-61832438D01*
X22190476Y-61832438D02*
X22142857Y-61880057D01*
X22142857Y-61880057D02*
X22095238Y-61975295D01*
X22095238Y-61975295D02*
X22095238Y-62213390D01*
X22095238Y-62213390D02*
X22142857Y-62308628D01*
X22142857Y-62308628D02*
X22190476Y-62356247D01*
X22190476Y-62356247D02*
X22285714Y-62403866D01*
X22285714Y-62403866D02*
X22476190Y-62403866D01*
X22476190Y-62403866D02*
X22571428Y-62356247D01*
X22571428Y-62356247D02*
X22619047Y-62308628D01*
X22619047Y-62308628D02*
X22666666Y-62213390D01*
X7508976Y-92868319D02*
X7508976Y-93582604D01*
X7508976Y-93582604D02*
X7461357Y-93725461D01*
X7461357Y-93725461D02*
X7366119Y-93820700D01*
X7366119Y-93820700D02*
X7223262Y-93868319D01*
X7223262Y-93868319D02*
X7128024Y-93868319D01*
X8508976Y-93868319D02*
X7937548Y-93868319D01*
X8223262Y-93868319D02*
X8223262Y-92868319D01*
X8223262Y-92868319D02*
X8128024Y-93011176D01*
X8128024Y-93011176D02*
X8032786Y-93106414D01*
X8032786Y-93106414D02*
X7937548Y-93154033D01*
X9128024Y-92868319D02*
X9223262Y-92868319D01*
X9223262Y-92868319D02*
X9318500Y-92915938D01*
X9318500Y-92915938D02*
X9366119Y-92963557D01*
X9366119Y-92963557D02*
X9413738Y-93058795D01*
X9413738Y-93058795D02*
X9461357Y-93249271D01*
X9461357Y-93249271D02*
X9461357Y-93487366D01*
X9461357Y-93487366D02*
X9413738Y-93677842D01*
X9413738Y-93677842D02*
X9366119Y-93773080D01*
X9366119Y-93773080D02*
X9318500Y-93820700D01*
X9318500Y-93820700D02*
X9223262Y-93868319D01*
X9223262Y-93868319D02*
X9128024Y-93868319D01*
X9128024Y-93868319D02*
X9032786Y-93820700D01*
X9032786Y-93820700D02*
X8985167Y-93773080D01*
X8985167Y-93773080D02*
X8937548Y-93677842D01*
X8937548Y-93677842D02*
X8889929Y-93487366D01*
X8889929Y-93487366D02*
X8889929Y-93249271D01*
X8889929Y-93249271D02*
X8937548Y-93058795D01*
X8937548Y-93058795D02*
X8985167Y-92963557D01*
X8985167Y-92963557D02*
X9032786Y-92915938D01*
X9032786Y-92915938D02*
X9128024Y-92868319D01*
X7508976Y-107868319D02*
X7508976Y-108582604D01*
X7508976Y-108582604D02*
X7461357Y-108725461D01*
X7461357Y-108725461D02*
X7366119Y-108820700D01*
X7366119Y-108820700D02*
X7223262Y-108868319D01*
X7223262Y-108868319D02*
X7128024Y-108868319D01*
X8508976Y-108868319D02*
X7937548Y-108868319D01*
X8223262Y-108868319D02*
X8223262Y-107868319D01*
X8223262Y-107868319D02*
X8128024Y-108011176D01*
X8128024Y-108011176D02*
X8032786Y-108106414D01*
X8032786Y-108106414D02*
X7937548Y-108154033D01*
X9461357Y-108868319D02*
X8889929Y-108868319D01*
X9175643Y-108868319D02*
X9175643Y-107868319D01*
X9175643Y-107868319D02*
X9080405Y-108011176D01*
X9080405Y-108011176D02*
X8985167Y-108106414D01*
X8985167Y-108106414D02*
X8889929Y-108154033D01*
X95904761Y-37404819D02*
X95571428Y-36928628D01*
X95333333Y-37404819D02*
X95333333Y-36404819D01*
X95333333Y-36404819D02*
X95714285Y-36404819D01*
X95714285Y-36404819D02*
X95809523Y-36452438D01*
X95809523Y-36452438D02*
X95857142Y-36500057D01*
X95857142Y-36500057D02*
X95904761Y-36595295D01*
X95904761Y-36595295D02*
X95904761Y-36738152D01*
X95904761Y-36738152D02*
X95857142Y-36833390D01*
X95857142Y-36833390D02*
X95809523Y-36881009D01*
X95809523Y-36881009D02*
X95714285Y-36928628D01*
X95714285Y-36928628D02*
X95333333Y-36928628D01*
X96190476Y-36404819D02*
X96523809Y-37404819D01*
X96523809Y-37404819D02*
X96857142Y-36404819D01*
X97142857Y-36500057D02*
X97190476Y-36452438D01*
X97190476Y-36452438D02*
X97285714Y-36404819D01*
X97285714Y-36404819D02*
X97523809Y-36404819D01*
X97523809Y-36404819D02*
X97619047Y-36452438D01*
X97619047Y-36452438D02*
X97666666Y-36500057D01*
X97666666Y-36500057D02*
X97714285Y-36595295D01*
X97714285Y-36595295D02*
X97714285Y-36690533D01*
X97714285Y-36690533D02*
X97666666Y-36833390D01*
X97666666Y-36833390D02*
X97095238Y-37404819D01*
X97095238Y-37404819D02*
X97714285Y-37404819D01*
X2904761Y-51504819D02*
X2571428Y-51028628D01*
X2333333Y-51504819D02*
X2333333Y-50504819D01*
X2333333Y-50504819D02*
X2714285Y-50504819D01*
X2714285Y-50504819D02*
X2809523Y-50552438D01*
X2809523Y-50552438D02*
X2857142Y-50600057D01*
X2857142Y-50600057D02*
X2904761Y-50695295D01*
X2904761Y-50695295D02*
X2904761Y-50838152D01*
X2904761Y-50838152D02*
X2857142Y-50933390D01*
X2857142Y-50933390D02*
X2809523Y-50981009D01*
X2809523Y-50981009D02*
X2714285Y-51028628D01*
X2714285Y-51028628D02*
X2333333Y-51028628D01*
X3190476Y-50504819D02*
X3523809Y-51504819D01*
X3523809Y-51504819D02*
X3857142Y-50504819D01*
X4619047Y-50504819D02*
X4428571Y-50504819D01*
X4428571Y-50504819D02*
X4333333Y-50552438D01*
X4333333Y-50552438D02*
X4285714Y-50600057D01*
X4285714Y-50600057D02*
X4190476Y-50742914D01*
X4190476Y-50742914D02*
X4142857Y-50933390D01*
X4142857Y-50933390D02*
X4142857Y-51314342D01*
X4142857Y-51314342D02*
X4190476Y-51409580D01*
X4190476Y-51409580D02*
X4238095Y-51457200D01*
X4238095Y-51457200D02*
X4333333Y-51504819D01*
X4333333Y-51504819D02*
X4523809Y-51504819D01*
X4523809Y-51504819D02*
X4619047Y-51457200D01*
X4619047Y-51457200D02*
X4666666Y-51409580D01*
X4666666Y-51409580D02*
X4714285Y-51314342D01*
X4714285Y-51314342D02*
X4714285Y-51076247D01*
X4714285Y-51076247D02*
X4666666Y-50981009D01*
X4666666Y-50981009D02*
X4619047Y-50933390D01*
X4619047Y-50933390D02*
X4523809Y-50885771D01*
X4523809Y-50885771D02*
X4333333Y-50885771D01*
X4333333Y-50885771D02*
X4238095Y-50933390D01*
X4238095Y-50933390D02*
X4190476Y-50981009D01*
X4190476Y-50981009D02*
X4142857Y-51076247D01*
X2904761Y-73504819D02*
X2571428Y-73028628D01*
X2333333Y-73504819D02*
X2333333Y-72504819D01*
X2333333Y-72504819D02*
X2714285Y-72504819D01*
X2714285Y-72504819D02*
X2809523Y-72552438D01*
X2809523Y-72552438D02*
X2857142Y-72600057D01*
X2857142Y-72600057D02*
X2904761Y-72695295D01*
X2904761Y-72695295D02*
X2904761Y-72838152D01*
X2904761Y-72838152D02*
X2857142Y-72933390D01*
X2857142Y-72933390D02*
X2809523Y-72981009D01*
X2809523Y-72981009D02*
X2714285Y-73028628D01*
X2714285Y-73028628D02*
X2333333Y-73028628D01*
X3190476Y-72504819D02*
X3523809Y-73504819D01*
X3523809Y-73504819D02*
X3857142Y-72504819D01*
X4095238Y-72504819D02*
X4761904Y-72504819D01*
X4761904Y-72504819D02*
X4333333Y-73504819D01*
X93616667Y-65357200D02*
X93759524Y-65404819D01*
X93759524Y-65404819D02*
X93997619Y-65404819D01*
X93997619Y-65404819D02*
X94092857Y-65357200D01*
X94092857Y-65357200D02*
X94140476Y-65309580D01*
X94140476Y-65309580D02*
X94188095Y-65214342D01*
X94188095Y-65214342D02*
X94188095Y-65119104D01*
X94188095Y-65119104D02*
X94140476Y-65023866D01*
X94140476Y-65023866D02*
X94092857Y-64976247D01*
X94092857Y-64976247D02*
X93997619Y-64928628D01*
X93997619Y-64928628D02*
X93807143Y-64881009D01*
X93807143Y-64881009D02*
X93711905Y-64833390D01*
X93711905Y-64833390D02*
X93664286Y-64785771D01*
X93664286Y-64785771D02*
X93616667Y-64690533D01*
X93616667Y-64690533D02*
X93616667Y-64595295D01*
X93616667Y-64595295D02*
X93664286Y-64500057D01*
X93664286Y-64500057D02*
X93711905Y-64452438D01*
X93711905Y-64452438D02*
X93807143Y-64404819D01*
X93807143Y-64404819D02*
X94045238Y-64404819D01*
X94045238Y-64404819D02*
X94188095Y-64452438D01*
X94521429Y-64404819D02*
X94759524Y-65404819D01*
X94759524Y-65404819D02*
X94950000Y-64690533D01*
X94950000Y-64690533D02*
X95140476Y-65404819D01*
X95140476Y-65404819D02*
X95378572Y-64404819D01*
X96283333Y-65404819D02*
X95711905Y-65404819D01*
X95997619Y-65404819D02*
X95997619Y-64404819D01*
X95997619Y-64404819D02*
X95902381Y-64547676D01*
X95902381Y-64547676D02*
X95807143Y-64642914D01*
X95807143Y-64642914D02*
X95711905Y-64690533D01*
X61833333Y-27109580D02*
X61785714Y-27157200D01*
X61785714Y-27157200D02*
X61642857Y-27204819D01*
X61642857Y-27204819D02*
X61547619Y-27204819D01*
X61547619Y-27204819D02*
X61404762Y-27157200D01*
X61404762Y-27157200D02*
X61309524Y-27061961D01*
X61309524Y-27061961D02*
X61261905Y-26966723D01*
X61261905Y-26966723D02*
X61214286Y-26776247D01*
X61214286Y-26776247D02*
X61214286Y-26633390D01*
X61214286Y-26633390D02*
X61261905Y-26442914D01*
X61261905Y-26442914D02*
X61309524Y-26347676D01*
X61309524Y-26347676D02*
X61404762Y-26252438D01*
X61404762Y-26252438D02*
X61547619Y-26204819D01*
X61547619Y-26204819D02*
X61642857Y-26204819D01*
X61642857Y-26204819D02*
X61785714Y-26252438D01*
X61785714Y-26252438D02*
X61833333Y-26300057D01*
X62785714Y-27204819D02*
X62214286Y-27204819D01*
X62500000Y-27204819D02*
X62500000Y-26204819D01*
X62500000Y-26204819D02*
X62404762Y-26347676D01*
X62404762Y-26347676D02*
X62309524Y-26442914D01*
X62309524Y-26442914D02*
X62214286Y-26490533D01*
X61833333Y-12109580D02*
X61785714Y-12157200D01*
X61785714Y-12157200D02*
X61642857Y-12204819D01*
X61642857Y-12204819D02*
X61547619Y-12204819D01*
X61547619Y-12204819D02*
X61404762Y-12157200D01*
X61404762Y-12157200D02*
X61309524Y-12061961D01*
X61309524Y-12061961D02*
X61261905Y-11966723D01*
X61261905Y-11966723D02*
X61214286Y-11776247D01*
X61214286Y-11776247D02*
X61214286Y-11633390D01*
X61214286Y-11633390D02*
X61261905Y-11442914D01*
X61261905Y-11442914D02*
X61309524Y-11347676D01*
X61309524Y-11347676D02*
X61404762Y-11252438D01*
X61404762Y-11252438D02*
X61547619Y-11204819D01*
X61547619Y-11204819D02*
X61642857Y-11204819D01*
X61642857Y-11204819D02*
X61785714Y-11252438D01*
X61785714Y-11252438D02*
X61833333Y-11300057D01*
X62214286Y-11300057D02*
X62261905Y-11252438D01*
X62261905Y-11252438D02*
X62357143Y-11204819D01*
X62357143Y-11204819D02*
X62595238Y-11204819D01*
X62595238Y-11204819D02*
X62690476Y-11252438D01*
X62690476Y-11252438D02*
X62738095Y-11300057D01*
X62738095Y-11300057D02*
X62785714Y-11395295D01*
X62785714Y-11395295D02*
X62785714Y-11490533D01*
X62785714Y-11490533D02*
X62738095Y-11633390D01*
X62738095Y-11633390D02*
X62166667Y-12204819D01*
X62166667Y-12204819D02*
X62785714Y-12204819D01*
X92833333Y-60109580D02*
X92785714Y-60157200D01*
X92785714Y-60157200D02*
X92642857Y-60204819D01*
X92642857Y-60204819D02*
X92547619Y-60204819D01*
X92547619Y-60204819D02*
X92404762Y-60157200D01*
X92404762Y-60157200D02*
X92309524Y-60061961D01*
X92309524Y-60061961D02*
X92261905Y-59966723D01*
X92261905Y-59966723D02*
X92214286Y-59776247D01*
X92214286Y-59776247D02*
X92214286Y-59633390D01*
X92214286Y-59633390D02*
X92261905Y-59442914D01*
X92261905Y-59442914D02*
X92309524Y-59347676D01*
X92309524Y-59347676D02*
X92404762Y-59252438D01*
X92404762Y-59252438D02*
X92547619Y-59204819D01*
X92547619Y-59204819D02*
X92642857Y-59204819D01*
X92642857Y-59204819D02*
X92785714Y-59252438D01*
X92785714Y-59252438D02*
X92833333Y-59300057D01*
X93690476Y-59538152D02*
X93690476Y-60204819D01*
X93452381Y-59157200D02*
X93214286Y-59871485D01*
X93214286Y-59871485D02*
X93833333Y-59871485D01*
X61833333Y-87109580D02*
X61785714Y-87157200D01*
X61785714Y-87157200D02*
X61642857Y-87204819D01*
X61642857Y-87204819D02*
X61547619Y-87204819D01*
X61547619Y-87204819D02*
X61404762Y-87157200D01*
X61404762Y-87157200D02*
X61309524Y-87061961D01*
X61309524Y-87061961D02*
X61261905Y-86966723D01*
X61261905Y-86966723D02*
X61214286Y-86776247D01*
X61214286Y-86776247D02*
X61214286Y-86633390D01*
X61214286Y-86633390D02*
X61261905Y-86442914D01*
X61261905Y-86442914D02*
X61309524Y-86347676D01*
X61309524Y-86347676D02*
X61404762Y-86252438D01*
X61404762Y-86252438D02*
X61547619Y-86204819D01*
X61547619Y-86204819D02*
X61642857Y-86204819D01*
X61642857Y-86204819D02*
X61785714Y-86252438D01*
X61785714Y-86252438D02*
X61833333Y-86300057D01*
X62690476Y-86204819D02*
X62500000Y-86204819D01*
X62500000Y-86204819D02*
X62404762Y-86252438D01*
X62404762Y-86252438D02*
X62357143Y-86300057D01*
X62357143Y-86300057D02*
X62261905Y-86442914D01*
X62261905Y-86442914D02*
X62214286Y-86633390D01*
X62214286Y-86633390D02*
X62214286Y-87014342D01*
X62214286Y-87014342D02*
X62261905Y-87109580D01*
X62261905Y-87109580D02*
X62309524Y-87157200D01*
X62309524Y-87157200D02*
X62404762Y-87204819D01*
X62404762Y-87204819D02*
X62595238Y-87204819D01*
X62595238Y-87204819D02*
X62690476Y-87157200D01*
X62690476Y-87157200D02*
X62738095Y-87109580D01*
X62738095Y-87109580D02*
X62785714Y-87014342D01*
X62785714Y-87014342D02*
X62785714Y-86776247D01*
X62785714Y-86776247D02*
X62738095Y-86681009D01*
X62738095Y-86681009D02*
X62690476Y-86633390D01*
X62690476Y-86633390D02*
X62595238Y-86585771D01*
X62595238Y-86585771D02*
X62404762Y-86585771D01*
X62404762Y-86585771D02*
X62309524Y-86633390D01*
X62309524Y-86633390D02*
X62261905Y-86681009D01*
X62261905Y-86681009D02*
X62214286Y-86776247D01*
X61833333Y-37109580D02*
X61785714Y-37157200D01*
X61785714Y-37157200D02*
X61642857Y-37204819D01*
X61642857Y-37204819D02*
X61547619Y-37204819D01*
X61547619Y-37204819D02*
X61404762Y-37157200D01*
X61404762Y-37157200D02*
X61309524Y-37061961D01*
X61309524Y-37061961D02*
X61261905Y-36966723D01*
X61261905Y-36966723D02*
X61214286Y-36776247D01*
X61214286Y-36776247D02*
X61214286Y-36633390D01*
X61214286Y-36633390D02*
X61261905Y-36442914D01*
X61261905Y-36442914D02*
X61309524Y-36347676D01*
X61309524Y-36347676D02*
X61404762Y-36252438D01*
X61404762Y-36252438D02*
X61547619Y-36204819D01*
X61547619Y-36204819D02*
X61642857Y-36204819D01*
X61642857Y-36204819D02*
X61785714Y-36252438D01*
X61785714Y-36252438D02*
X61833333Y-36300057D01*
X62166667Y-36204819D02*
X62833333Y-36204819D01*
X62833333Y-36204819D02*
X62404762Y-37204819D01*
X47833333Y-1799580D02*
X47785714Y-1847200D01*
X47785714Y-1847200D02*
X47642857Y-1894819D01*
X47642857Y-1894819D02*
X47547619Y-1894819D01*
X47547619Y-1894819D02*
X47404762Y-1847200D01*
X47404762Y-1847200D02*
X47309524Y-1751961D01*
X47309524Y-1751961D02*
X47261905Y-1656723D01*
X47261905Y-1656723D02*
X47214286Y-1466247D01*
X47214286Y-1466247D02*
X47214286Y-1323390D01*
X47214286Y-1323390D02*
X47261905Y-1132914D01*
X47261905Y-1132914D02*
X47309524Y-1037676D01*
X47309524Y-1037676D02*
X47404762Y-942438D01*
X47404762Y-942438D02*
X47547619Y-894819D01*
X47547619Y-894819D02*
X47642857Y-894819D01*
X47642857Y-894819D02*
X47785714Y-942438D01*
X47785714Y-942438D02*
X47833333Y-990057D01*
X48404762Y-1323390D02*
X48309524Y-1275771D01*
X48309524Y-1275771D02*
X48261905Y-1228152D01*
X48261905Y-1228152D02*
X48214286Y-1132914D01*
X48214286Y-1132914D02*
X48214286Y-1085295D01*
X48214286Y-1085295D02*
X48261905Y-990057D01*
X48261905Y-990057D02*
X48309524Y-942438D01*
X48309524Y-942438D02*
X48404762Y-894819D01*
X48404762Y-894819D02*
X48595238Y-894819D01*
X48595238Y-894819D02*
X48690476Y-942438D01*
X48690476Y-942438D02*
X48738095Y-990057D01*
X48738095Y-990057D02*
X48785714Y-1085295D01*
X48785714Y-1085295D02*
X48785714Y-1132914D01*
X48785714Y-1132914D02*
X48738095Y-1228152D01*
X48738095Y-1228152D02*
X48690476Y-1275771D01*
X48690476Y-1275771D02*
X48595238Y-1323390D01*
X48595238Y-1323390D02*
X48404762Y-1323390D01*
X48404762Y-1323390D02*
X48309524Y-1371009D01*
X48309524Y-1371009D02*
X48261905Y-1418628D01*
X48261905Y-1418628D02*
X48214286Y-1513866D01*
X48214286Y-1513866D02*
X48214286Y-1704342D01*
X48214286Y-1704342D02*
X48261905Y-1799580D01*
X48261905Y-1799580D02*
X48309524Y-1847200D01*
X48309524Y-1847200D02*
X48404762Y-1894819D01*
X48404762Y-1894819D02*
X48595238Y-1894819D01*
X48595238Y-1894819D02*
X48690476Y-1847200D01*
X48690476Y-1847200D02*
X48738095Y-1799580D01*
X48738095Y-1799580D02*
X48785714Y-1704342D01*
X48785714Y-1704342D02*
X48785714Y-1513866D01*
X48785714Y-1513866D02*
X48738095Y-1418628D01*
X48738095Y-1418628D02*
X48690476Y-1371009D01*
X48690476Y-1371009D02*
X48595238Y-1323390D01*
X51899048Y-3063866D02*
X52660953Y-3063866D01*
X52280000Y-3444819D02*
X52280000Y-2682914D01*
X34279580Y-100166666D02*
X34327200Y-100214285D01*
X34327200Y-100214285D02*
X34374819Y-100357142D01*
X34374819Y-100357142D02*
X34374819Y-100452380D01*
X34374819Y-100452380D02*
X34327200Y-100595237D01*
X34327200Y-100595237D02*
X34231961Y-100690475D01*
X34231961Y-100690475D02*
X34136723Y-100738094D01*
X34136723Y-100738094D02*
X33946247Y-100785713D01*
X33946247Y-100785713D02*
X33803390Y-100785713D01*
X33803390Y-100785713D02*
X33612914Y-100738094D01*
X33612914Y-100738094D02*
X33517676Y-100690475D01*
X33517676Y-100690475D02*
X33422438Y-100595237D01*
X33422438Y-100595237D02*
X33374819Y-100452380D01*
X33374819Y-100452380D02*
X33374819Y-100357142D01*
X33374819Y-100357142D02*
X33422438Y-100214285D01*
X33422438Y-100214285D02*
X33470057Y-100166666D01*
X34374819Y-99690475D02*
X34374819Y-99499999D01*
X34374819Y-99499999D02*
X34327200Y-99404761D01*
X34327200Y-99404761D02*
X34279580Y-99357142D01*
X34279580Y-99357142D02*
X34136723Y-99261904D01*
X34136723Y-99261904D02*
X33946247Y-99214285D01*
X33946247Y-99214285D02*
X33565295Y-99214285D01*
X33565295Y-99214285D02*
X33470057Y-99261904D01*
X33470057Y-99261904D02*
X33422438Y-99309523D01*
X33422438Y-99309523D02*
X33374819Y-99404761D01*
X33374819Y-99404761D02*
X33374819Y-99595237D01*
X33374819Y-99595237D02*
X33422438Y-99690475D01*
X33422438Y-99690475D02*
X33470057Y-99738094D01*
X33470057Y-99738094D02*
X33565295Y-99785713D01*
X33565295Y-99785713D02*
X33803390Y-99785713D01*
X33803390Y-99785713D02*
X33898628Y-99738094D01*
X33898628Y-99738094D02*
X33946247Y-99690475D01*
X33946247Y-99690475D02*
X33993866Y-99595237D01*
X33993866Y-99595237D02*
X33993866Y-99404761D01*
X33993866Y-99404761D02*
X33946247Y-99309523D01*
X33946247Y-99309523D02*
X33898628Y-99261904D01*
X33898628Y-99261904D02*
X33803390Y-99214285D01*
X32423866Y-103760951D02*
X32423866Y-102999047D01*
X32804819Y-103379999D02*
X32042914Y-103379999D01*
X47357142Y-20799580D02*
X47309523Y-20847200D01*
X47309523Y-20847200D02*
X47166666Y-20894819D01*
X47166666Y-20894819D02*
X47071428Y-20894819D01*
X47071428Y-20894819D02*
X46928571Y-20847200D01*
X46928571Y-20847200D02*
X46833333Y-20751961D01*
X46833333Y-20751961D02*
X46785714Y-20656723D01*
X46785714Y-20656723D02*
X46738095Y-20466247D01*
X46738095Y-20466247D02*
X46738095Y-20323390D01*
X46738095Y-20323390D02*
X46785714Y-20132914D01*
X46785714Y-20132914D02*
X46833333Y-20037676D01*
X46833333Y-20037676D02*
X46928571Y-19942438D01*
X46928571Y-19942438D02*
X47071428Y-19894819D01*
X47071428Y-19894819D02*
X47166666Y-19894819D01*
X47166666Y-19894819D02*
X47309523Y-19942438D01*
X47309523Y-19942438D02*
X47357142Y-19990057D01*
X48309523Y-20894819D02*
X47738095Y-20894819D01*
X48023809Y-20894819D02*
X48023809Y-19894819D01*
X48023809Y-19894819D02*
X47928571Y-20037676D01*
X47928571Y-20037676D02*
X47833333Y-20132914D01*
X47833333Y-20132914D02*
X47738095Y-20180533D01*
X48928571Y-19894819D02*
X49023809Y-19894819D01*
X49023809Y-19894819D02*
X49119047Y-19942438D01*
X49119047Y-19942438D02*
X49166666Y-19990057D01*
X49166666Y-19990057D02*
X49214285Y-20085295D01*
X49214285Y-20085295D02*
X49261904Y-20275771D01*
X49261904Y-20275771D02*
X49261904Y-20513866D01*
X49261904Y-20513866D02*
X49214285Y-20704342D01*
X49214285Y-20704342D02*
X49166666Y-20799580D01*
X49166666Y-20799580D02*
X49119047Y-20847200D01*
X49119047Y-20847200D02*
X49023809Y-20894819D01*
X49023809Y-20894819D02*
X48928571Y-20894819D01*
X48928571Y-20894819D02*
X48833333Y-20847200D01*
X48833333Y-20847200D02*
X48785714Y-20799580D01*
X48785714Y-20799580D02*
X48738095Y-20704342D01*
X48738095Y-20704342D02*
X48690476Y-20513866D01*
X48690476Y-20513866D02*
X48690476Y-20275771D01*
X48690476Y-20275771D02*
X48738095Y-20085295D01*
X48738095Y-20085295D02*
X48785714Y-19990057D01*
X48785714Y-19990057D02*
X48833333Y-19942438D01*
X48833333Y-19942438D02*
X48928571Y-19894819D01*
X51899048Y-22063866D02*
X52660953Y-22063866D01*
X52280000Y-22444819D02*
X52280000Y-21682914D01*
X47357142Y-40809580D02*
X47309523Y-40857200D01*
X47309523Y-40857200D02*
X47166666Y-40904819D01*
X47166666Y-40904819D02*
X47071428Y-40904819D01*
X47071428Y-40904819D02*
X46928571Y-40857200D01*
X46928571Y-40857200D02*
X46833333Y-40761961D01*
X46833333Y-40761961D02*
X46785714Y-40666723D01*
X46785714Y-40666723D02*
X46738095Y-40476247D01*
X46738095Y-40476247D02*
X46738095Y-40333390D01*
X46738095Y-40333390D02*
X46785714Y-40142914D01*
X46785714Y-40142914D02*
X46833333Y-40047676D01*
X46833333Y-40047676D02*
X46928571Y-39952438D01*
X46928571Y-39952438D02*
X47071428Y-39904819D01*
X47071428Y-39904819D02*
X47166666Y-39904819D01*
X47166666Y-39904819D02*
X47309523Y-39952438D01*
X47309523Y-39952438D02*
X47357142Y-40000057D01*
X48309523Y-40904819D02*
X47738095Y-40904819D01*
X48023809Y-40904819D02*
X48023809Y-39904819D01*
X48023809Y-39904819D02*
X47928571Y-40047676D01*
X47928571Y-40047676D02*
X47833333Y-40142914D01*
X47833333Y-40142914D02*
X47738095Y-40190533D01*
X49261904Y-40904819D02*
X48690476Y-40904819D01*
X48976190Y-40904819D02*
X48976190Y-39904819D01*
X48976190Y-39904819D02*
X48880952Y-40047676D01*
X48880952Y-40047676D02*
X48785714Y-40142914D01*
X48785714Y-40142914D02*
X48690476Y-40190533D01*
X43339048Y-48083866D02*
X44100953Y-48083866D01*
X43720000Y-48464819D02*
X43720000Y-47702914D01*
X47357142Y-65809580D02*
X47309523Y-65857200D01*
X47309523Y-65857200D02*
X47166666Y-65904819D01*
X47166666Y-65904819D02*
X47071428Y-65904819D01*
X47071428Y-65904819D02*
X46928571Y-65857200D01*
X46928571Y-65857200D02*
X46833333Y-65761961D01*
X46833333Y-65761961D02*
X46785714Y-65666723D01*
X46785714Y-65666723D02*
X46738095Y-65476247D01*
X46738095Y-65476247D02*
X46738095Y-65333390D01*
X46738095Y-65333390D02*
X46785714Y-65142914D01*
X46785714Y-65142914D02*
X46833333Y-65047676D01*
X46833333Y-65047676D02*
X46928571Y-64952438D01*
X46928571Y-64952438D02*
X47071428Y-64904819D01*
X47071428Y-64904819D02*
X47166666Y-64904819D01*
X47166666Y-64904819D02*
X47309523Y-64952438D01*
X47309523Y-64952438D02*
X47357142Y-65000057D01*
X48309523Y-65904819D02*
X47738095Y-65904819D01*
X48023809Y-65904819D02*
X48023809Y-64904819D01*
X48023809Y-64904819D02*
X47928571Y-65047676D01*
X47928571Y-65047676D02*
X47833333Y-65142914D01*
X47833333Y-65142914D02*
X47738095Y-65190533D01*
X48690476Y-65000057D02*
X48738095Y-64952438D01*
X48738095Y-64952438D02*
X48833333Y-64904819D01*
X48833333Y-64904819D02*
X49071428Y-64904819D01*
X49071428Y-64904819D02*
X49166666Y-64952438D01*
X49166666Y-64952438D02*
X49214285Y-65000057D01*
X49214285Y-65000057D02*
X49261904Y-65095295D01*
X49261904Y-65095295D02*
X49261904Y-65190533D01*
X49261904Y-65190533D02*
X49214285Y-65333390D01*
X49214285Y-65333390D02*
X48642857Y-65904819D01*
X48642857Y-65904819D02*
X49261904Y-65904819D01*
X43339048Y-73083866D02*
X44100953Y-73083866D01*
X43720000Y-73464819D02*
X43720000Y-72702914D01*
X34279580Y-92642857D02*
X34327200Y-92690476D01*
X34327200Y-92690476D02*
X34374819Y-92833333D01*
X34374819Y-92833333D02*
X34374819Y-92928571D01*
X34374819Y-92928571D02*
X34327200Y-93071428D01*
X34327200Y-93071428D02*
X34231961Y-93166666D01*
X34231961Y-93166666D02*
X34136723Y-93214285D01*
X34136723Y-93214285D02*
X33946247Y-93261904D01*
X33946247Y-93261904D02*
X33803390Y-93261904D01*
X33803390Y-93261904D02*
X33612914Y-93214285D01*
X33612914Y-93214285D02*
X33517676Y-93166666D01*
X33517676Y-93166666D02*
X33422438Y-93071428D01*
X33422438Y-93071428D02*
X33374819Y-92928571D01*
X33374819Y-92928571D02*
X33374819Y-92833333D01*
X33374819Y-92833333D02*
X33422438Y-92690476D01*
X33422438Y-92690476D02*
X33470057Y-92642857D01*
X34374819Y-91690476D02*
X34374819Y-92261904D01*
X34374819Y-91976190D02*
X33374819Y-91976190D01*
X33374819Y-91976190D02*
X33517676Y-92071428D01*
X33517676Y-92071428D02*
X33612914Y-92166666D01*
X33612914Y-92166666D02*
X33660533Y-92261904D01*
X33374819Y-91357142D02*
X33374819Y-90738095D01*
X33374819Y-90738095D02*
X33755771Y-91071428D01*
X33755771Y-91071428D02*
X33755771Y-90928571D01*
X33755771Y-90928571D02*
X33803390Y-90833333D01*
X33803390Y-90833333D02*
X33851009Y-90785714D01*
X33851009Y-90785714D02*
X33946247Y-90738095D01*
X33946247Y-90738095D02*
X34184342Y-90738095D01*
X34184342Y-90738095D02*
X34279580Y-90785714D01*
X34279580Y-90785714D02*
X34327200Y-90833333D01*
X34327200Y-90833333D02*
X34374819Y-90928571D01*
X34374819Y-90928571D02*
X34374819Y-91214285D01*
X34374819Y-91214285D02*
X34327200Y-91309523D01*
X34327200Y-91309523D02*
X34279580Y-91357142D01*
X32423866Y-95760951D02*
X32423866Y-94999047D01*
X32804819Y-95379999D02*
X32042914Y-95379999D01*
X71904761Y-7950057D02*
X71809523Y-7902438D01*
X71809523Y-7902438D02*
X71714285Y-7807200D01*
X71714285Y-7807200D02*
X71571428Y-7664342D01*
X71571428Y-7664342D02*
X71476190Y-7616723D01*
X71476190Y-7616723D02*
X71380952Y-7616723D01*
X71428571Y-7854819D02*
X71333333Y-7807200D01*
X71333333Y-7807200D02*
X71238095Y-7711961D01*
X71238095Y-7711961D02*
X71190476Y-7521485D01*
X71190476Y-7521485D02*
X71190476Y-7188152D01*
X71190476Y-7188152D02*
X71238095Y-6997676D01*
X71238095Y-6997676D02*
X71333333Y-6902438D01*
X71333333Y-6902438D02*
X71428571Y-6854819D01*
X71428571Y-6854819D02*
X71619047Y-6854819D01*
X71619047Y-6854819D02*
X71714285Y-6902438D01*
X71714285Y-6902438D02*
X71809523Y-6997676D01*
X71809523Y-6997676D02*
X71857142Y-7188152D01*
X71857142Y-7188152D02*
X71857142Y-7521485D01*
X71857142Y-7521485D02*
X71809523Y-7711961D01*
X71809523Y-7711961D02*
X71714285Y-7807200D01*
X71714285Y-7807200D02*
X71619047Y-7854819D01*
X71619047Y-7854819D02*
X71428571Y-7854819D01*
X72809523Y-7854819D02*
X72238095Y-7854819D01*
X72523809Y-7854819D02*
X72523809Y-6854819D01*
X72523809Y-6854819D02*
X72428571Y-6997676D01*
X72428571Y-6997676D02*
X72333333Y-7092914D01*
X72333333Y-7092914D02*
X72238095Y-7140533D01*
X71904761Y-69050057D02*
X71809523Y-69002438D01*
X71809523Y-69002438D02*
X71714285Y-68907200D01*
X71714285Y-68907200D02*
X71571428Y-68764342D01*
X71571428Y-68764342D02*
X71476190Y-68716723D01*
X71476190Y-68716723D02*
X71380952Y-68716723D01*
X71428571Y-68954819D02*
X71333333Y-68907200D01*
X71333333Y-68907200D02*
X71238095Y-68811961D01*
X71238095Y-68811961D02*
X71190476Y-68621485D01*
X71190476Y-68621485D02*
X71190476Y-68288152D01*
X71190476Y-68288152D02*
X71238095Y-68097676D01*
X71238095Y-68097676D02*
X71333333Y-68002438D01*
X71333333Y-68002438D02*
X71428571Y-67954819D01*
X71428571Y-67954819D02*
X71619047Y-67954819D01*
X71619047Y-67954819D02*
X71714285Y-68002438D01*
X71714285Y-68002438D02*
X71809523Y-68097676D01*
X71809523Y-68097676D02*
X71857142Y-68288152D01*
X71857142Y-68288152D02*
X71857142Y-68621485D01*
X71857142Y-68621485D02*
X71809523Y-68811961D01*
X71809523Y-68811961D02*
X71714285Y-68907200D01*
X71714285Y-68907200D02*
X71619047Y-68954819D01*
X71619047Y-68954819D02*
X71428571Y-68954819D01*
X72238095Y-68050057D02*
X72285714Y-68002438D01*
X72285714Y-68002438D02*
X72380952Y-67954819D01*
X72380952Y-67954819D02*
X72619047Y-67954819D01*
X72619047Y-67954819D02*
X72714285Y-68002438D01*
X72714285Y-68002438D02*
X72761904Y-68050057D01*
X72761904Y-68050057D02*
X72809523Y-68145295D01*
X72809523Y-68145295D02*
X72809523Y-68240533D01*
X72809523Y-68240533D02*
X72761904Y-68383390D01*
X72761904Y-68383390D02*
X72190476Y-68954819D01*
X72190476Y-68954819D02*
X72809523Y-68954819D01*
X61833333Y-7154819D02*
X61500000Y-6678628D01*
X61261905Y-7154819D02*
X61261905Y-6154819D01*
X61261905Y-6154819D02*
X61642857Y-6154819D01*
X61642857Y-6154819D02*
X61738095Y-6202438D01*
X61738095Y-6202438D02*
X61785714Y-6250057D01*
X61785714Y-6250057D02*
X61833333Y-6345295D01*
X61833333Y-6345295D02*
X61833333Y-6488152D01*
X61833333Y-6488152D02*
X61785714Y-6583390D01*
X61785714Y-6583390D02*
X61738095Y-6631009D01*
X61738095Y-6631009D02*
X61642857Y-6678628D01*
X61642857Y-6678628D02*
X61261905Y-6678628D01*
X62785714Y-7154819D02*
X62214286Y-7154819D01*
X62500000Y-7154819D02*
X62500000Y-6154819D01*
X62500000Y-6154819D02*
X62404762Y-6297676D01*
X62404762Y-6297676D02*
X62309524Y-6392914D01*
X62309524Y-6392914D02*
X62214286Y-6440533D01*
X88154819Y-102166666D02*
X87678628Y-102499999D01*
X88154819Y-102738094D02*
X87154819Y-102738094D01*
X87154819Y-102738094D02*
X87154819Y-102357142D01*
X87154819Y-102357142D02*
X87202438Y-102261904D01*
X87202438Y-102261904D02*
X87250057Y-102214285D01*
X87250057Y-102214285D02*
X87345295Y-102166666D01*
X87345295Y-102166666D02*
X87488152Y-102166666D01*
X87488152Y-102166666D02*
X87583390Y-102214285D01*
X87583390Y-102214285D02*
X87631009Y-102261904D01*
X87631009Y-102261904D02*
X87678628Y-102357142D01*
X87678628Y-102357142D02*
X87678628Y-102738094D01*
X87250057Y-101785713D02*
X87202438Y-101738094D01*
X87202438Y-101738094D02*
X87154819Y-101642856D01*
X87154819Y-101642856D02*
X87154819Y-101404761D01*
X87154819Y-101404761D02*
X87202438Y-101309523D01*
X87202438Y-101309523D02*
X87250057Y-101261904D01*
X87250057Y-101261904D02*
X87345295Y-101214285D01*
X87345295Y-101214285D02*
X87440533Y-101214285D01*
X87440533Y-101214285D02*
X87583390Y-101261904D01*
X87583390Y-101261904D02*
X88154819Y-101833332D01*
X88154819Y-101833332D02*
X88154819Y-101214285D01*
X61833333Y-17154819D02*
X61500000Y-16678628D01*
X61261905Y-17154819D02*
X61261905Y-16154819D01*
X61261905Y-16154819D02*
X61642857Y-16154819D01*
X61642857Y-16154819D02*
X61738095Y-16202438D01*
X61738095Y-16202438D02*
X61785714Y-16250057D01*
X61785714Y-16250057D02*
X61833333Y-16345295D01*
X61833333Y-16345295D02*
X61833333Y-16488152D01*
X61833333Y-16488152D02*
X61785714Y-16583390D01*
X61785714Y-16583390D02*
X61738095Y-16631009D01*
X61738095Y-16631009D02*
X61642857Y-16678628D01*
X61642857Y-16678628D02*
X61261905Y-16678628D01*
X62166667Y-16154819D02*
X62785714Y-16154819D01*
X62785714Y-16154819D02*
X62452381Y-16535771D01*
X62452381Y-16535771D02*
X62595238Y-16535771D01*
X62595238Y-16535771D02*
X62690476Y-16583390D01*
X62690476Y-16583390D02*
X62738095Y-16631009D01*
X62738095Y-16631009D02*
X62785714Y-16726247D01*
X62785714Y-16726247D02*
X62785714Y-16964342D01*
X62785714Y-16964342D02*
X62738095Y-17059580D01*
X62738095Y-17059580D02*
X62690476Y-17107200D01*
X62690476Y-17107200D02*
X62595238Y-17154819D01*
X62595238Y-17154819D02*
X62309524Y-17154819D01*
X62309524Y-17154819D02*
X62214286Y-17107200D01*
X62214286Y-17107200D02*
X62166667Y-17059580D01*
X33833333Y-52154819D02*
X33500000Y-51678628D01*
X33261905Y-52154819D02*
X33261905Y-51154819D01*
X33261905Y-51154819D02*
X33642857Y-51154819D01*
X33642857Y-51154819D02*
X33738095Y-51202438D01*
X33738095Y-51202438D02*
X33785714Y-51250057D01*
X33785714Y-51250057D02*
X33833333Y-51345295D01*
X33833333Y-51345295D02*
X33833333Y-51488152D01*
X33833333Y-51488152D02*
X33785714Y-51583390D01*
X33785714Y-51583390D02*
X33738095Y-51631009D01*
X33738095Y-51631009D02*
X33642857Y-51678628D01*
X33642857Y-51678628D02*
X33261905Y-51678628D01*
X34690476Y-51488152D02*
X34690476Y-52154819D01*
X34452381Y-51107200D02*
X34214286Y-51821485D01*
X34214286Y-51821485D02*
X34833333Y-51821485D01*
X33833333Y-17154819D02*
X33500000Y-16678628D01*
X33261905Y-17154819D02*
X33261905Y-16154819D01*
X33261905Y-16154819D02*
X33642857Y-16154819D01*
X33642857Y-16154819D02*
X33738095Y-16202438D01*
X33738095Y-16202438D02*
X33785714Y-16250057D01*
X33785714Y-16250057D02*
X33833333Y-16345295D01*
X33833333Y-16345295D02*
X33833333Y-16488152D01*
X33833333Y-16488152D02*
X33785714Y-16583390D01*
X33785714Y-16583390D02*
X33738095Y-16631009D01*
X33738095Y-16631009D02*
X33642857Y-16678628D01*
X33642857Y-16678628D02*
X33261905Y-16678628D01*
X34738095Y-16154819D02*
X34261905Y-16154819D01*
X34261905Y-16154819D02*
X34214286Y-16631009D01*
X34214286Y-16631009D02*
X34261905Y-16583390D01*
X34261905Y-16583390D02*
X34357143Y-16535771D01*
X34357143Y-16535771D02*
X34595238Y-16535771D01*
X34595238Y-16535771D02*
X34690476Y-16583390D01*
X34690476Y-16583390D02*
X34738095Y-16631009D01*
X34738095Y-16631009D02*
X34785714Y-16726247D01*
X34785714Y-16726247D02*
X34785714Y-16964342D01*
X34785714Y-16964342D02*
X34738095Y-17059580D01*
X34738095Y-17059580D02*
X34690476Y-17107200D01*
X34690476Y-17107200D02*
X34595238Y-17154819D01*
X34595238Y-17154819D02*
X34357143Y-17154819D01*
X34357143Y-17154819D02*
X34261905Y-17107200D01*
X34261905Y-17107200D02*
X34214286Y-17059580D01*
X33833333Y-57154819D02*
X33500000Y-56678628D01*
X33261905Y-57154819D02*
X33261905Y-56154819D01*
X33261905Y-56154819D02*
X33642857Y-56154819D01*
X33642857Y-56154819D02*
X33738095Y-56202438D01*
X33738095Y-56202438D02*
X33785714Y-56250057D01*
X33785714Y-56250057D02*
X33833333Y-56345295D01*
X33833333Y-56345295D02*
X33833333Y-56488152D01*
X33833333Y-56488152D02*
X33785714Y-56583390D01*
X33785714Y-56583390D02*
X33738095Y-56631009D01*
X33738095Y-56631009D02*
X33642857Y-56678628D01*
X33642857Y-56678628D02*
X33261905Y-56678628D01*
X34690476Y-56154819D02*
X34500000Y-56154819D01*
X34500000Y-56154819D02*
X34404762Y-56202438D01*
X34404762Y-56202438D02*
X34357143Y-56250057D01*
X34357143Y-56250057D02*
X34261905Y-56392914D01*
X34261905Y-56392914D02*
X34214286Y-56583390D01*
X34214286Y-56583390D02*
X34214286Y-56964342D01*
X34214286Y-56964342D02*
X34261905Y-57059580D01*
X34261905Y-57059580D02*
X34309524Y-57107200D01*
X34309524Y-57107200D02*
X34404762Y-57154819D01*
X34404762Y-57154819D02*
X34595238Y-57154819D01*
X34595238Y-57154819D02*
X34690476Y-57107200D01*
X34690476Y-57107200D02*
X34738095Y-57059580D01*
X34738095Y-57059580D02*
X34785714Y-56964342D01*
X34785714Y-56964342D02*
X34785714Y-56726247D01*
X34785714Y-56726247D02*
X34738095Y-56631009D01*
X34738095Y-56631009D02*
X34690476Y-56583390D01*
X34690476Y-56583390D02*
X34595238Y-56535771D01*
X34595238Y-56535771D02*
X34404762Y-56535771D01*
X34404762Y-56535771D02*
X34309524Y-56583390D01*
X34309524Y-56583390D02*
X34261905Y-56631009D01*
X34261905Y-56631009D02*
X34214286Y-56726247D01*
X33833333Y-77154819D02*
X33500000Y-76678628D01*
X33261905Y-77154819D02*
X33261905Y-76154819D01*
X33261905Y-76154819D02*
X33642857Y-76154819D01*
X33642857Y-76154819D02*
X33738095Y-76202438D01*
X33738095Y-76202438D02*
X33785714Y-76250057D01*
X33785714Y-76250057D02*
X33833333Y-76345295D01*
X33833333Y-76345295D02*
X33833333Y-76488152D01*
X33833333Y-76488152D02*
X33785714Y-76583390D01*
X33785714Y-76583390D02*
X33738095Y-76631009D01*
X33738095Y-76631009D02*
X33642857Y-76678628D01*
X33642857Y-76678628D02*
X33261905Y-76678628D01*
X34166667Y-76154819D02*
X34833333Y-76154819D01*
X34833333Y-76154819D02*
X34404762Y-77154819D01*
X61833333Y-22154819D02*
X61500000Y-21678628D01*
X61261905Y-22154819D02*
X61261905Y-21154819D01*
X61261905Y-21154819D02*
X61642857Y-21154819D01*
X61642857Y-21154819D02*
X61738095Y-21202438D01*
X61738095Y-21202438D02*
X61785714Y-21250057D01*
X61785714Y-21250057D02*
X61833333Y-21345295D01*
X61833333Y-21345295D02*
X61833333Y-21488152D01*
X61833333Y-21488152D02*
X61785714Y-21583390D01*
X61785714Y-21583390D02*
X61738095Y-21631009D01*
X61738095Y-21631009D02*
X61642857Y-21678628D01*
X61642857Y-21678628D02*
X61261905Y-21678628D01*
X62404762Y-21583390D02*
X62309524Y-21535771D01*
X62309524Y-21535771D02*
X62261905Y-21488152D01*
X62261905Y-21488152D02*
X62214286Y-21392914D01*
X62214286Y-21392914D02*
X62214286Y-21345295D01*
X62214286Y-21345295D02*
X62261905Y-21250057D01*
X62261905Y-21250057D02*
X62309524Y-21202438D01*
X62309524Y-21202438D02*
X62404762Y-21154819D01*
X62404762Y-21154819D02*
X62595238Y-21154819D01*
X62595238Y-21154819D02*
X62690476Y-21202438D01*
X62690476Y-21202438D02*
X62738095Y-21250057D01*
X62738095Y-21250057D02*
X62785714Y-21345295D01*
X62785714Y-21345295D02*
X62785714Y-21392914D01*
X62785714Y-21392914D02*
X62738095Y-21488152D01*
X62738095Y-21488152D02*
X62690476Y-21535771D01*
X62690476Y-21535771D02*
X62595238Y-21583390D01*
X62595238Y-21583390D02*
X62404762Y-21583390D01*
X62404762Y-21583390D02*
X62309524Y-21631009D01*
X62309524Y-21631009D02*
X62261905Y-21678628D01*
X62261905Y-21678628D02*
X62214286Y-21773866D01*
X62214286Y-21773866D02*
X62214286Y-21964342D01*
X62214286Y-21964342D02*
X62261905Y-22059580D01*
X62261905Y-22059580D02*
X62309524Y-22107200D01*
X62309524Y-22107200D02*
X62404762Y-22154819D01*
X62404762Y-22154819D02*
X62595238Y-22154819D01*
X62595238Y-22154819D02*
X62690476Y-22107200D01*
X62690476Y-22107200D02*
X62738095Y-22059580D01*
X62738095Y-22059580D02*
X62785714Y-21964342D01*
X62785714Y-21964342D02*
X62785714Y-21773866D01*
X62785714Y-21773866D02*
X62738095Y-21678628D01*
X62738095Y-21678628D02*
X62690476Y-21631009D01*
X62690476Y-21631009D02*
X62595238Y-21583390D01*
X33833333Y-47154819D02*
X33500000Y-46678628D01*
X33261905Y-47154819D02*
X33261905Y-46154819D01*
X33261905Y-46154819D02*
X33642857Y-46154819D01*
X33642857Y-46154819D02*
X33738095Y-46202438D01*
X33738095Y-46202438D02*
X33785714Y-46250057D01*
X33785714Y-46250057D02*
X33833333Y-46345295D01*
X33833333Y-46345295D02*
X33833333Y-46488152D01*
X33833333Y-46488152D02*
X33785714Y-46583390D01*
X33785714Y-46583390D02*
X33738095Y-46631009D01*
X33738095Y-46631009D02*
X33642857Y-46678628D01*
X33642857Y-46678628D02*
X33261905Y-46678628D01*
X34309524Y-47154819D02*
X34500000Y-47154819D01*
X34500000Y-47154819D02*
X34595238Y-47107200D01*
X34595238Y-47107200D02*
X34642857Y-47059580D01*
X34642857Y-47059580D02*
X34738095Y-46916723D01*
X34738095Y-46916723D02*
X34785714Y-46726247D01*
X34785714Y-46726247D02*
X34785714Y-46345295D01*
X34785714Y-46345295D02*
X34738095Y-46250057D01*
X34738095Y-46250057D02*
X34690476Y-46202438D01*
X34690476Y-46202438D02*
X34595238Y-46154819D01*
X34595238Y-46154819D02*
X34404762Y-46154819D01*
X34404762Y-46154819D02*
X34309524Y-46202438D01*
X34309524Y-46202438D02*
X34261905Y-46250057D01*
X34261905Y-46250057D02*
X34214286Y-46345295D01*
X34214286Y-46345295D02*
X34214286Y-46583390D01*
X34214286Y-46583390D02*
X34261905Y-46678628D01*
X34261905Y-46678628D02*
X34309524Y-46726247D01*
X34309524Y-46726247D02*
X34404762Y-46773866D01*
X34404762Y-46773866D02*
X34595238Y-46773866D01*
X34595238Y-46773866D02*
X34690476Y-46726247D01*
X34690476Y-46726247D02*
X34738095Y-46678628D01*
X34738095Y-46678628D02*
X34785714Y-46583390D01*
X33357142Y-62154819D02*
X33023809Y-61678628D01*
X32785714Y-62154819D02*
X32785714Y-61154819D01*
X32785714Y-61154819D02*
X33166666Y-61154819D01*
X33166666Y-61154819D02*
X33261904Y-61202438D01*
X33261904Y-61202438D02*
X33309523Y-61250057D01*
X33309523Y-61250057D02*
X33357142Y-61345295D01*
X33357142Y-61345295D02*
X33357142Y-61488152D01*
X33357142Y-61488152D02*
X33309523Y-61583390D01*
X33309523Y-61583390D02*
X33261904Y-61631009D01*
X33261904Y-61631009D02*
X33166666Y-61678628D01*
X33166666Y-61678628D02*
X32785714Y-61678628D01*
X34309523Y-62154819D02*
X33738095Y-62154819D01*
X34023809Y-62154819D02*
X34023809Y-61154819D01*
X34023809Y-61154819D02*
X33928571Y-61297676D01*
X33928571Y-61297676D02*
X33833333Y-61392914D01*
X33833333Y-61392914D02*
X33738095Y-61440533D01*
X34928571Y-61154819D02*
X35023809Y-61154819D01*
X35023809Y-61154819D02*
X35119047Y-61202438D01*
X35119047Y-61202438D02*
X35166666Y-61250057D01*
X35166666Y-61250057D02*
X35214285Y-61345295D01*
X35214285Y-61345295D02*
X35261904Y-61535771D01*
X35261904Y-61535771D02*
X35261904Y-61773866D01*
X35261904Y-61773866D02*
X35214285Y-61964342D01*
X35214285Y-61964342D02*
X35166666Y-62059580D01*
X35166666Y-62059580D02*
X35119047Y-62107200D01*
X35119047Y-62107200D02*
X35023809Y-62154819D01*
X35023809Y-62154819D02*
X34928571Y-62154819D01*
X34928571Y-62154819D02*
X34833333Y-62107200D01*
X34833333Y-62107200D02*
X34785714Y-62059580D01*
X34785714Y-62059580D02*
X34738095Y-61964342D01*
X34738095Y-61964342D02*
X34690476Y-61773866D01*
X34690476Y-61773866D02*
X34690476Y-61535771D01*
X34690476Y-61535771D02*
X34738095Y-61345295D01*
X34738095Y-61345295D02*
X34785714Y-61250057D01*
X34785714Y-61250057D02*
X34833333Y-61202438D01*
X34833333Y-61202438D02*
X34928571Y-61154819D01*
X33357142Y-72154819D02*
X33023809Y-71678628D01*
X32785714Y-72154819D02*
X32785714Y-71154819D01*
X32785714Y-71154819D02*
X33166666Y-71154819D01*
X33166666Y-71154819D02*
X33261904Y-71202438D01*
X33261904Y-71202438D02*
X33309523Y-71250057D01*
X33309523Y-71250057D02*
X33357142Y-71345295D01*
X33357142Y-71345295D02*
X33357142Y-71488152D01*
X33357142Y-71488152D02*
X33309523Y-71583390D01*
X33309523Y-71583390D02*
X33261904Y-71631009D01*
X33261904Y-71631009D02*
X33166666Y-71678628D01*
X33166666Y-71678628D02*
X32785714Y-71678628D01*
X34309523Y-72154819D02*
X33738095Y-72154819D01*
X34023809Y-72154819D02*
X34023809Y-71154819D01*
X34023809Y-71154819D02*
X33928571Y-71297676D01*
X33928571Y-71297676D02*
X33833333Y-71392914D01*
X33833333Y-71392914D02*
X33738095Y-71440533D01*
X35261904Y-72154819D02*
X34690476Y-72154819D01*
X34976190Y-72154819D02*
X34976190Y-71154819D01*
X34976190Y-71154819D02*
X34880952Y-71297676D01*
X34880952Y-71297676D02*
X34785714Y-71392914D01*
X34785714Y-71392914D02*
X34690476Y-71440533D01*
X33357142Y-67154819D02*
X33023809Y-66678628D01*
X32785714Y-67154819D02*
X32785714Y-66154819D01*
X32785714Y-66154819D02*
X33166666Y-66154819D01*
X33166666Y-66154819D02*
X33261904Y-66202438D01*
X33261904Y-66202438D02*
X33309523Y-66250057D01*
X33309523Y-66250057D02*
X33357142Y-66345295D01*
X33357142Y-66345295D02*
X33357142Y-66488152D01*
X33357142Y-66488152D02*
X33309523Y-66583390D01*
X33309523Y-66583390D02*
X33261904Y-66631009D01*
X33261904Y-66631009D02*
X33166666Y-66678628D01*
X33166666Y-66678628D02*
X32785714Y-66678628D01*
X34309523Y-67154819D02*
X33738095Y-67154819D01*
X34023809Y-67154819D02*
X34023809Y-66154819D01*
X34023809Y-66154819D02*
X33928571Y-66297676D01*
X33928571Y-66297676D02*
X33833333Y-66392914D01*
X33833333Y-66392914D02*
X33738095Y-66440533D01*
X34690476Y-66250057D02*
X34738095Y-66202438D01*
X34738095Y-66202438D02*
X34833333Y-66154819D01*
X34833333Y-66154819D02*
X35071428Y-66154819D01*
X35071428Y-66154819D02*
X35166666Y-66202438D01*
X35166666Y-66202438D02*
X35214285Y-66250057D01*
X35214285Y-66250057D02*
X35261904Y-66345295D01*
X35261904Y-66345295D02*
X35261904Y-66440533D01*
X35261904Y-66440533D02*
X35214285Y-66583390D01*
X35214285Y-66583390D02*
X34642857Y-67154819D01*
X34642857Y-67154819D02*
X35261904Y-67154819D01*
X61357142Y-97154819D02*
X61023809Y-96678628D01*
X60785714Y-97154819D02*
X60785714Y-96154819D01*
X60785714Y-96154819D02*
X61166666Y-96154819D01*
X61166666Y-96154819D02*
X61261904Y-96202438D01*
X61261904Y-96202438D02*
X61309523Y-96250057D01*
X61309523Y-96250057D02*
X61357142Y-96345295D01*
X61357142Y-96345295D02*
X61357142Y-96488152D01*
X61357142Y-96488152D02*
X61309523Y-96583390D01*
X61309523Y-96583390D02*
X61261904Y-96631009D01*
X61261904Y-96631009D02*
X61166666Y-96678628D01*
X61166666Y-96678628D02*
X60785714Y-96678628D01*
X62309523Y-97154819D02*
X61738095Y-97154819D01*
X62023809Y-97154819D02*
X62023809Y-96154819D01*
X62023809Y-96154819D02*
X61928571Y-96297676D01*
X61928571Y-96297676D02*
X61833333Y-96392914D01*
X61833333Y-96392914D02*
X61738095Y-96440533D01*
X62642857Y-96154819D02*
X63261904Y-96154819D01*
X63261904Y-96154819D02*
X62928571Y-96535771D01*
X62928571Y-96535771D02*
X63071428Y-96535771D01*
X63071428Y-96535771D02*
X63166666Y-96583390D01*
X63166666Y-96583390D02*
X63214285Y-96631009D01*
X63214285Y-96631009D02*
X63261904Y-96726247D01*
X63261904Y-96726247D02*
X63261904Y-96964342D01*
X63261904Y-96964342D02*
X63214285Y-97059580D01*
X63214285Y-97059580D02*
X63166666Y-97107200D01*
X63166666Y-97107200D02*
X63071428Y-97154819D01*
X63071428Y-97154819D02*
X62785714Y-97154819D01*
X62785714Y-97154819D02*
X62690476Y-97107200D01*
X62690476Y-97107200D02*
X62642857Y-97059580D01*
X33357142Y-42154819D02*
X33023809Y-41678628D01*
X32785714Y-42154819D02*
X32785714Y-41154819D01*
X32785714Y-41154819D02*
X33166666Y-41154819D01*
X33166666Y-41154819D02*
X33261904Y-41202438D01*
X33261904Y-41202438D02*
X33309523Y-41250057D01*
X33309523Y-41250057D02*
X33357142Y-41345295D01*
X33357142Y-41345295D02*
X33357142Y-41488152D01*
X33357142Y-41488152D02*
X33309523Y-41583390D01*
X33309523Y-41583390D02*
X33261904Y-41631009D01*
X33261904Y-41631009D02*
X33166666Y-41678628D01*
X33166666Y-41678628D02*
X32785714Y-41678628D01*
X34309523Y-42154819D02*
X33738095Y-42154819D01*
X34023809Y-42154819D02*
X34023809Y-41154819D01*
X34023809Y-41154819D02*
X33928571Y-41297676D01*
X33928571Y-41297676D02*
X33833333Y-41392914D01*
X33833333Y-41392914D02*
X33738095Y-41440533D01*
X35166666Y-41488152D02*
X35166666Y-42154819D01*
X34928571Y-41107200D02*
X34690476Y-41821485D01*
X34690476Y-41821485D02*
X35309523Y-41821485D01*
X33357142Y-37154819D02*
X33023809Y-36678628D01*
X32785714Y-37154819D02*
X32785714Y-36154819D01*
X32785714Y-36154819D02*
X33166666Y-36154819D01*
X33166666Y-36154819D02*
X33261904Y-36202438D01*
X33261904Y-36202438D02*
X33309523Y-36250057D01*
X33309523Y-36250057D02*
X33357142Y-36345295D01*
X33357142Y-36345295D02*
X33357142Y-36488152D01*
X33357142Y-36488152D02*
X33309523Y-36583390D01*
X33309523Y-36583390D02*
X33261904Y-36631009D01*
X33261904Y-36631009D02*
X33166666Y-36678628D01*
X33166666Y-36678628D02*
X32785714Y-36678628D01*
X34309523Y-37154819D02*
X33738095Y-37154819D01*
X34023809Y-37154819D02*
X34023809Y-36154819D01*
X34023809Y-36154819D02*
X33928571Y-36297676D01*
X33928571Y-36297676D02*
X33833333Y-36392914D01*
X33833333Y-36392914D02*
X33738095Y-36440533D01*
X35214285Y-36154819D02*
X34738095Y-36154819D01*
X34738095Y-36154819D02*
X34690476Y-36631009D01*
X34690476Y-36631009D02*
X34738095Y-36583390D01*
X34738095Y-36583390D02*
X34833333Y-36535771D01*
X34833333Y-36535771D02*
X35071428Y-36535771D01*
X35071428Y-36535771D02*
X35166666Y-36583390D01*
X35166666Y-36583390D02*
X35214285Y-36631009D01*
X35214285Y-36631009D02*
X35261904Y-36726247D01*
X35261904Y-36726247D02*
X35261904Y-36964342D01*
X35261904Y-36964342D02*
X35214285Y-37059580D01*
X35214285Y-37059580D02*
X35166666Y-37107200D01*
X35166666Y-37107200D02*
X35071428Y-37154819D01*
X35071428Y-37154819D02*
X34833333Y-37154819D01*
X34833333Y-37154819D02*
X34738095Y-37107200D01*
X34738095Y-37107200D02*
X34690476Y-37059580D01*
X61357142Y-82154819D02*
X61023809Y-81678628D01*
X60785714Y-82154819D02*
X60785714Y-81154819D01*
X60785714Y-81154819D02*
X61166666Y-81154819D01*
X61166666Y-81154819D02*
X61261904Y-81202438D01*
X61261904Y-81202438D02*
X61309523Y-81250057D01*
X61309523Y-81250057D02*
X61357142Y-81345295D01*
X61357142Y-81345295D02*
X61357142Y-81488152D01*
X61357142Y-81488152D02*
X61309523Y-81583390D01*
X61309523Y-81583390D02*
X61261904Y-81631009D01*
X61261904Y-81631009D02*
X61166666Y-81678628D01*
X61166666Y-81678628D02*
X60785714Y-81678628D01*
X62309523Y-82154819D02*
X61738095Y-82154819D01*
X62023809Y-82154819D02*
X62023809Y-81154819D01*
X62023809Y-81154819D02*
X61928571Y-81297676D01*
X61928571Y-81297676D02*
X61833333Y-81392914D01*
X61833333Y-81392914D02*
X61738095Y-81440533D01*
X63166666Y-81154819D02*
X62976190Y-81154819D01*
X62976190Y-81154819D02*
X62880952Y-81202438D01*
X62880952Y-81202438D02*
X62833333Y-81250057D01*
X62833333Y-81250057D02*
X62738095Y-81392914D01*
X62738095Y-81392914D02*
X62690476Y-81583390D01*
X62690476Y-81583390D02*
X62690476Y-81964342D01*
X62690476Y-81964342D02*
X62738095Y-82059580D01*
X62738095Y-82059580D02*
X62785714Y-82107200D01*
X62785714Y-82107200D02*
X62880952Y-82154819D01*
X62880952Y-82154819D02*
X63071428Y-82154819D01*
X63071428Y-82154819D02*
X63166666Y-82107200D01*
X63166666Y-82107200D02*
X63214285Y-82059580D01*
X63214285Y-82059580D02*
X63261904Y-81964342D01*
X63261904Y-81964342D02*
X63261904Y-81726247D01*
X63261904Y-81726247D02*
X63214285Y-81631009D01*
X63214285Y-81631009D02*
X63166666Y-81583390D01*
X63166666Y-81583390D02*
X63071428Y-81535771D01*
X63071428Y-81535771D02*
X62880952Y-81535771D01*
X62880952Y-81535771D02*
X62785714Y-81583390D01*
X62785714Y-81583390D02*
X62738095Y-81631009D01*
X62738095Y-81631009D02*
X62690476Y-81726247D01*
X33357142Y-27154819D02*
X33023809Y-26678628D01*
X32785714Y-27154819D02*
X32785714Y-26154819D01*
X32785714Y-26154819D02*
X33166666Y-26154819D01*
X33166666Y-26154819D02*
X33261904Y-26202438D01*
X33261904Y-26202438D02*
X33309523Y-26250057D01*
X33309523Y-26250057D02*
X33357142Y-26345295D01*
X33357142Y-26345295D02*
X33357142Y-26488152D01*
X33357142Y-26488152D02*
X33309523Y-26583390D01*
X33309523Y-26583390D02*
X33261904Y-26631009D01*
X33261904Y-26631009D02*
X33166666Y-26678628D01*
X33166666Y-26678628D02*
X32785714Y-26678628D01*
X34309523Y-27154819D02*
X33738095Y-27154819D01*
X34023809Y-27154819D02*
X34023809Y-26154819D01*
X34023809Y-26154819D02*
X33928571Y-26297676D01*
X33928571Y-26297676D02*
X33833333Y-26392914D01*
X33833333Y-26392914D02*
X33738095Y-26440533D01*
X34642857Y-26154819D02*
X35309523Y-26154819D01*
X35309523Y-26154819D02*
X34880952Y-27154819D01*
X61357142Y-62154819D02*
X61023809Y-61678628D01*
X60785714Y-62154819D02*
X60785714Y-61154819D01*
X60785714Y-61154819D02*
X61166666Y-61154819D01*
X61166666Y-61154819D02*
X61261904Y-61202438D01*
X61261904Y-61202438D02*
X61309523Y-61250057D01*
X61309523Y-61250057D02*
X61357142Y-61345295D01*
X61357142Y-61345295D02*
X61357142Y-61488152D01*
X61357142Y-61488152D02*
X61309523Y-61583390D01*
X61309523Y-61583390D02*
X61261904Y-61631009D01*
X61261904Y-61631009D02*
X61166666Y-61678628D01*
X61166666Y-61678628D02*
X60785714Y-61678628D01*
X62309523Y-62154819D02*
X61738095Y-62154819D01*
X62023809Y-62154819D02*
X62023809Y-61154819D01*
X62023809Y-61154819D02*
X61928571Y-61297676D01*
X61928571Y-61297676D02*
X61833333Y-61392914D01*
X61833333Y-61392914D02*
X61738095Y-61440533D01*
X62880952Y-61583390D02*
X62785714Y-61535771D01*
X62785714Y-61535771D02*
X62738095Y-61488152D01*
X62738095Y-61488152D02*
X62690476Y-61392914D01*
X62690476Y-61392914D02*
X62690476Y-61345295D01*
X62690476Y-61345295D02*
X62738095Y-61250057D01*
X62738095Y-61250057D02*
X62785714Y-61202438D01*
X62785714Y-61202438D02*
X62880952Y-61154819D01*
X62880952Y-61154819D02*
X63071428Y-61154819D01*
X63071428Y-61154819D02*
X63166666Y-61202438D01*
X63166666Y-61202438D02*
X63214285Y-61250057D01*
X63214285Y-61250057D02*
X63261904Y-61345295D01*
X63261904Y-61345295D02*
X63261904Y-61392914D01*
X63261904Y-61392914D02*
X63214285Y-61488152D01*
X63214285Y-61488152D02*
X63166666Y-61535771D01*
X63166666Y-61535771D02*
X63071428Y-61583390D01*
X63071428Y-61583390D02*
X62880952Y-61583390D01*
X62880952Y-61583390D02*
X62785714Y-61631009D01*
X62785714Y-61631009D02*
X62738095Y-61678628D01*
X62738095Y-61678628D02*
X62690476Y-61773866D01*
X62690476Y-61773866D02*
X62690476Y-61964342D01*
X62690476Y-61964342D02*
X62738095Y-62059580D01*
X62738095Y-62059580D02*
X62785714Y-62107200D01*
X62785714Y-62107200D02*
X62880952Y-62154819D01*
X62880952Y-62154819D02*
X63071428Y-62154819D01*
X63071428Y-62154819D02*
X63166666Y-62107200D01*
X63166666Y-62107200D02*
X63214285Y-62059580D01*
X63214285Y-62059580D02*
X63261904Y-61964342D01*
X63261904Y-61964342D02*
X63261904Y-61773866D01*
X63261904Y-61773866D02*
X63214285Y-61678628D01*
X63214285Y-61678628D02*
X63166666Y-61631009D01*
X63166666Y-61631009D02*
X63071428Y-61583390D01*
X33357142Y-32154819D02*
X33023809Y-31678628D01*
X32785714Y-32154819D02*
X32785714Y-31154819D01*
X32785714Y-31154819D02*
X33166666Y-31154819D01*
X33166666Y-31154819D02*
X33261904Y-31202438D01*
X33261904Y-31202438D02*
X33309523Y-31250057D01*
X33309523Y-31250057D02*
X33357142Y-31345295D01*
X33357142Y-31345295D02*
X33357142Y-31488152D01*
X33357142Y-31488152D02*
X33309523Y-31583390D01*
X33309523Y-31583390D02*
X33261904Y-31631009D01*
X33261904Y-31631009D02*
X33166666Y-31678628D01*
X33166666Y-31678628D02*
X32785714Y-31678628D01*
X34309523Y-32154819D02*
X33738095Y-32154819D01*
X34023809Y-32154819D02*
X34023809Y-31154819D01*
X34023809Y-31154819D02*
X33928571Y-31297676D01*
X33928571Y-31297676D02*
X33833333Y-31392914D01*
X33833333Y-31392914D02*
X33738095Y-31440533D01*
X34785714Y-32154819D02*
X34976190Y-32154819D01*
X34976190Y-32154819D02*
X35071428Y-32107200D01*
X35071428Y-32107200D02*
X35119047Y-32059580D01*
X35119047Y-32059580D02*
X35214285Y-31916723D01*
X35214285Y-31916723D02*
X35261904Y-31726247D01*
X35261904Y-31726247D02*
X35261904Y-31345295D01*
X35261904Y-31345295D02*
X35214285Y-31250057D01*
X35214285Y-31250057D02*
X35166666Y-31202438D01*
X35166666Y-31202438D02*
X35071428Y-31154819D01*
X35071428Y-31154819D02*
X34880952Y-31154819D01*
X34880952Y-31154819D02*
X34785714Y-31202438D01*
X34785714Y-31202438D02*
X34738095Y-31250057D01*
X34738095Y-31250057D02*
X34690476Y-31345295D01*
X34690476Y-31345295D02*
X34690476Y-31583390D01*
X34690476Y-31583390D02*
X34738095Y-31678628D01*
X34738095Y-31678628D02*
X34785714Y-31726247D01*
X34785714Y-31726247D02*
X34880952Y-31773866D01*
X34880952Y-31773866D02*
X35071428Y-31773866D01*
X35071428Y-31773866D02*
X35166666Y-31726247D01*
X35166666Y-31726247D02*
X35214285Y-31678628D01*
X35214285Y-31678628D02*
X35261904Y-31583390D01*
X61357142Y-92154819D02*
X61023809Y-91678628D01*
X60785714Y-92154819D02*
X60785714Y-91154819D01*
X60785714Y-91154819D02*
X61166666Y-91154819D01*
X61166666Y-91154819D02*
X61261904Y-91202438D01*
X61261904Y-91202438D02*
X61309523Y-91250057D01*
X61309523Y-91250057D02*
X61357142Y-91345295D01*
X61357142Y-91345295D02*
X61357142Y-91488152D01*
X61357142Y-91488152D02*
X61309523Y-91583390D01*
X61309523Y-91583390D02*
X61261904Y-91631009D01*
X61261904Y-91631009D02*
X61166666Y-91678628D01*
X61166666Y-91678628D02*
X60785714Y-91678628D01*
X61738095Y-91250057D02*
X61785714Y-91202438D01*
X61785714Y-91202438D02*
X61880952Y-91154819D01*
X61880952Y-91154819D02*
X62119047Y-91154819D01*
X62119047Y-91154819D02*
X62214285Y-91202438D01*
X62214285Y-91202438D02*
X62261904Y-91250057D01*
X62261904Y-91250057D02*
X62309523Y-91345295D01*
X62309523Y-91345295D02*
X62309523Y-91440533D01*
X62309523Y-91440533D02*
X62261904Y-91583390D01*
X62261904Y-91583390D02*
X61690476Y-92154819D01*
X61690476Y-92154819D02*
X62309523Y-92154819D01*
X62928571Y-91154819D02*
X63023809Y-91154819D01*
X63023809Y-91154819D02*
X63119047Y-91202438D01*
X63119047Y-91202438D02*
X63166666Y-91250057D01*
X63166666Y-91250057D02*
X63214285Y-91345295D01*
X63214285Y-91345295D02*
X63261904Y-91535771D01*
X63261904Y-91535771D02*
X63261904Y-91773866D01*
X63261904Y-91773866D02*
X63214285Y-91964342D01*
X63214285Y-91964342D02*
X63166666Y-92059580D01*
X63166666Y-92059580D02*
X63119047Y-92107200D01*
X63119047Y-92107200D02*
X63023809Y-92154819D01*
X63023809Y-92154819D02*
X62928571Y-92154819D01*
X62928571Y-92154819D02*
X62833333Y-92107200D01*
X62833333Y-92107200D02*
X62785714Y-92059580D01*
X62785714Y-92059580D02*
X62738095Y-91964342D01*
X62738095Y-91964342D02*
X62690476Y-91773866D01*
X62690476Y-91773866D02*
X62690476Y-91535771D01*
X62690476Y-91535771D02*
X62738095Y-91345295D01*
X62738095Y-91345295D02*
X62785714Y-91250057D01*
X62785714Y-91250057D02*
X62833333Y-91202438D01*
X62833333Y-91202438D02*
X62928571Y-91154819D01*
X33357142Y-22154819D02*
X33023809Y-21678628D01*
X32785714Y-22154819D02*
X32785714Y-21154819D01*
X32785714Y-21154819D02*
X33166666Y-21154819D01*
X33166666Y-21154819D02*
X33261904Y-21202438D01*
X33261904Y-21202438D02*
X33309523Y-21250057D01*
X33309523Y-21250057D02*
X33357142Y-21345295D01*
X33357142Y-21345295D02*
X33357142Y-21488152D01*
X33357142Y-21488152D02*
X33309523Y-21583390D01*
X33309523Y-21583390D02*
X33261904Y-21631009D01*
X33261904Y-21631009D02*
X33166666Y-21678628D01*
X33166666Y-21678628D02*
X32785714Y-21678628D01*
X33738095Y-21250057D02*
X33785714Y-21202438D01*
X33785714Y-21202438D02*
X33880952Y-21154819D01*
X33880952Y-21154819D02*
X34119047Y-21154819D01*
X34119047Y-21154819D02*
X34214285Y-21202438D01*
X34214285Y-21202438D02*
X34261904Y-21250057D01*
X34261904Y-21250057D02*
X34309523Y-21345295D01*
X34309523Y-21345295D02*
X34309523Y-21440533D01*
X34309523Y-21440533D02*
X34261904Y-21583390D01*
X34261904Y-21583390D02*
X33690476Y-22154819D01*
X33690476Y-22154819D02*
X34309523Y-22154819D01*
X35261904Y-22154819D02*
X34690476Y-22154819D01*
X34976190Y-22154819D02*
X34976190Y-21154819D01*
X34976190Y-21154819D02*
X34880952Y-21297676D01*
X34880952Y-21297676D02*
X34785714Y-21392914D01*
X34785714Y-21392914D02*
X34690476Y-21440533D01*
X33357142Y-2154819D02*
X33023809Y-1678628D01*
X32785714Y-2154819D02*
X32785714Y-1154819D01*
X32785714Y-1154819D02*
X33166666Y-1154819D01*
X33166666Y-1154819D02*
X33261904Y-1202438D01*
X33261904Y-1202438D02*
X33309523Y-1250057D01*
X33309523Y-1250057D02*
X33357142Y-1345295D01*
X33357142Y-1345295D02*
X33357142Y-1488152D01*
X33357142Y-1488152D02*
X33309523Y-1583390D01*
X33309523Y-1583390D02*
X33261904Y-1631009D01*
X33261904Y-1631009D02*
X33166666Y-1678628D01*
X33166666Y-1678628D02*
X32785714Y-1678628D01*
X33738095Y-1250057D02*
X33785714Y-1202438D01*
X33785714Y-1202438D02*
X33880952Y-1154819D01*
X33880952Y-1154819D02*
X34119047Y-1154819D01*
X34119047Y-1154819D02*
X34214285Y-1202438D01*
X34214285Y-1202438D02*
X34261904Y-1250057D01*
X34261904Y-1250057D02*
X34309523Y-1345295D01*
X34309523Y-1345295D02*
X34309523Y-1440533D01*
X34309523Y-1440533D02*
X34261904Y-1583390D01*
X34261904Y-1583390D02*
X33690476Y-2154819D01*
X33690476Y-2154819D02*
X34309523Y-2154819D01*
X34690476Y-1250057D02*
X34738095Y-1202438D01*
X34738095Y-1202438D02*
X34833333Y-1154819D01*
X34833333Y-1154819D02*
X35071428Y-1154819D01*
X35071428Y-1154819D02*
X35166666Y-1202438D01*
X35166666Y-1202438D02*
X35214285Y-1250057D01*
X35214285Y-1250057D02*
X35261904Y-1345295D01*
X35261904Y-1345295D02*
X35261904Y-1440533D01*
X35261904Y-1440533D02*
X35214285Y-1583390D01*
X35214285Y-1583390D02*
X34642857Y-2154819D01*
X34642857Y-2154819D02*
X35261904Y-2154819D01*
X47357142Y-104054819D02*
X47023809Y-103578628D01*
X46785714Y-104054819D02*
X46785714Y-103054819D01*
X46785714Y-103054819D02*
X47166666Y-103054819D01*
X47166666Y-103054819D02*
X47261904Y-103102438D01*
X47261904Y-103102438D02*
X47309523Y-103150057D01*
X47309523Y-103150057D02*
X47357142Y-103245295D01*
X47357142Y-103245295D02*
X47357142Y-103388152D01*
X47357142Y-103388152D02*
X47309523Y-103483390D01*
X47309523Y-103483390D02*
X47261904Y-103531009D01*
X47261904Y-103531009D02*
X47166666Y-103578628D01*
X47166666Y-103578628D02*
X46785714Y-103578628D01*
X47738095Y-103150057D02*
X47785714Y-103102438D01*
X47785714Y-103102438D02*
X47880952Y-103054819D01*
X47880952Y-103054819D02*
X48119047Y-103054819D01*
X48119047Y-103054819D02*
X48214285Y-103102438D01*
X48214285Y-103102438D02*
X48261904Y-103150057D01*
X48261904Y-103150057D02*
X48309523Y-103245295D01*
X48309523Y-103245295D02*
X48309523Y-103340533D01*
X48309523Y-103340533D02*
X48261904Y-103483390D01*
X48261904Y-103483390D02*
X47690476Y-104054819D01*
X47690476Y-104054819D02*
X48309523Y-104054819D01*
X48642857Y-103054819D02*
X49261904Y-103054819D01*
X49261904Y-103054819D02*
X48928571Y-103435771D01*
X48928571Y-103435771D02*
X49071428Y-103435771D01*
X49071428Y-103435771D02*
X49166666Y-103483390D01*
X49166666Y-103483390D02*
X49214285Y-103531009D01*
X49214285Y-103531009D02*
X49261904Y-103626247D01*
X49261904Y-103626247D02*
X49261904Y-103864342D01*
X49261904Y-103864342D02*
X49214285Y-103959580D01*
X49214285Y-103959580D02*
X49166666Y-104007200D01*
X49166666Y-104007200D02*
X49071428Y-104054819D01*
X49071428Y-104054819D02*
X48785714Y-104054819D01*
X48785714Y-104054819D02*
X48690476Y-104007200D01*
X48690476Y-104007200D02*
X48642857Y-103959580D01*
X61357142Y-2154819D02*
X61023809Y-1678628D01*
X60785714Y-2154819D02*
X60785714Y-1154819D01*
X60785714Y-1154819D02*
X61166666Y-1154819D01*
X61166666Y-1154819D02*
X61261904Y-1202438D01*
X61261904Y-1202438D02*
X61309523Y-1250057D01*
X61309523Y-1250057D02*
X61357142Y-1345295D01*
X61357142Y-1345295D02*
X61357142Y-1488152D01*
X61357142Y-1488152D02*
X61309523Y-1583390D01*
X61309523Y-1583390D02*
X61261904Y-1631009D01*
X61261904Y-1631009D02*
X61166666Y-1678628D01*
X61166666Y-1678628D02*
X60785714Y-1678628D01*
X61738095Y-1250057D02*
X61785714Y-1202438D01*
X61785714Y-1202438D02*
X61880952Y-1154819D01*
X61880952Y-1154819D02*
X62119047Y-1154819D01*
X62119047Y-1154819D02*
X62214285Y-1202438D01*
X62214285Y-1202438D02*
X62261904Y-1250057D01*
X62261904Y-1250057D02*
X62309523Y-1345295D01*
X62309523Y-1345295D02*
X62309523Y-1440533D01*
X62309523Y-1440533D02*
X62261904Y-1583390D01*
X62261904Y-1583390D02*
X61690476Y-2154819D01*
X61690476Y-2154819D02*
X62309523Y-2154819D01*
X63166666Y-1488152D02*
X63166666Y-2154819D01*
X62928571Y-1107200D02*
X62690476Y-1821485D01*
X62690476Y-1821485D02*
X63309523Y-1821485D01*
X33357142Y-82154819D02*
X33023809Y-81678628D01*
X32785714Y-82154819D02*
X32785714Y-81154819D01*
X32785714Y-81154819D02*
X33166666Y-81154819D01*
X33166666Y-81154819D02*
X33261904Y-81202438D01*
X33261904Y-81202438D02*
X33309523Y-81250057D01*
X33309523Y-81250057D02*
X33357142Y-81345295D01*
X33357142Y-81345295D02*
X33357142Y-81488152D01*
X33357142Y-81488152D02*
X33309523Y-81583390D01*
X33309523Y-81583390D02*
X33261904Y-81631009D01*
X33261904Y-81631009D02*
X33166666Y-81678628D01*
X33166666Y-81678628D02*
X32785714Y-81678628D01*
X33738095Y-81250057D02*
X33785714Y-81202438D01*
X33785714Y-81202438D02*
X33880952Y-81154819D01*
X33880952Y-81154819D02*
X34119047Y-81154819D01*
X34119047Y-81154819D02*
X34214285Y-81202438D01*
X34214285Y-81202438D02*
X34261904Y-81250057D01*
X34261904Y-81250057D02*
X34309523Y-81345295D01*
X34309523Y-81345295D02*
X34309523Y-81440533D01*
X34309523Y-81440533D02*
X34261904Y-81583390D01*
X34261904Y-81583390D02*
X33690476Y-82154819D01*
X33690476Y-82154819D02*
X34309523Y-82154819D01*
X35214285Y-81154819D02*
X34738095Y-81154819D01*
X34738095Y-81154819D02*
X34690476Y-81631009D01*
X34690476Y-81631009D02*
X34738095Y-81583390D01*
X34738095Y-81583390D02*
X34833333Y-81535771D01*
X34833333Y-81535771D02*
X35071428Y-81535771D01*
X35071428Y-81535771D02*
X35166666Y-81583390D01*
X35166666Y-81583390D02*
X35214285Y-81631009D01*
X35214285Y-81631009D02*
X35261904Y-81726247D01*
X35261904Y-81726247D02*
X35261904Y-81964342D01*
X35261904Y-81964342D02*
X35214285Y-82059580D01*
X35214285Y-82059580D02*
X35166666Y-82107200D01*
X35166666Y-82107200D02*
X35071428Y-82154819D01*
X35071428Y-82154819D02*
X34833333Y-82154819D01*
X34833333Y-82154819D02*
X34738095Y-82107200D01*
X34738095Y-82107200D02*
X34690476Y-82059580D01*
X33357142Y-12154819D02*
X33023809Y-11678628D01*
X32785714Y-12154819D02*
X32785714Y-11154819D01*
X32785714Y-11154819D02*
X33166666Y-11154819D01*
X33166666Y-11154819D02*
X33261904Y-11202438D01*
X33261904Y-11202438D02*
X33309523Y-11250057D01*
X33309523Y-11250057D02*
X33357142Y-11345295D01*
X33357142Y-11345295D02*
X33357142Y-11488152D01*
X33357142Y-11488152D02*
X33309523Y-11583390D01*
X33309523Y-11583390D02*
X33261904Y-11631009D01*
X33261904Y-11631009D02*
X33166666Y-11678628D01*
X33166666Y-11678628D02*
X32785714Y-11678628D01*
X33738095Y-11250057D02*
X33785714Y-11202438D01*
X33785714Y-11202438D02*
X33880952Y-11154819D01*
X33880952Y-11154819D02*
X34119047Y-11154819D01*
X34119047Y-11154819D02*
X34214285Y-11202438D01*
X34214285Y-11202438D02*
X34261904Y-11250057D01*
X34261904Y-11250057D02*
X34309523Y-11345295D01*
X34309523Y-11345295D02*
X34309523Y-11440533D01*
X34309523Y-11440533D02*
X34261904Y-11583390D01*
X34261904Y-11583390D02*
X33690476Y-12154819D01*
X33690476Y-12154819D02*
X34309523Y-12154819D01*
X35166666Y-11154819D02*
X34976190Y-11154819D01*
X34976190Y-11154819D02*
X34880952Y-11202438D01*
X34880952Y-11202438D02*
X34833333Y-11250057D01*
X34833333Y-11250057D02*
X34738095Y-11392914D01*
X34738095Y-11392914D02*
X34690476Y-11583390D01*
X34690476Y-11583390D02*
X34690476Y-11964342D01*
X34690476Y-11964342D02*
X34738095Y-12059580D01*
X34738095Y-12059580D02*
X34785714Y-12107200D01*
X34785714Y-12107200D02*
X34880952Y-12154819D01*
X34880952Y-12154819D02*
X35071428Y-12154819D01*
X35071428Y-12154819D02*
X35166666Y-12107200D01*
X35166666Y-12107200D02*
X35214285Y-12059580D01*
X35214285Y-12059580D02*
X35261904Y-11964342D01*
X35261904Y-11964342D02*
X35261904Y-11726247D01*
X35261904Y-11726247D02*
X35214285Y-11631009D01*
X35214285Y-11631009D02*
X35166666Y-11583390D01*
X35166666Y-11583390D02*
X35071428Y-11535771D01*
X35071428Y-11535771D02*
X34880952Y-11535771D01*
X34880952Y-11535771D02*
X34785714Y-11583390D01*
X34785714Y-11583390D02*
X34738095Y-11631009D01*
X34738095Y-11631009D02*
X34690476Y-11726247D01*
X33357142Y-7154819D02*
X33023809Y-6678628D01*
X32785714Y-7154819D02*
X32785714Y-6154819D01*
X32785714Y-6154819D02*
X33166666Y-6154819D01*
X33166666Y-6154819D02*
X33261904Y-6202438D01*
X33261904Y-6202438D02*
X33309523Y-6250057D01*
X33309523Y-6250057D02*
X33357142Y-6345295D01*
X33357142Y-6345295D02*
X33357142Y-6488152D01*
X33357142Y-6488152D02*
X33309523Y-6583390D01*
X33309523Y-6583390D02*
X33261904Y-6631009D01*
X33261904Y-6631009D02*
X33166666Y-6678628D01*
X33166666Y-6678628D02*
X32785714Y-6678628D01*
X33738095Y-6250057D02*
X33785714Y-6202438D01*
X33785714Y-6202438D02*
X33880952Y-6154819D01*
X33880952Y-6154819D02*
X34119047Y-6154819D01*
X34119047Y-6154819D02*
X34214285Y-6202438D01*
X34214285Y-6202438D02*
X34261904Y-6250057D01*
X34261904Y-6250057D02*
X34309523Y-6345295D01*
X34309523Y-6345295D02*
X34309523Y-6440533D01*
X34309523Y-6440533D02*
X34261904Y-6583390D01*
X34261904Y-6583390D02*
X33690476Y-7154819D01*
X33690476Y-7154819D02*
X34309523Y-7154819D01*
X34642857Y-6154819D02*
X35309523Y-6154819D01*
X35309523Y-6154819D02*
X34880952Y-7154819D01*
X61357142Y-42154819D02*
X61023809Y-41678628D01*
X60785714Y-42154819D02*
X60785714Y-41154819D01*
X60785714Y-41154819D02*
X61166666Y-41154819D01*
X61166666Y-41154819D02*
X61261904Y-41202438D01*
X61261904Y-41202438D02*
X61309523Y-41250057D01*
X61309523Y-41250057D02*
X61357142Y-41345295D01*
X61357142Y-41345295D02*
X61357142Y-41488152D01*
X61357142Y-41488152D02*
X61309523Y-41583390D01*
X61309523Y-41583390D02*
X61261904Y-41631009D01*
X61261904Y-41631009D02*
X61166666Y-41678628D01*
X61166666Y-41678628D02*
X60785714Y-41678628D01*
X61738095Y-41250057D02*
X61785714Y-41202438D01*
X61785714Y-41202438D02*
X61880952Y-41154819D01*
X61880952Y-41154819D02*
X62119047Y-41154819D01*
X62119047Y-41154819D02*
X62214285Y-41202438D01*
X62214285Y-41202438D02*
X62261904Y-41250057D01*
X62261904Y-41250057D02*
X62309523Y-41345295D01*
X62309523Y-41345295D02*
X62309523Y-41440533D01*
X62309523Y-41440533D02*
X62261904Y-41583390D01*
X62261904Y-41583390D02*
X61690476Y-42154819D01*
X61690476Y-42154819D02*
X62309523Y-42154819D01*
X62880952Y-41583390D02*
X62785714Y-41535771D01*
X62785714Y-41535771D02*
X62738095Y-41488152D01*
X62738095Y-41488152D02*
X62690476Y-41392914D01*
X62690476Y-41392914D02*
X62690476Y-41345295D01*
X62690476Y-41345295D02*
X62738095Y-41250057D01*
X62738095Y-41250057D02*
X62785714Y-41202438D01*
X62785714Y-41202438D02*
X62880952Y-41154819D01*
X62880952Y-41154819D02*
X63071428Y-41154819D01*
X63071428Y-41154819D02*
X63166666Y-41202438D01*
X63166666Y-41202438D02*
X63214285Y-41250057D01*
X63214285Y-41250057D02*
X63261904Y-41345295D01*
X63261904Y-41345295D02*
X63261904Y-41392914D01*
X63261904Y-41392914D02*
X63214285Y-41488152D01*
X63214285Y-41488152D02*
X63166666Y-41535771D01*
X63166666Y-41535771D02*
X63071428Y-41583390D01*
X63071428Y-41583390D02*
X62880952Y-41583390D01*
X62880952Y-41583390D02*
X62785714Y-41631009D01*
X62785714Y-41631009D02*
X62738095Y-41678628D01*
X62738095Y-41678628D02*
X62690476Y-41773866D01*
X62690476Y-41773866D02*
X62690476Y-41964342D01*
X62690476Y-41964342D02*
X62738095Y-42059580D01*
X62738095Y-42059580D02*
X62785714Y-42107200D01*
X62785714Y-42107200D02*
X62880952Y-42154819D01*
X62880952Y-42154819D02*
X63071428Y-42154819D01*
X63071428Y-42154819D02*
X63166666Y-42107200D01*
X63166666Y-42107200D02*
X63214285Y-42059580D01*
X63214285Y-42059580D02*
X63261904Y-41964342D01*
X63261904Y-41964342D02*
X63261904Y-41773866D01*
X63261904Y-41773866D02*
X63214285Y-41678628D01*
X63214285Y-41678628D02*
X63166666Y-41631009D01*
X63166666Y-41631009D02*
X63071428Y-41583390D01*
X61357142Y-52154819D02*
X61023809Y-51678628D01*
X60785714Y-52154819D02*
X60785714Y-51154819D01*
X60785714Y-51154819D02*
X61166666Y-51154819D01*
X61166666Y-51154819D02*
X61261904Y-51202438D01*
X61261904Y-51202438D02*
X61309523Y-51250057D01*
X61309523Y-51250057D02*
X61357142Y-51345295D01*
X61357142Y-51345295D02*
X61357142Y-51488152D01*
X61357142Y-51488152D02*
X61309523Y-51583390D01*
X61309523Y-51583390D02*
X61261904Y-51631009D01*
X61261904Y-51631009D02*
X61166666Y-51678628D01*
X61166666Y-51678628D02*
X60785714Y-51678628D01*
X61738095Y-51250057D02*
X61785714Y-51202438D01*
X61785714Y-51202438D02*
X61880952Y-51154819D01*
X61880952Y-51154819D02*
X62119047Y-51154819D01*
X62119047Y-51154819D02*
X62214285Y-51202438D01*
X62214285Y-51202438D02*
X62261904Y-51250057D01*
X62261904Y-51250057D02*
X62309523Y-51345295D01*
X62309523Y-51345295D02*
X62309523Y-51440533D01*
X62309523Y-51440533D02*
X62261904Y-51583390D01*
X62261904Y-51583390D02*
X61690476Y-52154819D01*
X61690476Y-52154819D02*
X62309523Y-52154819D01*
X62785714Y-52154819D02*
X62976190Y-52154819D01*
X62976190Y-52154819D02*
X63071428Y-52107200D01*
X63071428Y-52107200D02*
X63119047Y-52059580D01*
X63119047Y-52059580D02*
X63214285Y-51916723D01*
X63214285Y-51916723D02*
X63261904Y-51726247D01*
X63261904Y-51726247D02*
X63261904Y-51345295D01*
X63261904Y-51345295D02*
X63214285Y-51250057D01*
X63214285Y-51250057D02*
X63166666Y-51202438D01*
X63166666Y-51202438D02*
X63071428Y-51154819D01*
X63071428Y-51154819D02*
X62880952Y-51154819D01*
X62880952Y-51154819D02*
X62785714Y-51202438D01*
X62785714Y-51202438D02*
X62738095Y-51250057D01*
X62738095Y-51250057D02*
X62690476Y-51345295D01*
X62690476Y-51345295D02*
X62690476Y-51583390D01*
X62690476Y-51583390D02*
X62738095Y-51678628D01*
X62738095Y-51678628D02*
X62785714Y-51726247D01*
X62785714Y-51726247D02*
X62880952Y-51773866D01*
X62880952Y-51773866D02*
X63071428Y-51773866D01*
X63071428Y-51773866D02*
X63166666Y-51726247D01*
X63166666Y-51726247D02*
X63214285Y-51678628D01*
X63214285Y-51678628D02*
X63261904Y-51583390D01*
X61357142Y-47154819D02*
X61023809Y-46678628D01*
X60785714Y-47154819D02*
X60785714Y-46154819D01*
X60785714Y-46154819D02*
X61166666Y-46154819D01*
X61166666Y-46154819D02*
X61261904Y-46202438D01*
X61261904Y-46202438D02*
X61309523Y-46250057D01*
X61309523Y-46250057D02*
X61357142Y-46345295D01*
X61357142Y-46345295D02*
X61357142Y-46488152D01*
X61357142Y-46488152D02*
X61309523Y-46583390D01*
X61309523Y-46583390D02*
X61261904Y-46631009D01*
X61261904Y-46631009D02*
X61166666Y-46678628D01*
X61166666Y-46678628D02*
X60785714Y-46678628D01*
X61690476Y-46154819D02*
X62309523Y-46154819D01*
X62309523Y-46154819D02*
X61976190Y-46535771D01*
X61976190Y-46535771D02*
X62119047Y-46535771D01*
X62119047Y-46535771D02*
X62214285Y-46583390D01*
X62214285Y-46583390D02*
X62261904Y-46631009D01*
X62261904Y-46631009D02*
X62309523Y-46726247D01*
X62309523Y-46726247D02*
X62309523Y-46964342D01*
X62309523Y-46964342D02*
X62261904Y-47059580D01*
X62261904Y-47059580D02*
X62214285Y-47107200D01*
X62214285Y-47107200D02*
X62119047Y-47154819D01*
X62119047Y-47154819D02*
X61833333Y-47154819D01*
X61833333Y-47154819D02*
X61738095Y-47107200D01*
X61738095Y-47107200D02*
X61690476Y-47059580D01*
X62928571Y-46154819D02*
X63023809Y-46154819D01*
X63023809Y-46154819D02*
X63119047Y-46202438D01*
X63119047Y-46202438D02*
X63166666Y-46250057D01*
X63166666Y-46250057D02*
X63214285Y-46345295D01*
X63214285Y-46345295D02*
X63261904Y-46535771D01*
X63261904Y-46535771D02*
X63261904Y-46773866D01*
X63261904Y-46773866D02*
X63214285Y-46964342D01*
X63214285Y-46964342D02*
X63166666Y-47059580D01*
X63166666Y-47059580D02*
X63119047Y-47107200D01*
X63119047Y-47107200D02*
X63023809Y-47154819D01*
X63023809Y-47154819D02*
X62928571Y-47154819D01*
X62928571Y-47154819D02*
X62833333Y-47107200D01*
X62833333Y-47107200D02*
X62785714Y-47059580D01*
X62785714Y-47059580D02*
X62738095Y-46964342D01*
X62738095Y-46964342D02*
X62690476Y-46773866D01*
X62690476Y-46773866D02*
X62690476Y-46535771D01*
X62690476Y-46535771D02*
X62738095Y-46345295D01*
X62738095Y-46345295D02*
X62785714Y-46250057D01*
X62785714Y-46250057D02*
X62833333Y-46202438D01*
X62833333Y-46202438D02*
X62928571Y-46154819D01*
X61357142Y-77154819D02*
X61023809Y-76678628D01*
X60785714Y-77154819D02*
X60785714Y-76154819D01*
X60785714Y-76154819D02*
X61166666Y-76154819D01*
X61166666Y-76154819D02*
X61261904Y-76202438D01*
X61261904Y-76202438D02*
X61309523Y-76250057D01*
X61309523Y-76250057D02*
X61357142Y-76345295D01*
X61357142Y-76345295D02*
X61357142Y-76488152D01*
X61357142Y-76488152D02*
X61309523Y-76583390D01*
X61309523Y-76583390D02*
X61261904Y-76631009D01*
X61261904Y-76631009D02*
X61166666Y-76678628D01*
X61166666Y-76678628D02*
X60785714Y-76678628D01*
X61690476Y-76154819D02*
X62309523Y-76154819D01*
X62309523Y-76154819D02*
X61976190Y-76535771D01*
X61976190Y-76535771D02*
X62119047Y-76535771D01*
X62119047Y-76535771D02*
X62214285Y-76583390D01*
X62214285Y-76583390D02*
X62261904Y-76631009D01*
X62261904Y-76631009D02*
X62309523Y-76726247D01*
X62309523Y-76726247D02*
X62309523Y-76964342D01*
X62309523Y-76964342D02*
X62261904Y-77059580D01*
X62261904Y-77059580D02*
X62214285Y-77107200D01*
X62214285Y-77107200D02*
X62119047Y-77154819D01*
X62119047Y-77154819D02*
X61833333Y-77154819D01*
X61833333Y-77154819D02*
X61738095Y-77107200D01*
X61738095Y-77107200D02*
X61690476Y-77059580D01*
X63261904Y-77154819D02*
X62690476Y-77154819D01*
X62976190Y-77154819D02*
X62976190Y-76154819D01*
X62976190Y-76154819D02*
X62880952Y-76297676D01*
X62880952Y-76297676D02*
X62785714Y-76392914D01*
X62785714Y-76392914D02*
X62690476Y-76440533D01*
X61357142Y-67154819D02*
X61023809Y-66678628D01*
X60785714Y-67154819D02*
X60785714Y-66154819D01*
X60785714Y-66154819D02*
X61166666Y-66154819D01*
X61166666Y-66154819D02*
X61261904Y-66202438D01*
X61261904Y-66202438D02*
X61309523Y-66250057D01*
X61309523Y-66250057D02*
X61357142Y-66345295D01*
X61357142Y-66345295D02*
X61357142Y-66488152D01*
X61357142Y-66488152D02*
X61309523Y-66583390D01*
X61309523Y-66583390D02*
X61261904Y-66631009D01*
X61261904Y-66631009D02*
X61166666Y-66678628D01*
X61166666Y-66678628D02*
X60785714Y-66678628D01*
X61690476Y-66154819D02*
X62309523Y-66154819D01*
X62309523Y-66154819D02*
X61976190Y-66535771D01*
X61976190Y-66535771D02*
X62119047Y-66535771D01*
X62119047Y-66535771D02*
X62214285Y-66583390D01*
X62214285Y-66583390D02*
X62261904Y-66631009D01*
X62261904Y-66631009D02*
X62309523Y-66726247D01*
X62309523Y-66726247D02*
X62309523Y-66964342D01*
X62309523Y-66964342D02*
X62261904Y-67059580D01*
X62261904Y-67059580D02*
X62214285Y-67107200D01*
X62214285Y-67107200D02*
X62119047Y-67154819D01*
X62119047Y-67154819D02*
X61833333Y-67154819D01*
X61833333Y-67154819D02*
X61738095Y-67107200D01*
X61738095Y-67107200D02*
X61690476Y-67059580D01*
X62690476Y-66250057D02*
X62738095Y-66202438D01*
X62738095Y-66202438D02*
X62833333Y-66154819D01*
X62833333Y-66154819D02*
X63071428Y-66154819D01*
X63071428Y-66154819D02*
X63166666Y-66202438D01*
X63166666Y-66202438D02*
X63214285Y-66250057D01*
X63214285Y-66250057D02*
X63261904Y-66345295D01*
X63261904Y-66345295D02*
X63261904Y-66440533D01*
X63261904Y-66440533D02*
X63214285Y-66583390D01*
X63214285Y-66583390D02*
X62642857Y-67154819D01*
X62642857Y-67154819D02*
X63261904Y-67154819D01*
X61357142Y-72154819D02*
X61023809Y-71678628D01*
X60785714Y-72154819D02*
X60785714Y-71154819D01*
X60785714Y-71154819D02*
X61166666Y-71154819D01*
X61166666Y-71154819D02*
X61261904Y-71202438D01*
X61261904Y-71202438D02*
X61309523Y-71250057D01*
X61309523Y-71250057D02*
X61357142Y-71345295D01*
X61357142Y-71345295D02*
X61357142Y-71488152D01*
X61357142Y-71488152D02*
X61309523Y-71583390D01*
X61309523Y-71583390D02*
X61261904Y-71631009D01*
X61261904Y-71631009D02*
X61166666Y-71678628D01*
X61166666Y-71678628D02*
X60785714Y-71678628D01*
X61690476Y-71154819D02*
X62309523Y-71154819D01*
X62309523Y-71154819D02*
X61976190Y-71535771D01*
X61976190Y-71535771D02*
X62119047Y-71535771D01*
X62119047Y-71535771D02*
X62214285Y-71583390D01*
X62214285Y-71583390D02*
X62261904Y-71631009D01*
X62261904Y-71631009D02*
X62309523Y-71726247D01*
X62309523Y-71726247D02*
X62309523Y-71964342D01*
X62309523Y-71964342D02*
X62261904Y-72059580D01*
X62261904Y-72059580D02*
X62214285Y-72107200D01*
X62214285Y-72107200D02*
X62119047Y-72154819D01*
X62119047Y-72154819D02*
X61833333Y-72154819D01*
X61833333Y-72154819D02*
X61738095Y-72107200D01*
X61738095Y-72107200D02*
X61690476Y-72059580D01*
X62642857Y-71154819D02*
X63261904Y-71154819D01*
X63261904Y-71154819D02*
X62928571Y-71535771D01*
X62928571Y-71535771D02*
X63071428Y-71535771D01*
X63071428Y-71535771D02*
X63166666Y-71583390D01*
X63166666Y-71583390D02*
X63214285Y-71631009D01*
X63214285Y-71631009D02*
X63261904Y-71726247D01*
X63261904Y-71726247D02*
X63261904Y-71964342D01*
X63261904Y-71964342D02*
X63214285Y-72059580D01*
X63214285Y-72059580D02*
X63166666Y-72107200D01*
X63166666Y-72107200D02*
X63071428Y-72154819D01*
X63071428Y-72154819D02*
X62785714Y-72154819D01*
X62785714Y-72154819D02*
X62690476Y-72107200D01*
X62690476Y-72107200D02*
X62642857Y-72059580D01*
X61357142Y-57154819D02*
X61023809Y-56678628D01*
X60785714Y-57154819D02*
X60785714Y-56154819D01*
X60785714Y-56154819D02*
X61166666Y-56154819D01*
X61166666Y-56154819D02*
X61261904Y-56202438D01*
X61261904Y-56202438D02*
X61309523Y-56250057D01*
X61309523Y-56250057D02*
X61357142Y-56345295D01*
X61357142Y-56345295D02*
X61357142Y-56488152D01*
X61357142Y-56488152D02*
X61309523Y-56583390D01*
X61309523Y-56583390D02*
X61261904Y-56631009D01*
X61261904Y-56631009D02*
X61166666Y-56678628D01*
X61166666Y-56678628D02*
X60785714Y-56678628D01*
X61690476Y-56154819D02*
X62309523Y-56154819D01*
X62309523Y-56154819D02*
X61976190Y-56535771D01*
X61976190Y-56535771D02*
X62119047Y-56535771D01*
X62119047Y-56535771D02*
X62214285Y-56583390D01*
X62214285Y-56583390D02*
X62261904Y-56631009D01*
X62261904Y-56631009D02*
X62309523Y-56726247D01*
X62309523Y-56726247D02*
X62309523Y-56964342D01*
X62309523Y-56964342D02*
X62261904Y-57059580D01*
X62261904Y-57059580D02*
X62214285Y-57107200D01*
X62214285Y-57107200D02*
X62119047Y-57154819D01*
X62119047Y-57154819D02*
X61833333Y-57154819D01*
X61833333Y-57154819D02*
X61738095Y-57107200D01*
X61738095Y-57107200D02*
X61690476Y-57059580D01*
X63166666Y-56488152D02*
X63166666Y-57154819D01*
X62928571Y-56107200D02*
X62690476Y-56821485D01*
X62690476Y-56821485D02*
X63309523Y-56821485D01*
X61357142Y-32154819D02*
X61023809Y-31678628D01*
X60785714Y-32154819D02*
X60785714Y-31154819D01*
X60785714Y-31154819D02*
X61166666Y-31154819D01*
X61166666Y-31154819D02*
X61261904Y-31202438D01*
X61261904Y-31202438D02*
X61309523Y-31250057D01*
X61309523Y-31250057D02*
X61357142Y-31345295D01*
X61357142Y-31345295D02*
X61357142Y-31488152D01*
X61357142Y-31488152D02*
X61309523Y-31583390D01*
X61309523Y-31583390D02*
X61261904Y-31631009D01*
X61261904Y-31631009D02*
X61166666Y-31678628D01*
X61166666Y-31678628D02*
X60785714Y-31678628D01*
X61690476Y-31154819D02*
X62309523Y-31154819D01*
X62309523Y-31154819D02*
X61976190Y-31535771D01*
X61976190Y-31535771D02*
X62119047Y-31535771D01*
X62119047Y-31535771D02*
X62214285Y-31583390D01*
X62214285Y-31583390D02*
X62261904Y-31631009D01*
X62261904Y-31631009D02*
X62309523Y-31726247D01*
X62309523Y-31726247D02*
X62309523Y-31964342D01*
X62309523Y-31964342D02*
X62261904Y-32059580D01*
X62261904Y-32059580D02*
X62214285Y-32107200D01*
X62214285Y-32107200D02*
X62119047Y-32154819D01*
X62119047Y-32154819D02*
X61833333Y-32154819D01*
X61833333Y-32154819D02*
X61738095Y-32107200D01*
X61738095Y-32107200D02*
X61690476Y-32059580D01*
X63214285Y-31154819D02*
X62738095Y-31154819D01*
X62738095Y-31154819D02*
X62690476Y-31631009D01*
X62690476Y-31631009D02*
X62738095Y-31583390D01*
X62738095Y-31583390D02*
X62833333Y-31535771D01*
X62833333Y-31535771D02*
X63071428Y-31535771D01*
X63071428Y-31535771D02*
X63166666Y-31583390D01*
X63166666Y-31583390D02*
X63214285Y-31631009D01*
X63214285Y-31631009D02*
X63261904Y-31726247D01*
X63261904Y-31726247D02*
X63261904Y-31964342D01*
X63261904Y-31964342D02*
X63214285Y-32059580D01*
X63214285Y-32059580D02*
X63166666Y-32107200D01*
X63166666Y-32107200D02*
X63071428Y-32154819D01*
X63071428Y-32154819D02*
X62833333Y-32154819D01*
X62833333Y-32154819D02*
X62738095Y-32107200D01*
X62738095Y-32107200D02*
X62690476Y-32059580D01*
X71354761Y-17254819D02*
X71021428Y-16778628D01*
X70783333Y-17254819D02*
X70783333Y-16254819D01*
X70783333Y-16254819D02*
X71164285Y-16254819D01*
X71164285Y-16254819D02*
X71259523Y-16302438D01*
X71259523Y-16302438D02*
X71307142Y-16350057D01*
X71307142Y-16350057D02*
X71354761Y-16445295D01*
X71354761Y-16445295D02*
X71354761Y-16588152D01*
X71354761Y-16588152D02*
X71307142Y-16683390D01*
X71307142Y-16683390D02*
X71259523Y-16731009D01*
X71259523Y-16731009D02*
X71164285Y-16778628D01*
X71164285Y-16778628D02*
X70783333Y-16778628D01*
X71640476Y-16254819D02*
X71973809Y-17254819D01*
X71973809Y-17254819D02*
X72307142Y-16254819D01*
X73164285Y-17254819D02*
X72592857Y-17254819D01*
X72878571Y-17254819D02*
X72878571Y-16254819D01*
X72878571Y-16254819D02*
X72783333Y-16397676D01*
X72783333Y-16397676D02*
X72688095Y-16492914D01*
X72688095Y-16492914D02*
X72592857Y-16540533D01*
X70404761Y-100203619D02*
X70071428Y-99727428D01*
X69833333Y-100203619D02*
X69833333Y-99203619D01*
X69833333Y-99203619D02*
X70214285Y-99203619D01*
X70214285Y-99203619D02*
X70309523Y-99251238D01*
X70309523Y-99251238D02*
X70357142Y-99298857D01*
X70357142Y-99298857D02*
X70404761Y-99394095D01*
X70404761Y-99394095D02*
X70404761Y-99536952D01*
X70404761Y-99536952D02*
X70357142Y-99632190D01*
X70357142Y-99632190D02*
X70309523Y-99679809D01*
X70309523Y-99679809D02*
X70214285Y-99727428D01*
X70214285Y-99727428D02*
X69833333Y-99727428D01*
X70690476Y-99203619D02*
X71023809Y-100203619D01*
X71023809Y-100203619D02*
X71357142Y-99203619D01*
X71595238Y-99203619D02*
X72214285Y-99203619D01*
X72214285Y-99203619D02*
X71880952Y-99584571D01*
X71880952Y-99584571D02*
X72023809Y-99584571D01*
X72023809Y-99584571D02*
X72119047Y-99632190D01*
X72119047Y-99632190D02*
X72166666Y-99679809D01*
X72166666Y-99679809D02*
X72214285Y-99775047D01*
X72214285Y-99775047D02*
X72214285Y-100013142D01*
X72214285Y-100013142D02*
X72166666Y-100108380D01*
X72166666Y-100108380D02*
X72119047Y-100156000D01*
X72119047Y-100156000D02*
X72023809Y-100203619D01*
X72023809Y-100203619D02*
X71738095Y-100203619D01*
X71738095Y-100203619D02*
X71642857Y-100156000D01*
X71642857Y-100156000D02*
X71595238Y-100108380D01*
X47404761Y-96254819D02*
X47071428Y-95778628D01*
X46833333Y-96254819D02*
X46833333Y-95254819D01*
X46833333Y-95254819D02*
X47214285Y-95254819D01*
X47214285Y-95254819D02*
X47309523Y-95302438D01*
X47309523Y-95302438D02*
X47357142Y-95350057D01*
X47357142Y-95350057D02*
X47404761Y-95445295D01*
X47404761Y-95445295D02*
X47404761Y-95588152D01*
X47404761Y-95588152D02*
X47357142Y-95683390D01*
X47357142Y-95683390D02*
X47309523Y-95731009D01*
X47309523Y-95731009D02*
X47214285Y-95778628D01*
X47214285Y-95778628D02*
X46833333Y-95778628D01*
X47690476Y-95254819D02*
X48023809Y-96254819D01*
X48023809Y-96254819D02*
X48357142Y-95254819D01*
X49119047Y-95588152D02*
X49119047Y-96254819D01*
X48880952Y-95207200D02*
X48642857Y-95921485D01*
X48642857Y-95921485D02*
X49261904Y-95921485D01*
X47404761Y-88254819D02*
X47071428Y-87778628D01*
X46833333Y-88254819D02*
X46833333Y-87254819D01*
X46833333Y-87254819D02*
X47214285Y-87254819D01*
X47214285Y-87254819D02*
X47309523Y-87302438D01*
X47309523Y-87302438D02*
X47357142Y-87350057D01*
X47357142Y-87350057D02*
X47404761Y-87445295D01*
X47404761Y-87445295D02*
X47404761Y-87588152D01*
X47404761Y-87588152D02*
X47357142Y-87683390D01*
X47357142Y-87683390D02*
X47309523Y-87731009D01*
X47309523Y-87731009D02*
X47214285Y-87778628D01*
X47214285Y-87778628D02*
X46833333Y-87778628D01*
X47690476Y-87254819D02*
X48023809Y-88254819D01*
X48023809Y-88254819D02*
X48357142Y-87254819D01*
X49166666Y-87254819D02*
X48690476Y-87254819D01*
X48690476Y-87254819D02*
X48642857Y-87731009D01*
X48642857Y-87731009D02*
X48690476Y-87683390D01*
X48690476Y-87683390D02*
X48785714Y-87635771D01*
X48785714Y-87635771D02*
X49023809Y-87635771D01*
X49023809Y-87635771D02*
X49119047Y-87683390D01*
X49119047Y-87683390D02*
X49166666Y-87731009D01*
X49166666Y-87731009D02*
X49214285Y-87826247D01*
X49214285Y-87826247D02*
X49214285Y-88064342D01*
X49214285Y-88064342D02*
X49166666Y-88159580D01*
X49166666Y-88159580D02*
X49119047Y-88207200D01*
X49119047Y-88207200D02*
X49023809Y-88254819D01*
X49023809Y-88254819D02*
X48785714Y-88254819D01*
X48785714Y-88254819D02*
X48690476Y-88207200D01*
X48690476Y-88207200D02*
X48642857Y-88159580D01*
X47238095Y-30324819D02*
X47238095Y-31134342D01*
X47238095Y-31134342D02*
X47285714Y-31229580D01*
X47285714Y-31229580D02*
X47333333Y-31277200D01*
X47333333Y-31277200D02*
X47428571Y-31324819D01*
X47428571Y-31324819D02*
X47619047Y-31324819D01*
X47619047Y-31324819D02*
X47714285Y-31277200D01*
X47714285Y-31277200D02*
X47761904Y-31229580D01*
X47761904Y-31229580D02*
X47809523Y-31134342D01*
X47809523Y-31134342D02*
X47809523Y-30324819D01*
X48238095Y-30420057D02*
X48285714Y-30372438D01*
X48285714Y-30372438D02*
X48380952Y-30324819D01*
X48380952Y-30324819D02*
X48619047Y-30324819D01*
X48619047Y-30324819D02*
X48714285Y-30372438D01*
X48714285Y-30372438D02*
X48761904Y-30420057D01*
X48761904Y-30420057D02*
X48809523Y-30515295D01*
X48809523Y-30515295D02*
X48809523Y-30610533D01*
X48809523Y-30610533D02*
X48761904Y-30753390D01*
X48761904Y-30753390D02*
X48190476Y-31324819D01*
X48190476Y-31324819D02*
X48809523Y-31324819D01*
X47238095Y-52079819D02*
X47238095Y-52889342D01*
X47238095Y-52889342D02*
X47285714Y-52984580D01*
X47285714Y-52984580D02*
X47333333Y-53032200D01*
X47333333Y-53032200D02*
X47428571Y-53079819D01*
X47428571Y-53079819D02*
X47619047Y-53079819D01*
X47619047Y-53079819D02*
X47714285Y-53032200D01*
X47714285Y-53032200D02*
X47761904Y-52984580D01*
X47761904Y-52984580D02*
X47809523Y-52889342D01*
X47809523Y-52889342D02*
X47809523Y-52079819D01*
X48190476Y-52079819D02*
X48809523Y-52079819D01*
X48809523Y-52079819D02*
X48476190Y-52460771D01*
X48476190Y-52460771D02*
X48619047Y-52460771D01*
X48619047Y-52460771D02*
X48714285Y-52508390D01*
X48714285Y-52508390D02*
X48761904Y-52556009D01*
X48761904Y-52556009D02*
X48809523Y-52651247D01*
X48809523Y-52651247D02*
X48809523Y-52889342D01*
X48809523Y-52889342D02*
X48761904Y-52984580D01*
X48761904Y-52984580D02*
X48714285Y-53032200D01*
X48714285Y-53032200D02*
X48619047Y-53079819D01*
X48619047Y-53079819D02*
X48333333Y-53079819D01*
X48333333Y-53079819D02*
X48238095Y-53032200D01*
X48238095Y-53032200D02*
X48190476Y-52984580D01*
X47238095Y-75079819D02*
X47238095Y-75889342D01*
X47238095Y-75889342D02*
X47285714Y-75984580D01*
X47285714Y-75984580D02*
X47333333Y-76032200D01*
X47333333Y-76032200D02*
X47428571Y-76079819D01*
X47428571Y-76079819D02*
X47619047Y-76079819D01*
X47619047Y-76079819D02*
X47714285Y-76032200D01*
X47714285Y-76032200D02*
X47761904Y-75984580D01*
X47761904Y-75984580D02*
X47809523Y-75889342D01*
X47809523Y-75889342D02*
X47809523Y-75079819D01*
X48714285Y-75413152D02*
X48714285Y-76079819D01*
X48476190Y-75032200D02*
X48238095Y-75746485D01*
X48238095Y-75746485D02*
X48857142Y-75746485D01*
X92833333Y-76109580D02*
X92785714Y-76157200D01*
X92785714Y-76157200D02*
X92642857Y-76204819D01*
X92642857Y-76204819D02*
X92547619Y-76204819D01*
X92547619Y-76204819D02*
X92404762Y-76157200D01*
X92404762Y-76157200D02*
X92309524Y-76061961D01*
X92309524Y-76061961D02*
X92261905Y-75966723D01*
X92261905Y-75966723D02*
X92214286Y-75776247D01*
X92214286Y-75776247D02*
X92214286Y-75633390D01*
X92214286Y-75633390D02*
X92261905Y-75442914D01*
X92261905Y-75442914D02*
X92309524Y-75347676D01*
X92309524Y-75347676D02*
X92404762Y-75252438D01*
X92404762Y-75252438D02*
X92547619Y-75204819D01*
X92547619Y-75204819D02*
X92642857Y-75204819D01*
X92642857Y-75204819D02*
X92785714Y-75252438D01*
X92785714Y-75252438D02*
X92833333Y-75300057D01*
X93738095Y-75204819D02*
X93261905Y-75204819D01*
X93261905Y-75204819D02*
X93214286Y-75681009D01*
X93214286Y-75681009D02*
X93261905Y-75633390D01*
X93261905Y-75633390D02*
X93357143Y-75585771D01*
X93357143Y-75585771D02*
X93595238Y-75585771D01*
X93595238Y-75585771D02*
X93690476Y-75633390D01*
X93690476Y-75633390D02*
X93738095Y-75681009D01*
X93738095Y-75681009D02*
X93785714Y-75776247D01*
X93785714Y-75776247D02*
X93785714Y-76014342D01*
X93785714Y-76014342D02*
X93738095Y-76109580D01*
X93738095Y-76109580D02*
X93690476Y-76157200D01*
X93690476Y-76157200D02*
X93595238Y-76204819D01*
X93595238Y-76204819D02*
X93357143Y-76204819D01*
X93357143Y-76204819D02*
X93261905Y-76157200D01*
X93261905Y-76157200D02*
X93214286Y-76109580D01*
X71261905Y-82454819D02*
X71261905Y-81454819D01*
X71261905Y-81454819D02*
X71500000Y-81454819D01*
X71500000Y-81454819D02*
X71642857Y-81502438D01*
X71642857Y-81502438D02*
X71738095Y-81597676D01*
X71738095Y-81597676D02*
X71785714Y-81692914D01*
X71785714Y-81692914D02*
X71833333Y-81883390D01*
X71833333Y-81883390D02*
X71833333Y-82026247D01*
X71833333Y-82026247D02*
X71785714Y-82216723D01*
X71785714Y-82216723D02*
X71738095Y-82311961D01*
X71738095Y-82311961D02*
X71642857Y-82407200D01*
X71642857Y-82407200D02*
X71500000Y-82454819D01*
X71500000Y-82454819D02*
X71261905Y-82454819D01*
X72214286Y-81550057D02*
X72261905Y-81502438D01*
X72261905Y-81502438D02*
X72357143Y-81454819D01*
X72357143Y-81454819D02*
X72595238Y-81454819D01*
X72595238Y-81454819D02*
X72690476Y-81502438D01*
X72690476Y-81502438D02*
X72738095Y-81550057D01*
X72738095Y-81550057D02*
X72785714Y-81645295D01*
X72785714Y-81645295D02*
X72785714Y-81740533D01*
X72785714Y-81740533D02*
X72738095Y-81883390D01*
X72738095Y-81883390D02*
X72166667Y-82454819D01*
X72166667Y-82454819D02*
X72785714Y-82454819D01*
X71261905Y-77454819D02*
X71261905Y-76454819D01*
X71261905Y-76454819D02*
X71500000Y-76454819D01*
X71500000Y-76454819D02*
X71642857Y-76502438D01*
X71642857Y-76502438D02*
X71738095Y-76597676D01*
X71738095Y-76597676D02*
X71785714Y-76692914D01*
X71785714Y-76692914D02*
X71833333Y-76883390D01*
X71833333Y-76883390D02*
X71833333Y-77026247D01*
X71833333Y-77026247D02*
X71785714Y-77216723D01*
X71785714Y-77216723D02*
X71738095Y-77311961D01*
X71738095Y-77311961D02*
X71642857Y-77407200D01*
X71642857Y-77407200D02*
X71500000Y-77454819D01*
X71500000Y-77454819D02*
X71261905Y-77454819D01*
X72166667Y-76454819D02*
X72785714Y-76454819D01*
X72785714Y-76454819D02*
X72452381Y-76835771D01*
X72452381Y-76835771D02*
X72595238Y-76835771D01*
X72595238Y-76835771D02*
X72690476Y-76883390D01*
X72690476Y-76883390D02*
X72738095Y-76931009D01*
X72738095Y-76931009D02*
X72785714Y-77026247D01*
X72785714Y-77026247D02*
X72785714Y-77264342D01*
X72785714Y-77264342D02*
X72738095Y-77359580D01*
X72738095Y-77359580D02*
X72690476Y-77407200D01*
X72690476Y-77407200D02*
X72595238Y-77454819D01*
X72595238Y-77454819D02*
X72309524Y-77454819D01*
X72309524Y-77454819D02*
X72214286Y-77407200D01*
X72214286Y-77407200D02*
X72166667Y-77359580D01*
X71261905Y-87454819D02*
X71261905Y-86454819D01*
X71261905Y-86454819D02*
X71500000Y-86454819D01*
X71500000Y-86454819D02*
X71642857Y-86502438D01*
X71642857Y-86502438D02*
X71738095Y-86597676D01*
X71738095Y-86597676D02*
X71785714Y-86692914D01*
X71785714Y-86692914D02*
X71833333Y-86883390D01*
X71833333Y-86883390D02*
X71833333Y-87026247D01*
X71833333Y-87026247D02*
X71785714Y-87216723D01*
X71785714Y-87216723D02*
X71738095Y-87311961D01*
X71738095Y-87311961D02*
X71642857Y-87407200D01*
X71642857Y-87407200D02*
X71500000Y-87454819D01*
X71500000Y-87454819D02*
X71261905Y-87454819D01*
X72690476Y-86788152D02*
X72690476Y-87454819D01*
X72452381Y-86407200D02*
X72214286Y-87121485D01*
X72214286Y-87121485D02*
X72833333Y-87121485D01*
X71261905Y-92454819D02*
X71261905Y-91454819D01*
X71261905Y-91454819D02*
X71500000Y-91454819D01*
X71500000Y-91454819D02*
X71642857Y-91502438D01*
X71642857Y-91502438D02*
X71738095Y-91597676D01*
X71738095Y-91597676D02*
X71785714Y-91692914D01*
X71785714Y-91692914D02*
X71833333Y-91883390D01*
X71833333Y-91883390D02*
X71833333Y-92026247D01*
X71833333Y-92026247D02*
X71785714Y-92216723D01*
X71785714Y-92216723D02*
X71738095Y-92311961D01*
X71738095Y-92311961D02*
X71642857Y-92407200D01*
X71642857Y-92407200D02*
X71500000Y-92454819D01*
X71500000Y-92454819D02*
X71261905Y-92454819D01*
X72738095Y-91454819D02*
X72261905Y-91454819D01*
X72261905Y-91454819D02*
X72214286Y-91931009D01*
X72214286Y-91931009D02*
X72261905Y-91883390D01*
X72261905Y-91883390D02*
X72357143Y-91835771D01*
X72357143Y-91835771D02*
X72595238Y-91835771D01*
X72595238Y-91835771D02*
X72690476Y-91883390D01*
X72690476Y-91883390D02*
X72738095Y-91931009D01*
X72738095Y-91931009D02*
X72785714Y-92026247D01*
X72785714Y-92026247D02*
X72785714Y-92264342D01*
X72785714Y-92264342D02*
X72738095Y-92359580D01*
X72738095Y-92359580D02*
X72690476Y-92407200D01*
X72690476Y-92407200D02*
X72595238Y-92454819D01*
X72595238Y-92454819D02*
X72357143Y-92454819D01*
X72357143Y-92454819D02*
X72261905Y-92407200D01*
X72261905Y-92407200D02*
X72214286Y-92359580D01*
X47238095Y-10954819D02*
X47238095Y-11764342D01*
X47238095Y-11764342D02*
X47285714Y-11859580D01*
X47285714Y-11859580D02*
X47333333Y-11907200D01*
X47333333Y-11907200D02*
X47428571Y-11954819D01*
X47428571Y-11954819D02*
X47619047Y-11954819D01*
X47619047Y-11954819D02*
X47714285Y-11907200D01*
X47714285Y-11907200D02*
X47761904Y-11859580D01*
X47761904Y-11859580D02*
X47809523Y-11764342D01*
X47809523Y-11764342D02*
X47809523Y-10954819D01*
X48809523Y-11954819D02*
X48238095Y-11954819D01*
X48523809Y-11954819D02*
X48523809Y-10954819D01*
X48523809Y-10954819D02*
X48428571Y-11097676D01*
X48428571Y-11097676D02*
X48333333Y-11192914D01*
X48333333Y-11192914D02*
X48238095Y-11240533D01*
X71904761Y-61050057D02*
X71809523Y-61002438D01*
X71809523Y-61002438D02*
X71714285Y-60907200D01*
X71714285Y-60907200D02*
X71571428Y-60764342D01*
X71571428Y-60764342D02*
X71476190Y-60716723D01*
X71476190Y-60716723D02*
X71380952Y-60716723D01*
X71428571Y-60954819D02*
X71333333Y-60907200D01*
X71333333Y-60907200D02*
X71238095Y-60811961D01*
X71238095Y-60811961D02*
X71190476Y-60621485D01*
X71190476Y-60621485D02*
X71190476Y-60288152D01*
X71190476Y-60288152D02*
X71238095Y-60097676D01*
X71238095Y-60097676D02*
X71333333Y-60002438D01*
X71333333Y-60002438D02*
X71428571Y-59954819D01*
X71428571Y-59954819D02*
X71619047Y-59954819D01*
X71619047Y-59954819D02*
X71714285Y-60002438D01*
X71714285Y-60002438D02*
X71809523Y-60097676D01*
X71809523Y-60097676D02*
X71857142Y-60288152D01*
X71857142Y-60288152D02*
X71857142Y-60621485D01*
X71857142Y-60621485D02*
X71809523Y-60811961D01*
X71809523Y-60811961D02*
X71714285Y-60907200D01*
X71714285Y-60907200D02*
X71619047Y-60954819D01*
X71619047Y-60954819D02*
X71428571Y-60954819D01*
X72190476Y-59954819D02*
X72809523Y-59954819D01*
X72809523Y-59954819D02*
X72476190Y-60335771D01*
X72476190Y-60335771D02*
X72619047Y-60335771D01*
X72619047Y-60335771D02*
X72714285Y-60383390D01*
X72714285Y-60383390D02*
X72761904Y-60431009D01*
X72761904Y-60431009D02*
X72809523Y-60526247D01*
X72809523Y-60526247D02*
X72809523Y-60764342D01*
X72809523Y-60764342D02*
X72761904Y-60859580D01*
X72761904Y-60859580D02*
X72714285Y-60907200D01*
X72714285Y-60907200D02*
X72619047Y-60954819D01*
X72619047Y-60954819D02*
X72333333Y-60954819D01*
X72333333Y-60954819D02*
X72238095Y-60907200D01*
X72238095Y-60907200D02*
X72190476Y-60859580D01*
X53833333Y-17609580D02*
X53785714Y-17657200D01*
X53785714Y-17657200D02*
X53642857Y-17704819D01*
X53642857Y-17704819D02*
X53547619Y-17704819D01*
X53547619Y-17704819D02*
X53404762Y-17657200D01*
X53404762Y-17657200D02*
X53309524Y-17561961D01*
X53309524Y-17561961D02*
X53261905Y-17466723D01*
X53261905Y-17466723D02*
X53214286Y-17276247D01*
X53214286Y-17276247D02*
X53214286Y-17133390D01*
X53214286Y-17133390D02*
X53261905Y-16942914D01*
X53261905Y-16942914D02*
X53309524Y-16847676D01*
X53309524Y-16847676D02*
X53404762Y-16752438D01*
X53404762Y-16752438D02*
X53547619Y-16704819D01*
X53547619Y-16704819D02*
X53642857Y-16704819D01*
X53642857Y-16704819D02*
X53785714Y-16752438D01*
X53785714Y-16752438D02*
X53833333Y-16800057D01*
X54166667Y-16704819D02*
X54785714Y-16704819D01*
X54785714Y-16704819D02*
X54452381Y-17085771D01*
X54452381Y-17085771D02*
X54595238Y-17085771D01*
X54595238Y-17085771D02*
X54690476Y-17133390D01*
X54690476Y-17133390D02*
X54738095Y-17181009D01*
X54738095Y-17181009D02*
X54785714Y-17276247D01*
X54785714Y-17276247D02*
X54785714Y-17514342D01*
X54785714Y-17514342D02*
X54738095Y-17609580D01*
X54738095Y-17609580D02*
X54690476Y-17657200D01*
X54690476Y-17657200D02*
X54595238Y-17704819D01*
X54595238Y-17704819D02*
X54309524Y-17704819D01*
X54309524Y-17704819D02*
X54214286Y-17657200D01*
X54214286Y-17657200D02*
X54166667Y-17609580D01*
D11*
X94720000Y-101175000D02*
X94720000Y-100990000D01*
X94720000Y-103010000D02*
X94720000Y-102825000D01*
X94730000Y-100990000D02*
X94720000Y-100990000D01*
X94730000Y-103010000D02*
X94720000Y-103010000D01*
X96920000Y-100990000D02*
X96189000Y-100990000D01*
X96920000Y-103010000D02*
X96189000Y-103010000D01*
D10*
X86000000Y-82500000D02*
X100000000Y-82500000D01*
X86000000Y-94000000D02*
X86000000Y-82500000D01*
X100000000Y-82500000D02*
X100000000Y-94000000D01*
X100000000Y-86200000D02*
X103500000Y-86200000D01*
X100000000Y-89800000D02*
X103500000Y-89800000D01*
X100000000Y-94000000D02*
X86000000Y-94000000D01*
X103500000Y-89800000D02*
X103500000Y-86200000D01*
D11*
X80670000Y-53730000D02*
X80670000Y-25730000D01*
X83330000Y-25730000D02*
X80670000Y-25730000D01*
X83330000Y-53730000D02*
X80670000Y-53730000D01*
X83330000Y-53730000D02*
X83330000Y-25730000D01*
X83330000Y-55000000D02*
X83330000Y-56330000D01*
X83330000Y-56330000D02*
X82000000Y-56330000D01*
X76670000Y-53730000D02*
X76670000Y-25730000D01*
X79330000Y-25730000D02*
X76670000Y-25730000D01*
X79330000Y-53730000D02*
X76670000Y-53730000D01*
X79330000Y-53730000D02*
X79330000Y-25730000D01*
X79330000Y-55000000D02*
X79330000Y-56330000D01*
X79330000Y-56330000D02*
X78000000Y-56330000D01*
D10*
X86000000Y-17500000D02*
X100000000Y-17500000D01*
X86000000Y-29000000D02*
X86000000Y-17500000D01*
X100000000Y-17500000D02*
X100000000Y-29000000D01*
X100000000Y-21200000D02*
X103500000Y-21200000D01*
X100000000Y-24800000D02*
X103500000Y-24800000D01*
X100000000Y-29000000D02*
X86000000Y-29000000D01*
X103500000Y-24800000D02*
X103500000Y-21200000D01*
X86000000Y-2500000D02*
X100000000Y-2500000D01*
X86000000Y-14000000D02*
X86000000Y-2500000D01*
X100000000Y-2500000D02*
X100000000Y-14000000D01*
X100000000Y-6200000D02*
X103500000Y-6200000D01*
X100000000Y-9800000D02*
X103500000Y-9800000D01*
X100000000Y-14000000D02*
X86000000Y-14000000D01*
X103500000Y-9800000D02*
X103500000Y-6200000D01*
X-3500000Y-20200000D02*
X-3500000Y-23800000D01*
X0Y-16000000D02*
X14000000Y-16000000D01*
X0Y-20200000D02*
X-3500000Y-20200000D01*
X0Y-23800000D02*
X-3500000Y-23800000D01*
X0Y-27500000D02*
X0Y-16000000D01*
X14000000Y-16000000D02*
X14000000Y-27500000D01*
X14000000Y-27500000D02*
X0Y-27500000D01*
D11*
X20670000Y-88670000D02*
X22000000Y-88670000D01*
X20670000Y-90000000D02*
X20670000Y-88670000D01*
X20670000Y-91270000D02*
X20670000Y-109110000D01*
X20670000Y-91270000D02*
X23270000Y-91270000D01*
X20670000Y-109110000D02*
X25870000Y-109110000D01*
X23270000Y-88670000D02*
X25870000Y-88670000D01*
X23270000Y-91270000D02*
X23270000Y-88670000D01*
X25870000Y-88670000D02*
X25870000Y-109110000D01*
X16670000Y-38670000D02*
X18000000Y-38670000D01*
X16670000Y-40000000D02*
X16670000Y-38670000D01*
X16670000Y-41270000D02*
X16670000Y-56570000D01*
X16670000Y-41270000D02*
X19330000Y-41270000D01*
X16670000Y-56570000D02*
X19330000Y-56570000D01*
X19330000Y-41270000D02*
X19330000Y-56570000D01*
X20670000Y-58730000D02*
X20670000Y-43430000D01*
X23330000Y-43430000D02*
X20670000Y-43430000D01*
X23330000Y-58730000D02*
X20670000Y-58730000D01*
X23330000Y-58730000D02*
X23330000Y-43430000D01*
X23330000Y-60000000D02*
X23330000Y-61330000D01*
X23330000Y-61330000D02*
X22000000Y-61330000D01*
D10*
X-3500000Y-85200000D02*
X-3500000Y-88800000D01*
X0Y-81000000D02*
X14000000Y-81000000D01*
X0Y-85200000D02*
X-3500000Y-85200000D01*
X0Y-88800000D02*
X-3500000Y-88800000D01*
X0Y-92500000D02*
X0Y-81000000D01*
X14000000Y-81000000D02*
X14000000Y-92500000D01*
X14000000Y-92500000D02*
X0Y-92500000D01*
X-3500000Y-100200000D02*
X-3500000Y-103800000D01*
X0Y-96000000D02*
X14000000Y-96000000D01*
X0Y-100200000D02*
X-3500000Y-100200000D01*
X0Y-103800000D02*
X-3500000Y-103800000D01*
X0Y-107500000D02*
X0Y-96000000D01*
X14000000Y-96000000D02*
X14000000Y-107500000D01*
X14000000Y-107500000D02*
X0Y-107500000D01*
D11*
X94940000Y-42375000D02*
X94940000Y-48625000D01*
X95695000Y-40590000D02*
X100060000Y-40590000D01*
X95695000Y-50410000D02*
X100060000Y-50410000D01*
X100060000Y-40590000D02*
X100060000Y-50410000D01*
X100060000Y-42040000D02*
X100060000Y-48960000D01*
X100060000Y-42040000D02*
X100860000Y-42040000D01*
X100060000Y-48960000D02*
X100860000Y-48960000D01*
X100860000Y-42040000D02*
X100860000Y-48960000D01*
X100860000Y-42440000D02*
X100860000Y-48560000D01*
X100860000Y-42440000D02*
X110060000Y-42440000D01*
X100860000Y-48560000D02*
X110060000Y-48560000D01*
X110060000Y-42440000D02*
X110060000Y-48560000D01*
X-10060000Y-45560000D02*
X-10060000Y-39440000D01*
X-860000Y-39440000D02*
X-10060000Y-39440000D01*
X-860000Y-45560000D02*
X-10060000Y-45560000D01*
X-860000Y-45560000D02*
X-860000Y-39440000D01*
X-860000Y-45960000D02*
X-860000Y-39040000D01*
X-60000Y-39040000D02*
X-860000Y-39040000D01*
X-60000Y-45960000D02*
X-860000Y-45960000D01*
X-60000Y-45960000D02*
X-60000Y-39040000D01*
X-60000Y-47410000D02*
X-60000Y-37590000D01*
X4305000Y-37590000D02*
X-60000Y-37590000D01*
X4305000Y-47410000D02*
X-60000Y-47410000D01*
X5060000Y-45625000D02*
X5060000Y-39375000D01*
X-10060000Y-67560000D02*
X-10060000Y-61440000D01*
X-860000Y-61440000D02*
X-10060000Y-61440000D01*
X-860000Y-67560000D02*
X-10060000Y-67560000D01*
X-860000Y-67560000D02*
X-860000Y-61440000D01*
X-860000Y-67960000D02*
X-860000Y-61040000D01*
X-60000Y-61040000D02*
X-860000Y-61040000D01*
X-60000Y-67960000D02*
X-860000Y-67960000D01*
X-60000Y-67960000D02*
X-60000Y-61040000D01*
X-60000Y-69410000D02*
X-60000Y-59590000D01*
X4305000Y-59590000D02*
X-60000Y-59590000D01*
X4305000Y-69410000D02*
X-60000Y-69410000D01*
X5060000Y-67625000D02*
X5060000Y-61375000D01*
D10*
X90729000Y-65936000D02*
X90729000Y-66444000D01*
X90729000Y-68984000D02*
X90729000Y-68476000D01*
X90729000Y-71524000D02*
X90729000Y-71016000D01*
X90730000Y-74065000D02*
X90729000Y-73492500D01*
X100000000Y-65935000D02*
X90730000Y-65935000D01*
X100000000Y-68135000D02*
X104100000Y-68135000D01*
X100000000Y-71865000D02*
X104100000Y-71865000D01*
X100000000Y-74065000D02*
X90730000Y-74065000D01*
X100000000Y-74065000D02*
X100000000Y-65935000D01*
X104100000Y-71865000D02*
X104100000Y-68135000D01*
X104127500Y-70698500D02*
X105715000Y-71524000D01*
X106350000Y-70127000D02*
X104127500Y-69047500D01*
X106401026Y-70113848D02*
G75*
G02*
X105664201Y-71523999I-355826J-711652D01*
G01*
D11*
X61000000Y-30480000D02*
X63000000Y-30480000D01*
X63000000Y-27520000D02*
X61000000Y-27520000D01*
X61000000Y-15480000D02*
X63000000Y-15480000D01*
X63000000Y-12520000D02*
X61000000Y-12520000D01*
X92000000Y-63480000D02*
X94000000Y-63480000D01*
X94000000Y-60520000D02*
X92000000Y-60520000D01*
X61000000Y-90480000D02*
X63000000Y-90480000D01*
X63000000Y-87520000D02*
X61000000Y-87520000D01*
X61000000Y-40480000D02*
X63000000Y-40480000D01*
X63000000Y-37520000D02*
X61000000Y-37520000D01*
X44700000Y-2700000D02*
X44700000Y-4880000D01*
X44700000Y-2700000D02*
X50540000Y-2700000D01*
X44700000Y-9300000D02*
X44700000Y-7120000D01*
X50540000Y-2700000D02*
X51300000Y-3460000D01*
X50540000Y-9300000D02*
X44700000Y-9300000D01*
X51300000Y-3460000D02*
X51300000Y-4880000D01*
X51300000Y-8540000D02*
X50540000Y-9300000D01*
X51300000Y-8540000D02*
X51300000Y-7120000D01*
X27330000Y-97330000D02*
X27330000Y-101910000D01*
X27330000Y-97330000D02*
X28880000Y-97330000D01*
X27330000Y-101910000D02*
X28090000Y-102670000D01*
X28090000Y-102670000D02*
X28880000Y-102670000D01*
X31910000Y-102670000D02*
X31120000Y-102670000D01*
X31910000Y-102670000D02*
X32670000Y-101910000D01*
X32670000Y-97330000D02*
X31120000Y-97330000D01*
X32670000Y-101910000D02*
X32670000Y-97330000D01*
X44700000Y-21700000D02*
X44700000Y-23880000D01*
X44700000Y-21700000D02*
X50540000Y-21700000D01*
X44700000Y-28300000D02*
X44700000Y-26120000D01*
X50540000Y-21700000D02*
X51300000Y-22460000D01*
X50540000Y-28300000D02*
X44700000Y-28300000D01*
X51300000Y-22460000D02*
X51300000Y-23880000D01*
X51300000Y-27540000D02*
X50540000Y-28300000D01*
X51300000Y-27540000D02*
X51300000Y-26120000D01*
X44700000Y-42460000D02*
X44700000Y-43880000D01*
X44700000Y-42460000D02*
X45460000Y-41700000D01*
X44700000Y-47540000D02*
X44700000Y-46120000D01*
X45460000Y-41700000D02*
X51300000Y-41700000D01*
X45460000Y-48300000D02*
X44700000Y-47540000D01*
X51300000Y-41700000D02*
X51300000Y-43880000D01*
X51300000Y-48300000D02*
X45460000Y-48300000D01*
X51300000Y-48300000D02*
X51300000Y-46120000D01*
X44700000Y-67460000D02*
X44700000Y-68880000D01*
X44700000Y-67460000D02*
X45460000Y-66700000D01*
X44700000Y-72540000D02*
X44700000Y-71120000D01*
X45460000Y-66700000D02*
X51300000Y-66700000D01*
X45460000Y-73300000D02*
X44700000Y-72540000D01*
X51300000Y-66700000D02*
X51300000Y-68880000D01*
X51300000Y-73300000D02*
X45460000Y-73300000D01*
X51300000Y-73300000D02*
X51300000Y-71120000D01*
X27330000Y-89330000D02*
X27330000Y-93910000D01*
X27330000Y-89330000D02*
X28880000Y-89330000D01*
X27330000Y-93910000D02*
X28090000Y-94670000D01*
X28090000Y-94670000D02*
X28880000Y-94670000D01*
X31910000Y-94670000D02*
X31120000Y-94670000D01*
X31910000Y-94670000D02*
X32670000Y-93910000D01*
X32670000Y-89330000D02*
X31120000Y-89330000D01*
X32670000Y-93910000D02*
X32670000Y-89330000D01*
X71240000Y-8420000D02*
X71240000Y-9350000D01*
X71240000Y-8420000D02*
X72700000Y-8420000D01*
X71240000Y-11580000D02*
X71240000Y-10650000D01*
X71240000Y-11580000D02*
X73400000Y-11580000D01*
X72760000Y-69420000D02*
X70600000Y-69420000D01*
X72760000Y-69420000D02*
X72760000Y-70350000D01*
X72760000Y-72580000D02*
X71300000Y-72580000D01*
X72760000Y-72580000D02*
X72760000Y-71650000D01*
X61000000Y-7520000D02*
X63000000Y-7520000D01*
X63000000Y-10480000D02*
X61000000Y-10480000D01*
X88520000Y-103000000D02*
X88520000Y-101000000D01*
X91480000Y-101000000D02*
X91480000Y-103000000D01*
X61000000Y-17520000D02*
X63000000Y-17520000D01*
X63000000Y-20480000D02*
X61000000Y-20480000D01*
X33000000Y-52520000D02*
X35000000Y-52520000D01*
X35000000Y-55480000D02*
X33000000Y-55480000D01*
X33000000Y-17520000D02*
X35000000Y-17520000D01*
X35000000Y-20480000D02*
X33000000Y-20480000D01*
X33000000Y-57520000D02*
X35000000Y-57520000D01*
X35000000Y-60480000D02*
X33000000Y-60480000D01*
X33000000Y-77520000D02*
X35000000Y-77520000D01*
X35000000Y-80480000D02*
X33000000Y-80480000D01*
X61000000Y-22520000D02*
X63000000Y-22520000D01*
X63000000Y-25480000D02*
X61000000Y-25480000D01*
X33000000Y-47520000D02*
X35000000Y-47520000D01*
X35000000Y-50480000D02*
X33000000Y-50480000D01*
X33000000Y-62520000D02*
X35000000Y-62520000D01*
X35000000Y-65480000D02*
X33000000Y-65480000D01*
X33000000Y-72520000D02*
X35000000Y-72520000D01*
X35000000Y-75480000D02*
X33000000Y-75480000D01*
X33000000Y-67520000D02*
X35000000Y-67520000D01*
X35000000Y-70480000D02*
X33000000Y-70480000D01*
X61000000Y-97520000D02*
X63000000Y-97520000D01*
X63000000Y-100480000D02*
X61000000Y-100480000D01*
X33000000Y-42520000D02*
X35000000Y-42520000D01*
X35000000Y-45480000D02*
X33000000Y-45480000D01*
X33000000Y-37520000D02*
X35000000Y-37520000D01*
X35000000Y-40480000D02*
X33000000Y-40480000D01*
X61000000Y-82520000D02*
X63000000Y-82520000D01*
X63000000Y-85480000D02*
X61000000Y-85480000D01*
X33000000Y-27520000D02*
X35000000Y-27520000D01*
X35000000Y-30480000D02*
X33000000Y-30480000D01*
X61000000Y-62520000D02*
X63000000Y-62520000D01*
X63000000Y-65480000D02*
X61000000Y-65480000D01*
X33000000Y-32520000D02*
X35000000Y-32520000D01*
X35000000Y-35480000D02*
X33000000Y-35480000D01*
X61000000Y-92520000D02*
X63000000Y-92520000D01*
X63000000Y-95480000D02*
X61000000Y-95480000D01*
X33000000Y-22520000D02*
X35000000Y-22520000D01*
X35000000Y-25480000D02*
X33000000Y-25480000D01*
X33000000Y-2520000D02*
X35000000Y-2520000D01*
X35000000Y-5480000D02*
X33000000Y-5480000D01*
X47000000Y-104520000D02*
X49000000Y-104520000D01*
X49000000Y-107480000D02*
X47000000Y-107480000D01*
X61000000Y-2520000D02*
X63000000Y-2520000D01*
X63000000Y-5480000D02*
X61000000Y-5480000D01*
X33000000Y-82520000D02*
X35000000Y-82520000D01*
X35000000Y-85480000D02*
X33000000Y-85480000D01*
X33000000Y-12520000D02*
X35000000Y-12520000D01*
X35000000Y-15480000D02*
X33000000Y-15480000D01*
X33000000Y-7520000D02*
X35000000Y-7520000D01*
X35000000Y-10480000D02*
X33000000Y-10480000D01*
X61000000Y-42520000D02*
X63000000Y-42520000D01*
X63000000Y-45480000D02*
X61000000Y-45480000D01*
X61000000Y-52520000D02*
X63000000Y-52520000D01*
X63000000Y-55480000D02*
X61000000Y-55480000D01*
X61000000Y-47520000D02*
X63000000Y-47520000D01*
X63000000Y-50480000D02*
X61000000Y-50480000D01*
X61000000Y-77520000D02*
X63000000Y-77520000D01*
X63000000Y-80480000D02*
X61000000Y-80480000D01*
X61000000Y-67520000D02*
X63000000Y-67520000D01*
X63000000Y-70480000D02*
X61000000Y-70480000D01*
X61000000Y-72520000D02*
X63000000Y-72520000D01*
X63000000Y-75480000D02*
X61000000Y-75480000D01*
X61000000Y-57520000D02*
X63000000Y-57520000D01*
X63000000Y-60480000D02*
X61000000Y-60480000D01*
X61000000Y-32520000D02*
X63000000Y-32520000D01*
X63000000Y-35480000D02*
X61000000Y-35480000D01*
D10*
X69600000Y-18000000D02*
X70750000Y-18000000D01*
X69600000Y-22000000D02*
X69600000Y-18000000D01*
X69600000Y-22000000D02*
X69900000Y-22000000D01*
X72300000Y-22000000D02*
X71700000Y-22000000D01*
X73250000Y-18000000D02*
X74400000Y-18000000D01*
X73270000Y-18730000D02*
X74133600Y-18730000D01*
X74133600Y-18730000D02*
X74209131Y-18730000D01*
X74400000Y-18000000D02*
X74400000Y-22000000D01*
X74400000Y-22000000D02*
X74100000Y-22000000D01*
X74209131Y-18730000D02*
G75*
G02*
X73245269Y-18730000I-481931J0D01*
G01*
X73245269Y-18730000D02*
G75*
G02*
X74209131Y-18730000I481931J0D01*
G01*
X68600000Y-101000000D02*
X68900000Y-101000000D01*
X68600000Y-105000000D02*
X68600000Y-101000000D01*
X68866400Y-104270000D02*
X68790869Y-104270000D01*
X69730000Y-104270000D02*
X68866400Y-104270000D01*
X69750000Y-105000000D02*
X68600000Y-105000000D01*
X70700000Y-101000000D02*
X71300000Y-101000000D01*
X73400000Y-101000000D02*
X73100000Y-101000000D01*
X73400000Y-101000000D02*
X73400000Y-105000000D01*
X73400000Y-105000000D02*
X72250000Y-105000000D01*
X69754731Y-104270000D02*
G75*
G02*
X68790869Y-104270000I-481931J0D01*
G01*
X68790869Y-104270000D02*
G75*
G02*
X69754731Y-104270000I481931J0D01*
G01*
X45600000Y-97000000D02*
X46750000Y-97000000D01*
X45600000Y-101000000D02*
X45600000Y-97000000D01*
X45600000Y-101000000D02*
X45900000Y-101000000D01*
X48300000Y-101000000D02*
X47700000Y-101000000D01*
X49250000Y-97000000D02*
X50400000Y-97000000D01*
X49270000Y-97730000D02*
X50133600Y-97730000D01*
X50133600Y-97730000D02*
X50209131Y-97730000D01*
X50400000Y-97000000D02*
X50400000Y-101000000D01*
X50400000Y-101000000D02*
X50100000Y-101000000D01*
X50209131Y-97730000D02*
G75*
G02*
X49245269Y-97730000I-481931J0D01*
G01*
X49245269Y-97730000D02*
G75*
G02*
X50209131Y-97730000I481931J0D01*
G01*
X45600000Y-89000000D02*
X46750000Y-89000000D01*
X45600000Y-93000000D02*
X45600000Y-89000000D01*
X45600000Y-93000000D02*
X45900000Y-93000000D01*
X48300000Y-93000000D02*
X47700000Y-93000000D01*
X49250000Y-89000000D02*
X50400000Y-89000000D01*
X49270000Y-89730000D02*
X50133600Y-89730000D01*
X50133600Y-89730000D02*
X50209131Y-89730000D01*
X50400000Y-89000000D02*
X50400000Y-93000000D01*
X50400000Y-93000000D02*
X50100000Y-93000000D01*
X50209131Y-89730000D02*
G75*
G02*
X49245269Y-89730000I-481931J0D01*
G01*
X49245269Y-89730000D02*
G75*
G02*
X50209131Y-89730000I481931J0D01*
G01*
X45250000Y-31795000D02*
X45250000Y-32450000D01*
X45250000Y-31795000D02*
X50750000Y-31795000D01*
X45250000Y-32450000D02*
X43500000Y-32450000D01*
X45250000Y-38205000D02*
X45250000Y-37455000D01*
X45250000Y-38205000D02*
X50750000Y-38205000D01*
X50750000Y-31795000D02*
X50750000Y-32545000D01*
X50750000Y-38205000D02*
X50750000Y-37455000D01*
X45925000Y-53550000D02*
X45925000Y-53575000D01*
X45925000Y-53550000D02*
X50075000Y-53550000D01*
X45925000Y-53575000D02*
X44550000Y-53575000D01*
X45925000Y-62450000D02*
X45925000Y-62335000D01*
X45925000Y-62450000D02*
X50075000Y-62450000D01*
X50075000Y-53550000D02*
X50075000Y-53665000D01*
X50075000Y-62450000D02*
X50075000Y-62335000D01*
X45925000Y-76550000D02*
X45925000Y-76575000D01*
X45925000Y-76550000D02*
X50075000Y-76550000D01*
X45925000Y-76575000D02*
X44550000Y-76575000D01*
X45925000Y-85450000D02*
X45925000Y-85335000D01*
X45925000Y-85450000D02*
X50075000Y-85450000D01*
X50075000Y-76550000D02*
X50075000Y-76665000D01*
X50075000Y-85450000D02*
X50075000Y-85335000D01*
D11*
X92000000Y-79480000D02*
X94000000Y-79480000D01*
X94000000Y-76520000D02*
X92000000Y-76520000D01*
X69750000Y-83000000D02*
X69750000Y-85000000D01*
X69750000Y-83000000D02*
X73650000Y-83000000D01*
X69750000Y-85000000D02*
X73650000Y-85000000D01*
X69750000Y-78000000D02*
X69750000Y-80000000D01*
X69750000Y-78000000D02*
X73650000Y-78000000D01*
X69750000Y-80000000D02*
X73650000Y-80000000D01*
X69750000Y-88000000D02*
X69750000Y-90000000D01*
X69750000Y-88000000D02*
X73650000Y-88000000D01*
X69750000Y-90000000D02*
X73650000Y-90000000D01*
X69750000Y-93000000D02*
X69750000Y-95000000D01*
X69750000Y-93000000D02*
X73650000Y-93000000D01*
X69750000Y-95000000D02*
X73650000Y-95000000D01*
D10*
X45925000Y-12425000D02*
X45925000Y-12475000D01*
X45925000Y-12425000D02*
X50075000Y-12425000D01*
X45925000Y-12475000D02*
X44525000Y-12475000D01*
X45925000Y-17575000D02*
X45925000Y-17430000D01*
X45925000Y-17575000D02*
X50075000Y-17575000D01*
X50075000Y-12425000D02*
X50075000Y-12570000D01*
X50075000Y-17575000D02*
X50075000Y-17430000D01*
D11*
X72760000Y-61420000D02*
X70600000Y-61420000D01*
X72760000Y-61420000D02*
X72760000Y-62350000D01*
X72760000Y-64580000D02*
X71300000Y-64580000D01*
X72760000Y-64580000D02*
X72760000Y-63650000D01*
X53000000Y-20980000D02*
X55000000Y-20980000D01*
X55000000Y-18020000D02*
X53000000Y-18020000D01*
M02*
