G04 #@! TF.GenerationSoftware,KiCad,Pcbnew,(5.1.5)-3*
G04 #@! TF.CreationDate,2020-12-06T19:13:11-07:00*
G04 #@! TF.ProjectId,LFO,4c464f2e-6b69-4636-9164-5f7063625858,rev?*
G04 #@! TF.SameCoordinates,Original*
G04 #@! TF.FileFunction,Soldermask,Top*
G04 #@! TF.FilePolarity,Negative*
%FSLAX46Y46*%
G04 Gerber Fmt 4.6, Leading zero omitted, Abs format (unit mm)*
G04 Created by KiCad (PCBNEW (5.1.5)-3) date 2020-12-06 19:13:11*
%MOMM*%
%LPD*%
G04 APERTURE LIST*
%ADD10C,0.100000*%
G04 APERTURE END LIST*
D10*
G36*
X24653512Y-106883927D02*
G01*
X24802812Y-106913624D01*
X24966784Y-106981544D01*
X25114354Y-107080147D01*
X25239853Y-107205646D01*
X25338456Y-107353216D01*
X25406376Y-107517188D01*
X25441000Y-107691259D01*
X25441000Y-107868741D01*
X25406376Y-108042812D01*
X25338456Y-108206784D01*
X25239853Y-108354354D01*
X25114354Y-108479853D01*
X24966784Y-108578456D01*
X24802812Y-108646376D01*
X24653512Y-108676073D01*
X24628742Y-108681000D01*
X24451258Y-108681000D01*
X24426488Y-108676073D01*
X24277188Y-108646376D01*
X24113216Y-108578456D01*
X23965646Y-108479853D01*
X23840147Y-108354354D01*
X23741544Y-108206784D01*
X23673624Y-108042812D01*
X23639000Y-107868741D01*
X23639000Y-107691259D01*
X23673624Y-107517188D01*
X23741544Y-107353216D01*
X23840147Y-107205646D01*
X23965646Y-107080147D01*
X24113216Y-106981544D01*
X24277188Y-106913624D01*
X24426488Y-106883927D01*
X24451258Y-106879000D01*
X24628742Y-106879000D01*
X24653512Y-106883927D01*
G37*
G36*
X22113512Y-106883927D02*
G01*
X22262812Y-106913624D01*
X22426784Y-106981544D01*
X22574354Y-107080147D01*
X22699853Y-107205646D01*
X22798456Y-107353216D01*
X22866376Y-107517188D01*
X22901000Y-107691259D01*
X22901000Y-107868741D01*
X22866376Y-108042812D01*
X22798456Y-108206784D01*
X22699853Y-108354354D01*
X22574354Y-108479853D01*
X22426784Y-108578456D01*
X22262812Y-108646376D01*
X22113512Y-108676073D01*
X22088742Y-108681000D01*
X21911258Y-108681000D01*
X21886488Y-108676073D01*
X21737188Y-108646376D01*
X21573216Y-108578456D01*
X21425646Y-108479853D01*
X21300147Y-108354354D01*
X21201544Y-108206784D01*
X21133624Y-108042812D01*
X21099000Y-107868741D01*
X21099000Y-107691259D01*
X21133624Y-107517188D01*
X21201544Y-107353216D01*
X21300147Y-107205646D01*
X21425646Y-107080147D01*
X21573216Y-106981544D01*
X21737188Y-106913624D01*
X21886488Y-106883927D01*
X21911258Y-106879000D01*
X22088742Y-106879000D01*
X22113512Y-106883927D01*
G37*
G36*
X47051000Y-107301000D02*
G01*
X44949000Y-107301000D01*
X44949000Y-104699000D01*
X47051000Y-104699000D01*
X47051000Y-107301000D01*
G37*
G36*
X51051000Y-107301000D02*
G01*
X48949000Y-107301000D01*
X48949000Y-104699000D01*
X51051000Y-104699000D01*
X51051000Y-107301000D01*
G37*
G36*
X13551000Y-107151000D02*
G01*
X12449000Y-107151000D01*
X12449000Y-104849000D01*
X13551000Y-104849000D01*
X13551000Y-107151000D01*
G37*
G36*
X6551000Y-107051000D02*
G01*
X4249000Y-107051000D01*
X4249000Y-105949000D01*
X6551000Y-105949000D01*
X6551000Y-107051000D01*
G37*
G36*
X24653512Y-104343927D02*
G01*
X24802812Y-104373624D01*
X24966784Y-104441544D01*
X25114354Y-104540147D01*
X25239853Y-104665646D01*
X25338456Y-104813216D01*
X25406376Y-104977188D01*
X25441000Y-105151259D01*
X25441000Y-105328741D01*
X25406376Y-105502812D01*
X25338456Y-105666784D01*
X25239853Y-105814354D01*
X25114354Y-105939853D01*
X24966784Y-106038456D01*
X24802812Y-106106376D01*
X24653512Y-106136073D01*
X24628742Y-106141000D01*
X24451258Y-106141000D01*
X24426488Y-106136073D01*
X24277188Y-106106376D01*
X24113216Y-106038456D01*
X23965646Y-105939853D01*
X23840147Y-105814354D01*
X23741544Y-105666784D01*
X23673624Y-105502812D01*
X23639000Y-105328741D01*
X23639000Y-105151259D01*
X23673624Y-104977188D01*
X23741544Y-104813216D01*
X23840147Y-104665646D01*
X23965646Y-104540147D01*
X24113216Y-104441544D01*
X24277188Y-104373624D01*
X24426488Y-104343927D01*
X24451258Y-104339000D01*
X24628742Y-104339000D01*
X24653512Y-104343927D01*
G37*
G36*
X22113512Y-104343927D02*
G01*
X22262812Y-104373624D01*
X22426784Y-104441544D01*
X22574354Y-104540147D01*
X22699853Y-104665646D01*
X22798456Y-104813216D01*
X22866376Y-104977188D01*
X22901000Y-105151259D01*
X22901000Y-105328741D01*
X22866376Y-105502812D01*
X22798456Y-105666784D01*
X22699853Y-105814354D01*
X22574354Y-105939853D01*
X22426784Y-106038456D01*
X22262812Y-106106376D01*
X22113512Y-106136073D01*
X22088742Y-106141000D01*
X21911258Y-106141000D01*
X21886488Y-106136073D01*
X21737188Y-106106376D01*
X21573216Y-106038456D01*
X21425646Y-105939853D01*
X21300147Y-105814354D01*
X21201544Y-105666784D01*
X21133624Y-105502812D01*
X21099000Y-105328741D01*
X21099000Y-105151259D01*
X21133624Y-104977188D01*
X21201544Y-104813216D01*
X21300147Y-104665646D01*
X21425646Y-104540147D01*
X21573216Y-104441544D01*
X21737188Y-104373624D01*
X21886488Y-104343927D01*
X21911258Y-104339000D01*
X22088742Y-104339000D01*
X22113512Y-104343927D01*
G37*
G36*
X72051000Y-105301000D02*
G01*
X69949000Y-105301000D01*
X69949000Y-103599000D01*
X72051000Y-103599000D01*
X72051000Y-105301000D01*
G37*
G36*
X91301000Y-105051000D02*
G01*
X88699000Y-105051000D01*
X88699000Y-102949000D01*
X91301000Y-102949000D01*
X91301000Y-105051000D01*
G37*
G36*
X30851000Y-103751000D02*
G01*
X29149000Y-103751000D01*
X29149000Y-100649000D01*
X30851000Y-100649000D01*
X30851000Y-103751000D01*
G37*
G36*
X22113512Y-101803927D02*
G01*
X22262812Y-101833624D01*
X22426784Y-101901544D01*
X22574354Y-102000147D01*
X22699853Y-102125646D01*
X22798456Y-102273216D01*
X22866376Y-102437188D01*
X22901000Y-102611259D01*
X22901000Y-102788741D01*
X22866376Y-102962812D01*
X22798456Y-103126784D01*
X22699853Y-103274354D01*
X22574354Y-103399853D01*
X22426784Y-103498456D01*
X22262812Y-103566376D01*
X22113512Y-103596073D01*
X22088742Y-103601000D01*
X21911258Y-103601000D01*
X21886488Y-103596073D01*
X21737188Y-103566376D01*
X21573216Y-103498456D01*
X21425646Y-103399853D01*
X21300147Y-103274354D01*
X21201544Y-103126784D01*
X21133624Y-102962812D01*
X21099000Y-102788741D01*
X21099000Y-102611259D01*
X21133624Y-102437188D01*
X21201544Y-102273216D01*
X21300147Y-102125646D01*
X21425646Y-102000147D01*
X21573216Y-101901544D01*
X21737188Y-101833624D01*
X21886488Y-101803927D01*
X21911258Y-101799000D01*
X22088742Y-101799000D01*
X22113512Y-101803927D01*
G37*
G36*
X24653512Y-101803927D02*
G01*
X24802812Y-101833624D01*
X24966784Y-101901544D01*
X25114354Y-102000147D01*
X25239853Y-102125646D01*
X25338456Y-102273216D01*
X25406376Y-102437188D01*
X25441000Y-102611259D01*
X25441000Y-102788741D01*
X25406376Y-102962812D01*
X25338456Y-103126784D01*
X25239853Y-103274354D01*
X25114354Y-103399853D01*
X24966784Y-103498456D01*
X24802812Y-103566376D01*
X24653512Y-103596073D01*
X24628742Y-103601000D01*
X24451258Y-103601000D01*
X24426488Y-103596073D01*
X24277188Y-103566376D01*
X24113216Y-103498456D01*
X23965646Y-103399853D01*
X23840147Y-103274354D01*
X23741544Y-103126784D01*
X23673624Y-102962812D01*
X23639000Y-102788741D01*
X23639000Y-102611259D01*
X23673624Y-102437188D01*
X23741544Y-102273216D01*
X23840147Y-102125646D01*
X23965646Y-102000147D01*
X24113216Y-101901544D01*
X24277188Y-101833624D01*
X24426488Y-101803927D01*
X24451258Y-101799000D01*
X24628742Y-101799000D01*
X24653512Y-101803927D01*
G37*
G36*
X2551000Y-103151000D02*
G01*
X1449000Y-103151000D01*
X1449000Y-100849000D01*
X2551000Y-100849000D01*
X2551000Y-103151000D01*
G37*
G36*
X98951000Y-102951000D02*
G01*
X97049000Y-102951000D01*
X97049000Y-101049000D01*
X98951000Y-101049000D01*
X98951000Y-102951000D01*
G37*
G36*
X95737395Y-101085546D02*
G01*
X95910466Y-101157234D01*
X95910467Y-101157235D01*
X96066227Y-101261310D01*
X96198690Y-101393773D01*
X96198691Y-101393775D01*
X96302766Y-101549534D01*
X96374454Y-101722605D01*
X96411000Y-101906333D01*
X96411000Y-102093667D01*
X96374454Y-102277395D01*
X96302766Y-102450466D01*
X96302765Y-102450467D01*
X96198690Y-102606227D01*
X96066227Y-102738690D01*
X95991320Y-102788741D01*
X95910466Y-102842766D01*
X95737395Y-102914454D01*
X95553667Y-102951000D01*
X95366333Y-102951000D01*
X95182605Y-102914454D01*
X95009534Y-102842766D01*
X94928680Y-102788741D01*
X94853773Y-102738690D01*
X94721310Y-102606227D01*
X94617235Y-102450467D01*
X94617234Y-102450466D01*
X94545546Y-102277395D01*
X94509000Y-102093667D01*
X94509000Y-101906333D01*
X94545546Y-101722605D01*
X94617234Y-101549534D01*
X94721309Y-101393775D01*
X94721310Y-101393773D01*
X94853773Y-101261310D01*
X95009533Y-101157235D01*
X95009534Y-101157234D01*
X95182605Y-101085546D01*
X95366333Y-101049000D01*
X95553667Y-101049000D01*
X95737395Y-101085546D01*
G37*
G36*
X72951000Y-102401000D02*
G01*
X71549000Y-102401000D01*
X71549000Y-100699000D01*
X72951000Y-100699000D01*
X72951000Y-102401000D01*
G37*
G36*
X70451000Y-102401000D02*
G01*
X69049000Y-102401000D01*
X69049000Y-100699000D01*
X70451000Y-100699000D01*
X70451000Y-102401000D01*
G37*
G36*
X47451000Y-101301000D02*
G01*
X46049000Y-101301000D01*
X46049000Y-99599000D01*
X47451000Y-99599000D01*
X47451000Y-101301000D01*
G37*
G36*
X49951000Y-101301000D02*
G01*
X48549000Y-101301000D01*
X48549000Y-99599000D01*
X49951000Y-99599000D01*
X49951000Y-101301000D01*
G37*
G36*
X24653512Y-99263927D02*
G01*
X24802812Y-99293624D01*
X24966784Y-99361544D01*
X25114354Y-99460147D01*
X25239853Y-99585646D01*
X25338456Y-99733216D01*
X25406376Y-99897188D01*
X25441000Y-100071259D01*
X25441000Y-100248741D01*
X25406376Y-100422812D01*
X25338456Y-100586784D01*
X25239853Y-100734354D01*
X25114354Y-100859853D01*
X24966784Y-100958456D01*
X24802812Y-101026376D01*
X24653512Y-101056073D01*
X24628742Y-101061000D01*
X24451258Y-101061000D01*
X24426488Y-101056073D01*
X24277188Y-101026376D01*
X24113216Y-100958456D01*
X23965646Y-100859853D01*
X23840147Y-100734354D01*
X23741544Y-100586784D01*
X23673624Y-100422812D01*
X23639000Y-100248741D01*
X23639000Y-100071259D01*
X23673624Y-99897188D01*
X23741544Y-99733216D01*
X23840147Y-99585646D01*
X23965646Y-99460147D01*
X24113216Y-99361544D01*
X24277188Y-99293624D01*
X24426488Y-99263927D01*
X24451258Y-99259000D01*
X24628742Y-99259000D01*
X24653512Y-99263927D01*
G37*
G36*
X22113512Y-99263927D02*
G01*
X22262812Y-99293624D01*
X22426784Y-99361544D01*
X22574354Y-99460147D01*
X22699853Y-99585646D01*
X22798456Y-99733216D01*
X22866376Y-99897188D01*
X22901000Y-100071259D01*
X22901000Y-100248741D01*
X22866376Y-100422812D01*
X22798456Y-100586784D01*
X22699853Y-100734354D01*
X22574354Y-100859853D01*
X22426784Y-100958456D01*
X22262812Y-101026376D01*
X22113512Y-101056073D01*
X22088742Y-101061000D01*
X21911258Y-101061000D01*
X21886488Y-101056073D01*
X21737188Y-101026376D01*
X21573216Y-100958456D01*
X21425646Y-100859853D01*
X21300147Y-100734354D01*
X21201544Y-100586784D01*
X21133624Y-100422812D01*
X21099000Y-100248741D01*
X21099000Y-100071259D01*
X21133624Y-99897188D01*
X21201544Y-99733216D01*
X21300147Y-99585646D01*
X21425646Y-99460147D01*
X21573216Y-99361544D01*
X21737188Y-99293624D01*
X21886488Y-99263927D01*
X21911258Y-99259000D01*
X22088742Y-99259000D01*
X22113512Y-99263927D01*
G37*
G36*
X91301000Y-101051000D02*
G01*
X88699000Y-101051000D01*
X88699000Y-98949000D01*
X91301000Y-98949000D01*
X91301000Y-101051000D01*
G37*
G36*
X61051000Y-100301000D02*
G01*
X58949000Y-100301000D01*
X58949000Y-97699000D01*
X61051000Y-97699000D01*
X61051000Y-100301000D01*
G37*
G36*
X65051000Y-100301000D02*
G01*
X62949000Y-100301000D01*
X62949000Y-97699000D01*
X65051000Y-97699000D01*
X65051000Y-100301000D01*
G37*
G36*
X9551000Y-100051000D02*
G01*
X7249000Y-100051000D01*
X7249000Y-98949000D01*
X9551000Y-98949000D01*
X9551000Y-100051000D01*
G37*
G36*
X30851000Y-99351000D02*
G01*
X29149000Y-99351000D01*
X29149000Y-96249000D01*
X30851000Y-96249000D01*
X30851000Y-99351000D01*
G37*
G36*
X24653512Y-96723927D02*
G01*
X24802812Y-96753624D01*
X24966784Y-96821544D01*
X25114354Y-96920147D01*
X25239853Y-97045646D01*
X25338456Y-97193216D01*
X25406376Y-97357188D01*
X25441000Y-97531259D01*
X25441000Y-97708741D01*
X25406376Y-97882812D01*
X25338456Y-98046784D01*
X25239853Y-98194354D01*
X25114354Y-98319853D01*
X24966784Y-98418456D01*
X24802812Y-98486376D01*
X24653512Y-98516073D01*
X24628742Y-98521000D01*
X24451258Y-98521000D01*
X24426488Y-98516073D01*
X24277188Y-98486376D01*
X24113216Y-98418456D01*
X23965646Y-98319853D01*
X23840147Y-98194354D01*
X23741544Y-98046784D01*
X23673624Y-97882812D01*
X23639000Y-97708741D01*
X23639000Y-97531259D01*
X23673624Y-97357188D01*
X23741544Y-97193216D01*
X23840147Y-97045646D01*
X23965646Y-96920147D01*
X24113216Y-96821544D01*
X24277188Y-96753624D01*
X24426488Y-96723927D01*
X24451258Y-96719000D01*
X24628742Y-96719000D01*
X24653512Y-96723927D01*
G37*
G36*
X22113512Y-96723927D02*
G01*
X22262812Y-96753624D01*
X22426784Y-96821544D01*
X22574354Y-96920147D01*
X22699853Y-97045646D01*
X22798456Y-97193216D01*
X22866376Y-97357188D01*
X22901000Y-97531259D01*
X22901000Y-97708741D01*
X22866376Y-97882812D01*
X22798456Y-98046784D01*
X22699853Y-98194354D01*
X22574354Y-98319853D01*
X22426784Y-98418456D01*
X22262812Y-98486376D01*
X22113512Y-98516073D01*
X22088742Y-98521000D01*
X21911258Y-98521000D01*
X21886488Y-98516073D01*
X21737188Y-98486376D01*
X21573216Y-98418456D01*
X21425646Y-98319853D01*
X21300147Y-98194354D01*
X21201544Y-98046784D01*
X21133624Y-97882812D01*
X21099000Y-97708741D01*
X21099000Y-97531259D01*
X21133624Y-97357188D01*
X21201544Y-97193216D01*
X21300147Y-97045646D01*
X21425646Y-96920147D01*
X21573216Y-96821544D01*
X21737188Y-96753624D01*
X21886488Y-96723927D01*
X21911258Y-96719000D01*
X22088742Y-96719000D01*
X22113512Y-96723927D01*
G37*
G36*
X49051000Y-98401000D02*
G01*
X46949000Y-98401000D01*
X46949000Y-96699000D01*
X49051000Y-96699000D01*
X49051000Y-98401000D01*
G37*
G36*
X10951000Y-97351000D02*
G01*
X8649000Y-97351000D01*
X8649000Y-96249000D01*
X10951000Y-96249000D01*
X10951000Y-97351000D01*
G37*
G36*
X24653512Y-94183927D02*
G01*
X24802812Y-94213624D01*
X24966784Y-94281544D01*
X25114354Y-94380147D01*
X25239853Y-94505646D01*
X25338456Y-94653216D01*
X25406376Y-94817188D01*
X25441000Y-94991259D01*
X25441000Y-95168741D01*
X25406376Y-95342812D01*
X25338456Y-95506784D01*
X25239853Y-95654354D01*
X25114354Y-95779853D01*
X24966784Y-95878456D01*
X24802812Y-95946376D01*
X24653512Y-95976073D01*
X24628742Y-95981000D01*
X24451258Y-95981000D01*
X24426488Y-95976073D01*
X24277188Y-95946376D01*
X24113216Y-95878456D01*
X23965646Y-95779853D01*
X23840147Y-95654354D01*
X23741544Y-95506784D01*
X23673624Y-95342812D01*
X23639000Y-95168741D01*
X23639000Y-94991259D01*
X23673624Y-94817188D01*
X23741544Y-94653216D01*
X23840147Y-94505646D01*
X23965646Y-94380147D01*
X24113216Y-94281544D01*
X24277188Y-94213624D01*
X24426488Y-94183927D01*
X24451258Y-94179000D01*
X24628742Y-94179000D01*
X24653512Y-94183927D01*
G37*
G36*
X22113512Y-94183927D02*
G01*
X22262812Y-94213624D01*
X22426784Y-94281544D01*
X22574354Y-94380147D01*
X22699853Y-94505646D01*
X22798456Y-94653216D01*
X22866376Y-94817188D01*
X22901000Y-94991259D01*
X22901000Y-95168741D01*
X22866376Y-95342812D01*
X22798456Y-95506784D01*
X22699853Y-95654354D01*
X22574354Y-95779853D01*
X22426784Y-95878456D01*
X22262812Y-95946376D01*
X22113512Y-95976073D01*
X22088742Y-95981000D01*
X21911258Y-95981000D01*
X21886488Y-95976073D01*
X21737188Y-95946376D01*
X21573216Y-95878456D01*
X21425646Y-95779853D01*
X21300147Y-95654354D01*
X21201544Y-95506784D01*
X21133624Y-95342812D01*
X21099000Y-95168741D01*
X21099000Y-94991259D01*
X21133624Y-94817188D01*
X21201544Y-94653216D01*
X21300147Y-94505646D01*
X21425646Y-94380147D01*
X21573216Y-94281544D01*
X21737188Y-94213624D01*
X21886488Y-94183927D01*
X21911258Y-94179000D01*
X22088742Y-94179000D01*
X22113512Y-94183927D01*
G37*
G36*
X30851000Y-95751000D02*
G01*
X29149000Y-95751000D01*
X29149000Y-92649000D01*
X30851000Y-92649000D01*
X30851000Y-95751000D01*
G37*
G36*
X65051000Y-95301000D02*
G01*
X62949000Y-95301000D01*
X62949000Y-92699000D01*
X65051000Y-92699000D01*
X65051000Y-95301000D01*
G37*
G36*
X61051000Y-95301000D02*
G01*
X58949000Y-95301000D01*
X58949000Y-92699000D01*
X61051000Y-92699000D01*
X61051000Y-95301000D01*
G37*
G36*
X74151000Y-94651000D02*
G01*
X73149000Y-94651000D01*
X73149000Y-93349000D01*
X74151000Y-93349000D01*
X74151000Y-94651000D01*
G37*
G36*
X70851000Y-94651000D02*
G01*
X69849000Y-94651000D01*
X69849000Y-93349000D01*
X70851000Y-93349000D01*
X70851000Y-94651000D01*
G37*
G36*
X91351000Y-93751000D02*
G01*
X89049000Y-93751000D01*
X89049000Y-92649000D01*
X91351000Y-92649000D01*
X91351000Y-93751000D01*
G37*
G36*
X22113512Y-91643927D02*
G01*
X22262812Y-91673624D01*
X22426784Y-91741544D01*
X22574354Y-91840147D01*
X22699853Y-91965646D01*
X22798456Y-92113216D01*
X22866376Y-92277188D01*
X22901000Y-92451259D01*
X22901000Y-92628741D01*
X22866376Y-92802812D01*
X22798456Y-92966784D01*
X22699853Y-93114354D01*
X22574354Y-93239853D01*
X22426784Y-93338456D01*
X22262812Y-93406376D01*
X22113512Y-93436073D01*
X22088742Y-93441000D01*
X21911258Y-93441000D01*
X21886488Y-93436073D01*
X21737188Y-93406376D01*
X21573216Y-93338456D01*
X21425646Y-93239853D01*
X21300147Y-93114354D01*
X21201544Y-92966784D01*
X21133624Y-92802812D01*
X21099000Y-92628741D01*
X21099000Y-92451259D01*
X21133624Y-92277188D01*
X21201544Y-92113216D01*
X21300147Y-91965646D01*
X21425646Y-91840147D01*
X21573216Y-91741544D01*
X21737188Y-91673624D01*
X21886488Y-91643927D01*
X21911258Y-91639000D01*
X22088742Y-91639000D01*
X22113512Y-91643927D01*
G37*
G36*
X24653512Y-91643927D02*
G01*
X24802812Y-91673624D01*
X24966784Y-91741544D01*
X25114354Y-91840147D01*
X25239853Y-91965646D01*
X25338456Y-92113216D01*
X25406376Y-92277188D01*
X25441000Y-92451259D01*
X25441000Y-92628741D01*
X25406376Y-92802812D01*
X25338456Y-92966784D01*
X25239853Y-93114354D01*
X25114354Y-93239853D01*
X24966784Y-93338456D01*
X24802812Y-93406376D01*
X24653512Y-93436073D01*
X24628742Y-93441000D01*
X24451258Y-93441000D01*
X24426488Y-93436073D01*
X24277188Y-93406376D01*
X24113216Y-93338456D01*
X23965646Y-93239853D01*
X23840147Y-93114354D01*
X23741544Y-92966784D01*
X23673624Y-92802812D01*
X23639000Y-92628741D01*
X23639000Y-92451259D01*
X23673624Y-92277188D01*
X23741544Y-92113216D01*
X23840147Y-91965646D01*
X23965646Y-91840147D01*
X24113216Y-91741544D01*
X24277188Y-91673624D01*
X24426488Y-91643927D01*
X24451258Y-91639000D01*
X24628742Y-91639000D01*
X24653512Y-91643927D01*
G37*
G36*
X47451000Y-93301000D02*
G01*
X46049000Y-93301000D01*
X46049000Y-91599000D01*
X47451000Y-91599000D01*
X47451000Y-93301000D01*
G37*
G36*
X49951000Y-93301000D02*
G01*
X48549000Y-93301000D01*
X48549000Y-91599000D01*
X49951000Y-91599000D01*
X49951000Y-93301000D01*
G37*
G36*
X13551000Y-92151000D02*
G01*
X12449000Y-92151000D01*
X12449000Y-89849000D01*
X13551000Y-89849000D01*
X13551000Y-92151000D01*
G37*
G36*
X6551000Y-92051000D02*
G01*
X4249000Y-92051000D01*
X4249000Y-90949000D01*
X6551000Y-90949000D01*
X6551000Y-92051000D01*
G37*
G36*
X30851000Y-91351000D02*
G01*
X29149000Y-91351000D01*
X29149000Y-88249000D01*
X30851000Y-88249000D01*
X30851000Y-91351000D01*
G37*
G36*
X92751000Y-91051000D02*
G01*
X90449000Y-91051000D01*
X90449000Y-89949000D01*
X92751000Y-89949000D01*
X92751000Y-91051000D01*
G37*
G36*
X24653512Y-89103927D02*
G01*
X24802812Y-89133624D01*
X24966784Y-89201544D01*
X25114354Y-89300147D01*
X25239853Y-89425646D01*
X25338456Y-89573216D01*
X25406376Y-89737188D01*
X25441000Y-89911259D01*
X25441000Y-90088741D01*
X25406376Y-90262812D01*
X25338456Y-90426784D01*
X25239853Y-90574354D01*
X25114354Y-90699853D01*
X24966784Y-90798456D01*
X24802812Y-90866376D01*
X24653512Y-90896073D01*
X24628742Y-90901000D01*
X24451258Y-90901000D01*
X24426488Y-90896073D01*
X24277188Y-90866376D01*
X24113216Y-90798456D01*
X23965646Y-90699853D01*
X23840147Y-90574354D01*
X23741544Y-90426784D01*
X23673624Y-90262812D01*
X23639000Y-90088741D01*
X23639000Y-89911259D01*
X23673624Y-89737188D01*
X23741544Y-89573216D01*
X23840147Y-89425646D01*
X23965646Y-89300147D01*
X24113216Y-89201544D01*
X24277188Y-89133624D01*
X24426488Y-89103927D01*
X24451258Y-89099000D01*
X24628742Y-89099000D01*
X24653512Y-89103927D01*
G37*
G36*
X22901000Y-90901000D02*
G01*
X21099000Y-90901000D01*
X21099000Y-89099000D01*
X22901000Y-89099000D01*
X22901000Y-90901000D01*
G37*
G36*
X49051000Y-90401000D02*
G01*
X46949000Y-90401000D01*
X46949000Y-88699000D01*
X49051000Y-88699000D01*
X49051000Y-90401000D01*
G37*
G36*
X61051000Y-90301000D02*
G01*
X58949000Y-90301000D01*
X58949000Y-87699000D01*
X61051000Y-87699000D01*
X61051000Y-90301000D01*
G37*
G36*
X65051000Y-90301000D02*
G01*
X62949000Y-90301000D01*
X62949000Y-87699000D01*
X65051000Y-87699000D01*
X65051000Y-90301000D01*
G37*
G36*
X70851000Y-89651000D02*
G01*
X69849000Y-89651000D01*
X69849000Y-88349000D01*
X70851000Y-88349000D01*
X70851000Y-89651000D01*
G37*
G36*
X74151000Y-89651000D02*
G01*
X73149000Y-89651000D01*
X73149000Y-88349000D01*
X74151000Y-88349000D01*
X74151000Y-89651000D01*
G37*
G36*
X98551000Y-89151000D02*
G01*
X97449000Y-89151000D01*
X97449000Y-86849000D01*
X98551000Y-86849000D01*
X98551000Y-89151000D01*
G37*
G36*
X2551000Y-88151000D02*
G01*
X1449000Y-88151000D01*
X1449000Y-85849000D01*
X2551000Y-85849000D01*
X2551000Y-88151000D01*
G37*
G36*
X33051000Y-85301000D02*
G01*
X30949000Y-85301000D01*
X30949000Y-82699000D01*
X33051000Y-82699000D01*
X33051000Y-85301000D01*
G37*
G36*
X61051000Y-85301000D02*
G01*
X58949000Y-85301000D01*
X58949000Y-82699000D01*
X61051000Y-82699000D01*
X61051000Y-85301000D01*
G37*
G36*
X65051000Y-85301000D02*
G01*
X62949000Y-85301000D01*
X62949000Y-82699000D01*
X65051000Y-82699000D01*
X65051000Y-85301000D01*
G37*
G36*
X37051000Y-85301000D02*
G01*
X34949000Y-85301000D01*
X34949000Y-82699000D01*
X37051000Y-82699000D01*
X37051000Y-85301000D01*
G37*
G36*
X46101000Y-85161000D02*
G01*
X44499000Y-85161000D01*
X44499000Y-84459000D01*
X46101000Y-84459000D01*
X46101000Y-85161000D01*
G37*
G36*
X51501000Y-85161000D02*
G01*
X49899000Y-85161000D01*
X49899000Y-84459000D01*
X51501000Y-84459000D01*
X51501000Y-85161000D01*
G37*
G36*
X87551000Y-85151000D02*
G01*
X86449000Y-85151000D01*
X86449000Y-82849000D01*
X87551000Y-82849000D01*
X87551000Y-85151000D01*
G37*
G36*
X9551000Y-85051000D02*
G01*
X7249000Y-85051000D01*
X7249000Y-83949000D01*
X9551000Y-83949000D01*
X9551000Y-85051000D01*
G37*
G36*
X74151000Y-84651000D02*
G01*
X73149000Y-84651000D01*
X73149000Y-83349000D01*
X74151000Y-83349000D01*
X74151000Y-84651000D01*
G37*
G36*
X70851000Y-84651000D02*
G01*
X69849000Y-84651000D01*
X69849000Y-83349000D01*
X70851000Y-83349000D01*
X70851000Y-84651000D01*
G37*
G36*
X95751000Y-84051000D02*
G01*
X93449000Y-84051000D01*
X93449000Y-82949000D01*
X95751000Y-82949000D01*
X95751000Y-84051000D01*
G37*
G36*
X51501000Y-83891000D02*
G01*
X49899000Y-83891000D01*
X49899000Y-83189000D01*
X51501000Y-83189000D01*
X51501000Y-83891000D01*
G37*
G36*
X46101000Y-83891000D02*
G01*
X44499000Y-83891000D01*
X44499000Y-83189000D01*
X46101000Y-83189000D01*
X46101000Y-83891000D01*
G37*
G36*
X51501000Y-82621000D02*
G01*
X49899000Y-82621000D01*
X49899000Y-81919000D01*
X51501000Y-81919000D01*
X51501000Y-82621000D01*
G37*
G36*
X46101000Y-82621000D02*
G01*
X44499000Y-82621000D01*
X44499000Y-81919000D01*
X46101000Y-81919000D01*
X46101000Y-82621000D01*
G37*
G36*
X10951000Y-82351000D02*
G01*
X8649000Y-82351000D01*
X8649000Y-81249000D01*
X10951000Y-81249000D01*
X10951000Y-82351000D01*
G37*
G36*
X46101000Y-81351000D02*
G01*
X44499000Y-81351000D01*
X44499000Y-80649000D01*
X46101000Y-80649000D01*
X46101000Y-81351000D01*
G37*
G36*
X51501000Y-81351000D02*
G01*
X49899000Y-81351000D01*
X49899000Y-80649000D01*
X51501000Y-80649000D01*
X51501000Y-81351000D01*
G37*
G36*
X33051000Y-80301000D02*
G01*
X30949000Y-80301000D01*
X30949000Y-77699000D01*
X33051000Y-77699000D01*
X33051000Y-80301000D01*
G37*
G36*
X61051000Y-80301000D02*
G01*
X58949000Y-80301000D01*
X58949000Y-77699000D01*
X61051000Y-77699000D01*
X61051000Y-80301000D01*
G37*
G36*
X65051000Y-80301000D02*
G01*
X62949000Y-80301000D01*
X62949000Y-77699000D01*
X65051000Y-77699000D01*
X65051000Y-80301000D01*
G37*
G36*
X37051000Y-80301000D02*
G01*
X34949000Y-80301000D01*
X34949000Y-77699000D01*
X37051000Y-77699000D01*
X37051000Y-80301000D01*
G37*
G36*
X46101000Y-80081000D02*
G01*
X44499000Y-80081000D01*
X44499000Y-79379000D01*
X46101000Y-79379000D01*
X46101000Y-80081000D01*
G37*
G36*
X51501000Y-80081000D02*
G01*
X49899000Y-80081000D01*
X49899000Y-79379000D01*
X51501000Y-79379000D01*
X51501000Y-80081000D01*
G37*
G36*
X70851000Y-79651000D02*
G01*
X69849000Y-79651000D01*
X69849000Y-78349000D01*
X70851000Y-78349000D01*
X70851000Y-79651000D01*
G37*
G36*
X74151000Y-79651000D02*
G01*
X73149000Y-79651000D01*
X73149000Y-78349000D01*
X74151000Y-78349000D01*
X74151000Y-79651000D01*
G37*
G36*
X96051000Y-79301000D02*
G01*
X93949000Y-79301000D01*
X93949000Y-76699000D01*
X96051000Y-76699000D01*
X96051000Y-79301000D01*
G37*
G36*
X92051000Y-79301000D02*
G01*
X89949000Y-79301000D01*
X89949000Y-76699000D01*
X92051000Y-76699000D01*
X92051000Y-79301000D01*
G37*
G36*
X46101000Y-78811000D02*
G01*
X44499000Y-78811000D01*
X44499000Y-78109000D01*
X46101000Y-78109000D01*
X46101000Y-78811000D01*
G37*
G36*
X51501000Y-78811000D02*
G01*
X49899000Y-78811000D01*
X49899000Y-78109000D01*
X51501000Y-78109000D01*
X51501000Y-78811000D01*
G37*
G36*
X46101000Y-77541000D02*
G01*
X44499000Y-77541000D01*
X44499000Y-76839000D01*
X46101000Y-76839000D01*
X46101000Y-77541000D01*
G37*
G36*
X51501000Y-77541000D02*
G01*
X49899000Y-77541000D01*
X49899000Y-76839000D01*
X51501000Y-76839000D01*
X51501000Y-77541000D01*
G37*
G36*
X61051000Y-75301000D02*
G01*
X58949000Y-75301000D01*
X58949000Y-72699000D01*
X61051000Y-72699000D01*
X61051000Y-75301000D01*
G37*
G36*
X65051000Y-75301000D02*
G01*
X62949000Y-75301000D01*
X62949000Y-72699000D01*
X65051000Y-72699000D01*
X65051000Y-75301000D01*
G37*
G36*
X33051000Y-75301000D02*
G01*
X30949000Y-75301000D01*
X30949000Y-72699000D01*
X33051000Y-72699000D01*
X33051000Y-75301000D01*
G37*
G36*
X37051000Y-75301000D02*
G01*
X34949000Y-75301000D01*
X34949000Y-72699000D01*
X37051000Y-72699000D01*
X37051000Y-75301000D01*
G37*
G36*
X96047142Y-71758242D02*
G01*
X96195101Y-71819529D01*
X96328255Y-71908499D01*
X96441501Y-72021745D01*
X96530471Y-72154899D01*
X96591758Y-72302858D01*
X96623000Y-72459925D01*
X96623000Y-72620075D01*
X96591758Y-72777142D01*
X96530471Y-72925101D01*
X96441501Y-73058255D01*
X96328255Y-73171501D01*
X96195101Y-73260471D01*
X96047142Y-73321758D01*
X95890075Y-73353000D01*
X95729925Y-73353000D01*
X95572858Y-73321758D01*
X95424899Y-73260471D01*
X95291745Y-73171501D01*
X95178499Y-73058255D01*
X95089529Y-72925101D01*
X95028242Y-72777142D01*
X94997000Y-72620075D01*
X94997000Y-72459925D01*
X95028242Y-72302858D01*
X95089529Y-72154899D01*
X95178499Y-72021745D01*
X95291745Y-71908499D01*
X95424899Y-71819529D01*
X95572858Y-71758242D01*
X95729925Y-71727000D01*
X95890075Y-71727000D01*
X96047142Y-71758242D01*
G37*
G36*
X88427142Y-71758242D02*
G01*
X88575101Y-71819529D01*
X88708255Y-71908499D01*
X88821501Y-72021745D01*
X88910471Y-72154899D01*
X88971758Y-72302858D01*
X89003000Y-72459925D01*
X89003000Y-72620075D01*
X88971758Y-72777142D01*
X88910471Y-72925101D01*
X88821501Y-73058255D01*
X88708255Y-73171501D01*
X88575101Y-73260471D01*
X88427142Y-73321758D01*
X88270075Y-73353000D01*
X88109925Y-73353000D01*
X87952858Y-73321758D01*
X87804899Y-73260471D01*
X87671745Y-73171501D01*
X87558499Y-73058255D01*
X87469529Y-72925101D01*
X87408242Y-72777142D01*
X87377000Y-72620075D01*
X87377000Y-72459925D01*
X87408242Y-72302858D01*
X87469529Y-72154899D01*
X87558499Y-72021745D01*
X87671745Y-71908499D01*
X87804899Y-71819529D01*
X87952858Y-71758242D01*
X88109925Y-71727000D01*
X88270075Y-71727000D01*
X88427142Y-71758242D01*
G37*
G36*
X90967142Y-71758242D02*
G01*
X91115101Y-71819529D01*
X91248255Y-71908499D01*
X91361501Y-72021745D01*
X91450471Y-72154899D01*
X91511758Y-72302858D01*
X91543000Y-72459925D01*
X91543000Y-72620075D01*
X91511758Y-72777142D01*
X91450471Y-72925101D01*
X91361501Y-73058255D01*
X91248255Y-73171501D01*
X91115101Y-73260471D01*
X90967142Y-73321758D01*
X90810075Y-73353000D01*
X90649925Y-73353000D01*
X90492858Y-73321758D01*
X90344899Y-73260471D01*
X90211745Y-73171501D01*
X90098499Y-73058255D01*
X90009529Y-72925101D01*
X89948242Y-72777142D01*
X89917000Y-72620075D01*
X89917000Y-72459925D01*
X89948242Y-72302858D01*
X90009529Y-72154899D01*
X90098499Y-72021745D01*
X90211745Y-71908499D01*
X90344899Y-71819529D01*
X90492858Y-71758242D01*
X90649925Y-71727000D01*
X90810075Y-71727000D01*
X90967142Y-71758242D01*
G37*
G36*
X71501000Y-72401000D02*
G01*
X70499000Y-72401000D01*
X70499000Y-71499000D01*
X71501000Y-71499000D01*
X71501000Y-72401000D01*
G37*
G36*
X7334358Y-67209232D02*
G01*
X7485761Y-67239348D01*
X7913616Y-67416571D01*
X8298675Y-67673859D01*
X8626141Y-68001325D01*
X8745842Y-68180471D01*
X8883430Y-68386386D01*
X9060652Y-68814240D01*
X9151000Y-69268445D01*
X9151000Y-69731555D01*
X9144773Y-69762858D01*
X9060652Y-70185761D01*
X8883429Y-70613616D01*
X8626141Y-70998675D01*
X8298675Y-71326141D01*
X7913616Y-71583429D01*
X7485761Y-71760652D01*
X7334358Y-71790768D01*
X7031555Y-71851000D01*
X6568445Y-71851000D01*
X6265642Y-71790768D01*
X6114239Y-71760652D01*
X5686384Y-71583429D01*
X5301325Y-71326141D01*
X4973859Y-70998675D01*
X4716571Y-70613616D01*
X4539348Y-70185761D01*
X4455227Y-69762858D01*
X4449000Y-69731555D01*
X4449000Y-69268445D01*
X4539348Y-68814240D01*
X4716570Y-68386386D01*
X4854158Y-68180471D01*
X4973859Y-68001325D01*
X5301325Y-67673859D01*
X5686384Y-67416571D01*
X6114239Y-67239348D01*
X6265642Y-67209232D01*
X6568445Y-67149000D01*
X7031555Y-67149000D01*
X7334358Y-67209232D01*
G37*
G36*
X73501000Y-71451000D02*
G01*
X72499000Y-71451000D01*
X72499000Y-70549000D01*
X73501000Y-70549000D01*
X73501000Y-71451000D01*
G37*
G36*
X47101000Y-70851000D02*
G01*
X43499000Y-70851000D01*
X43499000Y-69149000D01*
X47101000Y-69149000D01*
X47101000Y-70851000D01*
G37*
G36*
X52501000Y-70851000D02*
G01*
X48899000Y-70851000D01*
X48899000Y-69149000D01*
X52501000Y-69149000D01*
X52501000Y-70851000D01*
G37*
G36*
X88427142Y-69218242D02*
G01*
X88575101Y-69279529D01*
X88708255Y-69368499D01*
X88821501Y-69481745D01*
X88910471Y-69614899D01*
X88971758Y-69762858D01*
X89003000Y-69919925D01*
X89003000Y-70080075D01*
X88971758Y-70237142D01*
X88910471Y-70385101D01*
X88821501Y-70518255D01*
X88708255Y-70631501D01*
X88575101Y-70720471D01*
X88427142Y-70781758D01*
X88270075Y-70813000D01*
X88109925Y-70813000D01*
X87952858Y-70781758D01*
X87804899Y-70720471D01*
X87671745Y-70631501D01*
X87558499Y-70518255D01*
X87469529Y-70385101D01*
X87408242Y-70237142D01*
X87377000Y-70080075D01*
X87377000Y-69919925D01*
X87408242Y-69762858D01*
X87469529Y-69614899D01*
X87558499Y-69481745D01*
X87671745Y-69368499D01*
X87804899Y-69279529D01*
X87952858Y-69218242D01*
X88109925Y-69187000D01*
X88270075Y-69187000D01*
X88427142Y-69218242D01*
G37*
G36*
X90967142Y-69218242D02*
G01*
X91115101Y-69279529D01*
X91248255Y-69368499D01*
X91361501Y-69481745D01*
X91450471Y-69614899D01*
X91511758Y-69762858D01*
X91543000Y-69919925D01*
X91543000Y-70080075D01*
X91511758Y-70237142D01*
X91450471Y-70385101D01*
X91361501Y-70518255D01*
X91248255Y-70631501D01*
X91115101Y-70720471D01*
X90967142Y-70781758D01*
X90810075Y-70813000D01*
X90649925Y-70813000D01*
X90492858Y-70781758D01*
X90344899Y-70720471D01*
X90211745Y-70631501D01*
X90098499Y-70518255D01*
X90009529Y-70385101D01*
X89948242Y-70237142D01*
X89917000Y-70080075D01*
X89917000Y-69919925D01*
X89948242Y-69762858D01*
X90009529Y-69614899D01*
X90098499Y-69481745D01*
X90211745Y-69368499D01*
X90344899Y-69279529D01*
X90492858Y-69218242D01*
X90649925Y-69187000D01*
X90810075Y-69187000D01*
X90967142Y-69218242D01*
G37*
G36*
X71501000Y-70501000D02*
G01*
X70499000Y-70501000D01*
X70499000Y-69599000D01*
X71501000Y-69599000D01*
X71501000Y-70501000D01*
G37*
G36*
X65051000Y-70301000D02*
G01*
X62949000Y-70301000D01*
X62949000Y-67699000D01*
X65051000Y-67699000D01*
X65051000Y-70301000D01*
G37*
G36*
X61051000Y-70301000D02*
G01*
X58949000Y-70301000D01*
X58949000Y-67699000D01*
X61051000Y-67699000D01*
X61051000Y-70301000D01*
G37*
G36*
X37051000Y-70301000D02*
G01*
X34949000Y-70301000D01*
X34949000Y-67699000D01*
X37051000Y-67699000D01*
X37051000Y-70301000D01*
G37*
G36*
X33051000Y-70301000D02*
G01*
X30949000Y-70301000D01*
X30949000Y-67699000D01*
X33051000Y-67699000D01*
X33051000Y-70301000D01*
G37*
G36*
X96077142Y-66678242D02*
G01*
X96225101Y-66739529D01*
X96358255Y-66828499D01*
X96471501Y-66941745D01*
X96560471Y-67074899D01*
X96621758Y-67222858D01*
X96653000Y-67379925D01*
X96653000Y-67540075D01*
X96621758Y-67697142D01*
X96560471Y-67845101D01*
X96471501Y-67978255D01*
X96358255Y-68091501D01*
X96225101Y-68180471D01*
X96077142Y-68241758D01*
X95920075Y-68273000D01*
X95759925Y-68273000D01*
X95602858Y-68241758D01*
X95454899Y-68180471D01*
X95321745Y-68091501D01*
X95208499Y-67978255D01*
X95119529Y-67845101D01*
X95058242Y-67697142D01*
X95027000Y-67540075D01*
X95027000Y-67379925D01*
X95058242Y-67222858D01*
X95119529Y-67074899D01*
X95208499Y-66941745D01*
X95321745Y-66828499D01*
X95454899Y-66739529D01*
X95602858Y-66678242D01*
X95759925Y-66647000D01*
X95920075Y-66647000D01*
X96077142Y-66678242D01*
G37*
G36*
X90967142Y-66678242D02*
G01*
X91115101Y-66739529D01*
X91248255Y-66828499D01*
X91361501Y-66941745D01*
X91450471Y-67074899D01*
X91511758Y-67222858D01*
X91543000Y-67379925D01*
X91543000Y-67540075D01*
X91511758Y-67697142D01*
X91450471Y-67845101D01*
X91361501Y-67978255D01*
X91248255Y-68091501D01*
X91115101Y-68180471D01*
X90967142Y-68241758D01*
X90810075Y-68273000D01*
X90649925Y-68273000D01*
X90492858Y-68241758D01*
X90344899Y-68180471D01*
X90211745Y-68091501D01*
X90098499Y-67978255D01*
X90009529Y-67845101D01*
X89948242Y-67697142D01*
X89917000Y-67540075D01*
X89917000Y-67379925D01*
X89948242Y-67222858D01*
X90009529Y-67074899D01*
X90098499Y-66941745D01*
X90211745Y-66828499D01*
X90344899Y-66739529D01*
X90492858Y-66678242D01*
X90649925Y-66647000D01*
X90810075Y-66647000D01*
X90967142Y-66678242D01*
G37*
G36*
X88427142Y-66678242D02*
G01*
X88575101Y-66739529D01*
X88708255Y-66828499D01*
X88821501Y-66941745D01*
X88910471Y-67074899D01*
X88971758Y-67222858D01*
X89003000Y-67379925D01*
X89003000Y-67540075D01*
X88971758Y-67697142D01*
X88910471Y-67845101D01*
X88821501Y-67978255D01*
X88708255Y-68091501D01*
X88575101Y-68180471D01*
X88427142Y-68241758D01*
X88270075Y-68273000D01*
X88109925Y-68273000D01*
X87952858Y-68241758D01*
X87804899Y-68180471D01*
X87671745Y-68091501D01*
X87558499Y-67978255D01*
X87469529Y-67845101D01*
X87408242Y-67697142D01*
X87377000Y-67540075D01*
X87377000Y-67379925D01*
X87408242Y-67222858D01*
X87469529Y-67074899D01*
X87558499Y-66941745D01*
X87671745Y-66828499D01*
X87804899Y-66739529D01*
X87952858Y-66678242D01*
X88109925Y-66647000D01*
X88270075Y-66647000D01*
X88427142Y-66678242D01*
G37*
G36*
X3777395Y-66085546D02*
G01*
X3950466Y-66157234D01*
X3950467Y-66157235D01*
X4106227Y-66261310D01*
X4238690Y-66393773D01*
X4238691Y-66393775D01*
X4342766Y-66549534D01*
X4414454Y-66722605D01*
X4451000Y-66906333D01*
X4451000Y-67093667D01*
X4414454Y-67277395D01*
X4342766Y-67450466D01*
X4342765Y-67450467D01*
X4238690Y-67606227D01*
X4106227Y-67738690D01*
X4027818Y-67791081D01*
X3950466Y-67842766D01*
X3777395Y-67914454D01*
X3593667Y-67951000D01*
X3406333Y-67951000D01*
X3222605Y-67914454D01*
X3049534Y-67842766D01*
X2972182Y-67791081D01*
X2893773Y-67738690D01*
X2761310Y-67606227D01*
X2657235Y-67450467D01*
X2657234Y-67450466D01*
X2585546Y-67277395D01*
X2549000Y-67093667D01*
X2549000Y-66906333D01*
X2585546Y-66722605D01*
X2657234Y-66549534D01*
X2761309Y-66393775D01*
X2761310Y-66393773D01*
X2893773Y-66261310D01*
X3049533Y-66157235D01*
X3049534Y-66157234D01*
X3222605Y-66085546D01*
X3406333Y-66049000D01*
X3593667Y-66049000D01*
X3777395Y-66085546D01*
G37*
G36*
X3777395Y-63585546D02*
G01*
X3950466Y-63657234D01*
X3950467Y-63657235D01*
X4106227Y-63761310D01*
X4238690Y-63893773D01*
X4238691Y-63893775D01*
X4342766Y-64049534D01*
X4414454Y-64222605D01*
X4451000Y-64406333D01*
X4451000Y-64593667D01*
X4414454Y-64777395D01*
X4342766Y-64950466D01*
X4342765Y-64950467D01*
X4238690Y-65106227D01*
X4106227Y-65238690D01*
X4027818Y-65291081D01*
X3950466Y-65342766D01*
X3777395Y-65414454D01*
X3593667Y-65451000D01*
X3406333Y-65451000D01*
X3222605Y-65414454D01*
X3049534Y-65342766D01*
X2972182Y-65291081D01*
X2893773Y-65238690D01*
X2761310Y-65106227D01*
X2657235Y-64950467D01*
X2657234Y-64950466D01*
X2585546Y-64777395D01*
X2549000Y-64593667D01*
X2549000Y-64406333D01*
X2585546Y-64222605D01*
X2657234Y-64049534D01*
X2761309Y-63893775D01*
X2761310Y-63893773D01*
X2893773Y-63761310D01*
X3049533Y-63657235D01*
X3049534Y-63657234D01*
X3222605Y-63585546D01*
X3406333Y-63549000D01*
X3593667Y-63549000D01*
X3777395Y-63585546D01*
G37*
G36*
X61051000Y-65301000D02*
G01*
X58949000Y-65301000D01*
X58949000Y-62699000D01*
X61051000Y-62699000D01*
X61051000Y-65301000D01*
G37*
G36*
X65051000Y-65301000D02*
G01*
X62949000Y-65301000D01*
X62949000Y-62699000D01*
X65051000Y-62699000D01*
X65051000Y-65301000D01*
G37*
G36*
X33051000Y-65301000D02*
G01*
X30949000Y-65301000D01*
X30949000Y-62699000D01*
X33051000Y-62699000D01*
X33051000Y-65301000D01*
G37*
G36*
X37051000Y-65301000D02*
G01*
X34949000Y-65301000D01*
X34949000Y-62699000D01*
X37051000Y-62699000D01*
X37051000Y-65301000D01*
G37*
G36*
X71501000Y-64401000D02*
G01*
X70499000Y-64401000D01*
X70499000Y-63499000D01*
X71501000Y-63499000D01*
X71501000Y-64401000D01*
G37*
G36*
X73501000Y-63451000D02*
G01*
X72499000Y-63451000D01*
X72499000Y-62549000D01*
X73501000Y-62549000D01*
X73501000Y-63451000D01*
G37*
G36*
X96051000Y-63301000D02*
G01*
X93949000Y-63301000D01*
X93949000Y-60699000D01*
X96051000Y-60699000D01*
X96051000Y-63301000D01*
G37*
G36*
X92051000Y-63301000D02*
G01*
X89949000Y-63301000D01*
X89949000Y-60699000D01*
X92051000Y-60699000D01*
X92051000Y-63301000D01*
G37*
G36*
X3777395Y-61085546D02*
G01*
X3950466Y-61157234D01*
X3950467Y-61157235D01*
X4106227Y-61261310D01*
X4238690Y-61393773D01*
X4238691Y-61393775D01*
X4342766Y-61549534D01*
X4414454Y-61722605D01*
X4451000Y-61906333D01*
X4451000Y-62093667D01*
X4414454Y-62277395D01*
X4342766Y-62450466D01*
X4342765Y-62450467D01*
X4238690Y-62606227D01*
X4106227Y-62738690D01*
X4027818Y-62791081D01*
X3950466Y-62842766D01*
X3777395Y-62914454D01*
X3593667Y-62951000D01*
X3406333Y-62951000D01*
X3222605Y-62914454D01*
X3049534Y-62842766D01*
X2972182Y-62791081D01*
X2893773Y-62738690D01*
X2761310Y-62606227D01*
X2657235Y-62450467D01*
X2657234Y-62450466D01*
X2585546Y-62277395D01*
X2549000Y-62093667D01*
X2549000Y-61906333D01*
X2585546Y-61722605D01*
X2657234Y-61549534D01*
X2761309Y-61393775D01*
X2761310Y-61393773D01*
X2893773Y-61261310D01*
X3049533Y-61157235D01*
X3049534Y-61157234D01*
X3222605Y-61085546D01*
X3406333Y-61049000D01*
X3593667Y-61049000D01*
X3777395Y-61085546D01*
G37*
G36*
X71501000Y-62501000D02*
G01*
X70499000Y-62501000D01*
X70499000Y-61599000D01*
X71501000Y-61599000D01*
X71501000Y-62501000D01*
G37*
G36*
X51501000Y-62161000D02*
G01*
X49899000Y-62161000D01*
X49899000Y-61459000D01*
X51501000Y-61459000D01*
X51501000Y-62161000D01*
G37*
G36*
X46101000Y-62161000D02*
G01*
X44499000Y-62161000D01*
X44499000Y-61459000D01*
X46101000Y-61459000D01*
X46101000Y-62161000D01*
G37*
G36*
X7334358Y-57209232D02*
G01*
X7485761Y-57239348D01*
X7913616Y-57416571D01*
X8298675Y-57673859D01*
X8626141Y-58001325D01*
X8883429Y-58386384D01*
X9060652Y-58814239D01*
X9151000Y-59268447D01*
X9151000Y-59731553D01*
X9060652Y-60185761D01*
X8883429Y-60613616D01*
X8626141Y-60998675D01*
X8298675Y-61326141D01*
X7913616Y-61583429D01*
X7485761Y-61760652D01*
X7334358Y-61790768D01*
X7031555Y-61851000D01*
X6568445Y-61851000D01*
X6265642Y-61790768D01*
X6114239Y-61760652D01*
X5686384Y-61583429D01*
X5301325Y-61326141D01*
X4973859Y-60998675D01*
X4716571Y-60613616D01*
X4539348Y-60185761D01*
X4449000Y-59731553D01*
X4449000Y-59268447D01*
X4539348Y-58814239D01*
X4716571Y-58386384D01*
X4973859Y-58001325D01*
X5301325Y-57673859D01*
X5686384Y-57416571D01*
X6114239Y-57239348D01*
X6265642Y-57209232D01*
X6568445Y-57149000D01*
X7031555Y-57149000D01*
X7334358Y-57209232D01*
G37*
G36*
X22901000Y-60901000D02*
G01*
X21099000Y-60901000D01*
X21099000Y-59099000D01*
X22901000Y-59099000D01*
X22901000Y-60901000D01*
G37*
G36*
X46101000Y-60891000D02*
G01*
X44499000Y-60891000D01*
X44499000Y-60189000D01*
X46101000Y-60189000D01*
X46101000Y-60891000D01*
G37*
G36*
X51501000Y-60891000D02*
G01*
X49899000Y-60891000D01*
X49899000Y-60189000D01*
X51501000Y-60189000D01*
X51501000Y-60891000D01*
G37*
G36*
X65051000Y-60301000D02*
G01*
X62949000Y-60301000D01*
X62949000Y-57699000D01*
X65051000Y-57699000D01*
X65051000Y-60301000D01*
G37*
G36*
X33051000Y-60301000D02*
G01*
X30949000Y-60301000D01*
X30949000Y-57699000D01*
X33051000Y-57699000D01*
X33051000Y-60301000D01*
G37*
G36*
X61051000Y-60301000D02*
G01*
X58949000Y-60301000D01*
X58949000Y-57699000D01*
X61051000Y-57699000D01*
X61051000Y-60301000D01*
G37*
G36*
X37051000Y-60301000D02*
G01*
X34949000Y-60301000D01*
X34949000Y-57699000D01*
X37051000Y-57699000D01*
X37051000Y-60301000D01*
G37*
G36*
X51501000Y-59621000D02*
G01*
X49899000Y-59621000D01*
X49899000Y-58919000D01*
X51501000Y-58919000D01*
X51501000Y-59621000D01*
G37*
G36*
X46101000Y-59621000D02*
G01*
X44499000Y-59621000D01*
X44499000Y-58919000D01*
X46101000Y-58919000D01*
X46101000Y-59621000D01*
G37*
G36*
X22113512Y-56563927D02*
G01*
X22262812Y-56593624D01*
X22426784Y-56661544D01*
X22574354Y-56760147D01*
X22699853Y-56885646D01*
X22798456Y-57033216D01*
X22866376Y-57197188D01*
X22901000Y-57371259D01*
X22901000Y-57548741D01*
X22866376Y-57722812D01*
X22798456Y-57886784D01*
X22699853Y-58034354D01*
X22574354Y-58159853D01*
X22426784Y-58258456D01*
X22262812Y-58326376D01*
X22113512Y-58356073D01*
X22088742Y-58361000D01*
X21911258Y-58361000D01*
X21886488Y-58356073D01*
X21737188Y-58326376D01*
X21573216Y-58258456D01*
X21425646Y-58159853D01*
X21300147Y-58034354D01*
X21201544Y-57886784D01*
X21133624Y-57722812D01*
X21099000Y-57548741D01*
X21099000Y-57371259D01*
X21133624Y-57197188D01*
X21201544Y-57033216D01*
X21300147Y-56885646D01*
X21425646Y-56760147D01*
X21573216Y-56661544D01*
X21737188Y-56593624D01*
X21886488Y-56563927D01*
X21911258Y-56559000D01*
X22088742Y-56559000D01*
X22113512Y-56563927D01*
G37*
G36*
X51501000Y-58351000D02*
G01*
X49899000Y-58351000D01*
X49899000Y-57649000D01*
X51501000Y-57649000D01*
X51501000Y-58351000D01*
G37*
G36*
X46101000Y-58351000D02*
G01*
X44499000Y-58351000D01*
X44499000Y-57649000D01*
X46101000Y-57649000D01*
X46101000Y-58351000D01*
G37*
G36*
X51501000Y-57081000D02*
G01*
X49899000Y-57081000D01*
X49899000Y-56379000D01*
X51501000Y-56379000D01*
X51501000Y-57081000D01*
G37*
G36*
X46101000Y-57081000D02*
G01*
X44499000Y-57081000D01*
X44499000Y-56379000D01*
X46101000Y-56379000D01*
X46101000Y-57081000D01*
G37*
G36*
X18113512Y-54343927D02*
G01*
X18262812Y-54373624D01*
X18426784Y-54441544D01*
X18574354Y-54540147D01*
X18699853Y-54665646D01*
X18798456Y-54813216D01*
X18866376Y-54977188D01*
X18901000Y-55151259D01*
X18901000Y-55328741D01*
X18866376Y-55502812D01*
X18798456Y-55666784D01*
X18699853Y-55814354D01*
X18574354Y-55939853D01*
X18426784Y-56038456D01*
X18262812Y-56106376D01*
X18113512Y-56136073D01*
X18088742Y-56141000D01*
X17911258Y-56141000D01*
X17886488Y-56136073D01*
X17737188Y-56106376D01*
X17573216Y-56038456D01*
X17425646Y-55939853D01*
X17300147Y-55814354D01*
X17201544Y-55666784D01*
X17133624Y-55502812D01*
X17099000Y-55328741D01*
X17099000Y-55151259D01*
X17133624Y-54977188D01*
X17201544Y-54813216D01*
X17300147Y-54665646D01*
X17425646Y-54540147D01*
X17573216Y-54441544D01*
X17737188Y-54373624D01*
X17886488Y-54343927D01*
X17911258Y-54339000D01*
X18088742Y-54339000D01*
X18113512Y-54343927D01*
G37*
G36*
X78901000Y-55901000D02*
G01*
X77099000Y-55901000D01*
X77099000Y-54099000D01*
X78901000Y-54099000D01*
X78901000Y-55901000D01*
G37*
G36*
X82901000Y-55901000D02*
G01*
X81099000Y-55901000D01*
X81099000Y-54099000D01*
X82901000Y-54099000D01*
X82901000Y-55901000D01*
G37*
G36*
X22113512Y-54023927D02*
G01*
X22262812Y-54053624D01*
X22426784Y-54121544D01*
X22574354Y-54220147D01*
X22699853Y-54345646D01*
X22798456Y-54493216D01*
X22866376Y-54657188D01*
X22901000Y-54831259D01*
X22901000Y-55008741D01*
X22866376Y-55182812D01*
X22798456Y-55346784D01*
X22699853Y-55494354D01*
X22574354Y-55619853D01*
X22426784Y-55718456D01*
X22262812Y-55786376D01*
X22113512Y-55816073D01*
X22088742Y-55821000D01*
X21911258Y-55821000D01*
X21886488Y-55816073D01*
X21737188Y-55786376D01*
X21573216Y-55718456D01*
X21425646Y-55619853D01*
X21300147Y-55494354D01*
X21201544Y-55346784D01*
X21133624Y-55182812D01*
X21099000Y-55008741D01*
X21099000Y-54831259D01*
X21133624Y-54657188D01*
X21201544Y-54493216D01*
X21300147Y-54345646D01*
X21425646Y-54220147D01*
X21573216Y-54121544D01*
X21737188Y-54053624D01*
X21886488Y-54023927D01*
X21911258Y-54019000D01*
X22088742Y-54019000D01*
X22113512Y-54023927D01*
G37*
G36*
X46101000Y-55811000D02*
G01*
X44499000Y-55811000D01*
X44499000Y-55109000D01*
X46101000Y-55109000D01*
X46101000Y-55811000D01*
G37*
G36*
X51501000Y-55811000D02*
G01*
X49899000Y-55811000D01*
X49899000Y-55109000D01*
X51501000Y-55109000D01*
X51501000Y-55811000D01*
G37*
G36*
X37051000Y-55301000D02*
G01*
X34949000Y-55301000D01*
X34949000Y-52699000D01*
X37051000Y-52699000D01*
X37051000Y-55301000D01*
G37*
G36*
X33051000Y-55301000D02*
G01*
X30949000Y-55301000D01*
X30949000Y-52699000D01*
X33051000Y-52699000D01*
X33051000Y-55301000D01*
G37*
G36*
X65051000Y-55301000D02*
G01*
X62949000Y-55301000D01*
X62949000Y-52699000D01*
X65051000Y-52699000D01*
X65051000Y-55301000D01*
G37*
G36*
X61051000Y-55301000D02*
G01*
X58949000Y-55301000D01*
X58949000Y-52699000D01*
X61051000Y-52699000D01*
X61051000Y-55301000D01*
G37*
G36*
X46101000Y-54541000D02*
G01*
X44499000Y-54541000D01*
X44499000Y-53839000D01*
X46101000Y-53839000D01*
X46101000Y-54541000D01*
G37*
G36*
X51501000Y-54541000D02*
G01*
X49899000Y-54541000D01*
X49899000Y-53839000D01*
X51501000Y-53839000D01*
X51501000Y-54541000D01*
G37*
G36*
X18113512Y-51803927D02*
G01*
X18262812Y-51833624D01*
X18426784Y-51901544D01*
X18574354Y-52000147D01*
X18699853Y-52125646D01*
X18798456Y-52273216D01*
X18866376Y-52437188D01*
X18901000Y-52611259D01*
X18901000Y-52788741D01*
X18866376Y-52962812D01*
X18798456Y-53126784D01*
X18699853Y-53274354D01*
X18574354Y-53399853D01*
X18426784Y-53498456D01*
X18262812Y-53566376D01*
X18113512Y-53596073D01*
X18088742Y-53601000D01*
X17911258Y-53601000D01*
X17886488Y-53596073D01*
X17737188Y-53566376D01*
X17573216Y-53498456D01*
X17425646Y-53399853D01*
X17300147Y-53274354D01*
X17201544Y-53126784D01*
X17133624Y-52962812D01*
X17099000Y-52788741D01*
X17099000Y-52611259D01*
X17133624Y-52437188D01*
X17201544Y-52273216D01*
X17300147Y-52125646D01*
X17425646Y-52000147D01*
X17573216Y-51901544D01*
X17737188Y-51833624D01*
X17886488Y-51803927D01*
X17911258Y-51799000D01*
X18088742Y-51799000D01*
X18113512Y-51803927D01*
G37*
G36*
X78113512Y-51563927D02*
G01*
X78262812Y-51593624D01*
X78426784Y-51661544D01*
X78574354Y-51760147D01*
X78699853Y-51885646D01*
X78798456Y-52033216D01*
X78866376Y-52197188D01*
X78901000Y-52371259D01*
X78901000Y-52548741D01*
X78866376Y-52722812D01*
X78798456Y-52886784D01*
X78699853Y-53034354D01*
X78574354Y-53159853D01*
X78426784Y-53258456D01*
X78262812Y-53326376D01*
X78113512Y-53356073D01*
X78088742Y-53361000D01*
X77911258Y-53361000D01*
X77886488Y-53356073D01*
X77737188Y-53326376D01*
X77573216Y-53258456D01*
X77425646Y-53159853D01*
X77300147Y-53034354D01*
X77201544Y-52886784D01*
X77133624Y-52722812D01*
X77099000Y-52548741D01*
X77099000Y-52371259D01*
X77133624Y-52197188D01*
X77201544Y-52033216D01*
X77300147Y-51885646D01*
X77425646Y-51760147D01*
X77573216Y-51661544D01*
X77737188Y-51593624D01*
X77886488Y-51563927D01*
X77911258Y-51559000D01*
X78088742Y-51559000D01*
X78113512Y-51563927D01*
G37*
G36*
X82113512Y-51563927D02*
G01*
X82262812Y-51593624D01*
X82426784Y-51661544D01*
X82574354Y-51760147D01*
X82699853Y-51885646D01*
X82798456Y-52033216D01*
X82866376Y-52197188D01*
X82901000Y-52371259D01*
X82901000Y-52548741D01*
X82866376Y-52722812D01*
X82798456Y-52886784D01*
X82699853Y-53034354D01*
X82574354Y-53159853D01*
X82426784Y-53258456D01*
X82262812Y-53326376D01*
X82113512Y-53356073D01*
X82088742Y-53361000D01*
X81911258Y-53361000D01*
X81886488Y-53356073D01*
X81737188Y-53326376D01*
X81573216Y-53258456D01*
X81425646Y-53159853D01*
X81300147Y-53034354D01*
X81201544Y-52886784D01*
X81133624Y-52722812D01*
X81099000Y-52548741D01*
X81099000Y-52371259D01*
X81133624Y-52197188D01*
X81201544Y-52033216D01*
X81300147Y-51885646D01*
X81425646Y-51760147D01*
X81573216Y-51661544D01*
X81737188Y-51593624D01*
X81886488Y-51563927D01*
X81911258Y-51559000D01*
X82088742Y-51559000D01*
X82113512Y-51563927D01*
G37*
G36*
X22113512Y-51483927D02*
G01*
X22262812Y-51513624D01*
X22426784Y-51581544D01*
X22574354Y-51680147D01*
X22699853Y-51805646D01*
X22798456Y-51953216D01*
X22866376Y-52117188D01*
X22901000Y-52291259D01*
X22901000Y-52468741D01*
X22866376Y-52642812D01*
X22798456Y-52806784D01*
X22699853Y-52954354D01*
X22574354Y-53079853D01*
X22426784Y-53178456D01*
X22262812Y-53246376D01*
X22113512Y-53276073D01*
X22088742Y-53281000D01*
X21911258Y-53281000D01*
X21886488Y-53276073D01*
X21737188Y-53246376D01*
X21573216Y-53178456D01*
X21425646Y-53079853D01*
X21300147Y-52954354D01*
X21201544Y-52806784D01*
X21133624Y-52642812D01*
X21099000Y-52468741D01*
X21099000Y-52291259D01*
X21133624Y-52117188D01*
X21201544Y-51953216D01*
X21300147Y-51805646D01*
X21425646Y-51680147D01*
X21573216Y-51581544D01*
X21737188Y-51513624D01*
X21886488Y-51483927D01*
X21911258Y-51479000D01*
X22088742Y-51479000D01*
X22113512Y-51483927D01*
G37*
G36*
X93734358Y-48209232D02*
G01*
X93885761Y-48239348D01*
X94313616Y-48416571D01*
X94698675Y-48673859D01*
X95026141Y-49001325D01*
X95283429Y-49386384D01*
X95460652Y-49814239D01*
X95467964Y-49851000D01*
X95551000Y-50268445D01*
X95551000Y-50731555D01*
X95505866Y-50958456D01*
X95460652Y-51185761D01*
X95283429Y-51613616D01*
X95026141Y-51998675D01*
X94698675Y-52326141D01*
X94313616Y-52583429D01*
X93885761Y-52760652D01*
X93744549Y-52788741D01*
X93431555Y-52851000D01*
X92968445Y-52851000D01*
X92655451Y-52788741D01*
X92514239Y-52760652D01*
X92086384Y-52583429D01*
X91701325Y-52326141D01*
X91373859Y-51998675D01*
X91116571Y-51613616D01*
X90939348Y-51185761D01*
X90894134Y-50958456D01*
X90849000Y-50731555D01*
X90849000Y-50268445D01*
X90932036Y-49851000D01*
X90939348Y-49814239D01*
X91116571Y-49386384D01*
X91373859Y-49001325D01*
X91701325Y-48673859D01*
X92086384Y-48416571D01*
X92514239Y-48239348D01*
X92665642Y-48209232D01*
X92968445Y-48149000D01*
X93431555Y-48149000D01*
X93734358Y-48209232D01*
G37*
G36*
X18113512Y-49263927D02*
G01*
X18262812Y-49293624D01*
X18426784Y-49361544D01*
X18574354Y-49460147D01*
X18699853Y-49585646D01*
X18798456Y-49733216D01*
X18866376Y-49897188D01*
X18901000Y-50071259D01*
X18901000Y-50248741D01*
X18866376Y-50422812D01*
X18798456Y-50586784D01*
X18699853Y-50734354D01*
X18574354Y-50859853D01*
X18426784Y-50958456D01*
X18262812Y-51026376D01*
X18113512Y-51056073D01*
X18088742Y-51061000D01*
X17911258Y-51061000D01*
X17886488Y-51056073D01*
X17737188Y-51026376D01*
X17573216Y-50958456D01*
X17425646Y-50859853D01*
X17300147Y-50734354D01*
X17201544Y-50586784D01*
X17133624Y-50422812D01*
X17099000Y-50248741D01*
X17099000Y-50071259D01*
X17133624Y-49897188D01*
X17201544Y-49733216D01*
X17300147Y-49585646D01*
X17425646Y-49460147D01*
X17573216Y-49361544D01*
X17737188Y-49293624D01*
X17886488Y-49263927D01*
X17911258Y-49259000D01*
X18088742Y-49259000D01*
X18113512Y-49263927D01*
G37*
G36*
X78113512Y-49023927D02*
G01*
X78262812Y-49053624D01*
X78426784Y-49121544D01*
X78574354Y-49220147D01*
X78699853Y-49345646D01*
X78798456Y-49493216D01*
X78866376Y-49657188D01*
X78901000Y-49831259D01*
X78901000Y-50008741D01*
X78866376Y-50182812D01*
X78798456Y-50346784D01*
X78699853Y-50494354D01*
X78574354Y-50619853D01*
X78426784Y-50718456D01*
X78262812Y-50786376D01*
X78113512Y-50816073D01*
X78088742Y-50821000D01*
X77911258Y-50821000D01*
X77886488Y-50816073D01*
X77737188Y-50786376D01*
X77573216Y-50718456D01*
X77425646Y-50619853D01*
X77300147Y-50494354D01*
X77201544Y-50346784D01*
X77133624Y-50182812D01*
X77099000Y-50008741D01*
X77099000Y-49831259D01*
X77133624Y-49657188D01*
X77201544Y-49493216D01*
X77300147Y-49345646D01*
X77425646Y-49220147D01*
X77573216Y-49121544D01*
X77737188Y-49053624D01*
X77886488Y-49023927D01*
X77911258Y-49019000D01*
X78088742Y-49019000D01*
X78113512Y-49023927D01*
G37*
G36*
X82113512Y-49023927D02*
G01*
X82262812Y-49053624D01*
X82426784Y-49121544D01*
X82574354Y-49220147D01*
X82699853Y-49345646D01*
X82798456Y-49493216D01*
X82866376Y-49657188D01*
X82901000Y-49831259D01*
X82901000Y-50008741D01*
X82866376Y-50182812D01*
X82798456Y-50346784D01*
X82699853Y-50494354D01*
X82574354Y-50619853D01*
X82426784Y-50718456D01*
X82262812Y-50786376D01*
X82113512Y-50816073D01*
X82088742Y-50821000D01*
X81911258Y-50821000D01*
X81886488Y-50816073D01*
X81737188Y-50786376D01*
X81573216Y-50718456D01*
X81425646Y-50619853D01*
X81300147Y-50494354D01*
X81201544Y-50346784D01*
X81133624Y-50182812D01*
X81099000Y-50008741D01*
X81099000Y-49831259D01*
X81133624Y-49657188D01*
X81201544Y-49493216D01*
X81300147Y-49345646D01*
X81425646Y-49220147D01*
X81573216Y-49121544D01*
X81737188Y-49053624D01*
X81886488Y-49023927D01*
X81911258Y-49019000D01*
X82088742Y-49019000D01*
X82113512Y-49023927D01*
G37*
G36*
X22113512Y-48943927D02*
G01*
X22262812Y-48973624D01*
X22426784Y-49041544D01*
X22574354Y-49140147D01*
X22699853Y-49265646D01*
X22798456Y-49413216D01*
X22866376Y-49577188D01*
X22901000Y-49751259D01*
X22901000Y-49928741D01*
X22866376Y-50102812D01*
X22798456Y-50266784D01*
X22699853Y-50414354D01*
X22574354Y-50539853D01*
X22426784Y-50638456D01*
X22262812Y-50706376D01*
X22113512Y-50736073D01*
X22088742Y-50741000D01*
X21911258Y-50741000D01*
X21886488Y-50736073D01*
X21737188Y-50706376D01*
X21573216Y-50638456D01*
X21425646Y-50539853D01*
X21300147Y-50414354D01*
X21201544Y-50266784D01*
X21133624Y-50102812D01*
X21099000Y-49928741D01*
X21099000Y-49751259D01*
X21133624Y-49577188D01*
X21201544Y-49413216D01*
X21300147Y-49265646D01*
X21425646Y-49140147D01*
X21573216Y-49041544D01*
X21737188Y-48973624D01*
X21886488Y-48943927D01*
X21911258Y-48939000D01*
X22088742Y-48939000D01*
X22113512Y-48943927D01*
G37*
G36*
X33051000Y-50301000D02*
G01*
X30949000Y-50301000D01*
X30949000Y-47699000D01*
X33051000Y-47699000D01*
X33051000Y-50301000D01*
G37*
G36*
X37051000Y-50301000D02*
G01*
X34949000Y-50301000D01*
X34949000Y-47699000D01*
X37051000Y-47699000D01*
X37051000Y-50301000D01*
G37*
G36*
X61051000Y-50301000D02*
G01*
X58949000Y-50301000D01*
X58949000Y-47699000D01*
X61051000Y-47699000D01*
X61051000Y-50301000D01*
G37*
G36*
X65051000Y-50301000D02*
G01*
X62949000Y-50301000D01*
X62949000Y-47699000D01*
X65051000Y-47699000D01*
X65051000Y-50301000D01*
G37*
G36*
X7334358Y-45209232D02*
G01*
X7485761Y-45239348D01*
X7634602Y-45301000D01*
X7908262Y-45414353D01*
X7913616Y-45416571D01*
X8298675Y-45673859D01*
X8626141Y-46001325D01*
X8854284Y-46342766D01*
X8883430Y-46386386D01*
X8902997Y-46433625D01*
X9060652Y-46814239D01*
X9081719Y-46920148D01*
X9149581Y-47261310D01*
X9151000Y-47268447D01*
X9151000Y-47731553D01*
X9060652Y-48185761D01*
X8964267Y-48418456D01*
X8886491Y-48606225D01*
X8883429Y-48613616D01*
X8626141Y-48998675D01*
X8298675Y-49326141D01*
X7913616Y-49583429D01*
X7913615Y-49583430D01*
X7913614Y-49583430D01*
X7788297Y-49635338D01*
X7485761Y-49760652D01*
X7334358Y-49790768D01*
X7031555Y-49851000D01*
X6568445Y-49851000D01*
X6265642Y-49790768D01*
X6114239Y-49760652D01*
X5811703Y-49635338D01*
X5686386Y-49583430D01*
X5686385Y-49583430D01*
X5686384Y-49583429D01*
X5301325Y-49326141D01*
X4973859Y-48998675D01*
X4716571Y-48613616D01*
X4713510Y-48606225D01*
X4635733Y-48418456D01*
X4539348Y-48185761D01*
X4449000Y-47731553D01*
X4449000Y-47268447D01*
X4450420Y-47261310D01*
X4518281Y-46920148D01*
X4539348Y-46814239D01*
X4697003Y-46433625D01*
X4716570Y-46386386D01*
X4745716Y-46342766D01*
X4973859Y-46001325D01*
X5301325Y-45673859D01*
X5686384Y-45416571D01*
X5691739Y-45414353D01*
X5965398Y-45301000D01*
X6114239Y-45239348D01*
X6265642Y-45209232D01*
X6568445Y-45149000D01*
X7031555Y-45149000D01*
X7334358Y-45209232D01*
G37*
G36*
X96777395Y-47085546D02*
G01*
X96950466Y-47157234D01*
X96950467Y-47157235D01*
X97106227Y-47261310D01*
X97238690Y-47393773D01*
X97238691Y-47393775D01*
X97342766Y-47549534D01*
X97414454Y-47722605D01*
X97451000Y-47906333D01*
X97451000Y-48093667D01*
X97414454Y-48277395D01*
X97342766Y-48450466D01*
X97295637Y-48521000D01*
X97238690Y-48606227D01*
X97106227Y-48738690D01*
X97027818Y-48791081D01*
X96950466Y-48842766D01*
X96777395Y-48914454D01*
X96593667Y-48951000D01*
X96406333Y-48951000D01*
X96222605Y-48914454D01*
X96049534Y-48842766D01*
X95972182Y-48791081D01*
X95893773Y-48738690D01*
X95761310Y-48606227D01*
X95704363Y-48521000D01*
X95657234Y-48450466D01*
X95585546Y-48277395D01*
X95549000Y-48093667D01*
X95549000Y-47906333D01*
X95585546Y-47722605D01*
X95657234Y-47549534D01*
X95761309Y-47393775D01*
X95761310Y-47393773D01*
X95893773Y-47261310D01*
X96049533Y-47157235D01*
X96049534Y-47157234D01*
X96222605Y-47085546D01*
X96406333Y-47049000D01*
X96593667Y-47049000D01*
X96777395Y-47085546D01*
G37*
G36*
X18113512Y-46723927D02*
G01*
X18262812Y-46753624D01*
X18426784Y-46821544D01*
X18574354Y-46920147D01*
X18699853Y-47045646D01*
X18798456Y-47193216D01*
X18866376Y-47357188D01*
X18901000Y-47531259D01*
X18901000Y-47708741D01*
X18866376Y-47882812D01*
X18798456Y-48046784D01*
X18699853Y-48194354D01*
X18574354Y-48319853D01*
X18426784Y-48418456D01*
X18262812Y-48486376D01*
X18113512Y-48516073D01*
X18088742Y-48521000D01*
X17911258Y-48521000D01*
X17886488Y-48516073D01*
X17737188Y-48486376D01*
X17573216Y-48418456D01*
X17425646Y-48319853D01*
X17300147Y-48194354D01*
X17201544Y-48046784D01*
X17133624Y-47882812D01*
X17099000Y-47708741D01*
X17099000Y-47531259D01*
X17133624Y-47357188D01*
X17201544Y-47193216D01*
X17300147Y-47045646D01*
X17425646Y-46920147D01*
X17573216Y-46821544D01*
X17737188Y-46753624D01*
X17886488Y-46723927D01*
X17911258Y-46719000D01*
X18088742Y-46719000D01*
X18113512Y-46723927D01*
G37*
G36*
X82113512Y-46483927D02*
G01*
X82262812Y-46513624D01*
X82426784Y-46581544D01*
X82574354Y-46680147D01*
X82699853Y-46805646D01*
X82798456Y-46953216D01*
X82866376Y-47117188D01*
X82901000Y-47291259D01*
X82901000Y-47468741D01*
X82866376Y-47642812D01*
X82798456Y-47806784D01*
X82699853Y-47954354D01*
X82574354Y-48079853D01*
X82426784Y-48178456D01*
X82262812Y-48246376D01*
X82113512Y-48276073D01*
X82088742Y-48281000D01*
X81911258Y-48281000D01*
X81886488Y-48276073D01*
X81737188Y-48246376D01*
X81573216Y-48178456D01*
X81425646Y-48079853D01*
X81300147Y-47954354D01*
X81201544Y-47806784D01*
X81133624Y-47642812D01*
X81099000Y-47468741D01*
X81099000Y-47291259D01*
X81133624Y-47117188D01*
X81201544Y-46953216D01*
X81300147Y-46805646D01*
X81425646Y-46680147D01*
X81573216Y-46581544D01*
X81737188Y-46513624D01*
X81886488Y-46483927D01*
X81911258Y-46479000D01*
X82088742Y-46479000D01*
X82113512Y-46483927D01*
G37*
G36*
X78113512Y-46483927D02*
G01*
X78262812Y-46513624D01*
X78426784Y-46581544D01*
X78574354Y-46680147D01*
X78699853Y-46805646D01*
X78798456Y-46953216D01*
X78866376Y-47117188D01*
X78901000Y-47291259D01*
X78901000Y-47468741D01*
X78866376Y-47642812D01*
X78798456Y-47806784D01*
X78699853Y-47954354D01*
X78574354Y-48079853D01*
X78426784Y-48178456D01*
X78262812Y-48246376D01*
X78113512Y-48276073D01*
X78088742Y-48281000D01*
X77911258Y-48281000D01*
X77886488Y-48276073D01*
X77737188Y-48246376D01*
X77573216Y-48178456D01*
X77425646Y-48079853D01*
X77300147Y-47954354D01*
X77201544Y-47806784D01*
X77133624Y-47642812D01*
X77099000Y-47468741D01*
X77099000Y-47291259D01*
X77133624Y-47117188D01*
X77201544Y-46953216D01*
X77300147Y-46805646D01*
X77425646Y-46680147D01*
X77573216Y-46581544D01*
X77737188Y-46513624D01*
X77886488Y-46483927D01*
X77911258Y-46479000D01*
X78088742Y-46479000D01*
X78113512Y-46483927D01*
G37*
G36*
X22113512Y-46403927D02*
G01*
X22262812Y-46433624D01*
X22426784Y-46501544D01*
X22574354Y-46600147D01*
X22699853Y-46725646D01*
X22798456Y-46873216D01*
X22866376Y-47037188D01*
X22901000Y-47211259D01*
X22901000Y-47388741D01*
X22866376Y-47562812D01*
X22798456Y-47726784D01*
X22699853Y-47874354D01*
X22574354Y-47999853D01*
X22426784Y-48098456D01*
X22262812Y-48166376D01*
X22113512Y-48196073D01*
X22088742Y-48201000D01*
X21911258Y-48201000D01*
X21886488Y-48196073D01*
X21737188Y-48166376D01*
X21573216Y-48098456D01*
X21425646Y-47999853D01*
X21300147Y-47874354D01*
X21201544Y-47726784D01*
X21133624Y-47562812D01*
X21099000Y-47388741D01*
X21099000Y-47211259D01*
X21133624Y-47037188D01*
X21201544Y-46873216D01*
X21300147Y-46725646D01*
X21425646Y-46600147D01*
X21573216Y-46501544D01*
X21737188Y-46433624D01*
X21886488Y-46403927D01*
X21911258Y-46399000D01*
X22088742Y-46399000D01*
X22113512Y-46403927D01*
G37*
G36*
X96777395Y-44585546D02*
G01*
X96950466Y-44657234D01*
X96950467Y-44657235D01*
X97106227Y-44761310D01*
X97238690Y-44893773D01*
X97262055Y-44928741D01*
X97342766Y-45049534D01*
X97414454Y-45222605D01*
X97451000Y-45406333D01*
X97451000Y-45593667D01*
X97414454Y-45777395D01*
X97342766Y-45950466D01*
X97342765Y-45950467D01*
X97238690Y-46106227D01*
X97106227Y-46238690D01*
X97027818Y-46291081D01*
X96950466Y-46342766D01*
X96777395Y-46414454D01*
X96593667Y-46451000D01*
X96406333Y-46451000D01*
X96222605Y-46414454D01*
X96049534Y-46342766D01*
X95972182Y-46291081D01*
X95893773Y-46238690D01*
X95761310Y-46106227D01*
X95657235Y-45950467D01*
X95657234Y-45950466D01*
X95585546Y-45777395D01*
X95549000Y-45593667D01*
X95549000Y-45406333D01*
X95585546Y-45222605D01*
X95657234Y-45049534D01*
X95737945Y-44928741D01*
X95761310Y-44893773D01*
X95893773Y-44761310D01*
X96049533Y-44657235D01*
X96049534Y-44657234D01*
X96222605Y-44585546D01*
X96406333Y-44549000D01*
X96593667Y-44549000D01*
X96777395Y-44585546D01*
G37*
G36*
X18113512Y-44183927D02*
G01*
X18262812Y-44213624D01*
X18426784Y-44281544D01*
X18574354Y-44380147D01*
X18699853Y-44505646D01*
X18798456Y-44653216D01*
X18866376Y-44817188D01*
X18901000Y-44991259D01*
X18901000Y-45168741D01*
X18866376Y-45342812D01*
X18798456Y-45506784D01*
X18699853Y-45654354D01*
X18574354Y-45779853D01*
X18426784Y-45878456D01*
X18262812Y-45946376D01*
X18113512Y-45976073D01*
X18088742Y-45981000D01*
X17911258Y-45981000D01*
X17886488Y-45976073D01*
X17737188Y-45946376D01*
X17573216Y-45878456D01*
X17425646Y-45779853D01*
X17300147Y-45654354D01*
X17201544Y-45506784D01*
X17133624Y-45342812D01*
X17099000Y-45168741D01*
X17099000Y-44991259D01*
X17133624Y-44817188D01*
X17201544Y-44653216D01*
X17300147Y-44505646D01*
X17425646Y-44380147D01*
X17573216Y-44281544D01*
X17737188Y-44213624D01*
X17886488Y-44183927D01*
X17911258Y-44179000D01*
X18088742Y-44179000D01*
X18113512Y-44183927D01*
G37*
G36*
X3777395Y-44085546D02*
G01*
X3950466Y-44157234D01*
X3950467Y-44157235D01*
X4106227Y-44261310D01*
X4238690Y-44393773D01*
X4291081Y-44472182D01*
X4342766Y-44549534D01*
X4414454Y-44722605D01*
X4451000Y-44906333D01*
X4451000Y-45093667D01*
X4414454Y-45277395D01*
X4342766Y-45450466D01*
X4342765Y-45450467D01*
X4238690Y-45606227D01*
X4106227Y-45738690D01*
X4048299Y-45777396D01*
X3950466Y-45842766D01*
X3777395Y-45914454D01*
X3593667Y-45951000D01*
X3406333Y-45951000D01*
X3222605Y-45914454D01*
X3049534Y-45842766D01*
X2951701Y-45777396D01*
X2893773Y-45738690D01*
X2761310Y-45606227D01*
X2657235Y-45450467D01*
X2657234Y-45450466D01*
X2585546Y-45277395D01*
X2549000Y-45093667D01*
X2549000Y-44906333D01*
X2585546Y-44722605D01*
X2657234Y-44549534D01*
X2708919Y-44472182D01*
X2761310Y-44393773D01*
X2893773Y-44261310D01*
X3049533Y-44157235D01*
X3049534Y-44157234D01*
X3222605Y-44085546D01*
X3406333Y-44049000D01*
X3593667Y-44049000D01*
X3777395Y-44085546D01*
G37*
G36*
X47101000Y-45851000D02*
G01*
X43499000Y-45851000D01*
X43499000Y-44149000D01*
X47101000Y-44149000D01*
X47101000Y-45851000D01*
G37*
G36*
X52501000Y-45851000D02*
G01*
X48899000Y-45851000D01*
X48899000Y-44149000D01*
X52501000Y-44149000D01*
X52501000Y-45851000D01*
G37*
G36*
X82113512Y-43943927D02*
G01*
X82262812Y-43973624D01*
X82426784Y-44041544D01*
X82574354Y-44140147D01*
X82699853Y-44265646D01*
X82798456Y-44413216D01*
X82866376Y-44577188D01*
X82901000Y-44751259D01*
X82901000Y-44928741D01*
X82866376Y-45102812D01*
X82798456Y-45266784D01*
X82699853Y-45414354D01*
X82574354Y-45539853D01*
X82426784Y-45638456D01*
X82262812Y-45706376D01*
X82113512Y-45736073D01*
X82088742Y-45741000D01*
X81911258Y-45741000D01*
X81886488Y-45736073D01*
X81737188Y-45706376D01*
X81573216Y-45638456D01*
X81425646Y-45539853D01*
X81300147Y-45414354D01*
X81201544Y-45266784D01*
X81133624Y-45102812D01*
X81099000Y-44928741D01*
X81099000Y-44751259D01*
X81133624Y-44577188D01*
X81201544Y-44413216D01*
X81300147Y-44265646D01*
X81425646Y-44140147D01*
X81573216Y-44041544D01*
X81737188Y-43973624D01*
X81886488Y-43943927D01*
X81911258Y-43939000D01*
X82088742Y-43939000D01*
X82113512Y-43943927D01*
G37*
G36*
X78113512Y-43943927D02*
G01*
X78262812Y-43973624D01*
X78426784Y-44041544D01*
X78574354Y-44140147D01*
X78699853Y-44265646D01*
X78798456Y-44413216D01*
X78866376Y-44577188D01*
X78901000Y-44751259D01*
X78901000Y-44928741D01*
X78866376Y-45102812D01*
X78798456Y-45266784D01*
X78699853Y-45414354D01*
X78574354Y-45539853D01*
X78426784Y-45638456D01*
X78262812Y-45706376D01*
X78113512Y-45736073D01*
X78088742Y-45741000D01*
X77911258Y-45741000D01*
X77886488Y-45736073D01*
X77737188Y-45706376D01*
X77573216Y-45638456D01*
X77425646Y-45539853D01*
X77300147Y-45414354D01*
X77201544Y-45266784D01*
X77133624Y-45102812D01*
X77099000Y-44928741D01*
X77099000Y-44751259D01*
X77133624Y-44577188D01*
X77201544Y-44413216D01*
X77300147Y-44265646D01*
X77425646Y-44140147D01*
X77573216Y-44041544D01*
X77737188Y-43973624D01*
X77886488Y-43943927D01*
X77911258Y-43939000D01*
X78088742Y-43939000D01*
X78113512Y-43943927D01*
G37*
G36*
X22113512Y-43863927D02*
G01*
X22262812Y-43893624D01*
X22426784Y-43961544D01*
X22574354Y-44060147D01*
X22699853Y-44185646D01*
X22798456Y-44333216D01*
X22866376Y-44497188D01*
X22901000Y-44671259D01*
X22901000Y-44848741D01*
X22866376Y-45022812D01*
X22798456Y-45186784D01*
X22699853Y-45334354D01*
X22574354Y-45459853D01*
X22426784Y-45558456D01*
X22262812Y-45626376D01*
X22113512Y-45656073D01*
X22088742Y-45661000D01*
X21911258Y-45661000D01*
X21886488Y-45656073D01*
X21737188Y-45626376D01*
X21573216Y-45558456D01*
X21425646Y-45459853D01*
X21300147Y-45334354D01*
X21201544Y-45186784D01*
X21133624Y-45022812D01*
X21099000Y-44848741D01*
X21099000Y-44671259D01*
X21133624Y-44497188D01*
X21201544Y-44333216D01*
X21300147Y-44185646D01*
X21425646Y-44060147D01*
X21573216Y-43961544D01*
X21737188Y-43893624D01*
X21886488Y-43863927D01*
X21911258Y-43859000D01*
X22088742Y-43859000D01*
X22113512Y-43863927D01*
G37*
G36*
X61051000Y-45301000D02*
G01*
X58949000Y-45301000D01*
X58949000Y-42699000D01*
X61051000Y-42699000D01*
X61051000Y-45301000D01*
G37*
G36*
X33051000Y-45301000D02*
G01*
X30949000Y-45301000D01*
X30949000Y-42699000D01*
X33051000Y-42699000D01*
X33051000Y-45301000D01*
G37*
G36*
X65051000Y-45301000D02*
G01*
X62949000Y-45301000D01*
X62949000Y-42699000D01*
X65051000Y-42699000D01*
X65051000Y-45301000D01*
G37*
G36*
X37051000Y-45301000D02*
G01*
X34949000Y-45301000D01*
X34949000Y-42699000D01*
X37051000Y-42699000D01*
X37051000Y-45301000D01*
G37*
G36*
X96777395Y-42085546D02*
G01*
X96950466Y-42157234D01*
X96950467Y-42157235D01*
X97106227Y-42261310D01*
X97238690Y-42393773D01*
X97277100Y-42451258D01*
X97342766Y-42549534D01*
X97414454Y-42722605D01*
X97451000Y-42906333D01*
X97451000Y-43093667D01*
X97414454Y-43277395D01*
X97342766Y-43450466D01*
X97342765Y-43450467D01*
X97238690Y-43606227D01*
X97106227Y-43738690D01*
X97027818Y-43791081D01*
X96950466Y-43842766D01*
X96777395Y-43914454D01*
X96593667Y-43951000D01*
X96406333Y-43951000D01*
X96222605Y-43914454D01*
X96049534Y-43842766D01*
X95972182Y-43791081D01*
X95893773Y-43738690D01*
X95761310Y-43606227D01*
X95657235Y-43450467D01*
X95657234Y-43450466D01*
X95585546Y-43277395D01*
X95549000Y-43093667D01*
X95549000Y-42906333D01*
X95585546Y-42722605D01*
X95657234Y-42549534D01*
X95722900Y-42451258D01*
X95761310Y-42393773D01*
X95893773Y-42261310D01*
X96049533Y-42157235D01*
X96049534Y-42157234D01*
X96222605Y-42085546D01*
X96406333Y-42049000D01*
X96593667Y-42049000D01*
X96777395Y-42085546D01*
G37*
G36*
X3777395Y-41585546D02*
G01*
X3950466Y-41657234D01*
X4027818Y-41708919D01*
X4106227Y-41761310D01*
X4238690Y-41893773D01*
X4238691Y-41893775D01*
X4342766Y-42049534D01*
X4414454Y-42222605D01*
X4451000Y-42406333D01*
X4451000Y-42593667D01*
X4414454Y-42777395D01*
X4342766Y-42950466D01*
X4291081Y-43027818D01*
X4238690Y-43106227D01*
X4106227Y-43238690D01*
X4048299Y-43277396D01*
X3950466Y-43342766D01*
X3777395Y-43414454D01*
X3593667Y-43451000D01*
X3406333Y-43451000D01*
X3222605Y-43414454D01*
X3049534Y-43342766D01*
X2951701Y-43277396D01*
X2893773Y-43238690D01*
X2761310Y-43106227D01*
X2708919Y-43027818D01*
X2657234Y-42950466D01*
X2585546Y-42777395D01*
X2549000Y-42593667D01*
X2549000Y-42406333D01*
X2585546Y-42222605D01*
X2657234Y-42049534D01*
X2761309Y-41893775D01*
X2761310Y-41893773D01*
X2893773Y-41761310D01*
X2972182Y-41708919D01*
X3049534Y-41657234D01*
X3222605Y-41585546D01*
X3406333Y-41549000D01*
X3593667Y-41549000D01*
X3777395Y-41585546D01*
G37*
G36*
X18113512Y-41643927D02*
G01*
X18262812Y-41673624D01*
X18426784Y-41741544D01*
X18574354Y-41840147D01*
X18699853Y-41965646D01*
X18798456Y-42113216D01*
X18866376Y-42277188D01*
X18901000Y-42451259D01*
X18901000Y-42628741D01*
X18866376Y-42802812D01*
X18798456Y-42966784D01*
X18699853Y-43114354D01*
X18574354Y-43239853D01*
X18426784Y-43338456D01*
X18262812Y-43406376D01*
X18113512Y-43436073D01*
X18088742Y-43441000D01*
X17911258Y-43441000D01*
X17886488Y-43436073D01*
X17737188Y-43406376D01*
X17573216Y-43338456D01*
X17425646Y-43239853D01*
X17300147Y-43114354D01*
X17201544Y-42966784D01*
X17133624Y-42802812D01*
X17099000Y-42628741D01*
X17099000Y-42451259D01*
X17133624Y-42277188D01*
X17201544Y-42113216D01*
X17300147Y-41965646D01*
X17425646Y-41840147D01*
X17573216Y-41741544D01*
X17737188Y-41673624D01*
X17886488Y-41643927D01*
X17911258Y-41639000D01*
X18088742Y-41639000D01*
X18113512Y-41643927D01*
G37*
G36*
X78113512Y-41403927D02*
G01*
X78262812Y-41433624D01*
X78426784Y-41501544D01*
X78574354Y-41600147D01*
X78699853Y-41725646D01*
X78798456Y-41873216D01*
X78866376Y-42037188D01*
X78901000Y-42211259D01*
X78901000Y-42388741D01*
X78866376Y-42562812D01*
X78798456Y-42726784D01*
X78699853Y-42874354D01*
X78574354Y-42999853D01*
X78426784Y-43098456D01*
X78262812Y-43166376D01*
X78113512Y-43196073D01*
X78088742Y-43201000D01*
X77911258Y-43201000D01*
X77886488Y-43196073D01*
X77737188Y-43166376D01*
X77573216Y-43098456D01*
X77425646Y-42999853D01*
X77300147Y-42874354D01*
X77201544Y-42726784D01*
X77133624Y-42562812D01*
X77099000Y-42388741D01*
X77099000Y-42211259D01*
X77133624Y-42037188D01*
X77201544Y-41873216D01*
X77300147Y-41725646D01*
X77425646Y-41600147D01*
X77573216Y-41501544D01*
X77737188Y-41433624D01*
X77886488Y-41403927D01*
X77911258Y-41399000D01*
X78088742Y-41399000D01*
X78113512Y-41403927D01*
G37*
G36*
X82113512Y-41403927D02*
G01*
X82262812Y-41433624D01*
X82426784Y-41501544D01*
X82574354Y-41600147D01*
X82699853Y-41725646D01*
X82798456Y-41873216D01*
X82866376Y-42037188D01*
X82901000Y-42211259D01*
X82901000Y-42388741D01*
X82866376Y-42562812D01*
X82798456Y-42726784D01*
X82699853Y-42874354D01*
X82574354Y-42999853D01*
X82426784Y-43098456D01*
X82262812Y-43166376D01*
X82113512Y-43196073D01*
X82088742Y-43201000D01*
X81911258Y-43201000D01*
X81886488Y-43196073D01*
X81737188Y-43166376D01*
X81573216Y-43098456D01*
X81425646Y-42999853D01*
X81300147Y-42874354D01*
X81201544Y-42726784D01*
X81133624Y-42562812D01*
X81099000Y-42388741D01*
X81099000Y-42211259D01*
X81133624Y-42037188D01*
X81201544Y-41873216D01*
X81300147Y-41725646D01*
X81425646Y-41600147D01*
X81573216Y-41501544D01*
X81737188Y-41433624D01*
X81886488Y-41403927D01*
X81911258Y-41399000D01*
X82088742Y-41399000D01*
X82113512Y-41403927D01*
G37*
G36*
X93734358Y-38209232D02*
G01*
X93885761Y-38239348D01*
X94313616Y-38416571D01*
X94698675Y-38673859D01*
X95026141Y-39001325D01*
X95283429Y-39386384D01*
X95283430Y-39386386D01*
X95329325Y-39497188D01*
X95438456Y-39760652D01*
X95460652Y-39814240D01*
X95551000Y-40268445D01*
X95551000Y-40731555D01*
X95517295Y-40901000D01*
X95460652Y-41185761D01*
X95283429Y-41613616D01*
X95026141Y-41998675D01*
X94698675Y-42326141D01*
X94313616Y-42583429D01*
X94313615Y-42583430D01*
X94313614Y-42583430D01*
X94204223Y-42628741D01*
X93885761Y-42760652D01*
X93734358Y-42790768D01*
X93431555Y-42851000D01*
X92968445Y-42851000D01*
X92665642Y-42790768D01*
X92514239Y-42760652D01*
X92195777Y-42628741D01*
X92086386Y-42583430D01*
X92086385Y-42583430D01*
X92086384Y-42583429D01*
X91701325Y-42326141D01*
X91373859Y-41998675D01*
X91116571Y-41613616D01*
X90939348Y-41185761D01*
X90882705Y-40901000D01*
X90849000Y-40731555D01*
X90849000Y-40268445D01*
X90939348Y-39814240D01*
X90961545Y-39760652D01*
X91070675Y-39497188D01*
X91116570Y-39386386D01*
X91116571Y-39386384D01*
X91373859Y-39001325D01*
X91701325Y-38673859D01*
X92086384Y-38416571D01*
X92514239Y-38239348D01*
X92665642Y-38209232D01*
X92968445Y-38149000D01*
X93431555Y-38149000D01*
X93734358Y-38209232D01*
G37*
G36*
X3777395Y-39085546D02*
G01*
X3950466Y-39157234D01*
X3950467Y-39157235D01*
X4106227Y-39261310D01*
X4238690Y-39393773D01*
X4238691Y-39393775D01*
X4342766Y-39549534D01*
X4414454Y-39722605D01*
X4451000Y-39906333D01*
X4451000Y-40093667D01*
X4414454Y-40277395D01*
X4342766Y-40450466D01*
X4342765Y-40450467D01*
X4238690Y-40606227D01*
X4106227Y-40738690D01*
X4027818Y-40791081D01*
X3950466Y-40842766D01*
X3777395Y-40914454D01*
X3593667Y-40951000D01*
X3406333Y-40951000D01*
X3222605Y-40914454D01*
X3049534Y-40842766D01*
X2972182Y-40791081D01*
X2893773Y-40738690D01*
X2761310Y-40606227D01*
X2657235Y-40450467D01*
X2657234Y-40450466D01*
X2585546Y-40277395D01*
X2549000Y-40093667D01*
X2549000Y-39906333D01*
X2585546Y-39722605D01*
X2657234Y-39549534D01*
X2761309Y-39393775D01*
X2761310Y-39393773D01*
X2893773Y-39261310D01*
X3049533Y-39157235D01*
X3049534Y-39157234D01*
X3222605Y-39085546D01*
X3406333Y-39049000D01*
X3593667Y-39049000D01*
X3777395Y-39085546D01*
G37*
G36*
X18901000Y-40901000D02*
G01*
X17099000Y-40901000D01*
X17099000Y-39099000D01*
X18901000Y-39099000D01*
X18901000Y-40901000D01*
G37*
G36*
X78113512Y-38863927D02*
G01*
X78262812Y-38893624D01*
X78426784Y-38961544D01*
X78574354Y-39060147D01*
X78699853Y-39185646D01*
X78798456Y-39333216D01*
X78866376Y-39497188D01*
X78901000Y-39671259D01*
X78901000Y-39848741D01*
X78866376Y-40022812D01*
X78798456Y-40186784D01*
X78699853Y-40334354D01*
X78574354Y-40459853D01*
X78426784Y-40558456D01*
X78262812Y-40626376D01*
X78113512Y-40656073D01*
X78088742Y-40661000D01*
X77911258Y-40661000D01*
X77886488Y-40656073D01*
X77737188Y-40626376D01*
X77573216Y-40558456D01*
X77425646Y-40459853D01*
X77300147Y-40334354D01*
X77201544Y-40186784D01*
X77133624Y-40022812D01*
X77099000Y-39848741D01*
X77099000Y-39671259D01*
X77133624Y-39497188D01*
X77201544Y-39333216D01*
X77300147Y-39185646D01*
X77425646Y-39060147D01*
X77573216Y-38961544D01*
X77737188Y-38893624D01*
X77886488Y-38863927D01*
X77911258Y-38859000D01*
X78088742Y-38859000D01*
X78113512Y-38863927D01*
G37*
G36*
X82113512Y-38863927D02*
G01*
X82262812Y-38893624D01*
X82426784Y-38961544D01*
X82574354Y-39060147D01*
X82699853Y-39185646D01*
X82798456Y-39333216D01*
X82866376Y-39497188D01*
X82901000Y-39671259D01*
X82901000Y-39848741D01*
X82866376Y-40022812D01*
X82798456Y-40186784D01*
X82699853Y-40334354D01*
X82574354Y-40459853D01*
X82426784Y-40558456D01*
X82262812Y-40626376D01*
X82113512Y-40656073D01*
X82088742Y-40661000D01*
X81911258Y-40661000D01*
X81886488Y-40656073D01*
X81737188Y-40626376D01*
X81573216Y-40558456D01*
X81425646Y-40459853D01*
X81300147Y-40334354D01*
X81201544Y-40186784D01*
X81133624Y-40022812D01*
X81099000Y-39848741D01*
X81099000Y-39671259D01*
X81133624Y-39497188D01*
X81201544Y-39333216D01*
X81300147Y-39185646D01*
X81425646Y-39060147D01*
X81573216Y-38961544D01*
X81737188Y-38893624D01*
X81886488Y-38863927D01*
X81911258Y-38859000D01*
X82088742Y-38859000D01*
X82113512Y-38863927D01*
G37*
G36*
X65051000Y-40301000D02*
G01*
X62949000Y-40301000D01*
X62949000Y-37699000D01*
X65051000Y-37699000D01*
X65051000Y-40301000D01*
G37*
G36*
X61051000Y-40301000D02*
G01*
X58949000Y-40301000D01*
X58949000Y-37699000D01*
X61051000Y-37699000D01*
X61051000Y-40301000D01*
G37*
G36*
X37051000Y-40301000D02*
G01*
X34949000Y-40301000D01*
X34949000Y-37699000D01*
X37051000Y-37699000D01*
X37051000Y-40301000D01*
G37*
G36*
X33051000Y-40301000D02*
G01*
X30949000Y-40301000D01*
X30949000Y-37699000D01*
X33051000Y-37699000D01*
X33051000Y-40301000D01*
G37*
G36*
X7334358Y-35209232D02*
G01*
X7485761Y-35239348D01*
X7913616Y-35416571D01*
X8298675Y-35673859D01*
X8626141Y-36001325D01*
X8883429Y-36386384D01*
X9051945Y-36793218D01*
X9060652Y-36814240D01*
X9151000Y-37268445D01*
X9151000Y-37731555D01*
X9138508Y-37794354D01*
X9060652Y-38185761D01*
X8883429Y-38613616D01*
X8626141Y-38998675D01*
X8298675Y-39326141D01*
X7913616Y-39583429D01*
X7485761Y-39760652D01*
X7334358Y-39790768D01*
X7031555Y-39851000D01*
X6568445Y-39851000D01*
X6265642Y-39790768D01*
X6114239Y-39760652D01*
X5686384Y-39583429D01*
X5301325Y-39326141D01*
X4973859Y-38998675D01*
X4716571Y-38613616D01*
X4539348Y-38185761D01*
X4461492Y-37794354D01*
X4449000Y-37731555D01*
X4449000Y-37268445D01*
X4539348Y-36814240D01*
X4548056Y-36793218D01*
X4716571Y-36386384D01*
X4973859Y-36001325D01*
X5301325Y-35673859D01*
X5686384Y-35416571D01*
X6114239Y-35239348D01*
X6265642Y-35209232D01*
X6568445Y-35149000D01*
X7031555Y-35149000D01*
X7334358Y-35209232D01*
G37*
G36*
X78113512Y-36323927D02*
G01*
X78262812Y-36353624D01*
X78426784Y-36421544D01*
X78574354Y-36520147D01*
X78699853Y-36645646D01*
X78798456Y-36793216D01*
X78866376Y-36957188D01*
X78901000Y-37131259D01*
X78901000Y-37308741D01*
X78866376Y-37482812D01*
X78798456Y-37646784D01*
X78699853Y-37794354D01*
X78574354Y-37919853D01*
X78426784Y-38018456D01*
X78262812Y-38086376D01*
X78113512Y-38116073D01*
X78088742Y-38121000D01*
X77911258Y-38121000D01*
X77886488Y-38116073D01*
X77737188Y-38086376D01*
X77573216Y-38018456D01*
X77425646Y-37919853D01*
X77300147Y-37794354D01*
X77201544Y-37646784D01*
X77133624Y-37482812D01*
X77099000Y-37308741D01*
X77099000Y-37131259D01*
X77133624Y-36957188D01*
X77201544Y-36793216D01*
X77300147Y-36645646D01*
X77425646Y-36520147D01*
X77573216Y-36421544D01*
X77737188Y-36353624D01*
X77886488Y-36323927D01*
X77911258Y-36319000D01*
X78088742Y-36319000D01*
X78113512Y-36323927D01*
G37*
G36*
X82113512Y-36323927D02*
G01*
X82262812Y-36353624D01*
X82426784Y-36421544D01*
X82574354Y-36520147D01*
X82699853Y-36645646D01*
X82798456Y-36793216D01*
X82866376Y-36957188D01*
X82901000Y-37131259D01*
X82901000Y-37308741D01*
X82866376Y-37482812D01*
X82798456Y-37646784D01*
X82699853Y-37794354D01*
X82574354Y-37919853D01*
X82426784Y-38018456D01*
X82262812Y-38086376D01*
X82113512Y-38116073D01*
X82088742Y-38121000D01*
X81911258Y-38121000D01*
X81886488Y-38116073D01*
X81737188Y-38086376D01*
X81573216Y-38018456D01*
X81425646Y-37919853D01*
X81300147Y-37794354D01*
X81201544Y-37646784D01*
X81133624Y-37482812D01*
X81099000Y-37308741D01*
X81099000Y-37131259D01*
X81133624Y-36957188D01*
X81201544Y-36793216D01*
X81300147Y-36645646D01*
X81425646Y-36520147D01*
X81573216Y-36421544D01*
X81737188Y-36353624D01*
X81886488Y-36323927D01*
X81911258Y-36319000D01*
X82088742Y-36319000D01*
X82113512Y-36323927D01*
G37*
G36*
X45226000Y-37231000D02*
G01*
X43374000Y-37231000D01*
X43374000Y-36579000D01*
X45226000Y-36579000D01*
X45226000Y-37231000D01*
G37*
G36*
X52626000Y-37231000D02*
G01*
X50774000Y-37231000D01*
X50774000Y-36579000D01*
X52626000Y-36579000D01*
X52626000Y-37231000D01*
G37*
G36*
X45226000Y-35961000D02*
G01*
X43374000Y-35961000D01*
X43374000Y-35309000D01*
X45226000Y-35309000D01*
X45226000Y-35961000D01*
G37*
G36*
X52626000Y-35961000D02*
G01*
X50774000Y-35961000D01*
X50774000Y-35309000D01*
X52626000Y-35309000D01*
X52626000Y-35961000D01*
G37*
G36*
X82113512Y-33783927D02*
G01*
X82262812Y-33813624D01*
X82426784Y-33881544D01*
X82574354Y-33980147D01*
X82699853Y-34105646D01*
X82798456Y-34253216D01*
X82866376Y-34417188D01*
X82901000Y-34591259D01*
X82901000Y-34768741D01*
X82866376Y-34942812D01*
X82798456Y-35106784D01*
X82699853Y-35254354D01*
X82574354Y-35379853D01*
X82426784Y-35478456D01*
X82262812Y-35546376D01*
X82113512Y-35576073D01*
X82088742Y-35581000D01*
X81911258Y-35581000D01*
X81886488Y-35576073D01*
X81737188Y-35546376D01*
X81573216Y-35478456D01*
X81425646Y-35379853D01*
X81300147Y-35254354D01*
X81201544Y-35106784D01*
X81133624Y-34942812D01*
X81099000Y-34768741D01*
X81099000Y-34591259D01*
X81133624Y-34417188D01*
X81201544Y-34253216D01*
X81300147Y-34105646D01*
X81425646Y-33980147D01*
X81573216Y-33881544D01*
X81737188Y-33813624D01*
X81886488Y-33783927D01*
X81911258Y-33779000D01*
X82088742Y-33779000D01*
X82113512Y-33783927D01*
G37*
G36*
X78113512Y-33783927D02*
G01*
X78262812Y-33813624D01*
X78426784Y-33881544D01*
X78574354Y-33980147D01*
X78699853Y-34105646D01*
X78798456Y-34253216D01*
X78866376Y-34417188D01*
X78901000Y-34591259D01*
X78901000Y-34768741D01*
X78866376Y-34942812D01*
X78798456Y-35106784D01*
X78699853Y-35254354D01*
X78574354Y-35379853D01*
X78426784Y-35478456D01*
X78262812Y-35546376D01*
X78113512Y-35576073D01*
X78088742Y-35581000D01*
X77911258Y-35581000D01*
X77886488Y-35576073D01*
X77737188Y-35546376D01*
X77573216Y-35478456D01*
X77425646Y-35379853D01*
X77300147Y-35254354D01*
X77201544Y-35106784D01*
X77133624Y-34942812D01*
X77099000Y-34768741D01*
X77099000Y-34591259D01*
X77133624Y-34417188D01*
X77201544Y-34253216D01*
X77300147Y-34105646D01*
X77425646Y-33980147D01*
X77573216Y-33881544D01*
X77737188Y-33813624D01*
X77886488Y-33783927D01*
X77911258Y-33779000D01*
X78088742Y-33779000D01*
X78113512Y-33783927D01*
G37*
G36*
X65051000Y-35301000D02*
G01*
X62949000Y-35301000D01*
X62949000Y-32699000D01*
X65051000Y-32699000D01*
X65051000Y-35301000D01*
G37*
G36*
X33051000Y-35301000D02*
G01*
X30949000Y-35301000D01*
X30949000Y-32699000D01*
X33051000Y-32699000D01*
X33051000Y-35301000D01*
G37*
G36*
X37051000Y-35301000D02*
G01*
X34949000Y-35301000D01*
X34949000Y-32699000D01*
X37051000Y-32699000D01*
X37051000Y-35301000D01*
G37*
G36*
X61051000Y-35301000D02*
G01*
X58949000Y-35301000D01*
X58949000Y-32699000D01*
X61051000Y-32699000D01*
X61051000Y-35301000D01*
G37*
G36*
X45226000Y-34691000D02*
G01*
X43374000Y-34691000D01*
X43374000Y-34039000D01*
X45226000Y-34039000D01*
X45226000Y-34691000D01*
G37*
G36*
X52626000Y-34691000D02*
G01*
X50774000Y-34691000D01*
X50774000Y-34039000D01*
X52626000Y-34039000D01*
X52626000Y-34691000D01*
G37*
G36*
X52626000Y-33421000D02*
G01*
X50774000Y-33421000D01*
X50774000Y-32769000D01*
X52626000Y-32769000D01*
X52626000Y-33421000D01*
G37*
G36*
X45226000Y-33421000D02*
G01*
X43374000Y-33421000D01*
X43374000Y-32769000D01*
X45226000Y-32769000D01*
X45226000Y-33421000D01*
G37*
G36*
X82113512Y-31243927D02*
G01*
X82262812Y-31273624D01*
X82426784Y-31341544D01*
X82574354Y-31440147D01*
X82699853Y-31565646D01*
X82798456Y-31713216D01*
X82866376Y-31877188D01*
X82901000Y-32051259D01*
X82901000Y-32228741D01*
X82866376Y-32402812D01*
X82798456Y-32566784D01*
X82699853Y-32714354D01*
X82574354Y-32839853D01*
X82426784Y-32938456D01*
X82262812Y-33006376D01*
X82113512Y-33036073D01*
X82088742Y-33041000D01*
X81911258Y-33041000D01*
X81886488Y-33036073D01*
X81737188Y-33006376D01*
X81573216Y-32938456D01*
X81425646Y-32839853D01*
X81300147Y-32714354D01*
X81201544Y-32566784D01*
X81133624Y-32402812D01*
X81099000Y-32228741D01*
X81099000Y-32051259D01*
X81133624Y-31877188D01*
X81201544Y-31713216D01*
X81300147Y-31565646D01*
X81425646Y-31440147D01*
X81573216Y-31341544D01*
X81737188Y-31273624D01*
X81886488Y-31243927D01*
X81911258Y-31239000D01*
X82088742Y-31239000D01*
X82113512Y-31243927D01*
G37*
G36*
X78113512Y-31243927D02*
G01*
X78262812Y-31273624D01*
X78426784Y-31341544D01*
X78574354Y-31440147D01*
X78699853Y-31565646D01*
X78798456Y-31713216D01*
X78866376Y-31877188D01*
X78901000Y-32051259D01*
X78901000Y-32228741D01*
X78866376Y-32402812D01*
X78798456Y-32566784D01*
X78699853Y-32714354D01*
X78574354Y-32839853D01*
X78426784Y-32938456D01*
X78262812Y-33006376D01*
X78113512Y-33036073D01*
X78088742Y-33041000D01*
X77911258Y-33041000D01*
X77886488Y-33036073D01*
X77737188Y-33006376D01*
X77573216Y-32938456D01*
X77425646Y-32839853D01*
X77300147Y-32714354D01*
X77201544Y-32566784D01*
X77133624Y-32402812D01*
X77099000Y-32228741D01*
X77099000Y-32051259D01*
X77133624Y-31877188D01*
X77201544Y-31713216D01*
X77300147Y-31565646D01*
X77425646Y-31440147D01*
X77573216Y-31341544D01*
X77737188Y-31273624D01*
X77886488Y-31243927D01*
X77911258Y-31239000D01*
X78088742Y-31239000D01*
X78113512Y-31243927D01*
G37*
G36*
X82113512Y-28703927D02*
G01*
X82262812Y-28733624D01*
X82426784Y-28801544D01*
X82574354Y-28900147D01*
X82699853Y-29025646D01*
X82798456Y-29173216D01*
X82866376Y-29337188D01*
X82901000Y-29511259D01*
X82901000Y-29688741D01*
X82866376Y-29862812D01*
X82798456Y-30026784D01*
X82699853Y-30174354D01*
X82574354Y-30299853D01*
X82426784Y-30398456D01*
X82262812Y-30466376D01*
X82113512Y-30496073D01*
X82088742Y-30501000D01*
X81911258Y-30501000D01*
X81886488Y-30496073D01*
X81737188Y-30466376D01*
X81573216Y-30398456D01*
X81425646Y-30299853D01*
X81300147Y-30174354D01*
X81201544Y-30026784D01*
X81133624Y-29862812D01*
X81099000Y-29688741D01*
X81099000Y-29511259D01*
X81133624Y-29337188D01*
X81201544Y-29173216D01*
X81300147Y-29025646D01*
X81425646Y-28900147D01*
X81573216Y-28801544D01*
X81737188Y-28733624D01*
X81886488Y-28703927D01*
X81911258Y-28699000D01*
X82088742Y-28699000D01*
X82113512Y-28703927D01*
G37*
G36*
X78113512Y-28703927D02*
G01*
X78262812Y-28733624D01*
X78426784Y-28801544D01*
X78574354Y-28900147D01*
X78699853Y-29025646D01*
X78798456Y-29173216D01*
X78866376Y-29337188D01*
X78901000Y-29511259D01*
X78901000Y-29688741D01*
X78866376Y-29862812D01*
X78798456Y-30026784D01*
X78699853Y-30174354D01*
X78574354Y-30299853D01*
X78426784Y-30398456D01*
X78262812Y-30466376D01*
X78113512Y-30496073D01*
X78088742Y-30501000D01*
X77911258Y-30501000D01*
X77886488Y-30496073D01*
X77737188Y-30466376D01*
X77573216Y-30398456D01*
X77425646Y-30299853D01*
X77300147Y-30174354D01*
X77201544Y-30026784D01*
X77133624Y-29862812D01*
X77099000Y-29688741D01*
X77099000Y-29511259D01*
X77133624Y-29337188D01*
X77201544Y-29173216D01*
X77300147Y-29025646D01*
X77425646Y-28900147D01*
X77573216Y-28801544D01*
X77737188Y-28733624D01*
X77886488Y-28703927D01*
X77911258Y-28699000D01*
X78088742Y-28699000D01*
X78113512Y-28703927D01*
G37*
G36*
X37051000Y-30301000D02*
G01*
X34949000Y-30301000D01*
X34949000Y-27699000D01*
X37051000Y-27699000D01*
X37051000Y-30301000D01*
G37*
G36*
X33051000Y-30301000D02*
G01*
X30949000Y-30301000D01*
X30949000Y-27699000D01*
X33051000Y-27699000D01*
X33051000Y-30301000D01*
G37*
G36*
X61051000Y-30301000D02*
G01*
X58949000Y-30301000D01*
X58949000Y-27699000D01*
X61051000Y-27699000D01*
X61051000Y-30301000D01*
G37*
G36*
X65051000Y-30301000D02*
G01*
X62949000Y-30301000D01*
X62949000Y-27699000D01*
X65051000Y-27699000D01*
X65051000Y-30301000D01*
G37*
G36*
X91351000Y-28751000D02*
G01*
X89049000Y-28751000D01*
X89049000Y-27649000D01*
X91351000Y-27649000D01*
X91351000Y-28751000D01*
G37*
G36*
X78113512Y-26163927D02*
G01*
X78262812Y-26193624D01*
X78426784Y-26261544D01*
X78574354Y-26360147D01*
X78699853Y-26485646D01*
X78798456Y-26633216D01*
X78866376Y-26797188D01*
X78901000Y-26971259D01*
X78901000Y-27148741D01*
X78866376Y-27322812D01*
X78798456Y-27486784D01*
X78699853Y-27634354D01*
X78574354Y-27759853D01*
X78426784Y-27858456D01*
X78262812Y-27926376D01*
X78113512Y-27956073D01*
X78088742Y-27961000D01*
X77911258Y-27961000D01*
X77886488Y-27956073D01*
X77737188Y-27926376D01*
X77573216Y-27858456D01*
X77425646Y-27759853D01*
X77300147Y-27634354D01*
X77201544Y-27486784D01*
X77133624Y-27322812D01*
X77099000Y-27148741D01*
X77099000Y-26971259D01*
X77133624Y-26797188D01*
X77201544Y-26633216D01*
X77300147Y-26485646D01*
X77425646Y-26360147D01*
X77573216Y-26261544D01*
X77737188Y-26193624D01*
X77886488Y-26163927D01*
X77911258Y-26159000D01*
X78088742Y-26159000D01*
X78113512Y-26163927D01*
G37*
G36*
X82113512Y-26163927D02*
G01*
X82262812Y-26193624D01*
X82426784Y-26261544D01*
X82574354Y-26360147D01*
X82699853Y-26485646D01*
X82798456Y-26633216D01*
X82866376Y-26797188D01*
X82901000Y-26971259D01*
X82901000Y-27148741D01*
X82866376Y-27322812D01*
X82798456Y-27486784D01*
X82699853Y-27634354D01*
X82574354Y-27759853D01*
X82426784Y-27858456D01*
X82262812Y-27926376D01*
X82113512Y-27956073D01*
X82088742Y-27961000D01*
X81911258Y-27961000D01*
X81886488Y-27956073D01*
X81737188Y-27926376D01*
X81573216Y-27858456D01*
X81425646Y-27759853D01*
X81300147Y-27634354D01*
X81201544Y-27486784D01*
X81133624Y-27322812D01*
X81099000Y-27148741D01*
X81099000Y-26971259D01*
X81133624Y-26797188D01*
X81201544Y-26633216D01*
X81300147Y-26485646D01*
X81425646Y-26360147D01*
X81573216Y-26261544D01*
X81737188Y-26193624D01*
X81886488Y-26163927D01*
X81911258Y-26159000D01*
X82088742Y-26159000D01*
X82113512Y-26163927D01*
G37*
G36*
X13551000Y-27151000D02*
G01*
X12449000Y-27151000D01*
X12449000Y-24849000D01*
X13551000Y-24849000D01*
X13551000Y-27151000D01*
G37*
G36*
X6551000Y-27051000D02*
G01*
X4249000Y-27051000D01*
X4249000Y-25949000D01*
X6551000Y-25949000D01*
X6551000Y-27051000D01*
G37*
G36*
X92751000Y-26051000D02*
G01*
X90449000Y-26051000D01*
X90449000Y-24949000D01*
X92751000Y-24949000D01*
X92751000Y-26051000D01*
G37*
G36*
X52501000Y-25851000D02*
G01*
X48899000Y-25851000D01*
X48899000Y-24149000D01*
X52501000Y-24149000D01*
X52501000Y-25851000D01*
G37*
G36*
X47101000Y-25851000D02*
G01*
X43499000Y-25851000D01*
X43499000Y-24149000D01*
X47101000Y-24149000D01*
X47101000Y-25851000D01*
G37*
G36*
X65051000Y-25301000D02*
G01*
X62949000Y-25301000D01*
X62949000Y-22699000D01*
X65051000Y-22699000D01*
X65051000Y-25301000D01*
G37*
G36*
X61051000Y-25301000D02*
G01*
X58949000Y-25301000D01*
X58949000Y-22699000D01*
X61051000Y-22699000D01*
X61051000Y-25301000D01*
G37*
G36*
X37051000Y-25301000D02*
G01*
X34949000Y-25301000D01*
X34949000Y-22699000D01*
X37051000Y-22699000D01*
X37051000Y-25301000D01*
G37*
G36*
X33051000Y-25301000D02*
G01*
X30949000Y-25301000D01*
X30949000Y-22699000D01*
X33051000Y-22699000D01*
X33051000Y-25301000D01*
G37*
G36*
X98551000Y-24151000D02*
G01*
X97449000Y-24151000D01*
X97449000Y-21849000D01*
X98551000Y-21849000D01*
X98551000Y-24151000D01*
G37*
G36*
X2551000Y-23151000D02*
G01*
X1449000Y-23151000D01*
X1449000Y-20849000D01*
X2551000Y-20849000D01*
X2551000Y-23151000D01*
G37*
G36*
X73951000Y-22301000D02*
G01*
X72549000Y-22301000D01*
X72549000Y-20599000D01*
X73951000Y-20599000D01*
X73951000Y-22301000D01*
G37*
G36*
X71451000Y-22301000D02*
G01*
X70049000Y-22301000D01*
X70049000Y-20599000D01*
X71451000Y-20599000D01*
X71451000Y-22301000D01*
G37*
G36*
X53051000Y-20801000D02*
G01*
X50949000Y-20801000D01*
X50949000Y-18199000D01*
X53051000Y-18199000D01*
X53051000Y-20801000D01*
G37*
G36*
X57051000Y-20801000D02*
G01*
X54949000Y-20801000D01*
X54949000Y-18199000D01*
X57051000Y-18199000D01*
X57051000Y-20801000D01*
G37*
G36*
X37051000Y-20301000D02*
G01*
X34949000Y-20301000D01*
X34949000Y-17699000D01*
X37051000Y-17699000D01*
X37051000Y-20301000D01*
G37*
G36*
X33051000Y-20301000D02*
G01*
X30949000Y-20301000D01*
X30949000Y-17699000D01*
X33051000Y-17699000D01*
X33051000Y-20301000D01*
G37*
G36*
X65051000Y-20301000D02*
G01*
X62949000Y-20301000D01*
X62949000Y-17699000D01*
X65051000Y-17699000D01*
X65051000Y-20301000D01*
G37*
G36*
X61051000Y-20301000D02*
G01*
X58949000Y-20301000D01*
X58949000Y-17699000D01*
X61051000Y-17699000D01*
X61051000Y-20301000D01*
G37*
G36*
X87551000Y-20151000D02*
G01*
X86449000Y-20151000D01*
X86449000Y-17849000D01*
X87551000Y-17849000D01*
X87551000Y-20151000D01*
G37*
G36*
X9551000Y-20051000D02*
G01*
X7249000Y-20051000D01*
X7249000Y-18949000D01*
X9551000Y-18949000D01*
X9551000Y-20051000D01*
G37*
G36*
X73051000Y-19401000D02*
G01*
X70949000Y-19401000D01*
X70949000Y-17699000D01*
X73051000Y-17699000D01*
X73051000Y-19401000D01*
G37*
G36*
X95751000Y-19051000D02*
G01*
X93449000Y-19051000D01*
X93449000Y-17949000D01*
X95751000Y-17949000D01*
X95751000Y-19051000D01*
G37*
G36*
X10951000Y-17351000D02*
G01*
X8649000Y-17351000D01*
X8649000Y-16249000D01*
X10951000Y-16249000D01*
X10951000Y-17351000D01*
G37*
G36*
X46126000Y-17256000D02*
G01*
X44474000Y-17256000D01*
X44474000Y-16554000D01*
X46126000Y-16554000D01*
X46126000Y-17256000D01*
G37*
G36*
X51526000Y-17256000D02*
G01*
X49874000Y-17256000D01*
X49874000Y-16554000D01*
X51526000Y-16554000D01*
X51526000Y-17256000D01*
G37*
G36*
X46126000Y-15986000D02*
G01*
X44474000Y-15986000D01*
X44474000Y-15284000D01*
X46126000Y-15284000D01*
X46126000Y-15986000D01*
G37*
G36*
X51526000Y-15986000D02*
G01*
X49874000Y-15986000D01*
X49874000Y-15284000D01*
X51526000Y-15284000D01*
X51526000Y-15986000D01*
G37*
G36*
X65051000Y-15301000D02*
G01*
X62949000Y-15301000D01*
X62949000Y-12699000D01*
X65051000Y-12699000D01*
X65051000Y-15301000D01*
G37*
G36*
X33051000Y-15301000D02*
G01*
X30949000Y-15301000D01*
X30949000Y-12699000D01*
X33051000Y-12699000D01*
X33051000Y-15301000D01*
G37*
G36*
X37051000Y-15301000D02*
G01*
X34949000Y-15301000D01*
X34949000Y-12699000D01*
X37051000Y-12699000D01*
X37051000Y-15301000D01*
G37*
G36*
X61051000Y-15301000D02*
G01*
X58949000Y-15301000D01*
X58949000Y-12699000D01*
X61051000Y-12699000D01*
X61051000Y-15301000D01*
G37*
G36*
X46126000Y-14716000D02*
G01*
X44474000Y-14716000D01*
X44474000Y-14014000D01*
X46126000Y-14014000D01*
X46126000Y-14716000D01*
G37*
G36*
X51526000Y-14716000D02*
G01*
X49874000Y-14716000D01*
X49874000Y-14014000D01*
X51526000Y-14014000D01*
X51526000Y-14716000D01*
G37*
G36*
X91351000Y-13751000D02*
G01*
X89049000Y-13751000D01*
X89049000Y-12649000D01*
X91351000Y-12649000D01*
X91351000Y-13751000D01*
G37*
G36*
X51526000Y-13446000D02*
G01*
X49874000Y-13446000D01*
X49874000Y-12744000D01*
X51526000Y-12744000D01*
X51526000Y-13446000D01*
G37*
G36*
X46126000Y-13446000D02*
G01*
X44474000Y-13446000D01*
X44474000Y-12744000D01*
X46126000Y-12744000D01*
X46126000Y-13446000D01*
G37*
G36*
X73501000Y-11401000D02*
G01*
X72499000Y-11401000D01*
X72499000Y-10499000D01*
X73501000Y-10499000D01*
X73501000Y-11401000D01*
G37*
G36*
X92751000Y-11051000D02*
G01*
X90449000Y-11051000D01*
X90449000Y-9949000D01*
X92751000Y-9949000D01*
X92751000Y-11051000D01*
G37*
G36*
X71501000Y-10451000D02*
G01*
X70499000Y-10451000D01*
X70499000Y-9549000D01*
X71501000Y-9549000D01*
X71501000Y-10451000D01*
G37*
G36*
X37051000Y-10301000D02*
G01*
X34949000Y-10301000D01*
X34949000Y-7699000D01*
X37051000Y-7699000D01*
X37051000Y-10301000D01*
G37*
G36*
X65051000Y-10301000D02*
G01*
X62949000Y-10301000D01*
X62949000Y-7699000D01*
X65051000Y-7699000D01*
X65051000Y-10301000D01*
G37*
G36*
X33051000Y-10301000D02*
G01*
X30949000Y-10301000D01*
X30949000Y-7699000D01*
X33051000Y-7699000D01*
X33051000Y-10301000D01*
G37*
G36*
X61051000Y-10301000D02*
G01*
X58949000Y-10301000D01*
X58949000Y-7699000D01*
X61051000Y-7699000D01*
X61051000Y-10301000D01*
G37*
G36*
X73501000Y-9501000D02*
G01*
X72499000Y-9501000D01*
X72499000Y-8599000D01*
X73501000Y-8599000D01*
X73501000Y-9501000D01*
G37*
G36*
X98551000Y-9151000D02*
G01*
X97449000Y-9151000D01*
X97449000Y-6849000D01*
X98551000Y-6849000D01*
X98551000Y-9151000D01*
G37*
G36*
X52501000Y-6851000D02*
G01*
X48899000Y-6851000D01*
X48899000Y-5149000D01*
X52501000Y-5149000D01*
X52501000Y-6851000D01*
G37*
G36*
X47101000Y-6851000D02*
G01*
X43499000Y-6851000D01*
X43499000Y-5149000D01*
X47101000Y-5149000D01*
X47101000Y-6851000D01*
G37*
G36*
X65051000Y-5301000D02*
G01*
X62949000Y-5301000D01*
X62949000Y-2699000D01*
X65051000Y-2699000D01*
X65051000Y-5301000D01*
G37*
G36*
X37051000Y-5301000D02*
G01*
X34949000Y-5301000D01*
X34949000Y-2699000D01*
X37051000Y-2699000D01*
X37051000Y-5301000D01*
G37*
G36*
X33051000Y-5301000D02*
G01*
X30949000Y-5301000D01*
X30949000Y-2699000D01*
X33051000Y-2699000D01*
X33051000Y-5301000D01*
G37*
G36*
X61051000Y-5301000D02*
G01*
X58949000Y-5301000D01*
X58949000Y-2699000D01*
X61051000Y-2699000D01*
X61051000Y-5301000D01*
G37*
G36*
X87551000Y-5151000D02*
G01*
X86449000Y-5151000D01*
X86449000Y-2849000D01*
X87551000Y-2849000D01*
X87551000Y-5151000D01*
G37*
G36*
X95751000Y-4051000D02*
G01*
X93449000Y-4051000D01*
X93449000Y-2949000D01*
X95751000Y-2949000D01*
X95751000Y-4051000D01*
G37*
M02*
