G04 #@! TF.GenerationSoftware,KiCad,Pcbnew,(5.1.5)-3*
G04 #@! TF.CreationDate,2020-12-06T19:13:11-07:00*
G04 #@! TF.ProjectId,LFO,4c464f2e-6b69-4636-9164-5f7063625858,rev?*
G04 #@! TF.SameCoordinates,Original*
G04 #@! TF.FileFunction,Copper,L2,Bot*
G04 #@! TF.FilePolarity,Positive*
%FSLAX46Y46*%
G04 Gerber Fmt 4.6, Leading zero omitted, Abs format (unit mm)*
G04 Created by KiCad (PCBNEW (5.1.5)-3) date 2020-12-06 19:13:11*
%MOMM*%
%LPD*%
G04 APERTURE LIST*
%ADD10C,4.600000*%
%ADD11C,1.800000*%
%ADD12R,2.200000X1.000000*%
%ADD13R,1.000000X2.200000*%
%ADD14O,1.700000X1.700000*%
%ADD15R,1.700000X1.700000*%
%ADD16C,1.524000*%
%ADD17R,1.800000X1.800000*%
%ADD18C,0.800000*%
%ADD19C,0.250000*%
%ADD20C,0.400000*%
%ADD21C,0.254000*%
G04 APERTURE END LIST*
D10*
X93200000Y-50500000D03*
X93200000Y-40500000D03*
D11*
X96500000Y-48000000D03*
X96500000Y-45500000D03*
X96500000Y-43000000D03*
D12*
X90200000Y-13200000D03*
X91600000Y-10500000D03*
D13*
X87000000Y-4000000D03*
D12*
X94600000Y-3500000D03*
D13*
X98000000Y-8000000D03*
X98000000Y-23000000D03*
D12*
X94600000Y-18500000D03*
D13*
X87000000Y-19000000D03*
D12*
X91600000Y-25500000D03*
X90200000Y-28200000D03*
D14*
X82000000Y-27060000D03*
X82000000Y-29600000D03*
X82000000Y-32140000D03*
X82000000Y-34680000D03*
X82000000Y-37220000D03*
X82000000Y-39760000D03*
X82000000Y-42300000D03*
X82000000Y-44840000D03*
X82000000Y-47380000D03*
X82000000Y-49920000D03*
X82000000Y-52460000D03*
D15*
X82000000Y-55000000D03*
D16*
X90730000Y-67460000D03*
X90730000Y-70000000D03*
X90730000Y-72540000D03*
X88190000Y-67460000D03*
X88190000Y-70000000D03*
X88190000Y-72540000D03*
X95810000Y-72540000D03*
X95840000Y-67460000D03*
D13*
X98000000Y-88000000D03*
D12*
X94600000Y-83500000D03*
D13*
X87000000Y-84000000D03*
D12*
X91600000Y-90500000D03*
X90200000Y-93200000D03*
D11*
X95460000Y-102000000D03*
D17*
X98000000Y-102000000D03*
D11*
X3500000Y-45000000D03*
X3500000Y-42500000D03*
X3500000Y-40000000D03*
D10*
X6800000Y-47500000D03*
X6800000Y-37500000D03*
X6800000Y-59500000D03*
X6800000Y-69500000D03*
D11*
X3500000Y-62000000D03*
X3500000Y-64500000D03*
X3500000Y-67000000D03*
D13*
X2000000Y-87000000D03*
D12*
X5400000Y-91500000D03*
D13*
X13000000Y-91000000D03*
D12*
X8400000Y-84500000D03*
X9800000Y-81800000D03*
X9800000Y-16800000D03*
X8400000Y-19500000D03*
D13*
X13000000Y-26000000D03*
D12*
X5400000Y-26500000D03*
D13*
X2000000Y-22000000D03*
D14*
X18000000Y-55240000D03*
X18000000Y-52700000D03*
X18000000Y-50160000D03*
X18000000Y-47620000D03*
X18000000Y-45080000D03*
X18000000Y-42540000D03*
D15*
X18000000Y-40000000D03*
D12*
X9800000Y-96800000D03*
X8400000Y-99500000D03*
D13*
X13000000Y-106000000D03*
D12*
X5400000Y-106500000D03*
D13*
X2000000Y-102000000D03*
D15*
X22000000Y-60000000D03*
D14*
X22000000Y-57460000D03*
X22000000Y-54920000D03*
X22000000Y-52380000D03*
X22000000Y-49840000D03*
X22000000Y-47300000D03*
X22000000Y-44760000D03*
X24540000Y-107780000D03*
X22000000Y-107780000D03*
X24540000Y-105240000D03*
X22000000Y-105240000D03*
X24540000Y-102700000D03*
X22000000Y-102700000D03*
X24540000Y-100160000D03*
X22000000Y-100160000D03*
X24540000Y-97620000D03*
X22000000Y-97620000D03*
X24540000Y-95080000D03*
X22000000Y-95080000D03*
X24540000Y-92540000D03*
X22000000Y-92540000D03*
X24540000Y-90000000D03*
D15*
X22000000Y-90000000D03*
X78000000Y-55000000D03*
D14*
X78000000Y-52460000D03*
X78000000Y-49920000D03*
X78000000Y-47380000D03*
X78000000Y-44840000D03*
X78000000Y-42300000D03*
X78000000Y-39760000D03*
X78000000Y-37220000D03*
X78000000Y-34680000D03*
X78000000Y-32140000D03*
X78000000Y-29600000D03*
X78000000Y-27060000D03*
D18*
X47288000Y-59273400D03*
X73000000Y-65100000D03*
X43550000Y-78450000D03*
X51450000Y-91300000D03*
X51400000Y-100450000D03*
X43400000Y-83250000D03*
X39050000Y-56050000D03*
X68800000Y-21500000D03*
X66550000Y-30150000D03*
X42450000Y-6000000D03*
X38150000Y-16400000D03*
X66650000Y-80450000D03*
X68600000Y-94000000D03*
X43250000Y-55650000D03*
X53000000Y-56750000D03*
X55450000Y-48000000D03*
X74050000Y-42400000D03*
X25450000Y-53750000D03*
X25450000Y-60050000D03*
X48304400Y-83291168D03*
X78600000Y-108800000D03*
X26750000Y-108750000D03*
X78700000Y-1150000D03*
X21350000Y-1350000D03*
X98850000Y-1100000D03*
X81300000Y-1050000D03*
X81250000Y-108850000D03*
X98800000Y-108850000D03*
X51743300Y-64976200D03*
X42592447Y-53547919D03*
X63973400Y-61270500D03*
X69142600Y-67357100D03*
X43604050Y-52995950D03*
X59362700Y-41999800D03*
X46250000Y-42000000D03*
X55643800Y-37170800D03*
X47030300Y-35967500D03*
X48308200Y-81259000D03*
X32950000Y-89800000D03*
X49000000Y-35949998D03*
X49661200Y-85797600D03*
X58750000Y-81445000D03*
X34524000Y-47347300D03*
X47609400Y-75120800D03*
X64504208Y-76470473D03*
X29339000Y-61223300D03*
X70693800Y-91910500D03*
X48406200Y-79973500D03*
X52229900Y-88104400D03*
X53715400Y-89011300D03*
X42343900Y-32063800D03*
X58288300Y-54737400D03*
X76084600Y-49168000D03*
X62143800Y-68390900D03*
X62374000Y-33692200D03*
X18700000Y-1150000D03*
X1150000Y-1150000D03*
X18750000Y-108900000D03*
X1150000Y-108900000D03*
X33975000Y-54458000D03*
X33850000Y-49750006D03*
X54006700Y-85179200D03*
X40540500Y-58117600D03*
X65262662Y-21862658D03*
X38188900Y-63377900D03*
X52331300Y-46672300D03*
X50875200Y-75789300D03*
X43603296Y-74973896D03*
X34000000Y-8250000D03*
X48699800Y-76750800D03*
X33975000Y-9737100D03*
X69906900Y-70100600D03*
X40053100Y-64604100D03*
D19*
X47288000Y-59273400D02*
X67032900Y-59273400D01*
X67032900Y-59273400D02*
X67173400Y-59273400D01*
X72600001Y-64700001D02*
X73000000Y-65100000D01*
X67173400Y-59273400D02*
X72600001Y-64700001D01*
X67032900Y-57163100D02*
X67032900Y-59273400D01*
X76395400Y-48424900D02*
X75771100Y-48424900D01*
X75771100Y-48424900D02*
X67032900Y-57163100D01*
X78000000Y-49920000D02*
X77890500Y-49920000D01*
X77890500Y-49920000D02*
X76395400Y-48424900D01*
D20*
X43250000Y-55650000D02*
X44350000Y-56750000D01*
X44350000Y-56750000D02*
X53000000Y-56750000D01*
X53000000Y-56750000D02*
X53000000Y-50450000D01*
X53000000Y-50450000D02*
X55450000Y-48000000D01*
X55450000Y-48000000D02*
X61600000Y-48000000D01*
X61600000Y-48000000D02*
X67200000Y-42400000D01*
X67200000Y-42400000D02*
X74050000Y-42400000D01*
D19*
X49726200Y-64976200D02*
X41799989Y-57049989D01*
X51743300Y-64976200D02*
X49726200Y-64976200D01*
X41799989Y-54340377D02*
X42192448Y-53947918D01*
X41799989Y-57049989D02*
X41799989Y-54340377D01*
X42192448Y-53947918D02*
X42592447Y-53547919D01*
X69142600Y-67357100D02*
X69142600Y-66439700D01*
X69142600Y-66439700D02*
X63973400Y-61270500D01*
X43604050Y-53561635D02*
X43604050Y-52995950D01*
X42250000Y-54915685D02*
X43604050Y-53561635D01*
X42250000Y-56850000D02*
X42250000Y-54915685D01*
X46670500Y-61270500D02*
X42250000Y-56850000D01*
X63973400Y-61270500D02*
X46670500Y-61270500D01*
X46250200Y-41999800D02*
X46250000Y-42000000D01*
X59362700Y-41999800D02*
X46250200Y-41999800D01*
D20*
X78000000Y-39760000D02*
X76649700Y-39760000D01*
X76649700Y-39760000D02*
X74060500Y-37170800D01*
X74060500Y-37170800D02*
X55643800Y-37170800D01*
X22000000Y-100160000D02*
X24540000Y-100160000D01*
X49030700Y-35984100D02*
X47046900Y-35984100D01*
X47046900Y-35984100D02*
X47030300Y-35967500D01*
X49030700Y-35984100D02*
X50334800Y-34680000D01*
X50334800Y-34680000D02*
X76649700Y-34680000D01*
X78000000Y-34680000D02*
X76649700Y-34680000D01*
X22000000Y-90000000D02*
X24540000Y-90000000D01*
X37841000Y-81259000D02*
X48308200Y-81259000D01*
X34631300Y-84468700D02*
X37841000Y-81259000D01*
X32950000Y-89800000D02*
X34631300Y-88118700D01*
X34631300Y-88118700D02*
X34631300Y-84468700D01*
X49030700Y-35984100D02*
X49000000Y-35953400D01*
X49000000Y-35953400D02*
X49000000Y-35949998D01*
D19*
X58750000Y-81445000D02*
X58750000Y-81576100D01*
X58750000Y-81576100D02*
X54345900Y-85980200D01*
X54345900Y-85980200D02*
X49843800Y-85980200D01*
X49843800Y-85980200D02*
X49661200Y-85797600D01*
X48166600Y-74563600D02*
X47609400Y-75120800D01*
X48166600Y-74563600D02*
X37463600Y-63860600D01*
X37463600Y-63860600D02*
X37463600Y-50286900D01*
X37463600Y-50286900D02*
X34524000Y-47347300D01*
X64104209Y-76070474D02*
X64504208Y-76470473D01*
X48166600Y-74563600D02*
X62597335Y-74563600D01*
X62597335Y-74563600D02*
X64104209Y-76070474D01*
X48406200Y-79973500D02*
X46897700Y-79973500D01*
X46897700Y-79973500D02*
X29339000Y-62414800D01*
X29339000Y-62414800D02*
X29339000Y-61223300D01*
X70693800Y-91910500D02*
X54725700Y-91910500D01*
X54725700Y-91910500D02*
X48935900Y-86120700D01*
X48935900Y-86120700D02*
X48935900Y-85497200D01*
X48935900Y-85497200D02*
X49197400Y-85235700D01*
X49197400Y-85235700D02*
X49197400Y-80764700D01*
X49197400Y-80764700D02*
X48406200Y-79973500D01*
X53895600Y-88104400D02*
X52229900Y-88104400D01*
X78000000Y-47380000D02*
X79175300Y-48555300D01*
X79175300Y-62824700D02*
X53895600Y-88104400D01*
X79175300Y-48555300D02*
X79175300Y-62824700D01*
X79625700Y-63101000D02*
X53715400Y-89011300D01*
X78000000Y-44840000D02*
X79625700Y-46465700D01*
X79625700Y-46465700D02*
X79625700Y-63101000D01*
X78000000Y-42300000D02*
X76824700Y-42300000D01*
X42343900Y-32063800D02*
X42343900Y-32485400D01*
X42343900Y-32485400D02*
X50983200Y-41124700D01*
X50983200Y-41124700D02*
X75649400Y-41124700D01*
X75649400Y-41124700D02*
X76824700Y-42300000D01*
X78000000Y-37954600D02*
X79295600Y-39250200D01*
X78000000Y-37220000D02*
X78000000Y-37954600D01*
X69455700Y-43570000D02*
X58288300Y-54737400D01*
X79295600Y-39250200D02*
X79295600Y-42667100D01*
X79295600Y-42667100D02*
X78392700Y-43570000D01*
X78392700Y-43570000D02*
X69455700Y-43570000D01*
X70782102Y-68390900D02*
X76084600Y-63088402D01*
X62143800Y-68390900D02*
X70782102Y-68390900D01*
X76084600Y-63088402D02*
X76084600Y-49733685D01*
X76084600Y-49733685D02*
X76084600Y-49168000D01*
X78000000Y-29600000D02*
X76824700Y-29600000D01*
X62374000Y-33692200D02*
X72732500Y-33692200D01*
X72732500Y-33692200D02*
X76824700Y-29600000D01*
X22000000Y-105240000D02*
X24540000Y-105240000D01*
X22000000Y-102700000D02*
X24540000Y-102700000D01*
X23175300Y-57460000D02*
X30973000Y-57460000D01*
X30973000Y-57460000D02*
X33975000Y-54458000D01*
X22000000Y-57460000D02*
X23175300Y-57460000D01*
X28680006Y-54920000D02*
X33450001Y-50150005D01*
X22000000Y-54920000D02*
X28680006Y-54920000D01*
X33450001Y-50150005D02*
X33850000Y-49750006D01*
X22000000Y-48108000D02*
X22000000Y-47300000D01*
X20750000Y-57971700D02*
X20750000Y-49358000D01*
X21478300Y-58700000D02*
X20750000Y-57971700D01*
X27881000Y-58700000D02*
X21478300Y-58700000D01*
X32859100Y-63678100D02*
X27881000Y-58700000D01*
X54006700Y-84515900D02*
X48242900Y-78752100D01*
X46316200Y-78752100D02*
X32859100Y-65295000D01*
X54006700Y-85179200D02*
X54006700Y-84515900D01*
X20750000Y-49358000D02*
X22000000Y-48108000D01*
X48242900Y-78752100D02*
X46316200Y-78752100D01*
X32859100Y-65295000D02*
X32859100Y-63678100D01*
X51519342Y-21862658D02*
X64696977Y-21862658D01*
X40540500Y-58117600D02*
X40540500Y-32841500D01*
X40540500Y-32841500D02*
X51519342Y-21862658D01*
X64696977Y-21862658D02*
X65262662Y-21862658D01*
X41343000Y-60223800D02*
X38188900Y-63377900D01*
X41343000Y-53757000D02*
X41343000Y-60223800D01*
X52331300Y-46672300D02*
X48427700Y-46672300D01*
X48427700Y-46672300D02*
X41343000Y-53757000D01*
X50875200Y-75789300D02*
X49151700Y-77512800D01*
X46142200Y-77512800D02*
X44003295Y-75373895D01*
X49151700Y-77512800D02*
X46142200Y-77512800D01*
X44003295Y-75373895D02*
X43603296Y-74973896D01*
X33600001Y-8649999D02*
X34000000Y-8250000D01*
X34700300Y-66070900D02*
X34700300Y-49186200D01*
X43603296Y-74973896D02*
X34700300Y-66070900D01*
X34700300Y-49186200D02*
X33232400Y-47718300D01*
X33232400Y-47718300D02*
X33232400Y-9017600D01*
X33232400Y-9017600D02*
X33600001Y-8649999D01*
X48134115Y-76750800D02*
X48699800Y-76750800D01*
X33975000Y-10302785D02*
X33773200Y-10504585D01*
X33773200Y-47622200D02*
X36986400Y-50835400D01*
X36986400Y-50835400D02*
X36986400Y-65603085D01*
X33975000Y-9737100D02*
X33975000Y-10302785D01*
X36986400Y-65603085D02*
X48134115Y-76750800D01*
X33773200Y-10504585D02*
X33773200Y-47622200D01*
X40053100Y-64604100D02*
X45549600Y-70100600D01*
X45549600Y-70100600D02*
X69906900Y-70100600D01*
D21*
G36*
X28602394Y-60496195D02*
G01*
X28535063Y-60563526D01*
X28421795Y-60733044D01*
X28343774Y-60921402D01*
X28304000Y-61121361D01*
X28304000Y-61325239D01*
X28343774Y-61525198D01*
X28421795Y-61713556D01*
X28535063Y-61883074D01*
X28579000Y-61927011D01*
X28579000Y-62377477D01*
X28575324Y-62414800D01*
X28579000Y-62452122D01*
X28579000Y-62452132D01*
X28589997Y-62563785D01*
X28620435Y-62664126D01*
X28633454Y-62707046D01*
X28704026Y-62839076D01*
X28743871Y-62887626D01*
X28798999Y-62954801D01*
X28828003Y-62978604D01*
X46273398Y-80424000D01*
X37882007Y-80424000D01*
X37840999Y-80419961D01*
X37799991Y-80424000D01*
X37799981Y-80424000D01*
X37677311Y-80436082D01*
X37519913Y-80483828D01*
X37374854Y-80561364D01*
X37247709Y-80665709D01*
X37221559Y-80697573D01*
X34069874Y-83849259D01*
X34038010Y-83875409D01*
X34011862Y-83907271D01*
X33933664Y-84002555D01*
X33856128Y-84147614D01*
X33808382Y-84305012D01*
X33792260Y-84468700D01*
X33796301Y-84509728D01*
X33796300Y-87772832D01*
X32793225Y-88775907D01*
X32648102Y-88804774D01*
X32459744Y-88882795D01*
X32290226Y-88996063D01*
X32146063Y-89140226D01*
X32032795Y-89309744D01*
X31954774Y-89498102D01*
X31915000Y-89698061D01*
X31915000Y-89901939D01*
X31954774Y-90101898D01*
X32032795Y-90290256D01*
X32146063Y-90459774D01*
X32290226Y-90603937D01*
X32459744Y-90717205D01*
X32648102Y-90795226D01*
X32848061Y-90835000D01*
X33051939Y-90835000D01*
X33251898Y-90795226D01*
X33440256Y-90717205D01*
X33609774Y-90603937D01*
X33753937Y-90459774D01*
X33867205Y-90290256D01*
X33945226Y-90101898D01*
X33974093Y-89956775D01*
X35192728Y-88738140D01*
X35224591Y-88711991D01*
X35328936Y-88584846D01*
X35406472Y-88439787D01*
X35454218Y-88282389D01*
X35466300Y-88159719D01*
X35466300Y-88159709D01*
X35470339Y-88118701D01*
X35466300Y-88077693D01*
X35466300Y-84814567D01*
X38186868Y-82094000D01*
X47694915Y-82094000D01*
X47817944Y-82176205D01*
X48006302Y-82254226D01*
X48206261Y-82294000D01*
X48410139Y-82294000D01*
X48437401Y-82288577D01*
X48437400Y-84920899D01*
X48424898Y-84933401D01*
X48395900Y-84957199D01*
X48372102Y-84986197D01*
X48372101Y-84986198D01*
X48300926Y-85072924D01*
X48266235Y-85137826D01*
X48230354Y-85204953D01*
X48186897Y-85348214D01*
X48175900Y-85459867D01*
X48175900Y-85459878D01*
X48172224Y-85497200D01*
X48175900Y-85534522D01*
X48175900Y-86083378D01*
X48172224Y-86120700D01*
X48175900Y-86158022D01*
X48175900Y-86158032D01*
X48186897Y-86269685D01*
X48227784Y-86404475D01*
X48230354Y-86412946D01*
X48300926Y-86544976D01*
X48340771Y-86593526D01*
X48395899Y-86660701D01*
X48424903Y-86684504D01*
X54161901Y-92421503D01*
X54185699Y-92450501D01*
X54301424Y-92545474D01*
X54433453Y-92616046D01*
X54576714Y-92659503D01*
X54688367Y-92670500D01*
X54688375Y-92670500D01*
X54725700Y-92674176D01*
X54763025Y-92670500D01*
X69990089Y-92670500D01*
X70034026Y-92714437D01*
X70203544Y-92827705D01*
X70391902Y-92905726D01*
X70591861Y-92945500D01*
X70795739Y-92945500D01*
X70995698Y-92905726D01*
X71184056Y-92827705D01*
X71353574Y-92714437D01*
X71497737Y-92570274D01*
X71611005Y-92400756D01*
X71689026Y-92212398D01*
X71728800Y-92012439D01*
X71728800Y-91808561D01*
X71689026Y-91608602D01*
X71611005Y-91420244D01*
X71497737Y-91250726D01*
X71353574Y-91106563D01*
X71184056Y-90993295D01*
X70995698Y-90915274D01*
X70795739Y-90875500D01*
X70591861Y-90875500D01*
X70391902Y-90915274D01*
X70203544Y-90993295D01*
X70034026Y-91106563D01*
X69990089Y-91150500D01*
X55040502Y-91150500D01*
X53916565Y-90026563D01*
X54017298Y-90006526D01*
X54205656Y-89928505D01*
X54375174Y-89815237D01*
X54519337Y-89671074D01*
X54632605Y-89501556D01*
X54710626Y-89313198D01*
X54750400Y-89113239D01*
X54750400Y-89051101D01*
X79214284Y-64587218D01*
X79173600Y-109340000D01*
X20776400Y-109340000D01*
X20775747Y-108620705D01*
X20846525Y-108726632D01*
X21053368Y-108933475D01*
X21296589Y-109095990D01*
X21566842Y-109207932D01*
X21853740Y-109265000D01*
X22146260Y-109265000D01*
X22433158Y-109207932D01*
X22703411Y-109095990D01*
X22946632Y-108933475D01*
X23153475Y-108726632D01*
X23270000Y-108552240D01*
X23386525Y-108726632D01*
X23593368Y-108933475D01*
X23836589Y-109095990D01*
X24106842Y-109207932D01*
X24393740Y-109265000D01*
X24686260Y-109265000D01*
X24973158Y-109207932D01*
X25243411Y-109095990D01*
X25486632Y-108933475D01*
X25693475Y-108726632D01*
X25855990Y-108483411D01*
X25967932Y-108213158D01*
X26025000Y-107926260D01*
X26025000Y-107633740D01*
X25967932Y-107346842D01*
X25855990Y-107076589D01*
X25693475Y-106833368D01*
X25486632Y-106626525D01*
X25312240Y-106510000D01*
X25486632Y-106393475D01*
X25693475Y-106186632D01*
X25855990Y-105943411D01*
X25967932Y-105673158D01*
X26025000Y-105386260D01*
X26025000Y-105093740D01*
X25967932Y-104806842D01*
X25855990Y-104536589D01*
X25693475Y-104293368D01*
X25486632Y-104086525D01*
X25312240Y-103970000D01*
X25486632Y-103853475D01*
X25693475Y-103646632D01*
X25855990Y-103403411D01*
X25967932Y-103133158D01*
X26025000Y-102846260D01*
X26025000Y-102553740D01*
X25967932Y-102266842D01*
X25855990Y-101996589D01*
X25693475Y-101753368D01*
X25486632Y-101546525D01*
X25312240Y-101430000D01*
X25486632Y-101313475D01*
X25693475Y-101106632D01*
X25855990Y-100863411D01*
X25967932Y-100593158D01*
X26025000Y-100306260D01*
X26025000Y-100013740D01*
X25967932Y-99726842D01*
X25855990Y-99456589D01*
X25693475Y-99213368D01*
X25486632Y-99006525D01*
X25304466Y-98884805D01*
X25421355Y-98815178D01*
X25637588Y-98620269D01*
X25811641Y-98386920D01*
X25936825Y-98124099D01*
X25981476Y-97976890D01*
X25860155Y-97747000D01*
X24667000Y-97747000D01*
X24667000Y-97767000D01*
X24413000Y-97767000D01*
X24413000Y-97747000D01*
X22127000Y-97747000D01*
X22127000Y-97767000D01*
X21873000Y-97767000D01*
X21873000Y-97747000D01*
X21853000Y-97747000D01*
X21853000Y-97493000D01*
X21873000Y-97493000D01*
X21873000Y-95207000D01*
X22127000Y-95207000D01*
X22127000Y-97493000D01*
X24413000Y-97493000D01*
X24413000Y-95207000D01*
X24667000Y-95207000D01*
X24667000Y-97493000D01*
X25860155Y-97493000D01*
X25981476Y-97263110D01*
X25936825Y-97115901D01*
X25811641Y-96853080D01*
X25637588Y-96619731D01*
X25421355Y-96424822D01*
X25295745Y-96350000D01*
X25421355Y-96275178D01*
X25637588Y-96080269D01*
X25811641Y-95846920D01*
X25936825Y-95584099D01*
X25981476Y-95436890D01*
X25860155Y-95207000D01*
X24667000Y-95207000D01*
X24413000Y-95207000D01*
X22127000Y-95207000D01*
X21873000Y-95207000D01*
X21853000Y-95207000D01*
X21853000Y-94953000D01*
X21873000Y-94953000D01*
X21873000Y-92667000D01*
X22127000Y-92667000D01*
X22127000Y-94953000D01*
X24413000Y-94953000D01*
X24413000Y-92667000D01*
X24667000Y-92667000D01*
X24667000Y-94953000D01*
X25860155Y-94953000D01*
X25981476Y-94723110D01*
X25936825Y-94575901D01*
X25811641Y-94313080D01*
X25637588Y-94079731D01*
X25421355Y-93884822D01*
X25295745Y-93810000D01*
X25421355Y-93735178D01*
X25637588Y-93540269D01*
X25811641Y-93306920D01*
X25936825Y-93044099D01*
X25981476Y-92896890D01*
X25860155Y-92667000D01*
X24667000Y-92667000D01*
X24413000Y-92667000D01*
X22127000Y-92667000D01*
X21873000Y-92667000D01*
X21853000Y-92667000D01*
X21853000Y-92413000D01*
X21873000Y-92413000D01*
X21873000Y-92393000D01*
X22127000Y-92393000D01*
X22127000Y-92413000D01*
X24413000Y-92413000D01*
X24413000Y-92393000D01*
X24667000Y-92393000D01*
X24667000Y-92413000D01*
X25860155Y-92413000D01*
X25981476Y-92183110D01*
X25936825Y-92035901D01*
X25811641Y-91773080D01*
X25637588Y-91539731D01*
X25421355Y-91344822D01*
X25304466Y-91275195D01*
X25486632Y-91153475D01*
X25693475Y-90946632D01*
X25855990Y-90703411D01*
X25967932Y-90433158D01*
X26025000Y-90146260D01*
X26025000Y-89853740D01*
X25967932Y-89566842D01*
X25855990Y-89296589D01*
X25693475Y-89053368D01*
X25486632Y-88846525D01*
X25243411Y-88684010D01*
X24973158Y-88572068D01*
X24686260Y-88515000D01*
X24393740Y-88515000D01*
X24106842Y-88572068D01*
X23836589Y-88684010D01*
X23593368Y-88846525D01*
X23461513Y-88978380D01*
X23439502Y-88905820D01*
X23380537Y-88795506D01*
X23301185Y-88698815D01*
X23204494Y-88619463D01*
X23094180Y-88560498D01*
X22974482Y-88524188D01*
X22850000Y-88511928D01*
X21150000Y-88511928D01*
X21025518Y-88524188D01*
X20905820Y-88560498D01*
X20795506Y-88619463D01*
X20757592Y-88650578D01*
X20732754Y-61329038D01*
X20795506Y-61380537D01*
X20905820Y-61439502D01*
X21025518Y-61475812D01*
X21150000Y-61488072D01*
X22850000Y-61488072D01*
X22974482Y-61475812D01*
X23094180Y-61439502D01*
X23204494Y-61380537D01*
X23301185Y-61301185D01*
X23380537Y-61204494D01*
X23439502Y-61094180D01*
X23475812Y-60974482D01*
X23488072Y-60850000D01*
X23488072Y-59460000D01*
X27566199Y-59460000D01*
X28602394Y-60496195D01*
G37*
X28602394Y-60496195D02*
X28535063Y-60563526D01*
X28421795Y-60733044D01*
X28343774Y-60921402D01*
X28304000Y-61121361D01*
X28304000Y-61325239D01*
X28343774Y-61525198D01*
X28421795Y-61713556D01*
X28535063Y-61883074D01*
X28579000Y-61927011D01*
X28579000Y-62377477D01*
X28575324Y-62414800D01*
X28579000Y-62452122D01*
X28579000Y-62452132D01*
X28589997Y-62563785D01*
X28620435Y-62664126D01*
X28633454Y-62707046D01*
X28704026Y-62839076D01*
X28743871Y-62887626D01*
X28798999Y-62954801D01*
X28828003Y-62978604D01*
X46273398Y-80424000D01*
X37882007Y-80424000D01*
X37840999Y-80419961D01*
X37799991Y-80424000D01*
X37799981Y-80424000D01*
X37677311Y-80436082D01*
X37519913Y-80483828D01*
X37374854Y-80561364D01*
X37247709Y-80665709D01*
X37221559Y-80697573D01*
X34069874Y-83849259D01*
X34038010Y-83875409D01*
X34011862Y-83907271D01*
X33933664Y-84002555D01*
X33856128Y-84147614D01*
X33808382Y-84305012D01*
X33792260Y-84468700D01*
X33796301Y-84509728D01*
X33796300Y-87772832D01*
X32793225Y-88775907D01*
X32648102Y-88804774D01*
X32459744Y-88882795D01*
X32290226Y-88996063D01*
X32146063Y-89140226D01*
X32032795Y-89309744D01*
X31954774Y-89498102D01*
X31915000Y-89698061D01*
X31915000Y-89901939D01*
X31954774Y-90101898D01*
X32032795Y-90290256D01*
X32146063Y-90459774D01*
X32290226Y-90603937D01*
X32459744Y-90717205D01*
X32648102Y-90795226D01*
X32848061Y-90835000D01*
X33051939Y-90835000D01*
X33251898Y-90795226D01*
X33440256Y-90717205D01*
X33609774Y-90603937D01*
X33753937Y-90459774D01*
X33867205Y-90290256D01*
X33945226Y-90101898D01*
X33974093Y-89956775D01*
X35192728Y-88738140D01*
X35224591Y-88711991D01*
X35328936Y-88584846D01*
X35406472Y-88439787D01*
X35454218Y-88282389D01*
X35466300Y-88159719D01*
X35466300Y-88159709D01*
X35470339Y-88118701D01*
X35466300Y-88077693D01*
X35466300Y-84814567D01*
X38186868Y-82094000D01*
X47694915Y-82094000D01*
X47817944Y-82176205D01*
X48006302Y-82254226D01*
X48206261Y-82294000D01*
X48410139Y-82294000D01*
X48437401Y-82288577D01*
X48437400Y-84920899D01*
X48424898Y-84933401D01*
X48395900Y-84957199D01*
X48372102Y-84986197D01*
X48372101Y-84986198D01*
X48300926Y-85072924D01*
X48266235Y-85137826D01*
X48230354Y-85204953D01*
X48186897Y-85348214D01*
X48175900Y-85459867D01*
X48175900Y-85459878D01*
X48172224Y-85497200D01*
X48175900Y-85534522D01*
X48175900Y-86083378D01*
X48172224Y-86120700D01*
X48175900Y-86158022D01*
X48175900Y-86158032D01*
X48186897Y-86269685D01*
X48227784Y-86404475D01*
X48230354Y-86412946D01*
X48300926Y-86544976D01*
X48340771Y-86593526D01*
X48395899Y-86660701D01*
X48424903Y-86684504D01*
X54161901Y-92421503D01*
X54185699Y-92450501D01*
X54301424Y-92545474D01*
X54433453Y-92616046D01*
X54576714Y-92659503D01*
X54688367Y-92670500D01*
X54688375Y-92670500D01*
X54725700Y-92674176D01*
X54763025Y-92670500D01*
X69990089Y-92670500D01*
X70034026Y-92714437D01*
X70203544Y-92827705D01*
X70391902Y-92905726D01*
X70591861Y-92945500D01*
X70795739Y-92945500D01*
X70995698Y-92905726D01*
X71184056Y-92827705D01*
X71353574Y-92714437D01*
X71497737Y-92570274D01*
X71611005Y-92400756D01*
X71689026Y-92212398D01*
X71728800Y-92012439D01*
X71728800Y-91808561D01*
X71689026Y-91608602D01*
X71611005Y-91420244D01*
X71497737Y-91250726D01*
X71353574Y-91106563D01*
X71184056Y-90993295D01*
X70995698Y-90915274D01*
X70795739Y-90875500D01*
X70591861Y-90875500D01*
X70391902Y-90915274D01*
X70203544Y-90993295D01*
X70034026Y-91106563D01*
X69990089Y-91150500D01*
X55040502Y-91150500D01*
X53916565Y-90026563D01*
X54017298Y-90006526D01*
X54205656Y-89928505D01*
X54375174Y-89815237D01*
X54519337Y-89671074D01*
X54632605Y-89501556D01*
X54710626Y-89313198D01*
X54750400Y-89113239D01*
X54750400Y-89051101D01*
X79214284Y-64587218D01*
X79173600Y-109340000D01*
X20776400Y-109340000D01*
X20775747Y-108620705D01*
X20846525Y-108726632D01*
X21053368Y-108933475D01*
X21296589Y-109095990D01*
X21566842Y-109207932D01*
X21853740Y-109265000D01*
X22146260Y-109265000D01*
X22433158Y-109207932D01*
X22703411Y-109095990D01*
X22946632Y-108933475D01*
X23153475Y-108726632D01*
X23270000Y-108552240D01*
X23386525Y-108726632D01*
X23593368Y-108933475D01*
X23836589Y-109095990D01*
X24106842Y-109207932D01*
X24393740Y-109265000D01*
X24686260Y-109265000D01*
X24973158Y-109207932D01*
X25243411Y-109095990D01*
X25486632Y-108933475D01*
X25693475Y-108726632D01*
X25855990Y-108483411D01*
X25967932Y-108213158D01*
X26025000Y-107926260D01*
X26025000Y-107633740D01*
X25967932Y-107346842D01*
X25855990Y-107076589D01*
X25693475Y-106833368D01*
X25486632Y-106626525D01*
X25312240Y-106510000D01*
X25486632Y-106393475D01*
X25693475Y-106186632D01*
X25855990Y-105943411D01*
X25967932Y-105673158D01*
X26025000Y-105386260D01*
X26025000Y-105093740D01*
X25967932Y-104806842D01*
X25855990Y-104536589D01*
X25693475Y-104293368D01*
X25486632Y-104086525D01*
X25312240Y-103970000D01*
X25486632Y-103853475D01*
X25693475Y-103646632D01*
X25855990Y-103403411D01*
X25967932Y-103133158D01*
X26025000Y-102846260D01*
X26025000Y-102553740D01*
X25967932Y-102266842D01*
X25855990Y-101996589D01*
X25693475Y-101753368D01*
X25486632Y-101546525D01*
X25312240Y-101430000D01*
X25486632Y-101313475D01*
X25693475Y-101106632D01*
X25855990Y-100863411D01*
X25967932Y-100593158D01*
X26025000Y-100306260D01*
X26025000Y-100013740D01*
X25967932Y-99726842D01*
X25855990Y-99456589D01*
X25693475Y-99213368D01*
X25486632Y-99006525D01*
X25304466Y-98884805D01*
X25421355Y-98815178D01*
X25637588Y-98620269D01*
X25811641Y-98386920D01*
X25936825Y-98124099D01*
X25981476Y-97976890D01*
X25860155Y-97747000D01*
X24667000Y-97747000D01*
X24667000Y-97767000D01*
X24413000Y-97767000D01*
X24413000Y-97747000D01*
X22127000Y-97747000D01*
X22127000Y-97767000D01*
X21873000Y-97767000D01*
X21873000Y-97747000D01*
X21853000Y-97747000D01*
X21853000Y-97493000D01*
X21873000Y-97493000D01*
X21873000Y-95207000D01*
X22127000Y-95207000D01*
X22127000Y-97493000D01*
X24413000Y-97493000D01*
X24413000Y-95207000D01*
X24667000Y-95207000D01*
X24667000Y-97493000D01*
X25860155Y-97493000D01*
X25981476Y-97263110D01*
X25936825Y-97115901D01*
X25811641Y-96853080D01*
X25637588Y-96619731D01*
X25421355Y-96424822D01*
X25295745Y-96350000D01*
X25421355Y-96275178D01*
X25637588Y-96080269D01*
X25811641Y-95846920D01*
X25936825Y-95584099D01*
X25981476Y-95436890D01*
X25860155Y-95207000D01*
X24667000Y-95207000D01*
X24413000Y-95207000D01*
X22127000Y-95207000D01*
X21873000Y-95207000D01*
X21853000Y-95207000D01*
X21853000Y-94953000D01*
X21873000Y-94953000D01*
X21873000Y-92667000D01*
X22127000Y-92667000D01*
X22127000Y-94953000D01*
X24413000Y-94953000D01*
X24413000Y-92667000D01*
X24667000Y-92667000D01*
X24667000Y-94953000D01*
X25860155Y-94953000D01*
X25981476Y-94723110D01*
X25936825Y-94575901D01*
X25811641Y-94313080D01*
X25637588Y-94079731D01*
X25421355Y-93884822D01*
X25295745Y-93810000D01*
X25421355Y-93735178D01*
X25637588Y-93540269D01*
X25811641Y-93306920D01*
X25936825Y-93044099D01*
X25981476Y-92896890D01*
X25860155Y-92667000D01*
X24667000Y-92667000D01*
X24413000Y-92667000D01*
X22127000Y-92667000D01*
X21873000Y-92667000D01*
X21853000Y-92667000D01*
X21853000Y-92413000D01*
X21873000Y-92413000D01*
X21873000Y-92393000D01*
X22127000Y-92393000D01*
X22127000Y-92413000D01*
X24413000Y-92413000D01*
X24413000Y-92393000D01*
X24667000Y-92393000D01*
X24667000Y-92413000D01*
X25860155Y-92413000D01*
X25981476Y-92183110D01*
X25936825Y-92035901D01*
X25811641Y-91773080D01*
X25637588Y-91539731D01*
X25421355Y-91344822D01*
X25304466Y-91275195D01*
X25486632Y-91153475D01*
X25693475Y-90946632D01*
X25855990Y-90703411D01*
X25967932Y-90433158D01*
X26025000Y-90146260D01*
X26025000Y-89853740D01*
X25967932Y-89566842D01*
X25855990Y-89296589D01*
X25693475Y-89053368D01*
X25486632Y-88846525D01*
X25243411Y-88684010D01*
X24973158Y-88572068D01*
X24686260Y-88515000D01*
X24393740Y-88515000D01*
X24106842Y-88572068D01*
X23836589Y-88684010D01*
X23593368Y-88846525D01*
X23461513Y-88978380D01*
X23439502Y-88905820D01*
X23380537Y-88795506D01*
X23301185Y-88698815D01*
X23204494Y-88619463D01*
X23094180Y-88560498D01*
X22974482Y-88524188D01*
X22850000Y-88511928D01*
X21150000Y-88511928D01*
X21025518Y-88524188D01*
X20905820Y-88560498D01*
X20795506Y-88619463D01*
X20757592Y-88650578D01*
X20732754Y-61329038D01*
X20795506Y-61380537D01*
X20905820Y-61439502D01*
X21025518Y-61475812D01*
X21150000Y-61488072D01*
X22850000Y-61488072D01*
X22974482Y-61475812D01*
X23094180Y-61439502D01*
X23204494Y-61380537D01*
X23301185Y-61301185D01*
X23380537Y-61204494D01*
X23439502Y-61094180D01*
X23475812Y-60974482D01*
X23488072Y-60850000D01*
X23488072Y-59460000D01*
X27566199Y-59460000D01*
X28602394Y-60496195D01*
G36*
X41684126Y-32867737D02*
G01*
X41687833Y-32870214D01*
X41708926Y-32909676D01*
X41803900Y-33025401D01*
X41832898Y-33049199D01*
X50023498Y-41239800D01*
X46953511Y-41239800D01*
X46909774Y-41196063D01*
X46740256Y-41082795D01*
X46551898Y-41004774D01*
X46351939Y-40965000D01*
X46148061Y-40965000D01*
X45948102Y-41004774D01*
X45759744Y-41082795D01*
X45590226Y-41196063D01*
X45446063Y-41340226D01*
X45332795Y-41509744D01*
X45254774Y-41698102D01*
X45215000Y-41898061D01*
X45215000Y-42101939D01*
X45254774Y-42301898D01*
X45332795Y-42490256D01*
X45446063Y-42659774D01*
X45590226Y-42803937D01*
X45759744Y-42917205D01*
X45948102Y-42995226D01*
X46148061Y-43035000D01*
X46351939Y-43035000D01*
X46551898Y-42995226D01*
X46740256Y-42917205D01*
X46909774Y-42803937D01*
X46953911Y-42759800D01*
X58658989Y-42759800D01*
X58702926Y-42803737D01*
X58872444Y-42917005D01*
X59060802Y-42995026D01*
X59260761Y-43034800D01*
X59464639Y-43034800D01*
X59664598Y-42995026D01*
X59852956Y-42917005D01*
X60022474Y-42803737D01*
X60166637Y-42659574D01*
X60279905Y-42490056D01*
X60357926Y-42301698D01*
X60397700Y-42101739D01*
X60397700Y-41897861D01*
X60395082Y-41884700D01*
X75334599Y-41884700D01*
X76259898Y-42810000D01*
X69493033Y-42810000D01*
X69455700Y-42806323D01*
X69418367Y-42810000D01*
X69306714Y-42820997D01*
X69163453Y-42864454D01*
X69031424Y-42935026D01*
X68915699Y-43029999D01*
X68891901Y-43058997D01*
X58248499Y-53702400D01*
X58186361Y-53702400D01*
X57986402Y-53742174D01*
X57798044Y-53820195D01*
X57628526Y-53933463D01*
X57484363Y-54077626D01*
X57371095Y-54247144D01*
X57293074Y-54435502D01*
X57253300Y-54635461D01*
X57253300Y-54839339D01*
X57293074Y-55039298D01*
X57371095Y-55227656D01*
X57484363Y-55397174D01*
X57628526Y-55541337D01*
X57798044Y-55654605D01*
X57986402Y-55732626D01*
X58186361Y-55772400D01*
X58390239Y-55772400D01*
X58590198Y-55732626D01*
X58778556Y-55654605D01*
X58948074Y-55541337D01*
X59092237Y-55397174D01*
X59205505Y-55227656D01*
X59283526Y-55039298D01*
X59323300Y-54839339D01*
X59323300Y-54777201D01*
X69770502Y-44330000D01*
X76603897Y-44330000D01*
X76572068Y-44406842D01*
X76515000Y-44693740D01*
X76515000Y-44986260D01*
X76572068Y-45273158D01*
X76684010Y-45543411D01*
X76846525Y-45786632D01*
X77053368Y-45993475D01*
X77227760Y-46110000D01*
X77053368Y-46226525D01*
X76846525Y-46433368D01*
X76684010Y-46676589D01*
X76572068Y-46946842D01*
X76515000Y-47233740D01*
X76515000Y-47526260D01*
X76544789Y-47676019D01*
X76544386Y-47675897D01*
X76432733Y-47664900D01*
X76432722Y-47664900D01*
X76395400Y-47661224D01*
X76358078Y-47664900D01*
X75808423Y-47664900D01*
X75771100Y-47661224D01*
X75733777Y-47664900D01*
X75733767Y-47664900D01*
X75622114Y-47675897D01*
X75482328Y-47718300D01*
X75478853Y-47719354D01*
X75346823Y-47789926D01*
X75273923Y-47849754D01*
X75231099Y-47884899D01*
X75207301Y-47913897D01*
X66521903Y-56599296D01*
X66492899Y-56623099D01*
X66437771Y-56690274D01*
X66397926Y-56738824D01*
X66387814Y-56757743D01*
X66327354Y-56870854D01*
X66283897Y-57014115D01*
X66272900Y-57125768D01*
X66272900Y-57125778D01*
X66269224Y-57163100D01*
X66272900Y-57200423D01*
X66272901Y-58513400D01*
X47991711Y-58513400D01*
X47947774Y-58469463D01*
X47778256Y-58356195D01*
X47589898Y-58278174D01*
X47389939Y-58238400D01*
X47186061Y-58238400D01*
X46986102Y-58278174D01*
X46797744Y-58356195D01*
X46628226Y-58469463D01*
X46484063Y-58613626D01*
X46370795Y-58783144D01*
X46292774Y-58971502D01*
X46253000Y-59171461D01*
X46253000Y-59375339D01*
X46292774Y-59575298D01*
X46370795Y-59763656D01*
X46484063Y-59933174D01*
X46628226Y-60077337D01*
X46797744Y-60190605D01*
X46986102Y-60268626D01*
X47186061Y-60308400D01*
X47389939Y-60308400D01*
X47589898Y-60268626D01*
X47778256Y-60190605D01*
X47947774Y-60077337D01*
X47991711Y-60033400D01*
X66858599Y-60033400D01*
X71965000Y-65139802D01*
X71965000Y-65201939D01*
X72004774Y-65401898D01*
X72082795Y-65590256D01*
X72196063Y-65759774D01*
X72267245Y-65830956D01*
X70467301Y-67630900D01*
X70143415Y-67630900D01*
X70177600Y-67459039D01*
X70177600Y-67255161D01*
X70137826Y-67055202D01*
X70059805Y-66866844D01*
X69946537Y-66697326D01*
X69902600Y-66653389D01*
X69902600Y-66477025D01*
X69906276Y-66439700D01*
X69902600Y-66402375D01*
X69902600Y-66402367D01*
X69891603Y-66290714D01*
X69848146Y-66147453D01*
X69777574Y-66015424D01*
X69682601Y-65899699D01*
X69653603Y-65875901D01*
X65008400Y-61230699D01*
X65008400Y-61168561D01*
X64968626Y-60968602D01*
X64890605Y-60780244D01*
X64777337Y-60610726D01*
X64633174Y-60466563D01*
X64463656Y-60353295D01*
X64275298Y-60275274D01*
X64075339Y-60235500D01*
X63871461Y-60235500D01*
X63671502Y-60275274D01*
X63483144Y-60353295D01*
X63313626Y-60466563D01*
X63269689Y-60510500D01*
X46985302Y-60510500D01*
X43010000Y-56535199D01*
X43010000Y-55230486D01*
X44115054Y-54125433D01*
X44144051Y-54101636D01*
X44179106Y-54058921D01*
X44239024Y-53985912D01*
X44309596Y-53853882D01*
X44318956Y-53823026D01*
X44353037Y-53710674D01*
X44407987Y-53655724D01*
X44521255Y-53486206D01*
X44599276Y-53297848D01*
X44639050Y-53097889D01*
X44639050Y-52894011D01*
X44599276Y-52694052D01*
X44521255Y-52505694D01*
X44407987Y-52336176D01*
X44263824Y-52192013D01*
X44095355Y-52079446D01*
X48742502Y-47432300D01*
X51627589Y-47432300D01*
X51671526Y-47476237D01*
X51841044Y-47589505D01*
X52029402Y-47667526D01*
X52229361Y-47707300D01*
X52433239Y-47707300D01*
X52633198Y-47667526D01*
X52821556Y-47589505D01*
X52991074Y-47476237D01*
X53135237Y-47332074D01*
X53248505Y-47162556D01*
X53326526Y-46974198D01*
X53366300Y-46774239D01*
X53366300Y-46570361D01*
X53326526Y-46370402D01*
X53248505Y-46182044D01*
X53135237Y-46012526D01*
X52991074Y-45868363D01*
X52821556Y-45755095D01*
X52633198Y-45677074D01*
X52433239Y-45637300D01*
X52229361Y-45637300D01*
X52029402Y-45677074D01*
X51841044Y-45755095D01*
X51671526Y-45868363D01*
X51627589Y-45912300D01*
X48465023Y-45912300D01*
X48427700Y-45908624D01*
X48390377Y-45912300D01*
X48390367Y-45912300D01*
X48278714Y-45923297D01*
X48135453Y-45966754D01*
X48003424Y-46037326D01*
X47887699Y-46132299D01*
X47863901Y-46161297D01*
X41300500Y-52724699D01*
X41300500Y-33156301D01*
X41636595Y-32820206D01*
X41684126Y-32867737D01*
G37*
X41684126Y-32867737D02*
X41687833Y-32870214D01*
X41708926Y-32909676D01*
X41803900Y-33025401D01*
X41832898Y-33049199D01*
X50023498Y-41239800D01*
X46953511Y-41239800D01*
X46909774Y-41196063D01*
X46740256Y-41082795D01*
X46551898Y-41004774D01*
X46351939Y-40965000D01*
X46148061Y-40965000D01*
X45948102Y-41004774D01*
X45759744Y-41082795D01*
X45590226Y-41196063D01*
X45446063Y-41340226D01*
X45332795Y-41509744D01*
X45254774Y-41698102D01*
X45215000Y-41898061D01*
X45215000Y-42101939D01*
X45254774Y-42301898D01*
X45332795Y-42490256D01*
X45446063Y-42659774D01*
X45590226Y-42803937D01*
X45759744Y-42917205D01*
X45948102Y-42995226D01*
X46148061Y-43035000D01*
X46351939Y-43035000D01*
X46551898Y-42995226D01*
X46740256Y-42917205D01*
X46909774Y-42803937D01*
X46953911Y-42759800D01*
X58658989Y-42759800D01*
X58702926Y-42803737D01*
X58872444Y-42917005D01*
X59060802Y-42995026D01*
X59260761Y-43034800D01*
X59464639Y-43034800D01*
X59664598Y-42995026D01*
X59852956Y-42917005D01*
X60022474Y-42803737D01*
X60166637Y-42659574D01*
X60279905Y-42490056D01*
X60357926Y-42301698D01*
X60397700Y-42101739D01*
X60397700Y-41897861D01*
X60395082Y-41884700D01*
X75334599Y-41884700D01*
X76259898Y-42810000D01*
X69493033Y-42810000D01*
X69455700Y-42806323D01*
X69418367Y-42810000D01*
X69306714Y-42820997D01*
X69163453Y-42864454D01*
X69031424Y-42935026D01*
X68915699Y-43029999D01*
X68891901Y-43058997D01*
X58248499Y-53702400D01*
X58186361Y-53702400D01*
X57986402Y-53742174D01*
X57798044Y-53820195D01*
X57628526Y-53933463D01*
X57484363Y-54077626D01*
X57371095Y-54247144D01*
X57293074Y-54435502D01*
X57253300Y-54635461D01*
X57253300Y-54839339D01*
X57293074Y-55039298D01*
X57371095Y-55227656D01*
X57484363Y-55397174D01*
X57628526Y-55541337D01*
X57798044Y-55654605D01*
X57986402Y-55732626D01*
X58186361Y-55772400D01*
X58390239Y-55772400D01*
X58590198Y-55732626D01*
X58778556Y-55654605D01*
X58948074Y-55541337D01*
X59092237Y-55397174D01*
X59205505Y-55227656D01*
X59283526Y-55039298D01*
X59323300Y-54839339D01*
X59323300Y-54777201D01*
X69770502Y-44330000D01*
X76603897Y-44330000D01*
X76572068Y-44406842D01*
X76515000Y-44693740D01*
X76515000Y-44986260D01*
X76572068Y-45273158D01*
X76684010Y-45543411D01*
X76846525Y-45786632D01*
X77053368Y-45993475D01*
X77227760Y-46110000D01*
X77053368Y-46226525D01*
X76846525Y-46433368D01*
X76684010Y-46676589D01*
X76572068Y-46946842D01*
X76515000Y-47233740D01*
X76515000Y-47526260D01*
X76544789Y-47676019D01*
X76544386Y-47675897D01*
X76432733Y-47664900D01*
X76432722Y-47664900D01*
X76395400Y-47661224D01*
X76358078Y-47664900D01*
X75808423Y-47664900D01*
X75771100Y-47661224D01*
X75733777Y-47664900D01*
X75733767Y-47664900D01*
X75622114Y-47675897D01*
X75482328Y-47718300D01*
X75478853Y-47719354D01*
X75346823Y-47789926D01*
X75273923Y-47849754D01*
X75231099Y-47884899D01*
X75207301Y-47913897D01*
X66521903Y-56599296D01*
X66492899Y-56623099D01*
X66437771Y-56690274D01*
X66397926Y-56738824D01*
X66387814Y-56757743D01*
X66327354Y-56870854D01*
X66283897Y-57014115D01*
X66272900Y-57125768D01*
X66272900Y-57125778D01*
X66269224Y-57163100D01*
X66272900Y-57200423D01*
X66272901Y-58513400D01*
X47991711Y-58513400D01*
X47947774Y-58469463D01*
X47778256Y-58356195D01*
X47589898Y-58278174D01*
X47389939Y-58238400D01*
X47186061Y-58238400D01*
X46986102Y-58278174D01*
X46797744Y-58356195D01*
X46628226Y-58469463D01*
X46484063Y-58613626D01*
X46370795Y-58783144D01*
X46292774Y-58971502D01*
X46253000Y-59171461D01*
X46253000Y-59375339D01*
X46292774Y-59575298D01*
X46370795Y-59763656D01*
X46484063Y-59933174D01*
X46628226Y-60077337D01*
X46797744Y-60190605D01*
X46986102Y-60268626D01*
X47186061Y-60308400D01*
X47389939Y-60308400D01*
X47589898Y-60268626D01*
X47778256Y-60190605D01*
X47947774Y-60077337D01*
X47991711Y-60033400D01*
X66858599Y-60033400D01*
X71965000Y-65139802D01*
X71965000Y-65201939D01*
X72004774Y-65401898D01*
X72082795Y-65590256D01*
X72196063Y-65759774D01*
X72267245Y-65830956D01*
X70467301Y-67630900D01*
X70143415Y-67630900D01*
X70177600Y-67459039D01*
X70177600Y-67255161D01*
X70137826Y-67055202D01*
X70059805Y-66866844D01*
X69946537Y-66697326D01*
X69902600Y-66653389D01*
X69902600Y-66477025D01*
X69906276Y-66439700D01*
X69902600Y-66402375D01*
X69902600Y-66402367D01*
X69891603Y-66290714D01*
X69848146Y-66147453D01*
X69777574Y-66015424D01*
X69682601Y-65899699D01*
X69653603Y-65875901D01*
X65008400Y-61230699D01*
X65008400Y-61168561D01*
X64968626Y-60968602D01*
X64890605Y-60780244D01*
X64777337Y-60610726D01*
X64633174Y-60466563D01*
X64463656Y-60353295D01*
X64275298Y-60275274D01*
X64075339Y-60235500D01*
X63871461Y-60235500D01*
X63671502Y-60275274D01*
X63483144Y-60353295D01*
X63313626Y-60466563D01*
X63269689Y-60510500D01*
X46985302Y-60510500D01*
X43010000Y-56535199D01*
X43010000Y-55230486D01*
X44115054Y-54125433D01*
X44144051Y-54101636D01*
X44179106Y-54058921D01*
X44239024Y-53985912D01*
X44309596Y-53853882D01*
X44318956Y-53823026D01*
X44353037Y-53710674D01*
X44407987Y-53655724D01*
X44521255Y-53486206D01*
X44599276Y-53297848D01*
X44639050Y-53097889D01*
X44639050Y-52894011D01*
X44599276Y-52694052D01*
X44521255Y-52505694D01*
X44407987Y-52336176D01*
X44263824Y-52192013D01*
X44095355Y-52079446D01*
X48742502Y-47432300D01*
X51627589Y-47432300D01*
X51671526Y-47476237D01*
X51841044Y-47589505D01*
X52029402Y-47667526D01*
X52229361Y-47707300D01*
X52433239Y-47707300D01*
X52633198Y-47667526D01*
X52821556Y-47589505D01*
X52991074Y-47476237D01*
X53135237Y-47332074D01*
X53248505Y-47162556D01*
X53326526Y-46974198D01*
X53366300Y-46774239D01*
X53366300Y-46570361D01*
X53326526Y-46370402D01*
X53248505Y-46182044D01*
X53135237Y-46012526D01*
X52991074Y-45868363D01*
X52821556Y-45755095D01*
X52633198Y-45677074D01*
X52433239Y-45637300D01*
X52229361Y-45637300D01*
X52029402Y-45677074D01*
X51841044Y-45755095D01*
X51671526Y-45868363D01*
X51627589Y-45912300D01*
X48465023Y-45912300D01*
X48427700Y-45908624D01*
X48390377Y-45912300D01*
X48390367Y-45912300D01*
X48278714Y-45923297D01*
X48135453Y-45966754D01*
X48003424Y-46037326D01*
X47887699Y-46132299D01*
X47863901Y-46161297D01*
X41300500Y-52724699D01*
X41300500Y-33156301D01*
X41636595Y-32820206D01*
X41684126Y-32867737D01*
G36*
X79249124Y-26262892D02*
G01*
X79097588Y-26059731D01*
X78881355Y-25864822D01*
X78631252Y-25715843D01*
X78356891Y-25618519D01*
X78127000Y-25739186D01*
X78127000Y-26933000D01*
X78147000Y-26933000D01*
X78147000Y-27187000D01*
X78127000Y-27187000D01*
X78127000Y-27207000D01*
X77873000Y-27207000D01*
X77873000Y-27187000D01*
X76679845Y-27187000D01*
X76558524Y-27416890D01*
X76603175Y-27564099D01*
X76728359Y-27826920D01*
X76902412Y-28060269D01*
X77118645Y-28255178D01*
X77235534Y-28324805D01*
X77053368Y-28446525D01*
X76846525Y-28653368D01*
X76717204Y-28846911D01*
X76675714Y-28850997D01*
X76532453Y-28894454D01*
X76400424Y-28965026D01*
X76284699Y-29059999D01*
X76260901Y-29088997D01*
X72417699Y-32932200D01*
X63077711Y-32932200D01*
X63033774Y-32888263D01*
X62864256Y-32774995D01*
X62675898Y-32696974D01*
X62475939Y-32657200D01*
X62272061Y-32657200D01*
X62072102Y-32696974D01*
X61883744Y-32774995D01*
X61714226Y-32888263D01*
X61570063Y-33032426D01*
X61456795Y-33201944D01*
X61378774Y-33390302D01*
X61339000Y-33590261D01*
X61339000Y-33794139D01*
X61349117Y-33845000D01*
X50375818Y-33845000D01*
X50334800Y-33840960D01*
X50293781Y-33845000D01*
X50171111Y-33857082D01*
X50013713Y-33904828D01*
X49868654Y-33982364D01*
X49741509Y-34086709D01*
X49715363Y-34118568D01*
X48918934Y-34914998D01*
X48898061Y-34914998D01*
X48698102Y-34954772D01*
X48509744Y-35032793D01*
X48340226Y-35146061D01*
X48337187Y-35149100D01*
X47668429Y-35149100D01*
X47520556Y-35050295D01*
X47332198Y-34972274D01*
X47132239Y-34932500D01*
X46928361Y-34932500D01*
X46728402Y-34972274D01*
X46540044Y-35050295D01*
X46370526Y-35163563D01*
X46233695Y-35300394D01*
X43327373Y-32394072D01*
X43339126Y-32365698D01*
X43378900Y-32165739D01*
X43378900Y-31961861D01*
X43339126Y-31761902D01*
X43261105Y-31573544D01*
X43147837Y-31404026D01*
X43100306Y-31356495D01*
X47753691Y-26703110D01*
X76558524Y-26703110D01*
X76679845Y-26933000D01*
X77873000Y-26933000D01*
X77873000Y-25739186D01*
X77643109Y-25618519D01*
X77368748Y-25715843D01*
X77118645Y-25864822D01*
X76902412Y-26059731D01*
X76728359Y-26293080D01*
X76603175Y-26555901D01*
X76558524Y-26703110D01*
X47753691Y-26703110D01*
X51834144Y-22622658D01*
X64558951Y-22622658D01*
X64602888Y-22666595D01*
X64772406Y-22779863D01*
X64960764Y-22857884D01*
X65160723Y-22897658D01*
X65364601Y-22897658D01*
X65564560Y-22857884D01*
X65752918Y-22779863D01*
X65922436Y-22666595D01*
X66066599Y-22522432D01*
X66179867Y-22352914D01*
X66257888Y-22164556D01*
X66297662Y-21964597D01*
X66297662Y-21760719D01*
X66257888Y-21560760D01*
X66179867Y-21372402D01*
X66066599Y-21202884D01*
X65922436Y-21058721D01*
X65752918Y-20945453D01*
X65564560Y-20867432D01*
X65364601Y-20827658D01*
X65160723Y-20827658D01*
X64960764Y-20867432D01*
X64772406Y-20945453D01*
X64602888Y-21058721D01*
X64558951Y-21102658D01*
X51556664Y-21102658D01*
X51519341Y-21098982D01*
X51482018Y-21102658D01*
X51482009Y-21102658D01*
X51370356Y-21113655D01*
X51227095Y-21157112D01*
X51095066Y-21227684D01*
X50979341Y-21322657D01*
X50955543Y-21351655D01*
X40029498Y-32277701D01*
X40000500Y-32301499D01*
X39976702Y-32330497D01*
X39976701Y-32330498D01*
X39905526Y-32417224D01*
X39834954Y-32549254D01*
X39791498Y-32692515D01*
X39776824Y-32841500D01*
X39780501Y-32878833D01*
X39780500Y-57413889D01*
X39736563Y-57457826D01*
X39623295Y-57627344D01*
X39545274Y-57815702D01*
X39505500Y-58015661D01*
X39505500Y-58219539D01*
X39545274Y-58419498D01*
X39623295Y-58607856D01*
X39736563Y-58777374D01*
X39880726Y-58921537D01*
X40050244Y-59034805D01*
X40238602Y-59112826D01*
X40438561Y-59152600D01*
X40583001Y-59152600D01*
X40583001Y-59908997D01*
X38223600Y-62268399D01*
X38223600Y-50324222D01*
X38227276Y-50286899D01*
X38223600Y-50249576D01*
X38223600Y-50249567D01*
X38212603Y-50137914D01*
X38169146Y-49994653D01*
X38098574Y-49862624D01*
X38003601Y-49746899D01*
X37974603Y-49723101D01*
X35559000Y-47307499D01*
X35559000Y-47245361D01*
X35519226Y-47045402D01*
X35441205Y-46857044D01*
X35327937Y-46687526D01*
X35183774Y-46543363D01*
X35014256Y-46430095D01*
X34825898Y-46352074D01*
X34625939Y-46312300D01*
X34533200Y-46312300D01*
X34533200Y-10820610D01*
X34609974Y-10727061D01*
X34680546Y-10595032D01*
X34723987Y-10451824D01*
X34778937Y-10396874D01*
X34892205Y-10227356D01*
X34970226Y-10038998D01*
X35010000Y-9839039D01*
X35010000Y-9635161D01*
X34970226Y-9435202D01*
X34892205Y-9246844D01*
X34778937Y-9077326D01*
X34707661Y-9006050D01*
X34803937Y-8909774D01*
X34917205Y-8740256D01*
X34995226Y-8551898D01*
X35035000Y-8351939D01*
X35035000Y-8148061D01*
X34995226Y-7948102D01*
X34917205Y-7759744D01*
X34803937Y-7590226D01*
X34659774Y-7446063D01*
X34490256Y-7332795D01*
X34301898Y-7254774D01*
X34101939Y-7215000D01*
X33898061Y-7215000D01*
X33698102Y-7254774D01*
X33509744Y-7332795D01*
X33340226Y-7446063D01*
X33196063Y-7590226D01*
X33082795Y-7759744D01*
X33004774Y-7948102D01*
X32965000Y-8148061D01*
X32965000Y-8210199D01*
X32721398Y-8453801D01*
X32692400Y-8477599D01*
X32668602Y-8506597D01*
X32668601Y-8506598D01*
X32597426Y-8593324D01*
X32526854Y-8725354D01*
X32483398Y-8868615D01*
X32468724Y-9017600D01*
X32472401Y-9054933D01*
X32472400Y-47680978D01*
X32468724Y-47718300D01*
X32472400Y-47755622D01*
X32472400Y-47755632D01*
X32483397Y-47867285D01*
X32523844Y-48000624D01*
X32526854Y-48010546D01*
X32597426Y-48142576D01*
X32613532Y-48162201D01*
X32692399Y-48258301D01*
X32721403Y-48282104D01*
X33307205Y-48867906D01*
X33190226Y-48946069D01*
X33046063Y-49090232D01*
X32932795Y-49259750D01*
X32854774Y-49448108D01*
X32815000Y-49648067D01*
X32815000Y-49710204D01*
X28365205Y-54160000D01*
X23278178Y-54160000D01*
X23153475Y-53973368D01*
X22946632Y-53766525D01*
X22772240Y-53650000D01*
X22946632Y-53533475D01*
X23153475Y-53326632D01*
X23315990Y-53083411D01*
X23427932Y-52813158D01*
X23485000Y-52526260D01*
X23485000Y-52233740D01*
X23427932Y-51946842D01*
X23315990Y-51676589D01*
X23153475Y-51433368D01*
X22946632Y-51226525D01*
X22772240Y-51110000D01*
X22946632Y-50993475D01*
X23153475Y-50786632D01*
X23315990Y-50543411D01*
X23427932Y-50273158D01*
X23485000Y-49986260D01*
X23485000Y-49693740D01*
X23427932Y-49406842D01*
X23315990Y-49136589D01*
X23153475Y-48893368D01*
X22946632Y-48686525D01*
X22772240Y-48570000D01*
X22946632Y-48453475D01*
X23153475Y-48246632D01*
X23315990Y-48003411D01*
X23427932Y-47733158D01*
X23485000Y-47446260D01*
X23485000Y-47153740D01*
X23427932Y-46866842D01*
X23315990Y-46596589D01*
X23153475Y-46353368D01*
X22946632Y-46146525D01*
X22764466Y-46024805D01*
X22881355Y-45955178D01*
X23097588Y-45760269D01*
X23271641Y-45526920D01*
X23396825Y-45264099D01*
X23441476Y-45116890D01*
X23320155Y-44887000D01*
X22127000Y-44887000D01*
X22127000Y-44907000D01*
X21873000Y-44907000D01*
X21873000Y-44887000D01*
X21853000Y-44887000D01*
X21853000Y-44633000D01*
X21873000Y-44633000D01*
X21873000Y-43439186D01*
X22127000Y-43439186D01*
X22127000Y-44633000D01*
X23320155Y-44633000D01*
X23441476Y-44403110D01*
X23396825Y-44255901D01*
X23271641Y-43993080D01*
X23097588Y-43759731D01*
X22881355Y-43564822D01*
X22631252Y-43415843D01*
X22356891Y-43318519D01*
X22127000Y-43439186D01*
X21873000Y-43439186D01*
X21643109Y-43318519D01*
X21368748Y-43415843D01*
X21118645Y-43564822D01*
X20902412Y-43759731D01*
X20728359Y-43993080D01*
X20717016Y-44016895D01*
X20677601Y-660000D01*
X79272399Y-660000D01*
X79249124Y-26262892D01*
G37*
X79249124Y-26262892D02*
X79097588Y-26059731D01*
X78881355Y-25864822D01*
X78631252Y-25715843D01*
X78356891Y-25618519D01*
X78127000Y-25739186D01*
X78127000Y-26933000D01*
X78147000Y-26933000D01*
X78147000Y-27187000D01*
X78127000Y-27187000D01*
X78127000Y-27207000D01*
X77873000Y-27207000D01*
X77873000Y-27187000D01*
X76679845Y-27187000D01*
X76558524Y-27416890D01*
X76603175Y-27564099D01*
X76728359Y-27826920D01*
X76902412Y-28060269D01*
X77118645Y-28255178D01*
X77235534Y-28324805D01*
X77053368Y-28446525D01*
X76846525Y-28653368D01*
X76717204Y-28846911D01*
X76675714Y-28850997D01*
X76532453Y-28894454D01*
X76400424Y-28965026D01*
X76284699Y-29059999D01*
X76260901Y-29088997D01*
X72417699Y-32932200D01*
X63077711Y-32932200D01*
X63033774Y-32888263D01*
X62864256Y-32774995D01*
X62675898Y-32696974D01*
X62475939Y-32657200D01*
X62272061Y-32657200D01*
X62072102Y-32696974D01*
X61883744Y-32774995D01*
X61714226Y-32888263D01*
X61570063Y-33032426D01*
X61456795Y-33201944D01*
X61378774Y-33390302D01*
X61339000Y-33590261D01*
X61339000Y-33794139D01*
X61349117Y-33845000D01*
X50375818Y-33845000D01*
X50334800Y-33840960D01*
X50293781Y-33845000D01*
X50171111Y-33857082D01*
X50013713Y-33904828D01*
X49868654Y-33982364D01*
X49741509Y-34086709D01*
X49715363Y-34118568D01*
X48918934Y-34914998D01*
X48898061Y-34914998D01*
X48698102Y-34954772D01*
X48509744Y-35032793D01*
X48340226Y-35146061D01*
X48337187Y-35149100D01*
X47668429Y-35149100D01*
X47520556Y-35050295D01*
X47332198Y-34972274D01*
X47132239Y-34932500D01*
X46928361Y-34932500D01*
X46728402Y-34972274D01*
X46540044Y-35050295D01*
X46370526Y-35163563D01*
X46233695Y-35300394D01*
X43327373Y-32394072D01*
X43339126Y-32365698D01*
X43378900Y-32165739D01*
X43378900Y-31961861D01*
X43339126Y-31761902D01*
X43261105Y-31573544D01*
X43147837Y-31404026D01*
X43100306Y-31356495D01*
X47753691Y-26703110D01*
X76558524Y-26703110D01*
X76679845Y-26933000D01*
X77873000Y-26933000D01*
X77873000Y-25739186D01*
X77643109Y-25618519D01*
X77368748Y-25715843D01*
X77118645Y-25864822D01*
X76902412Y-26059731D01*
X76728359Y-26293080D01*
X76603175Y-26555901D01*
X76558524Y-26703110D01*
X47753691Y-26703110D01*
X51834144Y-22622658D01*
X64558951Y-22622658D01*
X64602888Y-22666595D01*
X64772406Y-22779863D01*
X64960764Y-22857884D01*
X65160723Y-22897658D01*
X65364601Y-22897658D01*
X65564560Y-22857884D01*
X65752918Y-22779863D01*
X65922436Y-22666595D01*
X66066599Y-22522432D01*
X66179867Y-22352914D01*
X66257888Y-22164556D01*
X66297662Y-21964597D01*
X66297662Y-21760719D01*
X66257888Y-21560760D01*
X66179867Y-21372402D01*
X66066599Y-21202884D01*
X65922436Y-21058721D01*
X65752918Y-20945453D01*
X65564560Y-20867432D01*
X65364601Y-20827658D01*
X65160723Y-20827658D01*
X64960764Y-20867432D01*
X64772406Y-20945453D01*
X64602888Y-21058721D01*
X64558951Y-21102658D01*
X51556664Y-21102658D01*
X51519341Y-21098982D01*
X51482018Y-21102658D01*
X51482009Y-21102658D01*
X51370356Y-21113655D01*
X51227095Y-21157112D01*
X51095066Y-21227684D01*
X50979341Y-21322657D01*
X50955543Y-21351655D01*
X40029498Y-32277701D01*
X40000500Y-32301499D01*
X39976702Y-32330497D01*
X39976701Y-32330498D01*
X39905526Y-32417224D01*
X39834954Y-32549254D01*
X39791498Y-32692515D01*
X39776824Y-32841500D01*
X39780501Y-32878833D01*
X39780500Y-57413889D01*
X39736563Y-57457826D01*
X39623295Y-57627344D01*
X39545274Y-57815702D01*
X39505500Y-58015661D01*
X39505500Y-58219539D01*
X39545274Y-58419498D01*
X39623295Y-58607856D01*
X39736563Y-58777374D01*
X39880726Y-58921537D01*
X40050244Y-59034805D01*
X40238602Y-59112826D01*
X40438561Y-59152600D01*
X40583001Y-59152600D01*
X40583001Y-59908997D01*
X38223600Y-62268399D01*
X38223600Y-50324222D01*
X38227276Y-50286899D01*
X38223600Y-50249576D01*
X38223600Y-50249567D01*
X38212603Y-50137914D01*
X38169146Y-49994653D01*
X38098574Y-49862624D01*
X38003601Y-49746899D01*
X37974603Y-49723101D01*
X35559000Y-47307499D01*
X35559000Y-47245361D01*
X35519226Y-47045402D01*
X35441205Y-46857044D01*
X35327937Y-46687526D01*
X35183774Y-46543363D01*
X35014256Y-46430095D01*
X34825898Y-46352074D01*
X34625939Y-46312300D01*
X34533200Y-46312300D01*
X34533200Y-10820610D01*
X34609974Y-10727061D01*
X34680546Y-10595032D01*
X34723987Y-10451824D01*
X34778937Y-10396874D01*
X34892205Y-10227356D01*
X34970226Y-10038998D01*
X35010000Y-9839039D01*
X35010000Y-9635161D01*
X34970226Y-9435202D01*
X34892205Y-9246844D01*
X34778937Y-9077326D01*
X34707661Y-9006050D01*
X34803937Y-8909774D01*
X34917205Y-8740256D01*
X34995226Y-8551898D01*
X35035000Y-8351939D01*
X35035000Y-8148061D01*
X34995226Y-7948102D01*
X34917205Y-7759744D01*
X34803937Y-7590226D01*
X34659774Y-7446063D01*
X34490256Y-7332795D01*
X34301898Y-7254774D01*
X34101939Y-7215000D01*
X33898061Y-7215000D01*
X33698102Y-7254774D01*
X33509744Y-7332795D01*
X33340226Y-7446063D01*
X33196063Y-7590226D01*
X33082795Y-7759744D01*
X33004774Y-7948102D01*
X32965000Y-8148061D01*
X32965000Y-8210199D01*
X32721398Y-8453801D01*
X32692400Y-8477599D01*
X32668602Y-8506597D01*
X32668601Y-8506598D01*
X32597426Y-8593324D01*
X32526854Y-8725354D01*
X32483398Y-8868615D01*
X32468724Y-9017600D01*
X32472401Y-9054933D01*
X32472400Y-47680978D01*
X32468724Y-47718300D01*
X32472400Y-47755622D01*
X32472400Y-47755632D01*
X32483397Y-47867285D01*
X32523844Y-48000624D01*
X32526854Y-48010546D01*
X32597426Y-48142576D01*
X32613532Y-48162201D01*
X32692399Y-48258301D01*
X32721403Y-48282104D01*
X33307205Y-48867906D01*
X33190226Y-48946069D01*
X33046063Y-49090232D01*
X32932795Y-49259750D01*
X32854774Y-49448108D01*
X32815000Y-49648067D01*
X32815000Y-49710204D01*
X28365205Y-54160000D01*
X23278178Y-54160000D01*
X23153475Y-53973368D01*
X22946632Y-53766525D01*
X22772240Y-53650000D01*
X22946632Y-53533475D01*
X23153475Y-53326632D01*
X23315990Y-53083411D01*
X23427932Y-52813158D01*
X23485000Y-52526260D01*
X23485000Y-52233740D01*
X23427932Y-51946842D01*
X23315990Y-51676589D01*
X23153475Y-51433368D01*
X22946632Y-51226525D01*
X22772240Y-51110000D01*
X22946632Y-50993475D01*
X23153475Y-50786632D01*
X23315990Y-50543411D01*
X23427932Y-50273158D01*
X23485000Y-49986260D01*
X23485000Y-49693740D01*
X23427932Y-49406842D01*
X23315990Y-49136589D01*
X23153475Y-48893368D01*
X22946632Y-48686525D01*
X22772240Y-48570000D01*
X22946632Y-48453475D01*
X23153475Y-48246632D01*
X23315990Y-48003411D01*
X23427932Y-47733158D01*
X23485000Y-47446260D01*
X23485000Y-47153740D01*
X23427932Y-46866842D01*
X23315990Y-46596589D01*
X23153475Y-46353368D01*
X22946632Y-46146525D01*
X22764466Y-46024805D01*
X22881355Y-45955178D01*
X23097588Y-45760269D01*
X23271641Y-45526920D01*
X23396825Y-45264099D01*
X23441476Y-45116890D01*
X23320155Y-44887000D01*
X22127000Y-44887000D01*
X22127000Y-44907000D01*
X21873000Y-44907000D01*
X21873000Y-44887000D01*
X21853000Y-44887000D01*
X21853000Y-44633000D01*
X21873000Y-44633000D01*
X21873000Y-43439186D01*
X22127000Y-43439186D01*
X22127000Y-44633000D01*
X23320155Y-44633000D01*
X23441476Y-44403110D01*
X23396825Y-44255901D01*
X23271641Y-43993080D01*
X23097588Y-43759731D01*
X22881355Y-43564822D01*
X22631252Y-43415843D01*
X22356891Y-43318519D01*
X22127000Y-43439186D01*
X21873000Y-43439186D01*
X21643109Y-43318519D01*
X21368748Y-43415843D01*
X21118645Y-43564822D01*
X20902412Y-43759731D01*
X20728359Y-43993080D01*
X20717016Y-44016895D01*
X20677601Y-660000D01*
X79272399Y-660000D01*
X79249124Y-26262892D01*
G36*
X19205445Y-38620244D02*
G01*
X19204494Y-38619463D01*
X19094180Y-38560498D01*
X18974482Y-38524188D01*
X18850000Y-38511928D01*
X17150000Y-38511928D01*
X17025518Y-38524188D01*
X16905820Y-38560498D01*
X16795506Y-38619463D01*
X16698815Y-38698815D01*
X16619463Y-38795506D01*
X16560498Y-38905820D01*
X16524188Y-39025518D01*
X16511928Y-39150000D01*
X16511928Y-40850000D01*
X16524188Y-40974482D01*
X16560498Y-41094180D01*
X16619463Y-41204494D01*
X16698815Y-41301185D01*
X16795506Y-41380537D01*
X16905820Y-41439502D01*
X16978380Y-41461513D01*
X16846525Y-41593368D01*
X16684010Y-41836589D01*
X16572068Y-42106842D01*
X16515000Y-42393740D01*
X16515000Y-42686260D01*
X16572068Y-42973158D01*
X16684010Y-43243411D01*
X16846525Y-43486632D01*
X17053368Y-43693475D01*
X17227760Y-43810000D01*
X17053368Y-43926525D01*
X16846525Y-44133368D01*
X16684010Y-44376589D01*
X16572068Y-44646842D01*
X16515000Y-44933740D01*
X16515000Y-45226260D01*
X16572068Y-45513158D01*
X16684010Y-45783411D01*
X16846525Y-46026632D01*
X17053368Y-46233475D01*
X17227760Y-46350000D01*
X17053368Y-46466525D01*
X16846525Y-46673368D01*
X16684010Y-46916589D01*
X16572068Y-47186842D01*
X16515000Y-47473740D01*
X16515000Y-47766260D01*
X16572068Y-48053158D01*
X16684010Y-48323411D01*
X16846525Y-48566632D01*
X17053368Y-48773475D01*
X17227760Y-48890000D01*
X17053368Y-49006525D01*
X16846525Y-49213368D01*
X16684010Y-49456589D01*
X16572068Y-49726842D01*
X16515000Y-50013740D01*
X16515000Y-50306260D01*
X16572068Y-50593158D01*
X16684010Y-50863411D01*
X16846525Y-51106632D01*
X17053368Y-51313475D01*
X17227760Y-51430000D01*
X17053368Y-51546525D01*
X16846525Y-51753368D01*
X16684010Y-51996589D01*
X16572068Y-52266842D01*
X16515000Y-52553740D01*
X16515000Y-52846260D01*
X16572068Y-53133158D01*
X16684010Y-53403411D01*
X16846525Y-53646632D01*
X17053368Y-53853475D01*
X17235534Y-53975195D01*
X17118645Y-54044822D01*
X16902412Y-54239731D01*
X16728359Y-54473080D01*
X16603175Y-54735901D01*
X16558524Y-54883110D01*
X16679845Y-55113000D01*
X17873000Y-55113000D01*
X17873000Y-55093000D01*
X18127000Y-55093000D01*
X18127000Y-55113000D01*
X18147000Y-55113000D01*
X18147000Y-55367000D01*
X18127000Y-55367000D01*
X18127000Y-56560814D01*
X18356891Y-56681481D01*
X18631252Y-56584157D01*
X18881355Y-56435178D01*
X19097588Y-56240269D01*
X19197497Y-56106323D01*
X19173300Y-109340000D01*
X660000Y-109340000D01*
X660000Y-106000000D01*
X3661928Y-106000000D01*
X3661928Y-107000000D01*
X3674188Y-107124482D01*
X3710498Y-107244180D01*
X3769463Y-107354494D01*
X3848815Y-107451185D01*
X3945506Y-107530537D01*
X4055820Y-107589502D01*
X4175518Y-107625812D01*
X4300000Y-107638072D01*
X6500000Y-107638072D01*
X6624482Y-107625812D01*
X6744180Y-107589502D01*
X6854494Y-107530537D01*
X6951185Y-107451185D01*
X7030537Y-107354494D01*
X7089502Y-107244180D01*
X7125812Y-107124482D01*
X7138072Y-107000000D01*
X7138072Y-106000000D01*
X7125812Y-105875518D01*
X7089502Y-105755820D01*
X7030537Y-105645506D01*
X6951185Y-105548815D01*
X6854494Y-105469463D01*
X6744180Y-105410498D01*
X6624482Y-105374188D01*
X6500000Y-105361928D01*
X4300000Y-105361928D01*
X4175518Y-105374188D01*
X4055820Y-105410498D01*
X3945506Y-105469463D01*
X3848815Y-105548815D01*
X3769463Y-105645506D01*
X3710498Y-105755820D01*
X3674188Y-105875518D01*
X3661928Y-106000000D01*
X660000Y-106000000D01*
X660000Y-104900000D01*
X11861928Y-104900000D01*
X11861928Y-107100000D01*
X11874188Y-107224482D01*
X11910498Y-107344180D01*
X11969463Y-107454494D01*
X12048815Y-107551185D01*
X12145506Y-107630537D01*
X12255820Y-107689502D01*
X12375518Y-107725812D01*
X12500000Y-107738072D01*
X13500000Y-107738072D01*
X13624482Y-107725812D01*
X13744180Y-107689502D01*
X13854494Y-107630537D01*
X13951185Y-107551185D01*
X14030537Y-107454494D01*
X14089502Y-107344180D01*
X14125812Y-107224482D01*
X14138072Y-107100000D01*
X14138072Y-104900000D01*
X14125812Y-104775518D01*
X14089502Y-104655820D01*
X14030537Y-104545506D01*
X13951185Y-104448815D01*
X13854494Y-104369463D01*
X13744180Y-104310498D01*
X13624482Y-104274188D01*
X13500000Y-104261928D01*
X12500000Y-104261928D01*
X12375518Y-104274188D01*
X12255820Y-104310498D01*
X12145506Y-104369463D01*
X12048815Y-104448815D01*
X11969463Y-104545506D01*
X11910498Y-104655820D01*
X11874188Y-104775518D01*
X11861928Y-104900000D01*
X660000Y-104900000D01*
X660000Y-103100000D01*
X861928Y-103100000D01*
X874188Y-103224482D01*
X910498Y-103344180D01*
X969463Y-103454494D01*
X1048815Y-103551185D01*
X1145506Y-103630537D01*
X1255820Y-103689502D01*
X1375518Y-103725812D01*
X1500000Y-103738072D01*
X1714250Y-103735000D01*
X1873000Y-103576250D01*
X1873000Y-102127000D01*
X2127000Y-102127000D01*
X2127000Y-103576250D01*
X2285750Y-103735000D01*
X2500000Y-103738072D01*
X2624482Y-103725812D01*
X2744180Y-103689502D01*
X2854494Y-103630537D01*
X2951185Y-103551185D01*
X3030537Y-103454494D01*
X3089502Y-103344180D01*
X3125812Y-103224482D01*
X3138072Y-103100000D01*
X3135000Y-102285750D01*
X2976250Y-102127000D01*
X2127000Y-102127000D01*
X1873000Y-102127000D01*
X1023750Y-102127000D01*
X865000Y-102285750D01*
X861928Y-103100000D01*
X660000Y-103100000D01*
X660000Y-100900000D01*
X861928Y-100900000D01*
X865000Y-101714250D01*
X1023750Y-101873000D01*
X1873000Y-101873000D01*
X1873000Y-100423750D01*
X2127000Y-100423750D01*
X2127000Y-101873000D01*
X2976250Y-101873000D01*
X3135000Y-101714250D01*
X3138072Y-100900000D01*
X3125812Y-100775518D01*
X3089502Y-100655820D01*
X3030537Y-100545506D01*
X2951185Y-100448815D01*
X2854494Y-100369463D01*
X2744180Y-100310498D01*
X2624482Y-100274188D01*
X2500000Y-100261928D01*
X2285750Y-100265000D01*
X2127000Y-100423750D01*
X1873000Y-100423750D01*
X1714250Y-100265000D01*
X1500000Y-100261928D01*
X1375518Y-100274188D01*
X1255820Y-100310498D01*
X1145506Y-100369463D01*
X1048815Y-100448815D01*
X969463Y-100545506D01*
X910498Y-100655820D01*
X874188Y-100775518D01*
X861928Y-100900000D01*
X660000Y-100900000D01*
X660000Y-99000000D01*
X6661928Y-99000000D01*
X6661928Y-100000000D01*
X6674188Y-100124482D01*
X6710498Y-100244180D01*
X6769463Y-100354494D01*
X6848815Y-100451185D01*
X6945506Y-100530537D01*
X7055820Y-100589502D01*
X7175518Y-100625812D01*
X7300000Y-100638072D01*
X9500000Y-100638072D01*
X9624482Y-100625812D01*
X9744180Y-100589502D01*
X9854494Y-100530537D01*
X9951185Y-100451185D01*
X10030537Y-100354494D01*
X10089502Y-100244180D01*
X10125812Y-100124482D01*
X10138072Y-100000000D01*
X10138072Y-99000000D01*
X10125812Y-98875518D01*
X10089502Y-98755820D01*
X10030537Y-98645506D01*
X9951185Y-98548815D01*
X9854494Y-98469463D01*
X9744180Y-98410498D01*
X9624482Y-98374188D01*
X9500000Y-98361928D01*
X7300000Y-98361928D01*
X7175518Y-98374188D01*
X7055820Y-98410498D01*
X6945506Y-98469463D01*
X6848815Y-98548815D01*
X6769463Y-98645506D01*
X6710498Y-98755820D01*
X6674188Y-98875518D01*
X6661928Y-99000000D01*
X660000Y-99000000D01*
X660000Y-96300000D01*
X8061928Y-96300000D01*
X8061928Y-97300000D01*
X8074188Y-97424482D01*
X8110498Y-97544180D01*
X8169463Y-97654494D01*
X8248815Y-97751185D01*
X8345506Y-97830537D01*
X8455820Y-97889502D01*
X8575518Y-97925812D01*
X8700000Y-97938072D01*
X10900000Y-97938072D01*
X11024482Y-97925812D01*
X11144180Y-97889502D01*
X11254494Y-97830537D01*
X11351185Y-97751185D01*
X11430537Y-97654494D01*
X11489502Y-97544180D01*
X11525812Y-97424482D01*
X11538072Y-97300000D01*
X11538072Y-96300000D01*
X11525812Y-96175518D01*
X11489502Y-96055820D01*
X11430537Y-95945506D01*
X11351185Y-95848815D01*
X11254494Y-95769463D01*
X11144180Y-95710498D01*
X11024482Y-95674188D01*
X10900000Y-95661928D01*
X8700000Y-95661928D01*
X8575518Y-95674188D01*
X8455820Y-95710498D01*
X8345506Y-95769463D01*
X8248815Y-95848815D01*
X8169463Y-95945506D01*
X8110498Y-96055820D01*
X8074188Y-96175518D01*
X8061928Y-96300000D01*
X660000Y-96300000D01*
X660000Y-91000000D01*
X3661928Y-91000000D01*
X3661928Y-92000000D01*
X3674188Y-92124482D01*
X3710498Y-92244180D01*
X3769463Y-92354494D01*
X3848815Y-92451185D01*
X3945506Y-92530537D01*
X4055820Y-92589502D01*
X4175518Y-92625812D01*
X4300000Y-92638072D01*
X6500000Y-92638072D01*
X6624482Y-92625812D01*
X6744180Y-92589502D01*
X6854494Y-92530537D01*
X6951185Y-92451185D01*
X7030537Y-92354494D01*
X7089502Y-92244180D01*
X7125812Y-92124482D01*
X7138072Y-92000000D01*
X7138072Y-91000000D01*
X7125812Y-90875518D01*
X7089502Y-90755820D01*
X7030537Y-90645506D01*
X6951185Y-90548815D01*
X6854494Y-90469463D01*
X6744180Y-90410498D01*
X6624482Y-90374188D01*
X6500000Y-90361928D01*
X4300000Y-90361928D01*
X4175518Y-90374188D01*
X4055820Y-90410498D01*
X3945506Y-90469463D01*
X3848815Y-90548815D01*
X3769463Y-90645506D01*
X3710498Y-90755820D01*
X3674188Y-90875518D01*
X3661928Y-91000000D01*
X660000Y-91000000D01*
X660000Y-89900000D01*
X11861928Y-89900000D01*
X11861928Y-92100000D01*
X11874188Y-92224482D01*
X11910498Y-92344180D01*
X11969463Y-92454494D01*
X12048815Y-92551185D01*
X12145506Y-92630537D01*
X12255820Y-92689502D01*
X12375518Y-92725812D01*
X12500000Y-92738072D01*
X13500000Y-92738072D01*
X13624482Y-92725812D01*
X13744180Y-92689502D01*
X13854494Y-92630537D01*
X13951185Y-92551185D01*
X14030537Y-92454494D01*
X14089502Y-92344180D01*
X14125812Y-92224482D01*
X14138072Y-92100000D01*
X14138072Y-89900000D01*
X14125812Y-89775518D01*
X14089502Y-89655820D01*
X14030537Y-89545506D01*
X13951185Y-89448815D01*
X13854494Y-89369463D01*
X13744180Y-89310498D01*
X13624482Y-89274188D01*
X13500000Y-89261928D01*
X12500000Y-89261928D01*
X12375518Y-89274188D01*
X12255820Y-89310498D01*
X12145506Y-89369463D01*
X12048815Y-89448815D01*
X11969463Y-89545506D01*
X11910498Y-89655820D01*
X11874188Y-89775518D01*
X11861928Y-89900000D01*
X660000Y-89900000D01*
X660000Y-88100000D01*
X861928Y-88100000D01*
X874188Y-88224482D01*
X910498Y-88344180D01*
X969463Y-88454494D01*
X1048815Y-88551185D01*
X1145506Y-88630537D01*
X1255820Y-88689502D01*
X1375518Y-88725812D01*
X1500000Y-88738072D01*
X1714250Y-88735000D01*
X1873000Y-88576250D01*
X1873000Y-87127000D01*
X2127000Y-87127000D01*
X2127000Y-88576250D01*
X2285750Y-88735000D01*
X2500000Y-88738072D01*
X2624482Y-88725812D01*
X2744180Y-88689502D01*
X2854494Y-88630537D01*
X2951185Y-88551185D01*
X3030537Y-88454494D01*
X3089502Y-88344180D01*
X3125812Y-88224482D01*
X3138072Y-88100000D01*
X3135000Y-87285750D01*
X2976250Y-87127000D01*
X2127000Y-87127000D01*
X1873000Y-87127000D01*
X1023750Y-87127000D01*
X865000Y-87285750D01*
X861928Y-88100000D01*
X660000Y-88100000D01*
X660000Y-85900000D01*
X861928Y-85900000D01*
X865000Y-86714250D01*
X1023750Y-86873000D01*
X1873000Y-86873000D01*
X1873000Y-85423750D01*
X2127000Y-85423750D01*
X2127000Y-86873000D01*
X2976250Y-86873000D01*
X3135000Y-86714250D01*
X3138072Y-85900000D01*
X3125812Y-85775518D01*
X3089502Y-85655820D01*
X3030537Y-85545506D01*
X2951185Y-85448815D01*
X2854494Y-85369463D01*
X2744180Y-85310498D01*
X2624482Y-85274188D01*
X2500000Y-85261928D01*
X2285750Y-85265000D01*
X2127000Y-85423750D01*
X1873000Y-85423750D01*
X1714250Y-85265000D01*
X1500000Y-85261928D01*
X1375518Y-85274188D01*
X1255820Y-85310498D01*
X1145506Y-85369463D01*
X1048815Y-85448815D01*
X969463Y-85545506D01*
X910498Y-85655820D01*
X874188Y-85775518D01*
X861928Y-85900000D01*
X660000Y-85900000D01*
X660000Y-84000000D01*
X6661928Y-84000000D01*
X6661928Y-85000000D01*
X6674188Y-85124482D01*
X6710498Y-85244180D01*
X6769463Y-85354494D01*
X6848815Y-85451185D01*
X6945506Y-85530537D01*
X7055820Y-85589502D01*
X7175518Y-85625812D01*
X7300000Y-85638072D01*
X9500000Y-85638072D01*
X9624482Y-85625812D01*
X9744180Y-85589502D01*
X9854494Y-85530537D01*
X9951185Y-85451185D01*
X10030537Y-85354494D01*
X10089502Y-85244180D01*
X10125812Y-85124482D01*
X10138072Y-85000000D01*
X10138072Y-84000000D01*
X10125812Y-83875518D01*
X10089502Y-83755820D01*
X10030537Y-83645506D01*
X9951185Y-83548815D01*
X9854494Y-83469463D01*
X9744180Y-83410498D01*
X9624482Y-83374188D01*
X9500000Y-83361928D01*
X7300000Y-83361928D01*
X7175518Y-83374188D01*
X7055820Y-83410498D01*
X6945506Y-83469463D01*
X6848815Y-83548815D01*
X6769463Y-83645506D01*
X6710498Y-83755820D01*
X6674188Y-83875518D01*
X6661928Y-84000000D01*
X660000Y-84000000D01*
X660000Y-81300000D01*
X8061928Y-81300000D01*
X8061928Y-82300000D01*
X8074188Y-82424482D01*
X8110498Y-82544180D01*
X8169463Y-82654494D01*
X8248815Y-82751185D01*
X8345506Y-82830537D01*
X8455820Y-82889502D01*
X8575518Y-82925812D01*
X8700000Y-82938072D01*
X10900000Y-82938072D01*
X11024482Y-82925812D01*
X11144180Y-82889502D01*
X11254494Y-82830537D01*
X11351185Y-82751185D01*
X11430537Y-82654494D01*
X11489502Y-82544180D01*
X11525812Y-82424482D01*
X11538072Y-82300000D01*
X11538072Y-81300000D01*
X11525812Y-81175518D01*
X11489502Y-81055820D01*
X11430537Y-80945506D01*
X11351185Y-80848815D01*
X11254494Y-80769463D01*
X11144180Y-80710498D01*
X11024482Y-80674188D01*
X10900000Y-80661928D01*
X8700000Y-80661928D01*
X8575518Y-80674188D01*
X8455820Y-80710498D01*
X8345506Y-80769463D01*
X8248815Y-80848815D01*
X8169463Y-80945506D01*
X8110498Y-81055820D01*
X8074188Y-81175518D01*
X8061928Y-81300000D01*
X660000Y-81300000D01*
X660000Y-68064080D01*
X2615525Y-68064080D01*
X2699208Y-68318261D01*
X2971775Y-68449158D01*
X3264642Y-68524365D01*
X3566553Y-68540991D01*
X3865907Y-68498397D01*
X4067356Y-68427662D01*
X3977791Y-68643892D01*
X3865000Y-69210928D01*
X3865000Y-69789072D01*
X3977791Y-70356108D01*
X4199037Y-70890244D01*
X4520237Y-71370953D01*
X4929047Y-71779763D01*
X5409756Y-72100963D01*
X5943892Y-72322209D01*
X6510928Y-72435000D01*
X7089072Y-72435000D01*
X7656108Y-72322209D01*
X8190244Y-72100963D01*
X8670953Y-71779763D01*
X9079763Y-71370953D01*
X9400963Y-70890244D01*
X9622209Y-70356108D01*
X9735000Y-69789072D01*
X9735000Y-69210928D01*
X9622209Y-68643892D01*
X9400963Y-68109756D01*
X9079763Y-67629047D01*
X8670953Y-67220237D01*
X8190244Y-66899037D01*
X7656108Y-66677791D01*
X7089072Y-66565000D01*
X6510928Y-66565000D01*
X5943892Y-66677791D01*
X5409756Y-66899037D01*
X5028871Y-67153537D01*
X5040991Y-66933447D01*
X4998397Y-66634093D01*
X4898222Y-66348801D01*
X4818261Y-66199208D01*
X4564080Y-66115525D01*
X3679605Y-67000000D01*
X3693748Y-67014143D01*
X3514143Y-67193748D01*
X3500000Y-67179605D01*
X2615525Y-68064080D01*
X660000Y-68064080D01*
X660000Y-67066553D01*
X1959009Y-67066553D01*
X2001603Y-67365907D01*
X2101778Y-67651199D01*
X2181739Y-67800792D01*
X2435920Y-67884475D01*
X3320395Y-67000000D01*
X2435920Y-66115525D01*
X2181739Y-66199208D01*
X2050842Y-66471775D01*
X1975635Y-66764642D01*
X1959009Y-67066553D01*
X660000Y-67066553D01*
X660000Y-61848816D01*
X1965000Y-61848816D01*
X1965000Y-62151184D01*
X2023989Y-62447743D01*
X2139701Y-62727095D01*
X2307688Y-62978505D01*
X2521495Y-63192312D01*
X2607831Y-63250000D01*
X2521495Y-63307688D01*
X2307688Y-63521495D01*
X2139701Y-63772905D01*
X2023989Y-64052257D01*
X1965000Y-64348816D01*
X1965000Y-64651184D01*
X2023989Y-64947743D01*
X2139701Y-65227095D01*
X2307688Y-65478505D01*
X2521495Y-65692312D01*
X2664310Y-65787738D01*
X2615525Y-65935920D01*
X3500000Y-66820395D01*
X4384475Y-65935920D01*
X4335690Y-65787738D01*
X4478505Y-65692312D01*
X4692312Y-65478505D01*
X4860299Y-65227095D01*
X4976011Y-64947743D01*
X5035000Y-64651184D01*
X5035000Y-64348816D01*
X4976011Y-64052257D01*
X4860299Y-63772905D01*
X4692312Y-63521495D01*
X4478505Y-63307688D01*
X4392169Y-63250000D01*
X4478505Y-63192312D01*
X4692312Y-62978505D01*
X4860299Y-62727095D01*
X4976011Y-62447743D01*
X5035000Y-62151184D01*
X5035000Y-61850559D01*
X5409756Y-62100963D01*
X5943892Y-62322209D01*
X6510928Y-62435000D01*
X7089072Y-62435000D01*
X7656108Y-62322209D01*
X8190244Y-62100963D01*
X8670953Y-61779763D01*
X9079763Y-61370953D01*
X9400963Y-60890244D01*
X9622209Y-60356108D01*
X9735000Y-59789072D01*
X9735000Y-59210928D01*
X9622209Y-58643892D01*
X9400963Y-58109756D01*
X9079763Y-57629047D01*
X8670953Y-57220237D01*
X8190244Y-56899037D01*
X7656108Y-56677791D01*
X7089072Y-56565000D01*
X6510928Y-56565000D01*
X5943892Y-56677791D01*
X5409756Y-56899037D01*
X4929047Y-57220237D01*
X4520237Y-57629047D01*
X4199037Y-58109756D01*
X3977791Y-58643892D01*
X3865000Y-59210928D01*
X3865000Y-59789072D01*
X3977791Y-60356108D01*
X4067955Y-60573783D01*
X3947743Y-60523989D01*
X3651184Y-60465000D01*
X3348816Y-60465000D01*
X3052257Y-60523989D01*
X2772905Y-60639701D01*
X2521495Y-60807688D01*
X2307688Y-61021495D01*
X2139701Y-61272905D01*
X2023989Y-61552257D01*
X1965000Y-61848816D01*
X660000Y-61848816D01*
X660000Y-55596890D01*
X16558524Y-55596890D01*
X16603175Y-55744099D01*
X16728359Y-56006920D01*
X16902412Y-56240269D01*
X17118645Y-56435178D01*
X17368748Y-56584157D01*
X17643109Y-56681481D01*
X17873000Y-56560814D01*
X17873000Y-55367000D01*
X16679845Y-55367000D01*
X16558524Y-55596890D01*
X660000Y-55596890D01*
X660000Y-46064080D01*
X2615525Y-46064080D01*
X2699208Y-46318261D01*
X2971775Y-46449158D01*
X3264642Y-46524365D01*
X3566553Y-46540991D01*
X3865907Y-46498397D01*
X4067356Y-46427662D01*
X3977791Y-46643892D01*
X3865000Y-47210928D01*
X3865000Y-47789072D01*
X3977791Y-48356108D01*
X4199037Y-48890244D01*
X4520237Y-49370953D01*
X4929047Y-49779763D01*
X5409756Y-50100963D01*
X5943892Y-50322209D01*
X6510928Y-50435000D01*
X7089072Y-50435000D01*
X7656108Y-50322209D01*
X8190244Y-50100963D01*
X8670953Y-49779763D01*
X9079763Y-49370953D01*
X9400963Y-48890244D01*
X9622209Y-48356108D01*
X9735000Y-47789072D01*
X9735000Y-47210928D01*
X9622209Y-46643892D01*
X9400963Y-46109756D01*
X9079763Y-45629047D01*
X8670953Y-45220237D01*
X8190244Y-44899037D01*
X7656108Y-44677791D01*
X7089072Y-44565000D01*
X6510928Y-44565000D01*
X5943892Y-44677791D01*
X5409756Y-44899037D01*
X5028871Y-45153537D01*
X5040991Y-44933447D01*
X4998397Y-44634093D01*
X4898222Y-44348801D01*
X4818261Y-44199208D01*
X4564080Y-44115525D01*
X3679605Y-45000000D01*
X3693748Y-45014143D01*
X3514143Y-45193748D01*
X3500000Y-45179605D01*
X2615525Y-46064080D01*
X660000Y-46064080D01*
X660000Y-45066553D01*
X1959009Y-45066553D01*
X2001603Y-45365907D01*
X2101778Y-45651199D01*
X2181739Y-45800792D01*
X2435920Y-45884475D01*
X3320395Y-45000000D01*
X2435920Y-44115525D01*
X2181739Y-44199208D01*
X2050842Y-44471775D01*
X1975635Y-44764642D01*
X1959009Y-45066553D01*
X660000Y-45066553D01*
X660000Y-39848816D01*
X1965000Y-39848816D01*
X1965000Y-40151184D01*
X2023989Y-40447743D01*
X2139701Y-40727095D01*
X2307688Y-40978505D01*
X2521495Y-41192312D01*
X2607831Y-41250000D01*
X2521495Y-41307688D01*
X2307688Y-41521495D01*
X2139701Y-41772905D01*
X2023989Y-42052257D01*
X1965000Y-42348816D01*
X1965000Y-42651184D01*
X2023989Y-42947743D01*
X2139701Y-43227095D01*
X2307688Y-43478505D01*
X2521495Y-43692312D01*
X2664310Y-43787738D01*
X2615525Y-43935920D01*
X3500000Y-44820395D01*
X4384475Y-43935920D01*
X4335690Y-43787738D01*
X4478505Y-43692312D01*
X4692312Y-43478505D01*
X4860299Y-43227095D01*
X4976011Y-42947743D01*
X5035000Y-42651184D01*
X5035000Y-42348816D01*
X4976011Y-42052257D01*
X4860299Y-41772905D01*
X4692312Y-41521495D01*
X4478505Y-41307688D01*
X4392169Y-41250000D01*
X4478505Y-41192312D01*
X4692312Y-40978505D01*
X4860299Y-40727095D01*
X4976011Y-40447743D01*
X5035000Y-40151184D01*
X5035000Y-39850559D01*
X5409756Y-40100963D01*
X5943892Y-40322209D01*
X6510928Y-40435000D01*
X7089072Y-40435000D01*
X7656108Y-40322209D01*
X8190244Y-40100963D01*
X8670953Y-39779763D01*
X9079763Y-39370953D01*
X9400963Y-38890244D01*
X9622209Y-38356108D01*
X9735000Y-37789072D01*
X9735000Y-37210928D01*
X9622209Y-36643892D01*
X9400963Y-36109756D01*
X9079763Y-35629047D01*
X8670953Y-35220237D01*
X8190244Y-34899037D01*
X7656108Y-34677791D01*
X7089072Y-34565000D01*
X6510928Y-34565000D01*
X5943892Y-34677791D01*
X5409756Y-34899037D01*
X4929047Y-35220237D01*
X4520237Y-35629047D01*
X4199037Y-36109756D01*
X3977791Y-36643892D01*
X3865000Y-37210928D01*
X3865000Y-37789072D01*
X3977791Y-38356108D01*
X4067955Y-38573783D01*
X3947743Y-38523989D01*
X3651184Y-38465000D01*
X3348816Y-38465000D01*
X3052257Y-38523989D01*
X2772905Y-38639701D01*
X2521495Y-38807688D01*
X2307688Y-39021495D01*
X2139701Y-39272905D01*
X2023989Y-39552257D01*
X1965000Y-39848816D01*
X660000Y-39848816D01*
X660000Y-26000000D01*
X3661928Y-26000000D01*
X3661928Y-27000000D01*
X3674188Y-27124482D01*
X3710498Y-27244180D01*
X3769463Y-27354494D01*
X3848815Y-27451185D01*
X3945506Y-27530537D01*
X4055820Y-27589502D01*
X4175518Y-27625812D01*
X4300000Y-27638072D01*
X6500000Y-27638072D01*
X6624482Y-27625812D01*
X6744180Y-27589502D01*
X6854494Y-27530537D01*
X6951185Y-27451185D01*
X7030537Y-27354494D01*
X7089502Y-27244180D01*
X7125812Y-27124482D01*
X7138072Y-27000000D01*
X7138072Y-26000000D01*
X7125812Y-25875518D01*
X7089502Y-25755820D01*
X7030537Y-25645506D01*
X6951185Y-25548815D01*
X6854494Y-25469463D01*
X6744180Y-25410498D01*
X6624482Y-25374188D01*
X6500000Y-25361928D01*
X4300000Y-25361928D01*
X4175518Y-25374188D01*
X4055820Y-25410498D01*
X3945506Y-25469463D01*
X3848815Y-25548815D01*
X3769463Y-25645506D01*
X3710498Y-25755820D01*
X3674188Y-25875518D01*
X3661928Y-26000000D01*
X660000Y-26000000D01*
X660000Y-24900000D01*
X11861928Y-24900000D01*
X11861928Y-27100000D01*
X11874188Y-27224482D01*
X11910498Y-27344180D01*
X11969463Y-27454494D01*
X12048815Y-27551185D01*
X12145506Y-27630537D01*
X12255820Y-27689502D01*
X12375518Y-27725812D01*
X12500000Y-27738072D01*
X13500000Y-27738072D01*
X13624482Y-27725812D01*
X13744180Y-27689502D01*
X13854494Y-27630537D01*
X13951185Y-27551185D01*
X14030537Y-27454494D01*
X14089502Y-27344180D01*
X14125812Y-27224482D01*
X14138072Y-27100000D01*
X14138072Y-24900000D01*
X14125812Y-24775518D01*
X14089502Y-24655820D01*
X14030537Y-24545506D01*
X13951185Y-24448815D01*
X13854494Y-24369463D01*
X13744180Y-24310498D01*
X13624482Y-24274188D01*
X13500000Y-24261928D01*
X12500000Y-24261928D01*
X12375518Y-24274188D01*
X12255820Y-24310498D01*
X12145506Y-24369463D01*
X12048815Y-24448815D01*
X11969463Y-24545506D01*
X11910498Y-24655820D01*
X11874188Y-24775518D01*
X11861928Y-24900000D01*
X660000Y-24900000D01*
X660000Y-23100000D01*
X861928Y-23100000D01*
X874188Y-23224482D01*
X910498Y-23344180D01*
X969463Y-23454494D01*
X1048815Y-23551185D01*
X1145506Y-23630537D01*
X1255820Y-23689502D01*
X1375518Y-23725812D01*
X1500000Y-23738072D01*
X1714250Y-23735000D01*
X1873000Y-23576250D01*
X1873000Y-22127000D01*
X2127000Y-22127000D01*
X2127000Y-23576250D01*
X2285750Y-23735000D01*
X2500000Y-23738072D01*
X2624482Y-23725812D01*
X2744180Y-23689502D01*
X2854494Y-23630537D01*
X2951185Y-23551185D01*
X3030537Y-23454494D01*
X3089502Y-23344180D01*
X3125812Y-23224482D01*
X3138072Y-23100000D01*
X3135000Y-22285750D01*
X2976250Y-22127000D01*
X2127000Y-22127000D01*
X1873000Y-22127000D01*
X1023750Y-22127000D01*
X865000Y-22285750D01*
X861928Y-23100000D01*
X660000Y-23100000D01*
X660000Y-20900000D01*
X861928Y-20900000D01*
X865000Y-21714250D01*
X1023750Y-21873000D01*
X1873000Y-21873000D01*
X1873000Y-20423750D01*
X2127000Y-20423750D01*
X2127000Y-21873000D01*
X2976250Y-21873000D01*
X3135000Y-21714250D01*
X3138072Y-20900000D01*
X3125812Y-20775518D01*
X3089502Y-20655820D01*
X3030537Y-20545506D01*
X2951185Y-20448815D01*
X2854494Y-20369463D01*
X2744180Y-20310498D01*
X2624482Y-20274188D01*
X2500000Y-20261928D01*
X2285750Y-20265000D01*
X2127000Y-20423750D01*
X1873000Y-20423750D01*
X1714250Y-20265000D01*
X1500000Y-20261928D01*
X1375518Y-20274188D01*
X1255820Y-20310498D01*
X1145506Y-20369463D01*
X1048815Y-20448815D01*
X969463Y-20545506D01*
X910498Y-20655820D01*
X874188Y-20775518D01*
X861928Y-20900000D01*
X660000Y-20900000D01*
X660000Y-19000000D01*
X6661928Y-19000000D01*
X6661928Y-20000000D01*
X6674188Y-20124482D01*
X6710498Y-20244180D01*
X6769463Y-20354494D01*
X6848815Y-20451185D01*
X6945506Y-20530537D01*
X7055820Y-20589502D01*
X7175518Y-20625812D01*
X7300000Y-20638072D01*
X9500000Y-20638072D01*
X9624482Y-20625812D01*
X9744180Y-20589502D01*
X9854494Y-20530537D01*
X9951185Y-20451185D01*
X10030537Y-20354494D01*
X10089502Y-20244180D01*
X10125812Y-20124482D01*
X10138072Y-20000000D01*
X10138072Y-19000000D01*
X10125812Y-18875518D01*
X10089502Y-18755820D01*
X10030537Y-18645506D01*
X9951185Y-18548815D01*
X9854494Y-18469463D01*
X9744180Y-18410498D01*
X9624482Y-18374188D01*
X9500000Y-18361928D01*
X7300000Y-18361928D01*
X7175518Y-18374188D01*
X7055820Y-18410498D01*
X6945506Y-18469463D01*
X6848815Y-18548815D01*
X6769463Y-18645506D01*
X6710498Y-18755820D01*
X6674188Y-18875518D01*
X6661928Y-19000000D01*
X660000Y-19000000D01*
X660000Y-16300000D01*
X8061928Y-16300000D01*
X8061928Y-17300000D01*
X8074188Y-17424482D01*
X8110498Y-17544180D01*
X8169463Y-17654494D01*
X8248815Y-17751185D01*
X8345506Y-17830537D01*
X8455820Y-17889502D01*
X8575518Y-17925812D01*
X8700000Y-17938072D01*
X10900000Y-17938072D01*
X11024482Y-17925812D01*
X11144180Y-17889502D01*
X11254494Y-17830537D01*
X11351185Y-17751185D01*
X11430537Y-17654494D01*
X11489502Y-17544180D01*
X11525812Y-17424482D01*
X11538072Y-17300000D01*
X11538072Y-16300000D01*
X11525812Y-16175518D01*
X11489502Y-16055820D01*
X11430537Y-15945506D01*
X11351185Y-15848815D01*
X11254494Y-15769463D01*
X11144180Y-15710498D01*
X11024482Y-15674188D01*
X10900000Y-15661928D01*
X8700000Y-15661928D01*
X8575518Y-15674188D01*
X8455820Y-15710498D01*
X8345506Y-15769463D01*
X8248815Y-15848815D01*
X8169463Y-15945506D01*
X8110498Y-16055820D01*
X8074188Y-16175518D01*
X8061928Y-16300000D01*
X660000Y-16300000D01*
X660000Y-660000D01*
X19222700Y-660000D01*
X19205445Y-38620244D01*
G37*
X19205445Y-38620244D02*
X19204494Y-38619463D01*
X19094180Y-38560498D01*
X18974482Y-38524188D01*
X18850000Y-38511928D01*
X17150000Y-38511928D01*
X17025518Y-38524188D01*
X16905820Y-38560498D01*
X16795506Y-38619463D01*
X16698815Y-38698815D01*
X16619463Y-38795506D01*
X16560498Y-38905820D01*
X16524188Y-39025518D01*
X16511928Y-39150000D01*
X16511928Y-40850000D01*
X16524188Y-40974482D01*
X16560498Y-41094180D01*
X16619463Y-41204494D01*
X16698815Y-41301185D01*
X16795506Y-41380537D01*
X16905820Y-41439502D01*
X16978380Y-41461513D01*
X16846525Y-41593368D01*
X16684010Y-41836589D01*
X16572068Y-42106842D01*
X16515000Y-42393740D01*
X16515000Y-42686260D01*
X16572068Y-42973158D01*
X16684010Y-43243411D01*
X16846525Y-43486632D01*
X17053368Y-43693475D01*
X17227760Y-43810000D01*
X17053368Y-43926525D01*
X16846525Y-44133368D01*
X16684010Y-44376589D01*
X16572068Y-44646842D01*
X16515000Y-44933740D01*
X16515000Y-45226260D01*
X16572068Y-45513158D01*
X16684010Y-45783411D01*
X16846525Y-46026632D01*
X17053368Y-46233475D01*
X17227760Y-46350000D01*
X17053368Y-46466525D01*
X16846525Y-46673368D01*
X16684010Y-46916589D01*
X16572068Y-47186842D01*
X16515000Y-47473740D01*
X16515000Y-47766260D01*
X16572068Y-48053158D01*
X16684010Y-48323411D01*
X16846525Y-48566632D01*
X17053368Y-48773475D01*
X17227760Y-48890000D01*
X17053368Y-49006525D01*
X16846525Y-49213368D01*
X16684010Y-49456589D01*
X16572068Y-49726842D01*
X16515000Y-50013740D01*
X16515000Y-50306260D01*
X16572068Y-50593158D01*
X16684010Y-50863411D01*
X16846525Y-51106632D01*
X17053368Y-51313475D01*
X17227760Y-51430000D01*
X17053368Y-51546525D01*
X16846525Y-51753368D01*
X16684010Y-51996589D01*
X16572068Y-52266842D01*
X16515000Y-52553740D01*
X16515000Y-52846260D01*
X16572068Y-53133158D01*
X16684010Y-53403411D01*
X16846525Y-53646632D01*
X17053368Y-53853475D01*
X17235534Y-53975195D01*
X17118645Y-54044822D01*
X16902412Y-54239731D01*
X16728359Y-54473080D01*
X16603175Y-54735901D01*
X16558524Y-54883110D01*
X16679845Y-55113000D01*
X17873000Y-55113000D01*
X17873000Y-55093000D01*
X18127000Y-55093000D01*
X18127000Y-55113000D01*
X18147000Y-55113000D01*
X18147000Y-55367000D01*
X18127000Y-55367000D01*
X18127000Y-56560814D01*
X18356891Y-56681481D01*
X18631252Y-56584157D01*
X18881355Y-56435178D01*
X19097588Y-56240269D01*
X19197497Y-56106323D01*
X19173300Y-109340000D01*
X660000Y-109340000D01*
X660000Y-106000000D01*
X3661928Y-106000000D01*
X3661928Y-107000000D01*
X3674188Y-107124482D01*
X3710498Y-107244180D01*
X3769463Y-107354494D01*
X3848815Y-107451185D01*
X3945506Y-107530537D01*
X4055820Y-107589502D01*
X4175518Y-107625812D01*
X4300000Y-107638072D01*
X6500000Y-107638072D01*
X6624482Y-107625812D01*
X6744180Y-107589502D01*
X6854494Y-107530537D01*
X6951185Y-107451185D01*
X7030537Y-107354494D01*
X7089502Y-107244180D01*
X7125812Y-107124482D01*
X7138072Y-107000000D01*
X7138072Y-106000000D01*
X7125812Y-105875518D01*
X7089502Y-105755820D01*
X7030537Y-105645506D01*
X6951185Y-105548815D01*
X6854494Y-105469463D01*
X6744180Y-105410498D01*
X6624482Y-105374188D01*
X6500000Y-105361928D01*
X4300000Y-105361928D01*
X4175518Y-105374188D01*
X4055820Y-105410498D01*
X3945506Y-105469463D01*
X3848815Y-105548815D01*
X3769463Y-105645506D01*
X3710498Y-105755820D01*
X3674188Y-105875518D01*
X3661928Y-106000000D01*
X660000Y-106000000D01*
X660000Y-104900000D01*
X11861928Y-104900000D01*
X11861928Y-107100000D01*
X11874188Y-107224482D01*
X11910498Y-107344180D01*
X11969463Y-107454494D01*
X12048815Y-107551185D01*
X12145506Y-107630537D01*
X12255820Y-107689502D01*
X12375518Y-107725812D01*
X12500000Y-107738072D01*
X13500000Y-107738072D01*
X13624482Y-107725812D01*
X13744180Y-107689502D01*
X13854494Y-107630537D01*
X13951185Y-107551185D01*
X14030537Y-107454494D01*
X14089502Y-107344180D01*
X14125812Y-107224482D01*
X14138072Y-107100000D01*
X14138072Y-104900000D01*
X14125812Y-104775518D01*
X14089502Y-104655820D01*
X14030537Y-104545506D01*
X13951185Y-104448815D01*
X13854494Y-104369463D01*
X13744180Y-104310498D01*
X13624482Y-104274188D01*
X13500000Y-104261928D01*
X12500000Y-104261928D01*
X12375518Y-104274188D01*
X12255820Y-104310498D01*
X12145506Y-104369463D01*
X12048815Y-104448815D01*
X11969463Y-104545506D01*
X11910498Y-104655820D01*
X11874188Y-104775518D01*
X11861928Y-104900000D01*
X660000Y-104900000D01*
X660000Y-103100000D01*
X861928Y-103100000D01*
X874188Y-103224482D01*
X910498Y-103344180D01*
X969463Y-103454494D01*
X1048815Y-103551185D01*
X1145506Y-103630537D01*
X1255820Y-103689502D01*
X1375518Y-103725812D01*
X1500000Y-103738072D01*
X1714250Y-103735000D01*
X1873000Y-103576250D01*
X1873000Y-102127000D01*
X2127000Y-102127000D01*
X2127000Y-103576250D01*
X2285750Y-103735000D01*
X2500000Y-103738072D01*
X2624482Y-103725812D01*
X2744180Y-103689502D01*
X2854494Y-103630537D01*
X2951185Y-103551185D01*
X3030537Y-103454494D01*
X3089502Y-103344180D01*
X3125812Y-103224482D01*
X3138072Y-103100000D01*
X3135000Y-102285750D01*
X2976250Y-102127000D01*
X2127000Y-102127000D01*
X1873000Y-102127000D01*
X1023750Y-102127000D01*
X865000Y-102285750D01*
X861928Y-103100000D01*
X660000Y-103100000D01*
X660000Y-100900000D01*
X861928Y-100900000D01*
X865000Y-101714250D01*
X1023750Y-101873000D01*
X1873000Y-101873000D01*
X1873000Y-100423750D01*
X2127000Y-100423750D01*
X2127000Y-101873000D01*
X2976250Y-101873000D01*
X3135000Y-101714250D01*
X3138072Y-100900000D01*
X3125812Y-100775518D01*
X3089502Y-100655820D01*
X3030537Y-100545506D01*
X2951185Y-100448815D01*
X2854494Y-100369463D01*
X2744180Y-100310498D01*
X2624482Y-100274188D01*
X2500000Y-100261928D01*
X2285750Y-100265000D01*
X2127000Y-100423750D01*
X1873000Y-100423750D01*
X1714250Y-100265000D01*
X1500000Y-100261928D01*
X1375518Y-100274188D01*
X1255820Y-100310498D01*
X1145506Y-100369463D01*
X1048815Y-100448815D01*
X969463Y-100545506D01*
X910498Y-100655820D01*
X874188Y-100775518D01*
X861928Y-100900000D01*
X660000Y-100900000D01*
X660000Y-99000000D01*
X6661928Y-99000000D01*
X6661928Y-100000000D01*
X6674188Y-100124482D01*
X6710498Y-100244180D01*
X6769463Y-100354494D01*
X6848815Y-100451185D01*
X6945506Y-100530537D01*
X7055820Y-100589502D01*
X7175518Y-100625812D01*
X7300000Y-100638072D01*
X9500000Y-100638072D01*
X9624482Y-100625812D01*
X9744180Y-100589502D01*
X9854494Y-100530537D01*
X9951185Y-100451185D01*
X10030537Y-100354494D01*
X10089502Y-100244180D01*
X10125812Y-100124482D01*
X10138072Y-100000000D01*
X10138072Y-99000000D01*
X10125812Y-98875518D01*
X10089502Y-98755820D01*
X10030537Y-98645506D01*
X9951185Y-98548815D01*
X9854494Y-98469463D01*
X9744180Y-98410498D01*
X9624482Y-98374188D01*
X9500000Y-98361928D01*
X7300000Y-98361928D01*
X7175518Y-98374188D01*
X7055820Y-98410498D01*
X6945506Y-98469463D01*
X6848815Y-98548815D01*
X6769463Y-98645506D01*
X6710498Y-98755820D01*
X6674188Y-98875518D01*
X6661928Y-99000000D01*
X660000Y-99000000D01*
X660000Y-96300000D01*
X8061928Y-96300000D01*
X8061928Y-97300000D01*
X8074188Y-97424482D01*
X8110498Y-97544180D01*
X8169463Y-97654494D01*
X8248815Y-97751185D01*
X8345506Y-97830537D01*
X8455820Y-97889502D01*
X8575518Y-97925812D01*
X8700000Y-97938072D01*
X10900000Y-97938072D01*
X11024482Y-97925812D01*
X11144180Y-97889502D01*
X11254494Y-97830537D01*
X11351185Y-97751185D01*
X11430537Y-97654494D01*
X11489502Y-97544180D01*
X11525812Y-97424482D01*
X11538072Y-97300000D01*
X11538072Y-96300000D01*
X11525812Y-96175518D01*
X11489502Y-96055820D01*
X11430537Y-95945506D01*
X11351185Y-95848815D01*
X11254494Y-95769463D01*
X11144180Y-95710498D01*
X11024482Y-95674188D01*
X10900000Y-95661928D01*
X8700000Y-95661928D01*
X8575518Y-95674188D01*
X8455820Y-95710498D01*
X8345506Y-95769463D01*
X8248815Y-95848815D01*
X8169463Y-95945506D01*
X8110498Y-96055820D01*
X8074188Y-96175518D01*
X8061928Y-96300000D01*
X660000Y-96300000D01*
X660000Y-91000000D01*
X3661928Y-91000000D01*
X3661928Y-92000000D01*
X3674188Y-92124482D01*
X3710498Y-92244180D01*
X3769463Y-92354494D01*
X3848815Y-92451185D01*
X3945506Y-92530537D01*
X4055820Y-92589502D01*
X4175518Y-92625812D01*
X4300000Y-92638072D01*
X6500000Y-92638072D01*
X6624482Y-92625812D01*
X6744180Y-92589502D01*
X6854494Y-92530537D01*
X6951185Y-92451185D01*
X7030537Y-92354494D01*
X7089502Y-92244180D01*
X7125812Y-92124482D01*
X7138072Y-92000000D01*
X7138072Y-91000000D01*
X7125812Y-90875518D01*
X7089502Y-90755820D01*
X7030537Y-90645506D01*
X6951185Y-90548815D01*
X6854494Y-90469463D01*
X6744180Y-90410498D01*
X6624482Y-90374188D01*
X6500000Y-90361928D01*
X4300000Y-90361928D01*
X4175518Y-90374188D01*
X4055820Y-90410498D01*
X3945506Y-90469463D01*
X3848815Y-90548815D01*
X3769463Y-90645506D01*
X3710498Y-90755820D01*
X3674188Y-90875518D01*
X3661928Y-91000000D01*
X660000Y-91000000D01*
X660000Y-89900000D01*
X11861928Y-89900000D01*
X11861928Y-92100000D01*
X11874188Y-92224482D01*
X11910498Y-92344180D01*
X11969463Y-92454494D01*
X12048815Y-92551185D01*
X12145506Y-92630537D01*
X12255820Y-92689502D01*
X12375518Y-92725812D01*
X12500000Y-92738072D01*
X13500000Y-92738072D01*
X13624482Y-92725812D01*
X13744180Y-92689502D01*
X13854494Y-92630537D01*
X13951185Y-92551185D01*
X14030537Y-92454494D01*
X14089502Y-92344180D01*
X14125812Y-92224482D01*
X14138072Y-92100000D01*
X14138072Y-89900000D01*
X14125812Y-89775518D01*
X14089502Y-89655820D01*
X14030537Y-89545506D01*
X13951185Y-89448815D01*
X13854494Y-89369463D01*
X13744180Y-89310498D01*
X13624482Y-89274188D01*
X13500000Y-89261928D01*
X12500000Y-89261928D01*
X12375518Y-89274188D01*
X12255820Y-89310498D01*
X12145506Y-89369463D01*
X12048815Y-89448815D01*
X11969463Y-89545506D01*
X11910498Y-89655820D01*
X11874188Y-89775518D01*
X11861928Y-89900000D01*
X660000Y-89900000D01*
X660000Y-88100000D01*
X861928Y-88100000D01*
X874188Y-88224482D01*
X910498Y-88344180D01*
X969463Y-88454494D01*
X1048815Y-88551185D01*
X1145506Y-88630537D01*
X1255820Y-88689502D01*
X1375518Y-88725812D01*
X1500000Y-88738072D01*
X1714250Y-88735000D01*
X1873000Y-88576250D01*
X1873000Y-87127000D01*
X2127000Y-87127000D01*
X2127000Y-88576250D01*
X2285750Y-88735000D01*
X2500000Y-88738072D01*
X2624482Y-88725812D01*
X2744180Y-88689502D01*
X2854494Y-88630537D01*
X2951185Y-88551185D01*
X3030537Y-88454494D01*
X3089502Y-88344180D01*
X3125812Y-88224482D01*
X3138072Y-88100000D01*
X3135000Y-87285750D01*
X2976250Y-87127000D01*
X2127000Y-87127000D01*
X1873000Y-87127000D01*
X1023750Y-87127000D01*
X865000Y-87285750D01*
X861928Y-88100000D01*
X660000Y-88100000D01*
X660000Y-85900000D01*
X861928Y-85900000D01*
X865000Y-86714250D01*
X1023750Y-86873000D01*
X1873000Y-86873000D01*
X1873000Y-85423750D01*
X2127000Y-85423750D01*
X2127000Y-86873000D01*
X2976250Y-86873000D01*
X3135000Y-86714250D01*
X3138072Y-85900000D01*
X3125812Y-85775518D01*
X3089502Y-85655820D01*
X3030537Y-85545506D01*
X2951185Y-85448815D01*
X2854494Y-85369463D01*
X2744180Y-85310498D01*
X2624482Y-85274188D01*
X2500000Y-85261928D01*
X2285750Y-85265000D01*
X2127000Y-85423750D01*
X1873000Y-85423750D01*
X1714250Y-85265000D01*
X1500000Y-85261928D01*
X1375518Y-85274188D01*
X1255820Y-85310498D01*
X1145506Y-85369463D01*
X1048815Y-85448815D01*
X969463Y-85545506D01*
X910498Y-85655820D01*
X874188Y-85775518D01*
X861928Y-85900000D01*
X660000Y-85900000D01*
X660000Y-84000000D01*
X6661928Y-84000000D01*
X6661928Y-85000000D01*
X6674188Y-85124482D01*
X6710498Y-85244180D01*
X6769463Y-85354494D01*
X6848815Y-85451185D01*
X6945506Y-85530537D01*
X7055820Y-85589502D01*
X7175518Y-85625812D01*
X7300000Y-85638072D01*
X9500000Y-85638072D01*
X9624482Y-85625812D01*
X9744180Y-85589502D01*
X9854494Y-85530537D01*
X9951185Y-85451185D01*
X10030537Y-85354494D01*
X10089502Y-85244180D01*
X10125812Y-85124482D01*
X10138072Y-85000000D01*
X10138072Y-84000000D01*
X10125812Y-83875518D01*
X10089502Y-83755820D01*
X10030537Y-83645506D01*
X9951185Y-83548815D01*
X9854494Y-83469463D01*
X9744180Y-83410498D01*
X9624482Y-83374188D01*
X9500000Y-83361928D01*
X7300000Y-83361928D01*
X7175518Y-83374188D01*
X7055820Y-83410498D01*
X6945506Y-83469463D01*
X6848815Y-83548815D01*
X6769463Y-83645506D01*
X6710498Y-83755820D01*
X6674188Y-83875518D01*
X6661928Y-84000000D01*
X660000Y-84000000D01*
X660000Y-81300000D01*
X8061928Y-81300000D01*
X8061928Y-82300000D01*
X8074188Y-82424482D01*
X8110498Y-82544180D01*
X8169463Y-82654494D01*
X8248815Y-82751185D01*
X8345506Y-82830537D01*
X8455820Y-82889502D01*
X8575518Y-82925812D01*
X8700000Y-82938072D01*
X10900000Y-82938072D01*
X11024482Y-82925812D01*
X11144180Y-82889502D01*
X11254494Y-82830537D01*
X11351185Y-82751185D01*
X11430537Y-82654494D01*
X11489502Y-82544180D01*
X11525812Y-82424482D01*
X11538072Y-82300000D01*
X11538072Y-81300000D01*
X11525812Y-81175518D01*
X11489502Y-81055820D01*
X11430537Y-80945506D01*
X11351185Y-80848815D01*
X11254494Y-80769463D01*
X11144180Y-80710498D01*
X11024482Y-80674188D01*
X10900000Y-80661928D01*
X8700000Y-80661928D01*
X8575518Y-80674188D01*
X8455820Y-80710498D01*
X8345506Y-80769463D01*
X8248815Y-80848815D01*
X8169463Y-80945506D01*
X8110498Y-81055820D01*
X8074188Y-81175518D01*
X8061928Y-81300000D01*
X660000Y-81300000D01*
X660000Y-68064080D01*
X2615525Y-68064080D01*
X2699208Y-68318261D01*
X2971775Y-68449158D01*
X3264642Y-68524365D01*
X3566553Y-68540991D01*
X3865907Y-68498397D01*
X4067356Y-68427662D01*
X3977791Y-68643892D01*
X3865000Y-69210928D01*
X3865000Y-69789072D01*
X3977791Y-70356108D01*
X4199037Y-70890244D01*
X4520237Y-71370953D01*
X4929047Y-71779763D01*
X5409756Y-72100963D01*
X5943892Y-72322209D01*
X6510928Y-72435000D01*
X7089072Y-72435000D01*
X7656108Y-72322209D01*
X8190244Y-72100963D01*
X8670953Y-71779763D01*
X9079763Y-71370953D01*
X9400963Y-70890244D01*
X9622209Y-70356108D01*
X9735000Y-69789072D01*
X9735000Y-69210928D01*
X9622209Y-68643892D01*
X9400963Y-68109756D01*
X9079763Y-67629047D01*
X8670953Y-67220237D01*
X8190244Y-66899037D01*
X7656108Y-66677791D01*
X7089072Y-66565000D01*
X6510928Y-66565000D01*
X5943892Y-66677791D01*
X5409756Y-66899037D01*
X5028871Y-67153537D01*
X5040991Y-66933447D01*
X4998397Y-66634093D01*
X4898222Y-66348801D01*
X4818261Y-66199208D01*
X4564080Y-66115525D01*
X3679605Y-67000000D01*
X3693748Y-67014143D01*
X3514143Y-67193748D01*
X3500000Y-67179605D01*
X2615525Y-68064080D01*
X660000Y-68064080D01*
X660000Y-67066553D01*
X1959009Y-67066553D01*
X2001603Y-67365907D01*
X2101778Y-67651199D01*
X2181739Y-67800792D01*
X2435920Y-67884475D01*
X3320395Y-67000000D01*
X2435920Y-66115525D01*
X2181739Y-66199208D01*
X2050842Y-66471775D01*
X1975635Y-66764642D01*
X1959009Y-67066553D01*
X660000Y-67066553D01*
X660000Y-61848816D01*
X1965000Y-61848816D01*
X1965000Y-62151184D01*
X2023989Y-62447743D01*
X2139701Y-62727095D01*
X2307688Y-62978505D01*
X2521495Y-63192312D01*
X2607831Y-63250000D01*
X2521495Y-63307688D01*
X2307688Y-63521495D01*
X2139701Y-63772905D01*
X2023989Y-64052257D01*
X1965000Y-64348816D01*
X1965000Y-64651184D01*
X2023989Y-64947743D01*
X2139701Y-65227095D01*
X2307688Y-65478505D01*
X2521495Y-65692312D01*
X2664310Y-65787738D01*
X2615525Y-65935920D01*
X3500000Y-66820395D01*
X4384475Y-65935920D01*
X4335690Y-65787738D01*
X4478505Y-65692312D01*
X4692312Y-65478505D01*
X4860299Y-65227095D01*
X4976011Y-64947743D01*
X5035000Y-64651184D01*
X5035000Y-64348816D01*
X4976011Y-64052257D01*
X4860299Y-63772905D01*
X4692312Y-63521495D01*
X4478505Y-63307688D01*
X4392169Y-63250000D01*
X4478505Y-63192312D01*
X4692312Y-62978505D01*
X4860299Y-62727095D01*
X4976011Y-62447743D01*
X5035000Y-62151184D01*
X5035000Y-61850559D01*
X5409756Y-62100963D01*
X5943892Y-62322209D01*
X6510928Y-62435000D01*
X7089072Y-62435000D01*
X7656108Y-62322209D01*
X8190244Y-62100963D01*
X8670953Y-61779763D01*
X9079763Y-61370953D01*
X9400963Y-60890244D01*
X9622209Y-60356108D01*
X9735000Y-59789072D01*
X9735000Y-59210928D01*
X9622209Y-58643892D01*
X9400963Y-58109756D01*
X9079763Y-57629047D01*
X8670953Y-57220237D01*
X8190244Y-56899037D01*
X7656108Y-56677791D01*
X7089072Y-56565000D01*
X6510928Y-56565000D01*
X5943892Y-56677791D01*
X5409756Y-56899037D01*
X4929047Y-57220237D01*
X4520237Y-57629047D01*
X4199037Y-58109756D01*
X3977791Y-58643892D01*
X3865000Y-59210928D01*
X3865000Y-59789072D01*
X3977791Y-60356108D01*
X4067955Y-60573783D01*
X3947743Y-60523989D01*
X3651184Y-60465000D01*
X3348816Y-60465000D01*
X3052257Y-60523989D01*
X2772905Y-60639701D01*
X2521495Y-60807688D01*
X2307688Y-61021495D01*
X2139701Y-61272905D01*
X2023989Y-61552257D01*
X1965000Y-61848816D01*
X660000Y-61848816D01*
X660000Y-55596890D01*
X16558524Y-55596890D01*
X16603175Y-55744099D01*
X16728359Y-56006920D01*
X16902412Y-56240269D01*
X17118645Y-56435178D01*
X17368748Y-56584157D01*
X17643109Y-56681481D01*
X17873000Y-56560814D01*
X17873000Y-55367000D01*
X16679845Y-55367000D01*
X16558524Y-55596890D01*
X660000Y-55596890D01*
X660000Y-46064080D01*
X2615525Y-46064080D01*
X2699208Y-46318261D01*
X2971775Y-46449158D01*
X3264642Y-46524365D01*
X3566553Y-46540991D01*
X3865907Y-46498397D01*
X4067356Y-46427662D01*
X3977791Y-46643892D01*
X3865000Y-47210928D01*
X3865000Y-47789072D01*
X3977791Y-48356108D01*
X4199037Y-48890244D01*
X4520237Y-49370953D01*
X4929047Y-49779763D01*
X5409756Y-50100963D01*
X5943892Y-50322209D01*
X6510928Y-50435000D01*
X7089072Y-50435000D01*
X7656108Y-50322209D01*
X8190244Y-50100963D01*
X8670953Y-49779763D01*
X9079763Y-49370953D01*
X9400963Y-48890244D01*
X9622209Y-48356108D01*
X9735000Y-47789072D01*
X9735000Y-47210928D01*
X9622209Y-46643892D01*
X9400963Y-46109756D01*
X9079763Y-45629047D01*
X8670953Y-45220237D01*
X8190244Y-44899037D01*
X7656108Y-44677791D01*
X7089072Y-44565000D01*
X6510928Y-44565000D01*
X5943892Y-44677791D01*
X5409756Y-44899037D01*
X5028871Y-45153537D01*
X5040991Y-44933447D01*
X4998397Y-44634093D01*
X4898222Y-44348801D01*
X4818261Y-44199208D01*
X4564080Y-44115525D01*
X3679605Y-45000000D01*
X3693748Y-45014143D01*
X3514143Y-45193748D01*
X3500000Y-45179605D01*
X2615525Y-46064080D01*
X660000Y-46064080D01*
X660000Y-45066553D01*
X1959009Y-45066553D01*
X2001603Y-45365907D01*
X2101778Y-45651199D01*
X2181739Y-45800792D01*
X2435920Y-45884475D01*
X3320395Y-45000000D01*
X2435920Y-44115525D01*
X2181739Y-44199208D01*
X2050842Y-44471775D01*
X1975635Y-44764642D01*
X1959009Y-45066553D01*
X660000Y-45066553D01*
X660000Y-39848816D01*
X1965000Y-39848816D01*
X1965000Y-40151184D01*
X2023989Y-40447743D01*
X2139701Y-40727095D01*
X2307688Y-40978505D01*
X2521495Y-41192312D01*
X2607831Y-41250000D01*
X2521495Y-41307688D01*
X2307688Y-41521495D01*
X2139701Y-41772905D01*
X2023989Y-42052257D01*
X1965000Y-42348816D01*
X1965000Y-42651184D01*
X2023989Y-42947743D01*
X2139701Y-43227095D01*
X2307688Y-43478505D01*
X2521495Y-43692312D01*
X2664310Y-43787738D01*
X2615525Y-43935920D01*
X3500000Y-44820395D01*
X4384475Y-43935920D01*
X4335690Y-43787738D01*
X4478505Y-43692312D01*
X4692312Y-43478505D01*
X4860299Y-43227095D01*
X4976011Y-42947743D01*
X5035000Y-42651184D01*
X5035000Y-42348816D01*
X4976011Y-42052257D01*
X4860299Y-41772905D01*
X4692312Y-41521495D01*
X4478505Y-41307688D01*
X4392169Y-41250000D01*
X4478505Y-41192312D01*
X4692312Y-40978505D01*
X4860299Y-40727095D01*
X4976011Y-40447743D01*
X5035000Y-40151184D01*
X5035000Y-39850559D01*
X5409756Y-40100963D01*
X5943892Y-40322209D01*
X6510928Y-40435000D01*
X7089072Y-40435000D01*
X7656108Y-40322209D01*
X8190244Y-40100963D01*
X8670953Y-39779763D01*
X9079763Y-39370953D01*
X9400963Y-38890244D01*
X9622209Y-38356108D01*
X9735000Y-37789072D01*
X9735000Y-37210928D01*
X9622209Y-36643892D01*
X9400963Y-36109756D01*
X9079763Y-35629047D01*
X8670953Y-35220237D01*
X8190244Y-34899037D01*
X7656108Y-34677791D01*
X7089072Y-34565000D01*
X6510928Y-34565000D01*
X5943892Y-34677791D01*
X5409756Y-34899037D01*
X4929047Y-35220237D01*
X4520237Y-35629047D01*
X4199037Y-36109756D01*
X3977791Y-36643892D01*
X3865000Y-37210928D01*
X3865000Y-37789072D01*
X3977791Y-38356108D01*
X4067955Y-38573783D01*
X3947743Y-38523989D01*
X3651184Y-38465000D01*
X3348816Y-38465000D01*
X3052257Y-38523989D01*
X2772905Y-38639701D01*
X2521495Y-38807688D01*
X2307688Y-39021495D01*
X2139701Y-39272905D01*
X2023989Y-39552257D01*
X1965000Y-39848816D01*
X660000Y-39848816D01*
X660000Y-26000000D01*
X3661928Y-26000000D01*
X3661928Y-27000000D01*
X3674188Y-27124482D01*
X3710498Y-27244180D01*
X3769463Y-27354494D01*
X3848815Y-27451185D01*
X3945506Y-27530537D01*
X4055820Y-27589502D01*
X4175518Y-27625812D01*
X4300000Y-27638072D01*
X6500000Y-27638072D01*
X6624482Y-27625812D01*
X6744180Y-27589502D01*
X6854494Y-27530537D01*
X6951185Y-27451185D01*
X7030537Y-27354494D01*
X7089502Y-27244180D01*
X7125812Y-27124482D01*
X7138072Y-27000000D01*
X7138072Y-26000000D01*
X7125812Y-25875518D01*
X7089502Y-25755820D01*
X7030537Y-25645506D01*
X6951185Y-25548815D01*
X6854494Y-25469463D01*
X6744180Y-25410498D01*
X6624482Y-25374188D01*
X6500000Y-25361928D01*
X4300000Y-25361928D01*
X4175518Y-25374188D01*
X4055820Y-25410498D01*
X3945506Y-25469463D01*
X3848815Y-25548815D01*
X3769463Y-25645506D01*
X3710498Y-25755820D01*
X3674188Y-25875518D01*
X3661928Y-26000000D01*
X660000Y-26000000D01*
X660000Y-24900000D01*
X11861928Y-24900000D01*
X11861928Y-27100000D01*
X11874188Y-27224482D01*
X11910498Y-27344180D01*
X11969463Y-27454494D01*
X12048815Y-27551185D01*
X12145506Y-27630537D01*
X12255820Y-27689502D01*
X12375518Y-27725812D01*
X12500000Y-27738072D01*
X13500000Y-27738072D01*
X13624482Y-27725812D01*
X13744180Y-27689502D01*
X13854494Y-27630537D01*
X13951185Y-27551185D01*
X14030537Y-27454494D01*
X14089502Y-27344180D01*
X14125812Y-27224482D01*
X14138072Y-27100000D01*
X14138072Y-24900000D01*
X14125812Y-24775518D01*
X14089502Y-24655820D01*
X14030537Y-24545506D01*
X13951185Y-24448815D01*
X13854494Y-24369463D01*
X13744180Y-24310498D01*
X13624482Y-24274188D01*
X13500000Y-24261928D01*
X12500000Y-24261928D01*
X12375518Y-24274188D01*
X12255820Y-24310498D01*
X12145506Y-24369463D01*
X12048815Y-24448815D01*
X11969463Y-24545506D01*
X11910498Y-24655820D01*
X11874188Y-24775518D01*
X11861928Y-24900000D01*
X660000Y-24900000D01*
X660000Y-23100000D01*
X861928Y-23100000D01*
X874188Y-23224482D01*
X910498Y-23344180D01*
X969463Y-23454494D01*
X1048815Y-23551185D01*
X1145506Y-23630537D01*
X1255820Y-23689502D01*
X1375518Y-23725812D01*
X1500000Y-23738072D01*
X1714250Y-23735000D01*
X1873000Y-23576250D01*
X1873000Y-22127000D01*
X2127000Y-22127000D01*
X2127000Y-23576250D01*
X2285750Y-23735000D01*
X2500000Y-23738072D01*
X2624482Y-23725812D01*
X2744180Y-23689502D01*
X2854494Y-23630537D01*
X2951185Y-23551185D01*
X3030537Y-23454494D01*
X3089502Y-23344180D01*
X3125812Y-23224482D01*
X3138072Y-23100000D01*
X3135000Y-22285750D01*
X2976250Y-22127000D01*
X2127000Y-22127000D01*
X1873000Y-22127000D01*
X1023750Y-22127000D01*
X865000Y-22285750D01*
X861928Y-23100000D01*
X660000Y-23100000D01*
X660000Y-20900000D01*
X861928Y-20900000D01*
X865000Y-21714250D01*
X1023750Y-21873000D01*
X1873000Y-21873000D01*
X1873000Y-20423750D01*
X2127000Y-20423750D01*
X2127000Y-21873000D01*
X2976250Y-21873000D01*
X3135000Y-21714250D01*
X3138072Y-20900000D01*
X3125812Y-20775518D01*
X3089502Y-20655820D01*
X3030537Y-20545506D01*
X2951185Y-20448815D01*
X2854494Y-20369463D01*
X2744180Y-20310498D01*
X2624482Y-20274188D01*
X2500000Y-20261928D01*
X2285750Y-20265000D01*
X2127000Y-20423750D01*
X1873000Y-20423750D01*
X1714250Y-20265000D01*
X1500000Y-20261928D01*
X1375518Y-20274188D01*
X1255820Y-20310498D01*
X1145506Y-20369463D01*
X1048815Y-20448815D01*
X969463Y-20545506D01*
X910498Y-20655820D01*
X874188Y-20775518D01*
X861928Y-20900000D01*
X660000Y-20900000D01*
X660000Y-19000000D01*
X6661928Y-19000000D01*
X6661928Y-20000000D01*
X6674188Y-20124482D01*
X6710498Y-20244180D01*
X6769463Y-20354494D01*
X6848815Y-20451185D01*
X6945506Y-20530537D01*
X7055820Y-20589502D01*
X7175518Y-20625812D01*
X7300000Y-20638072D01*
X9500000Y-20638072D01*
X9624482Y-20625812D01*
X9744180Y-20589502D01*
X9854494Y-20530537D01*
X9951185Y-20451185D01*
X10030537Y-20354494D01*
X10089502Y-20244180D01*
X10125812Y-20124482D01*
X10138072Y-20000000D01*
X10138072Y-19000000D01*
X10125812Y-18875518D01*
X10089502Y-18755820D01*
X10030537Y-18645506D01*
X9951185Y-18548815D01*
X9854494Y-18469463D01*
X9744180Y-18410498D01*
X9624482Y-18374188D01*
X9500000Y-18361928D01*
X7300000Y-18361928D01*
X7175518Y-18374188D01*
X7055820Y-18410498D01*
X6945506Y-18469463D01*
X6848815Y-18548815D01*
X6769463Y-18645506D01*
X6710498Y-18755820D01*
X6674188Y-18875518D01*
X6661928Y-19000000D01*
X660000Y-19000000D01*
X660000Y-16300000D01*
X8061928Y-16300000D01*
X8061928Y-17300000D01*
X8074188Y-17424482D01*
X8110498Y-17544180D01*
X8169463Y-17654494D01*
X8248815Y-17751185D01*
X8345506Y-17830537D01*
X8455820Y-17889502D01*
X8575518Y-17925812D01*
X8700000Y-17938072D01*
X10900000Y-17938072D01*
X11024482Y-17925812D01*
X11144180Y-17889502D01*
X11254494Y-17830537D01*
X11351185Y-17751185D01*
X11430537Y-17654494D01*
X11489502Y-17544180D01*
X11525812Y-17424482D01*
X11538072Y-17300000D01*
X11538072Y-16300000D01*
X11525812Y-16175518D01*
X11489502Y-16055820D01*
X11430537Y-15945506D01*
X11351185Y-15848815D01*
X11254494Y-15769463D01*
X11144180Y-15710498D01*
X11024482Y-15674188D01*
X10900000Y-15661928D01*
X8700000Y-15661928D01*
X8575518Y-15674188D01*
X8455820Y-15710498D01*
X8345506Y-15769463D01*
X8248815Y-15848815D01*
X8169463Y-15945506D01*
X8110498Y-16055820D01*
X8074188Y-16175518D01*
X8061928Y-16300000D01*
X660000Y-16300000D01*
X660000Y-660000D01*
X19222700Y-660000D01*
X19205445Y-38620244D01*
G36*
X99340001Y-100639636D02*
G01*
X99254494Y-100569463D01*
X99144180Y-100510498D01*
X99024482Y-100474188D01*
X98900000Y-100461928D01*
X98285750Y-100465000D01*
X98127000Y-100623750D01*
X98127000Y-101873000D01*
X98147000Y-101873000D01*
X98147000Y-102127000D01*
X98127000Y-102127000D01*
X98127000Y-103376250D01*
X98285750Y-103535000D01*
X98900000Y-103538072D01*
X99024482Y-103525812D01*
X99144180Y-103489502D01*
X99254494Y-103430537D01*
X99340001Y-103360363D01*
X99340001Y-109340000D01*
X80777601Y-109340000D01*
X80784411Y-101848816D01*
X93925000Y-101848816D01*
X93925000Y-102151184D01*
X93983989Y-102447743D01*
X94099701Y-102727095D01*
X94267688Y-102978505D01*
X94481495Y-103192312D01*
X94732905Y-103360299D01*
X95012257Y-103476011D01*
X95308816Y-103535000D01*
X95611184Y-103535000D01*
X95907743Y-103476011D01*
X96187095Y-103360299D01*
X96438505Y-103192312D01*
X96504944Y-103125873D01*
X96510498Y-103144180D01*
X96569463Y-103254494D01*
X96648815Y-103351185D01*
X96745506Y-103430537D01*
X96855820Y-103489502D01*
X96975518Y-103525812D01*
X97100000Y-103538072D01*
X97714250Y-103535000D01*
X97873000Y-103376250D01*
X97873000Y-102127000D01*
X97853000Y-102127000D01*
X97853000Y-101873000D01*
X97873000Y-101873000D01*
X97873000Y-100623750D01*
X97714250Y-100465000D01*
X97100000Y-100461928D01*
X96975518Y-100474188D01*
X96855820Y-100510498D01*
X96745506Y-100569463D01*
X96648815Y-100648815D01*
X96569463Y-100745506D01*
X96510498Y-100855820D01*
X96504944Y-100874127D01*
X96438505Y-100807688D01*
X96187095Y-100639701D01*
X95907743Y-100523989D01*
X95611184Y-100465000D01*
X95308816Y-100465000D01*
X95012257Y-100523989D01*
X94732905Y-100639701D01*
X94481495Y-100807688D01*
X94267688Y-101021495D01*
X94099701Y-101272905D01*
X93983989Y-101552257D01*
X93925000Y-101848816D01*
X80784411Y-101848816D01*
X80792728Y-92700000D01*
X88461928Y-92700000D01*
X88461928Y-93700000D01*
X88474188Y-93824482D01*
X88510498Y-93944180D01*
X88569463Y-94054494D01*
X88648815Y-94151185D01*
X88745506Y-94230537D01*
X88855820Y-94289502D01*
X88975518Y-94325812D01*
X89100000Y-94338072D01*
X91300000Y-94338072D01*
X91424482Y-94325812D01*
X91544180Y-94289502D01*
X91654494Y-94230537D01*
X91751185Y-94151185D01*
X91830537Y-94054494D01*
X91889502Y-93944180D01*
X91925812Y-93824482D01*
X91938072Y-93700000D01*
X91938072Y-92700000D01*
X91925812Y-92575518D01*
X91889502Y-92455820D01*
X91830537Y-92345506D01*
X91751185Y-92248815D01*
X91654494Y-92169463D01*
X91544180Y-92110498D01*
X91424482Y-92074188D01*
X91300000Y-92061928D01*
X89100000Y-92061928D01*
X88975518Y-92074188D01*
X88855820Y-92110498D01*
X88745506Y-92169463D01*
X88648815Y-92248815D01*
X88569463Y-92345506D01*
X88510498Y-92455820D01*
X88474188Y-92575518D01*
X88461928Y-92700000D01*
X80792728Y-92700000D01*
X80795182Y-90000000D01*
X89861928Y-90000000D01*
X89861928Y-91000000D01*
X89874188Y-91124482D01*
X89910498Y-91244180D01*
X89969463Y-91354494D01*
X90048815Y-91451185D01*
X90145506Y-91530537D01*
X90255820Y-91589502D01*
X90375518Y-91625812D01*
X90500000Y-91638072D01*
X92700000Y-91638072D01*
X92824482Y-91625812D01*
X92944180Y-91589502D01*
X93054494Y-91530537D01*
X93151185Y-91451185D01*
X93230537Y-91354494D01*
X93289502Y-91244180D01*
X93325812Y-91124482D01*
X93338072Y-91000000D01*
X93338072Y-90000000D01*
X93325812Y-89875518D01*
X93289502Y-89755820D01*
X93230537Y-89645506D01*
X93151185Y-89548815D01*
X93054494Y-89469463D01*
X92944180Y-89410498D01*
X92824482Y-89374188D01*
X92700000Y-89361928D01*
X90500000Y-89361928D01*
X90375518Y-89374188D01*
X90255820Y-89410498D01*
X90145506Y-89469463D01*
X90048815Y-89548815D01*
X89969463Y-89645506D01*
X89910498Y-89755820D01*
X89874188Y-89875518D01*
X89861928Y-90000000D01*
X80795182Y-90000000D01*
X80796000Y-89100000D01*
X96861928Y-89100000D01*
X96874188Y-89224482D01*
X96910498Y-89344180D01*
X96969463Y-89454494D01*
X97048815Y-89551185D01*
X97145506Y-89630537D01*
X97255820Y-89689502D01*
X97375518Y-89725812D01*
X97500000Y-89738072D01*
X97714250Y-89735000D01*
X97873000Y-89576250D01*
X97873000Y-88127000D01*
X98127000Y-88127000D01*
X98127000Y-89576250D01*
X98285750Y-89735000D01*
X98500000Y-89738072D01*
X98624482Y-89725812D01*
X98744180Y-89689502D01*
X98854494Y-89630537D01*
X98951185Y-89551185D01*
X99030537Y-89454494D01*
X99089502Y-89344180D01*
X99125812Y-89224482D01*
X99138072Y-89100000D01*
X99135000Y-88285750D01*
X98976250Y-88127000D01*
X98127000Y-88127000D01*
X97873000Y-88127000D01*
X97023750Y-88127000D01*
X96865000Y-88285750D01*
X96861928Y-89100000D01*
X80796000Y-89100000D01*
X80798000Y-86900000D01*
X96861928Y-86900000D01*
X96865000Y-87714250D01*
X97023750Y-87873000D01*
X97873000Y-87873000D01*
X97873000Y-86423750D01*
X98127000Y-86423750D01*
X98127000Y-87873000D01*
X98976250Y-87873000D01*
X99135000Y-87714250D01*
X99138072Y-86900000D01*
X99125812Y-86775518D01*
X99089502Y-86655820D01*
X99030537Y-86545506D01*
X98951185Y-86448815D01*
X98854494Y-86369463D01*
X98744180Y-86310498D01*
X98624482Y-86274188D01*
X98500000Y-86261928D01*
X98285750Y-86265000D01*
X98127000Y-86423750D01*
X97873000Y-86423750D01*
X97714250Y-86265000D01*
X97500000Y-86261928D01*
X97375518Y-86274188D01*
X97255820Y-86310498D01*
X97145506Y-86369463D01*
X97048815Y-86448815D01*
X96969463Y-86545506D01*
X96910498Y-86655820D01*
X96874188Y-86775518D01*
X96861928Y-86900000D01*
X80798000Y-86900000D01*
X80801637Y-82900000D01*
X85861928Y-82900000D01*
X85861928Y-85100000D01*
X85874188Y-85224482D01*
X85910498Y-85344180D01*
X85969463Y-85454494D01*
X86048815Y-85551185D01*
X86145506Y-85630537D01*
X86255820Y-85689502D01*
X86375518Y-85725812D01*
X86500000Y-85738072D01*
X87500000Y-85738072D01*
X87624482Y-85725812D01*
X87744180Y-85689502D01*
X87854494Y-85630537D01*
X87951185Y-85551185D01*
X88030537Y-85454494D01*
X88089502Y-85344180D01*
X88125812Y-85224482D01*
X88138072Y-85100000D01*
X88138072Y-83000000D01*
X92861928Y-83000000D01*
X92861928Y-84000000D01*
X92874188Y-84124482D01*
X92910498Y-84244180D01*
X92969463Y-84354494D01*
X93048815Y-84451185D01*
X93145506Y-84530537D01*
X93255820Y-84589502D01*
X93375518Y-84625812D01*
X93500000Y-84638072D01*
X95700000Y-84638072D01*
X95824482Y-84625812D01*
X95944180Y-84589502D01*
X96054494Y-84530537D01*
X96151185Y-84451185D01*
X96230537Y-84354494D01*
X96289502Y-84244180D01*
X96325812Y-84124482D01*
X96338072Y-84000000D01*
X96338072Y-83000000D01*
X96325812Y-82875518D01*
X96289502Y-82755820D01*
X96230537Y-82645506D01*
X96151185Y-82548815D01*
X96054494Y-82469463D01*
X95944180Y-82410498D01*
X95824482Y-82374188D01*
X95700000Y-82361928D01*
X93500000Y-82361928D01*
X93375518Y-82374188D01*
X93255820Y-82410498D01*
X93145506Y-82469463D01*
X93048815Y-82548815D01*
X92969463Y-82645506D01*
X92910498Y-82755820D01*
X92874188Y-82875518D01*
X92861928Y-83000000D01*
X88138072Y-83000000D01*
X88138072Y-82900000D01*
X88125812Y-82775518D01*
X88089502Y-82655820D01*
X88030537Y-82545506D01*
X87951185Y-82448815D01*
X87854494Y-82369463D01*
X87744180Y-82310498D01*
X87624482Y-82274188D01*
X87500000Y-82261928D01*
X86500000Y-82261928D01*
X86375518Y-82274188D01*
X86255820Y-82310498D01*
X86145506Y-82369463D01*
X86048815Y-82448815D01*
X85969463Y-82545506D01*
X85910498Y-82655820D01*
X85874188Y-82775518D01*
X85861928Y-82900000D01*
X80801637Y-82900000D01*
X80815798Y-67322408D01*
X86793000Y-67322408D01*
X86793000Y-67597592D01*
X86846686Y-67867490D01*
X86951995Y-68121727D01*
X87104880Y-68350535D01*
X87299465Y-68545120D01*
X87528273Y-68698005D01*
X87605515Y-68730000D01*
X87528273Y-68761995D01*
X87299465Y-68914880D01*
X87104880Y-69109465D01*
X86951995Y-69338273D01*
X86846686Y-69592510D01*
X86793000Y-69862408D01*
X86793000Y-70137592D01*
X86846686Y-70407490D01*
X86951995Y-70661727D01*
X87104880Y-70890535D01*
X87299465Y-71085120D01*
X87528273Y-71238005D01*
X87605515Y-71270000D01*
X87528273Y-71301995D01*
X87299465Y-71454880D01*
X87104880Y-71649465D01*
X86951995Y-71878273D01*
X86846686Y-72132510D01*
X86793000Y-72402408D01*
X86793000Y-72677592D01*
X86846686Y-72947490D01*
X86951995Y-73201727D01*
X87104880Y-73430535D01*
X87299465Y-73625120D01*
X87528273Y-73778005D01*
X87782510Y-73883314D01*
X88052408Y-73937000D01*
X88327592Y-73937000D01*
X88597490Y-73883314D01*
X88851727Y-73778005D01*
X89080535Y-73625120D01*
X89275120Y-73430535D01*
X89428005Y-73201727D01*
X89460000Y-73124485D01*
X89491995Y-73201727D01*
X89644880Y-73430535D01*
X89839465Y-73625120D01*
X90068273Y-73778005D01*
X90322510Y-73883314D01*
X90592408Y-73937000D01*
X90867592Y-73937000D01*
X91137490Y-73883314D01*
X91391727Y-73778005D01*
X91620535Y-73625120D01*
X91815120Y-73430535D01*
X91968005Y-73201727D01*
X92073314Y-72947490D01*
X92127000Y-72677592D01*
X92127000Y-72402408D01*
X94413000Y-72402408D01*
X94413000Y-72677592D01*
X94466686Y-72947490D01*
X94571995Y-73201727D01*
X94724880Y-73430535D01*
X94919465Y-73625120D01*
X95148273Y-73778005D01*
X95402510Y-73883314D01*
X95672408Y-73937000D01*
X95947592Y-73937000D01*
X96217490Y-73883314D01*
X96471727Y-73778005D01*
X96700535Y-73625120D01*
X96895120Y-73430535D01*
X97048005Y-73201727D01*
X97153314Y-72947490D01*
X97207000Y-72677592D01*
X97207000Y-72402408D01*
X97153314Y-72132510D01*
X97048005Y-71878273D01*
X96895120Y-71649465D01*
X96700535Y-71454880D01*
X96471727Y-71301995D01*
X96217490Y-71196686D01*
X95947592Y-71143000D01*
X95672408Y-71143000D01*
X95402510Y-71196686D01*
X95148273Y-71301995D01*
X94919465Y-71454880D01*
X94724880Y-71649465D01*
X94571995Y-71878273D01*
X94466686Y-72132510D01*
X94413000Y-72402408D01*
X92127000Y-72402408D01*
X92073314Y-72132510D01*
X91968005Y-71878273D01*
X91815120Y-71649465D01*
X91620535Y-71454880D01*
X91391727Y-71301995D01*
X91314485Y-71270000D01*
X91391727Y-71238005D01*
X91620535Y-71085120D01*
X91815120Y-70890535D01*
X91968005Y-70661727D01*
X92073314Y-70407490D01*
X92127000Y-70137592D01*
X92127000Y-69862408D01*
X92073314Y-69592510D01*
X91968005Y-69338273D01*
X91815120Y-69109465D01*
X91620535Y-68914880D01*
X91391727Y-68761995D01*
X91314485Y-68730000D01*
X91391727Y-68698005D01*
X91620535Y-68545120D01*
X91815120Y-68350535D01*
X91968005Y-68121727D01*
X92073314Y-67867490D01*
X92127000Y-67597592D01*
X92127000Y-67322408D01*
X94443000Y-67322408D01*
X94443000Y-67597592D01*
X94496686Y-67867490D01*
X94601995Y-68121727D01*
X94754880Y-68350535D01*
X94949465Y-68545120D01*
X95178273Y-68698005D01*
X95432510Y-68803314D01*
X95702408Y-68857000D01*
X95977592Y-68857000D01*
X96247490Y-68803314D01*
X96501727Y-68698005D01*
X96730535Y-68545120D01*
X96925120Y-68350535D01*
X97078005Y-68121727D01*
X97183314Y-67867490D01*
X97237000Y-67597592D01*
X97237000Y-67322408D01*
X97183314Y-67052510D01*
X97078005Y-66798273D01*
X96925120Y-66569465D01*
X96730535Y-66374880D01*
X96501727Y-66221995D01*
X96247490Y-66116686D01*
X95977592Y-66063000D01*
X95702408Y-66063000D01*
X95432510Y-66116686D01*
X95178273Y-66221995D01*
X94949465Y-66374880D01*
X94754880Y-66569465D01*
X94601995Y-66798273D01*
X94496686Y-67052510D01*
X94443000Y-67322408D01*
X92127000Y-67322408D01*
X92073314Y-67052510D01*
X91968005Y-66798273D01*
X91815120Y-66569465D01*
X91620535Y-66374880D01*
X91391727Y-66221995D01*
X91137490Y-66116686D01*
X90867592Y-66063000D01*
X90592408Y-66063000D01*
X90322510Y-66116686D01*
X90068273Y-66221995D01*
X89839465Y-66374880D01*
X89644880Y-66569465D01*
X89491995Y-66798273D01*
X89460000Y-66875515D01*
X89428005Y-66798273D01*
X89275120Y-66569465D01*
X89080535Y-66374880D01*
X88851727Y-66221995D01*
X88597490Y-66116686D01*
X88327592Y-66063000D01*
X88052408Y-66063000D01*
X87782510Y-66116686D01*
X87528273Y-66221995D01*
X87299465Y-66374880D01*
X87104880Y-66569465D01*
X86951995Y-66798273D01*
X86846686Y-67052510D01*
X86793000Y-67322408D01*
X80815798Y-67322408D01*
X80825731Y-56396693D01*
X80905820Y-56439502D01*
X81025518Y-56475812D01*
X81150000Y-56488072D01*
X82850000Y-56488072D01*
X82974482Y-56475812D01*
X83094180Y-56439502D01*
X83204494Y-56380537D01*
X83301185Y-56301185D01*
X83380537Y-56204494D01*
X83439502Y-56094180D01*
X83475812Y-55974482D01*
X83488072Y-55850000D01*
X83488072Y-54150000D01*
X83475812Y-54025518D01*
X83439502Y-53905820D01*
X83380537Y-53795506D01*
X83301185Y-53698815D01*
X83204494Y-53619463D01*
X83094180Y-53560498D01*
X83021620Y-53538487D01*
X83153475Y-53406632D01*
X83315990Y-53163411D01*
X83427932Y-52893158D01*
X83485000Y-52606260D01*
X83485000Y-52313740D01*
X83427932Y-52026842D01*
X83315990Y-51756589D01*
X83153475Y-51513368D01*
X82946632Y-51306525D01*
X82772240Y-51190000D01*
X82946632Y-51073475D01*
X83153475Y-50866632D01*
X83315990Y-50623411D01*
X83427932Y-50353158D01*
X83485000Y-50066260D01*
X83485000Y-49773740D01*
X83427932Y-49486842D01*
X83315990Y-49216589D01*
X83153475Y-48973368D01*
X82946632Y-48766525D01*
X82772240Y-48650000D01*
X82946632Y-48533475D01*
X83153475Y-48326632D01*
X83315990Y-48083411D01*
X83427932Y-47813158D01*
X83485000Y-47526260D01*
X83485000Y-47233740D01*
X83427932Y-46946842D01*
X83315990Y-46676589D01*
X83153475Y-46433368D01*
X82946632Y-46226525D01*
X82772240Y-46110000D01*
X82946632Y-45993475D01*
X83153475Y-45786632D01*
X83315990Y-45543411D01*
X83427932Y-45273158D01*
X83485000Y-44986260D01*
X83485000Y-44693740D01*
X83427932Y-44406842D01*
X83315990Y-44136589D01*
X83153475Y-43893368D01*
X82946632Y-43686525D01*
X82772240Y-43570000D01*
X82946632Y-43453475D01*
X83153475Y-43246632D01*
X83315990Y-43003411D01*
X83427932Y-42733158D01*
X83485000Y-42446260D01*
X83485000Y-42153740D01*
X83427932Y-41866842D01*
X83315990Y-41596589D01*
X83153475Y-41353368D01*
X82946632Y-41146525D01*
X82772240Y-41030000D01*
X82946632Y-40913475D01*
X83153475Y-40706632D01*
X83315990Y-40463411D01*
X83420571Y-40210928D01*
X90265000Y-40210928D01*
X90265000Y-40789072D01*
X90377791Y-41356108D01*
X90599037Y-41890244D01*
X90920237Y-42370953D01*
X91329047Y-42779763D01*
X91809756Y-43100963D01*
X92343892Y-43322209D01*
X92910928Y-43435000D01*
X93489072Y-43435000D01*
X94056108Y-43322209D01*
X94590244Y-43100963D01*
X94965000Y-42850559D01*
X94965000Y-43151184D01*
X95023989Y-43447743D01*
X95139701Y-43727095D01*
X95307688Y-43978505D01*
X95521495Y-44192312D01*
X95607831Y-44250000D01*
X95521495Y-44307688D01*
X95307688Y-44521495D01*
X95139701Y-44772905D01*
X95023989Y-45052257D01*
X94965000Y-45348816D01*
X94965000Y-45651184D01*
X95023989Y-45947743D01*
X95139701Y-46227095D01*
X95307688Y-46478505D01*
X95521495Y-46692312D01*
X95607831Y-46750000D01*
X95521495Y-46807688D01*
X95307688Y-47021495D01*
X95139701Y-47272905D01*
X95023989Y-47552257D01*
X94965000Y-47848816D01*
X94965000Y-48149441D01*
X94590244Y-47899037D01*
X94056108Y-47677791D01*
X93489072Y-47565000D01*
X92910928Y-47565000D01*
X92343892Y-47677791D01*
X91809756Y-47899037D01*
X91329047Y-48220237D01*
X90920237Y-48629047D01*
X90599037Y-49109756D01*
X90377791Y-49643892D01*
X90265000Y-50210928D01*
X90265000Y-50789072D01*
X90377791Y-51356108D01*
X90599037Y-51890244D01*
X90920237Y-52370953D01*
X91329047Y-52779763D01*
X91809756Y-53100963D01*
X92343892Y-53322209D01*
X92910928Y-53435000D01*
X93489072Y-53435000D01*
X94056108Y-53322209D01*
X94590244Y-53100963D01*
X95070953Y-52779763D01*
X95479763Y-52370953D01*
X95800963Y-51890244D01*
X96022209Y-51356108D01*
X96135000Y-50789072D01*
X96135000Y-50210928D01*
X96022209Y-49643892D01*
X95932045Y-49426217D01*
X96052257Y-49476011D01*
X96348816Y-49535000D01*
X96651184Y-49535000D01*
X96947743Y-49476011D01*
X97227095Y-49360299D01*
X97478505Y-49192312D01*
X97692312Y-48978505D01*
X97860299Y-48727095D01*
X97976011Y-48447743D01*
X98035000Y-48151184D01*
X98035000Y-47848816D01*
X97976011Y-47552257D01*
X97860299Y-47272905D01*
X97692312Y-47021495D01*
X97478505Y-46807688D01*
X97392169Y-46750000D01*
X97478505Y-46692312D01*
X97692312Y-46478505D01*
X97860299Y-46227095D01*
X97976011Y-45947743D01*
X98035000Y-45651184D01*
X98035000Y-45348816D01*
X97976011Y-45052257D01*
X97860299Y-44772905D01*
X97692312Y-44521495D01*
X97478505Y-44307688D01*
X97392169Y-44250000D01*
X97478505Y-44192312D01*
X97692312Y-43978505D01*
X97860299Y-43727095D01*
X97976011Y-43447743D01*
X98035000Y-43151184D01*
X98035000Y-42848816D01*
X97976011Y-42552257D01*
X97860299Y-42272905D01*
X97692312Y-42021495D01*
X97478505Y-41807688D01*
X97227095Y-41639701D01*
X96947743Y-41523989D01*
X96651184Y-41465000D01*
X96348816Y-41465000D01*
X96052257Y-41523989D01*
X95932045Y-41573783D01*
X96022209Y-41356108D01*
X96135000Y-40789072D01*
X96135000Y-40210928D01*
X96022209Y-39643892D01*
X95800963Y-39109756D01*
X95479763Y-38629047D01*
X95070953Y-38220237D01*
X94590244Y-37899037D01*
X94056108Y-37677791D01*
X93489072Y-37565000D01*
X92910928Y-37565000D01*
X92343892Y-37677791D01*
X91809756Y-37899037D01*
X91329047Y-38220237D01*
X90920237Y-38629047D01*
X90599037Y-39109756D01*
X90377791Y-39643892D01*
X90265000Y-40210928D01*
X83420571Y-40210928D01*
X83427932Y-40193158D01*
X83485000Y-39906260D01*
X83485000Y-39613740D01*
X83427932Y-39326842D01*
X83315990Y-39056589D01*
X83153475Y-38813368D01*
X82946632Y-38606525D01*
X82772240Y-38490000D01*
X82946632Y-38373475D01*
X83153475Y-38166632D01*
X83315990Y-37923411D01*
X83427932Y-37653158D01*
X83485000Y-37366260D01*
X83485000Y-37073740D01*
X83427932Y-36786842D01*
X83315990Y-36516589D01*
X83153475Y-36273368D01*
X82946632Y-36066525D01*
X82772240Y-35950000D01*
X82946632Y-35833475D01*
X83153475Y-35626632D01*
X83315990Y-35383411D01*
X83427932Y-35113158D01*
X83485000Y-34826260D01*
X83485000Y-34533740D01*
X83427932Y-34246842D01*
X83315990Y-33976589D01*
X83153475Y-33733368D01*
X82946632Y-33526525D01*
X82772240Y-33410000D01*
X82946632Y-33293475D01*
X83153475Y-33086632D01*
X83315990Y-32843411D01*
X83427932Y-32573158D01*
X83485000Y-32286260D01*
X83485000Y-31993740D01*
X83427932Y-31706842D01*
X83315990Y-31436589D01*
X83153475Y-31193368D01*
X82946632Y-30986525D01*
X82772240Y-30870000D01*
X82946632Y-30753475D01*
X83153475Y-30546632D01*
X83315990Y-30303411D01*
X83427932Y-30033158D01*
X83485000Y-29746260D01*
X83485000Y-29453740D01*
X83427932Y-29166842D01*
X83315990Y-28896589D01*
X83153475Y-28653368D01*
X82946632Y-28446525D01*
X82764466Y-28324805D01*
X82881355Y-28255178D01*
X83097588Y-28060269D01*
X83271641Y-27826920D01*
X83332094Y-27700000D01*
X88461928Y-27700000D01*
X88461928Y-28700000D01*
X88474188Y-28824482D01*
X88510498Y-28944180D01*
X88569463Y-29054494D01*
X88648815Y-29151185D01*
X88745506Y-29230537D01*
X88855820Y-29289502D01*
X88975518Y-29325812D01*
X89100000Y-29338072D01*
X91300000Y-29338072D01*
X91424482Y-29325812D01*
X91544180Y-29289502D01*
X91654494Y-29230537D01*
X91751185Y-29151185D01*
X91830537Y-29054494D01*
X91889502Y-28944180D01*
X91925812Y-28824482D01*
X91938072Y-28700000D01*
X91938072Y-27700000D01*
X91925812Y-27575518D01*
X91889502Y-27455820D01*
X91830537Y-27345506D01*
X91751185Y-27248815D01*
X91654494Y-27169463D01*
X91544180Y-27110498D01*
X91424482Y-27074188D01*
X91300000Y-27061928D01*
X89100000Y-27061928D01*
X88975518Y-27074188D01*
X88855820Y-27110498D01*
X88745506Y-27169463D01*
X88648815Y-27248815D01*
X88569463Y-27345506D01*
X88510498Y-27455820D01*
X88474188Y-27575518D01*
X88461928Y-27700000D01*
X83332094Y-27700000D01*
X83396825Y-27564099D01*
X83441476Y-27416890D01*
X83320155Y-27187000D01*
X82127000Y-27187000D01*
X82127000Y-27207000D01*
X81873000Y-27207000D01*
X81873000Y-27187000D01*
X81853000Y-27187000D01*
X81853000Y-26933000D01*
X81873000Y-26933000D01*
X81873000Y-25739186D01*
X82127000Y-25739186D01*
X82127000Y-26933000D01*
X83320155Y-26933000D01*
X83441476Y-26703110D01*
X83396825Y-26555901D01*
X83271641Y-26293080D01*
X83097588Y-26059731D01*
X82881355Y-25864822D01*
X82631252Y-25715843D01*
X82356891Y-25618519D01*
X82127000Y-25739186D01*
X81873000Y-25739186D01*
X81643109Y-25618519D01*
X81368748Y-25715843D01*
X81118645Y-25864822D01*
X80902412Y-26059731D01*
X80853250Y-26125642D01*
X80854273Y-25000000D01*
X89861928Y-25000000D01*
X89861928Y-26000000D01*
X89874188Y-26124482D01*
X89910498Y-26244180D01*
X89969463Y-26354494D01*
X90048815Y-26451185D01*
X90145506Y-26530537D01*
X90255820Y-26589502D01*
X90375518Y-26625812D01*
X90500000Y-26638072D01*
X92700000Y-26638072D01*
X92824482Y-26625812D01*
X92944180Y-26589502D01*
X93054494Y-26530537D01*
X93151185Y-26451185D01*
X93230537Y-26354494D01*
X93289502Y-26244180D01*
X93325812Y-26124482D01*
X93338072Y-26000000D01*
X93338072Y-25000000D01*
X93325812Y-24875518D01*
X93289502Y-24755820D01*
X93230537Y-24645506D01*
X93151185Y-24548815D01*
X93054494Y-24469463D01*
X92944180Y-24410498D01*
X92824482Y-24374188D01*
X92700000Y-24361928D01*
X90500000Y-24361928D01*
X90375518Y-24374188D01*
X90255820Y-24410498D01*
X90145506Y-24469463D01*
X90048815Y-24548815D01*
X89969463Y-24645506D01*
X89910498Y-24755820D01*
X89874188Y-24875518D01*
X89861928Y-25000000D01*
X80854273Y-25000000D01*
X80855091Y-24100000D01*
X96861928Y-24100000D01*
X96874188Y-24224482D01*
X96910498Y-24344180D01*
X96969463Y-24454494D01*
X97048815Y-24551185D01*
X97145506Y-24630537D01*
X97255820Y-24689502D01*
X97375518Y-24725812D01*
X97500000Y-24738072D01*
X97714250Y-24735000D01*
X97873000Y-24576250D01*
X97873000Y-23127000D01*
X98127000Y-23127000D01*
X98127000Y-24576250D01*
X98285750Y-24735000D01*
X98500000Y-24738072D01*
X98624482Y-24725812D01*
X98744180Y-24689502D01*
X98854494Y-24630537D01*
X98951185Y-24551185D01*
X99030537Y-24454494D01*
X99089502Y-24344180D01*
X99125812Y-24224482D01*
X99138072Y-24100000D01*
X99135000Y-23285750D01*
X98976250Y-23127000D01*
X98127000Y-23127000D01*
X97873000Y-23127000D01*
X97023750Y-23127000D01*
X96865000Y-23285750D01*
X96861928Y-24100000D01*
X80855091Y-24100000D01*
X80857090Y-21900000D01*
X96861928Y-21900000D01*
X96865000Y-22714250D01*
X97023750Y-22873000D01*
X97873000Y-22873000D01*
X97873000Y-21423750D01*
X98127000Y-21423750D01*
X98127000Y-22873000D01*
X98976250Y-22873000D01*
X99135000Y-22714250D01*
X99138072Y-21900000D01*
X99125812Y-21775518D01*
X99089502Y-21655820D01*
X99030537Y-21545506D01*
X98951185Y-21448815D01*
X98854494Y-21369463D01*
X98744180Y-21310498D01*
X98624482Y-21274188D01*
X98500000Y-21261928D01*
X98285750Y-21265000D01*
X98127000Y-21423750D01*
X97873000Y-21423750D01*
X97714250Y-21265000D01*
X97500000Y-21261928D01*
X97375518Y-21274188D01*
X97255820Y-21310498D01*
X97145506Y-21369463D01*
X97048815Y-21448815D01*
X96969463Y-21545506D01*
X96910498Y-21655820D01*
X96874188Y-21775518D01*
X96861928Y-21900000D01*
X80857090Y-21900000D01*
X80860727Y-17900000D01*
X85861928Y-17900000D01*
X85861928Y-20100000D01*
X85874188Y-20224482D01*
X85910498Y-20344180D01*
X85969463Y-20454494D01*
X86048815Y-20551185D01*
X86145506Y-20630537D01*
X86255820Y-20689502D01*
X86375518Y-20725812D01*
X86500000Y-20738072D01*
X87500000Y-20738072D01*
X87624482Y-20725812D01*
X87744180Y-20689502D01*
X87854494Y-20630537D01*
X87951185Y-20551185D01*
X88030537Y-20454494D01*
X88089502Y-20344180D01*
X88125812Y-20224482D01*
X88138072Y-20100000D01*
X88138072Y-18000000D01*
X92861928Y-18000000D01*
X92861928Y-19000000D01*
X92874188Y-19124482D01*
X92910498Y-19244180D01*
X92969463Y-19354494D01*
X93048815Y-19451185D01*
X93145506Y-19530537D01*
X93255820Y-19589502D01*
X93375518Y-19625812D01*
X93500000Y-19638072D01*
X95700000Y-19638072D01*
X95824482Y-19625812D01*
X95944180Y-19589502D01*
X96054494Y-19530537D01*
X96151185Y-19451185D01*
X96230537Y-19354494D01*
X96289502Y-19244180D01*
X96325812Y-19124482D01*
X96338072Y-19000000D01*
X96338072Y-18000000D01*
X96325812Y-17875518D01*
X96289502Y-17755820D01*
X96230537Y-17645506D01*
X96151185Y-17548815D01*
X96054494Y-17469463D01*
X95944180Y-17410498D01*
X95824482Y-17374188D01*
X95700000Y-17361928D01*
X93500000Y-17361928D01*
X93375518Y-17374188D01*
X93255820Y-17410498D01*
X93145506Y-17469463D01*
X93048815Y-17548815D01*
X92969463Y-17645506D01*
X92910498Y-17755820D01*
X92874188Y-17875518D01*
X92861928Y-18000000D01*
X88138072Y-18000000D01*
X88138072Y-17900000D01*
X88125812Y-17775518D01*
X88089502Y-17655820D01*
X88030537Y-17545506D01*
X87951185Y-17448815D01*
X87854494Y-17369463D01*
X87744180Y-17310498D01*
X87624482Y-17274188D01*
X87500000Y-17261928D01*
X86500000Y-17261928D01*
X86375518Y-17274188D01*
X86255820Y-17310498D01*
X86145506Y-17369463D01*
X86048815Y-17448815D01*
X85969463Y-17545506D01*
X85910498Y-17655820D01*
X85874188Y-17775518D01*
X85861928Y-17900000D01*
X80860727Y-17900000D01*
X80865454Y-12700000D01*
X88461928Y-12700000D01*
X88461928Y-13700000D01*
X88474188Y-13824482D01*
X88510498Y-13944180D01*
X88569463Y-14054494D01*
X88648815Y-14151185D01*
X88745506Y-14230537D01*
X88855820Y-14289502D01*
X88975518Y-14325812D01*
X89100000Y-14338072D01*
X91300000Y-14338072D01*
X91424482Y-14325812D01*
X91544180Y-14289502D01*
X91654494Y-14230537D01*
X91751185Y-14151185D01*
X91830537Y-14054494D01*
X91889502Y-13944180D01*
X91925812Y-13824482D01*
X91938072Y-13700000D01*
X91938072Y-12700000D01*
X91925812Y-12575518D01*
X91889502Y-12455820D01*
X91830537Y-12345506D01*
X91751185Y-12248815D01*
X91654494Y-12169463D01*
X91544180Y-12110498D01*
X91424482Y-12074188D01*
X91300000Y-12061928D01*
X89100000Y-12061928D01*
X88975518Y-12074188D01*
X88855820Y-12110498D01*
X88745506Y-12169463D01*
X88648815Y-12248815D01*
X88569463Y-12345506D01*
X88510498Y-12455820D01*
X88474188Y-12575518D01*
X88461928Y-12700000D01*
X80865454Y-12700000D01*
X80867908Y-10000000D01*
X89861928Y-10000000D01*
X89861928Y-11000000D01*
X89874188Y-11124482D01*
X89910498Y-11244180D01*
X89969463Y-11354494D01*
X90048815Y-11451185D01*
X90145506Y-11530537D01*
X90255820Y-11589502D01*
X90375518Y-11625812D01*
X90500000Y-11638072D01*
X92700000Y-11638072D01*
X92824482Y-11625812D01*
X92944180Y-11589502D01*
X93054494Y-11530537D01*
X93151185Y-11451185D01*
X93230537Y-11354494D01*
X93289502Y-11244180D01*
X93325812Y-11124482D01*
X93338072Y-11000000D01*
X93338072Y-10000000D01*
X93325812Y-9875518D01*
X93289502Y-9755820D01*
X93230537Y-9645506D01*
X93151185Y-9548815D01*
X93054494Y-9469463D01*
X92944180Y-9410498D01*
X92824482Y-9374188D01*
X92700000Y-9361928D01*
X90500000Y-9361928D01*
X90375518Y-9374188D01*
X90255820Y-9410498D01*
X90145506Y-9469463D01*
X90048815Y-9548815D01*
X89969463Y-9645506D01*
X89910498Y-9755820D01*
X89874188Y-9875518D01*
X89861928Y-10000000D01*
X80867908Y-10000000D01*
X80868726Y-9100000D01*
X96861928Y-9100000D01*
X96874188Y-9224482D01*
X96910498Y-9344180D01*
X96969463Y-9454494D01*
X97048815Y-9551185D01*
X97145506Y-9630537D01*
X97255820Y-9689502D01*
X97375518Y-9725812D01*
X97500000Y-9738072D01*
X97714250Y-9735000D01*
X97873000Y-9576250D01*
X97873000Y-8127000D01*
X98127000Y-8127000D01*
X98127000Y-9576250D01*
X98285750Y-9735000D01*
X98500000Y-9738072D01*
X98624482Y-9725812D01*
X98744180Y-9689502D01*
X98854494Y-9630537D01*
X98951185Y-9551185D01*
X99030537Y-9454494D01*
X99089502Y-9344180D01*
X99125812Y-9224482D01*
X99138072Y-9100000D01*
X99135000Y-8285750D01*
X98976250Y-8127000D01*
X98127000Y-8127000D01*
X97873000Y-8127000D01*
X97023750Y-8127000D01*
X96865000Y-8285750D01*
X96861928Y-9100000D01*
X80868726Y-9100000D01*
X80870726Y-6900000D01*
X96861928Y-6900000D01*
X96865000Y-7714250D01*
X97023750Y-7873000D01*
X97873000Y-7873000D01*
X97873000Y-6423750D01*
X98127000Y-6423750D01*
X98127000Y-7873000D01*
X98976250Y-7873000D01*
X99135000Y-7714250D01*
X99138072Y-6900000D01*
X99125812Y-6775518D01*
X99089502Y-6655820D01*
X99030537Y-6545506D01*
X98951185Y-6448815D01*
X98854494Y-6369463D01*
X98744180Y-6310498D01*
X98624482Y-6274188D01*
X98500000Y-6261928D01*
X98285750Y-6265000D01*
X98127000Y-6423750D01*
X97873000Y-6423750D01*
X97714250Y-6265000D01*
X97500000Y-6261928D01*
X97375518Y-6274188D01*
X97255820Y-6310498D01*
X97145506Y-6369463D01*
X97048815Y-6448815D01*
X96969463Y-6545506D01*
X96910498Y-6655820D01*
X96874188Y-6775518D01*
X96861928Y-6900000D01*
X80870726Y-6900000D01*
X80874363Y-2900000D01*
X85861928Y-2900000D01*
X85861928Y-5100000D01*
X85874188Y-5224482D01*
X85910498Y-5344180D01*
X85969463Y-5454494D01*
X86048815Y-5551185D01*
X86145506Y-5630537D01*
X86255820Y-5689502D01*
X86375518Y-5725812D01*
X86500000Y-5738072D01*
X87500000Y-5738072D01*
X87624482Y-5725812D01*
X87744180Y-5689502D01*
X87854494Y-5630537D01*
X87951185Y-5551185D01*
X88030537Y-5454494D01*
X88089502Y-5344180D01*
X88125812Y-5224482D01*
X88138072Y-5100000D01*
X88138072Y-3000000D01*
X92861928Y-3000000D01*
X92861928Y-4000000D01*
X92874188Y-4124482D01*
X92910498Y-4244180D01*
X92969463Y-4354494D01*
X93048815Y-4451185D01*
X93145506Y-4530537D01*
X93255820Y-4589502D01*
X93375518Y-4625812D01*
X93500000Y-4638072D01*
X95700000Y-4638072D01*
X95824482Y-4625812D01*
X95944180Y-4589502D01*
X96054494Y-4530537D01*
X96151185Y-4451185D01*
X96230537Y-4354494D01*
X96289502Y-4244180D01*
X96325812Y-4124482D01*
X96338072Y-4000000D01*
X96338072Y-3000000D01*
X96325812Y-2875518D01*
X96289502Y-2755820D01*
X96230537Y-2645506D01*
X96151185Y-2548815D01*
X96054494Y-2469463D01*
X95944180Y-2410498D01*
X95824482Y-2374188D01*
X95700000Y-2361928D01*
X93500000Y-2361928D01*
X93375518Y-2374188D01*
X93255820Y-2410498D01*
X93145506Y-2469463D01*
X93048815Y-2548815D01*
X92969463Y-2645506D01*
X92910498Y-2755820D01*
X92874188Y-2875518D01*
X92861928Y-3000000D01*
X88138072Y-3000000D01*
X88138072Y-2900000D01*
X88125812Y-2775518D01*
X88089502Y-2655820D01*
X88030537Y-2545506D01*
X87951185Y-2448815D01*
X87854494Y-2369463D01*
X87744180Y-2310498D01*
X87624482Y-2274188D01*
X87500000Y-2261928D01*
X86500000Y-2261928D01*
X86375518Y-2274188D01*
X86255820Y-2310498D01*
X86145506Y-2369463D01*
X86048815Y-2448815D01*
X85969463Y-2545506D01*
X85910498Y-2655820D01*
X85874188Y-2775518D01*
X85861928Y-2900000D01*
X80874363Y-2900000D01*
X80876400Y-660000D01*
X99340000Y-660000D01*
X99340001Y-100639636D01*
G37*
X99340001Y-100639636D02*
X99254494Y-100569463D01*
X99144180Y-100510498D01*
X99024482Y-100474188D01*
X98900000Y-100461928D01*
X98285750Y-100465000D01*
X98127000Y-100623750D01*
X98127000Y-101873000D01*
X98147000Y-101873000D01*
X98147000Y-102127000D01*
X98127000Y-102127000D01*
X98127000Y-103376250D01*
X98285750Y-103535000D01*
X98900000Y-103538072D01*
X99024482Y-103525812D01*
X99144180Y-103489502D01*
X99254494Y-103430537D01*
X99340001Y-103360363D01*
X99340001Y-109340000D01*
X80777601Y-109340000D01*
X80784411Y-101848816D01*
X93925000Y-101848816D01*
X93925000Y-102151184D01*
X93983989Y-102447743D01*
X94099701Y-102727095D01*
X94267688Y-102978505D01*
X94481495Y-103192312D01*
X94732905Y-103360299D01*
X95012257Y-103476011D01*
X95308816Y-103535000D01*
X95611184Y-103535000D01*
X95907743Y-103476011D01*
X96187095Y-103360299D01*
X96438505Y-103192312D01*
X96504944Y-103125873D01*
X96510498Y-103144180D01*
X96569463Y-103254494D01*
X96648815Y-103351185D01*
X96745506Y-103430537D01*
X96855820Y-103489502D01*
X96975518Y-103525812D01*
X97100000Y-103538072D01*
X97714250Y-103535000D01*
X97873000Y-103376250D01*
X97873000Y-102127000D01*
X97853000Y-102127000D01*
X97853000Y-101873000D01*
X97873000Y-101873000D01*
X97873000Y-100623750D01*
X97714250Y-100465000D01*
X97100000Y-100461928D01*
X96975518Y-100474188D01*
X96855820Y-100510498D01*
X96745506Y-100569463D01*
X96648815Y-100648815D01*
X96569463Y-100745506D01*
X96510498Y-100855820D01*
X96504944Y-100874127D01*
X96438505Y-100807688D01*
X96187095Y-100639701D01*
X95907743Y-100523989D01*
X95611184Y-100465000D01*
X95308816Y-100465000D01*
X95012257Y-100523989D01*
X94732905Y-100639701D01*
X94481495Y-100807688D01*
X94267688Y-101021495D01*
X94099701Y-101272905D01*
X93983989Y-101552257D01*
X93925000Y-101848816D01*
X80784411Y-101848816D01*
X80792728Y-92700000D01*
X88461928Y-92700000D01*
X88461928Y-93700000D01*
X88474188Y-93824482D01*
X88510498Y-93944180D01*
X88569463Y-94054494D01*
X88648815Y-94151185D01*
X88745506Y-94230537D01*
X88855820Y-94289502D01*
X88975518Y-94325812D01*
X89100000Y-94338072D01*
X91300000Y-94338072D01*
X91424482Y-94325812D01*
X91544180Y-94289502D01*
X91654494Y-94230537D01*
X91751185Y-94151185D01*
X91830537Y-94054494D01*
X91889502Y-93944180D01*
X91925812Y-93824482D01*
X91938072Y-93700000D01*
X91938072Y-92700000D01*
X91925812Y-92575518D01*
X91889502Y-92455820D01*
X91830537Y-92345506D01*
X91751185Y-92248815D01*
X91654494Y-92169463D01*
X91544180Y-92110498D01*
X91424482Y-92074188D01*
X91300000Y-92061928D01*
X89100000Y-92061928D01*
X88975518Y-92074188D01*
X88855820Y-92110498D01*
X88745506Y-92169463D01*
X88648815Y-92248815D01*
X88569463Y-92345506D01*
X88510498Y-92455820D01*
X88474188Y-92575518D01*
X88461928Y-92700000D01*
X80792728Y-92700000D01*
X80795182Y-90000000D01*
X89861928Y-90000000D01*
X89861928Y-91000000D01*
X89874188Y-91124482D01*
X89910498Y-91244180D01*
X89969463Y-91354494D01*
X90048815Y-91451185D01*
X90145506Y-91530537D01*
X90255820Y-91589502D01*
X90375518Y-91625812D01*
X90500000Y-91638072D01*
X92700000Y-91638072D01*
X92824482Y-91625812D01*
X92944180Y-91589502D01*
X93054494Y-91530537D01*
X93151185Y-91451185D01*
X93230537Y-91354494D01*
X93289502Y-91244180D01*
X93325812Y-91124482D01*
X93338072Y-91000000D01*
X93338072Y-90000000D01*
X93325812Y-89875518D01*
X93289502Y-89755820D01*
X93230537Y-89645506D01*
X93151185Y-89548815D01*
X93054494Y-89469463D01*
X92944180Y-89410498D01*
X92824482Y-89374188D01*
X92700000Y-89361928D01*
X90500000Y-89361928D01*
X90375518Y-89374188D01*
X90255820Y-89410498D01*
X90145506Y-89469463D01*
X90048815Y-89548815D01*
X89969463Y-89645506D01*
X89910498Y-89755820D01*
X89874188Y-89875518D01*
X89861928Y-90000000D01*
X80795182Y-90000000D01*
X80796000Y-89100000D01*
X96861928Y-89100000D01*
X96874188Y-89224482D01*
X96910498Y-89344180D01*
X96969463Y-89454494D01*
X97048815Y-89551185D01*
X97145506Y-89630537D01*
X97255820Y-89689502D01*
X97375518Y-89725812D01*
X97500000Y-89738072D01*
X97714250Y-89735000D01*
X97873000Y-89576250D01*
X97873000Y-88127000D01*
X98127000Y-88127000D01*
X98127000Y-89576250D01*
X98285750Y-89735000D01*
X98500000Y-89738072D01*
X98624482Y-89725812D01*
X98744180Y-89689502D01*
X98854494Y-89630537D01*
X98951185Y-89551185D01*
X99030537Y-89454494D01*
X99089502Y-89344180D01*
X99125812Y-89224482D01*
X99138072Y-89100000D01*
X99135000Y-88285750D01*
X98976250Y-88127000D01*
X98127000Y-88127000D01*
X97873000Y-88127000D01*
X97023750Y-88127000D01*
X96865000Y-88285750D01*
X96861928Y-89100000D01*
X80796000Y-89100000D01*
X80798000Y-86900000D01*
X96861928Y-86900000D01*
X96865000Y-87714250D01*
X97023750Y-87873000D01*
X97873000Y-87873000D01*
X97873000Y-86423750D01*
X98127000Y-86423750D01*
X98127000Y-87873000D01*
X98976250Y-87873000D01*
X99135000Y-87714250D01*
X99138072Y-86900000D01*
X99125812Y-86775518D01*
X99089502Y-86655820D01*
X99030537Y-86545506D01*
X98951185Y-86448815D01*
X98854494Y-86369463D01*
X98744180Y-86310498D01*
X98624482Y-86274188D01*
X98500000Y-86261928D01*
X98285750Y-86265000D01*
X98127000Y-86423750D01*
X97873000Y-86423750D01*
X97714250Y-86265000D01*
X97500000Y-86261928D01*
X97375518Y-86274188D01*
X97255820Y-86310498D01*
X97145506Y-86369463D01*
X97048815Y-86448815D01*
X96969463Y-86545506D01*
X96910498Y-86655820D01*
X96874188Y-86775518D01*
X96861928Y-86900000D01*
X80798000Y-86900000D01*
X80801637Y-82900000D01*
X85861928Y-82900000D01*
X85861928Y-85100000D01*
X85874188Y-85224482D01*
X85910498Y-85344180D01*
X85969463Y-85454494D01*
X86048815Y-85551185D01*
X86145506Y-85630537D01*
X86255820Y-85689502D01*
X86375518Y-85725812D01*
X86500000Y-85738072D01*
X87500000Y-85738072D01*
X87624482Y-85725812D01*
X87744180Y-85689502D01*
X87854494Y-85630537D01*
X87951185Y-85551185D01*
X88030537Y-85454494D01*
X88089502Y-85344180D01*
X88125812Y-85224482D01*
X88138072Y-85100000D01*
X88138072Y-83000000D01*
X92861928Y-83000000D01*
X92861928Y-84000000D01*
X92874188Y-84124482D01*
X92910498Y-84244180D01*
X92969463Y-84354494D01*
X93048815Y-84451185D01*
X93145506Y-84530537D01*
X93255820Y-84589502D01*
X93375518Y-84625812D01*
X93500000Y-84638072D01*
X95700000Y-84638072D01*
X95824482Y-84625812D01*
X95944180Y-84589502D01*
X96054494Y-84530537D01*
X96151185Y-84451185D01*
X96230537Y-84354494D01*
X96289502Y-84244180D01*
X96325812Y-84124482D01*
X96338072Y-84000000D01*
X96338072Y-83000000D01*
X96325812Y-82875518D01*
X96289502Y-82755820D01*
X96230537Y-82645506D01*
X96151185Y-82548815D01*
X96054494Y-82469463D01*
X95944180Y-82410498D01*
X95824482Y-82374188D01*
X95700000Y-82361928D01*
X93500000Y-82361928D01*
X93375518Y-82374188D01*
X93255820Y-82410498D01*
X93145506Y-82469463D01*
X93048815Y-82548815D01*
X92969463Y-82645506D01*
X92910498Y-82755820D01*
X92874188Y-82875518D01*
X92861928Y-83000000D01*
X88138072Y-83000000D01*
X88138072Y-82900000D01*
X88125812Y-82775518D01*
X88089502Y-82655820D01*
X88030537Y-82545506D01*
X87951185Y-82448815D01*
X87854494Y-82369463D01*
X87744180Y-82310498D01*
X87624482Y-82274188D01*
X87500000Y-82261928D01*
X86500000Y-82261928D01*
X86375518Y-82274188D01*
X86255820Y-82310498D01*
X86145506Y-82369463D01*
X86048815Y-82448815D01*
X85969463Y-82545506D01*
X85910498Y-82655820D01*
X85874188Y-82775518D01*
X85861928Y-82900000D01*
X80801637Y-82900000D01*
X80815798Y-67322408D01*
X86793000Y-67322408D01*
X86793000Y-67597592D01*
X86846686Y-67867490D01*
X86951995Y-68121727D01*
X87104880Y-68350535D01*
X87299465Y-68545120D01*
X87528273Y-68698005D01*
X87605515Y-68730000D01*
X87528273Y-68761995D01*
X87299465Y-68914880D01*
X87104880Y-69109465D01*
X86951995Y-69338273D01*
X86846686Y-69592510D01*
X86793000Y-69862408D01*
X86793000Y-70137592D01*
X86846686Y-70407490D01*
X86951995Y-70661727D01*
X87104880Y-70890535D01*
X87299465Y-71085120D01*
X87528273Y-71238005D01*
X87605515Y-71270000D01*
X87528273Y-71301995D01*
X87299465Y-71454880D01*
X87104880Y-71649465D01*
X86951995Y-71878273D01*
X86846686Y-72132510D01*
X86793000Y-72402408D01*
X86793000Y-72677592D01*
X86846686Y-72947490D01*
X86951995Y-73201727D01*
X87104880Y-73430535D01*
X87299465Y-73625120D01*
X87528273Y-73778005D01*
X87782510Y-73883314D01*
X88052408Y-73937000D01*
X88327592Y-73937000D01*
X88597490Y-73883314D01*
X88851727Y-73778005D01*
X89080535Y-73625120D01*
X89275120Y-73430535D01*
X89428005Y-73201727D01*
X89460000Y-73124485D01*
X89491995Y-73201727D01*
X89644880Y-73430535D01*
X89839465Y-73625120D01*
X90068273Y-73778005D01*
X90322510Y-73883314D01*
X90592408Y-73937000D01*
X90867592Y-73937000D01*
X91137490Y-73883314D01*
X91391727Y-73778005D01*
X91620535Y-73625120D01*
X91815120Y-73430535D01*
X91968005Y-73201727D01*
X92073314Y-72947490D01*
X92127000Y-72677592D01*
X92127000Y-72402408D01*
X94413000Y-72402408D01*
X94413000Y-72677592D01*
X94466686Y-72947490D01*
X94571995Y-73201727D01*
X94724880Y-73430535D01*
X94919465Y-73625120D01*
X95148273Y-73778005D01*
X95402510Y-73883314D01*
X95672408Y-73937000D01*
X95947592Y-73937000D01*
X96217490Y-73883314D01*
X96471727Y-73778005D01*
X96700535Y-73625120D01*
X96895120Y-73430535D01*
X97048005Y-73201727D01*
X97153314Y-72947490D01*
X97207000Y-72677592D01*
X97207000Y-72402408D01*
X97153314Y-72132510D01*
X97048005Y-71878273D01*
X96895120Y-71649465D01*
X96700535Y-71454880D01*
X96471727Y-71301995D01*
X96217490Y-71196686D01*
X95947592Y-71143000D01*
X95672408Y-71143000D01*
X95402510Y-71196686D01*
X95148273Y-71301995D01*
X94919465Y-71454880D01*
X94724880Y-71649465D01*
X94571995Y-71878273D01*
X94466686Y-72132510D01*
X94413000Y-72402408D01*
X92127000Y-72402408D01*
X92073314Y-72132510D01*
X91968005Y-71878273D01*
X91815120Y-71649465D01*
X91620535Y-71454880D01*
X91391727Y-71301995D01*
X91314485Y-71270000D01*
X91391727Y-71238005D01*
X91620535Y-71085120D01*
X91815120Y-70890535D01*
X91968005Y-70661727D01*
X92073314Y-70407490D01*
X92127000Y-70137592D01*
X92127000Y-69862408D01*
X92073314Y-69592510D01*
X91968005Y-69338273D01*
X91815120Y-69109465D01*
X91620535Y-68914880D01*
X91391727Y-68761995D01*
X91314485Y-68730000D01*
X91391727Y-68698005D01*
X91620535Y-68545120D01*
X91815120Y-68350535D01*
X91968005Y-68121727D01*
X92073314Y-67867490D01*
X92127000Y-67597592D01*
X92127000Y-67322408D01*
X94443000Y-67322408D01*
X94443000Y-67597592D01*
X94496686Y-67867490D01*
X94601995Y-68121727D01*
X94754880Y-68350535D01*
X94949465Y-68545120D01*
X95178273Y-68698005D01*
X95432510Y-68803314D01*
X95702408Y-68857000D01*
X95977592Y-68857000D01*
X96247490Y-68803314D01*
X96501727Y-68698005D01*
X96730535Y-68545120D01*
X96925120Y-68350535D01*
X97078005Y-68121727D01*
X97183314Y-67867490D01*
X97237000Y-67597592D01*
X97237000Y-67322408D01*
X97183314Y-67052510D01*
X97078005Y-66798273D01*
X96925120Y-66569465D01*
X96730535Y-66374880D01*
X96501727Y-66221995D01*
X96247490Y-66116686D01*
X95977592Y-66063000D01*
X95702408Y-66063000D01*
X95432510Y-66116686D01*
X95178273Y-66221995D01*
X94949465Y-66374880D01*
X94754880Y-66569465D01*
X94601995Y-66798273D01*
X94496686Y-67052510D01*
X94443000Y-67322408D01*
X92127000Y-67322408D01*
X92073314Y-67052510D01*
X91968005Y-66798273D01*
X91815120Y-66569465D01*
X91620535Y-66374880D01*
X91391727Y-66221995D01*
X91137490Y-66116686D01*
X90867592Y-66063000D01*
X90592408Y-66063000D01*
X90322510Y-66116686D01*
X90068273Y-66221995D01*
X89839465Y-66374880D01*
X89644880Y-66569465D01*
X89491995Y-66798273D01*
X89460000Y-66875515D01*
X89428005Y-66798273D01*
X89275120Y-66569465D01*
X89080535Y-66374880D01*
X88851727Y-66221995D01*
X88597490Y-66116686D01*
X88327592Y-66063000D01*
X88052408Y-66063000D01*
X87782510Y-66116686D01*
X87528273Y-66221995D01*
X87299465Y-66374880D01*
X87104880Y-66569465D01*
X86951995Y-66798273D01*
X86846686Y-67052510D01*
X86793000Y-67322408D01*
X80815798Y-67322408D01*
X80825731Y-56396693D01*
X80905820Y-56439502D01*
X81025518Y-56475812D01*
X81150000Y-56488072D01*
X82850000Y-56488072D01*
X82974482Y-56475812D01*
X83094180Y-56439502D01*
X83204494Y-56380537D01*
X83301185Y-56301185D01*
X83380537Y-56204494D01*
X83439502Y-56094180D01*
X83475812Y-55974482D01*
X83488072Y-55850000D01*
X83488072Y-54150000D01*
X83475812Y-54025518D01*
X83439502Y-53905820D01*
X83380537Y-53795506D01*
X83301185Y-53698815D01*
X83204494Y-53619463D01*
X83094180Y-53560498D01*
X83021620Y-53538487D01*
X83153475Y-53406632D01*
X83315990Y-53163411D01*
X83427932Y-52893158D01*
X83485000Y-52606260D01*
X83485000Y-52313740D01*
X83427932Y-52026842D01*
X83315990Y-51756589D01*
X83153475Y-51513368D01*
X82946632Y-51306525D01*
X82772240Y-51190000D01*
X82946632Y-51073475D01*
X83153475Y-50866632D01*
X83315990Y-50623411D01*
X83427932Y-50353158D01*
X83485000Y-50066260D01*
X83485000Y-49773740D01*
X83427932Y-49486842D01*
X83315990Y-49216589D01*
X83153475Y-48973368D01*
X82946632Y-48766525D01*
X82772240Y-48650000D01*
X82946632Y-48533475D01*
X83153475Y-48326632D01*
X83315990Y-48083411D01*
X83427932Y-47813158D01*
X83485000Y-47526260D01*
X83485000Y-47233740D01*
X83427932Y-46946842D01*
X83315990Y-46676589D01*
X83153475Y-46433368D01*
X82946632Y-46226525D01*
X82772240Y-46110000D01*
X82946632Y-45993475D01*
X83153475Y-45786632D01*
X83315990Y-45543411D01*
X83427932Y-45273158D01*
X83485000Y-44986260D01*
X83485000Y-44693740D01*
X83427932Y-44406842D01*
X83315990Y-44136589D01*
X83153475Y-43893368D01*
X82946632Y-43686525D01*
X82772240Y-43570000D01*
X82946632Y-43453475D01*
X83153475Y-43246632D01*
X83315990Y-43003411D01*
X83427932Y-42733158D01*
X83485000Y-42446260D01*
X83485000Y-42153740D01*
X83427932Y-41866842D01*
X83315990Y-41596589D01*
X83153475Y-41353368D01*
X82946632Y-41146525D01*
X82772240Y-41030000D01*
X82946632Y-40913475D01*
X83153475Y-40706632D01*
X83315990Y-40463411D01*
X83420571Y-40210928D01*
X90265000Y-40210928D01*
X90265000Y-40789072D01*
X90377791Y-41356108D01*
X90599037Y-41890244D01*
X90920237Y-42370953D01*
X91329047Y-42779763D01*
X91809756Y-43100963D01*
X92343892Y-43322209D01*
X92910928Y-43435000D01*
X93489072Y-43435000D01*
X94056108Y-43322209D01*
X94590244Y-43100963D01*
X94965000Y-42850559D01*
X94965000Y-43151184D01*
X95023989Y-43447743D01*
X95139701Y-43727095D01*
X95307688Y-43978505D01*
X95521495Y-44192312D01*
X95607831Y-44250000D01*
X95521495Y-44307688D01*
X95307688Y-44521495D01*
X95139701Y-44772905D01*
X95023989Y-45052257D01*
X94965000Y-45348816D01*
X94965000Y-45651184D01*
X95023989Y-45947743D01*
X95139701Y-46227095D01*
X95307688Y-46478505D01*
X95521495Y-46692312D01*
X95607831Y-46750000D01*
X95521495Y-46807688D01*
X95307688Y-47021495D01*
X95139701Y-47272905D01*
X95023989Y-47552257D01*
X94965000Y-47848816D01*
X94965000Y-48149441D01*
X94590244Y-47899037D01*
X94056108Y-47677791D01*
X93489072Y-47565000D01*
X92910928Y-47565000D01*
X92343892Y-47677791D01*
X91809756Y-47899037D01*
X91329047Y-48220237D01*
X90920237Y-48629047D01*
X90599037Y-49109756D01*
X90377791Y-49643892D01*
X90265000Y-50210928D01*
X90265000Y-50789072D01*
X90377791Y-51356108D01*
X90599037Y-51890244D01*
X90920237Y-52370953D01*
X91329047Y-52779763D01*
X91809756Y-53100963D01*
X92343892Y-53322209D01*
X92910928Y-53435000D01*
X93489072Y-53435000D01*
X94056108Y-53322209D01*
X94590244Y-53100963D01*
X95070953Y-52779763D01*
X95479763Y-52370953D01*
X95800963Y-51890244D01*
X96022209Y-51356108D01*
X96135000Y-50789072D01*
X96135000Y-50210928D01*
X96022209Y-49643892D01*
X95932045Y-49426217D01*
X96052257Y-49476011D01*
X96348816Y-49535000D01*
X96651184Y-49535000D01*
X96947743Y-49476011D01*
X97227095Y-49360299D01*
X97478505Y-49192312D01*
X97692312Y-48978505D01*
X97860299Y-48727095D01*
X97976011Y-48447743D01*
X98035000Y-48151184D01*
X98035000Y-47848816D01*
X97976011Y-47552257D01*
X97860299Y-47272905D01*
X97692312Y-47021495D01*
X97478505Y-46807688D01*
X97392169Y-46750000D01*
X97478505Y-46692312D01*
X97692312Y-46478505D01*
X97860299Y-46227095D01*
X97976011Y-45947743D01*
X98035000Y-45651184D01*
X98035000Y-45348816D01*
X97976011Y-45052257D01*
X97860299Y-44772905D01*
X97692312Y-44521495D01*
X97478505Y-44307688D01*
X97392169Y-44250000D01*
X97478505Y-44192312D01*
X97692312Y-43978505D01*
X97860299Y-43727095D01*
X97976011Y-43447743D01*
X98035000Y-43151184D01*
X98035000Y-42848816D01*
X97976011Y-42552257D01*
X97860299Y-42272905D01*
X97692312Y-42021495D01*
X97478505Y-41807688D01*
X97227095Y-41639701D01*
X96947743Y-41523989D01*
X96651184Y-41465000D01*
X96348816Y-41465000D01*
X96052257Y-41523989D01*
X95932045Y-41573783D01*
X96022209Y-41356108D01*
X96135000Y-40789072D01*
X96135000Y-40210928D01*
X96022209Y-39643892D01*
X95800963Y-39109756D01*
X95479763Y-38629047D01*
X95070953Y-38220237D01*
X94590244Y-37899037D01*
X94056108Y-37677791D01*
X93489072Y-37565000D01*
X92910928Y-37565000D01*
X92343892Y-37677791D01*
X91809756Y-37899037D01*
X91329047Y-38220237D01*
X90920237Y-38629047D01*
X90599037Y-39109756D01*
X90377791Y-39643892D01*
X90265000Y-40210928D01*
X83420571Y-40210928D01*
X83427932Y-40193158D01*
X83485000Y-39906260D01*
X83485000Y-39613740D01*
X83427932Y-39326842D01*
X83315990Y-39056589D01*
X83153475Y-38813368D01*
X82946632Y-38606525D01*
X82772240Y-38490000D01*
X82946632Y-38373475D01*
X83153475Y-38166632D01*
X83315990Y-37923411D01*
X83427932Y-37653158D01*
X83485000Y-37366260D01*
X83485000Y-37073740D01*
X83427932Y-36786842D01*
X83315990Y-36516589D01*
X83153475Y-36273368D01*
X82946632Y-36066525D01*
X82772240Y-35950000D01*
X82946632Y-35833475D01*
X83153475Y-35626632D01*
X83315990Y-35383411D01*
X83427932Y-35113158D01*
X83485000Y-34826260D01*
X83485000Y-34533740D01*
X83427932Y-34246842D01*
X83315990Y-33976589D01*
X83153475Y-33733368D01*
X82946632Y-33526525D01*
X82772240Y-33410000D01*
X82946632Y-33293475D01*
X83153475Y-33086632D01*
X83315990Y-32843411D01*
X83427932Y-32573158D01*
X83485000Y-32286260D01*
X83485000Y-31993740D01*
X83427932Y-31706842D01*
X83315990Y-31436589D01*
X83153475Y-31193368D01*
X82946632Y-30986525D01*
X82772240Y-30870000D01*
X82946632Y-30753475D01*
X83153475Y-30546632D01*
X83315990Y-30303411D01*
X83427932Y-30033158D01*
X83485000Y-29746260D01*
X83485000Y-29453740D01*
X83427932Y-29166842D01*
X83315990Y-28896589D01*
X83153475Y-28653368D01*
X82946632Y-28446525D01*
X82764466Y-28324805D01*
X82881355Y-28255178D01*
X83097588Y-28060269D01*
X83271641Y-27826920D01*
X83332094Y-27700000D01*
X88461928Y-27700000D01*
X88461928Y-28700000D01*
X88474188Y-28824482D01*
X88510498Y-28944180D01*
X88569463Y-29054494D01*
X88648815Y-29151185D01*
X88745506Y-29230537D01*
X88855820Y-29289502D01*
X88975518Y-29325812D01*
X89100000Y-29338072D01*
X91300000Y-29338072D01*
X91424482Y-29325812D01*
X91544180Y-29289502D01*
X91654494Y-29230537D01*
X91751185Y-29151185D01*
X91830537Y-29054494D01*
X91889502Y-28944180D01*
X91925812Y-28824482D01*
X91938072Y-28700000D01*
X91938072Y-27700000D01*
X91925812Y-27575518D01*
X91889502Y-27455820D01*
X91830537Y-27345506D01*
X91751185Y-27248815D01*
X91654494Y-27169463D01*
X91544180Y-27110498D01*
X91424482Y-27074188D01*
X91300000Y-27061928D01*
X89100000Y-27061928D01*
X88975518Y-27074188D01*
X88855820Y-27110498D01*
X88745506Y-27169463D01*
X88648815Y-27248815D01*
X88569463Y-27345506D01*
X88510498Y-27455820D01*
X88474188Y-27575518D01*
X88461928Y-27700000D01*
X83332094Y-27700000D01*
X83396825Y-27564099D01*
X83441476Y-27416890D01*
X83320155Y-27187000D01*
X82127000Y-27187000D01*
X82127000Y-27207000D01*
X81873000Y-27207000D01*
X81873000Y-27187000D01*
X81853000Y-27187000D01*
X81853000Y-26933000D01*
X81873000Y-26933000D01*
X81873000Y-25739186D01*
X82127000Y-25739186D01*
X82127000Y-26933000D01*
X83320155Y-26933000D01*
X83441476Y-26703110D01*
X83396825Y-26555901D01*
X83271641Y-26293080D01*
X83097588Y-26059731D01*
X82881355Y-25864822D01*
X82631252Y-25715843D01*
X82356891Y-25618519D01*
X82127000Y-25739186D01*
X81873000Y-25739186D01*
X81643109Y-25618519D01*
X81368748Y-25715843D01*
X81118645Y-25864822D01*
X80902412Y-26059731D01*
X80853250Y-26125642D01*
X80854273Y-25000000D01*
X89861928Y-25000000D01*
X89861928Y-26000000D01*
X89874188Y-26124482D01*
X89910498Y-26244180D01*
X89969463Y-26354494D01*
X90048815Y-26451185D01*
X90145506Y-26530537D01*
X90255820Y-26589502D01*
X90375518Y-26625812D01*
X90500000Y-26638072D01*
X92700000Y-26638072D01*
X92824482Y-26625812D01*
X92944180Y-26589502D01*
X93054494Y-26530537D01*
X93151185Y-26451185D01*
X93230537Y-26354494D01*
X93289502Y-26244180D01*
X93325812Y-26124482D01*
X93338072Y-26000000D01*
X93338072Y-25000000D01*
X93325812Y-24875518D01*
X93289502Y-24755820D01*
X93230537Y-24645506D01*
X93151185Y-24548815D01*
X93054494Y-24469463D01*
X92944180Y-24410498D01*
X92824482Y-24374188D01*
X92700000Y-24361928D01*
X90500000Y-24361928D01*
X90375518Y-24374188D01*
X90255820Y-24410498D01*
X90145506Y-24469463D01*
X90048815Y-24548815D01*
X89969463Y-24645506D01*
X89910498Y-24755820D01*
X89874188Y-24875518D01*
X89861928Y-25000000D01*
X80854273Y-25000000D01*
X80855091Y-24100000D01*
X96861928Y-24100000D01*
X96874188Y-24224482D01*
X96910498Y-24344180D01*
X96969463Y-24454494D01*
X97048815Y-24551185D01*
X97145506Y-24630537D01*
X97255820Y-24689502D01*
X97375518Y-24725812D01*
X97500000Y-24738072D01*
X97714250Y-24735000D01*
X97873000Y-24576250D01*
X97873000Y-23127000D01*
X98127000Y-23127000D01*
X98127000Y-24576250D01*
X98285750Y-24735000D01*
X98500000Y-24738072D01*
X98624482Y-24725812D01*
X98744180Y-24689502D01*
X98854494Y-24630537D01*
X98951185Y-24551185D01*
X99030537Y-24454494D01*
X99089502Y-24344180D01*
X99125812Y-24224482D01*
X99138072Y-24100000D01*
X99135000Y-23285750D01*
X98976250Y-23127000D01*
X98127000Y-23127000D01*
X97873000Y-23127000D01*
X97023750Y-23127000D01*
X96865000Y-23285750D01*
X96861928Y-24100000D01*
X80855091Y-24100000D01*
X80857090Y-21900000D01*
X96861928Y-21900000D01*
X96865000Y-22714250D01*
X97023750Y-22873000D01*
X97873000Y-22873000D01*
X97873000Y-21423750D01*
X98127000Y-21423750D01*
X98127000Y-22873000D01*
X98976250Y-22873000D01*
X99135000Y-22714250D01*
X99138072Y-21900000D01*
X99125812Y-21775518D01*
X99089502Y-21655820D01*
X99030537Y-21545506D01*
X98951185Y-21448815D01*
X98854494Y-21369463D01*
X98744180Y-21310498D01*
X98624482Y-21274188D01*
X98500000Y-21261928D01*
X98285750Y-21265000D01*
X98127000Y-21423750D01*
X97873000Y-21423750D01*
X97714250Y-21265000D01*
X97500000Y-21261928D01*
X97375518Y-21274188D01*
X97255820Y-21310498D01*
X97145506Y-21369463D01*
X97048815Y-21448815D01*
X96969463Y-21545506D01*
X96910498Y-21655820D01*
X96874188Y-21775518D01*
X96861928Y-21900000D01*
X80857090Y-21900000D01*
X80860727Y-17900000D01*
X85861928Y-17900000D01*
X85861928Y-20100000D01*
X85874188Y-20224482D01*
X85910498Y-20344180D01*
X85969463Y-20454494D01*
X86048815Y-20551185D01*
X86145506Y-20630537D01*
X86255820Y-20689502D01*
X86375518Y-20725812D01*
X86500000Y-20738072D01*
X87500000Y-20738072D01*
X87624482Y-20725812D01*
X87744180Y-20689502D01*
X87854494Y-20630537D01*
X87951185Y-20551185D01*
X88030537Y-20454494D01*
X88089502Y-20344180D01*
X88125812Y-20224482D01*
X88138072Y-20100000D01*
X88138072Y-18000000D01*
X92861928Y-18000000D01*
X92861928Y-19000000D01*
X92874188Y-19124482D01*
X92910498Y-19244180D01*
X92969463Y-19354494D01*
X93048815Y-19451185D01*
X93145506Y-19530537D01*
X93255820Y-19589502D01*
X93375518Y-19625812D01*
X93500000Y-19638072D01*
X95700000Y-19638072D01*
X95824482Y-19625812D01*
X95944180Y-19589502D01*
X96054494Y-19530537D01*
X96151185Y-19451185D01*
X96230537Y-19354494D01*
X96289502Y-19244180D01*
X96325812Y-19124482D01*
X96338072Y-19000000D01*
X96338072Y-18000000D01*
X96325812Y-17875518D01*
X96289502Y-17755820D01*
X96230537Y-17645506D01*
X96151185Y-17548815D01*
X96054494Y-17469463D01*
X95944180Y-17410498D01*
X95824482Y-17374188D01*
X95700000Y-17361928D01*
X93500000Y-17361928D01*
X93375518Y-17374188D01*
X93255820Y-17410498D01*
X93145506Y-17469463D01*
X93048815Y-17548815D01*
X92969463Y-17645506D01*
X92910498Y-17755820D01*
X92874188Y-17875518D01*
X92861928Y-18000000D01*
X88138072Y-18000000D01*
X88138072Y-17900000D01*
X88125812Y-17775518D01*
X88089502Y-17655820D01*
X88030537Y-17545506D01*
X87951185Y-17448815D01*
X87854494Y-17369463D01*
X87744180Y-17310498D01*
X87624482Y-17274188D01*
X87500000Y-17261928D01*
X86500000Y-17261928D01*
X86375518Y-17274188D01*
X86255820Y-17310498D01*
X86145506Y-17369463D01*
X86048815Y-17448815D01*
X85969463Y-17545506D01*
X85910498Y-17655820D01*
X85874188Y-17775518D01*
X85861928Y-17900000D01*
X80860727Y-17900000D01*
X80865454Y-12700000D01*
X88461928Y-12700000D01*
X88461928Y-13700000D01*
X88474188Y-13824482D01*
X88510498Y-13944180D01*
X88569463Y-14054494D01*
X88648815Y-14151185D01*
X88745506Y-14230537D01*
X88855820Y-14289502D01*
X88975518Y-14325812D01*
X89100000Y-14338072D01*
X91300000Y-14338072D01*
X91424482Y-14325812D01*
X91544180Y-14289502D01*
X91654494Y-14230537D01*
X91751185Y-14151185D01*
X91830537Y-14054494D01*
X91889502Y-13944180D01*
X91925812Y-13824482D01*
X91938072Y-13700000D01*
X91938072Y-12700000D01*
X91925812Y-12575518D01*
X91889502Y-12455820D01*
X91830537Y-12345506D01*
X91751185Y-12248815D01*
X91654494Y-12169463D01*
X91544180Y-12110498D01*
X91424482Y-12074188D01*
X91300000Y-12061928D01*
X89100000Y-12061928D01*
X88975518Y-12074188D01*
X88855820Y-12110498D01*
X88745506Y-12169463D01*
X88648815Y-12248815D01*
X88569463Y-12345506D01*
X88510498Y-12455820D01*
X88474188Y-12575518D01*
X88461928Y-12700000D01*
X80865454Y-12700000D01*
X80867908Y-10000000D01*
X89861928Y-10000000D01*
X89861928Y-11000000D01*
X89874188Y-11124482D01*
X89910498Y-11244180D01*
X89969463Y-11354494D01*
X90048815Y-11451185D01*
X90145506Y-11530537D01*
X90255820Y-11589502D01*
X90375518Y-11625812D01*
X90500000Y-11638072D01*
X92700000Y-11638072D01*
X92824482Y-11625812D01*
X92944180Y-11589502D01*
X93054494Y-11530537D01*
X93151185Y-11451185D01*
X93230537Y-11354494D01*
X93289502Y-11244180D01*
X93325812Y-11124482D01*
X93338072Y-11000000D01*
X93338072Y-10000000D01*
X93325812Y-9875518D01*
X93289502Y-9755820D01*
X93230537Y-9645506D01*
X93151185Y-9548815D01*
X93054494Y-9469463D01*
X92944180Y-9410498D01*
X92824482Y-9374188D01*
X92700000Y-9361928D01*
X90500000Y-9361928D01*
X90375518Y-9374188D01*
X90255820Y-9410498D01*
X90145506Y-9469463D01*
X90048815Y-9548815D01*
X89969463Y-9645506D01*
X89910498Y-9755820D01*
X89874188Y-9875518D01*
X89861928Y-10000000D01*
X80867908Y-10000000D01*
X80868726Y-9100000D01*
X96861928Y-9100000D01*
X96874188Y-9224482D01*
X96910498Y-9344180D01*
X96969463Y-9454494D01*
X97048815Y-9551185D01*
X97145506Y-9630537D01*
X97255820Y-9689502D01*
X97375518Y-9725812D01*
X97500000Y-9738072D01*
X97714250Y-9735000D01*
X97873000Y-9576250D01*
X97873000Y-8127000D01*
X98127000Y-8127000D01*
X98127000Y-9576250D01*
X98285750Y-9735000D01*
X98500000Y-9738072D01*
X98624482Y-9725812D01*
X98744180Y-9689502D01*
X98854494Y-9630537D01*
X98951185Y-9551185D01*
X99030537Y-9454494D01*
X99089502Y-9344180D01*
X99125812Y-9224482D01*
X99138072Y-9100000D01*
X99135000Y-8285750D01*
X98976250Y-8127000D01*
X98127000Y-8127000D01*
X97873000Y-8127000D01*
X97023750Y-8127000D01*
X96865000Y-8285750D01*
X96861928Y-9100000D01*
X80868726Y-9100000D01*
X80870726Y-6900000D01*
X96861928Y-6900000D01*
X96865000Y-7714250D01*
X97023750Y-7873000D01*
X97873000Y-7873000D01*
X97873000Y-6423750D01*
X98127000Y-6423750D01*
X98127000Y-7873000D01*
X98976250Y-7873000D01*
X99135000Y-7714250D01*
X99138072Y-6900000D01*
X99125812Y-6775518D01*
X99089502Y-6655820D01*
X99030537Y-6545506D01*
X98951185Y-6448815D01*
X98854494Y-6369463D01*
X98744180Y-6310498D01*
X98624482Y-6274188D01*
X98500000Y-6261928D01*
X98285750Y-6265000D01*
X98127000Y-6423750D01*
X97873000Y-6423750D01*
X97714250Y-6265000D01*
X97500000Y-6261928D01*
X97375518Y-6274188D01*
X97255820Y-6310498D01*
X97145506Y-6369463D01*
X97048815Y-6448815D01*
X96969463Y-6545506D01*
X96910498Y-6655820D01*
X96874188Y-6775518D01*
X96861928Y-6900000D01*
X80870726Y-6900000D01*
X80874363Y-2900000D01*
X85861928Y-2900000D01*
X85861928Y-5100000D01*
X85874188Y-5224482D01*
X85910498Y-5344180D01*
X85969463Y-5454494D01*
X86048815Y-5551185D01*
X86145506Y-5630537D01*
X86255820Y-5689502D01*
X86375518Y-5725812D01*
X86500000Y-5738072D01*
X87500000Y-5738072D01*
X87624482Y-5725812D01*
X87744180Y-5689502D01*
X87854494Y-5630537D01*
X87951185Y-5551185D01*
X88030537Y-5454494D01*
X88089502Y-5344180D01*
X88125812Y-5224482D01*
X88138072Y-5100000D01*
X88138072Y-3000000D01*
X92861928Y-3000000D01*
X92861928Y-4000000D01*
X92874188Y-4124482D01*
X92910498Y-4244180D01*
X92969463Y-4354494D01*
X93048815Y-4451185D01*
X93145506Y-4530537D01*
X93255820Y-4589502D01*
X93375518Y-4625812D01*
X93500000Y-4638072D01*
X95700000Y-4638072D01*
X95824482Y-4625812D01*
X95944180Y-4589502D01*
X96054494Y-4530537D01*
X96151185Y-4451185D01*
X96230537Y-4354494D01*
X96289502Y-4244180D01*
X96325812Y-4124482D01*
X96338072Y-4000000D01*
X96338072Y-3000000D01*
X96325812Y-2875518D01*
X96289502Y-2755820D01*
X96230537Y-2645506D01*
X96151185Y-2548815D01*
X96054494Y-2469463D01*
X95944180Y-2410498D01*
X95824482Y-2374188D01*
X95700000Y-2361928D01*
X93500000Y-2361928D01*
X93375518Y-2374188D01*
X93255820Y-2410498D01*
X93145506Y-2469463D01*
X93048815Y-2548815D01*
X92969463Y-2645506D01*
X92910498Y-2755820D01*
X92874188Y-2875518D01*
X92861928Y-3000000D01*
X88138072Y-3000000D01*
X88138072Y-2900000D01*
X88125812Y-2775518D01*
X88089502Y-2655820D01*
X88030537Y-2545506D01*
X87951185Y-2448815D01*
X87854494Y-2369463D01*
X87744180Y-2310498D01*
X87624482Y-2274188D01*
X87500000Y-2261928D01*
X86500000Y-2261928D01*
X86375518Y-2274188D01*
X86255820Y-2310498D01*
X86145506Y-2369463D01*
X86048815Y-2448815D01*
X85969463Y-2545506D01*
X85910498Y-2655820D01*
X85874188Y-2775518D01*
X85861928Y-2900000D01*
X80874363Y-2900000D01*
X80876400Y-660000D01*
X99340000Y-660000D01*
X99340001Y-100639636D01*
M02*
