M48
; DRILL file {KiCad (5.1.5)-3} date 12/6/2020 7:13:17 PM
; FORMAT={-:-/ absolute / metric / decimal}
; #@! TF.CreationDate,2020-12-06T19:13:17-07:00
; #@! TF.GenerationSoftware,Kicad,Pcbnew,(5.1.5)-3
FMAT,2
METRIC
T1C0.400
T2C0.762
T3C0.900
T4C1.000
T5C2.300
%
G90
G05
T1
X1.15Y-1.15
X1.15Y-108.9
X18.7Y-1.15
X18.75Y-108.9
X21.35Y-1.35
X25.45Y-53.75
X25.45Y-60.05
X26.75Y-108.75
X29.339Y-61.223
X32.95Y-89.8
X33.85Y-49.75
X33.975Y-9.737
X33.975Y-54.458
X34.0Y-8.25
X34.524Y-47.347
X38.15Y-16.4
X38.189Y-63.378
X39.05Y-56.05
X40.053Y-64.604
X40.541Y-58.118
X42.344Y-32.064
X42.45Y-6.0
X42.592Y-53.548
X43.25Y-55.65
X43.4Y-83.25
X43.55Y-78.45
X43.603Y-74.974
X43.604Y-52.996
X46.25Y-42.0
X47.03Y-35.968
X47.288Y-59.273
X47.609Y-75.121
X48.304Y-83.291
X48.308Y-81.259
X48.406Y-79.974
X48.7Y-76.751
X49.0Y-35.95
X49.661Y-85.798
X50.875Y-75.789
X51.4Y-100.45
X51.45Y-91.3
X51.743Y-64.976
X52.23Y-88.104
X52.331Y-46.672
X53.0Y-56.75
X53.715Y-89.011
X54.007Y-85.179
X55.45Y-48.0
X55.644Y-37.171
X58.288Y-54.737
X58.75Y-81.445
X59.363Y-42.0
X62.144Y-68.391
X62.374Y-33.692
X63.973Y-61.27
X64.504Y-76.47
X65.263Y-21.863
X66.55Y-30.15
X66.65Y-80.45
X68.6Y-94.0
X68.8Y-21.5
X69.143Y-67.357
X69.907Y-70.101
X70.694Y-91.91
X73.0Y-65.1
X74.05Y-42.4
X76.085Y-49.168
X78.6Y-108.8
X78.7Y-1.15
X81.25Y-108.85
X81.3Y-1.05
X98.8Y-108.85
X98.85Y-1.1
T2
X88.19Y-67.46
X88.19Y-70.0
X88.19Y-72.54
X90.73Y-67.46
X90.73Y-70.0
X90.73Y-72.54
X95.81Y-72.54
X95.84Y-67.46
T3
X95.46Y-102.0
X98.0Y-102.0
T4
X3.5Y-62.0
X3.5Y-64.5
X3.5Y-67.0
X18.0Y-40.0
X18.0Y-42.54
X18.0Y-45.08
X18.0Y-47.62
X18.0Y-50.16
X18.0Y-52.7
X18.0Y-55.24
X3.5Y-40.0
X3.5Y-42.5
X3.5Y-45.0
X78.0Y-27.06
X78.0Y-29.6
X78.0Y-32.14
X78.0Y-34.68
X78.0Y-37.22
X78.0Y-39.76
X78.0Y-42.3
X78.0Y-44.84
X78.0Y-47.38
X78.0Y-49.92
X78.0Y-52.46
X78.0Y-55.0
X96.5Y-43.0
X96.5Y-45.5
X96.5Y-48.0
X22.0Y-44.76
X22.0Y-47.3
X22.0Y-49.84
X22.0Y-52.38
X22.0Y-54.92
X22.0Y-57.46
X22.0Y-60.0
X82.0Y-27.06
X82.0Y-29.6
X82.0Y-32.14
X82.0Y-34.68
X82.0Y-37.22
X82.0Y-39.76
X82.0Y-42.3
X82.0Y-44.84
X82.0Y-47.38
X82.0Y-49.92
X82.0Y-52.46
X82.0Y-55.0
X22.0Y-90.0
X22.0Y-92.54
X22.0Y-95.08
X22.0Y-97.62
X22.0Y-100.16
X22.0Y-102.7
X22.0Y-105.24
X22.0Y-107.78
X24.54Y-90.0
X24.54Y-92.54
X24.54Y-95.08
X24.54Y-97.62
X24.54Y-100.16
X24.54Y-102.7
X24.54Y-105.24
X24.54Y-107.78
T5
X6.8Y-37.5
X6.8Y-47.5
X93.2Y-40.5
X93.2Y-50.5
X6.8Y-59.5
X6.8Y-69.5
T1
G00X2.0Y-101.6
M15
G01X2.0Y-102.4
M16
G05
G00X5.0Y-106.5
M15
G01X5.8Y-106.5
M16
G05
G00X8.0Y-99.5
M15
G01X8.8Y-99.5
M16
G05
G00X9.4Y-96.8
M15
G01X10.2Y-96.8
M16
G05
G00X13.0Y-105.6
M15
G01X13.0Y-106.4
M16
G05
G00X87.0Y-19.4
M15
G01X87.0Y-18.6
M16
G05
G00X90.6Y-28.2
M15
G01X89.8Y-28.2
M16
G05
G00X92.0Y-25.5
M15
G01X91.2Y-25.5
M16
G05
G00X95.0Y-18.5
M15
G01X94.2Y-18.5
M16
G05
G00X98.0Y-23.4
M15
G01X98.0Y-22.6
M16
G05
G00X2.0Y-21.6
M15
G01X2.0Y-22.4
M16
G05
G00X5.0Y-26.5
M15
G01X5.8Y-26.5
M16
G05
G00X8.0Y-19.5
M15
G01X8.8Y-19.5
M16
G05
G00X9.4Y-16.8
M15
G01X10.2Y-16.8
M16
G05
G00X13.0Y-25.6
M15
G01X13.0Y-26.4
M16
G05
G00X87.0Y-4.4
M15
G01X87.0Y-3.6
M16
G05
G00X90.6Y-13.2
M15
G01X89.8Y-13.2
M16
G05
G00X92.0Y-10.5
M15
G01X91.2Y-10.5
M16
G05
G00X95.0Y-3.5
M15
G01X94.2Y-3.5
M16
G05
G00X98.0Y-8.4
M15
G01X98.0Y-7.6
M16
G05
G00X2.0Y-86.6
M15
G01X2.0Y-87.4
M16
G05
G00X5.0Y-91.5
M15
G01X5.8Y-91.5
M16
G05
G00X8.0Y-84.5
M15
G01X8.8Y-84.5
M16
G05
G00X9.4Y-81.8
M15
G01X10.2Y-81.8
M16
G05
G00X13.0Y-90.6
M15
G01X13.0Y-91.4
M16
G05
G00X87.0Y-84.4
M15
G01X87.0Y-83.6
M16
G05
G00X90.6Y-93.2
M15
G01X89.8Y-93.2
M16
G05
G00X92.0Y-90.5
M15
G01X91.2Y-90.5
M16
G05
G00X95.0Y-83.5
M15
G01X94.2Y-83.5
M16
G05
G00X98.0Y-88.4
M15
G01X98.0Y-87.6
M16
G05
T0
M30
