G04 #@! TF.GenerationSoftware,KiCad,Pcbnew,9.0.0*
G04 #@! TF.CreationDate,2025-02-23T15:39:26-07:00*
G04 #@! TF.ProjectId,NOT,4e4f542e-6b69-4636-9164-5f7063625858,rev?*
G04 #@! TF.SameCoordinates,Original*
G04 #@! TF.FileFunction,Legend,Top*
G04 #@! TF.FilePolarity,Positive*
%FSLAX46Y46*%
G04 Gerber Fmt 4.6, Leading zero omitted, Abs format (unit mm)*
G04 Created by KiCad (PCBNEW 9.0.0) date 2025-02-23 15:39:26*
%MOMM*%
%LPD*%
G01*
G04 APERTURE LIST*
%ADD10C,0.150000*%
%ADD11C,0.120000*%
G04 APERTURE END LIST*
D10*
X28454819Y-52404761D02*
X27454819Y-52404761D01*
X28454819Y-51928571D02*
X27454819Y-51928571D01*
X27454819Y-51928571D02*
X28454819Y-51357143D01*
X28454819Y-51357143D02*
X27454819Y-51357143D01*
X28454819Y-50880952D02*
X27454819Y-50880952D01*
X27454819Y-50880952D02*
X27454819Y-50500000D01*
X27454819Y-50500000D02*
X27502438Y-50404762D01*
X27502438Y-50404762D02*
X27550057Y-50357143D01*
X27550057Y-50357143D02*
X27645295Y-50309524D01*
X27645295Y-50309524D02*
X27788152Y-50309524D01*
X27788152Y-50309524D02*
X27883390Y-50357143D01*
X27883390Y-50357143D02*
X27931009Y-50404762D01*
X27931009Y-50404762D02*
X27978628Y-50500000D01*
X27978628Y-50500000D02*
X27978628Y-50880952D01*
X27454819Y-49880952D02*
X28264342Y-49880952D01*
X28264342Y-49880952D02*
X28359580Y-49833333D01*
X28359580Y-49833333D02*
X28407200Y-49785714D01*
X28407200Y-49785714D02*
X28454819Y-49690476D01*
X28454819Y-49690476D02*
X28454819Y-49500000D01*
X28454819Y-49500000D02*
X28407200Y-49404762D01*
X28407200Y-49404762D02*
X28359580Y-49357143D01*
X28359580Y-49357143D02*
X28264342Y-49309524D01*
X28264342Y-49309524D02*
X27454819Y-49309524D01*
X27454819Y-48976190D02*
X27454819Y-48404762D01*
X28454819Y-48690476D02*
X27454819Y-48690476D01*
X28407200Y-48119047D02*
X28454819Y-47976190D01*
X28454819Y-47976190D02*
X28454819Y-47738095D01*
X28454819Y-47738095D02*
X28407200Y-47642857D01*
X28407200Y-47642857D02*
X28359580Y-47595238D01*
X28359580Y-47595238D02*
X28264342Y-47547619D01*
X28264342Y-47547619D02*
X28169104Y-47547619D01*
X28169104Y-47547619D02*
X28073866Y-47595238D01*
X28073866Y-47595238D02*
X28026247Y-47642857D01*
X28026247Y-47642857D02*
X27978628Y-47738095D01*
X27978628Y-47738095D02*
X27931009Y-47928571D01*
X27931009Y-47928571D02*
X27883390Y-48023809D01*
X27883390Y-48023809D02*
X27835771Y-48071428D01*
X27835771Y-48071428D02*
X27740533Y-48119047D01*
X27740533Y-48119047D02*
X27645295Y-48119047D01*
X27645295Y-48119047D02*
X27550057Y-48071428D01*
X27550057Y-48071428D02*
X27502438Y-48023809D01*
X27502438Y-48023809D02*
X27454819Y-47928571D01*
X27454819Y-47928571D02*
X27454819Y-47690476D01*
X27454819Y-47690476D02*
X27502438Y-47547619D01*
X7046119Y-15741874D02*
X6046119Y-15741874D01*
X6046119Y-15741874D02*
X6046119Y-15503779D01*
X6046119Y-15503779D02*
X6093738Y-15360922D01*
X6093738Y-15360922D02*
X6188976Y-15265684D01*
X6188976Y-15265684D02*
X6284214Y-15218065D01*
X6284214Y-15218065D02*
X6474690Y-15170446D01*
X6474690Y-15170446D02*
X6617547Y-15170446D01*
X6617547Y-15170446D02*
X6808023Y-15218065D01*
X6808023Y-15218065D02*
X6903261Y-15265684D01*
X6903261Y-15265684D02*
X6998500Y-15360922D01*
X6998500Y-15360922D02*
X7046119Y-15503779D01*
X7046119Y-15503779D02*
X7046119Y-15741874D01*
X7046119Y-14218065D02*
X7046119Y-14789493D01*
X7046119Y-14503779D02*
X6046119Y-14503779D01*
X6046119Y-14503779D02*
X6188976Y-14599017D01*
X6188976Y-14599017D02*
X6284214Y-14694255D01*
X6284214Y-14694255D02*
X6331833Y-14789493D01*
X7114699Y-31736254D02*
X6114699Y-31736254D01*
X6114699Y-31736254D02*
X6114699Y-31498159D01*
X6114699Y-31498159D02*
X6162318Y-31355302D01*
X6162318Y-31355302D02*
X6257556Y-31260064D01*
X6257556Y-31260064D02*
X6352794Y-31212445D01*
X6352794Y-31212445D02*
X6543270Y-31164826D01*
X6543270Y-31164826D02*
X6686127Y-31164826D01*
X6686127Y-31164826D02*
X6876603Y-31212445D01*
X6876603Y-31212445D02*
X6971841Y-31260064D01*
X6971841Y-31260064D02*
X7067080Y-31355302D01*
X7067080Y-31355302D02*
X7114699Y-31498159D01*
X7114699Y-31498159D02*
X7114699Y-31736254D01*
X6209937Y-30783873D02*
X6162318Y-30736254D01*
X6162318Y-30736254D02*
X6114699Y-30641016D01*
X6114699Y-30641016D02*
X6114699Y-30402921D01*
X6114699Y-30402921D02*
X6162318Y-30307683D01*
X6162318Y-30307683D02*
X6209937Y-30260064D01*
X6209937Y-30260064D02*
X6305175Y-30212445D01*
X6305175Y-30212445D02*
X6400413Y-30212445D01*
X6400413Y-30212445D02*
X6543270Y-30260064D01*
X6543270Y-30260064D02*
X7114699Y-30831492D01*
X7114699Y-30831492D02*
X7114699Y-30212445D01*
X6980079Y-47738254D02*
X5980079Y-47738254D01*
X5980079Y-47738254D02*
X5980079Y-47500159D01*
X5980079Y-47500159D02*
X6027698Y-47357302D01*
X6027698Y-47357302D02*
X6122936Y-47262064D01*
X6122936Y-47262064D02*
X6218174Y-47214445D01*
X6218174Y-47214445D02*
X6408650Y-47166826D01*
X6408650Y-47166826D02*
X6551507Y-47166826D01*
X6551507Y-47166826D02*
X6741983Y-47214445D01*
X6741983Y-47214445D02*
X6837221Y-47262064D01*
X6837221Y-47262064D02*
X6932460Y-47357302D01*
X6932460Y-47357302D02*
X6980079Y-47500159D01*
X6980079Y-47500159D02*
X6980079Y-47738254D01*
X5980079Y-46833492D02*
X5980079Y-46214445D01*
X5980079Y-46214445D02*
X6361031Y-46547778D01*
X6361031Y-46547778D02*
X6361031Y-46404921D01*
X6361031Y-46404921D02*
X6408650Y-46309683D01*
X6408650Y-46309683D02*
X6456269Y-46262064D01*
X6456269Y-46262064D02*
X6551507Y-46214445D01*
X6551507Y-46214445D02*
X6789602Y-46214445D01*
X6789602Y-46214445D02*
X6884840Y-46262064D01*
X6884840Y-46262064D02*
X6932460Y-46309683D01*
X6932460Y-46309683D02*
X6980079Y-46404921D01*
X6980079Y-46404921D02*
X6980079Y-46690635D01*
X6980079Y-46690635D02*
X6932460Y-46785873D01*
X6932460Y-46785873D02*
X6884840Y-46833492D01*
X6908959Y-63740254D02*
X5908959Y-63740254D01*
X5908959Y-63740254D02*
X5908959Y-63502159D01*
X5908959Y-63502159D02*
X5956578Y-63359302D01*
X5956578Y-63359302D02*
X6051816Y-63264064D01*
X6051816Y-63264064D02*
X6147054Y-63216445D01*
X6147054Y-63216445D02*
X6337530Y-63168826D01*
X6337530Y-63168826D02*
X6480387Y-63168826D01*
X6480387Y-63168826D02*
X6670863Y-63216445D01*
X6670863Y-63216445D02*
X6766101Y-63264064D01*
X6766101Y-63264064D02*
X6861340Y-63359302D01*
X6861340Y-63359302D02*
X6908959Y-63502159D01*
X6908959Y-63502159D02*
X6908959Y-63740254D01*
X6242292Y-62311683D02*
X6908959Y-62311683D01*
X5861340Y-62549778D02*
X6575625Y-62787873D01*
X6575625Y-62787873D02*
X6575625Y-62168826D01*
X7104539Y-79742254D02*
X6104539Y-79742254D01*
X6104539Y-79742254D02*
X6104539Y-79504159D01*
X6104539Y-79504159D02*
X6152158Y-79361302D01*
X6152158Y-79361302D02*
X6247396Y-79266064D01*
X6247396Y-79266064D02*
X6342634Y-79218445D01*
X6342634Y-79218445D02*
X6533110Y-79170826D01*
X6533110Y-79170826D02*
X6675967Y-79170826D01*
X6675967Y-79170826D02*
X6866443Y-79218445D01*
X6866443Y-79218445D02*
X6961681Y-79266064D01*
X6961681Y-79266064D02*
X7056920Y-79361302D01*
X7056920Y-79361302D02*
X7104539Y-79504159D01*
X7104539Y-79504159D02*
X7104539Y-79742254D01*
X6104539Y-78266064D02*
X6104539Y-78742254D01*
X6104539Y-78742254D02*
X6580729Y-78789873D01*
X6580729Y-78789873D02*
X6533110Y-78742254D01*
X6533110Y-78742254D02*
X6485491Y-78647016D01*
X6485491Y-78647016D02*
X6485491Y-78408921D01*
X6485491Y-78408921D02*
X6533110Y-78313683D01*
X6533110Y-78313683D02*
X6580729Y-78266064D01*
X6580729Y-78266064D02*
X6675967Y-78218445D01*
X6675967Y-78218445D02*
X6914062Y-78218445D01*
X6914062Y-78218445D02*
X7009300Y-78266064D01*
X7009300Y-78266064D02*
X7056920Y-78313683D01*
X7056920Y-78313683D02*
X7104539Y-78408921D01*
X7104539Y-78408921D02*
X7104539Y-78647016D01*
X7104539Y-78647016D02*
X7056920Y-78742254D01*
X7056920Y-78742254D02*
X7009300Y-78789873D01*
X6906419Y-95736634D02*
X5906419Y-95736634D01*
X5906419Y-95736634D02*
X5906419Y-95498539D01*
X5906419Y-95498539D02*
X5954038Y-95355682D01*
X5954038Y-95355682D02*
X6049276Y-95260444D01*
X6049276Y-95260444D02*
X6144514Y-95212825D01*
X6144514Y-95212825D02*
X6334990Y-95165206D01*
X6334990Y-95165206D02*
X6477847Y-95165206D01*
X6477847Y-95165206D02*
X6668323Y-95212825D01*
X6668323Y-95212825D02*
X6763561Y-95260444D01*
X6763561Y-95260444D02*
X6858800Y-95355682D01*
X6858800Y-95355682D02*
X6906419Y-95498539D01*
X6906419Y-95498539D02*
X6906419Y-95736634D01*
X5906419Y-94308063D02*
X5906419Y-94498539D01*
X5906419Y-94498539D02*
X5954038Y-94593777D01*
X5954038Y-94593777D02*
X6001657Y-94641396D01*
X6001657Y-94641396D02*
X6144514Y-94736634D01*
X6144514Y-94736634D02*
X6334990Y-94784253D01*
X6334990Y-94784253D02*
X6715942Y-94784253D01*
X6715942Y-94784253D02*
X6811180Y-94736634D01*
X6811180Y-94736634D02*
X6858800Y-94689015D01*
X6858800Y-94689015D02*
X6906419Y-94593777D01*
X6906419Y-94593777D02*
X6906419Y-94403301D01*
X6906419Y-94403301D02*
X6858800Y-94308063D01*
X6858800Y-94308063D02*
X6811180Y-94260444D01*
X6811180Y-94260444D02*
X6715942Y-94212825D01*
X6715942Y-94212825D02*
X6477847Y-94212825D01*
X6477847Y-94212825D02*
X6382609Y-94260444D01*
X6382609Y-94260444D02*
X6334990Y-94308063D01*
X6334990Y-94308063D02*
X6287371Y-94403301D01*
X6287371Y-94403301D02*
X6287371Y-94593777D01*
X6287371Y-94593777D02*
X6334990Y-94689015D01*
X6334990Y-94689015D02*
X6382609Y-94736634D01*
X6382609Y-94736634D02*
X6477847Y-94784253D01*
X93926819Y-16200285D02*
X92926819Y-16200285D01*
X92926819Y-16200285D02*
X92926819Y-15962190D01*
X92926819Y-15962190D02*
X92974438Y-15819333D01*
X92974438Y-15819333D02*
X93069676Y-15724095D01*
X93069676Y-15724095D02*
X93164914Y-15676476D01*
X93164914Y-15676476D02*
X93355390Y-15628857D01*
X93355390Y-15628857D02*
X93498247Y-15628857D01*
X93498247Y-15628857D02*
X93688723Y-15676476D01*
X93688723Y-15676476D02*
X93783961Y-15724095D01*
X93783961Y-15724095D02*
X93879200Y-15819333D01*
X93879200Y-15819333D02*
X93926819Y-15962190D01*
X93926819Y-15962190D02*
X93926819Y-16200285D01*
X93926819Y-14676476D02*
X93926819Y-15247904D01*
X93926819Y-14962190D02*
X92926819Y-14962190D01*
X92926819Y-14962190D02*
X93069676Y-15057428D01*
X93069676Y-15057428D02*
X93164914Y-15152666D01*
X93164914Y-15152666D02*
X93212533Y-15247904D01*
X92926819Y-14343142D02*
X92926819Y-13724095D01*
X92926819Y-13724095D02*
X93307771Y-14057428D01*
X93307771Y-14057428D02*
X93307771Y-13914571D01*
X93307771Y-13914571D02*
X93355390Y-13819333D01*
X93355390Y-13819333D02*
X93403009Y-13771714D01*
X93403009Y-13771714D02*
X93498247Y-13724095D01*
X93498247Y-13724095D02*
X93736342Y-13724095D01*
X93736342Y-13724095D02*
X93831580Y-13771714D01*
X93831580Y-13771714D02*
X93879200Y-13819333D01*
X93879200Y-13819333D02*
X93926819Y-13914571D01*
X93926819Y-13914571D02*
X93926819Y-14200285D01*
X93926819Y-14200285D02*
X93879200Y-14295523D01*
X93879200Y-14295523D02*
X93831580Y-14343142D01*
X93926819Y-32202285D02*
X92926819Y-32202285D01*
X92926819Y-32202285D02*
X92926819Y-31964190D01*
X92926819Y-31964190D02*
X92974438Y-31821333D01*
X92974438Y-31821333D02*
X93069676Y-31726095D01*
X93069676Y-31726095D02*
X93164914Y-31678476D01*
X93164914Y-31678476D02*
X93355390Y-31630857D01*
X93355390Y-31630857D02*
X93498247Y-31630857D01*
X93498247Y-31630857D02*
X93688723Y-31678476D01*
X93688723Y-31678476D02*
X93783961Y-31726095D01*
X93783961Y-31726095D02*
X93879200Y-31821333D01*
X93879200Y-31821333D02*
X93926819Y-31964190D01*
X93926819Y-31964190D02*
X93926819Y-32202285D01*
X93926819Y-30678476D02*
X93926819Y-31249904D01*
X93926819Y-30964190D02*
X92926819Y-30964190D01*
X92926819Y-30964190D02*
X93069676Y-31059428D01*
X93069676Y-31059428D02*
X93164914Y-31154666D01*
X93164914Y-31154666D02*
X93212533Y-31249904D01*
X93260152Y-29821333D02*
X93926819Y-29821333D01*
X92879200Y-30059428D02*
X93593485Y-30297523D01*
X93593485Y-30297523D02*
X93593485Y-29678476D01*
X93926819Y-48204285D02*
X92926819Y-48204285D01*
X92926819Y-48204285D02*
X92926819Y-47966190D01*
X92926819Y-47966190D02*
X92974438Y-47823333D01*
X92974438Y-47823333D02*
X93069676Y-47728095D01*
X93069676Y-47728095D02*
X93164914Y-47680476D01*
X93164914Y-47680476D02*
X93355390Y-47632857D01*
X93355390Y-47632857D02*
X93498247Y-47632857D01*
X93498247Y-47632857D02*
X93688723Y-47680476D01*
X93688723Y-47680476D02*
X93783961Y-47728095D01*
X93783961Y-47728095D02*
X93879200Y-47823333D01*
X93879200Y-47823333D02*
X93926819Y-47966190D01*
X93926819Y-47966190D02*
X93926819Y-48204285D01*
X93926819Y-46680476D02*
X93926819Y-47251904D01*
X93926819Y-46966190D02*
X92926819Y-46966190D01*
X92926819Y-46966190D02*
X93069676Y-47061428D01*
X93069676Y-47061428D02*
X93164914Y-47156666D01*
X93164914Y-47156666D02*
X93212533Y-47251904D01*
X92926819Y-45775714D02*
X92926819Y-46251904D01*
X92926819Y-46251904D02*
X93403009Y-46299523D01*
X93403009Y-46299523D02*
X93355390Y-46251904D01*
X93355390Y-46251904D02*
X93307771Y-46156666D01*
X93307771Y-46156666D02*
X93307771Y-45918571D01*
X93307771Y-45918571D02*
X93355390Y-45823333D01*
X93355390Y-45823333D02*
X93403009Y-45775714D01*
X93403009Y-45775714D02*
X93498247Y-45728095D01*
X93498247Y-45728095D02*
X93736342Y-45728095D01*
X93736342Y-45728095D02*
X93831580Y-45775714D01*
X93831580Y-45775714D02*
X93879200Y-45823333D01*
X93879200Y-45823333D02*
X93926819Y-45918571D01*
X93926819Y-45918571D02*
X93926819Y-46156666D01*
X93926819Y-46156666D02*
X93879200Y-46251904D01*
X93879200Y-46251904D02*
X93831580Y-46299523D01*
X93926819Y-64206285D02*
X92926819Y-64206285D01*
X92926819Y-64206285D02*
X92926819Y-63968190D01*
X92926819Y-63968190D02*
X92974438Y-63825333D01*
X92974438Y-63825333D02*
X93069676Y-63730095D01*
X93069676Y-63730095D02*
X93164914Y-63682476D01*
X93164914Y-63682476D02*
X93355390Y-63634857D01*
X93355390Y-63634857D02*
X93498247Y-63634857D01*
X93498247Y-63634857D02*
X93688723Y-63682476D01*
X93688723Y-63682476D02*
X93783961Y-63730095D01*
X93783961Y-63730095D02*
X93879200Y-63825333D01*
X93879200Y-63825333D02*
X93926819Y-63968190D01*
X93926819Y-63968190D02*
X93926819Y-64206285D01*
X93926819Y-62682476D02*
X93926819Y-63253904D01*
X93926819Y-62968190D02*
X92926819Y-62968190D01*
X92926819Y-62968190D02*
X93069676Y-63063428D01*
X93069676Y-63063428D02*
X93164914Y-63158666D01*
X93164914Y-63158666D02*
X93212533Y-63253904D01*
X92926819Y-61825333D02*
X92926819Y-62015809D01*
X92926819Y-62015809D02*
X92974438Y-62111047D01*
X92974438Y-62111047D02*
X93022057Y-62158666D01*
X93022057Y-62158666D02*
X93164914Y-62253904D01*
X93164914Y-62253904D02*
X93355390Y-62301523D01*
X93355390Y-62301523D02*
X93736342Y-62301523D01*
X93736342Y-62301523D02*
X93831580Y-62253904D01*
X93831580Y-62253904D02*
X93879200Y-62206285D01*
X93879200Y-62206285D02*
X93926819Y-62111047D01*
X93926819Y-62111047D02*
X93926819Y-61920571D01*
X93926819Y-61920571D02*
X93879200Y-61825333D01*
X93879200Y-61825333D02*
X93831580Y-61777714D01*
X93831580Y-61777714D02*
X93736342Y-61730095D01*
X93736342Y-61730095D02*
X93498247Y-61730095D01*
X93498247Y-61730095D02*
X93403009Y-61777714D01*
X93403009Y-61777714D02*
X93355390Y-61825333D01*
X93355390Y-61825333D02*
X93307771Y-61920571D01*
X93307771Y-61920571D02*
X93307771Y-62111047D01*
X93307771Y-62111047D02*
X93355390Y-62206285D01*
X93355390Y-62206285D02*
X93403009Y-62253904D01*
X93403009Y-62253904D02*
X93498247Y-62301523D01*
X93926819Y-80208285D02*
X92926819Y-80208285D01*
X92926819Y-80208285D02*
X92926819Y-79970190D01*
X92926819Y-79970190D02*
X92974438Y-79827333D01*
X92974438Y-79827333D02*
X93069676Y-79732095D01*
X93069676Y-79732095D02*
X93164914Y-79684476D01*
X93164914Y-79684476D02*
X93355390Y-79636857D01*
X93355390Y-79636857D02*
X93498247Y-79636857D01*
X93498247Y-79636857D02*
X93688723Y-79684476D01*
X93688723Y-79684476D02*
X93783961Y-79732095D01*
X93783961Y-79732095D02*
X93879200Y-79827333D01*
X93879200Y-79827333D02*
X93926819Y-79970190D01*
X93926819Y-79970190D02*
X93926819Y-80208285D01*
X93926819Y-78684476D02*
X93926819Y-79255904D01*
X93926819Y-78970190D02*
X92926819Y-78970190D01*
X92926819Y-78970190D02*
X93069676Y-79065428D01*
X93069676Y-79065428D02*
X93164914Y-79160666D01*
X93164914Y-79160666D02*
X93212533Y-79255904D01*
X92926819Y-78351142D02*
X92926819Y-77684476D01*
X92926819Y-77684476D02*
X93926819Y-78113047D01*
X93926819Y-96210285D02*
X92926819Y-96210285D01*
X92926819Y-96210285D02*
X92926819Y-95972190D01*
X92926819Y-95972190D02*
X92974438Y-95829333D01*
X92974438Y-95829333D02*
X93069676Y-95734095D01*
X93069676Y-95734095D02*
X93164914Y-95686476D01*
X93164914Y-95686476D02*
X93355390Y-95638857D01*
X93355390Y-95638857D02*
X93498247Y-95638857D01*
X93498247Y-95638857D02*
X93688723Y-95686476D01*
X93688723Y-95686476D02*
X93783961Y-95734095D01*
X93783961Y-95734095D02*
X93879200Y-95829333D01*
X93879200Y-95829333D02*
X93926819Y-95972190D01*
X93926819Y-95972190D02*
X93926819Y-96210285D01*
X93926819Y-94686476D02*
X93926819Y-95257904D01*
X93926819Y-94972190D02*
X92926819Y-94972190D01*
X92926819Y-94972190D02*
X93069676Y-95067428D01*
X93069676Y-95067428D02*
X93164914Y-95162666D01*
X93164914Y-95162666D02*
X93212533Y-95257904D01*
X93355390Y-94115047D02*
X93307771Y-94210285D01*
X93307771Y-94210285D02*
X93260152Y-94257904D01*
X93260152Y-94257904D02*
X93164914Y-94305523D01*
X93164914Y-94305523D02*
X93117295Y-94305523D01*
X93117295Y-94305523D02*
X93022057Y-94257904D01*
X93022057Y-94257904D02*
X92974438Y-94210285D01*
X92974438Y-94210285D02*
X92926819Y-94115047D01*
X92926819Y-94115047D02*
X92926819Y-93924571D01*
X92926819Y-93924571D02*
X92974438Y-93829333D01*
X92974438Y-93829333D02*
X93022057Y-93781714D01*
X93022057Y-93781714D02*
X93117295Y-93734095D01*
X93117295Y-93734095D02*
X93164914Y-93734095D01*
X93164914Y-93734095D02*
X93260152Y-93781714D01*
X93260152Y-93781714D02*
X93307771Y-93829333D01*
X93307771Y-93829333D02*
X93355390Y-93924571D01*
X93355390Y-93924571D02*
X93355390Y-94115047D01*
X93355390Y-94115047D02*
X93403009Y-94210285D01*
X93403009Y-94210285D02*
X93450628Y-94257904D01*
X93450628Y-94257904D02*
X93545866Y-94305523D01*
X93545866Y-94305523D02*
X93736342Y-94305523D01*
X93736342Y-94305523D02*
X93831580Y-94257904D01*
X93831580Y-94257904D02*
X93879200Y-94210285D01*
X93879200Y-94210285D02*
X93926819Y-94115047D01*
X93926819Y-94115047D02*
X93926819Y-93924571D01*
X93926819Y-93924571D02*
X93879200Y-93829333D01*
X93879200Y-93829333D02*
X93831580Y-93781714D01*
X93831580Y-93781714D02*
X93736342Y-93734095D01*
X93736342Y-93734095D02*
X93545866Y-93734095D01*
X93545866Y-93734095D02*
X93450628Y-93781714D01*
X93450628Y-93781714D02*
X93403009Y-93829333D01*
X93403009Y-93829333D02*
X93355390Y-93924571D01*
X14433199Y-7341193D02*
X15147484Y-7341193D01*
X15147484Y-7341193D02*
X15290341Y-7388812D01*
X15290341Y-7388812D02*
X15385580Y-7484050D01*
X15385580Y-7484050D02*
X15433199Y-7626907D01*
X15433199Y-7626907D02*
X15433199Y-7722145D01*
X15433199Y-6341193D02*
X15433199Y-6912621D01*
X15433199Y-6626907D02*
X14433199Y-6626907D01*
X14433199Y-6626907D02*
X14576056Y-6722145D01*
X14576056Y-6722145D02*
X14671294Y-6817383D01*
X14671294Y-6817383D02*
X14718913Y-6912621D01*
X14544959Y-39360433D02*
X15259244Y-39360433D01*
X15259244Y-39360433D02*
X15402101Y-39408052D01*
X15402101Y-39408052D02*
X15497340Y-39503290D01*
X15497340Y-39503290D02*
X15544959Y-39646147D01*
X15544959Y-39646147D02*
X15544959Y-39741385D01*
X14544959Y-38979480D02*
X14544959Y-38360433D01*
X14544959Y-38360433D02*
X14925911Y-38693766D01*
X14925911Y-38693766D02*
X14925911Y-38550909D01*
X14925911Y-38550909D02*
X14973530Y-38455671D01*
X14973530Y-38455671D02*
X15021149Y-38408052D01*
X15021149Y-38408052D02*
X15116387Y-38360433D01*
X15116387Y-38360433D02*
X15354482Y-38360433D01*
X15354482Y-38360433D02*
X15449720Y-38408052D01*
X15449720Y-38408052D02*
X15497340Y-38455671D01*
X15497340Y-38455671D02*
X15544959Y-38550909D01*
X15544959Y-38550909D02*
X15544959Y-38836623D01*
X15544959Y-38836623D02*
X15497340Y-38931861D01*
X15497340Y-38931861D02*
X15449720Y-38979480D01*
X14524639Y-55314173D02*
X15238924Y-55314173D01*
X15238924Y-55314173D02*
X15381781Y-55361792D01*
X15381781Y-55361792D02*
X15477020Y-55457030D01*
X15477020Y-55457030D02*
X15524639Y-55599887D01*
X15524639Y-55599887D02*
X15524639Y-55695125D01*
X14857972Y-54409411D02*
X15524639Y-54409411D01*
X14477020Y-54647506D02*
X15191305Y-54885601D01*
X15191305Y-54885601D02*
X15191305Y-54266554D01*
X14443359Y-71326333D02*
X15157644Y-71326333D01*
X15157644Y-71326333D02*
X15300501Y-71373952D01*
X15300501Y-71373952D02*
X15395740Y-71469190D01*
X15395740Y-71469190D02*
X15443359Y-71612047D01*
X15443359Y-71612047D02*
X15443359Y-71707285D01*
X14443359Y-70373952D02*
X14443359Y-70850142D01*
X14443359Y-70850142D02*
X14919549Y-70897761D01*
X14919549Y-70897761D02*
X14871930Y-70850142D01*
X14871930Y-70850142D02*
X14824311Y-70754904D01*
X14824311Y-70754904D02*
X14824311Y-70516809D01*
X14824311Y-70516809D02*
X14871930Y-70421571D01*
X14871930Y-70421571D02*
X14919549Y-70373952D01*
X14919549Y-70373952D02*
X15014787Y-70326333D01*
X15014787Y-70326333D02*
X15252882Y-70326333D01*
X15252882Y-70326333D02*
X15348120Y-70373952D01*
X15348120Y-70373952D02*
X15395740Y-70421571D01*
X15395740Y-70421571D02*
X15443359Y-70516809D01*
X15443359Y-70516809D02*
X15443359Y-70754904D01*
X15443359Y-70754904D02*
X15395740Y-70850142D01*
X15395740Y-70850142D02*
X15348120Y-70897761D01*
X14397639Y-87335953D02*
X15111924Y-87335953D01*
X15111924Y-87335953D02*
X15254781Y-87383572D01*
X15254781Y-87383572D02*
X15350020Y-87478810D01*
X15350020Y-87478810D02*
X15397639Y-87621667D01*
X15397639Y-87621667D02*
X15397639Y-87716905D01*
X14397639Y-86431191D02*
X14397639Y-86621667D01*
X14397639Y-86621667D02*
X14445258Y-86716905D01*
X14445258Y-86716905D02*
X14492877Y-86764524D01*
X14492877Y-86764524D02*
X14635734Y-86859762D01*
X14635734Y-86859762D02*
X14826210Y-86907381D01*
X14826210Y-86907381D02*
X15207162Y-86907381D01*
X15207162Y-86907381D02*
X15302400Y-86859762D01*
X15302400Y-86859762D02*
X15350020Y-86812143D01*
X15350020Y-86812143D02*
X15397639Y-86716905D01*
X15397639Y-86716905D02*
X15397639Y-86526429D01*
X15397639Y-86526429D02*
X15350020Y-86431191D01*
X15350020Y-86431191D02*
X15302400Y-86383572D01*
X15302400Y-86383572D02*
X15207162Y-86335953D01*
X15207162Y-86335953D02*
X14969067Y-86335953D01*
X14969067Y-86335953D02*
X14873829Y-86383572D01*
X14873829Y-86383572D02*
X14826210Y-86431191D01*
X14826210Y-86431191D02*
X14778591Y-86526429D01*
X14778591Y-86526429D02*
X14778591Y-86716905D01*
X14778591Y-86716905D02*
X14826210Y-86812143D01*
X14826210Y-86812143D02*
X14873829Y-86859762D01*
X14873829Y-86859762D02*
X14969067Y-86907381D01*
X27453239Y-15661213D02*
X28167524Y-15661213D01*
X28167524Y-15661213D02*
X28310381Y-15708832D01*
X28310381Y-15708832D02*
X28405620Y-15804070D01*
X28405620Y-15804070D02*
X28453239Y-15946927D01*
X28453239Y-15946927D02*
X28453239Y-16042165D01*
X27453239Y-15280260D02*
X27453239Y-14613594D01*
X27453239Y-14613594D02*
X28453239Y-15042165D01*
X27666666Y-65124819D02*
X27666666Y-65839104D01*
X27666666Y-65839104D02*
X27619047Y-65981961D01*
X27619047Y-65981961D02*
X27523809Y-66077200D01*
X27523809Y-66077200D02*
X27380952Y-66124819D01*
X27380952Y-66124819D02*
X27285714Y-66124819D01*
X28285714Y-65553390D02*
X28190476Y-65505771D01*
X28190476Y-65505771D02*
X28142857Y-65458152D01*
X28142857Y-65458152D02*
X28095238Y-65362914D01*
X28095238Y-65362914D02*
X28095238Y-65315295D01*
X28095238Y-65315295D02*
X28142857Y-65220057D01*
X28142857Y-65220057D02*
X28190476Y-65172438D01*
X28190476Y-65172438D02*
X28285714Y-65124819D01*
X28285714Y-65124819D02*
X28476190Y-65124819D01*
X28476190Y-65124819D02*
X28571428Y-65172438D01*
X28571428Y-65172438D02*
X28619047Y-65220057D01*
X28619047Y-65220057D02*
X28666666Y-65315295D01*
X28666666Y-65315295D02*
X28666666Y-65362914D01*
X28666666Y-65362914D02*
X28619047Y-65458152D01*
X28619047Y-65458152D02*
X28571428Y-65505771D01*
X28571428Y-65505771D02*
X28476190Y-65553390D01*
X28476190Y-65553390D02*
X28285714Y-65553390D01*
X28285714Y-65553390D02*
X28190476Y-65601009D01*
X28190476Y-65601009D02*
X28142857Y-65648628D01*
X28142857Y-65648628D02*
X28095238Y-65743866D01*
X28095238Y-65743866D02*
X28095238Y-65934342D01*
X28095238Y-65934342D02*
X28142857Y-66029580D01*
X28142857Y-66029580D02*
X28190476Y-66077200D01*
X28190476Y-66077200D02*
X28285714Y-66124819D01*
X28285714Y-66124819D02*
X28476190Y-66124819D01*
X28476190Y-66124819D02*
X28571428Y-66077200D01*
X28571428Y-66077200D02*
X28619047Y-66029580D01*
X28619047Y-66029580D02*
X28666666Y-65934342D01*
X28666666Y-65934342D02*
X28666666Y-65743866D01*
X28666666Y-65743866D02*
X28619047Y-65648628D01*
X28619047Y-65648628D02*
X28571428Y-65601009D01*
X28571428Y-65601009D02*
X28476190Y-65553390D01*
X67454819Y-15573333D02*
X68169104Y-15573333D01*
X68169104Y-15573333D02*
X68311961Y-15620952D01*
X68311961Y-15620952D02*
X68407200Y-15716190D01*
X68407200Y-15716190D02*
X68454819Y-15859047D01*
X68454819Y-15859047D02*
X68454819Y-15954285D01*
X68454819Y-15049523D02*
X68454819Y-14859047D01*
X68454819Y-14859047D02*
X68407200Y-14763809D01*
X68407200Y-14763809D02*
X68359580Y-14716190D01*
X68359580Y-14716190D02*
X68216723Y-14620952D01*
X68216723Y-14620952D02*
X68026247Y-14573333D01*
X68026247Y-14573333D02*
X67645295Y-14573333D01*
X67645295Y-14573333D02*
X67550057Y-14620952D01*
X67550057Y-14620952D02*
X67502438Y-14668571D01*
X67502438Y-14668571D02*
X67454819Y-14763809D01*
X67454819Y-14763809D02*
X67454819Y-14954285D01*
X67454819Y-14954285D02*
X67502438Y-15049523D01*
X67502438Y-15049523D02*
X67550057Y-15097142D01*
X67550057Y-15097142D02*
X67645295Y-15144761D01*
X67645295Y-15144761D02*
X67883390Y-15144761D01*
X67883390Y-15144761D02*
X67978628Y-15097142D01*
X67978628Y-15097142D02*
X68026247Y-15049523D01*
X68026247Y-15049523D02*
X68073866Y-14954285D01*
X68073866Y-14954285D02*
X68073866Y-14763809D01*
X68073866Y-14763809D02*
X68026247Y-14668571D01*
X68026247Y-14668571D02*
X67978628Y-14620952D01*
X67978628Y-14620952D02*
X67883390Y-14573333D01*
X67526819Y-65579523D02*
X68241104Y-65579523D01*
X68241104Y-65579523D02*
X68383961Y-65627142D01*
X68383961Y-65627142D02*
X68479200Y-65722380D01*
X68479200Y-65722380D02*
X68526819Y-65865237D01*
X68526819Y-65865237D02*
X68526819Y-65960475D01*
X68526819Y-64579523D02*
X68526819Y-65150951D01*
X68526819Y-64865237D02*
X67526819Y-64865237D01*
X67526819Y-64865237D02*
X67669676Y-64960475D01*
X67669676Y-64960475D02*
X67764914Y-65055713D01*
X67764914Y-65055713D02*
X67812533Y-65150951D01*
X67526819Y-63960475D02*
X67526819Y-63865237D01*
X67526819Y-63865237D02*
X67574438Y-63769999D01*
X67574438Y-63769999D02*
X67622057Y-63722380D01*
X67622057Y-63722380D02*
X67717295Y-63674761D01*
X67717295Y-63674761D02*
X67907771Y-63627142D01*
X67907771Y-63627142D02*
X68145866Y-63627142D01*
X68145866Y-63627142D02*
X68336342Y-63674761D01*
X68336342Y-63674761D02*
X68431580Y-63722380D01*
X68431580Y-63722380D02*
X68479200Y-63769999D01*
X68479200Y-63769999D02*
X68526819Y-63865237D01*
X68526819Y-63865237D02*
X68526819Y-63960475D01*
X68526819Y-63960475D02*
X68479200Y-64055713D01*
X68479200Y-64055713D02*
X68431580Y-64103332D01*
X68431580Y-64103332D02*
X68336342Y-64150951D01*
X68336342Y-64150951D02*
X68145866Y-64198570D01*
X68145866Y-64198570D02*
X67907771Y-64198570D01*
X67907771Y-64198570D02*
X67717295Y-64150951D01*
X67717295Y-64150951D02*
X67622057Y-64103332D01*
X67622057Y-64103332D02*
X67574438Y-64055713D01*
X67574438Y-64055713D02*
X67526819Y-63960475D01*
X61744819Y-41501523D02*
X62459104Y-41501523D01*
X62459104Y-41501523D02*
X62601961Y-41549142D01*
X62601961Y-41549142D02*
X62697200Y-41644380D01*
X62697200Y-41644380D02*
X62744819Y-41787237D01*
X62744819Y-41787237D02*
X62744819Y-41882475D01*
X62744819Y-40501523D02*
X62744819Y-41072951D01*
X62744819Y-40787237D02*
X61744819Y-40787237D01*
X61744819Y-40787237D02*
X61887676Y-40882475D01*
X61887676Y-40882475D02*
X61982914Y-40977713D01*
X61982914Y-40977713D02*
X62030533Y-41072951D01*
X62744819Y-39549142D02*
X62744819Y-40120570D01*
X62744819Y-39834856D02*
X61744819Y-39834856D01*
X61744819Y-39834856D02*
X61887676Y-39930094D01*
X61887676Y-39930094D02*
X61982914Y-40025332D01*
X61982914Y-40025332D02*
X62030533Y-40120570D01*
X31458819Y-41703523D02*
X32173104Y-41703523D01*
X32173104Y-41703523D02*
X32315961Y-41751142D01*
X32315961Y-41751142D02*
X32411200Y-41846380D01*
X32411200Y-41846380D02*
X32458819Y-41989237D01*
X32458819Y-41989237D02*
X32458819Y-42084475D01*
X32458819Y-40703523D02*
X32458819Y-41274951D01*
X32458819Y-40989237D02*
X31458819Y-40989237D01*
X31458819Y-40989237D02*
X31601676Y-41084475D01*
X31601676Y-41084475D02*
X31696914Y-41179713D01*
X31696914Y-41179713D02*
X31744533Y-41274951D01*
X31554057Y-40322570D02*
X31506438Y-40274951D01*
X31506438Y-40274951D02*
X31458819Y-40179713D01*
X31458819Y-40179713D02*
X31458819Y-39941618D01*
X31458819Y-39941618D02*
X31506438Y-39846380D01*
X31506438Y-39846380D02*
X31554057Y-39798761D01*
X31554057Y-39798761D02*
X31649295Y-39751142D01*
X31649295Y-39751142D02*
X31744533Y-39751142D01*
X31744533Y-39751142D02*
X31887390Y-39798761D01*
X31887390Y-39798761D02*
X32458819Y-40370189D01*
X32458819Y-40370189D02*
X32458819Y-39751142D01*
X70574819Y-41703523D02*
X71289104Y-41703523D01*
X71289104Y-41703523D02*
X71431961Y-41751142D01*
X71431961Y-41751142D02*
X71527200Y-41846380D01*
X71527200Y-41846380D02*
X71574819Y-41989237D01*
X71574819Y-41989237D02*
X71574819Y-42084475D01*
X71574819Y-40703523D02*
X71574819Y-41274951D01*
X71574819Y-40989237D02*
X70574819Y-40989237D01*
X70574819Y-40989237D02*
X70717676Y-41084475D01*
X70717676Y-41084475D02*
X70812914Y-41179713D01*
X70812914Y-41179713D02*
X70860533Y-41274951D01*
X70574819Y-40370189D02*
X70574819Y-39751142D01*
X70574819Y-39751142D02*
X70955771Y-40084475D01*
X70955771Y-40084475D02*
X70955771Y-39941618D01*
X70955771Y-39941618D02*
X71003390Y-39846380D01*
X71003390Y-39846380D02*
X71051009Y-39798761D01*
X71051009Y-39798761D02*
X71146247Y-39751142D01*
X71146247Y-39751142D02*
X71384342Y-39751142D01*
X71384342Y-39751142D02*
X71479580Y-39798761D01*
X71479580Y-39798761D02*
X71527200Y-39846380D01*
X71527200Y-39846380D02*
X71574819Y-39941618D01*
X71574819Y-39941618D02*
X71574819Y-40227332D01*
X71574819Y-40227332D02*
X71527200Y-40322570D01*
X71527200Y-40322570D02*
X71479580Y-40370189D01*
X84544819Y-7921523D02*
X85259104Y-7921523D01*
X85259104Y-7921523D02*
X85401961Y-7969142D01*
X85401961Y-7969142D02*
X85497200Y-8064380D01*
X85497200Y-8064380D02*
X85544819Y-8207237D01*
X85544819Y-8207237D02*
X85544819Y-8302475D01*
X85544819Y-6921523D02*
X85544819Y-7492951D01*
X85544819Y-7207237D02*
X84544819Y-7207237D01*
X84544819Y-7207237D02*
X84687676Y-7302475D01*
X84687676Y-7302475D02*
X84782914Y-7397713D01*
X84782914Y-7397713D02*
X84830533Y-7492951D01*
X84878152Y-6064380D02*
X85544819Y-6064380D01*
X84497200Y-6302475D02*
X85211485Y-6540570D01*
X85211485Y-6540570D02*
X85211485Y-5921523D01*
X84544819Y-23669523D02*
X85259104Y-23669523D01*
X85259104Y-23669523D02*
X85401961Y-23717142D01*
X85401961Y-23717142D02*
X85497200Y-23812380D01*
X85497200Y-23812380D02*
X85544819Y-23955237D01*
X85544819Y-23955237D02*
X85544819Y-24050475D01*
X85544819Y-22669523D02*
X85544819Y-23240951D01*
X85544819Y-22955237D02*
X84544819Y-22955237D01*
X84544819Y-22955237D02*
X84687676Y-23050475D01*
X84687676Y-23050475D02*
X84782914Y-23145713D01*
X84782914Y-23145713D02*
X84830533Y-23240951D01*
X84544819Y-21764761D02*
X84544819Y-22240951D01*
X84544819Y-22240951D02*
X85021009Y-22288570D01*
X85021009Y-22288570D02*
X84973390Y-22240951D01*
X84973390Y-22240951D02*
X84925771Y-22145713D01*
X84925771Y-22145713D02*
X84925771Y-21907618D01*
X84925771Y-21907618D02*
X84973390Y-21812380D01*
X84973390Y-21812380D02*
X85021009Y-21764761D01*
X85021009Y-21764761D02*
X85116247Y-21717142D01*
X85116247Y-21717142D02*
X85354342Y-21717142D01*
X85354342Y-21717142D02*
X85449580Y-21764761D01*
X85449580Y-21764761D02*
X85497200Y-21812380D01*
X85497200Y-21812380D02*
X85544819Y-21907618D01*
X85544819Y-21907618D02*
X85544819Y-22145713D01*
X85544819Y-22145713D02*
X85497200Y-22240951D01*
X85497200Y-22240951D02*
X85449580Y-22288570D01*
X84544819Y-39925523D02*
X85259104Y-39925523D01*
X85259104Y-39925523D02*
X85401961Y-39973142D01*
X85401961Y-39973142D02*
X85497200Y-40068380D01*
X85497200Y-40068380D02*
X85544819Y-40211237D01*
X85544819Y-40211237D02*
X85544819Y-40306475D01*
X85544819Y-38925523D02*
X85544819Y-39496951D01*
X85544819Y-39211237D02*
X84544819Y-39211237D01*
X84544819Y-39211237D02*
X84687676Y-39306475D01*
X84687676Y-39306475D02*
X84782914Y-39401713D01*
X84782914Y-39401713D02*
X84830533Y-39496951D01*
X84544819Y-38068380D02*
X84544819Y-38258856D01*
X84544819Y-38258856D02*
X84592438Y-38354094D01*
X84592438Y-38354094D02*
X84640057Y-38401713D01*
X84640057Y-38401713D02*
X84782914Y-38496951D01*
X84782914Y-38496951D02*
X84973390Y-38544570D01*
X84973390Y-38544570D02*
X85354342Y-38544570D01*
X85354342Y-38544570D02*
X85449580Y-38496951D01*
X85449580Y-38496951D02*
X85497200Y-38449332D01*
X85497200Y-38449332D02*
X85544819Y-38354094D01*
X85544819Y-38354094D02*
X85544819Y-38163618D01*
X85544819Y-38163618D02*
X85497200Y-38068380D01*
X85497200Y-38068380D02*
X85449580Y-38020761D01*
X85449580Y-38020761D02*
X85354342Y-37973142D01*
X85354342Y-37973142D02*
X85116247Y-37973142D01*
X85116247Y-37973142D02*
X85021009Y-38020761D01*
X85021009Y-38020761D02*
X84973390Y-38068380D01*
X84973390Y-38068380D02*
X84925771Y-38163618D01*
X84925771Y-38163618D02*
X84925771Y-38354094D01*
X84925771Y-38354094D02*
X84973390Y-38449332D01*
X84973390Y-38449332D02*
X85021009Y-38496951D01*
X85021009Y-38496951D02*
X85116247Y-38544570D01*
X84544819Y-55927523D02*
X85259104Y-55927523D01*
X85259104Y-55927523D02*
X85401961Y-55975142D01*
X85401961Y-55975142D02*
X85497200Y-56070380D01*
X85497200Y-56070380D02*
X85544819Y-56213237D01*
X85544819Y-56213237D02*
X85544819Y-56308475D01*
X85544819Y-54927523D02*
X85544819Y-55498951D01*
X85544819Y-55213237D02*
X84544819Y-55213237D01*
X84544819Y-55213237D02*
X84687676Y-55308475D01*
X84687676Y-55308475D02*
X84782914Y-55403713D01*
X84782914Y-55403713D02*
X84830533Y-55498951D01*
X84544819Y-54594189D02*
X84544819Y-53927523D01*
X84544819Y-53927523D02*
X85544819Y-54356094D01*
X84544819Y-71929523D02*
X85259104Y-71929523D01*
X85259104Y-71929523D02*
X85401961Y-71977142D01*
X85401961Y-71977142D02*
X85497200Y-72072380D01*
X85497200Y-72072380D02*
X85544819Y-72215237D01*
X85544819Y-72215237D02*
X85544819Y-72310475D01*
X85544819Y-70929523D02*
X85544819Y-71500951D01*
X85544819Y-71215237D02*
X84544819Y-71215237D01*
X84544819Y-71215237D02*
X84687676Y-71310475D01*
X84687676Y-71310475D02*
X84782914Y-71405713D01*
X84782914Y-71405713D02*
X84830533Y-71500951D01*
X84973390Y-70358094D02*
X84925771Y-70453332D01*
X84925771Y-70453332D02*
X84878152Y-70500951D01*
X84878152Y-70500951D02*
X84782914Y-70548570D01*
X84782914Y-70548570D02*
X84735295Y-70548570D01*
X84735295Y-70548570D02*
X84640057Y-70500951D01*
X84640057Y-70500951D02*
X84592438Y-70453332D01*
X84592438Y-70453332D02*
X84544819Y-70358094D01*
X84544819Y-70358094D02*
X84544819Y-70167618D01*
X84544819Y-70167618D02*
X84592438Y-70072380D01*
X84592438Y-70072380D02*
X84640057Y-70024761D01*
X84640057Y-70024761D02*
X84735295Y-69977142D01*
X84735295Y-69977142D02*
X84782914Y-69977142D01*
X84782914Y-69977142D02*
X84878152Y-70024761D01*
X84878152Y-70024761D02*
X84925771Y-70072380D01*
X84925771Y-70072380D02*
X84973390Y-70167618D01*
X84973390Y-70167618D02*
X84973390Y-70358094D01*
X84973390Y-70358094D02*
X85021009Y-70453332D01*
X85021009Y-70453332D02*
X85068628Y-70500951D01*
X85068628Y-70500951D02*
X85163866Y-70548570D01*
X85163866Y-70548570D02*
X85354342Y-70548570D01*
X85354342Y-70548570D02*
X85449580Y-70500951D01*
X85449580Y-70500951D02*
X85497200Y-70453332D01*
X85497200Y-70453332D02*
X85544819Y-70358094D01*
X85544819Y-70358094D02*
X85544819Y-70167618D01*
X85544819Y-70167618D02*
X85497200Y-70072380D01*
X85497200Y-70072380D02*
X85449580Y-70024761D01*
X85449580Y-70024761D02*
X85354342Y-69977142D01*
X85354342Y-69977142D02*
X85163866Y-69977142D01*
X85163866Y-69977142D02*
X85068628Y-70024761D01*
X85068628Y-70024761D02*
X85021009Y-70072380D01*
X85021009Y-70072380D02*
X84973390Y-70167618D01*
X84544819Y-87931523D02*
X85259104Y-87931523D01*
X85259104Y-87931523D02*
X85401961Y-87979142D01*
X85401961Y-87979142D02*
X85497200Y-88074380D01*
X85497200Y-88074380D02*
X85544819Y-88217237D01*
X85544819Y-88217237D02*
X85544819Y-88312475D01*
X85544819Y-86931523D02*
X85544819Y-87502951D01*
X85544819Y-87217237D02*
X84544819Y-87217237D01*
X84544819Y-87217237D02*
X84687676Y-87312475D01*
X84687676Y-87312475D02*
X84782914Y-87407713D01*
X84782914Y-87407713D02*
X84830533Y-87502951D01*
X85544819Y-86455332D02*
X85544819Y-86264856D01*
X85544819Y-86264856D02*
X85497200Y-86169618D01*
X85497200Y-86169618D02*
X85449580Y-86121999D01*
X85449580Y-86121999D02*
X85306723Y-86026761D01*
X85306723Y-86026761D02*
X85116247Y-85979142D01*
X85116247Y-85979142D02*
X84735295Y-85979142D01*
X84735295Y-85979142D02*
X84640057Y-86026761D01*
X84640057Y-86026761D02*
X84592438Y-86074380D01*
X84592438Y-86074380D02*
X84544819Y-86169618D01*
X84544819Y-86169618D02*
X84544819Y-86360094D01*
X84544819Y-86360094D02*
X84592438Y-86455332D01*
X84592438Y-86455332D02*
X84640057Y-86502951D01*
X84640057Y-86502951D02*
X84735295Y-86550570D01*
X84735295Y-86550570D02*
X84973390Y-86550570D01*
X84973390Y-86550570D02*
X85068628Y-86502951D01*
X85068628Y-86502951D02*
X85116247Y-86455332D01*
X85116247Y-86455332D02*
X85163866Y-86360094D01*
X85163866Y-86360094D02*
X85163866Y-86169618D01*
X85163866Y-86169618D02*
X85116247Y-86074380D01*
X85116247Y-86074380D02*
X85068628Y-86026761D01*
X85068628Y-86026761D02*
X84973390Y-85979142D01*
X14522099Y-23317793D02*
X15236384Y-23317793D01*
X15236384Y-23317793D02*
X15379241Y-23365412D01*
X15379241Y-23365412D02*
X15474480Y-23460650D01*
X15474480Y-23460650D02*
X15522099Y-23603507D01*
X15522099Y-23603507D02*
X15522099Y-23698745D01*
X14617337Y-22889221D02*
X14569718Y-22841602D01*
X14569718Y-22841602D02*
X14522099Y-22746364D01*
X14522099Y-22746364D02*
X14522099Y-22508269D01*
X14522099Y-22508269D02*
X14569718Y-22413031D01*
X14569718Y-22413031D02*
X14617337Y-22365412D01*
X14617337Y-22365412D02*
X14712575Y-22317793D01*
X14712575Y-22317793D02*
X14807813Y-22317793D01*
X14807813Y-22317793D02*
X14950670Y-22365412D01*
X14950670Y-22365412D02*
X15522099Y-22936840D01*
X15522099Y-22936840D02*
X15522099Y-22317793D01*
X49833333Y-42609580D02*
X49785714Y-42657200D01*
X49785714Y-42657200D02*
X49642857Y-42704819D01*
X49642857Y-42704819D02*
X49547619Y-42704819D01*
X49547619Y-42704819D02*
X49404762Y-42657200D01*
X49404762Y-42657200D02*
X49309524Y-42561961D01*
X49309524Y-42561961D02*
X49261905Y-42466723D01*
X49261905Y-42466723D02*
X49214286Y-42276247D01*
X49214286Y-42276247D02*
X49214286Y-42133390D01*
X49214286Y-42133390D02*
X49261905Y-41942914D01*
X49261905Y-41942914D02*
X49309524Y-41847676D01*
X49309524Y-41847676D02*
X49404762Y-41752438D01*
X49404762Y-41752438D02*
X49547619Y-41704819D01*
X49547619Y-41704819D02*
X49642857Y-41704819D01*
X49642857Y-41704819D02*
X49785714Y-41752438D01*
X49785714Y-41752438D02*
X49833333Y-41800057D01*
X50785714Y-42704819D02*
X50214286Y-42704819D01*
X50500000Y-42704819D02*
X50500000Y-41704819D01*
X50500000Y-41704819D02*
X50404762Y-41847676D01*
X50404762Y-41847676D02*
X50309524Y-41942914D01*
X50309524Y-41942914D02*
X50214286Y-41990533D01*
X39833333Y-22609580D02*
X39785714Y-22657200D01*
X39785714Y-22657200D02*
X39642857Y-22704819D01*
X39642857Y-22704819D02*
X39547619Y-22704819D01*
X39547619Y-22704819D02*
X39404762Y-22657200D01*
X39404762Y-22657200D02*
X39309524Y-22561961D01*
X39309524Y-22561961D02*
X39261905Y-22466723D01*
X39261905Y-22466723D02*
X39214286Y-22276247D01*
X39214286Y-22276247D02*
X39214286Y-22133390D01*
X39214286Y-22133390D02*
X39261905Y-21942914D01*
X39261905Y-21942914D02*
X39309524Y-21847676D01*
X39309524Y-21847676D02*
X39404762Y-21752438D01*
X39404762Y-21752438D02*
X39547619Y-21704819D01*
X39547619Y-21704819D02*
X39642857Y-21704819D01*
X39642857Y-21704819D02*
X39785714Y-21752438D01*
X39785714Y-21752438D02*
X39833333Y-21800057D01*
X40214286Y-21800057D02*
X40261905Y-21752438D01*
X40261905Y-21752438D02*
X40357143Y-21704819D01*
X40357143Y-21704819D02*
X40595238Y-21704819D01*
X40595238Y-21704819D02*
X40690476Y-21752438D01*
X40690476Y-21752438D02*
X40738095Y-21800057D01*
X40738095Y-21800057D02*
X40785714Y-21895295D01*
X40785714Y-21895295D02*
X40785714Y-21990533D01*
X40785714Y-21990533D02*
X40738095Y-22133390D01*
X40738095Y-22133390D02*
X40166667Y-22704819D01*
X40166667Y-22704819D02*
X40785714Y-22704819D01*
X59833333Y-22609580D02*
X59785714Y-22657200D01*
X59785714Y-22657200D02*
X59642857Y-22704819D01*
X59642857Y-22704819D02*
X59547619Y-22704819D01*
X59547619Y-22704819D02*
X59404762Y-22657200D01*
X59404762Y-22657200D02*
X59309524Y-22561961D01*
X59309524Y-22561961D02*
X59261905Y-22466723D01*
X59261905Y-22466723D02*
X59214286Y-22276247D01*
X59214286Y-22276247D02*
X59214286Y-22133390D01*
X59214286Y-22133390D02*
X59261905Y-21942914D01*
X59261905Y-21942914D02*
X59309524Y-21847676D01*
X59309524Y-21847676D02*
X59404762Y-21752438D01*
X59404762Y-21752438D02*
X59547619Y-21704819D01*
X59547619Y-21704819D02*
X59642857Y-21704819D01*
X59642857Y-21704819D02*
X59785714Y-21752438D01*
X59785714Y-21752438D02*
X59833333Y-21800057D01*
X60166667Y-21704819D02*
X60785714Y-21704819D01*
X60785714Y-21704819D02*
X60452381Y-22085771D01*
X60452381Y-22085771D02*
X60595238Y-22085771D01*
X60595238Y-22085771D02*
X60690476Y-22133390D01*
X60690476Y-22133390D02*
X60738095Y-22181009D01*
X60738095Y-22181009D02*
X60785714Y-22276247D01*
X60785714Y-22276247D02*
X60785714Y-22514342D01*
X60785714Y-22514342D02*
X60738095Y-22609580D01*
X60738095Y-22609580D02*
X60690476Y-22657200D01*
X60690476Y-22657200D02*
X60595238Y-22704819D01*
X60595238Y-22704819D02*
X60309524Y-22704819D01*
X60309524Y-22704819D02*
X60214286Y-22657200D01*
X60214286Y-22657200D02*
X60166667Y-22609580D01*
X39833333Y-82609580D02*
X39785714Y-82657200D01*
X39785714Y-82657200D02*
X39642857Y-82704819D01*
X39642857Y-82704819D02*
X39547619Y-82704819D01*
X39547619Y-82704819D02*
X39404762Y-82657200D01*
X39404762Y-82657200D02*
X39309524Y-82561961D01*
X39309524Y-82561961D02*
X39261905Y-82466723D01*
X39261905Y-82466723D02*
X39214286Y-82276247D01*
X39214286Y-82276247D02*
X39214286Y-82133390D01*
X39214286Y-82133390D02*
X39261905Y-81942914D01*
X39261905Y-81942914D02*
X39309524Y-81847676D01*
X39309524Y-81847676D02*
X39404762Y-81752438D01*
X39404762Y-81752438D02*
X39547619Y-81704819D01*
X39547619Y-81704819D02*
X39642857Y-81704819D01*
X39642857Y-81704819D02*
X39785714Y-81752438D01*
X39785714Y-81752438D02*
X39833333Y-81800057D01*
X40690476Y-82038152D02*
X40690476Y-82704819D01*
X40452381Y-81657200D02*
X40214286Y-82371485D01*
X40214286Y-82371485D02*
X40833333Y-82371485D01*
X59833333Y-82609580D02*
X59785714Y-82657200D01*
X59785714Y-82657200D02*
X59642857Y-82704819D01*
X59642857Y-82704819D02*
X59547619Y-82704819D01*
X59547619Y-82704819D02*
X59404762Y-82657200D01*
X59404762Y-82657200D02*
X59309524Y-82561961D01*
X59309524Y-82561961D02*
X59261905Y-82466723D01*
X59261905Y-82466723D02*
X59214286Y-82276247D01*
X59214286Y-82276247D02*
X59214286Y-82133390D01*
X59214286Y-82133390D02*
X59261905Y-81942914D01*
X59261905Y-81942914D02*
X59309524Y-81847676D01*
X59309524Y-81847676D02*
X59404762Y-81752438D01*
X59404762Y-81752438D02*
X59547619Y-81704819D01*
X59547619Y-81704819D02*
X59642857Y-81704819D01*
X59642857Y-81704819D02*
X59785714Y-81752438D01*
X59785714Y-81752438D02*
X59833333Y-81800057D01*
X60738095Y-81704819D02*
X60261905Y-81704819D01*
X60261905Y-81704819D02*
X60214286Y-82181009D01*
X60214286Y-82181009D02*
X60261905Y-82133390D01*
X60261905Y-82133390D02*
X60357143Y-82085771D01*
X60357143Y-82085771D02*
X60595238Y-82085771D01*
X60595238Y-82085771D02*
X60690476Y-82133390D01*
X60690476Y-82133390D02*
X60738095Y-82181009D01*
X60738095Y-82181009D02*
X60785714Y-82276247D01*
X60785714Y-82276247D02*
X60785714Y-82514342D01*
X60785714Y-82514342D02*
X60738095Y-82609580D01*
X60738095Y-82609580D02*
X60690476Y-82657200D01*
X60690476Y-82657200D02*
X60595238Y-82704819D01*
X60595238Y-82704819D02*
X60357143Y-82704819D01*
X60357143Y-82704819D02*
X60261905Y-82657200D01*
X60261905Y-82657200D02*
X60214286Y-82609580D01*
X39261905Y-10704819D02*
X39261905Y-9704819D01*
X39261905Y-9704819D02*
X39500000Y-9704819D01*
X39500000Y-9704819D02*
X39642857Y-9752438D01*
X39642857Y-9752438D02*
X39738095Y-9847676D01*
X39738095Y-9847676D02*
X39785714Y-9942914D01*
X39785714Y-9942914D02*
X39833333Y-10133390D01*
X39833333Y-10133390D02*
X39833333Y-10276247D01*
X39833333Y-10276247D02*
X39785714Y-10466723D01*
X39785714Y-10466723D02*
X39738095Y-10561961D01*
X39738095Y-10561961D02*
X39642857Y-10657200D01*
X39642857Y-10657200D02*
X39500000Y-10704819D01*
X39500000Y-10704819D02*
X39261905Y-10704819D01*
X40166667Y-9704819D02*
X40833333Y-9704819D01*
X40833333Y-9704819D02*
X40404762Y-10704819D01*
X39261905Y-26704819D02*
X39261905Y-25704819D01*
X39261905Y-25704819D02*
X39500000Y-25704819D01*
X39500000Y-25704819D02*
X39642857Y-25752438D01*
X39642857Y-25752438D02*
X39738095Y-25847676D01*
X39738095Y-25847676D02*
X39785714Y-25942914D01*
X39785714Y-25942914D02*
X39833333Y-26133390D01*
X39833333Y-26133390D02*
X39833333Y-26276247D01*
X39833333Y-26276247D02*
X39785714Y-26466723D01*
X39785714Y-26466723D02*
X39738095Y-26561961D01*
X39738095Y-26561961D02*
X39642857Y-26657200D01*
X39642857Y-26657200D02*
X39500000Y-26704819D01*
X39500000Y-26704819D02*
X39261905Y-26704819D01*
X40404762Y-26133390D02*
X40309524Y-26085771D01*
X40309524Y-26085771D02*
X40261905Y-26038152D01*
X40261905Y-26038152D02*
X40214286Y-25942914D01*
X40214286Y-25942914D02*
X40214286Y-25895295D01*
X40214286Y-25895295D02*
X40261905Y-25800057D01*
X40261905Y-25800057D02*
X40309524Y-25752438D01*
X40309524Y-25752438D02*
X40404762Y-25704819D01*
X40404762Y-25704819D02*
X40595238Y-25704819D01*
X40595238Y-25704819D02*
X40690476Y-25752438D01*
X40690476Y-25752438D02*
X40738095Y-25800057D01*
X40738095Y-25800057D02*
X40785714Y-25895295D01*
X40785714Y-25895295D02*
X40785714Y-25942914D01*
X40785714Y-25942914D02*
X40738095Y-26038152D01*
X40738095Y-26038152D02*
X40690476Y-26085771D01*
X40690476Y-26085771D02*
X40595238Y-26133390D01*
X40595238Y-26133390D02*
X40404762Y-26133390D01*
X40404762Y-26133390D02*
X40309524Y-26181009D01*
X40309524Y-26181009D02*
X40261905Y-26228628D01*
X40261905Y-26228628D02*
X40214286Y-26323866D01*
X40214286Y-26323866D02*
X40214286Y-26514342D01*
X40214286Y-26514342D02*
X40261905Y-26609580D01*
X40261905Y-26609580D02*
X40309524Y-26657200D01*
X40309524Y-26657200D02*
X40404762Y-26704819D01*
X40404762Y-26704819D02*
X40595238Y-26704819D01*
X40595238Y-26704819D02*
X40690476Y-26657200D01*
X40690476Y-26657200D02*
X40738095Y-26609580D01*
X40738095Y-26609580D02*
X40785714Y-26514342D01*
X40785714Y-26514342D02*
X40785714Y-26323866D01*
X40785714Y-26323866D02*
X40738095Y-26228628D01*
X40738095Y-26228628D02*
X40690476Y-26181009D01*
X40690476Y-26181009D02*
X40595238Y-26133390D01*
X59261905Y-30204819D02*
X59261905Y-29204819D01*
X59261905Y-29204819D02*
X59500000Y-29204819D01*
X59500000Y-29204819D02*
X59642857Y-29252438D01*
X59642857Y-29252438D02*
X59738095Y-29347676D01*
X59738095Y-29347676D02*
X59785714Y-29442914D01*
X59785714Y-29442914D02*
X59833333Y-29633390D01*
X59833333Y-29633390D02*
X59833333Y-29776247D01*
X59833333Y-29776247D02*
X59785714Y-29966723D01*
X59785714Y-29966723D02*
X59738095Y-30061961D01*
X59738095Y-30061961D02*
X59642857Y-30157200D01*
X59642857Y-30157200D02*
X59500000Y-30204819D01*
X59500000Y-30204819D02*
X59261905Y-30204819D01*
X60309524Y-30204819D02*
X60500000Y-30204819D01*
X60500000Y-30204819D02*
X60595238Y-30157200D01*
X60595238Y-30157200D02*
X60642857Y-30109580D01*
X60642857Y-30109580D02*
X60738095Y-29966723D01*
X60738095Y-29966723D02*
X60785714Y-29776247D01*
X60785714Y-29776247D02*
X60785714Y-29395295D01*
X60785714Y-29395295D02*
X60738095Y-29300057D01*
X60738095Y-29300057D02*
X60690476Y-29252438D01*
X60690476Y-29252438D02*
X60595238Y-29204819D01*
X60595238Y-29204819D02*
X60404762Y-29204819D01*
X60404762Y-29204819D02*
X60309524Y-29252438D01*
X60309524Y-29252438D02*
X60261905Y-29300057D01*
X60261905Y-29300057D02*
X60214286Y-29395295D01*
X60214286Y-29395295D02*
X60214286Y-29633390D01*
X60214286Y-29633390D02*
X60261905Y-29728628D01*
X60261905Y-29728628D02*
X60309524Y-29776247D01*
X60309524Y-29776247D02*
X60404762Y-29823866D01*
X60404762Y-29823866D02*
X60595238Y-29823866D01*
X60595238Y-29823866D02*
X60690476Y-29776247D01*
X60690476Y-29776247D02*
X60738095Y-29728628D01*
X60738095Y-29728628D02*
X60785714Y-29633390D01*
X38785714Y-70704819D02*
X38785714Y-69704819D01*
X38785714Y-69704819D02*
X39023809Y-69704819D01*
X39023809Y-69704819D02*
X39166666Y-69752438D01*
X39166666Y-69752438D02*
X39261904Y-69847676D01*
X39261904Y-69847676D02*
X39309523Y-69942914D01*
X39309523Y-69942914D02*
X39357142Y-70133390D01*
X39357142Y-70133390D02*
X39357142Y-70276247D01*
X39357142Y-70276247D02*
X39309523Y-70466723D01*
X39309523Y-70466723D02*
X39261904Y-70561961D01*
X39261904Y-70561961D02*
X39166666Y-70657200D01*
X39166666Y-70657200D02*
X39023809Y-70704819D01*
X39023809Y-70704819D02*
X38785714Y-70704819D01*
X40309523Y-70704819D02*
X39738095Y-70704819D01*
X40023809Y-70704819D02*
X40023809Y-69704819D01*
X40023809Y-69704819D02*
X39928571Y-69847676D01*
X39928571Y-69847676D02*
X39833333Y-69942914D01*
X39833333Y-69942914D02*
X39738095Y-69990533D01*
X40928571Y-69704819D02*
X41023809Y-69704819D01*
X41023809Y-69704819D02*
X41119047Y-69752438D01*
X41119047Y-69752438D02*
X41166666Y-69800057D01*
X41166666Y-69800057D02*
X41214285Y-69895295D01*
X41214285Y-69895295D02*
X41261904Y-70085771D01*
X41261904Y-70085771D02*
X41261904Y-70323866D01*
X41261904Y-70323866D02*
X41214285Y-70514342D01*
X41214285Y-70514342D02*
X41166666Y-70609580D01*
X41166666Y-70609580D02*
X41119047Y-70657200D01*
X41119047Y-70657200D02*
X41023809Y-70704819D01*
X41023809Y-70704819D02*
X40928571Y-70704819D01*
X40928571Y-70704819D02*
X40833333Y-70657200D01*
X40833333Y-70657200D02*
X40785714Y-70609580D01*
X40785714Y-70609580D02*
X40738095Y-70514342D01*
X40738095Y-70514342D02*
X40690476Y-70323866D01*
X40690476Y-70323866D02*
X40690476Y-70085771D01*
X40690476Y-70085771D02*
X40738095Y-69895295D01*
X40738095Y-69895295D02*
X40785714Y-69800057D01*
X40785714Y-69800057D02*
X40833333Y-69752438D01*
X40833333Y-69752438D02*
X40928571Y-69704819D01*
X38785714Y-86704819D02*
X38785714Y-85704819D01*
X38785714Y-85704819D02*
X39023809Y-85704819D01*
X39023809Y-85704819D02*
X39166666Y-85752438D01*
X39166666Y-85752438D02*
X39261904Y-85847676D01*
X39261904Y-85847676D02*
X39309523Y-85942914D01*
X39309523Y-85942914D02*
X39357142Y-86133390D01*
X39357142Y-86133390D02*
X39357142Y-86276247D01*
X39357142Y-86276247D02*
X39309523Y-86466723D01*
X39309523Y-86466723D02*
X39261904Y-86561961D01*
X39261904Y-86561961D02*
X39166666Y-86657200D01*
X39166666Y-86657200D02*
X39023809Y-86704819D01*
X39023809Y-86704819D02*
X38785714Y-86704819D01*
X40309523Y-86704819D02*
X39738095Y-86704819D01*
X40023809Y-86704819D02*
X40023809Y-85704819D01*
X40023809Y-85704819D02*
X39928571Y-85847676D01*
X39928571Y-85847676D02*
X39833333Y-85942914D01*
X39833333Y-85942914D02*
X39738095Y-85990533D01*
X41261904Y-86704819D02*
X40690476Y-86704819D01*
X40976190Y-86704819D02*
X40976190Y-85704819D01*
X40976190Y-85704819D02*
X40880952Y-85847676D01*
X40880952Y-85847676D02*
X40785714Y-85942914D01*
X40785714Y-85942914D02*
X40690476Y-85990533D01*
X58785714Y-90204819D02*
X58785714Y-89204819D01*
X58785714Y-89204819D02*
X59023809Y-89204819D01*
X59023809Y-89204819D02*
X59166666Y-89252438D01*
X59166666Y-89252438D02*
X59261904Y-89347676D01*
X59261904Y-89347676D02*
X59309523Y-89442914D01*
X59309523Y-89442914D02*
X59357142Y-89633390D01*
X59357142Y-89633390D02*
X59357142Y-89776247D01*
X59357142Y-89776247D02*
X59309523Y-89966723D01*
X59309523Y-89966723D02*
X59261904Y-90061961D01*
X59261904Y-90061961D02*
X59166666Y-90157200D01*
X59166666Y-90157200D02*
X59023809Y-90204819D01*
X59023809Y-90204819D02*
X58785714Y-90204819D01*
X60309523Y-90204819D02*
X59738095Y-90204819D01*
X60023809Y-90204819D02*
X60023809Y-89204819D01*
X60023809Y-89204819D02*
X59928571Y-89347676D01*
X59928571Y-89347676D02*
X59833333Y-89442914D01*
X59833333Y-89442914D02*
X59738095Y-89490533D01*
X60690476Y-89300057D02*
X60738095Y-89252438D01*
X60738095Y-89252438D02*
X60833333Y-89204819D01*
X60833333Y-89204819D02*
X61071428Y-89204819D01*
X61071428Y-89204819D02*
X61166666Y-89252438D01*
X61166666Y-89252438D02*
X61214285Y-89300057D01*
X61214285Y-89300057D02*
X61261904Y-89395295D01*
X61261904Y-89395295D02*
X61261904Y-89490533D01*
X61261904Y-89490533D02*
X61214285Y-89633390D01*
X61214285Y-89633390D02*
X60642857Y-90204819D01*
X60642857Y-90204819D02*
X61261904Y-90204819D01*
X77904761Y-18050057D02*
X77809523Y-18002438D01*
X77809523Y-18002438D02*
X77714285Y-17907200D01*
X77714285Y-17907200D02*
X77571428Y-17764342D01*
X77571428Y-17764342D02*
X77476190Y-17716723D01*
X77476190Y-17716723D02*
X77380952Y-17716723D01*
X77428571Y-17954819D02*
X77333333Y-17907200D01*
X77333333Y-17907200D02*
X77238095Y-17811961D01*
X77238095Y-17811961D02*
X77190476Y-17621485D01*
X77190476Y-17621485D02*
X77190476Y-17288152D01*
X77190476Y-17288152D02*
X77238095Y-17097676D01*
X77238095Y-17097676D02*
X77333333Y-17002438D01*
X77333333Y-17002438D02*
X77428571Y-16954819D01*
X77428571Y-16954819D02*
X77619047Y-16954819D01*
X77619047Y-16954819D02*
X77714285Y-17002438D01*
X77714285Y-17002438D02*
X77809523Y-17097676D01*
X77809523Y-17097676D02*
X77857142Y-17288152D01*
X77857142Y-17288152D02*
X77857142Y-17621485D01*
X77857142Y-17621485D02*
X77809523Y-17811961D01*
X77809523Y-17811961D02*
X77714285Y-17907200D01*
X77714285Y-17907200D02*
X77619047Y-17954819D01*
X77619047Y-17954819D02*
X77428571Y-17954819D01*
X78809523Y-17954819D02*
X78238095Y-17954819D01*
X78523809Y-17954819D02*
X78523809Y-16954819D01*
X78523809Y-16954819D02*
X78428571Y-17097676D01*
X78428571Y-17097676D02*
X78333333Y-17192914D01*
X78333333Y-17192914D02*
X78238095Y-17240533D01*
X77904761Y-34050057D02*
X77809523Y-34002438D01*
X77809523Y-34002438D02*
X77714285Y-33907200D01*
X77714285Y-33907200D02*
X77571428Y-33764342D01*
X77571428Y-33764342D02*
X77476190Y-33716723D01*
X77476190Y-33716723D02*
X77380952Y-33716723D01*
X77428571Y-33954819D02*
X77333333Y-33907200D01*
X77333333Y-33907200D02*
X77238095Y-33811961D01*
X77238095Y-33811961D02*
X77190476Y-33621485D01*
X77190476Y-33621485D02*
X77190476Y-33288152D01*
X77190476Y-33288152D02*
X77238095Y-33097676D01*
X77238095Y-33097676D02*
X77333333Y-33002438D01*
X77333333Y-33002438D02*
X77428571Y-32954819D01*
X77428571Y-32954819D02*
X77619047Y-32954819D01*
X77619047Y-32954819D02*
X77714285Y-33002438D01*
X77714285Y-33002438D02*
X77809523Y-33097676D01*
X77809523Y-33097676D02*
X77857142Y-33288152D01*
X77857142Y-33288152D02*
X77857142Y-33621485D01*
X77857142Y-33621485D02*
X77809523Y-33811961D01*
X77809523Y-33811961D02*
X77714285Y-33907200D01*
X77714285Y-33907200D02*
X77619047Y-33954819D01*
X77619047Y-33954819D02*
X77428571Y-33954819D01*
X78238095Y-33050057D02*
X78285714Y-33002438D01*
X78285714Y-33002438D02*
X78380952Y-32954819D01*
X78380952Y-32954819D02*
X78619047Y-32954819D01*
X78619047Y-32954819D02*
X78714285Y-33002438D01*
X78714285Y-33002438D02*
X78761904Y-33050057D01*
X78761904Y-33050057D02*
X78809523Y-33145295D01*
X78809523Y-33145295D02*
X78809523Y-33240533D01*
X78809523Y-33240533D02*
X78761904Y-33383390D01*
X78761904Y-33383390D02*
X78190476Y-33954819D01*
X78190476Y-33954819D02*
X78809523Y-33954819D01*
X77904761Y-50050057D02*
X77809523Y-50002438D01*
X77809523Y-50002438D02*
X77714285Y-49907200D01*
X77714285Y-49907200D02*
X77571428Y-49764342D01*
X77571428Y-49764342D02*
X77476190Y-49716723D01*
X77476190Y-49716723D02*
X77380952Y-49716723D01*
X77428571Y-49954819D02*
X77333333Y-49907200D01*
X77333333Y-49907200D02*
X77238095Y-49811961D01*
X77238095Y-49811961D02*
X77190476Y-49621485D01*
X77190476Y-49621485D02*
X77190476Y-49288152D01*
X77190476Y-49288152D02*
X77238095Y-49097676D01*
X77238095Y-49097676D02*
X77333333Y-49002438D01*
X77333333Y-49002438D02*
X77428571Y-48954819D01*
X77428571Y-48954819D02*
X77619047Y-48954819D01*
X77619047Y-48954819D02*
X77714285Y-49002438D01*
X77714285Y-49002438D02*
X77809523Y-49097676D01*
X77809523Y-49097676D02*
X77857142Y-49288152D01*
X77857142Y-49288152D02*
X77857142Y-49621485D01*
X77857142Y-49621485D02*
X77809523Y-49811961D01*
X77809523Y-49811961D02*
X77714285Y-49907200D01*
X77714285Y-49907200D02*
X77619047Y-49954819D01*
X77619047Y-49954819D02*
X77428571Y-49954819D01*
X78190476Y-48954819D02*
X78809523Y-48954819D01*
X78809523Y-48954819D02*
X78476190Y-49335771D01*
X78476190Y-49335771D02*
X78619047Y-49335771D01*
X78619047Y-49335771D02*
X78714285Y-49383390D01*
X78714285Y-49383390D02*
X78761904Y-49431009D01*
X78761904Y-49431009D02*
X78809523Y-49526247D01*
X78809523Y-49526247D02*
X78809523Y-49764342D01*
X78809523Y-49764342D02*
X78761904Y-49859580D01*
X78761904Y-49859580D02*
X78714285Y-49907200D01*
X78714285Y-49907200D02*
X78619047Y-49954819D01*
X78619047Y-49954819D02*
X78333333Y-49954819D01*
X78333333Y-49954819D02*
X78238095Y-49907200D01*
X78238095Y-49907200D02*
X78190476Y-49859580D01*
X77904761Y-66050057D02*
X77809523Y-66002438D01*
X77809523Y-66002438D02*
X77714285Y-65907200D01*
X77714285Y-65907200D02*
X77571428Y-65764342D01*
X77571428Y-65764342D02*
X77476190Y-65716723D01*
X77476190Y-65716723D02*
X77380952Y-65716723D01*
X77428571Y-65954819D02*
X77333333Y-65907200D01*
X77333333Y-65907200D02*
X77238095Y-65811961D01*
X77238095Y-65811961D02*
X77190476Y-65621485D01*
X77190476Y-65621485D02*
X77190476Y-65288152D01*
X77190476Y-65288152D02*
X77238095Y-65097676D01*
X77238095Y-65097676D02*
X77333333Y-65002438D01*
X77333333Y-65002438D02*
X77428571Y-64954819D01*
X77428571Y-64954819D02*
X77619047Y-64954819D01*
X77619047Y-64954819D02*
X77714285Y-65002438D01*
X77714285Y-65002438D02*
X77809523Y-65097676D01*
X77809523Y-65097676D02*
X77857142Y-65288152D01*
X77857142Y-65288152D02*
X77857142Y-65621485D01*
X77857142Y-65621485D02*
X77809523Y-65811961D01*
X77809523Y-65811961D02*
X77714285Y-65907200D01*
X77714285Y-65907200D02*
X77619047Y-65954819D01*
X77619047Y-65954819D02*
X77428571Y-65954819D01*
X78714285Y-65288152D02*
X78714285Y-65954819D01*
X78476190Y-64907200D02*
X78238095Y-65621485D01*
X78238095Y-65621485D02*
X78857142Y-65621485D01*
X77904761Y-82050057D02*
X77809523Y-82002438D01*
X77809523Y-82002438D02*
X77714285Y-81907200D01*
X77714285Y-81907200D02*
X77571428Y-81764342D01*
X77571428Y-81764342D02*
X77476190Y-81716723D01*
X77476190Y-81716723D02*
X77380952Y-81716723D01*
X77428571Y-81954819D02*
X77333333Y-81907200D01*
X77333333Y-81907200D02*
X77238095Y-81811961D01*
X77238095Y-81811961D02*
X77190476Y-81621485D01*
X77190476Y-81621485D02*
X77190476Y-81288152D01*
X77190476Y-81288152D02*
X77238095Y-81097676D01*
X77238095Y-81097676D02*
X77333333Y-81002438D01*
X77333333Y-81002438D02*
X77428571Y-80954819D01*
X77428571Y-80954819D02*
X77619047Y-80954819D01*
X77619047Y-80954819D02*
X77714285Y-81002438D01*
X77714285Y-81002438D02*
X77809523Y-81097676D01*
X77809523Y-81097676D02*
X77857142Y-81288152D01*
X77857142Y-81288152D02*
X77857142Y-81621485D01*
X77857142Y-81621485D02*
X77809523Y-81811961D01*
X77809523Y-81811961D02*
X77714285Y-81907200D01*
X77714285Y-81907200D02*
X77619047Y-81954819D01*
X77619047Y-81954819D02*
X77428571Y-81954819D01*
X78761904Y-80954819D02*
X78285714Y-80954819D01*
X78285714Y-80954819D02*
X78238095Y-81431009D01*
X78238095Y-81431009D02*
X78285714Y-81383390D01*
X78285714Y-81383390D02*
X78380952Y-81335771D01*
X78380952Y-81335771D02*
X78619047Y-81335771D01*
X78619047Y-81335771D02*
X78714285Y-81383390D01*
X78714285Y-81383390D02*
X78761904Y-81431009D01*
X78761904Y-81431009D02*
X78809523Y-81526247D01*
X78809523Y-81526247D02*
X78809523Y-81764342D01*
X78809523Y-81764342D02*
X78761904Y-81859580D01*
X78761904Y-81859580D02*
X78714285Y-81907200D01*
X78714285Y-81907200D02*
X78619047Y-81954819D01*
X78619047Y-81954819D02*
X78380952Y-81954819D01*
X78380952Y-81954819D02*
X78285714Y-81907200D01*
X78285714Y-81907200D02*
X78238095Y-81859580D01*
X77904761Y-98050057D02*
X77809523Y-98002438D01*
X77809523Y-98002438D02*
X77714285Y-97907200D01*
X77714285Y-97907200D02*
X77571428Y-97764342D01*
X77571428Y-97764342D02*
X77476190Y-97716723D01*
X77476190Y-97716723D02*
X77380952Y-97716723D01*
X77428571Y-97954819D02*
X77333333Y-97907200D01*
X77333333Y-97907200D02*
X77238095Y-97811961D01*
X77238095Y-97811961D02*
X77190476Y-97621485D01*
X77190476Y-97621485D02*
X77190476Y-97288152D01*
X77190476Y-97288152D02*
X77238095Y-97097676D01*
X77238095Y-97097676D02*
X77333333Y-97002438D01*
X77333333Y-97002438D02*
X77428571Y-96954819D01*
X77428571Y-96954819D02*
X77619047Y-96954819D01*
X77619047Y-96954819D02*
X77714285Y-97002438D01*
X77714285Y-97002438D02*
X77809523Y-97097676D01*
X77809523Y-97097676D02*
X77857142Y-97288152D01*
X77857142Y-97288152D02*
X77857142Y-97621485D01*
X77857142Y-97621485D02*
X77809523Y-97811961D01*
X77809523Y-97811961D02*
X77714285Y-97907200D01*
X77714285Y-97907200D02*
X77619047Y-97954819D01*
X77619047Y-97954819D02*
X77428571Y-97954819D01*
X78714285Y-96954819D02*
X78523809Y-96954819D01*
X78523809Y-96954819D02*
X78428571Y-97002438D01*
X78428571Y-97002438D02*
X78380952Y-97050057D01*
X78380952Y-97050057D02*
X78285714Y-97192914D01*
X78285714Y-97192914D02*
X78238095Y-97383390D01*
X78238095Y-97383390D02*
X78238095Y-97764342D01*
X78238095Y-97764342D02*
X78285714Y-97859580D01*
X78285714Y-97859580D02*
X78333333Y-97907200D01*
X78333333Y-97907200D02*
X78428571Y-97954819D01*
X78428571Y-97954819D02*
X78619047Y-97954819D01*
X78619047Y-97954819D02*
X78714285Y-97907200D01*
X78714285Y-97907200D02*
X78761904Y-97859580D01*
X78761904Y-97859580D02*
X78809523Y-97764342D01*
X78809523Y-97764342D02*
X78809523Y-97526247D01*
X78809523Y-97526247D02*
X78761904Y-97431009D01*
X78761904Y-97431009D02*
X78714285Y-97383390D01*
X78714285Y-97383390D02*
X78619047Y-97335771D01*
X78619047Y-97335771D02*
X78428571Y-97335771D01*
X78428571Y-97335771D02*
X78333333Y-97383390D01*
X78333333Y-97383390D02*
X78285714Y-97431009D01*
X78285714Y-97431009D02*
X78238095Y-97526247D01*
X19833333Y-8014819D02*
X19500000Y-7538628D01*
X19261905Y-8014819D02*
X19261905Y-7014819D01*
X19261905Y-7014819D02*
X19642857Y-7014819D01*
X19642857Y-7014819D02*
X19738095Y-7062438D01*
X19738095Y-7062438D02*
X19785714Y-7110057D01*
X19785714Y-7110057D02*
X19833333Y-7205295D01*
X19833333Y-7205295D02*
X19833333Y-7348152D01*
X19833333Y-7348152D02*
X19785714Y-7443390D01*
X19785714Y-7443390D02*
X19738095Y-7491009D01*
X19738095Y-7491009D02*
X19642857Y-7538628D01*
X19642857Y-7538628D02*
X19261905Y-7538628D01*
X20785714Y-8014819D02*
X20214286Y-8014819D01*
X20500000Y-8014819D02*
X20500000Y-7014819D01*
X20500000Y-7014819D02*
X20404762Y-7157676D01*
X20404762Y-7157676D02*
X20309524Y-7252914D01*
X20309524Y-7252914D02*
X20214286Y-7300533D01*
X19833333Y-13274819D02*
X19500000Y-12798628D01*
X19261905Y-13274819D02*
X19261905Y-12274819D01*
X19261905Y-12274819D02*
X19642857Y-12274819D01*
X19642857Y-12274819D02*
X19738095Y-12322438D01*
X19738095Y-12322438D02*
X19785714Y-12370057D01*
X19785714Y-12370057D02*
X19833333Y-12465295D01*
X19833333Y-12465295D02*
X19833333Y-12608152D01*
X19833333Y-12608152D02*
X19785714Y-12703390D01*
X19785714Y-12703390D02*
X19738095Y-12751009D01*
X19738095Y-12751009D02*
X19642857Y-12798628D01*
X19642857Y-12798628D02*
X19261905Y-12798628D01*
X20214286Y-12370057D02*
X20261905Y-12322438D01*
X20261905Y-12322438D02*
X20357143Y-12274819D01*
X20357143Y-12274819D02*
X20595238Y-12274819D01*
X20595238Y-12274819D02*
X20690476Y-12322438D01*
X20690476Y-12322438D02*
X20738095Y-12370057D01*
X20738095Y-12370057D02*
X20785714Y-12465295D01*
X20785714Y-12465295D02*
X20785714Y-12560533D01*
X20785714Y-12560533D02*
X20738095Y-12703390D01*
X20738095Y-12703390D02*
X20166667Y-13274819D01*
X20166667Y-13274819D02*
X20785714Y-13274819D01*
X19833333Y-18534819D02*
X19500000Y-18058628D01*
X19261905Y-18534819D02*
X19261905Y-17534819D01*
X19261905Y-17534819D02*
X19642857Y-17534819D01*
X19642857Y-17534819D02*
X19738095Y-17582438D01*
X19738095Y-17582438D02*
X19785714Y-17630057D01*
X19785714Y-17630057D02*
X19833333Y-17725295D01*
X19833333Y-17725295D02*
X19833333Y-17868152D01*
X19833333Y-17868152D02*
X19785714Y-17963390D01*
X19785714Y-17963390D02*
X19738095Y-18011009D01*
X19738095Y-18011009D02*
X19642857Y-18058628D01*
X19642857Y-18058628D02*
X19261905Y-18058628D01*
X20166667Y-17534819D02*
X20785714Y-17534819D01*
X20785714Y-17534819D02*
X20452381Y-17915771D01*
X20452381Y-17915771D02*
X20595238Y-17915771D01*
X20595238Y-17915771D02*
X20690476Y-17963390D01*
X20690476Y-17963390D02*
X20738095Y-18011009D01*
X20738095Y-18011009D02*
X20785714Y-18106247D01*
X20785714Y-18106247D02*
X20785714Y-18344342D01*
X20785714Y-18344342D02*
X20738095Y-18439580D01*
X20738095Y-18439580D02*
X20690476Y-18487200D01*
X20690476Y-18487200D02*
X20595238Y-18534819D01*
X20595238Y-18534819D02*
X20309524Y-18534819D01*
X20309524Y-18534819D02*
X20214286Y-18487200D01*
X20214286Y-18487200D02*
X20166667Y-18439580D01*
X19833333Y-23794819D02*
X19500000Y-23318628D01*
X19261905Y-23794819D02*
X19261905Y-22794819D01*
X19261905Y-22794819D02*
X19642857Y-22794819D01*
X19642857Y-22794819D02*
X19738095Y-22842438D01*
X19738095Y-22842438D02*
X19785714Y-22890057D01*
X19785714Y-22890057D02*
X19833333Y-22985295D01*
X19833333Y-22985295D02*
X19833333Y-23128152D01*
X19833333Y-23128152D02*
X19785714Y-23223390D01*
X19785714Y-23223390D02*
X19738095Y-23271009D01*
X19738095Y-23271009D02*
X19642857Y-23318628D01*
X19642857Y-23318628D02*
X19261905Y-23318628D01*
X20690476Y-23128152D02*
X20690476Y-23794819D01*
X20452381Y-22747200D02*
X20214286Y-23461485D01*
X20214286Y-23461485D02*
X20833333Y-23461485D01*
X19833333Y-29054819D02*
X19500000Y-28578628D01*
X19261905Y-29054819D02*
X19261905Y-28054819D01*
X19261905Y-28054819D02*
X19642857Y-28054819D01*
X19642857Y-28054819D02*
X19738095Y-28102438D01*
X19738095Y-28102438D02*
X19785714Y-28150057D01*
X19785714Y-28150057D02*
X19833333Y-28245295D01*
X19833333Y-28245295D02*
X19833333Y-28388152D01*
X19833333Y-28388152D02*
X19785714Y-28483390D01*
X19785714Y-28483390D02*
X19738095Y-28531009D01*
X19738095Y-28531009D02*
X19642857Y-28578628D01*
X19642857Y-28578628D02*
X19261905Y-28578628D01*
X20738095Y-28054819D02*
X20261905Y-28054819D01*
X20261905Y-28054819D02*
X20214286Y-28531009D01*
X20214286Y-28531009D02*
X20261905Y-28483390D01*
X20261905Y-28483390D02*
X20357143Y-28435771D01*
X20357143Y-28435771D02*
X20595238Y-28435771D01*
X20595238Y-28435771D02*
X20690476Y-28483390D01*
X20690476Y-28483390D02*
X20738095Y-28531009D01*
X20738095Y-28531009D02*
X20785714Y-28626247D01*
X20785714Y-28626247D02*
X20785714Y-28864342D01*
X20785714Y-28864342D02*
X20738095Y-28959580D01*
X20738095Y-28959580D02*
X20690476Y-29007200D01*
X20690476Y-29007200D02*
X20595238Y-29054819D01*
X20595238Y-29054819D02*
X20357143Y-29054819D01*
X20357143Y-29054819D02*
X20261905Y-29007200D01*
X20261905Y-29007200D02*
X20214286Y-28959580D01*
X19833333Y-34314819D02*
X19500000Y-33838628D01*
X19261905Y-34314819D02*
X19261905Y-33314819D01*
X19261905Y-33314819D02*
X19642857Y-33314819D01*
X19642857Y-33314819D02*
X19738095Y-33362438D01*
X19738095Y-33362438D02*
X19785714Y-33410057D01*
X19785714Y-33410057D02*
X19833333Y-33505295D01*
X19833333Y-33505295D02*
X19833333Y-33648152D01*
X19833333Y-33648152D02*
X19785714Y-33743390D01*
X19785714Y-33743390D02*
X19738095Y-33791009D01*
X19738095Y-33791009D02*
X19642857Y-33838628D01*
X19642857Y-33838628D02*
X19261905Y-33838628D01*
X20690476Y-33314819D02*
X20500000Y-33314819D01*
X20500000Y-33314819D02*
X20404762Y-33362438D01*
X20404762Y-33362438D02*
X20357143Y-33410057D01*
X20357143Y-33410057D02*
X20261905Y-33552914D01*
X20261905Y-33552914D02*
X20214286Y-33743390D01*
X20214286Y-33743390D02*
X20214286Y-34124342D01*
X20214286Y-34124342D02*
X20261905Y-34219580D01*
X20261905Y-34219580D02*
X20309524Y-34267200D01*
X20309524Y-34267200D02*
X20404762Y-34314819D01*
X20404762Y-34314819D02*
X20595238Y-34314819D01*
X20595238Y-34314819D02*
X20690476Y-34267200D01*
X20690476Y-34267200D02*
X20738095Y-34219580D01*
X20738095Y-34219580D02*
X20785714Y-34124342D01*
X20785714Y-34124342D02*
X20785714Y-33886247D01*
X20785714Y-33886247D02*
X20738095Y-33791009D01*
X20738095Y-33791009D02*
X20690476Y-33743390D01*
X20690476Y-33743390D02*
X20595238Y-33695771D01*
X20595238Y-33695771D02*
X20404762Y-33695771D01*
X20404762Y-33695771D02*
X20309524Y-33743390D01*
X20309524Y-33743390D02*
X20261905Y-33791009D01*
X20261905Y-33791009D02*
X20214286Y-33886247D01*
X19833333Y-39574819D02*
X19500000Y-39098628D01*
X19261905Y-39574819D02*
X19261905Y-38574819D01*
X19261905Y-38574819D02*
X19642857Y-38574819D01*
X19642857Y-38574819D02*
X19738095Y-38622438D01*
X19738095Y-38622438D02*
X19785714Y-38670057D01*
X19785714Y-38670057D02*
X19833333Y-38765295D01*
X19833333Y-38765295D02*
X19833333Y-38908152D01*
X19833333Y-38908152D02*
X19785714Y-39003390D01*
X19785714Y-39003390D02*
X19738095Y-39051009D01*
X19738095Y-39051009D02*
X19642857Y-39098628D01*
X19642857Y-39098628D02*
X19261905Y-39098628D01*
X20166667Y-38574819D02*
X20833333Y-38574819D01*
X20833333Y-38574819D02*
X20404762Y-39574819D01*
X19833333Y-44834819D02*
X19500000Y-44358628D01*
X19261905Y-44834819D02*
X19261905Y-43834819D01*
X19261905Y-43834819D02*
X19642857Y-43834819D01*
X19642857Y-43834819D02*
X19738095Y-43882438D01*
X19738095Y-43882438D02*
X19785714Y-43930057D01*
X19785714Y-43930057D02*
X19833333Y-44025295D01*
X19833333Y-44025295D02*
X19833333Y-44168152D01*
X19833333Y-44168152D02*
X19785714Y-44263390D01*
X19785714Y-44263390D02*
X19738095Y-44311009D01*
X19738095Y-44311009D02*
X19642857Y-44358628D01*
X19642857Y-44358628D02*
X19261905Y-44358628D01*
X20404762Y-44263390D02*
X20309524Y-44215771D01*
X20309524Y-44215771D02*
X20261905Y-44168152D01*
X20261905Y-44168152D02*
X20214286Y-44072914D01*
X20214286Y-44072914D02*
X20214286Y-44025295D01*
X20214286Y-44025295D02*
X20261905Y-43930057D01*
X20261905Y-43930057D02*
X20309524Y-43882438D01*
X20309524Y-43882438D02*
X20404762Y-43834819D01*
X20404762Y-43834819D02*
X20595238Y-43834819D01*
X20595238Y-43834819D02*
X20690476Y-43882438D01*
X20690476Y-43882438D02*
X20738095Y-43930057D01*
X20738095Y-43930057D02*
X20785714Y-44025295D01*
X20785714Y-44025295D02*
X20785714Y-44072914D01*
X20785714Y-44072914D02*
X20738095Y-44168152D01*
X20738095Y-44168152D02*
X20690476Y-44215771D01*
X20690476Y-44215771D02*
X20595238Y-44263390D01*
X20595238Y-44263390D02*
X20404762Y-44263390D01*
X20404762Y-44263390D02*
X20309524Y-44311009D01*
X20309524Y-44311009D02*
X20261905Y-44358628D01*
X20261905Y-44358628D02*
X20214286Y-44453866D01*
X20214286Y-44453866D02*
X20214286Y-44644342D01*
X20214286Y-44644342D02*
X20261905Y-44739580D01*
X20261905Y-44739580D02*
X20309524Y-44787200D01*
X20309524Y-44787200D02*
X20404762Y-44834819D01*
X20404762Y-44834819D02*
X20595238Y-44834819D01*
X20595238Y-44834819D02*
X20690476Y-44787200D01*
X20690476Y-44787200D02*
X20738095Y-44739580D01*
X20738095Y-44739580D02*
X20785714Y-44644342D01*
X20785714Y-44644342D02*
X20785714Y-44453866D01*
X20785714Y-44453866D02*
X20738095Y-44358628D01*
X20738095Y-44358628D02*
X20690476Y-44311009D01*
X20690476Y-44311009D02*
X20595238Y-44263390D01*
X19833333Y-50074819D02*
X19500000Y-49598628D01*
X19261905Y-50074819D02*
X19261905Y-49074819D01*
X19261905Y-49074819D02*
X19642857Y-49074819D01*
X19642857Y-49074819D02*
X19738095Y-49122438D01*
X19738095Y-49122438D02*
X19785714Y-49170057D01*
X19785714Y-49170057D02*
X19833333Y-49265295D01*
X19833333Y-49265295D02*
X19833333Y-49408152D01*
X19833333Y-49408152D02*
X19785714Y-49503390D01*
X19785714Y-49503390D02*
X19738095Y-49551009D01*
X19738095Y-49551009D02*
X19642857Y-49598628D01*
X19642857Y-49598628D02*
X19261905Y-49598628D01*
X20309524Y-50074819D02*
X20500000Y-50074819D01*
X20500000Y-50074819D02*
X20595238Y-50027200D01*
X20595238Y-50027200D02*
X20642857Y-49979580D01*
X20642857Y-49979580D02*
X20738095Y-49836723D01*
X20738095Y-49836723D02*
X20785714Y-49646247D01*
X20785714Y-49646247D02*
X20785714Y-49265295D01*
X20785714Y-49265295D02*
X20738095Y-49170057D01*
X20738095Y-49170057D02*
X20690476Y-49122438D01*
X20690476Y-49122438D02*
X20595238Y-49074819D01*
X20595238Y-49074819D02*
X20404762Y-49074819D01*
X20404762Y-49074819D02*
X20309524Y-49122438D01*
X20309524Y-49122438D02*
X20261905Y-49170057D01*
X20261905Y-49170057D02*
X20214286Y-49265295D01*
X20214286Y-49265295D02*
X20214286Y-49503390D01*
X20214286Y-49503390D02*
X20261905Y-49598628D01*
X20261905Y-49598628D02*
X20309524Y-49646247D01*
X20309524Y-49646247D02*
X20404762Y-49693866D01*
X20404762Y-49693866D02*
X20595238Y-49693866D01*
X20595238Y-49693866D02*
X20690476Y-49646247D01*
X20690476Y-49646247D02*
X20738095Y-49598628D01*
X20738095Y-49598628D02*
X20785714Y-49503390D01*
X19357142Y-55354819D02*
X19023809Y-54878628D01*
X18785714Y-55354819D02*
X18785714Y-54354819D01*
X18785714Y-54354819D02*
X19166666Y-54354819D01*
X19166666Y-54354819D02*
X19261904Y-54402438D01*
X19261904Y-54402438D02*
X19309523Y-54450057D01*
X19309523Y-54450057D02*
X19357142Y-54545295D01*
X19357142Y-54545295D02*
X19357142Y-54688152D01*
X19357142Y-54688152D02*
X19309523Y-54783390D01*
X19309523Y-54783390D02*
X19261904Y-54831009D01*
X19261904Y-54831009D02*
X19166666Y-54878628D01*
X19166666Y-54878628D02*
X18785714Y-54878628D01*
X20309523Y-55354819D02*
X19738095Y-55354819D01*
X20023809Y-55354819D02*
X20023809Y-54354819D01*
X20023809Y-54354819D02*
X19928571Y-54497676D01*
X19928571Y-54497676D02*
X19833333Y-54592914D01*
X19833333Y-54592914D02*
X19738095Y-54640533D01*
X20928571Y-54354819D02*
X21023809Y-54354819D01*
X21023809Y-54354819D02*
X21119047Y-54402438D01*
X21119047Y-54402438D02*
X21166666Y-54450057D01*
X21166666Y-54450057D02*
X21214285Y-54545295D01*
X21214285Y-54545295D02*
X21261904Y-54735771D01*
X21261904Y-54735771D02*
X21261904Y-54973866D01*
X21261904Y-54973866D02*
X21214285Y-55164342D01*
X21214285Y-55164342D02*
X21166666Y-55259580D01*
X21166666Y-55259580D02*
X21119047Y-55307200D01*
X21119047Y-55307200D02*
X21023809Y-55354819D01*
X21023809Y-55354819D02*
X20928571Y-55354819D01*
X20928571Y-55354819D02*
X20833333Y-55307200D01*
X20833333Y-55307200D02*
X20785714Y-55259580D01*
X20785714Y-55259580D02*
X20738095Y-55164342D01*
X20738095Y-55164342D02*
X20690476Y-54973866D01*
X20690476Y-54973866D02*
X20690476Y-54735771D01*
X20690476Y-54735771D02*
X20738095Y-54545295D01*
X20738095Y-54545295D02*
X20785714Y-54450057D01*
X20785714Y-54450057D02*
X20833333Y-54402438D01*
X20833333Y-54402438D02*
X20928571Y-54354819D01*
X19357142Y-60614819D02*
X19023809Y-60138628D01*
X18785714Y-60614819D02*
X18785714Y-59614819D01*
X18785714Y-59614819D02*
X19166666Y-59614819D01*
X19166666Y-59614819D02*
X19261904Y-59662438D01*
X19261904Y-59662438D02*
X19309523Y-59710057D01*
X19309523Y-59710057D02*
X19357142Y-59805295D01*
X19357142Y-59805295D02*
X19357142Y-59948152D01*
X19357142Y-59948152D02*
X19309523Y-60043390D01*
X19309523Y-60043390D02*
X19261904Y-60091009D01*
X19261904Y-60091009D02*
X19166666Y-60138628D01*
X19166666Y-60138628D02*
X18785714Y-60138628D01*
X20309523Y-60614819D02*
X19738095Y-60614819D01*
X20023809Y-60614819D02*
X20023809Y-59614819D01*
X20023809Y-59614819D02*
X19928571Y-59757676D01*
X19928571Y-59757676D02*
X19833333Y-59852914D01*
X19833333Y-59852914D02*
X19738095Y-59900533D01*
X21261904Y-60614819D02*
X20690476Y-60614819D01*
X20976190Y-60614819D02*
X20976190Y-59614819D01*
X20976190Y-59614819D02*
X20880952Y-59757676D01*
X20880952Y-59757676D02*
X20785714Y-59852914D01*
X20785714Y-59852914D02*
X20690476Y-59900533D01*
X19357142Y-65874819D02*
X19023809Y-65398628D01*
X18785714Y-65874819D02*
X18785714Y-64874819D01*
X18785714Y-64874819D02*
X19166666Y-64874819D01*
X19166666Y-64874819D02*
X19261904Y-64922438D01*
X19261904Y-64922438D02*
X19309523Y-64970057D01*
X19309523Y-64970057D02*
X19357142Y-65065295D01*
X19357142Y-65065295D02*
X19357142Y-65208152D01*
X19357142Y-65208152D02*
X19309523Y-65303390D01*
X19309523Y-65303390D02*
X19261904Y-65351009D01*
X19261904Y-65351009D02*
X19166666Y-65398628D01*
X19166666Y-65398628D02*
X18785714Y-65398628D01*
X20309523Y-65874819D02*
X19738095Y-65874819D01*
X20023809Y-65874819D02*
X20023809Y-64874819D01*
X20023809Y-64874819D02*
X19928571Y-65017676D01*
X19928571Y-65017676D02*
X19833333Y-65112914D01*
X19833333Y-65112914D02*
X19738095Y-65160533D01*
X20690476Y-64970057D02*
X20738095Y-64922438D01*
X20738095Y-64922438D02*
X20833333Y-64874819D01*
X20833333Y-64874819D02*
X21071428Y-64874819D01*
X21071428Y-64874819D02*
X21166666Y-64922438D01*
X21166666Y-64922438D02*
X21214285Y-64970057D01*
X21214285Y-64970057D02*
X21261904Y-65065295D01*
X21261904Y-65065295D02*
X21261904Y-65160533D01*
X21261904Y-65160533D02*
X21214285Y-65303390D01*
X21214285Y-65303390D02*
X20642857Y-65874819D01*
X20642857Y-65874819D02*
X21261904Y-65874819D01*
X19357142Y-71134819D02*
X19023809Y-70658628D01*
X18785714Y-71134819D02*
X18785714Y-70134819D01*
X18785714Y-70134819D02*
X19166666Y-70134819D01*
X19166666Y-70134819D02*
X19261904Y-70182438D01*
X19261904Y-70182438D02*
X19309523Y-70230057D01*
X19309523Y-70230057D02*
X19357142Y-70325295D01*
X19357142Y-70325295D02*
X19357142Y-70468152D01*
X19357142Y-70468152D02*
X19309523Y-70563390D01*
X19309523Y-70563390D02*
X19261904Y-70611009D01*
X19261904Y-70611009D02*
X19166666Y-70658628D01*
X19166666Y-70658628D02*
X18785714Y-70658628D01*
X20309523Y-71134819D02*
X19738095Y-71134819D01*
X20023809Y-71134819D02*
X20023809Y-70134819D01*
X20023809Y-70134819D02*
X19928571Y-70277676D01*
X19928571Y-70277676D02*
X19833333Y-70372914D01*
X19833333Y-70372914D02*
X19738095Y-70420533D01*
X20642857Y-70134819D02*
X21261904Y-70134819D01*
X21261904Y-70134819D02*
X20928571Y-70515771D01*
X20928571Y-70515771D02*
X21071428Y-70515771D01*
X21071428Y-70515771D02*
X21166666Y-70563390D01*
X21166666Y-70563390D02*
X21214285Y-70611009D01*
X21214285Y-70611009D02*
X21261904Y-70706247D01*
X21261904Y-70706247D02*
X21261904Y-70944342D01*
X21261904Y-70944342D02*
X21214285Y-71039580D01*
X21214285Y-71039580D02*
X21166666Y-71087200D01*
X21166666Y-71087200D02*
X21071428Y-71134819D01*
X21071428Y-71134819D02*
X20785714Y-71134819D01*
X20785714Y-71134819D02*
X20690476Y-71087200D01*
X20690476Y-71087200D02*
X20642857Y-71039580D01*
X19357142Y-76394819D02*
X19023809Y-75918628D01*
X18785714Y-76394819D02*
X18785714Y-75394819D01*
X18785714Y-75394819D02*
X19166666Y-75394819D01*
X19166666Y-75394819D02*
X19261904Y-75442438D01*
X19261904Y-75442438D02*
X19309523Y-75490057D01*
X19309523Y-75490057D02*
X19357142Y-75585295D01*
X19357142Y-75585295D02*
X19357142Y-75728152D01*
X19357142Y-75728152D02*
X19309523Y-75823390D01*
X19309523Y-75823390D02*
X19261904Y-75871009D01*
X19261904Y-75871009D02*
X19166666Y-75918628D01*
X19166666Y-75918628D02*
X18785714Y-75918628D01*
X20309523Y-76394819D02*
X19738095Y-76394819D01*
X20023809Y-76394819D02*
X20023809Y-75394819D01*
X20023809Y-75394819D02*
X19928571Y-75537676D01*
X19928571Y-75537676D02*
X19833333Y-75632914D01*
X19833333Y-75632914D02*
X19738095Y-75680533D01*
X21166666Y-75728152D02*
X21166666Y-76394819D01*
X20928571Y-75347200D02*
X20690476Y-76061485D01*
X20690476Y-76061485D02*
X21309523Y-76061485D01*
X19357142Y-81654819D02*
X19023809Y-81178628D01*
X18785714Y-81654819D02*
X18785714Y-80654819D01*
X18785714Y-80654819D02*
X19166666Y-80654819D01*
X19166666Y-80654819D02*
X19261904Y-80702438D01*
X19261904Y-80702438D02*
X19309523Y-80750057D01*
X19309523Y-80750057D02*
X19357142Y-80845295D01*
X19357142Y-80845295D02*
X19357142Y-80988152D01*
X19357142Y-80988152D02*
X19309523Y-81083390D01*
X19309523Y-81083390D02*
X19261904Y-81131009D01*
X19261904Y-81131009D02*
X19166666Y-81178628D01*
X19166666Y-81178628D02*
X18785714Y-81178628D01*
X20309523Y-81654819D02*
X19738095Y-81654819D01*
X20023809Y-81654819D02*
X20023809Y-80654819D01*
X20023809Y-80654819D02*
X19928571Y-80797676D01*
X19928571Y-80797676D02*
X19833333Y-80892914D01*
X19833333Y-80892914D02*
X19738095Y-80940533D01*
X21214285Y-80654819D02*
X20738095Y-80654819D01*
X20738095Y-80654819D02*
X20690476Y-81131009D01*
X20690476Y-81131009D02*
X20738095Y-81083390D01*
X20738095Y-81083390D02*
X20833333Y-81035771D01*
X20833333Y-81035771D02*
X21071428Y-81035771D01*
X21071428Y-81035771D02*
X21166666Y-81083390D01*
X21166666Y-81083390D02*
X21214285Y-81131009D01*
X21214285Y-81131009D02*
X21261904Y-81226247D01*
X21261904Y-81226247D02*
X21261904Y-81464342D01*
X21261904Y-81464342D02*
X21214285Y-81559580D01*
X21214285Y-81559580D02*
X21166666Y-81607200D01*
X21166666Y-81607200D02*
X21071428Y-81654819D01*
X21071428Y-81654819D02*
X20833333Y-81654819D01*
X20833333Y-81654819D02*
X20738095Y-81607200D01*
X20738095Y-81607200D02*
X20690476Y-81559580D01*
X19357142Y-86914819D02*
X19023809Y-86438628D01*
X18785714Y-86914819D02*
X18785714Y-85914819D01*
X18785714Y-85914819D02*
X19166666Y-85914819D01*
X19166666Y-85914819D02*
X19261904Y-85962438D01*
X19261904Y-85962438D02*
X19309523Y-86010057D01*
X19309523Y-86010057D02*
X19357142Y-86105295D01*
X19357142Y-86105295D02*
X19357142Y-86248152D01*
X19357142Y-86248152D02*
X19309523Y-86343390D01*
X19309523Y-86343390D02*
X19261904Y-86391009D01*
X19261904Y-86391009D02*
X19166666Y-86438628D01*
X19166666Y-86438628D02*
X18785714Y-86438628D01*
X20309523Y-86914819D02*
X19738095Y-86914819D01*
X20023809Y-86914819D02*
X20023809Y-85914819D01*
X20023809Y-85914819D02*
X19928571Y-86057676D01*
X19928571Y-86057676D02*
X19833333Y-86152914D01*
X19833333Y-86152914D02*
X19738095Y-86200533D01*
X21166666Y-85914819D02*
X20976190Y-85914819D01*
X20976190Y-85914819D02*
X20880952Y-85962438D01*
X20880952Y-85962438D02*
X20833333Y-86010057D01*
X20833333Y-86010057D02*
X20738095Y-86152914D01*
X20738095Y-86152914D02*
X20690476Y-86343390D01*
X20690476Y-86343390D02*
X20690476Y-86724342D01*
X20690476Y-86724342D02*
X20738095Y-86819580D01*
X20738095Y-86819580D02*
X20785714Y-86867200D01*
X20785714Y-86867200D02*
X20880952Y-86914819D01*
X20880952Y-86914819D02*
X21071428Y-86914819D01*
X21071428Y-86914819D02*
X21166666Y-86867200D01*
X21166666Y-86867200D02*
X21214285Y-86819580D01*
X21214285Y-86819580D02*
X21261904Y-86724342D01*
X21261904Y-86724342D02*
X21261904Y-86486247D01*
X21261904Y-86486247D02*
X21214285Y-86391009D01*
X21214285Y-86391009D02*
X21166666Y-86343390D01*
X21166666Y-86343390D02*
X21071428Y-86295771D01*
X21071428Y-86295771D02*
X20880952Y-86295771D01*
X20880952Y-86295771D02*
X20785714Y-86343390D01*
X20785714Y-86343390D02*
X20738095Y-86391009D01*
X20738095Y-86391009D02*
X20690476Y-86486247D01*
X19357142Y-92174819D02*
X19023809Y-91698628D01*
X18785714Y-92174819D02*
X18785714Y-91174819D01*
X18785714Y-91174819D02*
X19166666Y-91174819D01*
X19166666Y-91174819D02*
X19261904Y-91222438D01*
X19261904Y-91222438D02*
X19309523Y-91270057D01*
X19309523Y-91270057D02*
X19357142Y-91365295D01*
X19357142Y-91365295D02*
X19357142Y-91508152D01*
X19357142Y-91508152D02*
X19309523Y-91603390D01*
X19309523Y-91603390D02*
X19261904Y-91651009D01*
X19261904Y-91651009D02*
X19166666Y-91698628D01*
X19166666Y-91698628D02*
X18785714Y-91698628D01*
X20309523Y-92174819D02*
X19738095Y-92174819D01*
X20023809Y-92174819D02*
X20023809Y-91174819D01*
X20023809Y-91174819D02*
X19928571Y-91317676D01*
X19928571Y-91317676D02*
X19833333Y-91412914D01*
X19833333Y-91412914D02*
X19738095Y-91460533D01*
X20642857Y-91174819D02*
X21309523Y-91174819D01*
X21309523Y-91174819D02*
X20880952Y-92174819D01*
X19357142Y-97434819D02*
X19023809Y-96958628D01*
X18785714Y-97434819D02*
X18785714Y-96434819D01*
X18785714Y-96434819D02*
X19166666Y-96434819D01*
X19166666Y-96434819D02*
X19261904Y-96482438D01*
X19261904Y-96482438D02*
X19309523Y-96530057D01*
X19309523Y-96530057D02*
X19357142Y-96625295D01*
X19357142Y-96625295D02*
X19357142Y-96768152D01*
X19357142Y-96768152D02*
X19309523Y-96863390D01*
X19309523Y-96863390D02*
X19261904Y-96911009D01*
X19261904Y-96911009D02*
X19166666Y-96958628D01*
X19166666Y-96958628D02*
X18785714Y-96958628D01*
X20309523Y-97434819D02*
X19738095Y-97434819D01*
X20023809Y-97434819D02*
X20023809Y-96434819D01*
X20023809Y-96434819D02*
X19928571Y-96577676D01*
X19928571Y-96577676D02*
X19833333Y-96672914D01*
X19833333Y-96672914D02*
X19738095Y-96720533D01*
X20880952Y-96863390D02*
X20785714Y-96815771D01*
X20785714Y-96815771D02*
X20738095Y-96768152D01*
X20738095Y-96768152D02*
X20690476Y-96672914D01*
X20690476Y-96672914D02*
X20690476Y-96625295D01*
X20690476Y-96625295D02*
X20738095Y-96530057D01*
X20738095Y-96530057D02*
X20785714Y-96482438D01*
X20785714Y-96482438D02*
X20880952Y-96434819D01*
X20880952Y-96434819D02*
X21071428Y-96434819D01*
X21071428Y-96434819D02*
X21166666Y-96482438D01*
X21166666Y-96482438D02*
X21214285Y-96530057D01*
X21214285Y-96530057D02*
X21261904Y-96625295D01*
X21261904Y-96625295D02*
X21261904Y-96672914D01*
X21261904Y-96672914D02*
X21214285Y-96768152D01*
X21214285Y-96768152D02*
X21166666Y-96815771D01*
X21166666Y-96815771D02*
X21071428Y-96863390D01*
X21071428Y-96863390D02*
X20880952Y-96863390D01*
X20880952Y-96863390D02*
X20785714Y-96911009D01*
X20785714Y-96911009D02*
X20738095Y-96958628D01*
X20738095Y-96958628D02*
X20690476Y-97053866D01*
X20690476Y-97053866D02*
X20690476Y-97244342D01*
X20690476Y-97244342D02*
X20738095Y-97339580D01*
X20738095Y-97339580D02*
X20785714Y-97387200D01*
X20785714Y-97387200D02*
X20880952Y-97434819D01*
X20880952Y-97434819D02*
X21071428Y-97434819D01*
X21071428Y-97434819D02*
X21166666Y-97387200D01*
X21166666Y-97387200D02*
X21214285Y-97339580D01*
X21214285Y-97339580D02*
X21261904Y-97244342D01*
X21261904Y-97244342D02*
X21261904Y-97053866D01*
X21261904Y-97053866D02*
X21214285Y-96958628D01*
X21214285Y-96958628D02*
X21166666Y-96911009D01*
X21166666Y-96911009D02*
X21071428Y-96863390D01*
X49395142Y-96226819D02*
X49061809Y-95750628D01*
X48823714Y-96226819D02*
X48823714Y-95226819D01*
X48823714Y-95226819D02*
X49204666Y-95226819D01*
X49204666Y-95226819D02*
X49299904Y-95274438D01*
X49299904Y-95274438D02*
X49347523Y-95322057D01*
X49347523Y-95322057D02*
X49395142Y-95417295D01*
X49395142Y-95417295D02*
X49395142Y-95560152D01*
X49395142Y-95560152D02*
X49347523Y-95655390D01*
X49347523Y-95655390D02*
X49299904Y-95703009D01*
X49299904Y-95703009D02*
X49204666Y-95750628D01*
X49204666Y-95750628D02*
X48823714Y-95750628D01*
X50347523Y-96226819D02*
X49776095Y-96226819D01*
X50061809Y-96226819D02*
X50061809Y-95226819D01*
X50061809Y-95226819D02*
X49966571Y-95369676D01*
X49966571Y-95369676D02*
X49871333Y-95464914D01*
X49871333Y-95464914D02*
X49776095Y-95512533D01*
X50823714Y-96226819D02*
X51014190Y-96226819D01*
X51014190Y-96226819D02*
X51109428Y-96179200D01*
X51109428Y-96179200D02*
X51157047Y-96131580D01*
X51157047Y-96131580D02*
X51252285Y-95988723D01*
X51252285Y-95988723D02*
X51299904Y-95798247D01*
X51299904Y-95798247D02*
X51299904Y-95417295D01*
X51299904Y-95417295D02*
X51252285Y-95322057D01*
X51252285Y-95322057D02*
X51204666Y-95274438D01*
X51204666Y-95274438D02*
X51109428Y-95226819D01*
X51109428Y-95226819D02*
X50918952Y-95226819D01*
X50918952Y-95226819D02*
X50823714Y-95274438D01*
X50823714Y-95274438D02*
X50776095Y-95322057D01*
X50776095Y-95322057D02*
X50728476Y-95417295D01*
X50728476Y-95417295D02*
X50728476Y-95655390D01*
X50728476Y-95655390D02*
X50776095Y-95750628D01*
X50776095Y-95750628D02*
X50823714Y-95798247D01*
X50823714Y-95798247D02*
X50918952Y-95845866D01*
X50918952Y-95845866D02*
X51109428Y-95845866D01*
X51109428Y-95845866D02*
X51204666Y-95798247D01*
X51204666Y-95798247D02*
X51252285Y-95750628D01*
X51252285Y-95750628D02*
X51299904Y-95655390D01*
X49357142Y-12754819D02*
X49023809Y-12278628D01*
X48785714Y-12754819D02*
X48785714Y-11754819D01*
X48785714Y-11754819D02*
X49166666Y-11754819D01*
X49166666Y-11754819D02*
X49261904Y-11802438D01*
X49261904Y-11802438D02*
X49309523Y-11850057D01*
X49309523Y-11850057D02*
X49357142Y-11945295D01*
X49357142Y-11945295D02*
X49357142Y-12088152D01*
X49357142Y-12088152D02*
X49309523Y-12183390D01*
X49309523Y-12183390D02*
X49261904Y-12231009D01*
X49261904Y-12231009D02*
X49166666Y-12278628D01*
X49166666Y-12278628D02*
X48785714Y-12278628D01*
X49738095Y-11850057D02*
X49785714Y-11802438D01*
X49785714Y-11802438D02*
X49880952Y-11754819D01*
X49880952Y-11754819D02*
X50119047Y-11754819D01*
X50119047Y-11754819D02*
X50214285Y-11802438D01*
X50214285Y-11802438D02*
X50261904Y-11850057D01*
X50261904Y-11850057D02*
X50309523Y-11945295D01*
X50309523Y-11945295D02*
X50309523Y-12040533D01*
X50309523Y-12040533D02*
X50261904Y-12183390D01*
X50261904Y-12183390D02*
X49690476Y-12754819D01*
X49690476Y-12754819D02*
X50309523Y-12754819D01*
X50928571Y-11754819D02*
X51023809Y-11754819D01*
X51023809Y-11754819D02*
X51119047Y-11802438D01*
X51119047Y-11802438D02*
X51166666Y-11850057D01*
X51166666Y-11850057D02*
X51214285Y-11945295D01*
X51214285Y-11945295D02*
X51261904Y-12135771D01*
X51261904Y-12135771D02*
X51261904Y-12373866D01*
X51261904Y-12373866D02*
X51214285Y-12564342D01*
X51214285Y-12564342D02*
X51166666Y-12659580D01*
X51166666Y-12659580D02*
X51119047Y-12707200D01*
X51119047Y-12707200D02*
X51023809Y-12754819D01*
X51023809Y-12754819D02*
X50928571Y-12754819D01*
X50928571Y-12754819D02*
X50833333Y-12707200D01*
X50833333Y-12707200D02*
X50785714Y-12659580D01*
X50785714Y-12659580D02*
X50738095Y-12564342D01*
X50738095Y-12564342D02*
X50690476Y-12373866D01*
X50690476Y-12373866D02*
X50690476Y-12135771D01*
X50690476Y-12135771D02*
X50738095Y-11945295D01*
X50738095Y-11945295D02*
X50785714Y-11850057D01*
X50785714Y-11850057D02*
X50833333Y-11802438D01*
X50833333Y-11802438D02*
X50928571Y-11754819D01*
X79357142Y-8154819D02*
X79023809Y-7678628D01*
X78785714Y-8154819D02*
X78785714Y-7154819D01*
X78785714Y-7154819D02*
X79166666Y-7154819D01*
X79166666Y-7154819D02*
X79261904Y-7202438D01*
X79261904Y-7202438D02*
X79309523Y-7250057D01*
X79309523Y-7250057D02*
X79357142Y-7345295D01*
X79357142Y-7345295D02*
X79357142Y-7488152D01*
X79357142Y-7488152D02*
X79309523Y-7583390D01*
X79309523Y-7583390D02*
X79261904Y-7631009D01*
X79261904Y-7631009D02*
X79166666Y-7678628D01*
X79166666Y-7678628D02*
X78785714Y-7678628D01*
X79738095Y-7250057D02*
X79785714Y-7202438D01*
X79785714Y-7202438D02*
X79880952Y-7154819D01*
X79880952Y-7154819D02*
X80119047Y-7154819D01*
X80119047Y-7154819D02*
X80214285Y-7202438D01*
X80214285Y-7202438D02*
X80261904Y-7250057D01*
X80261904Y-7250057D02*
X80309523Y-7345295D01*
X80309523Y-7345295D02*
X80309523Y-7440533D01*
X80309523Y-7440533D02*
X80261904Y-7583390D01*
X80261904Y-7583390D02*
X79690476Y-8154819D01*
X79690476Y-8154819D02*
X80309523Y-8154819D01*
X81261904Y-8154819D02*
X80690476Y-8154819D01*
X80976190Y-8154819D02*
X80976190Y-7154819D01*
X80976190Y-7154819D02*
X80880952Y-7297676D01*
X80880952Y-7297676D02*
X80785714Y-7392914D01*
X80785714Y-7392914D02*
X80690476Y-7440533D01*
X85390819Y-15642857D02*
X84914628Y-15976190D01*
X85390819Y-16214285D02*
X84390819Y-16214285D01*
X84390819Y-16214285D02*
X84390819Y-15833333D01*
X84390819Y-15833333D02*
X84438438Y-15738095D01*
X84438438Y-15738095D02*
X84486057Y-15690476D01*
X84486057Y-15690476D02*
X84581295Y-15642857D01*
X84581295Y-15642857D02*
X84724152Y-15642857D01*
X84724152Y-15642857D02*
X84819390Y-15690476D01*
X84819390Y-15690476D02*
X84867009Y-15738095D01*
X84867009Y-15738095D02*
X84914628Y-15833333D01*
X84914628Y-15833333D02*
X84914628Y-16214285D01*
X84486057Y-15261904D02*
X84438438Y-15214285D01*
X84438438Y-15214285D02*
X84390819Y-15119047D01*
X84390819Y-15119047D02*
X84390819Y-14880952D01*
X84390819Y-14880952D02*
X84438438Y-14785714D01*
X84438438Y-14785714D02*
X84486057Y-14738095D01*
X84486057Y-14738095D02*
X84581295Y-14690476D01*
X84581295Y-14690476D02*
X84676533Y-14690476D01*
X84676533Y-14690476D02*
X84819390Y-14738095D01*
X84819390Y-14738095D02*
X85390819Y-15309523D01*
X85390819Y-15309523D02*
X85390819Y-14690476D01*
X84486057Y-14309523D02*
X84438438Y-14261904D01*
X84438438Y-14261904D02*
X84390819Y-14166666D01*
X84390819Y-14166666D02*
X84390819Y-13928571D01*
X84390819Y-13928571D02*
X84438438Y-13833333D01*
X84438438Y-13833333D02*
X84486057Y-13785714D01*
X84486057Y-13785714D02*
X84581295Y-13738095D01*
X84581295Y-13738095D02*
X84676533Y-13738095D01*
X84676533Y-13738095D02*
X84819390Y-13785714D01*
X84819390Y-13785714D02*
X85390819Y-14357142D01*
X85390819Y-14357142D02*
X85390819Y-13738095D01*
X79357142Y-24154819D02*
X79023809Y-23678628D01*
X78785714Y-24154819D02*
X78785714Y-23154819D01*
X78785714Y-23154819D02*
X79166666Y-23154819D01*
X79166666Y-23154819D02*
X79261904Y-23202438D01*
X79261904Y-23202438D02*
X79309523Y-23250057D01*
X79309523Y-23250057D02*
X79357142Y-23345295D01*
X79357142Y-23345295D02*
X79357142Y-23488152D01*
X79357142Y-23488152D02*
X79309523Y-23583390D01*
X79309523Y-23583390D02*
X79261904Y-23631009D01*
X79261904Y-23631009D02*
X79166666Y-23678628D01*
X79166666Y-23678628D02*
X78785714Y-23678628D01*
X79738095Y-23250057D02*
X79785714Y-23202438D01*
X79785714Y-23202438D02*
X79880952Y-23154819D01*
X79880952Y-23154819D02*
X80119047Y-23154819D01*
X80119047Y-23154819D02*
X80214285Y-23202438D01*
X80214285Y-23202438D02*
X80261904Y-23250057D01*
X80261904Y-23250057D02*
X80309523Y-23345295D01*
X80309523Y-23345295D02*
X80309523Y-23440533D01*
X80309523Y-23440533D02*
X80261904Y-23583390D01*
X80261904Y-23583390D02*
X79690476Y-24154819D01*
X79690476Y-24154819D02*
X80309523Y-24154819D01*
X80642857Y-23154819D02*
X81261904Y-23154819D01*
X81261904Y-23154819D02*
X80928571Y-23535771D01*
X80928571Y-23535771D02*
X81071428Y-23535771D01*
X81071428Y-23535771D02*
X81166666Y-23583390D01*
X81166666Y-23583390D02*
X81214285Y-23631009D01*
X81214285Y-23631009D02*
X81261904Y-23726247D01*
X81261904Y-23726247D02*
X81261904Y-23964342D01*
X81261904Y-23964342D02*
X81214285Y-24059580D01*
X81214285Y-24059580D02*
X81166666Y-24107200D01*
X81166666Y-24107200D02*
X81071428Y-24154819D01*
X81071428Y-24154819D02*
X80785714Y-24154819D01*
X80785714Y-24154819D02*
X80690476Y-24107200D01*
X80690476Y-24107200D02*
X80642857Y-24059580D01*
X85390819Y-31642857D02*
X84914628Y-31976190D01*
X85390819Y-32214285D02*
X84390819Y-32214285D01*
X84390819Y-32214285D02*
X84390819Y-31833333D01*
X84390819Y-31833333D02*
X84438438Y-31738095D01*
X84438438Y-31738095D02*
X84486057Y-31690476D01*
X84486057Y-31690476D02*
X84581295Y-31642857D01*
X84581295Y-31642857D02*
X84724152Y-31642857D01*
X84724152Y-31642857D02*
X84819390Y-31690476D01*
X84819390Y-31690476D02*
X84867009Y-31738095D01*
X84867009Y-31738095D02*
X84914628Y-31833333D01*
X84914628Y-31833333D02*
X84914628Y-32214285D01*
X84486057Y-31261904D02*
X84438438Y-31214285D01*
X84438438Y-31214285D02*
X84390819Y-31119047D01*
X84390819Y-31119047D02*
X84390819Y-30880952D01*
X84390819Y-30880952D02*
X84438438Y-30785714D01*
X84438438Y-30785714D02*
X84486057Y-30738095D01*
X84486057Y-30738095D02*
X84581295Y-30690476D01*
X84581295Y-30690476D02*
X84676533Y-30690476D01*
X84676533Y-30690476D02*
X84819390Y-30738095D01*
X84819390Y-30738095D02*
X85390819Y-31309523D01*
X85390819Y-31309523D02*
X85390819Y-30690476D01*
X84724152Y-29833333D02*
X85390819Y-29833333D01*
X84343200Y-30071428D02*
X85057485Y-30309523D01*
X85057485Y-30309523D02*
X85057485Y-29690476D01*
X79357142Y-40154819D02*
X79023809Y-39678628D01*
X78785714Y-40154819D02*
X78785714Y-39154819D01*
X78785714Y-39154819D02*
X79166666Y-39154819D01*
X79166666Y-39154819D02*
X79261904Y-39202438D01*
X79261904Y-39202438D02*
X79309523Y-39250057D01*
X79309523Y-39250057D02*
X79357142Y-39345295D01*
X79357142Y-39345295D02*
X79357142Y-39488152D01*
X79357142Y-39488152D02*
X79309523Y-39583390D01*
X79309523Y-39583390D02*
X79261904Y-39631009D01*
X79261904Y-39631009D02*
X79166666Y-39678628D01*
X79166666Y-39678628D02*
X78785714Y-39678628D01*
X79738095Y-39250057D02*
X79785714Y-39202438D01*
X79785714Y-39202438D02*
X79880952Y-39154819D01*
X79880952Y-39154819D02*
X80119047Y-39154819D01*
X80119047Y-39154819D02*
X80214285Y-39202438D01*
X80214285Y-39202438D02*
X80261904Y-39250057D01*
X80261904Y-39250057D02*
X80309523Y-39345295D01*
X80309523Y-39345295D02*
X80309523Y-39440533D01*
X80309523Y-39440533D02*
X80261904Y-39583390D01*
X80261904Y-39583390D02*
X79690476Y-40154819D01*
X79690476Y-40154819D02*
X80309523Y-40154819D01*
X81214285Y-39154819D02*
X80738095Y-39154819D01*
X80738095Y-39154819D02*
X80690476Y-39631009D01*
X80690476Y-39631009D02*
X80738095Y-39583390D01*
X80738095Y-39583390D02*
X80833333Y-39535771D01*
X80833333Y-39535771D02*
X81071428Y-39535771D01*
X81071428Y-39535771D02*
X81166666Y-39583390D01*
X81166666Y-39583390D02*
X81214285Y-39631009D01*
X81214285Y-39631009D02*
X81261904Y-39726247D01*
X81261904Y-39726247D02*
X81261904Y-39964342D01*
X81261904Y-39964342D02*
X81214285Y-40059580D01*
X81214285Y-40059580D02*
X81166666Y-40107200D01*
X81166666Y-40107200D02*
X81071428Y-40154819D01*
X81071428Y-40154819D02*
X80833333Y-40154819D01*
X80833333Y-40154819D02*
X80738095Y-40107200D01*
X80738095Y-40107200D02*
X80690476Y-40059580D01*
X85390819Y-47642857D02*
X84914628Y-47976190D01*
X85390819Y-48214285D02*
X84390819Y-48214285D01*
X84390819Y-48214285D02*
X84390819Y-47833333D01*
X84390819Y-47833333D02*
X84438438Y-47738095D01*
X84438438Y-47738095D02*
X84486057Y-47690476D01*
X84486057Y-47690476D02*
X84581295Y-47642857D01*
X84581295Y-47642857D02*
X84724152Y-47642857D01*
X84724152Y-47642857D02*
X84819390Y-47690476D01*
X84819390Y-47690476D02*
X84867009Y-47738095D01*
X84867009Y-47738095D02*
X84914628Y-47833333D01*
X84914628Y-47833333D02*
X84914628Y-48214285D01*
X84486057Y-47261904D02*
X84438438Y-47214285D01*
X84438438Y-47214285D02*
X84390819Y-47119047D01*
X84390819Y-47119047D02*
X84390819Y-46880952D01*
X84390819Y-46880952D02*
X84438438Y-46785714D01*
X84438438Y-46785714D02*
X84486057Y-46738095D01*
X84486057Y-46738095D02*
X84581295Y-46690476D01*
X84581295Y-46690476D02*
X84676533Y-46690476D01*
X84676533Y-46690476D02*
X84819390Y-46738095D01*
X84819390Y-46738095D02*
X85390819Y-47309523D01*
X85390819Y-47309523D02*
X85390819Y-46690476D01*
X84390819Y-45833333D02*
X84390819Y-46023809D01*
X84390819Y-46023809D02*
X84438438Y-46119047D01*
X84438438Y-46119047D02*
X84486057Y-46166666D01*
X84486057Y-46166666D02*
X84628914Y-46261904D01*
X84628914Y-46261904D02*
X84819390Y-46309523D01*
X84819390Y-46309523D02*
X85200342Y-46309523D01*
X85200342Y-46309523D02*
X85295580Y-46261904D01*
X85295580Y-46261904D02*
X85343200Y-46214285D01*
X85343200Y-46214285D02*
X85390819Y-46119047D01*
X85390819Y-46119047D02*
X85390819Y-45928571D01*
X85390819Y-45928571D02*
X85343200Y-45833333D01*
X85343200Y-45833333D02*
X85295580Y-45785714D01*
X85295580Y-45785714D02*
X85200342Y-45738095D01*
X85200342Y-45738095D02*
X84962247Y-45738095D01*
X84962247Y-45738095D02*
X84867009Y-45785714D01*
X84867009Y-45785714D02*
X84819390Y-45833333D01*
X84819390Y-45833333D02*
X84771771Y-45928571D01*
X84771771Y-45928571D02*
X84771771Y-46119047D01*
X84771771Y-46119047D02*
X84819390Y-46214285D01*
X84819390Y-46214285D02*
X84867009Y-46261904D01*
X84867009Y-46261904D02*
X84962247Y-46309523D01*
X79357142Y-56154819D02*
X79023809Y-55678628D01*
X78785714Y-56154819D02*
X78785714Y-55154819D01*
X78785714Y-55154819D02*
X79166666Y-55154819D01*
X79166666Y-55154819D02*
X79261904Y-55202438D01*
X79261904Y-55202438D02*
X79309523Y-55250057D01*
X79309523Y-55250057D02*
X79357142Y-55345295D01*
X79357142Y-55345295D02*
X79357142Y-55488152D01*
X79357142Y-55488152D02*
X79309523Y-55583390D01*
X79309523Y-55583390D02*
X79261904Y-55631009D01*
X79261904Y-55631009D02*
X79166666Y-55678628D01*
X79166666Y-55678628D02*
X78785714Y-55678628D01*
X79738095Y-55250057D02*
X79785714Y-55202438D01*
X79785714Y-55202438D02*
X79880952Y-55154819D01*
X79880952Y-55154819D02*
X80119047Y-55154819D01*
X80119047Y-55154819D02*
X80214285Y-55202438D01*
X80214285Y-55202438D02*
X80261904Y-55250057D01*
X80261904Y-55250057D02*
X80309523Y-55345295D01*
X80309523Y-55345295D02*
X80309523Y-55440533D01*
X80309523Y-55440533D02*
X80261904Y-55583390D01*
X80261904Y-55583390D02*
X79690476Y-56154819D01*
X79690476Y-56154819D02*
X80309523Y-56154819D01*
X80642857Y-55154819D02*
X81309523Y-55154819D01*
X81309523Y-55154819D02*
X80880952Y-56154819D01*
X85358819Y-63642857D02*
X84882628Y-63976190D01*
X85358819Y-64214285D02*
X84358819Y-64214285D01*
X84358819Y-64214285D02*
X84358819Y-63833333D01*
X84358819Y-63833333D02*
X84406438Y-63738095D01*
X84406438Y-63738095D02*
X84454057Y-63690476D01*
X84454057Y-63690476D02*
X84549295Y-63642857D01*
X84549295Y-63642857D02*
X84692152Y-63642857D01*
X84692152Y-63642857D02*
X84787390Y-63690476D01*
X84787390Y-63690476D02*
X84835009Y-63738095D01*
X84835009Y-63738095D02*
X84882628Y-63833333D01*
X84882628Y-63833333D02*
X84882628Y-64214285D01*
X84454057Y-63261904D02*
X84406438Y-63214285D01*
X84406438Y-63214285D02*
X84358819Y-63119047D01*
X84358819Y-63119047D02*
X84358819Y-62880952D01*
X84358819Y-62880952D02*
X84406438Y-62785714D01*
X84406438Y-62785714D02*
X84454057Y-62738095D01*
X84454057Y-62738095D02*
X84549295Y-62690476D01*
X84549295Y-62690476D02*
X84644533Y-62690476D01*
X84644533Y-62690476D02*
X84787390Y-62738095D01*
X84787390Y-62738095D02*
X85358819Y-63309523D01*
X85358819Y-63309523D02*
X85358819Y-62690476D01*
X84787390Y-62119047D02*
X84739771Y-62214285D01*
X84739771Y-62214285D02*
X84692152Y-62261904D01*
X84692152Y-62261904D02*
X84596914Y-62309523D01*
X84596914Y-62309523D02*
X84549295Y-62309523D01*
X84549295Y-62309523D02*
X84454057Y-62261904D01*
X84454057Y-62261904D02*
X84406438Y-62214285D01*
X84406438Y-62214285D02*
X84358819Y-62119047D01*
X84358819Y-62119047D02*
X84358819Y-61928571D01*
X84358819Y-61928571D02*
X84406438Y-61833333D01*
X84406438Y-61833333D02*
X84454057Y-61785714D01*
X84454057Y-61785714D02*
X84549295Y-61738095D01*
X84549295Y-61738095D02*
X84596914Y-61738095D01*
X84596914Y-61738095D02*
X84692152Y-61785714D01*
X84692152Y-61785714D02*
X84739771Y-61833333D01*
X84739771Y-61833333D02*
X84787390Y-61928571D01*
X84787390Y-61928571D02*
X84787390Y-62119047D01*
X84787390Y-62119047D02*
X84835009Y-62214285D01*
X84835009Y-62214285D02*
X84882628Y-62261904D01*
X84882628Y-62261904D02*
X84977866Y-62309523D01*
X84977866Y-62309523D02*
X85168342Y-62309523D01*
X85168342Y-62309523D02*
X85263580Y-62261904D01*
X85263580Y-62261904D02*
X85311200Y-62214285D01*
X85311200Y-62214285D02*
X85358819Y-62119047D01*
X85358819Y-62119047D02*
X85358819Y-61928571D01*
X85358819Y-61928571D02*
X85311200Y-61833333D01*
X85311200Y-61833333D02*
X85263580Y-61785714D01*
X85263580Y-61785714D02*
X85168342Y-61738095D01*
X85168342Y-61738095D02*
X84977866Y-61738095D01*
X84977866Y-61738095D02*
X84882628Y-61785714D01*
X84882628Y-61785714D02*
X84835009Y-61833333D01*
X84835009Y-61833333D02*
X84787390Y-61928571D01*
X79357142Y-72154819D02*
X79023809Y-71678628D01*
X78785714Y-72154819D02*
X78785714Y-71154819D01*
X78785714Y-71154819D02*
X79166666Y-71154819D01*
X79166666Y-71154819D02*
X79261904Y-71202438D01*
X79261904Y-71202438D02*
X79309523Y-71250057D01*
X79309523Y-71250057D02*
X79357142Y-71345295D01*
X79357142Y-71345295D02*
X79357142Y-71488152D01*
X79357142Y-71488152D02*
X79309523Y-71583390D01*
X79309523Y-71583390D02*
X79261904Y-71631009D01*
X79261904Y-71631009D02*
X79166666Y-71678628D01*
X79166666Y-71678628D02*
X78785714Y-71678628D01*
X79738095Y-71250057D02*
X79785714Y-71202438D01*
X79785714Y-71202438D02*
X79880952Y-71154819D01*
X79880952Y-71154819D02*
X80119047Y-71154819D01*
X80119047Y-71154819D02*
X80214285Y-71202438D01*
X80214285Y-71202438D02*
X80261904Y-71250057D01*
X80261904Y-71250057D02*
X80309523Y-71345295D01*
X80309523Y-71345295D02*
X80309523Y-71440533D01*
X80309523Y-71440533D02*
X80261904Y-71583390D01*
X80261904Y-71583390D02*
X79690476Y-72154819D01*
X79690476Y-72154819D02*
X80309523Y-72154819D01*
X80785714Y-72154819D02*
X80976190Y-72154819D01*
X80976190Y-72154819D02*
X81071428Y-72107200D01*
X81071428Y-72107200D02*
X81119047Y-72059580D01*
X81119047Y-72059580D02*
X81214285Y-71916723D01*
X81214285Y-71916723D02*
X81261904Y-71726247D01*
X81261904Y-71726247D02*
X81261904Y-71345295D01*
X81261904Y-71345295D02*
X81214285Y-71250057D01*
X81214285Y-71250057D02*
X81166666Y-71202438D01*
X81166666Y-71202438D02*
X81071428Y-71154819D01*
X81071428Y-71154819D02*
X80880952Y-71154819D01*
X80880952Y-71154819D02*
X80785714Y-71202438D01*
X80785714Y-71202438D02*
X80738095Y-71250057D01*
X80738095Y-71250057D02*
X80690476Y-71345295D01*
X80690476Y-71345295D02*
X80690476Y-71583390D01*
X80690476Y-71583390D02*
X80738095Y-71678628D01*
X80738095Y-71678628D02*
X80785714Y-71726247D01*
X80785714Y-71726247D02*
X80880952Y-71773866D01*
X80880952Y-71773866D02*
X81071428Y-71773866D01*
X81071428Y-71773866D02*
X81166666Y-71726247D01*
X81166666Y-71726247D02*
X81214285Y-71678628D01*
X81214285Y-71678628D02*
X81261904Y-71583390D01*
X85390819Y-79642857D02*
X84914628Y-79976190D01*
X85390819Y-80214285D02*
X84390819Y-80214285D01*
X84390819Y-80214285D02*
X84390819Y-79833333D01*
X84390819Y-79833333D02*
X84438438Y-79738095D01*
X84438438Y-79738095D02*
X84486057Y-79690476D01*
X84486057Y-79690476D02*
X84581295Y-79642857D01*
X84581295Y-79642857D02*
X84724152Y-79642857D01*
X84724152Y-79642857D02*
X84819390Y-79690476D01*
X84819390Y-79690476D02*
X84867009Y-79738095D01*
X84867009Y-79738095D02*
X84914628Y-79833333D01*
X84914628Y-79833333D02*
X84914628Y-80214285D01*
X84390819Y-79309523D02*
X84390819Y-78690476D01*
X84390819Y-78690476D02*
X84771771Y-79023809D01*
X84771771Y-79023809D02*
X84771771Y-78880952D01*
X84771771Y-78880952D02*
X84819390Y-78785714D01*
X84819390Y-78785714D02*
X84867009Y-78738095D01*
X84867009Y-78738095D02*
X84962247Y-78690476D01*
X84962247Y-78690476D02*
X85200342Y-78690476D01*
X85200342Y-78690476D02*
X85295580Y-78738095D01*
X85295580Y-78738095D02*
X85343200Y-78785714D01*
X85343200Y-78785714D02*
X85390819Y-78880952D01*
X85390819Y-78880952D02*
X85390819Y-79166666D01*
X85390819Y-79166666D02*
X85343200Y-79261904D01*
X85343200Y-79261904D02*
X85295580Y-79309523D01*
X84390819Y-78071428D02*
X84390819Y-77976190D01*
X84390819Y-77976190D02*
X84438438Y-77880952D01*
X84438438Y-77880952D02*
X84486057Y-77833333D01*
X84486057Y-77833333D02*
X84581295Y-77785714D01*
X84581295Y-77785714D02*
X84771771Y-77738095D01*
X84771771Y-77738095D02*
X85009866Y-77738095D01*
X85009866Y-77738095D02*
X85200342Y-77785714D01*
X85200342Y-77785714D02*
X85295580Y-77833333D01*
X85295580Y-77833333D02*
X85343200Y-77880952D01*
X85343200Y-77880952D02*
X85390819Y-77976190D01*
X85390819Y-77976190D02*
X85390819Y-78071428D01*
X85390819Y-78071428D02*
X85343200Y-78166666D01*
X85343200Y-78166666D02*
X85295580Y-78214285D01*
X85295580Y-78214285D02*
X85200342Y-78261904D01*
X85200342Y-78261904D02*
X85009866Y-78309523D01*
X85009866Y-78309523D02*
X84771771Y-78309523D01*
X84771771Y-78309523D02*
X84581295Y-78261904D01*
X84581295Y-78261904D02*
X84486057Y-78214285D01*
X84486057Y-78214285D02*
X84438438Y-78166666D01*
X84438438Y-78166666D02*
X84390819Y-78071428D01*
X79357142Y-88154819D02*
X79023809Y-87678628D01*
X78785714Y-88154819D02*
X78785714Y-87154819D01*
X78785714Y-87154819D02*
X79166666Y-87154819D01*
X79166666Y-87154819D02*
X79261904Y-87202438D01*
X79261904Y-87202438D02*
X79309523Y-87250057D01*
X79309523Y-87250057D02*
X79357142Y-87345295D01*
X79357142Y-87345295D02*
X79357142Y-87488152D01*
X79357142Y-87488152D02*
X79309523Y-87583390D01*
X79309523Y-87583390D02*
X79261904Y-87631009D01*
X79261904Y-87631009D02*
X79166666Y-87678628D01*
X79166666Y-87678628D02*
X78785714Y-87678628D01*
X79690476Y-87154819D02*
X80309523Y-87154819D01*
X80309523Y-87154819D02*
X79976190Y-87535771D01*
X79976190Y-87535771D02*
X80119047Y-87535771D01*
X80119047Y-87535771D02*
X80214285Y-87583390D01*
X80214285Y-87583390D02*
X80261904Y-87631009D01*
X80261904Y-87631009D02*
X80309523Y-87726247D01*
X80309523Y-87726247D02*
X80309523Y-87964342D01*
X80309523Y-87964342D02*
X80261904Y-88059580D01*
X80261904Y-88059580D02*
X80214285Y-88107200D01*
X80214285Y-88107200D02*
X80119047Y-88154819D01*
X80119047Y-88154819D02*
X79833333Y-88154819D01*
X79833333Y-88154819D02*
X79738095Y-88107200D01*
X79738095Y-88107200D02*
X79690476Y-88059580D01*
X81261904Y-88154819D02*
X80690476Y-88154819D01*
X80976190Y-88154819D02*
X80976190Y-87154819D01*
X80976190Y-87154819D02*
X80880952Y-87297676D01*
X80880952Y-87297676D02*
X80785714Y-87392914D01*
X80785714Y-87392914D02*
X80690476Y-87440533D01*
X85390819Y-95642857D02*
X84914628Y-95976190D01*
X85390819Y-96214285D02*
X84390819Y-96214285D01*
X84390819Y-96214285D02*
X84390819Y-95833333D01*
X84390819Y-95833333D02*
X84438438Y-95738095D01*
X84438438Y-95738095D02*
X84486057Y-95690476D01*
X84486057Y-95690476D02*
X84581295Y-95642857D01*
X84581295Y-95642857D02*
X84724152Y-95642857D01*
X84724152Y-95642857D02*
X84819390Y-95690476D01*
X84819390Y-95690476D02*
X84867009Y-95738095D01*
X84867009Y-95738095D02*
X84914628Y-95833333D01*
X84914628Y-95833333D02*
X84914628Y-96214285D01*
X84390819Y-95309523D02*
X84390819Y-94690476D01*
X84390819Y-94690476D02*
X84771771Y-95023809D01*
X84771771Y-95023809D02*
X84771771Y-94880952D01*
X84771771Y-94880952D02*
X84819390Y-94785714D01*
X84819390Y-94785714D02*
X84867009Y-94738095D01*
X84867009Y-94738095D02*
X84962247Y-94690476D01*
X84962247Y-94690476D02*
X85200342Y-94690476D01*
X85200342Y-94690476D02*
X85295580Y-94738095D01*
X85295580Y-94738095D02*
X85343200Y-94785714D01*
X85343200Y-94785714D02*
X85390819Y-94880952D01*
X85390819Y-94880952D02*
X85390819Y-95166666D01*
X85390819Y-95166666D02*
X85343200Y-95261904D01*
X85343200Y-95261904D02*
X85295580Y-95309523D01*
X84486057Y-94309523D02*
X84438438Y-94261904D01*
X84438438Y-94261904D02*
X84390819Y-94166666D01*
X84390819Y-94166666D02*
X84390819Y-93928571D01*
X84390819Y-93928571D02*
X84438438Y-93833333D01*
X84438438Y-93833333D02*
X84486057Y-93785714D01*
X84486057Y-93785714D02*
X84581295Y-93738095D01*
X84581295Y-93738095D02*
X84676533Y-93738095D01*
X84676533Y-93738095D02*
X84819390Y-93785714D01*
X84819390Y-93785714D02*
X85390819Y-94357142D01*
X85390819Y-94357142D02*
X85390819Y-93738095D01*
X79357142Y-2154819D02*
X79023809Y-1678628D01*
X78785714Y-2154819D02*
X78785714Y-1154819D01*
X78785714Y-1154819D02*
X79166666Y-1154819D01*
X79166666Y-1154819D02*
X79261904Y-1202438D01*
X79261904Y-1202438D02*
X79309523Y-1250057D01*
X79309523Y-1250057D02*
X79357142Y-1345295D01*
X79357142Y-1345295D02*
X79357142Y-1488152D01*
X79357142Y-1488152D02*
X79309523Y-1583390D01*
X79309523Y-1583390D02*
X79261904Y-1631009D01*
X79261904Y-1631009D02*
X79166666Y-1678628D01*
X79166666Y-1678628D02*
X78785714Y-1678628D01*
X79690476Y-1154819D02*
X80309523Y-1154819D01*
X80309523Y-1154819D02*
X79976190Y-1535771D01*
X79976190Y-1535771D02*
X80119047Y-1535771D01*
X80119047Y-1535771D02*
X80214285Y-1583390D01*
X80214285Y-1583390D02*
X80261904Y-1631009D01*
X80261904Y-1631009D02*
X80309523Y-1726247D01*
X80309523Y-1726247D02*
X80309523Y-1964342D01*
X80309523Y-1964342D02*
X80261904Y-2059580D01*
X80261904Y-2059580D02*
X80214285Y-2107200D01*
X80214285Y-2107200D02*
X80119047Y-2154819D01*
X80119047Y-2154819D02*
X79833333Y-2154819D01*
X79833333Y-2154819D02*
X79738095Y-2107200D01*
X79738095Y-2107200D02*
X79690476Y-2059580D01*
X80642857Y-1154819D02*
X81261904Y-1154819D01*
X81261904Y-1154819D02*
X80928571Y-1535771D01*
X80928571Y-1535771D02*
X81071428Y-1535771D01*
X81071428Y-1535771D02*
X81166666Y-1583390D01*
X81166666Y-1583390D02*
X81214285Y-1631009D01*
X81214285Y-1631009D02*
X81261904Y-1726247D01*
X81261904Y-1726247D02*
X81261904Y-1964342D01*
X81261904Y-1964342D02*
X81214285Y-2059580D01*
X81214285Y-2059580D02*
X81166666Y-2107200D01*
X81166666Y-2107200D02*
X81071428Y-2154819D01*
X81071428Y-2154819D02*
X80785714Y-2154819D01*
X80785714Y-2154819D02*
X80690476Y-2107200D01*
X80690476Y-2107200D02*
X80642857Y-2059580D01*
X80637142Y-18154819D02*
X80303809Y-17678628D01*
X80065714Y-18154819D02*
X80065714Y-17154819D01*
X80065714Y-17154819D02*
X80446666Y-17154819D01*
X80446666Y-17154819D02*
X80541904Y-17202438D01*
X80541904Y-17202438D02*
X80589523Y-17250057D01*
X80589523Y-17250057D02*
X80637142Y-17345295D01*
X80637142Y-17345295D02*
X80637142Y-17488152D01*
X80637142Y-17488152D02*
X80589523Y-17583390D01*
X80589523Y-17583390D02*
X80541904Y-17631009D01*
X80541904Y-17631009D02*
X80446666Y-17678628D01*
X80446666Y-17678628D02*
X80065714Y-17678628D01*
X80970476Y-17154819D02*
X81589523Y-17154819D01*
X81589523Y-17154819D02*
X81256190Y-17535771D01*
X81256190Y-17535771D02*
X81399047Y-17535771D01*
X81399047Y-17535771D02*
X81494285Y-17583390D01*
X81494285Y-17583390D02*
X81541904Y-17631009D01*
X81541904Y-17631009D02*
X81589523Y-17726247D01*
X81589523Y-17726247D02*
X81589523Y-17964342D01*
X81589523Y-17964342D02*
X81541904Y-18059580D01*
X81541904Y-18059580D02*
X81494285Y-18107200D01*
X81494285Y-18107200D02*
X81399047Y-18154819D01*
X81399047Y-18154819D02*
X81113333Y-18154819D01*
X81113333Y-18154819D02*
X81018095Y-18107200D01*
X81018095Y-18107200D02*
X80970476Y-18059580D01*
X82446666Y-17488152D02*
X82446666Y-18154819D01*
X82208571Y-17107200D02*
X81970476Y-17821485D01*
X81970476Y-17821485D02*
X82589523Y-17821485D01*
X80637142Y-33982819D02*
X80303809Y-33506628D01*
X80065714Y-33982819D02*
X80065714Y-32982819D01*
X80065714Y-32982819D02*
X80446666Y-32982819D01*
X80446666Y-32982819D02*
X80541904Y-33030438D01*
X80541904Y-33030438D02*
X80589523Y-33078057D01*
X80589523Y-33078057D02*
X80637142Y-33173295D01*
X80637142Y-33173295D02*
X80637142Y-33316152D01*
X80637142Y-33316152D02*
X80589523Y-33411390D01*
X80589523Y-33411390D02*
X80541904Y-33459009D01*
X80541904Y-33459009D02*
X80446666Y-33506628D01*
X80446666Y-33506628D02*
X80065714Y-33506628D01*
X80970476Y-32982819D02*
X81589523Y-32982819D01*
X81589523Y-32982819D02*
X81256190Y-33363771D01*
X81256190Y-33363771D02*
X81399047Y-33363771D01*
X81399047Y-33363771D02*
X81494285Y-33411390D01*
X81494285Y-33411390D02*
X81541904Y-33459009D01*
X81541904Y-33459009D02*
X81589523Y-33554247D01*
X81589523Y-33554247D02*
X81589523Y-33792342D01*
X81589523Y-33792342D02*
X81541904Y-33887580D01*
X81541904Y-33887580D02*
X81494285Y-33935200D01*
X81494285Y-33935200D02*
X81399047Y-33982819D01*
X81399047Y-33982819D02*
X81113333Y-33982819D01*
X81113333Y-33982819D02*
X81018095Y-33935200D01*
X81018095Y-33935200D02*
X80970476Y-33887580D01*
X82494285Y-32982819D02*
X82018095Y-32982819D01*
X82018095Y-32982819D02*
X81970476Y-33459009D01*
X81970476Y-33459009D02*
X82018095Y-33411390D01*
X82018095Y-33411390D02*
X82113333Y-33363771D01*
X82113333Y-33363771D02*
X82351428Y-33363771D01*
X82351428Y-33363771D02*
X82446666Y-33411390D01*
X82446666Y-33411390D02*
X82494285Y-33459009D01*
X82494285Y-33459009D02*
X82541904Y-33554247D01*
X82541904Y-33554247D02*
X82541904Y-33792342D01*
X82541904Y-33792342D02*
X82494285Y-33887580D01*
X82494285Y-33887580D02*
X82446666Y-33935200D01*
X82446666Y-33935200D02*
X82351428Y-33982819D01*
X82351428Y-33982819D02*
X82113333Y-33982819D01*
X82113333Y-33982819D02*
X82018095Y-33935200D01*
X82018095Y-33935200D02*
X81970476Y-33887580D01*
X80637142Y-49984819D02*
X80303809Y-49508628D01*
X80065714Y-49984819D02*
X80065714Y-48984819D01*
X80065714Y-48984819D02*
X80446666Y-48984819D01*
X80446666Y-48984819D02*
X80541904Y-49032438D01*
X80541904Y-49032438D02*
X80589523Y-49080057D01*
X80589523Y-49080057D02*
X80637142Y-49175295D01*
X80637142Y-49175295D02*
X80637142Y-49318152D01*
X80637142Y-49318152D02*
X80589523Y-49413390D01*
X80589523Y-49413390D02*
X80541904Y-49461009D01*
X80541904Y-49461009D02*
X80446666Y-49508628D01*
X80446666Y-49508628D02*
X80065714Y-49508628D01*
X80970476Y-48984819D02*
X81589523Y-48984819D01*
X81589523Y-48984819D02*
X81256190Y-49365771D01*
X81256190Y-49365771D02*
X81399047Y-49365771D01*
X81399047Y-49365771D02*
X81494285Y-49413390D01*
X81494285Y-49413390D02*
X81541904Y-49461009D01*
X81541904Y-49461009D02*
X81589523Y-49556247D01*
X81589523Y-49556247D02*
X81589523Y-49794342D01*
X81589523Y-49794342D02*
X81541904Y-49889580D01*
X81541904Y-49889580D02*
X81494285Y-49937200D01*
X81494285Y-49937200D02*
X81399047Y-49984819D01*
X81399047Y-49984819D02*
X81113333Y-49984819D01*
X81113333Y-49984819D02*
X81018095Y-49937200D01*
X81018095Y-49937200D02*
X80970476Y-49889580D01*
X82446666Y-48984819D02*
X82256190Y-48984819D01*
X82256190Y-48984819D02*
X82160952Y-49032438D01*
X82160952Y-49032438D02*
X82113333Y-49080057D01*
X82113333Y-49080057D02*
X82018095Y-49222914D01*
X82018095Y-49222914D02*
X81970476Y-49413390D01*
X81970476Y-49413390D02*
X81970476Y-49794342D01*
X81970476Y-49794342D02*
X82018095Y-49889580D01*
X82018095Y-49889580D02*
X82065714Y-49937200D01*
X82065714Y-49937200D02*
X82160952Y-49984819D01*
X82160952Y-49984819D02*
X82351428Y-49984819D01*
X82351428Y-49984819D02*
X82446666Y-49937200D01*
X82446666Y-49937200D02*
X82494285Y-49889580D01*
X82494285Y-49889580D02*
X82541904Y-49794342D01*
X82541904Y-49794342D02*
X82541904Y-49556247D01*
X82541904Y-49556247D02*
X82494285Y-49461009D01*
X82494285Y-49461009D02*
X82446666Y-49413390D01*
X82446666Y-49413390D02*
X82351428Y-49365771D01*
X82351428Y-49365771D02*
X82160952Y-49365771D01*
X82160952Y-49365771D02*
X82065714Y-49413390D01*
X82065714Y-49413390D02*
X82018095Y-49461009D01*
X82018095Y-49461009D02*
X81970476Y-49556247D01*
X80637142Y-66154819D02*
X80303809Y-65678628D01*
X80065714Y-66154819D02*
X80065714Y-65154819D01*
X80065714Y-65154819D02*
X80446666Y-65154819D01*
X80446666Y-65154819D02*
X80541904Y-65202438D01*
X80541904Y-65202438D02*
X80589523Y-65250057D01*
X80589523Y-65250057D02*
X80637142Y-65345295D01*
X80637142Y-65345295D02*
X80637142Y-65488152D01*
X80637142Y-65488152D02*
X80589523Y-65583390D01*
X80589523Y-65583390D02*
X80541904Y-65631009D01*
X80541904Y-65631009D02*
X80446666Y-65678628D01*
X80446666Y-65678628D02*
X80065714Y-65678628D01*
X80970476Y-65154819D02*
X81589523Y-65154819D01*
X81589523Y-65154819D02*
X81256190Y-65535771D01*
X81256190Y-65535771D02*
X81399047Y-65535771D01*
X81399047Y-65535771D02*
X81494285Y-65583390D01*
X81494285Y-65583390D02*
X81541904Y-65631009D01*
X81541904Y-65631009D02*
X81589523Y-65726247D01*
X81589523Y-65726247D02*
X81589523Y-65964342D01*
X81589523Y-65964342D02*
X81541904Y-66059580D01*
X81541904Y-66059580D02*
X81494285Y-66107200D01*
X81494285Y-66107200D02*
X81399047Y-66154819D01*
X81399047Y-66154819D02*
X81113333Y-66154819D01*
X81113333Y-66154819D02*
X81018095Y-66107200D01*
X81018095Y-66107200D02*
X80970476Y-66059580D01*
X81922857Y-65154819D02*
X82589523Y-65154819D01*
X82589523Y-65154819D02*
X82160952Y-66154819D01*
X80383142Y-82154819D02*
X80049809Y-81678628D01*
X79811714Y-82154819D02*
X79811714Y-81154819D01*
X79811714Y-81154819D02*
X80192666Y-81154819D01*
X80192666Y-81154819D02*
X80287904Y-81202438D01*
X80287904Y-81202438D02*
X80335523Y-81250057D01*
X80335523Y-81250057D02*
X80383142Y-81345295D01*
X80383142Y-81345295D02*
X80383142Y-81488152D01*
X80383142Y-81488152D02*
X80335523Y-81583390D01*
X80335523Y-81583390D02*
X80287904Y-81631009D01*
X80287904Y-81631009D02*
X80192666Y-81678628D01*
X80192666Y-81678628D02*
X79811714Y-81678628D01*
X80716476Y-81154819D02*
X81335523Y-81154819D01*
X81335523Y-81154819D02*
X81002190Y-81535771D01*
X81002190Y-81535771D02*
X81145047Y-81535771D01*
X81145047Y-81535771D02*
X81240285Y-81583390D01*
X81240285Y-81583390D02*
X81287904Y-81631009D01*
X81287904Y-81631009D02*
X81335523Y-81726247D01*
X81335523Y-81726247D02*
X81335523Y-81964342D01*
X81335523Y-81964342D02*
X81287904Y-82059580D01*
X81287904Y-82059580D02*
X81240285Y-82107200D01*
X81240285Y-82107200D02*
X81145047Y-82154819D01*
X81145047Y-82154819D02*
X80859333Y-82154819D01*
X80859333Y-82154819D02*
X80764095Y-82107200D01*
X80764095Y-82107200D02*
X80716476Y-82059580D01*
X81906952Y-81583390D02*
X81811714Y-81535771D01*
X81811714Y-81535771D02*
X81764095Y-81488152D01*
X81764095Y-81488152D02*
X81716476Y-81392914D01*
X81716476Y-81392914D02*
X81716476Y-81345295D01*
X81716476Y-81345295D02*
X81764095Y-81250057D01*
X81764095Y-81250057D02*
X81811714Y-81202438D01*
X81811714Y-81202438D02*
X81906952Y-81154819D01*
X81906952Y-81154819D02*
X82097428Y-81154819D01*
X82097428Y-81154819D02*
X82192666Y-81202438D01*
X82192666Y-81202438D02*
X82240285Y-81250057D01*
X82240285Y-81250057D02*
X82287904Y-81345295D01*
X82287904Y-81345295D02*
X82287904Y-81392914D01*
X82287904Y-81392914D02*
X82240285Y-81488152D01*
X82240285Y-81488152D02*
X82192666Y-81535771D01*
X82192666Y-81535771D02*
X82097428Y-81583390D01*
X82097428Y-81583390D02*
X81906952Y-81583390D01*
X81906952Y-81583390D02*
X81811714Y-81631009D01*
X81811714Y-81631009D02*
X81764095Y-81678628D01*
X81764095Y-81678628D02*
X81716476Y-81773866D01*
X81716476Y-81773866D02*
X81716476Y-81964342D01*
X81716476Y-81964342D02*
X81764095Y-82059580D01*
X81764095Y-82059580D02*
X81811714Y-82107200D01*
X81811714Y-82107200D02*
X81906952Y-82154819D01*
X81906952Y-82154819D02*
X82097428Y-82154819D01*
X82097428Y-82154819D02*
X82192666Y-82107200D01*
X82192666Y-82107200D02*
X82240285Y-82059580D01*
X82240285Y-82059580D02*
X82287904Y-81964342D01*
X82287904Y-81964342D02*
X82287904Y-81773866D01*
X82287904Y-81773866D02*
X82240285Y-81678628D01*
X82240285Y-81678628D02*
X82192666Y-81631009D01*
X82192666Y-81631009D02*
X82097428Y-81583390D01*
X49238095Y-14079819D02*
X49238095Y-14889342D01*
X49238095Y-14889342D02*
X49285714Y-14984580D01*
X49285714Y-14984580D02*
X49333333Y-15032200D01*
X49333333Y-15032200D02*
X49428571Y-15079819D01*
X49428571Y-15079819D02*
X49619047Y-15079819D01*
X49619047Y-15079819D02*
X49714285Y-15032200D01*
X49714285Y-15032200D02*
X49761904Y-14984580D01*
X49761904Y-14984580D02*
X49809523Y-14889342D01*
X49809523Y-14889342D02*
X49809523Y-14079819D01*
X50809523Y-15079819D02*
X50238095Y-15079819D01*
X50523809Y-15079819D02*
X50523809Y-14079819D01*
X50523809Y-14079819D02*
X50428571Y-14222676D01*
X50428571Y-14222676D02*
X50333333Y-14317914D01*
X50333333Y-14317914D02*
X50238095Y-14365533D01*
X49238095Y-74079819D02*
X49238095Y-74889342D01*
X49238095Y-74889342D02*
X49285714Y-74984580D01*
X49285714Y-74984580D02*
X49333333Y-75032200D01*
X49333333Y-75032200D02*
X49428571Y-75079819D01*
X49428571Y-75079819D02*
X49619047Y-75079819D01*
X49619047Y-75079819D02*
X49714285Y-75032200D01*
X49714285Y-75032200D02*
X49761904Y-74984580D01*
X49761904Y-74984580D02*
X49809523Y-74889342D01*
X49809523Y-74889342D02*
X49809523Y-74079819D01*
X50238095Y-74175057D02*
X50285714Y-74127438D01*
X50285714Y-74127438D02*
X50380952Y-74079819D01*
X50380952Y-74079819D02*
X50619047Y-74079819D01*
X50619047Y-74079819D02*
X50714285Y-74127438D01*
X50714285Y-74127438D02*
X50761904Y-74175057D01*
X50761904Y-74175057D02*
X50809523Y-74270295D01*
X50809523Y-74270295D02*
X50809523Y-74365533D01*
X50809523Y-74365533D02*
X50761904Y-74508390D01*
X50761904Y-74508390D02*
X50190476Y-75079819D01*
X50190476Y-75079819D02*
X50809523Y-75079819D01*
X49238095Y-44079819D02*
X49238095Y-44889342D01*
X49238095Y-44889342D02*
X49285714Y-44984580D01*
X49285714Y-44984580D02*
X49333333Y-45032200D01*
X49333333Y-45032200D02*
X49428571Y-45079819D01*
X49428571Y-45079819D02*
X49619047Y-45079819D01*
X49619047Y-45079819D02*
X49714285Y-45032200D01*
X49714285Y-45032200D02*
X49761904Y-44984580D01*
X49761904Y-44984580D02*
X49809523Y-44889342D01*
X49809523Y-44889342D02*
X49809523Y-44079819D01*
X50190476Y-44079819D02*
X50809523Y-44079819D01*
X50809523Y-44079819D02*
X50476190Y-44460771D01*
X50476190Y-44460771D02*
X50619047Y-44460771D01*
X50619047Y-44460771D02*
X50714285Y-44508390D01*
X50714285Y-44508390D02*
X50761904Y-44556009D01*
X50761904Y-44556009D02*
X50809523Y-44651247D01*
X50809523Y-44651247D02*
X50809523Y-44889342D01*
X50809523Y-44889342D02*
X50761904Y-44984580D01*
X50761904Y-44984580D02*
X50714285Y-45032200D01*
X50714285Y-45032200D02*
X50619047Y-45079819D01*
X50619047Y-45079819D02*
X50333333Y-45079819D01*
X50333333Y-45079819D02*
X50238095Y-45032200D01*
X50238095Y-45032200D02*
X50190476Y-44984580D01*
D11*
X3080000Y-13990000D02*
X3811000Y-13990000D01*
X3080000Y-16010000D02*
X3811000Y-16010000D01*
X5270000Y-13990000D02*
X5280000Y-13990000D01*
X5270000Y-16010000D02*
X5280000Y-16010000D01*
X5280000Y-13990000D02*
X5280000Y-14175000D01*
X5280000Y-15825000D02*
X5280000Y-16010000D01*
X3080000Y-29990000D02*
X3811000Y-29990000D01*
X3080000Y-32010000D02*
X3811000Y-32010000D01*
X5270000Y-29990000D02*
X5280000Y-29990000D01*
X5270000Y-32010000D02*
X5280000Y-32010000D01*
X5280000Y-29990000D02*
X5280000Y-30175000D01*
X5280000Y-31825000D02*
X5280000Y-32010000D01*
X3080000Y-45990000D02*
X3811000Y-45990000D01*
X3080000Y-48010000D02*
X3811000Y-48010000D01*
X5270000Y-45990000D02*
X5280000Y-45990000D01*
X5270000Y-48010000D02*
X5280000Y-48010000D01*
X5280000Y-45990000D02*
X5280000Y-46175000D01*
X5280000Y-47825000D02*
X5280000Y-48010000D01*
X3080000Y-61990000D02*
X3811000Y-61990000D01*
X3080000Y-64010000D02*
X3811000Y-64010000D01*
X5270000Y-61990000D02*
X5280000Y-61990000D01*
X5270000Y-64010000D02*
X5280000Y-64010000D01*
X5280000Y-61990000D02*
X5280000Y-62175000D01*
X5280000Y-63825000D02*
X5280000Y-64010000D01*
X3080000Y-77990000D02*
X3811000Y-77990000D01*
X3080000Y-80010000D02*
X3811000Y-80010000D01*
X5270000Y-77990000D02*
X5280000Y-77990000D01*
X5270000Y-80010000D02*
X5280000Y-80010000D01*
X5280000Y-77990000D02*
X5280000Y-78175000D01*
X5280000Y-79825000D02*
X5280000Y-80010000D01*
X3080000Y-93990000D02*
X3811000Y-93990000D01*
X3080000Y-96010000D02*
X3811000Y-96010000D01*
X5270000Y-93990000D02*
X5280000Y-93990000D01*
X5270000Y-96010000D02*
X5280000Y-96010000D01*
X5280000Y-93990000D02*
X5280000Y-94175000D01*
X5280000Y-95825000D02*
X5280000Y-96010000D01*
X94720000Y-14175000D02*
X94720000Y-13990000D01*
X94720000Y-16010000D02*
X94720000Y-15825000D01*
X94730000Y-13990000D02*
X94720000Y-13990000D01*
X94730000Y-16010000D02*
X94720000Y-16010000D01*
X96920000Y-13990000D02*
X96189000Y-13990000D01*
X96920000Y-16010000D02*
X96189000Y-16010000D01*
X94720000Y-30175000D02*
X94720000Y-29990000D01*
X94720000Y-32010000D02*
X94720000Y-31825000D01*
X94730000Y-29990000D02*
X94720000Y-29990000D01*
X94730000Y-32010000D02*
X94720000Y-32010000D01*
X96920000Y-29990000D02*
X96189000Y-29990000D01*
X96920000Y-32010000D02*
X96189000Y-32010000D01*
X94720000Y-46175000D02*
X94720000Y-45990000D01*
X94720000Y-48010000D02*
X94720000Y-47825000D01*
X94730000Y-45990000D02*
X94720000Y-45990000D01*
X94730000Y-48010000D02*
X94720000Y-48010000D01*
X96920000Y-45990000D02*
X96189000Y-45990000D01*
X96920000Y-48010000D02*
X96189000Y-48010000D01*
X94720000Y-62175000D02*
X94720000Y-61990000D01*
X94720000Y-64010000D02*
X94720000Y-63825000D01*
X94730000Y-61990000D02*
X94720000Y-61990000D01*
X94730000Y-64010000D02*
X94720000Y-64010000D01*
X96920000Y-61990000D02*
X96189000Y-61990000D01*
X96920000Y-64010000D02*
X96189000Y-64010000D01*
X94720000Y-78175000D02*
X94720000Y-77990000D01*
X94720000Y-80010000D02*
X94720000Y-79825000D01*
X94730000Y-77990000D02*
X94720000Y-77990000D01*
X94730000Y-80010000D02*
X94720000Y-80010000D01*
X96920000Y-77990000D02*
X96189000Y-77990000D01*
X96920000Y-80010000D02*
X96189000Y-80010000D01*
X94720000Y-94175000D02*
X94720000Y-93990000D01*
X94720000Y-96010000D02*
X94720000Y-95825000D01*
X94730000Y-93990000D02*
X94720000Y-93990000D01*
X94730000Y-96010000D02*
X94720000Y-96010000D01*
X96920000Y-93990000D02*
X96189000Y-93990000D01*
X96920000Y-96010000D02*
X96189000Y-96010000D01*
D10*
X-3500000Y-5200000D02*
X-3500000Y-8800000D01*
X0Y-1000000D02*
X14000000Y-1000000D01*
X0Y-5200000D02*
X-3500000Y-5200000D01*
X0Y-8800000D02*
X-3500000Y-8800000D01*
X0Y-12500000D02*
X0Y-1000000D01*
X14000000Y-1000000D02*
X14000000Y-12500000D01*
X14000000Y-12500000D02*
X0Y-12500000D01*
X-3500000Y-37200000D02*
X-3500000Y-40800000D01*
X0Y-33000000D02*
X14000000Y-33000000D01*
X0Y-37200000D02*
X-3500000Y-37200000D01*
X0Y-40800000D02*
X-3500000Y-40800000D01*
X0Y-44500000D02*
X0Y-33000000D01*
X14000000Y-33000000D02*
X14000000Y-44500000D01*
X14000000Y-44500000D02*
X0Y-44500000D01*
X-3500000Y-53200000D02*
X-3500000Y-56800000D01*
X0Y-49000000D02*
X14000000Y-49000000D01*
X0Y-53200000D02*
X-3500000Y-53200000D01*
X0Y-56800000D02*
X-3500000Y-56800000D01*
X0Y-60500000D02*
X0Y-49000000D01*
X14000000Y-49000000D02*
X14000000Y-60500000D01*
X14000000Y-60500000D02*
X0Y-60500000D01*
X-3500000Y-69200000D02*
X-3500000Y-72800000D01*
X0Y-65000000D02*
X14000000Y-65000000D01*
X0Y-69200000D02*
X-3500000Y-69200000D01*
X0Y-72800000D02*
X-3500000Y-72800000D01*
X0Y-76500000D02*
X0Y-65000000D01*
X14000000Y-65000000D02*
X14000000Y-76500000D01*
X14000000Y-76500000D02*
X0Y-76500000D01*
X-3500000Y-85200000D02*
X-3500000Y-88800000D01*
X0Y-81000000D02*
X14000000Y-81000000D01*
X0Y-85200000D02*
X-3500000Y-85200000D01*
X0Y-88800000D02*
X-3500000Y-88800000D01*
X0Y-92500000D02*
X0Y-81000000D01*
X14000000Y-81000000D02*
X14000000Y-92500000D01*
X14000000Y-92500000D02*
X0Y-92500000D01*
D11*
X26670000Y-16670000D02*
X28000000Y-16670000D01*
X26670000Y-18000000D02*
X26670000Y-16670000D01*
X26670000Y-19270000D02*
X26670000Y-37110000D01*
X26670000Y-19270000D02*
X29330000Y-19270000D01*
X26670000Y-37110000D02*
X29330000Y-37110000D01*
X29330000Y-19270000D02*
X29330000Y-37110000D01*
X26670000Y-66670000D02*
X28000000Y-66670000D01*
X26670000Y-68000000D02*
X26670000Y-66670000D01*
X26670000Y-69270000D02*
X26670000Y-87110000D01*
X26670000Y-69270000D02*
X29330000Y-69270000D01*
X26670000Y-87110000D02*
X29330000Y-87110000D01*
X29330000Y-69270000D02*
X29330000Y-87110000D01*
X66670000Y-16670000D02*
X68000000Y-16670000D01*
X66670000Y-18000000D02*
X66670000Y-16670000D01*
X66670000Y-19270000D02*
X66670000Y-37110000D01*
X66670000Y-19270000D02*
X69330000Y-19270000D01*
X66670000Y-37110000D02*
X69330000Y-37110000D01*
X69330000Y-19270000D02*
X69330000Y-37110000D01*
X66670000Y-66670000D02*
X68000000Y-66670000D01*
X66670000Y-68000000D02*
X66670000Y-66670000D01*
X66670000Y-69270000D02*
X66670000Y-87110000D01*
X66670000Y-69270000D02*
X69330000Y-69270000D01*
X66670000Y-87110000D02*
X69330000Y-87110000D01*
X69330000Y-69270000D02*
X69330000Y-87110000D01*
X59670000Y-42670000D02*
X61000000Y-42670000D01*
X59670000Y-44000000D02*
X59670000Y-42670000D01*
X59670000Y-45270000D02*
X59670000Y-63110000D01*
X59670000Y-45270000D02*
X62270000Y-45270000D01*
X59670000Y-63110000D02*
X64870000Y-63110000D01*
X62270000Y-42670000D02*
X64870000Y-42670000D01*
X62270000Y-45270000D02*
X62270000Y-42670000D01*
X64870000Y-42670000D02*
X64870000Y-63110000D01*
X30670000Y-42670000D02*
X32000000Y-42670000D01*
X30670000Y-44000000D02*
X30670000Y-42670000D01*
X30670000Y-45270000D02*
X30670000Y-63110000D01*
X30670000Y-45270000D02*
X33330000Y-45270000D01*
X30670000Y-63110000D02*
X33330000Y-63110000D01*
X33330000Y-45270000D02*
X33330000Y-63110000D01*
X70670000Y-42670000D02*
X72000000Y-42670000D01*
X70670000Y-44000000D02*
X70670000Y-42670000D01*
X70670000Y-45270000D02*
X70670000Y-63110000D01*
X70670000Y-45270000D02*
X73330000Y-45270000D01*
X70670000Y-63110000D02*
X73330000Y-63110000D01*
X73330000Y-45270000D02*
X73330000Y-63110000D01*
D10*
X86000000Y-1500000D02*
X100000000Y-1500000D01*
X86000000Y-13000000D02*
X86000000Y-1500000D01*
X100000000Y-1500000D02*
X100000000Y-13000000D01*
X100000000Y-5200000D02*
X103500000Y-5200000D01*
X100000000Y-8800000D02*
X103500000Y-8800000D01*
X100000000Y-13000000D02*
X86000000Y-13000000D01*
X103500000Y-8800000D02*
X103500000Y-5200000D01*
X86000000Y-17500000D02*
X100000000Y-17500000D01*
X86000000Y-29000000D02*
X86000000Y-17500000D01*
X100000000Y-17500000D02*
X100000000Y-29000000D01*
X100000000Y-21200000D02*
X103500000Y-21200000D01*
X100000000Y-24800000D02*
X103500000Y-24800000D01*
X100000000Y-29000000D02*
X86000000Y-29000000D01*
X103500000Y-24800000D02*
X103500000Y-21200000D01*
X86000000Y-33500000D02*
X100000000Y-33500000D01*
X86000000Y-45000000D02*
X86000000Y-33500000D01*
X100000000Y-33500000D02*
X100000000Y-45000000D01*
X100000000Y-37200000D02*
X103500000Y-37200000D01*
X100000000Y-40800000D02*
X103500000Y-40800000D01*
X100000000Y-45000000D02*
X86000000Y-45000000D01*
X103500000Y-40800000D02*
X103500000Y-37200000D01*
X86000000Y-49500000D02*
X100000000Y-49500000D01*
X86000000Y-61000000D02*
X86000000Y-49500000D01*
X100000000Y-49500000D02*
X100000000Y-61000000D01*
X100000000Y-53200000D02*
X103500000Y-53200000D01*
X100000000Y-56800000D02*
X103500000Y-56800000D01*
X100000000Y-61000000D02*
X86000000Y-61000000D01*
X103500000Y-56800000D02*
X103500000Y-53200000D01*
X86000000Y-65500000D02*
X100000000Y-65500000D01*
X86000000Y-77000000D02*
X86000000Y-65500000D01*
X100000000Y-65500000D02*
X100000000Y-77000000D01*
X100000000Y-69200000D02*
X103500000Y-69200000D01*
X100000000Y-72800000D02*
X103500000Y-72800000D01*
X100000000Y-77000000D02*
X86000000Y-77000000D01*
X103500000Y-72800000D02*
X103500000Y-69200000D01*
X86000000Y-81500000D02*
X100000000Y-81500000D01*
X86000000Y-93000000D02*
X86000000Y-81500000D01*
X100000000Y-81500000D02*
X100000000Y-93000000D01*
X100000000Y-85200000D02*
X103500000Y-85200000D01*
X100000000Y-88800000D02*
X103500000Y-88800000D01*
X100000000Y-93000000D02*
X86000000Y-93000000D01*
X103500000Y-88800000D02*
X103500000Y-85200000D01*
X-3500000Y-21200000D02*
X-3500000Y-24800000D01*
X0Y-17000000D02*
X14000000Y-17000000D01*
X0Y-21200000D02*
X-3500000Y-21200000D01*
X0Y-24800000D02*
X-3500000Y-24800000D01*
X0Y-28500000D02*
X0Y-17000000D01*
X14000000Y-17000000D02*
X14000000Y-28500000D01*
X14000000Y-28500000D02*
X0Y-28500000D01*
D11*
X49000000Y-41480000D02*
X51000000Y-41480000D01*
X51000000Y-38520000D02*
X49000000Y-38520000D01*
X39000000Y-21480000D02*
X41000000Y-21480000D01*
X41000000Y-18520000D02*
X39000000Y-18520000D01*
X59000000Y-21480000D02*
X61000000Y-21480000D01*
X61000000Y-18520000D02*
X59000000Y-18520000D01*
X39000000Y-81480000D02*
X41000000Y-81480000D01*
X41000000Y-78520000D02*
X39000000Y-78520000D01*
X59000000Y-81480000D02*
X61000000Y-81480000D01*
X61000000Y-78520000D02*
X59000000Y-78520000D01*
X35450000Y-11000000D02*
X35450000Y-13000000D01*
X35450000Y-13000000D02*
X42750000Y-13000000D01*
X42750000Y-11000000D02*
X35450000Y-11000000D01*
X35450000Y-27000000D02*
X35450000Y-29000000D01*
X35450000Y-29000000D02*
X42750000Y-29000000D01*
X42750000Y-27000000D02*
X35450000Y-27000000D01*
X57250000Y-29000000D02*
X64550000Y-29000000D01*
X64550000Y-27000000D02*
X57250000Y-27000000D01*
X64550000Y-29000000D02*
X64550000Y-27000000D01*
X35450000Y-71000000D02*
X35450000Y-73000000D01*
X35450000Y-73000000D02*
X42750000Y-73000000D01*
X42750000Y-71000000D02*
X35450000Y-71000000D01*
X35450000Y-87000000D02*
X35450000Y-89000000D01*
X35450000Y-89000000D02*
X42750000Y-89000000D01*
X42750000Y-87000000D02*
X35450000Y-87000000D01*
X57250000Y-89000000D02*
X64550000Y-89000000D01*
X64550000Y-87000000D02*
X57250000Y-87000000D01*
X64550000Y-89000000D02*
X64550000Y-87000000D01*
X77240000Y-13420000D02*
X77240000Y-14350000D01*
X77240000Y-13420000D02*
X78700000Y-13420000D01*
X77240000Y-16580000D02*
X77240000Y-15650000D01*
X77240000Y-16580000D02*
X79400000Y-16580000D01*
X77240000Y-29420000D02*
X77240000Y-30350000D01*
X77240000Y-29420000D02*
X78700000Y-29420000D01*
X77240000Y-32580000D02*
X77240000Y-31650000D01*
X77240000Y-32580000D02*
X79400000Y-32580000D01*
X77240000Y-45420000D02*
X77240000Y-46350000D01*
X77240000Y-45420000D02*
X78700000Y-45420000D01*
X77240000Y-48580000D02*
X77240000Y-47650000D01*
X77240000Y-48580000D02*
X79400000Y-48580000D01*
X77240000Y-61420000D02*
X77240000Y-62350000D01*
X77240000Y-61420000D02*
X78700000Y-61420000D01*
X77240000Y-64580000D02*
X77240000Y-63650000D01*
X77240000Y-64580000D02*
X79400000Y-64580000D01*
X77240000Y-77420000D02*
X77240000Y-78350000D01*
X77240000Y-77420000D02*
X78700000Y-77420000D01*
X77240000Y-80580000D02*
X77240000Y-79650000D01*
X77240000Y-80580000D02*
X79400000Y-80580000D01*
X77240000Y-93420000D02*
X77240000Y-94350000D01*
X77240000Y-93420000D02*
X78700000Y-93420000D01*
X77240000Y-96580000D02*
X77240000Y-95650000D01*
X77240000Y-96580000D02*
X79400000Y-96580000D01*
X19000000Y-3780000D02*
X21000000Y-3780000D01*
X21000000Y-6740000D02*
X19000000Y-6740000D01*
X19000000Y-9040000D02*
X21000000Y-9040000D01*
X21000000Y-12000000D02*
X19000000Y-12000000D01*
X19000000Y-14300000D02*
X21000000Y-14300000D01*
X21000000Y-17260000D02*
X19000000Y-17260000D01*
X19000000Y-19560000D02*
X21000000Y-19560000D01*
X21000000Y-22520000D02*
X19000000Y-22520000D01*
X19000000Y-24820000D02*
X21000000Y-24820000D01*
X21000000Y-27780000D02*
X19000000Y-27780000D01*
X19000000Y-30080000D02*
X21000000Y-30080000D01*
X21000000Y-33040000D02*
X19000000Y-33040000D01*
X19000000Y-35340000D02*
X21000000Y-35340000D01*
X21000000Y-38300000D02*
X19000000Y-38300000D01*
X19000000Y-40600000D02*
X21000000Y-40600000D01*
X21000000Y-43560000D02*
X19000000Y-43560000D01*
X19000000Y-45840000D02*
X21000000Y-45840000D01*
X21000000Y-48800000D02*
X19000000Y-48800000D01*
X19000000Y-51120000D02*
X21000000Y-51120000D01*
X21000000Y-54080000D02*
X19000000Y-54080000D01*
X19000000Y-56380000D02*
X21000000Y-56380000D01*
X21000000Y-59340000D02*
X19000000Y-59340000D01*
X19000000Y-61640000D02*
X21000000Y-61640000D01*
X21000000Y-64600000D02*
X19000000Y-64600000D01*
X19000000Y-66900000D02*
X21000000Y-66900000D01*
X21000000Y-69860000D02*
X19000000Y-69860000D01*
X19000000Y-72160000D02*
X21000000Y-72160000D01*
X21000000Y-75120000D02*
X19000000Y-75120000D01*
X19000000Y-77420000D02*
X21000000Y-77420000D01*
X21000000Y-80380000D02*
X19000000Y-80380000D01*
X19000000Y-82680000D02*
X21000000Y-82680000D01*
X21000000Y-85640000D02*
X19000000Y-85640000D01*
X19000000Y-87940000D02*
X21000000Y-87940000D01*
X21000000Y-90900000D02*
X19000000Y-90900000D01*
X19000000Y-93200000D02*
X21000000Y-93200000D01*
X21000000Y-96160000D02*
X19000000Y-96160000D01*
X49038000Y-91992000D02*
X51038000Y-91992000D01*
X51038000Y-94952000D02*
X49038000Y-94952000D01*
X49000000Y-8520000D02*
X51000000Y-8520000D01*
X51000000Y-11480000D02*
X49000000Y-11480000D01*
X79000000Y-8520000D02*
X81000000Y-8520000D01*
X81000000Y-11480000D02*
X79000000Y-11480000D01*
X88000000Y-13520000D02*
X90000000Y-13520000D01*
X90000000Y-16480000D02*
X88000000Y-16480000D01*
X79000000Y-24520000D02*
X81000000Y-24520000D01*
X81000000Y-27480000D02*
X79000000Y-27480000D01*
X88000000Y-29520000D02*
X90000000Y-29520000D01*
X90000000Y-32480000D02*
X88000000Y-32480000D01*
X79000000Y-40520000D02*
X81000000Y-40520000D01*
X81000000Y-43480000D02*
X79000000Y-43480000D01*
X88000000Y-45520000D02*
X90000000Y-45520000D01*
X90000000Y-48480000D02*
X88000000Y-48480000D01*
X79000000Y-56520000D02*
X81000000Y-56520000D01*
X81000000Y-59480000D02*
X79000000Y-59480000D01*
X88000000Y-61520000D02*
X90000000Y-61520000D01*
X90000000Y-64480000D02*
X88000000Y-64480000D01*
X79000000Y-72520000D02*
X81000000Y-72520000D01*
X81000000Y-75480000D02*
X79000000Y-75480000D01*
X88000000Y-77520000D02*
X90000000Y-77520000D01*
X90000000Y-80480000D02*
X88000000Y-80480000D01*
X79000000Y-88520000D02*
X81000000Y-88520000D01*
X81000000Y-91480000D02*
X79000000Y-91480000D01*
X88000000Y-93520000D02*
X90000000Y-93520000D01*
X90000000Y-96480000D02*
X88000000Y-96480000D01*
X79000000Y-2520000D02*
X81000000Y-2520000D01*
X81000000Y-5480000D02*
X79000000Y-5480000D01*
X79000000Y-18520000D02*
X81000000Y-18520000D01*
X81000000Y-21480000D02*
X79000000Y-21480000D01*
X79000000Y-34520000D02*
X81000000Y-34520000D01*
X81000000Y-37480000D02*
X79000000Y-37480000D01*
X79000000Y-50520000D02*
X81000000Y-50520000D01*
X81000000Y-53480000D02*
X79000000Y-53480000D01*
X79000000Y-66520000D02*
X81000000Y-66520000D01*
X81000000Y-69480000D02*
X79000000Y-69480000D01*
X79000000Y-82520000D02*
X81000000Y-82520000D01*
X81000000Y-85480000D02*
X79000000Y-85480000D01*
D10*
X47925000Y-15550000D02*
X47925000Y-15575000D01*
X47925000Y-15550000D02*
X52075000Y-15550000D01*
X47925000Y-15575000D02*
X46550000Y-15575000D01*
X47925000Y-24450000D02*
X47925000Y-24335000D01*
X47925000Y-24450000D02*
X52075000Y-24450000D01*
X52075000Y-15550000D02*
X52075000Y-15665000D01*
X52075000Y-24450000D02*
X52075000Y-24335000D01*
X47925000Y-75550000D02*
X47925000Y-75575000D01*
X47925000Y-75550000D02*
X52075000Y-75550000D01*
X47925000Y-75575000D02*
X46550000Y-75575000D01*
X47925000Y-84450000D02*
X47925000Y-84335000D01*
X47925000Y-84450000D02*
X52075000Y-84450000D01*
X52075000Y-75550000D02*
X52075000Y-75665000D01*
X52075000Y-84450000D02*
X52075000Y-84335000D01*
X47925000Y-45550000D02*
X47925000Y-45575000D01*
X47925000Y-45550000D02*
X52075000Y-45550000D01*
X47925000Y-45575000D02*
X46550000Y-45575000D01*
X47925000Y-54450000D02*
X47925000Y-54335000D01*
X47925000Y-54450000D02*
X52075000Y-54450000D01*
X52075000Y-45550000D02*
X52075000Y-45665000D01*
X52075000Y-54450000D02*
X52075000Y-54335000D01*
M02*
