G04 #@! TF.GenerationSoftware,KiCad,Pcbnew,9.0.0*
G04 #@! TF.CreationDate,2025-02-23T15:51:00-07:00*
G04 #@! TF.ProjectId,Power_Distribution,506f7765-725f-4446-9973-747269627574,rev?*
G04 #@! TF.SameCoordinates,Original*
G04 #@! TF.FileFunction,Legend,Top*
G04 #@! TF.FilePolarity,Positive*
%FSLAX46Y46*%
G04 Gerber Fmt 4.6, Leading zero omitted, Abs format (unit mm)*
G04 Created by KiCad (PCBNEW 9.0.0) date 2025-02-23 15:51:00*
%MOMM*%
%LPD*%
G01*
G04 APERTURE LIST*
%ADD10C,0.150000*%
%ADD11C,0.120000*%
G04 APERTURE END LIST*
D10*
X203105095Y-54683866D02*
X203867000Y-54683866D01*
X204866999Y-55064819D02*
X204295571Y-55064819D01*
X204581285Y-55064819D02*
X204581285Y-54064819D01*
X204581285Y-54064819D02*
X204486047Y-54207676D01*
X204486047Y-54207676D02*
X204390809Y-54302914D01*
X204390809Y-54302914D02*
X204295571Y-54350533D01*
X205247952Y-54160057D02*
X205295571Y-54112438D01*
X205295571Y-54112438D02*
X205390809Y-54064819D01*
X205390809Y-54064819D02*
X205628904Y-54064819D01*
X205628904Y-54064819D02*
X205724142Y-54112438D01*
X205724142Y-54112438D02*
X205771761Y-54160057D01*
X205771761Y-54160057D02*
X205819380Y-54255295D01*
X205819380Y-54255295D02*
X205819380Y-54350533D01*
X205819380Y-54350533D02*
X205771761Y-54493390D01*
X205771761Y-54493390D02*
X205200333Y-55064819D01*
X205200333Y-55064819D02*
X205819380Y-55064819D01*
X206105095Y-54064819D02*
X206438428Y-55064819D01*
X206438428Y-55064819D02*
X206771761Y-54064819D01*
X207105095Y-55064819D02*
X207105095Y-54064819D01*
X207105095Y-54064819D02*
X207343190Y-54064819D01*
X207343190Y-54064819D02*
X207486047Y-54112438D01*
X207486047Y-54112438D02*
X207581285Y-54207676D01*
X207581285Y-54207676D02*
X207628904Y-54302914D01*
X207628904Y-54302914D02*
X207676523Y-54493390D01*
X207676523Y-54493390D02*
X207676523Y-54636247D01*
X207676523Y-54636247D02*
X207628904Y-54826723D01*
X207628904Y-54826723D02*
X207581285Y-54921961D01*
X207581285Y-54921961D02*
X207486047Y-55017200D01*
X207486047Y-55017200D02*
X207343190Y-55064819D01*
X207343190Y-55064819D02*
X207105095Y-55064819D01*
X208676523Y-54969580D02*
X208628904Y-55017200D01*
X208628904Y-55017200D02*
X208486047Y-55064819D01*
X208486047Y-55064819D02*
X208390809Y-55064819D01*
X208390809Y-55064819D02*
X208247952Y-55017200D01*
X208247952Y-55017200D02*
X208152714Y-54921961D01*
X208152714Y-54921961D02*
X208105095Y-54826723D01*
X208105095Y-54826723D02*
X208057476Y-54636247D01*
X208057476Y-54636247D02*
X208057476Y-54493390D01*
X208057476Y-54493390D02*
X208105095Y-54302914D01*
X208105095Y-54302914D02*
X208152714Y-54207676D01*
X208152714Y-54207676D02*
X208247952Y-54112438D01*
X208247952Y-54112438D02*
X208390809Y-54064819D01*
X208390809Y-54064819D02*
X208486047Y-54064819D01*
X208486047Y-54064819D02*
X208628904Y-54112438D01*
X208628904Y-54112438D02*
X208676523Y-54160057D01*
X204676523Y-31966819D02*
X204200333Y-31966819D01*
X204200333Y-31966819D02*
X204152714Y-32443009D01*
X204152714Y-32443009D02*
X204200333Y-32395390D01*
X204200333Y-32395390D02*
X204295571Y-32347771D01*
X204295571Y-32347771D02*
X204533666Y-32347771D01*
X204533666Y-32347771D02*
X204628904Y-32395390D01*
X204628904Y-32395390D02*
X204676523Y-32443009D01*
X204676523Y-32443009D02*
X204724142Y-32538247D01*
X204724142Y-32538247D02*
X204724142Y-32776342D01*
X204724142Y-32776342D02*
X204676523Y-32871580D01*
X204676523Y-32871580D02*
X204628904Y-32919200D01*
X204628904Y-32919200D02*
X204533666Y-32966819D01*
X204533666Y-32966819D02*
X204295571Y-32966819D01*
X204295571Y-32966819D02*
X204200333Y-32919200D01*
X204200333Y-32919200D02*
X204152714Y-32871580D01*
X205009857Y-31966819D02*
X205343190Y-32966819D01*
X205343190Y-32966819D02*
X205676523Y-31966819D01*
X206009857Y-32966819D02*
X206009857Y-31966819D01*
X206009857Y-31966819D02*
X206247952Y-31966819D01*
X206247952Y-31966819D02*
X206390809Y-32014438D01*
X206390809Y-32014438D02*
X206486047Y-32109676D01*
X206486047Y-32109676D02*
X206533666Y-32204914D01*
X206533666Y-32204914D02*
X206581285Y-32395390D01*
X206581285Y-32395390D02*
X206581285Y-32538247D01*
X206581285Y-32538247D02*
X206533666Y-32728723D01*
X206533666Y-32728723D02*
X206486047Y-32823961D01*
X206486047Y-32823961D02*
X206390809Y-32919200D01*
X206390809Y-32919200D02*
X206247952Y-32966819D01*
X206247952Y-32966819D02*
X206009857Y-32966819D01*
X207581285Y-32871580D02*
X207533666Y-32919200D01*
X207533666Y-32919200D02*
X207390809Y-32966819D01*
X207390809Y-32966819D02*
X207295571Y-32966819D01*
X207295571Y-32966819D02*
X207152714Y-32919200D01*
X207152714Y-32919200D02*
X207057476Y-32823961D01*
X207057476Y-32823961D02*
X207009857Y-32728723D01*
X207009857Y-32728723D02*
X206962238Y-32538247D01*
X206962238Y-32538247D02*
X206962238Y-32395390D01*
X206962238Y-32395390D02*
X207009857Y-32204914D01*
X207009857Y-32204914D02*
X207057476Y-32109676D01*
X207057476Y-32109676D02*
X207152714Y-32014438D01*
X207152714Y-32014438D02*
X207295571Y-31966819D01*
X207295571Y-31966819D02*
X207390809Y-31966819D01*
X207390809Y-31966819D02*
X207533666Y-32014438D01*
X207533666Y-32014438D02*
X207581285Y-32062057D01*
X31515833Y-55107080D02*
X31468214Y-55154700D01*
X31468214Y-55154700D02*
X31325357Y-55202319D01*
X31325357Y-55202319D02*
X31230119Y-55202319D01*
X31230119Y-55202319D02*
X31087262Y-55154700D01*
X31087262Y-55154700D02*
X30992024Y-55059461D01*
X30992024Y-55059461D02*
X30944405Y-54964223D01*
X30944405Y-54964223D02*
X30896786Y-54773747D01*
X30896786Y-54773747D02*
X30896786Y-54630890D01*
X30896786Y-54630890D02*
X30944405Y-54440414D01*
X30944405Y-54440414D02*
X30992024Y-54345176D01*
X30992024Y-54345176D02*
X31087262Y-54249938D01*
X31087262Y-54249938D02*
X31230119Y-54202319D01*
X31230119Y-54202319D02*
X31325357Y-54202319D01*
X31325357Y-54202319D02*
X31468214Y-54249938D01*
X31468214Y-54249938D02*
X31515833Y-54297557D01*
X31896786Y-54297557D02*
X31944405Y-54249938D01*
X31944405Y-54249938D02*
X32039643Y-54202319D01*
X32039643Y-54202319D02*
X32277738Y-54202319D01*
X32277738Y-54202319D02*
X32372976Y-54249938D01*
X32372976Y-54249938D02*
X32420595Y-54297557D01*
X32420595Y-54297557D02*
X32468214Y-54392795D01*
X32468214Y-54392795D02*
X32468214Y-54488033D01*
X32468214Y-54488033D02*
X32420595Y-54630890D01*
X32420595Y-54630890D02*
X31849167Y-55202319D01*
X31849167Y-55202319D02*
X32468214Y-55202319D01*
X11515833Y-55107080D02*
X11468214Y-55154700D01*
X11468214Y-55154700D02*
X11325357Y-55202319D01*
X11325357Y-55202319D02*
X11230119Y-55202319D01*
X11230119Y-55202319D02*
X11087262Y-55154700D01*
X11087262Y-55154700D02*
X10992024Y-55059461D01*
X10992024Y-55059461D02*
X10944405Y-54964223D01*
X10944405Y-54964223D02*
X10896786Y-54773747D01*
X10896786Y-54773747D02*
X10896786Y-54630890D01*
X10896786Y-54630890D02*
X10944405Y-54440414D01*
X10944405Y-54440414D02*
X10992024Y-54345176D01*
X10992024Y-54345176D02*
X11087262Y-54249938D01*
X11087262Y-54249938D02*
X11230119Y-54202319D01*
X11230119Y-54202319D02*
X11325357Y-54202319D01*
X11325357Y-54202319D02*
X11468214Y-54249938D01*
X11468214Y-54249938D02*
X11515833Y-54297557D01*
X12468214Y-55202319D02*
X11896786Y-55202319D01*
X12182500Y-55202319D02*
X12182500Y-54202319D01*
X12182500Y-54202319D02*
X12087262Y-54345176D01*
X12087262Y-54345176D02*
X11992024Y-54440414D01*
X11992024Y-54440414D02*
X11896786Y-54488033D01*
X51515833Y-55107080D02*
X51468214Y-55154700D01*
X51468214Y-55154700D02*
X51325357Y-55202319D01*
X51325357Y-55202319D02*
X51230119Y-55202319D01*
X51230119Y-55202319D02*
X51087262Y-55154700D01*
X51087262Y-55154700D02*
X50992024Y-55059461D01*
X50992024Y-55059461D02*
X50944405Y-54964223D01*
X50944405Y-54964223D02*
X50896786Y-54773747D01*
X50896786Y-54773747D02*
X50896786Y-54630890D01*
X50896786Y-54630890D02*
X50944405Y-54440414D01*
X50944405Y-54440414D02*
X50992024Y-54345176D01*
X50992024Y-54345176D02*
X51087262Y-54249938D01*
X51087262Y-54249938D02*
X51230119Y-54202319D01*
X51230119Y-54202319D02*
X51325357Y-54202319D01*
X51325357Y-54202319D02*
X51468214Y-54249938D01*
X51468214Y-54249938D02*
X51515833Y-54297557D01*
X51849167Y-54202319D02*
X52468214Y-54202319D01*
X52468214Y-54202319D02*
X52134881Y-54583271D01*
X52134881Y-54583271D02*
X52277738Y-54583271D01*
X52277738Y-54583271D02*
X52372976Y-54630890D01*
X52372976Y-54630890D02*
X52420595Y-54678509D01*
X52420595Y-54678509D02*
X52468214Y-54773747D01*
X52468214Y-54773747D02*
X52468214Y-55011842D01*
X52468214Y-55011842D02*
X52420595Y-55107080D01*
X52420595Y-55107080D02*
X52372976Y-55154700D01*
X52372976Y-55154700D02*
X52277738Y-55202319D01*
X52277738Y-55202319D02*
X51992024Y-55202319D01*
X51992024Y-55202319D02*
X51896786Y-55154700D01*
X51896786Y-55154700D02*
X51849167Y-55107080D01*
X71515833Y-55107080D02*
X71468214Y-55154700D01*
X71468214Y-55154700D02*
X71325357Y-55202319D01*
X71325357Y-55202319D02*
X71230119Y-55202319D01*
X71230119Y-55202319D02*
X71087262Y-55154700D01*
X71087262Y-55154700D02*
X70992024Y-55059461D01*
X70992024Y-55059461D02*
X70944405Y-54964223D01*
X70944405Y-54964223D02*
X70896786Y-54773747D01*
X70896786Y-54773747D02*
X70896786Y-54630890D01*
X70896786Y-54630890D02*
X70944405Y-54440414D01*
X70944405Y-54440414D02*
X70992024Y-54345176D01*
X70992024Y-54345176D02*
X71087262Y-54249938D01*
X71087262Y-54249938D02*
X71230119Y-54202319D01*
X71230119Y-54202319D02*
X71325357Y-54202319D01*
X71325357Y-54202319D02*
X71468214Y-54249938D01*
X71468214Y-54249938D02*
X71515833Y-54297557D01*
X72372976Y-54535652D02*
X72372976Y-55202319D01*
X72134881Y-54154700D02*
X71896786Y-54868985D01*
X71896786Y-54868985D02*
X72515833Y-54868985D01*
X131515833Y-55107080D02*
X131468214Y-55154700D01*
X131468214Y-55154700D02*
X131325357Y-55202319D01*
X131325357Y-55202319D02*
X131230119Y-55202319D01*
X131230119Y-55202319D02*
X131087262Y-55154700D01*
X131087262Y-55154700D02*
X130992024Y-55059461D01*
X130992024Y-55059461D02*
X130944405Y-54964223D01*
X130944405Y-54964223D02*
X130896786Y-54773747D01*
X130896786Y-54773747D02*
X130896786Y-54630890D01*
X130896786Y-54630890D02*
X130944405Y-54440414D01*
X130944405Y-54440414D02*
X130992024Y-54345176D01*
X130992024Y-54345176D02*
X131087262Y-54249938D01*
X131087262Y-54249938D02*
X131230119Y-54202319D01*
X131230119Y-54202319D02*
X131325357Y-54202319D01*
X131325357Y-54202319D02*
X131468214Y-54249938D01*
X131468214Y-54249938D02*
X131515833Y-54297557D01*
X131849167Y-54202319D02*
X132515833Y-54202319D01*
X132515833Y-54202319D02*
X132087262Y-55202319D01*
X151515833Y-55107080D02*
X151468214Y-55154700D01*
X151468214Y-55154700D02*
X151325357Y-55202319D01*
X151325357Y-55202319D02*
X151230119Y-55202319D01*
X151230119Y-55202319D02*
X151087262Y-55154700D01*
X151087262Y-55154700D02*
X150992024Y-55059461D01*
X150992024Y-55059461D02*
X150944405Y-54964223D01*
X150944405Y-54964223D02*
X150896786Y-54773747D01*
X150896786Y-54773747D02*
X150896786Y-54630890D01*
X150896786Y-54630890D02*
X150944405Y-54440414D01*
X150944405Y-54440414D02*
X150992024Y-54345176D01*
X150992024Y-54345176D02*
X151087262Y-54249938D01*
X151087262Y-54249938D02*
X151230119Y-54202319D01*
X151230119Y-54202319D02*
X151325357Y-54202319D01*
X151325357Y-54202319D02*
X151468214Y-54249938D01*
X151468214Y-54249938D02*
X151515833Y-54297557D01*
X152087262Y-54630890D02*
X151992024Y-54583271D01*
X151992024Y-54583271D02*
X151944405Y-54535652D01*
X151944405Y-54535652D02*
X151896786Y-54440414D01*
X151896786Y-54440414D02*
X151896786Y-54392795D01*
X151896786Y-54392795D02*
X151944405Y-54297557D01*
X151944405Y-54297557D02*
X151992024Y-54249938D01*
X151992024Y-54249938D02*
X152087262Y-54202319D01*
X152087262Y-54202319D02*
X152277738Y-54202319D01*
X152277738Y-54202319D02*
X152372976Y-54249938D01*
X152372976Y-54249938D02*
X152420595Y-54297557D01*
X152420595Y-54297557D02*
X152468214Y-54392795D01*
X152468214Y-54392795D02*
X152468214Y-54440414D01*
X152468214Y-54440414D02*
X152420595Y-54535652D01*
X152420595Y-54535652D02*
X152372976Y-54583271D01*
X152372976Y-54583271D02*
X152277738Y-54630890D01*
X152277738Y-54630890D02*
X152087262Y-54630890D01*
X152087262Y-54630890D02*
X151992024Y-54678509D01*
X151992024Y-54678509D02*
X151944405Y-54726128D01*
X151944405Y-54726128D02*
X151896786Y-54821366D01*
X151896786Y-54821366D02*
X151896786Y-55011842D01*
X151896786Y-55011842D02*
X151944405Y-55107080D01*
X151944405Y-55107080D02*
X151992024Y-55154700D01*
X151992024Y-55154700D02*
X152087262Y-55202319D01*
X152087262Y-55202319D02*
X152277738Y-55202319D01*
X152277738Y-55202319D02*
X152372976Y-55154700D01*
X152372976Y-55154700D02*
X152420595Y-55107080D01*
X152420595Y-55107080D02*
X152468214Y-55011842D01*
X152468214Y-55011842D02*
X152468214Y-54821366D01*
X152468214Y-54821366D02*
X152420595Y-54726128D01*
X152420595Y-54726128D02*
X152372976Y-54678509D01*
X152372976Y-54678509D02*
X152277738Y-54630890D01*
X91515833Y-55107080D02*
X91468214Y-55154700D01*
X91468214Y-55154700D02*
X91325357Y-55202319D01*
X91325357Y-55202319D02*
X91230119Y-55202319D01*
X91230119Y-55202319D02*
X91087262Y-55154700D01*
X91087262Y-55154700D02*
X90992024Y-55059461D01*
X90992024Y-55059461D02*
X90944405Y-54964223D01*
X90944405Y-54964223D02*
X90896786Y-54773747D01*
X90896786Y-54773747D02*
X90896786Y-54630890D01*
X90896786Y-54630890D02*
X90944405Y-54440414D01*
X90944405Y-54440414D02*
X90992024Y-54345176D01*
X90992024Y-54345176D02*
X91087262Y-54249938D01*
X91087262Y-54249938D02*
X91230119Y-54202319D01*
X91230119Y-54202319D02*
X91325357Y-54202319D01*
X91325357Y-54202319D02*
X91468214Y-54249938D01*
X91468214Y-54249938D02*
X91515833Y-54297557D01*
X92420595Y-54202319D02*
X91944405Y-54202319D01*
X91944405Y-54202319D02*
X91896786Y-54678509D01*
X91896786Y-54678509D02*
X91944405Y-54630890D01*
X91944405Y-54630890D02*
X92039643Y-54583271D01*
X92039643Y-54583271D02*
X92277738Y-54583271D01*
X92277738Y-54583271D02*
X92372976Y-54630890D01*
X92372976Y-54630890D02*
X92420595Y-54678509D01*
X92420595Y-54678509D02*
X92468214Y-54773747D01*
X92468214Y-54773747D02*
X92468214Y-55011842D01*
X92468214Y-55011842D02*
X92420595Y-55107080D01*
X92420595Y-55107080D02*
X92372976Y-55154700D01*
X92372976Y-55154700D02*
X92277738Y-55202319D01*
X92277738Y-55202319D02*
X92039643Y-55202319D01*
X92039643Y-55202319D02*
X91944405Y-55154700D01*
X91944405Y-55154700D02*
X91896786Y-55107080D01*
X111515833Y-55107080D02*
X111468214Y-55154700D01*
X111468214Y-55154700D02*
X111325357Y-55202319D01*
X111325357Y-55202319D02*
X111230119Y-55202319D01*
X111230119Y-55202319D02*
X111087262Y-55154700D01*
X111087262Y-55154700D02*
X110992024Y-55059461D01*
X110992024Y-55059461D02*
X110944405Y-54964223D01*
X110944405Y-54964223D02*
X110896786Y-54773747D01*
X110896786Y-54773747D02*
X110896786Y-54630890D01*
X110896786Y-54630890D02*
X110944405Y-54440414D01*
X110944405Y-54440414D02*
X110992024Y-54345176D01*
X110992024Y-54345176D02*
X111087262Y-54249938D01*
X111087262Y-54249938D02*
X111230119Y-54202319D01*
X111230119Y-54202319D02*
X111325357Y-54202319D01*
X111325357Y-54202319D02*
X111468214Y-54249938D01*
X111468214Y-54249938D02*
X111515833Y-54297557D01*
X112372976Y-54202319D02*
X112182500Y-54202319D01*
X112182500Y-54202319D02*
X112087262Y-54249938D01*
X112087262Y-54249938D02*
X112039643Y-54297557D01*
X112039643Y-54297557D02*
X111944405Y-54440414D01*
X111944405Y-54440414D02*
X111896786Y-54630890D01*
X111896786Y-54630890D02*
X111896786Y-55011842D01*
X111896786Y-55011842D02*
X111944405Y-55107080D01*
X111944405Y-55107080D02*
X111992024Y-55154700D01*
X111992024Y-55154700D02*
X112087262Y-55202319D01*
X112087262Y-55202319D02*
X112277738Y-55202319D01*
X112277738Y-55202319D02*
X112372976Y-55154700D01*
X112372976Y-55154700D02*
X112420595Y-55107080D01*
X112420595Y-55107080D02*
X112468214Y-55011842D01*
X112468214Y-55011842D02*
X112468214Y-54773747D01*
X112468214Y-54773747D02*
X112420595Y-54678509D01*
X112420595Y-54678509D02*
X112372976Y-54630890D01*
X112372976Y-54630890D02*
X112277738Y-54583271D01*
X112277738Y-54583271D02*
X112087262Y-54583271D01*
X112087262Y-54583271D02*
X111992024Y-54630890D01*
X111992024Y-54630890D02*
X111944405Y-54678509D01*
X111944405Y-54678509D02*
X111896786Y-54773747D01*
X171903413Y-54236660D02*
X171855794Y-54284280D01*
X171855794Y-54284280D02*
X171712937Y-54331899D01*
X171712937Y-54331899D02*
X171617699Y-54331899D01*
X171617699Y-54331899D02*
X171474842Y-54284280D01*
X171474842Y-54284280D02*
X171379604Y-54189041D01*
X171379604Y-54189041D02*
X171331985Y-54093803D01*
X171331985Y-54093803D02*
X171284366Y-53903327D01*
X171284366Y-53903327D02*
X171284366Y-53760470D01*
X171284366Y-53760470D02*
X171331985Y-53569994D01*
X171331985Y-53569994D02*
X171379604Y-53474756D01*
X171379604Y-53474756D02*
X171474842Y-53379518D01*
X171474842Y-53379518D02*
X171617699Y-53331899D01*
X171617699Y-53331899D02*
X171712937Y-53331899D01*
X171712937Y-53331899D02*
X171855794Y-53379518D01*
X171855794Y-53379518D02*
X171903413Y-53427137D01*
X172379604Y-54331899D02*
X172570080Y-54331899D01*
X172570080Y-54331899D02*
X172665318Y-54284280D01*
X172665318Y-54284280D02*
X172712937Y-54236660D01*
X172712937Y-54236660D02*
X172808175Y-54093803D01*
X172808175Y-54093803D02*
X172855794Y-53903327D01*
X172855794Y-53903327D02*
X172855794Y-53522375D01*
X172855794Y-53522375D02*
X172808175Y-53427137D01*
X172808175Y-53427137D02*
X172760556Y-53379518D01*
X172760556Y-53379518D02*
X172665318Y-53331899D01*
X172665318Y-53331899D02*
X172474842Y-53331899D01*
X172474842Y-53331899D02*
X172379604Y-53379518D01*
X172379604Y-53379518D02*
X172331985Y-53427137D01*
X172331985Y-53427137D02*
X172284366Y-53522375D01*
X172284366Y-53522375D02*
X172284366Y-53760470D01*
X172284366Y-53760470D02*
X172331985Y-53855708D01*
X172331985Y-53855708D02*
X172379604Y-53903327D01*
X172379604Y-53903327D02*
X172474842Y-53950946D01*
X172474842Y-53950946D02*
X172665318Y-53950946D01*
X172665318Y-53950946D02*
X172760556Y-53903327D01*
X172760556Y-53903327D02*
X172808175Y-53855708D01*
X172808175Y-53855708D02*
X172855794Y-53760470D01*
X191308582Y-54241740D02*
X191260963Y-54289360D01*
X191260963Y-54289360D02*
X191118106Y-54336979D01*
X191118106Y-54336979D02*
X191022868Y-54336979D01*
X191022868Y-54336979D02*
X190880011Y-54289360D01*
X190880011Y-54289360D02*
X190784773Y-54194121D01*
X190784773Y-54194121D02*
X190737154Y-54098883D01*
X190737154Y-54098883D02*
X190689535Y-53908407D01*
X190689535Y-53908407D02*
X190689535Y-53765550D01*
X190689535Y-53765550D02*
X190737154Y-53575074D01*
X190737154Y-53575074D02*
X190784773Y-53479836D01*
X190784773Y-53479836D02*
X190880011Y-53384598D01*
X190880011Y-53384598D02*
X191022868Y-53336979D01*
X191022868Y-53336979D02*
X191118106Y-53336979D01*
X191118106Y-53336979D02*
X191260963Y-53384598D01*
X191260963Y-53384598D02*
X191308582Y-53432217D01*
X192260963Y-54336979D02*
X191689535Y-54336979D01*
X191975249Y-54336979D02*
X191975249Y-53336979D01*
X191975249Y-53336979D02*
X191880011Y-53479836D01*
X191880011Y-53479836D02*
X191784773Y-53575074D01*
X191784773Y-53575074D02*
X191689535Y-53622693D01*
X192880011Y-53336979D02*
X192975249Y-53336979D01*
X192975249Y-53336979D02*
X193070487Y-53384598D01*
X193070487Y-53384598D02*
X193118106Y-53432217D01*
X193118106Y-53432217D02*
X193165725Y-53527455D01*
X193165725Y-53527455D02*
X193213344Y-53717931D01*
X193213344Y-53717931D02*
X193213344Y-53956026D01*
X193213344Y-53956026D02*
X193165725Y-54146502D01*
X193165725Y-54146502D02*
X193118106Y-54241740D01*
X193118106Y-54241740D02*
X193070487Y-54289360D01*
X193070487Y-54289360D02*
X192975249Y-54336979D01*
X192975249Y-54336979D02*
X192880011Y-54336979D01*
X192880011Y-54336979D02*
X192784773Y-54289360D01*
X192784773Y-54289360D02*
X192737154Y-54241740D01*
X192737154Y-54241740D02*
X192689535Y-54146502D01*
X192689535Y-54146502D02*
X192641916Y-53956026D01*
X192641916Y-53956026D02*
X192641916Y-53717931D01*
X192641916Y-53717931D02*
X192689535Y-53527455D01*
X192689535Y-53527455D02*
X192737154Y-53432217D01*
X192737154Y-53432217D02*
X192784773Y-53384598D01*
X192784773Y-53384598D02*
X192880011Y-53336979D01*
X172460476Y-73784819D02*
X172460476Y-74499104D01*
X172460476Y-74499104D02*
X172412857Y-74641961D01*
X172412857Y-74641961D02*
X172317619Y-74737200D01*
X172317619Y-74737200D02*
X172174762Y-74784819D01*
X172174762Y-74784819D02*
X172079524Y-74784819D01*
X173460476Y-74784819D02*
X172889048Y-74784819D01*
X173174762Y-74784819D02*
X173174762Y-73784819D01*
X173174762Y-73784819D02*
X173079524Y-73927676D01*
X173079524Y-73927676D02*
X172984286Y-74022914D01*
X172984286Y-74022914D02*
X172889048Y-74070533D01*
X173936667Y-74784819D02*
X174127143Y-74784819D01*
X174127143Y-74784819D02*
X174222381Y-74737200D01*
X174222381Y-74737200D02*
X174270000Y-74689580D01*
X174270000Y-74689580D02*
X174365238Y-74546723D01*
X174365238Y-74546723D02*
X174412857Y-74356247D01*
X174412857Y-74356247D02*
X174412857Y-73975295D01*
X174412857Y-73975295D02*
X174365238Y-73880057D01*
X174365238Y-73880057D02*
X174317619Y-73832438D01*
X174317619Y-73832438D02*
X174222381Y-73784819D01*
X174222381Y-73784819D02*
X174031905Y-73784819D01*
X174031905Y-73784819D02*
X173936667Y-73832438D01*
X173936667Y-73832438D02*
X173889048Y-73880057D01*
X173889048Y-73880057D02*
X173841429Y-73975295D01*
X173841429Y-73975295D02*
X173841429Y-74213390D01*
X173841429Y-74213390D02*
X173889048Y-74308628D01*
X173889048Y-74308628D02*
X173936667Y-74356247D01*
X173936667Y-74356247D02*
X174031905Y-74403866D01*
X174031905Y-74403866D02*
X174222381Y-74403866D01*
X174222381Y-74403866D02*
X174317619Y-74356247D01*
X174317619Y-74356247D02*
X174365238Y-74308628D01*
X174365238Y-74308628D02*
X174412857Y-74213390D01*
X192460476Y-73784819D02*
X192460476Y-74499104D01*
X192460476Y-74499104D02*
X192412857Y-74641961D01*
X192412857Y-74641961D02*
X192317619Y-74737200D01*
X192317619Y-74737200D02*
X192174762Y-74784819D01*
X192174762Y-74784819D02*
X192079524Y-74784819D01*
X192889048Y-73880057D02*
X192936667Y-73832438D01*
X192936667Y-73832438D02*
X193031905Y-73784819D01*
X193031905Y-73784819D02*
X193270000Y-73784819D01*
X193270000Y-73784819D02*
X193365238Y-73832438D01*
X193365238Y-73832438D02*
X193412857Y-73880057D01*
X193412857Y-73880057D02*
X193460476Y-73975295D01*
X193460476Y-73975295D02*
X193460476Y-74070533D01*
X193460476Y-74070533D02*
X193412857Y-74213390D01*
X193412857Y-74213390D02*
X192841429Y-74784819D01*
X192841429Y-74784819D02*
X193460476Y-74784819D01*
X194079524Y-73784819D02*
X194174762Y-73784819D01*
X194174762Y-73784819D02*
X194270000Y-73832438D01*
X194270000Y-73832438D02*
X194317619Y-73880057D01*
X194317619Y-73880057D02*
X194365238Y-73975295D01*
X194365238Y-73975295D02*
X194412857Y-74165771D01*
X194412857Y-74165771D02*
X194412857Y-74403866D01*
X194412857Y-74403866D02*
X194365238Y-74594342D01*
X194365238Y-74594342D02*
X194317619Y-74689580D01*
X194317619Y-74689580D02*
X194270000Y-74737200D01*
X194270000Y-74737200D02*
X194174762Y-74784819D01*
X194174762Y-74784819D02*
X194079524Y-74784819D01*
X194079524Y-74784819D02*
X193984286Y-74737200D01*
X193984286Y-74737200D02*
X193936667Y-74689580D01*
X193936667Y-74689580D02*
X193889048Y-74594342D01*
X193889048Y-74594342D02*
X193841429Y-74403866D01*
X193841429Y-74403866D02*
X193841429Y-74165771D01*
X193841429Y-74165771D02*
X193889048Y-73975295D01*
X193889048Y-73975295D02*
X193936667Y-73880057D01*
X193936667Y-73880057D02*
X193984286Y-73832438D01*
X193984286Y-73832438D02*
X194079524Y-73784819D01*
X152460476Y-73784819D02*
X152460476Y-74499104D01*
X152460476Y-74499104D02*
X152412857Y-74641961D01*
X152412857Y-74641961D02*
X152317619Y-74737200D01*
X152317619Y-74737200D02*
X152174762Y-74784819D01*
X152174762Y-74784819D02*
X152079524Y-74784819D01*
X153460476Y-74784819D02*
X152889048Y-74784819D01*
X153174762Y-74784819D02*
X153174762Y-73784819D01*
X153174762Y-73784819D02*
X153079524Y-73927676D01*
X153079524Y-73927676D02*
X152984286Y-74022914D01*
X152984286Y-74022914D02*
X152889048Y-74070533D01*
X154031905Y-74213390D02*
X153936667Y-74165771D01*
X153936667Y-74165771D02*
X153889048Y-74118152D01*
X153889048Y-74118152D02*
X153841429Y-74022914D01*
X153841429Y-74022914D02*
X153841429Y-73975295D01*
X153841429Y-73975295D02*
X153889048Y-73880057D01*
X153889048Y-73880057D02*
X153936667Y-73832438D01*
X153936667Y-73832438D02*
X154031905Y-73784819D01*
X154031905Y-73784819D02*
X154222381Y-73784819D01*
X154222381Y-73784819D02*
X154317619Y-73832438D01*
X154317619Y-73832438D02*
X154365238Y-73880057D01*
X154365238Y-73880057D02*
X154412857Y-73975295D01*
X154412857Y-73975295D02*
X154412857Y-74022914D01*
X154412857Y-74022914D02*
X154365238Y-74118152D01*
X154365238Y-74118152D02*
X154317619Y-74165771D01*
X154317619Y-74165771D02*
X154222381Y-74213390D01*
X154222381Y-74213390D02*
X154031905Y-74213390D01*
X154031905Y-74213390D02*
X153936667Y-74261009D01*
X153936667Y-74261009D02*
X153889048Y-74308628D01*
X153889048Y-74308628D02*
X153841429Y-74403866D01*
X153841429Y-74403866D02*
X153841429Y-74594342D01*
X153841429Y-74594342D02*
X153889048Y-74689580D01*
X153889048Y-74689580D02*
X153936667Y-74737200D01*
X153936667Y-74737200D02*
X154031905Y-74784819D01*
X154031905Y-74784819D02*
X154222381Y-74784819D01*
X154222381Y-74784819D02*
X154317619Y-74737200D01*
X154317619Y-74737200D02*
X154365238Y-74689580D01*
X154365238Y-74689580D02*
X154412857Y-74594342D01*
X154412857Y-74594342D02*
X154412857Y-74403866D01*
X154412857Y-74403866D02*
X154365238Y-74308628D01*
X154365238Y-74308628D02*
X154317619Y-74261009D01*
X154317619Y-74261009D02*
X154222381Y-74213390D01*
X112460476Y-73784819D02*
X112460476Y-74499104D01*
X112460476Y-74499104D02*
X112412857Y-74641961D01*
X112412857Y-74641961D02*
X112317619Y-74737200D01*
X112317619Y-74737200D02*
X112174762Y-74784819D01*
X112174762Y-74784819D02*
X112079524Y-74784819D01*
X113460476Y-74784819D02*
X112889048Y-74784819D01*
X113174762Y-74784819D02*
X113174762Y-73784819D01*
X113174762Y-73784819D02*
X113079524Y-73927676D01*
X113079524Y-73927676D02*
X112984286Y-74022914D01*
X112984286Y-74022914D02*
X112889048Y-74070533D01*
X114317619Y-73784819D02*
X114127143Y-73784819D01*
X114127143Y-73784819D02*
X114031905Y-73832438D01*
X114031905Y-73832438D02*
X113984286Y-73880057D01*
X113984286Y-73880057D02*
X113889048Y-74022914D01*
X113889048Y-74022914D02*
X113841429Y-74213390D01*
X113841429Y-74213390D02*
X113841429Y-74594342D01*
X113841429Y-74594342D02*
X113889048Y-74689580D01*
X113889048Y-74689580D02*
X113936667Y-74737200D01*
X113936667Y-74737200D02*
X114031905Y-74784819D01*
X114031905Y-74784819D02*
X114222381Y-74784819D01*
X114222381Y-74784819D02*
X114317619Y-74737200D01*
X114317619Y-74737200D02*
X114365238Y-74689580D01*
X114365238Y-74689580D02*
X114412857Y-74594342D01*
X114412857Y-74594342D02*
X114412857Y-74356247D01*
X114412857Y-74356247D02*
X114365238Y-74261009D01*
X114365238Y-74261009D02*
X114317619Y-74213390D01*
X114317619Y-74213390D02*
X114222381Y-74165771D01*
X114222381Y-74165771D02*
X114031905Y-74165771D01*
X114031905Y-74165771D02*
X113936667Y-74213390D01*
X113936667Y-74213390D02*
X113889048Y-74261009D01*
X113889048Y-74261009D02*
X113841429Y-74356247D01*
X12460476Y-73784819D02*
X12460476Y-74499104D01*
X12460476Y-74499104D02*
X12412857Y-74641961D01*
X12412857Y-74641961D02*
X12317619Y-74737200D01*
X12317619Y-74737200D02*
X12174762Y-74784819D01*
X12174762Y-74784819D02*
X12079524Y-74784819D01*
X13460476Y-74784819D02*
X12889048Y-74784819D01*
X13174762Y-74784819D02*
X13174762Y-73784819D01*
X13174762Y-73784819D02*
X13079524Y-73927676D01*
X13079524Y-73927676D02*
X12984286Y-74022914D01*
X12984286Y-74022914D02*
X12889048Y-74070533D01*
X14412857Y-74784819D02*
X13841429Y-74784819D01*
X14127143Y-74784819D02*
X14127143Y-73784819D01*
X14127143Y-73784819D02*
X14031905Y-73927676D01*
X14031905Y-73927676D02*
X13936667Y-74022914D01*
X13936667Y-74022914D02*
X13841429Y-74070533D01*
X52460476Y-73784819D02*
X52460476Y-74499104D01*
X52460476Y-74499104D02*
X52412857Y-74641961D01*
X52412857Y-74641961D02*
X52317619Y-74737200D01*
X52317619Y-74737200D02*
X52174762Y-74784819D01*
X52174762Y-74784819D02*
X52079524Y-74784819D01*
X53460476Y-74784819D02*
X52889048Y-74784819D01*
X53174762Y-74784819D02*
X53174762Y-73784819D01*
X53174762Y-73784819D02*
X53079524Y-73927676D01*
X53079524Y-73927676D02*
X52984286Y-74022914D01*
X52984286Y-74022914D02*
X52889048Y-74070533D01*
X53793810Y-73784819D02*
X54412857Y-73784819D01*
X54412857Y-73784819D02*
X54079524Y-74165771D01*
X54079524Y-74165771D02*
X54222381Y-74165771D01*
X54222381Y-74165771D02*
X54317619Y-74213390D01*
X54317619Y-74213390D02*
X54365238Y-74261009D01*
X54365238Y-74261009D02*
X54412857Y-74356247D01*
X54412857Y-74356247D02*
X54412857Y-74594342D01*
X54412857Y-74594342D02*
X54365238Y-74689580D01*
X54365238Y-74689580D02*
X54317619Y-74737200D01*
X54317619Y-74737200D02*
X54222381Y-74784819D01*
X54222381Y-74784819D02*
X53936667Y-74784819D01*
X53936667Y-74784819D02*
X53841429Y-74737200D01*
X53841429Y-74737200D02*
X53793810Y-74689580D01*
X72460476Y-73784819D02*
X72460476Y-74499104D01*
X72460476Y-74499104D02*
X72412857Y-74641961D01*
X72412857Y-74641961D02*
X72317619Y-74737200D01*
X72317619Y-74737200D02*
X72174762Y-74784819D01*
X72174762Y-74784819D02*
X72079524Y-74784819D01*
X73460476Y-74784819D02*
X72889048Y-74784819D01*
X73174762Y-74784819D02*
X73174762Y-73784819D01*
X73174762Y-73784819D02*
X73079524Y-73927676D01*
X73079524Y-73927676D02*
X72984286Y-74022914D01*
X72984286Y-74022914D02*
X72889048Y-74070533D01*
X74317619Y-74118152D02*
X74317619Y-74784819D01*
X74079524Y-73737200D02*
X73841429Y-74451485D01*
X73841429Y-74451485D02*
X74460476Y-74451485D01*
X92460476Y-73784819D02*
X92460476Y-74499104D01*
X92460476Y-74499104D02*
X92412857Y-74641961D01*
X92412857Y-74641961D02*
X92317619Y-74737200D01*
X92317619Y-74737200D02*
X92174762Y-74784819D01*
X92174762Y-74784819D02*
X92079524Y-74784819D01*
X93460476Y-74784819D02*
X92889048Y-74784819D01*
X93174762Y-74784819D02*
X93174762Y-73784819D01*
X93174762Y-73784819D02*
X93079524Y-73927676D01*
X93079524Y-73927676D02*
X92984286Y-74022914D01*
X92984286Y-74022914D02*
X92889048Y-74070533D01*
X94365238Y-73784819D02*
X93889048Y-73784819D01*
X93889048Y-73784819D02*
X93841429Y-74261009D01*
X93841429Y-74261009D02*
X93889048Y-74213390D01*
X93889048Y-74213390D02*
X93984286Y-74165771D01*
X93984286Y-74165771D02*
X94222381Y-74165771D01*
X94222381Y-74165771D02*
X94317619Y-74213390D01*
X94317619Y-74213390D02*
X94365238Y-74261009D01*
X94365238Y-74261009D02*
X94412857Y-74356247D01*
X94412857Y-74356247D02*
X94412857Y-74594342D01*
X94412857Y-74594342D02*
X94365238Y-74689580D01*
X94365238Y-74689580D02*
X94317619Y-74737200D01*
X94317619Y-74737200D02*
X94222381Y-74784819D01*
X94222381Y-74784819D02*
X93984286Y-74784819D01*
X93984286Y-74784819D02*
X93889048Y-74737200D01*
X93889048Y-74737200D02*
X93841429Y-74689580D01*
X32460476Y-73784819D02*
X32460476Y-74499104D01*
X32460476Y-74499104D02*
X32412857Y-74641961D01*
X32412857Y-74641961D02*
X32317619Y-74737200D01*
X32317619Y-74737200D02*
X32174762Y-74784819D01*
X32174762Y-74784819D02*
X32079524Y-74784819D01*
X33460476Y-74784819D02*
X32889048Y-74784819D01*
X33174762Y-74784819D02*
X33174762Y-73784819D01*
X33174762Y-73784819D02*
X33079524Y-73927676D01*
X33079524Y-73927676D02*
X32984286Y-74022914D01*
X32984286Y-74022914D02*
X32889048Y-74070533D01*
X33841429Y-73880057D02*
X33889048Y-73832438D01*
X33889048Y-73832438D02*
X33984286Y-73784819D01*
X33984286Y-73784819D02*
X34222381Y-73784819D01*
X34222381Y-73784819D02*
X34317619Y-73832438D01*
X34317619Y-73832438D02*
X34365238Y-73880057D01*
X34365238Y-73880057D02*
X34412857Y-73975295D01*
X34412857Y-73975295D02*
X34412857Y-74070533D01*
X34412857Y-74070533D02*
X34365238Y-74213390D01*
X34365238Y-74213390D02*
X33793810Y-74784819D01*
X33793810Y-74784819D02*
X34412857Y-74784819D01*
X132460476Y-73784819D02*
X132460476Y-74499104D01*
X132460476Y-74499104D02*
X132412857Y-74641961D01*
X132412857Y-74641961D02*
X132317619Y-74737200D01*
X132317619Y-74737200D02*
X132174762Y-74784819D01*
X132174762Y-74784819D02*
X132079524Y-74784819D01*
X133460476Y-74784819D02*
X132889048Y-74784819D01*
X133174762Y-74784819D02*
X133174762Y-73784819D01*
X133174762Y-73784819D02*
X133079524Y-73927676D01*
X133079524Y-73927676D02*
X132984286Y-74022914D01*
X132984286Y-74022914D02*
X132889048Y-74070533D01*
X133793810Y-73784819D02*
X134460476Y-73784819D01*
X134460476Y-73784819D02*
X134031905Y-74784819D01*
X207861819Y-44350523D02*
X208576104Y-44350523D01*
X208576104Y-44350523D02*
X208718961Y-44398142D01*
X208718961Y-44398142D02*
X208814200Y-44493380D01*
X208814200Y-44493380D02*
X208861819Y-44636237D01*
X208861819Y-44636237D02*
X208861819Y-44731475D01*
X207957057Y-43921951D02*
X207909438Y-43874332D01*
X207909438Y-43874332D02*
X207861819Y-43779094D01*
X207861819Y-43779094D02*
X207861819Y-43540999D01*
X207861819Y-43540999D02*
X207909438Y-43445761D01*
X207909438Y-43445761D02*
X207957057Y-43398142D01*
X207957057Y-43398142D02*
X208052295Y-43350523D01*
X208052295Y-43350523D02*
X208147533Y-43350523D01*
X208147533Y-43350523D02*
X208290390Y-43398142D01*
X208290390Y-43398142D02*
X208861819Y-43969570D01*
X208861819Y-43969570D02*
X208861819Y-43350523D01*
X208861819Y-42398142D02*
X208861819Y-42969570D01*
X208861819Y-42683856D02*
X207861819Y-42683856D01*
X207861819Y-42683856D02*
X208004676Y-42779094D01*
X208004676Y-42779094D02*
X208099914Y-42874332D01*
X208099914Y-42874332D02*
X208147533Y-42969570D01*
X152936666Y-27784819D02*
X152936666Y-28499104D01*
X152936666Y-28499104D02*
X152889047Y-28641961D01*
X152889047Y-28641961D02*
X152793809Y-28737200D01*
X152793809Y-28737200D02*
X152650952Y-28784819D01*
X152650952Y-28784819D02*
X152555714Y-28784819D01*
X153555714Y-28213390D02*
X153460476Y-28165771D01*
X153460476Y-28165771D02*
X153412857Y-28118152D01*
X153412857Y-28118152D02*
X153365238Y-28022914D01*
X153365238Y-28022914D02*
X153365238Y-27975295D01*
X153365238Y-27975295D02*
X153412857Y-27880057D01*
X153412857Y-27880057D02*
X153460476Y-27832438D01*
X153460476Y-27832438D02*
X153555714Y-27784819D01*
X153555714Y-27784819D02*
X153746190Y-27784819D01*
X153746190Y-27784819D02*
X153841428Y-27832438D01*
X153841428Y-27832438D02*
X153889047Y-27880057D01*
X153889047Y-27880057D02*
X153936666Y-27975295D01*
X153936666Y-27975295D02*
X153936666Y-28022914D01*
X153936666Y-28022914D02*
X153889047Y-28118152D01*
X153889047Y-28118152D02*
X153841428Y-28165771D01*
X153841428Y-28165771D02*
X153746190Y-28213390D01*
X153746190Y-28213390D02*
X153555714Y-28213390D01*
X153555714Y-28213390D02*
X153460476Y-28261009D01*
X153460476Y-28261009D02*
X153412857Y-28308628D01*
X153412857Y-28308628D02*
X153365238Y-28403866D01*
X153365238Y-28403866D02*
X153365238Y-28594342D01*
X153365238Y-28594342D02*
X153412857Y-28689580D01*
X153412857Y-28689580D02*
X153460476Y-28737200D01*
X153460476Y-28737200D02*
X153555714Y-28784819D01*
X153555714Y-28784819D02*
X153746190Y-28784819D01*
X153746190Y-28784819D02*
X153841428Y-28737200D01*
X153841428Y-28737200D02*
X153889047Y-28689580D01*
X153889047Y-28689580D02*
X153936666Y-28594342D01*
X153936666Y-28594342D02*
X153936666Y-28403866D01*
X153936666Y-28403866D02*
X153889047Y-28308628D01*
X153889047Y-28308628D02*
X153841428Y-28261009D01*
X153841428Y-28261009D02*
X153746190Y-28213390D01*
X32936666Y-27784819D02*
X32936666Y-28499104D01*
X32936666Y-28499104D02*
X32889047Y-28641961D01*
X32889047Y-28641961D02*
X32793809Y-28737200D01*
X32793809Y-28737200D02*
X32650952Y-28784819D01*
X32650952Y-28784819D02*
X32555714Y-28784819D01*
X33365238Y-27880057D02*
X33412857Y-27832438D01*
X33412857Y-27832438D02*
X33508095Y-27784819D01*
X33508095Y-27784819D02*
X33746190Y-27784819D01*
X33746190Y-27784819D02*
X33841428Y-27832438D01*
X33841428Y-27832438D02*
X33889047Y-27880057D01*
X33889047Y-27880057D02*
X33936666Y-27975295D01*
X33936666Y-27975295D02*
X33936666Y-28070533D01*
X33936666Y-28070533D02*
X33889047Y-28213390D01*
X33889047Y-28213390D02*
X33317619Y-28784819D01*
X33317619Y-28784819D02*
X33936666Y-28784819D01*
X12936666Y-27784819D02*
X12936666Y-28499104D01*
X12936666Y-28499104D02*
X12889047Y-28641961D01*
X12889047Y-28641961D02*
X12793809Y-28737200D01*
X12793809Y-28737200D02*
X12650952Y-28784819D01*
X12650952Y-28784819D02*
X12555714Y-28784819D01*
X13936666Y-28784819D02*
X13365238Y-28784819D01*
X13650952Y-28784819D02*
X13650952Y-27784819D01*
X13650952Y-27784819D02*
X13555714Y-27927676D01*
X13555714Y-27927676D02*
X13460476Y-28022914D01*
X13460476Y-28022914D02*
X13365238Y-28070533D01*
X192460476Y-27784819D02*
X192460476Y-28499104D01*
X192460476Y-28499104D02*
X192412857Y-28641961D01*
X192412857Y-28641961D02*
X192317619Y-28737200D01*
X192317619Y-28737200D02*
X192174762Y-28784819D01*
X192174762Y-28784819D02*
X192079524Y-28784819D01*
X193460476Y-28784819D02*
X192889048Y-28784819D01*
X193174762Y-28784819D02*
X193174762Y-27784819D01*
X193174762Y-27784819D02*
X193079524Y-27927676D01*
X193079524Y-27927676D02*
X192984286Y-28022914D01*
X192984286Y-28022914D02*
X192889048Y-28070533D01*
X194079524Y-27784819D02*
X194174762Y-27784819D01*
X194174762Y-27784819D02*
X194270000Y-27832438D01*
X194270000Y-27832438D02*
X194317619Y-27880057D01*
X194317619Y-27880057D02*
X194365238Y-27975295D01*
X194365238Y-27975295D02*
X194412857Y-28165771D01*
X194412857Y-28165771D02*
X194412857Y-28403866D01*
X194412857Y-28403866D02*
X194365238Y-28594342D01*
X194365238Y-28594342D02*
X194317619Y-28689580D01*
X194317619Y-28689580D02*
X194270000Y-28737200D01*
X194270000Y-28737200D02*
X194174762Y-28784819D01*
X194174762Y-28784819D02*
X194079524Y-28784819D01*
X194079524Y-28784819D02*
X193984286Y-28737200D01*
X193984286Y-28737200D02*
X193936667Y-28689580D01*
X193936667Y-28689580D02*
X193889048Y-28594342D01*
X193889048Y-28594342D02*
X193841429Y-28403866D01*
X193841429Y-28403866D02*
X193841429Y-28165771D01*
X193841429Y-28165771D02*
X193889048Y-27975295D01*
X193889048Y-27975295D02*
X193936667Y-27880057D01*
X193936667Y-27880057D02*
X193984286Y-27832438D01*
X193984286Y-27832438D02*
X194079524Y-27784819D01*
X172936666Y-27784819D02*
X172936666Y-28499104D01*
X172936666Y-28499104D02*
X172889047Y-28641961D01*
X172889047Y-28641961D02*
X172793809Y-28737200D01*
X172793809Y-28737200D02*
X172650952Y-28784819D01*
X172650952Y-28784819D02*
X172555714Y-28784819D01*
X173460476Y-28784819D02*
X173650952Y-28784819D01*
X173650952Y-28784819D02*
X173746190Y-28737200D01*
X173746190Y-28737200D02*
X173793809Y-28689580D01*
X173793809Y-28689580D02*
X173889047Y-28546723D01*
X173889047Y-28546723D02*
X173936666Y-28356247D01*
X173936666Y-28356247D02*
X173936666Y-27975295D01*
X173936666Y-27975295D02*
X173889047Y-27880057D01*
X173889047Y-27880057D02*
X173841428Y-27832438D01*
X173841428Y-27832438D02*
X173746190Y-27784819D01*
X173746190Y-27784819D02*
X173555714Y-27784819D01*
X173555714Y-27784819D02*
X173460476Y-27832438D01*
X173460476Y-27832438D02*
X173412857Y-27880057D01*
X173412857Y-27880057D02*
X173365238Y-27975295D01*
X173365238Y-27975295D02*
X173365238Y-28213390D01*
X173365238Y-28213390D02*
X173412857Y-28308628D01*
X173412857Y-28308628D02*
X173460476Y-28356247D01*
X173460476Y-28356247D02*
X173555714Y-28403866D01*
X173555714Y-28403866D02*
X173746190Y-28403866D01*
X173746190Y-28403866D02*
X173841428Y-28356247D01*
X173841428Y-28356247D02*
X173889047Y-28308628D01*
X173889047Y-28308628D02*
X173936666Y-28213390D01*
X72936666Y-27784819D02*
X72936666Y-28499104D01*
X72936666Y-28499104D02*
X72889047Y-28641961D01*
X72889047Y-28641961D02*
X72793809Y-28737200D01*
X72793809Y-28737200D02*
X72650952Y-28784819D01*
X72650952Y-28784819D02*
X72555714Y-28784819D01*
X73841428Y-28118152D02*
X73841428Y-28784819D01*
X73603333Y-27737200D02*
X73365238Y-28451485D01*
X73365238Y-28451485D02*
X73984285Y-28451485D01*
X132936666Y-27784819D02*
X132936666Y-28499104D01*
X132936666Y-28499104D02*
X132889047Y-28641961D01*
X132889047Y-28641961D02*
X132793809Y-28737200D01*
X132793809Y-28737200D02*
X132650952Y-28784819D01*
X132650952Y-28784819D02*
X132555714Y-28784819D01*
X133317619Y-27784819D02*
X133984285Y-27784819D01*
X133984285Y-27784819D02*
X133555714Y-28784819D01*
X52936666Y-27784819D02*
X52936666Y-28499104D01*
X52936666Y-28499104D02*
X52889047Y-28641961D01*
X52889047Y-28641961D02*
X52793809Y-28737200D01*
X52793809Y-28737200D02*
X52650952Y-28784819D01*
X52650952Y-28784819D02*
X52555714Y-28784819D01*
X53317619Y-27784819D02*
X53936666Y-27784819D01*
X53936666Y-27784819D02*
X53603333Y-28165771D01*
X53603333Y-28165771D02*
X53746190Y-28165771D01*
X53746190Y-28165771D02*
X53841428Y-28213390D01*
X53841428Y-28213390D02*
X53889047Y-28261009D01*
X53889047Y-28261009D02*
X53936666Y-28356247D01*
X53936666Y-28356247D02*
X53936666Y-28594342D01*
X53936666Y-28594342D02*
X53889047Y-28689580D01*
X53889047Y-28689580D02*
X53841428Y-28737200D01*
X53841428Y-28737200D02*
X53746190Y-28784819D01*
X53746190Y-28784819D02*
X53460476Y-28784819D01*
X53460476Y-28784819D02*
X53365238Y-28737200D01*
X53365238Y-28737200D02*
X53317619Y-28689580D01*
X112936666Y-27784819D02*
X112936666Y-28499104D01*
X112936666Y-28499104D02*
X112889047Y-28641961D01*
X112889047Y-28641961D02*
X112793809Y-28737200D01*
X112793809Y-28737200D02*
X112650952Y-28784819D01*
X112650952Y-28784819D02*
X112555714Y-28784819D01*
X113841428Y-27784819D02*
X113650952Y-27784819D01*
X113650952Y-27784819D02*
X113555714Y-27832438D01*
X113555714Y-27832438D02*
X113508095Y-27880057D01*
X113508095Y-27880057D02*
X113412857Y-28022914D01*
X113412857Y-28022914D02*
X113365238Y-28213390D01*
X113365238Y-28213390D02*
X113365238Y-28594342D01*
X113365238Y-28594342D02*
X113412857Y-28689580D01*
X113412857Y-28689580D02*
X113460476Y-28737200D01*
X113460476Y-28737200D02*
X113555714Y-28784819D01*
X113555714Y-28784819D02*
X113746190Y-28784819D01*
X113746190Y-28784819D02*
X113841428Y-28737200D01*
X113841428Y-28737200D02*
X113889047Y-28689580D01*
X113889047Y-28689580D02*
X113936666Y-28594342D01*
X113936666Y-28594342D02*
X113936666Y-28356247D01*
X113936666Y-28356247D02*
X113889047Y-28261009D01*
X113889047Y-28261009D02*
X113841428Y-28213390D01*
X113841428Y-28213390D02*
X113746190Y-28165771D01*
X113746190Y-28165771D02*
X113555714Y-28165771D01*
X113555714Y-28165771D02*
X113460476Y-28213390D01*
X113460476Y-28213390D02*
X113412857Y-28261009D01*
X113412857Y-28261009D02*
X113365238Y-28356247D01*
X92936666Y-27784819D02*
X92936666Y-28499104D01*
X92936666Y-28499104D02*
X92889047Y-28641961D01*
X92889047Y-28641961D02*
X92793809Y-28737200D01*
X92793809Y-28737200D02*
X92650952Y-28784819D01*
X92650952Y-28784819D02*
X92555714Y-28784819D01*
X93889047Y-27784819D02*
X93412857Y-27784819D01*
X93412857Y-27784819D02*
X93365238Y-28261009D01*
X93365238Y-28261009D02*
X93412857Y-28213390D01*
X93412857Y-28213390D02*
X93508095Y-28165771D01*
X93508095Y-28165771D02*
X93746190Y-28165771D01*
X93746190Y-28165771D02*
X93841428Y-28213390D01*
X93841428Y-28213390D02*
X93889047Y-28261009D01*
X93889047Y-28261009D02*
X93936666Y-28356247D01*
X93936666Y-28356247D02*
X93936666Y-28594342D01*
X93936666Y-28594342D02*
X93889047Y-28689580D01*
X93889047Y-28689580D02*
X93841428Y-28737200D01*
X93841428Y-28737200D02*
X93746190Y-28784819D01*
X93746190Y-28784819D02*
X93508095Y-28784819D01*
X93508095Y-28784819D02*
X93412857Y-28737200D01*
X93412857Y-28737200D02*
X93365238Y-28689580D01*
X22450000Y-35000000D02*
X24000000Y-33450000D01*
X31000000Y-52550000D02*
X22450000Y-52550000D01*
X41550000Y-52550000D02*
X41550000Y-35000000D01*
X22450000Y-52550000D02*
X22450000Y-35000000D01*
X33000000Y-33450000D02*
X40000000Y-33450000D01*
X31000000Y-33450000D02*
X24000000Y-33450000D01*
X40000000Y-33450000D02*
X41550000Y-35000000D01*
X33000000Y-52550000D02*
X41550000Y-52550000D01*
X13000000Y-52550000D02*
X21550000Y-52550000D01*
X2450000Y-52550000D02*
X2450000Y-35000000D01*
X11000000Y-33450000D02*
X4000000Y-33450000D01*
X20000000Y-33450000D02*
X21550000Y-35000000D01*
X21550000Y-52550000D02*
X21550000Y-35000000D01*
X2450000Y-35000000D02*
X4000000Y-33450000D01*
X13000000Y-33450000D02*
X20000000Y-33450000D01*
X11000000Y-52550000D02*
X2450000Y-52550000D01*
X42450000Y-35000000D02*
X44000000Y-33450000D01*
X53000000Y-52550000D02*
X61550000Y-52550000D01*
X42450000Y-52550000D02*
X42450000Y-35000000D01*
X51000000Y-33450000D02*
X44000000Y-33450000D01*
X51000000Y-52550000D02*
X42450000Y-52550000D01*
X61550000Y-52550000D02*
X61550000Y-35000000D01*
X60000000Y-33450000D02*
X61550000Y-35000000D01*
X53000000Y-33450000D02*
X60000000Y-33450000D01*
X73000000Y-52550000D02*
X81550000Y-52550000D01*
X80000000Y-33450000D02*
X81550000Y-35000000D01*
X81550000Y-52550000D02*
X81550000Y-35000000D01*
X62450000Y-35000000D02*
X64000000Y-33450000D01*
X73000000Y-33450000D02*
X80000000Y-33450000D01*
X71000000Y-52550000D02*
X62450000Y-52550000D01*
X62450000Y-52550000D02*
X62450000Y-35000000D01*
X71000000Y-33450000D02*
X64000000Y-33450000D01*
X133000000Y-33450000D02*
X140000000Y-33450000D01*
X140000000Y-33450000D02*
X141550000Y-35000000D01*
X122450000Y-52550000D02*
X122450000Y-35000000D01*
X141550000Y-52550000D02*
X141550000Y-35000000D01*
X122450000Y-35000000D02*
X124000000Y-33450000D01*
X131000000Y-33450000D02*
X124000000Y-33450000D01*
X131000000Y-52550000D02*
X122450000Y-52550000D01*
X133000000Y-52550000D02*
X141550000Y-52550000D01*
X161550000Y-52550000D02*
X161550000Y-35000000D01*
X153000000Y-33450000D02*
X160000000Y-33450000D01*
X160000000Y-33450000D02*
X161550000Y-35000000D01*
X151000000Y-52550000D02*
X142450000Y-52550000D01*
X142450000Y-52550000D02*
X142450000Y-35000000D01*
X153000000Y-52550000D02*
X161550000Y-52550000D01*
X151000000Y-33450000D02*
X144000000Y-33450000D01*
X142450000Y-35000000D02*
X144000000Y-33450000D01*
X93000000Y-52550000D02*
X101550000Y-52550000D01*
X101550000Y-52550000D02*
X101550000Y-35000000D01*
X82450000Y-52550000D02*
X82450000Y-35000000D01*
X82450000Y-35000000D02*
X84000000Y-33450000D01*
X91000000Y-33450000D02*
X84000000Y-33450000D01*
X100000000Y-33450000D02*
X101550000Y-35000000D01*
X93000000Y-33450000D02*
X100000000Y-33450000D01*
X91000000Y-52550000D02*
X82450000Y-52550000D01*
X102450000Y-52550000D02*
X102450000Y-35000000D01*
X121550000Y-52550000D02*
X121550000Y-35000000D01*
X120000000Y-33450000D02*
X121550000Y-35000000D01*
X113000000Y-52550000D02*
X121550000Y-52550000D01*
X111000000Y-33450000D02*
X104000000Y-33450000D01*
X113000000Y-33450000D02*
X120000000Y-33450000D01*
X111000000Y-52550000D02*
X102450000Y-52550000D01*
X102450000Y-35000000D02*
X104000000Y-33450000D01*
X173000000Y-52550000D02*
X181550000Y-52550000D01*
X162450000Y-35000000D02*
X164000000Y-33450000D01*
X171000000Y-52550000D02*
X162450000Y-52550000D01*
X181550000Y-52550000D02*
X181550000Y-35000000D01*
X162450000Y-52550000D02*
X162450000Y-35000000D01*
X171000000Y-33450000D02*
X164000000Y-33450000D01*
X180000000Y-33450000D02*
X181550000Y-35000000D01*
X173000000Y-33450000D02*
X180000000Y-33450000D01*
X193000000Y-52550000D02*
X201550000Y-52550000D01*
X191000000Y-33450000D02*
X184000000Y-33450000D01*
X201550000Y-52550000D02*
X201550000Y-35000000D01*
X191000000Y-52550000D02*
X182450000Y-52550000D01*
X193000000Y-33450000D02*
X200000000Y-33450000D01*
X182450000Y-35000000D02*
X184000000Y-33450000D01*
X200000000Y-33450000D02*
X201550000Y-35000000D01*
X182450000Y-52550000D02*
X182450000Y-35000000D01*
D11*
X175870000Y-60510000D02*
X175870000Y-73330000D01*
X170670000Y-72000000D02*
X170670000Y-73330000D01*
X173270000Y-73330000D02*
X173270000Y-70730000D01*
X170670000Y-73330000D02*
X171940000Y-73330000D01*
X170670000Y-60510000D02*
X175870000Y-60510000D01*
X170670000Y-70730000D02*
X170670000Y-60510000D01*
X173270000Y-70730000D02*
X170670000Y-70730000D01*
X175870000Y-73330000D02*
X173270000Y-73330000D01*
X193270000Y-73330000D02*
X193270000Y-70730000D01*
X193270000Y-70730000D02*
X190670000Y-70730000D01*
X190670000Y-60510000D02*
X195870000Y-60510000D01*
X195870000Y-60510000D02*
X195870000Y-73330000D01*
X190670000Y-70730000D02*
X190670000Y-60510000D01*
X195870000Y-73330000D02*
X193270000Y-73330000D01*
X190670000Y-73330000D02*
X191940000Y-73330000D01*
X190670000Y-72000000D02*
X190670000Y-73330000D01*
X155870000Y-73330000D02*
X153270000Y-73330000D01*
X155870000Y-60510000D02*
X155870000Y-73330000D01*
X150670000Y-73330000D02*
X151940000Y-73330000D01*
X153270000Y-73330000D02*
X153270000Y-70730000D01*
X153270000Y-70730000D02*
X150670000Y-70730000D01*
X150670000Y-60510000D02*
X155870000Y-60510000D01*
X150670000Y-72000000D02*
X150670000Y-73330000D01*
X150670000Y-70730000D02*
X150670000Y-60510000D01*
X113270000Y-70730000D02*
X110670000Y-70730000D01*
X113270000Y-73330000D02*
X113270000Y-70730000D01*
X110670000Y-70730000D02*
X110670000Y-60510000D01*
X115870000Y-60510000D02*
X115870000Y-73330000D01*
X110670000Y-73330000D02*
X111940000Y-73330000D01*
X110670000Y-72000000D02*
X110670000Y-73330000D01*
X110670000Y-60510000D02*
X115870000Y-60510000D01*
X115870000Y-73330000D02*
X113270000Y-73330000D01*
X15870000Y-60510000D02*
X15870000Y-73330000D01*
X13270000Y-70730000D02*
X10670000Y-70730000D01*
X10670000Y-60510000D02*
X15870000Y-60510000D01*
X15870000Y-73330000D02*
X13270000Y-73330000D01*
X10670000Y-73330000D02*
X11940000Y-73330000D01*
X13270000Y-73330000D02*
X13270000Y-70730000D01*
X10670000Y-70730000D02*
X10670000Y-60510000D01*
X10670000Y-72000000D02*
X10670000Y-73330000D01*
X55870000Y-73330000D02*
X53270000Y-73330000D01*
X55870000Y-60510000D02*
X55870000Y-73330000D01*
X53270000Y-70730000D02*
X50670000Y-70730000D01*
X50670000Y-60510000D02*
X55870000Y-60510000D01*
X50670000Y-70730000D02*
X50670000Y-60510000D01*
X53270000Y-73330000D02*
X53270000Y-70730000D01*
X50670000Y-73330000D02*
X51940000Y-73330000D01*
X50670000Y-72000000D02*
X50670000Y-73330000D01*
X73270000Y-70730000D02*
X70670000Y-70730000D01*
X70670000Y-73330000D02*
X71940000Y-73330000D01*
X70670000Y-72000000D02*
X70670000Y-73330000D01*
X70670000Y-70730000D02*
X70670000Y-60510000D01*
X75870000Y-60510000D02*
X75870000Y-73330000D01*
X73270000Y-73330000D02*
X73270000Y-70730000D01*
X70670000Y-60510000D02*
X75870000Y-60510000D01*
X75870000Y-73330000D02*
X73270000Y-73330000D01*
X90670000Y-73330000D02*
X91940000Y-73330000D01*
X95870000Y-60510000D02*
X95870000Y-73330000D01*
X90670000Y-72000000D02*
X90670000Y-73330000D01*
X90670000Y-60510000D02*
X95870000Y-60510000D01*
X93270000Y-73330000D02*
X93270000Y-70730000D01*
X95870000Y-73330000D02*
X93270000Y-73330000D01*
X93270000Y-70730000D02*
X90670000Y-70730000D01*
X90670000Y-70730000D02*
X90670000Y-60510000D01*
X33270000Y-70730000D02*
X30670000Y-70730000D01*
X35870000Y-73330000D02*
X33270000Y-73330000D01*
X35870000Y-60510000D02*
X35870000Y-73330000D01*
X33270000Y-73330000D02*
X33270000Y-70730000D01*
X30670000Y-72000000D02*
X30670000Y-73330000D01*
X30670000Y-73330000D02*
X31940000Y-73330000D01*
X30670000Y-70730000D02*
X30670000Y-60510000D01*
X30670000Y-60510000D02*
X35870000Y-60510000D01*
X135870000Y-73330000D02*
X133270000Y-73330000D01*
X130670000Y-60510000D02*
X135870000Y-60510000D01*
X133270000Y-73330000D02*
X133270000Y-70730000D01*
X130670000Y-70730000D02*
X130670000Y-60510000D01*
X135870000Y-60510000D02*
X135870000Y-73330000D01*
X130670000Y-72000000D02*
X130670000Y-73330000D01*
X130670000Y-73330000D02*
X131940000Y-73330000D01*
X133270000Y-70730000D02*
X130670000Y-70730000D01*
X209677000Y-33401000D02*
X209677000Y-53721000D01*
X209677000Y-33401000D02*
X202057000Y-33401000D01*
X202057000Y-53721000D02*
X209677000Y-53721000D01*
X203327000Y-53721000D02*
X203327000Y-33401000D01*
X202057000Y-33401000D02*
X202057000Y-53721000D01*
X150670000Y-27330000D02*
X151940000Y-27330000D01*
X150670000Y-26000000D02*
X150670000Y-27330000D01*
X150670000Y-6890000D02*
X155870000Y-6890000D01*
X153270000Y-27330000D02*
X153270000Y-24730000D01*
X155870000Y-27330000D02*
X153270000Y-27330000D01*
X153270000Y-24730000D02*
X150670000Y-24730000D01*
X155870000Y-6890000D02*
X155870000Y-27330000D01*
X150670000Y-24730000D02*
X150670000Y-6890000D01*
X30670000Y-26000000D02*
X30670000Y-27330000D01*
X33270000Y-24730000D02*
X30670000Y-24730000D01*
X35870000Y-27330000D02*
X33270000Y-27330000D01*
X30670000Y-27330000D02*
X31940000Y-27330000D01*
X30670000Y-6890000D02*
X35870000Y-6890000D01*
X33270000Y-27330000D02*
X33270000Y-24730000D01*
X35870000Y-6890000D02*
X35870000Y-27330000D01*
X30670000Y-24730000D02*
X30670000Y-6890000D01*
X13270000Y-27330000D02*
X13270000Y-24730000D01*
X10670000Y-6890000D02*
X15870000Y-6890000D01*
X10670000Y-27330000D02*
X11940000Y-27330000D01*
X13270000Y-24730000D02*
X10670000Y-24730000D01*
X10670000Y-26000000D02*
X10670000Y-27330000D01*
X10670000Y-24730000D02*
X10670000Y-6890000D01*
X15870000Y-27330000D02*
X13270000Y-27330000D01*
X15870000Y-6890000D02*
X15870000Y-27330000D01*
X190670000Y-6890000D02*
X195870000Y-6890000D01*
X193270000Y-24730000D02*
X190670000Y-24730000D01*
X190670000Y-27330000D02*
X191940000Y-27330000D01*
X193270000Y-27330000D02*
X193270000Y-24730000D01*
X190670000Y-26000000D02*
X190670000Y-27330000D01*
X195870000Y-27330000D02*
X193270000Y-27330000D01*
X195870000Y-6890000D02*
X195870000Y-27330000D01*
X190670000Y-24730000D02*
X190670000Y-6890000D01*
X170670000Y-6890000D02*
X175870000Y-6890000D01*
X175870000Y-27330000D02*
X173270000Y-27330000D01*
X173270000Y-27330000D02*
X173270000Y-24730000D01*
X175870000Y-6890000D02*
X175870000Y-27330000D01*
X173270000Y-24730000D02*
X170670000Y-24730000D01*
X170670000Y-24730000D02*
X170670000Y-6890000D01*
X170670000Y-27330000D02*
X171940000Y-27330000D01*
X170670000Y-26000000D02*
X170670000Y-27330000D01*
X70670000Y-27330000D02*
X71940000Y-27330000D01*
X75870000Y-27330000D02*
X73270000Y-27330000D01*
X75870000Y-6890000D02*
X75870000Y-27330000D01*
X70670000Y-6890000D02*
X75870000Y-6890000D01*
X70670000Y-24730000D02*
X70670000Y-6890000D01*
X73270000Y-24730000D02*
X70670000Y-24730000D01*
X73270000Y-27330000D02*
X73270000Y-24730000D01*
X70670000Y-26000000D02*
X70670000Y-27330000D01*
X130670000Y-6890000D02*
X135870000Y-6890000D01*
X130670000Y-24730000D02*
X130670000Y-6890000D01*
X135870000Y-6890000D02*
X135870000Y-27330000D01*
X133270000Y-24730000D02*
X130670000Y-24730000D01*
X130670000Y-27330000D02*
X131940000Y-27330000D01*
X133270000Y-27330000D02*
X133270000Y-24730000D01*
X130670000Y-26000000D02*
X130670000Y-27330000D01*
X135870000Y-27330000D02*
X133270000Y-27330000D01*
X50670000Y-27330000D02*
X51940000Y-27330000D01*
X50670000Y-24730000D02*
X50670000Y-6890000D01*
X55870000Y-6890000D02*
X55870000Y-27330000D01*
X55870000Y-27330000D02*
X53270000Y-27330000D01*
X50670000Y-6890000D02*
X55870000Y-6890000D01*
X53270000Y-24730000D02*
X50670000Y-24730000D01*
X53270000Y-27330000D02*
X53270000Y-24730000D01*
X50670000Y-26000000D02*
X50670000Y-27330000D01*
X110670000Y-6890000D02*
X115870000Y-6890000D01*
X110670000Y-27330000D02*
X111940000Y-27330000D01*
X113270000Y-27330000D02*
X113270000Y-24730000D01*
X110670000Y-26000000D02*
X110670000Y-27330000D01*
X110670000Y-24730000D02*
X110670000Y-6890000D01*
X113270000Y-24730000D02*
X110670000Y-24730000D01*
X115870000Y-6890000D02*
X115870000Y-27330000D01*
X115870000Y-27330000D02*
X113270000Y-27330000D01*
X90670000Y-24730000D02*
X90670000Y-6890000D01*
X95870000Y-6890000D02*
X95870000Y-27330000D01*
X90670000Y-27330000D02*
X91940000Y-27330000D01*
X93270000Y-27330000D02*
X93270000Y-24730000D01*
X90670000Y-26000000D02*
X90670000Y-27330000D01*
X90670000Y-6890000D02*
X95870000Y-6890000D01*
X93270000Y-24730000D02*
X90670000Y-24730000D01*
X95870000Y-27330000D02*
X93270000Y-27330000D01*
M02*
