G04 #@! TF.GenerationSoftware,KiCad,Pcbnew,(5.1.5)-3*
G04 #@! TF.CreationDate,2020-11-25T12:51:16-07:00*
G04 #@! TF.ProjectId,Power_Distribution,506f7765-725f-4446-9973-747269627574,rev?*
G04 #@! TF.SameCoordinates,Original*
G04 #@! TF.FileFunction,Legend,Top*
G04 #@! TF.FilePolarity,Positive*
%FSLAX46Y46*%
G04 Gerber Fmt 4.6, Leading zero omitted, Abs format (unit mm)*
G04 Created by KiCad (PCBNEW (5.1.5)-3) date 2020-11-25 12:51:16*
%MOMM*%
%LPD*%
G04 APERTURE LIST*
%ADD10C,0.150000*%
%ADD11C,0.120000*%
G04 APERTURE END LIST*
D10*
X203105095Y-54681428D02*
X203867000Y-54681428D01*
X204867000Y-55062380D02*
X204295571Y-55062380D01*
X204581285Y-55062380D02*
X204581285Y-54062380D01*
X204486047Y-54205238D01*
X204390809Y-54300476D01*
X204295571Y-54348095D01*
X205247952Y-54157619D02*
X205295571Y-54110000D01*
X205390809Y-54062380D01*
X205628904Y-54062380D01*
X205724142Y-54110000D01*
X205771761Y-54157619D01*
X205819380Y-54252857D01*
X205819380Y-54348095D01*
X205771761Y-54490952D01*
X205200333Y-55062380D01*
X205819380Y-55062380D01*
X206105095Y-54062380D02*
X206438428Y-55062380D01*
X206771761Y-54062380D01*
X207105095Y-55062380D02*
X207105095Y-54062380D01*
X207343190Y-54062380D01*
X207486047Y-54110000D01*
X207581285Y-54205238D01*
X207628904Y-54300476D01*
X207676523Y-54490952D01*
X207676523Y-54633809D01*
X207628904Y-54824285D01*
X207581285Y-54919523D01*
X207486047Y-55014761D01*
X207343190Y-55062380D01*
X207105095Y-55062380D01*
X208676523Y-54967142D02*
X208628904Y-55014761D01*
X208486047Y-55062380D01*
X208390809Y-55062380D01*
X208247952Y-55014761D01*
X208152714Y-54919523D01*
X208105095Y-54824285D01*
X208057476Y-54633809D01*
X208057476Y-54490952D01*
X208105095Y-54300476D01*
X208152714Y-54205238D01*
X208247952Y-54110000D01*
X208390809Y-54062380D01*
X208486047Y-54062380D01*
X208628904Y-54110000D01*
X208676523Y-54157619D01*
X204676523Y-31964380D02*
X204200333Y-31964380D01*
X204152714Y-32440571D01*
X204200333Y-32392952D01*
X204295571Y-32345333D01*
X204533666Y-32345333D01*
X204628904Y-32392952D01*
X204676523Y-32440571D01*
X204724142Y-32535809D01*
X204724142Y-32773904D01*
X204676523Y-32869142D01*
X204628904Y-32916761D01*
X204533666Y-32964380D01*
X204295571Y-32964380D01*
X204200333Y-32916761D01*
X204152714Y-32869142D01*
X205009857Y-31964380D02*
X205343190Y-32964380D01*
X205676523Y-31964380D01*
X206009857Y-32964380D02*
X206009857Y-31964380D01*
X206247952Y-31964380D01*
X206390809Y-32012000D01*
X206486047Y-32107238D01*
X206533666Y-32202476D01*
X206581285Y-32392952D01*
X206581285Y-32535809D01*
X206533666Y-32726285D01*
X206486047Y-32821523D01*
X206390809Y-32916761D01*
X206247952Y-32964380D01*
X206009857Y-32964380D01*
X207581285Y-32869142D02*
X207533666Y-32916761D01*
X207390809Y-32964380D01*
X207295571Y-32964380D01*
X207152714Y-32916761D01*
X207057476Y-32821523D01*
X207009857Y-32726285D01*
X206962238Y-32535809D01*
X206962238Y-32392952D01*
X207009857Y-32202476D01*
X207057476Y-32107238D01*
X207152714Y-32012000D01*
X207295571Y-31964380D01*
X207390809Y-31964380D01*
X207533666Y-32012000D01*
X207581285Y-32059619D01*
X33000000Y-52550000D02*
X41550000Y-52550000D01*
X41550000Y-52550000D02*
X41550000Y-35000000D01*
X33000000Y-33450000D02*
X40000000Y-33450000D01*
X40000000Y-33450000D02*
X41550000Y-35000000D01*
X22450000Y-52550000D02*
X22450000Y-35000000D01*
X31000000Y-52550000D02*
X22450000Y-52550000D01*
X22450000Y-35000000D02*
X24000000Y-33450000D01*
X31000000Y-33450000D02*
X24000000Y-33450000D01*
X11000000Y-33450000D02*
X4000000Y-33450000D01*
X2450000Y-35000000D02*
X4000000Y-33450000D01*
X11000000Y-52550000D02*
X2450000Y-52550000D01*
X2450000Y-52550000D02*
X2450000Y-35000000D01*
X20000000Y-33450000D02*
X21550000Y-35000000D01*
X13000000Y-33450000D02*
X20000000Y-33450000D01*
X21550000Y-52550000D02*
X21550000Y-35000000D01*
X13000000Y-52550000D02*
X21550000Y-52550000D01*
X53000000Y-52550000D02*
X61550000Y-52550000D01*
X61550000Y-52550000D02*
X61550000Y-35000000D01*
X53000000Y-33450000D02*
X60000000Y-33450000D01*
X60000000Y-33450000D02*
X61550000Y-35000000D01*
X42450000Y-52550000D02*
X42450000Y-35000000D01*
X51000000Y-52550000D02*
X42450000Y-52550000D01*
X42450000Y-35000000D02*
X44000000Y-33450000D01*
X51000000Y-33450000D02*
X44000000Y-33450000D01*
X73000000Y-52550000D02*
X81550000Y-52550000D01*
X81550000Y-52550000D02*
X81550000Y-35000000D01*
X73000000Y-33450000D02*
X80000000Y-33450000D01*
X80000000Y-33450000D02*
X81550000Y-35000000D01*
X62450000Y-52550000D02*
X62450000Y-35000000D01*
X71000000Y-52550000D02*
X62450000Y-52550000D01*
X62450000Y-35000000D02*
X64000000Y-33450000D01*
X71000000Y-33450000D02*
X64000000Y-33450000D01*
X131000000Y-33450000D02*
X124000000Y-33450000D01*
X122450000Y-35000000D02*
X124000000Y-33450000D01*
X131000000Y-52550000D02*
X122450000Y-52550000D01*
X122450000Y-52550000D02*
X122450000Y-35000000D01*
X140000000Y-33450000D02*
X141550000Y-35000000D01*
X133000000Y-33450000D02*
X140000000Y-33450000D01*
X141550000Y-52550000D02*
X141550000Y-35000000D01*
X133000000Y-52550000D02*
X141550000Y-52550000D01*
X151000000Y-33450000D02*
X144000000Y-33450000D01*
X142450000Y-35000000D02*
X144000000Y-33450000D01*
X151000000Y-52550000D02*
X142450000Y-52550000D01*
X142450000Y-52550000D02*
X142450000Y-35000000D01*
X160000000Y-33450000D02*
X161550000Y-35000000D01*
X153000000Y-33450000D02*
X160000000Y-33450000D01*
X161550000Y-52550000D02*
X161550000Y-35000000D01*
X153000000Y-52550000D02*
X161550000Y-52550000D01*
X93000000Y-52550000D02*
X101550000Y-52550000D01*
X101550000Y-52550000D02*
X101550000Y-35000000D01*
X93000000Y-33450000D02*
X100000000Y-33450000D01*
X100000000Y-33450000D02*
X101550000Y-35000000D01*
X82450000Y-52550000D02*
X82450000Y-35000000D01*
X91000000Y-52550000D02*
X82450000Y-52550000D01*
X82450000Y-35000000D02*
X84000000Y-33450000D01*
X91000000Y-33450000D02*
X84000000Y-33450000D01*
X113000000Y-52550000D02*
X121550000Y-52550000D01*
X121550000Y-52550000D02*
X121550000Y-35000000D01*
X113000000Y-33450000D02*
X120000000Y-33450000D01*
X120000000Y-33450000D02*
X121550000Y-35000000D01*
X102450000Y-52550000D02*
X102450000Y-35000000D01*
X111000000Y-52550000D02*
X102450000Y-52550000D01*
X102450000Y-35000000D02*
X104000000Y-33450000D01*
X111000000Y-33450000D02*
X104000000Y-33450000D01*
X171000000Y-33450000D02*
X164000000Y-33450000D01*
X162450000Y-35000000D02*
X164000000Y-33450000D01*
X171000000Y-52550000D02*
X162450000Y-52550000D01*
X162450000Y-52550000D02*
X162450000Y-35000000D01*
X180000000Y-33450000D02*
X181550000Y-35000000D01*
X173000000Y-33450000D02*
X180000000Y-33450000D01*
X181550000Y-52550000D02*
X181550000Y-35000000D01*
X173000000Y-52550000D02*
X181550000Y-52550000D01*
X191000000Y-33450000D02*
X184000000Y-33450000D01*
X182450000Y-35000000D02*
X184000000Y-33450000D01*
X191000000Y-52550000D02*
X182450000Y-52550000D01*
X182450000Y-52550000D02*
X182450000Y-35000000D01*
X200000000Y-33450000D02*
X201550000Y-35000000D01*
X193000000Y-33450000D02*
X200000000Y-33450000D01*
X201550000Y-52550000D02*
X201550000Y-35000000D01*
X193000000Y-52550000D02*
X201550000Y-52550000D01*
D11*
X10670000Y-27330000D02*
X11940000Y-27330000D01*
X10670000Y-26000000D02*
X10670000Y-27330000D01*
X13270000Y-24730000D02*
X10670000Y-24730000D01*
X13270000Y-27330000D02*
X13270000Y-24730000D01*
X15870000Y-27330000D02*
X13270000Y-27330000D01*
X15870000Y-6890000D02*
X15870000Y-27330000D01*
X10670000Y-6890000D02*
X15870000Y-6890000D01*
X10670000Y-24730000D02*
X10670000Y-6890000D01*
X30670000Y-27330000D02*
X31940000Y-27330000D01*
X30670000Y-26000000D02*
X30670000Y-27330000D01*
X33270000Y-24730000D02*
X30670000Y-24730000D01*
X33270000Y-27330000D02*
X33270000Y-24730000D01*
X35870000Y-27330000D02*
X33270000Y-27330000D01*
X35870000Y-6890000D02*
X35870000Y-27330000D01*
X30670000Y-6890000D02*
X35870000Y-6890000D01*
X30670000Y-24730000D02*
X30670000Y-6890000D01*
X50670000Y-24730000D02*
X50670000Y-6890000D01*
X50670000Y-6890000D02*
X55870000Y-6890000D01*
X55870000Y-6890000D02*
X55870000Y-27330000D01*
X55870000Y-27330000D02*
X53270000Y-27330000D01*
X53270000Y-27330000D02*
X53270000Y-24730000D01*
X53270000Y-24730000D02*
X50670000Y-24730000D01*
X50670000Y-26000000D02*
X50670000Y-27330000D01*
X50670000Y-27330000D02*
X51940000Y-27330000D01*
X70670000Y-27330000D02*
X71940000Y-27330000D01*
X70670000Y-26000000D02*
X70670000Y-27330000D01*
X73270000Y-24730000D02*
X70670000Y-24730000D01*
X73270000Y-27330000D02*
X73270000Y-24730000D01*
X75870000Y-27330000D02*
X73270000Y-27330000D01*
X75870000Y-6890000D02*
X75870000Y-27330000D01*
X70670000Y-6890000D02*
X75870000Y-6890000D01*
X70670000Y-24730000D02*
X70670000Y-6890000D01*
X90670000Y-24730000D02*
X90670000Y-6890000D01*
X90670000Y-6890000D02*
X95870000Y-6890000D01*
X95870000Y-6890000D02*
X95870000Y-27330000D01*
X95870000Y-27330000D02*
X93270000Y-27330000D01*
X93270000Y-27330000D02*
X93270000Y-24730000D01*
X93270000Y-24730000D02*
X90670000Y-24730000D01*
X90670000Y-26000000D02*
X90670000Y-27330000D01*
X90670000Y-27330000D02*
X91940000Y-27330000D01*
X110670000Y-24730000D02*
X110670000Y-6890000D01*
X110670000Y-6890000D02*
X115870000Y-6890000D01*
X115870000Y-6890000D02*
X115870000Y-27330000D01*
X115870000Y-27330000D02*
X113270000Y-27330000D01*
X113270000Y-27330000D02*
X113270000Y-24730000D01*
X113270000Y-24730000D02*
X110670000Y-24730000D01*
X110670000Y-26000000D02*
X110670000Y-27330000D01*
X110670000Y-27330000D02*
X111940000Y-27330000D01*
X130670000Y-27330000D02*
X131940000Y-27330000D01*
X130670000Y-26000000D02*
X130670000Y-27330000D01*
X133270000Y-24730000D02*
X130670000Y-24730000D01*
X133270000Y-27330000D02*
X133270000Y-24730000D01*
X135870000Y-27330000D02*
X133270000Y-27330000D01*
X135870000Y-6890000D02*
X135870000Y-27330000D01*
X130670000Y-6890000D02*
X135870000Y-6890000D01*
X130670000Y-24730000D02*
X130670000Y-6890000D01*
X150670000Y-24730000D02*
X150670000Y-6890000D01*
X150670000Y-6890000D02*
X155870000Y-6890000D01*
X155870000Y-6890000D02*
X155870000Y-27330000D01*
X155870000Y-27330000D02*
X153270000Y-27330000D01*
X153270000Y-27330000D02*
X153270000Y-24730000D01*
X153270000Y-24730000D02*
X150670000Y-24730000D01*
X150670000Y-26000000D02*
X150670000Y-27330000D01*
X150670000Y-27330000D02*
X151940000Y-27330000D01*
X170670000Y-27330000D02*
X171940000Y-27330000D01*
X170670000Y-26000000D02*
X170670000Y-27330000D01*
X173270000Y-24730000D02*
X170670000Y-24730000D01*
X173270000Y-27330000D02*
X173270000Y-24730000D01*
X175870000Y-27330000D02*
X173270000Y-27330000D01*
X175870000Y-6890000D02*
X175870000Y-27330000D01*
X170670000Y-6890000D02*
X175870000Y-6890000D01*
X170670000Y-24730000D02*
X170670000Y-6890000D01*
X190670000Y-24730000D02*
X190670000Y-6890000D01*
X190670000Y-6890000D02*
X195870000Y-6890000D01*
X195870000Y-6890000D02*
X195870000Y-27330000D01*
X195870000Y-27330000D02*
X193270000Y-27330000D01*
X193270000Y-27330000D02*
X193270000Y-24730000D01*
X193270000Y-24730000D02*
X190670000Y-24730000D01*
X190670000Y-26000000D02*
X190670000Y-27330000D01*
X190670000Y-27330000D02*
X191940000Y-27330000D01*
X10670000Y-70730000D02*
X10670000Y-60510000D01*
X10670000Y-60510000D02*
X15870000Y-60510000D01*
X15870000Y-60510000D02*
X15870000Y-73330000D01*
X15870000Y-73330000D02*
X13270000Y-73330000D01*
X13270000Y-73330000D02*
X13270000Y-70730000D01*
X13270000Y-70730000D02*
X10670000Y-70730000D01*
X10670000Y-72000000D02*
X10670000Y-73330000D01*
X10670000Y-73330000D02*
X11940000Y-73330000D01*
X30670000Y-73330000D02*
X31940000Y-73330000D01*
X30670000Y-72000000D02*
X30670000Y-73330000D01*
X33270000Y-70730000D02*
X30670000Y-70730000D01*
X33270000Y-73330000D02*
X33270000Y-70730000D01*
X35870000Y-73330000D02*
X33270000Y-73330000D01*
X35870000Y-60510000D02*
X35870000Y-73330000D01*
X30670000Y-60510000D02*
X35870000Y-60510000D01*
X30670000Y-70730000D02*
X30670000Y-60510000D01*
X50670000Y-70730000D02*
X50670000Y-60510000D01*
X50670000Y-60510000D02*
X55870000Y-60510000D01*
X55870000Y-60510000D02*
X55870000Y-73330000D01*
X55870000Y-73330000D02*
X53270000Y-73330000D01*
X53270000Y-73330000D02*
X53270000Y-70730000D01*
X53270000Y-70730000D02*
X50670000Y-70730000D01*
X50670000Y-72000000D02*
X50670000Y-73330000D01*
X50670000Y-73330000D02*
X51940000Y-73330000D01*
X70670000Y-73330000D02*
X71940000Y-73330000D01*
X70670000Y-72000000D02*
X70670000Y-73330000D01*
X73270000Y-70730000D02*
X70670000Y-70730000D01*
X73270000Y-73330000D02*
X73270000Y-70730000D01*
X75870000Y-73330000D02*
X73270000Y-73330000D01*
X75870000Y-60510000D02*
X75870000Y-73330000D01*
X70670000Y-60510000D02*
X75870000Y-60510000D01*
X70670000Y-70730000D02*
X70670000Y-60510000D01*
X90670000Y-73330000D02*
X91940000Y-73330000D01*
X90670000Y-72000000D02*
X90670000Y-73330000D01*
X93270000Y-70730000D02*
X90670000Y-70730000D01*
X93270000Y-73330000D02*
X93270000Y-70730000D01*
X95870000Y-73330000D02*
X93270000Y-73330000D01*
X95870000Y-60510000D02*
X95870000Y-73330000D01*
X90670000Y-60510000D02*
X95870000Y-60510000D01*
X90670000Y-70730000D02*
X90670000Y-60510000D01*
X110670000Y-73330000D02*
X111940000Y-73330000D01*
X110670000Y-72000000D02*
X110670000Y-73330000D01*
X113270000Y-70730000D02*
X110670000Y-70730000D01*
X113270000Y-73330000D02*
X113270000Y-70730000D01*
X115870000Y-73330000D02*
X113270000Y-73330000D01*
X115870000Y-60510000D02*
X115870000Y-73330000D01*
X110670000Y-60510000D02*
X115870000Y-60510000D01*
X110670000Y-70730000D02*
X110670000Y-60510000D01*
X130670000Y-70730000D02*
X130670000Y-60510000D01*
X130670000Y-60510000D02*
X135870000Y-60510000D01*
X135870000Y-60510000D02*
X135870000Y-73330000D01*
X135870000Y-73330000D02*
X133270000Y-73330000D01*
X133270000Y-73330000D02*
X133270000Y-70730000D01*
X133270000Y-70730000D02*
X130670000Y-70730000D01*
X130670000Y-72000000D02*
X130670000Y-73330000D01*
X130670000Y-73330000D02*
X131940000Y-73330000D01*
X150670000Y-70730000D02*
X150670000Y-60510000D01*
X150670000Y-60510000D02*
X155870000Y-60510000D01*
X155870000Y-60510000D02*
X155870000Y-73330000D01*
X155870000Y-73330000D02*
X153270000Y-73330000D01*
X153270000Y-73330000D02*
X153270000Y-70730000D01*
X153270000Y-70730000D02*
X150670000Y-70730000D01*
X150670000Y-72000000D02*
X150670000Y-73330000D01*
X150670000Y-73330000D02*
X151940000Y-73330000D01*
X170670000Y-73330000D02*
X171940000Y-73330000D01*
X170670000Y-72000000D02*
X170670000Y-73330000D01*
X173270000Y-70730000D02*
X170670000Y-70730000D01*
X173270000Y-73330000D02*
X173270000Y-70730000D01*
X175870000Y-73330000D02*
X173270000Y-73330000D01*
X175870000Y-60510000D02*
X175870000Y-73330000D01*
X170670000Y-60510000D02*
X175870000Y-60510000D01*
X170670000Y-70730000D02*
X170670000Y-60510000D01*
X190670000Y-70730000D02*
X190670000Y-60510000D01*
X190670000Y-60510000D02*
X195870000Y-60510000D01*
X195870000Y-60510000D02*
X195870000Y-73330000D01*
X195870000Y-73330000D02*
X193270000Y-73330000D01*
X193270000Y-73330000D02*
X193270000Y-70730000D01*
X193270000Y-70730000D02*
X190670000Y-70730000D01*
X190670000Y-72000000D02*
X190670000Y-73330000D01*
X190670000Y-73330000D02*
X191940000Y-73330000D01*
X202057000Y-33401000D02*
X202057000Y-53721000D01*
X209677000Y-33401000D02*
X209677000Y-53721000D01*
X203327000Y-53721000D02*
X203327000Y-33401000D01*
X202057000Y-53721000D02*
X209677000Y-53721000D01*
X209677000Y-33401000D02*
X202057000Y-33401000D01*
D10*
X31515833Y-55104642D02*
X31468214Y-55152261D01*
X31325357Y-55199880D01*
X31230119Y-55199880D01*
X31087261Y-55152261D01*
X30992023Y-55057023D01*
X30944404Y-54961785D01*
X30896785Y-54771309D01*
X30896785Y-54628452D01*
X30944404Y-54437976D01*
X30992023Y-54342738D01*
X31087261Y-54247500D01*
X31230119Y-54199880D01*
X31325357Y-54199880D01*
X31468214Y-54247500D01*
X31515833Y-54295119D01*
X31896785Y-54295119D02*
X31944404Y-54247500D01*
X32039642Y-54199880D01*
X32277738Y-54199880D01*
X32372976Y-54247500D01*
X32420595Y-54295119D01*
X32468214Y-54390357D01*
X32468214Y-54485595D01*
X32420595Y-54628452D01*
X31849166Y-55199880D01*
X32468214Y-55199880D01*
X11515833Y-55104642D02*
X11468214Y-55152261D01*
X11325357Y-55199880D01*
X11230119Y-55199880D01*
X11087261Y-55152261D01*
X10992023Y-55057023D01*
X10944404Y-54961785D01*
X10896785Y-54771309D01*
X10896785Y-54628452D01*
X10944404Y-54437976D01*
X10992023Y-54342738D01*
X11087261Y-54247500D01*
X11230119Y-54199880D01*
X11325357Y-54199880D01*
X11468214Y-54247500D01*
X11515833Y-54295119D01*
X12468214Y-55199880D02*
X11896785Y-55199880D01*
X12182500Y-55199880D02*
X12182500Y-54199880D01*
X12087261Y-54342738D01*
X11992023Y-54437976D01*
X11896785Y-54485595D01*
X51515833Y-55104642D02*
X51468214Y-55152261D01*
X51325357Y-55199880D01*
X51230119Y-55199880D01*
X51087261Y-55152261D01*
X50992023Y-55057023D01*
X50944404Y-54961785D01*
X50896785Y-54771309D01*
X50896785Y-54628452D01*
X50944404Y-54437976D01*
X50992023Y-54342738D01*
X51087261Y-54247500D01*
X51230119Y-54199880D01*
X51325357Y-54199880D01*
X51468214Y-54247500D01*
X51515833Y-54295119D01*
X51849166Y-54199880D02*
X52468214Y-54199880D01*
X52134880Y-54580833D01*
X52277738Y-54580833D01*
X52372976Y-54628452D01*
X52420595Y-54676071D01*
X52468214Y-54771309D01*
X52468214Y-55009404D01*
X52420595Y-55104642D01*
X52372976Y-55152261D01*
X52277738Y-55199880D01*
X51992023Y-55199880D01*
X51896785Y-55152261D01*
X51849166Y-55104642D01*
X71515833Y-55104642D02*
X71468214Y-55152261D01*
X71325357Y-55199880D01*
X71230119Y-55199880D01*
X71087261Y-55152261D01*
X70992023Y-55057023D01*
X70944404Y-54961785D01*
X70896785Y-54771309D01*
X70896785Y-54628452D01*
X70944404Y-54437976D01*
X70992023Y-54342738D01*
X71087261Y-54247500D01*
X71230119Y-54199880D01*
X71325357Y-54199880D01*
X71468214Y-54247500D01*
X71515833Y-54295119D01*
X72372976Y-54533214D02*
X72372976Y-55199880D01*
X72134880Y-54152261D02*
X71896785Y-54866547D01*
X72515833Y-54866547D01*
X131515833Y-55104642D02*
X131468214Y-55152261D01*
X131325357Y-55199880D01*
X131230119Y-55199880D01*
X131087261Y-55152261D01*
X130992023Y-55057023D01*
X130944404Y-54961785D01*
X130896785Y-54771309D01*
X130896785Y-54628452D01*
X130944404Y-54437976D01*
X130992023Y-54342738D01*
X131087261Y-54247500D01*
X131230119Y-54199880D01*
X131325357Y-54199880D01*
X131468214Y-54247500D01*
X131515833Y-54295119D01*
X131849166Y-54199880D02*
X132515833Y-54199880D01*
X132087261Y-55199880D01*
X151515833Y-55104642D02*
X151468214Y-55152261D01*
X151325357Y-55199880D01*
X151230119Y-55199880D01*
X151087261Y-55152261D01*
X150992023Y-55057023D01*
X150944404Y-54961785D01*
X150896785Y-54771309D01*
X150896785Y-54628452D01*
X150944404Y-54437976D01*
X150992023Y-54342738D01*
X151087261Y-54247500D01*
X151230119Y-54199880D01*
X151325357Y-54199880D01*
X151468214Y-54247500D01*
X151515833Y-54295119D01*
X152087261Y-54628452D02*
X151992023Y-54580833D01*
X151944404Y-54533214D01*
X151896785Y-54437976D01*
X151896785Y-54390357D01*
X151944404Y-54295119D01*
X151992023Y-54247500D01*
X152087261Y-54199880D01*
X152277738Y-54199880D01*
X152372976Y-54247500D01*
X152420595Y-54295119D01*
X152468214Y-54390357D01*
X152468214Y-54437976D01*
X152420595Y-54533214D01*
X152372976Y-54580833D01*
X152277738Y-54628452D01*
X152087261Y-54628452D01*
X151992023Y-54676071D01*
X151944404Y-54723690D01*
X151896785Y-54818928D01*
X151896785Y-55009404D01*
X151944404Y-55104642D01*
X151992023Y-55152261D01*
X152087261Y-55199880D01*
X152277738Y-55199880D01*
X152372976Y-55152261D01*
X152420595Y-55104642D01*
X152468214Y-55009404D01*
X152468214Y-54818928D01*
X152420595Y-54723690D01*
X152372976Y-54676071D01*
X152277738Y-54628452D01*
X91515833Y-55104642D02*
X91468214Y-55152261D01*
X91325357Y-55199880D01*
X91230119Y-55199880D01*
X91087261Y-55152261D01*
X90992023Y-55057023D01*
X90944404Y-54961785D01*
X90896785Y-54771309D01*
X90896785Y-54628452D01*
X90944404Y-54437976D01*
X90992023Y-54342738D01*
X91087261Y-54247500D01*
X91230119Y-54199880D01*
X91325357Y-54199880D01*
X91468214Y-54247500D01*
X91515833Y-54295119D01*
X92420595Y-54199880D02*
X91944404Y-54199880D01*
X91896785Y-54676071D01*
X91944404Y-54628452D01*
X92039642Y-54580833D01*
X92277738Y-54580833D01*
X92372976Y-54628452D01*
X92420595Y-54676071D01*
X92468214Y-54771309D01*
X92468214Y-55009404D01*
X92420595Y-55104642D01*
X92372976Y-55152261D01*
X92277738Y-55199880D01*
X92039642Y-55199880D01*
X91944404Y-55152261D01*
X91896785Y-55104642D01*
X111515833Y-55104642D02*
X111468214Y-55152261D01*
X111325357Y-55199880D01*
X111230119Y-55199880D01*
X111087261Y-55152261D01*
X110992023Y-55057023D01*
X110944404Y-54961785D01*
X110896785Y-54771309D01*
X110896785Y-54628452D01*
X110944404Y-54437976D01*
X110992023Y-54342738D01*
X111087261Y-54247500D01*
X111230119Y-54199880D01*
X111325357Y-54199880D01*
X111468214Y-54247500D01*
X111515833Y-54295119D01*
X112372976Y-54199880D02*
X112182500Y-54199880D01*
X112087261Y-54247500D01*
X112039642Y-54295119D01*
X111944404Y-54437976D01*
X111896785Y-54628452D01*
X111896785Y-55009404D01*
X111944404Y-55104642D01*
X111992023Y-55152261D01*
X112087261Y-55199880D01*
X112277738Y-55199880D01*
X112372976Y-55152261D01*
X112420595Y-55104642D01*
X112468214Y-55009404D01*
X112468214Y-54771309D01*
X112420595Y-54676071D01*
X112372976Y-54628452D01*
X112277738Y-54580833D01*
X112087261Y-54580833D01*
X111992023Y-54628452D01*
X111944404Y-54676071D01*
X111896785Y-54771309D01*
X171903413Y-54234222D02*
X171855794Y-54281841D01*
X171712937Y-54329460D01*
X171617699Y-54329460D01*
X171474841Y-54281841D01*
X171379603Y-54186603D01*
X171331984Y-54091365D01*
X171284365Y-53900889D01*
X171284365Y-53758032D01*
X171331984Y-53567556D01*
X171379603Y-53472318D01*
X171474841Y-53377080D01*
X171617699Y-53329460D01*
X171712937Y-53329460D01*
X171855794Y-53377080D01*
X171903413Y-53424699D01*
X172379603Y-54329460D02*
X172570080Y-54329460D01*
X172665318Y-54281841D01*
X172712937Y-54234222D01*
X172808175Y-54091365D01*
X172855794Y-53900889D01*
X172855794Y-53519937D01*
X172808175Y-53424699D01*
X172760556Y-53377080D01*
X172665318Y-53329460D01*
X172474841Y-53329460D01*
X172379603Y-53377080D01*
X172331984Y-53424699D01*
X172284365Y-53519937D01*
X172284365Y-53758032D01*
X172331984Y-53853270D01*
X172379603Y-53900889D01*
X172474841Y-53948508D01*
X172665318Y-53948508D01*
X172760556Y-53900889D01*
X172808175Y-53853270D01*
X172855794Y-53758032D01*
X191308582Y-54239302D02*
X191260963Y-54286921D01*
X191118106Y-54334540D01*
X191022868Y-54334540D01*
X190880011Y-54286921D01*
X190784773Y-54191683D01*
X190737154Y-54096445D01*
X190689535Y-53905969D01*
X190689535Y-53763112D01*
X190737154Y-53572636D01*
X190784773Y-53477398D01*
X190880011Y-53382160D01*
X191022868Y-53334540D01*
X191118106Y-53334540D01*
X191260963Y-53382160D01*
X191308582Y-53429779D01*
X192260963Y-54334540D02*
X191689535Y-54334540D01*
X191975249Y-54334540D02*
X191975249Y-53334540D01*
X191880011Y-53477398D01*
X191784773Y-53572636D01*
X191689535Y-53620255D01*
X192880011Y-53334540D02*
X192975249Y-53334540D01*
X193070487Y-53382160D01*
X193118106Y-53429779D01*
X193165725Y-53525017D01*
X193213344Y-53715493D01*
X193213344Y-53953588D01*
X193165725Y-54144064D01*
X193118106Y-54239302D01*
X193070487Y-54286921D01*
X192975249Y-54334540D01*
X192880011Y-54334540D01*
X192784773Y-54286921D01*
X192737154Y-54239302D01*
X192689535Y-54144064D01*
X192641916Y-53953588D01*
X192641916Y-53715493D01*
X192689535Y-53525017D01*
X192737154Y-53429779D01*
X192784773Y-53382160D01*
X192880011Y-53334540D01*
X12936666Y-27782380D02*
X12936666Y-28496666D01*
X12889047Y-28639523D01*
X12793809Y-28734761D01*
X12650952Y-28782380D01*
X12555714Y-28782380D01*
X13936666Y-28782380D02*
X13365238Y-28782380D01*
X13650952Y-28782380D02*
X13650952Y-27782380D01*
X13555714Y-27925238D01*
X13460476Y-28020476D01*
X13365238Y-28068095D01*
X32936666Y-27782380D02*
X32936666Y-28496666D01*
X32889047Y-28639523D01*
X32793809Y-28734761D01*
X32650952Y-28782380D01*
X32555714Y-28782380D01*
X33365238Y-27877619D02*
X33412857Y-27830000D01*
X33508095Y-27782380D01*
X33746190Y-27782380D01*
X33841428Y-27830000D01*
X33889047Y-27877619D01*
X33936666Y-27972857D01*
X33936666Y-28068095D01*
X33889047Y-28210952D01*
X33317619Y-28782380D01*
X33936666Y-28782380D01*
X52936666Y-27782380D02*
X52936666Y-28496666D01*
X52889047Y-28639523D01*
X52793809Y-28734761D01*
X52650952Y-28782380D01*
X52555714Y-28782380D01*
X53317619Y-27782380D02*
X53936666Y-27782380D01*
X53603333Y-28163333D01*
X53746190Y-28163333D01*
X53841428Y-28210952D01*
X53889047Y-28258571D01*
X53936666Y-28353809D01*
X53936666Y-28591904D01*
X53889047Y-28687142D01*
X53841428Y-28734761D01*
X53746190Y-28782380D01*
X53460476Y-28782380D01*
X53365238Y-28734761D01*
X53317619Y-28687142D01*
X72936666Y-27782380D02*
X72936666Y-28496666D01*
X72889047Y-28639523D01*
X72793809Y-28734761D01*
X72650952Y-28782380D01*
X72555714Y-28782380D01*
X73841428Y-28115714D02*
X73841428Y-28782380D01*
X73603333Y-27734761D02*
X73365238Y-28449047D01*
X73984285Y-28449047D01*
X92936666Y-27782380D02*
X92936666Y-28496666D01*
X92889047Y-28639523D01*
X92793809Y-28734761D01*
X92650952Y-28782380D01*
X92555714Y-28782380D01*
X93889047Y-27782380D02*
X93412857Y-27782380D01*
X93365238Y-28258571D01*
X93412857Y-28210952D01*
X93508095Y-28163333D01*
X93746190Y-28163333D01*
X93841428Y-28210952D01*
X93889047Y-28258571D01*
X93936666Y-28353809D01*
X93936666Y-28591904D01*
X93889047Y-28687142D01*
X93841428Y-28734761D01*
X93746190Y-28782380D01*
X93508095Y-28782380D01*
X93412857Y-28734761D01*
X93365238Y-28687142D01*
X112936666Y-27782380D02*
X112936666Y-28496666D01*
X112889047Y-28639523D01*
X112793809Y-28734761D01*
X112650952Y-28782380D01*
X112555714Y-28782380D01*
X113841428Y-27782380D02*
X113650952Y-27782380D01*
X113555714Y-27830000D01*
X113508095Y-27877619D01*
X113412857Y-28020476D01*
X113365238Y-28210952D01*
X113365238Y-28591904D01*
X113412857Y-28687142D01*
X113460476Y-28734761D01*
X113555714Y-28782380D01*
X113746190Y-28782380D01*
X113841428Y-28734761D01*
X113889047Y-28687142D01*
X113936666Y-28591904D01*
X113936666Y-28353809D01*
X113889047Y-28258571D01*
X113841428Y-28210952D01*
X113746190Y-28163333D01*
X113555714Y-28163333D01*
X113460476Y-28210952D01*
X113412857Y-28258571D01*
X113365238Y-28353809D01*
X132936666Y-27782380D02*
X132936666Y-28496666D01*
X132889047Y-28639523D01*
X132793809Y-28734761D01*
X132650952Y-28782380D01*
X132555714Y-28782380D01*
X133317619Y-27782380D02*
X133984285Y-27782380D01*
X133555714Y-28782380D01*
X152936666Y-27782380D02*
X152936666Y-28496666D01*
X152889047Y-28639523D01*
X152793809Y-28734761D01*
X152650952Y-28782380D01*
X152555714Y-28782380D01*
X153555714Y-28210952D02*
X153460476Y-28163333D01*
X153412857Y-28115714D01*
X153365238Y-28020476D01*
X153365238Y-27972857D01*
X153412857Y-27877619D01*
X153460476Y-27830000D01*
X153555714Y-27782380D01*
X153746190Y-27782380D01*
X153841428Y-27830000D01*
X153889047Y-27877619D01*
X153936666Y-27972857D01*
X153936666Y-28020476D01*
X153889047Y-28115714D01*
X153841428Y-28163333D01*
X153746190Y-28210952D01*
X153555714Y-28210952D01*
X153460476Y-28258571D01*
X153412857Y-28306190D01*
X153365238Y-28401428D01*
X153365238Y-28591904D01*
X153412857Y-28687142D01*
X153460476Y-28734761D01*
X153555714Y-28782380D01*
X153746190Y-28782380D01*
X153841428Y-28734761D01*
X153889047Y-28687142D01*
X153936666Y-28591904D01*
X153936666Y-28401428D01*
X153889047Y-28306190D01*
X153841428Y-28258571D01*
X153746190Y-28210952D01*
X172936666Y-27782380D02*
X172936666Y-28496666D01*
X172889047Y-28639523D01*
X172793809Y-28734761D01*
X172650952Y-28782380D01*
X172555714Y-28782380D01*
X173460476Y-28782380D02*
X173650952Y-28782380D01*
X173746190Y-28734761D01*
X173793809Y-28687142D01*
X173889047Y-28544285D01*
X173936666Y-28353809D01*
X173936666Y-27972857D01*
X173889047Y-27877619D01*
X173841428Y-27830000D01*
X173746190Y-27782380D01*
X173555714Y-27782380D01*
X173460476Y-27830000D01*
X173412857Y-27877619D01*
X173365238Y-27972857D01*
X173365238Y-28210952D01*
X173412857Y-28306190D01*
X173460476Y-28353809D01*
X173555714Y-28401428D01*
X173746190Y-28401428D01*
X173841428Y-28353809D01*
X173889047Y-28306190D01*
X173936666Y-28210952D01*
X192460476Y-27782380D02*
X192460476Y-28496666D01*
X192412857Y-28639523D01*
X192317619Y-28734761D01*
X192174761Y-28782380D01*
X192079523Y-28782380D01*
X193460476Y-28782380D02*
X192889047Y-28782380D01*
X193174761Y-28782380D02*
X193174761Y-27782380D01*
X193079523Y-27925238D01*
X192984285Y-28020476D01*
X192889047Y-28068095D01*
X194079523Y-27782380D02*
X194174761Y-27782380D01*
X194270000Y-27830000D01*
X194317619Y-27877619D01*
X194365238Y-27972857D01*
X194412857Y-28163333D01*
X194412857Y-28401428D01*
X194365238Y-28591904D01*
X194317619Y-28687142D01*
X194270000Y-28734761D01*
X194174761Y-28782380D01*
X194079523Y-28782380D01*
X193984285Y-28734761D01*
X193936666Y-28687142D01*
X193889047Y-28591904D01*
X193841428Y-28401428D01*
X193841428Y-28163333D01*
X193889047Y-27972857D01*
X193936666Y-27877619D01*
X193984285Y-27830000D01*
X194079523Y-27782380D01*
X12460476Y-73782380D02*
X12460476Y-74496666D01*
X12412857Y-74639523D01*
X12317619Y-74734761D01*
X12174761Y-74782380D01*
X12079523Y-74782380D01*
X13460476Y-74782380D02*
X12889047Y-74782380D01*
X13174761Y-74782380D02*
X13174761Y-73782380D01*
X13079523Y-73925238D01*
X12984285Y-74020476D01*
X12889047Y-74068095D01*
X14412857Y-74782380D02*
X13841428Y-74782380D01*
X14127142Y-74782380D02*
X14127142Y-73782380D01*
X14031904Y-73925238D01*
X13936666Y-74020476D01*
X13841428Y-74068095D01*
X32460476Y-73782380D02*
X32460476Y-74496666D01*
X32412857Y-74639523D01*
X32317619Y-74734761D01*
X32174761Y-74782380D01*
X32079523Y-74782380D01*
X33460476Y-74782380D02*
X32889047Y-74782380D01*
X33174761Y-74782380D02*
X33174761Y-73782380D01*
X33079523Y-73925238D01*
X32984285Y-74020476D01*
X32889047Y-74068095D01*
X33841428Y-73877619D02*
X33889047Y-73830000D01*
X33984285Y-73782380D01*
X34222380Y-73782380D01*
X34317619Y-73830000D01*
X34365238Y-73877619D01*
X34412857Y-73972857D01*
X34412857Y-74068095D01*
X34365238Y-74210952D01*
X33793809Y-74782380D01*
X34412857Y-74782380D01*
X52460476Y-73782380D02*
X52460476Y-74496666D01*
X52412857Y-74639523D01*
X52317619Y-74734761D01*
X52174761Y-74782380D01*
X52079523Y-74782380D01*
X53460476Y-74782380D02*
X52889047Y-74782380D01*
X53174761Y-74782380D02*
X53174761Y-73782380D01*
X53079523Y-73925238D01*
X52984285Y-74020476D01*
X52889047Y-74068095D01*
X53793809Y-73782380D02*
X54412857Y-73782380D01*
X54079523Y-74163333D01*
X54222380Y-74163333D01*
X54317619Y-74210952D01*
X54365238Y-74258571D01*
X54412857Y-74353809D01*
X54412857Y-74591904D01*
X54365238Y-74687142D01*
X54317619Y-74734761D01*
X54222380Y-74782380D01*
X53936666Y-74782380D01*
X53841428Y-74734761D01*
X53793809Y-74687142D01*
X72460476Y-73782380D02*
X72460476Y-74496666D01*
X72412857Y-74639523D01*
X72317619Y-74734761D01*
X72174761Y-74782380D01*
X72079523Y-74782380D01*
X73460476Y-74782380D02*
X72889047Y-74782380D01*
X73174761Y-74782380D02*
X73174761Y-73782380D01*
X73079523Y-73925238D01*
X72984285Y-74020476D01*
X72889047Y-74068095D01*
X74317619Y-74115714D02*
X74317619Y-74782380D01*
X74079523Y-73734761D02*
X73841428Y-74449047D01*
X74460476Y-74449047D01*
X92460476Y-73782380D02*
X92460476Y-74496666D01*
X92412857Y-74639523D01*
X92317619Y-74734761D01*
X92174761Y-74782380D01*
X92079523Y-74782380D01*
X93460476Y-74782380D02*
X92889047Y-74782380D01*
X93174761Y-74782380D02*
X93174761Y-73782380D01*
X93079523Y-73925238D01*
X92984285Y-74020476D01*
X92889047Y-74068095D01*
X94365238Y-73782380D02*
X93889047Y-73782380D01*
X93841428Y-74258571D01*
X93889047Y-74210952D01*
X93984285Y-74163333D01*
X94222380Y-74163333D01*
X94317619Y-74210952D01*
X94365238Y-74258571D01*
X94412857Y-74353809D01*
X94412857Y-74591904D01*
X94365238Y-74687142D01*
X94317619Y-74734761D01*
X94222380Y-74782380D01*
X93984285Y-74782380D01*
X93889047Y-74734761D01*
X93841428Y-74687142D01*
X112460476Y-73782380D02*
X112460476Y-74496666D01*
X112412857Y-74639523D01*
X112317619Y-74734761D01*
X112174761Y-74782380D01*
X112079523Y-74782380D01*
X113460476Y-74782380D02*
X112889047Y-74782380D01*
X113174761Y-74782380D02*
X113174761Y-73782380D01*
X113079523Y-73925238D01*
X112984285Y-74020476D01*
X112889047Y-74068095D01*
X114317619Y-73782380D02*
X114127142Y-73782380D01*
X114031904Y-73830000D01*
X113984285Y-73877619D01*
X113889047Y-74020476D01*
X113841428Y-74210952D01*
X113841428Y-74591904D01*
X113889047Y-74687142D01*
X113936666Y-74734761D01*
X114031904Y-74782380D01*
X114222380Y-74782380D01*
X114317619Y-74734761D01*
X114365238Y-74687142D01*
X114412857Y-74591904D01*
X114412857Y-74353809D01*
X114365238Y-74258571D01*
X114317619Y-74210952D01*
X114222380Y-74163333D01*
X114031904Y-74163333D01*
X113936666Y-74210952D01*
X113889047Y-74258571D01*
X113841428Y-74353809D01*
X132460476Y-73782380D02*
X132460476Y-74496666D01*
X132412857Y-74639523D01*
X132317619Y-74734761D01*
X132174761Y-74782380D01*
X132079523Y-74782380D01*
X133460476Y-74782380D02*
X132889047Y-74782380D01*
X133174761Y-74782380D02*
X133174761Y-73782380D01*
X133079523Y-73925238D01*
X132984285Y-74020476D01*
X132889047Y-74068095D01*
X133793809Y-73782380D02*
X134460476Y-73782380D01*
X134031904Y-74782380D01*
X152460476Y-73782380D02*
X152460476Y-74496666D01*
X152412857Y-74639523D01*
X152317619Y-74734761D01*
X152174761Y-74782380D01*
X152079523Y-74782380D01*
X153460476Y-74782380D02*
X152889047Y-74782380D01*
X153174761Y-74782380D02*
X153174761Y-73782380D01*
X153079523Y-73925238D01*
X152984285Y-74020476D01*
X152889047Y-74068095D01*
X154031904Y-74210952D02*
X153936666Y-74163333D01*
X153889047Y-74115714D01*
X153841428Y-74020476D01*
X153841428Y-73972857D01*
X153889047Y-73877619D01*
X153936666Y-73830000D01*
X154031904Y-73782380D01*
X154222380Y-73782380D01*
X154317619Y-73830000D01*
X154365238Y-73877619D01*
X154412857Y-73972857D01*
X154412857Y-74020476D01*
X154365238Y-74115714D01*
X154317619Y-74163333D01*
X154222380Y-74210952D01*
X154031904Y-74210952D01*
X153936666Y-74258571D01*
X153889047Y-74306190D01*
X153841428Y-74401428D01*
X153841428Y-74591904D01*
X153889047Y-74687142D01*
X153936666Y-74734761D01*
X154031904Y-74782380D01*
X154222380Y-74782380D01*
X154317619Y-74734761D01*
X154365238Y-74687142D01*
X154412857Y-74591904D01*
X154412857Y-74401428D01*
X154365238Y-74306190D01*
X154317619Y-74258571D01*
X154222380Y-74210952D01*
X172460476Y-73782380D02*
X172460476Y-74496666D01*
X172412857Y-74639523D01*
X172317619Y-74734761D01*
X172174761Y-74782380D01*
X172079523Y-74782380D01*
X173460476Y-74782380D02*
X172889047Y-74782380D01*
X173174761Y-74782380D02*
X173174761Y-73782380D01*
X173079523Y-73925238D01*
X172984285Y-74020476D01*
X172889047Y-74068095D01*
X173936666Y-74782380D02*
X174127142Y-74782380D01*
X174222380Y-74734761D01*
X174270000Y-74687142D01*
X174365238Y-74544285D01*
X174412857Y-74353809D01*
X174412857Y-73972857D01*
X174365238Y-73877619D01*
X174317619Y-73830000D01*
X174222380Y-73782380D01*
X174031904Y-73782380D01*
X173936666Y-73830000D01*
X173889047Y-73877619D01*
X173841428Y-73972857D01*
X173841428Y-74210952D01*
X173889047Y-74306190D01*
X173936666Y-74353809D01*
X174031904Y-74401428D01*
X174222380Y-74401428D01*
X174317619Y-74353809D01*
X174365238Y-74306190D01*
X174412857Y-74210952D01*
X192460476Y-73782380D02*
X192460476Y-74496666D01*
X192412857Y-74639523D01*
X192317619Y-74734761D01*
X192174761Y-74782380D01*
X192079523Y-74782380D01*
X192889047Y-73877619D02*
X192936666Y-73830000D01*
X193031904Y-73782380D01*
X193270000Y-73782380D01*
X193365238Y-73830000D01*
X193412857Y-73877619D01*
X193460476Y-73972857D01*
X193460476Y-74068095D01*
X193412857Y-74210952D01*
X192841428Y-74782380D01*
X193460476Y-74782380D01*
X194079523Y-73782380D02*
X194174761Y-73782380D01*
X194270000Y-73830000D01*
X194317619Y-73877619D01*
X194365238Y-73972857D01*
X194412857Y-74163333D01*
X194412857Y-74401428D01*
X194365238Y-74591904D01*
X194317619Y-74687142D01*
X194270000Y-74734761D01*
X194174761Y-74782380D01*
X194079523Y-74782380D01*
X193984285Y-74734761D01*
X193936666Y-74687142D01*
X193889047Y-74591904D01*
X193841428Y-74401428D01*
X193841428Y-74163333D01*
X193889047Y-73972857D01*
X193936666Y-73877619D01*
X193984285Y-73830000D01*
X194079523Y-73782380D01*
X207859380Y-44350523D02*
X208573666Y-44350523D01*
X208716523Y-44398142D01*
X208811761Y-44493380D01*
X208859380Y-44636238D01*
X208859380Y-44731476D01*
X207954619Y-43921952D02*
X207907000Y-43874333D01*
X207859380Y-43779095D01*
X207859380Y-43541000D01*
X207907000Y-43445761D01*
X207954619Y-43398142D01*
X208049857Y-43350523D01*
X208145095Y-43350523D01*
X208287952Y-43398142D01*
X208859380Y-43969571D01*
X208859380Y-43350523D01*
X208859380Y-42398142D02*
X208859380Y-42969571D01*
X208859380Y-42683857D02*
X207859380Y-42683857D01*
X208002238Y-42779095D01*
X208097476Y-42874333D01*
X208145095Y-42969571D01*
M02*
