M48
; DRILL file {KiCad 9.0.0} date 2025-02-23T15:51:07-0700
; FORMAT={-:-/ absolute / inch / decimal}
; #@! TF.CreationDate,2025-02-23T15:51:07-07:00
; #@! TF.GenerationSoftware,Kicad,Pcbnew,9.0.0
; #@! TF.FileFunction,Plated,1,2,PTH
FMAT,2
INCH
; #@! TA.AperFunction,Plated,PTH,ComponentDrill
T1C0.0394
; #@! TA.AperFunction,Plated,PTH,ComponentDrill
T2C0.0598
; #@! TA.AperFunction,Plated,PTH,ComponentDrill
T3C0.1181
%
G90
G05
T1
X0.4724Y-0.3236
X0.4724Y-0.4236
X0.4724Y-0.5236
X0.4724Y-0.6236
X0.4724Y-0.7236
X0.4724Y-0.8236
X0.4724Y-0.9236
X0.4724Y-1.0236
X0.4724Y-2.4346
X0.4724Y-2.5346
X0.4724Y-2.6346
X0.4724Y-2.7346
X0.4724Y-2.8346
X0.5724Y-0.3236
X0.5724Y-0.4236
X0.5724Y-0.5236
X0.5724Y-0.6236
X0.5724Y-0.7236
X0.5724Y-0.8236
X0.5724Y-0.9236
X0.5724Y-1.0236
X0.5724Y-2.4346
X0.5724Y-2.5346
X0.5724Y-2.6346
X0.5724Y-2.7346
X0.5724Y-2.8346
X1.2598Y-0.3236
X1.2598Y-0.4236
X1.2598Y-0.5236
X1.2598Y-0.6236
X1.2598Y-0.7236
X1.2598Y-0.8236
X1.2598Y-0.9236
X1.2598Y-1.0236
X1.2598Y-2.4346
X1.2598Y-2.5346
X1.2598Y-2.6346
X1.2598Y-2.7346
X1.2598Y-2.8346
X1.3598Y-0.3236
X1.3598Y-0.4236
X1.3598Y-0.5236
X1.3598Y-0.6236
X1.3598Y-0.7236
X1.3598Y-0.8236
X1.3598Y-0.9236
X1.3598Y-1.0236
X1.3598Y-2.4346
X1.3598Y-2.5346
X1.3598Y-2.6346
X1.3598Y-2.7346
X1.3598Y-2.8346
X2.0472Y-0.3236
X2.0472Y-0.4236
X2.0472Y-0.5236
X2.0472Y-0.6236
X2.0472Y-0.7236
X2.0472Y-0.8236
X2.0472Y-0.9236
X2.0472Y-1.0236
X2.0472Y-2.4346
X2.0472Y-2.5346
X2.0472Y-2.6346
X2.0472Y-2.7346
X2.0472Y-2.8346
X2.1472Y-0.3236
X2.1472Y-0.4236
X2.1472Y-0.5236
X2.1472Y-0.6236
X2.1472Y-0.7236
X2.1472Y-0.8236
X2.1472Y-0.9236
X2.1472Y-1.0236
X2.1472Y-2.4346
X2.1472Y-2.5346
X2.1472Y-2.6346
X2.1472Y-2.7346
X2.1472Y-2.8346
X2.8346Y-0.3236
X2.8346Y-0.4236
X2.8346Y-0.5236
X2.8346Y-0.6236
X2.8346Y-0.7236
X2.8346Y-0.8236
X2.8346Y-0.9236
X2.8346Y-1.0236
X2.8346Y-2.4346
X2.8346Y-2.5346
X2.8346Y-2.6346
X2.8346Y-2.7346
X2.8346Y-2.8346
X2.9346Y-0.3236
X2.9346Y-0.4236
X2.9346Y-0.5236
X2.9346Y-0.6236
X2.9346Y-0.7236
X2.9346Y-0.8236
X2.9346Y-0.9236
X2.9346Y-1.0236
X2.9346Y-2.4346
X2.9346Y-2.5346
X2.9346Y-2.6346
X2.9346Y-2.7346
X2.9346Y-2.8346
X3.622Y-0.3236
X3.622Y-0.4236
X3.622Y-0.5236
X3.622Y-0.6236
X3.622Y-0.7236
X3.622Y-0.8236
X3.622Y-0.9236
X3.622Y-1.0236
X3.622Y-2.4346
X3.622Y-2.5346
X3.622Y-2.6346
X3.622Y-2.7346
X3.622Y-2.8346
X3.722Y-0.3236
X3.722Y-0.4236
X3.722Y-0.5236
X3.722Y-0.6236
X3.722Y-0.7236
X3.722Y-0.8236
X3.722Y-0.9236
X3.722Y-1.0236
X3.722Y-2.4346
X3.722Y-2.5346
X3.722Y-2.6346
X3.722Y-2.7346
X3.722Y-2.8346
X4.4094Y-0.3236
X4.4094Y-0.4236
X4.4094Y-0.5236
X4.4094Y-0.6236
X4.4094Y-0.7236
X4.4094Y-0.8236
X4.4094Y-0.9236
X4.4094Y-1.0236
X4.4094Y-2.4346
X4.4094Y-2.5346
X4.4094Y-2.6346
X4.4094Y-2.7346
X4.4094Y-2.8346
X4.5094Y-0.3236
X4.5094Y-0.4236
X4.5094Y-0.5236
X4.5094Y-0.6236
X4.5094Y-0.7236
X4.5094Y-0.8236
X4.5094Y-0.9236
X4.5094Y-1.0236
X4.5094Y-2.4346
X4.5094Y-2.5346
X4.5094Y-2.6346
X4.5094Y-2.7346
X4.5094Y-2.8346
X5.1969Y-0.3236
X5.1969Y-0.4236
X5.1969Y-0.5236
X5.1969Y-0.6236
X5.1969Y-0.7236
X5.1969Y-0.8236
X5.1969Y-0.9236
X5.1969Y-1.0236
X5.1969Y-2.4346
X5.1969Y-2.5346
X5.1969Y-2.6346
X5.1969Y-2.7346
X5.1969Y-2.8346
X5.2969Y-0.3236
X5.2969Y-0.4236
X5.2969Y-0.5236
X5.2969Y-0.6236
X5.2969Y-0.7236
X5.2969Y-0.8236
X5.2969Y-0.9236
X5.2969Y-1.0236
X5.2969Y-2.4346
X5.2969Y-2.5346
X5.2969Y-2.6346
X5.2969Y-2.7346
X5.2969Y-2.8346
X5.9843Y-0.3236
X5.9843Y-0.4236
X5.9843Y-0.5236
X5.9843Y-0.6236
X5.9843Y-0.7236
X5.9843Y-0.8236
X5.9843Y-0.9236
X5.9843Y-1.0236
X5.9843Y-2.4346
X5.9843Y-2.5346
X5.9843Y-2.6346
X5.9843Y-2.7346
X5.9843Y-2.8346
X6.0843Y-0.3236
X6.0843Y-0.4236
X6.0843Y-0.5236
X6.0843Y-0.6236
X6.0843Y-0.7236
X6.0843Y-0.8236
X6.0843Y-0.9236
X6.0843Y-1.0236
X6.0843Y-2.4346
X6.0843Y-2.5346
X6.0843Y-2.6346
X6.0843Y-2.7346
X6.0843Y-2.8346
X6.7717Y-0.3236
X6.7717Y-0.4236
X6.7717Y-0.5236
X6.7717Y-0.6236
X6.7717Y-0.7236
X6.7717Y-0.8236
X6.7717Y-0.9236
X6.7717Y-1.0236
X6.7717Y-2.4346
X6.7717Y-2.5346
X6.7717Y-2.6346
X6.7717Y-2.7346
X6.7717Y-2.8346
X6.8717Y-0.3236
X6.8717Y-0.4236
X6.8717Y-0.5236
X6.8717Y-0.6236
X6.8717Y-0.7236
X6.8717Y-0.8236
X6.8717Y-0.9236
X6.8717Y-1.0236
X6.8717Y-2.4346
X6.8717Y-2.5346
X6.8717Y-2.6346
X6.8717Y-2.7346
X6.8717Y-2.8346
X7.5591Y-0.3236
X7.5591Y-0.4236
X7.5591Y-0.5236
X7.5591Y-0.6236
X7.5591Y-0.7236
X7.5591Y-0.8236
X7.5591Y-0.9236
X7.5591Y-1.0236
X7.5591Y-2.4346
X7.5591Y-2.5346
X7.5591Y-2.6346
X7.5591Y-2.7346
X7.5591Y-2.8346
X7.6591Y-0.3236
X7.6591Y-0.4236
X7.6591Y-0.5236
X7.6591Y-0.6236
X7.6591Y-0.7236
X7.6591Y-0.8236
X7.6591Y-0.9236
X7.6591Y-1.0236
X7.6591Y-2.4346
X7.6591Y-2.5346
X7.6591Y-2.6346
X7.6591Y-2.7346
X7.6591Y-2.8346
T2
X8.105Y-1.415
X8.105Y-1.615
X8.105Y-1.815
X8.105Y-2.015
T3
X0.1378Y-0.1378
X0.1378Y-3.0118
X4.1339Y-0.1378
X4.1339Y-3.0118
X8.1299Y-0.1378
X8.1299Y-3.0118
M30
