G04 #@! TF.GenerationSoftware,KiCad,Pcbnew,(5.1.5)-3*
G04 #@! TF.CreationDate,2020-11-25T09:14:29-07:00*
G04 #@! TF.ProjectId,Power_Supply_THT,506f7765-725f-4537-9570-706c795f5448,rev?*
G04 #@! TF.SameCoordinates,Original*
G04 #@! TF.FileFunction,Legend,Top*
G04 #@! TF.FilePolarity,Positive*
%FSLAX46Y46*%
G04 Gerber Fmt 4.6, Leading zero omitted, Abs format (unit mm)*
G04 Created by KiCad (PCBNEW (5.1.5)-3) date 2020-11-25 09:14:29*
%MOMM*%
%LPD*%
G04 APERTURE LIST*
%ADD10C,0.150000*%
%ADD11C,0.120000*%
G04 APERTURE END LIST*
D10*
X193580095Y-70175428D02*
X194342000Y-70175428D01*
X195342000Y-70556380D02*
X194770571Y-70556380D01*
X195056285Y-70556380D02*
X195056285Y-69556380D01*
X194961047Y-69699238D01*
X194865809Y-69794476D01*
X194770571Y-69842095D01*
X195722952Y-69651619D02*
X195770571Y-69604000D01*
X195865809Y-69556380D01*
X196103904Y-69556380D01*
X196199142Y-69604000D01*
X196246761Y-69651619D01*
X196294380Y-69746857D01*
X196294380Y-69842095D01*
X196246761Y-69984952D01*
X195675333Y-70556380D01*
X196294380Y-70556380D01*
X196580095Y-69556380D02*
X196913428Y-70556380D01*
X197246761Y-69556380D01*
X197580095Y-70556380D02*
X197580095Y-69556380D01*
X197818190Y-69556380D01*
X197961047Y-69604000D01*
X198056285Y-69699238D01*
X198103904Y-69794476D01*
X198151523Y-69984952D01*
X198151523Y-70127809D01*
X198103904Y-70318285D01*
X198056285Y-70413523D01*
X197961047Y-70508761D01*
X197818190Y-70556380D01*
X197580095Y-70556380D01*
X199151523Y-70461142D02*
X199103904Y-70508761D01*
X198961047Y-70556380D01*
X198865809Y-70556380D01*
X198722952Y-70508761D01*
X198627714Y-70413523D01*
X198580095Y-70318285D01*
X198532476Y-70127809D01*
X198532476Y-69984952D01*
X198580095Y-69794476D01*
X198627714Y-69699238D01*
X198722952Y-69604000D01*
X198865809Y-69556380D01*
X198961047Y-69556380D01*
X199103904Y-69604000D01*
X199151523Y-69651619D01*
X195580095Y-64524000D02*
X195484857Y-64476380D01*
X195342000Y-64476380D01*
X195199142Y-64524000D01*
X195103904Y-64619238D01*
X195056285Y-64714476D01*
X195008666Y-64904952D01*
X195008666Y-65047809D01*
X195056285Y-65238285D01*
X195103904Y-65333523D01*
X195199142Y-65428761D01*
X195342000Y-65476380D01*
X195437238Y-65476380D01*
X195580095Y-65428761D01*
X195627714Y-65381142D01*
X195627714Y-65047809D01*
X195437238Y-65047809D01*
X196056285Y-65476380D02*
X196056285Y-64476380D01*
X196627714Y-65476380D01*
X196627714Y-64476380D01*
X197103904Y-65476380D02*
X197103904Y-64476380D01*
X197342000Y-64476380D01*
X197484857Y-64524000D01*
X197580095Y-64619238D01*
X197627714Y-64714476D01*
X197675333Y-64904952D01*
X197675333Y-65047809D01*
X197627714Y-65238285D01*
X197580095Y-65333523D01*
X197484857Y-65428761D01*
X197342000Y-65476380D01*
X197103904Y-65476380D01*
X193453095Y-60015428D02*
X194215000Y-60015428D01*
X193834047Y-60396380D02*
X193834047Y-59634476D01*
X195215000Y-60396380D02*
X194643571Y-60396380D01*
X194929285Y-60396380D02*
X194929285Y-59396380D01*
X194834047Y-59539238D01*
X194738809Y-59634476D01*
X194643571Y-59682095D01*
X195595952Y-59491619D02*
X195643571Y-59444000D01*
X195738809Y-59396380D01*
X195976904Y-59396380D01*
X196072142Y-59444000D01*
X196119761Y-59491619D01*
X196167380Y-59586857D01*
X196167380Y-59682095D01*
X196119761Y-59824952D01*
X195548333Y-60396380D01*
X196167380Y-60396380D01*
X196453095Y-59396380D02*
X196786428Y-60396380D01*
X197119761Y-59396380D01*
X197453095Y-60396380D02*
X197453095Y-59396380D01*
X197691190Y-59396380D01*
X197834047Y-59444000D01*
X197929285Y-59539238D01*
X197976904Y-59634476D01*
X198024523Y-59824952D01*
X198024523Y-59967809D01*
X197976904Y-60158285D01*
X197929285Y-60253523D01*
X197834047Y-60348761D01*
X197691190Y-60396380D01*
X197453095Y-60396380D01*
X199024523Y-60301142D02*
X198976904Y-60348761D01*
X198834047Y-60396380D01*
X198738809Y-60396380D01*
X198595952Y-60348761D01*
X198500714Y-60253523D01*
X198453095Y-60158285D01*
X198405476Y-59967809D01*
X198405476Y-59824952D01*
X198453095Y-59634476D01*
X198500714Y-59539238D01*
X198595952Y-59444000D01*
X198738809Y-59396380D01*
X198834047Y-59396380D01*
X198976904Y-59444000D01*
X199024523Y-59491619D01*
X195278523Y-54316380D02*
X194802333Y-54316380D01*
X194754714Y-54792571D01*
X194802333Y-54744952D01*
X194897571Y-54697333D01*
X195135666Y-54697333D01*
X195230904Y-54744952D01*
X195278523Y-54792571D01*
X195326142Y-54887809D01*
X195326142Y-55125904D01*
X195278523Y-55221142D01*
X195230904Y-55268761D01*
X195135666Y-55316380D01*
X194897571Y-55316380D01*
X194802333Y-55268761D01*
X194754714Y-55221142D01*
X195611857Y-54316380D02*
X195945190Y-55316380D01*
X196278523Y-54316380D01*
X196611857Y-55316380D02*
X196611857Y-54316380D01*
X196849952Y-54316380D01*
X196992809Y-54364000D01*
X197088047Y-54459238D01*
X197135666Y-54554476D01*
X197183285Y-54744952D01*
X197183285Y-54887809D01*
X197135666Y-55078285D01*
X197088047Y-55173523D01*
X196992809Y-55268761D01*
X196849952Y-55316380D01*
X196611857Y-55316380D01*
X198183285Y-55221142D02*
X198135666Y-55268761D01*
X197992809Y-55316380D01*
X197897571Y-55316380D01*
X197754714Y-55268761D01*
X197659476Y-55173523D01*
X197611857Y-55078285D01*
X197564238Y-54887809D01*
X197564238Y-54744952D01*
X197611857Y-54554476D01*
X197659476Y-54459238D01*
X197754714Y-54364000D01*
X197897571Y-54316380D01*
X197992809Y-54316380D01*
X198135666Y-54364000D01*
X198183285Y-54411619D01*
X15857142Y-90714285D02*
X15761904Y-90809523D01*
X15476190Y-90904761D01*
X15285714Y-90904761D01*
X15000000Y-90809523D01*
X14809523Y-90619047D01*
X14714285Y-90428571D01*
X14619047Y-90047619D01*
X14619047Y-89761904D01*
X14714285Y-89380952D01*
X14809523Y-89190476D01*
X15000000Y-89000000D01*
X15285714Y-88904761D01*
X15476190Y-88904761D01*
X15761904Y-89000000D01*
X15857142Y-89095238D01*
X16428571Y-88904761D02*
X17571428Y-88904761D01*
X17000000Y-90904761D02*
X17000000Y-88904761D01*
X12904761Y-105329761D02*
X11761904Y-105329761D01*
X12333333Y-105329761D02*
X12333333Y-103329761D01*
X12142857Y-103615476D01*
X11952380Y-103805952D01*
X11761904Y-103901190D01*
X14047619Y-104186904D02*
X13857142Y-104091666D01*
X13761904Y-103996428D01*
X13666666Y-103805952D01*
X13666666Y-103710714D01*
X13761904Y-103520238D01*
X13857142Y-103425000D01*
X14047619Y-103329761D01*
X14428571Y-103329761D01*
X14619047Y-103425000D01*
X14714285Y-103520238D01*
X14809523Y-103710714D01*
X14809523Y-103805952D01*
X14714285Y-103996428D01*
X14619047Y-104091666D01*
X14428571Y-104186904D01*
X14047619Y-104186904D01*
X13857142Y-104282142D01*
X13761904Y-104377380D01*
X13666666Y-104567857D01*
X13666666Y-104948809D01*
X13761904Y-105139285D01*
X13857142Y-105234523D01*
X14047619Y-105329761D01*
X14428571Y-105329761D01*
X14619047Y-105234523D01*
X14714285Y-105139285D01*
X14809523Y-104948809D01*
X14809523Y-104567857D01*
X14714285Y-104377380D01*
X14619047Y-104282142D01*
X14428571Y-104186904D01*
X15380952Y-103329761D02*
X16047619Y-105329761D01*
X16714285Y-103329761D01*
X17285714Y-104758333D02*
X18238095Y-104758333D01*
X17095238Y-105329761D02*
X17761904Y-103329761D01*
X18428571Y-105329761D01*
X20238095Y-105139285D02*
X20142857Y-105234523D01*
X19857142Y-105329761D01*
X19666666Y-105329761D01*
X19380952Y-105234523D01*
X19190476Y-105044047D01*
X19095238Y-104853571D01*
X19000000Y-104472619D01*
X19000000Y-104186904D01*
X19095238Y-103805952D01*
X19190476Y-103615476D01*
X19380952Y-103425000D01*
X19666666Y-103329761D01*
X19857142Y-103329761D01*
X20142857Y-103425000D01*
X20238095Y-103520238D01*
X15428571Y-106670238D02*
X15523809Y-106575000D01*
X15714285Y-106479761D01*
X16190476Y-106479761D01*
X16380952Y-106575000D01*
X16476190Y-106670238D01*
X16571428Y-106860714D01*
X16571428Y-107051190D01*
X16476190Y-107336904D01*
X15333333Y-108479761D01*
X16571428Y-108479761D01*
X12904761Y-73329761D02*
X11761904Y-73329761D01*
X12333333Y-73329761D02*
X12333333Y-71329761D01*
X12142857Y-71615476D01*
X11952380Y-71805952D01*
X11761904Y-71901190D01*
X14047619Y-72186904D02*
X13857142Y-72091666D01*
X13761904Y-71996428D01*
X13666666Y-71805952D01*
X13666666Y-71710714D01*
X13761904Y-71520238D01*
X13857142Y-71425000D01*
X14047619Y-71329761D01*
X14428571Y-71329761D01*
X14619047Y-71425000D01*
X14714285Y-71520238D01*
X14809523Y-71710714D01*
X14809523Y-71805952D01*
X14714285Y-71996428D01*
X14619047Y-72091666D01*
X14428571Y-72186904D01*
X14047619Y-72186904D01*
X13857142Y-72282142D01*
X13761904Y-72377380D01*
X13666666Y-72567857D01*
X13666666Y-72948809D01*
X13761904Y-73139285D01*
X13857142Y-73234523D01*
X14047619Y-73329761D01*
X14428571Y-73329761D01*
X14619047Y-73234523D01*
X14714285Y-73139285D01*
X14809523Y-72948809D01*
X14809523Y-72567857D01*
X14714285Y-72377380D01*
X14619047Y-72282142D01*
X14428571Y-72186904D01*
X15380952Y-71329761D02*
X16047619Y-73329761D01*
X16714285Y-71329761D01*
X17285714Y-72758333D02*
X18238095Y-72758333D01*
X17095238Y-73329761D02*
X17761904Y-71329761D01*
X18428571Y-73329761D01*
X20238095Y-73139285D02*
X20142857Y-73234523D01*
X19857142Y-73329761D01*
X19666666Y-73329761D01*
X19380952Y-73234523D01*
X19190476Y-73044047D01*
X19095238Y-72853571D01*
X19000000Y-72472619D01*
X19000000Y-72186904D01*
X19095238Y-71805952D01*
X19190476Y-71615476D01*
X19380952Y-71425000D01*
X19666666Y-71329761D01*
X19857142Y-71329761D01*
X20142857Y-71425000D01*
X20238095Y-71520238D01*
X16571428Y-76479761D02*
X15428571Y-76479761D01*
X16000000Y-76479761D02*
X16000000Y-74479761D01*
X15809523Y-74765476D01*
X15619047Y-74955952D01*
X15428571Y-75051190D01*
X11452380Y-47329761D02*
X11452380Y-45329761D01*
X11452380Y-46282142D02*
X12595238Y-46282142D01*
X12595238Y-47329761D02*
X12595238Y-45329761D01*
X13833333Y-47329761D02*
X13642857Y-47234523D01*
X13547619Y-47139285D01*
X13452380Y-46948809D01*
X13452380Y-46377380D01*
X13547619Y-46186904D01*
X13642857Y-46091666D01*
X13833333Y-45996428D01*
X14119047Y-45996428D01*
X14309523Y-46091666D01*
X14404761Y-46186904D01*
X14500000Y-46377380D01*
X14500000Y-46948809D01*
X14404761Y-47139285D01*
X14309523Y-47234523D01*
X14119047Y-47329761D01*
X13833333Y-47329761D01*
X15071428Y-45996428D02*
X15833333Y-45996428D01*
X15357142Y-45329761D02*
X15357142Y-47044047D01*
X15452380Y-47234523D01*
X15642857Y-47329761D01*
X15833333Y-47329761D01*
X11833333Y-48479761D02*
X12214285Y-48479761D01*
X12404761Y-48575000D01*
X12595238Y-48765476D01*
X12690476Y-49146428D01*
X12690476Y-49813095D01*
X12595238Y-50194047D01*
X12404761Y-50384523D01*
X12214285Y-50479761D01*
X11833333Y-50479761D01*
X11642857Y-50384523D01*
X11452380Y-50194047D01*
X11357142Y-49813095D01*
X11357142Y-49146428D01*
X11452380Y-48765476D01*
X11642857Y-48575000D01*
X11833333Y-48479761D01*
X14404761Y-49146428D02*
X14404761Y-50479761D01*
X13547619Y-49146428D02*
X13547619Y-50194047D01*
X13642857Y-50384523D01*
X13833333Y-50479761D01*
X14119047Y-50479761D01*
X14309523Y-50384523D01*
X14404761Y-50289285D01*
X15071428Y-49146428D02*
X15833333Y-49146428D01*
X15357142Y-48479761D02*
X15357142Y-50194047D01*
X15452380Y-50384523D01*
X15642857Y-50479761D01*
X15833333Y-50479761D01*
X11452380Y-13329761D02*
X11452380Y-11329761D01*
X11452380Y-12282142D02*
X12595238Y-12282142D01*
X12595238Y-13329761D02*
X12595238Y-11329761D01*
X13833333Y-13329761D02*
X13642857Y-13234523D01*
X13547619Y-13139285D01*
X13452380Y-12948809D01*
X13452380Y-12377380D01*
X13547619Y-12186904D01*
X13642857Y-12091666D01*
X13833333Y-11996428D01*
X14119047Y-11996428D01*
X14309523Y-12091666D01*
X14404761Y-12186904D01*
X14500000Y-12377380D01*
X14500000Y-12948809D01*
X14404761Y-13139285D01*
X14309523Y-13234523D01*
X14119047Y-13329761D01*
X13833333Y-13329761D01*
X15071428Y-11996428D02*
X15833333Y-11996428D01*
X15357142Y-11329761D02*
X15357142Y-13044047D01*
X15452380Y-13234523D01*
X15642857Y-13329761D01*
X15833333Y-13329761D01*
X12595238Y-16479761D02*
X12595238Y-14479761D01*
X13547619Y-15146428D02*
X13547619Y-16479761D01*
X13547619Y-15336904D02*
X13642857Y-15241666D01*
X13833333Y-15146428D01*
X14119047Y-15146428D01*
X14309523Y-15241666D01*
X14404761Y-15432142D01*
X14404761Y-16479761D01*
X3143761Y-31892761D02*
X3143761Y-29892761D01*
X4286619Y-31892761D01*
X4286619Y-29892761D01*
X6096142Y-30559428D02*
X6096142Y-31892761D01*
X5239000Y-30559428D02*
X5239000Y-31607047D01*
X5334238Y-31797523D01*
X5524714Y-31892761D01*
X5810428Y-31892761D01*
X6000904Y-31797523D01*
X6096142Y-31702285D01*
X6762809Y-30559428D02*
X7524714Y-30559428D01*
X7048523Y-29892761D02*
X7048523Y-31607047D01*
X7143761Y-31797523D01*
X7334238Y-31892761D01*
X7524714Y-31892761D01*
X8191380Y-31892761D02*
X8191380Y-30559428D01*
X8191380Y-30940380D02*
X8286619Y-30749904D01*
X8381857Y-30654666D01*
X8572333Y-30559428D01*
X8762809Y-30559428D01*
X10286619Y-31892761D02*
X10286619Y-30845142D01*
X10191380Y-30654666D01*
X10000904Y-30559428D01*
X9619952Y-30559428D01*
X9429476Y-30654666D01*
X10286619Y-31797523D02*
X10096142Y-31892761D01*
X9619952Y-31892761D01*
X9429476Y-31797523D01*
X9334238Y-31607047D01*
X9334238Y-31416571D01*
X9429476Y-31226095D01*
X9619952Y-31130857D01*
X10096142Y-31130857D01*
X10286619Y-31035619D01*
X11524714Y-31892761D02*
X11334238Y-31797523D01*
X11238999Y-31607047D01*
X11238999Y-29892761D01*
X33010361Y-37528708D02*
X33010361Y-38671565D01*
X33010361Y-38100137D02*
X31010361Y-38100137D01*
X31296076Y-38290613D01*
X31486552Y-38481089D01*
X31581790Y-38671565D01*
X31200838Y-36766803D02*
X31105600Y-36671565D01*
X31010361Y-36481089D01*
X31010361Y-36004899D01*
X31105600Y-35814422D01*
X31200838Y-35719184D01*
X31391314Y-35623946D01*
X31581790Y-35623946D01*
X31867504Y-35719184D01*
X33010361Y-36862041D01*
X33010361Y-35623946D01*
X31010361Y-33814422D02*
X31010361Y-34766803D01*
X31962742Y-34862041D01*
X31867504Y-34766803D01*
X31772266Y-34576327D01*
X31772266Y-34100137D01*
X31867504Y-33909660D01*
X31962742Y-33814422D01*
X32153219Y-33719184D01*
X32629409Y-33719184D01*
X32819885Y-33814422D01*
X32915123Y-33909660D01*
X33010361Y-34100137D01*
X33010361Y-34576327D01*
X32915123Y-34766803D01*
X32819885Y-34862041D01*
X31010361Y-33147756D02*
X33010361Y-32481089D01*
X31010361Y-31814422D01*
X33010361Y-28576327D02*
X33010361Y-29719184D01*
X33010361Y-29147756D02*
X31010361Y-29147756D01*
X31296076Y-29338232D01*
X31486552Y-29528708D01*
X31581790Y-29719184D01*
X31010361Y-26766803D02*
X31010361Y-27719184D01*
X31962742Y-27814422D01*
X31867504Y-27719184D01*
X31772266Y-27528708D01*
X31772266Y-27052518D01*
X31867504Y-26862041D01*
X31962742Y-26766803D01*
X32153219Y-26671565D01*
X32629409Y-26671565D01*
X32819885Y-26766803D01*
X32915123Y-26862041D01*
X33010361Y-27052518D01*
X33010361Y-27528708D01*
X32915123Y-27719184D01*
X32819885Y-27814422D01*
X32438933Y-25909660D02*
X32438933Y-24957280D01*
X33010361Y-26100137D02*
X31010361Y-25433470D01*
X33010361Y-24766803D01*
X32915123Y-22671565D02*
X33010361Y-22385851D01*
X33010361Y-21909660D01*
X32915123Y-21719184D01*
X32819885Y-21623946D01*
X32629409Y-21528708D01*
X32438933Y-21528708D01*
X32248457Y-21623946D01*
X32153219Y-21719184D01*
X32057980Y-21909660D01*
X31962742Y-22290613D01*
X31867504Y-22481089D01*
X31772266Y-22576327D01*
X31581790Y-22671565D01*
X31391314Y-22671565D01*
X31200838Y-22576327D01*
X31105600Y-22481089D01*
X31010361Y-22290613D01*
X31010361Y-21814422D01*
X31105600Y-21528708D01*
X33010361Y-20385851D02*
X32915123Y-20576327D01*
X32724647Y-20671565D01*
X31010361Y-20671565D01*
X33010361Y-19338232D02*
X32915123Y-19528708D01*
X32819885Y-19623946D01*
X32629409Y-19719184D01*
X32057980Y-19719184D01*
X31867504Y-19623946D01*
X31772266Y-19528708D01*
X31677028Y-19338232D01*
X31677028Y-19052518D01*
X31772266Y-18862041D01*
X31867504Y-18766803D01*
X32057980Y-18671565D01*
X32629409Y-18671565D01*
X32819885Y-18766803D01*
X32915123Y-18862041D01*
X33010361Y-19052518D01*
X33010361Y-19338232D01*
X32248457Y-17814422D02*
X32248457Y-16290613D01*
X31962742Y-14671565D02*
X32057980Y-14385851D01*
X32153219Y-14290613D01*
X32343695Y-14195375D01*
X32629409Y-14195375D01*
X32819885Y-14290613D01*
X32915123Y-14385851D01*
X33010361Y-14576327D01*
X33010361Y-15338232D01*
X31010361Y-15338232D01*
X31010361Y-14671565D01*
X31105600Y-14481089D01*
X31200838Y-14385851D01*
X31391314Y-14290613D01*
X31581790Y-14290613D01*
X31772266Y-14385851D01*
X31867504Y-14481089D01*
X31962742Y-14671565D01*
X31962742Y-15338232D01*
X33010361Y-13052518D02*
X32915123Y-13242994D01*
X32724647Y-13338232D01*
X31010361Y-13338232D01*
X33010361Y-12004899D02*
X32915123Y-12195375D01*
X32819885Y-12290613D01*
X32629409Y-12385851D01*
X32057980Y-12385851D01*
X31867504Y-12290613D01*
X31772266Y-12195375D01*
X31677028Y-12004899D01*
X31677028Y-11719184D01*
X31772266Y-11528708D01*
X31867504Y-11433470D01*
X32057980Y-11338232D01*
X32629409Y-11338232D01*
X32819885Y-11433470D01*
X32915123Y-11528708D01*
X33010361Y-11719184D01*
X33010361Y-12004899D01*
X31677028Y-10671565D02*
X33010361Y-10290613D01*
X32057980Y-9909660D01*
X33010361Y-9528708D01*
X31677028Y-9147756D01*
X151238095Y-22095238D02*
X151333333Y-22000000D01*
X151523809Y-21904761D01*
X152000000Y-21904761D01*
X152190476Y-22000000D01*
X152285714Y-22095238D01*
X152380952Y-22285714D01*
X152380952Y-22476190D01*
X152285714Y-22761904D01*
X151142857Y-23904761D01*
X152380952Y-23904761D01*
X154190476Y-21904761D02*
X153238095Y-21904761D01*
X153142857Y-22857142D01*
X153238095Y-22761904D01*
X153428571Y-22666666D01*
X153904761Y-22666666D01*
X154095238Y-22761904D01*
X154190476Y-22857142D01*
X154285714Y-23047619D01*
X154285714Y-23523809D01*
X154190476Y-23714285D01*
X154095238Y-23809523D01*
X153904761Y-23904761D01*
X153428571Y-23904761D01*
X153238095Y-23809523D01*
X153142857Y-23714285D01*
X155523809Y-21904761D02*
X155714285Y-21904761D01*
X155904761Y-22000000D01*
X156000000Y-22095238D01*
X156095238Y-22285714D01*
X156190476Y-22666666D01*
X156190476Y-23142857D01*
X156095238Y-23523809D01*
X156000000Y-23714285D01*
X155904761Y-23809523D01*
X155714285Y-23904761D01*
X155523809Y-23904761D01*
X155333333Y-23809523D01*
X155238095Y-23714285D01*
X155142857Y-23523809D01*
X155047619Y-23142857D01*
X155047619Y-22666666D01*
X155142857Y-22285714D01*
X155238095Y-22095238D01*
X155333333Y-22000000D01*
X155523809Y-21904761D01*
X156761904Y-21904761D02*
X157428571Y-23904761D01*
X158095238Y-21904761D01*
X161333333Y-23904761D02*
X160190476Y-23904761D01*
X160761904Y-23904761D02*
X160761904Y-21904761D01*
X160571428Y-22190476D01*
X160380952Y-22380952D01*
X160190476Y-22476190D01*
X162095238Y-23333333D02*
X163047619Y-23333333D01*
X161904761Y-23904761D02*
X162571428Y-21904761D01*
X163238095Y-23904761D01*
X165333333Y-23809523D02*
X165619047Y-23904761D01*
X166095238Y-23904761D01*
X166285714Y-23809523D01*
X166380952Y-23714285D01*
X166476190Y-23523809D01*
X166476190Y-23333333D01*
X166380952Y-23142857D01*
X166285714Y-23047619D01*
X166095238Y-22952380D01*
X165714285Y-22857142D01*
X165523809Y-22761904D01*
X165428571Y-22666666D01*
X165333333Y-22476190D01*
X165333333Y-22285714D01*
X165428571Y-22095238D01*
X165523809Y-22000000D01*
X165714285Y-21904761D01*
X166190476Y-21904761D01*
X166476190Y-22000000D01*
X167619047Y-23904761D02*
X167428571Y-23809523D01*
X167333333Y-23619047D01*
X167333333Y-21904761D01*
X168666666Y-23904761D02*
X168476190Y-23809523D01*
X168380952Y-23714285D01*
X168285714Y-23523809D01*
X168285714Y-22952380D01*
X168380952Y-22761904D01*
X168476190Y-22666666D01*
X168666666Y-22571428D01*
X168952380Y-22571428D01*
X169142857Y-22666666D01*
X169238095Y-22761904D01*
X169333333Y-22952380D01*
X169333333Y-23523809D01*
X169238095Y-23714285D01*
X169142857Y-23809523D01*
X168952380Y-23904761D01*
X168666666Y-23904761D01*
X170190476Y-23142857D02*
X171714285Y-23142857D01*
X173333333Y-22857142D02*
X173619047Y-22952380D01*
X173714285Y-23047619D01*
X173809523Y-23238095D01*
X173809523Y-23523809D01*
X173714285Y-23714285D01*
X173619047Y-23809523D01*
X173428571Y-23904761D01*
X172666666Y-23904761D01*
X172666666Y-21904761D01*
X173333333Y-21904761D01*
X173523809Y-22000000D01*
X173619047Y-22095238D01*
X173714285Y-22285714D01*
X173714285Y-22476190D01*
X173619047Y-22666666D01*
X173523809Y-22761904D01*
X173333333Y-22857142D01*
X172666666Y-22857142D01*
X174952380Y-23904761D02*
X174761904Y-23809523D01*
X174666666Y-23619047D01*
X174666666Y-21904761D01*
X176000000Y-23904761D02*
X175809523Y-23809523D01*
X175714285Y-23714285D01*
X175619047Y-23523809D01*
X175619047Y-22952380D01*
X175714285Y-22761904D01*
X175809523Y-22666666D01*
X176000000Y-22571428D01*
X176285714Y-22571428D01*
X176476190Y-22666666D01*
X176571428Y-22761904D01*
X176666666Y-22952380D01*
X176666666Y-23523809D01*
X176571428Y-23714285D01*
X176476190Y-23809523D01*
X176285714Y-23904761D01*
X176000000Y-23904761D01*
X177333333Y-22571428D02*
X177714285Y-23904761D01*
X178095238Y-22952380D01*
X178476190Y-23904761D01*
X178857142Y-22571428D01*
X151238095Y-51095238D02*
X151333333Y-51000000D01*
X151523809Y-50904761D01*
X152000000Y-50904761D01*
X152190476Y-51000000D01*
X152285714Y-51095238D01*
X152380952Y-51285714D01*
X152380952Y-51476190D01*
X152285714Y-51761904D01*
X151142857Y-52904761D01*
X152380952Y-52904761D01*
X154190476Y-50904761D02*
X153238095Y-50904761D01*
X153142857Y-51857142D01*
X153238095Y-51761904D01*
X153428571Y-51666666D01*
X153904761Y-51666666D01*
X154095238Y-51761904D01*
X154190476Y-51857142D01*
X154285714Y-52047619D01*
X154285714Y-52523809D01*
X154190476Y-52714285D01*
X154095238Y-52809523D01*
X153904761Y-52904761D01*
X153428571Y-52904761D01*
X153238095Y-52809523D01*
X153142857Y-52714285D01*
X155523809Y-50904761D02*
X155714285Y-50904761D01*
X155904761Y-51000000D01*
X156000000Y-51095238D01*
X156095238Y-51285714D01*
X156190476Y-51666666D01*
X156190476Y-52142857D01*
X156095238Y-52523809D01*
X156000000Y-52714285D01*
X155904761Y-52809523D01*
X155714285Y-52904761D01*
X155523809Y-52904761D01*
X155333333Y-52809523D01*
X155238095Y-52714285D01*
X155142857Y-52523809D01*
X155047619Y-52142857D01*
X155047619Y-51666666D01*
X155142857Y-51285714D01*
X155238095Y-51095238D01*
X155333333Y-51000000D01*
X155523809Y-50904761D01*
X156761904Y-50904761D02*
X157428571Y-52904761D01*
X158095238Y-50904761D01*
X161333333Y-52904761D02*
X160190476Y-52904761D01*
X160761904Y-52904761D02*
X160761904Y-50904761D01*
X160571428Y-51190476D01*
X160380952Y-51380952D01*
X160190476Y-51476190D01*
X162095238Y-52333333D02*
X163047619Y-52333333D01*
X161904761Y-52904761D02*
X162571428Y-50904761D01*
X163238095Y-52904761D01*
X165333333Y-52809523D02*
X165619047Y-52904761D01*
X166095238Y-52904761D01*
X166285714Y-52809523D01*
X166380952Y-52714285D01*
X166476190Y-52523809D01*
X166476190Y-52333333D01*
X166380952Y-52142857D01*
X166285714Y-52047619D01*
X166095238Y-51952380D01*
X165714285Y-51857142D01*
X165523809Y-51761904D01*
X165428571Y-51666666D01*
X165333333Y-51476190D01*
X165333333Y-51285714D01*
X165428571Y-51095238D01*
X165523809Y-51000000D01*
X165714285Y-50904761D01*
X166190476Y-50904761D01*
X166476190Y-51000000D01*
X167619047Y-52904761D02*
X167428571Y-52809523D01*
X167333333Y-52619047D01*
X167333333Y-50904761D01*
X168666666Y-52904761D02*
X168476190Y-52809523D01*
X168380952Y-52714285D01*
X168285714Y-52523809D01*
X168285714Y-51952380D01*
X168380952Y-51761904D01*
X168476190Y-51666666D01*
X168666666Y-51571428D01*
X168952380Y-51571428D01*
X169142857Y-51666666D01*
X169238095Y-51761904D01*
X169333333Y-51952380D01*
X169333333Y-52523809D01*
X169238095Y-52714285D01*
X169142857Y-52809523D01*
X168952380Y-52904761D01*
X168666666Y-52904761D01*
X170190476Y-52142857D02*
X171714285Y-52142857D01*
X173333333Y-51857142D02*
X173619047Y-51952380D01*
X173714285Y-52047619D01*
X173809523Y-52238095D01*
X173809523Y-52523809D01*
X173714285Y-52714285D01*
X173619047Y-52809523D01*
X173428571Y-52904761D01*
X172666666Y-52904761D01*
X172666666Y-50904761D01*
X173333333Y-50904761D01*
X173523809Y-51000000D01*
X173619047Y-51095238D01*
X173714285Y-51285714D01*
X173714285Y-51476190D01*
X173619047Y-51666666D01*
X173523809Y-51761904D01*
X173333333Y-51857142D01*
X172666666Y-51857142D01*
X174952380Y-52904761D02*
X174761904Y-52809523D01*
X174666666Y-52619047D01*
X174666666Y-50904761D01*
X176000000Y-52904761D02*
X175809523Y-52809523D01*
X175714285Y-52714285D01*
X175619047Y-52523809D01*
X175619047Y-51952380D01*
X175714285Y-51761904D01*
X175809523Y-51666666D01*
X176000000Y-51571428D01*
X176285714Y-51571428D01*
X176476190Y-51666666D01*
X176571428Y-51761904D01*
X176666666Y-51952380D01*
X176666666Y-52523809D01*
X176571428Y-52714285D01*
X176476190Y-52809523D01*
X176285714Y-52904761D01*
X176000000Y-52904761D01*
X177333333Y-51571428D02*
X177714285Y-52904761D01*
X178095238Y-51952380D01*
X178476190Y-52904761D01*
X178857142Y-51571428D01*
X151238095Y-107095238D02*
X151333333Y-107000000D01*
X151523809Y-106904761D01*
X152000000Y-106904761D01*
X152190476Y-107000000D01*
X152285714Y-107095238D01*
X152380952Y-107285714D01*
X152380952Y-107476190D01*
X152285714Y-107761904D01*
X151142857Y-108904761D01*
X152380952Y-108904761D01*
X154190476Y-106904761D02*
X153238095Y-106904761D01*
X153142857Y-107857142D01*
X153238095Y-107761904D01*
X153428571Y-107666666D01*
X153904761Y-107666666D01*
X154095238Y-107761904D01*
X154190476Y-107857142D01*
X154285714Y-108047619D01*
X154285714Y-108523809D01*
X154190476Y-108714285D01*
X154095238Y-108809523D01*
X153904761Y-108904761D01*
X153428571Y-108904761D01*
X153238095Y-108809523D01*
X153142857Y-108714285D01*
X155523809Y-106904761D02*
X155714285Y-106904761D01*
X155904761Y-107000000D01*
X156000000Y-107095238D01*
X156095238Y-107285714D01*
X156190476Y-107666666D01*
X156190476Y-108142857D01*
X156095238Y-108523809D01*
X156000000Y-108714285D01*
X155904761Y-108809523D01*
X155714285Y-108904761D01*
X155523809Y-108904761D01*
X155333333Y-108809523D01*
X155238095Y-108714285D01*
X155142857Y-108523809D01*
X155047619Y-108142857D01*
X155047619Y-107666666D01*
X155142857Y-107285714D01*
X155238095Y-107095238D01*
X155333333Y-107000000D01*
X155523809Y-106904761D01*
X156761904Y-106904761D02*
X157428571Y-108904761D01*
X158095238Y-106904761D01*
X161333333Y-108904761D02*
X160190476Y-108904761D01*
X160761904Y-108904761D02*
X160761904Y-106904761D01*
X160571428Y-107190476D01*
X160380952Y-107380952D01*
X160190476Y-107476190D01*
X162095238Y-108333333D02*
X163047619Y-108333333D01*
X161904761Y-108904761D02*
X162571428Y-106904761D01*
X163238095Y-108904761D01*
X165333333Y-108809523D02*
X165619047Y-108904761D01*
X166095238Y-108904761D01*
X166285714Y-108809523D01*
X166380952Y-108714285D01*
X166476190Y-108523809D01*
X166476190Y-108333333D01*
X166380952Y-108142857D01*
X166285714Y-108047619D01*
X166095238Y-107952380D01*
X165714285Y-107857142D01*
X165523809Y-107761904D01*
X165428571Y-107666666D01*
X165333333Y-107476190D01*
X165333333Y-107285714D01*
X165428571Y-107095238D01*
X165523809Y-107000000D01*
X165714285Y-106904761D01*
X166190476Y-106904761D01*
X166476190Y-107000000D01*
X167619047Y-108904761D02*
X167428571Y-108809523D01*
X167333333Y-108619047D01*
X167333333Y-106904761D01*
X168666666Y-108904761D02*
X168476190Y-108809523D01*
X168380952Y-108714285D01*
X168285714Y-108523809D01*
X168285714Y-107952380D01*
X168380952Y-107761904D01*
X168476190Y-107666666D01*
X168666666Y-107571428D01*
X168952380Y-107571428D01*
X169142857Y-107666666D01*
X169238095Y-107761904D01*
X169333333Y-107952380D01*
X169333333Y-108523809D01*
X169238095Y-108714285D01*
X169142857Y-108809523D01*
X168952380Y-108904761D01*
X168666666Y-108904761D01*
X170190476Y-108142857D02*
X171714285Y-108142857D01*
X173333333Y-107857142D02*
X173619047Y-107952380D01*
X173714285Y-108047619D01*
X173809523Y-108238095D01*
X173809523Y-108523809D01*
X173714285Y-108714285D01*
X173619047Y-108809523D01*
X173428571Y-108904761D01*
X172666666Y-108904761D01*
X172666666Y-106904761D01*
X173333333Y-106904761D01*
X173523809Y-107000000D01*
X173619047Y-107095238D01*
X173714285Y-107285714D01*
X173714285Y-107476190D01*
X173619047Y-107666666D01*
X173523809Y-107761904D01*
X173333333Y-107857142D01*
X172666666Y-107857142D01*
X174952380Y-108904761D02*
X174761904Y-108809523D01*
X174666666Y-108619047D01*
X174666666Y-106904761D01*
X176000000Y-108904761D02*
X175809523Y-108809523D01*
X175714285Y-108714285D01*
X175619047Y-108523809D01*
X175619047Y-107952380D01*
X175714285Y-107761904D01*
X175809523Y-107666666D01*
X176000000Y-107571428D01*
X176285714Y-107571428D01*
X176476190Y-107666666D01*
X176571428Y-107761904D01*
X176666666Y-107952380D01*
X176666666Y-108523809D01*
X176571428Y-108714285D01*
X176476190Y-108809523D01*
X176285714Y-108904761D01*
X176000000Y-108904761D01*
X177333333Y-107571428D02*
X177714285Y-108904761D01*
X178095238Y-107952380D01*
X178476190Y-108904761D01*
X178857142Y-107571428D01*
X173451285Y-91146285D02*
X175737000Y-91146285D01*
X178737000Y-92289142D02*
X177022714Y-92289142D01*
X177879857Y-92289142D02*
X177879857Y-89289142D01*
X177594142Y-89717714D01*
X177308428Y-90003428D01*
X177022714Y-90146285D01*
X179879857Y-89574857D02*
X180022714Y-89432000D01*
X180308428Y-89289142D01*
X181022714Y-89289142D01*
X181308428Y-89432000D01*
X181451285Y-89574857D01*
X181594142Y-89860571D01*
X181594142Y-90146285D01*
X181451285Y-90574857D01*
X179737000Y-92289142D01*
X181594142Y-92289142D01*
X182451285Y-89289142D02*
X183451285Y-92289142D01*
X184451285Y-89289142D01*
X185451285Y-92289142D02*
X185451285Y-89289142D01*
X186165571Y-89289142D01*
X186594142Y-89432000D01*
X186879857Y-89717714D01*
X187022714Y-90003428D01*
X187165571Y-90574857D01*
X187165571Y-91003428D01*
X187022714Y-91574857D01*
X186879857Y-91860571D01*
X186594142Y-92146285D01*
X186165571Y-92289142D01*
X185451285Y-92289142D01*
X190165571Y-92003428D02*
X190022714Y-92146285D01*
X189594142Y-92289142D01*
X189308428Y-92289142D01*
X188879857Y-92146285D01*
X188594142Y-91860571D01*
X188451285Y-91574857D01*
X188308428Y-91003428D01*
X188308428Y-90574857D01*
X188451285Y-90003428D01*
X188594142Y-89717714D01*
X188879857Y-89432000D01*
X189308428Y-89289142D01*
X189594142Y-89289142D01*
X190022714Y-89432000D01*
X190165571Y-89574857D01*
X167736285Y-75398285D02*
X170022000Y-75398285D01*
X168879142Y-76541142D02*
X168879142Y-74255428D01*
X173022000Y-76541142D02*
X171307714Y-76541142D01*
X172164857Y-76541142D02*
X172164857Y-73541142D01*
X171879142Y-73969714D01*
X171593428Y-74255428D01*
X171307714Y-74398285D01*
X174164857Y-73826857D02*
X174307714Y-73684000D01*
X174593428Y-73541142D01*
X175307714Y-73541142D01*
X175593428Y-73684000D01*
X175736285Y-73826857D01*
X175879142Y-74112571D01*
X175879142Y-74398285D01*
X175736285Y-74826857D01*
X174022000Y-76541142D01*
X175879142Y-76541142D01*
X176736285Y-73541142D02*
X177736285Y-76541142D01*
X178736285Y-73541142D01*
X179736285Y-76541142D02*
X179736285Y-73541142D01*
X180450571Y-73541142D01*
X180879142Y-73684000D01*
X181164857Y-73969714D01*
X181307714Y-74255428D01*
X181450571Y-74826857D01*
X181450571Y-75255428D01*
X181307714Y-75826857D01*
X181164857Y-76112571D01*
X180879142Y-76398285D01*
X180450571Y-76541142D01*
X179736285Y-76541142D01*
X184450571Y-76255428D02*
X184307714Y-76398285D01*
X183879142Y-76541142D01*
X183593428Y-76541142D01*
X183164857Y-76398285D01*
X182879142Y-76112571D01*
X182736285Y-75826857D01*
X182593428Y-75255428D01*
X182593428Y-74826857D01*
X182736285Y-74255428D01*
X182879142Y-73969714D01*
X183164857Y-73684000D01*
X183593428Y-73541142D01*
X183879142Y-73541142D01*
X184307714Y-73684000D01*
X184450571Y-73826857D01*
X175752571Y-37473142D02*
X174324000Y-37473142D01*
X174181142Y-38901714D01*
X174324000Y-38758857D01*
X174609714Y-38616000D01*
X175324000Y-38616000D01*
X175609714Y-38758857D01*
X175752571Y-38901714D01*
X175895428Y-39187428D01*
X175895428Y-39901714D01*
X175752571Y-40187428D01*
X175609714Y-40330285D01*
X175324000Y-40473142D01*
X174609714Y-40473142D01*
X174324000Y-40330285D01*
X174181142Y-40187428D01*
X176752571Y-37473142D02*
X177752571Y-40473142D01*
X178752571Y-37473142D01*
X179752571Y-40473142D02*
X179752571Y-37473142D01*
X180466857Y-37473142D01*
X180895428Y-37616000D01*
X181181142Y-37901714D01*
X181324000Y-38187428D01*
X181466857Y-38758857D01*
X181466857Y-39187428D01*
X181324000Y-39758857D01*
X181181142Y-40044571D01*
X180895428Y-40330285D01*
X180466857Y-40473142D01*
X179752571Y-40473142D01*
X184466857Y-40187428D02*
X184324000Y-40330285D01*
X183895428Y-40473142D01*
X183609714Y-40473142D01*
X183181142Y-40330285D01*
X182895428Y-40044571D01*
X182752571Y-39758857D01*
X182609714Y-39187428D01*
X182609714Y-38758857D01*
X182752571Y-38187428D01*
X182895428Y-37901714D01*
X183181142Y-37616000D01*
X183609714Y-37473142D01*
X183895428Y-37473142D01*
X184324000Y-37616000D01*
X184466857Y-37758857D01*
X104738000Y-94539000D02*
X99150000Y-94539000D01*
X104738000Y-102540000D02*
X104738000Y-94539000D01*
X104738000Y-110541000D02*
X99150000Y-110541000D01*
X104738000Y-102540000D02*
X104738000Y-110541000D01*
X106262000Y-94539000D02*
X111850000Y-94539000D01*
X106262000Y-102540000D02*
X106262000Y-94539000D01*
X106262000Y-110541000D02*
X111850000Y-110541000D01*
X106262000Y-102540000D02*
X106262000Y-110541000D01*
X102198000Y-120066000D02*
X102960000Y-117780000D01*
X108802000Y-120066000D02*
X108040000Y-117780000D01*
X102198000Y-120193000D02*
X103722000Y-118415000D01*
X108802000Y-120066000D02*
X107405000Y-118288000D01*
X99150000Y-111049000D02*
X102833000Y-112573000D01*
X99150000Y-110541000D02*
X99150000Y-111049000D01*
X111850000Y-111049000D02*
X108040000Y-112700000D01*
X99150000Y-94031000D02*
X102833000Y-92380000D01*
X111850000Y-94031000D02*
X108167000Y-92507000D01*
X102833000Y-92380000D02*
X99150000Y-89840000D01*
X99150000Y-85014000D02*
X102960000Y-87300000D01*
X102198000Y-85141000D02*
X103722000Y-86665000D01*
X102960000Y-87300000D02*
X102198000Y-85141000D01*
X111850000Y-85014000D02*
X107913000Y-87300000D01*
X108802000Y-85014000D02*
X107024000Y-86538000D01*
X107913000Y-87300000D02*
X108802000Y-85014000D01*
X109056000Y-90475000D02*
X111850000Y-85014000D01*
X111850000Y-89840000D02*
X109056000Y-90475000D01*
X108167000Y-92507000D02*
X111850000Y-89840000D01*
X111850000Y-94539000D02*
X111850000Y-94031000D01*
X99150000Y-94539000D02*
X99150000Y-94158000D01*
X102960000Y-117780000D02*
X99150000Y-120066000D01*
X108040000Y-117780000D02*
X111850000Y-120066000D01*
X109183000Y-114732000D02*
X111850000Y-120066000D01*
X111850000Y-115240000D02*
X109183000Y-114732000D01*
X108167000Y-112700000D02*
X111850000Y-115240000D01*
X101944000Y-114732000D02*
X99150000Y-120066000D01*
X99150000Y-115240000D02*
X101944000Y-114732000D01*
X102833000Y-112573000D02*
X99150000Y-115240000D01*
X101944000Y-90475000D02*
X99150000Y-89840000D01*
X99150000Y-85014000D02*
X101944000Y-90475000D01*
X111850000Y-111049000D02*
X111850000Y-110541000D01*
X104738000Y-100762000D02*
X106262000Y-100762000D01*
X104738000Y-104318000D02*
X106262000Y-104318000D01*
X97738000Y-59238000D02*
X99262000Y-59238000D01*
X97738000Y-55682000D02*
X99262000Y-55682000D01*
X104850000Y-65969000D02*
X104850000Y-65461000D01*
X92150000Y-39934000D02*
X94944000Y-45395000D01*
X94944000Y-45395000D02*
X92150000Y-44760000D01*
X95833000Y-67493000D02*
X92150000Y-70160000D01*
X92150000Y-70160000D02*
X94944000Y-69652000D01*
X94944000Y-69652000D02*
X92150000Y-74986000D01*
X101167000Y-67620000D02*
X104850000Y-70160000D01*
X104850000Y-70160000D02*
X102183000Y-69652000D01*
X102183000Y-69652000D02*
X104850000Y-74986000D01*
X101040000Y-72700000D02*
X104850000Y-74986000D01*
X95960000Y-72700000D02*
X92150000Y-74986000D01*
X92150000Y-49459000D02*
X92150000Y-49078000D01*
X104850000Y-49459000D02*
X104850000Y-48951000D01*
X101167000Y-47427000D02*
X104850000Y-44760000D01*
X104850000Y-44760000D02*
X102056000Y-45395000D01*
X102056000Y-45395000D02*
X104850000Y-39934000D01*
X100913000Y-42220000D02*
X101802000Y-39934000D01*
X101802000Y-39934000D02*
X100024000Y-41458000D01*
X104850000Y-39934000D02*
X100913000Y-42220000D01*
X95960000Y-42220000D02*
X95198000Y-40061000D01*
X95198000Y-40061000D02*
X96722000Y-41585000D01*
X92150000Y-39934000D02*
X95960000Y-42220000D01*
X95833000Y-47300000D02*
X92150000Y-44760000D01*
X104850000Y-48951000D02*
X101167000Y-47427000D01*
X92150000Y-48951000D02*
X95833000Y-47300000D01*
X104850000Y-65969000D02*
X101040000Y-67620000D01*
X92150000Y-65461000D02*
X92150000Y-65969000D01*
X92150000Y-65969000D02*
X95833000Y-67493000D01*
X101802000Y-74986000D02*
X100405000Y-73208000D01*
X95198000Y-75113000D02*
X96722000Y-73335000D01*
X101802000Y-74986000D02*
X101040000Y-72700000D01*
X95198000Y-74986000D02*
X95960000Y-72700000D01*
X99262000Y-57460000D02*
X99262000Y-65461000D01*
X99262000Y-65461000D02*
X104850000Y-65461000D01*
X99262000Y-57460000D02*
X99262000Y-49459000D01*
X99262000Y-49459000D02*
X104850000Y-49459000D01*
X97738000Y-57460000D02*
X97738000Y-65461000D01*
X97738000Y-65461000D02*
X92150000Y-65461000D01*
X97738000Y-57460000D02*
X97738000Y-49459000D01*
X97738000Y-49459000D02*
X92150000Y-49459000D01*
X136738000Y-9539000D02*
X131150000Y-9539000D01*
X136738000Y-17540000D02*
X136738000Y-9539000D01*
X136738000Y-25541000D02*
X131150000Y-25541000D01*
X136738000Y-17540000D02*
X136738000Y-25541000D01*
X138262000Y-9539000D02*
X143850000Y-9539000D01*
X138262000Y-17540000D02*
X138262000Y-9539000D01*
X138262000Y-25541000D02*
X143850000Y-25541000D01*
X138262000Y-17540000D02*
X138262000Y-25541000D01*
X134198000Y-35066000D02*
X134960000Y-32780000D01*
X140802000Y-35066000D02*
X140040000Y-32780000D01*
X134198000Y-35193000D02*
X135722000Y-33415000D01*
X140802000Y-35066000D02*
X139405000Y-33288000D01*
X131150000Y-26049000D02*
X134833000Y-27573000D01*
X131150000Y-25541000D02*
X131150000Y-26049000D01*
X143850000Y-26049000D02*
X140040000Y-27700000D01*
X131150000Y-9031000D02*
X134833000Y-7380000D01*
X143850000Y-9031000D02*
X140167000Y-7507000D01*
X134833000Y-7380000D02*
X131150000Y-4840000D01*
X131150000Y-14000D02*
X134960000Y-2300000D01*
X134198000Y-141000D02*
X135722000Y-1665000D01*
X134960000Y-2300000D02*
X134198000Y-141000D01*
X143850000Y-14000D02*
X139913000Y-2300000D01*
X140802000Y-14000D02*
X139024000Y-1538000D01*
X139913000Y-2300000D02*
X140802000Y-14000D01*
X141056000Y-5475000D02*
X143850000Y-14000D01*
X143850000Y-4840000D02*
X141056000Y-5475000D01*
X140167000Y-7507000D02*
X143850000Y-4840000D01*
X143850000Y-9539000D02*
X143850000Y-9031000D01*
X131150000Y-9539000D02*
X131150000Y-9158000D01*
X134960000Y-32780000D02*
X131150000Y-35066000D01*
X140040000Y-32780000D02*
X143850000Y-35066000D01*
X141183000Y-29732000D02*
X143850000Y-35066000D01*
X143850000Y-30240000D02*
X141183000Y-29732000D01*
X140167000Y-27700000D02*
X143850000Y-30240000D01*
X133944000Y-29732000D02*
X131150000Y-35066000D01*
X131150000Y-30240000D02*
X133944000Y-29732000D01*
X134833000Y-27573000D02*
X131150000Y-30240000D01*
X133944000Y-5475000D02*
X131150000Y-4840000D01*
X131150000Y-14000D02*
X133944000Y-5475000D01*
X143850000Y-26049000D02*
X143850000Y-25541000D01*
X136738000Y-15762000D02*
X138262000Y-15762000D01*
X136738000Y-19318000D02*
X138262000Y-19318000D01*
X97738000Y-19238000D02*
X99262000Y-19238000D01*
X97738000Y-15682000D02*
X99262000Y-15682000D01*
X104850000Y-25969000D02*
X104850000Y-25461000D01*
X92150000Y66000D02*
X94944000Y-5395000D01*
X94944000Y-5395000D02*
X92150000Y-4760000D01*
X95833000Y-27493000D02*
X92150000Y-30160000D01*
X92150000Y-30160000D02*
X94944000Y-29652000D01*
X94944000Y-29652000D02*
X92150000Y-34986000D01*
X101167000Y-27620000D02*
X104850000Y-30160000D01*
X104850000Y-30160000D02*
X102183000Y-29652000D01*
X102183000Y-29652000D02*
X104850000Y-34986000D01*
X101040000Y-32700000D02*
X104850000Y-34986000D01*
X95960000Y-32700000D02*
X92150000Y-34986000D01*
X92150000Y-9459000D02*
X92150000Y-9078000D01*
X104850000Y-9459000D02*
X104850000Y-8951000D01*
X101167000Y-7427000D02*
X104850000Y-4760000D01*
X104850000Y-4760000D02*
X102056000Y-5395000D01*
X102056000Y-5395000D02*
X104850000Y66000D01*
X100913000Y-2220000D02*
X101802000Y66000D01*
X101802000Y66000D02*
X100024000Y-1458000D01*
X104850000Y66000D02*
X100913000Y-2220000D01*
X95960000Y-2220000D02*
X95198000Y-61000D01*
X95198000Y-61000D02*
X96722000Y-1585000D01*
X92150000Y66000D02*
X95960000Y-2220000D01*
X95833000Y-7300000D02*
X92150000Y-4760000D01*
X104850000Y-8951000D02*
X101167000Y-7427000D01*
X92150000Y-8951000D02*
X95833000Y-7300000D01*
X104850000Y-25969000D02*
X101040000Y-27620000D01*
X92150000Y-25461000D02*
X92150000Y-25969000D01*
X92150000Y-25969000D02*
X95833000Y-27493000D01*
X101802000Y-34986000D02*
X100405000Y-33208000D01*
X95198000Y-35113000D02*
X96722000Y-33335000D01*
X101802000Y-34986000D02*
X101040000Y-32700000D01*
X95198000Y-34986000D02*
X95960000Y-32700000D01*
X99262000Y-17460000D02*
X99262000Y-25461000D01*
X99262000Y-25461000D02*
X104850000Y-25461000D01*
X99262000Y-17460000D02*
X99262000Y-9459000D01*
X99262000Y-9459000D02*
X104850000Y-9459000D01*
X97738000Y-17460000D02*
X97738000Y-25461000D01*
X97738000Y-25461000D02*
X92150000Y-25461000D01*
X97738000Y-17460000D02*
X97738000Y-9459000D01*
X97738000Y-9459000D02*
X92150000Y-9459000D01*
D11*
X104620000Y-104391000D02*
X103110000Y-104391000D01*
X104620000Y-100690000D02*
X103110000Y-100690000D01*
X103110000Y-97420000D02*
X103110000Y-107660000D01*
X104620000Y-107660000D02*
X99979000Y-107660000D01*
X104620000Y-97420000D02*
X99979000Y-97420000D01*
X99979000Y-97420000D02*
X99979000Y-107660000D01*
X104620000Y-97420000D02*
X104620000Y-107660000D01*
X70090000Y-56250000D02*
G75*
G03X70090000Y-56250000I-8090000J0D01*
G01*
X53949000Y-56250000D02*
X70051000Y-56250000D01*
X53950000Y-56210000D02*
X70050000Y-56210000D01*
X53950000Y-56170000D02*
X70050000Y-56170000D01*
X53950000Y-56130000D02*
X70050000Y-56130000D01*
X53951000Y-56090000D02*
X70049000Y-56090000D01*
X53952000Y-56050000D02*
X70048000Y-56050000D01*
X53953000Y-56010000D02*
X70047000Y-56010000D01*
X53954000Y-55970000D02*
X70046000Y-55970000D01*
X53956000Y-55930000D02*
X70044000Y-55930000D01*
X53958000Y-55890000D02*
X70042000Y-55890000D01*
X53959000Y-55850000D02*
X70041000Y-55850000D01*
X53961000Y-55810000D02*
X70039000Y-55810000D01*
X53964000Y-55770000D02*
X70036000Y-55770000D01*
X53966000Y-55730000D02*
X70034000Y-55730000D01*
X53969000Y-55690000D02*
X70031000Y-55690000D01*
X53972000Y-55650000D02*
X70028000Y-55650000D01*
X53975000Y-55610000D02*
X70025000Y-55610000D01*
X53978000Y-55570000D02*
X70022000Y-55570000D01*
X53982000Y-55529000D02*
X70018000Y-55529000D01*
X53985000Y-55489000D02*
X70015000Y-55489000D01*
X53989000Y-55449000D02*
X70011000Y-55449000D01*
X53993000Y-55409000D02*
X70007000Y-55409000D01*
X53998000Y-55369000D02*
X70002000Y-55369000D01*
X54002000Y-55329000D02*
X69998000Y-55329000D01*
X54007000Y-55289000D02*
X69993000Y-55289000D01*
X54012000Y-55249000D02*
X69988000Y-55249000D01*
X54017000Y-55209000D02*
X69983000Y-55209000D01*
X54022000Y-55169000D02*
X69978000Y-55169000D01*
X54027000Y-55129000D02*
X69973000Y-55129000D01*
X54033000Y-55089000D02*
X69967000Y-55089000D01*
X54039000Y-55049000D02*
X69961000Y-55049000D01*
X54045000Y-55009000D02*
X69955000Y-55009000D01*
X54051000Y-54969000D02*
X69949000Y-54969000D01*
X54058000Y-54929000D02*
X69942000Y-54929000D01*
X54065000Y-54889000D02*
X69935000Y-54889000D01*
X54072000Y-54849000D02*
X69928000Y-54849000D01*
X54079000Y-54809000D02*
X69921000Y-54809000D01*
X54086000Y-54769000D02*
X69914000Y-54769000D01*
X54094000Y-54729000D02*
X69906000Y-54729000D01*
X54101000Y-54689000D02*
X69899000Y-54689000D01*
X54109000Y-54649000D02*
X69891000Y-54649000D01*
X54117000Y-54609000D02*
X69883000Y-54609000D01*
X54126000Y-54569000D02*
X69874000Y-54569000D01*
X54134000Y-54529000D02*
X69866000Y-54529000D01*
X54143000Y-54489000D02*
X69857000Y-54489000D01*
X54152000Y-54449000D02*
X69848000Y-54449000D01*
X54162000Y-54409000D02*
X69838000Y-54409000D01*
X54171000Y-54369000D02*
X69829000Y-54369000D01*
X54181000Y-54329000D02*
X69819000Y-54329000D01*
X54191000Y-54289000D02*
X69809000Y-54289000D01*
X54201000Y-54249000D02*
X69799000Y-54249000D01*
X54211000Y-54209000D02*
X69789000Y-54209000D01*
X54221000Y-54169000D02*
X69779000Y-54169000D01*
X54232000Y-54129000D02*
X69768000Y-54129000D01*
X54243000Y-54089000D02*
X69757000Y-54089000D01*
X54254000Y-54049000D02*
X69746000Y-54049000D01*
X54266000Y-54009000D02*
X69734000Y-54009000D01*
X54277000Y-53969000D02*
X69723000Y-53969000D01*
X54289000Y-53929000D02*
X69711000Y-53929000D01*
X54301000Y-53889000D02*
X69699000Y-53889000D01*
X54314000Y-53849000D02*
X60620000Y-53849000D01*
X63380000Y-53849000D02*
X69686000Y-53849000D01*
X54326000Y-53809000D02*
X60620000Y-53809000D01*
X63380000Y-53809000D02*
X69674000Y-53809000D01*
X54339000Y-53769000D02*
X60620000Y-53769000D01*
X63380000Y-53769000D02*
X69661000Y-53769000D01*
X54352000Y-53729000D02*
X60620000Y-53729000D01*
X63380000Y-53729000D02*
X69648000Y-53729000D01*
X54365000Y-53689000D02*
X60620000Y-53689000D01*
X63380000Y-53689000D02*
X69635000Y-53689000D01*
X54379000Y-53649000D02*
X60620000Y-53649000D01*
X63380000Y-53649000D02*
X69621000Y-53649000D01*
X54392000Y-53609000D02*
X60620000Y-53609000D01*
X63380000Y-53609000D02*
X69608000Y-53609000D01*
X54406000Y-53569000D02*
X60620000Y-53569000D01*
X63380000Y-53569000D02*
X69594000Y-53569000D01*
X54420000Y-53529000D02*
X60620000Y-53529000D01*
X63380000Y-53529000D02*
X69580000Y-53529000D01*
X54435000Y-53489000D02*
X60620000Y-53489000D01*
X63380000Y-53489000D02*
X69565000Y-53489000D01*
X54450000Y-53449000D02*
X60620000Y-53449000D01*
X63380000Y-53449000D02*
X69550000Y-53449000D01*
X54464000Y-53409000D02*
X60620000Y-53409000D01*
X63380000Y-53409000D02*
X69536000Y-53409000D01*
X54479000Y-53369000D02*
X60620000Y-53369000D01*
X63380000Y-53369000D02*
X69521000Y-53369000D01*
X54495000Y-53329000D02*
X60620000Y-53329000D01*
X63380000Y-53329000D02*
X69505000Y-53329000D01*
X54510000Y-53289000D02*
X60620000Y-53289000D01*
X63380000Y-53289000D02*
X69490000Y-53289000D01*
X54526000Y-53249000D02*
X60620000Y-53249000D01*
X63380000Y-53249000D02*
X69474000Y-53249000D01*
X54542000Y-53209000D02*
X60620000Y-53209000D01*
X63380000Y-53209000D02*
X69458000Y-53209000D01*
X54559000Y-53169000D02*
X60620000Y-53169000D01*
X63380000Y-53169000D02*
X69441000Y-53169000D01*
X54575000Y-53129000D02*
X60620000Y-53129000D01*
X63380000Y-53129000D02*
X69425000Y-53129000D01*
X54592000Y-53089000D02*
X60620000Y-53089000D01*
X63380000Y-53089000D02*
X69408000Y-53089000D01*
X54609000Y-53049000D02*
X60620000Y-53049000D01*
X63380000Y-53049000D02*
X69391000Y-53049000D01*
X54627000Y-53009000D02*
X60620000Y-53009000D01*
X63380000Y-53009000D02*
X69373000Y-53009000D01*
X54644000Y-52969000D02*
X60620000Y-52969000D01*
X63380000Y-52969000D02*
X69356000Y-52969000D01*
X54662000Y-52929000D02*
X60620000Y-52929000D01*
X63380000Y-52929000D02*
X69338000Y-52929000D01*
X54680000Y-52889000D02*
X60620000Y-52889000D01*
X63380000Y-52889000D02*
X69320000Y-52889000D01*
X54699000Y-52849000D02*
X60620000Y-52849000D01*
X63380000Y-52849000D02*
X69301000Y-52849000D01*
X54717000Y-52809000D02*
X60620000Y-52809000D01*
X63380000Y-52809000D02*
X69283000Y-52809000D01*
X54736000Y-52769000D02*
X60620000Y-52769000D01*
X63380000Y-52769000D02*
X69264000Y-52769000D01*
X54755000Y-52729000D02*
X60620000Y-52729000D01*
X63380000Y-52729000D02*
X69245000Y-52729000D01*
X54775000Y-52689000D02*
X60620000Y-52689000D01*
X63380000Y-52689000D02*
X69225000Y-52689000D01*
X54795000Y-52649000D02*
X60620000Y-52649000D01*
X63380000Y-52649000D02*
X69205000Y-52649000D01*
X54815000Y-52609000D02*
X60620000Y-52609000D01*
X63380000Y-52609000D02*
X69185000Y-52609000D01*
X54835000Y-52569000D02*
X60620000Y-52569000D01*
X63380000Y-52569000D02*
X69165000Y-52569000D01*
X54856000Y-52529000D02*
X60620000Y-52529000D01*
X63380000Y-52529000D02*
X69144000Y-52529000D01*
X54876000Y-52489000D02*
X60620000Y-52489000D01*
X63380000Y-52489000D02*
X69124000Y-52489000D01*
X54898000Y-52449000D02*
X60620000Y-52449000D01*
X63380000Y-52449000D02*
X69102000Y-52449000D01*
X54919000Y-52409000D02*
X60620000Y-52409000D01*
X63380000Y-52409000D02*
X69081000Y-52409000D01*
X54941000Y-52369000D02*
X60620000Y-52369000D01*
X63380000Y-52369000D02*
X69059000Y-52369000D01*
X54963000Y-52329000D02*
X60620000Y-52329000D01*
X63380000Y-52329000D02*
X69037000Y-52329000D01*
X54985000Y-52289000D02*
X60620000Y-52289000D01*
X63380000Y-52289000D02*
X69015000Y-52289000D01*
X55008000Y-52249000D02*
X60620000Y-52249000D01*
X63380000Y-52249000D02*
X68992000Y-52249000D01*
X55030000Y-52209000D02*
X60620000Y-52209000D01*
X63380000Y-52209000D02*
X68970000Y-52209000D01*
X55054000Y-52169000D02*
X60620000Y-52169000D01*
X63380000Y-52169000D02*
X68946000Y-52169000D01*
X55077000Y-52129000D02*
X60620000Y-52129000D01*
X63380000Y-52129000D02*
X68923000Y-52129000D01*
X55101000Y-52089000D02*
X60620000Y-52089000D01*
X63380000Y-52089000D02*
X68899000Y-52089000D01*
X55125000Y-52049000D02*
X60620000Y-52049000D01*
X63380000Y-52049000D02*
X68875000Y-52049000D01*
X55150000Y-52009000D02*
X60620000Y-52009000D01*
X63380000Y-52009000D02*
X68850000Y-52009000D01*
X55174000Y-51969000D02*
X60620000Y-51969000D01*
X63380000Y-51969000D02*
X68826000Y-51969000D01*
X55199000Y-51929000D02*
X60620000Y-51929000D01*
X63380000Y-51929000D02*
X68801000Y-51929000D01*
X55225000Y-51889000D02*
X60620000Y-51889000D01*
X63380000Y-51889000D02*
X68775000Y-51889000D01*
X55251000Y-51849000D02*
X60620000Y-51849000D01*
X63380000Y-51849000D02*
X68749000Y-51849000D01*
X55277000Y-51809000D02*
X60620000Y-51809000D01*
X63380000Y-51809000D02*
X68723000Y-51809000D01*
X55303000Y-51769000D02*
X60620000Y-51769000D01*
X63380000Y-51769000D02*
X68697000Y-51769000D01*
X55330000Y-51729000D02*
X60620000Y-51729000D01*
X63380000Y-51729000D02*
X68670000Y-51729000D01*
X55357000Y-51689000D02*
X60620000Y-51689000D01*
X63380000Y-51689000D02*
X68643000Y-51689000D01*
X55385000Y-51649000D02*
X60620000Y-51649000D01*
X63380000Y-51649000D02*
X68615000Y-51649000D01*
X55412000Y-51609000D02*
X60620000Y-51609000D01*
X63380000Y-51609000D02*
X68588000Y-51609000D01*
X55441000Y-51569000D02*
X60620000Y-51569000D01*
X63380000Y-51569000D02*
X68559000Y-51569000D01*
X55469000Y-51529000D02*
X60620000Y-51529000D01*
X63380000Y-51529000D02*
X68531000Y-51529000D01*
X55498000Y-51489000D02*
X60620000Y-51489000D01*
X63380000Y-51489000D02*
X68502000Y-51489000D01*
X55527000Y-51449000D02*
X60620000Y-51449000D01*
X63380000Y-51449000D02*
X68473000Y-51449000D01*
X55557000Y-51409000D02*
X60620000Y-51409000D01*
X63380000Y-51409000D02*
X68443000Y-51409000D01*
X55587000Y-51369000D02*
X60620000Y-51369000D01*
X63380000Y-51369000D02*
X68413000Y-51369000D01*
X55618000Y-51329000D02*
X60620000Y-51329000D01*
X63380000Y-51329000D02*
X68382000Y-51329000D01*
X55648000Y-51289000D02*
X60620000Y-51289000D01*
X63380000Y-51289000D02*
X68352000Y-51289000D01*
X55680000Y-51249000D02*
X60620000Y-51249000D01*
X63380000Y-51249000D02*
X68320000Y-51249000D01*
X55711000Y-51209000D02*
X60620000Y-51209000D01*
X63380000Y-51209000D02*
X68289000Y-51209000D01*
X55743000Y-51169000D02*
X60620000Y-51169000D01*
X63380000Y-51169000D02*
X68257000Y-51169000D01*
X55776000Y-51129000D02*
X60620000Y-51129000D01*
X63380000Y-51129000D02*
X68224000Y-51129000D01*
X55809000Y-51089000D02*
X68191000Y-51089000D01*
X55842000Y-51049000D02*
X68158000Y-51049000D01*
X55876000Y-51009000D02*
X68124000Y-51009000D01*
X55910000Y-50969000D02*
X68090000Y-50969000D01*
X55945000Y-50929000D02*
X68055000Y-50929000D01*
X55980000Y-50889000D02*
X68020000Y-50889000D01*
X56016000Y-50849000D02*
X67984000Y-50849000D01*
X56052000Y-50809000D02*
X67948000Y-50809000D01*
X56088000Y-50769000D02*
X67912000Y-50769000D01*
X56125000Y-50729000D02*
X67875000Y-50729000D01*
X56163000Y-50689000D02*
X67837000Y-50689000D01*
X56201000Y-50649000D02*
X67799000Y-50649000D01*
X56240000Y-50609000D02*
X67760000Y-50609000D01*
X56279000Y-50569000D02*
X67721000Y-50569000D01*
X56319000Y-50529000D02*
X67681000Y-50529000D01*
X56359000Y-50489000D02*
X67641000Y-50489000D01*
X56400000Y-50449000D02*
X67600000Y-50449000D01*
X56441000Y-50409000D02*
X67559000Y-50409000D01*
X56483000Y-50369000D02*
X67517000Y-50369000D01*
X56526000Y-50329000D02*
X67474000Y-50329000D01*
X56569000Y-50289000D02*
X67431000Y-50289000D01*
X56613000Y-50249000D02*
X67387000Y-50249000D01*
X56657000Y-50209000D02*
X67343000Y-50209000D01*
X56703000Y-50169000D02*
X67297000Y-50169000D01*
X56749000Y-50129000D02*
X67251000Y-50129000D01*
X56795000Y-50089000D02*
X67205000Y-50089000D01*
X56843000Y-50049000D02*
X67157000Y-50049000D01*
X56891000Y-50009000D02*
X67109000Y-50009000D01*
X56940000Y-49969000D02*
X67060000Y-49969000D01*
X56989000Y-49929000D02*
X67011000Y-49929000D01*
X57040000Y-49889000D02*
X66960000Y-49889000D01*
X57091000Y-49849000D02*
X66909000Y-49849000D01*
X57143000Y-49809000D02*
X66857000Y-49809000D01*
X57196000Y-49769000D02*
X66804000Y-49769000D01*
X57250000Y-49729000D02*
X66750000Y-49729000D01*
X57305000Y-49689000D02*
X66695000Y-49689000D01*
X57361000Y-49649000D02*
X66639000Y-49649000D01*
X57418000Y-49609000D02*
X66582000Y-49609000D01*
X57476000Y-49569000D02*
X66524000Y-49569000D01*
X57535000Y-49529000D02*
X66465000Y-49529000D01*
X57595000Y-49489000D02*
X66405000Y-49489000D01*
X57657000Y-49449000D02*
X66343000Y-49449000D01*
X57719000Y-49409000D02*
X66281000Y-49409000D01*
X57783000Y-49369000D02*
X66217000Y-49369000D01*
X57849000Y-49329000D02*
X66151000Y-49329000D01*
X57916000Y-49289000D02*
X66084000Y-49289000D01*
X57984000Y-49249000D02*
X66016000Y-49249000D01*
X58054000Y-49209000D02*
X65946000Y-49209000D01*
X58125000Y-49169000D02*
X65875000Y-49169000D01*
X58198000Y-49129000D02*
X65802000Y-49129000D01*
X58274000Y-49089000D02*
X65726000Y-49089000D01*
X58351000Y-49049000D02*
X65649000Y-49049000D01*
X58430000Y-49009000D02*
X65570000Y-49009000D01*
X58511000Y-48969000D02*
X65489000Y-48969000D01*
X58595000Y-48929000D02*
X65405000Y-48929000D01*
X58681000Y-48889000D02*
X65319000Y-48889000D01*
X58770000Y-48849000D02*
X65230000Y-48849000D01*
X58862000Y-48809000D02*
X65138000Y-48809000D01*
X58958000Y-48769000D02*
X65042000Y-48769000D01*
X59057000Y-48729000D02*
X64943000Y-48729000D01*
X59159000Y-48689000D02*
X64841000Y-48689000D01*
X59267000Y-48649000D02*
X64733000Y-48649000D01*
X59379000Y-48609000D02*
X64621000Y-48609000D01*
X59497000Y-48569000D02*
X64503000Y-48569000D01*
X59621000Y-48529000D02*
X64379000Y-48529000D01*
X59752000Y-48489000D02*
X64248000Y-48489000D01*
X59893000Y-48449000D02*
X64107000Y-48449000D01*
X60044000Y-48409000D02*
X63956000Y-48409000D01*
X60208000Y-48369000D02*
X63792000Y-48369000D01*
X60390000Y-48329000D02*
X63610000Y-48329000D01*
X60595000Y-48289000D02*
X63405000Y-48289000D01*
X60836000Y-48249000D02*
X63164000Y-48249000D01*
X61141000Y-48209000D02*
X62859000Y-48209000D01*
X61637000Y-48169000D02*
X62363000Y-48169000D01*
X62000000Y-63200000D02*
X62000000Y-61400000D01*
X61100000Y-62300000D02*
X62900000Y-62300000D01*
X28500000Y-20714920D02*
X21500000Y-20714920D01*
X21500000Y-20714920D02*
X21500000Y-10964920D01*
X28500000Y-10964920D02*
X21500000Y-10964920D01*
X28500000Y-20714920D02*
X28500000Y-10964920D01*
X27500000Y-11964920D02*
X22500000Y-11964920D01*
X21500000Y-36964920D02*
X21500000Y-35964920D01*
X28500000Y-36964920D02*
X21500000Y-36964920D01*
X28500000Y-36964920D02*
X28500000Y-35964920D01*
X27500000Y-35964920D02*
X22500000Y-35964920D01*
X27500000Y-35964920D02*
X27500000Y-25214920D01*
X22500000Y-35964920D02*
X22500000Y-25464920D01*
X27500000Y-25214920D02*
X27500000Y-13464920D01*
X22500000Y-25464920D02*
X22500000Y-13214920D01*
X27500000Y-13464920D02*
X27500000Y-11964920D01*
X22500000Y-13214920D02*
X22500000Y-11964920D01*
X28500000Y-35964920D02*
X28500000Y-27214920D01*
X21500000Y-35964920D02*
X21500000Y-27214920D01*
X28500000Y-27214920D02*
X21500000Y-27214920D01*
X25000000Y-27214920D02*
X25000000Y-20714920D01*
D10*
X5540000Y-89175000D02*
X8460000Y-89175000D01*
X5540000Y-90825000D02*
X8490000Y-90825000D01*
D11*
X161750000Y-30000000D02*
X168250000Y-30000000D01*
X161750000Y-33500000D02*
X161750000Y-26500000D01*
X153000000Y-26500000D02*
X161750000Y-26500000D01*
X153000000Y-33500000D02*
X161750000Y-33500000D01*
X175750000Y-27500000D02*
X177000000Y-27500000D01*
X175500000Y-32500000D02*
X177000000Y-32500000D01*
X163500000Y-27500000D02*
X175750000Y-27500000D01*
X163750000Y-32500000D02*
X175500000Y-32500000D01*
X153000000Y-27500000D02*
X163500000Y-27500000D01*
X153000000Y-32500000D02*
X163750000Y-32500000D01*
X153000000Y-32500000D02*
X153000000Y-27500000D01*
X152000000Y-33500000D02*
X153000000Y-33500000D01*
X152000000Y-33500000D02*
X152000000Y-26500000D01*
X152000000Y-26500000D02*
X153000000Y-26500000D01*
X177000000Y-32500000D02*
X177000000Y-27500000D01*
X168250000Y-33500000D02*
X178000000Y-33500000D01*
X178000000Y-33500000D02*
X178000000Y-26500000D01*
X168250000Y-26500000D02*
X178000000Y-26500000D01*
X168250000Y-33500000D02*
X168250000Y-26500000D01*
X168250000Y-63500000D02*
X168250000Y-56500000D01*
X168250000Y-56500000D02*
X178000000Y-56500000D01*
X178000000Y-63500000D02*
X178000000Y-56500000D01*
X168250000Y-63500000D02*
X178000000Y-63500000D01*
X177000000Y-62500000D02*
X177000000Y-57500000D01*
X152000000Y-56500000D02*
X153000000Y-56500000D01*
X152000000Y-63500000D02*
X152000000Y-56500000D01*
X152000000Y-63500000D02*
X153000000Y-63500000D01*
X153000000Y-62500000D02*
X153000000Y-57500000D01*
X153000000Y-62500000D02*
X163750000Y-62500000D01*
X153000000Y-57500000D02*
X163500000Y-57500000D01*
X163750000Y-62500000D02*
X175500000Y-62500000D01*
X163500000Y-57500000D02*
X175750000Y-57500000D01*
X175500000Y-62500000D02*
X177000000Y-62500000D01*
X175750000Y-57500000D02*
X177000000Y-57500000D01*
X153000000Y-63500000D02*
X161750000Y-63500000D01*
X153000000Y-56500000D02*
X161750000Y-56500000D01*
X161750000Y-63500000D02*
X161750000Y-56500000D01*
X161750000Y-60000000D02*
X168250000Y-60000000D01*
X161750000Y-100000000D02*
X168250000Y-100000000D01*
X161750000Y-103500000D02*
X161750000Y-96500000D01*
X153000000Y-96500000D02*
X161750000Y-96500000D01*
X153000000Y-103500000D02*
X161750000Y-103500000D01*
X175750000Y-97500000D02*
X177000000Y-97500000D01*
X175500000Y-102500000D02*
X177000000Y-102500000D01*
X163500000Y-97500000D02*
X175750000Y-97500000D01*
X163750000Y-102500000D02*
X175500000Y-102500000D01*
X153000000Y-97500000D02*
X163500000Y-97500000D01*
X153000000Y-102500000D02*
X163750000Y-102500000D01*
X153000000Y-102500000D02*
X153000000Y-97500000D01*
X152000000Y-103500000D02*
X153000000Y-103500000D01*
X152000000Y-103500000D02*
X152000000Y-96500000D01*
X152000000Y-96500000D02*
X153000000Y-96500000D01*
X177000000Y-102500000D02*
X177000000Y-97500000D01*
X168250000Y-103500000D02*
X178000000Y-103500000D01*
X178000000Y-103500000D02*
X178000000Y-96500000D01*
X168250000Y-96500000D02*
X178000000Y-96500000D01*
X168250000Y-103500000D02*
X168250000Y-96500000D01*
D10*
X5540000Y-14825000D02*
X8490000Y-14825000D01*
X5540000Y-13175000D02*
X8460000Y-13175000D01*
X5540000Y-27175000D02*
X8460000Y-27175000D01*
X5540000Y-28825000D02*
X8490000Y-28825000D01*
X5540000Y-34825000D02*
X8490000Y-34825000D01*
X5540000Y-33175000D02*
X8460000Y-33175000D01*
X5540000Y-47175000D02*
X8460000Y-47175000D01*
X5540000Y-48825000D02*
X8490000Y-48825000D01*
X5540000Y-74825000D02*
X8490000Y-74825000D01*
X5540000Y-73175000D02*
X8460000Y-73175000D01*
X5540000Y-105175000D02*
X8460000Y-105175000D01*
X5540000Y-106825000D02*
X8490000Y-106825000D01*
D11*
X61100000Y-22300000D02*
X62900000Y-22300000D01*
X62000000Y-23200000D02*
X62000000Y-21400000D01*
X61637000Y-8169000D02*
X62363000Y-8169000D01*
X61141000Y-8209000D02*
X62859000Y-8209000D01*
X60836000Y-8249000D02*
X63164000Y-8249000D01*
X60595000Y-8289000D02*
X63405000Y-8289000D01*
X60390000Y-8329000D02*
X63610000Y-8329000D01*
X60208000Y-8369000D02*
X63792000Y-8369000D01*
X60044000Y-8409000D02*
X63956000Y-8409000D01*
X59893000Y-8449000D02*
X64107000Y-8449000D01*
X59752000Y-8489000D02*
X64248000Y-8489000D01*
X59621000Y-8529000D02*
X64379000Y-8529000D01*
X59497000Y-8569000D02*
X64503000Y-8569000D01*
X59379000Y-8609000D02*
X64621000Y-8609000D01*
X59267000Y-8649000D02*
X64733000Y-8649000D01*
X59159000Y-8689000D02*
X64841000Y-8689000D01*
X59057000Y-8729000D02*
X64943000Y-8729000D01*
X58958000Y-8769000D02*
X65042000Y-8769000D01*
X58862000Y-8809000D02*
X65138000Y-8809000D01*
X58770000Y-8849000D02*
X65230000Y-8849000D01*
X58681000Y-8889000D02*
X65319000Y-8889000D01*
X58595000Y-8929000D02*
X65405000Y-8929000D01*
X58511000Y-8969000D02*
X65489000Y-8969000D01*
X58430000Y-9009000D02*
X65570000Y-9009000D01*
X58351000Y-9049000D02*
X65649000Y-9049000D01*
X58274000Y-9089000D02*
X65726000Y-9089000D01*
X58198000Y-9129000D02*
X65802000Y-9129000D01*
X58125000Y-9169000D02*
X65875000Y-9169000D01*
X58054000Y-9209000D02*
X65946000Y-9209000D01*
X57984000Y-9249000D02*
X66016000Y-9249000D01*
X57916000Y-9289000D02*
X66084000Y-9289000D01*
X57849000Y-9329000D02*
X66151000Y-9329000D01*
X57783000Y-9369000D02*
X66217000Y-9369000D01*
X57719000Y-9409000D02*
X66281000Y-9409000D01*
X57657000Y-9449000D02*
X66343000Y-9449000D01*
X57595000Y-9489000D02*
X66405000Y-9489000D01*
X57535000Y-9529000D02*
X66465000Y-9529000D01*
X57476000Y-9569000D02*
X66524000Y-9569000D01*
X57418000Y-9609000D02*
X66582000Y-9609000D01*
X57361000Y-9649000D02*
X66639000Y-9649000D01*
X57305000Y-9689000D02*
X66695000Y-9689000D01*
X57250000Y-9729000D02*
X66750000Y-9729000D01*
X57196000Y-9769000D02*
X66804000Y-9769000D01*
X57143000Y-9809000D02*
X66857000Y-9809000D01*
X57091000Y-9849000D02*
X66909000Y-9849000D01*
X57040000Y-9889000D02*
X66960000Y-9889000D01*
X56989000Y-9929000D02*
X67011000Y-9929000D01*
X56940000Y-9969000D02*
X67060000Y-9969000D01*
X56891000Y-10009000D02*
X67109000Y-10009000D01*
X56843000Y-10049000D02*
X67157000Y-10049000D01*
X56795000Y-10089000D02*
X67205000Y-10089000D01*
X56749000Y-10129000D02*
X67251000Y-10129000D01*
X56703000Y-10169000D02*
X67297000Y-10169000D01*
X56657000Y-10209000D02*
X67343000Y-10209000D01*
X56613000Y-10249000D02*
X67387000Y-10249000D01*
X56569000Y-10289000D02*
X67431000Y-10289000D01*
X56526000Y-10329000D02*
X67474000Y-10329000D01*
X56483000Y-10369000D02*
X67517000Y-10369000D01*
X56441000Y-10409000D02*
X67559000Y-10409000D01*
X56400000Y-10449000D02*
X67600000Y-10449000D01*
X56359000Y-10489000D02*
X67641000Y-10489000D01*
X56319000Y-10529000D02*
X67681000Y-10529000D01*
X56279000Y-10569000D02*
X67721000Y-10569000D01*
X56240000Y-10609000D02*
X67760000Y-10609000D01*
X56201000Y-10649000D02*
X67799000Y-10649000D01*
X56163000Y-10689000D02*
X67837000Y-10689000D01*
X56125000Y-10729000D02*
X67875000Y-10729000D01*
X56088000Y-10769000D02*
X67912000Y-10769000D01*
X56052000Y-10809000D02*
X67948000Y-10809000D01*
X56016000Y-10849000D02*
X67984000Y-10849000D01*
X55980000Y-10889000D02*
X68020000Y-10889000D01*
X55945000Y-10929000D02*
X68055000Y-10929000D01*
X55910000Y-10969000D02*
X68090000Y-10969000D01*
X55876000Y-11009000D02*
X68124000Y-11009000D01*
X55842000Y-11049000D02*
X68158000Y-11049000D01*
X55809000Y-11089000D02*
X68191000Y-11089000D01*
X63380000Y-11129000D02*
X68224000Y-11129000D01*
X55776000Y-11129000D02*
X60620000Y-11129000D01*
X63380000Y-11169000D02*
X68257000Y-11169000D01*
X55743000Y-11169000D02*
X60620000Y-11169000D01*
X63380000Y-11209000D02*
X68289000Y-11209000D01*
X55711000Y-11209000D02*
X60620000Y-11209000D01*
X63380000Y-11249000D02*
X68320000Y-11249000D01*
X55680000Y-11249000D02*
X60620000Y-11249000D01*
X63380000Y-11289000D02*
X68352000Y-11289000D01*
X55648000Y-11289000D02*
X60620000Y-11289000D01*
X63380000Y-11329000D02*
X68382000Y-11329000D01*
X55618000Y-11329000D02*
X60620000Y-11329000D01*
X63380000Y-11369000D02*
X68413000Y-11369000D01*
X55587000Y-11369000D02*
X60620000Y-11369000D01*
X63380000Y-11409000D02*
X68443000Y-11409000D01*
X55557000Y-11409000D02*
X60620000Y-11409000D01*
X63380000Y-11449000D02*
X68473000Y-11449000D01*
X55527000Y-11449000D02*
X60620000Y-11449000D01*
X63380000Y-11489000D02*
X68502000Y-11489000D01*
X55498000Y-11489000D02*
X60620000Y-11489000D01*
X63380000Y-11529000D02*
X68531000Y-11529000D01*
X55469000Y-11529000D02*
X60620000Y-11529000D01*
X63380000Y-11569000D02*
X68559000Y-11569000D01*
X55441000Y-11569000D02*
X60620000Y-11569000D01*
X63380000Y-11609000D02*
X68588000Y-11609000D01*
X55412000Y-11609000D02*
X60620000Y-11609000D01*
X63380000Y-11649000D02*
X68615000Y-11649000D01*
X55385000Y-11649000D02*
X60620000Y-11649000D01*
X63380000Y-11689000D02*
X68643000Y-11689000D01*
X55357000Y-11689000D02*
X60620000Y-11689000D01*
X63380000Y-11729000D02*
X68670000Y-11729000D01*
X55330000Y-11729000D02*
X60620000Y-11729000D01*
X63380000Y-11769000D02*
X68697000Y-11769000D01*
X55303000Y-11769000D02*
X60620000Y-11769000D01*
X63380000Y-11809000D02*
X68723000Y-11809000D01*
X55277000Y-11809000D02*
X60620000Y-11809000D01*
X63380000Y-11849000D02*
X68749000Y-11849000D01*
X55251000Y-11849000D02*
X60620000Y-11849000D01*
X63380000Y-11889000D02*
X68775000Y-11889000D01*
X55225000Y-11889000D02*
X60620000Y-11889000D01*
X63380000Y-11929000D02*
X68801000Y-11929000D01*
X55199000Y-11929000D02*
X60620000Y-11929000D01*
X63380000Y-11969000D02*
X68826000Y-11969000D01*
X55174000Y-11969000D02*
X60620000Y-11969000D01*
X63380000Y-12009000D02*
X68850000Y-12009000D01*
X55150000Y-12009000D02*
X60620000Y-12009000D01*
X63380000Y-12049000D02*
X68875000Y-12049000D01*
X55125000Y-12049000D02*
X60620000Y-12049000D01*
X63380000Y-12089000D02*
X68899000Y-12089000D01*
X55101000Y-12089000D02*
X60620000Y-12089000D01*
X63380000Y-12129000D02*
X68923000Y-12129000D01*
X55077000Y-12129000D02*
X60620000Y-12129000D01*
X63380000Y-12169000D02*
X68946000Y-12169000D01*
X55054000Y-12169000D02*
X60620000Y-12169000D01*
X63380000Y-12209000D02*
X68970000Y-12209000D01*
X55030000Y-12209000D02*
X60620000Y-12209000D01*
X63380000Y-12249000D02*
X68992000Y-12249000D01*
X55008000Y-12249000D02*
X60620000Y-12249000D01*
X63380000Y-12289000D02*
X69015000Y-12289000D01*
X54985000Y-12289000D02*
X60620000Y-12289000D01*
X63380000Y-12329000D02*
X69037000Y-12329000D01*
X54963000Y-12329000D02*
X60620000Y-12329000D01*
X63380000Y-12369000D02*
X69059000Y-12369000D01*
X54941000Y-12369000D02*
X60620000Y-12369000D01*
X63380000Y-12409000D02*
X69081000Y-12409000D01*
X54919000Y-12409000D02*
X60620000Y-12409000D01*
X63380000Y-12449000D02*
X69102000Y-12449000D01*
X54898000Y-12449000D02*
X60620000Y-12449000D01*
X63380000Y-12489000D02*
X69124000Y-12489000D01*
X54876000Y-12489000D02*
X60620000Y-12489000D01*
X63380000Y-12529000D02*
X69144000Y-12529000D01*
X54856000Y-12529000D02*
X60620000Y-12529000D01*
X63380000Y-12569000D02*
X69165000Y-12569000D01*
X54835000Y-12569000D02*
X60620000Y-12569000D01*
X63380000Y-12609000D02*
X69185000Y-12609000D01*
X54815000Y-12609000D02*
X60620000Y-12609000D01*
X63380000Y-12649000D02*
X69205000Y-12649000D01*
X54795000Y-12649000D02*
X60620000Y-12649000D01*
X63380000Y-12689000D02*
X69225000Y-12689000D01*
X54775000Y-12689000D02*
X60620000Y-12689000D01*
X63380000Y-12729000D02*
X69245000Y-12729000D01*
X54755000Y-12729000D02*
X60620000Y-12729000D01*
X63380000Y-12769000D02*
X69264000Y-12769000D01*
X54736000Y-12769000D02*
X60620000Y-12769000D01*
X63380000Y-12809000D02*
X69283000Y-12809000D01*
X54717000Y-12809000D02*
X60620000Y-12809000D01*
X63380000Y-12849000D02*
X69301000Y-12849000D01*
X54699000Y-12849000D02*
X60620000Y-12849000D01*
X63380000Y-12889000D02*
X69320000Y-12889000D01*
X54680000Y-12889000D02*
X60620000Y-12889000D01*
X63380000Y-12929000D02*
X69338000Y-12929000D01*
X54662000Y-12929000D02*
X60620000Y-12929000D01*
X63380000Y-12969000D02*
X69356000Y-12969000D01*
X54644000Y-12969000D02*
X60620000Y-12969000D01*
X63380000Y-13009000D02*
X69373000Y-13009000D01*
X54627000Y-13009000D02*
X60620000Y-13009000D01*
X63380000Y-13049000D02*
X69391000Y-13049000D01*
X54609000Y-13049000D02*
X60620000Y-13049000D01*
X63380000Y-13089000D02*
X69408000Y-13089000D01*
X54592000Y-13089000D02*
X60620000Y-13089000D01*
X63380000Y-13129000D02*
X69425000Y-13129000D01*
X54575000Y-13129000D02*
X60620000Y-13129000D01*
X63380000Y-13169000D02*
X69441000Y-13169000D01*
X54559000Y-13169000D02*
X60620000Y-13169000D01*
X63380000Y-13209000D02*
X69458000Y-13209000D01*
X54542000Y-13209000D02*
X60620000Y-13209000D01*
X63380000Y-13249000D02*
X69474000Y-13249000D01*
X54526000Y-13249000D02*
X60620000Y-13249000D01*
X63380000Y-13289000D02*
X69490000Y-13289000D01*
X54510000Y-13289000D02*
X60620000Y-13289000D01*
X63380000Y-13329000D02*
X69505000Y-13329000D01*
X54495000Y-13329000D02*
X60620000Y-13329000D01*
X63380000Y-13369000D02*
X69521000Y-13369000D01*
X54479000Y-13369000D02*
X60620000Y-13369000D01*
X63380000Y-13409000D02*
X69536000Y-13409000D01*
X54464000Y-13409000D02*
X60620000Y-13409000D01*
X63380000Y-13449000D02*
X69550000Y-13449000D01*
X54450000Y-13449000D02*
X60620000Y-13449000D01*
X63380000Y-13489000D02*
X69565000Y-13489000D01*
X54435000Y-13489000D02*
X60620000Y-13489000D01*
X63380000Y-13529000D02*
X69580000Y-13529000D01*
X54420000Y-13529000D02*
X60620000Y-13529000D01*
X63380000Y-13569000D02*
X69594000Y-13569000D01*
X54406000Y-13569000D02*
X60620000Y-13569000D01*
X63380000Y-13609000D02*
X69608000Y-13609000D01*
X54392000Y-13609000D02*
X60620000Y-13609000D01*
X63380000Y-13649000D02*
X69621000Y-13649000D01*
X54379000Y-13649000D02*
X60620000Y-13649000D01*
X63380000Y-13689000D02*
X69635000Y-13689000D01*
X54365000Y-13689000D02*
X60620000Y-13689000D01*
X63380000Y-13729000D02*
X69648000Y-13729000D01*
X54352000Y-13729000D02*
X60620000Y-13729000D01*
X63380000Y-13769000D02*
X69661000Y-13769000D01*
X54339000Y-13769000D02*
X60620000Y-13769000D01*
X63380000Y-13809000D02*
X69674000Y-13809000D01*
X54326000Y-13809000D02*
X60620000Y-13809000D01*
X63380000Y-13849000D02*
X69686000Y-13849000D01*
X54314000Y-13849000D02*
X60620000Y-13849000D01*
X54301000Y-13889000D02*
X69699000Y-13889000D01*
X54289000Y-13929000D02*
X69711000Y-13929000D01*
X54277000Y-13969000D02*
X69723000Y-13969000D01*
X54266000Y-14009000D02*
X69734000Y-14009000D01*
X54254000Y-14049000D02*
X69746000Y-14049000D01*
X54243000Y-14089000D02*
X69757000Y-14089000D01*
X54232000Y-14129000D02*
X69768000Y-14129000D01*
X54221000Y-14169000D02*
X69779000Y-14169000D01*
X54211000Y-14209000D02*
X69789000Y-14209000D01*
X54201000Y-14249000D02*
X69799000Y-14249000D01*
X54191000Y-14289000D02*
X69809000Y-14289000D01*
X54181000Y-14329000D02*
X69819000Y-14329000D01*
X54171000Y-14369000D02*
X69829000Y-14369000D01*
X54162000Y-14409000D02*
X69838000Y-14409000D01*
X54152000Y-14449000D02*
X69848000Y-14449000D01*
X54143000Y-14489000D02*
X69857000Y-14489000D01*
X54134000Y-14529000D02*
X69866000Y-14529000D01*
X54126000Y-14569000D02*
X69874000Y-14569000D01*
X54117000Y-14609000D02*
X69883000Y-14609000D01*
X54109000Y-14649000D02*
X69891000Y-14649000D01*
X54101000Y-14689000D02*
X69899000Y-14689000D01*
X54094000Y-14729000D02*
X69906000Y-14729000D01*
X54086000Y-14769000D02*
X69914000Y-14769000D01*
X54079000Y-14809000D02*
X69921000Y-14809000D01*
X54072000Y-14849000D02*
X69928000Y-14849000D01*
X54065000Y-14889000D02*
X69935000Y-14889000D01*
X54058000Y-14929000D02*
X69942000Y-14929000D01*
X54051000Y-14969000D02*
X69949000Y-14969000D01*
X54045000Y-15009000D02*
X69955000Y-15009000D01*
X54039000Y-15049000D02*
X69961000Y-15049000D01*
X54033000Y-15089000D02*
X69967000Y-15089000D01*
X54027000Y-15129000D02*
X69973000Y-15129000D01*
X54022000Y-15169000D02*
X69978000Y-15169000D01*
X54017000Y-15209000D02*
X69983000Y-15209000D01*
X54012000Y-15249000D02*
X69988000Y-15249000D01*
X54007000Y-15289000D02*
X69993000Y-15289000D01*
X54002000Y-15329000D02*
X69998000Y-15329000D01*
X53998000Y-15369000D02*
X70002000Y-15369000D01*
X53993000Y-15409000D02*
X70007000Y-15409000D01*
X53989000Y-15449000D02*
X70011000Y-15449000D01*
X53985000Y-15489000D02*
X70015000Y-15489000D01*
X53982000Y-15529000D02*
X70018000Y-15529000D01*
X53978000Y-15570000D02*
X70022000Y-15570000D01*
X53975000Y-15610000D02*
X70025000Y-15610000D01*
X53972000Y-15650000D02*
X70028000Y-15650000D01*
X53969000Y-15690000D02*
X70031000Y-15690000D01*
X53966000Y-15730000D02*
X70034000Y-15730000D01*
X53964000Y-15770000D02*
X70036000Y-15770000D01*
X53961000Y-15810000D02*
X70039000Y-15810000D01*
X53959000Y-15850000D02*
X70041000Y-15850000D01*
X53958000Y-15890000D02*
X70042000Y-15890000D01*
X53956000Y-15930000D02*
X70044000Y-15930000D01*
X53954000Y-15970000D02*
X70046000Y-15970000D01*
X53953000Y-16010000D02*
X70047000Y-16010000D01*
X53952000Y-16050000D02*
X70048000Y-16050000D01*
X53951000Y-16090000D02*
X70049000Y-16090000D01*
X53950000Y-16130000D02*
X70050000Y-16130000D01*
X53950000Y-16170000D02*
X70050000Y-16170000D01*
X53950000Y-16210000D02*
X70050000Y-16210000D01*
X53949000Y-16250000D02*
X70051000Y-16250000D01*
X70090000Y-16250000D02*
G75*
G03X70090000Y-16250000I-8090000J0D01*
G01*
X77350000Y-19100000D02*
X78650000Y-19100000D01*
X78000000Y-19700000D02*
X78000000Y-18500000D01*
X77646000Y-13939000D02*
X78354000Y-13939000D01*
X77441000Y-13979000D02*
X78559000Y-13979000D01*
X77293000Y-14019000D02*
X78707000Y-14019000D01*
X77171000Y-14059000D02*
X78829000Y-14059000D01*
X77066000Y-14099000D02*
X78934000Y-14099000D01*
X76972000Y-14139000D02*
X79028000Y-14139000D01*
X76888000Y-14179000D02*
X79112000Y-14179000D01*
X76811000Y-14219000D02*
X79189000Y-14219000D01*
X76739000Y-14259000D02*
X79261000Y-14259000D01*
X76673000Y-14299000D02*
X79327000Y-14299000D01*
X76610000Y-14339000D02*
X79390000Y-14339000D01*
X76552000Y-14379000D02*
X79448000Y-14379000D01*
X76496000Y-14419000D02*
X79504000Y-14419000D01*
X76444000Y-14459000D02*
X79556000Y-14459000D01*
X76394000Y-14499000D02*
X79606000Y-14499000D01*
X78980000Y-14539000D02*
X79654000Y-14539000D01*
X76346000Y-14539000D02*
X77020000Y-14539000D01*
X78980000Y-14579000D02*
X79699000Y-14579000D01*
X76301000Y-14579000D02*
X77020000Y-14579000D01*
X78980000Y-14619000D02*
X79742000Y-14619000D01*
X76258000Y-14619000D02*
X77020000Y-14619000D01*
X78980000Y-14659000D02*
X79783000Y-14659000D01*
X76217000Y-14659000D02*
X77020000Y-14659000D01*
X78980000Y-14699000D02*
X79823000Y-14699000D01*
X76177000Y-14699000D02*
X77020000Y-14699000D01*
X78980000Y-14739000D02*
X79861000Y-14739000D01*
X76139000Y-14739000D02*
X77020000Y-14739000D01*
X78980000Y-14779000D02*
X79897000Y-14779000D01*
X76103000Y-14779000D02*
X77020000Y-14779000D01*
X78980000Y-14819000D02*
X79932000Y-14819000D01*
X76068000Y-14819000D02*
X77020000Y-14819000D01*
X78980000Y-14859000D02*
X79965000Y-14859000D01*
X76035000Y-14859000D02*
X77020000Y-14859000D01*
X78980000Y-14899000D02*
X79997000Y-14899000D01*
X76003000Y-14899000D02*
X77020000Y-14899000D01*
X78980000Y-14939000D02*
X80028000Y-14939000D01*
X75972000Y-14939000D02*
X77020000Y-14939000D01*
X78980000Y-14979000D02*
X80058000Y-14979000D01*
X75942000Y-14979000D02*
X77020000Y-14979000D01*
X78980000Y-15019000D02*
X80086000Y-15019000D01*
X75914000Y-15019000D02*
X77020000Y-15019000D01*
X78980000Y-15059000D02*
X80113000Y-15059000D01*
X75887000Y-15059000D02*
X77020000Y-15059000D01*
X78980000Y-15099000D02*
X80140000Y-15099000D01*
X75860000Y-15099000D02*
X77020000Y-15099000D01*
X78980000Y-15139000D02*
X80165000Y-15139000D01*
X75835000Y-15139000D02*
X77020000Y-15139000D01*
X78980000Y-15179000D02*
X80189000Y-15179000D01*
X75811000Y-15179000D02*
X77020000Y-15179000D01*
X78980000Y-15219000D02*
X80212000Y-15219000D01*
X75788000Y-15219000D02*
X77020000Y-15219000D01*
X78980000Y-15259000D02*
X80234000Y-15259000D01*
X75766000Y-15259000D02*
X77020000Y-15259000D01*
X78980000Y-15299000D02*
X80256000Y-15299000D01*
X75744000Y-15299000D02*
X77020000Y-15299000D01*
X78980000Y-15339000D02*
X80276000Y-15339000D01*
X75724000Y-15339000D02*
X77020000Y-15339000D01*
X78980000Y-15379000D02*
X80296000Y-15379000D01*
X75704000Y-15379000D02*
X77020000Y-15379000D01*
X78980000Y-15419000D02*
X80315000Y-15419000D01*
X75685000Y-15419000D02*
X77020000Y-15419000D01*
X78980000Y-15459000D02*
X80333000Y-15459000D01*
X75667000Y-15459000D02*
X77020000Y-15459000D01*
X78980000Y-15499000D02*
X80350000Y-15499000D01*
X75650000Y-15499000D02*
X77020000Y-15499000D01*
X78980000Y-15539000D02*
X80366000Y-15539000D01*
X75634000Y-15539000D02*
X77020000Y-15539000D01*
X78980000Y-15579000D02*
X80382000Y-15579000D01*
X75618000Y-15579000D02*
X77020000Y-15579000D01*
X78980000Y-15619000D02*
X80396000Y-15619000D01*
X75604000Y-15619000D02*
X77020000Y-15619000D01*
X78980000Y-15659000D02*
X80410000Y-15659000D01*
X75590000Y-15659000D02*
X77020000Y-15659000D01*
X78980000Y-15699000D02*
X80424000Y-15699000D01*
X75576000Y-15699000D02*
X77020000Y-15699000D01*
X78980000Y-15739000D02*
X80436000Y-15739000D01*
X75564000Y-15739000D02*
X77020000Y-15739000D01*
X78980000Y-15779000D02*
X80448000Y-15779000D01*
X75552000Y-15779000D02*
X77020000Y-15779000D01*
X78980000Y-15820000D02*
X80460000Y-15820000D01*
X75540000Y-15820000D02*
X77020000Y-15820000D01*
X78980000Y-15860000D02*
X80470000Y-15860000D01*
X75530000Y-15860000D02*
X77020000Y-15860000D01*
X78980000Y-15900000D02*
X80480000Y-15900000D01*
X75520000Y-15900000D02*
X77020000Y-15900000D01*
X78980000Y-15940000D02*
X80489000Y-15940000D01*
X75511000Y-15940000D02*
X77020000Y-15940000D01*
X78980000Y-15980000D02*
X80498000Y-15980000D01*
X75502000Y-15980000D02*
X77020000Y-15980000D01*
X78980000Y-16020000D02*
X80506000Y-16020000D01*
X75494000Y-16020000D02*
X77020000Y-16020000D01*
X78980000Y-16060000D02*
X80513000Y-16060000D01*
X75487000Y-16060000D02*
X77020000Y-16060000D01*
X78980000Y-16100000D02*
X80519000Y-16100000D01*
X75481000Y-16100000D02*
X77020000Y-16100000D01*
X78980000Y-16140000D02*
X80525000Y-16140000D01*
X75475000Y-16140000D02*
X77020000Y-16140000D01*
X78980000Y-16180000D02*
X80531000Y-16180000D01*
X75469000Y-16180000D02*
X77020000Y-16180000D01*
X78980000Y-16220000D02*
X80535000Y-16220000D01*
X75465000Y-16220000D02*
X77020000Y-16220000D01*
X78980000Y-16260000D02*
X80539000Y-16260000D01*
X75461000Y-16260000D02*
X77020000Y-16260000D01*
X78980000Y-16300000D02*
X80543000Y-16300000D01*
X75457000Y-16300000D02*
X77020000Y-16300000D01*
X78980000Y-16340000D02*
X80546000Y-16340000D01*
X75454000Y-16340000D02*
X77020000Y-16340000D01*
X78980000Y-16380000D02*
X80548000Y-16380000D01*
X75452000Y-16380000D02*
X77020000Y-16380000D01*
X78980000Y-16420000D02*
X80549000Y-16420000D01*
X75451000Y-16420000D02*
X77020000Y-16420000D01*
X78980000Y-16460000D02*
X80550000Y-16460000D01*
X75450000Y-16460000D02*
X77020000Y-16460000D01*
X75450000Y-16500000D02*
X80550000Y-16500000D01*
X79179723Y-14194278D02*
G75*
G03X76820000Y-14194420I-1179723J-2305722D01*
G01*
X79179723Y-14194278D02*
G75*
G02X79180000Y-18805580I-1179723J-2305722D01*
G01*
X76820277Y-14194278D02*
G75*
G03X76820000Y-18805580I1179723J-2305722D01*
G01*
X84690000Y-18910000D02*
X84690000Y-14090000D01*
X87310000Y-18910000D02*
X87310000Y-14090000D01*
X84690000Y-18910000D02*
X85004000Y-18910000D01*
X86996000Y-18910000D02*
X87310000Y-18910000D01*
X84690000Y-14090000D02*
X85004000Y-14090000D01*
X86996000Y-14090000D02*
X87310000Y-14090000D01*
X62900000Y-97700000D02*
X61100000Y-97700000D01*
X62000000Y-96800000D02*
X62000000Y-98600000D01*
X62363000Y-111831000D02*
X61637000Y-111831000D01*
X62859000Y-111791000D02*
X61141000Y-111791000D01*
X63164000Y-111751000D02*
X60836000Y-111751000D01*
X63405000Y-111711000D02*
X60595000Y-111711000D01*
X63610000Y-111671000D02*
X60390000Y-111671000D01*
X63792000Y-111631000D02*
X60208000Y-111631000D01*
X63956000Y-111591000D02*
X60044000Y-111591000D01*
X64107000Y-111551000D02*
X59893000Y-111551000D01*
X64248000Y-111511000D02*
X59752000Y-111511000D01*
X64379000Y-111471000D02*
X59621000Y-111471000D01*
X64503000Y-111431000D02*
X59497000Y-111431000D01*
X64621000Y-111391000D02*
X59379000Y-111391000D01*
X64733000Y-111351000D02*
X59267000Y-111351000D01*
X64841000Y-111311000D02*
X59159000Y-111311000D01*
X64943000Y-111271000D02*
X59057000Y-111271000D01*
X65042000Y-111231000D02*
X58958000Y-111231000D01*
X65138000Y-111191000D02*
X58862000Y-111191000D01*
X65230000Y-111151000D02*
X58770000Y-111151000D01*
X65319000Y-111111000D02*
X58681000Y-111111000D01*
X65405000Y-111071000D02*
X58595000Y-111071000D01*
X65489000Y-111031000D02*
X58511000Y-111031000D01*
X65570000Y-110991000D02*
X58430000Y-110991000D01*
X65649000Y-110951000D02*
X58351000Y-110951000D01*
X65726000Y-110911000D02*
X58274000Y-110911000D01*
X65802000Y-110871000D02*
X58198000Y-110871000D01*
X65875000Y-110831000D02*
X58125000Y-110831000D01*
X65946000Y-110791000D02*
X58054000Y-110791000D01*
X66016000Y-110751000D02*
X57984000Y-110751000D01*
X66084000Y-110711000D02*
X57916000Y-110711000D01*
X66151000Y-110671000D02*
X57849000Y-110671000D01*
X66217000Y-110631000D02*
X57783000Y-110631000D01*
X66281000Y-110591000D02*
X57719000Y-110591000D01*
X66343000Y-110551000D02*
X57657000Y-110551000D01*
X66405000Y-110511000D02*
X57595000Y-110511000D01*
X66465000Y-110471000D02*
X57535000Y-110471000D01*
X66524000Y-110431000D02*
X57476000Y-110431000D01*
X66582000Y-110391000D02*
X57418000Y-110391000D01*
X66639000Y-110351000D02*
X57361000Y-110351000D01*
X66695000Y-110311000D02*
X57305000Y-110311000D01*
X66750000Y-110271000D02*
X57250000Y-110271000D01*
X66804000Y-110231000D02*
X57196000Y-110231000D01*
X66857000Y-110191000D02*
X57143000Y-110191000D01*
X66909000Y-110151000D02*
X57091000Y-110151000D01*
X66960000Y-110111000D02*
X57040000Y-110111000D01*
X67011000Y-110071000D02*
X56989000Y-110071000D01*
X67060000Y-110031000D02*
X56940000Y-110031000D01*
X67109000Y-109991000D02*
X56891000Y-109991000D01*
X67157000Y-109951000D02*
X56843000Y-109951000D01*
X67205000Y-109911000D02*
X56795000Y-109911000D01*
X67251000Y-109871000D02*
X56749000Y-109871000D01*
X67297000Y-109831000D02*
X56703000Y-109831000D01*
X67343000Y-109791000D02*
X56657000Y-109791000D01*
X67387000Y-109751000D02*
X56613000Y-109751000D01*
X67431000Y-109711000D02*
X56569000Y-109711000D01*
X67474000Y-109671000D02*
X56526000Y-109671000D01*
X67517000Y-109631000D02*
X56483000Y-109631000D01*
X67559000Y-109591000D02*
X56441000Y-109591000D01*
X67600000Y-109551000D02*
X56400000Y-109551000D01*
X67641000Y-109511000D02*
X56359000Y-109511000D01*
X67681000Y-109471000D02*
X56319000Y-109471000D01*
X67721000Y-109431000D02*
X56279000Y-109431000D01*
X67760000Y-109391000D02*
X56240000Y-109391000D01*
X67799000Y-109351000D02*
X56201000Y-109351000D01*
X67837000Y-109311000D02*
X56163000Y-109311000D01*
X67875000Y-109271000D02*
X56125000Y-109271000D01*
X67912000Y-109231000D02*
X56088000Y-109231000D01*
X67948000Y-109191000D02*
X56052000Y-109191000D01*
X67984000Y-109151000D02*
X56016000Y-109151000D01*
X68020000Y-109111000D02*
X55980000Y-109111000D01*
X68055000Y-109071000D02*
X55945000Y-109071000D01*
X68090000Y-109031000D02*
X55910000Y-109031000D01*
X68124000Y-108991000D02*
X55876000Y-108991000D01*
X68158000Y-108951000D02*
X55842000Y-108951000D01*
X68191000Y-108911000D02*
X55809000Y-108911000D01*
X60620000Y-108871000D02*
X55776000Y-108871000D01*
X68224000Y-108871000D02*
X63380000Y-108871000D01*
X60620000Y-108831000D02*
X55743000Y-108831000D01*
X68257000Y-108831000D02*
X63380000Y-108831000D01*
X60620000Y-108791000D02*
X55711000Y-108791000D01*
X68289000Y-108791000D02*
X63380000Y-108791000D01*
X60620000Y-108751000D02*
X55680000Y-108751000D01*
X68320000Y-108751000D02*
X63380000Y-108751000D01*
X60620000Y-108711000D02*
X55648000Y-108711000D01*
X68352000Y-108711000D02*
X63380000Y-108711000D01*
X60620000Y-108671000D02*
X55618000Y-108671000D01*
X68382000Y-108671000D02*
X63380000Y-108671000D01*
X60620000Y-108631000D02*
X55587000Y-108631000D01*
X68413000Y-108631000D02*
X63380000Y-108631000D01*
X60620000Y-108591000D02*
X55557000Y-108591000D01*
X68443000Y-108591000D02*
X63380000Y-108591000D01*
X60620000Y-108551000D02*
X55527000Y-108551000D01*
X68473000Y-108551000D02*
X63380000Y-108551000D01*
X60620000Y-108511000D02*
X55498000Y-108511000D01*
X68502000Y-108511000D02*
X63380000Y-108511000D01*
X60620000Y-108471000D02*
X55469000Y-108471000D01*
X68531000Y-108471000D02*
X63380000Y-108471000D01*
X60620000Y-108431000D02*
X55441000Y-108431000D01*
X68559000Y-108431000D02*
X63380000Y-108431000D01*
X60620000Y-108391000D02*
X55412000Y-108391000D01*
X68588000Y-108391000D02*
X63380000Y-108391000D01*
X60620000Y-108351000D02*
X55385000Y-108351000D01*
X68615000Y-108351000D02*
X63380000Y-108351000D01*
X60620000Y-108311000D02*
X55357000Y-108311000D01*
X68643000Y-108311000D02*
X63380000Y-108311000D01*
X60620000Y-108271000D02*
X55330000Y-108271000D01*
X68670000Y-108271000D02*
X63380000Y-108271000D01*
X60620000Y-108231000D02*
X55303000Y-108231000D01*
X68697000Y-108231000D02*
X63380000Y-108231000D01*
X60620000Y-108191000D02*
X55277000Y-108191000D01*
X68723000Y-108191000D02*
X63380000Y-108191000D01*
X60620000Y-108151000D02*
X55251000Y-108151000D01*
X68749000Y-108151000D02*
X63380000Y-108151000D01*
X60620000Y-108111000D02*
X55225000Y-108111000D01*
X68775000Y-108111000D02*
X63380000Y-108111000D01*
X60620000Y-108071000D02*
X55199000Y-108071000D01*
X68801000Y-108071000D02*
X63380000Y-108071000D01*
X60620000Y-108031000D02*
X55174000Y-108031000D01*
X68826000Y-108031000D02*
X63380000Y-108031000D01*
X60620000Y-107991000D02*
X55150000Y-107991000D01*
X68850000Y-107991000D02*
X63380000Y-107991000D01*
X60620000Y-107951000D02*
X55125000Y-107951000D01*
X68875000Y-107951000D02*
X63380000Y-107951000D01*
X60620000Y-107911000D02*
X55101000Y-107911000D01*
X68899000Y-107911000D02*
X63380000Y-107911000D01*
X60620000Y-107871000D02*
X55077000Y-107871000D01*
X68923000Y-107871000D02*
X63380000Y-107871000D01*
X60620000Y-107831000D02*
X55054000Y-107831000D01*
X68946000Y-107831000D02*
X63380000Y-107831000D01*
X60620000Y-107791000D02*
X55030000Y-107791000D01*
X68970000Y-107791000D02*
X63380000Y-107791000D01*
X60620000Y-107751000D02*
X55008000Y-107751000D01*
X68992000Y-107751000D02*
X63380000Y-107751000D01*
X60620000Y-107711000D02*
X54985000Y-107711000D01*
X69015000Y-107711000D02*
X63380000Y-107711000D01*
X60620000Y-107671000D02*
X54963000Y-107671000D01*
X69037000Y-107671000D02*
X63380000Y-107671000D01*
X60620000Y-107631000D02*
X54941000Y-107631000D01*
X69059000Y-107631000D02*
X63380000Y-107631000D01*
X60620000Y-107591000D02*
X54919000Y-107591000D01*
X69081000Y-107591000D02*
X63380000Y-107591000D01*
X60620000Y-107551000D02*
X54898000Y-107551000D01*
X69102000Y-107551000D02*
X63380000Y-107551000D01*
X60620000Y-107511000D02*
X54876000Y-107511000D01*
X69124000Y-107511000D02*
X63380000Y-107511000D01*
X60620000Y-107471000D02*
X54856000Y-107471000D01*
X69144000Y-107471000D02*
X63380000Y-107471000D01*
X60620000Y-107431000D02*
X54835000Y-107431000D01*
X69165000Y-107431000D02*
X63380000Y-107431000D01*
X60620000Y-107391000D02*
X54815000Y-107391000D01*
X69185000Y-107391000D02*
X63380000Y-107391000D01*
X60620000Y-107351000D02*
X54795000Y-107351000D01*
X69205000Y-107351000D02*
X63380000Y-107351000D01*
X60620000Y-107311000D02*
X54775000Y-107311000D01*
X69225000Y-107311000D02*
X63380000Y-107311000D01*
X60620000Y-107271000D02*
X54755000Y-107271000D01*
X69245000Y-107271000D02*
X63380000Y-107271000D01*
X60620000Y-107231000D02*
X54736000Y-107231000D01*
X69264000Y-107231000D02*
X63380000Y-107231000D01*
X60620000Y-107191000D02*
X54717000Y-107191000D01*
X69283000Y-107191000D02*
X63380000Y-107191000D01*
X60620000Y-107151000D02*
X54699000Y-107151000D01*
X69301000Y-107151000D02*
X63380000Y-107151000D01*
X60620000Y-107111000D02*
X54680000Y-107111000D01*
X69320000Y-107111000D02*
X63380000Y-107111000D01*
X60620000Y-107071000D02*
X54662000Y-107071000D01*
X69338000Y-107071000D02*
X63380000Y-107071000D01*
X60620000Y-107031000D02*
X54644000Y-107031000D01*
X69356000Y-107031000D02*
X63380000Y-107031000D01*
X60620000Y-106991000D02*
X54627000Y-106991000D01*
X69373000Y-106991000D02*
X63380000Y-106991000D01*
X60620000Y-106951000D02*
X54609000Y-106951000D01*
X69391000Y-106951000D02*
X63380000Y-106951000D01*
X60620000Y-106911000D02*
X54592000Y-106911000D01*
X69408000Y-106911000D02*
X63380000Y-106911000D01*
X60620000Y-106871000D02*
X54575000Y-106871000D01*
X69425000Y-106871000D02*
X63380000Y-106871000D01*
X60620000Y-106831000D02*
X54559000Y-106831000D01*
X69441000Y-106831000D02*
X63380000Y-106831000D01*
X60620000Y-106791000D02*
X54542000Y-106791000D01*
X69458000Y-106791000D02*
X63380000Y-106791000D01*
X60620000Y-106751000D02*
X54526000Y-106751000D01*
X69474000Y-106751000D02*
X63380000Y-106751000D01*
X60620000Y-106711000D02*
X54510000Y-106711000D01*
X69490000Y-106711000D02*
X63380000Y-106711000D01*
X60620000Y-106671000D02*
X54495000Y-106671000D01*
X69505000Y-106671000D02*
X63380000Y-106671000D01*
X60620000Y-106631000D02*
X54479000Y-106631000D01*
X69521000Y-106631000D02*
X63380000Y-106631000D01*
X60620000Y-106591000D02*
X54464000Y-106591000D01*
X69536000Y-106591000D02*
X63380000Y-106591000D01*
X60620000Y-106551000D02*
X54450000Y-106551000D01*
X69550000Y-106551000D02*
X63380000Y-106551000D01*
X60620000Y-106511000D02*
X54435000Y-106511000D01*
X69565000Y-106511000D02*
X63380000Y-106511000D01*
X60620000Y-106471000D02*
X54420000Y-106471000D01*
X69580000Y-106471000D02*
X63380000Y-106471000D01*
X60620000Y-106431000D02*
X54406000Y-106431000D01*
X69594000Y-106431000D02*
X63380000Y-106431000D01*
X60620000Y-106391000D02*
X54392000Y-106391000D01*
X69608000Y-106391000D02*
X63380000Y-106391000D01*
X60620000Y-106351000D02*
X54379000Y-106351000D01*
X69621000Y-106351000D02*
X63380000Y-106351000D01*
X60620000Y-106311000D02*
X54365000Y-106311000D01*
X69635000Y-106311000D02*
X63380000Y-106311000D01*
X60620000Y-106271000D02*
X54352000Y-106271000D01*
X69648000Y-106271000D02*
X63380000Y-106271000D01*
X60620000Y-106231000D02*
X54339000Y-106231000D01*
X69661000Y-106231000D02*
X63380000Y-106231000D01*
X60620000Y-106191000D02*
X54326000Y-106191000D01*
X69674000Y-106191000D02*
X63380000Y-106191000D01*
X60620000Y-106151000D02*
X54314000Y-106151000D01*
X69686000Y-106151000D02*
X63380000Y-106151000D01*
X69699000Y-106111000D02*
X54301000Y-106111000D01*
X69711000Y-106071000D02*
X54289000Y-106071000D01*
X69723000Y-106031000D02*
X54277000Y-106031000D01*
X69734000Y-105991000D02*
X54266000Y-105991000D01*
X69746000Y-105951000D02*
X54254000Y-105951000D01*
X69757000Y-105911000D02*
X54243000Y-105911000D01*
X69768000Y-105871000D02*
X54232000Y-105871000D01*
X69779000Y-105831000D02*
X54221000Y-105831000D01*
X69789000Y-105791000D02*
X54211000Y-105791000D01*
X69799000Y-105751000D02*
X54201000Y-105751000D01*
X69809000Y-105711000D02*
X54191000Y-105711000D01*
X69819000Y-105671000D02*
X54181000Y-105671000D01*
X69829000Y-105631000D02*
X54171000Y-105631000D01*
X69838000Y-105591000D02*
X54162000Y-105591000D01*
X69848000Y-105551000D02*
X54152000Y-105551000D01*
X69857000Y-105511000D02*
X54143000Y-105511000D01*
X69866000Y-105471000D02*
X54134000Y-105471000D01*
X69874000Y-105431000D02*
X54126000Y-105431000D01*
X69883000Y-105391000D02*
X54117000Y-105391000D01*
X69891000Y-105351000D02*
X54109000Y-105351000D01*
X69899000Y-105311000D02*
X54101000Y-105311000D01*
X69906000Y-105271000D02*
X54094000Y-105271000D01*
X69914000Y-105231000D02*
X54086000Y-105231000D01*
X69921000Y-105191000D02*
X54079000Y-105191000D01*
X69928000Y-105151000D02*
X54072000Y-105151000D01*
X69935000Y-105111000D02*
X54065000Y-105111000D01*
X69942000Y-105071000D02*
X54058000Y-105071000D01*
X69949000Y-105031000D02*
X54051000Y-105031000D01*
X69955000Y-104991000D02*
X54045000Y-104991000D01*
X69961000Y-104951000D02*
X54039000Y-104951000D01*
X69967000Y-104911000D02*
X54033000Y-104911000D01*
X69973000Y-104871000D02*
X54027000Y-104871000D01*
X69978000Y-104831000D02*
X54022000Y-104831000D01*
X69983000Y-104791000D02*
X54017000Y-104791000D01*
X69988000Y-104751000D02*
X54012000Y-104751000D01*
X69993000Y-104711000D02*
X54007000Y-104711000D01*
X69998000Y-104671000D02*
X54002000Y-104671000D01*
X70002000Y-104631000D02*
X53998000Y-104631000D01*
X70007000Y-104591000D02*
X53993000Y-104591000D01*
X70011000Y-104551000D02*
X53989000Y-104551000D01*
X70015000Y-104511000D02*
X53985000Y-104511000D01*
X70018000Y-104471000D02*
X53982000Y-104471000D01*
X70022000Y-104430000D02*
X53978000Y-104430000D01*
X70025000Y-104390000D02*
X53975000Y-104390000D01*
X70028000Y-104350000D02*
X53972000Y-104350000D01*
X70031000Y-104310000D02*
X53969000Y-104310000D01*
X70034000Y-104270000D02*
X53966000Y-104270000D01*
X70036000Y-104230000D02*
X53964000Y-104230000D01*
X70039000Y-104190000D02*
X53961000Y-104190000D01*
X70041000Y-104150000D02*
X53959000Y-104150000D01*
X70042000Y-104110000D02*
X53958000Y-104110000D01*
X70044000Y-104070000D02*
X53956000Y-104070000D01*
X70046000Y-104030000D02*
X53954000Y-104030000D01*
X70047000Y-103990000D02*
X53953000Y-103990000D01*
X70048000Y-103950000D02*
X53952000Y-103950000D01*
X70049000Y-103910000D02*
X53951000Y-103910000D01*
X70050000Y-103870000D02*
X53950000Y-103870000D01*
X70050000Y-103830000D02*
X53950000Y-103830000D01*
X70050000Y-103790000D02*
X53950000Y-103790000D01*
X70051000Y-103750000D02*
X53949000Y-103750000D01*
X70090000Y-103750000D02*
G75*
G03X70090000Y-103750000I-8090000J0D01*
G01*
X76820277Y-54194278D02*
G75*
G03X76820000Y-58805580I1179723J-2305722D01*
G01*
X79179723Y-54194278D02*
G75*
G02X79180000Y-58805580I-1179723J-2305722D01*
G01*
X79179723Y-54194278D02*
G75*
G03X76820000Y-54194420I-1179723J-2305722D01*
G01*
X75450000Y-56500000D02*
X80550000Y-56500000D01*
X75450000Y-56460000D02*
X77020000Y-56460000D01*
X78980000Y-56460000D02*
X80550000Y-56460000D01*
X75451000Y-56420000D02*
X77020000Y-56420000D01*
X78980000Y-56420000D02*
X80549000Y-56420000D01*
X75452000Y-56380000D02*
X77020000Y-56380000D01*
X78980000Y-56380000D02*
X80548000Y-56380000D01*
X75454000Y-56340000D02*
X77020000Y-56340000D01*
X78980000Y-56340000D02*
X80546000Y-56340000D01*
X75457000Y-56300000D02*
X77020000Y-56300000D01*
X78980000Y-56300000D02*
X80543000Y-56300000D01*
X75461000Y-56260000D02*
X77020000Y-56260000D01*
X78980000Y-56260000D02*
X80539000Y-56260000D01*
X75465000Y-56220000D02*
X77020000Y-56220000D01*
X78980000Y-56220000D02*
X80535000Y-56220000D01*
X75469000Y-56180000D02*
X77020000Y-56180000D01*
X78980000Y-56180000D02*
X80531000Y-56180000D01*
X75475000Y-56140000D02*
X77020000Y-56140000D01*
X78980000Y-56140000D02*
X80525000Y-56140000D01*
X75481000Y-56100000D02*
X77020000Y-56100000D01*
X78980000Y-56100000D02*
X80519000Y-56100000D01*
X75487000Y-56060000D02*
X77020000Y-56060000D01*
X78980000Y-56060000D02*
X80513000Y-56060000D01*
X75494000Y-56020000D02*
X77020000Y-56020000D01*
X78980000Y-56020000D02*
X80506000Y-56020000D01*
X75502000Y-55980000D02*
X77020000Y-55980000D01*
X78980000Y-55980000D02*
X80498000Y-55980000D01*
X75511000Y-55940000D02*
X77020000Y-55940000D01*
X78980000Y-55940000D02*
X80489000Y-55940000D01*
X75520000Y-55900000D02*
X77020000Y-55900000D01*
X78980000Y-55900000D02*
X80480000Y-55900000D01*
X75530000Y-55860000D02*
X77020000Y-55860000D01*
X78980000Y-55860000D02*
X80470000Y-55860000D01*
X75540000Y-55820000D02*
X77020000Y-55820000D01*
X78980000Y-55820000D02*
X80460000Y-55820000D01*
X75552000Y-55779000D02*
X77020000Y-55779000D01*
X78980000Y-55779000D02*
X80448000Y-55779000D01*
X75564000Y-55739000D02*
X77020000Y-55739000D01*
X78980000Y-55739000D02*
X80436000Y-55739000D01*
X75576000Y-55699000D02*
X77020000Y-55699000D01*
X78980000Y-55699000D02*
X80424000Y-55699000D01*
X75590000Y-55659000D02*
X77020000Y-55659000D01*
X78980000Y-55659000D02*
X80410000Y-55659000D01*
X75604000Y-55619000D02*
X77020000Y-55619000D01*
X78980000Y-55619000D02*
X80396000Y-55619000D01*
X75618000Y-55579000D02*
X77020000Y-55579000D01*
X78980000Y-55579000D02*
X80382000Y-55579000D01*
X75634000Y-55539000D02*
X77020000Y-55539000D01*
X78980000Y-55539000D02*
X80366000Y-55539000D01*
X75650000Y-55499000D02*
X77020000Y-55499000D01*
X78980000Y-55499000D02*
X80350000Y-55499000D01*
X75667000Y-55459000D02*
X77020000Y-55459000D01*
X78980000Y-55459000D02*
X80333000Y-55459000D01*
X75685000Y-55419000D02*
X77020000Y-55419000D01*
X78980000Y-55419000D02*
X80315000Y-55419000D01*
X75704000Y-55379000D02*
X77020000Y-55379000D01*
X78980000Y-55379000D02*
X80296000Y-55379000D01*
X75724000Y-55339000D02*
X77020000Y-55339000D01*
X78980000Y-55339000D02*
X80276000Y-55339000D01*
X75744000Y-55299000D02*
X77020000Y-55299000D01*
X78980000Y-55299000D02*
X80256000Y-55299000D01*
X75766000Y-55259000D02*
X77020000Y-55259000D01*
X78980000Y-55259000D02*
X80234000Y-55259000D01*
X75788000Y-55219000D02*
X77020000Y-55219000D01*
X78980000Y-55219000D02*
X80212000Y-55219000D01*
X75811000Y-55179000D02*
X77020000Y-55179000D01*
X78980000Y-55179000D02*
X80189000Y-55179000D01*
X75835000Y-55139000D02*
X77020000Y-55139000D01*
X78980000Y-55139000D02*
X80165000Y-55139000D01*
X75860000Y-55099000D02*
X77020000Y-55099000D01*
X78980000Y-55099000D02*
X80140000Y-55099000D01*
X75887000Y-55059000D02*
X77020000Y-55059000D01*
X78980000Y-55059000D02*
X80113000Y-55059000D01*
X75914000Y-55019000D02*
X77020000Y-55019000D01*
X78980000Y-55019000D02*
X80086000Y-55019000D01*
X75942000Y-54979000D02*
X77020000Y-54979000D01*
X78980000Y-54979000D02*
X80058000Y-54979000D01*
X75972000Y-54939000D02*
X77020000Y-54939000D01*
X78980000Y-54939000D02*
X80028000Y-54939000D01*
X76003000Y-54899000D02*
X77020000Y-54899000D01*
X78980000Y-54899000D02*
X79997000Y-54899000D01*
X76035000Y-54859000D02*
X77020000Y-54859000D01*
X78980000Y-54859000D02*
X79965000Y-54859000D01*
X76068000Y-54819000D02*
X77020000Y-54819000D01*
X78980000Y-54819000D02*
X79932000Y-54819000D01*
X76103000Y-54779000D02*
X77020000Y-54779000D01*
X78980000Y-54779000D02*
X79897000Y-54779000D01*
X76139000Y-54739000D02*
X77020000Y-54739000D01*
X78980000Y-54739000D02*
X79861000Y-54739000D01*
X76177000Y-54699000D02*
X77020000Y-54699000D01*
X78980000Y-54699000D02*
X79823000Y-54699000D01*
X76217000Y-54659000D02*
X77020000Y-54659000D01*
X78980000Y-54659000D02*
X79783000Y-54659000D01*
X76258000Y-54619000D02*
X77020000Y-54619000D01*
X78980000Y-54619000D02*
X79742000Y-54619000D01*
X76301000Y-54579000D02*
X77020000Y-54579000D01*
X78980000Y-54579000D02*
X79699000Y-54579000D01*
X76346000Y-54539000D02*
X77020000Y-54539000D01*
X78980000Y-54539000D02*
X79654000Y-54539000D01*
X76394000Y-54499000D02*
X79606000Y-54499000D01*
X76444000Y-54459000D02*
X79556000Y-54459000D01*
X76496000Y-54419000D02*
X79504000Y-54419000D01*
X76552000Y-54379000D02*
X79448000Y-54379000D01*
X76610000Y-54339000D02*
X79390000Y-54339000D01*
X76673000Y-54299000D02*
X79327000Y-54299000D01*
X76739000Y-54259000D02*
X79261000Y-54259000D01*
X76811000Y-54219000D02*
X79189000Y-54219000D01*
X76888000Y-54179000D02*
X79112000Y-54179000D01*
X76972000Y-54139000D02*
X79028000Y-54139000D01*
X77066000Y-54099000D02*
X78934000Y-54099000D01*
X77171000Y-54059000D02*
X78829000Y-54059000D01*
X77293000Y-54019000D02*
X78707000Y-54019000D01*
X77441000Y-53979000D02*
X78559000Y-53979000D01*
X77646000Y-53939000D02*
X78354000Y-53939000D01*
X78000000Y-59700000D02*
X78000000Y-58500000D01*
X77350000Y-59100000D02*
X78650000Y-59100000D01*
X78650000Y-100900000D02*
X77350000Y-100900000D01*
X78000000Y-100300000D02*
X78000000Y-101500000D01*
X78354000Y-106061000D02*
X77646000Y-106061000D01*
X78559000Y-106021000D02*
X77441000Y-106021000D01*
X78707000Y-105981000D02*
X77293000Y-105981000D01*
X78829000Y-105941000D02*
X77171000Y-105941000D01*
X78934000Y-105901000D02*
X77066000Y-105901000D01*
X79028000Y-105861000D02*
X76972000Y-105861000D01*
X79112000Y-105821000D02*
X76888000Y-105821000D01*
X79189000Y-105781000D02*
X76811000Y-105781000D01*
X79261000Y-105741000D02*
X76739000Y-105741000D01*
X79327000Y-105701000D02*
X76673000Y-105701000D01*
X79390000Y-105661000D02*
X76610000Y-105661000D01*
X79448000Y-105621000D02*
X76552000Y-105621000D01*
X79504000Y-105581000D02*
X76496000Y-105581000D01*
X79556000Y-105541000D02*
X76444000Y-105541000D01*
X79606000Y-105501000D02*
X76394000Y-105501000D01*
X77020000Y-105461000D02*
X76346000Y-105461000D01*
X79654000Y-105461000D02*
X78980000Y-105461000D01*
X77020000Y-105421000D02*
X76301000Y-105421000D01*
X79699000Y-105421000D02*
X78980000Y-105421000D01*
X77020000Y-105381000D02*
X76258000Y-105381000D01*
X79742000Y-105381000D02*
X78980000Y-105381000D01*
X77020000Y-105341000D02*
X76217000Y-105341000D01*
X79783000Y-105341000D02*
X78980000Y-105341000D01*
X77020000Y-105301000D02*
X76177000Y-105301000D01*
X79823000Y-105301000D02*
X78980000Y-105301000D01*
X77020000Y-105261000D02*
X76139000Y-105261000D01*
X79861000Y-105261000D02*
X78980000Y-105261000D01*
X77020000Y-105221000D02*
X76103000Y-105221000D01*
X79897000Y-105221000D02*
X78980000Y-105221000D01*
X77020000Y-105181000D02*
X76068000Y-105181000D01*
X79932000Y-105181000D02*
X78980000Y-105181000D01*
X77020000Y-105141000D02*
X76035000Y-105141000D01*
X79965000Y-105141000D02*
X78980000Y-105141000D01*
X77020000Y-105101000D02*
X76003000Y-105101000D01*
X79997000Y-105101000D02*
X78980000Y-105101000D01*
X77020000Y-105061000D02*
X75972000Y-105061000D01*
X80028000Y-105061000D02*
X78980000Y-105061000D01*
X77020000Y-105021000D02*
X75942000Y-105021000D01*
X80058000Y-105021000D02*
X78980000Y-105021000D01*
X77020000Y-104981000D02*
X75914000Y-104981000D01*
X80086000Y-104981000D02*
X78980000Y-104981000D01*
X77020000Y-104941000D02*
X75887000Y-104941000D01*
X80113000Y-104941000D02*
X78980000Y-104941000D01*
X77020000Y-104901000D02*
X75860000Y-104901000D01*
X80140000Y-104901000D02*
X78980000Y-104901000D01*
X77020000Y-104861000D02*
X75835000Y-104861000D01*
X80165000Y-104861000D02*
X78980000Y-104861000D01*
X77020000Y-104821000D02*
X75811000Y-104821000D01*
X80189000Y-104821000D02*
X78980000Y-104821000D01*
X77020000Y-104781000D02*
X75788000Y-104781000D01*
X80212000Y-104781000D02*
X78980000Y-104781000D01*
X77020000Y-104741000D02*
X75766000Y-104741000D01*
X80234000Y-104741000D02*
X78980000Y-104741000D01*
X77020000Y-104701000D02*
X75744000Y-104701000D01*
X80256000Y-104701000D02*
X78980000Y-104701000D01*
X77020000Y-104661000D02*
X75724000Y-104661000D01*
X80276000Y-104661000D02*
X78980000Y-104661000D01*
X77020000Y-104621000D02*
X75704000Y-104621000D01*
X80296000Y-104621000D02*
X78980000Y-104621000D01*
X77020000Y-104581000D02*
X75685000Y-104581000D01*
X80315000Y-104581000D02*
X78980000Y-104581000D01*
X77020000Y-104541000D02*
X75667000Y-104541000D01*
X80333000Y-104541000D02*
X78980000Y-104541000D01*
X77020000Y-104501000D02*
X75650000Y-104501000D01*
X80350000Y-104501000D02*
X78980000Y-104501000D01*
X77020000Y-104461000D02*
X75634000Y-104461000D01*
X80366000Y-104461000D02*
X78980000Y-104461000D01*
X77020000Y-104421000D02*
X75618000Y-104421000D01*
X80382000Y-104421000D02*
X78980000Y-104421000D01*
X77020000Y-104381000D02*
X75604000Y-104381000D01*
X80396000Y-104381000D02*
X78980000Y-104381000D01*
X77020000Y-104341000D02*
X75590000Y-104341000D01*
X80410000Y-104341000D02*
X78980000Y-104341000D01*
X77020000Y-104301000D02*
X75576000Y-104301000D01*
X80424000Y-104301000D02*
X78980000Y-104301000D01*
X77020000Y-104261000D02*
X75564000Y-104261000D01*
X80436000Y-104261000D02*
X78980000Y-104261000D01*
X77020000Y-104221000D02*
X75552000Y-104221000D01*
X80448000Y-104221000D02*
X78980000Y-104221000D01*
X77020000Y-104180000D02*
X75540000Y-104180000D01*
X80460000Y-104180000D02*
X78980000Y-104180000D01*
X77020000Y-104140000D02*
X75530000Y-104140000D01*
X80470000Y-104140000D02*
X78980000Y-104140000D01*
X77020000Y-104100000D02*
X75520000Y-104100000D01*
X80480000Y-104100000D02*
X78980000Y-104100000D01*
X77020000Y-104060000D02*
X75511000Y-104060000D01*
X80489000Y-104060000D02*
X78980000Y-104060000D01*
X77020000Y-104020000D02*
X75502000Y-104020000D01*
X80498000Y-104020000D02*
X78980000Y-104020000D01*
X77020000Y-103980000D02*
X75494000Y-103980000D01*
X80506000Y-103980000D02*
X78980000Y-103980000D01*
X77020000Y-103940000D02*
X75487000Y-103940000D01*
X80513000Y-103940000D02*
X78980000Y-103940000D01*
X77020000Y-103900000D02*
X75481000Y-103900000D01*
X80519000Y-103900000D02*
X78980000Y-103900000D01*
X77020000Y-103860000D02*
X75475000Y-103860000D01*
X80525000Y-103860000D02*
X78980000Y-103860000D01*
X77020000Y-103820000D02*
X75469000Y-103820000D01*
X80531000Y-103820000D02*
X78980000Y-103820000D01*
X77020000Y-103780000D02*
X75465000Y-103780000D01*
X80535000Y-103780000D02*
X78980000Y-103780000D01*
X77020000Y-103740000D02*
X75461000Y-103740000D01*
X80539000Y-103740000D02*
X78980000Y-103740000D01*
X77020000Y-103700000D02*
X75457000Y-103700000D01*
X80543000Y-103700000D02*
X78980000Y-103700000D01*
X77020000Y-103660000D02*
X75454000Y-103660000D01*
X80546000Y-103660000D02*
X78980000Y-103660000D01*
X77020000Y-103620000D02*
X75452000Y-103620000D01*
X80548000Y-103620000D02*
X78980000Y-103620000D01*
X77020000Y-103580000D02*
X75451000Y-103580000D01*
X80549000Y-103580000D02*
X78980000Y-103580000D01*
X77020000Y-103540000D02*
X75450000Y-103540000D01*
X80550000Y-103540000D02*
X78980000Y-103540000D01*
X80550000Y-103500000D02*
X75450000Y-103500000D01*
X76820277Y-105805722D02*
G75*
G03X79180000Y-105805580I1179723J2305722D01*
G01*
X76820277Y-105805722D02*
G75*
G02X76820000Y-101194420I1179723J2305722D01*
G01*
X79179723Y-105805722D02*
G75*
G03X79180000Y-101194420I-1179723J2305722D01*
G01*
X86996000Y-54090000D02*
X87310000Y-54090000D01*
X84690000Y-54090000D02*
X85004000Y-54090000D01*
X86996000Y-58910000D02*
X87310000Y-58910000D01*
X84690000Y-58910000D02*
X85004000Y-58910000D01*
X87310000Y-58910000D02*
X87310000Y-54090000D01*
X84690000Y-58910000D02*
X84690000Y-54090000D01*
X85004000Y-105910000D02*
X84690000Y-105910000D01*
X87310000Y-105910000D02*
X86996000Y-105910000D01*
X85004000Y-101090000D02*
X84690000Y-101090000D01*
X87310000Y-101090000D02*
X86996000Y-101090000D01*
X84690000Y-101090000D02*
X84690000Y-105910000D01*
X87310000Y-101090000D02*
X87310000Y-105910000D01*
X118650000Y-14400000D02*
X117350000Y-14400000D01*
X118000000Y-13800000D02*
X118000000Y-15000000D01*
X118354000Y-19561000D02*
X117646000Y-19561000D01*
X118559000Y-19521000D02*
X117441000Y-19521000D01*
X118707000Y-19481000D02*
X117293000Y-19481000D01*
X118829000Y-19441000D02*
X117171000Y-19441000D01*
X118934000Y-19401000D02*
X117066000Y-19401000D01*
X119028000Y-19361000D02*
X116972000Y-19361000D01*
X119112000Y-19321000D02*
X116888000Y-19321000D01*
X119189000Y-19281000D02*
X116811000Y-19281000D01*
X119261000Y-19241000D02*
X116739000Y-19241000D01*
X119327000Y-19201000D02*
X116673000Y-19201000D01*
X119390000Y-19161000D02*
X116610000Y-19161000D01*
X119448000Y-19121000D02*
X116552000Y-19121000D01*
X119504000Y-19081000D02*
X116496000Y-19081000D01*
X119556000Y-19041000D02*
X116444000Y-19041000D01*
X119606000Y-19001000D02*
X116394000Y-19001000D01*
X117020000Y-18961000D02*
X116346000Y-18961000D01*
X119654000Y-18961000D02*
X118980000Y-18961000D01*
X117020000Y-18921000D02*
X116301000Y-18921000D01*
X119699000Y-18921000D02*
X118980000Y-18921000D01*
X117020000Y-18881000D02*
X116258000Y-18881000D01*
X119742000Y-18881000D02*
X118980000Y-18881000D01*
X117020000Y-18841000D02*
X116217000Y-18841000D01*
X119783000Y-18841000D02*
X118980000Y-18841000D01*
X117020000Y-18801000D02*
X116177000Y-18801000D01*
X119823000Y-18801000D02*
X118980000Y-18801000D01*
X117020000Y-18761000D02*
X116139000Y-18761000D01*
X119861000Y-18761000D02*
X118980000Y-18761000D01*
X117020000Y-18721000D02*
X116103000Y-18721000D01*
X119897000Y-18721000D02*
X118980000Y-18721000D01*
X117020000Y-18681000D02*
X116068000Y-18681000D01*
X119932000Y-18681000D02*
X118980000Y-18681000D01*
X117020000Y-18641000D02*
X116035000Y-18641000D01*
X119965000Y-18641000D02*
X118980000Y-18641000D01*
X117020000Y-18601000D02*
X116003000Y-18601000D01*
X119997000Y-18601000D02*
X118980000Y-18601000D01*
X117020000Y-18561000D02*
X115972000Y-18561000D01*
X120028000Y-18561000D02*
X118980000Y-18561000D01*
X117020000Y-18521000D02*
X115942000Y-18521000D01*
X120058000Y-18521000D02*
X118980000Y-18521000D01*
X117020000Y-18481000D02*
X115914000Y-18481000D01*
X120086000Y-18481000D02*
X118980000Y-18481000D01*
X117020000Y-18441000D02*
X115887000Y-18441000D01*
X120113000Y-18441000D02*
X118980000Y-18441000D01*
X117020000Y-18401000D02*
X115860000Y-18401000D01*
X120140000Y-18401000D02*
X118980000Y-18401000D01*
X117020000Y-18361000D02*
X115835000Y-18361000D01*
X120165000Y-18361000D02*
X118980000Y-18361000D01*
X117020000Y-18321000D02*
X115811000Y-18321000D01*
X120189000Y-18321000D02*
X118980000Y-18321000D01*
X117020000Y-18281000D02*
X115788000Y-18281000D01*
X120212000Y-18281000D02*
X118980000Y-18281000D01*
X117020000Y-18241000D02*
X115766000Y-18241000D01*
X120234000Y-18241000D02*
X118980000Y-18241000D01*
X117020000Y-18201000D02*
X115744000Y-18201000D01*
X120256000Y-18201000D02*
X118980000Y-18201000D01*
X117020000Y-18161000D02*
X115724000Y-18161000D01*
X120276000Y-18161000D02*
X118980000Y-18161000D01*
X117020000Y-18121000D02*
X115704000Y-18121000D01*
X120296000Y-18121000D02*
X118980000Y-18121000D01*
X117020000Y-18081000D02*
X115685000Y-18081000D01*
X120315000Y-18081000D02*
X118980000Y-18081000D01*
X117020000Y-18041000D02*
X115667000Y-18041000D01*
X120333000Y-18041000D02*
X118980000Y-18041000D01*
X117020000Y-18001000D02*
X115650000Y-18001000D01*
X120350000Y-18001000D02*
X118980000Y-18001000D01*
X117020000Y-17961000D02*
X115634000Y-17961000D01*
X120366000Y-17961000D02*
X118980000Y-17961000D01*
X117020000Y-17921000D02*
X115618000Y-17921000D01*
X120382000Y-17921000D02*
X118980000Y-17921000D01*
X117020000Y-17881000D02*
X115604000Y-17881000D01*
X120396000Y-17881000D02*
X118980000Y-17881000D01*
X117020000Y-17841000D02*
X115590000Y-17841000D01*
X120410000Y-17841000D02*
X118980000Y-17841000D01*
X117020000Y-17801000D02*
X115576000Y-17801000D01*
X120424000Y-17801000D02*
X118980000Y-17801000D01*
X117020000Y-17761000D02*
X115564000Y-17761000D01*
X120436000Y-17761000D02*
X118980000Y-17761000D01*
X117020000Y-17721000D02*
X115552000Y-17721000D01*
X120448000Y-17721000D02*
X118980000Y-17721000D01*
X117020000Y-17680000D02*
X115540000Y-17680000D01*
X120460000Y-17680000D02*
X118980000Y-17680000D01*
X117020000Y-17640000D02*
X115530000Y-17640000D01*
X120470000Y-17640000D02*
X118980000Y-17640000D01*
X117020000Y-17600000D02*
X115520000Y-17600000D01*
X120480000Y-17600000D02*
X118980000Y-17600000D01*
X117020000Y-17560000D02*
X115511000Y-17560000D01*
X120489000Y-17560000D02*
X118980000Y-17560000D01*
X117020000Y-17520000D02*
X115502000Y-17520000D01*
X120498000Y-17520000D02*
X118980000Y-17520000D01*
X117020000Y-17480000D02*
X115494000Y-17480000D01*
X120506000Y-17480000D02*
X118980000Y-17480000D01*
X117020000Y-17440000D02*
X115487000Y-17440000D01*
X120513000Y-17440000D02*
X118980000Y-17440000D01*
X117020000Y-17400000D02*
X115481000Y-17400000D01*
X120519000Y-17400000D02*
X118980000Y-17400000D01*
X117020000Y-17360000D02*
X115475000Y-17360000D01*
X120525000Y-17360000D02*
X118980000Y-17360000D01*
X117020000Y-17320000D02*
X115469000Y-17320000D01*
X120531000Y-17320000D02*
X118980000Y-17320000D01*
X117020000Y-17280000D02*
X115465000Y-17280000D01*
X120535000Y-17280000D02*
X118980000Y-17280000D01*
X117020000Y-17240000D02*
X115461000Y-17240000D01*
X120539000Y-17240000D02*
X118980000Y-17240000D01*
X117020000Y-17200000D02*
X115457000Y-17200000D01*
X120543000Y-17200000D02*
X118980000Y-17200000D01*
X117020000Y-17160000D02*
X115454000Y-17160000D01*
X120546000Y-17160000D02*
X118980000Y-17160000D01*
X117020000Y-17120000D02*
X115452000Y-17120000D01*
X120548000Y-17120000D02*
X118980000Y-17120000D01*
X117020000Y-17080000D02*
X115451000Y-17080000D01*
X120549000Y-17080000D02*
X118980000Y-17080000D01*
X117020000Y-17040000D02*
X115450000Y-17040000D01*
X120550000Y-17040000D02*
X118980000Y-17040000D01*
X120550000Y-17000000D02*
X115450000Y-17000000D01*
X116820277Y-19305722D02*
G75*
G03X119180000Y-19305580I1179723J2305722D01*
G01*
X116820277Y-19305722D02*
G75*
G02X116820000Y-14694420I1179723J2305722D01*
G01*
X119179723Y-19305722D02*
G75*
G03X119180000Y-14694420I-1179723J2305722D01*
G01*
X148820277Y-14194278D02*
G75*
G03X148820000Y-18805580I1179723J-2305722D01*
G01*
X151179723Y-14194278D02*
G75*
G02X151180000Y-18805580I-1179723J-2305722D01*
G01*
X151179723Y-14194278D02*
G75*
G03X148820000Y-14194420I-1179723J-2305722D01*
G01*
X147450000Y-16500000D02*
X152550000Y-16500000D01*
X147450000Y-16460000D02*
X149020000Y-16460000D01*
X150980000Y-16460000D02*
X152550000Y-16460000D01*
X147451000Y-16420000D02*
X149020000Y-16420000D01*
X150980000Y-16420000D02*
X152549000Y-16420000D01*
X147452000Y-16380000D02*
X149020000Y-16380000D01*
X150980000Y-16380000D02*
X152548000Y-16380000D01*
X147454000Y-16340000D02*
X149020000Y-16340000D01*
X150980000Y-16340000D02*
X152546000Y-16340000D01*
X147457000Y-16300000D02*
X149020000Y-16300000D01*
X150980000Y-16300000D02*
X152543000Y-16300000D01*
X147461000Y-16260000D02*
X149020000Y-16260000D01*
X150980000Y-16260000D02*
X152539000Y-16260000D01*
X147465000Y-16220000D02*
X149020000Y-16220000D01*
X150980000Y-16220000D02*
X152535000Y-16220000D01*
X147469000Y-16180000D02*
X149020000Y-16180000D01*
X150980000Y-16180000D02*
X152531000Y-16180000D01*
X147475000Y-16140000D02*
X149020000Y-16140000D01*
X150980000Y-16140000D02*
X152525000Y-16140000D01*
X147481000Y-16100000D02*
X149020000Y-16100000D01*
X150980000Y-16100000D02*
X152519000Y-16100000D01*
X147487000Y-16060000D02*
X149020000Y-16060000D01*
X150980000Y-16060000D02*
X152513000Y-16060000D01*
X147494000Y-16020000D02*
X149020000Y-16020000D01*
X150980000Y-16020000D02*
X152506000Y-16020000D01*
X147502000Y-15980000D02*
X149020000Y-15980000D01*
X150980000Y-15980000D02*
X152498000Y-15980000D01*
X147511000Y-15940000D02*
X149020000Y-15940000D01*
X150980000Y-15940000D02*
X152489000Y-15940000D01*
X147520000Y-15900000D02*
X149020000Y-15900000D01*
X150980000Y-15900000D02*
X152480000Y-15900000D01*
X147530000Y-15860000D02*
X149020000Y-15860000D01*
X150980000Y-15860000D02*
X152470000Y-15860000D01*
X147540000Y-15820000D02*
X149020000Y-15820000D01*
X150980000Y-15820000D02*
X152460000Y-15820000D01*
X147552000Y-15779000D02*
X149020000Y-15779000D01*
X150980000Y-15779000D02*
X152448000Y-15779000D01*
X147564000Y-15739000D02*
X149020000Y-15739000D01*
X150980000Y-15739000D02*
X152436000Y-15739000D01*
X147576000Y-15699000D02*
X149020000Y-15699000D01*
X150980000Y-15699000D02*
X152424000Y-15699000D01*
X147590000Y-15659000D02*
X149020000Y-15659000D01*
X150980000Y-15659000D02*
X152410000Y-15659000D01*
X147604000Y-15619000D02*
X149020000Y-15619000D01*
X150980000Y-15619000D02*
X152396000Y-15619000D01*
X147618000Y-15579000D02*
X149020000Y-15579000D01*
X150980000Y-15579000D02*
X152382000Y-15579000D01*
X147634000Y-15539000D02*
X149020000Y-15539000D01*
X150980000Y-15539000D02*
X152366000Y-15539000D01*
X147650000Y-15499000D02*
X149020000Y-15499000D01*
X150980000Y-15499000D02*
X152350000Y-15499000D01*
X147667000Y-15459000D02*
X149020000Y-15459000D01*
X150980000Y-15459000D02*
X152333000Y-15459000D01*
X147685000Y-15419000D02*
X149020000Y-15419000D01*
X150980000Y-15419000D02*
X152315000Y-15419000D01*
X147704000Y-15379000D02*
X149020000Y-15379000D01*
X150980000Y-15379000D02*
X152296000Y-15379000D01*
X147724000Y-15339000D02*
X149020000Y-15339000D01*
X150980000Y-15339000D02*
X152276000Y-15339000D01*
X147744000Y-15299000D02*
X149020000Y-15299000D01*
X150980000Y-15299000D02*
X152256000Y-15299000D01*
X147766000Y-15259000D02*
X149020000Y-15259000D01*
X150980000Y-15259000D02*
X152234000Y-15259000D01*
X147788000Y-15219000D02*
X149020000Y-15219000D01*
X150980000Y-15219000D02*
X152212000Y-15219000D01*
X147811000Y-15179000D02*
X149020000Y-15179000D01*
X150980000Y-15179000D02*
X152189000Y-15179000D01*
X147835000Y-15139000D02*
X149020000Y-15139000D01*
X150980000Y-15139000D02*
X152165000Y-15139000D01*
X147860000Y-15099000D02*
X149020000Y-15099000D01*
X150980000Y-15099000D02*
X152140000Y-15099000D01*
X147887000Y-15059000D02*
X149020000Y-15059000D01*
X150980000Y-15059000D02*
X152113000Y-15059000D01*
X147914000Y-15019000D02*
X149020000Y-15019000D01*
X150980000Y-15019000D02*
X152086000Y-15019000D01*
X147942000Y-14979000D02*
X149020000Y-14979000D01*
X150980000Y-14979000D02*
X152058000Y-14979000D01*
X147972000Y-14939000D02*
X149020000Y-14939000D01*
X150980000Y-14939000D02*
X152028000Y-14939000D01*
X148003000Y-14899000D02*
X149020000Y-14899000D01*
X150980000Y-14899000D02*
X151997000Y-14899000D01*
X148035000Y-14859000D02*
X149020000Y-14859000D01*
X150980000Y-14859000D02*
X151965000Y-14859000D01*
X148068000Y-14819000D02*
X149020000Y-14819000D01*
X150980000Y-14819000D02*
X151932000Y-14819000D01*
X148103000Y-14779000D02*
X149020000Y-14779000D01*
X150980000Y-14779000D02*
X151897000Y-14779000D01*
X148139000Y-14739000D02*
X149020000Y-14739000D01*
X150980000Y-14739000D02*
X151861000Y-14739000D01*
X148177000Y-14699000D02*
X149020000Y-14699000D01*
X150980000Y-14699000D02*
X151823000Y-14699000D01*
X148217000Y-14659000D02*
X149020000Y-14659000D01*
X150980000Y-14659000D02*
X151783000Y-14659000D01*
X148258000Y-14619000D02*
X149020000Y-14619000D01*
X150980000Y-14619000D02*
X151742000Y-14619000D01*
X148301000Y-14579000D02*
X149020000Y-14579000D01*
X150980000Y-14579000D02*
X151699000Y-14579000D01*
X148346000Y-14539000D02*
X149020000Y-14539000D01*
X150980000Y-14539000D02*
X151654000Y-14539000D01*
X148394000Y-14499000D02*
X151606000Y-14499000D01*
X148444000Y-14459000D02*
X151556000Y-14459000D01*
X148496000Y-14419000D02*
X151504000Y-14419000D01*
X148552000Y-14379000D02*
X151448000Y-14379000D01*
X148610000Y-14339000D02*
X151390000Y-14339000D01*
X148673000Y-14299000D02*
X151327000Y-14299000D01*
X148739000Y-14259000D02*
X151261000Y-14259000D01*
X148811000Y-14219000D02*
X151189000Y-14219000D01*
X148888000Y-14179000D02*
X151112000Y-14179000D01*
X148972000Y-14139000D02*
X151028000Y-14139000D01*
X149066000Y-14099000D02*
X150934000Y-14099000D01*
X149171000Y-14059000D02*
X150829000Y-14059000D01*
X149293000Y-14019000D02*
X150707000Y-14019000D01*
X149441000Y-13979000D02*
X150559000Y-13979000D01*
X149646000Y-13939000D02*
X150354000Y-13939000D01*
X150000000Y-19700000D02*
X150000000Y-18500000D01*
X149350000Y-19100000D02*
X150650000Y-19100000D01*
X119179723Y-59305722D02*
G75*
G03X119180000Y-54694420I-1179723J2305722D01*
G01*
X116820277Y-59305722D02*
G75*
G02X116820000Y-54694420I1179723J2305722D01*
G01*
X116820277Y-59305722D02*
G75*
G03X119180000Y-59305580I1179723J2305722D01*
G01*
X120550000Y-57000000D02*
X115450000Y-57000000D01*
X120550000Y-57040000D02*
X118980000Y-57040000D01*
X117020000Y-57040000D02*
X115450000Y-57040000D01*
X120549000Y-57080000D02*
X118980000Y-57080000D01*
X117020000Y-57080000D02*
X115451000Y-57080000D01*
X120548000Y-57120000D02*
X118980000Y-57120000D01*
X117020000Y-57120000D02*
X115452000Y-57120000D01*
X120546000Y-57160000D02*
X118980000Y-57160000D01*
X117020000Y-57160000D02*
X115454000Y-57160000D01*
X120543000Y-57200000D02*
X118980000Y-57200000D01*
X117020000Y-57200000D02*
X115457000Y-57200000D01*
X120539000Y-57240000D02*
X118980000Y-57240000D01*
X117020000Y-57240000D02*
X115461000Y-57240000D01*
X120535000Y-57280000D02*
X118980000Y-57280000D01*
X117020000Y-57280000D02*
X115465000Y-57280000D01*
X120531000Y-57320000D02*
X118980000Y-57320000D01*
X117020000Y-57320000D02*
X115469000Y-57320000D01*
X120525000Y-57360000D02*
X118980000Y-57360000D01*
X117020000Y-57360000D02*
X115475000Y-57360000D01*
X120519000Y-57400000D02*
X118980000Y-57400000D01*
X117020000Y-57400000D02*
X115481000Y-57400000D01*
X120513000Y-57440000D02*
X118980000Y-57440000D01*
X117020000Y-57440000D02*
X115487000Y-57440000D01*
X120506000Y-57480000D02*
X118980000Y-57480000D01*
X117020000Y-57480000D02*
X115494000Y-57480000D01*
X120498000Y-57520000D02*
X118980000Y-57520000D01*
X117020000Y-57520000D02*
X115502000Y-57520000D01*
X120489000Y-57560000D02*
X118980000Y-57560000D01*
X117020000Y-57560000D02*
X115511000Y-57560000D01*
X120480000Y-57600000D02*
X118980000Y-57600000D01*
X117020000Y-57600000D02*
X115520000Y-57600000D01*
X120470000Y-57640000D02*
X118980000Y-57640000D01*
X117020000Y-57640000D02*
X115530000Y-57640000D01*
X120460000Y-57680000D02*
X118980000Y-57680000D01*
X117020000Y-57680000D02*
X115540000Y-57680000D01*
X120448000Y-57721000D02*
X118980000Y-57721000D01*
X117020000Y-57721000D02*
X115552000Y-57721000D01*
X120436000Y-57761000D02*
X118980000Y-57761000D01*
X117020000Y-57761000D02*
X115564000Y-57761000D01*
X120424000Y-57801000D02*
X118980000Y-57801000D01*
X117020000Y-57801000D02*
X115576000Y-57801000D01*
X120410000Y-57841000D02*
X118980000Y-57841000D01*
X117020000Y-57841000D02*
X115590000Y-57841000D01*
X120396000Y-57881000D02*
X118980000Y-57881000D01*
X117020000Y-57881000D02*
X115604000Y-57881000D01*
X120382000Y-57921000D02*
X118980000Y-57921000D01*
X117020000Y-57921000D02*
X115618000Y-57921000D01*
X120366000Y-57961000D02*
X118980000Y-57961000D01*
X117020000Y-57961000D02*
X115634000Y-57961000D01*
X120350000Y-58001000D02*
X118980000Y-58001000D01*
X117020000Y-58001000D02*
X115650000Y-58001000D01*
X120333000Y-58041000D02*
X118980000Y-58041000D01*
X117020000Y-58041000D02*
X115667000Y-58041000D01*
X120315000Y-58081000D02*
X118980000Y-58081000D01*
X117020000Y-58081000D02*
X115685000Y-58081000D01*
X120296000Y-58121000D02*
X118980000Y-58121000D01*
X117020000Y-58121000D02*
X115704000Y-58121000D01*
X120276000Y-58161000D02*
X118980000Y-58161000D01*
X117020000Y-58161000D02*
X115724000Y-58161000D01*
X120256000Y-58201000D02*
X118980000Y-58201000D01*
X117020000Y-58201000D02*
X115744000Y-58201000D01*
X120234000Y-58241000D02*
X118980000Y-58241000D01*
X117020000Y-58241000D02*
X115766000Y-58241000D01*
X120212000Y-58281000D02*
X118980000Y-58281000D01*
X117020000Y-58281000D02*
X115788000Y-58281000D01*
X120189000Y-58321000D02*
X118980000Y-58321000D01*
X117020000Y-58321000D02*
X115811000Y-58321000D01*
X120165000Y-58361000D02*
X118980000Y-58361000D01*
X117020000Y-58361000D02*
X115835000Y-58361000D01*
X120140000Y-58401000D02*
X118980000Y-58401000D01*
X117020000Y-58401000D02*
X115860000Y-58401000D01*
X120113000Y-58441000D02*
X118980000Y-58441000D01*
X117020000Y-58441000D02*
X115887000Y-58441000D01*
X120086000Y-58481000D02*
X118980000Y-58481000D01*
X117020000Y-58481000D02*
X115914000Y-58481000D01*
X120058000Y-58521000D02*
X118980000Y-58521000D01*
X117020000Y-58521000D02*
X115942000Y-58521000D01*
X120028000Y-58561000D02*
X118980000Y-58561000D01*
X117020000Y-58561000D02*
X115972000Y-58561000D01*
X119997000Y-58601000D02*
X118980000Y-58601000D01*
X117020000Y-58601000D02*
X116003000Y-58601000D01*
X119965000Y-58641000D02*
X118980000Y-58641000D01*
X117020000Y-58641000D02*
X116035000Y-58641000D01*
X119932000Y-58681000D02*
X118980000Y-58681000D01*
X117020000Y-58681000D02*
X116068000Y-58681000D01*
X119897000Y-58721000D02*
X118980000Y-58721000D01*
X117020000Y-58721000D02*
X116103000Y-58721000D01*
X119861000Y-58761000D02*
X118980000Y-58761000D01*
X117020000Y-58761000D02*
X116139000Y-58761000D01*
X119823000Y-58801000D02*
X118980000Y-58801000D01*
X117020000Y-58801000D02*
X116177000Y-58801000D01*
X119783000Y-58841000D02*
X118980000Y-58841000D01*
X117020000Y-58841000D02*
X116217000Y-58841000D01*
X119742000Y-58881000D02*
X118980000Y-58881000D01*
X117020000Y-58881000D02*
X116258000Y-58881000D01*
X119699000Y-58921000D02*
X118980000Y-58921000D01*
X117020000Y-58921000D02*
X116301000Y-58921000D01*
X119654000Y-58961000D02*
X118980000Y-58961000D01*
X117020000Y-58961000D02*
X116346000Y-58961000D01*
X119606000Y-59001000D02*
X116394000Y-59001000D01*
X119556000Y-59041000D02*
X116444000Y-59041000D01*
X119504000Y-59081000D02*
X116496000Y-59081000D01*
X119448000Y-59121000D02*
X116552000Y-59121000D01*
X119390000Y-59161000D02*
X116610000Y-59161000D01*
X119327000Y-59201000D02*
X116673000Y-59201000D01*
X119261000Y-59241000D02*
X116739000Y-59241000D01*
X119189000Y-59281000D02*
X116811000Y-59281000D01*
X119112000Y-59321000D02*
X116888000Y-59321000D01*
X119028000Y-59361000D02*
X116972000Y-59361000D01*
X118934000Y-59401000D02*
X117066000Y-59401000D01*
X118829000Y-59441000D02*
X117171000Y-59441000D01*
X118707000Y-59481000D02*
X117293000Y-59481000D01*
X118559000Y-59521000D02*
X117441000Y-59521000D01*
X118354000Y-59561000D02*
X117646000Y-59561000D01*
X118000000Y-53800000D02*
X118000000Y-55000000D01*
X118650000Y-54400000D02*
X117350000Y-54400000D01*
X126650000Y-100900000D02*
X125350000Y-100900000D01*
X126000000Y-100300000D02*
X126000000Y-101500000D01*
X126354000Y-106061000D02*
X125646000Y-106061000D01*
X126559000Y-106021000D02*
X125441000Y-106021000D01*
X126707000Y-105981000D02*
X125293000Y-105981000D01*
X126829000Y-105941000D02*
X125171000Y-105941000D01*
X126934000Y-105901000D02*
X125066000Y-105901000D01*
X127028000Y-105861000D02*
X124972000Y-105861000D01*
X127112000Y-105821000D02*
X124888000Y-105821000D01*
X127189000Y-105781000D02*
X124811000Y-105781000D01*
X127261000Y-105741000D02*
X124739000Y-105741000D01*
X127327000Y-105701000D02*
X124673000Y-105701000D01*
X127390000Y-105661000D02*
X124610000Y-105661000D01*
X127448000Y-105621000D02*
X124552000Y-105621000D01*
X127504000Y-105581000D02*
X124496000Y-105581000D01*
X127556000Y-105541000D02*
X124444000Y-105541000D01*
X127606000Y-105501000D02*
X124394000Y-105501000D01*
X125020000Y-105461000D02*
X124346000Y-105461000D01*
X127654000Y-105461000D02*
X126980000Y-105461000D01*
X125020000Y-105421000D02*
X124301000Y-105421000D01*
X127699000Y-105421000D02*
X126980000Y-105421000D01*
X125020000Y-105381000D02*
X124258000Y-105381000D01*
X127742000Y-105381000D02*
X126980000Y-105381000D01*
X125020000Y-105341000D02*
X124217000Y-105341000D01*
X127783000Y-105341000D02*
X126980000Y-105341000D01*
X125020000Y-105301000D02*
X124177000Y-105301000D01*
X127823000Y-105301000D02*
X126980000Y-105301000D01*
X125020000Y-105261000D02*
X124139000Y-105261000D01*
X127861000Y-105261000D02*
X126980000Y-105261000D01*
X125020000Y-105221000D02*
X124103000Y-105221000D01*
X127897000Y-105221000D02*
X126980000Y-105221000D01*
X125020000Y-105181000D02*
X124068000Y-105181000D01*
X127932000Y-105181000D02*
X126980000Y-105181000D01*
X125020000Y-105141000D02*
X124035000Y-105141000D01*
X127965000Y-105141000D02*
X126980000Y-105141000D01*
X125020000Y-105101000D02*
X124003000Y-105101000D01*
X127997000Y-105101000D02*
X126980000Y-105101000D01*
X125020000Y-105061000D02*
X123972000Y-105061000D01*
X128028000Y-105061000D02*
X126980000Y-105061000D01*
X125020000Y-105021000D02*
X123942000Y-105021000D01*
X128058000Y-105021000D02*
X126980000Y-105021000D01*
X125020000Y-104981000D02*
X123914000Y-104981000D01*
X128086000Y-104981000D02*
X126980000Y-104981000D01*
X125020000Y-104941000D02*
X123887000Y-104941000D01*
X128113000Y-104941000D02*
X126980000Y-104941000D01*
X125020000Y-104901000D02*
X123860000Y-104901000D01*
X128140000Y-104901000D02*
X126980000Y-104901000D01*
X125020000Y-104861000D02*
X123835000Y-104861000D01*
X128165000Y-104861000D02*
X126980000Y-104861000D01*
X125020000Y-104821000D02*
X123811000Y-104821000D01*
X128189000Y-104821000D02*
X126980000Y-104821000D01*
X125020000Y-104781000D02*
X123788000Y-104781000D01*
X128212000Y-104781000D02*
X126980000Y-104781000D01*
X125020000Y-104741000D02*
X123766000Y-104741000D01*
X128234000Y-104741000D02*
X126980000Y-104741000D01*
X125020000Y-104701000D02*
X123744000Y-104701000D01*
X128256000Y-104701000D02*
X126980000Y-104701000D01*
X125020000Y-104661000D02*
X123724000Y-104661000D01*
X128276000Y-104661000D02*
X126980000Y-104661000D01*
X125020000Y-104621000D02*
X123704000Y-104621000D01*
X128296000Y-104621000D02*
X126980000Y-104621000D01*
X125020000Y-104581000D02*
X123685000Y-104581000D01*
X128315000Y-104581000D02*
X126980000Y-104581000D01*
X125020000Y-104541000D02*
X123667000Y-104541000D01*
X128333000Y-104541000D02*
X126980000Y-104541000D01*
X125020000Y-104501000D02*
X123650000Y-104501000D01*
X128350000Y-104501000D02*
X126980000Y-104501000D01*
X125020000Y-104461000D02*
X123634000Y-104461000D01*
X128366000Y-104461000D02*
X126980000Y-104461000D01*
X125020000Y-104421000D02*
X123618000Y-104421000D01*
X128382000Y-104421000D02*
X126980000Y-104421000D01*
X125020000Y-104381000D02*
X123604000Y-104381000D01*
X128396000Y-104381000D02*
X126980000Y-104381000D01*
X125020000Y-104341000D02*
X123590000Y-104341000D01*
X128410000Y-104341000D02*
X126980000Y-104341000D01*
X125020000Y-104301000D02*
X123576000Y-104301000D01*
X128424000Y-104301000D02*
X126980000Y-104301000D01*
X125020000Y-104261000D02*
X123564000Y-104261000D01*
X128436000Y-104261000D02*
X126980000Y-104261000D01*
X125020000Y-104221000D02*
X123552000Y-104221000D01*
X128448000Y-104221000D02*
X126980000Y-104221000D01*
X125020000Y-104180000D02*
X123540000Y-104180000D01*
X128460000Y-104180000D02*
X126980000Y-104180000D01*
X125020000Y-104140000D02*
X123530000Y-104140000D01*
X128470000Y-104140000D02*
X126980000Y-104140000D01*
X125020000Y-104100000D02*
X123520000Y-104100000D01*
X128480000Y-104100000D02*
X126980000Y-104100000D01*
X125020000Y-104060000D02*
X123511000Y-104060000D01*
X128489000Y-104060000D02*
X126980000Y-104060000D01*
X125020000Y-104020000D02*
X123502000Y-104020000D01*
X128498000Y-104020000D02*
X126980000Y-104020000D01*
X125020000Y-103980000D02*
X123494000Y-103980000D01*
X128506000Y-103980000D02*
X126980000Y-103980000D01*
X125020000Y-103940000D02*
X123487000Y-103940000D01*
X128513000Y-103940000D02*
X126980000Y-103940000D01*
X125020000Y-103900000D02*
X123481000Y-103900000D01*
X128519000Y-103900000D02*
X126980000Y-103900000D01*
X125020000Y-103860000D02*
X123475000Y-103860000D01*
X128525000Y-103860000D02*
X126980000Y-103860000D01*
X125020000Y-103820000D02*
X123469000Y-103820000D01*
X128531000Y-103820000D02*
X126980000Y-103820000D01*
X125020000Y-103780000D02*
X123465000Y-103780000D01*
X128535000Y-103780000D02*
X126980000Y-103780000D01*
X125020000Y-103740000D02*
X123461000Y-103740000D01*
X128539000Y-103740000D02*
X126980000Y-103740000D01*
X125020000Y-103700000D02*
X123457000Y-103700000D01*
X128543000Y-103700000D02*
X126980000Y-103700000D01*
X125020000Y-103660000D02*
X123454000Y-103660000D01*
X128546000Y-103660000D02*
X126980000Y-103660000D01*
X125020000Y-103620000D02*
X123452000Y-103620000D01*
X128548000Y-103620000D02*
X126980000Y-103620000D01*
X125020000Y-103580000D02*
X123451000Y-103580000D01*
X128549000Y-103580000D02*
X126980000Y-103580000D01*
X125020000Y-103540000D02*
X123450000Y-103540000D01*
X128550000Y-103540000D02*
X126980000Y-103540000D01*
X128550000Y-103500000D02*
X123450000Y-103500000D01*
X124820277Y-105805722D02*
G75*
G03X127180000Y-105805580I1179723J2305722D01*
G01*
X124820277Y-105805722D02*
G75*
G02X124820000Y-101194420I1179723J2305722D01*
G01*
X127179723Y-105805722D02*
G75*
G03X127180000Y-101194420I-1179723J2305722D01*
G01*
X156820277Y-14194278D02*
G75*
G03X156820000Y-18805580I1179723J-2305722D01*
G01*
X159179723Y-14194278D02*
G75*
G02X159180000Y-18805580I-1179723J-2305722D01*
G01*
X159179723Y-14194278D02*
G75*
G03X156820000Y-14194420I-1179723J-2305722D01*
G01*
X155450000Y-16500000D02*
X160550000Y-16500000D01*
X155450000Y-16460000D02*
X157020000Y-16460000D01*
X158980000Y-16460000D02*
X160550000Y-16460000D01*
X155451000Y-16420000D02*
X157020000Y-16420000D01*
X158980000Y-16420000D02*
X160549000Y-16420000D01*
X155452000Y-16380000D02*
X157020000Y-16380000D01*
X158980000Y-16380000D02*
X160548000Y-16380000D01*
X155454000Y-16340000D02*
X157020000Y-16340000D01*
X158980000Y-16340000D02*
X160546000Y-16340000D01*
X155457000Y-16300000D02*
X157020000Y-16300000D01*
X158980000Y-16300000D02*
X160543000Y-16300000D01*
X155461000Y-16260000D02*
X157020000Y-16260000D01*
X158980000Y-16260000D02*
X160539000Y-16260000D01*
X155465000Y-16220000D02*
X157020000Y-16220000D01*
X158980000Y-16220000D02*
X160535000Y-16220000D01*
X155469000Y-16180000D02*
X157020000Y-16180000D01*
X158980000Y-16180000D02*
X160531000Y-16180000D01*
X155475000Y-16140000D02*
X157020000Y-16140000D01*
X158980000Y-16140000D02*
X160525000Y-16140000D01*
X155481000Y-16100000D02*
X157020000Y-16100000D01*
X158980000Y-16100000D02*
X160519000Y-16100000D01*
X155487000Y-16060000D02*
X157020000Y-16060000D01*
X158980000Y-16060000D02*
X160513000Y-16060000D01*
X155494000Y-16020000D02*
X157020000Y-16020000D01*
X158980000Y-16020000D02*
X160506000Y-16020000D01*
X155502000Y-15980000D02*
X157020000Y-15980000D01*
X158980000Y-15980000D02*
X160498000Y-15980000D01*
X155511000Y-15940000D02*
X157020000Y-15940000D01*
X158980000Y-15940000D02*
X160489000Y-15940000D01*
X155520000Y-15900000D02*
X157020000Y-15900000D01*
X158980000Y-15900000D02*
X160480000Y-15900000D01*
X155530000Y-15860000D02*
X157020000Y-15860000D01*
X158980000Y-15860000D02*
X160470000Y-15860000D01*
X155540000Y-15820000D02*
X157020000Y-15820000D01*
X158980000Y-15820000D02*
X160460000Y-15820000D01*
X155552000Y-15779000D02*
X157020000Y-15779000D01*
X158980000Y-15779000D02*
X160448000Y-15779000D01*
X155564000Y-15739000D02*
X157020000Y-15739000D01*
X158980000Y-15739000D02*
X160436000Y-15739000D01*
X155576000Y-15699000D02*
X157020000Y-15699000D01*
X158980000Y-15699000D02*
X160424000Y-15699000D01*
X155590000Y-15659000D02*
X157020000Y-15659000D01*
X158980000Y-15659000D02*
X160410000Y-15659000D01*
X155604000Y-15619000D02*
X157020000Y-15619000D01*
X158980000Y-15619000D02*
X160396000Y-15619000D01*
X155618000Y-15579000D02*
X157020000Y-15579000D01*
X158980000Y-15579000D02*
X160382000Y-15579000D01*
X155634000Y-15539000D02*
X157020000Y-15539000D01*
X158980000Y-15539000D02*
X160366000Y-15539000D01*
X155650000Y-15499000D02*
X157020000Y-15499000D01*
X158980000Y-15499000D02*
X160350000Y-15499000D01*
X155667000Y-15459000D02*
X157020000Y-15459000D01*
X158980000Y-15459000D02*
X160333000Y-15459000D01*
X155685000Y-15419000D02*
X157020000Y-15419000D01*
X158980000Y-15419000D02*
X160315000Y-15419000D01*
X155704000Y-15379000D02*
X157020000Y-15379000D01*
X158980000Y-15379000D02*
X160296000Y-15379000D01*
X155724000Y-15339000D02*
X157020000Y-15339000D01*
X158980000Y-15339000D02*
X160276000Y-15339000D01*
X155744000Y-15299000D02*
X157020000Y-15299000D01*
X158980000Y-15299000D02*
X160256000Y-15299000D01*
X155766000Y-15259000D02*
X157020000Y-15259000D01*
X158980000Y-15259000D02*
X160234000Y-15259000D01*
X155788000Y-15219000D02*
X157020000Y-15219000D01*
X158980000Y-15219000D02*
X160212000Y-15219000D01*
X155811000Y-15179000D02*
X157020000Y-15179000D01*
X158980000Y-15179000D02*
X160189000Y-15179000D01*
X155835000Y-15139000D02*
X157020000Y-15139000D01*
X158980000Y-15139000D02*
X160165000Y-15139000D01*
X155860000Y-15099000D02*
X157020000Y-15099000D01*
X158980000Y-15099000D02*
X160140000Y-15099000D01*
X155887000Y-15059000D02*
X157020000Y-15059000D01*
X158980000Y-15059000D02*
X160113000Y-15059000D01*
X155914000Y-15019000D02*
X157020000Y-15019000D01*
X158980000Y-15019000D02*
X160086000Y-15019000D01*
X155942000Y-14979000D02*
X157020000Y-14979000D01*
X158980000Y-14979000D02*
X160058000Y-14979000D01*
X155972000Y-14939000D02*
X157020000Y-14939000D01*
X158980000Y-14939000D02*
X160028000Y-14939000D01*
X156003000Y-14899000D02*
X157020000Y-14899000D01*
X158980000Y-14899000D02*
X159997000Y-14899000D01*
X156035000Y-14859000D02*
X157020000Y-14859000D01*
X158980000Y-14859000D02*
X159965000Y-14859000D01*
X156068000Y-14819000D02*
X157020000Y-14819000D01*
X158980000Y-14819000D02*
X159932000Y-14819000D01*
X156103000Y-14779000D02*
X157020000Y-14779000D01*
X158980000Y-14779000D02*
X159897000Y-14779000D01*
X156139000Y-14739000D02*
X157020000Y-14739000D01*
X158980000Y-14739000D02*
X159861000Y-14739000D01*
X156177000Y-14699000D02*
X157020000Y-14699000D01*
X158980000Y-14699000D02*
X159823000Y-14699000D01*
X156217000Y-14659000D02*
X157020000Y-14659000D01*
X158980000Y-14659000D02*
X159783000Y-14659000D01*
X156258000Y-14619000D02*
X157020000Y-14619000D01*
X158980000Y-14619000D02*
X159742000Y-14619000D01*
X156301000Y-14579000D02*
X157020000Y-14579000D01*
X158980000Y-14579000D02*
X159699000Y-14579000D01*
X156346000Y-14539000D02*
X157020000Y-14539000D01*
X158980000Y-14539000D02*
X159654000Y-14539000D01*
X156394000Y-14499000D02*
X159606000Y-14499000D01*
X156444000Y-14459000D02*
X159556000Y-14459000D01*
X156496000Y-14419000D02*
X159504000Y-14419000D01*
X156552000Y-14379000D02*
X159448000Y-14379000D01*
X156610000Y-14339000D02*
X159390000Y-14339000D01*
X156673000Y-14299000D02*
X159327000Y-14299000D01*
X156739000Y-14259000D02*
X159261000Y-14259000D01*
X156811000Y-14219000D02*
X159189000Y-14219000D01*
X156888000Y-14179000D02*
X159112000Y-14179000D01*
X156972000Y-14139000D02*
X159028000Y-14139000D01*
X157066000Y-14099000D02*
X158934000Y-14099000D01*
X157171000Y-14059000D02*
X158829000Y-14059000D01*
X157293000Y-14019000D02*
X158707000Y-14019000D01*
X157441000Y-13979000D02*
X158559000Y-13979000D01*
X157646000Y-13939000D02*
X158354000Y-13939000D01*
X158000000Y-19700000D02*
X158000000Y-18500000D01*
X157350000Y-19100000D02*
X158650000Y-19100000D01*
X126650000Y-54400000D02*
X125350000Y-54400000D01*
X126000000Y-53800000D02*
X126000000Y-55000000D01*
X126354000Y-59561000D02*
X125646000Y-59561000D01*
X126559000Y-59521000D02*
X125441000Y-59521000D01*
X126707000Y-59481000D02*
X125293000Y-59481000D01*
X126829000Y-59441000D02*
X125171000Y-59441000D01*
X126934000Y-59401000D02*
X125066000Y-59401000D01*
X127028000Y-59361000D02*
X124972000Y-59361000D01*
X127112000Y-59321000D02*
X124888000Y-59321000D01*
X127189000Y-59281000D02*
X124811000Y-59281000D01*
X127261000Y-59241000D02*
X124739000Y-59241000D01*
X127327000Y-59201000D02*
X124673000Y-59201000D01*
X127390000Y-59161000D02*
X124610000Y-59161000D01*
X127448000Y-59121000D02*
X124552000Y-59121000D01*
X127504000Y-59081000D02*
X124496000Y-59081000D01*
X127556000Y-59041000D02*
X124444000Y-59041000D01*
X127606000Y-59001000D02*
X124394000Y-59001000D01*
X125020000Y-58961000D02*
X124346000Y-58961000D01*
X127654000Y-58961000D02*
X126980000Y-58961000D01*
X125020000Y-58921000D02*
X124301000Y-58921000D01*
X127699000Y-58921000D02*
X126980000Y-58921000D01*
X125020000Y-58881000D02*
X124258000Y-58881000D01*
X127742000Y-58881000D02*
X126980000Y-58881000D01*
X125020000Y-58841000D02*
X124217000Y-58841000D01*
X127783000Y-58841000D02*
X126980000Y-58841000D01*
X125020000Y-58801000D02*
X124177000Y-58801000D01*
X127823000Y-58801000D02*
X126980000Y-58801000D01*
X125020000Y-58761000D02*
X124139000Y-58761000D01*
X127861000Y-58761000D02*
X126980000Y-58761000D01*
X125020000Y-58721000D02*
X124103000Y-58721000D01*
X127897000Y-58721000D02*
X126980000Y-58721000D01*
X125020000Y-58681000D02*
X124068000Y-58681000D01*
X127932000Y-58681000D02*
X126980000Y-58681000D01*
X125020000Y-58641000D02*
X124035000Y-58641000D01*
X127965000Y-58641000D02*
X126980000Y-58641000D01*
X125020000Y-58601000D02*
X124003000Y-58601000D01*
X127997000Y-58601000D02*
X126980000Y-58601000D01*
X125020000Y-58561000D02*
X123972000Y-58561000D01*
X128028000Y-58561000D02*
X126980000Y-58561000D01*
X125020000Y-58521000D02*
X123942000Y-58521000D01*
X128058000Y-58521000D02*
X126980000Y-58521000D01*
X125020000Y-58481000D02*
X123914000Y-58481000D01*
X128086000Y-58481000D02*
X126980000Y-58481000D01*
X125020000Y-58441000D02*
X123887000Y-58441000D01*
X128113000Y-58441000D02*
X126980000Y-58441000D01*
X125020000Y-58401000D02*
X123860000Y-58401000D01*
X128140000Y-58401000D02*
X126980000Y-58401000D01*
X125020000Y-58361000D02*
X123835000Y-58361000D01*
X128165000Y-58361000D02*
X126980000Y-58361000D01*
X125020000Y-58321000D02*
X123811000Y-58321000D01*
X128189000Y-58321000D02*
X126980000Y-58321000D01*
X125020000Y-58281000D02*
X123788000Y-58281000D01*
X128212000Y-58281000D02*
X126980000Y-58281000D01*
X125020000Y-58241000D02*
X123766000Y-58241000D01*
X128234000Y-58241000D02*
X126980000Y-58241000D01*
X125020000Y-58201000D02*
X123744000Y-58201000D01*
X128256000Y-58201000D02*
X126980000Y-58201000D01*
X125020000Y-58161000D02*
X123724000Y-58161000D01*
X128276000Y-58161000D02*
X126980000Y-58161000D01*
X125020000Y-58121000D02*
X123704000Y-58121000D01*
X128296000Y-58121000D02*
X126980000Y-58121000D01*
X125020000Y-58081000D02*
X123685000Y-58081000D01*
X128315000Y-58081000D02*
X126980000Y-58081000D01*
X125020000Y-58041000D02*
X123667000Y-58041000D01*
X128333000Y-58041000D02*
X126980000Y-58041000D01*
X125020000Y-58001000D02*
X123650000Y-58001000D01*
X128350000Y-58001000D02*
X126980000Y-58001000D01*
X125020000Y-57961000D02*
X123634000Y-57961000D01*
X128366000Y-57961000D02*
X126980000Y-57961000D01*
X125020000Y-57921000D02*
X123618000Y-57921000D01*
X128382000Y-57921000D02*
X126980000Y-57921000D01*
X125020000Y-57881000D02*
X123604000Y-57881000D01*
X128396000Y-57881000D02*
X126980000Y-57881000D01*
X125020000Y-57841000D02*
X123590000Y-57841000D01*
X128410000Y-57841000D02*
X126980000Y-57841000D01*
X125020000Y-57801000D02*
X123576000Y-57801000D01*
X128424000Y-57801000D02*
X126980000Y-57801000D01*
X125020000Y-57761000D02*
X123564000Y-57761000D01*
X128436000Y-57761000D02*
X126980000Y-57761000D01*
X125020000Y-57721000D02*
X123552000Y-57721000D01*
X128448000Y-57721000D02*
X126980000Y-57721000D01*
X125020000Y-57680000D02*
X123540000Y-57680000D01*
X128460000Y-57680000D02*
X126980000Y-57680000D01*
X125020000Y-57640000D02*
X123530000Y-57640000D01*
X128470000Y-57640000D02*
X126980000Y-57640000D01*
X125020000Y-57600000D02*
X123520000Y-57600000D01*
X128480000Y-57600000D02*
X126980000Y-57600000D01*
X125020000Y-57560000D02*
X123511000Y-57560000D01*
X128489000Y-57560000D02*
X126980000Y-57560000D01*
X125020000Y-57520000D02*
X123502000Y-57520000D01*
X128498000Y-57520000D02*
X126980000Y-57520000D01*
X125020000Y-57480000D02*
X123494000Y-57480000D01*
X128506000Y-57480000D02*
X126980000Y-57480000D01*
X125020000Y-57440000D02*
X123487000Y-57440000D01*
X128513000Y-57440000D02*
X126980000Y-57440000D01*
X125020000Y-57400000D02*
X123481000Y-57400000D01*
X128519000Y-57400000D02*
X126980000Y-57400000D01*
X125020000Y-57360000D02*
X123475000Y-57360000D01*
X128525000Y-57360000D02*
X126980000Y-57360000D01*
X125020000Y-57320000D02*
X123469000Y-57320000D01*
X128531000Y-57320000D02*
X126980000Y-57320000D01*
X125020000Y-57280000D02*
X123465000Y-57280000D01*
X128535000Y-57280000D02*
X126980000Y-57280000D01*
X125020000Y-57240000D02*
X123461000Y-57240000D01*
X128539000Y-57240000D02*
X126980000Y-57240000D01*
X125020000Y-57200000D02*
X123457000Y-57200000D01*
X128543000Y-57200000D02*
X126980000Y-57200000D01*
X125020000Y-57160000D02*
X123454000Y-57160000D01*
X128546000Y-57160000D02*
X126980000Y-57160000D01*
X125020000Y-57120000D02*
X123452000Y-57120000D01*
X128548000Y-57120000D02*
X126980000Y-57120000D01*
X125020000Y-57080000D02*
X123451000Y-57080000D01*
X128549000Y-57080000D02*
X126980000Y-57080000D01*
X125020000Y-57040000D02*
X123450000Y-57040000D01*
X128550000Y-57040000D02*
X126980000Y-57040000D01*
X128550000Y-57000000D02*
X123450000Y-57000000D01*
X124820277Y-59305722D02*
G75*
G03X127180000Y-59305580I1179723J2305722D01*
G01*
X124820277Y-59305722D02*
G75*
G02X124820000Y-54694420I1179723J2305722D01*
G01*
X127179723Y-59305722D02*
G75*
G03X127180000Y-54694420I-1179723J2305722D01*
G01*
X119179723Y-105805722D02*
G75*
G03X119180000Y-101194420I-1179723J2305722D01*
G01*
X116820277Y-105805722D02*
G75*
G02X116820000Y-101194420I1179723J2305722D01*
G01*
X116820277Y-105805722D02*
G75*
G03X119180000Y-105805580I1179723J2305722D01*
G01*
X120550000Y-103500000D02*
X115450000Y-103500000D01*
X120550000Y-103540000D02*
X118980000Y-103540000D01*
X117020000Y-103540000D02*
X115450000Y-103540000D01*
X120549000Y-103580000D02*
X118980000Y-103580000D01*
X117020000Y-103580000D02*
X115451000Y-103580000D01*
X120548000Y-103620000D02*
X118980000Y-103620000D01*
X117020000Y-103620000D02*
X115452000Y-103620000D01*
X120546000Y-103660000D02*
X118980000Y-103660000D01*
X117020000Y-103660000D02*
X115454000Y-103660000D01*
X120543000Y-103700000D02*
X118980000Y-103700000D01*
X117020000Y-103700000D02*
X115457000Y-103700000D01*
X120539000Y-103740000D02*
X118980000Y-103740000D01*
X117020000Y-103740000D02*
X115461000Y-103740000D01*
X120535000Y-103780000D02*
X118980000Y-103780000D01*
X117020000Y-103780000D02*
X115465000Y-103780000D01*
X120531000Y-103820000D02*
X118980000Y-103820000D01*
X117020000Y-103820000D02*
X115469000Y-103820000D01*
X120525000Y-103860000D02*
X118980000Y-103860000D01*
X117020000Y-103860000D02*
X115475000Y-103860000D01*
X120519000Y-103900000D02*
X118980000Y-103900000D01*
X117020000Y-103900000D02*
X115481000Y-103900000D01*
X120513000Y-103940000D02*
X118980000Y-103940000D01*
X117020000Y-103940000D02*
X115487000Y-103940000D01*
X120506000Y-103980000D02*
X118980000Y-103980000D01*
X117020000Y-103980000D02*
X115494000Y-103980000D01*
X120498000Y-104020000D02*
X118980000Y-104020000D01*
X117020000Y-104020000D02*
X115502000Y-104020000D01*
X120489000Y-104060000D02*
X118980000Y-104060000D01*
X117020000Y-104060000D02*
X115511000Y-104060000D01*
X120480000Y-104100000D02*
X118980000Y-104100000D01*
X117020000Y-104100000D02*
X115520000Y-104100000D01*
X120470000Y-104140000D02*
X118980000Y-104140000D01*
X117020000Y-104140000D02*
X115530000Y-104140000D01*
X120460000Y-104180000D02*
X118980000Y-104180000D01*
X117020000Y-104180000D02*
X115540000Y-104180000D01*
X120448000Y-104221000D02*
X118980000Y-104221000D01*
X117020000Y-104221000D02*
X115552000Y-104221000D01*
X120436000Y-104261000D02*
X118980000Y-104261000D01*
X117020000Y-104261000D02*
X115564000Y-104261000D01*
X120424000Y-104301000D02*
X118980000Y-104301000D01*
X117020000Y-104301000D02*
X115576000Y-104301000D01*
X120410000Y-104341000D02*
X118980000Y-104341000D01*
X117020000Y-104341000D02*
X115590000Y-104341000D01*
X120396000Y-104381000D02*
X118980000Y-104381000D01*
X117020000Y-104381000D02*
X115604000Y-104381000D01*
X120382000Y-104421000D02*
X118980000Y-104421000D01*
X117020000Y-104421000D02*
X115618000Y-104421000D01*
X120366000Y-104461000D02*
X118980000Y-104461000D01*
X117020000Y-104461000D02*
X115634000Y-104461000D01*
X120350000Y-104501000D02*
X118980000Y-104501000D01*
X117020000Y-104501000D02*
X115650000Y-104501000D01*
X120333000Y-104541000D02*
X118980000Y-104541000D01*
X117020000Y-104541000D02*
X115667000Y-104541000D01*
X120315000Y-104581000D02*
X118980000Y-104581000D01*
X117020000Y-104581000D02*
X115685000Y-104581000D01*
X120296000Y-104621000D02*
X118980000Y-104621000D01*
X117020000Y-104621000D02*
X115704000Y-104621000D01*
X120276000Y-104661000D02*
X118980000Y-104661000D01*
X117020000Y-104661000D02*
X115724000Y-104661000D01*
X120256000Y-104701000D02*
X118980000Y-104701000D01*
X117020000Y-104701000D02*
X115744000Y-104701000D01*
X120234000Y-104741000D02*
X118980000Y-104741000D01*
X117020000Y-104741000D02*
X115766000Y-104741000D01*
X120212000Y-104781000D02*
X118980000Y-104781000D01*
X117020000Y-104781000D02*
X115788000Y-104781000D01*
X120189000Y-104821000D02*
X118980000Y-104821000D01*
X117020000Y-104821000D02*
X115811000Y-104821000D01*
X120165000Y-104861000D02*
X118980000Y-104861000D01*
X117020000Y-104861000D02*
X115835000Y-104861000D01*
X120140000Y-104901000D02*
X118980000Y-104901000D01*
X117020000Y-104901000D02*
X115860000Y-104901000D01*
X120113000Y-104941000D02*
X118980000Y-104941000D01*
X117020000Y-104941000D02*
X115887000Y-104941000D01*
X120086000Y-104981000D02*
X118980000Y-104981000D01*
X117020000Y-104981000D02*
X115914000Y-104981000D01*
X120058000Y-105021000D02*
X118980000Y-105021000D01*
X117020000Y-105021000D02*
X115942000Y-105021000D01*
X120028000Y-105061000D02*
X118980000Y-105061000D01*
X117020000Y-105061000D02*
X115972000Y-105061000D01*
X119997000Y-105101000D02*
X118980000Y-105101000D01*
X117020000Y-105101000D02*
X116003000Y-105101000D01*
X119965000Y-105141000D02*
X118980000Y-105141000D01*
X117020000Y-105141000D02*
X116035000Y-105141000D01*
X119932000Y-105181000D02*
X118980000Y-105181000D01*
X117020000Y-105181000D02*
X116068000Y-105181000D01*
X119897000Y-105221000D02*
X118980000Y-105221000D01*
X117020000Y-105221000D02*
X116103000Y-105221000D01*
X119861000Y-105261000D02*
X118980000Y-105261000D01*
X117020000Y-105261000D02*
X116139000Y-105261000D01*
X119823000Y-105301000D02*
X118980000Y-105301000D01*
X117020000Y-105301000D02*
X116177000Y-105301000D01*
X119783000Y-105341000D02*
X118980000Y-105341000D01*
X117020000Y-105341000D02*
X116217000Y-105341000D01*
X119742000Y-105381000D02*
X118980000Y-105381000D01*
X117020000Y-105381000D02*
X116258000Y-105381000D01*
X119699000Y-105421000D02*
X118980000Y-105421000D01*
X117020000Y-105421000D02*
X116301000Y-105421000D01*
X119654000Y-105461000D02*
X118980000Y-105461000D01*
X117020000Y-105461000D02*
X116346000Y-105461000D01*
X119606000Y-105501000D02*
X116394000Y-105501000D01*
X119556000Y-105541000D02*
X116444000Y-105541000D01*
X119504000Y-105581000D02*
X116496000Y-105581000D01*
X119448000Y-105621000D02*
X116552000Y-105621000D01*
X119390000Y-105661000D02*
X116610000Y-105661000D01*
X119327000Y-105701000D02*
X116673000Y-105701000D01*
X119261000Y-105741000D02*
X116739000Y-105741000D01*
X119189000Y-105781000D02*
X116811000Y-105781000D01*
X119112000Y-105821000D02*
X116888000Y-105821000D01*
X119028000Y-105861000D02*
X116972000Y-105861000D01*
X118934000Y-105901000D02*
X117066000Y-105901000D01*
X118829000Y-105941000D02*
X117171000Y-105941000D01*
X118707000Y-105981000D02*
X117293000Y-105981000D01*
X118559000Y-106021000D02*
X117441000Y-106021000D01*
X118354000Y-106061000D02*
X117646000Y-106061000D01*
X118000000Y-100300000D02*
X118000000Y-101500000D01*
X118650000Y-100900000D02*
X117350000Y-100900000D01*
X164690000Y-18910000D02*
X164690000Y-14090000D01*
X167310000Y-18910000D02*
X167310000Y-14090000D01*
X164690000Y-18910000D02*
X165004000Y-18910000D01*
X166996000Y-18910000D02*
X167310000Y-18910000D01*
X164690000Y-14090000D02*
X165004000Y-14090000D01*
X166996000Y-14090000D02*
X167310000Y-14090000D01*
X135310000Y-55090000D02*
X135310000Y-59910000D01*
X132690000Y-55090000D02*
X132690000Y-59910000D01*
X135310000Y-55090000D02*
X134996000Y-55090000D01*
X133004000Y-55090000D02*
X132690000Y-55090000D01*
X135310000Y-59910000D02*
X134996000Y-59910000D01*
X133004000Y-59910000D02*
X132690000Y-59910000D01*
X133004000Y-105910000D02*
X132690000Y-105910000D01*
X135310000Y-105910000D02*
X134996000Y-105910000D01*
X133004000Y-101090000D02*
X132690000Y-101090000D01*
X135310000Y-101090000D02*
X134996000Y-101090000D01*
X132690000Y-101090000D02*
X132690000Y-105910000D01*
X135310000Y-101090000D02*
X135310000Y-105910000D01*
X26280000Y-73150000D02*
X26410000Y-73150000D01*
X26410000Y-73150000D02*
X26410000Y-78470000D01*
X26410000Y-78470000D02*
X26280000Y-78470000D01*
X23720000Y-73150000D02*
X23590000Y-73150000D01*
X23590000Y-73150000D02*
X23590000Y-78470000D01*
X23590000Y-78470000D02*
X23720000Y-78470000D01*
X26410000Y-73990000D02*
X23590000Y-73990000D01*
X26280000Y-102150000D02*
X26410000Y-102150000D01*
X26410000Y-102150000D02*
X26410000Y-107470000D01*
X26410000Y-107470000D02*
X26280000Y-107470000D01*
X23720000Y-102150000D02*
X23590000Y-102150000D01*
X23590000Y-102150000D02*
X23590000Y-107470000D01*
X23590000Y-107470000D02*
X23720000Y-107470000D01*
X26410000Y-102990000D02*
X23590000Y-102990000D01*
X31990000Y-66590000D02*
X31990000Y-69410000D01*
X36470000Y-69410000D02*
X36470000Y-69280000D01*
X31150000Y-69410000D02*
X36470000Y-69410000D01*
X31150000Y-69280000D02*
X31150000Y-69410000D01*
X36470000Y-66590000D02*
X36470000Y-66720000D01*
X31150000Y-66590000D02*
X36470000Y-66590000D01*
X31150000Y-66720000D02*
X31150000Y-66590000D01*
X31150000Y-82720000D02*
X31150000Y-82590000D01*
X31150000Y-82590000D02*
X36470000Y-82590000D01*
X36470000Y-82590000D02*
X36470000Y-82720000D01*
X31150000Y-85280000D02*
X31150000Y-85410000D01*
X31150000Y-85410000D02*
X36470000Y-85410000D01*
X36470000Y-85410000D02*
X36470000Y-85280000D01*
X31990000Y-82590000D02*
X31990000Y-85410000D01*
X31990000Y-95590000D02*
X31990000Y-98410000D01*
X36470000Y-98410000D02*
X36470000Y-98280000D01*
X31150000Y-98410000D02*
X36470000Y-98410000D01*
X31150000Y-98280000D02*
X31150000Y-98410000D01*
X36470000Y-95590000D02*
X36470000Y-95720000D01*
X31150000Y-95590000D02*
X36470000Y-95590000D01*
X31150000Y-95720000D02*
X31150000Y-95590000D01*
X31150000Y-111720000D02*
X31150000Y-111590000D01*
X31150000Y-111590000D02*
X36470000Y-111590000D01*
X36470000Y-111590000D02*
X36470000Y-111720000D01*
X31150000Y-114280000D02*
X31150000Y-114410000D01*
X31150000Y-114410000D02*
X36470000Y-114410000D01*
X36470000Y-114410000D02*
X36470000Y-114280000D01*
X31990000Y-111590000D02*
X31990000Y-114410000D01*
X43410000Y-73990000D02*
X40590000Y-73990000D01*
X40590000Y-78470000D02*
X40720000Y-78470000D01*
X40590000Y-73150000D02*
X40590000Y-78470000D01*
X40720000Y-73150000D02*
X40590000Y-73150000D01*
X43410000Y-78470000D02*
X43280000Y-78470000D01*
X43410000Y-73150000D02*
X43410000Y-78470000D01*
X43280000Y-73150000D02*
X43410000Y-73150000D01*
X43410000Y-102990000D02*
X40590000Y-102990000D01*
X40590000Y-107470000D02*
X40720000Y-107470000D01*
X40590000Y-102150000D02*
X40590000Y-107470000D01*
X40720000Y-102150000D02*
X40590000Y-102150000D01*
X43410000Y-107470000D02*
X43280000Y-107470000D01*
X43410000Y-102150000D02*
X43410000Y-107470000D01*
X43280000Y-102150000D02*
X43410000Y-102150000D01*
X171290000Y-40545000D02*
X171290000Y-37455000D01*
X171230000Y-39000000D02*
G75*
G03X171230000Y-39000000I-2500000J0D01*
G01*
X165740000Y-39000462D02*
G75*
G02X171290000Y-37455170I2990000J462D01*
G01*
X165740000Y-38999538D02*
G75*
G03X171290000Y-40544830I2990000J-462D01*
G01*
X165740000Y-68999538D02*
G75*
G03X171290000Y-70544830I2990000J-462D01*
G01*
X165740000Y-69000462D02*
G75*
G02X171290000Y-67455170I2990000J462D01*
G01*
X171230000Y-69000000D02*
G75*
G03X171230000Y-69000000I-2500000J0D01*
G01*
X171290000Y-70545000D02*
X171290000Y-67455000D01*
X166210000Y-89455000D02*
X166210000Y-92545000D01*
X171270000Y-91000000D02*
G75*
G03X171270000Y-91000000I-2500000J0D01*
G01*
X171760000Y-90999538D02*
G75*
G02X166210000Y-92544830I-2990000J-462D01*
G01*
X171760000Y-91000462D02*
G75*
G03X166210000Y-89455170I-2990000J462D01*
G01*
X152980000Y-37690000D02*
X152980000Y-38020000D01*
X159400000Y-37690000D02*
X152980000Y-37690000D01*
X159400000Y-38020000D02*
X159400000Y-37690000D01*
X152980000Y-40310000D02*
X152980000Y-39980000D01*
X159400000Y-40310000D02*
X152980000Y-40310000D01*
X159400000Y-39980000D02*
X159400000Y-40310000D01*
X152980000Y-67690000D02*
X152980000Y-68020000D01*
X159400000Y-67690000D02*
X152980000Y-67690000D01*
X159400000Y-68020000D02*
X159400000Y-67690000D01*
X152980000Y-70310000D02*
X152980000Y-69980000D01*
X159400000Y-70310000D02*
X152980000Y-70310000D01*
X159400000Y-69980000D02*
X159400000Y-70310000D01*
X153100000Y-90020000D02*
X153100000Y-89690000D01*
X153100000Y-89690000D02*
X159520000Y-89690000D01*
X159520000Y-89690000D02*
X159520000Y-90020000D01*
X153100000Y-91980000D02*
X153100000Y-92310000D01*
X153100000Y-92310000D02*
X159520000Y-92310000D01*
X159520000Y-92310000D02*
X159520000Y-91980000D01*
X99380000Y-22580000D02*
X99380000Y-12340000D01*
X104021000Y-22580000D02*
X104021000Y-12340000D01*
X99380000Y-22580000D02*
X104021000Y-22580000D01*
X99380000Y-12340000D02*
X104021000Y-12340000D01*
X100890000Y-22580000D02*
X100890000Y-12340000D01*
X99380000Y-19310000D02*
X100890000Y-19310000D01*
X99380000Y-15609000D02*
X100890000Y-15609000D01*
X99380000Y-62580000D02*
X99380000Y-52340000D01*
X104021000Y-62580000D02*
X104021000Y-52340000D01*
X99380000Y-62580000D02*
X104021000Y-62580000D01*
X99380000Y-52340000D02*
X104021000Y-52340000D01*
X100890000Y-62580000D02*
X100890000Y-52340000D01*
X99380000Y-59310000D02*
X100890000Y-59310000D01*
X99380000Y-55609000D02*
X100890000Y-55609000D01*
X136620000Y-19391000D02*
X135110000Y-19391000D01*
X136620000Y-15690000D02*
X135110000Y-15690000D01*
X135110000Y-12420000D02*
X135110000Y-22660000D01*
X136620000Y-22660000D02*
X131979000Y-22660000D01*
X136620000Y-12420000D02*
X131979000Y-12420000D01*
X131979000Y-12420000D02*
X131979000Y-22660000D01*
X136620000Y-12420000D02*
X136620000Y-22660000D01*
X185547000Y-52324000D02*
X185547000Y-72644000D01*
X193167000Y-52324000D02*
X193167000Y-72644000D01*
X186817000Y-72644000D02*
X186817000Y-52324000D01*
X185547000Y-72644000D02*
X193167000Y-72644000D01*
X193167000Y-52324000D02*
X185547000Y-52324000D01*
D10*
X2166666Y-120635380D02*
X1833333Y-120159190D01*
X1595238Y-120635380D02*
X1595238Y-119635380D01*
X1976190Y-119635380D01*
X2071428Y-119683000D01*
X2119047Y-119730619D01*
X2166666Y-119825857D01*
X2166666Y-119968714D01*
X2119047Y-120063952D01*
X2071428Y-120111571D01*
X1976190Y-120159190D01*
X1595238Y-120159190D01*
X2595238Y-120111571D02*
X2928571Y-120111571D01*
X3071428Y-120635380D02*
X2595238Y-120635380D01*
X2595238Y-119635380D01*
X3071428Y-119635380D01*
X3833333Y-120111571D02*
X3499999Y-120111571D01*
X3499999Y-120635380D02*
X3499999Y-119635380D01*
X3976190Y-119635380D01*
X4500000Y-119635380D02*
X4500000Y-119873476D01*
X4261904Y-119778238D02*
X4500000Y-119873476D01*
X4738095Y-119778238D01*
X4357142Y-120063952D02*
X4500000Y-119873476D01*
X4642857Y-120063952D01*
X5261904Y-119635380D02*
X5261904Y-119873476D01*
X5023809Y-119778238D02*
X5261904Y-119873476D01*
X5500000Y-119778238D01*
X5119047Y-120063952D02*
X5261904Y-119873476D01*
X5404761Y-120063952D01*
X195166666Y-120635380D02*
X194833333Y-120159190D01*
X194595238Y-120635380D02*
X194595238Y-119635380D01*
X194976190Y-119635380D01*
X195071428Y-119683000D01*
X195119047Y-119730619D01*
X195166666Y-119825857D01*
X195166666Y-119968714D01*
X195119047Y-120063952D01*
X195071428Y-120111571D01*
X194976190Y-120159190D01*
X194595238Y-120159190D01*
X195595238Y-120111571D02*
X195928571Y-120111571D01*
X196071428Y-120635380D02*
X195595238Y-120635380D01*
X195595238Y-119635380D01*
X196071428Y-119635380D01*
X196833333Y-120111571D02*
X196500000Y-120111571D01*
X196500000Y-120635380D02*
X196500000Y-119635380D01*
X196976190Y-119635380D01*
X197500000Y-119635380D02*
X197500000Y-119873476D01*
X197261904Y-119778238D02*
X197500000Y-119873476D01*
X197738095Y-119778238D01*
X197357142Y-120063952D02*
X197500000Y-119873476D01*
X197642857Y-120063952D01*
X198261904Y-119635380D02*
X198261904Y-119873476D01*
X198023809Y-119778238D02*
X198261904Y-119873476D01*
X198500000Y-119778238D01*
X198119047Y-120063952D02*
X198261904Y-119873476D01*
X198404761Y-120063952D01*
X195166666Y-7635380D02*
X194833333Y-7159190D01*
X194595238Y-7635380D02*
X194595238Y-6635380D01*
X194976190Y-6635380D01*
X195071428Y-6683000D01*
X195119047Y-6730619D01*
X195166666Y-6825857D01*
X195166666Y-6968714D01*
X195119047Y-7063952D01*
X195071428Y-7111571D01*
X194976190Y-7159190D01*
X194595238Y-7159190D01*
X195595238Y-7111571D02*
X195928571Y-7111571D01*
X196071428Y-7635380D02*
X195595238Y-7635380D01*
X195595238Y-6635380D01*
X196071428Y-6635380D01*
X196833333Y-7111571D02*
X196500000Y-7111571D01*
X196500000Y-7635380D02*
X196500000Y-6635380D01*
X196976190Y-6635380D01*
X197500000Y-6635380D02*
X197500000Y-6873476D01*
X197261904Y-6778238D02*
X197500000Y-6873476D01*
X197738095Y-6778238D01*
X197357142Y-7063952D02*
X197500000Y-6873476D01*
X197642857Y-7063952D01*
X198261904Y-6635380D02*
X198261904Y-6873476D01*
X198023809Y-6778238D02*
X198261904Y-6873476D01*
X198500000Y-6778238D01*
X198119047Y-7063952D02*
X198261904Y-6873476D01*
X198404761Y-7063952D01*
X2166666Y-7635380D02*
X1833333Y-7159190D01*
X1595238Y-7635380D02*
X1595238Y-6635380D01*
X1976190Y-6635380D01*
X2071428Y-6683000D01*
X2119047Y-6730619D01*
X2166666Y-6825857D01*
X2166666Y-6968714D01*
X2119047Y-7063952D01*
X2071428Y-7111571D01*
X1976190Y-7159190D01*
X1595238Y-7159190D01*
X2595238Y-7111571D02*
X2928571Y-7111571D01*
X3071428Y-7635380D02*
X2595238Y-7635380D01*
X2595238Y-6635380D01*
X3071428Y-6635380D01*
X3833333Y-7111571D02*
X3499999Y-7111571D01*
X3499999Y-7635380D02*
X3499999Y-6635380D01*
X3976190Y-6635380D01*
X4500000Y-6635380D02*
X4500000Y-6873476D01*
X4261904Y-6778238D02*
X4500000Y-6873476D01*
X4738095Y-6778238D01*
X4357142Y-7063952D02*
X4500000Y-6873476D01*
X4642857Y-7063952D01*
X5261904Y-6635380D02*
X5261904Y-6873476D01*
X5023809Y-6778238D02*
X5261904Y-6873476D01*
X5500000Y-6778238D01*
X5119047Y-7063952D02*
X5261904Y-6873476D01*
X5404761Y-7063952D01*
X98639380Y-103301904D02*
X99448904Y-103301904D01*
X99544142Y-103254285D01*
X99591761Y-103206666D01*
X99639380Y-103111428D01*
X99639380Y-102920952D01*
X99591761Y-102825714D01*
X99544142Y-102778095D01*
X99448904Y-102730476D01*
X98639380Y-102730476D01*
X98639380Y-102349523D02*
X98639380Y-101730476D01*
X99020333Y-102063809D01*
X99020333Y-101920952D01*
X99067952Y-101825714D01*
X99115571Y-101778095D01*
X99210809Y-101730476D01*
X99448904Y-101730476D01*
X99544142Y-101778095D01*
X99591761Y-101825714D01*
X99639380Y-101920952D01*
X99639380Y-102206666D01*
X99591761Y-102301904D01*
X99544142Y-102349523D01*
X53047142Y-56416666D02*
X53094761Y-56464285D01*
X53142380Y-56607142D01*
X53142380Y-56702380D01*
X53094761Y-56845238D01*
X52999523Y-56940476D01*
X52904285Y-56988095D01*
X52713809Y-57035714D01*
X52570952Y-57035714D01*
X52380476Y-56988095D01*
X52285238Y-56940476D01*
X52190000Y-56845238D01*
X52142380Y-56702380D01*
X52142380Y-56607142D01*
X52190000Y-56464285D01*
X52237619Y-56416666D01*
X52475714Y-55559523D02*
X53142380Y-55559523D01*
X52094761Y-55797619D02*
X52809047Y-56035714D01*
X52809047Y-55416666D01*
X30008571Y-24298253D02*
X30008571Y-24631586D01*
X30532380Y-24631586D02*
X29532380Y-24631586D01*
X29532380Y-24155396D01*
X30532380Y-23250634D02*
X30532380Y-23822062D01*
X30532380Y-23536348D02*
X29532380Y-23536348D01*
X29675238Y-23631586D01*
X29770476Y-23726824D01*
X29818095Y-23822062D01*
X6666666Y-92119380D02*
X6666666Y-92833666D01*
X6619047Y-92976523D01*
X6523809Y-93071761D01*
X6380952Y-93119380D01*
X6285714Y-93119380D01*
X7571428Y-92119380D02*
X7380952Y-92119380D01*
X7285714Y-92167000D01*
X7238095Y-92214619D01*
X7142857Y-92357476D01*
X7095238Y-92547952D01*
X7095238Y-92928904D01*
X7142857Y-93024142D01*
X7190476Y-93071761D01*
X7285714Y-93119380D01*
X7476190Y-93119380D01*
X7571428Y-93071761D01*
X7619047Y-93024142D01*
X7666666Y-92928904D01*
X7666666Y-92690809D01*
X7619047Y-92595571D01*
X7571428Y-92547952D01*
X7476190Y-92500333D01*
X7285714Y-92500333D01*
X7190476Y-92547952D01*
X7142857Y-92595571D01*
X7095238Y-92690809D01*
X164666666Y-35008571D02*
X164333333Y-35008571D01*
X164333333Y-35532380D02*
X164333333Y-34532380D01*
X164809523Y-34532380D01*
X165142857Y-34627619D02*
X165190476Y-34580000D01*
X165285714Y-34532380D01*
X165523809Y-34532380D01*
X165619047Y-34580000D01*
X165666666Y-34627619D01*
X165714285Y-34722857D01*
X165714285Y-34818095D01*
X165666666Y-34960952D01*
X165095238Y-35532380D01*
X165714285Y-35532380D01*
X164666666Y-65008571D02*
X164333333Y-65008571D01*
X164333333Y-65532380D02*
X164333333Y-64532380D01*
X164809523Y-64532380D01*
X165095238Y-64532380D02*
X165714285Y-64532380D01*
X165380952Y-64913333D01*
X165523809Y-64913333D01*
X165619047Y-64960952D01*
X165666666Y-65008571D01*
X165714285Y-65103809D01*
X165714285Y-65341904D01*
X165666666Y-65437142D01*
X165619047Y-65484761D01*
X165523809Y-65532380D01*
X165238095Y-65532380D01*
X165142857Y-65484761D01*
X165095238Y-65437142D01*
X164666666Y-105008571D02*
X164333333Y-105008571D01*
X164333333Y-105532380D02*
X164333333Y-104532380D01*
X164809523Y-104532380D01*
X165619047Y-104865714D02*
X165619047Y-105532380D01*
X165380952Y-104484761D02*
X165142857Y-105199047D01*
X165761904Y-105199047D01*
X6666666Y-16119380D02*
X6666666Y-16833666D01*
X6619047Y-16976523D01*
X6523809Y-17071761D01*
X6380952Y-17119380D01*
X6285714Y-17119380D01*
X7666666Y-17119380D02*
X7095238Y-17119380D01*
X7380952Y-17119380D02*
X7380952Y-16119380D01*
X7285714Y-16262238D01*
X7190476Y-16357476D01*
X7095238Y-16405095D01*
X6651666Y-25233380D02*
X6651666Y-25947666D01*
X6604047Y-26090523D01*
X6508809Y-26185761D01*
X6365952Y-26233380D01*
X6270714Y-26233380D01*
X7080238Y-25328619D02*
X7127857Y-25281000D01*
X7223095Y-25233380D01*
X7461190Y-25233380D01*
X7556428Y-25281000D01*
X7604047Y-25328619D01*
X7651666Y-25423857D01*
X7651666Y-25519095D01*
X7604047Y-25661952D01*
X7032619Y-26233380D01*
X7651666Y-26233380D01*
X6666666Y-36119380D02*
X6666666Y-36833666D01*
X6619047Y-36976523D01*
X6523809Y-37071761D01*
X6380952Y-37119380D01*
X6285714Y-37119380D01*
X7047619Y-36119380D02*
X7666666Y-36119380D01*
X7333333Y-36500333D01*
X7476190Y-36500333D01*
X7571428Y-36547952D01*
X7619047Y-36595571D01*
X7666666Y-36690809D01*
X7666666Y-36928904D01*
X7619047Y-37024142D01*
X7571428Y-37071761D01*
X7476190Y-37119380D01*
X7190476Y-37119380D01*
X7095238Y-37071761D01*
X7047619Y-37024142D01*
X6666666Y-50119380D02*
X6666666Y-50833666D01*
X6619047Y-50976523D01*
X6523809Y-51071761D01*
X6380952Y-51119380D01*
X6285714Y-51119380D01*
X7571428Y-50452714D02*
X7571428Y-51119380D01*
X7333333Y-50071761D02*
X7095238Y-50786047D01*
X7714285Y-50786047D01*
X6666666Y-76119380D02*
X6666666Y-76833666D01*
X6619047Y-76976523D01*
X6523809Y-77071761D01*
X6380952Y-77119380D01*
X6285714Y-77119380D01*
X7619047Y-76119380D02*
X7142857Y-76119380D01*
X7095238Y-76595571D01*
X7142857Y-76547952D01*
X7238095Y-76500333D01*
X7476190Y-76500333D01*
X7571428Y-76547952D01*
X7619047Y-76595571D01*
X7666666Y-76690809D01*
X7666666Y-76928904D01*
X7619047Y-77024142D01*
X7571428Y-77071761D01*
X7476190Y-77119380D01*
X7238095Y-77119380D01*
X7142857Y-77071761D01*
X7095238Y-77024142D01*
X6666666Y-108119380D02*
X6666666Y-108833666D01*
X6619047Y-108976523D01*
X6523809Y-109071761D01*
X6380952Y-109119380D01*
X6285714Y-109119380D01*
X7047619Y-108119380D02*
X7714285Y-108119380D01*
X7285714Y-109119380D01*
X53047142Y-16416666D02*
X53094761Y-16464285D01*
X53142380Y-16607142D01*
X53142380Y-16702380D01*
X53094761Y-16845238D01*
X52999523Y-16940476D01*
X52904285Y-16988095D01*
X52713809Y-17035714D01*
X52570952Y-17035714D01*
X52380476Y-16988095D01*
X52285238Y-16940476D01*
X52190000Y-16845238D01*
X52142380Y-16702380D01*
X52142380Y-16607142D01*
X52190000Y-16464285D01*
X52237619Y-16416666D01*
X53142380Y-15464285D02*
X53142380Y-16035714D01*
X53142380Y-15750000D02*
X52142380Y-15750000D01*
X52285238Y-15845238D01*
X52380476Y-15940476D01*
X52428095Y-16035714D01*
X74547142Y-16666666D02*
X74594761Y-16714285D01*
X74642380Y-16857142D01*
X74642380Y-16952380D01*
X74594761Y-17095238D01*
X74499523Y-17190476D01*
X74404285Y-17238095D01*
X74213809Y-17285714D01*
X74070952Y-17285714D01*
X73880476Y-17238095D01*
X73785238Y-17190476D01*
X73690000Y-17095238D01*
X73642380Y-16952380D01*
X73642380Y-16857142D01*
X73690000Y-16714285D01*
X73737619Y-16666666D01*
X73737619Y-16285714D02*
X73690000Y-16238095D01*
X73642380Y-16142857D01*
X73642380Y-15904761D01*
X73690000Y-15809523D01*
X73737619Y-15761904D01*
X73832857Y-15714285D01*
X73928095Y-15714285D01*
X74070952Y-15761904D01*
X74642380Y-16333333D01*
X74642380Y-15714285D01*
X83797142Y-16666666D02*
X83844761Y-16714285D01*
X83892380Y-16857142D01*
X83892380Y-16952380D01*
X83844761Y-17095238D01*
X83749523Y-17190476D01*
X83654285Y-17238095D01*
X83463809Y-17285714D01*
X83320952Y-17285714D01*
X83130476Y-17238095D01*
X83035238Y-17190476D01*
X82940000Y-17095238D01*
X82892380Y-16952380D01*
X82892380Y-16857142D01*
X82940000Y-16714285D01*
X82987619Y-16666666D01*
X82892380Y-16333333D02*
X82892380Y-15714285D01*
X83273333Y-16047619D01*
X83273333Y-15904761D01*
X83320952Y-15809523D01*
X83368571Y-15761904D01*
X83463809Y-15714285D01*
X83701904Y-15714285D01*
X83797142Y-15761904D01*
X83844761Y-15809523D01*
X83892380Y-15904761D01*
X83892380Y-16190476D01*
X83844761Y-16285714D01*
X83797142Y-16333333D01*
X71667142Y-103916666D02*
X71714761Y-103964285D01*
X71762380Y-104107142D01*
X71762380Y-104202380D01*
X71714761Y-104345238D01*
X71619523Y-104440476D01*
X71524285Y-104488095D01*
X71333809Y-104535714D01*
X71190952Y-104535714D01*
X71000476Y-104488095D01*
X70905238Y-104440476D01*
X70810000Y-104345238D01*
X70762380Y-104202380D01*
X70762380Y-104107142D01*
X70810000Y-103964285D01*
X70857619Y-103916666D01*
X70762380Y-103011904D02*
X70762380Y-103488095D01*
X71238571Y-103535714D01*
X71190952Y-103488095D01*
X71143333Y-103392857D01*
X71143333Y-103154761D01*
X71190952Y-103059523D01*
X71238571Y-103011904D01*
X71333809Y-102964285D01*
X71571904Y-102964285D01*
X71667142Y-103011904D01*
X71714761Y-103059523D01*
X71762380Y-103154761D01*
X71762380Y-103392857D01*
X71714761Y-103488095D01*
X71667142Y-103535714D01*
X74547142Y-56666666D02*
X74594761Y-56714285D01*
X74642380Y-56857142D01*
X74642380Y-56952380D01*
X74594761Y-57095238D01*
X74499523Y-57190476D01*
X74404285Y-57238095D01*
X74213809Y-57285714D01*
X74070952Y-57285714D01*
X73880476Y-57238095D01*
X73785238Y-57190476D01*
X73690000Y-57095238D01*
X73642380Y-56952380D01*
X73642380Y-56857142D01*
X73690000Y-56714285D01*
X73737619Y-56666666D01*
X73642380Y-55809523D02*
X73642380Y-56000000D01*
X73690000Y-56095238D01*
X73737619Y-56142857D01*
X73880476Y-56238095D01*
X74070952Y-56285714D01*
X74451904Y-56285714D01*
X74547142Y-56238095D01*
X74594761Y-56190476D01*
X74642380Y-56095238D01*
X74642380Y-55904761D01*
X74594761Y-55809523D01*
X74547142Y-55761904D01*
X74451904Y-55714285D01*
X74213809Y-55714285D01*
X74118571Y-55761904D01*
X74070952Y-55809523D01*
X74023333Y-55904761D01*
X74023333Y-56095238D01*
X74070952Y-56190476D01*
X74118571Y-56238095D01*
X74213809Y-56285714D01*
X82167142Y-103666666D02*
X82214761Y-103714285D01*
X82262380Y-103857142D01*
X82262380Y-103952380D01*
X82214761Y-104095238D01*
X82119523Y-104190476D01*
X82024285Y-104238095D01*
X81833809Y-104285714D01*
X81690952Y-104285714D01*
X81500476Y-104238095D01*
X81405238Y-104190476D01*
X81310000Y-104095238D01*
X81262380Y-103952380D01*
X81262380Y-103857142D01*
X81310000Y-103714285D01*
X81357619Y-103666666D01*
X81262380Y-103333333D02*
X81262380Y-102666666D01*
X82262380Y-103095238D01*
X83797142Y-56666666D02*
X83844761Y-56714285D01*
X83892380Y-56857142D01*
X83892380Y-56952380D01*
X83844761Y-57095238D01*
X83749523Y-57190476D01*
X83654285Y-57238095D01*
X83463809Y-57285714D01*
X83320952Y-57285714D01*
X83130476Y-57238095D01*
X83035238Y-57190476D01*
X82940000Y-57095238D01*
X82892380Y-56952380D01*
X82892380Y-56857142D01*
X82940000Y-56714285D01*
X82987619Y-56666666D01*
X83320952Y-56095238D02*
X83273333Y-56190476D01*
X83225714Y-56238095D01*
X83130476Y-56285714D01*
X83082857Y-56285714D01*
X82987619Y-56238095D01*
X82940000Y-56190476D01*
X82892380Y-56095238D01*
X82892380Y-55904761D01*
X82940000Y-55809523D01*
X82987619Y-55761904D01*
X83082857Y-55714285D01*
X83130476Y-55714285D01*
X83225714Y-55761904D01*
X83273333Y-55809523D01*
X83320952Y-55904761D01*
X83320952Y-56095238D01*
X83368571Y-56190476D01*
X83416190Y-56238095D01*
X83511428Y-56285714D01*
X83701904Y-56285714D01*
X83797142Y-56238095D01*
X83844761Y-56190476D01*
X83892380Y-56095238D01*
X83892380Y-55904761D01*
X83844761Y-55809523D01*
X83797142Y-55761904D01*
X83701904Y-55714285D01*
X83511428Y-55714285D01*
X83416190Y-55761904D01*
X83368571Y-55809523D01*
X83320952Y-55904761D01*
X88917142Y-103666666D02*
X88964761Y-103714285D01*
X89012380Y-103857142D01*
X89012380Y-103952380D01*
X88964761Y-104095238D01*
X88869523Y-104190476D01*
X88774285Y-104238095D01*
X88583809Y-104285714D01*
X88440952Y-104285714D01*
X88250476Y-104238095D01*
X88155238Y-104190476D01*
X88060000Y-104095238D01*
X88012380Y-103952380D01*
X88012380Y-103857142D01*
X88060000Y-103714285D01*
X88107619Y-103666666D01*
X89012380Y-103190476D02*
X89012380Y-103000000D01*
X88964761Y-102904761D01*
X88917142Y-102857142D01*
X88774285Y-102761904D01*
X88583809Y-102714285D01*
X88202857Y-102714285D01*
X88107619Y-102761904D01*
X88060000Y-102809523D01*
X88012380Y-102904761D01*
X88012380Y-103095238D01*
X88060000Y-103190476D01*
X88107619Y-103238095D01*
X88202857Y-103285714D01*
X88440952Y-103285714D01*
X88536190Y-103238095D01*
X88583809Y-103190476D01*
X88631428Y-103095238D01*
X88631428Y-102904761D01*
X88583809Y-102809523D01*
X88536190Y-102761904D01*
X88440952Y-102714285D01*
X122167142Y-17642857D02*
X122214761Y-17690476D01*
X122262380Y-17833333D01*
X122262380Y-17928571D01*
X122214761Y-18071428D01*
X122119523Y-18166666D01*
X122024285Y-18214285D01*
X121833809Y-18261904D01*
X121690952Y-18261904D01*
X121500476Y-18214285D01*
X121405238Y-18166666D01*
X121310000Y-18071428D01*
X121262380Y-17928571D01*
X121262380Y-17833333D01*
X121310000Y-17690476D01*
X121357619Y-17642857D01*
X122262380Y-16690476D02*
X122262380Y-17261904D01*
X122262380Y-16976190D02*
X121262380Y-16976190D01*
X121405238Y-17071428D01*
X121500476Y-17166666D01*
X121548095Y-17261904D01*
X121262380Y-16071428D02*
X121262380Y-15976190D01*
X121310000Y-15880952D01*
X121357619Y-15833333D01*
X121452857Y-15785714D01*
X121643333Y-15738095D01*
X121881428Y-15738095D01*
X122071904Y-15785714D01*
X122167142Y-15833333D01*
X122214761Y-15880952D01*
X122262380Y-15976190D01*
X122262380Y-16071428D01*
X122214761Y-16166666D01*
X122167142Y-16214285D01*
X122071904Y-16261904D01*
X121881428Y-16309523D01*
X121643333Y-16309523D01*
X121452857Y-16261904D01*
X121357619Y-16214285D01*
X121310000Y-16166666D01*
X121262380Y-16071428D01*
X146547142Y-17142857D02*
X146594761Y-17190476D01*
X146642380Y-17333333D01*
X146642380Y-17428571D01*
X146594761Y-17571428D01*
X146499523Y-17666666D01*
X146404285Y-17714285D01*
X146213809Y-17761904D01*
X146070952Y-17761904D01*
X145880476Y-17714285D01*
X145785238Y-17666666D01*
X145690000Y-17571428D01*
X145642380Y-17428571D01*
X145642380Y-17333333D01*
X145690000Y-17190476D01*
X145737619Y-17142857D01*
X146642380Y-16190476D02*
X146642380Y-16761904D01*
X146642380Y-16476190D02*
X145642380Y-16476190D01*
X145785238Y-16571428D01*
X145880476Y-16666666D01*
X145928095Y-16761904D01*
X146642380Y-15238095D02*
X146642380Y-15809523D01*
X146642380Y-15523809D02*
X145642380Y-15523809D01*
X145785238Y-15619047D01*
X145880476Y-15714285D01*
X145928095Y-15809523D01*
X122167142Y-57642857D02*
X122214761Y-57690476D01*
X122262380Y-57833333D01*
X122262380Y-57928571D01*
X122214761Y-58071428D01*
X122119523Y-58166666D01*
X122024285Y-58214285D01*
X121833809Y-58261904D01*
X121690952Y-58261904D01*
X121500476Y-58214285D01*
X121405238Y-58166666D01*
X121310000Y-58071428D01*
X121262380Y-57928571D01*
X121262380Y-57833333D01*
X121310000Y-57690476D01*
X121357619Y-57642857D01*
X122262380Y-56690476D02*
X122262380Y-57261904D01*
X122262380Y-56976190D02*
X121262380Y-56976190D01*
X121405238Y-57071428D01*
X121500476Y-57166666D01*
X121548095Y-57261904D01*
X121357619Y-56309523D02*
X121310000Y-56261904D01*
X121262380Y-56166666D01*
X121262380Y-55928571D01*
X121310000Y-55833333D01*
X121357619Y-55785714D01*
X121452857Y-55738095D01*
X121548095Y-55738095D01*
X121690952Y-55785714D01*
X122262380Y-56357142D01*
X122262380Y-55738095D01*
X130167142Y-104142857D02*
X130214761Y-104190476D01*
X130262380Y-104333333D01*
X130262380Y-104428571D01*
X130214761Y-104571428D01*
X130119523Y-104666666D01*
X130024285Y-104714285D01*
X129833809Y-104761904D01*
X129690952Y-104761904D01*
X129500476Y-104714285D01*
X129405238Y-104666666D01*
X129310000Y-104571428D01*
X129262380Y-104428571D01*
X129262380Y-104333333D01*
X129310000Y-104190476D01*
X129357619Y-104142857D01*
X130262380Y-103190476D02*
X130262380Y-103761904D01*
X130262380Y-103476190D02*
X129262380Y-103476190D01*
X129405238Y-103571428D01*
X129500476Y-103666666D01*
X129548095Y-103761904D01*
X129262380Y-102857142D02*
X129262380Y-102238095D01*
X129643333Y-102571428D01*
X129643333Y-102428571D01*
X129690952Y-102333333D01*
X129738571Y-102285714D01*
X129833809Y-102238095D01*
X130071904Y-102238095D01*
X130167142Y-102285714D01*
X130214761Y-102333333D01*
X130262380Y-102428571D01*
X130262380Y-102714285D01*
X130214761Y-102809523D01*
X130167142Y-102857142D01*
X154547142Y-17142857D02*
X154594761Y-17190476D01*
X154642380Y-17333333D01*
X154642380Y-17428571D01*
X154594761Y-17571428D01*
X154499523Y-17666666D01*
X154404285Y-17714285D01*
X154213809Y-17761904D01*
X154070952Y-17761904D01*
X153880476Y-17714285D01*
X153785238Y-17666666D01*
X153690000Y-17571428D01*
X153642380Y-17428571D01*
X153642380Y-17333333D01*
X153690000Y-17190476D01*
X153737619Y-17142857D01*
X154642380Y-16190476D02*
X154642380Y-16761904D01*
X154642380Y-16476190D02*
X153642380Y-16476190D01*
X153785238Y-16571428D01*
X153880476Y-16666666D01*
X153928095Y-16761904D01*
X153975714Y-15333333D02*
X154642380Y-15333333D01*
X153594761Y-15571428D02*
X154309047Y-15809523D01*
X154309047Y-15190476D01*
X130167142Y-57642857D02*
X130214761Y-57690476D01*
X130262380Y-57833333D01*
X130262380Y-57928571D01*
X130214761Y-58071428D01*
X130119523Y-58166666D01*
X130024285Y-58214285D01*
X129833809Y-58261904D01*
X129690952Y-58261904D01*
X129500476Y-58214285D01*
X129405238Y-58166666D01*
X129310000Y-58071428D01*
X129262380Y-57928571D01*
X129262380Y-57833333D01*
X129310000Y-57690476D01*
X129357619Y-57642857D01*
X130262380Y-56690476D02*
X130262380Y-57261904D01*
X130262380Y-56976190D02*
X129262380Y-56976190D01*
X129405238Y-57071428D01*
X129500476Y-57166666D01*
X129548095Y-57261904D01*
X129262380Y-55785714D02*
X129262380Y-56261904D01*
X129738571Y-56309523D01*
X129690952Y-56261904D01*
X129643333Y-56166666D01*
X129643333Y-55928571D01*
X129690952Y-55833333D01*
X129738571Y-55785714D01*
X129833809Y-55738095D01*
X130071904Y-55738095D01*
X130167142Y-55785714D01*
X130214761Y-55833333D01*
X130262380Y-55928571D01*
X130262380Y-56166666D01*
X130214761Y-56261904D01*
X130167142Y-56309523D01*
X122167142Y-104142857D02*
X122214761Y-104190476D01*
X122262380Y-104333333D01*
X122262380Y-104428571D01*
X122214761Y-104571428D01*
X122119523Y-104666666D01*
X122024285Y-104714285D01*
X121833809Y-104761904D01*
X121690952Y-104761904D01*
X121500476Y-104714285D01*
X121405238Y-104666666D01*
X121310000Y-104571428D01*
X121262380Y-104428571D01*
X121262380Y-104333333D01*
X121310000Y-104190476D01*
X121357619Y-104142857D01*
X122262380Y-103190476D02*
X122262380Y-103761904D01*
X122262380Y-103476190D02*
X121262380Y-103476190D01*
X121405238Y-103571428D01*
X121500476Y-103666666D01*
X121548095Y-103761904D01*
X121262380Y-102333333D02*
X121262380Y-102523809D01*
X121310000Y-102619047D01*
X121357619Y-102666666D01*
X121500476Y-102761904D01*
X121690952Y-102809523D01*
X122071904Y-102809523D01*
X122167142Y-102761904D01*
X122214761Y-102714285D01*
X122262380Y-102619047D01*
X122262380Y-102428571D01*
X122214761Y-102333333D01*
X122167142Y-102285714D01*
X122071904Y-102238095D01*
X121833809Y-102238095D01*
X121738571Y-102285714D01*
X121690952Y-102333333D01*
X121643333Y-102428571D01*
X121643333Y-102619047D01*
X121690952Y-102714285D01*
X121738571Y-102761904D01*
X121833809Y-102809523D01*
X163797142Y-17142857D02*
X163844761Y-17190476D01*
X163892380Y-17333333D01*
X163892380Y-17428571D01*
X163844761Y-17571428D01*
X163749523Y-17666666D01*
X163654285Y-17714285D01*
X163463809Y-17761904D01*
X163320952Y-17761904D01*
X163130476Y-17714285D01*
X163035238Y-17666666D01*
X162940000Y-17571428D01*
X162892380Y-17428571D01*
X162892380Y-17333333D01*
X162940000Y-17190476D01*
X162987619Y-17142857D01*
X163892380Y-16190476D02*
X163892380Y-16761904D01*
X163892380Y-16476190D02*
X162892380Y-16476190D01*
X163035238Y-16571428D01*
X163130476Y-16666666D01*
X163178095Y-16761904D01*
X162892380Y-15857142D02*
X162892380Y-15190476D01*
X163892380Y-15619047D01*
X136917142Y-58142857D02*
X136964761Y-58190476D01*
X137012380Y-58333333D01*
X137012380Y-58428571D01*
X136964761Y-58571428D01*
X136869523Y-58666666D01*
X136774285Y-58714285D01*
X136583809Y-58761904D01*
X136440952Y-58761904D01*
X136250476Y-58714285D01*
X136155238Y-58666666D01*
X136060000Y-58571428D01*
X136012380Y-58428571D01*
X136012380Y-58333333D01*
X136060000Y-58190476D01*
X136107619Y-58142857D01*
X137012380Y-57190476D02*
X137012380Y-57761904D01*
X137012380Y-57476190D02*
X136012380Y-57476190D01*
X136155238Y-57571428D01*
X136250476Y-57666666D01*
X136298095Y-57761904D01*
X136440952Y-56619047D02*
X136393333Y-56714285D01*
X136345714Y-56761904D01*
X136250476Y-56809523D01*
X136202857Y-56809523D01*
X136107619Y-56761904D01*
X136060000Y-56714285D01*
X136012380Y-56619047D01*
X136012380Y-56428571D01*
X136060000Y-56333333D01*
X136107619Y-56285714D01*
X136202857Y-56238095D01*
X136250476Y-56238095D01*
X136345714Y-56285714D01*
X136393333Y-56333333D01*
X136440952Y-56428571D01*
X136440952Y-56619047D01*
X136488571Y-56714285D01*
X136536190Y-56761904D01*
X136631428Y-56809523D01*
X136821904Y-56809523D01*
X136917142Y-56761904D01*
X136964761Y-56714285D01*
X137012380Y-56619047D01*
X137012380Y-56428571D01*
X136964761Y-56333333D01*
X136917142Y-56285714D01*
X136821904Y-56238095D01*
X136631428Y-56238095D01*
X136536190Y-56285714D01*
X136488571Y-56333333D01*
X136440952Y-56428571D01*
X136917142Y-104142857D02*
X136964761Y-104190476D01*
X137012380Y-104333333D01*
X137012380Y-104428571D01*
X136964761Y-104571428D01*
X136869523Y-104666666D01*
X136774285Y-104714285D01*
X136583809Y-104761904D01*
X136440952Y-104761904D01*
X136250476Y-104714285D01*
X136155238Y-104666666D01*
X136060000Y-104571428D01*
X136012380Y-104428571D01*
X136012380Y-104333333D01*
X136060000Y-104190476D01*
X136107619Y-104142857D01*
X137012380Y-103190476D02*
X137012380Y-103761904D01*
X137012380Y-103476190D02*
X136012380Y-103476190D01*
X136155238Y-103571428D01*
X136250476Y-103666666D01*
X136298095Y-103761904D01*
X137012380Y-102714285D02*
X137012380Y-102523809D01*
X136964761Y-102428571D01*
X136917142Y-102380952D01*
X136774285Y-102285714D01*
X136583809Y-102238095D01*
X136202857Y-102238095D01*
X136107619Y-102285714D01*
X136060000Y-102333333D01*
X136012380Y-102428571D01*
X136012380Y-102619047D01*
X136060000Y-102714285D01*
X136107619Y-102761904D01*
X136202857Y-102809523D01*
X136440952Y-102809523D01*
X136536190Y-102761904D01*
X136583809Y-102714285D01*
X136631428Y-102619047D01*
X136631428Y-102428571D01*
X136583809Y-102333333D01*
X136536190Y-102285714D01*
X136440952Y-102238095D01*
X27862380Y-76548095D02*
X26862380Y-76548095D01*
X26862380Y-76310000D01*
X26910000Y-76167142D01*
X27005238Y-76071904D01*
X27100476Y-76024285D01*
X27290952Y-75976666D01*
X27433809Y-75976666D01*
X27624285Y-76024285D01*
X27719523Y-76071904D01*
X27814761Y-76167142D01*
X27862380Y-76310000D01*
X27862380Y-76548095D01*
X27862380Y-75024285D02*
X27862380Y-75595714D01*
X27862380Y-75310000D02*
X26862380Y-75310000D01*
X27005238Y-75405238D01*
X27100476Y-75500476D01*
X27148095Y-75595714D01*
X27862380Y-105548095D02*
X26862380Y-105548095D01*
X26862380Y-105310000D01*
X26910000Y-105167142D01*
X27005238Y-105071904D01*
X27100476Y-105024285D01*
X27290952Y-104976666D01*
X27433809Y-104976666D01*
X27624285Y-105024285D01*
X27719523Y-105071904D01*
X27814761Y-105167142D01*
X27862380Y-105310000D01*
X27862380Y-105548095D01*
X26957619Y-104595714D02*
X26910000Y-104548095D01*
X26862380Y-104452857D01*
X26862380Y-104214761D01*
X26910000Y-104119523D01*
X26957619Y-104071904D01*
X27052857Y-104024285D01*
X27148095Y-104024285D01*
X27290952Y-104071904D01*
X27862380Y-104643333D01*
X27862380Y-104024285D01*
X33071904Y-66042380D02*
X33071904Y-65042380D01*
X33310000Y-65042380D01*
X33452857Y-65090000D01*
X33548095Y-65185238D01*
X33595714Y-65280476D01*
X33643333Y-65470952D01*
X33643333Y-65613809D01*
X33595714Y-65804285D01*
X33548095Y-65899523D01*
X33452857Y-65994761D01*
X33310000Y-66042380D01*
X33071904Y-66042380D01*
X33976666Y-65042380D02*
X34595714Y-65042380D01*
X34262380Y-65423333D01*
X34405238Y-65423333D01*
X34500476Y-65470952D01*
X34548095Y-65518571D01*
X34595714Y-65613809D01*
X34595714Y-65851904D01*
X34548095Y-65947142D01*
X34500476Y-65994761D01*
X34405238Y-66042380D01*
X34119523Y-66042380D01*
X34024285Y-65994761D01*
X33976666Y-65947142D01*
X33071904Y-82042380D02*
X33071904Y-81042380D01*
X33310000Y-81042380D01*
X33452857Y-81090000D01*
X33548095Y-81185238D01*
X33595714Y-81280476D01*
X33643333Y-81470952D01*
X33643333Y-81613809D01*
X33595714Y-81804285D01*
X33548095Y-81899523D01*
X33452857Y-81994761D01*
X33310000Y-82042380D01*
X33071904Y-82042380D01*
X34500476Y-81375714D02*
X34500476Y-82042380D01*
X34262380Y-80994761D02*
X34024285Y-81709047D01*
X34643333Y-81709047D01*
X33071904Y-95042380D02*
X33071904Y-94042380D01*
X33310000Y-94042380D01*
X33452857Y-94090000D01*
X33548095Y-94185238D01*
X33595714Y-94280476D01*
X33643333Y-94470952D01*
X33643333Y-94613809D01*
X33595714Y-94804285D01*
X33548095Y-94899523D01*
X33452857Y-94994761D01*
X33310000Y-95042380D01*
X33071904Y-95042380D01*
X34548095Y-94042380D02*
X34071904Y-94042380D01*
X34024285Y-94518571D01*
X34071904Y-94470952D01*
X34167142Y-94423333D01*
X34405238Y-94423333D01*
X34500476Y-94470952D01*
X34548095Y-94518571D01*
X34595714Y-94613809D01*
X34595714Y-94851904D01*
X34548095Y-94947142D01*
X34500476Y-94994761D01*
X34405238Y-95042380D01*
X34167142Y-95042380D01*
X34071904Y-94994761D01*
X34024285Y-94947142D01*
X33071904Y-111042380D02*
X33071904Y-110042380D01*
X33310000Y-110042380D01*
X33452857Y-110090000D01*
X33548095Y-110185238D01*
X33595714Y-110280476D01*
X33643333Y-110470952D01*
X33643333Y-110613809D01*
X33595714Y-110804285D01*
X33548095Y-110899523D01*
X33452857Y-110994761D01*
X33310000Y-111042380D01*
X33071904Y-111042380D01*
X34500476Y-110042380D02*
X34310000Y-110042380D01*
X34214761Y-110090000D01*
X34167142Y-110137619D01*
X34071904Y-110280476D01*
X34024285Y-110470952D01*
X34024285Y-110851904D01*
X34071904Y-110947142D01*
X34119523Y-110994761D01*
X34214761Y-111042380D01*
X34405238Y-111042380D01*
X34500476Y-110994761D01*
X34548095Y-110947142D01*
X34595714Y-110851904D01*
X34595714Y-110613809D01*
X34548095Y-110518571D01*
X34500476Y-110470952D01*
X34405238Y-110423333D01*
X34214761Y-110423333D01*
X34119523Y-110470952D01*
X34071904Y-110518571D01*
X34024285Y-110613809D01*
X44862380Y-76548095D02*
X43862380Y-76548095D01*
X43862380Y-76310000D01*
X43910000Y-76167142D01*
X44005238Y-76071904D01*
X44100476Y-76024285D01*
X44290952Y-75976666D01*
X44433809Y-75976666D01*
X44624285Y-76024285D01*
X44719523Y-76071904D01*
X44814761Y-76167142D01*
X44862380Y-76310000D01*
X44862380Y-76548095D01*
X43862380Y-75643333D02*
X43862380Y-74976666D01*
X44862380Y-75405238D01*
X44862380Y-105548095D02*
X43862380Y-105548095D01*
X43862380Y-105310000D01*
X43910000Y-105167142D01*
X44005238Y-105071904D01*
X44100476Y-105024285D01*
X44290952Y-104976666D01*
X44433809Y-104976666D01*
X44624285Y-105024285D01*
X44719523Y-105071904D01*
X44814761Y-105167142D01*
X44862380Y-105310000D01*
X44862380Y-105548095D01*
X44290952Y-104405238D02*
X44243333Y-104500476D01*
X44195714Y-104548095D01*
X44100476Y-104595714D01*
X44052857Y-104595714D01*
X43957619Y-104548095D01*
X43910000Y-104500476D01*
X43862380Y-104405238D01*
X43862380Y-104214761D01*
X43910000Y-104119523D01*
X43957619Y-104071904D01*
X44052857Y-104024285D01*
X44100476Y-104024285D01*
X44195714Y-104071904D01*
X44243333Y-104119523D01*
X44290952Y-104214761D01*
X44290952Y-104405238D01*
X44338571Y-104500476D01*
X44386190Y-104548095D01*
X44481428Y-104595714D01*
X44671904Y-104595714D01*
X44767142Y-104548095D01*
X44814761Y-104500476D01*
X44862380Y-104405238D01*
X44862380Y-104214761D01*
X44814761Y-104119523D01*
X44767142Y-104071904D01*
X44671904Y-104024285D01*
X44481428Y-104024285D01*
X44386190Y-104071904D01*
X44338571Y-104119523D01*
X44290952Y-104214761D01*
X167991904Y-43412380D02*
X167991904Y-42412380D01*
X168230000Y-42412380D01*
X168372857Y-42460000D01*
X168468095Y-42555238D01*
X168515714Y-42650476D01*
X168563333Y-42840952D01*
X168563333Y-42983809D01*
X168515714Y-43174285D01*
X168468095Y-43269523D01*
X168372857Y-43364761D01*
X168230000Y-43412380D01*
X167991904Y-43412380D01*
X169039523Y-43412380D02*
X169230000Y-43412380D01*
X169325238Y-43364761D01*
X169372857Y-43317142D01*
X169468095Y-43174285D01*
X169515714Y-42983809D01*
X169515714Y-42602857D01*
X169468095Y-42507619D01*
X169420476Y-42460000D01*
X169325238Y-42412380D01*
X169134761Y-42412380D01*
X169039523Y-42460000D01*
X168991904Y-42507619D01*
X168944285Y-42602857D01*
X168944285Y-42840952D01*
X168991904Y-42936190D01*
X169039523Y-42983809D01*
X169134761Y-43031428D01*
X169325238Y-43031428D01*
X169420476Y-42983809D01*
X169468095Y-42936190D01*
X169515714Y-42840952D01*
X167515714Y-73412380D02*
X167515714Y-72412380D01*
X167753809Y-72412380D01*
X167896666Y-72460000D01*
X167991904Y-72555238D01*
X168039523Y-72650476D01*
X168087142Y-72840952D01*
X168087142Y-72983809D01*
X168039523Y-73174285D01*
X167991904Y-73269523D01*
X167896666Y-73364761D01*
X167753809Y-73412380D01*
X167515714Y-73412380D01*
X169039523Y-73412380D02*
X168468095Y-73412380D01*
X168753809Y-73412380D02*
X168753809Y-72412380D01*
X168658571Y-72555238D01*
X168563333Y-72650476D01*
X168468095Y-72698095D01*
X169658571Y-72412380D02*
X169753809Y-72412380D01*
X169849047Y-72460000D01*
X169896666Y-72507619D01*
X169944285Y-72602857D01*
X169991904Y-72793333D01*
X169991904Y-73031428D01*
X169944285Y-73221904D01*
X169896666Y-73317142D01*
X169849047Y-73364761D01*
X169753809Y-73412380D01*
X169658571Y-73412380D01*
X169563333Y-73364761D01*
X169515714Y-73317142D01*
X169468095Y-73221904D01*
X169420476Y-73031428D01*
X169420476Y-72793333D01*
X169468095Y-72602857D01*
X169515714Y-72507619D01*
X169563333Y-72460000D01*
X169658571Y-72412380D01*
X167555714Y-87492380D02*
X167555714Y-86492380D01*
X167793809Y-86492380D01*
X167936666Y-86540000D01*
X168031904Y-86635238D01*
X168079523Y-86730476D01*
X168127142Y-86920952D01*
X168127142Y-87063809D01*
X168079523Y-87254285D01*
X168031904Y-87349523D01*
X167936666Y-87444761D01*
X167793809Y-87492380D01*
X167555714Y-87492380D01*
X169079523Y-87492380D02*
X168508095Y-87492380D01*
X168793809Y-87492380D02*
X168793809Y-86492380D01*
X168698571Y-86635238D01*
X168603333Y-86730476D01*
X168508095Y-86778095D01*
X170031904Y-87492380D02*
X169460476Y-87492380D01*
X169746190Y-87492380D02*
X169746190Y-86492380D01*
X169650952Y-86635238D01*
X169555714Y-86730476D01*
X169460476Y-86778095D01*
X156023333Y-41762380D02*
X155690000Y-41286190D01*
X155451904Y-41762380D02*
X155451904Y-40762380D01*
X155832857Y-40762380D01*
X155928095Y-40810000D01*
X155975714Y-40857619D01*
X156023333Y-40952857D01*
X156023333Y-41095714D01*
X155975714Y-41190952D01*
X155928095Y-41238571D01*
X155832857Y-41286190D01*
X155451904Y-41286190D01*
X156975714Y-41762380D02*
X156404285Y-41762380D01*
X156690000Y-41762380D02*
X156690000Y-40762380D01*
X156594761Y-40905238D01*
X156499523Y-41000476D01*
X156404285Y-41048095D01*
X156023333Y-71762380D02*
X155690000Y-71286190D01*
X155451904Y-71762380D02*
X155451904Y-70762380D01*
X155832857Y-70762380D01*
X155928095Y-70810000D01*
X155975714Y-70857619D01*
X156023333Y-70952857D01*
X156023333Y-71095714D01*
X155975714Y-71190952D01*
X155928095Y-71238571D01*
X155832857Y-71286190D01*
X155451904Y-71286190D01*
X156404285Y-70857619D02*
X156451904Y-70810000D01*
X156547142Y-70762380D01*
X156785238Y-70762380D01*
X156880476Y-70810000D01*
X156928095Y-70857619D01*
X156975714Y-70952857D01*
X156975714Y-71048095D01*
X156928095Y-71190952D01*
X156356666Y-71762380D01*
X156975714Y-71762380D01*
X156143333Y-89142380D02*
X155810000Y-88666190D01*
X155571904Y-89142380D02*
X155571904Y-88142380D01*
X155952857Y-88142380D01*
X156048095Y-88190000D01*
X156095714Y-88237619D01*
X156143333Y-88332857D01*
X156143333Y-88475714D01*
X156095714Y-88570952D01*
X156048095Y-88618571D01*
X155952857Y-88666190D01*
X155571904Y-88666190D01*
X156476666Y-88142380D02*
X157095714Y-88142380D01*
X156762380Y-88523333D01*
X156905238Y-88523333D01*
X157000476Y-88570952D01*
X157048095Y-88618571D01*
X157095714Y-88713809D01*
X157095714Y-88951904D01*
X157048095Y-89047142D01*
X157000476Y-89094761D01*
X156905238Y-89142380D01*
X156619523Y-89142380D01*
X156524285Y-89094761D01*
X156476666Y-89047142D01*
X104354380Y-18221904D02*
X105163904Y-18221904D01*
X105259142Y-18174285D01*
X105306761Y-18126666D01*
X105354380Y-18031428D01*
X105354380Y-17840952D01*
X105306761Y-17745714D01*
X105259142Y-17698095D01*
X105163904Y-17650476D01*
X104354380Y-17650476D01*
X105354380Y-16650476D02*
X105354380Y-17221904D01*
X105354380Y-16936190D02*
X104354380Y-16936190D01*
X104497238Y-17031428D01*
X104592476Y-17126666D01*
X104640095Y-17221904D01*
X104354380Y-58221904D02*
X105163904Y-58221904D01*
X105259142Y-58174285D01*
X105306761Y-58126666D01*
X105354380Y-58031428D01*
X105354380Y-57840952D01*
X105306761Y-57745714D01*
X105259142Y-57698095D01*
X105163904Y-57650476D01*
X104354380Y-57650476D01*
X104449619Y-57221904D02*
X104402000Y-57174285D01*
X104354380Y-57079047D01*
X104354380Y-56840952D01*
X104402000Y-56745714D01*
X104449619Y-56698095D01*
X104544857Y-56650476D01*
X104640095Y-56650476D01*
X104782952Y-56698095D01*
X105354380Y-57269523D01*
X105354380Y-56650476D01*
X130643380Y-18287904D02*
X131452904Y-18287904D01*
X131548142Y-18240285D01*
X131595761Y-18192666D01*
X131643380Y-18097428D01*
X131643380Y-17906952D01*
X131595761Y-17811714D01*
X131548142Y-17764095D01*
X131452904Y-17716476D01*
X130643380Y-17716476D01*
X130976714Y-16811714D02*
X131643380Y-16811714D01*
X130595761Y-17049809D02*
X131310047Y-17287904D01*
X131310047Y-16668857D01*
X183983380Y-62797333D02*
X184697666Y-62797333D01*
X184840523Y-62844952D01*
X184935761Y-62940190D01*
X184983380Y-63083047D01*
X184983380Y-63178285D01*
X184411952Y-62178285D02*
X184364333Y-62273523D01*
X184316714Y-62321142D01*
X184221476Y-62368761D01*
X184173857Y-62368761D01*
X184078619Y-62321142D01*
X184031000Y-62273523D01*
X183983380Y-62178285D01*
X183983380Y-61987809D01*
X184031000Y-61892571D01*
X184078619Y-61844952D01*
X184173857Y-61797333D01*
X184221476Y-61797333D01*
X184316714Y-61844952D01*
X184364333Y-61892571D01*
X184411952Y-61987809D01*
X184411952Y-62178285D01*
X184459571Y-62273523D01*
X184507190Y-62321142D01*
X184602428Y-62368761D01*
X184792904Y-62368761D01*
X184888142Y-62321142D01*
X184935761Y-62273523D01*
X184983380Y-62178285D01*
X184983380Y-61987809D01*
X184935761Y-61892571D01*
X184888142Y-61844952D01*
X184792904Y-61797333D01*
X184602428Y-61797333D01*
X184507190Y-61844952D01*
X184459571Y-61892571D01*
X184411952Y-61987809D01*
M02*
