G04 #@! TF.GenerationSoftware,KiCad,Pcbnew,(5.1.5)-3*
G04 #@! TF.CreationDate,2020-11-25T08:49:10-07:00*
G04 #@! TF.ProjectId,Power_Supply,506f7765-725f-4537-9570-706c792e6b69,rev?*
G04 #@! TF.SameCoordinates,Original*
G04 #@! TF.FileFunction,Copper,L1,Top*
G04 #@! TF.FilePolarity,Positive*
%FSLAX46Y46*%
G04 Gerber Fmt 4.6, Leading zero omitted, Abs format (unit mm)*
G04 Created by KiCad (PCBNEW (5.1.5)-3) date 2020-11-25 08:49:10*
%MOMM*%
%LPD*%
G04 APERTURE LIST*
%ADD10C,5.000000*%
%ADD11C,2.350000*%
%ADD12C,2.400000*%
%ADD13R,1.400000X6.400000*%
%ADD14R,1.600000X3.000000*%
%ADD15R,1.600000X2.000000*%
%ADD16R,1.600000X3.500000*%
%ADD17R,2.500000X2.300000*%
%ADD18R,2.000000X1.700000*%
%ADD19R,2.000000X2.500000*%
%ADD20R,1.200000X2.200000*%
%ADD21R,5.800000X6.400000*%
%ADD22R,2.750000X3.050000*%
%ADD23R,1.100000X4.600000*%
%ADD24R,10.800000X9.400000*%
%ADD25R,5.250000X4.550000*%
%ADD26C,3.000000*%
%ADD27R,3.000000X3.000000*%
%ADD28C,0.800000*%
%ADD29C,0.800000*%
%ADD30C,0.500000*%
%ADD31C,6.500000*%
%ADD32C,0.254000*%
G04 APERTURE END LIST*
D10*
X196500000Y-116500000D03*
X3500000Y-116500000D03*
X3500000Y-3500000D03*
X196500000Y-3500000D03*
D11*
X19000000Y-13378200D03*
X19000000Y-18378200D03*
X19000000Y-33378200D03*
X19000000Y-28378200D03*
D12*
X9540000Y-80000000D03*
X4460000Y-80000000D03*
D13*
X65000000Y-26325000D03*
X65000000Y-13675000D03*
D14*
X79000000Y-17800000D03*
X79000000Y-22200000D03*
D15*
X85000000Y-18000000D03*
X85000000Y-22000000D03*
D13*
X65000000Y-53675000D03*
X65000000Y-66325000D03*
X65000000Y-106325000D03*
X65000000Y-93675000D03*
D14*
X79000000Y-62200000D03*
X79000000Y-57800000D03*
X79000000Y-97800000D03*
X79000000Y-102200000D03*
D15*
X85000000Y-62000000D03*
X85000000Y-58000000D03*
X85000000Y-98000000D03*
X85000000Y-102000000D03*
D16*
X120000000Y-22700000D03*
X120000000Y-17300000D03*
X160000000Y-17300000D03*
X160000000Y-22700000D03*
X120000000Y-57300000D03*
X120000000Y-62700000D03*
X120000000Y-97300000D03*
X120000000Y-102700000D03*
D14*
X168000000Y-22200000D03*
X168000000Y-17800000D03*
X128000000Y-57800000D03*
X128000000Y-62200000D03*
X128000000Y-97800000D03*
X128000000Y-102200000D03*
D15*
X173000000Y-22000000D03*
X173000000Y-18000000D03*
X133000000Y-58000000D03*
X133000000Y-62000000D03*
X133000000Y-98000000D03*
X133000000Y-102000000D03*
D17*
X27150000Y-50000000D03*
X22850000Y-50000000D03*
X27150000Y-94000000D03*
X22850000Y-94000000D03*
X22850000Y-58000000D03*
X27150000Y-58000000D03*
X22850000Y-66000000D03*
X27150000Y-66000000D03*
X22850000Y-86000000D03*
X27150000Y-86000000D03*
X22850000Y-110000000D03*
X27150000Y-110000000D03*
X27150000Y-74000000D03*
X22850000Y-74000000D03*
X27150000Y-102000000D03*
X22850000Y-102000000D03*
D18*
X171000000Y-45000000D03*
X175000000Y-45000000D03*
X175000000Y-68000000D03*
X171000000Y-68000000D03*
X175000000Y-92000000D03*
X171000000Y-92000000D03*
D11*
X160000000Y-36000000D03*
X155000000Y-36000000D03*
X170000000Y-36000000D03*
X175000000Y-36000000D03*
X175000000Y-60000000D03*
X170000000Y-60000000D03*
X155000000Y-60000000D03*
X160000000Y-60000000D03*
X160000000Y-100000000D03*
X155000000Y-100000000D03*
X170000000Y-100000000D03*
X175000000Y-100000000D03*
D12*
X4460000Y-13378200D03*
X9540000Y-13378200D03*
X9540000Y-21378200D03*
X4460000Y-21378200D03*
X4460000Y-26378200D03*
X9540000Y-26378200D03*
X9540000Y-34378200D03*
X4460000Y-34378200D03*
X4460000Y-62000000D03*
X9540000Y-62000000D03*
X9540000Y-98000000D03*
X4460000Y-98000000D03*
D19*
X163000000Y-45000000D03*
X167000000Y-45000000D03*
X163000000Y-68000000D03*
X167000000Y-68000000D03*
X163000000Y-92000000D03*
X167000000Y-92000000D03*
D20*
X97720000Y-24200000D03*
X102280000Y-24200000D03*
D21*
X100000000Y-17900000D03*
D22*
X101525000Y-16225000D03*
X98475000Y-19575000D03*
X98475000Y-16225000D03*
X101525000Y-19575000D03*
X101525000Y-59575000D03*
X98475000Y-56225000D03*
X98475000Y-59575000D03*
X101525000Y-56225000D03*
D21*
X100000000Y-57900000D03*
D20*
X102280000Y-64200000D03*
X97720000Y-64200000D03*
D23*
X97460000Y-105775000D03*
X102540000Y-105775000D03*
D24*
X100000000Y-96625000D03*
D25*
X102775000Y-94200000D03*
X97225000Y-99050000D03*
X97225000Y-94200000D03*
X102775000Y-99050000D03*
D22*
X141525000Y-19575000D03*
X138475000Y-16225000D03*
X138475000Y-19575000D03*
X141525000Y-16225000D03*
D21*
X140000000Y-17900000D03*
D20*
X142280000Y-24200000D03*
X137720000Y-24200000D03*
D26*
X188087000Y-70104000D03*
D27*
X188087000Y-54864000D03*
D26*
X188087000Y-65024000D03*
X188087000Y-59944000D03*
D28*
X176067720Y-17993360D03*
X62443360Y-13685520D03*
X93451680Y-11160760D03*
X95651680Y-11160760D03*
X93451680Y-13360760D03*
X93451680Y-15560760D03*
X95651680Y-15560760D03*
X93451680Y-17760760D03*
X95651680Y-17760760D03*
X93451680Y-19960760D03*
X95651680Y-19960760D03*
X97851680Y-11160760D03*
X100051680Y-11160760D03*
X102251680Y-11160760D03*
X104451680Y-11160760D03*
X95651680Y-13360760D03*
X97851680Y-13360760D03*
X100051680Y-13360760D03*
X102251680Y-13360760D03*
X106651680Y-11160760D03*
X104451680Y-13360760D03*
X106651680Y-13360760D03*
X104451680Y-15560760D03*
X106651680Y-15560760D03*
X104451680Y-17760760D03*
X106651680Y-17760760D03*
X104451680Y-19960760D03*
X106651680Y-19960760D03*
X159730440Y-44983400D03*
X62814200Y-53705760D03*
X134680960Y-57993280D03*
X160639760Y-67985640D03*
X160411160Y-91963240D03*
X135544560Y-98028760D03*
X117642640Y-97297240D03*
X97444560Y-109235240D03*
X63139320Y-106334560D03*
X29291280Y-65999360D03*
X29281120Y-93990160D03*
X133421120Y-11247120D03*
X135621120Y-11247120D03*
X133421120Y-13447120D03*
X133421120Y-15647120D03*
X135621120Y-15647120D03*
X133421120Y-17847120D03*
X135621120Y-17847120D03*
X133421120Y-20047120D03*
X135621120Y-20047120D03*
X137821120Y-11247120D03*
X140021120Y-11247120D03*
X142221120Y-11247120D03*
X144421120Y-11247120D03*
X135621120Y-13447120D03*
X137821120Y-13447120D03*
X140021120Y-13447120D03*
X142221120Y-13447120D03*
X146621120Y-11247120D03*
X144421120Y-13447120D03*
X146621120Y-13447120D03*
X144421120Y-15647120D03*
X146621120Y-15647120D03*
X144421120Y-17847120D03*
X146621120Y-17847120D03*
X144421120Y-20047120D03*
X146621120Y-20047120D03*
X97689120Y-53431800D03*
X99889120Y-53431800D03*
X102089120Y-53431800D03*
X106489120Y-51231800D03*
X104289120Y-53431800D03*
X93289120Y-51231800D03*
X104289120Y-55631800D03*
X106489120Y-53431800D03*
X104289120Y-51231800D03*
X95489120Y-53431800D03*
X95489120Y-51231800D03*
X93289120Y-53431800D03*
X102089120Y-51231800D03*
X95489120Y-55631800D03*
X93289120Y-57831800D03*
X95489120Y-57831800D03*
X93289120Y-60031800D03*
X95489120Y-60031800D03*
X93289120Y-55631800D03*
X99889120Y-51231800D03*
X106489120Y-55631800D03*
X106489120Y-57831800D03*
X104289120Y-60031800D03*
X106489120Y-60031800D03*
X104289120Y-57831800D03*
X97689120Y-51231800D03*
X19812000Y-102001320D03*
X19817080Y-58013600D03*
D29*
X27150000Y-51950000D02*
X27150000Y-58000000D01*
X27150000Y-50000000D02*
X27150000Y-51950000D01*
X27150000Y-58000000D02*
X45472720Y-58000000D01*
X53797720Y-66325000D02*
X65000000Y-66325000D01*
X45472720Y-58000000D02*
X53797720Y-66325000D01*
X27150000Y-50000000D02*
X45712480Y-50000000D01*
X45712480Y-50000000D02*
X54935120Y-40777360D01*
X54935120Y-40777360D02*
X54935120Y-29738320D01*
X58348440Y-26325000D02*
X65000000Y-26325000D01*
X54935120Y-29738320D02*
X58348440Y-26325000D01*
X65000000Y-26325000D02*
X73055040Y-26325000D01*
X73055040Y-26325000D02*
X74787760Y-24592280D01*
X74787760Y-24592280D02*
X74787760Y-23693120D01*
X76280880Y-22200000D02*
X79000000Y-22200000D01*
X74787760Y-23693120D02*
X76280880Y-22200000D01*
X84800000Y-22200000D02*
X85000000Y-22000000D01*
X79000000Y-22200000D02*
X84800000Y-22200000D01*
X85000000Y-22000000D02*
X86600000Y-22000000D01*
X88800000Y-24200000D02*
X97720000Y-24200000D01*
X86600000Y-22000000D02*
X88800000Y-24200000D01*
X65000000Y-66325000D02*
X69371960Y-66325000D01*
X73496960Y-62200000D02*
X79000000Y-62200000D01*
X69371960Y-66325000D02*
X73496960Y-62200000D01*
X79000000Y-62200000D02*
X81675760Y-62200000D01*
X81875760Y-62000000D02*
X85000000Y-62000000D01*
X81675760Y-62200000D02*
X81875760Y-62000000D01*
X85000000Y-62000000D02*
X88497280Y-62000000D01*
X90697280Y-64200000D02*
X97720000Y-64200000D01*
X88497280Y-62000000D02*
X90697280Y-64200000D01*
D30*
X173000000Y-18000000D02*
X170471120Y-18000000D01*
X170271120Y-17800000D02*
X168000000Y-17800000D01*
X170471120Y-18000000D02*
X170271120Y-17800000D01*
X166700000Y-17800000D02*
X166695240Y-17795240D01*
X168000000Y-17800000D02*
X166700000Y-17800000D01*
X166695240Y-17795240D02*
X164388800Y-17795240D01*
X163893560Y-17300000D02*
X160000000Y-17300000D01*
X164388800Y-17795240D02*
X163893560Y-17300000D01*
X173000000Y-18000000D02*
X176061080Y-18000000D01*
X176061080Y-18000000D02*
X176067720Y-17993360D01*
X141519480Y-17355880D02*
X140919480Y-17955880D01*
X160000000Y-17300000D02*
X140600000Y-17300000D01*
X120600000Y-17900000D02*
X120000000Y-17300000D01*
X140000000Y-17900000D02*
X120600000Y-17900000D01*
X100600000Y-17300000D02*
X100000000Y-17900000D01*
X120000000Y-17300000D02*
X100600000Y-17300000D01*
X99900000Y-18000000D02*
X100000000Y-17900000D01*
X85000000Y-18000000D02*
X99900000Y-18000000D01*
X84800000Y-17800000D02*
X85000000Y-18000000D01*
X79000000Y-17800000D02*
X84800000Y-17800000D01*
X66200000Y-13675000D02*
X66210520Y-13685520D01*
X65000000Y-13675000D02*
X66200000Y-13675000D01*
X66210520Y-13685520D02*
X71374000Y-13685520D01*
X75488480Y-17800000D02*
X79000000Y-17800000D01*
X71374000Y-13685520D02*
X75488480Y-17800000D01*
X65000000Y-13675000D02*
X62453880Y-13675000D01*
X62453880Y-13675000D02*
X62443360Y-13685520D01*
X163000000Y-45000000D02*
X159747040Y-45000000D01*
X159747040Y-45000000D02*
X159730440Y-44983400D01*
X66200000Y-53675000D02*
X66306960Y-53781960D01*
X65000000Y-53675000D02*
X66200000Y-53675000D01*
X66306960Y-53781960D02*
X69707760Y-53781960D01*
X73725800Y-57800000D02*
X79000000Y-57800000D01*
X69707760Y-53781960D02*
X73725800Y-57800000D01*
X80300000Y-57800000D02*
X80310400Y-57810400D01*
X79000000Y-57800000D02*
X80300000Y-57800000D01*
X80310400Y-57810400D02*
X81457800Y-57810400D01*
X81647400Y-58000000D02*
X85000000Y-58000000D01*
X81457800Y-57810400D02*
X81647400Y-58000000D01*
X99900000Y-58000000D02*
X100000000Y-57900000D01*
X85000000Y-58000000D02*
X99900000Y-58000000D01*
X65000000Y-53675000D02*
X62844960Y-53675000D01*
X62844960Y-53675000D02*
X62814200Y-53705760D01*
X100000000Y-57900000D02*
X110735680Y-57900000D01*
X111335680Y-57300000D02*
X120000000Y-57300000D01*
X110735680Y-57900000D02*
X111335680Y-57300000D01*
X121300000Y-57300000D02*
X121323000Y-57277000D01*
X120000000Y-57300000D02*
X121300000Y-57300000D01*
X121323000Y-57277000D02*
X123616720Y-57277000D01*
X124139720Y-57800000D02*
X128000000Y-57800000D01*
X123616720Y-57277000D02*
X124139720Y-57800000D01*
X129300000Y-57800000D02*
X129320080Y-57779920D01*
X128000000Y-57800000D02*
X129300000Y-57800000D01*
X129320080Y-57779920D02*
X130180080Y-57779920D01*
X130400160Y-58000000D02*
X133000000Y-58000000D01*
X130180080Y-57779920D02*
X130400160Y-58000000D01*
X133000000Y-58000000D02*
X134674240Y-58000000D01*
X134674240Y-58000000D02*
X134680960Y-57993280D01*
X163000000Y-68000000D02*
X160654120Y-68000000D01*
X160654120Y-68000000D02*
X160639760Y-67985640D01*
X163000000Y-92000000D02*
X160447920Y-92000000D01*
X160447920Y-92000000D02*
X160411160Y-91963240D01*
X121300000Y-97300000D02*
X121307840Y-97292160D01*
X120000000Y-97300000D02*
X121300000Y-97300000D01*
X121307840Y-97292160D02*
X123362720Y-97292160D01*
X123870560Y-97800000D02*
X128000000Y-97800000D01*
X123362720Y-97292160D02*
X123870560Y-97800000D01*
X129300000Y-97800000D02*
X129304920Y-97795080D01*
X128000000Y-97800000D02*
X129300000Y-97800000D01*
X129304920Y-97795080D02*
X130281680Y-97795080D01*
X130486600Y-98000000D02*
X133000000Y-98000000D01*
X130281680Y-97795080D02*
X130486600Y-98000000D01*
X133000000Y-98000000D02*
X135515800Y-98000000D01*
X135515800Y-98000000D02*
X135544560Y-98028760D01*
X120000000Y-97300000D02*
X117645400Y-97300000D01*
X117645400Y-97300000D02*
X117642640Y-97297240D01*
X66200000Y-106325000D02*
X66256480Y-106268520D01*
X65000000Y-106325000D02*
X66200000Y-106325000D01*
X66256480Y-106268520D02*
X69905880Y-106268520D01*
X73974400Y-102200000D02*
X79000000Y-102200000D01*
X69905880Y-106268520D02*
X73974400Y-102200000D01*
X80300000Y-102200000D02*
X80304520Y-102204520D01*
X79000000Y-102200000D02*
X80300000Y-102200000D01*
X80304520Y-102204520D02*
X81630520Y-102204520D01*
X81835040Y-102000000D02*
X85000000Y-102000000D01*
X81630520Y-102204520D02*
X81835040Y-102000000D01*
X90075000Y-105775000D02*
X97460000Y-105775000D01*
X85000000Y-102000000D02*
X86300000Y-102000000D01*
X86300000Y-102000000D02*
X90075000Y-105775000D01*
X97460000Y-105775000D02*
X97460000Y-109219800D01*
X97460000Y-109219800D02*
X97444560Y-109235240D01*
X65000000Y-106325000D02*
X63148880Y-106325000D01*
X63148880Y-106325000D02*
X63139320Y-106334560D01*
X27150000Y-66000000D02*
X27150000Y-74000000D01*
X27150000Y-74000000D02*
X27150000Y-86000000D01*
X27150000Y-87650000D02*
X27150000Y-94000000D01*
X27150000Y-86000000D02*
X27150000Y-87650000D01*
X27150000Y-66000000D02*
X29290640Y-66000000D01*
X29290640Y-66000000D02*
X29291280Y-65999360D01*
X27150000Y-94000000D02*
X29271280Y-94000000D01*
X29271280Y-94000000D02*
X29281120Y-93990160D01*
X101387480Y-57340560D02*
X100787480Y-57940560D01*
X27150000Y-108350000D02*
X27150000Y-102000000D01*
X27150000Y-110000000D02*
X27150000Y-108350000D01*
X28900000Y-102000000D02*
X28916560Y-102016560D01*
X27150000Y-102000000D02*
X28900000Y-102000000D01*
X28916560Y-102016560D02*
X41772840Y-102016560D01*
X50114400Y-93675000D02*
X65000000Y-93675000D01*
X41772840Y-102016560D02*
X50114400Y-93675000D01*
X66200000Y-93675000D02*
X66225200Y-93649800D01*
X65000000Y-93675000D02*
X66200000Y-93675000D01*
X66225200Y-93649800D02*
X69819520Y-93649800D01*
X73969720Y-97800000D02*
X79000000Y-97800000D01*
X69819520Y-93649800D02*
X73969720Y-97800000D01*
X79000000Y-97800000D02*
X81737040Y-97800000D01*
X81937040Y-98000000D02*
X85000000Y-98000000D01*
X81737040Y-97800000D02*
X81937040Y-98000000D01*
X96175000Y-98000000D02*
X97225000Y-99050000D01*
X85000000Y-98000000D02*
X96175000Y-98000000D01*
X102280000Y-24200000D02*
X110379360Y-24200000D01*
X111879360Y-22700000D02*
X120000000Y-22700000D01*
X110379360Y-24200000D02*
X111879360Y-22700000D01*
X121300000Y-22700000D02*
X121322880Y-22677120D01*
X120000000Y-22700000D02*
X121300000Y-22700000D01*
X121322880Y-22677120D02*
X129595880Y-22677120D01*
X131118760Y-24200000D02*
X137720000Y-24200000D01*
X129595880Y-22677120D02*
X131118760Y-24200000D01*
X143380000Y-24200000D02*
X143383960Y-24196040D01*
X142280000Y-24200000D02*
X143380000Y-24200000D01*
X143383960Y-24196040D02*
X149936200Y-24196040D01*
X151432240Y-22700000D02*
X160000000Y-22700000D01*
X149936200Y-24196040D02*
X151432240Y-22700000D01*
X160000000Y-22700000D02*
X163822360Y-22700000D01*
X164322360Y-22200000D02*
X168000000Y-22200000D01*
X163822360Y-22700000D02*
X164322360Y-22200000D01*
X168000000Y-22200000D02*
X170281200Y-22200000D01*
X170481200Y-22000000D02*
X173000000Y-22000000D01*
X170281200Y-22200000D02*
X170481200Y-22000000D01*
X173000000Y-23500000D02*
X172999400Y-23500600D01*
X173000000Y-22000000D02*
X173000000Y-23500000D01*
X172999400Y-23500600D02*
X172999400Y-25587960D01*
X172999400Y-25587960D02*
X169026840Y-29560520D01*
X169026840Y-29560520D02*
X163093400Y-29560520D01*
X160000000Y-32653920D02*
X160000000Y-36000000D01*
X163093400Y-29560520D02*
X160000000Y-32653920D01*
X158338300Y-36000000D02*
X155000000Y-36000000D01*
X160000000Y-36000000D02*
X158338300Y-36000000D01*
X102280000Y-64200000D02*
X110318320Y-64200000D01*
X111818320Y-62700000D02*
X120000000Y-62700000D01*
X110318320Y-64200000D02*
X111818320Y-62700000D01*
X121300000Y-62700000D02*
X121307720Y-62692280D01*
X120000000Y-62700000D02*
X121300000Y-62700000D01*
X121307720Y-62692280D02*
X123743720Y-62692280D01*
X124236000Y-62200000D02*
X128000000Y-62200000D01*
X123743720Y-62692280D02*
X124236000Y-62200000D01*
X128000000Y-62200000D02*
X130514880Y-62200000D01*
X130714880Y-62000000D02*
X133000000Y-62000000D01*
X130514880Y-62200000D02*
X130714880Y-62000000D01*
X133000000Y-62000000D02*
X142764640Y-62000000D01*
X144764640Y-60000000D02*
X155000000Y-60000000D01*
X142764640Y-62000000D02*
X144764640Y-60000000D01*
X155000000Y-60000000D02*
X160000000Y-60000000D01*
X102540000Y-105775000D02*
X107610400Y-105775000D01*
X110685400Y-102700000D02*
X120000000Y-102700000D01*
X107610400Y-105775000D02*
X110685400Y-102700000D01*
X120000000Y-102700000D02*
X123522560Y-102700000D01*
X124022560Y-102200000D02*
X128000000Y-102200000D01*
X123522560Y-102700000D02*
X124022560Y-102200000D01*
X128000000Y-102200000D02*
X130199840Y-102200000D01*
X130399840Y-102000000D02*
X133000000Y-102000000D01*
X130199840Y-102200000D02*
X130399840Y-102000000D01*
X134300000Y-102000000D02*
X134301320Y-102001320D01*
X133000000Y-102000000D02*
X134300000Y-102000000D01*
X134301320Y-102001320D02*
X142331440Y-102001320D01*
X144332760Y-100000000D02*
X155000000Y-100000000D01*
X142331440Y-102001320D02*
X144332760Y-100000000D01*
X156661700Y-100000000D02*
X160000000Y-100000000D01*
X155000000Y-100000000D02*
X156661700Y-100000000D01*
D29*
X9540000Y-60302944D02*
X9540240Y-60302704D01*
X9540000Y-62000000D02*
X9540000Y-60302944D01*
X9540240Y-60302704D02*
X9540240Y-51795680D01*
X11335920Y-50000000D02*
X22850000Y-50000000D01*
X9540240Y-51795680D02*
X11335920Y-50000000D01*
X9540000Y-62000000D02*
X9540000Y-64480200D01*
X11059800Y-66000000D02*
X22850000Y-66000000D01*
X9540000Y-64480200D02*
X11059800Y-66000000D01*
X9540000Y-96302944D02*
X9555480Y-96287464D01*
X9540000Y-98000000D02*
X9540000Y-96302944D01*
X9555480Y-96287464D02*
X9555480Y-95524320D01*
X11079800Y-94000000D02*
X22850000Y-94000000D01*
X9555480Y-95524320D02*
X11079800Y-94000000D01*
X9540000Y-99697056D02*
X9525000Y-99712056D01*
X9540000Y-98000000D02*
X9540000Y-99697056D01*
X9525000Y-99712056D02*
X9525000Y-108346240D01*
X11178760Y-110000000D02*
X22850000Y-110000000D01*
X9525000Y-108346240D02*
X11178760Y-110000000D01*
X22850000Y-102000000D02*
X19813320Y-102000000D01*
X19813320Y-102000000D02*
X19812000Y-102001320D01*
X22850000Y-58000000D02*
X19830680Y-58000000D01*
X19830680Y-58000000D02*
X19817080Y-58013600D01*
X22850000Y-75950000D02*
X22850000Y-74000000D01*
X18800000Y-80000000D02*
X22850000Y-75950000D01*
X9540000Y-80000000D02*
X18800000Y-80000000D01*
X22850000Y-84050000D02*
X22850000Y-86000000D01*
X18800000Y-80000000D02*
X22850000Y-84050000D01*
D30*
X171000000Y-45000000D02*
X167000000Y-45000000D01*
X171000000Y-68000000D02*
X167000000Y-68000000D01*
X171000000Y-92000000D02*
X167000000Y-92000000D01*
D31*
X4460000Y-21378200D02*
X9540000Y-21378200D01*
X9540000Y-21378200D02*
X9540000Y-26378200D01*
X9540000Y-26378200D02*
X4460000Y-26378200D01*
X4460000Y-26378200D02*
X4460000Y-21378200D01*
D30*
X170000000Y-36000000D02*
X175000000Y-36000000D01*
X175000000Y-37661700D02*
X175000000Y-45000000D01*
X175000000Y-36000000D02*
X175000000Y-37661700D01*
X183769000Y-54864000D02*
X188087000Y-54864000D01*
X181356000Y-52451000D02*
X183769000Y-54864000D01*
X181356000Y-38227000D02*
X181356000Y-52451000D01*
X175000000Y-36000000D02*
X179129000Y-36000000D01*
X179129000Y-36000000D02*
X181356000Y-38227000D01*
X171661700Y-60000000D02*
X175000000Y-60000000D01*
X170000000Y-60000000D02*
X171661700Y-60000000D01*
X175000000Y-61661700D02*
X175000000Y-68000000D01*
X175000000Y-60000000D02*
X175000000Y-61661700D01*
X188031000Y-60000000D02*
X188087000Y-59944000D01*
X175000000Y-60000000D02*
X188031000Y-60000000D01*
X170000000Y-100000000D02*
X175000000Y-100000000D01*
X175000000Y-100000000D02*
X175000000Y-92000000D01*
X180594000Y-97663000D02*
X180594000Y-72644000D01*
X183134000Y-70104000D02*
X188087000Y-70104000D01*
X175000000Y-100000000D02*
X178257000Y-100000000D01*
X180594000Y-72644000D02*
X183134000Y-70104000D01*
X178257000Y-100000000D02*
X180594000Y-97663000D01*
D32*
G36*
X106617269Y-10375496D02*
G01*
X106780930Y-10425142D01*
X106931752Y-10505758D01*
X107063950Y-10614250D01*
X107172442Y-10746448D01*
X107253058Y-10897270D01*
X107302704Y-11060931D01*
X107320080Y-11237354D01*
X107320080Y-20096086D01*
X107302704Y-20272509D01*
X107253058Y-20436170D01*
X107172442Y-20586992D01*
X107063950Y-20719190D01*
X106931752Y-20827682D01*
X106780930Y-20908298D01*
X106617269Y-20957944D01*
X106440846Y-20975320D01*
X93457154Y-20975320D01*
X93280731Y-20957944D01*
X93117070Y-20908298D01*
X92966248Y-20827682D01*
X92834050Y-20719190D01*
X92725558Y-20586992D01*
X92644942Y-20436170D01*
X92595296Y-20272509D01*
X92577920Y-20096086D01*
X92577920Y-11237354D01*
X92595296Y-11060931D01*
X92644942Y-10897270D01*
X92725558Y-10746448D01*
X92834050Y-10614250D01*
X92966248Y-10505758D01*
X93117070Y-10425142D01*
X93280731Y-10375496D01*
X93457154Y-10358120D01*
X106440846Y-10358120D01*
X106617269Y-10375496D01*
G37*
X106617269Y-10375496D02*
X106780930Y-10425142D01*
X106931752Y-10505758D01*
X107063950Y-10614250D01*
X107172442Y-10746448D01*
X107253058Y-10897270D01*
X107302704Y-11060931D01*
X107320080Y-11237354D01*
X107320080Y-20096086D01*
X107302704Y-20272509D01*
X107253058Y-20436170D01*
X107172442Y-20586992D01*
X107063950Y-20719190D01*
X106931752Y-20827682D01*
X106780930Y-20908298D01*
X106617269Y-20957944D01*
X106440846Y-20975320D01*
X93457154Y-20975320D01*
X93280731Y-20957944D01*
X93117070Y-20908298D01*
X92966248Y-20827682D01*
X92834050Y-20719190D01*
X92725558Y-20586992D01*
X92644942Y-20436170D01*
X92595296Y-20272509D01*
X92577920Y-20096086D01*
X92577920Y-11237354D01*
X92595296Y-11060931D01*
X92644942Y-10897270D01*
X92725558Y-10746448D01*
X92834050Y-10614250D01*
X92966248Y-10505758D01*
X93117070Y-10425142D01*
X93280731Y-10375496D01*
X93457154Y-10358120D01*
X106440846Y-10358120D01*
X106617269Y-10375496D01*
G36*
X147470629Y-10243416D02*
G01*
X147634290Y-10293062D01*
X147785112Y-10373678D01*
X147917310Y-10482170D01*
X148025802Y-10614368D01*
X148106418Y-10765190D01*
X148156064Y-10928851D01*
X148173440Y-11105274D01*
X148173440Y-20121486D01*
X148156064Y-20297909D01*
X148106418Y-20461570D01*
X148025802Y-20612392D01*
X147917310Y-20744590D01*
X147785112Y-20853082D01*
X147634290Y-20933698D01*
X147470629Y-20983344D01*
X147294206Y-21000720D01*
X133218314Y-21000720D01*
X133041891Y-20983344D01*
X132878230Y-20933698D01*
X132727408Y-20853082D01*
X132595210Y-20744590D01*
X132486718Y-20612392D01*
X132406102Y-20461570D01*
X132356456Y-20297909D01*
X132339080Y-20121486D01*
X132339080Y-11105274D01*
X132356456Y-10928851D01*
X132406102Y-10765190D01*
X132486718Y-10614368D01*
X132595210Y-10482170D01*
X132727408Y-10373678D01*
X132878230Y-10293062D01*
X133041891Y-10243416D01*
X133218314Y-10226040D01*
X147294206Y-10226040D01*
X147470629Y-10243416D01*
G37*
X147470629Y-10243416D02*
X147634290Y-10293062D01*
X147785112Y-10373678D01*
X147917310Y-10482170D01*
X148025802Y-10614368D01*
X148106418Y-10765190D01*
X148156064Y-10928851D01*
X148173440Y-11105274D01*
X148173440Y-20121486D01*
X148156064Y-20297909D01*
X148106418Y-20461570D01*
X148025802Y-20612392D01*
X147917310Y-20744590D01*
X147785112Y-20853082D01*
X147634290Y-20933698D01*
X147470629Y-20983344D01*
X147294206Y-21000720D01*
X133218314Y-21000720D01*
X133041891Y-20983344D01*
X132878230Y-20933698D01*
X132727408Y-20853082D01*
X132595210Y-20744590D01*
X132486718Y-20612392D01*
X132406102Y-20461570D01*
X132356456Y-20297909D01*
X132339080Y-20121486D01*
X132339080Y-11105274D01*
X132356456Y-10928851D01*
X132406102Y-10765190D01*
X132486718Y-10614368D01*
X132595210Y-10482170D01*
X132727408Y-10373678D01*
X132878230Y-10293062D01*
X133041891Y-10243416D01*
X133218314Y-10226040D01*
X147294206Y-10226040D01*
X147470629Y-10243416D01*
G36*
X107338629Y-50228096D02*
G01*
X107502290Y-50277742D01*
X107653112Y-50358358D01*
X107785310Y-50466850D01*
X107893802Y-50599048D01*
X107974418Y-50749870D01*
X108024064Y-50913531D01*
X108041440Y-51089954D01*
X108041440Y-60106166D01*
X108024064Y-60282589D01*
X107974418Y-60446250D01*
X107893802Y-60597072D01*
X107785310Y-60729270D01*
X107653112Y-60837762D01*
X107502290Y-60918378D01*
X107338629Y-60968024D01*
X107162206Y-60985400D01*
X93086314Y-60985400D01*
X92909891Y-60968024D01*
X92746230Y-60918378D01*
X92595408Y-60837762D01*
X92463210Y-60729270D01*
X92354718Y-60597072D01*
X92274102Y-60446250D01*
X92224456Y-60282589D01*
X92207080Y-60106166D01*
X92207080Y-51089954D01*
X92224456Y-50913531D01*
X92274102Y-50749870D01*
X92354718Y-50599048D01*
X92463210Y-50466850D01*
X92595408Y-50358358D01*
X92746230Y-50277742D01*
X92909891Y-50228096D01*
X93086314Y-50210720D01*
X107162206Y-50210720D01*
X107338629Y-50228096D01*
G37*
X107338629Y-50228096D02*
X107502290Y-50277742D01*
X107653112Y-50358358D01*
X107785310Y-50466850D01*
X107893802Y-50599048D01*
X107974418Y-50749870D01*
X108024064Y-50913531D01*
X108041440Y-51089954D01*
X108041440Y-60106166D01*
X108024064Y-60282589D01*
X107974418Y-60446250D01*
X107893802Y-60597072D01*
X107785310Y-60729270D01*
X107653112Y-60837762D01*
X107502290Y-60918378D01*
X107338629Y-60968024D01*
X107162206Y-60985400D01*
X93086314Y-60985400D01*
X92909891Y-60968024D01*
X92746230Y-60918378D01*
X92595408Y-60837762D01*
X92463210Y-60729270D01*
X92354718Y-60597072D01*
X92274102Y-60446250D01*
X92224456Y-60282589D01*
X92207080Y-60106166D01*
X92207080Y-51089954D01*
X92224456Y-50913531D01*
X92274102Y-50749870D01*
X92354718Y-50599048D01*
X92463210Y-50466850D01*
X92595408Y-50358358D01*
X92746230Y-50277742D01*
X92909891Y-50228096D01*
X93086314Y-50210720D01*
X107162206Y-50210720D01*
X107338629Y-50228096D01*
G36*
X134928109Y-67032736D02*
G01*
X135091770Y-67082382D01*
X135242592Y-67162998D01*
X135374790Y-67271490D01*
X135483282Y-67403688D01*
X135563898Y-67554510D01*
X135613544Y-67718171D01*
X135630920Y-67894594D01*
X135630920Y-91932366D01*
X135613544Y-92108789D01*
X135563898Y-92272450D01*
X135483282Y-92423272D01*
X135374790Y-92555470D01*
X135242592Y-92663962D01*
X135091770Y-92744578D01*
X134928109Y-92794224D01*
X134751686Y-92811600D01*
X115381280Y-92811600D01*
X115368832Y-92812212D01*
X115173742Y-92831427D01*
X115149324Y-92836283D01*
X114961731Y-92893188D01*
X114938730Y-92902716D01*
X114765843Y-92995126D01*
X114745142Y-93008958D01*
X114593605Y-93133321D01*
X114576001Y-93150925D01*
X114451638Y-93302462D01*
X114437806Y-93323163D01*
X114345396Y-93496050D01*
X114335868Y-93519051D01*
X114278963Y-93706644D01*
X114274107Y-93731062D01*
X114254892Y-93926152D01*
X114254280Y-93938600D01*
X114254280Y-100309286D01*
X114236904Y-100485709D01*
X114187258Y-100649370D01*
X114106642Y-100800192D01*
X113998150Y-100932390D01*
X113865952Y-101040882D01*
X113715130Y-101121498D01*
X113551469Y-101171144D01*
X113375046Y-101188520D01*
X89626834Y-101188520D01*
X89450411Y-101171144D01*
X89286750Y-101121498D01*
X89135928Y-101040882D01*
X89003730Y-100932390D01*
X88895238Y-100800192D01*
X88814622Y-100649370D01*
X88764976Y-100485709D01*
X88747600Y-100309286D01*
X88747600Y-95000320D01*
X88746988Y-94987872D01*
X88727773Y-94792782D01*
X88722917Y-94768364D01*
X88666012Y-94580771D01*
X88656484Y-94557770D01*
X88564074Y-94384883D01*
X88550242Y-94364182D01*
X88425879Y-94212645D01*
X88408275Y-94195041D01*
X88256738Y-94070678D01*
X88236037Y-94056846D01*
X88063150Y-93964436D01*
X88040149Y-93954908D01*
X87852556Y-93898003D01*
X87828138Y-93893147D01*
X87633048Y-93873932D01*
X87620600Y-93873320D01*
X77374633Y-93873320D01*
X77198114Y-93855926D01*
X77034394Y-93806237D01*
X76883514Y-93725544D01*
X76751289Y-93616958D01*
X76642802Y-93484652D01*
X76562223Y-93333713D01*
X76512656Y-93169952D01*
X76495395Y-92993425D01*
X76514206Y-67893945D01*
X76531700Y-67717604D01*
X76581420Y-67554058D01*
X76662075Y-67403350D01*
X76770572Y-67271259D01*
X76902745Y-67162860D01*
X77053516Y-67082317D01*
X77217094Y-67032720D01*
X77393446Y-67015360D01*
X134751686Y-67015360D01*
X134928109Y-67032736D01*
G37*
X134928109Y-67032736D02*
X135091770Y-67082382D01*
X135242592Y-67162998D01*
X135374790Y-67271490D01*
X135483282Y-67403688D01*
X135563898Y-67554510D01*
X135613544Y-67718171D01*
X135630920Y-67894594D01*
X135630920Y-91932366D01*
X135613544Y-92108789D01*
X135563898Y-92272450D01*
X135483282Y-92423272D01*
X135374790Y-92555470D01*
X135242592Y-92663962D01*
X135091770Y-92744578D01*
X134928109Y-92794224D01*
X134751686Y-92811600D01*
X115381280Y-92811600D01*
X115368832Y-92812212D01*
X115173742Y-92831427D01*
X115149324Y-92836283D01*
X114961731Y-92893188D01*
X114938730Y-92902716D01*
X114765843Y-92995126D01*
X114745142Y-93008958D01*
X114593605Y-93133321D01*
X114576001Y-93150925D01*
X114451638Y-93302462D01*
X114437806Y-93323163D01*
X114345396Y-93496050D01*
X114335868Y-93519051D01*
X114278963Y-93706644D01*
X114274107Y-93731062D01*
X114254892Y-93926152D01*
X114254280Y-93938600D01*
X114254280Y-100309286D01*
X114236904Y-100485709D01*
X114187258Y-100649370D01*
X114106642Y-100800192D01*
X113998150Y-100932390D01*
X113865952Y-101040882D01*
X113715130Y-101121498D01*
X113551469Y-101171144D01*
X113375046Y-101188520D01*
X89626834Y-101188520D01*
X89450411Y-101171144D01*
X89286750Y-101121498D01*
X89135928Y-101040882D01*
X89003730Y-100932390D01*
X88895238Y-100800192D01*
X88814622Y-100649370D01*
X88764976Y-100485709D01*
X88747600Y-100309286D01*
X88747600Y-95000320D01*
X88746988Y-94987872D01*
X88727773Y-94792782D01*
X88722917Y-94768364D01*
X88666012Y-94580771D01*
X88656484Y-94557770D01*
X88564074Y-94384883D01*
X88550242Y-94364182D01*
X88425879Y-94212645D01*
X88408275Y-94195041D01*
X88256738Y-94070678D01*
X88236037Y-94056846D01*
X88063150Y-93964436D01*
X88040149Y-93954908D01*
X87852556Y-93898003D01*
X87828138Y-93893147D01*
X87633048Y-93873932D01*
X87620600Y-93873320D01*
X77374633Y-93873320D01*
X77198114Y-93855926D01*
X77034394Y-93806237D01*
X76883514Y-93725544D01*
X76751289Y-93616958D01*
X76642802Y-93484652D01*
X76562223Y-93333713D01*
X76512656Y-93169952D01*
X76495395Y-92993425D01*
X76514206Y-67893945D01*
X76531700Y-67717604D01*
X76581420Y-67554058D01*
X76662075Y-67403350D01*
X76770572Y-67271259D01*
X76902745Y-67162860D01*
X77053516Y-67082317D01*
X77217094Y-67032720D01*
X77393446Y-67015360D01*
X134751686Y-67015360D01*
X134928109Y-67032736D01*
M02*
