G04 #@! TF.GenerationSoftware,KiCad,Pcbnew,9.0.0*
G04 #@! TF.CreationDate,2025-02-23T15:52:22-07:00*
G04 #@! TF.ProjectId,Power_Supply,506f7765-725f-4537-9570-706c792e6b69,rev?*
G04 #@! TF.SameCoordinates,Original*
G04 #@! TF.FileFunction,Legend,Top*
G04 #@! TF.FilePolarity,Positive*
%FSLAX46Y46*%
G04 Gerber Fmt 4.6, Leading zero omitted, Abs format (unit mm)*
G04 Created by KiCad (PCBNEW 9.0.0) date 2025-02-23 15:52:22*
%MOMM*%
%LPD*%
G01*
G04 APERTURE LIST*
%ADD10C,0.150000*%
%ADD11C,0.120000*%
G04 APERTURE END LIST*
D10*
X151973094Y-53971914D02*
X152068332Y-53876676D01*
X152068332Y-53876676D02*
X152258808Y-53781438D01*
X152258808Y-53781438D02*
X152734999Y-53781438D01*
X152734999Y-53781438D02*
X152925475Y-53876676D01*
X152925475Y-53876676D02*
X153020713Y-53971914D01*
X153020713Y-53971914D02*
X153115951Y-54162390D01*
X153115951Y-54162390D02*
X153115951Y-54352866D01*
X153115951Y-54352866D02*
X153020713Y-54638580D01*
X153020713Y-54638580D02*
X151877856Y-55781438D01*
X151877856Y-55781438D02*
X153115951Y-55781438D01*
X154925475Y-53781438D02*
X153973094Y-53781438D01*
X153973094Y-53781438D02*
X153877856Y-54733819D01*
X153877856Y-54733819D02*
X153973094Y-54638580D01*
X153973094Y-54638580D02*
X154163570Y-54543342D01*
X154163570Y-54543342D02*
X154639761Y-54543342D01*
X154639761Y-54543342D02*
X154830237Y-54638580D01*
X154830237Y-54638580D02*
X154925475Y-54733819D01*
X154925475Y-54733819D02*
X155020713Y-54924295D01*
X155020713Y-54924295D02*
X155020713Y-55400485D01*
X155020713Y-55400485D02*
X154925475Y-55590961D01*
X154925475Y-55590961D02*
X154830237Y-55686200D01*
X154830237Y-55686200D02*
X154639761Y-55781438D01*
X154639761Y-55781438D02*
X154163570Y-55781438D01*
X154163570Y-55781438D02*
X153973094Y-55686200D01*
X153973094Y-55686200D02*
X153877856Y-55590961D01*
X156258808Y-53781438D02*
X156449285Y-53781438D01*
X156449285Y-53781438D02*
X156639761Y-53876676D01*
X156639761Y-53876676D02*
X156734999Y-53971914D01*
X156734999Y-53971914D02*
X156830237Y-54162390D01*
X156830237Y-54162390D02*
X156925475Y-54543342D01*
X156925475Y-54543342D02*
X156925475Y-55019533D01*
X156925475Y-55019533D02*
X156830237Y-55400485D01*
X156830237Y-55400485D02*
X156734999Y-55590961D01*
X156734999Y-55590961D02*
X156639761Y-55686200D01*
X156639761Y-55686200D02*
X156449285Y-55781438D01*
X156449285Y-55781438D02*
X156258808Y-55781438D01*
X156258808Y-55781438D02*
X156068332Y-55686200D01*
X156068332Y-55686200D02*
X155973094Y-55590961D01*
X155973094Y-55590961D02*
X155877856Y-55400485D01*
X155877856Y-55400485D02*
X155782618Y-55019533D01*
X155782618Y-55019533D02*
X155782618Y-54543342D01*
X155782618Y-54543342D02*
X155877856Y-54162390D01*
X155877856Y-54162390D02*
X155973094Y-53971914D01*
X155973094Y-53971914D02*
X156068332Y-53876676D01*
X156068332Y-53876676D02*
X156258808Y-53781438D01*
X157496904Y-53781438D02*
X158163570Y-55781438D01*
X158163570Y-55781438D02*
X158830237Y-53781438D01*
X162068333Y-55781438D02*
X160925476Y-55781438D01*
X161496904Y-55781438D02*
X161496904Y-53781438D01*
X161496904Y-53781438D02*
X161306428Y-54067152D01*
X161306428Y-54067152D02*
X161115952Y-54257628D01*
X161115952Y-54257628D02*
X160925476Y-54352866D01*
X162830238Y-55210009D02*
X163782619Y-55210009D01*
X162639762Y-55781438D02*
X163306428Y-53781438D01*
X163306428Y-53781438D02*
X163973095Y-55781438D01*
X166068334Y-55686200D02*
X166354048Y-55781438D01*
X166354048Y-55781438D02*
X166830239Y-55781438D01*
X166830239Y-55781438D02*
X167020715Y-55686200D01*
X167020715Y-55686200D02*
X167115953Y-55590961D01*
X167115953Y-55590961D02*
X167211191Y-55400485D01*
X167211191Y-55400485D02*
X167211191Y-55210009D01*
X167211191Y-55210009D02*
X167115953Y-55019533D01*
X167115953Y-55019533D02*
X167020715Y-54924295D01*
X167020715Y-54924295D02*
X166830239Y-54829057D01*
X166830239Y-54829057D02*
X166449286Y-54733819D01*
X166449286Y-54733819D02*
X166258810Y-54638580D01*
X166258810Y-54638580D02*
X166163572Y-54543342D01*
X166163572Y-54543342D02*
X166068334Y-54352866D01*
X166068334Y-54352866D02*
X166068334Y-54162390D01*
X166068334Y-54162390D02*
X166163572Y-53971914D01*
X166163572Y-53971914D02*
X166258810Y-53876676D01*
X166258810Y-53876676D02*
X166449286Y-53781438D01*
X166449286Y-53781438D02*
X166925477Y-53781438D01*
X166925477Y-53781438D02*
X167211191Y-53876676D01*
X168354048Y-55781438D02*
X168163572Y-55686200D01*
X168163572Y-55686200D02*
X168068334Y-55495723D01*
X168068334Y-55495723D02*
X168068334Y-53781438D01*
X169401667Y-55781438D02*
X169211191Y-55686200D01*
X169211191Y-55686200D02*
X169115953Y-55590961D01*
X169115953Y-55590961D02*
X169020715Y-55400485D01*
X169020715Y-55400485D02*
X169020715Y-54829057D01*
X169020715Y-54829057D02*
X169115953Y-54638580D01*
X169115953Y-54638580D02*
X169211191Y-54543342D01*
X169211191Y-54543342D02*
X169401667Y-54448104D01*
X169401667Y-54448104D02*
X169687382Y-54448104D01*
X169687382Y-54448104D02*
X169877858Y-54543342D01*
X169877858Y-54543342D02*
X169973096Y-54638580D01*
X169973096Y-54638580D02*
X170068334Y-54829057D01*
X170068334Y-54829057D02*
X170068334Y-55400485D01*
X170068334Y-55400485D02*
X169973096Y-55590961D01*
X169973096Y-55590961D02*
X169877858Y-55686200D01*
X169877858Y-55686200D02*
X169687382Y-55781438D01*
X169687382Y-55781438D02*
X169401667Y-55781438D01*
X170925477Y-55019533D02*
X172449287Y-55019533D01*
X174068334Y-54733819D02*
X174354048Y-54829057D01*
X174354048Y-54829057D02*
X174449286Y-54924295D01*
X174449286Y-54924295D02*
X174544524Y-55114771D01*
X174544524Y-55114771D02*
X174544524Y-55400485D01*
X174544524Y-55400485D02*
X174449286Y-55590961D01*
X174449286Y-55590961D02*
X174354048Y-55686200D01*
X174354048Y-55686200D02*
X174163572Y-55781438D01*
X174163572Y-55781438D02*
X173401667Y-55781438D01*
X173401667Y-55781438D02*
X173401667Y-53781438D01*
X173401667Y-53781438D02*
X174068334Y-53781438D01*
X174068334Y-53781438D02*
X174258810Y-53876676D01*
X174258810Y-53876676D02*
X174354048Y-53971914D01*
X174354048Y-53971914D02*
X174449286Y-54162390D01*
X174449286Y-54162390D02*
X174449286Y-54352866D01*
X174449286Y-54352866D02*
X174354048Y-54543342D01*
X174354048Y-54543342D02*
X174258810Y-54638580D01*
X174258810Y-54638580D02*
X174068334Y-54733819D01*
X174068334Y-54733819D02*
X173401667Y-54733819D01*
X175687381Y-55781438D02*
X175496905Y-55686200D01*
X175496905Y-55686200D02*
X175401667Y-55495723D01*
X175401667Y-55495723D02*
X175401667Y-53781438D01*
X176735000Y-55781438D02*
X176544524Y-55686200D01*
X176544524Y-55686200D02*
X176449286Y-55590961D01*
X176449286Y-55590961D02*
X176354048Y-55400485D01*
X176354048Y-55400485D02*
X176354048Y-54829057D01*
X176354048Y-54829057D02*
X176449286Y-54638580D01*
X176449286Y-54638580D02*
X176544524Y-54543342D01*
X176544524Y-54543342D02*
X176735000Y-54448104D01*
X176735000Y-54448104D02*
X177020715Y-54448104D01*
X177020715Y-54448104D02*
X177211191Y-54543342D01*
X177211191Y-54543342D02*
X177306429Y-54638580D01*
X177306429Y-54638580D02*
X177401667Y-54829057D01*
X177401667Y-54829057D02*
X177401667Y-55400485D01*
X177401667Y-55400485D02*
X177306429Y-55590961D01*
X177306429Y-55590961D02*
X177211191Y-55686200D01*
X177211191Y-55686200D02*
X177020715Y-55781438D01*
X177020715Y-55781438D02*
X176735000Y-55781438D01*
X178068334Y-54448104D02*
X178449286Y-55781438D01*
X178449286Y-55781438D02*
X178830239Y-54829057D01*
X178830239Y-54829057D02*
X179211191Y-55781438D01*
X179211191Y-55781438D02*
X179592143Y-54448104D01*
X151973094Y-104644914D02*
X152068332Y-104549676D01*
X152068332Y-104549676D02*
X152258808Y-104454438D01*
X152258808Y-104454438D02*
X152734999Y-104454438D01*
X152734999Y-104454438D02*
X152925475Y-104549676D01*
X152925475Y-104549676D02*
X153020713Y-104644914D01*
X153020713Y-104644914D02*
X153115951Y-104835390D01*
X153115951Y-104835390D02*
X153115951Y-105025866D01*
X153115951Y-105025866D02*
X153020713Y-105311580D01*
X153020713Y-105311580D02*
X151877856Y-106454438D01*
X151877856Y-106454438D02*
X153115951Y-106454438D01*
X154925475Y-104454438D02*
X153973094Y-104454438D01*
X153973094Y-104454438D02*
X153877856Y-105406819D01*
X153877856Y-105406819D02*
X153973094Y-105311580D01*
X153973094Y-105311580D02*
X154163570Y-105216342D01*
X154163570Y-105216342D02*
X154639761Y-105216342D01*
X154639761Y-105216342D02*
X154830237Y-105311580D01*
X154830237Y-105311580D02*
X154925475Y-105406819D01*
X154925475Y-105406819D02*
X155020713Y-105597295D01*
X155020713Y-105597295D02*
X155020713Y-106073485D01*
X155020713Y-106073485D02*
X154925475Y-106263961D01*
X154925475Y-106263961D02*
X154830237Y-106359200D01*
X154830237Y-106359200D02*
X154639761Y-106454438D01*
X154639761Y-106454438D02*
X154163570Y-106454438D01*
X154163570Y-106454438D02*
X153973094Y-106359200D01*
X153973094Y-106359200D02*
X153877856Y-106263961D01*
X156258808Y-104454438D02*
X156449285Y-104454438D01*
X156449285Y-104454438D02*
X156639761Y-104549676D01*
X156639761Y-104549676D02*
X156734999Y-104644914D01*
X156734999Y-104644914D02*
X156830237Y-104835390D01*
X156830237Y-104835390D02*
X156925475Y-105216342D01*
X156925475Y-105216342D02*
X156925475Y-105692533D01*
X156925475Y-105692533D02*
X156830237Y-106073485D01*
X156830237Y-106073485D02*
X156734999Y-106263961D01*
X156734999Y-106263961D02*
X156639761Y-106359200D01*
X156639761Y-106359200D02*
X156449285Y-106454438D01*
X156449285Y-106454438D02*
X156258808Y-106454438D01*
X156258808Y-106454438D02*
X156068332Y-106359200D01*
X156068332Y-106359200D02*
X155973094Y-106263961D01*
X155973094Y-106263961D02*
X155877856Y-106073485D01*
X155877856Y-106073485D02*
X155782618Y-105692533D01*
X155782618Y-105692533D02*
X155782618Y-105216342D01*
X155782618Y-105216342D02*
X155877856Y-104835390D01*
X155877856Y-104835390D02*
X155973094Y-104644914D01*
X155973094Y-104644914D02*
X156068332Y-104549676D01*
X156068332Y-104549676D02*
X156258808Y-104454438D01*
X157496904Y-104454438D02*
X158163570Y-106454438D01*
X158163570Y-106454438D02*
X158830237Y-104454438D01*
X162068333Y-106454438D02*
X160925476Y-106454438D01*
X161496904Y-106454438D02*
X161496904Y-104454438D01*
X161496904Y-104454438D02*
X161306428Y-104740152D01*
X161306428Y-104740152D02*
X161115952Y-104930628D01*
X161115952Y-104930628D02*
X160925476Y-105025866D01*
X162830238Y-105883009D02*
X163782619Y-105883009D01*
X162639762Y-106454438D02*
X163306428Y-104454438D01*
X163306428Y-104454438D02*
X163973095Y-106454438D01*
X166068334Y-106359200D02*
X166354048Y-106454438D01*
X166354048Y-106454438D02*
X166830239Y-106454438D01*
X166830239Y-106454438D02*
X167020715Y-106359200D01*
X167020715Y-106359200D02*
X167115953Y-106263961D01*
X167115953Y-106263961D02*
X167211191Y-106073485D01*
X167211191Y-106073485D02*
X167211191Y-105883009D01*
X167211191Y-105883009D02*
X167115953Y-105692533D01*
X167115953Y-105692533D02*
X167020715Y-105597295D01*
X167020715Y-105597295D02*
X166830239Y-105502057D01*
X166830239Y-105502057D02*
X166449286Y-105406819D01*
X166449286Y-105406819D02*
X166258810Y-105311580D01*
X166258810Y-105311580D02*
X166163572Y-105216342D01*
X166163572Y-105216342D02*
X166068334Y-105025866D01*
X166068334Y-105025866D02*
X166068334Y-104835390D01*
X166068334Y-104835390D02*
X166163572Y-104644914D01*
X166163572Y-104644914D02*
X166258810Y-104549676D01*
X166258810Y-104549676D02*
X166449286Y-104454438D01*
X166449286Y-104454438D02*
X166925477Y-104454438D01*
X166925477Y-104454438D02*
X167211191Y-104549676D01*
X168354048Y-106454438D02*
X168163572Y-106359200D01*
X168163572Y-106359200D02*
X168068334Y-106168723D01*
X168068334Y-106168723D02*
X168068334Y-104454438D01*
X169401667Y-106454438D02*
X169211191Y-106359200D01*
X169211191Y-106359200D02*
X169115953Y-106263961D01*
X169115953Y-106263961D02*
X169020715Y-106073485D01*
X169020715Y-106073485D02*
X169020715Y-105502057D01*
X169020715Y-105502057D02*
X169115953Y-105311580D01*
X169115953Y-105311580D02*
X169211191Y-105216342D01*
X169211191Y-105216342D02*
X169401667Y-105121104D01*
X169401667Y-105121104D02*
X169687382Y-105121104D01*
X169687382Y-105121104D02*
X169877858Y-105216342D01*
X169877858Y-105216342D02*
X169973096Y-105311580D01*
X169973096Y-105311580D02*
X170068334Y-105502057D01*
X170068334Y-105502057D02*
X170068334Y-106073485D01*
X170068334Y-106073485D02*
X169973096Y-106263961D01*
X169973096Y-106263961D02*
X169877858Y-106359200D01*
X169877858Y-106359200D02*
X169687382Y-106454438D01*
X169687382Y-106454438D02*
X169401667Y-106454438D01*
X170925477Y-105692533D02*
X172449287Y-105692533D01*
X174068334Y-105406819D02*
X174354048Y-105502057D01*
X174354048Y-105502057D02*
X174449286Y-105597295D01*
X174449286Y-105597295D02*
X174544524Y-105787771D01*
X174544524Y-105787771D02*
X174544524Y-106073485D01*
X174544524Y-106073485D02*
X174449286Y-106263961D01*
X174449286Y-106263961D02*
X174354048Y-106359200D01*
X174354048Y-106359200D02*
X174163572Y-106454438D01*
X174163572Y-106454438D02*
X173401667Y-106454438D01*
X173401667Y-106454438D02*
X173401667Y-104454438D01*
X173401667Y-104454438D02*
X174068334Y-104454438D01*
X174068334Y-104454438D02*
X174258810Y-104549676D01*
X174258810Y-104549676D02*
X174354048Y-104644914D01*
X174354048Y-104644914D02*
X174449286Y-104835390D01*
X174449286Y-104835390D02*
X174449286Y-105025866D01*
X174449286Y-105025866D02*
X174354048Y-105216342D01*
X174354048Y-105216342D02*
X174258810Y-105311580D01*
X174258810Y-105311580D02*
X174068334Y-105406819D01*
X174068334Y-105406819D02*
X173401667Y-105406819D01*
X175687381Y-106454438D02*
X175496905Y-106359200D01*
X175496905Y-106359200D02*
X175401667Y-106168723D01*
X175401667Y-106168723D02*
X175401667Y-104454438D01*
X176735000Y-106454438D02*
X176544524Y-106359200D01*
X176544524Y-106359200D02*
X176449286Y-106263961D01*
X176449286Y-106263961D02*
X176354048Y-106073485D01*
X176354048Y-106073485D02*
X176354048Y-105502057D01*
X176354048Y-105502057D02*
X176449286Y-105311580D01*
X176449286Y-105311580D02*
X176544524Y-105216342D01*
X176544524Y-105216342D02*
X176735000Y-105121104D01*
X176735000Y-105121104D02*
X177020715Y-105121104D01*
X177020715Y-105121104D02*
X177211191Y-105216342D01*
X177211191Y-105216342D02*
X177306429Y-105311580D01*
X177306429Y-105311580D02*
X177401667Y-105502057D01*
X177401667Y-105502057D02*
X177401667Y-106073485D01*
X177401667Y-106073485D02*
X177306429Y-106263961D01*
X177306429Y-106263961D02*
X177211191Y-106359200D01*
X177211191Y-106359200D02*
X177020715Y-106454438D01*
X177020715Y-106454438D02*
X176735000Y-106454438D01*
X178068334Y-105121104D02*
X178449286Y-106454438D01*
X178449286Y-106454438D02*
X178830239Y-105502057D01*
X178830239Y-105502057D02*
X179211191Y-106454438D01*
X179211191Y-106454438D02*
X179592143Y-105121104D01*
X162656285Y-72754200D02*
X164942000Y-72754200D01*
X163799142Y-73897057D02*
X163799142Y-71611342D01*
X167942000Y-73897057D02*
X166227714Y-73897057D01*
X167084857Y-73897057D02*
X167084857Y-70897057D01*
X167084857Y-70897057D02*
X166799143Y-71325628D01*
X166799143Y-71325628D02*
X166513428Y-71611342D01*
X166513428Y-71611342D02*
X166227714Y-71754200D01*
X169084857Y-71182771D02*
X169227714Y-71039914D01*
X169227714Y-71039914D02*
X169513429Y-70897057D01*
X169513429Y-70897057D02*
X170227714Y-70897057D01*
X170227714Y-70897057D02*
X170513429Y-71039914D01*
X170513429Y-71039914D02*
X170656286Y-71182771D01*
X170656286Y-71182771D02*
X170799143Y-71468485D01*
X170799143Y-71468485D02*
X170799143Y-71754200D01*
X170799143Y-71754200D02*
X170656286Y-72182771D01*
X170656286Y-72182771D02*
X168942000Y-73897057D01*
X168942000Y-73897057D02*
X170799143Y-73897057D01*
X171656286Y-70897057D02*
X172656286Y-73897057D01*
X172656286Y-73897057D02*
X173656286Y-70897057D01*
X174656286Y-73897057D02*
X174656286Y-70897057D01*
X174656286Y-70897057D02*
X175370572Y-70897057D01*
X175370572Y-70897057D02*
X175799143Y-71039914D01*
X175799143Y-71039914D02*
X176084858Y-71325628D01*
X176084858Y-71325628D02*
X176227715Y-71611342D01*
X176227715Y-71611342D02*
X176370572Y-72182771D01*
X176370572Y-72182771D02*
X176370572Y-72611342D01*
X176370572Y-72611342D02*
X176227715Y-73182771D01*
X176227715Y-73182771D02*
X176084858Y-73468485D01*
X176084858Y-73468485D02*
X175799143Y-73754200D01*
X175799143Y-73754200D02*
X175370572Y-73897057D01*
X175370572Y-73897057D02*
X174656286Y-73897057D01*
X179370572Y-73611342D02*
X179227715Y-73754200D01*
X179227715Y-73754200D02*
X178799143Y-73897057D01*
X178799143Y-73897057D02*
X178513429Y-73897057D01*
X178513429Y-73897057D02*
X178084858Y-73754200D01*
X178084858Y-73754200D02*
X177799143Y-73468485D01*
X177799143Y-73468485D02*
X177656286Y-73182771D01*
X177656286Y-73182771D02*
X177513429Y-72611342D01*
X177513429Y-72611342D02*
X177513429Y-72182771D01*
X177513429Y-72182771D02*
X177656286Y-71611342D01*
X177656286Y-71611342D02*
X177799143Y-71325628D01*
X177799143Y-71325628D02*
X178084858Y-71039914D01*
X178084858Y-71039914D02*
X178513429Y-70897057D01*
X178513429Y-70897057D02*
X178799143Y-70897057D01*
X178799143Y-70897057D02*
X179227715Y-71039914D01*
X179227715Y-71039914D02*
X179370572Y-71182771D01*
X162656285Y-87105200D02*
X164942000Y-87105200D01*
X167942000Y-88248057D02*
X166227714Y-88248057D01*
X167084857Y-88248057D02*
X167084857Y-85248057D01*
X167084857Y-85248057D02*
X166799143Y-85676628D01*
X166799143Y-85676628D02*
X166513428Y-85962342D01*
X166513428Y-85962342D02*
X166227714Y-86105200D01*
X169084857Y-85533771D02*
X169227714Y-85390914D01*
X169227714Y-85390914D02*
X169513429Y-85248057D01*
X169513429Y-85248057D02*
X170227714Y-85248057D01*
X170227714Y-85248057D02*
X170513429Y-85390914D01*
X170513429Y-85390914D02*
X170656286Y-85533771D01*
X170656286Y-85533771D02*
X170799143Y-85819485D01*
X170799143Y-85819485D02*
X170799143Y-86105200D01*
X170799143Y-86105200D02*
X170656286Y-86533771D01*
X170656286Y-86533771D02*
X168942000Y-88248057D01*
X168942000Y-88248057D02*
X170799143Y-88248057D01*
X171656286Y-85248057D02*
X172656286Y-88248057D01*
X172656286Y-88248057D02*
X173656286Y-85248057D01*
X174656286Y-88248057D02*
X174656286Y-85248057D01*
X174656286Y-85248057D02*
X175370572Y-85248057D01*
X175370572Y-85248057D02*
X175799143Y-85390914D01*
X175799143Y-85390914D02*
X176084858Y-85676628D01*
X176084858Y-85676628D02*
X176227715Y-85962342D01*
X176227715Y-85962342D02*
X176370572Y-86533771D01*
X176370572Y-86533771D02*
X176370572Y-86962342D01*
X176370572Y-86962342D02*
X176227715Y-87533771D01*
X176227715Y-87533771D02*
X176084858Y-87819485D01*
X176084858Y-87819485D02*
X175799143Y-88105200D01*
X175799143Y-88105200D02*
X175370572Y-88248057D01*
X175370572Y-88248057D02*
X174656286Y-88248057D01*
X179370572Y-87962342D02*
X179227715Y-88105200D01*
X179227715Y-88105200D02*
X178799143Y-88248057D01*
X178799143Y-88248057D02*
X178513429Y-88248057D01*
X178513429Y-88248057D02*
X178084858Y-88105200D01*
X178084858Y-88105200D02*
X177799143Y-87819485D01*
X177799143Y-87819485D02*
X177656286Y-87533771D01*
X177656286Y-87533771D02*
X177513429Y-86962342D01*
X177513429Y-86962342D02*
X177513429Y-86533771D01*
X177513429Y-86533771D02*
X177656286Y-85962342D01*
X177656286Y-85962342D02*
X177799143Y-85676628D01*
X177799143Y-85676628D02*
X178084858Y-85390914D01*
X178084858Y-85390914D02*
X178513429Y-85248057D01*
X178513429Y-85248057D02*
X178799143Y-85248057D01*
X178799143Y-85248057D02*
X179227715Y-85390914D01*
X179227715Y-85390914D02*
X179370572Y-85533771D01*
X192310095Y-60144866D02*
X193072000Y-60144866D01*
X192691047Y-60525819D02*
X192691047Y-59763914D01*
X194071999Y-60525819D02*
X193500571Y-60525819D01*
X193786285Y-60525819D02*
X193786285Y-59525819D01*
X193786285Y-59525819D02*
X193691047Y-59668676D01*
X193691047Y-59668676D02*
X193595809Y-59763914D01*
X193595809Y-59763914D02*
X193500571Y-59811533D01*
X194452952Y-59621057D02*
X194500571Y-59573438D01*
X194500571Y-59573438D02*
X194595809Y-59525819D01*
X194595809Y-59525819D02*
X194833904Y-59525819D01*
X194833904Y-59525819D02*
X194929142Y-59573438D01*
X194929142Y-59573438D02*
X194976761Y-59621057D01*
X194976761Y-59621057D02*
X195024380Y-59716295D01*
X195024380Y-59716295D02*
X195024380Y-59811533D01*
X195024380Y-59811533D02*
X194976761Y-59954390D01*
X194976761Y-59954390D02*
X194405333Y-60525819D01*
X194405333Y-60525819D02*
X195024380Y-60525819D01*
X195310095Y-59525819D02*
X195643428Y-60525819D01*
X195643428Y-60525819D02*
X195976761Y-59525819D01*
X196310095Y-60525819D02*
X196310095Y-59525819D01*
X196310095Y-59525819D02*
X196548190Y-59525819D01*
X196548190Y-59525819D02*
X196691047Y-59573438D01*
X196691047Y-59573438D02*
X196786285Y-59668676D01*
X196786285Y-59668676D02*
X196833904Y-59763914D01*
X196833904Y-59763914D02*
X196881523Y-59954390D01*
X196881523Y-59954390D02*
X196881523Y-60097247D01*
X196881523Y-60097247D02*
X196833904Y-60287723D01*
X196833904Y-60287723D02*
X196786285Y-60382961D01*
X196786285Y-60382961D02*
X196691047Y-60478200D01*
X196691047Y-60478200D02*
X196548190Y-60525819D01*
X196548190Y-60525819D02*
X196310095Y-60525819D01*
X197881523Y-60430580D02*
X197833904Y-60478200D01*
X197833904Y-60478200D02*
X197691047Y-60525819D01*
X197691047Y-60525819D02*
X197595809Y-60525819D01*
X197595809Y-60525819D02*
X197452952Y-60478200D01*
X197452952Y-60478200D02*
X197357714Y-60382961D01*
X197357714Y-60382961D02*
X197310095Y-60287723D01*
X197310095Y-60287723D02*
X197262476Y-60097247D01*
X197262476Y-60097247D02*
X197262476Y-59954390D01*
X197262476Y-59954390D02*
X197310095Y-59763914D01*
X197310095Y-59763914D02*
X197357714Y-59668676D01*
X197357714Y-59668676D02*
X197452952Y-59573438D01*
X197452952Y-59573438D02*
X197595809Y-59525819D01*
X197595809Y-59525819D02*
X197691047Y-59525819D01*
X197691047Y-59525819D02*
X197833904Y-59573438D01*
X197833904Y-59573438D02*
X197881523Y-59621057D01*
X192310095Y-70177866D02*
X193072000Y-70177866D01*
X194071999Y-70558819D02*
X193500571Y-70558819D01*
X193786285Y-70558819D02*
X193786285Y-69558819D01*
X193786285Y-69558819D02*
X193691047Y-69701676D01*
X193691047Y-69701676D02*
X193595809Y-69796914D01*
X193595809Y-69796914D02*
X193500571Y-69844533D01*
X194452952Y-69654057D02*
X194500571Y-69606438D01*
X194500571Y-69606438D02*
X194595809Y-69558819D01*
X194595809Y-69558819D02*
X194833904Y-69558819D01*
X194833904Y-69558819D02*
X194929142Y-69606438D01*
X194929142Y-69606438D02*
X194976761Y-69654057D01*
X194976761Y-69654057D02*
X195024380Y-69749295D01*
X195024380Y-69749295D02*
X195024380Y-69844533D01*
X195024380Y-69844533D02*
X194976761Y-69987390D01*
X194976761Y-69987390D02*
X194405333Y-70558819D01*
X194405333Y-70558819D02*
X195024380Y-70558819D01*
X195310095Y-69558819D02*
X195643428Y-70558819D01*
X195643428Y-70558819D02*
X195976761Y-69558819D01*
X196310095Y-70558819D02*
X196310095Y-69558819D01*
X196310095Y-69558819D02*
X196548190Y-69558819D01*
X196548190Y-69558819D02*
X196691047Y-69606438D01*
X196691047Y-69606438D02*
X196786285Y-69701676D01*
X196786285Y-69701676D02*
X196833904Y-69796914D01*
X196833904Y-69796914D02*
X196881523Y-69987390D01*
X196881523Y-69987390D02*
X196881523Y-70130247D01*
X196881523Y-70130247D02*
X196833904Y-70320723D01*
X196833904Y-70320723D02*
X196786285Y-70415961D01*
X196786285Y-70415961D02*
X196691047Y-70511200D01*
X196691047Y-70511200D02*
X196548190Y-70558819D01*
X196548190Y-70558819D02*
X196310095Y-70558819D01*
X197881523Y-70463580D02*
X197833904Y-70511200D01*
X197833904Y-70511200D02*
X197691047Y-70558819D01*
X197691047Y-70558819D02*
X197595809Y-70558819D01*
X197595809Y-70558819D02*
X197452952Y-70511200D01*
X197452952Y-70511200D02*
X197357714Y-70415961D01*
X197357714Y-70415961D02*
X197310095Y-70320723D01*
X197310095Y-70320723D02*
X197262476Y-70130247D01*
X197262476Y-70130247D02*
X197262476Y-69987390D01*
X197262476Y-69987390D02*
X197310095Y-69796914D01*
X197310095Y-69796914D02*
X197357714Y-69701676D01*
X197357714Y-69701676D02*
X197452952Y-69606438D01*
X197452952Y-69606438D02*
X197595809Y-69558819D01*
X197595809Y-69558819D02*
X197691047Y-69558819D01*
X197691047Y-69558819D02*
X197833904Y-69606438D01*
X197833904Y-69606438D02*
X197881523Y-69654057D01*
X194310095Y-64399438D02*
X194214857Y-64351819D01*
X194214857Y-64351819D02*
X194072000Y-64351819D01*
X194072000Y-64351819D02*
X193929143Y-64399438D01*
X193929143Y-64399438D02*
X193833905Y-64494676D01*
X193833905Y-64494676D02*
X193786286Y-64589914D01*
X193786286Y-64589914D02*
X193738667Y-64780390D01*
X193738667Y-64780390D02*
X193738667Y-64923247D01*
X193738667Y-64923247D02*
X193786286Y-65113723D01*
X193786286Y-65113723D02*
X193833905Y-65208961D01*
X193833905Y-65208961D02*
X193929143Y-65304200D01*
X193929143Y-65304200D02*
X194072000Y-65351819D01*
X194072000Y-65351819D02*
X194167238Y-65351819D01*
X194167238Y-65351819D02*
X194310095Y-65304200D01*
X194310095Y-65304200D02*
X194357714Y-65256580D01*
X194357714Y-65256580D02*
X194357714Y-64923247D01*
X194357714Y-64923247D02*
X194167238Y-64923247D01*
X194786286Y-65351819D02*
X194786286Y-64351819D01*
X194786286Y-64351819D02*
X195357714Y-65351819D01*
X195357714Y-65351819D02*
X195357714Y-64351819D01*
X195833905Y-65351819D02*
X195833905Y-64351819D01*
X195833905Y-64351819D02*
X196072000Y-64351819D01*
X196072000Y-64351819D02*
X196214857Y-64399438D01*
X196214857Y-64399438D02*
X196310095Y-64494676D01*
X196310095Y-64494676D02*
X196357714Y-64589914D01*
X196357714Y-64589914D02*
X196405333Y-64780390D01*
X196405333Y-64780390D02*
X196405333Y-64923247D01*
X196405333Y-64923247D02*
X196357714Y-65113723D01*
X196357714Y-65113723D02*
X196310095Y-65208961D01*
X196310095Y-65208961D02*
X196214857Y-65304200D01*
X196214857Y-65304200D02*
X196072000Y-65351819D01*
X196072000Y-65351819D02*
X195833905Y-65351819D01*
X3889761Y-93287494D02*
X2746904Y-93287494D01*
X3318332Y-93287494D02*
X3318332Y-91287494D01*
X3318332Y-91287494D02*
X3127856Y-91573208D01*
X3127856Y-91573208D02*
X2937380Y-91763684D01*
X2937380Y-91763684D02*
X2746904Y-91858922D01*
X5032618Y-92144636D02*
X4842142Y-92049398D01*
X4842142Y-92049398D02*
X4746904Y-91954160D01*
X4746904Y-91954160D02*
X4651666Y-91763684D01*
X4651666Y-91763684D02*
X4651666Y-91668446D01*
X4651666Y-91668446D02*
X4746904Y-91477970D01*
X4746904Y-91477970D02*
X4842142Y-91382732D01*
X4842142Y-91382732D02*
X5032618Y-91287494D01*
X5032618Y-91287494D02*
X5413571Y-91287494D01*
X5413571Y-91287494D02*
X5604047Y-91382732D01*
X5604047Y-91382732D02*
X5699285Y-91477970D01*
X5699285Y-91477970D02*
X5794523Y-91668446D01*
X5794523Y-91668446D02*
X5794523Y-91763684D01*
X5794523Y-91763684D02*
X5699285Y-91954160D01*
X5699285Y-91954160D02*
X5604047Y-92049398D01*
X5604047Y-92049398D02*
X5413571Y-92144636D01*
X5413571Y-92144636D02*
X5032618Y-92144636D01*
X5032618Y-92144636D02*
X4842142Y-92239875D01*
X4842142Y-92239875D02*
X4746904Y-92335113D01*
X4746904Y-92335113D02*
X4651666Y-92525589D01*
X4651666Y-92525589D02*
X4651666Y-92906541D01*
X4651666Y-92906541D02*
X4746904Y-93097017D01*
X4746904Y-93097017D02*
X4842142Y-93192256D01*
X4842142Y-93192256D02*
X5032618Y-93287494D01*
X5032618Y-93287494D02*
X5413571Y-93287494D01*
X5413571Y-93287494D02*
X5604047Y-93192256D01*
X5604047Y-93192256D02*
X5699285Y-93097017D01*
X5699285Y-93097017D02*
X5794523Y-92906541D01*
X5794523Y-92906541D02*
X5794523Y-92525589D01*
X5794523Y-92525589D02*
X5699285Y-92335113D01*
X5699285Y-92335113D02*
X5604047Y-92239875D01*
X5604047Y-92239875D02*
X5413571Y-92144636D01*
X6365952Y-91287494D02*
X7032618Y-93287494D01*
X7032618Y-93287494D02*
X7699285Y-91287494D01*
X8270714Y-92716065D02*
X9223095Y-92716065D01*
X8080238Y-93287494D02*
X8746904Y-91287494D01*
X8746904Y-91287494D02*
X9413571Y-93287494D01*
X11223095Y-93097017D02*
X11127857Y-93192256D01*
X11127857Y-93192256D02*
X10842143Y-93287494D01*
X10842143Y-93287494D02*
X10651667Y-93287494D01*
X10651667Y-93287494D02*
X10365952Y-93192256D01*
X10365952Y-93192256D02*
X10175476Y-93001779D01*
X10175476Y-93001779D02*
X10080238Y-92811303D01*
X10080238Y-92811303D02*
X9985000Y-92430351D01*
X9985000Y-92430351D02*
X9985000Y-92144636D01*
X9985000Y-92144636D02*
X10080238Y-91763684D01*
X10080238Y-91763684D02*
X10175476Y-91573208D01*
X10175476Y-91573208D02*
X10365952Y-91382732D01*
X10365952Y-91382732D02*
X10651667Y-91287494D01*
X10651667Y-91287494D02*
X10842143Y-91287494D01*
X10842143Y-91287494D02*
X11127857Y-91382732D01*
X11127857Y-91382732D02*
X11223095Y-91477970D01*
X6413571Y-94697858D02*
X6508809Y-94602620D01*
X6508809Y-94602620D02*
X6699285Y-94507382D01*
X6699285Y-94507382D02*
X7175476Y-94507382D01*
X7175476Y-94507382D02*
X7365952Y-94602620D01*
X7365952Y-94602620D02*
X7461190Y-94697858D01*
X7461190Y-94697858D02*
X7556428Y-94888334D01*
X7556428Y-94888334D02*
X7556428Y-95078810D01*
X7556428Y-95078810D02*
X7461190Y-95364524D01*
X7461190Y-95364524D02*
X6318333Y-96507382D01*
X6318333Y-96507382D02*
X7556428Y-96507382D01*
X6715142Y-78450961D02*
X6619904Y-78546200D01*
X6619904Y-78546200D02*
X6334190Y-78641438D01*
X6334190Y-78641438D02*
X6143714Y-78641438D01*
X6143714Y-78641438D02*
X5857999Y-78546200D01*
X5857999Y-78546200D02*
X5667523Y-78355723D01*
X5667523Y-78355723D02*
X5572285Y-78165247D01*
X5572285Y-78165247D02*
X5477047Y-77784295D01*
X5477047Y-77784295D02*
X5477047Y-77498580D01*
X5477047Y-77498580D02*
X5572285Y-77117628D01*
X5572285Y-77117628D02*
X5667523Y-76927152D01*
X5667523Y-76927152D02*
X5857999Y-76736676D01*
X5857999Y-76736676D02*
X6143714Y-76641438D01*
X6143714Y-76641438D02*
X6334190Y-76641438D01*
X6334190Y-76641438D02*
X6619904Y-76736676D01*
X6619904Y-76736676D02*
X6715142Y-76831914D01*
X7286571Y-76641438D02*
X8429428Y-76641438D01*
X7857999Y-78641438D02*
X7857999Y-76641438D01*
X2794523Y-10188438D02*
X2794523Y-8188438D01*
X2794523Y-9140819D02*
X3937380Y-9140819D01*
X3937380Y-10188438D02*
X3937380Y-8188438D01*
X5175475Y-10188438D02*
X4984999Y-10093200D01*
X4984999Y-10093200D02*
X4889761Y-9997961D01*
X4889761Y-9997961D02*
X4794523Y-9807485D01*
X4794523Y-9807485D02*
X4794523Y-9236057D01*
X4794523Y-9236057D02*
X4889761Y-9045580D01*
X4889761Y-9045580D02*
X4984999Y-8950342D01*
X4984999Y-8950342D02*
X5175475Y-8855104D01*
X5175475Y-8855104D02*
X5461190Y-8855104D01*
X5461190Y-8855104D02*
X5651666Y-8950342D01*
X5651666Y-8950342D02*
X5746904Y-9045580D01*
X5746904Y-9045580D02*
X5842142Y-9236057D01*
X5842142Y-9236057D02*
X5842142Y-9807485D01*
X5842142Y-9807485D02*
X5746904Y-9997961D01*
X5746904Y-9997961D02*
X5651666Y-10093200D01*
X5651666Y-10093200D02*
X5461190Y-10188438D01*
X5461190Y-10188438D02*
X5175475Y-10188438D01*
X6413571Y-8855104D02*
X7175475Y-8855104D01*
X6699285Y-8188438D02*
X6699285Y-9902723D01*
X6699285Y-9902723D02*
X6794523Y-10093200D01*
X6794523Y-10093200D02*
X6984999Y-10188438D01*
X6984999Y-10188438D02*
X7175475Y-10188438D01*
X9365952Y-10188438D02*
X9365952Y-8188438D01*
X10318333Y-8855104D02*
X10318333Y-10188438D01*
X10318333Y-9045580D02*
X10413571Y-8950342D01*
X10413571Y-8950342D02*
X10604047Y-8855104D01*
X10604047Y-8855104D02*
X10889762Y-8855104D01*
X10889762Y-8855104D02*
X11080238Y-8950342D01*
X11080238Y-8950342D02*
X11175476Y-9140819D01*
X11175476Y-9140819D02*
X11175476Y-10188438D01*
X1651666Y-39906438D02*
X1651666Y-37906438D01*
X1651666Y-38858819D02*
X2794523Y-38858819D01*
X2794523Y-39906438D02*
X2794523Y-37906438D01*
X4032618Y-39906438D02*
X3842142Y-39811200D01*
X3842142Y-39811200D02*
X3746904Y-39715961D01*
X3746904Y-39715961D02*
X3651666Y-39525485D01*
X3651666Y-39525485D02*
X3651666Y-38954057D01*
X3651666Y-38954057D02*
X3746904Y-38763580D01*
X3746904Y-38763580D02*
X3842142Y-38668342D01*
X3842142Y-38668342D02*
X4032618Y-38573104D01*
X4032618Y-38573104D02*
X4318333Y-38573104D01*
X4318333Y-38573104D02*
X4508809Y-38668342D01*
X4508809Y-38668342D02*
X4604047Y-38763580D01*
X4604047Y-38763580D02*
X4699285Y-38954057D01*
X4699285Y-38954057D02*
X4699285Y-39525485D01*
X4699285Y-39525485D02*
X4604047Y-39715961D01*
X4604047Y-39715961D02*
X4508809Y-39811200D01*
X4508809Y-39811200D02*
X4318333Y-39906438D01*
X4318333Y-39906438D02*
X4032618Y-39906438D01*
X5270714Y-38573104D02*
X6032618Y-38573104D01*
X5556428Y-37906438D02*
X5556428Y-39620723D01*
X5556428Y-39620723D02*
X5651666Y-39811200D01*
X5651666Y-39811200D02*
X5842142Y-39906438D01*
X5842142Y-39906438D02*
X6032618Y-39906438D01*
X8604047Y-37906438D02*
X8985000Y-37906438D01*
X8985000Y-37906438D02*
X9175476Y-38001676D01*
X9175476Y-38001676D02*
X9365952Y-38192152D01*
X9365952Y-38192152D02*
X9461190Y-38573104D01*
X9461190Y-38573104D02*
X9461190Y-39239771D01*
X9461190Y-39239771D02*
X9365952Y-39620723D01*
X9365952Y-39620723D02*
X9175476Y-39811200D01*
X9175476Y-39811200D02*
X8985000Y-39906438D01*
X8985000Y-39906438D02*
X8604047Y-39906438D01*
X8604047Y-39906438D02*
X8413571Y-39811200D01*
X8413571Y-39811200D02*
X8223095Y-39620723D01*
X8223095Y-39620723D02*
X8127857Y-39239771D01*
X8127857Y-39239771D02*
X8127857Y-38573104D01*
X8127857Y-38573104D02*
X8223095Y-38192152D01*
X8223095Y-38192152D02*
X8413571Y-38001676D01*
X8413571Y-38001676D02*
X8604047Y-37906438D01*
X11175476Y-38573104D02*
X11175476Y-39906438D01*
X10318333Y-38573104D02*
X10318333Y-39620723D01*
X10318333Y-39620723D02*
X10413571Y-39811200D01*
X10413571Y-39811200D02*
X10604047Y-39906438D01*
X10604047Y-39906438D02*
X10889762Y-39906438D01*
X10889762Y-39906438D02*
X11080238Y-39811200D01*
X11080238Y-39811200D02*
X11175476Y-39715961D01*
X11842143Y-38573104D02*
X12604047Y-38573104D01*
X12127857Y-37906438D02*
X12127857Y-39620723D01*
X12127857Y-39620723D02*
X12223095Y-39811200D01*
X12223095Y-39811200D02*
X12413571Y-39906438D01*
X12413571Y-39906438D02*
X12604047Y-39906438D01*
X151973094Y-29460914D02*
X152068332Y-29365676D01*
X152068332Y-29365676D02*
X152258808Y-29270438D01*
X152258808Y-29270438D02*
X152734999Y-29270438D01*
X152734999Y-29270438D02*
X152925475Y-29365676D01*
X152925475Y-29365676D02*
X153020713Y-29460914D01*
X153020713Y-29460914D02*
X153115951Y-29651390D01*
X153115951Y-29651390D02*
X153115951Y-29841866D01*
X153115951Y-29841866D02*
X153020713Y-30127580D01*
X153020713Y-30127580D02*
X151877856Y-31270438D01*
X151877856Y-31270438D02*
X153115951Y-31270438D01*
X154925475Y-29270438D02*
X153973094Y-29270438D01*
X153973094Y-29270438D02*
X153877856Y-30222819D01*
X153877856Y-30222819D02*
X153973094Y-30127580D01*
X153973094Y-30127580D02*
X154163570Y-30032342D01*
X154163570Y-30032342D02*
X154639761Y-30032342D01*
X154639761Y-30032342D02*
X154830237Y-30127580D01*
X154830237Y-30127580D02*
X154925475Y-30222819D01*
X154925475Y-30222819D02*
X155020713Y-30413295D01*
X155020713Y-30413295D02*
X155020713Y-30889485D01*
X155020713Y-30889485D02*
X154925475Y-31079961D01*
X154925475Y-31079961D02*
X154830237Y-31175200D01*
X154830237Y-31175200D02*
X154639761Y-31270438D01*
X154639761Y-31270438D02*
X154163570Y-31270438D01*
X154163570Y-31270438D02*
X153973094Y-31175200D01*
X153973094Y-31175200D02*
X153877856Y-31079961D01*
X156258808Y-29270438D02*
X156449285Y-29270438D01*
X156449285Y-29270438D02*
X156639761Y-29365676D01*
X156639761Y-29365676D02*
X156734999Y-29460914D01*
X156734999Y-29460914D02*
X156830237Y-29651390D01*
X156830237Y-29651390D02*
X156925475Y-30032342D01*
X156925475Y-30032342D02*
X156925475Y-30508533D01*
X156925475Y-30508533D02*
X156830237Y-30889485D01*
X156830237Y-30889485D02*
X156734999Y-31079961D01*
X156734999Y-31079961D02*
X156639761Y-31175200D01*
X156639761Y-31175200D02*
X156449285Y-31270438D01*
X156449285Y-31270438D02*
X156258808Y-31270438D01*
X156258808Y-31270438D02*
X156068332Y-31175200D01*
X156068332Y-31175200D02*
X155973094Y-31079961D01*
X155973094Y-31079961D02*
X155877856Y-30889485D01*
X155877856Y-30889485D02*
X155782618Y-30508533D01*
X155782618Y-30508533D02*
X155782618Y-30032342D01*
X155782618Y-30032342D02*
X155877856Y-29651390D01*
X155877856Y-29651390D02*
X155973094Y-29460914D01*
X155973094Y-29460914D02*
X156068332Y-29365676D01*
X156068332Y-29365676D02*
X156258808Y-29270438D01*
X157496904Y-29270438D02*
X158163570Y-31270438D01*
X158163570Y-31270438D02*
X158830237Y-29270438D01*
X162068333Y-31270438D02*
X160925476Y-31270438D01*
X161496904Y-31270438D02*
X161496904Y-29270438D01*
X161496904Y-29270438D02*
X161306428Y-29556152D01*
X161306428Y-29556152D02*
X161115952Y-29746628D01*
X161115952Y-29746628D02*
X160925476Y-29841866D01*
X162830238Y-30699009D02*
X163782619Y-30699009D01*
X162639762Y-31270438D02*
X163306428Y-29270438D01*
X163306428Y-29270438D02*
X163973095Y-31270438D01*
X166068334Y-31175200D02*
X166354048Y-31270438D01*
X166354048Y-31270438D02*
X166830239Y-31270438D01*
X166830239Y-31270438D02*
X167020715Y-31175200D01*
X167020715Y-31175200D02*
X167115953Y-31079961D01*
X167115953Y-31079961D02*
X167211191Y-30889485D01*
X167211191Y-30889485D02*
X167211191Y-30699009D01*
X167211191Y-30699009D02*
X167115953Y-30508533D01*
X167115953Y-30508533D02*
X167020715Y-30413295D01*
X167020715Y-30413295D02*
X166830239Y-30318057D01*
X166830239Y-30318057D02*
X166449286Y-30222819D01*
X166449286Y-30222819D02*
X166258810Y-30127580D01*
X166258810Y-30127580D02*
X166163572Y-30032342D01*
X166163572Y-30032342D02*
X166068334Y-29841866D01*
X166068334Y-29841866D02*
X166068334Y-29651390D01*
X166068334Y-29651390D02*
X166163572Y-29460914D01*
X166163572Y-29460914D02*
X166258810Y-29365676D01*
X166258810Y-29365676D02*
X166449286Y-29270438D01*
X166449286Y-29270438D02*
X166925477Y-29270438D01*
X166925477Y-29270438D02*
X167211191Y-29365676D01*
X168354048Y-31270438D02*
X168163572Y-31175200D01*
X168163572Y-31175200D02*
X168068334Y-30984723D01*
X168068334Y-30984723D02*
X168068334Y-29270438D01*
X169401667Y-31270438D02*
X169211191Y-31175200D01*
X169211191Y-31175200D02*
X169115953Y-31079961D01*
X169115953Y-31079961D02*
X169020715Y-30889485D01*
X169020715Y-30889485D02*
X169020715Y-30318057D01*
X169020715Y-30318057D02*
X169115953Y-30127580D01*
X169115953Y-30127580D02*
X169211191Y-30032342D01*
X169211191Y-30032342D02*
X169401667Y-29937104D01*
X169401667Y-29937104D02*
X169687382Y-29937104D01*
X169687382Y-29937104D02*
X169877858Y-30032342D01*
X169877858Y-30032342D02*
X169973096Y-30127580D01*
X169973096Y-30127580D02*
X170068334Y-30318057D01*
X170068334Y-30318057D02*
X170068334Y-30889485D01*
X170068334Y-30889485D02*
X169973096Y-31079961D01*
X169973096Y-31079961D02*
X169877858Y-31175200D01*
X169877858Y-31175200D02*
X169687382Y-31270438D01*
X169687382Y-31270438D02*
X169401667Y-31270438D01*
X170925477Y-30508533D02*
X172449287Y-30508533D01*
X174068334Y-30222819D02*
X174354048Y-30318057D01*
X174354048Y-30318057D02*
X174449286Y-30413295D01*
X174449286Y-30413295D02*
X174544524Y-30603771D01*
X174544524Y-30603771D02*
X174544524Y-30889485D01*
X174544524Y-30889485D02*
X174449286Y-31079961D01*
X174449286Y-31079961D02*
X174354048Y-31175200D01*
X174354048Y-31175200D02*
X174163572Y-31270438D01*
X174163572Y-31270438D02*
X173401667Y-31270438D01*
X173401667Y-31270438D02*
X173401667Y-29270438D01*
X173401667Y-29270438D02*
X174068334Y-29270438D01*
X174068334Y-29270438D02*
X174258810Y-29365676D01*
X174258810Y-29365676D02*
X174354048Y-29460914D01*
X174354048Y-29460914D02*
X174449286Y-29651390D01*
X174449286Y-29651390D02*
X174449286Y-29841866D01*
X174449286Y-29841866D02*
X174354048Y-30032342D01*
X174354048Y-30032342D02*
X174258810Y-30127580D01*
X174258810Y-30127580D02*
X174068334Y-30222819D01*
X174068334Y-30222819D02*
X173401667Y-30222819D01*
X175687381Y-31270438D02*
X175496905Y-31175200D01*
X175496905Y-31175200D02*
X175401667Y-30984723D01*
X175401667Y-30984723D02*
X175401667Y-29270438D01*
X176735000Y-31270438D02*
X176544524Y-31175200D01*
X176544524Y-31175200D02*
X176449286Y-31079961D01*
X176449286Y-31079961D02*
X176354048Y-30889485D01*
X176354048Y-30889485D02*
X176354048Y-30318057D01*
X176354048Y-30318057D02*
X176449286Y-30127580D01*
X176449286Y-30127580D02*
X176544524Y-30032342D01*
X176544524Y-30032342D02*
X176735000Y-29937104D01*
X176735000Y-29937104D02*
X177020715Y-29937104D01*
X177020715Y-29937104D02*
X177211191Y-30032342D01*
X177211191Y-30032342D02*
X177306429Y-30127580D01*
X177306429Y-30127580D02*
X177401667Y-30318057D01*
X177401667Y-30318057D02*
X177401667Y-30889485D01*
X177401667Y-30889485D02*
X177306429Y-31079961D01*
X177306429Y-31079961D02*
X177211191Y-31175200D01*
X177211191Y-31175200D02*
X177020715Y-31270438D01*
X177020715Y-31270438D02*
X176735000Y-31270438D01*
X178068334Y-29937104D02*
X178449286Y-31270438D01*
X178449286Y-31270438D02*
X178830239Y-30318057D01*
X178830239Y-30318057D02*
X179211191Y-31270438D01*
X179211191Y-31270438D02*
X179592143Y-29937104D01*
X193627523Y-54318819D02*
X193151333Y-54318819D01*
X193151333Y-54318819D02*
X193103714Y-54795009D01*
X193103714Y-54795009D02*
X193151333Y-54747390D01*
X193151333Y-54747390D02*
X193246571Y-54699771D01*
X193246571Y-54699771D02*
X193484666Y-54699771D01*
X193484666Y-54699771D02*
X193579904Y-54747390D01*
X193579904Y-54747390D02*
X193627523Y-54795009D01*
X193627523Y-54795009D02*
X193675142Y-54890247D01*
X193675142Y-54890247D02*
X193675142Y-55128342D01*
X193675142Y-55128342D02*
X193627523Y-55223580D01*
X193627523Y-55223580D02*
X193579904Y-55271200D01*
X193579904Y-55271200D02*
X193484666Y-55318819D01*
X193484666Y-55318819D02*
X193246571Y-55318819D01*
X193246571Y-55318819D02*
X193151333Y-55271200D01*
X193151333Y-55271200D02*
X193103714Y-55223580D01*
X193960857Y-54318819D02*
X194294190Y-55318819D01*
X194294190Y-55318819D02*
X194627523Y-54318819D01*
X194960857Y-55318819D02*
X194960857Y-54318819D01*
X194960857Y-54318819D02*
X195198952Y-54318819D01*
X195198952Y-54318819D02*
X195341809Y-54366438D01*
X195341809Y-54366438D02*
X195437047Y-54461676D01*
X195437047Y-54461676D02*
X195484666Y-54556914D01*
X195484666Y-54556914D02*
X195532285Y-54747390D01*
X195532285Y-54747390D02*
X195532285Y-54890247D01*
X195532285Y-54890247D02*
X195484666Y-55080723D01*
X195484666Y-55080723D02*
X195437047Y-55175961D01*
X195437047Y-55175961D02*
X195341809Y-55271200D01*
X195341809Y-55271200D02*
X195198952Y-55318819D01*
X195198952Y-55318819D02*
X194960857Y-55318819D01*
X196532285Y-55223580D02*
X196484666Y-55271200D01*
X196484666Y-55271200D02*
X196341809Y-55318819D01*
X196341809Y-55318819D02*
X196246571Y-55318819D01*
X196246571Y-55318819D02*
X196103714Y-55271200D01*
X196103714Y-55271200D02*
X196008476Y-55175961D01*
X196008476Y-55175961D02*
X195960857Y-55080723D01*
X195960857Y-55080723D02*
X195913238Y-54890247D01*
X195913238Y-54890247D02*
X195913238Y-54747390D01*
X195913238Y-54747390D02*
X195960857Y-54556914D01*
X195960857Y-54556914D02*
X196008476Y-54461676D01*
X196008476Y-54461676D02*
X196103714Y-54366438D01*
X196103714Y-54366438D02*
X196246571Y-54318819D01*
X196246571Y-54318819D02*
X196341809Y-54318819D01*
X196341809Y-54318819D02*
X196484666Y-54366438D01*
X196484666Y-54366438D02*
X196532285Y-54414057D01*
X27587438Y-37066429D02*
X27587438Y-38209286D01*
X27587438Y-37637858D02*
X25587438Y-37637858D01*
X25587438Y-37637858D02*
X25873152Y-37828334D01*
X25873152Y-37828334D02*
X26063628Y-38018810D01*
X26063628Y-38018810D02*
X26158866Y-38209286D01*
X25777914Y-36304524D02*
X25682676Y-36209286D01*
X25682676Y-36209286D02*
X25587438Y-36018810D01*
X25587438Y-36018810D02*
X25587438Y-35542619D01*
X25587438Y-35542619D02*
X25682676Y-35352143D01*
X25682676Y-35352143D02*
X25777914Y-35256905D01*
X25777914Y-35256905D02*
X25968390Y-35161667D01*
X25968390Y-35161667D02*
X26158866Y-35161667D01*
X26158866Y-35161667D02*
X26444580Y-35256905D01*
X26444580Y-35256905D02*
X27587438Y-36399762D01*
X27587438Y-36399762D02*
X27587438Y-35161667D01*
X25587438Y-33352143D02*
X25587438Y-34304524D01*
X25587438Y-34304524D02*
X26539819Y-34399762D01*
X26539819Y-34399762D02*
X26444580Y-34304524D01*
X26444580Y-34304524D02*
X26349342Y-34114048D01*
X26349342Y-34114048D02*
X26349342Y-33637857D01*
X26349342Y-33637857D02*
X26444580Y-33447381D01*
X26444580Y-33447381D02*
X26539819Y-33352143D01*
X26539819Y-33352143D02*
X26730295Y-33256905D01*
X26730295Y-33256905D02*
X27206485Y-33256905D01*
X27206485Y-33256905D02*
X27396961Y-33352143D01*
X27396961Y-33352143D02*
X27492200Y-33447381D01*
X27492200Y-33447381D02*
X27587438Y-33637857D01*
X27587438Y-33637857D02*
X27587438Y-34114048D01*
X27587438Y-34114048D02*
X27492200Y-34304524D01*
X27492200Y-34304524D02*
X27396961Y-34399762D01*
X25587438Y-32685476D02*
X27587438Y-32018810D01*
X27587438Y-32018810D02*
X25587438Y-31352143D01*
X27587438Y-28114047D02*
X27587438Y-29256904D01*
X27587438Y-28685476D02*
X25587438Y-28685476D01*
X25587438Y-28685476D02*
X25873152Y-28875952D01*
X25873152Y-28875952D02*
X26063628Y-29066428D01*
X26063628Y-29066428D02*
X26158866Y-29256904D01*
X25587438Y-26304523D02*
X25587438Y-27256904D01*
X25587438Y-27256904D02*
X26539819Y-27352142D01*
X26539819Y-27352142D02*
X26444580Y-27256904D01*
X26444580Y-27256904D02*
X26349342Y-27066428D01*
X26349342Y-27066428D02*
X26349342Y-26590237D01*
X26349342Y-26590237D02*
X26444580Y-26399761D01*
X26444580Y-26399761D02*
X26539819Y-26304523D01*
X26539819Y-26304523D02*
X26730295Y-26209285D01*
X26730295Y-26209285D02*
X27206485Y-26209285D01*
X27206485Y-26209285D02*
X27396961Y-26304523D01*
X27396961Y-26304523D02*
X27492200Y-26399761D01*
X27492200Y-26399761D02*
X27587438Y-26590237D01*
X27587438Y-26590237D02*
X27587438Y-27066428D01*
X27587438Y-27066428D02*
X27492200Y-27256904D01*
X27492200Y-27256904D02*
X27396961Y-27352142D01*
X27016009Y-25447380D02*
X27016009Y-24494999D01*
X27587438Y-25637856D02*
X25587438Y-24971190D01*
X25587438Y-24971190D02*
X27587438Y-24304523D01*
X27492200Y-22209284D02*
X27587438Y-21923570D01*
X27587438Y-21923570D02*
X27587438Y-21447379D01*
X27587438Y-21447379D02*
X27492200Y-21256903D01*
X27492200Y-21256903D02*
X27396961Y-21161665D01*
X27396961Y-21161665D02*
X27206485Y-21066427D01*
X27206485Y-21066427D02*
X27016009Y-21066427D01*
X27016009Y-21066427D02*
X26825533Y-21161665D01*
X26825533Y-21161665D02*
X26730295Y-21256903D01*
X26730295Y-21256903D02*
X26635057Y-21447379D01*
X26635057Y-21447379D02*
X26539819Y-21828332D01*
X26539819Y-21828332D02*
X26444580Y-22018808D01*
X26444580Y-22018808D02*
X26349342Y-22114046D01*
X26349342Y-22114046D02*
X26158866Y-22209284D01*
X26158866Y-22209284D02*
X25968390Y-22209284D01*
X25968390Y-22209284D02*
X25777914Y-22114046D01*
X25777914Y-22114046D02*
X25682676Y-22018808D01*
X25682676Y-22018808D02*
X25587438Y-21828332D01*
X25587438Y-21828332D02*
X25587438Y-21352141D01*
X25587438Y-21352141D02*
X25682676Y-21066427D01*
X27587438Y-19923570D02*
X27492200Y-20114046D01*
X27492200Y-20114046D02*
X27301723Y-20209284D01*
X27301723Y-20209284D02*
X25587438Y-20209284D01*
X27587438Y-18875951D02*
X27492200Y-19066427D01*
X27492200Y-19066427D02*
X27396961Y-19161665D01*
X27396961Y-19161665D02*
X27206485Y-19256903D01*
X27206485Y-19256903D02*
X26635057Y-19256903D01*
X26635057Y-19256903D02*
X26444580Y-19161665D01*
X26444580Y-19161665D02*
X26349342Y-19066427D01*
X26349342Y-19066427D02*
X26254104Y-18875951D01*
X26254104Y-18875951D02*
X26254104Y-18590236D01*
X26254104Y-18590236D02*
X26349342Y-18399760D01*
X26349342Y-18399760D02*
X26444580Y-18304522D01*
X26444580Y-18304522D02*
X26635057Y-18209284D01*
X26635057Y-18209284D02*
X27206485Y-18209284D01*
X27206485Y-18209284D02*
X27396961Y-18304522D01*
X27396961Y-18304522D02*
X27492200Y-18399760D01*
X27492200Y-18399760D02*
X27587438Y-18590236D01*
X27587438Y-18590236D02*
X27587438Y-18875951D01*
X26825533Y-17352141D02*
X26825533Y-15828332D01*
X26539819Y-14209284D02*
X26635057Y-13923570D01*
X26635057Y-13923570D02*
X26730295Y-13828332D01*
X26730295Y-13828332D02*
X26920771Y-13733094D01*
X26920771Y-13733094D02*
X27206485Y-13733094D01*
X27206485Y-13733094D02*
X27396961Y-13828332D01*
X27396961Y-13828332D02*
X27492200Y-13923570D01*
X27492200Y-13923570D02*
X27587438Y-14114046D01*
X27587438Y-14114046D02*
X27587438Y-14875951D01*
X27587438Y-14875951D02*
X25587438Y-14875951D01*
X25587438Y-14875951D02*
X25587438Y-14209284D01*
X25587438Y-14209284D02*
X25682676Y-14018808D01*
X25682676Y-14018808D02*
X25777914Y-13923570D01*
X25777914Y-13923570D02*
X25968390Y-13828332D01*
X25968390Y-13828332D02*
X26158866Y-13828332D01*
X26158866Y-13828332D02*
X26349342Y-13923570D01*
X26349342Y-13923570D02*
X26444580Y-14018808D01*
X26444580Y-14018808D02*
X26539819Y-14209284D01*
X26539819Y-14209284D02*
X26539819Y-14875951D01*
X27587438Y-12590237D02*
X27492200Y-12780713D01*
X27492200Y-12780713D02*
X27301723Y-12875951D01*
X27301723Y-12875951D02*
X25587438Y-12875951D01*
X27587438Y-11542618D02*
X27492200Y-11733094D01*
X27492200Y-11733094D02*
X27396961Y-11828332D01*
X27396961Y-11828332D02*
X27206485Y-11923570D01*
X27206485Y-11923570D02*
X26635057Y-11923570D01*
X26635057Y-11923570D02*
X26444580Y-11828332D01*
X26444580Y-11828332D02*
X26349342Y-11733094D01*
X26349342Y-11733094D02*
X26254104Y-11542618D01*
X26254104Y-11542618D02*
X26254104Y-11256903D01*
X26254104Y-11256903D02*
X26349342Y-11066427D01*
X26349342Y-11066427D02*
X26444580Y-10971189D01*
X26444580Y-10971189D02*
X26635057Y-10875951D01*
X26635057Y-10875951D02*
X27206485Y-10875951D01*
X27206485Y-10875951D02*
X27396961Y-10971189D01*
X27396961Y-10971189D02*
X27492200Y-11066427D01*
X27492200Y-11066427D02*
X27587438Y-11256903D01*
X27587438Y-11256903D02*
X27587438Y-11542618D01*
X26254104Y-10209284D02*
X27587438Y-9828332D01*
X27587438Y-9828332D02*
X26635057Y-9447379D01*
X26635057Y-9447379D02*
X27587438Y-9066427D01*
X27587438Y-9066427D02*
X26254104Y-8685475D01*
X2889762Y-24793438D02*
X2889762Y-22793438D01*
X2889762Y-22793438D02*
X4032619Y-24793438D01*
X4032619Y-24793438D02*
X4032619Y-22793438D01*
X5842143Y-23460104D02*
X5842143Y-24793438D01*
X4985000Y-23460104D02*
X4985000Y-24507723D01*
X4985000Y-24507723D02*
X5080238Y-24698200D01*
X5080238Y-24698200D02*
X5270714Y-24793438D01*
X5270714Y-24793438D02*
X5556429Y-24793438D01*
X5556429Y-24793438D02*
X5746905Y-24698200D01*
X5746905Y-24698200D02*
X5842143Y-24602961D01*
X6508810Y-23460104D02*
X7270714Y-23460104D01*
X6794524Y-22793438D02*
X6794524Y-24507723D01*
X6794524Y-24507723D02*
X6889762Y-24698200D01*
X6889762Y-24698200D02*
X7080238Y-24793438D01*
X7080238Y-24793438D02*
X7270714Y-24793438D01*
X7937381Y-24793438D02*
X7937381Y-23460104D01*
X7937381Y-23841057D02*
X8032619Y-23650580D01*
X8032619Y-23650580D02*
X8127857Y-23555342D01*
X8127857Y-23555342D02*
X8318333Y-23460104D01*
X8318333Y-23460104D02*
X8508810Y-23460104D01*
X10032619Y-24793438D02*
X10032619Y-23745819D01*
X10032619Y-23745819D02*
X9937381Y-23555342D01*
X9937381Y-23555342D02*
X9746905Y-23460104D01*
X9746905Y-23460104D02*
X9365952Y-23460104D01*
X9365952Y-23460104D02*
X9175476Y-23555342D01*
X10032619Y-24698200D02*
X9842143Y-24793438D01*
X9842143Y-24793438D02*
X9365952Y-24793438D01*
X9365952Y-24793438D02*
X9175476Y-24698200D01*
X9175476Y-24698200D02*
X9080238Y-24507723D01*
X9080238Y-24507723D02*
X9080238Y-24317247D01*
X9080238Y-24317247D02*
X9175476Y-24126771D01*
X9175476Y-24126771D02*
X9365952Y-24031533D01*
X9365952Y-24031533D02*
X9842143Y-24031533D01*
X9842143Y-24031533D02*
X10032619Y-23936295D01*
X11270714Y-24793438D02*
X11080238Y-24698200D01*
X11080238Y-24698200D02*
X10985000Y-24507723D01*
X10985000Y-24507723D02*
X10985000Y-22793438D01*
X169910571Y-47656057D02*
X168481999Y-47656057D01*
X168481999Y-47656057D02*
X168339142Y-49084628D01*
X168339142Y-49084628D02*
X168481999Y-48941771D01*
X168481999Y-48941771D02*
X168767714Y-48798914D01*
X168767714Y-48798914D02*
X169481999Y-48798914D01*
X169481999Y-48798914D02*
X169767714Y-48941771D01*
X169767714Y-48941771D02*
X169910571Y-49084628D01*
X169910571Y-49084628D02*
X170053428Y-49370342D01*
X170053428Y-49370342D02*
X170053428Y-50084628D01*
X170053428Y-50084628D02*
X169910571Y-50370342D01*
X169910571Y-50370342D02*
X169767714Y-50513200D01*
X169767714Y-50513200D02*
X169481999Y-50656057D01*
X169481999Y-50656057D02*
X168767714Y-50656057D01*
X168767714Y-50656057D02*
X168481999Y-50513200D01*
X168481999Y-50513200D02*
X168339142Y-50370342D01*
X170910571Y-47656057D02*
X171910571Y-50656057D01*
X171910571Y-50656057D02*
X172910571Y-47656057D01*
X173910571Y-50656057D02*
X173910571Y-47656057D01*
X173910571Y-47656057D02*
X174624857Y-47656057D01*
X174624857Y-47656057D02*
X175053428Y-47798914D01*
X175053428Y-47798914D02*
X175339143Y-48084628D01*
X175339143Y-48084628D02*
X175482000Y-48370342D01*
X175482000Y-48370342D02*
X175624857Y-48941771D01*
X175624857Y-48941771D02*
X175624857Y-49370342D01*
X175624857Y-49370342D02*
X175482000Y-49941771D01*
X175482000Y-49941771D02*
X175339143Y-50227485D01*
X175339143Y-50227485D02*
X175053428Y-50513200D01*
X175053428Y-50513200D02*
X174624857Y-50656057D01*
X174624857Y-50656057D02*
X173910571Y-50656057D01*
X178624857Y-50370342D02*
X178482000Y-50513200D01*
X178482000Y-50513200D02*
X178053428Y-50656057D01*
X178053428Y-50656057D02*
X177767714Y-50656057D01*
X177767714Y-50656057D02*
X177339143Y-50513200D01*
X177339143Y-50513200D02*
X177053428Y-50227485D01*
X177053428Y-50227485D02*
X176910571Y-49941771D01*
X176910571Y-49941771D02*
X176767714Y-49370342D01*
X176767714Y-49370342D02*
X176767714Y-48941771D01*
X176767714Y-48941771D02*
X176910571Y-48370342D01*
X176910571Y-48370342D02*
X177053428Y-48084628D01*
X177053428Y-48084628D02*
X177339143Y-47798914D01*
X177339143Y-47798914D02*
X177767714Y-47656057D01*
X177767714Y-47656057D02*
X178053428Y-47656057D01*
X178053428Y-47656057D02*
X178482000Y-47798914D01*
X178482000Y-47798914D02*
X178624857Y-47941771D01*
X3889761Y-57219494D02*
X2746904Y-57219494D01*
X3318332Y-57219494D02*
X3318332Y-55219494D01*
X3318332Y-55219494D02*
X3127856Y-55505208D01*
X3127856Y-55505208D02*
X2937380Y-55695684D01*
X2937380Y-55695684D02*
X2746904Y-55790922D01*
X5032618Y-56076636D02*
X4842142Y-55981398D01*
X4842142Y-55981398D02*
X4746904Y-55886160D01*
X4746904Y-55886160D02*
X4651666Y-55695684D01*
X4651666Y-55695684D02*
X4651666Y-55600446D01*
X4651666Y-55600446D02*
X4746904Y-55409970D01*
X4746904Y-55409970D02*
X4842142Y-55314732D01*
X4842142Y-55314732D02*
X5032618Y-55219494D01*
X5032618Y-55219494D02*
X5413571Y-55219494D01*
X5413571Y-55219494D02*
X5604047Y-55314732D01*
X5604047Y-55314732D02*
X5699285Y-55409970D01*
X5699285Y-55409970D02*
X5794523Y-55600446D01*
X5794523Y-55600446D02*
X5794523Y-55695684D01*
X5794523Y-55695684D02*
X5699285Y-55886160D01*
X5699285Y-55886160D02*
X5604047Y-55981398D01*
X5604047Y-55981398D02*
X5413571Y-56076636D01*
X5413571Y-56076636D02*
X5032618Y-56076636D01*
X5032618Y-56076636D02*
X4842142Y-56171875D01*
X4842142Y-56171875D02*
X4746904Y-56267113D01*
X4746904Y-56267113D02*
X4651666Y-56457589D01*
X4651666Y-56457589D02*
X4651666Y-56838541D01*
X4651666Y-56838541D02*
X4746904Y-57029017D01*
X4746904Y-57029017D02*
X4842142Y-57124256D01*
X4842142Y-57124256D02*
X5032618Y-57219494D01*
X5032618Y-57219494D02*
X5413571Y-57219494D01*
X5413571Y-57219494D02*
X5604047Y-57124256D01*
X5604047Y-57124256D02*
X5699285Y-57029017D01*
X5699285Y-57029017D02*
X5794523Y-56838541D01*
X5794523Y-56838541D02*
X5794523Y-56457589D01*
X5794523Y-56457589D02*
X5699285Y-56267113D01*
X5699285Y-56267113D02*
X5604047Y-56171875D01*
X5604047Y-56171875D02*
X5413571Y-56076636D01*
X6365952Y-55219494D02*
X7032618Y-57219494D01*
X7032618Y-57219494D02*
X7699285Y-55219494D01*
X8270714Y-56648065D02*
X9223095Y-56648065D01*
X8080238Y-57219494D02*
X8746904Y-55219494D01*
X8746904Y-55219494D02*
X9413571Y-57219494D01*
X11223095Y-57029017D02*
X11127857Y-57124256D01*
X11127857Y-57124256D02*
X10842143Y-57219494D01*
X10842143Y-57219494D02*
X10651667Y-57219494D01*
X10651667Y-57219494D02*
X10365952Y-57124256D01*
X10365952Y-57124256D02*
X10175476Y-56933779D01*
X10175476Y-56933779D02*
X10080238Y-56743303D01*
X10080238Y-56743303D02*
X9985000Y-56362351D01*
X9985000Y-56362351D02*
X9985000Y-56076636D01*
X9985000Y-56076636D02*
X10080238Y-55695684D01*
X10080238Y-55695684D02*
X10175476Y-55505208D01*
X10175476Y-55505208D02*
X10365952Y-55314732D01*
X10365952Y-55314732D02*
X10651667Y-55219494D01*
X10651667Y-55219494D02*
X10842143Y-55219494D01*
X10842143Y-55219494D02*
X11127857Y-55314732D01*
X11127857Y-55314732D02*
X11223095Y-55409970D01*
X7556428Y-60439382D02*
X6413571Y-60439382D01*
X6984999Y-60439382D02*
X6984999Y-58439382D01*
X6984999Y-58439382D02*
X6794523Y-58725096D01*
X6794523Y-58725096D02*
X6604047Y-58915572D01*
X6604047Y-58915572D02*
X6413571Y-59010810D01*
X65150833Y-8612080D02*
X65103214Y-8659700D01*
X65103214Y-8659700D02*
X64960357Y-8707319D01*
X64960357Y-8707319D02*
X64865119Y-8707319D01*
X64865119Y-8707319D02*
X64722262Y-8659700D01*
X64722262Y-8659700D02*
X64627024Y-8564461D01*
X64627024Y-8564461D02*
X64579405Y-8469223D01*
X64579405Y-8469223D02*
X64531786Y-8278747D01*
X64531786Y-8278747D02*
X64531786Y-8135890D01*
X64531786Y-8135890D02*
X64579405Y-7945414D01*
X64579405Y-7945414D02*
X64627024Y-7850176D01*
X64627024Y-7850176D02*
X64722262Y-7754938D01*
X64722262Y-7754938D02*
X64865119Y-7707319D01*
X64865119Y-7707319D02*
X64960357Y-7707319D01*
X64960357Y-7707319D02*
X65103214Y-7754938D01*
X65103214Y-7754938D02*
X65150833Y-7802557D01*
X66103214Y-8707319D02*
X65531786Y-8707319D01*
X65817500Y-8707319D02*
X65817500Y-7707319D01*
X65817500Y-7707319D02*
X65722262Y-7850176D01*
X65722262Y-7850176D02*
X65627024Y-7945414D01*
X65627024Y-7945414D02*
X65531786Y-7993033D01*
X83279580Y-20166666D02*
X83327200Y-20214285D01*
X83327200Y-20214285D02*
X83374819Y-20357142D01*
X83374819Y-20357142D02*
X83374819Y-20452380D01*
X83374819Y-20452380D02*
X83327200Y-20595237D01*
X83327200Y-20595237D02*
X83231961Y-20690475D01*
X83231961Y-20690475D02*
X83136723Y-20738094D01*
X83136723Y-20738094D02*
X82946247Y-20785713D01*
X82946247Y-20785713D02*
X82803390Y-20785713D01*
X82803390Y-20785713D02*
X82612914Y-20738094D01*
X82612914Y-20738094D02*
X82517676Y-20690475D01*
X82517676Y-20690475D02*
X82422438Y-20595237D01*
X82422438Y-20595237D02*
X82374819Y-20452380D01*
X82374819Y-20452380D02*
X82374819Y-20357142D01*
X82374819Y-20357142D02*
X82422438Y-20214285D01*
X82422438Y-20214285D02*
X82470057Y-20166666D01*
X82470057Y-19785713D02*
X82422438Y-19738094D01*
X82422438Y-19738094D02*
X82374819Y-19642856D01*
X82374819Y-19642856D02*
X82374819Y-19404761D01*
X82374819Y-19404761D02*
X82422438Y-19309523D01*
X82422438Y-19309523D02*
X82470057Y-19261904D01*
X82470057Y-19261904D02*
X82565295Y-19214285D01*
X82565295Y-19214285D02*
X82660533Y-19214285D01*
X82660533Y-19214285D02*
X82803390Y-19261904D01*
X82803390Y-19261904D02*
X83374819Y-19833332D01*
X83374819Y-19833332D02*
X83374819Y-19214285D01*
X81413866Y-23760951D02*
X81413866Y-22999047D01*
X81794819Y-23379999D02*
X81032914Y-23379999D01*
X83609580Y-20166666D02*
X83657200Y-20214285D01*
X83657200Y-20214285D02*
X83704819Y-20357142D01*
X83704819Y-20357142D02*
X83704819Y-20452380D01*
X83704819Y-20452380D02*
X83657200Y-20595237D01*
X83657200Y-20595237D02*
X83561961Y-20690475D01*
X83561961Y-20690475D02*
X83466723Y-20738094D01*
X83466723Y-20738094D02*
X83276247Y-20785713D01*
X83276247Y-20785713D02*
X83133390Y-20785713D01*
X83133390Y-20785713D02*
X82942914Y-20738094D01*
X82942914Y-20738094D02*
X82847676Y-20690475D01*
X82847676Y-20690475D02*
X82752438Y-20595237D01*
X82752438Y-20595237D02*
X82704819Y-20452380D01*
X82704819Y-20452380D02*
X82704819Y-20357142D01*
X82704819Y-20357142D02*
X82752438Y-20214285D01*
X82752438Y-20214285D02*
X82800057Y-20166666D01*
X82704819Y-19833332D02*
X82704819Y-19214285D01*
X82704819Y-19214285D02*
X83085771Y-19547618D01*
X83085771Y-19547618D02*
X83085771Y-19404761D01*
X83085771Y-19404761D02*
X83133390Y-19309523D01*
X83133390Y-19309523D02*
X83181009Y-19261904D01*
X83181009Y-19261904D02*
X83276247Y-19214285D01*
X83276247Y-19214285D02*
X83514342Y-19214285D01*
X83514342Y-19214285D02*
X83609580Y-19261904D01*
X83609580Y-19261904D02*
X83657200Y-19309523D01*
X83657200Y-19309523D02*
X83704819Y-19404761D01*
X83704819Y-19404761D02*
X83704819Y-19690475D01*
X83704819Y-19690475D02*
X83657200Y-19785713D01*
X83657200Y-19785713D02*
X83609580Y-19833332D01*
X65150833Y-48612080D02*
X65103214Y-48659700D01*
X65103214Y-48659700D02*
X64960357Y-48707319D01*
X64960357Y-48707319D02*
X64865119Y-48707319D01*
X64865119Y-48707319D02*
X64722262Y-48659700D01*
X64722262Y-48659700D02*
X64627024Y-48564461D01*
X64627024Y-48564461D02*
X64579405Y-48469223D01*
X64579405Y-48469223D02*
X64531786Y-48278747D01*
X64531786Y-48278747D02*
X64531786Y-48135890D01*
X64531786Y-48135890D02*
X64579405Y-47945414D01*
X64579405Y-47945414D02*
X64627024Y-47850176D01*
X64627024Y-47850176D02*
X64722262Y-47754938D01*
X64722262Y-47754938D02*
X64865119Y-47707319D01*
X64865119Y-47707319D02*
X64960357Y-47707319D01*
X64960357Y-47707319D02*
X65103214Y-47754938D01*
X65103214Y-47754938D02*
X65150833Y-47802557D01*
X66007976Y-48040652D02*
X66007976Y-48707319D01*
X65769881Y-47659700D02*
X65531786Y-48373985D01*
X65531786Y-48373985D02*
X66150833Y-48373985D01*
X65150833Y-88612080D02*
X65103214Y-88659700D01*
X65103214Y-88659700D02*
X64960357Y-88707319D01*
X64960357Y-88707319D02*
X64865119Y-88707319D01*
X64865119Y-88707319D02*
X64722262Y-88659700D01*
X64722262Y-88659700D02*
X64627024Y-88564461D01*
X64627024Y-88564461D02*
X64579405Y-88469223D01*
X64579405Y-88469223D02*
X64531786Y-88278747D01*
X64531786Y-88278747D02*
X64531786Y-88135890D01*
X64531786Y-88135890D02*
X64579405Y-87945414D01*
X64579405Y-87945414D02*
X64627024Y-87850176D01*
X64627024Y-87850176D02*
X64722262Y-87754938D01*
X64722262Y-87754938D02*
X64865119Y-87707319D01*
X64865119Y-87707319D02*
X64960357Y-87707319D01*
X64960357Y-87707319D02*
X65103214Y-87754938D01*
X65103214Y-87754938D02*
X65150833Y-87802557D01*
X66055595Y-87707319D02*
X65579405Y-87707319D01*
X65579405Y-87707319D02*
X65531786Y-88183509D01*
X65531786Y-88183509D02*
X65579405Y-88135890D01*
X65579405Y-88135890D02*
X65674643Y-88088271D01*
X65674643Y-88088271D02*
X65912738Y-88088271D01*
X65912738Y-88088271D02*
X66007976Y-88135890D01*
X66007976Y-88135890D02*
X66055595Y-88183509D01*
X66055595Y-88183509D02*
X66103214Y-88278747D01*
X66103214Y-88278747D02*
X66103214Y-88516842D01*
X66103214Y-88516842D02*
X66055595Y-88612080D01*
X66055595Y-88612080D02*
X66007976Y-88659700D01*
X66007976Y-88659700D02*
X65912738Y-88707319D01*
X65912738Y-88707319D02*
X65674643Y-88707319D01*
X65674643Y-88707319D02*
X65579405Y-88659700D01*
X65579405Y-88659700D02*
X65531786Y-88612080D01*
X83279580Y-60166666D02*
X83327200Y-60214285D01*
X83327200Y-60214285D02*
X83374819Y-60357142D01*
X83374819Y-60357142D02*
X83374819Y-60452380D01*
X83374819Y-60452380D02*
X83327200Y-60595237D01*
X83327200Y-60595237D02*
X83231961Y-60690475D01*
X83231961Y-60690475D02*
X83136723Y-60738094D01*
X83136723Y-60738094D02*
X82946247Y-60785713D01*
X82946247Y-60785713D02*
X82803390Y-60785713D01*
X82803390Y-60785713D02*
X82612914Y-60738094D01*
X82612914Y-60738094D02*
X82517676Y-60690475D01*
X82517676Y-60690475D02*
X82422438Y-60595237D01*
X82422438Y-60595237D02*
X82374819Y-60452380D01*
X82374819Y-60452380D02*
X82374819Y-60357142D01*
X82374819Y-60357142D02*
X82422438Y-60214285D01*
X82422438Y-60214285D02*
X82470057Y-60166666D01*
X82374819Y-59309523D02*
X82374819Y-59499999D01*
X82374819Y-59499999D02*
X82422438Y-59595237D01*
X82422438Y-59595237D02*
X82470057Y-59642856D01*
X82470057Y-59642856D02*
X82612914Y-59738094D01*
X82612914Y-59738094D02*
X82803390Y-59785713D01*
X82803390Y-59785713D02*
X83184342Y-59785713D01*
X83184342Y-59785713D02*
X83279580Y-59738094D01*
X83279580Y-59738094D02*
X83327200Y-59690475D01*
X83327200Y-59690475D02*
X83374819Y-59595237D01*
X83374819Y-59595237D02*
X83374819Y-59404761D01*
X83374819Y-59404761D02*
X83327200Y-59309523D01*
X83327200Y-59309523D02*
X83279580Y-59261904D01*
X83279580Y-59261904D02*
X83184342Y-59214285D01*
X83184342Y-59214285D02*
X82946247Y-59214285D01*
X82946247Y-59214285D02*
X82851009Y-59261904D01*
X82851009Y-59261904D02*
X82803390Y-59309523D01*
X82803390Y-59309523D02*
X82755771Y-59404761D01*
X82755771Y-59404761D02*
X82755771Y-59595237D01*
X82755771Y-59595237D02*
X82803390Y-59690475D01*
X82803390Y-59690475D02*
X82851009Y-59738094D01*
X82851009Y-59738094D02*
X82946247Y-59785713D01*
X81413866Y-63760951D02*
X81413866Y-62999047D01*
X81794819Y-63379999D02*
X81032914Y-63379999D01*
X83279580Y-100166666D02*
X83327200Y-100214285D01*
X83327200Y-100214285D02*
X83374819Y-100357142D01*
X83374819Y-100357142D02*
X83374819Y-100452380D01*
X83374819Y-100452380D02*
X83327200Y-100595237D01*
X83327200Y-100595237D02*
X83231961Y-100690475D01*
X83231961Y-100690475D02*
X83136723Y-100738094D01*
X83136723Y-100738094D02*
X82946247Y-100785713D01*
X82946247Y-100785713D02*
X82803390Y-100785713D01*
X82803390Y-100785713D02*
X82612914Y-100738094D01*
X82612914Y-100738094D02*
X82517676Y-100690475D01*
X82517676Y-100690475D02*
X82422438Y-100595237D01*
X82422438Y-100595237D02*
X82374819Y-100452380D01*
X82374819Y-100452380D02*
X82374819Y-100357142D01*
X82374819Y-100357142D02*
X82422438Y-100214285D01*
X82422438Y-100214285D02*
X82470057Y-100166666D01*
X82374819Y-99833332D02*
X82374819Y-99166666D01*
X82374819Y-99166666D02*
X83374819Y-99595237D01*
X81413866Y-103760951D02*
X81413866Y-102999047D01*
X81794819Y-103379999D02*
X81032914Y-103379999D01*
X83609580Y-60166666D02*
X83657200Y-60214285D01*
X83657200Y-60214285D02*
X83704819Y-60357142D01*
X83704819Y-60357142D02*
X83704819Y-60452380D01*
X83704819Y-60452380D02*
X83657200Y-60595237D01*
X83657200Y-60595237D02*
X83561961Y-60690475D01*
X83561961Y-60690475D02*
X83466723Y-60738094D01*
X83466723Y-60738094D02*
X83276247Y-60785713D01*
X83276247Y-60785713D02*
X83133390Y-60785713D01*
X83133390Y-60785713D02*
X82942914Y-60738094D01*
X82942914Y-60738094D02*
X82847676Y-60690475D01*
X82847676Y-60690475D02*
X82752438Y-60595237D01*
X82752438Y-60595237D02*
X82704819Y-60452380D01*
X82704819Y-60452380D02*
X82704819Y-60357142D01*
X82704819Y-60357142D02*
X82752438Y-60214285D01*
X82752438Y-60214285D02*
X82800057Y-60166666D01*
X83133390Y-59595237D02*
X83085771Y-59690475D01*
X83085771Y-59690475D02*
X83038152Y-59738094D01*
X83038152Y-59738094D02*
X82942914Y-59785713D01*
X82942914Y-59785713D02*
X82895295Y-59785713D01*
X82895295Y-59785713D02*
X82800057Y-59738094D01*
X82800057Y-59738094D02*
X82752438Y-59690475D01*
X82752438Y-59690475D02*
X82704819Y-59595237D01*
X82704819Y-59595237D02*
X82704819Y-59404761D01*
X82704819Y-59404761D02*
X82752438Y-59309523D01*
X82752438Y-59309523D02*
X82800057Y-59261904D01*
X82800057Y-59261904D02*
X82895295Y-59214285D01*
X82895295Y-59214285D02*
X82942914Y-59214285D01*
X82942914Y-59214285D02*
X83038152Y-59261904D01*
X83038152Y-59261904D02*
X83085771Y-59309523D01*
X83085771Y-59309523D02*
X83133390Y-59404761D01*
X83133390Y-59404761D02*
X83133390Y-59595237D01*
X83133390Y-59595237D02*
X83181009Y-59690475D01*
X83181009Y-59690475D02*
X83228628Y-59738094D01*
X83228628Y-59738094D02*
X83323866Y-59785713D01*
X83323866Y-59785713D02*
X83514342Y-59785713D01*
X83514342Y-59785713D02*
X83609580Y-59738094D01*
X83609580Y-59738094D02*
X83657200Y-59690475D01*
X83657200Y-59690475D02*
X83704819Y-59595237D01*
X83704819Y-59595237D02*
X83704819Y-59404761D01*
X83704819Y-59404761D02*
X83657200Y-59309523D01*
X83657200Y-59309523D02*
X83609580Y-59261904D01*
X83609580Y-59261904D02*
X83514342Y-59214285D01*
X83514342Y-59214285D02*
X83323866Y-59214285D01*
X83323866Y-59214285D02*
X83228628Y-59261904D01*
X83228628Y-59261904D02*
X83181009Y-59309523D01*
X83181009Y-59309523D02*
X83133390Y-59404761D01*
X83609580Y-100166666D02*
X83657200Y-100214285D01*
X83657200Y-100214285D02*
X83704819Y-100357142D01*
X83704819Y-100357142D02*
X83704819Y-100452380D01*
X83704819Y-100452380D02*
X83657200Y-100595237D01*
X83657200Y-100595237D02*
X83561961Y-100690475D01*
X83561961Y-100690475D02*
X83466723Y-100738094D01*
X83466723Y-100738094D02*
X83276247Y-100785713D01*
X83276247Y-100785713D02*
X83133390Y-100785713D01*
X83133390Y-100785713D02*
X82942914Y-100738094D01*
X82942914Y-100738094D02*
X82847676Y-100690475D01*
X82847676Y-100690475D02*
X82752438Y-100595237D01*
X82752438Y-100595237D02*
X82704819Y-100452380D01*
X82704819Y-100452380D02*
X82704819Y-100357142D01*
X82704819Y-100357142D02*
X82752438Y-100214285D01*
X82752438Y-100214285D02*
X82800057Y-100166666D01*
X83704819Y-99690475D02*
X83704819Y-99499999D01*
X83704819Y-99499999D02*
X83657200Y-99404761D01*
X83657200Y-99404761D02*
X83609580Y-99357142D01*
X83609580Y-99357142D02*
X83466723Y-99261904D01*
X83466723Y-99261904D02*
X83276247Y-99214285D01*
X83276247Y-99214285D02*
X82895295Y-99214285D01*
X82895295Y-99214285D02*
X82800057Y-99261904D01*
X82800057Y-99261904D02*
X82752438Y-99309523D01*
X82752438Y-99309523D02*
X82704819Y-99404761D01*
X82704819Y-99404761D02*
X82704819Y-99595237D01*
X82704819Y-99595237D02*
X82752438Y-99690475D01*
X82752438Y-99690475D02*
X82800057Y-99738094D01*
X82800057Y-99738094D02*
X82895295Y-99785713D01*
X82895295Y-99785713D02*
X83133390Y-99785713D01*
X83133390Y-99785713D02*
X83228628Y-99738094D01*
X83228628Y-99738094D02*
X83276247Y-99690475D01*
X83276247Y-99690475D02*
X83323866Y-99595237D01*
X83323866Y-99595237D02*
X83323866Y-99404761D01*
X83323866Y-99404761D02*
X83276247Y-99309523D01*
X83276247Y-99309523D02*
X83228628Y-99261904D01*
X83228628Y-99261904D02*
X83133390Y-99214285D01*
X124919580Y-20642857D02*
X124967200Y-20690476D01*
X124967200Y-20690476D02*
X125014819Y-20833333D01*
X125014819Y-20833333D02*
X125014819Y-20928571D01*
X125014819Y-20928571D02*
X124967200Y-21071428D01*
X124967200Y-21071428D02*
X124871961Y-21166666D01*
X124871961Y-21166666D02*
X124776723Y-21214285D01*
X124776723Y-21214285D02*
X124586247Y-21261904D01*
X124586247Y-21261904D02*
X124443390Y-21261904D01*
X124443390Y-21261904D02*
X124252914Y-21214285D01*
X124252914Y-21214285D02*
X124157676Y-21166666D01*
X124157676Y-21166666D02*
X124062438Y-21071428D01*
X124062438Y-21071428D02*
X124014819Y-20928571D01*
X124014819Y-20928571D02*
X124014819Y-20833333D01*
X124014819Y-20833333D02*
X124062438Y-20690476D01*
X124062438Y-20690476D02*
X124110057Y-20642857D01*
X125014819Y-19690476D02*
X125014819Y-20261904D01*
X125014819Y-19976190D02*
X124014819Y-19976190D01*
X124014819Y-19976190D02*
X124157676Y-20071428D01*
X124157676Y-20071428D02*
X124252914Y-20166666D01*
X124252914Y-20166666D02*
X124300533Y-20261904D01*
X124014819Y-19071428D02*
X124014819Y-18976190D01*
X124014819Y-18976190D02*
X124062438Y-18880952D01*
X124062438Y-18880952D02*
X124110057Y-18833333D01*
X124110057Y-18833333D02*
X124205295Y-18785714D01*
X124205295Y-18785714D02*
X124395771Y-18738095D01*
X124395771Y-18738095D02*
X124633866Y-18738095D01*
X124633866Y-18738095D02*
X124824342Y-18785714D01*
X124824342Y-18785714D02*
X124919580Y-18833333D01*
X124919580Y-18833333D02*
X124967200Y-18880952D01*
X124967200Y-18880952D02*
X125014819Y-18976190D01*
X125014819Y-18976190D02*
X125014819Y-19071428D01*
X125014819Y-19071428D02*
X124967200Y-19166666D01*
X124967200Y-19166666D02*
X124919580Y-19214285D01*
X124919580Y-19214285D02*
X124824342Y-19261904D01*
X124824342Y-19261904D02*
X124633866Y-19309523D01*
X124633866Y-19309523D02*
X124395771Y-19309523D01*
X124395771Y-19309523D02*
X124205295Y-19261904D01*
X124205295Y-19261904D02*
X124110057Y-19214285D01*
X124110057Y-19214285D02*
X124062438Y-19166666D01*
X124062438Y-19166666D02*
X124014819Y-19071428D01*
X123083866Y-24660951D02*
X123083866Y-23899047D01*
X123464819Y-24279999D02*
X122702914Y-24279999D01*
X164919580Y-20642857D02*
X164967200Y-20690476D01*
X164967200Y-20690476D02*
X165014819Y-20833333D01*
X165014819Y-20833333D02*
X165014819Y-20928571D01*
X165014819Y-20928571D02*
X164967200Y-21071428D01*
X164967200Y-21071428D02*
X164871961Y-21166666D01*
X164871961Y-21166666D02*
X164776723Y-21214285D01*
X164776723Y-21214285D02*
X164586247Y-21261904D01*
X164586247Y-21261904D02*
X164443390Y-21261904D01*
X164443390Y-21261904D02*
X164252914Y-21214285D01*
X164252914Y-21214285D02*
X164157676Y-21166666D01*
X164157676Y-21166666D02*
X164062438Y-21071428D01*
X164062438Y-21071428D02*
X164014819Y-20928571D01*
X164014819Y-20928571D02*
X164014819Y-20833333D01*
X164014819Y-20833333D02*
X164062438Y-20690476D01*
X164062438Y-20690476D02*
X164110057Y-20642857D01*
X165014819Y-19690476D02*
X165014819Y-20261904D01*
X165014819Y-19976190D02*
X164014819Y-19976190D01*
X164014819Y-19976190D02*
X164157676Y-20071428D01*
X164157676Y-20071428D02*
X164252914Y-20166666D01*
X164252914Y-20166666D02*
X164300533Y-20261904D01*
X165014819Y-18738095D02*
X165014819Y-19309523D01*
X165014819Y-19023809D02*
X164014819Y-19023809D01*
X164014819Y-19023809D02*
X164157676Y-19119047D01*
X164157676Y-19119047D02*
X164252914Y-19214285D01*
X164252914Y-19214285D02*
X164300533Y-19309523D01*
X163083866Y-24660951D02*
X163083866Y-23899047D01*
X163464819Y-24279999D02*
X162702914Y-24279999D01*
X124919580Y-60642857D02*
X124967200Y-60690476D01*
X124967200Y-60690476D02*
X125014819Y-60833333D01*
X125014819Y-60833333D02*
X125014819Y-60928571D01*
X125014819Y-60928571D02*
X124967200Y-61071428D01*
X124967200Y-61071428D02*
X124871961Y-61166666D01*
X124871961Y-61166666D02*
X124776723Y-61214285D01*
X124776723Y-61214285D02*
X124586247Y-61261904D01*
X124586247Y-61261904D02*
X124443390Y-61261904D01*
X124443390Y-61261904D02*
X124252914Y-61214285D01*
X124252914Y-61214285D02*
X124157676Y-61166666D01*
X124157676Y-61166666D02*
X124062438Y-61071428D01*
X124062438Y-61071428D02*
X124014819Y-60928571D01*
X124014819Y-60928571D02*
X124014819Y-60833333D01*
X124014819Y-60833333D02*
X124062438Y-60690476D01*
X124062438Y-60690476D02*
X124110057Y-60642857D01*
X125014819Y-59690476D02*
X125014819Y-60261904D01*
X125014819Y-59976190D02*
X124014819Y-59976190D01*
X124014819Y-59976190D02*
X124157676Y-60071428D01*
X124157676Y-60071428D02*
X124252914Y-60166666D01*
X124252914Y-60166666D02*
X124300533Y-60261904D01*
X124110057Y-59309523D02*
X124062438Y-59261904D01*
X124062438Y-59261904D02*
X124014819Y-59166666D01*
X124014819Y-59166666D02*
X124014819Y-58928571D01*
X124014819Y-58928571D02*
X124062438Y-58833333D01*
X124062438Y-58833333D02*
X124110057Y-58785714D01*
X124110057Y-58785714D02*
X124205295Y-58738095D01*
X124205295Y-58738095D02*
X124300533Y-58738095D01*
X124300533Y-58738095D02*
X124443390Y-58785714D01*
X124443390Y-58785714D02*
X125014819Y-59357142D01*
X125014819Y-59357142D02*
X125014819Y-58738095D01*
X123083866Y-64660951D02*
X123083866Y-63899047D01*
X123464819Y-64279999D02*
X122702914Y-64279999D01*
X115799580Y-100642857D02*
X115847200Y-100690476D01*
X115847200Y-100690476D02*
X115894819Y-100833333D01*
X115894819Y-100833333D02*
X115894819Y-100928571D01*
X115894819Y-100928571D02*
X115847200Y-101071428D01*
X115847200Y-101071428D02*
X115751961Y-101166666D01*
X115751961Y-101166666D02*
X115656723Y-101214285D01*
X115656723Y-101214285D02*
X115466247Y-101261904D01*
X115466247Y-101261904D02*
X115323390Y-101261904D01*
X115323390Y-101261904D02*
X115132914Y-101214285D01*
X115132914Y-101214285D02*
X115037676Y-101166666D01*
X115037676Y-101166666D02*
X114942438Y-101071428D01*
X114942438Y-101071428D02*
X114894819Y-100928571D01*
X114894819Y-100928571D02*
X114894819Y-100833333D01*
X114894819Y-100833333D02*
X114942438Y-100690476D01*
X114942438Y-100690476D02*
X114990057Y-100642857D01*
X115894819Y-99690476D02*
X115894819Y-100261904D01*
X115894819Y-99976190D02*
X114894819Y-99976190D01*
X114894819Y-99976190D02*
X115037676Y-100071428D01*
X115037676Y-100071428D02*
X115132914Y-100166666D01*
X115132914Y-100166666D02*
X115180533Y-100261904D01*
X114894819Y-99357142D02*
X114894819Y-98738095D01*
X114894819Y-98738095D02*
X115275771Y-99071428D01*
X115275771Y-99071428D02*
X115275771Y-98928571D01*
X115275771Y-98928571D02*
X115323390Y-98833333D01*
X115323390Y-98833333D02*
X115371009Y-98785714D01*
X115371009Y-98785714D02*
X115466247Y-98738095D01*
X115466247Y-98738095D02*
X115704342Y-98738095D01*
X115704342Y-98738095D02*
X115799580Y-98785714D01*
X115799580Y-98785714D02*
X115847200Y-98833333D01*
X115847200Y-98833333D02*
X115894819Y-98928571D01*
X115894819Y-98928571D02*
X115894819Y-99214285D01*
X115894819Y-99214285D02*
X115847200Y-99309523D01*
X115847200Y-99309523D02*
X115799580Y-99357142D01*
X117063866Y-96100951D02*
X117063866Y-95339047D01*
X117444819Y-95719999D02*
X116682914Y-95719999D01*
X172279580Y-20642857D02*
X172327200Y-20690476D01*
X172327200Y-20690476D02*
X172374819Y-20833333D01*
X172374819Y-20833333D02*
X172374819Y-20928571D01*
X172374819Y-20928571D02*
X172327200Y-21071428D01*
X172327200Y-21071428D02*
X172231961Y-21166666D01*
X172231961Y-21166666D02*
X172136723Y-21214285D01*
X172136723Y-21214285D02*
X171946247Y-21261904D01*
X171946247Y-21261904D02*
X171803390Y-21261904D01*
X171803390Y-21261904D02*
X171612914Y-21214285D01*
X171612914Y-21214285D02*
X171517676Y-21166666D01*
X171517676Y-21166666D02*
X171422438Y-21071428D01*
X171422438Y-21071428D02*
X171374819Y-20928571D01*
X171374819Y-20928571D02*
X171374819Y-20833333D01*
X171374819Y-20833333D02*
X171422438Y-20690476D01*
X171422438Y-20690476D02*
X171470057Y-20642857D01*
X172374819Y-19690476D02*
X172374819Y-20261904D01*
X172374819Y-19976190D02*
X171374819Y-19976190D01*
X171374819Y-19976190D02*
X171517676Y-20071428D01*
X171517676Y-20071428D02*
X171612914Y-20166666D01*
X171612914Y-20166666D02*
X171660533Y-20261904D01*
X171708152Y-18833333D02*
X172374819Y-18833333D01*
X171327200Y-19071428D02*
X172041485Y-19309523D01*
X172041485Y-19309523D02*
X172041485Y-18690476D01*
X170413866Y-23760951D02*
X170413866Y-22999047D01*
X170794819Y-23379999D02*
X170032914Y-23379999D01*
X132279580Y-60642857D02*
X132327200Y-60690476D01*
X132327200Y-60690476D02*
X132374819Y-60833333D01*
X132374819Y-60833333D02*
X132374819Y-60928571D01*
X132374819Y-60928571D02*
X132327200Y-61071428D01*
X132327200Y-61071428D02*
X132231961Y-61166666D01*
X132231961Y-61166666D02*
X132136723Y-61214285D01*
X132136723Y-61214285D02*
X131946247Y-61261904D01*
X131946247Y-61261904D02*
X131803390Y-61261904D01*
X131803390Y-61261904D02*
X131612914Y-61214285D01*
X131612914Y-61214285D02*
X131517676Y-61166666D01*
X131517676Y-61166666D02*
X131422438Y-61071428D01*
X131422438Y-61071428D02*
X131374819Y-60928571D01*
X131374819Y-60928571D02*
X131374819Y-60833333D01*
X131374819Y-60833333D02*
X131422438Y-60690476D01*
X131422438Y-60690476D02*
X131470057Y-60642857D01*
X132374819Y-59690476D02*
X132374819Y-60261904D01*
X132374819Y-59976190D02*
X131374819Y-59976190D01*
X131374819Y-59976190D02*
X131517676Y-60071428D01*
X131517676Y-60071428D02*
X131612914Y-60166666D01*
X131612914Y-60166666D02*
X131660533Y-60261904D01*
X131374819Y-58785714D02*
X131374819Y-59261904D01*
X131374819Y-59261904D02*
X131851009Y-59309523D01*
X131851009Y-59309523D02*
X131803390Y-59261904D01*
X131803390Y-59261904D02*
X131755771Y-59166666D01*
X131755771Y-59166666D02*
X131755771Y-58928571D01*
X131755771Y-58928571D02*
X131803390Y-58833333D01*
X131803390Y-58833333D02*
X131851009Y-58785714D01*
X131851009Y-58785714D02*
X131946247Y-58738095D01*
X131946247Y-58738095D02*
X132184342Y-58738095D01*
X132184342Y-58738095D02*
X132279580Y-58785714D01*
X132279580Y-58785714D02*
X132327200Y-58833333D01*
X132327200Y-58833333D02*
X132374819Y-58928571D01*
X132374819Y-58928571D02*
X132374819Y-59166666D01*
X132374819Y-59166666D02*
X132327200Y-59261904D01*
X132327200Y-59261904D02*
X132279580Y-59309523D01*
X130413866Y-63760951D02*
X130413866Y-62999047D01*
X130794819Y-63379999D02*
X130032914Y-63379999D01*
X124439580Y-100642857D02*
X124487200Y-100690476D01*
X124487200Y-100690476D02*
X124534819Y-100833333D01*
X124534819Y-100833333D02*
X124534819Y-100928571D01*
X124534819Y-100928571D02*
X124487200Y-101071428D01*
X124487200Y-101071428D02*
X124391961Y-101166666D01*
X124391961Y-101166666D02*
X124296723Y-101214285D01*
X124296723Y-101214285D02*
X124106247Y-101261904D01*
X124106247Y-101261904D02*
X123963390Y-101261904D01*
X123963390Y-101261904D02*
X123772914Y-101214285D01*
X123772914Y-101214285D02*
X123677676Y-101166666D01*
X123677676Y-101166666D02*
X123582438Y-101071428D01*
X123582438Y-101071428D02*
X123534819Y-100928571D01*
X123534819Y-100928571D02*
X123534819Y-100833333D01*
X123534819Y-100833333D02*
X123582438Y-100690476D01*
X123582438Y-100690476D02*
X123630057Y-100642857D01*
X124534819Y-99690476D02*
X124534819Y-100261904D01*
X124534819Y-99976190D02*
X123534819Y-99976190D01*
X123534819Y-99976190D02*
X123677676Y-100071428D01*
X123677676Y-100071428D02*
X123772914Y-100166666D01*
X123772914Y-100166666D02*
X123820533Y-100261904D01*
X123534819Y-98833333D02*
X123534819Y-99023809D01*
X123534819Y-99023809D02*
X123582438Y-99119047D01*
X123582438Y-99119047D02*
X123630057Y-99166666D01*
X123630057Y-99166666D02*
X123772914Y-99261904D01*
X123772914Y-99261904D02*
X123963390Y-99309523D01*
X123963390Y-99309523D02*
X124344342Y-99309523D01*
X124344342Y-99309523D02*
X124439580Y-99261904D01*
X124439580Y-99261904D02*
X124487200Y-99214285D01*
X124487200Y-99214285D02*
X124534819Y-99119047D01*
X124534819Y-99119047D02*
X124534819Y-98928571D01*
X124534819Y-98928571D02*
X124487200Y-98833333D01*
X124487200Y-98833333D02*
X124439580Y-98785714D01*
X124439580Y-98785714D02*
X124344342Y-98738095D01*
X124344342Y-98738095D02*
X124106247Y-98738095D01*
X124106247Y-98738095D02*
X124011009Y-98785714D01*
X124011009Y-98785714D02*
X123963390Y-98833333D01*
X123963390Y-98833333D02*
X123915771Y-98928571D01*
X123915771Y-98928571D02*
X123915771Y-99119047D01*
X123915771Y-99119047D02*
X123963390Y-99214285D01*
X123963390Y-99214285D02*
X124011009Y-99261904D01*
X124011009Y-99261904D02*
X124106247Y-99309523D01*
X125733866Y-97000951D02*
X125733866Y-96239047D01*
X126114819Y-96619999D02*
X125352914Y-96619999D01*
X171609580Y-20642857D02*
X171657200Y-20690476D01*
X171657200Y-20690476D02*
X171704819Y-20833333D01*
X171704819Y-20833333D02*
X171704819Y-20928571D01*
X171704819Y-20928571D02*
X171657200Y-21071428D01*
X171657200Y-21071428D02*
X171561961Y-21166666D01*
X171561961Y-21166666D02*
X171466723Y-21214285D01*
X171466723Y-21214285D02*
X171276247Y-21261904D01*
X171276247Y-21261904D02*
X171133390Y-21261904D01*
X171133390Y-21261904D02*
X170942914Y-21214285D01*
X170942914Y-21214285D02*
X170847676Y-21166666D01*
X170847676Y-21166666D02*
X170752438Y-21071428D01*
X170752438Y-21071428D02*
X170704819Y-20928571D01*
X170704819Y-20928571D02*
X170704819Y-20833333D01*
X170704819Y-20833333D02*
X170752438Y-20690476D01*
X170752438Y-20690476D02*
X170800057Y-20642857D01*
X171704819Y-19690476D02*
X171704819Y-20261904D01*
X171704819Y-19976190D02*
X170704819Y-19976190D01*
X170704819Y-19976190D02*
X170847676Y-20071428D01*
X170847676Y-20071428D02*
X170942914Y-20166666D01*
X170942914Y-20166666D02*
X170990533Y-20261904D01*
X170704819Y-19357142D02*
X170704819Y-18690476D01*
X170704819Y-18690476D02*
X171704819Y-19119047D01*
X131609580Y-60642857D02*
X131657200Y-60690476D01*
X131657200Y-60690476D02*
X131704819Y-60833333D01*
X131704819Y-60833333D02*
X131704819Y-60928571D01*
X131704819Y-60928571D02*
X131657200Y-61071428D01*
X131657200Y-61071428D02*
X131561961Y-61166666D01*
X131561961Y-61166666D02*
X131466723Y-61214285D01*
X131466723Y-61214285D02*
X131276247Y-61261904D01*
X131276247Y-61261904D02*
X131133390Y-61261904D01*
X131133390Y-61261904D02*
X130942914Y-61214285D01*
X130942914Y-61214285D02*
X130847676Y-61166666D01*
X130847676Y-61166666D02*
X130752438Y-61071428D01*
X130752438Y-61071428D02*
X130704819Y-60928571D01*
X130704819Y-60928571D02*
X130704819Y-60833333D01*
X130704819Y-60833333D02*
X130752438Y-60690476D01*
X130752438Y-60690476D02*
X130800057Y-60642857D01*
X131704819Y-59690476D02*
X131704819Y-60261904D01*
X131704819Y-59976190D02*
X130704819Y-59976190D01*
X130704819Y-59976190D02*
X130847676Y-60071428D01*
X130847676Y-60071428D02*
X130942914Y-60166666D01*
X130942914Y-60166666D02*
X130990533Y-60261904D01*
X131133390Y-59119047D02*
X131085771Y-59214285D01*
X131085771Y-59214285D02*
X131038152Y-59261904D01*
X131038152Y-59261904D02*
X130942914Y-59309523D01*
X130942914Y-59309523D02*
X130895295Y-59309523D01*
X130895295Y-59309523D02*
X130800057Y-59261904D01*
X130800057Y-59261904D02*
X130752438Y-59214285D01*
X130752438Y-59214285D02*
X130704819Y-59119047D01*
X130704819Y-59119047D02*
X130704819Y-58928571D01*
X130704819Y-58928571D02*
X130752438Y-58833333D01*
X130752438Y-58833333D02*
X130800057Y-58785714D01*
X130800057Y-58785714D02*
X130895295Y-58738095D01*
X130895295Y-58738095D02*
X130942914Y-58738095D01*
X130942914Y-58738095D02*
X131038152Y-58785714D01*
X131038152Y-58785714D02*
X131085771Y-58833333D01*
X131085771Y-58833333D02*
X131133390Y-58928571D01*
X131133390Y-58928571D02*
X131133390Y-59119047D01*
X131133390Y-59119047D02*
X131181009Y-59214285D01*
X131181009Y-59214285D02*
X131228628Y-59261904D01*
X131228628Y-59261904D02*
X131323866Y-59309523D01*
X131323866Y-59309523D02*
X131514342Y-59309523D01*
X131514342Y-59309523D02*
X131609580Y-59261904D01*
X131609580Y-59261904D02*
X131657200Y-59214285D01*
X131657200Y-59214285D02*
X131704819Y-59119047D01*
X131704819Y-59119047D02*
X131704819Y-58928571D01*
X131704819Y-58928571D02*
X131657200Y-58833333D01*
X131657200Y-58833333D02*
X131609580Y-58785714D01*
X131609580Y-58785714D02*
X131514342Y-58738095D01*
X131514342Y-58738095D02*
X131323866Y-58738095D01*
X131323866Y-58738095D02*
X131228628Y-58785714D01*
X131228628Y-58785714D02*
X131181009Y-58833333D01*
X131181009Y-58833333D02*
X131133390Y-58928571D01*
X135109580Y-100642857D02*
X135157200Y-100690476D01*
X135157200Y-100690476D02*
X135204819Y-100833333D01*
X135204819Y-100833333D02*
X135204819Y-100928571D01*
X135204819Y-100928571D02*
X135157200Y-101071428D01*
X135157200Y-101071428D02*
X135061961Y-101166666D01*
X135061961Y-101166666D02*
X134966723Y-101214285D01*
X134966723Y-101214285D02*
X134776247Y-101261904D01*
X134776247Y-101261904D02*
X134633390Y-101261904D01*
X134633390Y-101261904D02*
X134442914Y-101214285D01*
X134442914Y-101214285D02*
X134347676Y-101166666D01*
X134347676Y-101166666D02*
X134252438Y-101071428D01*
X134252438Y-101071428D02*
X134204819Y-100928571D01*
X134204819Y-100928571D02*
X134204819Y-100833333D01*
X134204819Y-100833333D02*
X134252438Y-100690476D01*
X134252438Y-100690476D02*
X134300057Y-100642857D01*
X135204819Y-99690476D02*
X135204819Y-100261904D01*
X135204819Y-99976190D02*
X134204819Y-99976190D01*
X134204819Y-99976190D02*
X134347676Y-100071428D01*
X134347676Y-100071428D02*
X134442914Y-100166666D01*
X134442914Y-100166666D02*
X134490533Y-100261904D01*
X135204819Y-99214285D02*
X135204819Y-99023809D01*
X135204819Y-99023809D02*
X135157200Y-98928571D01*
X135157200Y-98928571D02*
X135109580Y-98880952D01*
X135109580Y-98880952D02*
X134966723Y-98785714D01*
X134966723Y-98785714D02*
X134776247Y-98738095D01*
X134776247Y-98738095D02*
X134395295Y-98738095D01*
X134395295Y-98738095D02*
X134300057Y-98785714D01*
X134300057Y-98785714D02*
X134252438Y-98833333D01*
X134252438Y-98833333D02*
X134204819Y-98928571D01*
X134204819Y-98928571D02*
X134204819Y-99119047D01*
X134204819Y-99119047D02*
X134252438Y-99214285D01*
X134252438Y-99214285D02*
X134300057Y-99261904D01*
X134300057Y-99261904D02*
X134395295Y-99309523D01*
X134395295Y-99309523D02*
X134633390Y-99309523D01*
X134633390Y-99309523D02*
X134728628Y-99261904D01*
X134728628Y-99261904D02*
X134776247Y-99214285D01*
X134776247Y-99214285D02*
X134823866Y-99119047D01*
X134823866Y-99119047D02*
X134823866Y-98928571D01*
X134823866Y-98928571D02*
X134776247Y-98833333D01*
X134776247Y-98833333D02*
X134728628Y-98785714D01*
X134728628Y-98785714D02*
X134633390Y-98738095D01*
X24261905Y-53454819D02*
X24261905Y-52454819D01*
X24261905Y-52454819D02*
X24500000Y-52454819D01*
X24500000Y-52454819D02*
X24642857Y-52502438D01*
X24642857Y-52502438D02*
X24738095Y-52597676D01*
X24738095Y-52597676D02*
X24785714Y-52692914D01*
X24785714Y-52692914D02*
X24833333Y-52883390D01*
X24833333Y-52883390D02*
X24833333Y-53026247D01*
X24833333Y-53026247D02*
X24785714Y-53216723D01*
X24785714Y-53216723D02*
X24738095Y-53311961D01*
X24738095Y-53311961D02*
X24642857Y-53407200D01*
X24642857Y-53407200D02*
X24500000Y-53454819D01*
X24500000Y-53454819D02*
X24261905Y-53454819D01*
X25785714Y-53454819D02*
X25214286Y-53454819D01*
X25500000Y-53454819D02*
X25500000Y-52454819D01*
X25500000Y-52454819D02*
X25404762Y-52597676D01*
X25404762Y-52597676D02*
X25309524Y-52692914D01*
X25309524Y-52692914D02*
X25214286Y-52740533D01*
X24261905Y-97454819D02*
X24261905Y-96454819D01*
X24261905Y-96454819D02*
X24500000Y-96454819D01*
X24500000Y-96454819D02*
X24642857Y-96502438D01*
X24642857Y-96502438D02*
X24738095Y-96597676D01*
X24738095Y-96597676D02*
X24785714Y-96692914D01*
X24785714Y-96692914D02*
X24833333Y-96883390D01*
X24833333Y-96883390D02*
X24833333Y-97026247D01*
X24833333Y-97026247D02*
X24785714Y-97216723D01*
X24785714Y-97216723D02*
X24738095Y-97311961D01*
X24738095Y-97311961D02*
X24642857Y-97407200D01*
X24642857Y-97407200D02*
X24500000Y-97454819D01*
X24500000Y-97454819D02*
X24261905Y-97454819D01*
X25214286Y-96550057D02*
X25261905Y-96502438D01*
X25261905Y-96502438D02*
X25357143Y-96454819D01*
X25357143Y-96454819D02*
X25595238Y-96454819D01*
X25595238Y-96454819D02*
X25690476Y-96502438D01*
X25690476Y-96502438D02*
X25738095Y-96550057D01*
X25738095Y-96550057D02*
X25785714Y-96645295D01*
X25785714Y-96645295D02*
X25785714Y-96740533D01*
X25785714Y-96740533D02*
X25738095Y-96883390D01*
X25738095Y-96883390D02*
X25166667Y-97454819D01*
X25166667Y-97454819D02*
X25785714Y-97454819D01*
X24261905Y-61454819D02*
X24261905Y-60454819D01*
X24261905Y-60454819D02*
X24500000Y-60454819D01*
X24500000Y-60454819D02*
X24642857Y-60502438D01*
X24642857Y-60502438D02*
X24738095Y-60597676D01*
X24738095Y-60597676D02*
X24785714Y-60692914D01*
X24785714Y-60692914D02*
X24833333Y-60883390D01*
X24833333Y-60883390D02*
X24833333Y-61026247D01*
X24833333Y-61026247D02*
X24785714Y-61216723D01*
X24785714Y-61216723D02*
X24738095Y-61311961D01*
X24738095Y-61311961D02*
X24642857Y-61407200D01*
X24642857Y-61407200D02*
X24500000Y-61454819D01*
X24500000Y-61454819D02*
X24261905Y-61454819D01*
X25166667Y-60454819D02*
X25785714Y-60454819D01*
X25785714Y-60454819D02*
X25452381Y-60835771D01*
X25452381Y-60835771D02*
X25595238Y-60835771D01*
X25595238Y-60835771D02*
X25690476Y-60883390D01*
X25690476Y-60883390D02*
X25738095Y-60931009D01*
X25738095Y-60931009D02*
X25785714Y-61026247D01*
X25785714Y-61026247D02*
X25785714Y-61264342D01*
X25785714Y-61264342D02*
X25738095Y-61359580D01*
X25738095Y-61359580D02*
X25690476Y-61407200D01*
X25690476Y-61407200D02*
X25595238Y-61454819D01*
X25595238Y-61454819D02*
X25309524Y-61454819D01*
X25309524Y-61454819D02*
X25214286Y-61407200D01*
X25214286Y-61407200D02*
X25166667Y-61359580D01*
X24261905Y-63454819D02*
X24261905Y-62454819D01*
X24261905Y-62454819D02*
X24500000Y-62454819D01*
X24500000Y-62454819D02*
X24642857Y-62502438D01*
X24642857Y-62502438D02*
X24738095Y-62597676D01*
X24738095Y-62597676D02*
X24785714Y-62692914D01*
X24785714Y-62692914D02*
X24833333Y-62883390D01*
X24833333Y-62883390D02*
X24833333Y-63026247D01*
X24833333Y-63026247D02*
X24785714Y-63216723D01*
X24785714Y-63216723D02*
X24738095Y-63311961D01*
X24738095Y-63311961D02*
X24642857Y-63407200D01*
X24642857Y-63407200D02*
X24500000Y-63454819D01*
X24500000Y-63454819D02*
X24261905Y-63454819D01*
X25690476Y-62788152D02*
X25690476Y-63454819D01*
X25452381Y-62407200D02*
X25214286Y-63121485D01*
X25214286Y-63121485D02*
X25833333Y-63121485D01*
X24261905Y-89454819D02*
X24261905Y-88454819D01*
X24261905Y-88454819D02*
X24500000Y-88454819D01*
X24500000Y-88454819D02*
X24642857Y-88502438D01*
X24642857Y-88502438D02*
X24738095Y-88597676D01*
X24738095Y-88597676D02*
X24785714Y-88692914D01*
X24785714Y-88692914D02*
X24833333Y-88883390D01*
X24833333Y-88883390D02*
X24833333Y-89026247D01*
X24833333Y-89026247D02*
X24785714Y-89216723D01*
X24785714Y-89216723D02*
X24738095Y-89311961D01*
X24738095Y-89311961D02*
X24642857Y-89407200D01*
X24642857Y-89407200D02*
X24500000Y-89454819D01*
X24500000Y-89454819D02*
X24261905Y-89454819D01*
X25738095Y-88454819D02*
X25261905Y-88454819D01*
X25261905Y-88454819D02*
X25214286Y-88931009D01*
X25214286Y-88931009D02*
X25261905Y-88883390D01*
X25261905Y-88883390D02*
X25357143Y-88835771D01*
X25357143Y-88835771D02*
X25595238Y-88835771D01*
X25595238Y-88835771D02*
X25690476Y-88883390D01*
X25690476Y-88883390D02*
X25738095Y-88931009D01*
X25738095Y-88931009D02*
X25785714Y-89026247D01*
X25785714Y-89026247D02*
X25785714Y-89264342D01*
X25785714Y-89264342D02*
X25738095Y-89359580D01*
X25738095Y-89359580D02*
X25690476Y-89407200D01*
X25690476Y-89407200D02*
X25595238Y-89454819D01*
X25595238Y-89454819D02*
X25357143Y-89454819D01*
X25357143Y-89454819D02*
X25261905Y-89407200D01*
X25261905Y-89407200D02*
X25214286Y-89359580D01*
X24261905Y-107454819D02*
X24261905Y-106454819D01*
X24261905Y-106454819D02*
X24500000Y-106454819D01*
X24500000Y-106454819D02*
X24642857Y-106502438D01*
X24642857Y-106502438D02*
X24738095Y-106597676D01*
X24738095Y-106597676D02*
X24785714Y-106692914D01*
X24785714Y-106692914D02*
X24833333Y-106883390D01*
X24833333Y-106883390D02*
X24833333Y-107026247D01*
X24833333Y-107026247D02*
X24785714Y-107216723D01*
X24785714Y-107216723D02*
X24738095Y-107311961D01*
X24738095Y-107311961D02*
X24642857Y-107407200D01*
X24642857Y-107407200D02*
X24500000Y-107454819D01*
X24500000Y-107454819D02*
X24261905Y-107454819D01*
X25690476Y-106454819D02*
X25500000Y-106454819D01*
X25500000Y-106454819D02*
X25404762Y-106502438D01*
X25404762Y-106502438D02*
X25357143Y-106550057D01*
X25357143Y-106550057D02*
X25261905Y-106692914D01*
X25261905Y-106692914D02*
X25214286Y-106883390D01*
X25214286Y-106883390D02*
X25214286Y-107264342D01*
X25214286Y-107264342D02*
X25261905Y-107359580D01*
X25261905Y-107359580D02*
X25309524Y-107407200D01*
X25309524Y-107407200D02*
X25404762Y-107454819D01*
X25404762Y-107454819D02*
X25595238Y-107454819D01*
X25595238Y-107454819D02*
X25690476Y-107407200D01*
X25690476Y-107407200D02*
X25738095Y-107359580D01*
X25738095Y-107359580D02*
X25785714Y-107264342D01*
X25785714Y-107264342D02*
X25785714Y-107026247D01*
X25785714Y-107026247D02*
X25738095Y-106931009D01*
X25738095Y-106931009D02*
X25690476Y-106883390D01*
X25690476Y-106883390D02*
X25595238Y-106835771D01*
X25595238Y-106835771D02*
X25404762Y-106835771D01*
X25404762Y-106835771D02*
X25309524Y-106883390D01*
X25309524Y-106883390D02*
X25261905Y-106931009D01*
X25261905Y-106931009D02*
X25214286Y-107026247D01*
X24261905Y-71454819D02*
X24261905Y-70454819D01*
X24261905Y-70454819D02*
X24500000Y-70454819D01*
X24500000Y-70454819D02*
X24642857Y-70502438D01*
X24642857Y-70502438D02*
X24738095Y-70597676D01*
X24738095Y-70597676D02*
X24785714Y-70692914D01*
X24785714Y-70692914D02*
X24833333Y-70883390D01*
X24833333Y-70883390D02*
X24833333Y-71026247D01*
X24833333Y-71026247D02*
X24785714Y-71216723D01*
X24785714Y-71216723D02*
X24738095Y-71311961D01*
X24738095Y-71311961D02*
X24642857Y-71407200D01*
X24642857Y-71407200D02*
X24500000Y-71454819D01*
X24500000Y-71454819D02*
X24261905Y-71454819D01*
X25166667Y-70454819D02*
X25833333Y-70454819D01*
X25833333Y-70454819D02*
X25404762Y-71454819D01*
X24261905Y-99454819D02*
X24261905Y-98454819D01*
X24261905Y-98454819D02*
X24500000Y-98454819D01*
X24500000Y-98454819D02*
X24642857Y-98502438D01*
X24642857Y-98502438D02*
X24738095Y-98597676D01*
X24738095Y-98597676D02*
X24785714Y-98692914D01*
X24785714Y-98692914D02*
X24833333Y-98883390D01*
X24833333Y-98883390D02*
X24833333Y-99026247D01*
X24833333Y-99026247D02*
X24785714Y-99216723D01*
X24785714Y-99216723D02*
X24738095Y-99311961D01*
X24738095Y-99311961D02*
X24642857Y-99407200D01*
X24642857Y-99407200D02*
X24500000Y-99454819D01*
X24500000Y-99454819D02*
X24261905Y-99454819D01*
X25404762Y-98883390D02*
X25309524Y-98835771D01*
X25309524Y-98835771D02*
X25261905Y-98788152D01*
X25261905Y-98788152D02*
X25214286Y-98692914D01*
X25214286Y-98692914D02*
X25214286Y-98645295D01*
X25214286Y-98645295D02*
X25261905Y-98550057D01*
X25261905Y-98550057D02*
X25309524Y-98502438D01*
X25309524Y-98502438D02*
X25404762Y-98454819D01*
X25404762Y-98454819D02*
X25595238Y-98454819D01*
X25595238Y-98454819D02*
X25690476Y-98502438D01*
X25690476Y-98502438D02*
X25738095Y-98550057D01*
X25738095Y-98550057D02*
X25785714Y-98645295D01*
X25785714Y-98645295D02*
X25785714Y-98692914D01*
X25785714Y-98692914D02*
X25738095Y-98788152D01*
X25738095Y-98788152D02*
X25690476Y-98835771D01*
X25690476Y-98835771D02*
X25595238Y-98883390D01*
X25595238Y-98883390D02*
X25404762Y-98883390D01*
X25404762Y-98883390D02*
X25309524Y-98931009D01*
X25309524Y-98931009D02*
X25261905Y-98978628D01*
X25261905Y-98978628D02*
X25214286Y-99073866D01*
X25214286Y-99073866D02*
X25214286Y-99264342D01*
X25214286Y-99264342D02*
X25261905Y-99359580D01*
X25261905Y-99359580D02*
X25309524Y-99407200D01*
X25309524Y-99407200D02*
X25404762Y-99454819D01*
X25404762Y-99454819D02*
X25595238Y-99454819D01*
X25595238Y-99454819D02*
X25690476Y-99407200D01*
X25690476Y-99407200D02*
X25738095Y-99359580D01*
X25738095Y-99359580D02*
X25785714Y-99264342D01*
X25785714Y-99264342D02*
X25785714Y-99073866D01*
X25785714Y-99073866D02*
X25738095Y-98978628D01*
X25738095Y-98978628D02*
X25690476Y-98931009D01*
X25690476Y-98931009D02*
X25595238Y-98883390D01*
X172261905Y-47304819D02*
X172261905Y-46304819D01*
X172261905Y-46304819D02*
X172500000Y-46304819D01*
X172500000Y-46304819D02*
X172642857Y-46352438D01*
X172642857Y-46352438D02*
X172738095Y-46447676D01*
X172738095Y-46447676D02*
X172785714Y-46542914D01*
X172785714Y-46542914D02*
X172833333Y-46733390D01*
X172833333Y-46733390D02*
X172833333Y-46876247D01*
X172833333Y-46876247D02*
X172785714Y-47066723D01*
X172785714Y-47066723D02*
X172738095Y-47161961D01*
X172738095Y-47161961D02*
X172642857Y-47257200D01*
X172642857Y-47257200D02*
X172500000Y-47304819D01*
X172500000Y-47304819D02*
X172261905Y-47304819D01*
X173309524Y-47304819D02*
X173500000Y-47304819D01*
X173500000Y-47304819D02*
X173595238Y-47257200D01*
X173595238Y-47257200D02*
X173642857Y-47209580D01*
X173642857Y-47209580D02*
X173738095Y-47066723D01*
X173738095Y-47066723D02*
X173785714Y-46876247D01*
X173785714Y-46876247D02*
X173785714Y-46495295D01*
X173785714Y-46495295D02*
X173738095Y-46400057D01*
X173738095Y-46400057D02*
X173690476Y-46352438D01*
X173690476Y-46352438D02*
X173595238Y-46304819D01*
X173595238Y-46304819D02*
X173404762Y-46304819D01*
X173404762Y-46304819D02*
X173309524Y-46352438D01*
X173309524Y-46352438D02*
X173261905Y-46400057D01*
X173261905Y-46400057D02*
X173214286Y-46495295D01*
X173214286Y-46495295D02*
X173214286Y-46733390D01*
X173214286Y-46733390D02*
X173261905Y-46828628D01*
X173261905Y-46828628D02*
X173309524Y-46876247D01*
X173309524Y-46876247D02*
X173404762Y-46923866D01*
X173404762Y-46923866D02*
X173595238Y-46923866D01*
X173595238Y-46923866D02*
X173690476Y-46876247D01*
X173690476Y-46876247D02*
X173738095Y-46828628D01*
X173738095Y-46828628D02*
X173785714Y-46733390D01*
X171785714Y-70304819D02*
X171785714Y-69304819D01*
X171785714Y-69304819D02*
X172023809Y-69304819D01*
X172023809Y-69304819D02*
X172166666Y-69352438D01*
X172166666Y-69352438D02*
X172261904Y-69447676D01*
X172261904Y-69447676D02*
X172309523Y-69542914D01*
X172309523Y-69542914D02*
X172357142Y-69733390D01*
X172357142Y-69733390D02*
X172357142Y-69876247D01*
X172357142Y-69876247D02*
X172309523Y-70066723D01*
X172309523Y-70066723D02*
X172261904Y-70161961D01*
X172261904Y-70161961D02*
X172166666Y-70257200D01*
X172166666Y-70257200D02*
X172023809Y-70304819D01*
X172023809Y-70304819D02*
X171785714Y-70304819D01*
X173309523Y-70304819D02*
X172738095Y-70304819D01*
X173023809Y-70304819D02*
X173023809Y-69304819D01*
X173023809Y-69304819D02*
X172928571Y-69447676D01*
X172928571Y-69447676D02*
X172833333Y-69542914D01*
X172833333Y-69542914D02*
X172738095Y-69590533D01*
X173928571Y-69304819D02*
X174023809Y-69304819D01*
X174023809Y-69304819D02*
X174119047Y-69352438D01*
X174119047Y-69352438D02*
X174166666Y-69400057D01*
X174166666Y-69400057D02*
X174214285Y-69495295D01*
X174214285Y-69495295D02*
X174261904Y-69685771D01*
X174261904Y-69685771D02*
X174261904Y-69923866D01*
X174261904Y-69923866D02*
X174214285Y-70114342D01*
X174214285Y-70114342D02*
X174166666Y-70209580D01*
X174166666Y-70209580D02*
X174119047Y-70257200D01*
X174119047Y-70257200D02*
X174023809Y-70304819D01*
X174023809Y-70304819D02*
X173928571Y-70304819D01*
X173928571Y-70304819D02*
X173833333Y-70257200D01*
X173833333Y-70257200D02*
X173785714Y-70209580D01*
X173785714Y-70209580D02*
X173738095Y-70114342D01*
X173738095Y-70114342D02*
X173690476Y-69923866D01*
X173690476Y-69923866D02*
X173690476Y-69685771D01*
X173690476Y-69685771D02*
X173738095Y-69495295D01*
X173738095Y-69495295D02*
X173785714Y-69400057D01*
X173785714Y-69400057D02*
X173833333Y-69352438D01*
X173833333Y-69352438D02*
X173928571Y-69304819D01*
X171785714Y-90604819D02*
X171785714Y-89604819D01*
X171785714Y-89604819D02*
X172023809Y-89604819D01*
X172023809Y-89604819D02*
X172166666Y-89652438D01*
X172166666Y-89652438D02*
X172261904Y-89747676D01*
X172261904Y-89747676D02*
X172309523Y-89842914D01*
X172309523Y-89842914D02*
X172357142Y-90033390D01*
X172357142Y-90033390D02*
X172357142Y-90176247D01*
X172357142Y-90176247D02*
X172309523Y-90366723D01*
X172309523Y-90366723D02*
X172261904Y-90461961D01*
X172261904Y-90461961D02*
X172166666Y-90557200D01*
X172166666Y-90557200D02*
X172023809Y-90604819D01*
X172023809Y-90604819D02*
X171785714Y-90604819D01*
X173309523Y-90604819D02*
X172738095Y-90604819D01*
X173023809Y-90604819D02*
X173023809Y-89604819D01*
X173023809Y-89604819D02*
X172928571Y-89747676D01*
X172928571Y-89747676D02*
X172833333Y-89842914D01*
X172833333Y-89842914D02*
X172738095Y-89890533D01*
X174261904Y-90604819D02*
X173690476Y-90604819D01*
X173976190Y-90604819D02*
X173976190Y-89604819D01*
X173976190Y-89604819D02*
X173880952Y-89747676D01*
X173880952Y-89747676D02*
X173785714Y-89842914D01*
X173785714Y-89842914D02*
X173690476Y-89890533D01*
X24011009Y-23711533D02*
X24011009Y-24044866D01*
X24534819Y-24044866D02*
X23534819Y-24044866D01*
X23534819Y-24044866D02*
X23534819Y-23568676D01*
X24534819Y-22663914D02*
X24534819Y-23235342D01*
X24534819Y-22949628D02*
X23534819Y-22949628D01*
X23534819Y-22949628D02*
X23677676Y-23044866D01*
X23677676Y-23044866D02*
X23772914Y-23140104D01*
X23772914Y-23140104D02*
X23820533Y-23235342D01*
X164666666Y-41011009D02*
X164333333Y-41011009D01*
X164333333Y-41534819D02*
X164333333Y-40534819D01*
X164333333Y-40534819D02*
X164809523Y-40534819D01*
X165142857Y-40630057D02*
X165190476Y-40582438D01*
X165190476Y-40582438D02*
X165285714Y-40534819D01*
X165285714Y-40534819D02*
X165523809Y-40534819D01*
X165523809Y-40534819D02*
X165619047Y-40582438D01*
X165619047Y-40582438D02*
X165666666Y-40630057D01*
X165666666Y-40630057D02*
X165714285Y-40725295D01*
X165714285Y-40725295D02*
X165714285Y-40820533D01*
X165714285Y-40820533D02*
X165666666Y-40963390D01*
X165666666Y-40963390D02*
X165095238Y-41534819D01*
X165095238Y-41534819D02*
X165714285Y-41534819D01*
X164666666Y-65011009D02*
X164333333Y-65011009D01*
X164333333Y-65534819D02*
X164333333Y-64534819D01*
X164333333Y-64534819D02*
X164809523Y-64534819D01*
X165095238Y-64534819D02*
X165714285Y-64534819D01*
X165714285Y-64534819D02*
X165380952Y-64915771D01*
X165380952Y-64915771D02*
X165523809Y-64915771D01*
X165523809Y-64915771D02*
X165619047Y-64963390D01*
X165619047Y-64963390D02*
X165666666Y-65011009D01*
X165666666Y-65011009D02*
X165714285Y-65106247D01*
X165714285Y-65106247D02*
X165714285Y-65344342D01*
X165714285Y-65344342D02*
X165666666Y-65439580D01*
X165666666Y-65439580D02*
X165619047Y-65487200D01*
X165619047Y-65487200D02*
X165523809Y-65534819D01*
X165523809Y-65534819D02*
X165238095Y-65534819D01*
X165238095Y-65534819D02*
X165142857Y-65487200D01*
X165142857Y-65487200D02*
X165095238Y-65439580D01*
X164639666Y-95562009D02*
X164306333Y-95562009D01*
X164306333Y-96085819D02*
X164306333Y-95085819D01*
X164306333Y-95085819D02*
X164782523Y-95085819D01*
X165592047Y-95419152D02*
X165592047Y-96085819D01*
X165353952Y-95038200D02*
X165115857Y-95752485D01*
X165115857Y-95752485D02*
X165734904Y-95752485D01*
X6666666Y-15500019D02*
X6666666Y-16214304D01*
X6666666Y-16214304D02*
X6619047Y-16357161D01*
X6619047Y-16357161D02*
X6523809Y-16452400D01*
X6523809Y-16452400D02*
X6380952Y-16500019D01*
X6380952Y-16500019D02*
X6285714Y-16500019D01*
X7666666Y-16500019D02*
X7095238Y-16500019D01*
X7380952Y-16500019D02*
X7380952Y-15500019D01*
X7380952Y-15500019D02*
X7285714Y-15642876D01*
X7285714Y-15642876D02*
X7190476Y-15738114D01*
X7190476Y-15738114D02*
X7095238Y-15785733D01*
X6666666Y-18631819D02*
X6666666Y-19346104D01*
X6666666Y-19346104D02*
X6619047Y-19488961D01*
X6619047Y-19488961D02*
X6523809Y-19584200D01*
X6523809Y-19584200D02*
X6380952Y-19631819D01*
X6380952Y-19631819D02*
X6285714Y-19631819D01*
X7095238Y-18727057D02*
X7142857Y-18679438D01*
X7142857Y-18679438D02*
X7238095Y-18631819D01*
X7238095Y-18631819D02*
X7476190Y-18631819D01*
X7476190Y-18631819D02*
X7571428Y-18679438D01*
X7571428Y-18679438D02*
X7619047Y-18727057D01*
X7619047Y-18727057D02*
X7666666Y-18822295D01*
X7666666Y-18822295D02*
X7666666Y-18917533D01*
X7666666Y-18917533D02*
X7619047Y-19060390D01*
X7619047Y-19060390D02*
X7047619Y-19631819D01*
X7047619Y-19631819D02*
X7666666Y-19631819D01*
X6666666Y-64121819D02*
X6666666Y-64836104D01*
X6666666Y-64836104D02*
X6619047Y-64978961D01*
X6619047Y-64978961D02*
X6523809Y-65074200D01*
X6523809Y-65074200D02*
X6380952Y-65121819D01*
X6380952Y-65121819D02*
X6285714Y-65121819D01*
X7619047Y-64121819D02*
X7142857Y-64121819D01*
X7142857Y-64121819D02*
X7095238Y-64598009D01*
X7095238Y-64598009D02*
X7142857Y-64550390D01*
X7142857Y-64550390D02*
X7238095Y-64502771D01*
X7238095Y-64502771D02*
X7476190Y-64502771D01*
X7476190Y-64502771D02*
X7571428Y-64550390D01*
X7571428Y-64550390D02*
X7619047Y-64598009D01*
X7619047Y-64598009D02*
X7666666Y-64693247D01*
X7666666Y-64693247D02*
X7666666Y-64931342D01*
X7666666Y-64931342D02*
X7619047Y-65026580D01*
X7619047Y-65026580D02*
X7571428Y-65074200D01*
X7571428Y-65074200D02*
X7476190Y-65121819D01*
X7476190Y-65121819D02*
X7238095Y-65121819D01*
X7238095Y-65121819D02*
X7142857Y-65074200D01*
X7142857Y-65074200D02*
X7095238Y-65026580D01*
X6666666Y-82121819D02*
X6666666Y-82836104D01*
X6666666Y-82836104D02*
X6619047Y-82978961D01*
X6619047Y-82978961D02*
X6523809Y-83074200D01*
X6523809Y-83074200D02*
X6380952Y-83121819D01*
X6380952Y-83121819D02*
X6285714Y-83121819D01*
X7571428Y-82121819D02*
X7380952Y-82121819D01*
X7380952Y-82121819D02*
X7285714Y-82169438D01*
X7285714Y-82169438D02*
X7238095Y-82217057D01*
X7238095Y-82217057D02*
X7142857Y-82359914D01*
X7142857Y-82359914D02*
X7095238Y-82550390D01*
X7095238Y-82550390D02*
X7095238Y-82931342D01*
X7095238Y-82931342D02*
X7142857Y-83026580D01*
X7142857Y-83026580D02*
X7190476Y-83074200D01*
X7190476Y-83074200D02*
X7285714Y-83121819D01*
X7285714Y-83121819D02*
X7476190Y-83121819D01*
X7476190Y-83121819D02*
X7571428Y-83074200D01*
X7571428Y-83074200D02*
X7619047Y-83026580D01*
X7619047Y-83026580D02*
X7666666Y-82931342D01*
X7666666Y-82931342D02*
X7666666Y-82693247D01*
X7666666Y-82693247D02*
X7619047Y-82598009D01*
X7619047Y-82598009D02*
X7571428Y-82550390D01*
X7571428Y-82550390D02*
X7476190Y-82502771D01*
X7476190Y-82502771D02*
X7285714Y-82502771D01*
X7285714Y-82502771D02*
X7190476Y-82550390D01*
X7190476Y-82550390D02*
X7142857Y-82598009D01*
X7142857Y-82598009D02*
X7095238Y-82693247D01*
X6666666Y-100121819D02*
X6666666Y-100836104D01*
X6666666Y-100836104D02*
X6619047Y-100978961D01*
X6619047Y-100978961D02*
X6523809Y-101074200D01*
X6523809Y-101074200D02*
X6380952Y-101121819D01*
X6380952Y-101121819D02*
X6285714Y-101121819D01*
X7047619Y-100121819D02*
X7714285Y-100121819D01*
X7714285Y-100121819D02*
X7285714Y-101121819D01*
X164833333Y-70754819D02*
X164500000Y-70278628D01*
X164261905Y-70754819D02*
X164261905Y-69754819D01*
X164261905Y-69754819D02*
X164642857Y-69754819D01*
X164642857Y-69754819D02*
X164738095Y-69802438D01*
X164738095Y-69802438D02*
X164785714Y-69850057D01*
X164785714Y-69850057D02*
X164833333Y-69945295D01*
X164833333Y-69945295D02*
X164833333Y-70088152D01*
X164833333Y-70088152D02*
X164785714Y-70183390D01*
X164785714Y-70183390D02*
X164738095Y-70231009D01*
X164738095Y-70231009D02*
X164642857Y-70278628D01*
X164642857Y-70278628D02*
X164261905Y-70278628D01*
X165214286Y-69850057D02*
X165261905Y-69802438D01*
X165261905Y-69802438D02*
X165357143Y-69754819D01*
X165357143Y-69754819D02*
X165595238Y-69754819D01*
X165595238Y-69754819D02*
X165690476Y-69802438D01*
X165690476Y-69802438D02*
X165738095Y-69850057D01*
X165738095Y-69850057D02*
X165785714Y-69945295D01*
X165785714Y-69945295D02*
X165785714Y-70040533D01*
X165785714Y-70040533D02*
X165738095Y-70183390D01*
X165738095Y-70183390D02*
X165166667Y-70754819D01*
X165166667Y-70754819D02*
X165785714Y-70754819D01*
X164833333Y-90154819D02*
X164500000Y-89678628D01*
X164261905Y-90154819D02*
X164261905Y-89154819D01*
X164261905Y-89154819D02*
X164642857Y-89154819D01*
X164642857Y-89154819D02*
X164738095Y-89202438D01*
X164738095Y-89202438D02*
X164785714Y-89250057D01*
X164785714Y-89250057D02*
X164833333Y-89345295D01*
X164833333Y-89345295D02*
X164833333Y-89488152D01*
X164833333Y-89488152D02*
X164785714Y-89583390D01*
X164785714Y-89583390D02*
X164738095Y-89631009D01*
X164738095Y-89631009D02*
X164642857Y-89678628D01*
X164642857Y-89678628D02*
X164261905Y-89678628D01*
X165166667Y-89154819D02*
X165785714Y-89154819D01*
X165785714Y-89154819D02*
X165452381Y-89535771D01*
X165452381Y-89535771D02*
X165595238Y-89535771D01*
X165595238Y-89535771D02*
X165690476Y-89583390D01*
X165690476Y-89583390D02*
X165738095Y-89631009D01*
X165738095Y-89631009D02*
X165785714Y-89726247D01*
X165785714Y-89726247D02*
X165785714Y-89964342D01*
X165785714Y-89964342D02*
X165738095Y-90059580D01*
X165738095Y-90059580D02*
X165690476Y-90107200D01*
X165690476Y-90107200D02*
X165595238Y-90154819D01*
X165595238Y-90154819D02*
X165309524Y-90154819D01*
X165309524Y-90154819D02*
X165214286Y-90107200D01*
X165214286Y-90107200D02*
X165166667Y-90059580D01*
X94954819Y-20761904D02*
X95764342Y-20761904D01*
X95764342Y-20761904D02*
X95859580Y-20714285D01*
X95859580Y-20714285D02*
X95907200Y-20666666D01*
X95907200Y-20666666D02*
X95954819Y-20571428D01*
X95954819Y-20571428D02*
X95954819Y-20380952D01*
X95954819Y-20380952D02*
X95907200Y-20285714D01*
X95907200Y-20285714D02*
X95859580Y-20238095D01*
X95859580Y-20238095D02*
X95764342Y-20190476D01*
X95764342Y-20190476D02*
X94954819Y-20190476D01*
X95954819Y-19190476D02*
X95954819Y-19761904D01*
X95954819Y-19476190D02*
X94954819Y-19476190D01*
X94954819Y-19476190D02*
X95097676Y-19571428D01*
X95097676Y-19571428D02*
X95192914Y-19666666D01*
X95192914Y-19666666D02*
X95240533Y-19761904D01*
X94954819Y-60761904D02*
X95764342Y-60761904D01*
X95764342Y-60761904D02*
X95859580Y-60714285D01*
X95859580Y-60714285D02*
X95907200Y-60666666D01*
X95907200Y-60666666D02*
X95954819Y-60571428D01*
X95954819Y-60571428D02*
X95954819Y-60380952D01*
X95954819Y-60380952D02*
X95907200Y-60285714D01*
X95907200Y-60285714D02*
X95859580Y-60238095D01*
X95859580Y-60238095D02*
X95764342Y-60190476D01*
X95764342Y-60190476D02*
X94954819Y-60190476D01*
X95050057Y-59761904D02*
X95002438Y-59714285D01*
X95002438Y-59714285D02*
X94954819Y-59619047D01*
X94954819Y-59619047D02*
X94954819Y-59380952D01*
X94954819Y-59380952D02*
X95002438Y-59285714D01*
X95002438Y-59285714D02*
X95050057Y-59238095D01*
X95050057Y-59238095D02*
X95145295Y-59190476D01*
X95145295Y-59190476D02*
X95240533Y-59190476D01*
X95240533Y-59190476D02*
X95383390Y-59238095D01*
X95383390Y-59238095D02*
X95954819Y-59809523D01*
X95954819Y-59809523D02*
X95954819Y-59190476D01*
X92804819Y-100761904D02*
X93614342Y-100761904D01*
X93614342Y-100761904D02*
X93709580Y-100714285D01*
X93709580Y-100714285D02*
X93757200Y-100666666D01*
X93757200Y-100666666D02*
X93804819Y-100571428D01*
X93804819Y-100571428D02*
X93804819Y-100380952D01*
X93804819Y-100380952D02*
X93757200Y-100285714D01*
X93757200Y-100285714D02*
X93709580Y-100238095D01*
X93709580Y-100238095D02*
X93614342Y-100190476D01*
X93614342Y-100190476D02*
X92804819Y-100190476D01*
X92804819Y-99809523D02*
X92804819Y-99190476D01*
X92804819Y-99190476D02*
X93185771Y-99523809D01*
X93185771Y-99523809D02*
X93185771Y-99380952D01*
X93185771Y-99380952D02*
X93233390Y-99285714D01*
X93233390Y-99285714D02*
X93281009Y-99238095D01*
X93281009Y-99238095D02*
X93376247Y-99190476D01*
X93376247Y-99190476D02*
X93614342Y-99190476D01*
X93614342Y-99190476D02*
X93709580Y-99238095D01*
X93709580Y-99238095D02*
X93757200Y-99285714D01*
X93757200Y-99285714D02*
X93804819Y-99380952D01*
X93804819Y-99380952D02*
X93804819Y-99666666D01*
X93804819Y-99666666D02*
X93757200Y-99761904D01*
X93757200Y-99761904D02*
X93709580Y-99809523D01*
X6666666Y-36500019D02*
X6666666Y-37214304D01*
X6666666Y-37214304D02*
X6619047Y-37357161D01*
X6619047Y-37357161D02*
X6523809Y-37452400D01*
X6523809Y-37452400D02*
X6380952Y-37500019D01*
X6380952Y-37500019D02*
X6285714Y-37500019D01*
X7571428Y-36833352D02*
X7571428Y-37500019D01*
X7333333Y-36452400D02*
X7095238Y-37166685D01*
X7095238Y-37166685D02*
X7714285Y-37166685D01*
X134954819Y-20761904D02*
X135764342Y-20761904D01*
X135764342Y-20761904D02*
X135859580Y-20714285D01*
X135859580Y-20714285D02*
X135907200Y-20666666D01*
X135907200Y-20666666D02*
X135954819Y-20571428D01*
X135954819Y-20571428D02*
X135954819Y-20380952D01*
X135954819Y-20380952D02*
X135907200Y-20285714D01*
X135907200Y-20285714D02*
X135859580Y-20238095D01*
X135859580Y-20238095D02*
X135764342Y-20190476D01*
X135764342Y-20190476D02*
X134954819Y-20190476D01*
X135288152Y-19285714D02*
X135954819Y-19285714D01*
X134907200Y-19523809D02*
X135621485Y-19761904D01*
X135621485Y-19761904D02*
X135621485Y-19142857D01*
X164833333Y-47754819D02*
X164500000Y-47278628D01*
X164261905Y-47754819D02*
X164261905Y-46754819D01*
X164261905Y-46754819D02*
X164642857Y-46754819D01*
X164642857Y-46754819D02*
X164738095Y-46802438D01*
X164738095Y-46802438D02*
X164785714Y-46850057D01*
X164785714Y-46850057D02*
X164833333Y-46945295D01*
X164833333Y-46945295D02*
X164833333Y-47088152D01*
X164833333Y-47088152D02*
X164785714Y-47183390D01*
X164785714Y-47183390D02*
X164738095Y-47231009D01*
X164738095Y-47231009D02*
X164642857Y-47278628D01*
X164642857Y-47278628D02*
X164261905Y-47278628D01*
X165785714Y-47754819D02*
X165214286Y-47754819D01*
X165500000Y-47754819D02*
X165500000Y-46754819D01*
X165500000Y-46754819D02*
X165404762Y-46897676D01*
X165404762Y-46897676D02*
X165309524Y-46992914D01*
X165309524Y-46992914D02*
X165214286Y-47040533D01*
X182842819Y-62797333D02*
X183557104Y-62797333D01*
X183557104Y-62797333D02*
X183699961Y-62844952D01*
X183699961Y-62844952D02*
X183795200Y-62940190D01*
X183795200Y-62940190D02*
X183842819Y-63083047D01*
X183842819Y-63083047D02*
X183842819Y-63178285D01*
X183271390Y-62178285D02*
X183223771Y-62273523D01*
X183223771Y-62273523D02*
X183176152Y-62321142D01*
X183176152Y-62321142D02*
X183080914Y-62368761D01*
X183080914Y-62368761D02*
X183033295Y-62368761D01*
X183033295Y-62368761D02*
X182938057Y-62321142D01*
X182938057Y-62321142D02*
X182890438Y-62273523D01*
X182890438Y-62273523D02*
X182842819Y-62178285D01*
X182842819Y-62178285D02*
X182842819Y-61987809D01*
X182842819Y-61987809D02*
X182890438Y-61892571D01*
X182890438Y-61892571D02*
X182938057Y-61844952D01*
X182938057Y-61844952D02*
X183033295Y-61797333D01*
X183033295Y-61797333D02*
X183080914Y-61797333D01*
X183080914Y-61797333D02*
X183176152Y-61844952D01*
X183176152Y-61844952D02*
X183223771Y-61892571D01*
X183223771Y-61892571D02*
X183271390Y-61987809D01*
X183271390Y-61987809D02*
X183271390Y-62178285D01*
X183271390Y-62178285D02*
X183319009Y-62273523D01*
X183319009Y-62273523D02*
X183366628Y-62321142D01*
X183366628Y-62321142D02*
X183461866Y-62368761D01*
X183461866Y-62368761D02*
X183652342Y-62368761D01*
X183652342Y-62368761D02*
X183747580Y-62321142D01*
X183747580Y-62321142D02*
X183795200Y-62273523D01*
X183795200Y-62273523D02*
X183842819Y-62178285D01*
X183842819Y-62178285D02*
X183842819Y-61987809D01*
X183842819Y-61987809D02*
X183795200Y-61892571D01*
X183795200Y-61892571D02*
X183747580Y-61844952D01*
X183747580Y-61844952D02*
X183652342Y-61797333D01*
X183652342Y-61797333D02*
X183461866Y-61797333D01*
X183461866Y-61797333D02*
X183366628Y-61844952D01*
X183366628Y-61844952D02*
X183319009Y-61892571D01*
X183319009Y-61892571D02*
X183271390Y-61987809D01*
X6666666Y-28500019D02*
X6666666Y-29214304D01*
X6666666Y-29214304D02*
X6619047Y-29357161D01*
X6619047Y-29357161D02*
X6523809Y-29452400D01*
X6523809Y-29452400D02*
X6380952Y-29500019D01*
X6380952Y-29500019D02*
X6285714Y-29500019D01*
X7047619Y-28500019D02*
X7666666Y-28500019D01*
X7666666Y-28500019D02*
X7333333Y-28880971D01*
X7333333Y-28880971D02*
X7476190Y-28880971D01*
X7476190Y-28880971D02*
X7571428Y-28928590D01*
X7571428Y-28928590D02*
X7619047Y-28976209D01*
X7619047Y-28976209D02*
X7666666Y-29071447D01*
X7666666Y-29071447D02*
X7666666Y-29309542D01*
X7666666Y-29309542D02*
X7619047Y-29404780D01*
X7619047Y-29404780D02*
X7571428Y-29452400D01*
X7571428Y-29452400D02*
X7476190Y-29500019D01*
X7476190Y-29500019D02*
X7190476Y-29500019D01*
X7190476Y-29500019D02*
X7095238Y-29452400D01*
X7095238Y-29452400D02*
X7047619Y-29404780D01*
X195166666Y-7637819D02*
X194833333Y-7161628D01*
X194595238Y-7637819D02*
X194595238Y-6637819D01*
X194595238Y-6637819D02*
X194976190Y-6637819D01*
X194976190Y-6637819D02*
X195071428Y-6685438D01*
X195071428Y-6685438D02*
X195119047Y-6733057D01*
X195119047Y-6733057D02*
X195166666Y-6828295D01*
X195166666Y-6828295D02*
X195166666Y-6971152D01*
X195166666Y-6971152D02*
X195119047Y-7066390D01*
X195119047Y-7066390D02*
X195071428Y-7114009D01*
X195071428Y-7114009D02*
X194976190Y-7161628D01*
X194976190Y-7161628D02*
X194595238Y-7161628D01*
X195595238Y-7114009D02*
X195928571Y-7114009D01*
X196071428Y-7637819D02*
X195595238Y-7637819D01*
X195595238Y-7637819D02*
X195595238Y-6637819D01*
X195595238Y-6637819D02*
X196071428Y-6637819D01*
X196833333Y-7114009D02*
X196500000Y-7114009D01*
X196500000Y-7637819D02*
X196500000Y-6637819D01*
X196500000Y-6637819D02*
X196976190Y-6637819D01*
X197500000Y-6637819D02*
X197500000Y-6875914D01*
X197261905Y-6780676D02*
X197500000Y-6875914D01*
X197500000Y-6875914D02*
X197738095Y-6780676D01*
X197357143Y-7066390D02*
X197500000Y-6875914D01*
X197500000Y-6875914D02*
X197642857Y-7066390D01*
X198261905Y-6637819D02*
X198261905Y-6875914D01*
X198023810Y-6780676D02*
X198261905Y-6875914D01*
X198261905Y-6875914D02*
X198500000Y-6780676D01*
X198119048Y-7066390D02*
X198261905Y-6875914D01*
X198261905Y-6875914D02*
X198404762Y-7066390D01*
X2166666Y-7637819D02*
X1833333Y-7161628D01*
X1595238Y-7637819D02*
X1595238Y-6637819D01*
X1595238Y-6637819D02*
X1976190Y-6637819D01*
X1976190Y-6637819D02*
X2071428Y-6685438D01*
X2071428Y-6685438D02*
X2119047Y-6733057D01*
X2119047Y-6733057D02*
X2166666Y-6828295D01*
X2166666Y-6828295D02*
X2166666Y-6971152D01*
X2166666Y-6971152D02*
X2119047Y-7066390D01*
X2119047Y-7066390D02*
X2071428Y-7114009D01*
X2071428Y-7114009D02*
X1976190Y-7161628D01*
X1976190Y-7161628D02*
X1595238Y-7161628D01*
X2595238Y-7114009D02*
X2928571Y-7114009D01*
X3071428Y-7637819D02*
X2595238Y-7637819D01*
X2595238Y-7637819D02*
X2595238Y-6637819D01*
X2595238Y-6637819D02*
X3071428Y-6637819D01*
X3833333Y-7114009D02*
X3500000Y-7114009D01*
X3500000Y-7637819D02*
X3500000Y-6637819D01*
X3500000Y-6637819D02*
X3976190Y-6637819D01*
X4500000Y-6637819D02*
X4500000Y-6875914D01*
X4261905Y-6780676D02*
X4500000Y-6875914D01*
X4500000Y-6875914D02*
X4738095Y-6780676D01*
X4357143Y-7066390D02*
X4500000Y-6875914D01*
X4500000Y-6875914D02*
X4642857Y-7066390D01*
X5261905Y-6637819D02*
X5261905Y-6875914D01*
X5023810Y-6780676D02*
X5261905Y-6875914D01*
X5261905Y-6875914D02*
X5500000Y-6780676D01*
X5119048Y-7066390D02*
X5261905Y-6875914D01*
X5261905Y-6875914D02*
X5404762Y-7066390D01*
X2166666Y-120637819D02*
X1833333Y-120161628D01*
X1595238Y-120637819D02*
X1595238Y-119637819D01*
X1595238Y-119637819D02*
X1976190Y-119637819D01*
X1976190Y-119637819D02*
X2071428Y-119685438D01*
X2071428Y-119685438D02*
X2119047Y-119733057D01*
X2119047Y-119733057D02*
X2166666Y-119828295D01*
X2166666Y-119828295D02*
X2166666Y-119971152D01*
X2166666Y-119971152D02*
X2119047Y-120066390D01*
X2119047Y-120066390D02*
X2071428Y-120114009D01*
X2071428Y-120114009D02*
X1976190Y-120161628D01*
X1976190Y-120161628D02*
X1595238Y-120161628D01*
X2595238Y-120114009D02*
X2928571Y-120114009D01*
X3071428Y-120637819D02*
X2595238Y-120637819D01*
X2595238Y-120637819D02*
X2595238Y-119637819D01*
X2595238Y-119637819D02*
X3071428Y-119637819D01*
X3833333Y-120114009D02*
X3500000Y-120114009D01*
X3500000Y-120637819D02*
X3500000Y-119637819D01*
X3500000Y-119637819D02*
X3976190Y-119637819D01*
X4500000Y-119637819D02*
X4500000Y-119875914D01*
X4261905Y-119780676D02*
X4500000Y-119875914D01*
X4500000Y-119875914D02*
X4738095Y-119780676D01*
X4357143Y-120066390D02*
X4500000Y-119875914D01*
X4500000Y-119875914D02*
X4642857Y-120066390D01*
X5261905Y-119637819D02*
X5261905Y-119875914D01*
X5023810Y-119780676D02*
X5261905Y-119875914D01*
X5261905Y-119875914D02*
X5500000Y-119780676D01*
X5119048Y-120066390D02*
X5261905Y-119875914D01*
X5261905Y-119875914D02*
X5404762Y-120066390D01*
X195166666Y-120637819D02*
X194833333Y-120161628D01*
X194595238Y-120637819D02*
X194595238Y-119637819D01*
X194595238Y-119637819D02*
X194976190Y-119637819D01*
X194976190Y-119637819D02*
X195071428Y-119685438D01*
X195071428Y-119685438D02*
X195119047Y-119733057D01*
X195119047Y-119733057D02*
X195166666Y-119828295D01*
X195166666Y-119828295D02*
X195166666Y-119971152D01*
X195166666Y-119971152D02*
X195119047Y-120066390D01*
X195119047Y-120066390D02*
X195071428Y-120114009D01*
X195071428Y-120114009D02*
X194976190Y-120161628D01*
X194976190Y-120161628D02*
X194595238Y-120161628D01*
X195595238Y-120114009D02*
X195928571Y-120114009D01*
X196071428Y-120637819D02*
X195595238Y-120637819D01*
X195595238Y-120637819D02*
X195595238Y-119637819D01*
X195595238Y-119637819D02*
X196071428Y-119637819D01*
X196833333Y-120114009D02*
X196500000Y-120114009D01*
X196500000Y-120637819D02*
X196500000Y-119637819D01*
X196500000Y-119637819D02*
X196976190Y-119637819D01*
X197500000Y-119637819D02*
X197500000Y-119875914D01*
X197261905Y-119780676D02*
X197500000Y-119875914D01*
X197500000Y-119875914D02*
X197738095Y-119780676D01*
X197357143Y-120066390D02*
X197500000Y-119875914D01*
X197500000Y-119875914D02*
X197642857Y-120066390D01*
X198261905Y-119637819D02*
X198261905Y-119875914D01*
X198023810Y-119780676D02*
X198261905Y-119875914D01*
X198261905Y-119875914D02*
X198500000Y-119780676D01*
X198119048Y-120066390D02*
X198261905Y-119875914D01*
X198261905Y-119875914D02*
X198404762Y-120066390D01*
X64000000Y-10450000D02*
X55450000Y-10450000D01*
X74550000Y-28000000D02*
X73000000Y-29550000D01*
X66000000Y-29550000D02*
X73000000Y-29550000D01*
X55450000Y-10450000D02*
X55450000Y-28000000D01*
X66000000Y-10450000D02*
X74550000Y-10450000D01*
X57000000Y-29550000D02*
X55450000Y-28000000D01*
X64000000Y-29550000D02*
X57000000Y-29550000D01*
X74550000Y-10450000D02*
X74550000Y-28000000D01*
D11*
X81640000Y-21910000D02*
X81640000Y-17330000D01*
X80880000Y-22670000D02*
X80090000Y-22670000D01*
X77070000Y-22670000D02*
X77860000Y-22670000D01*
X81640000Y-17330000D02*
X80090000Y-17330000D01*
X76310000Y-17330000D02*
X76310000Y-21910000D01*
X80880000Y-22670000D02*
X81640000Y-21910000D01*
X76310000Y-21910000D02*
X77070000Y-22670000D01*
X76310000Y-17330000D02*
X77860000Y-17330000D01*
X83980000Y-19000000D02*
X83980000Y-21000000D01*
X86020000Y-21000000D02*
X86020000Y-19000000D01*
D10*
X57000000Y-69550000D02*
X55450000Y-68000000D01*
X66000000Y-69550000D02*
X73000000Y-69550000D01*
X64000000Y-50450000D02*
X55450000Y-50450000D01*
X64000000Y-69550000D02*
X57000000Y-69550000D01*
X74550000Y-50450000D02*
X74550000Y-68000000D01*
X55450000Y-50450000D02*
X55450000Y-68000000D01*
X74550000Y-68000000D02*
X73000000Y-69550000D01*
X66000000Y-50450000D02*
X74550000Y-50450000D01*
X64000000Y-90450000D02*
X55450000Y-90450000D01*
X74550000Y-90450000D02*
X74550000Y-108000000D01*
X66000000Y-90450000D02*
X74550000Y-90450000D01*
X55450000Y-90450000D02*
X55450000Y-108000000D01*
X66000000Y-109550000D02*
X73000000Y-109550000D01*
X74550000Y-108000000D02*
X73000000Y-109550000D01*
X57000000Y-109550000D02*
X55450000Y-108000000D01*
X64000000Y-109550000D02*
X57000000Y-109550000D01*
D11*
X81640000Y-57330000D02*
X80090000Y-57330000D01*
X76310000Y-61910000D02*
X77070000Y-62670000D01*
X77070000Y-62670000D02*
X77860000Y-62670000D01*
X76310000Y-57330000D02*
X76310000Y-61910000D01*
X80880000Y-62670000D02*
X81640000Y-61910000D01*
X81640000Y-61910000D02*
X81640000Y-57330000D01*
X76310000Y-57330000D02*
X77860000Y-57330000D01*
X80880000Y-62670000D02*
X80090000Y-62670000D01*
X76310000Y-101910000D02*
X77070000Y-102670000D01*
X80880000Y-102670000D02*
X81640000Y-101910000D01*
X81640000Y-97330000D02*
X80090000Y-97330000D01*
X76310000Y-97330000D02*
X77860000Y-97330000D01*
X77070000Y-102670000D02*
X77860000Y-102670000D01*
X80880000Y-102670000D02*
X80090000Y-102670000D01*
X76310000Y-97330000D02*
X76310000Y-101910000D01*
X81640000Y-101910000D02*
X81640000Y-97330000D01*
X86020000Y-61000000D02*
X86020000Y-59000000D01*
X83980000Y-59000000D02*
X83980000Y-61000000D01*
X86020000Y-101000000D02*
X86020000Y-99000000D01*
X83980000Y-99000000D02*
X83980000Y-101000000D01*
X123300000Y-22540000D02*
X122540000Y-23300000D01*
X122540000Y-23300000D02*
X121120000Y-23300000D01*
X117460000Y-23300000D02*
X116700000Y-22540000D01*
X123300000Y-16700000D02*
X121120000Y-16700000D01*
X116700000Y-22540000D02*
X116700000Y-16700000D01*
X116700000Y-16700000D02*
X118880000Y-16700000D01*
X123300000Y-16700000D02*
X123300000Y-22540000D01*
X117460000Y-23300000D02*
X118880000Y-23300000D01*
X163300000Y-16700000D02*
X163300000Y-22540000D01*
X157460000Y-23300000D02*
X158880000Y-23300000D01*
X163300000Y-22540000D02*
X162540000Y-23300000D01*
X163300000Y-16700000D02*
X161120000Y-16700000D01*
X156700000Y-16700000D02*
X158880000Y-16700000D01*
X162540000Y-23300000D02*
X161120000Y-23300000D01*
X156700000Y-22540000D02*
X156700000Y-16700000D01*
X157460000Y-23300000D02*
X156700000Y-22540000D01*
X122540000Y-63300000D02*
X121120000Y-63300000D01*
X123300000Y-62540000D02*
X122540000Y-63300000D01*
X117460000Y-63300000D02*
X118880000Y-63300000D01*
X123300000Y-56700000D02*
X123300000Y-62540000D01*
X116700000Y-56700000D02*
X118880000Y-56700000D01*
X123300000Y-56700000D02*
X121120000Y-56700000D01*
X116700000Y-62540000D02*
X116700000Y-56700000D01*
X117460000Y-63300000D02*
X116700000Y-62540000D01*
X116700000Y-103300000D02*
X116700000Y-97460000D01*
X117460000Y-96700000D02*
X118880000Y-96700000D01*
X123300000Y-103300000D02*
X121120000Y-103300000D01*
X123300000Y-97460000D02*
X123300000Y-103300000D01*
X116700000Y-103300000D02*
X118880000Y-103300000D01*
X122540000Y-96700000D02*
X121120000Y-96700000D01*
X122540000Y-96700000D02*
X123300000Y-97460000D01*
X116700000Y-97460000D02*
X117460000Y-96700000D01*
X166070000Y-22670000D02*
X166860000Y-22670000D01*
X169880000Y-22670000D02*
X170640000Y-21910000D01*
X170640000Y-17330000D02*
X169090000Y-17330000D01*
X169880000Y-22670000D02*
X169090000Y-22670000D01*
X165310000Y-17330000D02*
X165310000Y-21910000D01*
X165310000Y-17330000D02*
X166860000Y-17330000D01*
X170640000Y-21910000D02*
X170640000Y-17330000D01*
X165310000Y-21910000D02*
X166070000Y-22670000D01*
X129880000Y-62670000D02*
X129090000Y-62670000D01*
X130640000Y-61910000D02*
X130640000Y-57330000D01*
X125310000Y-57330000D02*
X125310000Y-61910000D01*
X125310000Y-57330000D02*
X126860000Y-57330000D01*
X125310000Y-61910000D02*
X126070000Y-62670000D01*
X126070000Y-62670000D02*
X126860000Y-62670000D01*
X130640000Y-57330000D02*
X129090000Y-57330000D01*
X129880000Y-62670000D02*
X130640000Y-61910000D01*
X125360000Y-102670000D02*
X126910000Y-102670000D01*
X130690000Y-102670000D02*
X130690000Y-98090000D01*
X129930000Y-97330000D02*
X129140000Y-97330000D01*
X125360000Y-98090000D02*
X125360000Y-102670000D01*
X130690000Y-98090000D02*
X129930000Y-97330000D01*
X126120000Y-97330000D02*
X126910000Y-97330000D01*
X126120000Y-97330000D02*
X125360000Y-98090000D01*
X130690000Y-102670000D02*
X129140000Y-102670000D01*
X174020000Y-21000000D02*
X174020000Y-19000000D01*
X171980000Y-19000000D02*
X171980000Y-21000000D01*
X134020000Y-61000000D02*
X134020000Y-59000000D01*
X131980000Y-59000000D02*
X131980000Y-61000000D01*
X134020000Y-101000000D02*
X134020000Y-99000000D01*
X131980000Y-99000000D02*
X131980000Y-101000000D01*
X28550000Y-52150000D02*
X22850000Y-52150000D01*
X28550000Y-47850000D02*
X22850000Y-47850000D01*
X28550000Y-52150000D02*
X28550000Y-47850000D01*
X28550000Y-91850000D02*
X22850000Y-91850000D01*
X28550000Y-96150000D02*
X22850000Y-96150000D01*
X28550000Y-96150000D02*
X28550000Y-91850000D01*
X28550000Y-60150000D02*
X28550000Y-55850000D01*
X28550000Y-60150000D02*
X22850000Y-60150000D01*
X28550000Y-55850000D02*
X22850000Y-55850000D01*
X21450000Y-68150000D02*
X27150000Y-68150000D01*
X21450000Y-63850000D02*
X21450000Y-68150000D01*
X21450000Y-63850000D02*
X27150000Y-63850000D01*
X28550000Y-88150000D02*
X28550000Y-83850000D01*
X28550000Y-88150000D02*
X22850000Y-88150000D01*
X28550000Y-83850000D02*
X22850000Y-83850000D01*
X21450000Y-112150000D02*
X27150000Y-112150000D01*
X21450000Y-107850000D02*
X27150000Y-107850000D01*
X21450000Y-107850000D02*
X21450000Y-112150000D01*
X21450000Y-71850000D02*
X21450000Y-76150000D01*
X21450000Y-71850000D02*
X27150000Y-71850000D01*
X21450000Y-76150000D02*
X27150000Y-76150000D01*
X21450000Y-99850000D02*
X21450000Y-104150000D01*
X21450000Y-104150000D02*
X27150000Y-104150000D01*
X21450000Y-99850000D02*
X27150000Y-99850000D01*
X176100000Y-44050000D02*
X171400000Y-44050000D01*
X176100000Y-45950000D02*
X171400000Y-45950000D01*
X176100000Y-45950000D02*
X176100000Y-44050000D01*
X176100000Y-68950000D02*
X171400000Y-68950000D01*
X176100000Y-67050000D02*
X171400000Y-67050000D01*
X176100000Y-68950000D02*
X176100000Y-67050000D01*
X169900000Y-91050000D02*
X174600000Y-91050000D01*
X169900000Y-92950000D02*
X174600000Y-92950000D01*
X169900000Y-91050000D02*
X169900000Y-92950000D01*
X21500000Y-11378200D02*
X16500000Y-11378200D01*
X22500000Y-20128200D02*
X22500000Y-10378200D01*
X16500000Y-35378200D02*
X16500000Y-24878200D01*
X21500000Y-24628200D02*
X21500000Y-12878200D01*
X15500000Y-20128200D02*
X15500000Y-10378200D01*
X22500000Y-36378200D02*
X15500000Y-36378200D01*
X16500000Y-24878200D02*
X16500000Y-12628200D01*
X16500000Y-12628200D02*
X16500000Y-11378200D01*
X22500000Y-36378200D02*
X22500000Y-35378200D01*
X22500000Y-20128200D02*
X15500000Y-20128200D01*
X15500000Y-35378200D02*
X15500000Y-26628200D01*
X19000000Y-26628200D02*
X19000000Y-20128200D01*
X22500000Y-10378200D02*
X15500000Y-10378200D01*
X22500000Y-35378200D02*
X22500000Y-26628200D01*
X21500000Y-35378200D02*
X21500000Y-24628200D01*
X22500000Y-26628200D02*
X15500000Y-26628200D01*
X21500000Y-35378200D02*
X16500000Y-35378200D01*
X21500000Y-12878200D02*
X21500000Y-11378200D01*
X15500000Y-36378200D02*
X15500000Y-35378200D01*
X168250000Y-39500000D02*
X178000000Y-39500000D01*
X168250000Y-39500000D02*
X168250000Y-32500000D01*
X175500000Y-38500000D02*
X177000000Y-38500000D01*
X153000000Y-38500000D02*
X153000000Y-33500000D01*
X177000000Y-38500000D02*
X177000000Y-33500000D01*
X168250000Y-32500000D02*
X178000000Y-32500000D01*
X161750000Y-36000000D02*
X168250000Y-36000000D01*
X153000000Y-38500000D02*
X163750000Y-38500000D01*
X161750000Y-39500000D02*
X161750000Y-32500000D01*
X152000000Y-32500000D02*
X153000000Y-32500000D01*
X152000000Y-39500000D02*
X153000000Y-39500000D01*
X175750000Y-33500000D02*
X177000000Y-33500000D01*
X163500000Y-33500000D02*
X175750000Y-33500000D01*
X153000000Y-39500000D02*
X161750000Y-39500000D01*
X152000000Y-39500000D02*
X152000000Y-32500000D01*
X153000000Y-32500000D02*
X161750000Y-32500000D01*
X163750000Y-38500000D02*
X175500000Y-38500000D01*
X178000000Y-39500000D02*
X178000000Y-32500000D01*
X153000000Y-33500000D02*
X163500000Y-33500000D01*
X178000000Y-63500000D02*
X178000000Y-56500000D01*
X163500000Y-57500000D02*
X175750000Y-57500000D01*
X161750000Y-63500000D02*
X161750000Y-56500000D01*
X153000000Y-62500000D02*
X163750000Y-62500000D01*
X153000000Y-57500000D02*
X163500000Y-57500000D01*
X168250000Y-56500000D02*
X178000000Y-56500000D01*
X152000000Y-56500000D02*
X153000000Y-56500000D01*
X175750000Y-57500000D02*
X177000000Y-57500000D01*
X175500000Y-62500000D02*
X177000000Y-62500000D01*
X168250000Y-63500000D02*
X178000000Y-63500000D01*
X153000000Y-56500000D02*
X161750000Y-56500000D01*
X152000000Y-63500000D02*
X153000000Y-63500000D01*
X177000000Y-62500000D02*
X177000000Y-57500000D01*
X163750000Y-62500000D02*
X175500000Y-62500000D01*
X153000000Y-63500000D02*
X161750000Y-63500000D01*
X161750000Y-60000000D02*
X168250000Y-60000000D01*
X168250000Y-63500000D02*
X168250000Y-56500000D01*
X152000000Y-63500000D02*
X152000000Y-56500000D01*
X153000000Y-62500000D02*
X153000000Y-57500000D01*
X177000000Y-102500000D02*
X177000000Y-97500000D01*
X152000000Y-103500000D02*
X153000000Y-103500000D01*
X152000000Y-96500000D02*
X153000000Y-96500000D01*
X153000000Y-97500000D02*
X163500000Y-97500000D01*
X152000000Y-103500000D02*
X152000000Y-96500000D01*
X153000000Y-96500000D02*
X161750000Y-96500000D01*
X175500000Y-102500000D02*
X177000000Y-102500000D01*
X168250000Y-103500000D02*
X178000000Y-103500000D01*
X153000000Y-102500000D02*
X153000000Y-97500000D01*
X161750000Y-103500000D02*
X161750000Y-96500000D01*
X175750000Y-97500000D02*
X177000000Y-97500000D01*
X178000000Y-103500000D02*
X178000000Y-96500000D01*
X163500000Y-97500000D02*
X175750000Y-97500000D01*
X163750000Y-102500000D02*
X175500000Y-102500000D01*
X161750000Y-100000000D02*
X168250000Y-100000000D01*
X153000000Y-102500000D02*
X163750000Y-102500000D01*
X153000000Y-103500000D02*
X161750000Y-103500000D01*
X168250000Y-103500000D02*
X168250000Y-96500000D01*
X168250000Y-96500000D02*
X178000000Y-96500000D01*
D10*
X5540000Y-12553200D02*
X8460000Y-12553200D01*
X5540000Y-14203200D02*
X8490000Y-14203200D01*
X5540000Y-20553200D02*
X8460000Y-20553200D01*
X5540000Y-22203200D02*
X8490000Y-22203200D01*
X5540000Y-62825000D02*
X8490000Y-62825000D01*
X5540000Y-61175000D02*
X8460000Y-61175000D01*
X5540000Y-80825000D02*
X8490000Y-80825000D01*
X5540000Y-79175000D02*
X8460000Y-79175000D01*
X5540000Y-98825000D02*
X8490000Y-98825000D01*
X5540000Y-97175000D02*
X8460000Y-97175000D01*
D11*
X164000000Y-66520000D02*
X166000000Y-66520000D01*
X166000000Y-69480000D02*
X164000000Y-69480000D01*
X164000000Y-90520000D02*
X166000000Y-90520000D01*
X166000000Y-93480000D02*
X164000000Y-93480000D01*
X96550000Y-22470000D02*
X96820000Y-22470000D01*
X96820000Y-22470000D02*
X96820000Y-25300000D01*
X103180000Y-22470000D02*
X103180000Y-23570000D01*
X96550000Y-20970000D02*
X96550000Y-22470000D01*
X103450000Y-22470000D02*
X103180000Y-22470000D01*
X103450000Y-20970000D02*
X103450000Y-22470000D01*
X103180000Y-62470000D02*
X103180000Y-63570000D01*
X103450000Y-60970000D02*
X103450000Y-62470000D01*
X96550000Y-60970000D02*
X96550000Y-62470000D01*
X96550000Y-62470000D02*
X96820000Y-62470000D01*
X103450000Y-62470000D02*
X103180000Y-62470000D01*
X96820000Y-62470000D02*
X96820000Y-65300000D01*
X94800000Y-102950000D02*
X96610000Y-102950000D01*
X105200000Y-101450000D02*
X105200000Y-102950000D01*
X94800000Y-101450000D02*
X94800000Y-102950000D01*
X96610000Y-102950000D02*
X96610000Y-108075000D01*
X103390000Y-102950000D02*
X103390000Y-104050000D01*
X105200000Y-102950000D02*
X103390000Y-102950000D01*
D10*
X5540000Y-33553200D02*
X8460000Y-33553200D01*
X5540000Y-35203200D02*
X8490000Y-35203200D01*
D11*
X143450000Y-22470000D02*
X143180000Y-22470000D01*
X136820000Y-22470000D02*
X136820000Y-25300000D01*
X136550000Y-20970000D02*
X136550000Y-22470000D01*
X136550000Y-22470000D02*
X136820000Y-22470000D01*
X143450000Y-20970000D02*
X143450000Y-22470000D01*
X143180000Y-22470000D02*
X143180000Y-23570000D01*
X166000000Y-46480000D02*
X164000000Y-46480000D01*
X164000000Y-43520000D02*
X166000000Y-43520000D01*
X184277000Y-52324000D02*
X184277000Y-72644000D01*
X191897000Y-52324000D02*
X184277000Y-52324000D01*
X184277000Y-72644000D02*
X191897000Y-72644000D01*
X191897000Y-52324000D02*
X191897000Y-72644000D01*
X185547000Y-72644000D02*
X185547000Y-52324000D01*
D10*
X5540000Y-27203200D02*
X8490000Y-27203200D01*
X5540000Y-25553200D02*
X8460000Y-25553200D01*
M02*
