G04 #@! TF.GenerationSoftware,KiCad,Pcbnew,9.0.0*
G04 #@! TF.CreationDate,2025-02-23T15:52:22-07:00*
G04 #@! TF.ProjectId,Power_Supply,506f7765-725f-4537-9570-706c792e6b69,rev?*
G04 #@! TF.SameCoordinates,Original*
G04 #@! TF.FileFunction,Soldermask,Bot*
G04 #@! TF.FilePolarity,Negative*
%FSLAX46Y46*%
G04 Gerber Fmt 4.6, Leading zero omitted, Abs format (unit mm)*
G04 Created by KiCad (PCBNEW 9.0.0) date 2025-02-23 15:52:22*
%MOMM*%
%LPD*%
G01*
G04 APERTURE LIST*
G04 APERTURE END LIST*
G36*
X3927308Y-113985043D02*
G01*
X4206207Y-114048700D01*
X4476225Y-114143183D01*
X4733967Y-114267305D01*
X4976190Y-114419504D01*
X5199850Y-114597867D01*
X5402133Y-114800150D01*
X5580496Y-115023810D01*
X5732695Y-115266033D01*
X5856817Y-115523775D01*
X5951300Y-115793793D01*
X6014957Y-116072692D01*
X6046987Y-116356964D01*
X6046987Y-116643036D01*
X6014957Y-116927308D01*
X5951300Y-117206207D01*
X5856817Y-117476225D01*
X5732695Y-117733967D01*
X5580496Y-117976190D01*
X5402133Y-118199850D01*
X5199850Y-118402133D01*
X4976190Y-118580496D01*
X4733967Y-118732695D01*
X4476225Y-118856817D01*
X4206207Y-118951300D01*
X3927308Y-119014957D01*
X3643036Y-119046987D01*
X3356964Y-119046987D01*
X3072692Y-119014957D01*
X2793793Y-118951300D01*
X2523775Y-118856817D01*
X2266033Y-118732695D01*
X2023810Y-118580496D01*
X1800150Y-118402133D01*
X1597867Y-118199850D01*
X1419504Y-117976190D01*
X1267305Y-117733967D01*
X1143183Y-117476225D01*
X1048700Y-117206207D01*
X985043Y-116927308D01*
X953013Y-116643036D01*
X953013Y-116356964D01*
X985043Y-116072692D01*
X1048700Y-115793793D01*
X1143183Y-115523775D01*
X1267305Y-115266033D01*
X1419504Y-115023810D01*
X1597867Y-114800150D01*
X1800150Y-114597867D01*
X2023810Y-114419504D01*
X2266033Y-114267305D01*
X2523775Y-114143183D01*
X2793793Y-114048700D01*
X3072692Y-113985043D01*
X3356964Y-113953013D01*
X3643036Y-113953013D01*
X3927308Y-113985043D01*
G37*
G36*
X196927308Y-113985043D02*
G01*
X197206207Y-114048700D01*
X197476225Y-114143183D01*
X197733967Y-114267305D01*
X197976190Y-114419504D01*
X198199850Y-114597867D01*
X198402133Y-114800150D01*
X198580496Y-115023810D01*
X198732695Y-115266033D01*
X198856817Y-115523775D01*
X198951300Y-115793793D01*
X199014957Y-116072692D01*
X199046987Y-116356964D01*
X199046987Y-116643036D01*
X199014957Y-116927308D01*
X198951300Y-117206207D01*
X198856817Y-117476225D01*
X198732695Y-117733967D01*
X198580496Y-117976190D01*
X198402133Y-118199850D01*
X198199850Y-118402133D01*
X197976190Y-118580496D01*
X197733967Y-118732695D01*
X197476225Y-118856817D01*
X197206207Y-118951300D01*
X196927308Y-119014957D01*
X196643036Y-119046987D01*
X196356964Y-119046987D01*
X196072692Y-119014957D01*
X195793793Y-118951300D01*
X195523775Y-118856817D01*
X195266033Y-118732695D01*
X195023810Y-118580496D01*
X194800150Y-118402133D01*
X194597867Y-118199850D01*
X194419504Y-117976190D01*
X194267305Y-117733967D01*
X194143183Y-117476225D01*
X194048700Y-117206207D01*
X193985043Y-116927308D01*
X193953013Y-116643036D01*
X193953013Y-116356964D01*
X193985043Y-116072692D01*
X194048700Y-115793793D01*
X194143183Y-115523775D01*
X194267305Y-115266033D01*
X194419504Y-115023810D01*
X194597867Y-114800150D01*
X194800150Y-114597867D01*
X195023810Y-114419504D01*
X195266033Y-114267305D01*
X195523775Y-114143183D01*
X195793793Y-114048700D01*
X196072692Y-113985043D01*
X196356964Y-113953013D01*
X196643036Y-113953013D01*
X196927308Y-113985043D01*
G37*
G36*
X155286204Y-98807874D02*
G01*
X155469170Y-98867324D01*
X155640583Y-98954663D01*
X155796223Y-99067742D01*
X155932258Y-99203777D01*
X156045337Y-99359417D01*
X156132676Y-99530830D01*
X156192126Y-99713796D01*
X156222221Y-99903809D01*
X156222221Y-100096191D01*
X156192126Y-100286204D01*
X156132676Y-100469170D01*
X156045337Y-100640583D01*
X155932258Y-100796223D01*
X155796223Y-100932258D01*
X155640583Y-101045337D01*
X155469170Y-101132676D01*
X155286204Y-101192126D01*
X155096191Y-101222221D01*
X154903809Y-101222221D01*
X154713796Y-101192126D01*
X154530830Y-101132676D01*
X154359417Y-101045337D01*
X154203777Y-100932258D01*
X154067742Y-100796223D01*
X153954663Y-100640583D01*
X153867324Y-100469170D01*
X153807874Y-100286204D01*
X153777779Y-100096191D01*
X153777779Y-99903809D01*
X153807874Y-99713796D01*
X153867324Y-99530830D01*
X153954663Y-99359417D01*
X154067742Y-99203777D01*
X154203777Y-99067742D01*
X154359417Y-98954663D01*
X154530830Y-98867324D01*
X154713796Y-98807874D01*
X154903809Y-98777779D01*
X155096191Y-98777779D01*
X155286204Y-98807874D01*
G37*
G36*
X160286204Y-98807874D02*
G01*
X160469170Y-98867324D01*
X160640583Y-98954663D01*
X160796223Y-99067742D01*
X160932258Y-99203777D01*
X161045337Y-99359417D01*
X161132676Y-99530830D01*
X161192126Y-99713796D01*
X161222221Y-99903809D01*
X161222221Y-100096191D01*
X161192126Y-100286204D01*
X161132676Y-100469170D01*
X161045337Y-100640583D01*
X160932258Y-100796223D01*
X160796223Y-100932258D01*
X160640583Y-101045337D01*
X160469170Y-101132676D01*
X160286204Y-101192126D01*
X160096191Y-101222221D01*
X159903809Y-101222221D01*
X159713796Y-101192126D01*
X159530830Y-101132676D01*
X159359417Y-101045337D01*
X159203777Y-100932258D01*
X159067742Y-100796223D01*
X158954663Y-100640583D01*
X158867324Y-100469170D01*
X158807874Y-100286204D01*
X158777779Y-100096191D01*
X158777779Y-99903809D01*
X158807874Y-99713796D01*
X158867324Y-99530830D01*
X158954663Y-99359417D01*
X159067742Y-99203777D01*
X159203777Y-99067742D01*
X159359417Y-98954663D01*
X159530830Y-98867324D01*
X159713796Y-98807874D01*
X159903809Y-98777779D01*
X160096191Y-98777779D01*
X160286204Y-98807874D01*
G37*
G36*
X170286204Y-98807874D02*
G01*
X170469170Y-98867324D01*
X170640583Y-98954663D01*
X170796223Y-99067742D01*
X170932258Y-99203777D01*
X171045337Y-99359417D01*
X171132676Y-99530830D01*
X171192126Y-99713796D01*
X171222221Y-99903809D01*
X171222221Y-100096191D01*
X171192126Y-100286204D01*
X171132676Y-100469170D01*
X171045337Y-100640583D01*
X170932258Y-100796223D01*
X170796223Y-100932258D01*
X170640583Y-101045337D01*
X170469170Y-101132676D01*
X170286204Y-101192126D01*
X170096191Y-101222221D01*
X169903809Y-101222221D01*
X169713796Y-101192126D01*
X169530830Y-101132676D01*
X169359417Y-101045337D01*
X169203777Y-100932258D01*
X169067742Y-100796223D01*
X168954663Y-100640583D01*
X168867324Y-100469170D01*
X168807874Y-100286204D01*
X168777779Y-100096191D01*
X168777779Y-99903809D01*
X168807874Y-99713796D01*
X168867324Y-99530830D01*
X168954663Y-99359417D01*
X169067742Y-99203777D01*
X169203777Y-99067742D01*
X169359417Y-98954663D01*
X169530830Y-98867324D01*
X169713796Y-98807874D01*
X169903809Y-98777779D01*
X170096191Y-98777779D01*
X170286204Y-98807874D01*
G37*
G36*
X175286204Y-98807874D02*
G01*
X175469170Y-98867324D01*
X175640583Y-98954663D01*
X175796223Y-99067742D01*
X175932258Y-99203777D01*
X176045337Y-99359417D01*
X176132676Y-99530830D01*
X176192126Y-99713796D01*
X176222221Y-99903809D01*
X176222221Y-100096191D01*
X176192126Y-100286204D01*
X176132676Y-100469170D01*
X176045337Y-100640583D01*
X175932258Y-100796223D01*
X175796223Y-100932258D01*
X175640583Y-101045337D01*
X175469170Y-101132676D01*
X175286204Y-101192126D01*
X175096191Y-101222221D01*
X174903809Y-101222221D01*
X174713796Y-101192126D01*
X174530830Y-101132676D01*
X174359417Y-101045337D01*
X174203777Y-100932258D01*
X174067742Y-100796223D01*
X173954663Y-100640583D01*
X173867324Y-100469170D01*
X173807874Y-100286204D01*
X173777779Y-100096191D01*
X173777779Y-99903809D01*
X173807874Y-99713796D01*
X173867324Y-99530830D01*
X173954663Y-99359417D01*
X174067742Y-99203777D01*
X174203777Y-99067742D01*
X174359417Y-98954663D01*
X174530830Y-98867324D01*
X174713796Y-98807874D01*
X174903809Y-98777779D01*
X175096191Y-98777779D01*
X175286204Y-98807874D01*
G37*
G36*
X4752040Y-96783565D02*
G01*
X4938737Y-96844227D01*
X5113646Y-96933347D01*
X5272460Y-97048732D01*
X5411268Y-97187540D01*
X5526653Y-97346354D01*
X5615773Y-97521263D01*
X5676435Y-97707960D01*
X5707144Y-97901848D01*
X5707144Y-98098152D01*
X5676435Y-98292040D01*
X5615773Y-98478737D01*
X5526653Y-98653646D01*
X5411268Y-98812460D01*
X5272460Y-98951268D01*
X5113646Y-99066653D01*
X4938737Y-99155773D01*
X4752040Y-99216435D01*
X4558152Y-99247144D01*
X4361848Y-99247144D01*
X4167960Y-99216435D01*
X3981263Y-99155773D01*
X3806354Y-99066653D01*
X3647540Y-98951268D01*
X3508732Y-98812460D01*
X3393347Y-98653646D01*
X3304227Y-98478737D01*
X3243565Y-98292040D01*
X3212856Y-98098152D01*
X3212856Y-97901848D01*
X3243565Y-97707960D01*
X3304227Y-97521263D01*
X3393347Y-97346354D01*
X3508732Y-97187540D01*
X3647540Y-97048732D01*
X3806354Y-96933347D01*
X3981263Y-96844227D01*
X4167960Y-96783565D01*
X4361848Y-96752856D01*
X4558152Y-96752856D01*
X4752040Y-96783565D01*
G37*
G36*
X9832040Y-96783565D02*
G01*
X10018737Y-96844227D01*
X10193646Y-96933347D01*
X10352460Y-97048732D01*
X10491268Y-97187540D01*
X10606653Y-97346354D01*
X10695773Y-97521263D01*
X10756435Y-97707960D01*
X10787144Y-97901848D01*
X10787144Y-98098152D01*
X10756435Y-98292040D01*
X10695773Y-98478737D01*
X10606653Y-98653646D01*
X10491268Y-98812460D01*
X10352460Y-98951268D01*
X10193646Y-99066653D01*
X10018737Y-99155773D01*
X9832040Y-99216435D01*
X9638152Y-99247144D01*
X9441848Y-99247144D01*
X9247960Y-99216435D01*
X9061263Y-99155773D01*
X8886354Y-99066653D01*
X8727540Y-98951268D01*
X8588732Y-98812460D01*
X8473347Y-98653646D01*
X8384227Y-98478737D01*
X8323565Y-98292040D01*
X8292856Y-98098152D01*
X8292856Y-97901848D01*
X8323565Y-97707960D01*
X8384227Y-97521263D01*
X8473347Y-97346354D01*
X8588732Y-97187540D01*
X8727540Y-97048732D01*
X8886354Y-96933347D01*
X9061263Y-96844227D01*
X9247960Y-96783565D01*
X9441848Y-96752856D01*
X9638152Y-96752856D01*
X9832040Y-96783565D01*
G37*
G36*
X4752040Y-78783565D02*
G01*
X4938737Y-78844227D01*
X5113646Y-78933347D01*
X5272460Y-79048732D01*
X5411268Y-79187540D01*
X5526653Y-79346354D01*
X5615773Y-79521263D01*
X5676435Y-79707960D01*
X5707144Y-79901848D01*
X5707144Y-80098152D01*
X5676435Y-80292040D01*
X5615773Y-80478737D01*
X5526653Y-80653646D01*
X5411268Y-80812460D01*
X5272460Y-80951268D01*
X5113646Y-81066653D01*
X4938737Y-81155773D01*
X4752040Y-81216435D01*
X4558152Y-81247144D01*
X4361848Y-81247144D01*
X4167960Y-81216435D01*
X3981263Y-81155773D01*
X3806354Y-81066653D01*
X3647540Y-80951268D01*
X3508732Y-80812460D01*
X3393347Y-80653646D01*
X3304227Y-80478737D01*
X3243565Y-80292040D01*
X3212856Y-80098152D01*
X3212856Y-79901848D01*
X3243565Y-79707960D01*
X3304227Y-79521263D01*
X3393347Y-79346354D01*
X3508732Y-79187540D01*
X3647540Y-79048732D01*
X3806354Y-78933347D01*
X3981263Y-78844227D01*
X4167960Y-78783565D01*
X4361848Y-78752856D01*
X4558152Y-78752856D01*
X4752040Y-78783565D01*
G37*
G36*
X9832040Y-78783565D02*
G01*
X10018737Y-78844227D01*
X10193646Y-78933347D01*
X10352460Y-79048732D01*
X10491268Y-79187540D01*
X10606653Y-79346354D01*
X10695773Y-79521263D01*
X10756435Y-79707960D01*
X10787144Y-79901848D01*
X10787144Y-80098152D01*
X10756435Y-80292040D01*
X10695773Y-80478737D01*
X10606653Y-80653646D01*
X10491268Y-80812460D01*
X10352460Y-80951268D01*
X10193646Y-81066653D01*
X10018737Y-81155773D01*
X9832040Y-81216435D01*
X9638152Y-81247144D01*
X9441848Y-81247144D01*
X9247960Y-81216435D01*
X9061263Y-81155773D01*
X8886354Y-81066653D01*
X8727540Y-80951268D01*
X8588732Y-80812460D01*
X8473347Y-80653646D01*
X8384227Y-80478737D01*
X8323565Y-80292040D01*
X8292856Y-80098152D01*
X8292856Y-79901848D01*
X8323565Y-79707960D01*
X8384227Y-79521263D01*
X8473347Y-79346354D01*
X8588732Y-79187540D01*
X8727540Y-79048732D01*
X8886354Y-78933347D01*
X9061263Y-78844227D01*
X9247960Y-78783565D01*
X9441848Y-78752856D01*
X9638152Y-78752856D01*
X9832040Y-78783565D01*
G37*
G36*
X188197482Y-68557781D02*
G01*
X188208690Y-68557781D01*
X188263888Y-68566523D01*
X188389534Y-68583065D01*
X188420189Y-68591279D01*
X188449074Y-68595854D01*
X188504620Y-68613902D01*
X188585467Y-68635565D01*
X188637050Y-68656931D01*
X188680542Y-68671063D01*
X188721286Y-68691823D01*
X188772870Y-68713190D01*
X188845353Y-68755038D01*
X188897395Y-68781555D01*
X188921055Y-68798745D01*
X188948539Y-68814613D01*
X189049074Y-68891756D01*
X189094294Y-68924610D01*
X189102219Y-68932535D01*
X189109466Y-68938096D01*
X189252903Y-69081533D01*
X189258463Y-69088779D01*
X189266390Y-69096706D01*
X189299247Y-69141930D01*
X189376386Y-69242460D01*
X189392252Y-69269941D01*
X189409445Y-69293605D01*
X189435964Y-69345652D01*
X189477809Y-69418129D01*
X189499173Y-69469706D01*
X189519937Y-69510458D01*
X189534070Y-69553955D01*
X189555434Y-69605532D01*
X189577093Y-69686366D01*
X189595146Y-69741926D01*
X189599721Y-69770816D01*
X189607934Y-69801465D01*
X189624474Y-69927099D01*
X189633219Y-69982310D01*
X189633219Y-69993518D01*
X189634412Y-70002580D01*
X189634412Y-70205419D01*
X189633219Y-70214480D01*
X189633219Y-70225690D01*
X189624473Y-70280905D01*
X189607934Y-70406534D01*
X189599722Y-70437180D01*
X189595146Y-70466074D01*
X189577091Y-70521638D01*
X189555434Y-70602467D01*
X189534071Y-70654039D01*
X189519937Y-70697542D01*
X189499171Y-70738297D01*
X189477809Y-70789870D01*
X189435968Y-70862338D01*
X189409445Y-70914395D01*
X189392249Y-70938062D01*
X189376386Y-70965539D01*
X189299261Y-71066050D01*
X189266390Y-71111294D01*
X189258459Y-71119224D01*
X189252903Y-71126466D01*
X189109466Y-71269903D01*
X189102224Y-71275459D01*
X189094294Y-71283390D01*
X189049050Y-71316261D01*
X188948539Y-71393386D01*
X188921062Y-71409249D01*
X188897395Y-71426445D01*
X188845338Y-71452968D01*
X188772870Y-71494809D01*
X188721297Y-71516171D01*
X188680542Y-71536937D01*
X188637039Y-71551071D01*
X188585467Y-71572434D01*
X188504638Y-71594091D01*
X188449074Y-71612146D01*
X188420180Y-71616722D01*
X188389534Y-71624934D01*
X188263902Y-71641474D01*
X188208690Y-71650219D01*
X188197481Y-71650219D01*
X188188420Y-71651412D01*
X187985580Y-71651412D01*
X187976519Y-71650219D01*
X187965310Y-71650219D01*
X187910099Y-71641474D01*
X187784465Y-71624934D01*
X187753816Y-71616721D01*
X187724926Y-71612146D01*
X187669366Y-71594093D01*
X187588532Y-71572434D01*
X187536955Y-71551070D01*
X187493458Y-71536937D01*
X187452706Y-71516173D01*
X187401129Y-71494809D01*
X187328652Y-71452964D01*
X187276605Y-71426445D01*
X187252941Y-71409252D01*
X187225460Y-71393386D01*
X187124930Y-71316247D01*
X187079706Y-71283390D01*
X187071779Y-71275463D01*
X187064533Y-71269903D01*
X186921096Y-71126466D01*
X186915535Y-71119219D01*
X186907610Y-71111294D01*
X186874756Y-71066074D01*
X186797613Y-70965539D01*
X186781745Y-70938055D01*
X186764555Y-70914395D01*
X186738038Y-70862353D01*
X186696190Y-70789870D01*
X186674823Y-70738286D01*
X186654063Y-70697542D01*
X186639931Y-70654050D01*
X186618565Y-70602467D01*
X186596902Y-70521620D01*
X186578854Y-70466074D01*
X186574279Y-70437189D01*
X186566065Y-70406534D01*
X186549524Y-70280891D01*
X186540781Y-70225690D01*
X186540781Y-70214480D01*
X186539588Y-70205419D01*
X186539588Y-70002580D01*
X186540781Y-69993518D01*
X186540781Y-69982310D01*
X186549523Y-69927113D01*
X186566065Y-69801465D01*
X186574279Y-69770807D01*
X186578854Y-69741926D01*
X186596900Y-69686383D01*
X186618565Y-69605532D01*
X186639933Y-69553944D01*
X186654063Y-69510458D01*
X186674821Y-69469717D01*
X186696190Y-69418129D01*
X186738042Y-69345637D01*
X186764555Y-69293605D01*
X186781742Y-69269948D01*
X186797613Y-69242460D01*
X186874770Y-69141906D01*
X186907610Y-69096706D01*
X186915532Y-69088783D01*
X186921096Y-69081533D01*
X187064533Y-68938096D01*
X187071783Y-68932532D01*
X187079706Y-68924610D01*
X187124906Y-68891770D01*
X187225460Y-68814613D01*
X187252948Y-68798742D01*
X187276605Y-68781555D01*
X187328637Y-68755042D01*
X187401129Y-68713190D01*
X187452717Y-68691821D01*
X187493458Y-68671063D01*
X187536944Y-68656933D01*
X187588532Y-68635565D01*
X187669383Y-68613900D01*
X187724926Y-68595854D01*
X187753807Y-68591279D01*
X187784465Y-68583065D01*
X187910113Y-68566523D01*
X187965310Y-68557781D01*
X187976518Y-68557781D01*
X187985580Y-68556588D01*
X188188420Y-68556588D01*
X188197482Y-68557781D01*
G37*
G36*
X188197482Y-63477781D02*
G01*
X188208690Y-63477781D01*
X188263888Y-63486523D01*
X188389534Y-63503065D01*
X188420189Y-63511279D01*
X188449074Y-63515854D01*
X188504620Y-63533902D01*
X188585467Y-63555565D01*
X188637050Y-63576931D01*
X188680542Y-63591063D01*
X188721286Y-63611823D01*
X188772870Y-63633190D01*
X188845353Y-63675038D01*
X188897395Y-63701555D01*
X188921055Y-63718745D01*
X188948539Y-63734613D01*
X189049074Y-63811756D01*
X189094294Y-63844610D01*
X189102219Y-63852535D01*
X189109466Y-63858096D01*
X189252903Y-64001533D01*
X189258463Y-64008779D01*
X189266390Y-64016706D01*
X189299247Y-64061930D01*
X189376386Y-64162460D01*
X189392252Y-64189941D01*
X189409445Y-64213605D01*
X189435964Y-64265652D01*
X189477809Y-64338129D01*
X189499173Y-64389706D01*
X189519937Y-64430458D01*
X189534070Y-64473955D01*
X189555434Y-64525532D01*
X189577093Y-64606366D01*
X189595146Y-64661926D01*
X189599721Y-64690816D01*
X189607934Y-64721465D01*
X189624474Y-64847099D01*
X189633219Y-64902310D01*
X189633219Y-64913518D01*
X189634412Y-64922580D01*
X189634412Y-65125419D01*
X189633219Y-65134480D01*
X189633219Y-65145690D01*
X189624473Y-65200905D01*
X189607934Y-65326534D01*
X189599722Y-65357180D01*
X189595146Y-65386074D01*
X189577091Y-65441638D01*
X189555434Y-65522467D01*
X189534071Y-65574039D01*
X189519937Y-65617542D01*
X189499171Y-65658297D01*
X189477809Y-65709870D01*
X189435968Y-65782338D01*
X189409445Y-65834395D01*
X189392249Y-65858062D01*
X189376386Y-65885539D01*
X189299261Y-65986050D01*
X189266390Y-66031294D01*
X189258459Y-66039224D01*
X189252903Y-66046466D01*
X189109466Y-66189903D01*
X189102224Y-66195459D01*
X189094294Y-66203390D01*
X189049050Y-66236261D01*
X188948539Y-66313386D01*
X188921062Y-66329249D01*
X188897395Y-66346445D01*
X188845338Y-66372968D01*
X188772870Y-66414809D01*
X188721297Y-66436171D01*
X188680542Y-66456937D01*
X188637039Y-66471071D01*
X188585467Y-66492434D01*
X188504638Y-66514091D01*
X188449074Y-66532146D01*
X188420180Y-66536722D01*
X188389534Y-66544934D01*
X188263902Y-66561474D01*
X188208690Y-66570219D01*
X188197481Y-66570219D01*
X188188420Y-66571412D01*
X187985580Y-66571412D01*
X187976519Y-66570219D01*
X187965310Y-66570219D01*
X187910099Y-66561474D01*
X187784465Y-66544934D01*
X187753816Y-66536721D01*
X187724926Y-66532146D01*
X187669366Y-66514093D01*
X187588532Y-66492434D01*
X187536955Y-66471070D01*
X187493458Y-66456937D01*
X187452706Y-66436173D01*
X187401129Y-66414809D01*
X187328652Y-66372964D01*
X187276605Y-66346445D01*
X187252941Y-66329252D01*
X187225460Y-66313386D01*
X187124930Y-66236247D01*
X187079706Y-66203390D01*
X187071779Y-66195463D01*
X187064533Y-66189903D01*
X186921096Y-66046466D01*
X186915535Y-66039219D01*
X186907610Y-66031294D01*
X186874756Y-65986074D01*
X186797613Y-65885539D01*
X186781745Y-65858055D01*
X186764555Y-65834395D01*
X186738038Y-65782353D01*
X186696190Y-65709870D01*
X186674823Y-65658286D01*
X186654063Y-65617542D01*
X186639931Y-65574050D01*
X186618565Y-65522467D01*
X186596902Y-65441620D01*
X186578854Y-65386074D01*
X186574279Y-65357189D01*
X186566065Y-65326534D01*
X186549524Y-65200891D01*
X186540781Y-65145690D01*
X186540781Y-65134480D01*
X186539588Y-65125419D01*
X186539588Y-64922580D01*
X186540781Y-64913518D01*
X186540781Y-64902310D01*
X186549523Y-64847113D01*
X186566065Y-64721465D01*
X186574279Y-64690807D01*
X186578854Y-64661926D01*
X186596900Y-64606383D01*
X186618565Y-64525532D01*
X186639933Y-64473944D01*
X186654063Y-64430458D01*
X186674821Y-64389717D01*
X186696190Y-64338129D01*
X186738042Y-64265637D01*
X186764555Y-64213605D01*
X186781742Y-64189948D01*
X186797613Y-64162460D01*
X186874770Y-64061906D01*
X186907610Y-64016706D01*
X186915532Y-64008783D01*
X186921096Y-64001533D01*
X187064533Y-63858096D01*
X187071783Y-63852532D01*
X187079706Y-63844610D01*
X187124906Y-63811770D01*
X187225460Y-63734613D01*
X187252948Y-63718742D01*
X187276605Y-63701555D01*
X187328637Y-63675042D01*
X187401129Y-63633190D01*
X187452717Y-63611821D01*
X187493458Y-63591063D01*
X187536944Y-63576933D01*
X187588532Y-63555565D01*
X187669383Y-63533900D01*
X187724926Y-63515854D01*
X187753807Y-63511279D01*
X187784465Y-63503065D01*
X187910113Y-63486523D01*
X187965310Y-63477781D01*
X187976518Y-63477781D01*
X187985580Y-63476588D01*
X188188420Y-63476588D01*
X188197482Y-63477781D01*
G37*
G36*
X4752040Y-60783565D02*
G01*
X4938737Y-60844227D01*
X5113646Y-60933347D01*
X5272460Y-61048732D01*
X5411268Y-61187540D01*
X5526653Y-61346354D01*
X5615773Y-61521263D01*
X5676435Y-61707960D01*
X5707144Y-61901848D01*
X5707144Y-62098152D01*
X5676435Y-62292040D01*
X5615773Y-62478737D01*
X5526653Y-62653646D01*
X5411268Y-62812460D01*
X5272460Y-62951268D01*
X5113646Y-63066653D01*
X4938737Y-63155773D01*
X4752040Y-63216435D01*
X4558152Y-63247144D01*
X4361848Y-63247144D01*
X4167960Y-63216435D01*
X3981263Y-63155773D01*
X3806354Y-63066653D01*
X3647540Y-62951268D01*
X3508732Y-62812460D01*
X3393347Y-62653646D01*
X3304227Y-62478737D01*
X3243565Y-62292040D01*
X3212856Y-62098152D01*
X3212856Y-61901848D01*
X3243565Y-61707960D01*
X3304227Y-61521263D01*
X3393347Y-61346354D01*
X3508732Y-61187540D01*
X3647540Y-61048732D01*
X3806354Y-60933347D01*
X3981263Y-60844227D01*
X4167960Y-60783565D01*
X4361848Y-60752856D01*
X4558152Y-60752856D01*
X4752040Y-60783565D01*
G37*
G36*
X9832040Y-60783565D02*
G01*
X10018737Y-60844227D01*
X10193646Y-60933347D01*
X10352460Y-61048732D01*
X10491268Y-61187540D01*
X10606653Y-61346354D01*
X10695773Y-61521263D01*
X10756435Y-61707960D01*
X10787144Y-61901848D01*
X10787144Y-62098152D01*
X10756435Y-62292040D01*
X10695773Y-62478737D01*
X10606653Y-62653646D01*
X10491268Y-62812460D01*
X10352460Y-62951268D01*
X10193646Y-63066653D01*
X10018737Y-63155773D01*
X9832040Y-63216435D01*
X9638152Y-63247144D01*
X9441848Y-63247144D01*
X9247960Y-63216435D01*
X9061263Y-63155773D01*
X8886354Y-63066653D01*
X8727540Y-62951268D01*
X8588732Y-62812460D01*
X8473347Y-62653646D01*
X8384227Y-62478737D01*
X8323565Y-62292040D01*
X8292856Y-62098152D01*
X8292856Y-61901848D01*
X8323565Y-61707960D01*
X8384227Y-61521263D01*
X8473347Y-61346354D01*
X8588732Y-61187540D01*
X8727540Y-61048732D01*
X8886354Y-60933347D01*
X9061263Y-60844227D01*
X9247960Y-60783565D01*
X9441848Y-60752856D01*
X9638152Y-60752856D01*
X9832040Y-60783565D01*
G37*
G36*
X188197482Y-58397781D02*
G01*
X188208690Y-58397781D01*
X188263888Y-58406523D01*
X188389534Y-58423065D01*
X188420189Y-58431279D01*
X188449074Y-58435854D01*
X188504620Y-58453902D01*
X188585467Y-58475565D01*
X188637050Y-58496931D01*
X188680542Y-58511063D01*
X188721286Y-58531823D01*
X188772870Y-58553190D01*
X188845353Y-58595038D01*
X188897395Y-58621555D01*
X188921055Y-58638745D01*
X188948539Y-58654613D01*
X189049074Y-58731756D01*
X189094294Y-58764610D01*
X189102219Y-58772535D01*
X189109466Y-58778096D01*
X189252903Y-58921533D01*
X189258463Y-58928779D01*
X189266390Y-58936706D01*
X189299247Y-58981930D01*
X189376386Y-59082460D01*
X189392252Y-59109941D01*
X189409445Y-59133605D01*
X189435964Y-59185652D01*
X189477809Y-59258129D01*
X189499173Y-59309706D01*
X189519937Y-59350458D01*
X189534070Y-59393955D01*
X189555434Y-59445532D01*
X189577093Y-59526366D01*
X189595146Y-59581926D01*
X189599721Y-59610816D01*
X189607934Y-59641465D01*
X189624474Y-59767099D01*
X189633219Y-59822310D01*
X189633219Y-59833518D01*
X189634412Y-59842580D01*
X189634412Y-60045419D01*
X189633219Y-60054480D01*
X189633219Y-60065690D01*
X189624473Y-60120905D01*
X189607934Y-60246534D01*
X189599722Y-60277180D01*
X189595146Y-60306074D01*
X189577091Y-60361638D01*
X189555434Y-60442467D01*
X189534071Y-60494039D01*
X189519937Y-60537542D01*
X189499171Y-60578297D01*
X189477809Y-60629870D01*
X189435968Y-60702338D01*
X189409445Y-60754395D01*
X189392249Y-60778062D01*
X189376386Y-60805539D01*
X189299261Y-60906050D01*
X189266390Y-60951294D01*
X189258459Y-60959224D01*
X189252903Y-60966466D01*
X189109466Y-61109903D01*
X189102224Y-61115459D01*
X189094294Y-61123390D01*
X189049050Y-61156261D01*
X188948539Y-61233386D01*
X188921062Y-61249249D01*
X188897395Y-61266445D01*
X188845338Y-61292968D01*
X188772870Y-61334809D01*
X188721297Y-61356171D01*
X188680542Y-61376937D01*
X188637039Y-61391071D01*
X188585467Y-61412434D01*
X188504638Y-61434091D01*
X188449074Y-61452146D01*
X188420180Y-61456722D01*
X188389534Y-61464934D01*
X188263902Y-61481474D01*
X188208690Y-61490219D01*
X188197481Y-61490219D01*
X188188420Y-61491412D01*
X187985580Y-61491412D01*
X187976519Y-61490219D01*
X187965310Y-61490219D01*
X187910099Y-61481474D01*
X187784465Y-61464934D01*
X187753816Y-61456721D01*
X187724926Y-61452146D01*
X187669366Y-61434093D01*
X187588532Y-61412434D01*
X187536955Y-61391070D01*
X187493458Y-61376937D01*
X187452706Y-61356173D01*
X187401129Y-61334809D01*
X187328652Y-61292964D01*
X187276605Y-61266445D01*
X187252941Y-61249252D01*
X187225460Y-61233386D01*
X187124930Y-61156247D01*
X187079706Y-61123390D01*
X187071779Y-61115463D01*
X187064533Y-61109903D01*
X186921096Y-60966466D01*
X186915535Y-60959219D01*
X186907610Y-60951294D01*
X186874756Y-60906074D01*
X186797613Y-60805539D01*
X186781745Y-60778055D01*
X186764555Y-60754395D01*
X186738038Y-60702353D01*
X186696190Y-60629870D01*
X186674823Y-60578286D01*
X186654063Y-60537542D01*
X186639931Y-60494050D01*
X186618565Y-60442467D01*
X186596902Y-60361620D01*
X186578854Y-60306074D01*
X186574279Y-60277189D01*
X186566065Y-60246534D01*
X186549524Y-60120891D01*
X186540781Y-60065690D01*
X186540781Y-60054480D01*
X186539588Y-60045419D01*
X186539588Y-59842580D01*
X186540781Y-59833518D01*
X186540781Y-59822310D01*
X186549523Y-59767113D01*
X186566065Y-59641465D01*
X186574279Y-59610807D01*
X186578854Y-59581926D01*
X186596900Y-59526383D01*
X186618565Y-59445532D01*
X186639933Y-59393944D01*
X186654063Y-59350458D01*
X186674821Y-59309717D01*
X186696190Y-59258129D01*
X186738042Y-59185637D01*
X186764555Y-59133605D01*
X186781742Y-59109948D01*
X186797613Y-59082460D01*
X186874770Y-58981906D01*
X186907610Y-58936706D01*
X186915532Y-58928783D01*
X186921096Y-58921533D01*
X187064533Y-58778096D01*
X187071783Y-58772532D01*
X187079706Y-58764610D01*
X187124906Y-58731770D01*
X187225460Y-58654613D01*
X187252948Y-58638742D01*
X187276605Y-58621555D01*
X187328637Y-58595042D01*
X187401129Y-58553190D01*
X187452717Y-58531821D01*
X187493458Y-58511063D01*
X187536944Y-58496933D01*
X187588532Y-58475565D01*
X187669383Y-58453900D01*
X187724926Y-58435854D01*
X187753807Y-58431279D01*
X187784465Y-58423065D01*
X187910113Y-58406523D01*
X187965310Y-58397781D01*
X187976518Y-58397781D01*
X187985580Y-58396588D01*
X188188420Y-58396588D01*
X188197482Y-58397781D01*
G37*
G36*
X155286204Y-58807874D02*
G01*
X155469170Y-58867324D01*
X155640583Y-58954663D01*
X155796223Y-59067742D01*
X155932258Y-59203777D01*
X156045337Y-59359417D01*
X156132676Y-59530830D01*
X156192126Y-59713796D01*
X156222221Y-59903809D01*
X156222221Y-60096191D01*
X156192126Y-60286204D01*
X156132676Y-60469170D01*
X156045337Y-60640583D01*
X155932258Y-60796223D01*
X155796223Y-60932258D01*
X155640583Y-61045337D01*
X155469170Y-61132676D01*
X155286204Y-61192126D01*
X155096191Y-61222221D01*
X154903809Y-61222221D01*
X154713796Y-61192126D01*
X154530830Y-61132676D01*
X154359417Y-61045337D01*
X154203777Y-60932258D01*
X154067742Y-60796223D01*
X153954663Y-60640583D01*
X153867324Y-60469170D01*
X153807874Y-60286204D01*
X153777779Y-60096191D01*
X153777779Y-59903809D01*
X153807874Y-59713796D01*
X153867324Y-59530830D01*
X153954663Y-59359417D01*
X154067742Y-59203777D01*
X154203777Y-59067742D01*
X154359417Y-58954663D01*
X154530830Y-58867324D01*
X154713796Y-58807874D01*
X154903809Y-58777779D01*
X155096191Y-58777779D01*
X155286204Y-58807874D01*
G37*
G36*
X160286204Y-58807874D02*
G01*
X160469170Y-58867324D01*
X160640583Y-58954663D01*
X160796223Y-59067742D01*
X160932258Y-59203777D01*
X161045337Y-59359417D01*
X161132676Y-59530830D01*
X161192126Y-59713796D01*
X161222221Y-59903809D01*
X161222221Y-60096191D01*
X161192126Y-60286204D01*
X161132676Y-60469170D01*
X161045337Y-60640583D01*
X160932258Y-60796223D01*
X160796223Y-60932258D01*
X160640583Y-61045337D01*
X160469170Y-61132676D01*
X160286204Y-61192126D01*
X160096191Y-61222221D01*
X159903809Y-61222221D01*
X159713796Y-61192126D01*
X159530830Y-61132676D01*
X159359417Y-61045337D01*
X159203777Y-60932258D01*
X159067742Y-60796223D01*
X158954663Y-60640583D01*
X158867324Y-60469170D01*
X158807874Y-60286204D01*
X158777779Y-60096191D01*
X158777779Y-59903809D01*
X158807874Y-59713796D01*
X158867324Y-59530830D01*
X158954663Y-59359417D01*
X159067742Y-59203777D01*
X159203777Y-59067742D01*
X159359417Y-58954663D01*
X159530830Y-58867324D01*
X159713796Y-58807874D01*
X159903809Y-58777779D01*
X160096191Y-58777779D01*
X160286204Y-58807874D01*
G37*
G36*
X170286204Y-58807874D02*
G01*
X170469170Y-58867324D01*
X170640583Y-58954663D01*
X170796223Y-59067742D01*
X170932258Y-59203777D01*
X171045337Y-59359417D01*
X171132676Y-59530830D01*
X171192126Y-59713796D01*
X171222221Y-59903809D01*
X171222221Y-60096191D01*
X171192126Y-60286204D01*
X171132676Y-60469170D01*
X171045337Y-60640583D01*
X170932258Y-60796223D01*
X170796223Y-60932258D01*
X170640583Y-61045337D01*
X170469170Y-61132676D01*
X170286204Y-61192126D01*
X170096191Y-61222221D01*
X169903809Y-61222221D01*
X169713796Y-61192126D01*
X169530830Y-61132676D01*
X169359417Y-61045337D01*
X169203777Y-60932258D01*
X169067742Y-60796223D01*
X168954663Y-60640583D01*
X168867324Y-60469170D01*
X168807874Y-60286204D01*
X168777779Y-60096191D01*
X168777779Y-59903809D01*
X168807874Y-59713796D01*
X168867324Y-59530830D01*
X168954663Y-59359417D01*
X169067742Y-59203777D01*
X169203777Y-59067742D01*
X169359417Y-58954663D01*
X169530830Y-58867324D01*
X169713796Y-58807874D01*
X169903809Y-58777779D01*
X170096191Y-58777779D01*
X170286204Y-58807874D01*
G37*
G36*
X175286204Y-58807874D02*
G01*
X175469170Y-58867324D01*
X175640583Y-58954663D01*
X175796223Y-59067742D01*
X175932258Y-59203777D01*
X176045337Y-59359417D01*
X176132676Y-59530830D01*
X176192126Y-59713796D01*
X176222221Y-59903809D01*
X176222221Y-60096191D01*
X176192126Y-60286204D01*
X176132676Y-60469170D01*
X176045337Y-60640583D01*
X175932258Y-60796223D01*
X175796223Y-60932258D01*
X175640583Y-61045337D01*
X175469170Y-61132676D01*
X175286204Y-61192126D01*
X175096191Y-61222221D01*
X174903809Y-61222221D01*
X174713796Y-61192126D01*
X174530830Y-61132676D01*
X174359417Y-61045337D01*
X174203777Y-60932258D01*
X174067742Y-60796223D01*
X173954663Y-60640583D01*
X173867324Y-60469170D01*
X173807874Y-60286204D01*
X173777779Y-60096191D01*
X173777779Y-59903809D01*
X173807874Y-59713796D01*
X173867324Y-59530830D01*
X173954663Y-59359417D01*
X174067742Y-59203777D01*
X174203777Y-59067742D01*
X174359417Y-58954663D01*
X174530830Y-58867324D01*
X174713796Y-58807874D01*
X174903809Y-58777779D01*
X175096191Y-58777779D01*
X175286204Y-58807874D01*
G37*
G36*
X189606517Y-53316882D02*
G01*
X189623062Y-53327938D01*
X189634118Y-53344483D01*
X189638000Y-53364000D01*
X189638000Y-56364000D01*
X189634118Y-56383517D01*
X189623062Y-56400062D01*
X189606517Y-56411118D01*
X189587000Y-56415000D01*
X186587000Y-56415000D01*
X186567483Y-56411118D01*
X186550938Y-56400062D01*
X186539882Y-56383517D01*
X186536000Y-56364000D01*
X186536000Y-53364000D01*
X186539882Y-53344483D01*
X186550938Y-53327938D01*
X186567483Y-53316882D01*
X186587000Y-53313000D01*
X189587000Y-53313000D01*
X189606517Y-53316882D01*
G37*
G36*
X155286204Y-34807874D02*
G01*
X155469170Y-34867324D01*
X155640583Y-34954663D01*
X155796223Y-35067742D01*
X155932258Y-35203777D01*
X156045337Y-35359417D01*
X156132676Y-35530830D01*
X156192126Y-35713796D01*
X156222221Y-35903809D01*
X156222221Y-36096191D01*
X156192126Y-36286204D01*
X156132676Y-36469170D01*
X156045337Y-36640583D01*
X155932258Y-36796223D01*
X155796223Y-36932258D01*
X155640583Y-37045337D01*
X155469170Y-37132676D01*
X155286204Y-37192126D01*
X155096191Y-37222221D01*
X154903809Y-37222221D01*
X154713796Y-37192126D01*
X154530830Y-37132676D01*
X154359417Y-37045337D01*
X154203777Y-36932258D01*
X154067742Y-36796223D01*
X153954663Y-36640583D01*
X153867324Y-36469170D01*
X153807874Y-36286204D01*
X153777779Y-36096191D01*
X153777779Y-35903809D01*
X153807874Y-35713796D01*
X153867324Y-35530830D01*
X153954663Y-35359417D01*
X154067742Y-35203777D01*
X154203777Y-35067742D01*
X154359417Y-34954663D01*
X154530830Y-34867324D01*
X154713796Y-34807874D01*
X154903809Y-34777779D01*
X155096191Y-34777779D01*
X155286204Y-34807874D01*
G37*
G36*
X160286204Y-34807874D02*
G01*
X160469170Y-34867324D01*
X160640583Y-34954663D01*
X160796223Y-35067742D01*
X160932258Y-35203777D01*
X161045337Y-35359417D01*
X161132676Y-35530830D01*
X161192126Y-35713796D01*
X161222221Y-35903809D01*
X161222221Y-36096191D01*
X161192126Y-36286204D01*
X161132676Y-36469170D01*
X161045337Y-36640583D01*
X160932258Y-36796223D01*
X160796223Y-36932258D01*
X160640583Y-37045337D01*
X160469170Y-37132676D01*
X160286204Y-37192126D01*
X160096191Y-37222221D01*
X159903809Y-37222221D01*
X159713796Y-37192126D01*
X159530830Y-37132676D01*
X159359417Y-37045337D01*
X159203777Y-36932258D01*
X159067742Y-36796223D01*
X158954663Y-36640583D01*
X158867324Y-36469170D01*
X158807874Y-36286204D01*
X158777779Y-36096191D01*
X158777779Y-35903809D01*
X158807874Y-35713796D01*
X158867324Y-35530830D01*
X158954663Y-35359417D01*
X159067742Y-35203777D01*
X159203777Y-35067742D01*
X159359417Y-34954663D01*
X159530830Y-34867324D01*
X159713796Y-34807874D01*
X159903809Y-34777779D01*
X160096191Y-34777779D01*
X160286204Y-34807874D01*
G37*
G36*
X170286204Y-34807874D02*
G01*
X170469170Y-34867324D01*
X170640583Y-34954663D01*
X170796223Y-35067742D01*
X170932258Y-35203777D01*
X171045337Y-35359417D01*
X171132676Y-35530830D01*
X171192126Y-35713796D01*
X171222221Y-35903809D01*
X171222221Y-36096191D01*
X171192126Y-36286204D01*
X171132676Y-36469170D01*
X171045337Y-36640583D01*
X170932258Y-36796223D01*
X170796223Y-36932258D01*
X170640583Y-37045337D01*
X170469170Y-37132676D01*
X170286204Y-37192126D01*
X170096191Y-37222221D01*
X169903809Y-37222221D01*
X169713796Y-37192126D01*
X169530830Y-37132676D01*
X169359417Y-37045337D01*
X169203777Y-36932258D01*
X169067742Y-36796223D01*
X168954663Y-36640583D01*
X168867324Y-36469170D01*
X168807874Y-36286204D01*
X168777779Y-36096191D01*
X168777779Y-35903809D01*
X168807874Y-35713796D01*
X168867324Y-35530830D01*
X168954663Y-35359417D01*
X169067742Y-35203777D01*
X169203777Y-35067742D01*
X169359417Y-34954663D01*
X169530830Y-34867324D01*
X169713796Y-34807874D01*
X169903809Y-34777779D01*
X170096191Y-34777779D01*
X170286204Y-34807874D01*
G37*
G36*
X175286204Y-34807874D02*
G01*
X175469170Y-34867324D01*
X175640583Y-34954663D01*
X175796223Y-35067742D01*
X175932258Y-35203777D01*
X176045337Y-35359417D01*
X176132676Y-35530830D01*
X176192126Y-35713796D01*
X176222221Y-35903809D01*
X176222221Y-36096191D01*
X176192126Y-36286204D01*
X176132676Y-36469170D01*
X176045337Y-36640583D01*
X175932258Y-36796223D01*
X175796223Y-36932258D01*
X175640583Y-37045337D01*
X175469170Y-37132676D01*
X175286204Y-37192126D01*
X175096191Y-37222221D01*
X174903809Y-37222221D01*
X174713796Y-37192126D01*
X174530830Y-37132676D01*
X174359417Y-37045337D01*
X174203777Y-36932258D01*
X174067742Y-36796223D01*
X173954663Y-36640583D01*
X173867324Y-36469170D01*
X173807874Y-36286204D01*
X173777779Y-36096191D01*
X173777779Y-35903809D01*
X173807874Y-35713796D01*
X173867324Y-35530830D01*
X173954663Y-35359417D01*
X174067742Y-35203777D01*
X174203777Y-35067742D01*
X174359417Y-34954663D01*
X174530830Y-34867324D01*
X174713796Y-34807874D01*
X174903809Y-34777779D01*
X175096191Y-34777779D01*
X175286204Y-34807874D01*
G37*
G36*
X4752040Y-33161765D02*
G01*
X4938737Y-33222427D01*
X5113646Y-33311547D01*
X5272460Y-33426932D01*
X5411268Y-33565740D01*
X5526653Y-33724554D01*
X5615773Y-33899463D01*
X5676435Y-34086160D01*
X5707144Y-34280048D01*
X5707144Y-34476352D01*
X5676435Y-34670240D01*
X5615773Y-34856937D01*
X5526653Y-35031846D01*
X5411268Y-35190660D01*
X5272460Y-35329468D01*
X5113646Y-35444853D01*
X4938737Y-35533973D01*
X4752040Y-35594635D01*
X4558152Y-35625344D01*
X4361848Y-35625344D01*
X4167960Y-35594635D01*
X3981263Y-35533973D01*
X3806354Y-35444853D01*
X3647540Y-35329468D01*
X3508732Y-35190660D01*
X3393347Y-35031846D01*
X3304227Y-34856937D01*
X3243565Y-34670240D01*
X3212856Y-34476352D01*
X3212856Y-34280048D01*
X3243565Y-34086160D01*
X3304227Y-33899463D01*
X3393347Y-33724554D01*
X3508732Y-33565740D01*
X3647540Y-33426932D01*
X3806354Y-33311547D01*
X3981263Y-33222427D01*
X4167960Y-33161765D01*
X4361848Y-33131056D01*
X4558152Y-33131056D01*
X4752040Y-33161765D01*
G37*
G36*
X9832040Y-33161765D02*
G01*
X10018737Y-33222427D01*
X10193646Y-33311547D01*
X10352460Y-33426932D01*
X10491268Y-33565740D01*
X10606653Y-33724554D01*
X10695773Y-33899463D01*
X10756435Y-34086160D01*
X10787144Y-34280048D01*
X10787144Y-34476352D01*
X10756435Y-34670240D01*
X10695773Y-34856937D01*
X10606653Y-35031846D01*
X10491268Y-35190660D01*
X10352460Y-35329468D01*
X10193646Y-35444853D01*
X10018737Y-35533973D01*
X9832040Y-35594635D01*
X9638152Y-35625344D01*
X9441848Y-35625344D01*
X9247960Y-35594635D01*
X9061263Y-35533973D01*
X8886354Y-35444853D01*
X8727540Y-35329468D01*
X8588732Y-35190660D01*
X8473347Y-35031846D01*
X8384227Y-34856937D01*
X8323565Y-34670240D01*
X8292856Y-34476352D01*
X8292856Y-34280048D01*
X8323565Y-34086160D01*
X8384227Y-33899463D01*
X8473347Y-33724554D01*
X8588732Y-33565740D01*
X8727540Y-33426932D01*
X8886354Y-33311547D01*
X9061263Y-33222427D01*
X9247960Y-33161765D01*
X9441848Y-33131056D01*
X9638152Y-33131056D01*
X9832040Y-33161765D01*
G37*
G36*
X19286204Y-32186074D02*
G01*
X19469170Y-32245524D01*
X19640583Y-32332863D01*
X19796223Y-32445942D01*
X19932258Y-32581977D01*
X20045337Y-32737617D01*
X20132676Y-32909030D01*
X20192126Y-33091996D01*
X20222221Y-33282009D01*
X20222221Y-33474391D01*
X20192126Y-33664404D01*
X20132676Y-33847370D01*
X20045337Y-34018783D01*
X19932258Y-34174423D01*
X19796223Y-34310458D01*
X19640583Y-34423537D01*
X19469170Y-34510876D01*
X19286204Y-34570326D01*
X19096191Y-34600421D01*
X18903809Y-34600421D01*
X18713796Y-34570326D01*
X18530830Y-34510876D01*
X18359417Y-34423537D01*
X18203777Y-34310458D01*
X18067742Y-34174423D01*
X17954663Y-34018783D01*
X17867324Y-33847370D01*
X17807874Y-33664404D01*
X17777779Y-33474391D01*
X17777779Y-33282009D01*
X17807874Y-33091996D01*
X17867324Y-32909030D01*
X17954663Y-32737617D01*
X18067742Y-32581977D01*
X18203777Y-32445942D01*
X18359417Y-32332863D01*
X18530830Y-32245524D01*
X18713796Y-32186074D01*
X18903809Y-32155979D01*
X19096191Y-32155979D01*
X19286204Y-32186074D01*
G37*
G36*
X19286204Y-27186074D02*
G01*
X19469170Y-27245524D01*
X19640583Y-27332863D01*
X19796223Y-27445942D01*
X19932258Y-27581977D01*
X20045337Y-27737617D01*
X20132676Y-27909030D01*
X20192126Y-28091996D01*
X20222221Y-28282009D01*
X20222221Y-28474391D01*
X20192126Y-28664404D01*
X20132676Y-28847370D01*
X20045337Y-29018783D01*
X19932258Y-29174423D01*
X19796223Y-29310458D01*
X19640583Y-29423537D01*
X19469170Y-29510876D01*
X19286204Y-29570326D01*
X19096191Y-29600421D01*
X18903809Y-29600421D01*
X18713796Y-29570326D01*
X18530830Y-29510876D01*
X18359417Y-29423537D01*
X18203777Y-29310458D01*
X18067742Y-29174423D01*
X17954663Y-29018783D01*
X17867324Y-28847370D01*
X17807874Y-28664404D01*
X17777779Y-28474391D01*
X17777779Y-28282009D01*
X17807874Y-28091996D01*
X17867324Y-27909030D01*
X17954663Y-27737617D01*
X18067742Y-27581977D01*
X18203777Y-27445942D01*
X18359417Y-27332863D01*
X18530830Y-27245524D01*
X18713796Y-27186074D01*
X18903809Y-27155979D01*
X19096191Y-27155979D01*
X19286204Y-27186074D01*
G37*
G36*
X4752040Y-25161765D02*
G01*
X4938737Y-25222427D01*
X5113646Y-25311547D01*
X5272460Y-25426932D01*
X5411268Y-25565740D01*
X5526653Y-25724554D01*
X5615773Y-25899463D01*
X5676435Y-26086160D01*
X5707144Y-26280048D01*
X5707144Y-26476352D01*
X5676435Y-26670240D01*
X5615773Y-26856937D01*
X5526653Y-27031846D01*
X5411268Y-27190660D01*
X5272460Y-27329468D01*
X5113646Y-27444853D01*
X4938737Y-27533973D01*
X4752040Y-27594635D01*
X4558152Y-27625344D01*
X4361848Y-27625344D01*
X4167960Y-27594635D01*
X3981263Y-27533973D01*
X3806354Y-27444853D01*
X3647540Y-27329468D01*
X3508732Y-27190660D01*
X3393347Y-27031846D01*
X3304227Y-26856937D01*
X3243565Y-26670240D01*
X3212856Y-26476352D01*
X3212856Y-26280048D01*
X3243565Y-26086160D01*
X3304227Y-25899463D01*
X3393347Y-25724554D01*
X3508732Y-25565740D01*
X3647540Y-25426932D01*
X3806354Y-25311547D01*
X3981263Y-25222427D01*
X4167960Y-25161765D01*
X4361848Y-25131056D01*
X4558152Y-25131056D01*
X4752040Y-25161765D01*
G37*
G36*
X9832040Y-25161765D02*
G01*
X10018737Y-25222427D01*
X10193646Y-25311547D01*
X10352460Y-25426932D01*
X10491268Y-25565740D01*
X10606653Y-25724554D01*
X10695773Y-25899463D01*
X10756435Y-26086160D01*
X10787144Y-26280048D01*
X10787144Y-26476352D01*
X10756435Y-26670240D01*
X10695773Y-26856937D01*
X10606653Y-27031846D01*
X10491268Y-27190660D01*
X10352460Y-27329468D01*
X10193646Y-27444853D01*
X10018737Y-27533973D01*
X9832040Y-27594635D01*
X9638152Y-27625344D01*
X9441848Y-27625344D01*
X9247960Y-27594635D01*
X9061263Y-27533973D01*
X8886354Y-27444853D01*
X8727540Y-27329468D01*
X8588732Y-27190660D01*
X8473347Y-27031846D01*
X8384227Y-26856937D01*
X8323565Y-26670240D01*
X8292856Y-26476352D01*
X8292856Y-26280048D01*
X8323565Y-26086160D01*
X8384227Y-25899463D01*
X8473347Y-25724554D01*
X8588732Y-25565740D01*
X8727540Y-25426932D01*
X8886354Y-25311547D01*
X9061263Y-25222427D01*
X9247960Y-25161765D01*
X9441848Y-25131056D01*
X9638152Y-25131056D01*
X9832040Y-25161765D01*
G37*
G36*
X4752040Y-20161765D02*
G01*
X4938737Y-20222427D01*
X5113646Y-20311547D01*
X5272460Y-20426932D01*
X5411268Y-20565740D01*
X5526653Y-20724554D01*
X5615773Y-20899463D01*
X5676435Y-21086160D01*
X5707144Y-21280048D01*
X5707144Y-21476352D01*
X5676435Y-21670240D01*
X5615773Y-21856937D01*
X5526653Y-22031846D01*
X5411268Y-22190660D01*
X5272460Y-22329468D01*
X5113646Y-22444853D01*
X4938737Y-22533973D01*
X4752040Y-22594635D01*
X4558152Y-22625344D01*
X4361848Y-22625344D01*
X4167960Y-22594635D01*
X3981263Y-22533973D01*
X3806354Y-22444853D01*
X3647540Y-22329468D01*
X3508732Y-22190660D01*
X3393347Y-22031846D01*
X3304227Y-21856937D01*
X3243565Y-21670240D01*
X3212856Y-21476352D01*
X3212856Y-21280048D01*
X3243565Y-21086160D01*
X3304227Y-20899463D01*
X3393347Y-20724554D01*
X3508732Y-20565740D01*
X3647540Y-20426932D01*
X3806354Y-20311547D01*
X3981263Y-20222427D01*
X4167960Y-20161765D01*
X4361848Y-20131056D01*
X4558152Y-20131056D01*
X4752040Y-20161765D01*
G37*
G36*
X9832040Y-20161765D02*
G01*
X10018737Y-20222427D01*
X10193646Y-20311547D01*
X10352460Y-20426932D01*
X10491268Y-20565740D01*
X10606653Y-20724554D01*
X10695773Y-20899463D01*
X10756435Y-21086160D01*
X10787144Y-21280048D01*
X10787144Y-21476352D01*
X10756435Y-21670240D01*
X10695773Y-21856937D01*
X10606653Y-22031846D01*
X10491268Y-22190660D01*
X10352460Y-22329468D01*
X10193646Y-22444853D01*
X10018737Y-22533973D01*
X9832040Y-22594635D01*
X9638152Y-22625344D01*
X9441848Y-22625344D01*
X9247960Y-22594635D01*
X9061263Y-22533973D01*
X8886354Y-22444853D01*
X8727540Y-22329468D01*
X8588732Y-22190660D01*
X8473347Y-22031846D01*
X8384227Y-21856937D01*
X8323565Y-21670240D01*
X8292856Y-21476352D01*
X8292856Y-21280048D01*
X8323565Y-21086160D01*
X8384227Y-20899463D01*
X8473347Y-20724554D01*
X8588732Y-20565740D01*
X8727540Y-20426932D01*
X8886354Y-20311547D01*
X9061263Y-20222427D01*
X9247960Y-20161765D01*
X9441848Y-20131056D01*
X9638152Y-20131056D01*
X9832040Y-20161765D01*
G37*
G36*
X19286204Y-17186074D02*
G01*
X19469170Y-17245524D01*
X19640583Y-17332863D01*
X19796223Y-17445942D01*
X19932258Y-17581977D01*
X20045337Y-17737617D01*
X20132676Y-17909030D01*
X20192126Y-18091996D01*
X20222221Y-18282009D01*
X20222221Y-18474391D01*
X20192126Y-18664404D01*
X20132676Y-18847370D01*
X20045337Y-19018783D01*
X19932258Y-19174423D01*
X19796223Y-19310458D01*
X19640583Y-19423537D01*
X19469170Y-19510876D01*
X19286204Y-19570326D01*
X19096191Y-19600421D01*
X18903809Y-19600421D01*
X18713796Y-19570326D01*
X18530830Y-19510876D01*
X18359417Y-19423537D01*
X18203777Y-19310458D01*
X18067742Y-19174423D01*
X17954663Y-19018783D01*
X17867324Y-18847370D01*
X17807874Y-18664404D01*
X17777779Y-18474391D01*
X17777779Y-18282009D01*
X17807874Y-18091996D01*
X17867324Y-17909030D01*
X17954663Y-17737617D01*
X18067742Y-17581977D01*
X18203777Y-17445942D01*
X18359417Y-17332863D01*
X18530830Y-17245524D01*
X18713796Y-17186074D01*
X18903809Y-17155979D01*
X19096191Y-17155979D01*
X19286204Y-17186074D01*
G37*
G36*
X4752040Y-12161765D02*
G01*
X4938737Y-12222427D01*
X5113646Y-12311547D01*
X5272460Y-12426932D01*
X5411268Y-12565740D01*
X5526653Y-12724554D01*
X5615773Y-12899463D01*
X5676435Y-13086160D01*
X5707144Y-13280048D01*
X5707144Y-13476352D01*
X5676435Y-13670240D01*
X5615773Y-13856937D01*
X5526653Y-14031846D01*
X5411268Y-14190660D01*
X5272460Y-14329468D01*
X5113646Y-14444853D01*
X4938737Y-14533973D01*
X4752040Y-14594635D01*
X4558152Y-14625344D01*
X4361848Y-14625344D01*
X4167960Y-14594635D01*
X3981263Y-14533973D01*
X3806354Y-14444853D01*
X3647540Y-14329468D01*
X3508732Y-14190660D01*
X3393347Y-14031846D01*
X3304227Y-13856937D01*
X3243565Y-13670240D01*
X3212856Y-13476352D01*
X3212856Y-13280048D01*
X3243565Y-13086160D01*
X3304227Y-12899463D01*
X3393347Y-12724554D01*
X3508732Y-12565740D01*
X3647540Y-12426932D01*
X3806354Y-12311547D01*
X3981263Y-12222427D01*
X4167960Y-12161765D01*
X4361848Y-12131056D01*
X4558152Y-12131056D01*
X4752040Y-12161765D01*
G37*
G36*
X9832040Y-12161765D02*
G01*
X10018737Y-12222427D01*
X10193646Y-12311547D01*
X10352460Y-12426932D01*
X10491268Y-12565740D01*
X10606653Y-12724554D01*
X10695773Y-12899463D01*
X10756435Y-13086160D01*
X10787144Y-13280048D01*
X10787144Y-13476352D01*
X10756435Y-13670240D01*
X10695773Y-13856937D01*
X10606653Y-14031846D01*
X10491268Y-14190660D01*
X10352460Y-14329468D01*
X10193646Y-14444853D01*
X10018737Y-14533973D01*
X9832040Y-14594635D01*
X9638152Y-14625344D01*
X9441848Y-14625344D01*
X9247960Y-14594635D01*
X9061263Y-14533973D01*
X8886354Y-14444853D01*
X8727540Y-14329468D01*
X8588732Y-14190660D01*
X8473347Y-14031846D01*
X8384227Y-13856937D01*
X8323565Y-13670240D01*
X8292856Y-13476352D01*
X8292856Y-13280048D01*
X8323565Y-13086160D01*
X8384227Y-12899463D01*
X8473347Y-12724554D01*
X8588732Y-12565740D01*
X8727540Y-12426932D01*
X8886354Y-12311547D01*
X9061263Y-12222427D01*
X9247960Y-12161765D01*
X9441848Y-12131056D01*
X9638152Y-12131056D01*
X9832040Y-12161765D01*
G37*
G36*
X19286204Y-12186074D02*
G01*
X19469170Y-12245524D01*
X19640583Y-12332863D01*
X19796223Y-12445942D01*
X19932258Y-12581977D01*
X20045337Y-12737617D01*
X20132676Y-12909030D01*
X20192126Y-13091996D01*
X20222221Y-13282009D01*
X20222221Y-13474391D01*
X20192126Y-13664404D01*
X20132676Y-13847370D01*
X20045337Y-14018783D01*
X19932258Y-14174423D01*
X19796223Y-14310458D01*
X19640583Y-14423537D01*
X19469170Y-14510876D01*
X19286204Y-14570326D01*
X19096191Y-14600421D01*
X18903809Y-14600421D01*
X18713796Y-14570326D01*
X18530830Y-14510876D01*
X18359417Y-14423537D01*
X18203777Y-14310458D01*
X18067742Y-14174423D01*
X17954663Y-14018783D01*
X17867324Y-13847370D01*
X17807874Y-13664404D01*
X17777779Y-13474391D01*
X17777779Y-13282009D01*
X17807874Y-13091996D01*
X17867324Y-12909030D01*
X17954663Y-12737617D01*
X18067742Y-12581977D01*
X18203777Y-12445942D01*
X18359417Y-12332863D01*
X18530830Y-12245524D01*
X18713796Y-12186074D01*
X18903809Y-12155979D01*
X19096191Y-12155979D01*
X19286204Y-12186074D01*
G37*
G36*
X3927308Y-985043D02*
G01*
X4206207Y-1048700D01*
X4476225Y-1143183D01*
X4733967Y-1267305D01*
X4976190Y-1419504D01*
X5199850Y-1597867D01*
X5402133Y-1800150D01*
X5580496Y-2023810D01*
X5732695Y-2266033D01*
X5856817Y-2523775D01*
X5951300Y-2793793D01*
X6014957Y-3072692D01*
X6046987Y-3356964D01*
X6046987Y-3643036D01*
X6014957Y-3927308D01*
X5951300Y-4206207D01*
X5856817Y-4476225D01*
X5732695Y-4733967D01*
X5580496Y-4976190D01*
X5402133Y-5199850D01*
X5199850Y-5402133D01*
X4976190Y-5580496D01*
X4733967Y-5732695D01*
X4476225Y-5856817D01*
X4206207Y-5951300D01*
X3927308Y-6014957D01*
X3643036Y-6046987D01*
X3356964Y-6046987D01*
X3072692Y-6014957D01*
X2793793Y-5951300D01*
X2523775Y-5856817D01*
X2266033Y-5732695D01*
X2023810Y-5580496D01*
X1800150Y-5402133D01*
X1597867Y-5199850D01*
X1419504Y-4976190D01*
X1267305Y-4733967D01*
X1143183Y-4476225D01*
X1048700Y-4206207D01*
X985043Y-3927308D01*
X953013Y-3643036D01*
X953013Y-3356964D01*
X985043Y-3072692D01*
X1048700Y-2793793D01*
X1143183Y-2523775D01*
X1267305Y-2266033D01*
X1419504Y-2023810D01*
X1597867Y-1800150D01*
X1800150Y-1597867D01*
X2023810Y-1419504D01*
X2266033Y-1267305D01*
X2523775Y-1143183D01*
X2793793Y-1048700D01*
X3072692Y-985043D01*
X3356964Y-953013D01*
X3643036Y-953013D01*
X3927308Y-985043D01*
G37*
G36*
X196927308Y-985043D02*
G01*
X197206207Y-1048700D01*
X197476225Y-1143183D01*
X197733967Y-1267305D01*
X197976190Y-1419504D01*
X198199850Y-1597867D01*
X198402133Y-1800150D01*
X198580496Y-2023810D01*
X198732695Y-2266033D01*
X198856817Y-2523775D01*
X198951300Y-2793793D01*
X199014957Y-3072692D01*
X199046987Y-3356964D01*
X199046987Y-3643036D01*
X199014957Y-3927308D01*
X198951300Y-4206207D01*
X198856817Y-4476225D01*
X198732695Y-4733967D01*
X198580496Y-4976190D01*
X198402133Y-5199850D01*
X198199850Y-5402133D01*
X197976190Y-5580496D01*
X197733967Y-5732695D01*
X197476225Y-5856817D01*
X197206207Y-5951300D01*
X196927308Y-6014957D01*
X196643036Y-6046987D01*
X196356964Y-6046987D01*
X196072692Y-6014957D01*
X195793793Y-5951300D01*
X195523775Y-5856817D01*
X195266033Y-5732695D01*
X195023810Y-5580496D01*
X194800150Y-5402133D01*
X194597867Y-5199850D01*
X194419504Y-4976190D01*
X194267305Y-4733967D01*
X194143183Y-4476225D01*
X194048700Y-4206207D01*
X193985043Y-3927308D01*
X193953013Y-3643036D01*
X193953013Y-3356964D01*
X193985043Y-3072692D01*
X194048700Y-2793793D01*
X194143183Y-2523775D01*
X194267305Y-2266033D01*
X194419504Y-2023810D01*
X194597867Y-1800150D01*
X194800150Y-1597867D01*
X195023810Y-1419504D01*
X195266033Y-1267305D01*
X195523775Y-1143183D01*
X195793793Y-1048700D01*
X196072692Y-985043D01*
X196356964Y-953013D01*
X196643036Y-953013D01*
X196927308Y-985043D01*
G37*
M02*
