M48
; DRILL file {KiCad (5.1.5)-3} date 8/13/2020 6:35:01 PM
; FORMAT={-:-/ absolute / metric / decimal}
; #@! TF.CreationDate,2020-08-13T18:35:01-07:00
; #@! TF.GenerationSoftware,Kicad,Pcbnew,(5.1.5)-3
FMAT,2
METRIC
T1C0.400
T2C0.600
T3C0.800
T4C1.000
T5C2.300
%
G90
G05
T2
X7.62Y-83.058
X7.62Y-84.558
T3
X9.0Y-34.5
X19.16Y-34.5
X22.0Y-33.0
X27.0Y-33.0
X22.0Y-26.0
X27.0Y-26.0
X2.54Y-97.028
X12.7Y-97.028
X9.0Y-40.0
X19.16Y-40.0
X17.5Y-60.0
X27.66Y-60.0
X22.0Y-47.0
X27.0Y-47.0
X18.034Y-95.79
X18.034Y-97.79
X17.5Y-54.0
X27.66Y-54.0
X22.0Y-19.0
X27.0Y-19.0
X17.5Y-78.5
X27.66Y-78.5
X9.0Y-47.0
X19.16Y-47.0
X18.5Y-65.88
X18.5Y-73.5
X21.04Y-65.88
X21.04Y-73.5
X23.58Y-65.88
X23.58Y-73.5
X26.12Y-65.88
X26.12Y-73.5
X5.08Y-91.186
X7.62Y-91.186
X10.16Y-91.186
X17.5Y-83.0
X27.66Y-83.0
X22.0Y-40.0
X27.0Y-40.0
X18.034Y-87.916
X18.034Y-89.916
X13.5Y-57.0
X13.5Y-62.0
T4
X3.5Y-56.0
X3.5Y-58.5
X3.5Y-61.0
X25.0Y-87.0
X25.0Y-89.54
X25.0Y-92.08
X25.0Y-94.62
X25.0Y-97.16
X27.54Y-87.0
X27.54Y-89.54
X27.54Y-92.08
X27.54Y-94.62
X27.54Y-97.16
X3.5Y-9.0
X3.5Y-11.5
X3.5Y-14.0
T5
X6.8Y-6.5
X6.8Y-16.5
X6.8Y-53.5
X6.8Y-63.5
T1
G00X2.0Y-25.6
M15
G01X2.0Y-26.4
M16
G05
G00X5.0Y-30.5
M15
G01X5.8Y-30.5
M16
G05
G00X8.0Y-23.5
M15
G01X8.8Y-23.5
M16
G05
G00X9.4Y-20.8
M15
G01X10.2Y-20.8
M16
G05
G00X13.0Y-29.6
M15
G01X13.0Y-30.4
M16
G05
G00X2.0Y-72.6
M15
G01X2.0Y-73.4
M16
G05
G00X5.0Y-77.5
M15
G01X5.8Y-77.5
M16
G05
G00X8.0Y-70.5
M15
G01X8.8Y-70.5
M16
G05
G00X9.4Y-67.8
M15
G01X10.2Y-67.8
M16
G05
G00X13.0Y-76.6
M15
G01X13.0Y-77.4
M16
G05
T0
M30
