G04 #@! TF.GenerationSoftware,KiCad,Pcbnew,(5.1.5)-3*
G04 #@! TF.CreationDate,2020-07-22T14:34:40-07:00*
G04 #@! TF.ProjectId,VCF,5643462e-6b69-4636-9164-5f7063625858,rev?*
G04 #@! TF.SameCoordinates,Original*
G04 #@! TF.FileFunction,Soldermask,Top*
G04 #@! TF.FilePolarity,Negative*
%FSLAX46Y46*%
G04 Gerber Fmt 4.6, Leading zero omitted, Abs format (unit mm)*
G04 Created by KiCad (PCBNEW (5.1.5)-3) date 2020-07-22 14:34:40*
%MOMM*%
%LPD*%
G04 APERTURE LIST*
%ADD10C,0.100000*%
G04 APERTURE END LIST*
D10*
G36*
X42981180Y-99064380D02*
G01*
X41179180Y-99064380D01*
X41179180Y-97262380D01*
X42981180Y-97262380D01*
X42981180Y-99064380D01*
G37*
G36*
X13551000Y-98151000D02*
G01*
X12449000Y-98151000D01*
X12449000Y-95849000D01*
X13551000Y-95849000D01*
X13551000Y-98151000D01*
G37*
G36*
X6551000Y-98051000D02*
G01*
X4249000Y-98051000D01*
X4249000Y-96949000D01*
X6551000Y-96949000D01*
X6551000Y-98051000D01*
G37*
G36*
X17301000Y-98051000D02*
G01*
X14699000Y-98051000D01*
X14699000Y-95949000D01*
X17301000Y-95949000D01*
X17301000Y-98051000D01*
G37*
G36*
X50837391Y-95494819D02*
G01*
X50918631Y-95510979D01*
X51071683Y-95574376D01*
X51209426Y-95666413D01*
X51326567Y-95783554D01*
X51418604Y-95921297D01*
X51482001Y-96074349D01*
X51482001Y-96074351D01*
X51506544Y-96197733D01*
X51514320Y-96236829D01*
X51514320Y-96402491D01*
X51482001Y-96564971D01*
X51418604Y-96718023D01*
X51326567Y-96855766D01*
X51209426Y-96972907D01*
X51071683Y-97064944D01*
X50918631Y-97128341D01*
X50837391Y-97144501D01*
X50756153Y-97160660D01*
X50590487Y-97160660D01*
X50509249Y-97144501D01*
X50428009Y-97128341D01*
X50274957Y-97064944D01*
X50137214Y-96972907D01*
X50020073Y-96855766D01*
X49928036Y-96718023D01*
X49864639Y-96564971D01*
X49832320Y-96402491D01*
X49832320Y-96236829D01*
X49840097Y-96197733D01*
X49864639Y-96074351D01*
X49864639Y-96074349D01*
X49928036Y-95921297D01*
X50020073Y-95783554D01*
X50137214Y-95666413D01*
X50274957Y-95574376D01*
X50428009Y-95510979D01*
X50509249Y-95494819D01*
X50590487Y-95478660D01*
X50756153Y-95478660D01*
X50837391Y-95494819D01*
G37*
G36*
X42193692Y-94727307D02*
G01*
X42342992Y-94757004D01*
X42506964Y-94824924D01*
X42654534Y-94923527D01*
X42780033Y-95049026D01*
X42878636Y-95196596D01*
X42946556Y-95360568D01*
X42981180Y-95534639D01*
X42981180Y-95712121D01*
X42946556Y-95886192D01*
X42878636Y-96050164D01*
X42780033Y-96197734D01*
X42654534Y-96323233D01*
X42506964Y-96421836D01*
X42342992Y-96489756D01*
X42193692Y-96519453D01*
X42168922Y-96524380D01*
X41991438Y-96524380D01*
X41966668Y-96519453D01*
X41817368Y-96489756D01*
X41653396Y-96421836D01*
X41505826Y-96323233D01*
X41380327Y-96197734D01*
X41281724Y-96050164D01*
X41213804Y-95886192D01*
X41179180Y-95712121D01*
X41179180Y-95534639D01*
X41213804Y-95360568D01*
X41281724Y-95196596D01*
X41380327Y-95049026D01*
X41505826Y-94923527D01*
X41653396Y-94824924D01*
X41817368Y-94757004D01*
X41966668Y-94727307D01*
X41991438Y-94722380D01*
X42168922Y-94722380D01*
X42193692Y-94727307D01*
G37*
G36*
X51581291Y-93698720D02*
G01*
X51662531Y-93714879D01*
X51815583Y-93778276D01*
X51953326Y-93870313D01*
X52070467Y-93987454D01*
X52162504Y-94125197D01*
X52225901Y-94278249D01*
X52258220Y-94440729D01*
X52258220Y-94606391D01*
X52225901Y-94768871D01*
X52162504Y-94921923D01*
X52070467Y-95059666D01*
X51953326Y-95176807D01*
X51815583Y-95268844D01*
X51662531Y-95332241D01*
X51581291Y-95348400D01*
X51500053Y-95364560D01*
X51334387Y-95364560D01*
X51253149Y-95348400D01*
X51171909Y-95332241D01*
X51018857Y-95268844D01*
X50881114Y-95176807D01*
X50763973Y-95059666D01*
X50671936Y-94921923D01*
X50608539Y-94768871D01*
X50576220Y-94606391D01*
X50576220Y-94440729D01*
X50608539Y-94278249D01*
X50671936Y-94125197D01*
X50763973Y-93987454D01*
X50881114Y-93870313D01*
X51018857Y-93778276D01*
X51171909Y-93714879D01*
X51253149Y-93698720D01*
X51334387Y-93682560D01*
X51500053Y-93682560D01*
X51581291Y-93698720D01*
G37*
G36*
X33051000Y-95301000D02*
G01*
X30949000Y-95301000D01*
X30949000Y-92699000D01*
X33051000Y-92699000D01*
X33051000Y-95301000D01*
G37*
G36*
X29051000Y-95301000D02*
G01*
X26949000Y-95301000D01*
X26949000Y-92699000D01*
X29051000Y-92699000D01*
X29051000Y-95301000D01*
G37*
G36*
X2551000Y-94151000D02*
G01*
X1449000Y-94151000D01*
X1449000Y-91849000D01*
X2551000Y-91849000D01*
X2551000Y-94151000D01*
G37*
G36*
X17301000Y-94051000D02*
G01*
X14699000Y-94051000D01*
X14699000Y-91949000D01*
X17301000Y-91949000D01*
X17301000Y-94051000D01*
G37*
G36*
X42193692Y-92187307D02*
G01*
X42342992Y-92217004D01*
X42506964Y-92284924D01*
X42654534Y-92383527D01*
X42780033Y-92509026D01*
X42878636Y-92656596D01*
X42946556Y-92820568D01*
X42981180Y-92994639D01*
X42981180Y-93172121D01*
X42946556Y-93346192D01*
X42878636Y-93510164D01*
X42780033Y-93657734D01*
X42654534Y-93783233D01*
X42506964Y-93881836D01*
X42342992Y-93949756D01*
X42193692Y-93979453D01*
X42168922Y-93984380D01*
X41991438Y-93984380D01*
X41966668Y-93979453D01*
X41817368Y-93949756D01*
X41653396Y-93881836D01*
X41505826Y-93783233D01*
X41380327Y-93657734D01*
X41281724Y-93510164D01*
X41213804Y-93346192D01*
X41179180Y-93172121D01*
X41179180Y-92994639D01*
X41213804Y-92820568D01*
X41281724Y-92656596D01*
X41380327Y-92509026D01*
X41505826Y-92383527D01*
X41653396Y-92284924D01*
X41817368Y-92217004D01*
X41966668Y-92187307D01*
X41991438Y-92182380D01*
X42168922Y-92182380D01*
X42193692Y-92187307D01*
G37*
G36*
X50827877Y-91900727D02*
G01*
X50918631Y-91918779D01*
X51071683Y-91982176D01*
X51209426Y-92074213D01*
X51326567Y-92191354D01*
X51418604Y-92329097D01*
X51482001Y-92482149D01*
X51498161Y-92563389D01*
X51512765Y-92636808D01*
X51514320Y-92644629D01*
X51514320Y-92810291D01*
X51482001Y-92972771D01*
X51418604Y-93125823D01*
X51326567Y-93263566D01*
X51209426Y-93380707D01*
X51071683Y-93472744D01*
X50918631Y-93536141D01*
X50837391Y-93552301D01*
X50756153Y-93568460D01*
X50590487Y-93568460D01*
X50509249Y-93552301D01*
X50428009Y-93536141D01*
X50274957Y-93472744D01*
X50137214Y-93380707D01*
X50020073Y-93263566D01*
X49928036Y-93125823D01*
X49864639Y-92972771D01*
X49832320Y-92810291D01*
X49832320Y-92644629D01*
X49833876Y-92636808D01*
X49848479Y-92563389D01*
X49864639Y-92482149D01*
X49928036Y-92329097D01*
X50020073Y-92191354D01*
X50137214Y-92074213D01*
X50274957Y-91982176D01*
X50428009Y-91918779D01*
X50518763Y-91900727D01*
X50590487Y-91886460D01*
X50756153Y-91886460D01*
X50827877Y-91900727D01*
G37*
G36*
X49041291Y-91158719D02*
G01*
X49122531Y-91174879D01*
X49275583Y-91238276D01*
X49413326Y-91330313D01*
X49530467Y-91447454D01*
X49622504Y-91585197D01*
X49685901Y-91738249D01*
X49685901Y-91738251D01*
X49718220Y-91900727D01*
X49718220Y-92066393D01*
X49716664Y-92074213D01*
X49685901Y-92228871D01*
X49622504Y-92381923D01*
X49530467Y-92519666D01*
X49413326Y-92636807D01*
X49275583Y-92728844D01*
X49122531Y-92792241D01*
X49041291Y-92808401D01*
X48960053Y-92824560D01*
X48794387Y-92824560D01*
X48713149Y-92808401D01*
X48631909Y-92792241D01*
X48478857Y-92728844D01*
X48341114Y-92636807D01*
X48223973Y-92519666D01*
X48131936Y-92381923D01*
X48068539Y-92228871D01*
X48037776Y-92074213D01*
X48036220Y-92066393D01*
X48036220Y-91900727D01*
X48068539Y-91738251D01*
X48068539Y-91738249D01*
X48131936Y-91585197D01*
X48223973Y-91447454D01*
X48341114Y-91330313D01*
X48478857Y-91238276D01*
X48631909Y-91174879D01*
X48713149Y-91158719D01*
X48794387Y-91142560D01*
X48960053Y-91142560D01*
X49041291Y-91158719D01*
G37*
G36*
X42193692Y-89647307D02*
G01*
X42342992Y-89677004D01*
X42506964Y-89744924D01*
X42654534Y-89843527D01*
X42780033Y-89969026D01*
X42878636Y-90116596D01*
X42946556Y-90280568D01*
X42981180Y-90454639D01*
X42981180Y-90632121D01*
X42946556Y-90806192D01*
X42878636Y-90970164D01*
X42780033Y-91117734D01*
X42654534Y-91243233D01*
X42506964Y-91341836D01*
X42342992Y-91409756D01*
X42193692Y-91439453D01*
X42168922Y-91444380D01*
X41991438Y-91444380D01*
X41966668Y-91439453D01*
X41817368Y-91409756D01*
X41653396Y-91341836D01*
X41505826Y-91243233D01*
X41380327Y-91117734D01*
X41281724Y-90970164D01*
X41213804Y-90806192D01*
X41179180Y-90632121D01*
X41179180Y-90454639D01*
X41213804Y-90280568D01*
X41281724Y-90116596D01*
X41380327Y-89969026D01*
X41505826Y-89843527D01*
X41653396Y-89744924D01*
X41817368Y-89677004D01*
X41966668Y-89647307D01*
X41991438Y-89642380D01*
X42168922Y-89642380D01*
X42193692Y-89647307D01*
G37*
G36*
X17301000Y-91051000D02*
G01*
X14699000Y-91051000D01*
X14699000Y-88949000D01*
X17301000Y-88949000D01*
X17301000Y-91051000D01*
G37*
G36*
X9551000Y-91051000D02*
G01*
X7249000Y-91051000D01*
X7249000Y-89949000D01*
X9551000Y-89949000D01*
X9551000Y-91051000D01*
G37*
G36*
X33051000Y-90301000D02*
G01*
X30949000Y-90301000D01*
X30949000Y-87699000D01*
X33051000Y-87699000D01*
X33051000Y-90301000D01*
G37*
G36*
X29051000Y-90301000D02*
G01*
X26949000Y-90301000D01*
X26949000Y-87699000D01*
X29051000Y-87699000D01*
X29051000Y-90301000D01*
G37*
G36*
X10951000Y-88351000D02*
G01*
X8649000Y-88351000D01*
X8649000Y-87249000D01*
X10951000Y-87249000D01*
X10951000Y-88351000D01*
G37*
G36*
X17301000Y-87051000D02*
G01*
X14699000Y-87051000D01*
X14699000Y-84949000D01*
X17301000Y-84949000D01*
X17301000Y-87051000D01*
G37*
G36*
X33051000Y-85301000D02*
G01*
X30949000Y-85301000D01*
X30949000Y-82699000D01*
X33051000Y-82699000D01*
X33051000Y-85301000D01*
G37*
G36*
X29051000Y-85301000D02*
G01*
X26949000Y-85301000D01*
X26949000Y-82699000D01*
X29051000Y-82699000D01*
X29051000Y-85301000D01*
G37*
G36*
X8534358Y-80209232D02*
G01*
X8685761Y-80239348D01*
X9113616Y-80416571D01*
X9498675Y-80673859D01*
X9826141Y-81001325D01*
X10083429Y-81386384D01*
X10260652Y-81814239D01*
X10351000Y-82268447D01*
X10351000Y-82731553D01*
X10260652Y-83185761D01*
X10083429Y-83613616D01*
X9826141Y-83998675D01*
X9498675Y-84326141D01*
X9113616Y-84583429D01*
X8685761Y-84760652D01*
X8534358Y-84790768D01*
X8231555Y-84851000D01*
X7768445Y-84851000D01*
X7465642Y-84790768D01*
X7314239Y-84760652D01*
X6886384Y-84583429D01*
X6501325Y-84326141D01*
X6173859Y-83998675D01*
X5916571Y-83613616D01*
X5739348Y-83185761D01*
X5649000Y-82731553D01*
X5649000Y-82268447D01*
X5739348Y-81814239D01*
X5916571Y-81386384D01*
X6173859Y-81001325D01*
X6501325Y-80673859D01*
X6886384Y-80416571D01*
X7314239Y-80239348D01*
X7465642Y-80209232D01*
X7768445Y-80149000D01*
X8231555Y-80149000D01*
X8534358Y-80209232D01*
G37*
G36*
X17301000Y-81051000D02*
G01*
X14699000Y-81051000D01*
X14699000Y-78949000D01*
X17301000Y-78949000D01*
X17301000Y-81051000D01*
G37*
G36*
X4977395Y-79085546D02*
G01*
X5150466Y-79157234D01*
X5150467Y-79157235D01*
X5306227Y-79261310D01*
X5438690Y-79393773D01*
X5438691Y-79393775D01*
X5542766Y-79549534D01*
X5614454Y-79722605D01*
X5651000Y-79906333D01*
X5651000Y-80093667D01*
X5614454Y-80277395D01*
X5542766Y-80450466D01*
X5542765Y-80450467D01*
X5438690Y-80606227D01*
X5306227Y-80738690D01*
X5227818Y-80791081D01*
X5150466Y-80842766D01*
X4977395Y-80914454D01*
X4793667Y-80951000D01*
X4606333Y-80951000D01*
X4422605Y-80914454D01*
X4249534Y-80842766D01*
X4172182Y-80791081D01*
X4093773Y-80738690D01*
X3961310Y-80606227D01*
X3857235Y-80450467D01*
X3857234Y-80450466D01*
X3785546Y-80277395D01*
X3749000Y-80093667D01*
X3749000Y-79906333D01*
X3785546Y-79722605D01*
X3857234Y-79549534D01*
X3961309Y-79393775D01*
X3961310Y-79393773D01*
X4093773Y-79261310D01*
X4249533Y-79157235D01*
X4249534Y-79157234D01*
X4422605Y-79085546D01*
X4606333Y-79049000D01*
X4793667Y-79049000D01*
X4977395Y-79085546D01*
G37*
G36*
X33051000Y-80301000D02*
G01*
X30949000Y-80301000D01*
X30949000Y-77699000D01*
X33051000Y-77699000D01*
X33051000Y-80301000D01*
G37*
G36*
X29051000Y-80301000D02*
G01*
X26949000Y-80301000D01*
X26949000Y-77699000D01*
X29051000Y-77699000D01*
X29051000Y-80301000D01*
G37*
G36*
X4977395Y-76585546D02*
G01*
X5150466Y-76657234D01*
X5150467Y-76657235D01*
X5306227Y-76761310D01*
X5438690Y-76893773D01*
X5438691Y-76893775D01*
X5542766Y-77049534D01*
X5614454Y-77222605D01*
X5651000Y-77406333D01*
X5651000Y-77593667D01*
X5614454Y-77777395D01*
X5542766Y-77950466D01*
X5542765Y-77950467D01*
X5438690Y-78106227D01*
X5306227Y-78238690D01*
X5227818Y-78291081D01*
X5150466Y-78342766D01*
X4977395Y-78414454D01*
X4793667Y-78451000D01*
X4606333Y-78451000D01*
X4422605Y-78414454D01*
X4249534Y-78342766D01*
X4172182Y-78291081D01*
X4093773Y-78238690D01*
X3961310Y-78106227D01*
X3857235Y-77950467D01*
X3857234Y-77950466D01*
X3785546Y-77777395D01*
X3749000Y-77593667D01*
X3749000Y-77406333D01*
X3785546Y-77222605D01*
X3857234Y-77049534D01*
X3961309Y-76893775D01*
X3961310Y-76893773D01*
X4093773Y-76761310D01*
X4249533Y-76657235D01*
X4249534Y-76657234D01*
X4422605Y-76585546D01*
X4606333Y-76549000D01*
X4793667Y-76549000D01*
X4977395Y-76585546D01*
G37*
G36*
X24501000Y-77401000D02*
G01*
X23499000Y-77401000D01*
X23499000Y-76499000D01*
X24501000Y-76499000D01*
X24501000Y-77401000D01*
G37*
G36*
X17301000Y-77051000D02*
G01*
X14699000Y-77051000D01*
X14699000Y-74949000D01*
X17301000Y-74949000D01*
X17301000Y-77051000D01*
G37*
G36*
X22501000Y-76451000D02*
G01*
X21499000Y-76451000D01*
X21499000Y-75549000D01*
X22501000Y-75549000D01*
X22501000Y-76451000D01*
G37*
G36*
X4977395Y-74085546D02*
G01*
X5150466Y-74157234D01*
X5150467Y-74157235D01*
X5306227Y-74261310D01*
X5438690Y-74393773D01*
X5438691Y-74393775D01*
X5542766Y-74549534D01*
X5614454Y-74722605D01*
X5651000Y-74906333D01*
X5651000Y-75093667D01*
X5614454Y-75277395D01*
X5542766Y-75450466D01*
X5542765Y-75450467D01*
X5438690Y-75606227D01*
X5306227Y-75738690D01*
X5227818Y-75791081D01*
X5150466Y-75842766D01*
X4977395Y-75914454D01*
X4793667Y-75951000D01*
X4606333Y-75951000D01*
X4422605Y-75914454D01*
X4249534Y-75842766D01*
X4172182Y-75791081D01*
X4093773Y-75738690D01*
X3961310Y-75606227D01*
X3857235Y-75450467D01*
X3857234Y-75450466D01*
X3785546Y-75277395D01*
X3749000Y-75093667D01*
X3749000Y-74906333D01*
X3785546Y-74722605D01*
X3857234Y-74549534D01*
X3961309Y-74393775D01*
X3961310Y-74393773D01*
X4093773Y-74261310D01*
X4249533Y-74157235D01*
X4249534Y-74157234D01*
X4422605Y-74085546D01*
X4606333Y-74049000D01*
X4793667Y-74049000D01*
X4977395Y-74085546D01*
G37*
G36*
X24501000Y-75501000D02*
G01*
X23499000Y-75501000D01*
X23499000Y-74599000D01*
X24501000Y-74599000D01*
X24501000Y-75501000D01*
G37*
G36*
X29051000Y-75301000D02*
G01*
X26949000Y-75301000D01*
X26949000Y-72699000D01*
X29051000Y-72699000D01*
X29051000Y-75301000D01*
G37*
G36*
X33051000Y-75301000D02*
G01*
X30949000Y-75301000D01*
X30949000Y-72699000D01*
X33051000Y-72699000D01*
X33051000Y-75301000D01*
G37*
G36*
X8534358Y-70209232D02*
G01*
X8685761Y-70239348D01*
X9113616Y-70416571D01*
X9498675Y-70673859D01*
X9826141Y-71001325D01*
X10083429Y-71386384D01*
X10260652Y-71814239D01*
X10351000Y-72268447D01*
X10351000Y-72731553D01*
X10260652Y-73185761D01*
X10083429Y-73613616D01*
X9826141Y-73998675D01*
X9498675Y-74326141D01*
X9113616Y-74583429D01*
X8685761Y-74760652D01*
X8534358Y-74790768D01*
X8231555Y-74851000D01*
X7768445Y-74851000D01*
X7465642Y-74790768D01*
X7314239Y-74760652D01*
X6886384Y-74583429D01*
X6501325Y-74326141D01*
X6173859Y-73998675D01*
X5916571Y-73613616D01*
X5739348Y-73185761D01*
X5649000Y-72731553D01*
X5649000Y-72268447D01*
X5739348Y-71814239D01*
X5916571Y-71386384D01*
X6173859Y-71001325D01*
X6501325Y-70673859D01*
X6886384Y-70416571D01*
X7314239Y-70239348D01*
X7465642Y-70209232D01*
X7768445Y-70149000D01*
X8231555Y-70149000D01*
X8534358Y-70209232D01*
G37*
G36*
X17301000Y-74051000D02*
G01*
X14699000Y-74051000D01*
X14699000Y-71949000D01*
X17301000Y-71949000D01*
X17301000Y-74051000D01*
G37*
G36*
X23451000Y-73501000D02*
G01*
X22549000Y-73501000D01*
X22549000Y-72499000D01*
X23451000Y-72499000D01*
X23451000Y-73501000D01*
G37*
G36*
X22501000Y-71501000D02*
G01*
X21599000Y-71501000D01*
X21599000Y-70499000D01*
X22501000Y-70499000D01*
X22501000Y-71501000D01*
G37*
G36*
X24401000Y-71501000D02*
G01*
X23499000Y-71501000D01*
X23499000Y-70499000D01*
X24401000Y-70499000D01*
X24401000Y-71501000D01*
G37*
G36*
X33051000Y-70301000D02*
G01*
X30949000Y-70301000D01*
X30949000Y-67699000D01*
X33051000Y-67699000D01*
X33051000Y-70301000D01*
G37*
G36*
X29051000Y-70301000D02*
G01*
X26949000Y-70301000D01*
X26949000Y-67699000D01*
X29051000Y-67699000D01*
X29051000Y-70301000D01*
G37*
G36*
X17301000Y-70051000D02*
G01*
X14699000Y-70051000D01*
X14699000Y-67949000D01*
X17301000Y-67949000D01*
X17301000Y-70051000D01*
G37*
G36*
X33051000Y-65301000D02*
G01*
X30949000Y-65301000D01*
X30949000Y-62699000D01*
X33051000Y-62699000D01*
X33051000Y-65301000D01*
G37*
G36*
X29051000Y-65301000D02*
G01*
X26949000Y-65301000D01*
X26949000Y-62699000D01*
X29051000Y-62699000D01*
X29051000Y-65301000D01*
G37*
G36*
X13551000Y-63151000D02*
G01*
X12449000Y-63151000D01*
X12449000Y-60849000D01*
X13551000Y-60849000D01*
X13551000Y-63151000D01*
G37*
G36*
X6551000Y-63051000D02*
G01*
X4249000Y-63051000D01*
X4249000Y-61949000D01*
X6551000Y-61949000D01*
X6551000Y-63051000D01*
G37*
G36*
X17301000Y-62051000D02*
G01*
X14699000Y-62051000D01*
X14699000Y-59949000D01*
X17301000Y-59949000D01*
X17301000Y-62051000D01*
G37*
G36*
X31051000Y-59301000D02*
G01*
X28949000Y-59301000D01*
X28949000Y-56699000D01*
X31051000Y-56699000D01*
X31051000Y-59301000D01*
G37*
G36*
X27051000Y-59301000D02*
G01*
X24949000Y-59301000D01*
X24949000Y-56699000D01*
X27051000Y-56699000D01*
X27051000Y-59301000D01*
G37*
G36*
X2551000Y-59151000D02*
G01*
X1449000Y-59151000D01*
X1449000Y-56849000D01*
X2551000Y-56849000D01*
X2551000Y-59151000D01*
G37*
G36*
X37653512Y-56883927D02*
G01*
X37802812Y-56913624D01*
X37966784Y-56981544D01*
X38114354Y-57080147D01*
X38239853Y-57205646D01*
X38338456Y-57353216D01*
X38406376Y-57517188D01*
X38441000Y-57691259D01*
X38441000Y-57868741D01*
X38406376Y-58042812D01*
X38338456Y-58206784D01*
X38239853Y-58354354D01*
X38114354Y-58479853D01*
X37966784Y-58578456D01*
X37802812Y-58646376D01*
X37653512Y-58676073D01*
X37628742Y-58681000D01*
X37451258Y-58681000D01*
X37426488Y-58676073D01*
X37277188Y-58646376D01*
X37113216Y-58578456D01*
X36965646Y-58479853D01*
X36840147Y-58354354D01*
X36741544Y-58206784D01*
X36673624Y-58042812D01*
X36639000Y-57868741D01*
X36639000Y-57691259D01*
X36673624Y-57517188D01*
X36741544Y-57353216D01*
X36840147Y-57205646D01*
X36965646Y-57080147D01*
X37113216Y-56981544D01*
X37277188Y-56913624D01*
X37426488Y-56883927D01*
X37451258Y-56879000D01*
X37628742Y-56879000D01*
X37653512Y-56883927D01*
G37*
G36*
X35113512Y-56883927D02*
G01*
X35262812Y-56913624D01*
X35426784Y-56981544D01*
X35574354Y-57080147D01*
X35699853Y-57205646D01*
X35798456Y-57353216D01*
X35866376Y-57517188D01*
X35901000Y-57691259D01*
X35901000Y-57868741D01*
X35866376Y-58042812D01*
X35798456Y-58206784D01*
X35699853Y-58354354D01*
X35574354Y-58479853D01*
X35426784Y-58578456D01*
X35262812Y-58646376D01*
X35113512Y-58676073D01*
X35088742Y-58681000D01*
X34911258Y-58681000D01*
X34886488Y-58676073D01*
X34737188Y-58646376D01*
X34573216Y-58578456D01*
X34425646Y-58479853D01*
X34300147Y-58354354D01*
X34201544Y-58206784D01*
X34133624Y-58042812D01*
X34099000Y-57868741D01*
X34099000Y-57691259D01*
X34133624Y-57517188D01*
X34201544Y-57353216D01*
X34300147Y-57205646D01*
X34425646Y-57080147D01*
X34573216Y-56981544D01*
X34737188Y-56913624D01*
X34886488Y-56883927D01*
X34911258Y-56879000D01*
X35088742Y-56879000D01*
X35113512Y-56883927D01*
G37*
G36*
X21827640Y-58054100D02*
G01*
X20925640Y-58054100D01*
X20925640Y-57052100D01*
X21827640Y-57052100D01*
X21827640Y-58054100D01*
G37*
G36*
X17301000Y-58051000D02*
G01*
X14699000Y-58051000D01*
X14699000Y-55949000D01*
X17301000Y-55949000D01*
X17301000Y-58051000D01*
G37*
G36*
X37653512Y-54343927D02*
G01*
X37802812Y-54373624D01*
X37966784Y-54441544D01*
X38114354Y-54540147D01*
X38239853Y-54665646D01*
X38338456Y-54813216D01*
X38406376Y-54977188D01*
X38441000Y-55151259D01*
X38441000Y-55328741D01*
X38406376Y-55502812D01*
X38338456Y-55666784D01*
X38239853Y-55814354D01*
X38114354Y-55939853D01*
X37966784Y-56038456D01*
X37802812Y-56106376D01*
X37653512Y-56136073D01*
X37628742Y-56141000D01*
X37451258Y-56141000D01*
X37426488Y-56136073D01*
X37277188Y-56106376D01*
X37113216Y-56038456D01*
X36965646Y-55939853D01*
X36840147Y-55814354D01*
X36741544Y-55666784D01*
X36673624Y-55502812D01*
X36639000Y-55328741D01*
X36639000Y-55151259D01*
X36673624Y-54977188D01*
X36741544Y-54813216D01*
X36840147Y-54665646D01*
X36965646Y-54540147D01*
X37113216Y-54441544D01*
X37277188Y-54373624D01*
X37426488Y-54343927D01*
X37451258Y-54339000D01*
X37628742Y-54339000D01*
X37653512Y-54343927D01*
G37*
G36*
X35113512Y-54343927D02*
G01*
X35262812Y-54373624D01*
X35426784Y-54441544D01*
X35574354Y-54540147D01*
X35699853Y-54665646D01*
X35798456Y-54813216D01*
X35866376Y-54977188D01*
X35901000Y-55151259D01*
X35901000Y-55328741D01*
X35866376Y-55502812D01*
X35798456Y-55666784D01*
X35699853Y-55814354D01*
X35574354Y-55939853D01*
X35426784Y-56038456D01*
X35262812Y-56106376D01*
X35113512Y-56136073D01*
X35088742Y-56141000D01*
X34911258Y-56141000D01*
X34886488Y-56136073D01*
X34737188Y-56106376D01*
X34573216Y-56038456D01*
X34425646Y-55939853D01*
X34300147Y-55814354D01*
X34201544Y-55666784D01*
X34133624Y-55502812D01*
X34099000Y-55328741D01*
X34099000Y-55151259D01*
X34133624Y-54977188D01*
X34201544Y-54813216D01*
X34300147Y-54665646D01*
X34425646Y-54540147D01*
X34573216Y-54441544D01*
X34737188Y-54373624D01*
X34886488Y-54343927D01*
X34911258Y-54339000D01*
X35088742Y-54339000D01*
X35113512Y-54343927D01*
G37*
G36*
X20877640Y-56054100D02*
G01*
X19975640Y-56054100D01*
X19975640Y-55052100D01*
X20877640Y-55052100D01*
X20877640Y-56054100D01*
G37*
G36*
X22777640Y-56054100D02*
G01*
X21875640Y-56054100D01*
X21875640Y-55052100D01*
X22777640Y-55052100D01*
X22777640Y-56054100D01*
G37*
G36*
X9551000Y-56051000D02*
G01*
X7249000Y-56051000D01*
X7249000Y-54949000D01*
X9551000Y-54949000D01*
X9551000Y-56051000D01*
G37*
G36*
X17301000Y-55051000D02*
G01*
X14699000Y-55051000D01*
X14699000Y-52949000D01*
X17301000Y-52949000D01*
X17301000Y-55051000D01*
G37*
G36*
X27051000Y-54301000D02*
G01*
X24949000Y-54301000D01*
X24949000Y-51699000D01*
X27051000Y-51699000D01*
X27051000Y-54301000D01*
G37*
G36*
X31051000Y-54301000D02*
G01*
X28949000Y-54301000D01*
X28949000Y-51699000D01*
X31051000Y-51699000D01*
X31051000Y-54301000D01*
G37*
G36*
X35113512Y-51803927D02*
G01*
X35262812Y-51833624D01*
X35426784Y-51901544D01*
X35574354Y-52000147D01*
X35699853Y-52125646D01*
X35798456Y-52273216D01*
X35866376Y-52437188D01*
X35901000Y-52611259D01*
X35901000Y-52788741D01*
X35866376Y-52962812D01*
X35798456Y-53126784D01*
X35699853Y-53274354D01*
X35574354Y-53399853D01*
X35426784Y-53498456D01*
X35262812Y-53566376D01*
X35113512Y-53596073D01*
X35088742Y-53601000D01*
X34911258Y-53601000D01*
X34886488Y-53596073D01*
X34737188Y-53566376D01*
X34573216Y-53498456D01*
X34425646Y-53399853D01*
X34300147Y-53274354D01*
X34201544Y-53126784D01*
X34133624Y-52962812D01*
X34099000Y-52788741D01*
X34099000Y-52611259D01*
X34133624Y-52437188D01*
X34201544Y-52273216D01*
X34300147Y-52125646D01*
X34425646Y-52000147D01*
X34573216Y-51901544D01*
X34737188Y-51833624D01*
X34886488Y-51803927D01*
X34911258Y-51799000D01*
X35088742Y-51799000D01*
X35113512Y-51803927D01*
G37*
G36*
X37653512Y-51803927D02*
G01*
X37802812Y-51833624D01*
X37966784Y-51901544D01*
X38114354Y-52000147D01*
X38239853Y-52125646D01*
X38338456Y-52273216D01*
X38406376Y-52437188D01*
X38441000Y-52611259D01*
X38441000Y-52788741D01*
X38406376Y-52962812D01*
X38338456Y-53126784D01*
X38239853Y-53274354D01*
X38114354Y-53399853D01*
X37966784Y-53498456D01*
X37802812Y-53566376D01*
X37653512Y-53596073D01*
X37628742Y-53601000D01*
X37451258Y-53601000D01*
X37426488Y-53596073D01*
X37277188Y-53566376D01*
X37113216Y-53498456D01*
X36965646Y-53399853D01*
X36840147Y-53274354D01*
X36741544Y-53126784D01*
X36673624Y-52962812D01*
X36639000Y-52788741D01*
X36639000Y-52611259D01*
X36673624Y-52437188D01*
X36741544Y-52273216D01*
X36840147Y-52125646D01*
X36965646Y-52000147D01*
X37113216Y-51901544D01*
X37277188Y-51833624D01*
X37426488Y-51803927D01*
X37451258Y-51799000D01*
X37628742Y-51799000D01*
X37653512Y-51803927D01*
G37*
G36*
X10951000Y-53351000D02*
G01*
X8649000Y-53351000D01*
X8649000Y-52249000D01*
X10951000Y-52249000D01*
X10951000Y-53351000D01*
G37*
G36*
X20941140Y-53336380D02*
G01*
X19939140Y-53336380D01*
X19939140Y-52434380D01*
X20941140Y-52434380D01*
X20941140Y-53336380D01*
G37*
G36*
X22941140Y-52386380D02*
G01*
X21939140Y-52386380D01*
X21939140Y-51484380D01*
X22941140Y-51484380D01*
X22941140Y-52386380D01*
G37*
G36*
X20941140Y-51436380D02*
G01*
X19939140Y-51436380D01*
X19939140Y-50534380D01*
X20941140Y-50534380D01*
X20941140Y-51436380D01*
G37*
G36*
X35113512Y-49263927D02*
G01*
X35262812Y-49293624D01*
X35426784Y-49361544D01*
X35574354Y-49460147D01*
X35699853Y-49585646D01*
X35798456Y-49733216D01*
X35866376Y-49897188D01*
X35901000Y-50071259D01*
X35901000Y-50248741D01*
X35866376Y-50422812D01*
X35798456Y-50586784D01*
X35699853Y-50734354D01*
X35574354Y-50859853D01*
X35426784Y-50958456D01*
X35262812Y-51026376D01*
X35113512Y-51056073D01*
X35088742Y-51061000D01*
X34911258Y-51061000D01*
X34886488Y-51056073D01*
X34737188Y-51026376D01*
X34573216Y-50958456D01*
X34425646Y-50859853D01*
X34300147Y-50734354D01*
X34201544Y-50586784D01*
X34133624Y-50422812D01*
X34099000Y-50248741D01*
X34099000Y-50071259D01*
X34133624Y-49897188D01*
X34201544Y-49733216D01*
X34300147Y-49585646D01*
X34425646Y-49460147D01*
X34573216Y-49361544D01*
X34737188Y-49293624D01*
X34886488Y-49263927D01*
X34911258Y-49259000D01*
X35088742Y-49259000D01*
X35113512Y-49263927D01*
G37*
G36*
X37653512Y-49263927D02*
G01*
X37802812Y-49293624D01*
X37966784Y-49361544D01*
X38114354Y-49460147D01*
X38239853Y-49585646D01*
X38338456Y-49733216D01*
X38406376Y-49897188D01*
X38441000Y-50071259D01*
X38441000Y-50248741D01*
X38406376Y-50422812D01*
X38338456Y-50586784D01*
X38239853Y-50734354D01*
X38114354Y-50859853D01*
X37966784Y-50958456D01*
X37802812Y-51026376D01*
X37653512Y-51056073D01*
X37628742Y-51061000D01*
X37451258Y-51061000D01*
X37426488Y-51056073D01*
X37277188Y-51026376D01*
X37113216Y-50958456D01*
X36965646Y-50859853D01*
X36840147Y-50734354D01*
X36741544Y-50586784D01*
X36673624Y-50422812D01*
X36639000Y-50248741D01*
X36639000Y-50071259D01*
X36673624Y-49897188D01*
X36741544Y-49733216D01*
X36840147Y-49585646D01*
X36965646Y-49460147D01*
X37113216Y-49361544D01*
X37277188Y-49293624D01*
X37426488Y-49263927D01*
X37451258Y-49259000D01*
X37628742Y-49259000D01*
X37653512Y-49263927D01*
G37*
G36*
X17301000Y-51051000D02*
G01*
X14699000Y-51051000D01*
X14699000Y-48949000D01*
X17301000Y-48949000D01*
X17301000Y-51051000D01*
G37*
G36*
X8534358Y-45209232D02*
G01*
X8685761Y-45239348D01*
X9113616Y-45416571D01*
X9498675Y-45673859D01*
X9826141Y-46001325D01*
X10083429Y-46386384D01*
X10260652Y-46814239D01*
X10351000Y-47268447D01*
X10351000Y-47731553D01*
X10260652Y-48185761D01*
X10083429Y-48613616D01*
X9826141Y-48998675D01*
X9498675Y-49326141D01*
X9113616Y-49583429D01*
X9113615Y-49583430D01*
X9113614Y-49583430D01*
X8988297Y-49635338D01*
X8685761Y-49760652D01*
X8534358Y-49790768D01*
X8231555Y-49851000D01*
X7768445Y-49851000D01*
X7465642Y-49790768D01*
X7314239Y-49760652D01*
X7011703Y-49635338D01*
X6886386Y-49583430D01*
X6886385Y-49583430D01*
X6886384Y-49583429D01*
X6501325Y-49326141D01*
X6173859Y-48998675D01*
X5916571Y-48613616D01*
X5739348Y-48185761D01*
X5649000Y-47731553D01*
X5649000Y-47268447D01*
X5739348Y-46814239D01*
X5916571Y-46386384D01*
X6173859Y-46001325D01*
X6501325Y-45673859D01*
X6886384Y-45416571D01*
X7314239Y-45239348D01*
X7465642Y-45209232D01*
X7768445Y-45149000D01*
X8231555Y-45149000D01*
X8534358Y-45209232D01*
G37*
G36*
X31051000Y-49301000D02*
G01*
X28949000Y-49301000D01*
X28949000Y-46699000D01*
X31051000Y-46699000D01*
X31051000Y-49301000D01*
G37*
G36*
X27051000Y-49301000D02*
G01*
X24949000Y-49301000D01*
X24949000Y-46699000D01*
X27051000Y-46699000D01*
X27051000Y-49301000D01*
G37*
G36*
X37653512Y-46723927D02*
G01*
X37802812Y-46753624D01*
X37966784Y-46821544D01*
X38114354Y-46920147D01*
X38239853Y-47045646D01*
X38338456Y-47193216D01*
X38406376Y-47357188D01*
X38441000Y-47531259D01*
X38441000Y-47708741D01*
X38406376Y-47882812D01*
X38338456Y-48046784D01*
X38239853Y-48194354D01*
X38114354Y-48319853D01*
X37966784Y-48418456D01*
X37802812Y-48486376D01*
X37653512Y-48516073D01*
X37628742Y-48521000D01*
X37451258Y-48521000D01*
X37426488Y-48516073D01*
X37277188Y-48486376D01*
X37113216Y-48418456D01*
X36965646Y-48319853D01*
X36840147Y-48194354D01*
X36741544Y-48046784D01*
X36673624Y-47882812D01*
X36639000Y-47708741D01*
X36639000Y-47531259D01*
X36673624Y-47357188D01*
X36741544Y-47193216D01*
X36840147Y-47045646D01*
X36965646Y-46920147D01*
X37113216Y-46821544D01*
X37277188Y-46753624D01*
X37426488Y-46723927D01*
X37451258Y-46719000D01*
X37628742Y-46719000D01*
X37653512Y-46723927D01*
G37*
G36*
X35113512Y-46723927D02*
G01*
X35262812Y-46753624D01*
X35426784Y-46821544D01*
X35574354Y-46920147D01*
X35699853Y-47045646D01*
X35798456Y-47193216D01*
X35866376Y-47357188D01*
X35901000Y-47531259D01*
X35901000Y-47708741D01*
X35866376Y-47882812D01*
X35798456Y-48046784D01*
X35699853Y-48194354D01*
X35574354Y-48319853D01*
X35426784Y-48418456D01*
X35262812Y-48486376D01*
X35113512Y-48516073D01*
X35088742Y-48521000D01*
X34911258Y-48521000D01*
X34886488Y-48516073D01*
X34737188Y-48486376D01*
X34573216Y-48418456D01*
X34425646Y-48319853D01*
X34300147Y-48194354D01*
X34201544Y-48046784D01*
X34133624Y-47882812D01*
X34099000Y-47708741D01*
X34099000Y-47531259D01*
X34133624Y-47357188D01*
X34201544Y-47193216D01*
X34300147Y-47045646D01*
X34425646Y-46920147D01*
X34573216Y-46821544D01*
X34737188Y-46753624D01*
X34886488Y-46723927D01*
X34911258Y-46719000D01*
X35088742Y-46719000D01*
X35113512Y-46723927D01*
G37*
G36*
X17301000Y-48051000D02*
G01*
X14699000Y-48051000D01*
X14699000Y-45949000D01*
X17301000Y-45949000D01*
X17301000Y-48051000D01*
G37*
G36*
X22301000Y-48051000D02*
G01*
X19699000Y-48051000D01*
X19699000Y-45949000D01*
X22301000Y-45949000D01*
X22301000Y-48051000D01*
G37*
G36*
X35113512Y-44183927D02*
G01*
X35262812Y-44213624D01*
X35426784Y-44281544D01*
X35574354Y-44380147D01*
X35699853Y-44505646D01*
X35798456Y-44653216D01*
X35866376Y-44817188D01*
X35901000Y-44991259D01*
X35901000Y-45168741D01*
X35866376Y-45342812D01*
X35798456Y-45506784D01*
X35699853Y-45654354D01*
X35574354Y-45779853D01*
X35426784Y-45878456D01*
X35262812Y-45946376D01*
X35113512Y-45976073D01*
X35088742Y-45981000D01*
X34911258Y-45981000D01*
X34886488Y-45976073D01*
X34737188Y-45946376D01*
X34573216Y-45878456D01*
X34425646Y-45779853D01*
X34300147Y-45654354D01*
X34201544Y-45506784D01*
X34133624Y-45342812D01*
X34099000Y-45168741D01*
X34099000Y-44991259D01*
X34133624Y-44817188D01*
X34201544Y-44653216D01*
X34300147Y-44505646D01*
X34425646Y-44380147D01*
X34573216Y-44281544D01*
X34737188Y-44213624D01*
X34886488Y-44183927D01*
X34911258Y-44179000D01*
X35088742Y-44179000D01*
X35113512Y-44183927D01*
G37*
G36*
X37653512Y-44183927D02*
G01*
X37802812Y-44213624D01*
X37966784Y-44281544D01*
X38114354Y-44380147D01*
X38239853Y-44505646D01*
X38338456Y-44653216D01*
X38406376Y-44817188D01*
X38441000Y-44991259D01*
X38441000Y-45168741D01*
X38406376Y-45342812D01*
X38338456Y-45506784D01*
X38239853Y-45654354D01*
X38114354Y-45779853D01*
X37966784Y-45878456D01*
X37802812Y-45946376D01*
X37653512Y-45976073D01*
X37628742Y-45981000D01*
X37451258Y-45981000D01*
X37426488Y-45976073D01*
X37277188Y-45946376D01*
X37113216Y-45878456D01*
X36965646Y-45779853D01*
X36840147Y-45654354D01*
X36741544Y-45506784D01*
X36673624Y-45342812D01*
X36639000Y-45168741D01*
X36639000Y-44991259D01*
X36673624Y-44817188D01*
X36741544Y-44653216D01*
X36840147Y-44505646D01*
X36965646Y-44380147D01*
X37113216Y-44281544D01*
X37277188Y-44213624D01*
X37426488Y-44183927D01*
X37451258Y-44179000D01*
X37628742Y-44179000D01*
X37653512Y-44183927D01*
G37*
G36*
X4977395Y-44085546D02*
G01*
X5150466Y-44157234D01*
X5150467Y-44157235D01*
X5306227Y-44261310D01*
X5438690Y-44393773D01*
X5438691Y-44393775D01*
X5542766Y-44549534D01*
X5614454Y-44722605D01*
X5651000Y-44906333D01*
X5651000Y-45093667D01*
X5614454Y-45277395D01*
X5542766Y-45450466D01*
X5542765Y-45450467D01*
X5438690Y-45606227D01*
X5306227Y-45738690D01*
X5244623Y-45779852D01*
X5150466Y-45842766D01*
X4977395Y-45914454D01*
X4793667Y-45951000D01*
X4606333Y-45951000D01*
X4422605Y-45914454D01*
X4249534Y-45842766D01*
X4155377Y-45779852D01*
X4093773Y-45738690D01*
X3961310Y-45606227D01*
X3857235Y-45450467D01*
X3857234Y-45450466D01*
X3785546Y-45277395D01*
X3749000Y-45093667D01*
X3749000Y-44906333D01*
X3785546Y-44722605D01*
X3857234Y-44549534D01*
X3961309Y-44393775D01*
X3961310Y-44393773D01*
X4093773Y-44261310D01*
X4249533Y-44157235D01*
X4249534Y-44157234D01*
X4422605Y-44085546D01*
X4606333Y-44049000D01*
X4793667Y-44049000D01*
X4977395Y-44085546D01*
G37*
G36*
X27051000Y-44301000D02*
G01*
X24949000Y-44301000D01*
X24949000Y-41699000D01*
X27051000Y-41699000D01*
X27051000Y-44301000D01*
G37*
G36*
X31051000Y-44301000D02*
G01*
X28949000Y-44301000D01*
X28949000Y-41699000D01*
X31051000Y-41699000D01*
X31051000Y-44301000D01*
G37*
G36*
X17301000Y-44051000D02*
G01*
X14699000Y-44051000D01*
X14699000Y-41949000D01*
X17301000Y-41949000D01*
X17301000Y-44051000D01*
G37*
G36*
X22301000Y-44051000D02*
G01*
X19699000Y-44051000D01*
X19699000Y-41949000D01*
X22301000Y-41949000D01*
X22301000Y-44051000D01*
G37*
G36*
X4977395Y-41585546D02*
G01*
X5150466Y-41657234D01*
X5212973Y-41699000D01*
X5306227Y-41761310D01*
X5438690Y-41893773D01*
X5438691Y-41893775D01*
X5542766Y-42049534D01*
X5614454Y-42222605D01*
X5651000Y-42406333D01*
X5651000Y-42593667D01*
X5614454Y-42777395D01*
X5542766Y-42950466D01*
X5491081Y-43027818D01*
X5438690Y-43106227D01*
X5306227Y-43238690D01*
X5304486Y-43239853D01*
X5150466Y-43342766D01*
X4977395Y-43414454D01*
X4793667Y-43451000D01*
X4606333Y-43451000D01*
X4422605Y-43414454D01*
X4249534Y-43342766D01*
X4095514Y-43239853D01*
X4093773Y-43238690D01*
X3961310Y-43106227D01*
X3908919Y-43027818D01*
X3857234Y-42950466D01*
X3785546Y-42777395D01*
X3749000Y-42593667D01*
X3749000Y-42406333D01*
X3785546Y-42222605D01*
X3857234Y-42049534D01*
X3961309Y-41893775D01*
X3961310Y-41893773D01*
X4093773Y-41761310D01*
X4187027Y-41699000D01*
X4249534Y-41657234D01*
X4422605Y-41585546D01*
X4606333Y-41549000D01*
X4793667Y-41549000D01*
X4977395Y-41585546D01*
G37*
G36*
X37653512Y-41643927D02*
G01*
X37802812Y-41673624D01*
X37966784Y-41741544D01*
X38114354Y-41840147D01*
X38239853Y-41965646D01*
X38338456Y-42113216D01*
X38406376Y-42277188D01*
X38441000Y-42451259D01*
X38441000Y-42628741D01*
X38406376Y-42802812D01*
X38338456Y-42966784D01*
X38239853Y-43114354D01*
X38114354Y-43239853D01*
X37966784Y-43338456D01*
X37802812Y-43406376D01*
X37653512Y-43436073D01*
X37628742Y-43441000D01*
X37451258Y-43441000D01*
X37426488Y-43436073D01*
X37277188Y-43406376D01*
X37113216Y-43338456D01*
X36965646Y-43239853D01*
X36840147Y-43114354D01*
X36741544Y-42966784D01*
X36673624Y-42802812D01*
X36639000Y-42628741D01*
X36639000Y-42451259D01*
X36673624Y-42277188D01*
X36741544Y-42113216D01*
X36840147Y-41965646D01*
X36965646Y-41840147D01*
X37113216Y-41741544D01*
X37277188Y-41673624D01*
X37426488Y-41643927D01*
X37451258Y-41639000D01*
X37628742Y-41639000D01*
X37653512Y-41643927D01*
G37*
G36*
X35113512Y-41643927D02*
G01*
X35262812Y-41673624D01*
X35426784Y-41741544D01*
X35574354Y-41840147D01*
X35699853Y-41965646D01*
X35798456Y-42113216D01*
X35866376Y-42277188D01*
X35901000Y-42451259D01*
X35901000Y-42628741D01*
X35866376Y-42802812D01*
X35798456Y-42966784D01*
X35699853Y-43114354D01*
X35574354Y-43239853D01*
X35426784Y-43338456D01*
X35262812Y-43406376D01*
X35113512Y-43436073D01*
X35088742Y-43441000D01*
X34911258Y-43441000D01*
X34886488Y-43436073D01*
X34737188Y-43406376D01*
X34573216Y-43338456D01*
X34425646Y-43239853D01*
X34300147Y-43114354D01*
X34201544Y-42966784D01*
X34133624Y-42802812D01*
X34099000Y-42628741D01*
X34099000Y-42451259D01*
X34133624Y-42277188D01*
X34201544Y-42113216D01*
X34300147Y-41965646D01*
X34425646Y-41840147D01*
X34573216Y-41741544D01*
X34737188Y-41673624D01*
X34886488Y-41643927D01*
X34911258Y-41639000D01*
X35088742Y-41639000D01*
X35113512Y-41643927D01*
G37*
G36*
X4977395Y-39085546D02*
G01*
X5150466Y-39157234D01*
X5150467Y-39157235D01*
X5306227Y-39261310D01*
X5438690Y-39393773D01*
X5438691Y-39393775D01*
X5542766Y-39549534D01*
X5614454Y-39722605D01*
X5651000Y-39906333D01*
X5651000Y-40093667D01*
X5614454Y-40277395D01*
X5542766Y-40450466D01*
X5542765Y-40450467D01*
X5438690Y-40606227D01*
X5306227Y-40738690D01*
X5227818Y-40791081D01*
X5150466Y-40842766D01*
X4977395Y-40914454D01*
X4793667Y-40951000D01*
X4606333Y-40951000D01*
X4422605Y-40914454D01*
X4249534Y-40842766D01*
X4172182Y-40791081D01*
X4093773Y-40738690D01*
X3961310Y-40606227D01*
X3857235Y-40450467D01*
X3857234Y-40450466D01*
X3785546Y-40277395D01*
X3749000Y-40093667D01*
X3749000Y-39906333D01*
X3785546Y-39722605D01*
X3857234Y-39549534D01*
X3961309Y-39393775D01*
X3961310Y-39393773D01*
X4093773Y-39261310D01*
X4249533Y-39157235D01*
X4249534Y-39157234D01*
X4422605Y-39085546D01*
X4606333Y-39049000D01*
X4793667Y-39049000D01*
X4977395Y-39085546D01*
G37*
G36*
X35901000Y-40901000D02*
G01*
X34099000Y-40901000D01*
X34099000Y-39099000D01*
X35901000Y-39099000D01*
X35901000Y-40901000D01*
G37*
G36*
X37653512Y-39103927D02*
G01*
X37802812Y-39133624D01*
X37966784Y-39201544D01*
X38114354Y-39300147D01*
X38239853Y-39425646D01*
X38338456Y-39573216D01*
X38406376Y-39737188D01*
X38441000Y-39911259D01*
X38441000Y-40088741D01*
X38406376Y-40262812D01*
X38338456Y-40426784D01*
X38239853Y-40574354D01*
X38114354Y-40699853D01*
X37966784Y-40798456D01*
X37802812Y-40866376D01*
X37653512Y-40896073D01*
X37628742Y-40901000D01*
X37451258Y-40901000D01*
X37426488Y-40896073D01*
X37277188Y-40866376D01*
X37113216Y-40798456D01*
X36965646Y-40699853D01*
X36840147Y-40574354D01*
X36741544Y-40426784D01*
X36673624Y-40262812D01*
X36639000Y-40088741D01*
X36639000Y-39911259D01*
X36673624Y-39737188D01*
X36741544Y-39573216D01*
X36840147Y-39425646D01*
X36965646Y-39300147D01*
X37113216Y-39201544D01*
X37277188Y-39133624D01*
X37426488Y-39103927D01*
X37451258Y-39099000D01*
X37628742Y-39099000D01*
X37653512Y-39103927D01*
G37*
G36*
X8534358Y-35209232D02*
G01*
X8685761Y-35239348D01*
X9113616Y-35416571D01*
X9498675Y-35673859D01*
X9826141Y-36001325D01*
X10083429Y-36386384D01*
X10260652Y-36814239D01*
X10351000Y-37268447D01*
X10351000Y-37731553D01*
X10260652Y-38185761D01*
X10083429Y-38613616D01*
X9826141Y-38998675D01*
X9498675Y-39326141D01*
X9113616Y-39583429D01*
X8685761Y-39760652D01*
X8534358Y-39790768D01*
X8231555Y-39851000D01*
X7768445Y-39851000D01*
X7465642Y-39790768D01*
X7314239Y-39760652D01*
X6886384Y-39583429D01*
X6501325Y-39326141D01*
X6173859Y-38998675D01*
X5916571Y-38613616D01*
X5739348Y-38185761D01*
X5649000Y-37731553D01*
X5649000Y-37268447D01*
X5739348Y-36814239D01*
X5916571Y-36386384D01*
X6173859Y-36001325D01*
X6501325Y-35673859D01*
X6886384Y-35416571D01*
X7314239Y-35239348D01*
X7465642Y-35209232D01*
X7768445Y-35149000D01*
X8231555Y-35149000D01*
X8534358Y-35209232D01*
G37*
G36*
X27051000Y-39301000D02*
G01*
X24949000Y-39301000D01*
X24949000Y-36699000D01*
X27051000Y-36699000D01*
X27051000Y-39301000D01*
G37*
G36*
X31051000Y-39301000D02*
G01*
X28949000Y-39301000D01*
X28949000Y-36699000D01*
X31051000Y-36699000D01*
X31051000Y-39301000D01*
G37*
G36*
X17301000Y-35051000D02*
G01*
X14699000Y-35051000D01*
X14699000Y-32949000D01*
X17301000Y-32949000D01*
X17301000Y-35051000D01*
G37*
G36*
X33651000Y-34151000D02*
G01*
X32349000Y-34151000D01*
X32349000Y-33149000D01*
X33651000Y-33149000D01*
X33651000Y-34151000D01*
G37*
G36*
X29651000Y-34151000D02*
G01*
X28349000Y-34151000D01*
X28349000Y-33149000D01*
X29651000Y-33149000D01*
X29651000Y-34151000D01*
G37*
G36*
X25651000Y-34151000D02*
G01*
X24349000Y-34151000D01*
X24349000Y-33149000D01*
X25651000Y-33149000D01*
X25651000Y-34151000D01*
G37*
G36*
X21651000Y-34151000D02*
G01*
X20349000Y-34151000D01*
X20349000Y-33149000D01*
X21651000Y-33149000D01*
X21651000Y-34151000D01*
G37*
G36*
X17301000Y-31051000D02*
G01*
X14699000Y-31051000D01*
X14699000Y-28949000D01*
X17301000Y-28949000D01*
X17301000Y-31051000D01*
G37*
G36*
X21651000Y-30851000D02*
G01*
X20349000Y-30851000D01*
X20349000Y-29849000D01*
X21651000Y-29849000D01*
X21651000Y-30851000D01*
G37*
G36*
X33651000Y-30851000D02*
G01*
X32349000Y-30851000D01*
X32349000Y-29849000D01*
X33651000Y-29849000D01*
X33651000Y-30851000D01*
G37*
G36*
X29651000Y-30851000D02*
G01*
X28349000Y-30851000D01*
X28349000Y-29849000D01*
X29651000Y-29849000D01*
X29651000Y-30851000D01*
G37*
G36*
X25651000Y-30851000D02*
G01*
X24349000Y-30851000D01*
X24349000Y-29849000D01*
X25651000Y-29849000D01*
X25651000Y-30851000D01*
G37*
G36*
X21651000Y-28151000D02*
G01*
X20349000Y-28151000D01*
X20349000Y-27149000D01*
X21651000Y-27149000D01*
X21651000Y-28151000D01*
G37*
G36*
X25651000Y-28151000D02*
G01*
X24349000Y-28151000D01*
X24349000Y-27149000D01*
X25651000Y-27149000D01*
X25651000Y-28151000D01*
G37*
G36*
X29651000Y-28151000D02*
G01*
X28349000Y-28151000D01*
X28349000Y-27149000D01*
X29651000Y-27149000D01*
X29651000Y-28151000D01*
G37*
G36*
X33651000Y-28151000D02*
G01*
X32349000Y-28151000D01*
X32349000Y-27149000D01*
X33651000Y-27149000D01*
X33651000Y-28151000D01*
G37*
G36*
X17301000Y-28051000D02*
G01*
X14699000Y-28051000D01*
X14699000Y-25949000D01*
X17301000Y-25949000D01*
X17301000Y-28051000D01*
G37*
G36*
X13341000Y-26901000D02*
G01*
X11539000Y-26901000D01*
X11539000Y-25099000D01*
X13341000Y-25099000D01*
X13341000Y-26901000D01*
G37*
G36*
X33651000Y-24851000D02*
G01*
X32349000Y-24851000D01*
X32349000Y-23849000D01*
X33651000Y-23849000D01*
X33651000Y-24851000D01*
G37*
G36*
X29651000Y-24851000D02*
G01*
X28349000Y-24851000D01*
X28349000Y-23849000D01*
X29651000Y-23849000D01*
X29651000Y-24851000D01*
G37*
G36*
X21651000Y-24851000D02*
G01*
X20349000Y-24851000D01*
X20349000Y-23849000D01*
X21651000Y-23849000D01*
X21651000Y-24851000D01*
G37*
G36*
X25651000Y-24851000D02*
G01*
X24349000Y-24851000D01*
X24349000Y-23849000D01*
X25651000Y-23849000D01*
X25651000Y-24851000D01*
G37*
G36*
X12553512Y-22563927D02*
G01*
X12702812Y-22593624D01*
X12866784Y-22661544D01*
X13014354Y-22760147D01*
X13139853Y-22885646D01*
X13238456Y-23033216D01*
X13306376Y-23197188D01*
X13341000Y-23371259D01*
X13341000Y-23548741D01*
X13306376Y-23722812D01*
X13238456Y-23886784D01*
X13139853Y-24034354D01*
X13014354Y-24159853D01*
X12866784Y-24258456D01*
X12702812Y-24326376D01*
X12553512Y-24356073D01*
X12528742Y-24361000D01*
X12351258Y-24361000D01*
X12326488Y-24356073D01*
X12177188Y-24326376D01*
X12013216Y-24258456D01*
X11865646Y-24159853D01*
X11740147Y-24034354D01*
X11641544Y-23886784D01*
X11573624Y-23722812D01*
X11539000Y-23548741D01*
X11539000Y-23371259D01*
X11573624Y-23197188D01*
X11641544Y-23033216D01*
X11740147Y-22885646D01*
X11865646Y-22760147D01*
X12013216Y-22661544D01*
X12177188Y-22593624D01*
X12326488Y-22563927D01*
X12351258Y-22559000D01*
X12528742Y-22559000D01*
X12553512Y-22563927D01*
G37*
G36*
X17301000Y-24051000D02*
G01*
X14699000Y-24051000D01*
X14699000Y-21949000D01*
X17301000Y-21949000D01*
X17301000Y-24051000D01*
G37*
G36*
X31051000Y-22301000D02*
G01*
X28949000Y-22301000D01*
X28949000Y-19699000D01*
X31051000Y-19699000D01*
X31051000Y-22301000D01*
G37*
G36*
X27051000Y-22301000D02*
G01*
X24949000Y-22301000D01*
X24949000Y-19699000D01*
X27051000Y-19699000D01*
X27051000Y-22301000D01*
G37*
G36*
X12553512Y-20023927D02*
G01*
X12702812Y-20053624D01*
X12866784Y-20121544D01*
X13014354Y-20220147D01*
X13139853Y-20345646D01*
X13238456Y-20493216D01*
X13306376Y-20657188D01*
X13341000Y-20831259D01*
X13341000Y-21008741D01*
X13306376Y-21182812D01*
X13238456Y-21346784D01*
X13139853Y-21494354D01*
X13014354Y-21619853D01*
X12866784Y-21718456D01*
X12702812Y-21786376D01*
X12553512Y-21816073D01*
X12528742Y-21821000D01*
X12351258Y-21821000D01*
X12326488Y-21816073D01*
X12177188Y-21786376D01*
X12013216Y-21718456D01*
X11865646Y-21619853D01*
X11740147Y-21494354D01*
X11641544Y-21346784D01*
X11573624Y-21182812D01*
X11539000Y-21008741D01*
X11539000Y-20831259D01*
X11573624Y-20657188D01*
X11641544Y-20493216D01*
X11740147Y-20345646D01*
X11865646Y-20220147D01*
X12013216Y-20121544D01*
X12177188Y-20053624D01*
X12326488Y-20023927D01*
X12351258Y-20019000D01*
X12528742Y-20019000D01*
X12553512Y-20023927D01*
G37*
G36*
X12553512Y-17483927D02*
G01*
X12702812Y-17513624D01*
X12866784Y-17581544D01*
X13014354Y-17680147D01*
X13139853Y-17805646D01*
X13238456Y-17953216D01*
X13306376Y-18117188D01*
X13341000Y-18291259D01*
X13341000Y-18468741D01*
X13306376Y-18642812D01*
X13238456Y-18806784D01*
X13139853Y-18954354D01*
X13014354Y-19079853D01*
X12866784Y-19178456D01*
X12702812Y-19246376D01*
X12553512Y-19276073D01*
X12528742Y-19281000D01*
X12351258Y-19281000D01*
X12326488Y-19276073D01*
X12177188Y-19246376D01*
X12013216Y-19178456D01*
X11865646Y-19079853D01*
X11740147Y-18954354D01*
X11641544Y-18806784D01*
X11573624Y-18642812D01*
X11539000Y-18468741D01*
X11539000Y-18291259D01*
X11573624Y-18117188D01*
X11641544Y-17953216D01*
X11740147Y-17805646D01*
X11865646Y-17680147D01*
X12013216Y-17581544D01*
X12177188Y-17513624D01*
X12326488Y-17483927D01*
X12351258Y-17479000D01*
X12528742Y-17479000D01*
X12553512Y-17483927D01*
G37*
G36*
X17301000Y-19051000D02*
G01*
X14699000Y-19051000D01*
X14699000Y-16949000D01*
X17301000Y-16949000D01*
X17301000Y-19051000D01*
G37*
G36*
X27051000Y-17301000D02*
G01*
X24949000Y-17301000D01*
X24949000Y-14699000D01*
X27051000Y-14699000D01*
X27051000Y-17301000D01*
G37*
G36*
X31051000Y-17301000D02*
G01*
X28949000Y-17301000D01*
X28949000Y-14699000D01*
X31051000Y-14699000D01*
X31051000Y-17301000D01*
G37*
G36*
X17301000Y-15051000D02*
G01*
X14699000Y-15051000D01*
X14699000Y-12949000D01*
X17301000Y-12949000D01*
X17301000Y-15051000D01*
G37*
G36*
X31051000Y-12301000D02*
G01*
X28949000Y-12301000D01*
X28949000Y-9699000D01*
X31051000Y-9699000D01*
X31051000Y-12301000D01*
G37*
G36*
X27051000Y-12301000D02*
G01*
X24949000Y-12301000D01*
X24949000Y-9699000D01*
X27051000Y-9699000D01*
X27051000Y-12301000D01*
G37*
G36*
X13551000Y-12151000D02*
G01*
X12449000Y-12151000D01*
X12449000Y-9849000D01*
X13551000Y-9849000D01*
X13551000Y-12151000D01*
G37*
G36*
X17301000Y-12051000D02*
G01*
X14699000Y-12051000D01*
X14699000Y-9949000D01*
X17301000Y-9949000D01*
X17301000Y-12051000D01*
G37*
G36*
X6551000Y-12051000D02*
G01*
X4249000Y-12051000D01*
X4249000Y-10949000D01*
X6551000Y-10949000D01*
X6551000Y-12051000D01*
G37*
G36*
X2551000Y-8151000D02*
G01*
X1449000Y-8151000D01*
X1449000Y-5849000D01*
X2551000Y-5849000D01*
X2551000Y-8151000D01*
G37*
G36*
X17301000Y-8051000D02*
G01*
X14699000Y-8051000D01*
X14699000Y-5949000D01*
X17301000Y-5949000D01*
X17301000Y-8051000D01*
G37*
G36*
X9551000Y-5051000D02*
G01*
X7249000Y-5051000D01*
X7249000Y-3949000D01*
X9551000Y-3949000D01*
X9551000Y-5051000D01*
G37*
G36*
X10951000Y-2351000D02*
G01*
X8649000Y-2351000D01*
X8649000Y-1249000D01*
X10951000Y-1249000D01*
X10951000Y-2351000D01*
G37*
M02*
