G04 #@! TF.GenerationSoftware,KiCad,Pcbnew,(5.1.5)-3*
G04 #@! TF.CreationDate,2020-07-22T14:34:40-07:00*
G04 #@! TF.ProjectId,VCF,5643462e-6b69-4636-9164-5f7063625858,rev?*
G04 #@! TF.SameCoordinates,Original*
G04 #@! TF.FileFunction,Copper,L2,Bot*
G04 #@! TF.FilePolarity,Positive*
%FSLAX46Y46*%
G04 Gerber Fmt 4.6, Leading zero omitted, Abs format (unit mm)*
G04 Created by KiCad (PCBNEW (5.1.5)-3) date 2020-07-22 14:34:40*
%MOMM*%
%LPD*%
G04 APERTURE LIST*
%ADD10R,1.000000X2.200000*%
%ADD11R,2.200000X1.000000*%
%ADD12R,1.700000X1.700000*%
%ADD13O,1.700000X1.700000*%
%ADD14C,1.800000*%
%ADD15C,4.600000*%
%ADD16C,1.580000*%
%ADD17C,0.800000*%
%ADD18C,0.250000*%
%ADD19C,0.500000*%
%ADD20C,0.254000*%
G04 APERTURE END LIST*
D10*
X2000000Y-7000000D03*
D11*
X5400000Y-11500000D03*
D10*
X13000000Y-11000000D03*
D11*
X8400000Y-4500000D03*
X9800000Y-1800000D03*
X9800000Y-52800000D03*
X8400000Y-55500000D03*
D10*
X13000000Y-62000000D03*
D11*
X5400000Y-62500000D03*
D10*
X2000000Y-58000000D03*
D12*
X12440000Y-26000000D03*
D13*
X12440000Y-23460000D03*
X12440000Y-20920000D03*
X12440000Y-18380000D03*
X42080180Y-90543380D03*
X42080180Y-93083380D03*
X42080180Y-95623380D03*
D12*
X42080180Y-98163380D03*
D13*
X37540000Y-57780000D03*
X35000000Y-57780000D03*
X37540000Y-55240000D03*
X35000000Y-55240000D03*
X37540000Y-52700000D03*
X35000000Y-52700000D03*
X37540000Y-50160000D03*
X35000000Y-50160000D03*
X37540000Y-47620000D03*
X35000000Y-47620000D03*
X37540000Y-45080000D03*
X35000000Y-45080000D03*
X37540000Y-42540000D03*
X35000000Y-42540000D03*
X37540000Y-40000000D03*
D12*
X35000000Y-40000000D03*
D10*
X2000000Y-93000000D03*
D11*
X5400000Y-97500000D03*
D10*
X13000000Y-97000000D03*
D11*
X8400000Y-90500000D03*
X9800000Y-87800000D03*
D14*
X4700000Y-45000000D03*
X4700000Y-42500000D03*
X4700000Y-40000000D03*
D15*
X8000000Y-47500000D03*
X8000000Y-37500000D03*
X8000000Y-72500000D03*
X8000000Y-82500000D03*
D14*
X4700000Y-75000000D03*
X4700000Y-77500000D03*
X4700000Y-80000000D03*
D16*
X48877220Y-91983560D03*
X50673320Y-92727460D03*
X51417220Y-94523560D03*
X50673320Y-96319660D03*
D17*
X18500000Y-52000000D03*
X22000000Y-61000000D03*
X18000000Y-59000000D03*
X20000000Y-59000000D03*
X24000000Y-61000000D03*
X18500000Y-54000000D03*
X10000000Y-76000000D03*
X12000000Y-76000000D03*
X11000000Y-81000000D03*
X13000000Y-81000000D03*
X10000000Y-93000000D03*
X12000000Y-93000000D03*
X19000000Y-98000000D03*
X21000000Y-98000000D03*
X38000000Y-64000000D03*
X36000000Y-64000000D03*
X38000000Y-34000000D03*
X36000000Y-34000000D03*
X14000000Y-40000000D03*
X12000000Y-40000000D03*
X12500000Y-44500000D03*
X1500000Y-39000000D03*
X12915900Y-58851800D03*
X18641060Y-26680160D03*
D18*
X8133080Y-54048660D02*
X2849880Y-48765460D01*
X2849880Y-48765460D02*
X2849880Y-38765118D01*
X14934838Y-26680160D02*
X18075375Y-26680160D01*
X12915900Y-57830898D02*
X9133662Y-54048660D01*
X2849880Y-38765118D02*
X14934838Y-26680160D01*
X12915900Y-58851800D02*
X12915900Y-57830898D01*
X9133662Y-54048660D02*
X8133080Y-54048660D01*
X18075375Y-26680160D02*
X18641060Y-26680160D01*
X18410000Y-55240000D02*
X35000000Y-55240000D01*
X13000000Y-62000000D02*
X13000000Y-60650000D01*
X13000000Y-60650000D02*
X18410000Y-55240000D01*
D19*
X16132792Y-50160000D02*
X33797919Y-50160000D01*
X5972792Y-40000000D02*
X16132792Y-50160000D01*
X33797919Y-50160000D02*
X35000000Y-50160000D01*
X4700000Y-40000000D02*
X5972792Y-40000000D01*
D20*
G36*
X39245557Y-99340000D02*
G01*
X660000Y-99340000D01*
X660000Y-97000000D01*
X3661928Y-97000000D01*
X3661928Y-98000000D01*
X3674188Y-98124482D01*
X3710498Y-98244180D01*
X3769463Y-98354494D01*
X3848815Y-98451185D01*
X3945506Y-98530537D01*
X4055820Y-98589502D01*
X4175518Y-98625812D01*
X4300000Y-98638072D01*
X6500000Y-98638072D01*
X6624482Y-98625812D01*
X6744180Y-98589502D01*
X6854494Y-98530537D01*
X6951185Y-98451185D01*
X7030537Y-98354494D01*
X7089502Y-98244180D01*
X7125812Y-98124482D01*
X7138072Y-98000000D01*
X7138072Y-97000000D01*
X7125812Y-96875518D01*
X7089502Y-96755820D01*
X7030537Y-96645506D01*
X6951185Y-96548815D01*
X6854494Y-96469463D01*
X6744180Y-96410498D01*
X6624482Y-96374188D01*
X6500000Y-96361928D01*
X4300000Y-96361928D01*
X4175518Y-96374188D01*
X4055820Y-96410498D01*
X3945506Y-96469463D01*
X3848815Y-96548815D01*
X3769463Y-96645506D01*
X3710498Y-96755820D01*
X3674188Y-96875518D01*
X3661928Y-97000000D01*
X660000Y-97000000D01*
X660000Y-95900000D01*
X11861928Y-95900000D01*
X11861928Y-98100000D01*
X11874188Y-98224482D01*
X11910498Y-98344180D01*
X11969463Y-98454494D01*
X12048815Y-98551185D01*
X12145506Y-98630537D01*
X12255820Y-98689502D01*
X12375518Y-98725812D01*
X12500000Y-98738072D01*
X13500000Y-98738072D01*
X13624482Y-98725812D01*
X13744180Y-98689502D01*
X13854494Y-98630537D01*
X13951185Y-98551185D01*
X14030537Y-98454494D01*
X14089502Y-98344180D01*
X14125812Y-98224482D01*
X14138072Y-98100000D01*
X14138072Y-95900000D01*
X14125812Y-95775518D01*
X14089502Y-95655820D01*
X14030537Y-95545506D01*
X13951185Y-95448815D01*
X13854494Y-95369463D01*
X13744180Y-95310498D01*
X13624482Y-95274188D01*
X13500000Y-95261928D01*
X12500000Y-95261928D01*
X12375518Y-95274188D01*
X12255820Y-95310498D01*
X12145506Y-95369463D01*
X12048815Y-95448815D01*
X11969463Y-95545506D01*
X11910498Y-95655820D01*
X11874188Y-95775518D01*
X11861928Y-95900000D01*
X660000Y-95900000D01*
X660000Y-94100000D01*
X861928Y-94100000D01*
X874188Y-94224482D01*
X910498Y-94344180D01*
X969463Y-94454494D01*
X1048815Y-94551185D01*
X1145506Y-94630537D01*
X1255820Y-94689502D01*
X1375518Y-94725812D01*
X1500000Y-94738072D01*
X1714250Y-94735000D01*
X1873000Y-94576250D01*
X1873000Y-93127000D01*
X2127000Y-93127000D01*
X2127000Y-94576250D01*
X2285750Y-94735000D01*
X2500000Y-94738072D01*
X2624482Y-94725812D01*
X2744180Y-94689502D01*
X2854494Y-94630537D01*
X2951185Y-94551185D01*
X3030537Y-94454494D01*
X3089502Y-94344180D01*
X3125812Y-94224482D01*
X3138072Y-94100000D01*
X3135000Y-93285750D01*
X2976250Y-93127000D01*
X2127000Y-93127000D01*
X1873000Y-93127000D01*
X1023750Y-93127000D01*
X865000Y-93285750D01*
X861928Y-94100000D01*
X660000Y-94100000D01*
X660000Y-91900000D01*
X861928Y-91900000D01*
X865000Y-92714250D01*
X1023750Y-92873000D01*
X1873000Y-92873000D01*
X1873000Y-91423750D01*
X2127000Y-91423750D01*
X2127000Y-92873000D01*
X2976250Y-92873000D01*
X3135000Y-92714250D01*
X3138072Y-91900000D01*
X3125812Y-91775518D01*
X3089502Y-91655820D01*
X3030537Y-91545506D01*
X2951185Y-91448815D01*
X2854494Y-91369463D01*
X2744180Y-91310498D01*
X2624482Y-91274188D01*
X2500000Y-91261928D01*
X2285750Y-91265000D01*
X2127000Y-91423750D01*
X1873000Y-91423750D01*
X1714250Y-91265000D01*
X1500000Y-91261928D01*
X1375518Y-91274188D01*
X1255820Y-91310498D01*
X1145506Y-91369463D01*
X1048815Y-91448815D01*
X969463Y-91545506D01*
X910498Y-91655820D01*
X874188Y-91775518D01*
X861928Y-91900000D01*
X660000Y-91900000D01*
X660000Y-90000000D01*
X6661928Y-90000000D01*
X6661928Y-91000000D01*
X6674188Y-91124482D01*
X6710498Y-91244180D01*
X6769463Y-91354494D01*
X6848815Y-91451185D01*
X6945506Y-91530537D01*
X7055820Y-91589502D01*
X7175518Y-91625812D01*
X7300000Y-91638072D01*
X9500000Y-91638072D01*
X9624482Y-91625812D01*
X9744180Y-91589502D01*
X9854494Y-91530537D01*
X9951185Y-91451185D01*
X10030537Y-91354494D01*
X10089502Y-91244180D01*
X10125812Y-91124482D01*
X10138072Y-91000000D01*
X10138072Y-90000000D01*
X10125812Y-89875518D01*
X10089502Y-89755820D01*
X10030537Y-89645506D01*
X9951185Y-89548815D01*
X9854494Y-89469463D01*
X9744180Y-89410498D01*
X9624482Y-89374188D01*
X9500000Y-89361928D01*
X7300000Y-89361928D01*
X7175518Y-89374188D01*
X7055820Y-89410498D01*
X6945506Y-89469463D01*
X6848815Y-89548815D01*
X6769463Y-89645506D01*
X6710498Y-89755820D01*
X6674188Y-89875518D01*
X6661928Y-90000000D01*
X660000Y-90000000D01*
X660000Y-87300000D01*
X8061928Y-87300000D01*
X8061928Y-88300000D01*
X8074188Y-88424482D01*
X8110498Y-88544180D01*
X8169463Y-88654494D01*
X8248815Y-88751185D01*
X8345506Y-88830537D01*
X8455820Y-88889502D01*
X8575518Y-88925812D01*
X8700000Y-88938072D01*
X10900000Y-88938072D01*
X11024482Y-88925812D01*
X11144180Y-88889502D01*
X11254494Y-88830537D01*
X11351185Y-88751185D01*
X11430537Y-88654494D01*
X11489502Y-88544180D01*
X11525812Y-88424482D01*
X11538072Y-88300000D01*
X11538072Y-87300000D01*
X11525812Y-87175518D01*
X11489502Y-87055820D01*
X11430537Y-86945506D01*
X11351185Y-86848815D01*
X11254494Y-86769463D01*
X11144180Y-86710498D01*
X11024482Y-86674188D01*
X10900000Y-86661928D01*
X8700000Y-86661928D01*
X8575518Y-86674188D01*
X8455820Y-86710498D01*
X8345506Y-86769463D01*
X8248815Y-86848815D01*
X8169463Y-86945506D01*
X8110498Y-87055820D01*
X8074188Y-87175518D01*
X8061928Y-87300000D01*
X660000Y-87300000D01*
X660000Y-74848816D01*
X3165000Y-74848816D01*
X3165000Y-75151184D01*
X3223989Y-75447743D01*
X3339701Y-75727095D01*
X3507688Y-75978505D01*
X3721495Y-76192312D01*
X3807831Y-76250000D01*
X3721495Y-76307688D01*
X3507688Y-76521495D01*
X3339701Y-76772905D01*
X3223989Y-77052257D01*
X3165000Y-77348816D01*
X3165000Y-77651184D01*
X3223989Y-77947743D01*
X3339701Y-78227095D01*
X3507688Y-78478505D01*
X3721495Y-78692312D01*
X3807831Y-78750000D01*
X3721495Y-78807688D01*
X3507688Y-79021495D01*
X3339701Y-79272905D01*
X3223989Y-79552257D01*
X3165000Y-79848816D01*
X3165000Y-80151184D01*
X3223989Y-80447743D01*
X3339701Y-80727095D01*
X3507688Y-80978505D01*
X3721495Y-81192312D01*
X3972905Y-81360299D01*
X4252257Y-81476011D01*
X4548816Y-81535000D01*
X4851184Y-81535000D01*
X5147743Y-81476011D01*
X5267955Y-81426217D01*
X5177791Y-81643892D01*
X5065000Y-82210928D01*
X5065000Y-82789072D01*
X5177791Y-83356108D01*
X5399037Y-83890244D01*
X5720237Y-84370953D01*
X6129047Y-84779763D01*
X6609756Y-85100963D01*
X7143892Y-85322209D01*
X7710928Y-85435000D01*
X8289072Y-85435000D01*
X8856108Y-85322209D01*
X9390244Y-85100963D01*
X9870953Y-84779763D01*
X10279763Y-84370953D01*
X10600963Y-83890244D01*
X10822209Y-83356108D01*
X10935000Y-82789072D01*
X10935000Y-82210928D01*
X10822209Y-81643892D01*
X10600963Y-81109756D01*
X10279763Y-80629047D01*
X9870953Y-80220237D01*
X9390244Y-79899037D01*
X8856108Y-79677791D01*
X8289072Y-79565000D01*
X7710928Y-79565000D01*
X7143892Y-79677791D01*
X6609756Y-79899037D01*
X6235000Y-80149441D01*
X6235000Y-79848816D01*
X6176011Y-79552257D01*
X6060299Y-79272905D01*
X5892312Y-79021495D01*
X5678505Y-78807688D01*
X5592169Y-78750000D01*
X5678505Y-78692312D01*
X5892312Y-78478505D01*
X6060299Y-78227095D01*
X6176011Y-77947743D01*
X6235000Y-77651184D01*
X6235000Y-77348816D01*
X6176011Y-77052257D01*
X6060299Y-76772905D01*
X5892312Y-76521495D01*
X5678505Y-76307688D01*
X5592169Y-76250000D01*
X5678505Y-76192312D01*
X5892312Y-75978505D01*
X6060299Y-75727095D01*
X6176011Y-75447743D01*
X6235000Y-75151184D01*
X6235000Y-74850559D01*
X6609756Y-75100963D01*
X7143892Y-75322209D01*
X7710928Y-75435000D01*
X8289072Y-75435000D01*
X8856108Y-75322209D01*
X9390244Y-75100963D01*
X9870953Y-74779763D01*
X10279763Y-74370953D01*
X10600963Y-73890244D01*
X10822209Y-73356108D01*
X10935000Y-72789072D01*
X10935000Y-72210928D01*
X10822209Y-71643892D01*
X10600963Y-71109756D01*
X10279763Y-70629047D01*
X9870953Y-70220237D01*
X9390244Y-69899037D01*
X8856108Y-69677791D01*
X8289072Y-69565000D01*
X7710928Y-69565000D01*
X7143892Y-69677791D01*
X6609756Y-69899037D01*
X6129047Y-70220237D01*
X5720237Y-70629047D01*
X5399037Y-71109756D01*
X5177791Y-71643892D01*
X5065000Y-72210928D01*
X5065000Y-72789072D01*
X5177791Y-73356108D01*
X5267955Y-73573783D01*
X5147743Y-73523989D01*
X4851184Y-73465000D01*
X4548816Y-73465000D01*
X4252257Y-73523989D01*
X3972905Y-73639701D01*
X3721495Y-73807688D01*
X3507688Y-74021495D01*
X3339701Y-74272905D01*
X3223989Y-74552257D01*
X3165000Y-74848816D01*
X660000Y-74848816D01*
X660000Y-62000000D01*
X3661928Y-62000000D01*
X3661928Y-63000000D01*
X3674188Y-63124482D01*
X3710498Y-63244180D01*
X3769463Y-63354494D01*
X3848815Y-63451185D01*
X3945506Y-63530537D01*
X4055820Y-63589502D01*
X4175518Y-63625812D01*
X4300000Y-63638072D01*
X6500000Y-63638072D01*
X6624482Y-63625812D01*
X6744180Y-63589502D01*
X6854494Y-63530537D01*
X6951185Y-63451185D01*
X7030537Y-63354494D01*
X7089502Y-63244180D01*
X7125812Y-63124482D01*
X7138072Y-63000000D01*
X7138072Y-62000000D01*
X7125812Y-61875518D01*
X7089502Y-61755820D01*
X7030537Y-61645506D01*
X6951185Y-61548815D01*
X6854494Y-61469463D01*
X6744180Y-61410498D01*
X6624482Y-61374188D01*
X6500000Y-61361928D01*
X4300000Y-61361928D01*
X4175518Y-61374188D01*
X4055820Y-61410498D01*
X3945506Y-61469463D01*
X3848815Y-61548815D01*
X3769463Y-61645506D01*
X3710498Y-61755820D01*
X3674188Y-61875518D01*
X3661928Y-62000000D01*
X660000Y-62000000D01*
X660000Y-59100000D01*
X861928Y-59100000D01*
X874188Y-59224482D01*
X910498Y-59344180D01*
X969463Y-59454494D01*
X1048815Y-59551185D01*
X1145506Y-59630537D01*
X1255820Y-59689502D01*
X1375518Y-59725812D01*
X1500000Y-59738072D01*
X1714250Y-59735000D01*
X1873000Y-59576250D01*
X1873000Y-58127000D01*
X2127000Y-58127000D01*
X2127000Y-59576250D01*
X2285750Y-59735000D01*
X2500000Y-59738072D01*
X2624482Y-59725812D01*
X2744180Y-59689502D01*
X2854494Y-59630537D01*
X2951185Y-59551185D01*
X3030537Y-59454494D01*
X3089502Y-59344180D01*
X3125812Y-59224482D01*
X3138072Y-59100000D01*
X3135000Y-58285750D01*
X2976250Y-58127000D01*
X2127000Y-58127000D01*
X1873000Y-58127000D01*
X1023750Y-58127000D01*
X865000Y-58285750D01*
X861928Y-59100000D01*
X660000Y-59100000D01*
X660000Y-56900000D01*
X861928Y-56900000D01*
X865000Y-57714250D01*
X1023750Y-57873000D01*
X1873000Y-57873000D01*
X1873000Y-56423750D01*
X2127000Y-56423750D01*
X2127000Y-57873000D01*
X2976250Y-57873000D01*
X3135000Y-57714250D01*
X3138072Y-56900000D01*
X3125812Y-56775518D01*
X3089502Y-56655820D01*
X3030537Y-56545506D01*
X2951185Y-56448815D01*
X2854494Y-56369463D01*
X2744180Y-56310498D01*
X2624482Y-56274188D01*
X2500000Y-56261928D01*
X2285750Y-56265000D01*
X2127000Y-56423750D01*
X1873000Y-56423750D01*
X1714250Y-56265000D01*
X1500000Y-56261928D01*
X1375518Y-56274188D01*
X1255820Y-56310498D01*
X1145506Y-56369463D01*
X1048815Y-56448815D01*
X969463Y-56545506D01*
X910498Y-56655820D01*
X874188Y-56775518D01*
X861928Y-56900000D01*
X660000Y-56900000D01*
X660000Y-38765118D01*
X2086204Y-38765118D01*
X2089881Y-38802450D01*
X2089880Y-48728138D01*
X2086204Y-48765460D01*
X2089880Y-48802782D01*
X2089880Y-48802792D01*
X2100877Y-48914445D01*
X2115957Y-48964157D01*
X2144334Y-49057706D01*
X2214906Y-49189736D01*
X2234301Y-49213368D01*
X2309879Y-49305461D01*
X2338883Y-49329264D01*
X7371546Y-54361928D01*
X7300000Y-54361928D01*
X7175518Y-54374188D01*
X7055820Y-54410498D01*
X6945506Y-54469463D01*
X6848815Y-54548815D01*
X6769463Y-54645506D01*
X6710498Y-54755820D01*
X6674188Y-54875518D01*
X6661928Y-55000000D01*
X6661928Y-56000000D01*
X6674188Y-56124482D01*
X6710498Y-56244180D01*
X6769463Y-56354494D01*
X6848815Y-56451185D01*
X6945506Y-56530537D01*
X7055820Y-56589502D01*
X7175518Y-56625812D01*
X7300000Y-56638072D01*
X9500000Y-56638072D01*
X9624482Y-56625812D01*
X9744180Y-56589502D01*
X9854494Y-56530537D01*
X9951185Y-56451185D01*
X10030537Y-56354494D01*
X10089502Y-56244180D01*
X10125812Y-56124482D01*
X10126607Y-56116407D01*
X12155901Y-58145701D01*
X12155901Y-58148088D01*
X12111963Y-58192026D01*
X11998695Y-58361544D01*
X11920674Y-58549902D01*
X11880900Y-58749861D01*
X11880900Y-58953739D01*
X11920674Y-59153698D01*
X11998695Y-59342056D01*
X12111963Y-59511574D01*
X12256126Y-59655737D01*
X12425644Y-59769005D01*
X12614002Y-59847026D01*
X12709231Y-59865968D01*
X12488998Y-60086201D01*
X12460000Y-60109999D01*
X12436202Y-60138997D01*
X12436201Y-60138998D01*
X12365026Y-60225724D01*
X12332078Y-60287365D01*
X12255820Y-60310498D01*
X12145506Y-60369463D01*
X12048815Y-60448815D01*
X11969463Y-60545506D01*
X11910498Y-60655820D01*
X11874188Y-60775518D01*
X11861928Y-60900000D01*
X11861928Y-63100000D01*
X11874188Y-63224482D01*
X11910498Y-63344180D01*
X11969463Y-63454494D01*
X12048815Y-63551185D01*
X12145506Y-63630537D01*
X12255820Y-63689502D01*
X12375518Y-63725812D01*
X12500000Y-63738072D01*
X13500000Y-63738072D01*
X13624482Y-63725812D01*
X13744180Y-63689502D01*
X13854494Y-63630537D01*
X13951185Y-63551185D01*
X14030537Y-63454494D01*
X14089502Y-63344180D01*
X14125812Y-63224482D01*
X14138072Y-63100000D01*
X14138072Y-60900000D01*
X14125812Y-60775518D01*
X14089502Y-60655820D01*
X14082354Y-60642447D01*
X18724802Y-56000000D01*
X33721822Y-56000000D01*
X33846525Y-56186632D01*
X34053368Y-56393475D01*
X34227760Y-56510000D01*
X34053368Y-56626525D01*
X33846525Y-56833368D01*
X33684010Y-57076589D01*
X33572068Y-57346842D01*
X33515000Y-57633740D01*
X33515000Y-57926260D01*
X33572068Y-58213158D01*
X33684010Y-58483411D01*
X33846525Y-58726632D01*
X34053368Y-58933475D01*
X34296589Y-59095990D01*
X34566842Y-59207932D01*
X34853740Y-59265000D01*
X35146260Y-59265000D01*
X35433158Y-59207932D01*
X35703411Y-59095990D01*
X35946632Y-58933475D01*
X36153475Y-58726632D01*
X36270000Y-58552240D01*
X36386525Y-58726632D01*
X36593368Y-58933475D01*
X36836589Y-59095990D01*
X37106842Y-59207932D01*
X37393740Y-59265000D01*
X37686260Y-59265000D01*
X37973158Y-59207932D01*
X38243411Y-59095990D01*
X38486632Y-58933475D01*
X38693475Y-58726632D01*
X38855990Y-58483411D01*
X38967932Y-58213158D01*
X39025000Y-57926260D01*
X39025000Y-57633740D01*
X38967932Y-57346842D01*
X38855990Y-57076589D01*
X38693475Y-56833368D01*
X38486632Y-56626525D01*
X38312240Y-56510000D01*
X38486632Y-56393475D01*
X38693475Y-56186632D01*
X38855990Y-55943411D01*
X38967932Y-55673158D01*
X39025000Y-55386260D01*
X39025000Y-55093740D01*
X38967932Y-54806842D01*
X38855990Y-54536589D01*
X38693475Y-54293368D01*
X38486632Y-54086525D01*
X38312240Y-53970000D01*
X38486632Y-53853475D01*
X38693475Y-53646632D01*
X38855990Y-53403411D01*
X38967932Y-53133158D01*
X39025000Y-52846260D01*
X39025000Y-52553740D01*
X38967932Y-52266842D01*
X38855990Y-51996589D01*
X38693475Y-51753368D01*
X38486632Y-51546525D01*
X38312240Y-51430000D01*
X38486632Y-51313475D01*
X38693475Y-51106632D01*
X38855990Y-50863411D01*
X38967932Y-50593158D01*
X39025000Y-50306260D01*
X39025000Y-50013740D01*
X38967932Y-49726842D01*
X38855990Y-49456589D01*
X38693475Y-49213368D01*
X38486632Y-49006525D01*
X38304466Y-48884805D01*
X38421355Y-48815178D01*
X38637588Y-48620269D01*
X38811641Y-48386920D01*
X38936825Y-48124099D01*
X38981476Y-47976890D01*
X38860155Y-47747000D01*
X37667000Y-47747000D01*
X37667000Y-47767000D01*
X37413000Y-47767000D01*
X37413000Y-47747000D01*
X35127000Y-47747000D01*
X35127000Y-47767000D01*
X34873000Y-47767000D01*
X34873000Y-47747000D01*
X33679845Y-47747000D01*
X33558524Y-47976890D01*
X33603175Y-48124099D01*
X33728359Y-48386920D01*
X33902412Y-48620269D01*
X34118645Y-48815178D01*
X34235534Y-48884805D01*
X34053368Y-49006525D01*
X33846525Y-49213368D01*
X33805344Y-49275000D01*
X16499371Y-49275000D01*
X12661261Y-45436890D01*
X33558524Y-45436890D01*
X33603175Y-45584099D01*
X33728359Y-45846920D01*
X33902412Y-46080269D01*
X34118645Y-46275178D01*
X34244255Y-46350000D01*
X34118645Y-46424822D01*
X33902412Y-46619731D01*
X33728359Y-46853080D01*
X33603175Y-47115901D01*
X33558524Y-47263110D01*
X33679845Y-47493000D01*
X34873000Y-47493000D01*
X34873000Y-45207000D01*
X35127000Y-45207000D01*
X35127000Y-47493000D01*
X37413000Y-47493000D01*
X37413000Y-45207000D01*
X37667000Y-45207000D01*
X37667000Y-47493000D01*
X38860155Y-47493000D01*
X38981476Y-47263110D01*
X38936825Y-47115901D01*
X38811641Y-46853080D01*
X38637588Y-46619731D01*
X38421355Y-46424822D01*
X38295745Y-46350000D01*
X38421355Y-46275178D01*
X38637588Y-46080269D01*
X38811641Y-45846920D01*
X38936825Y-45584099D01*
X38981476Y-45436890D01*
X38860155Y-45207000D01*
X37667000Y-45207000D01*
X37413000Y-45207000D01*
X35127000Y-45207000D01*
X34873000Y-45207000D01*
X33679845Y-45207000D01*
X33558524Y-45436890D01*
X12661261Y-45436890D01*
X10121261Y-42896890D01*
X33558524Y-42896890D01*
X33603175Y-43044099D01*
X33728359Y-43306920D01*
X33902412Y-43540269D01*
X34118645Y-43735178D01*
X34244255Y-43810000D01*
X34118645Y-43884822D01*
X33902412Y-44079731D01*
X33728359Y-44313080D01*
X33603175Y-44575901D01*
X33558524Y-44723110D01*
X33679845Y-44953000D01*
X34873000Y-44953000D01*
X34873000Y-42667000D01*
X35127000Y-42667000D01*
X35127000Y-44953000D01*
X37413000Y-44953000D01*
X37413000Y-42667000D01*
X37667000Y-42667000D01*
X37667000Y-44953000D01*
X38860155Y-44953000D01*
X38981476Y-44723110D01*
X38936825Y-44575901D01*
X38811641Y-44313080D01*
X38637588Y-44079731D01*
X38421355Y-43884822D01*
X38295745Y-43810000D01*
X38421355Y-43735178D01*
X38637588Y-43540269D01*
X38811641Y-43306920D01*
X38936825Y-43044099D01*
X38981476Y-42896890D01*
X38860155Y-42667000D01*
X37667000Y-42667000D01*
X37413000Y-42667000D01*
X35127000Y-42667000D01*
X34873000Y-42667000D01*
X33679845Y-42667000D01*
X33558524Y-42896890D01*
X10121261Y-42896890D01*
X7646568Y-40422198D01*
X7710928Y-40435000D01*
X8289072Y-40435000D01*
X8856108Y-40322209D01*
X9390244Y-40100963D01*
X9870953Y-39779763D01*
X10279763Y-39370953D01*
X10427399Y-39150000D01*
X33511928Y-39150000D01*
X33511928Y-40850000D01*
X33524188Y-40974482D01*
X33560498Y-41094180D01*
X33619463Y-41204494D01*
X33698815Y-41301185D01*
X33795506Y-41380537D01*
X33905820Y-41439502D01*
X33986466Y-41463966D01*
X33902412Y-41539731D01*
X33728359Y-41773080D01*
X33603175Y-42035901D01*
X33558524Y-42183110D01*
X33679845Y-42413000D01*
X34873000Y-42413000D01*
X34873000Y-42393000D01*
X35127000Y-42393000D01*
X35127000Y-42413000D01*
X37413000Y-42413000D01*
X37413000Y-42393000D01*
X37667000Y-42393000D01*
X37667000Y-42413000D01*
X38860155Y-42413000D01*
X38981476Y-42183110D01*
X38936825Y-42035901D01*
X38811641Y-41773080D01*
X38637588Y-41539731D01*
X38421355Y-41344822D01*
X38304466Y-41275195D01*
X38486632Y-41153475D01*
X38693475Y-40946632D01*
X38855990Y-40703411D01*
X38967932Y-40433158D01*
X39025000Y-40146260D01*
X39025000Y-39853740D01*
X38967932Y-39566842D01*
X38855990Y-39296589D01*
X38693475Y-39053368D01*
X38486632Y-38846525D01*
X38243411Y-38684010D01*
X37973158Y-38572068D01*
X37686260Y-38515000D01*
X37393740Y-38515000D01*
X37106842Y-38572068D01*
X36836589Y-38684010D01*
X36593368Y-38846525D01*
X36461513Y-38978380D01*
X36439502Y-38905820D01*
X36380537Y-38795506D01*
X36301185Y-38698815D01*
X36204494Y-38619463D01*
X36094180Y-38560498D01*
X35974482Y-38524188D01*
X35850000Y-38511928D01*
X34150000Y-38511928D01*
X34025518Y-38524188D01*
X33905820Y-38560498D01*
X33795506Y-38619463D01*
X33698815Y-38698815D01*
X33619463Y-38795506D01*
X33560498Y-38905820D01*
X33524188Y-39025518D01*
X33511928Y-39150000D01*
X10427399Y-39150000D01*
X10600963Y-38890244D01*
X10822209Y-38356108D01*
X10935000Y-37789072D01*
X10935000Y-37210928D01*
X10822209Y-36643892D01*
X10600963Y-36109756D01*
X10279763Y-35629047D01*
X9870953Y-35220237D01*
X9390244Y-34899037D01*
X8856108Y-34677791D01*
X8289072Y-34565000D01*
X8124799Y-34565000D01*
X15249640Y-27440160D01*
X17937349Y-27440160D01*
X17981286Y-27484097D01*
X18150804Y-27597365D01*
X18339162Y-27675386D01*
X18539121Y-27715160D01*
X18742999Y-27715160D01*
X18942958Y-27675386D01*
X19131316Y-27597365D01*
X19300834Y-27484097D01*
X19444997Y-27339934D01*
X19558265Y-27170416D01*
X19636286Y-26982058D01*
X19676060Y-26782099D01*
X19676060Y-26578221D01*
X19636286Y-26378262D01*
X19558265Y-26189904D01*
X19444997Y-26020386D01*
X19300834Y-25876223D01*
X19131316Y-25762955D01*
X18942958Y-25684934D01*
X18742999Y-25645160D01*
X18539121Y-25645160D01*
X18339162Y-25684934D01*
X18150804Y-25762955D01*
X17981286Y-25876223D01*
X17937349Y-25920160D01*
X14972171Y-25920160D01*
X14934838Y-25916483D01*
X14897505Y-25920160D01*
X14785852Y-25931157D01*
X14642591Y-25974614D01*
X14510562Y-26045186D01*
X14394837Y-26140159D01*
X14371039Y-26169157D01*
X13928072Y-26612124D01*
X13928072Y-25150000D01*
X13915812Y-25025518D01*
X13879502Y-24905820D01*
X13820537Y-24795506D01*
X13741185Y-24698815D01*
X13644494Y-24619463D01*
X13534180Y-24560498D01*
X13461620Y-24538487D01*
X13593475Y-24406632D01*
X13755990Y-24163411D01*
X13867932Y-23893158D01*
X13925000Y-23606260D01*
X13925000Y-23313740D01*
X13867932Y-23026842D01*
X13755990Y-22756589D01*
X13593475Y-22513368D01*
X13386632Y-22306525D01*
X13212240Y-22190000D01*
X13386632Y-22073475D01*
X13593475Y-21866632D01*
X13755990Y-21623411D01*
X13867932Y-21353158D01*
X13925000Y-21066260D01*
X13925000Y-20773740D01*
X13867932Y-20486842D01*
X13755990Y-20216589D01*
X13593475Y-19973368D01*
X13386632Y-19766525D01*
X13212240Y-19650000D01*
X13386632Y-19533475D01*
X13593475Y-19326632D01*
X13755990Y-19083411D01*
X13867932Y-18813158D01*
X13925000Y-18526260D01*
X13925000Y-18233740D01*
X13867932Y-17946842D01*
X13755990Y-17676589D01*
X13593475Y-17433368D01*
X13386632Y-17226525D01*
X13143411Y-17064010D01*
X12873158Y-16952068D01*
X12586260Y-16895000D01*
X12293740Y-16895000D01*
X12006842Y-16952068D01*
X11736589Y-17064010D01*
X11493368Y-17226525D01*
X11286525Y-17433368D01*
X11124010Y-17676589D01*
X11012068Y-17946842D01*
X10955000Y-18233740D01*
X10955000Y-18526260D01*
X11012068Y-18813158D01*
X11124010Y-19083411D01*
X11286525Y-19326632D01*
X11493368Y-19533475D01*
X11667760Y-19650000D01*
X11493368Y-19766525D01*
X11286525Y-19973368D01*
X11124010Y-20216589D01*
X11012068Y-20486842D01*
X10955000Y-20773740D01*
X10955000Y-21066260D01*
X11012068Y-21353158D01*
X11124010Y-21623411D01*
X11286525Y-21866632D01*
X11493368Y-22073475D01*
X11667760Y-22190000D01*
X11493368Y-22306525D01*
X11286525Y-22513368D01*
X11124010Y-22756589D01*
X11012068Y-23026842D01*
X10955000Y-23313740D01*
X10955000Y-23606260D01*
X11012068Y-23893158D01*
X11124010Y-24163411D01*
X11286525Y-24406632D01*
X11418380Y-24538487D01*
X11345820Y-24560498D01*
X11235506Y-24619463D01*
X11138815Y-24698815D01*
X11059463Y-24795506D01*
X11000498Y-24905820D01*
X10964188Y-25025518D01*
X10951928Y-25150000D01*
X10951928Y-26850000D01*
X10964188Y-26974482D01*
X11000498Y-27094180D01*
X11059463Y-27204494D01*
X11138815Y-27301185D01*
X11235506Y-27380537D01*
X11345820Y-27439502D01*
X11465518Y-27475812D01*
X11590000Y-27488072D01*
X13052124Y-27488072D01*
X2338878Y-38201319D01*
X2309880Y-38225117D01*
X2286082Y-38254115D01*
X2286081Y-38254116D01*
X2214906Y-38340842D01*
X2144334Y-38472872D01*
X2100878Y-38616133D01*
X2086204Y-38765118D01*
X660000Y-38765118D01*
X660000Y-11000000D01*
X3661928Y-11000000D01*
X3661928Y-12000000D01*
X3674188Y-12124482D01*
X3710498Y-12244180D01*
X3769463Y-12354494D01*
X3848815Y-12451185D01*
X3945506Y-12530537D01*
X4055820Y-12589502D01*
X4175518Y-12625812D01*
X4300000Y-12638072D01*
X6500000Y-12638072D01*
X6624482Y-12625812D01*
X6744180Y-12589502D01*
X6854494Y-12530537D01*
X6951185Y-12451185D01*
X7030537Y-12354494D01*
X7089502Y-12244180D01*
X7125812Y-12124482D01*
X7138072Y-12000000D01*
X7138072Y-11000000D01*
X7125812Y-10875518D01*
X7089502Y-10755820D01*
X7030537Y-10645506D01*
X6951185Y-10548815D01*
X6854494Y-10469463D01*
X6744180Y-10410498D01*
X6624482Y-10374188D01*
X6500000Y-10361928D01*
X4300000Y-10361928D01*
X4175518Y-10374188D01*
X4055820Y-10410498D01*
X3945506Y-10469463D01*
X3848815Y-10548815D01*
X3769463Y-10645506D01*
X3710498Y-10755820D01*
X3674188Y-10875518D01*
X3661928Y-11000000D01*
X660000Y-11000000D01*
X660000Y-9900000D01*
X11861928Y-9900000D01*
X11861928Y-12100000D01*
X11874188Y-12224482D01*
X11910498Y-12344180D01*
X11969463Y-12454494D01*
X12048815Y-12551185D01*
X12145506Y-12630537D01*
X12255820Y-12689502D01*
X12375518Y-12725812D01*
X12500000Y-12738072D01*
X13500000Y-12738072D01*
X13624482Y-12725812D01*
X13744180Y-12689502D01*
X13854494Y-12630537D01*
X13951185Y-12551185D01*
X14030537Y-12454494D01*
X14089502Y-12344180D01*
X14125812Y-12224482D01*
X14138072Y-12100000D01*
X14138072Y-9900000D01*
X14125812Y-9775518D01*
X14089502Y-9655820D01*
X14030537Y-9545506D01*
X13951185Y-9448815D01*
X13854494Y-9369463D01*
X13744180Y-9310498D01*
X13624482Y-9274188D01*
X13500000Y-9261928D01*
X12500000Y-9261928D01*
X12375518Y-9274188D01*
X12255820Y-9310498D01*
X12145506Y-9369463D01*
X12048815Y-9448815D01*
X11969463Y-9545506D01*
X11910498Y-9655820D01*
X11874188Y-9775518D01*
X11861928Y-9900000D01*
X660000Y-9900000D01*
X660000Y-8100000D01*
X861928Y-8100000D01*
X874188Y-8224482D01*
X910498Y-8344180D01*
X969463Y-8454494D01*
X1048815Y-8551185D01*
X1145506Y-8630537D01*
X1255820Y-8689502D01*
X1375518Y-8725812D01*
X1500000Y-8738072D01*
X1714250Y-8735000D01*
X1873000Y-8576250D01*
X1873000Y-7127000D01*
X2127000Y-7127000D01*
X2127000Y-8576250D01*
X2285750Y-8735000D01*
X2500000Y-8738072D01*
X2624482Y-8725812D01*
X2744180Y-8689502D01*
X2854494Y-8630537D01*
X2951185Y-8551185D01*
X3030537Y-8454494D01*
X3089502Y-8344180D01*
X3125812Y-8224482D01*
X3138072Y-8100000D01*
X3135000Y-7285750D01*
X2976250Y-7127000D01*
X2127000Y-7127000D01*
X1873000Y-7127000D01*
X1023750Y-7127000D01*
X865000Y-7285750D01*
X861928Y-8100000D01*
X660000Y-8100000D01*
X660000Y-5900000D01*
X861928Y-5900000D01*
X865000Y-6714250D01*
X1023750Y-6873000D01*
X1873000Y-6873000D01*
X1873000Y-5423750D01*
X2127000Y-5423750D01*
X2127000Y-6873000D01*
X2976250Y-6873000D01*
X3135000Y-6714250D01*
X3138072Y-5900000D01*
X3125812Y-5775518D01*
X3089502Y-5655820D01*
X3030537Y-5545506D01*
X2951185Y-5448815D01*
X2854494Y-5369463D01*
X2744180Y-5310498D01*
X2624482Y-5274188D01*
X2500000Y-5261928D01*
X2285750Y-5265000D01*
X2127000Y-5423750D01*
X1873000Y-5423750D01*
X1714250Y-5265000D01*
X1500000Y-5261928D01*
X1375518Y-5274188D01*
X1255820Y-5310498D01*
X1145506Y-5369463D01*
X1048815Y-5448815D01*
X969463Y-5545506D01*
X910498Y-5655820D01*
X874188Y-5775518D01*
X861928Y-5900000D01*
X660000Y-5900000D01*
X660000Y-4000000D01*
X6661928Y-4000000D01*
X6661928Y-5000000D01*
X6674188Y-5124482D01*
X6710498Y-5244180D01*
X6769463Y-5354494D01*
X6848815Y-5451185D01*
X6945506Y-5530537D01*
X7055820Y-5589502D01*
X7175518Y-5625812D01*
X7300000Y-5638072D01*
X9500000Y-5638072D01*
X9624482Y-5625812D01*
X9744180Y-5589502D01*
X9854494Y-5530537D01*
X9951185Y-5451185D01*
X10030537Y-5354494D01*
X10089502Y-5244180D01*
X10125812Y-5124482D01*
X10138072Y-5000000D01*
X10138072Y-4000000D01*
X10125812Y-3875518D01*
X10089502Y-3755820D01*
X10030537Y-3645506D01*
X9951185Y-3548815D01*
X9854494Y-3469463D01*
X9744180Y-3410498D01*
X9624482Y-3374188D01*
X9500000Y-3361928D01*
X7300000Y-3361928D01*
X7175518Y-3374188D01*
X7055820Y-3410498D01*
X6945506Y-3469463D01*
X6848815Y-3548815D01*
X6769463Y-3645506D01*
X6710498Y-3755820D01*
X6674188Y-3875518D01*
X6661928Y-4000000D01*
X660000Y-4000000D01*
X660000Y-1300000D01*
X8061928Y-1300000D01*
X8061928Y-2300000D01*
X8074188Y-2424482D01*
X8110498Y-2544180D01*
X8169463Y-2654494D01*
X8248815Y-2751185D01*
X8345506Y-2830537D01*
X8455820Y-2889502D01*
X8575518Y-2925812D01*
X8700000Y-2938072D01*
X10900000Y-2938072D01*
X11024482Y-2925812D01*
X11144180Y-2889502D01*
X11254494Y-2830537D01*
X11351185Y-2751185D01*
X11430537Y-2654494D01*
X11489502Y-2544180D01*
X11525812Y-2424482D01*
X11538072Y-2300000D01*
X11538072Y-1300000D01*
X11525812Y-1175518D01*
X11489502Y-1055820D01*
X11430537Y-945506D01*
X11351185Y-848815D01*
X11254494Y-769463D01*
X11144180Y-710498D01*
X11024482Y-674188D01*
X10900000Y-661928D01*
X8700000Y-661928D01*
X8575518Y-674188D01*
X8455820Y-710498D01*
X8345506Y-769463D01*
X8248815Y-848815D01*
X8169463Y-945506D01*
X8110498Y-1055820D01*
X8074188Y-1175518D01*
X8061928Y-1300000D01*
X660000Y-1300000D01*
X660000Y-660000D01*
X39248063Y-660000D01*
X39245557Y-99340000D01*
G37*
X39245557Y-99340000D02*
X660000Y-99340000D01*
X660000Y-97000000D01*
X3661928Y-97000000D01*
X3661928Y-98000000D01*
X3674188Y-98124482D01*
X3710498Y-98244180D01*
X3769463Y-98354494D01*
X3848815Y-98451185D01*
X3945506Y-98530537D01*
X4055820Y-98589502D01*
X4175518Y-98625812D01*
X4300000Y-98638072D01*
X6500000Y-98638072D01*
X6624482Y-98625812D01*
X6744180Y-98589502D01*
X6854494Y-98530537D01*
X6951185Y-98451185D01*
X7030537Y-98354494D01*
X7089502Y-98244180D01*
X7125812Y-98124482D01*
X7138072Y-98000000D01*
X7138072Y-97000000D01*
X7125812Y-96875518D01*
X7089502Y-96755820D01*
X7030537Y-96645506D01*
X6951185Y-96548815D01*
X6854494Y-96469463D01*
X6744180Y-96410498D01*
X6624482Y-96374188D01*
X6500000Y-96361928D01*
X4300000Y-96361928D01*
X4175518Y-96374188D01*
X4055820Y-96410498D01*
X3945506Y-96469463D01*
X3848815Y-96548815D01*
X3769463Y-96645506D01*
X3710498Y-96755820D01*
X3674188Y-96875518D01*
X3661928Y-97000000D01*
X660000Y-97000000D01*
X660000Y-95900000D01*
X11861928Y-95900000D01*
X11861928Y-98100000D01*
X11874188Y-98224482D01*
X11910498Y-98344180D01*
X11969463Y-98454494D01*
X12048815Y-98551185D01*
X12145506Y-98630537D01*
X12255820Y-98689502D01*
X12375518Y-98725812D01*
X12500000Y-98738072D01*
X13500000Y-98738072D01*
X13624482Y-98725812D01*
X13744180Y-98689502D01*
X13854494Y-98630537D01*
X13951185Y-98551185D01*
X14030537Y-98454494D01*
X14089502Y-98344180D01*
X14125812Y-98224482D01*
X14138072Y-98100000D01*
X14138072Y-95900000D01*
X14125812Y-95775518D01*
X14089502Y-95655820D01*
X14030537Y-95545506D01*
X13951185Y-95448815D01*
X13854494Y-95369463D01*
X13744180Y-95310498D01*
X13624482Y-95274188D01*
X13500000Y-95261928D01*
X12500000Y-95261928D01*
X12375518Y-95274188D01*
X12255820Y-95310498D01*
X12145506Y-95369463D01*
X12048815Y-95448815D01*
X11969463Y-95545506D01*
X11910498Y-95655820D01*
X11874188Y-95775518D01*
X11861928Y-95900000D01*
X660000Y-95900000D01*
X660000Y-94100000D01*
X861928Y-94100000D01*
X874188Y-94224482D01*
X910498Y-94344180D01*
X969463Y-94454494D01*
X1048815Y-94551185D01*
X1145506Y-94630537D01*
X1255820Y-94689502D01*
X1375518Y-94725812D01*
X1500000Y-94738072D01*
X1714250Y-94735000D01*
X1873000Y-94576250D01*
X1873000Y-93127000D01*
X2127000Y-93127000D01*
X2127000Y-94576250D01*
X2285750Y-94735000D01*
X2500000Y-94738072D01*
X2624482Y-94725812D01*
X2744180Y-94689502D01*
X2854494Y-94630537D01*
X2951185Y-94551185D01*
X3030537Y-94454494D01*
X3089502Y-94344180D01*
X3125812Y-94224482D01*
X3138072Y-94100000D01*
X3135000Y-93285750D01*
X2976250Y-93127000D01*
X2127000Y-93127000D01*
X1873000Y-93127000D01*
X1023750Y-93127000D01*
X865000Y-93285750D01*
X861928Y-94100000D01*
X660000Y-94100000D01*
X660000Y-91900000D01*
X861928Y-91900000D01*
X865000Y-92714250D01*
X1023750Y-92873000D01*
X1873000Y-92873000D01*
X1873000Y-91423750D01*
X2127000Y-91423750D01*
X2127000Y-92873000D01*
X2976250Y-92873000D01*
X3135000Y-92714250D01*
X3138072Y-91900000D01*
X3125812Y-91775518D01*
X3089502Y-91655820D01*
X3030537Y-91545506D01*
X2951185Y-91448815D01*
X2854494Y-91369463D01*
X2744180Y-91310498D01*
X2624482Y-91274188D01*
X2500000Y-91261928D01*
X2285750Y-91265000D01*
X2127000Y-91423750D01*
X1873000Y-91423750D01*
X1714250Y-91265000D01*
X1500000Y-91261928D01*
X1375518Y-91274188D01*
X1255820Y-91310498D01*
X1145506Y-91369463D01*
X1048815Y-91448815D01*
X969463Y-91545506D01*
X910498Y-91655820D01*
X874188Y-91775518D01*
X861928Y-91900000D01*
X660000Y-91900000D01*
X660000Y-90000000D01*
X6661928Y-90000000D01*
X6661928Y-91000000D01*
X6674188Y-91124482D01*
X6710498Y-91244180D01*
X6769463Y-91354494D01*
X6848815Y-91451185D01*
X6945506Y-91530537D01*
X7055820Y-91589502D01*
X7175518Y-91625812D01*
X7300000Y-91638072D01*
X9500000Y-91638072D01*
X9624482Y-91625812D01*
X9744180Y-91589502D01*
X9854494Y-91530537D01*
X9951185Y-91451185D01*
X10030537Y-91354494D01*
X10089502Y-91244180D01*
X10125812Y-91124482D01*
X10138072Y-91000000D01*
X10138072Y-90000000D01*
X10125812Y-89875518D01*
X10089502Y-89755820D01*
X10030537Y-89645506D01*
X9951185Y-89548815D01*
X9854494Y-89469463D01*
X9744180Y-89410498D01*
X9624482Y-89374188D01*
X9500000Y-89361928D01*
X7300000Y-89361928D01*
X7175518Y-89374188D01*
X7055820Y-89410498D01*
X6945506Y-89469463D01*
X6848815Y-89548815D01*
X6769463Y-89645506D01*
X6710498Y-89755820D01*
X6674188Y-89875518D01*
X6661928Y-90000000D01*
X660000Y-90000000D01*
X660000Y-87300000D01*
X8061928Y-87300000D01*
X8061928Y-88300000D01*
X8074188Y-88424482D01*
X8110498Y-88544180D01*
X8169463Y-88654494D01*
X8248815Y-88751185D01*
X8345506Y-88830537D01*
X8455820Y-88889502D01*
X8575518Y-88925812D01*
X8700000Y-88938072D01*
X10900000Y-88938072D01*
X11024482Y-88925812D01*
X11144180Y-88889502D01*
X11254494Y-88830537D01*
X11351185Y-88751185D01*
X11430537Y-88654494D01*
X11489502Y-88544180D01*
X11525812Y-88424482D01*
X11538072Y-88300000D01*
X11538072Y-87300000D01*
X11525812Y-87175518D01*
X11489502Y-87055820D01*
X11430537Y-86945506D01*
X11351185Y-86848815D01*
X11254494Y-86769463D01*
X11144180Y-86710498D01*
X11024482Y-86674188D01*
X10900000Y-86661928D01*
X8700000Y-86661928D01*
X8575518Y-86674188D01*
X8455820Y-86710498D01*
X8345506Y-86769463D01*
X8248815Y-86848815D01*
X8169463Y-86945506D01*
X8110498Y-87055820D01*
X8074188Y-87175518D01*
X8061928Y-87300000D01*
X660000Y-87300000D01*
X660000Y-74848816D01*
X3165000Y-74848816D01*
X3165000Y-75151184D01*
X3223989Y-75447743D01*
X3339701Y-75727095D01*
X3507688Y-75978505D01*
X3721495Y-76192312D01*
X3807831Y-76250000D01*
X3721495Y-76307688D01*
X3507688Y-76521495D01*
X3339701Y-76772905D01*
X3223989Y-77052257D01*
X3165000Y-77348816D01*
X3165000Y-77651184D01*
X3223989Y-77947743D01*
X3339701Y-78227095D01*
X3507688Y-78478505D01*
X3721495Y-78692312D01*
X3807831Y-78750000D01*
X3721495Y-78807688D01*
X3507688Y-79021495D01*
X3339701Y-79272905D01*
X3223989Y-79552257D01*
X3165000Y-79848816D01*
X3165000Y-80151184D01*
X3223989Y-80447743D01*
X3339701Y-80727095D01*
X3507688Y-80978505D01*
X3721495Y-81192312D01*
X3972905Y-81360299D01*
X4252257Y-81476011D01*
X4548816Y-81535000D01*
X4851184Y-81535000D01*
X5147743Y-81476011D01*
X5267955Y-81426217D01*
X5177791Y-81643892D01*
X5065000Y-82210928D01*
X5065000Y-82789072D01*
X5177791Y-83356108D01*
X5399037Y-83890244D01*
X5720237Y-84370953D01*
X6129047Y-84779763D01*
X6609756Y-85100963D01*
X7143892Y-85322209D01*
X7710928Y-85435000D01*
X8289072Y-85435000D01*
X8856108Y-85322209D01*
X9390244Y-85100963D01*
X9870953Y-84779763D01*
X10279763Y-84370953D01*
X10600963Y-83890244D01*
X10822209Y-83356108D01*
X10935000Y-82789072D01*
X10935000Y-82210928D01*
X10822209Y-81643892D01*
X10600963Y-81109756D01*
X10279763Y-80629047D01*
X9870953Y-80220237D01*
X9390244Y-79899037D01*
X8856108Y-79677791D01*
X8289072Y-79565000D01*
X7710928Y-79565000D01*
X7143892Y-79677791D01*
X6609756Y-79899037D01*
X6235000Y-80149441D01*
X6235000Y-79848816D01*
X6176011Y-79552257D01*
X6060299Y-79272905D01*
X5892312Y-79021495D01*
X5678505Y-78807688D01*
X5592169Y-78750000D01*
X5678505Y-78692312D01*
X5892312Y-78478505D01*
X6060299Y-78227095D01*
X6176011Y-77947743D01*
X6235000Y-77651184D01*
X6235000Y-77348816D01*
X6176011Y-77052257D01*
X6060299Y-76772905D01*
X5892312Y-76521495D01*
X5678505Y-76307688D01*
X5592169Y-76250000D01*
X5678505Y-76192312D01*
X5892312Y-75978505D01*
X6060299Y-75727095D01*
X6176011Y-75447743D01*
X6235000Y-75151184D01*
X6235000Y-74850559D01*
X6609756Y-75100963D01*
X7143892Y-75322209D01*
X7710928Y-75435000D01*
X8289072Y-75435000D01*
X8856108Y-75322209D01*
X9390244Y-75100963D01*
X9870953Y-74779763D01*
X10279763Y-74370953D01*
X10600963Y-73890244D01*
X10822209Y-73356108D01*
X10935000Y-72789072D01*
X10935000Y-72210928D01*
X10822209Y-71643892D01*
X10600963Y-71109756D01*
X10279763Y-70629047D01*
X9870953Y-70220237D01*
X9390244Y-69899037D01*
X8856108Y-69677791D01*
X8289072Y-69565000D01*
X7710928Y-69565000D01*
X7143892Y-69677791D01*
X6609756Y-69899037D01*
X6129047Y-70220237D01*
X5720237Y-70629047D01*
X5399037Y-71109756D01*
X5177791Y-71643892D01*
X5065000Y-72210928D01*
X5065000Y-72789072D01*
X5177791Y-73356108D01*
X5267955Y-73573783D01*
X5147743Y-73523989D01*
X4851184Y-73465000D01*
X4548816Y-73465000D01*
X4252257Y-73523989D01*
X3972905Y-73639701D01*
X3721495Y-73807688D01*
X3507688Y-74021495D01*
X3339701Y-74272905D01*
X3223989Y-74552257D01*
X3165000Y-74848816D01*
X660000Y-74848816D01*
X660000Y-62000000D01*
X3661928Y-62000000D01*
X3661928Y-63000000D01*
X3674188Y-63124482D01*
X3710498Y-63244180D01*
X3769463Y-63354494D01*
X3848815Y-63451185D01*
X3945506Y-63530537D01*
X4055820Y-63589502D01*
X4175518Y-63625812D01*
X4300000Y-63638072D01*
X6500000Y-63638072D01*
X6624482Y-63625812D01*
X6744180Y-63589502D01*
X6854494Y-63530537D01*
X6951185Y-63451185D01*
X7030537Y-63354494D01*
X7089502Y-63244180D01*
X7125812Y-63124482D01*
X7138072Y-63000000D01*
X7138072Y-62000000D01*
X7125812Y-61875518D01*
X7089502Y-61755820D01*
X7030537Y-61645506D01*
X6951185Y-61548815D01*
X6854494Y-61469463D01*
X6744180Y-61410498D01*
X6624482Y-61374188D01*
X6500000Y-61361928D01*
X4300000Y-61361928D01*
X4175518Y-61374188D01*
X4055820Y-61410498D01*
X3945506Y-61469463D01*
X3848815Y-61548815D01*
X3769463Y-61645506D01*
X3710498Y-61755820D01*
X3674188Y-61875518D01*
X3661928Y-62000000D01*
X660000Y-62000000D01*
X660000Y-59100000D01*
X861928Y-59100000D01*
X874188Y-59224482D01*
X910498Y-59344180D01*
X969463Y-59454494D01*
X1048815Y-59551185D01*
X1145506Y-59630537D01*
X1255820Y-59689502D01*
X1375518Y-59725812D01*
X1500000Y-59738072D01*
X1714250Y-59735000D01*
X1873000Y-59576250D01*
X1873000Y-58127000D01*
X2127000Y-58127000D01*
X2127000Y-59576250D01*
X2285750Y-59735000D01*
X2500000Y-59738072D01*
X2624482Y-59725812D01*
X2744180Y-59689502D01*
X2854494Y-59630537D01*
X2951185Y-59551185D01*
X3030537Y-59454494D01*
X3089502Y-59344180D01*
X3125812Y-59224482D01*
X3138072Y-59100000D01*
X3135000Y-58285750D01*
X2976250Y-58127000D01*
X2127000Y-58127000D01*
X1873000Y-58127000D01*
X1023750Y-58127000D01*
X865000Y-58285750D01*
X861928Y-59100000D01*
X660000Y-59100000D01*
X660000Y-56900000D01*
X861928Y-56900000D01*
X865000Y-57714250D01*
X1023750Y-57873000D01*
X1873000Y-57873000D01*
X1873000Y-56423750D01*
X2127000Y-56423750D01*
X2127000Y-57873000D01*
X2976250Y-57873000D01*
X3135000Y-57714250D01*
X3138072Y-56900000D01*
X3125812Y-56775518D01*
X3089502Y-56655820D01*
X3030537Y-56545506D01*
X2951185Y-56448815D01*
X2854494Y-56369463D01*
X2744180Y-56310498D01*
X2624482Y-56274188D01*
X2500000Y-56261928D01*
X2285750Y-56265000D01*
X2127000Y-56423750D01*
X1873000Y-56423750D01*
X1714250Y-56265000D01*
X1500000Y-56261928D01*
X1375518Y-56274188D01*
X1255820Y-56310498D01*
X1145506Y-56369463D01*
X1048815Y-56448815D01*
X969463Y-56545506D01*
X910498Y-56655820D01*
X874188Y-56775518D01*
X861928Y-56900000D01*
X660000Y-56900000D01*
X660000Y-38765118D01*
X2086204Y-38765118D01*
X2089881Y-38802450D01*
X2089880Y-48728138D01*
X2086204Y-48765460D01*
X2089880Y-48802782D01*
X2089880Y-48802792D01*
X2100877Y-48914445D01*
X2115957Y-48964157D01*
X2144334Y-49057706D01*
X2214906Y-49189736D01*
X2234301Y-49213368D01*
X2309879Y-49305461D01*
X2338883Y-49329264D01*
X7371546Y-54361928D01*
X7300000Y-54361928D01*
X7175518Y-54374188D01*
X7055820Y-54410498D01*
X6945506Y-54469463D01*
X6848815Y-54548815D01*
X6769463Y-54645506D01*
X6710498Y-54755820D01*
X6674188Y-54875518D01*
X6661928Y-55000000D01*
X6661928Y-56000000D01*
X6674188Y-56124482D01*
X6710498Y-56244180D01*
X6769463Y-56354494D01*
X6848815Y-56451185D01*
X6945506Y-56530537D01*
X7055820Y-56589502D01*
X7175518Y-56625812D01*
X7300000Y-56638072D01*
X9500000Y-56638072D01*
X9624482Y-56625812D01*
X9744180Y-56589502D01*
X9854494Y-56530537D01*
X9951185Y-56451185D01*
X10030537Y-56354494D01*
X10089502Y-56244180D01*
X10125812Y-56124482D01*
X10126607Y-56116407D01*
X12155901Y-58145701D01*
X12155901Y-58148088D01*
X12111963Y-58192026D01*
X11998695Y-58361544D01*
X11920674Y-58549902D01*
X11880900Y-58749861D01*
X11880900Y-58953739D01*
X11920674Y-59153698D01*
X11998695Y-59342056D01*
X12111963Y-59511574D01*
X12256126Y-59655737D01*
X12425644Y-59769005D01*
X12614002Y-59847026D01*
X12709231Y-59865968D01*
X12488998Y-60086201D01*
X12460000Y-60109999D01*
X12436202Y-60138997D01*
X12436201Y-60138998D01*
X12365026Y-60225724D01*
X12332078Y-60287365D01*
X12255820Y-60310498D01*
X12145506Y-60369463D01*
X12048815Y-60448815D01*
X11969463Y-60545506D01*
X11910498Y-60655820D01*
X11874188Y-60775518D01*
X11861928Y-60900000D01*
X11861928Y-63100000D01*
X11874188Y-63224482D01*
X11910498Y-63344180D01*
X11969463Y-63454494D01*
X12048815Y-63551185D01*
X12145506Y-63630537D01*
X12255820Y-63689502D01*
X12375518Y-63725812D01*
X12500000Y-63738072D01*
X13500000Y-63738072D01*
X13624482Y-63725812D01*
X13744180Y-63689502D01*
X13854494Y-63630537D01*
X13951185Y-63551185D01*
X14030537Y-63454494D01*
X14089502Y-63344180D01*
X14125812Y-63224482D01*
X14138072Y-63100000D01*
X14138072Y-60900000D01*
X14125812Y-60775518D01*
X14089502Y-60655820D01*
X14082354Y-60642447D01*
X18724802Y-56000000D01*
X33721822Y-56000000D01*
X33846525Y-56186632D01*
X34053368Y-56393475D01*
X34227760Y-56510000D01*
X34053368Y-56626525D01*
X33846525Y-56833368D01*
X33684010Y-57076589D01*
X33572068Y-57346842D01*
X33515000Y-57633740D01*
X33515000Y-57926260D01*
X33572068Y-58213158D01*
X33684010Y-58483411D01*
X33846525Y-58726632D01*
X34053368Y-58933475D01*
X34296589Y-59095990D01*
X34566842Y-59207932D01*
X34853740Y-59265000D01*
X35146260Y-59265000D01*
X35433158Y-59207932D01*
X35703411Y-59095990D01*
X35946632Y-58933475D01*
X36153475Y-58726632D01*
X36270000Y-58552240D01*
X36386525Y-58726632D01*
X36593368Y-58933475D01*
X36836589Y-59095990D01*
X37106842Y-59207932D01*
X37393740Y-59265000D01*
X37686260Y-59265000D01*
X37973158Y-59207932D01*
X38243411Y-59095990D01*
X38486632Y-58933475D01*
X38693475Y-58726632D01*
X38855990Y-58483411D01*
X38967932Y-58213158D01*
X39025000Y-57926260D01*
X39025000Y-57633740D01*
X38967932Y-57346842D01*
X38855990Y-57076589D01*
X38693475Y-56833368D01*
X38486632Y-56626525D01*
X38312240Y-56510000D01*
X38486632Y-56393475D01*
X38693475Y-56186632D01*
X38855990Y-55943411D01*
X38967932Y-55673158D01*
X39025000Y-55386260D01*
X39025000Y-55093740D01*
X38967932Y-54806842D01*
X38855990Y-54536589D01*
X38693475Y-54293368D01*
X38486632Y-54086525D01*
X38312240Y-53970000D01*
X38486632Y-53853475D01*
X38693475Y-53646632D01*
X38855990Y-53403411D01*
X38967932Y-53133158D01*
X39025000Y-52846260D01*
X39025000Y-52553740D01*
X38967932Y-52266842D01*
X38855990Y-51996589D01*
X38693475Y-51753368D01*
X38486632Y-51546525D01*
X38312240Y-51430000D01*
X38486632Y-51313475D01*
X38693475Y-51106632D01*
X38855990Y-50863411D01*
X38967932Y-50593158D01*
X39025000Y-50306260D01*
X39025000Y-50013740D01*
X38967932Y-49726842D01*
X38855990Y-49456589D01*
X38693475Y-49213368D01*
X38486632Y-49006525D01*
X38304466Y-48884805D01*
X38421355Y-48815178D01*
X38637588Y-48620269D01*
X38811641Y-48386920D01*
X38936825Y-48124099D01*
X38981476Y-47976890D01*
X38860155Y-47747000D01*
X37667000Y-47747000D01*
X37667000Y-47767000D01*
X37413000Y-47767000D01*
X37413000Y-47747000D01*
X35127000Y-47747000D01*
X35127000Y-47767000D01*
X34873000Y-47767000D01*
X34873000Y-47747000D01*
X33679845Y-47747000D01*
X33558524Y-47976890D01*
X33603175Y-48124099D01*
X33728359Y-48386920D01*
X33902412Y-48620269D01*
X34118645Y-48815178D01*
X34235534Y-48884805D01*
X34053368Y-49006525D01*
X33846525Y-49213368D01*
X33805344Y-49275000D01*
X16499371Y-49275000D01*
X12661261Y-45436890D01*
X33558524Y-45436890D01*
X33603175Y-45584099D01*
X33728359Y-45846920D01*
X33902412Y-46080269D01*
X34118645Y-46275178D01*
X34244255Y-46350000D01*
X34118645Y-46424822D01*
X33902412Y-46619731D01*
X33728359Y-46853080D01*
X33603175Y-47115901D01*
X33558524Y-47263110D01*
X33679845Y-47493000D01*
X34873000Y-47493000D01*
X34873000Y-45207000D01*
X35127000Y-45207000D01*
X35127000Y-47493000D01*
X37413000Y-47493000D01*
X37413000Y-45207000D01*
X37667000Y-45207000D01*
X37667000Y-47493000D01*
X38860155Y-47493000D01*
X38981476Y-47263110D01*
X38936825Y-47115901D01*
X38811641Y-46853080D01*
X38637588Y-46619731D01*
X38421355Y-46424822D01*
X38295745Y-46350000D01*
X38421355Y-46275178D01*
X38637588Y-46080269D01*
X38811641Y-45846920D01*
X38936825Y-45584099D01*
X38981476Y-45436890D01*
X38860155Y-45207000D01*
X37667000Y-45207000D01*
X37413000Y-45207000D01*
X35127000Y-45207000D01*
X34873000Y-45207000D01*
X33679845Y-45207000D01*
X33558524Y-45436890D01*
X12661261Y-45436890D01*
X10121261Y-42896890D01*
X33558524Y-42896890D01*
X33603175Y-43044099D01*
X33728359Y-43306920D01*
X33902412Y-43540269D01*
X34118645Y-43735178D01*
X34244255Y-43810000D01*
X34118645Y-43884822D01*
X33902412Y-44079731D01*
X33728359Y-44313080D01*
X33603175Y-44575901D01*
X33558524Y-44723110D01*
X33679845Y-44953000D01*
X34873000Y-44953000D01*
X34873000Y-42667000D01*
X35127000Y-42667000D01*
X35127000Y-44953000D01*
X37413000Y-44953000D01*
X37413000Y-42667000D01*
X37667000Y-42667000D01*
X37667000Y-44953000D01*
X38860155Y-44953000D01*
X38981476Y-44723110D01*
X38936825Y-44575901D01*
X38811641Y-44313080D01*
X38637588Y-44079731D01*
X38421355Y-43884822D01*
X38295745Y-43810000D01*
X38421355Y-43735178D01*
X38637588Y-43540269D01*
X38811641Y-43306920D01*
X38936825Y-43044099D01*
X38981476Y-42896890D01*
X38860155Y-42667000D01*
X37667000Y-42667000D01*
X37413000Y-42667000D01*
X35127000Y-42667000D01*
X34873000Y-42667000D01*
X33679845Y-42667000D01*
X33558524Y-42896890D01*
X10121261Y-42896890D01*
X7646568Y-40422198D01*
X7710928Y-40435000D01*
X8289072Y-40435000D01*
X8856108Y-40322209D01*
X9390244Y-40100963D01*
X9870953Y-39779763D01*
X10279763Y-39370953D01*
X10427399Y-39150000D01*
X33511928Y-39150000D01*
X33511928Y-40850000D01*
X33524188Y-40974482D01*
X33560498Y-41094180D01*
X33619463Y-41204494D01*
X33698815Y-41301185D01*
X33795506Y-41380537D01*
X33905820Y-41439502D01*
X33986466Y-41463966D01*
X33902412Y-41539731D01*
X33728359Y-41773080D01*
X33603175Y-42035901D01*
X33558524Y-42183110D01*
X33679845Y-42413000D01*
X34873000Y-42413000D01*
X34873000Y-42393000D01*
X35127000Y-42393000D01*
X35127000Y-42413000D01*
X37413000Y-42413000D01*
X37413000Y-42393000D01*
X37667000Y-42393000D01*
X37667000Y-42413000D01*
X38860155Y-42413000D01*
X38981476Y-42183110D01*
X38936825Y-42035901D01*
X38811641Y-41773080D01*
X38637588Y-41539731D01*
X38421355Y-41344822D01*
X38304466Y-41275195D01*
X38486632Y-41153475D01*
X38693475Y-40946632D01*
X38855990Y-40703411D01*
X38967932Y-40433158D01*
X39025000Y-40146260D01*
X39025000Y-39853740D01*
X38967932Y-39566842D01*
X38855990Y-39296589D01*
X38693475Y-39053368D01*
X38486632Y-38846525D01*
X38243411Y-38684010D01*
X37973158Y-38572068D01*
X37686260Y-38515000D01*
X37393740Y-38515000D01*
X37106842Y-38572068D01*
X36836589Y-38684010D01*
X36593368Y-38846525D01*
X36461513Y-38978380D01*
X36439502Y-38905820D01*
X36380537Y-38795506D01*
X36301185Y-38698815D01*
X36204494Y-38619463D01*
X36094180Y-38560498D01*
X35974482Y-38524188D01*
X35850000Y-38511928D01*
X34150000Y-38511928D01*
X34025518Y-38524188D01*
X33905820Y-38560498D01*
X33795506Y-38619463D01*
X33698815Y-38698815D01*
X33619463Y-38795506D01*
X33560498Y-38905820D01*
X33524188Y-39025518D01*
X33511928Y-39150000D01*
X10427399Y-39150000D01*
X10600963Y-38890244D01*
X10822209Y-38356108D01*
X10935000Y-37789072D01*
X10935000Y-37210928D01*
X10822209Y-36643892D01*
X10600963Y-36109756D01*
X10279763Y-35629047D01*
X9870953Y-35220237D01*
X9390244Y-34899037D01*
X8856108Y-34677791D01*
X8289072Y-34565000D01*
X8124799Y-34565000D01*
X15249640Y-27440160D01*
X17937349Y-27440160D01*
X17981286Y-27484097D01*
X18150804Y-27597365D01*
X18339162Y-27675386D01*
X18539121Y-27715160D01*
X18742999Y-27715160D01*
X18942958Y-27675386D01*
X19131316Y-27597365D01*
X19300834Y-27484097D01*
X19444997Y-27339934D01*
X19558265Y-27170416D01*
X19636286Y-26982058D01*
X19676060Y-26782099D01*
X19676060Y-26578221D01*
X19636286Y-26378262D01*
X19558265Y-26189904D01*
X19444997Y-26020386D01*
X19300834Y-25876223D01*
X19131316Y-25762955D01*
X18942958Y-25684934D01*
X18742999Y-25645160D01*
X18539121Y-25645160D01*
X18339162Y-25684934D01*
X18150804Y-25762955D01*
X17981286Y-25876223D01*
X17937349Y-25920160D01*
X14972171Y-25920160D01*
X14934838Y-25916483D01*
X14897505Y-25920160D01*
X14785852Y-25931157D01*
X14642591Y-25974614D01*
X14510562Y-26045186D01*
X14394837Y-26140159D01*
X14371039Y-26169157D01*
X13928072Y-26612124D01*
X13928072Y-25150000D01*
X13915812Y-25025518D01*
X13879502Y-24905820D01*
X13820537Y-24795506D01*
X13741185Y-24698815D01*
X13644494Y-24619463D01*
X13534180Y-24560498D01*
X13461620Y-24538487D01*
X13593475Y-24406632D01*
X13755990Y-24163411D01*
X13867932Y-23893158D01*
X13925000Y-23606260D01*
X13925000Y-23313740D01*
X13867932Y-23026842D01*
X13755990Y-22756589D01*
X13593475Y-22513368D01*
X13386632Y-22306525D01*
X13212240Y-22190000D01*
X13386632Y-22073475D01*
X13593475Y-21866632D01*
X13755990Y-21623411D01*
X13867932Y-21353158D01*
X13925000Y-21066260D01*
X13925000Y-20773740D01*
X13867932Y-20486842D01*
X13755990Y-20216589D01*
X13593475Y-19973368D01*
X13386632Y-19766525D01*
X13212240Y-19650000D01*
X13386632Y-19533475D01*
X13593475Y-19326632D01*
X13755990Y-19083411D01*
X13867932Y-18813158D01*
X13925000Y-18526260D01*
X13925000Y-18233740D01*
X13867932Y-17946842D01*
X13755990Y-17676589D01*
X13593475Y-17433368D01*
X13386632Y-17226525D01*
X13143411Y-17064010D01*
X12873158Y-16952068D01*
X12586260Y-16895000D01*
X12293740Y-16895000D01*
X12006842Y-16952068D01*
X11736589Y-17064010D01*
X11493368Y-17226525D01*
X11286525Y-17433368D01*
X11124010Y-17676589D01*
X11012068Y-17946842D01*
X10955000Y-18233740D01*
X10955000Y-18526260D01*
X11012068Y-18813158D01*
X11124010Y-19083411D01*
X11286525Y-19326632D01*
X11493368Y-19533475D01*
X11667760Y-19650000D01*
X11493368Y-19766525D01*
X11286525Y-19973368D01*
X11124010Y-20216589D01*
X11012068Y-20486842D01*
X10955000Y-20773740D01*
X10955000Y-21066260D01*
X11012068Y-21353158D01*
X11124010Y-21623411D01*
X11286525Y-21866632D01*
X11493368Y-22073475D01*
X11667760Y-22190000D01*
X11493368Y-22306525D01*
X11286525Y-22513368D01*
X11124010Y-22756589D01*
X11012068Y-23026842D01*
X10955000Y-23313740D01*
X10955000Y-23606260D01*
X11012068Y-23893158D01*
X11124010Y-24163411D01*
X11286525Y-24406632D01*
X11418380Y-24538487D01*
X11345820Y-24560498D01*
X11235506Y-24619463D01*
X11138815Y-24698815D01*
X11059463Y-24795506D01*
X11000498Y-24905820D01*
X10964188Y-25025518D01*
X10951928Y-25150000D01*
X10951928Y-26850000D01*
X10964188Y-26974482D01*
X11000498Y-27094180D01*
X11059463Y-27204494D01*
X11138815Y-27301185D01*
X11235506Y-27380537D01*
X11345820Y-27439502D01*
X11465518Y-27475812D01*
X11590000Y-27488072D01*
X13052124Y-27488072D01*
X2338878Y-38201319D01*
X2309880Y-38225117D01*
X2286082Y-38254115D01*
X2286081Y-38254116D01*
X2214906Y-38340842D01*
X2144334Y-38472872D01*
X2100878Y-38616133D01*
X2086204Y-38765118D01*
X660000Y-38765118D01*
X660000Y-11000000D01*
X3661928Y-11000000D01*
X3661928Y-12000000D01*
X3674188Y-12124482D01*
X3710498Y-12244180D01*
X3769463Y-12354494D01*
X3848815Y-12451185D01*
X3945506Y-12530537D01*
X4055820Y-12589502D01*
X4175518Y-12625812D01*
X4300000Y-12638072D01*
X6500000Y-12638072D01*
X6624482Y-12625812D01*
X6744180Y-12589502D01*
X6854494Y-12530537D01*
X6951185Y-12451185D01*
X7030537Y-12354494D01*
X7089502Y-12244180D01*
X7125812Y-12124482D01*
X7138072Y-12000000D01*
X7138072Y-11000000D01*
X7125812Y-10875518D01*
X7089502Y-10755820D01*
X7030537Y-10645506D01*
X6951185Y-10548815D01*
X6854494Y-10469463D01*
X6744180Y-10410498D01*
X6624482Y-10374188D01*
X6500000Y-10361928D01*
X4300000Y-10361928D01*
X4175518Y-10374188D01*
X4055820Y-10410498D01*
X3945506Y-10469463D01*
X3848815Y-10548815D01*
X3769463Y-10645506D01*
X3710498Y-10755820D01*
X3674188Y-10875518D01*
X3661928Y-11000000D01*
X660000Y-11000000D01*
X660000Y-9900000D01*
X11861928Y-9900000D01*
X11861928Y-12100000D01*
X11874188Y-12224482D01*
X11910498Y-12344180D01*
X11969463Y-12454494D01*
X12048815Y-12551185D01*
X12145506Y-12630537D01*
X12255820Y-12689502D01*
X12375518Y-12725812D01*
X12500000Y-12738072D01*
X13500000Y-12738072D01*
X13624482Y-12725812D01*
X13744180Y-12689502D01*
X13854494Y-12630537D01*
X13951185Y-12551185D01*
X14030537Y-12454494D01*
X14089502Y-12344180D01*
X14125812Y-12224482D01*
X14138072Y-12100000D01*
X14138072Y-9900000D01*
X14125812Y-9775518D01*
X14089502Y-9655820D01*
X14030537Y-9545506D01*
X13951185Y-9448815D01*
X13854494Y-9369463D01*
X13744180Y-9310498D01*
X13624482Y-9274188D01*
X13500000Y-9261928D01*
X12500000Y-9261928D01*
X12375518Y-9274188D01*
X12255820Y-9310498D01*
X12145506Y-9369463D01*
X12048815Y-9448815D01*
X11969463Y-9545506D01*
X11910498Y-9655820D01*
X11874188Y-9775518D01*
X11861928Y-9900000D01*
X660000Y-9900000D01*
X660000Y-8100000D01*
X861928Y-8100000D01*
X874188Y-8224482D01*
X910498Y-8344180D01*
X969463Y-8454494D01*
X1048815Y-8551185D01*
X1145506Y-8630537D01*
X1255820Y-8689502D01*
X1375518Y-8725812D01*
X1500000Y-8738072D01*
X1714250Y-8735000D01*
X1873000Y-8576250D01*
X1873000Y-7127000D01*
X2127000Y-7127000D01*
X2127000Y-8576250D01*
X2285750Y-8735000D01*
X2500000Y-8738072D01*
X2624482Y-8725812D01*
X2744180Y-8689502D01*
X2854494Y-8630537D01*
X2951185Y-8551185D01*
X3030537Y-8454494D01*
X3089502Y-8344180D01*
X3125812Y-8224482D01*
X3138072Y-8100000D01*
X3135000Y-7285750D01*
X2976250Y-7127000D01*
X2127000Y-7127000D01*
X1873000Y-7127000D01*
X1023750Y-7127000D01*
X865000Y-7285750D01*
X861928Y-8100000D01*
X660000Y-8100000D01*
X660000Y-5900000D01*
X861928Y-5900000D01*
X865000Y-6714250D01*
X1023750Y-6873000D01*
X1873000Y-6873000D01*
X1873000Y-5423750D01*
X2127000Y-5423750D01*
X2127000Y-6873000D01*
X2976250Y-6873000D01*
X3135000Y-6714250D01*
X3138072Y-5900000D01*
X3125812Y-5775518D01*
X3089502Y-5655820D01*
X3030537Y-5545506D01*
X2951185Y-5448815D01*
X2854494Y-5369463D01*
X2744180Y-5310498D01*
X2624482Y-5274188D01*
X2500000Y-5261928D01*
X2285750Y-5265000D01*
X2127000Y-5423750D01*
X1873000Y-5423750D01*
X1714250Y-5265000D01*
X1500000Y-5261928D01*
X1375518Y-5274188D01*
X1255820Y-5310498D01*
X1145506Y-5369463D01*
X1048815Y-5448815D01*
X969463Y-5545506D01*
X910498Y-5655820D01*
X874188Y-5775518D01*
X861928Y-5900000D01*
X660000Y-5900000D01*
X660000Y-4000000D01*
X6661928Y-4000000D01*
X6661928Y-5000000D01*
X6674188Y-5124482D01*
X6710498Y-5244180D01*
X6769463Y-5354494D01*
X6848815Y-5451185D01*
X6945506Y-5530537D01*
X7055820Y-5589502D01*
X7175518Y-5625812D01*
X7300000Y-5638072D01*
X9500000Y-5638072D01*
X9624482Y-5625812D01*
X9744180Y-5589502D01*
X9854494Y-5530537D01*
X9951185Y-5451185D01*
X10030537Y-5354494D01*
X10089502Y-5244180D01*
X10125812Y-5124482D01*
X10138072Y-5000000D01*
X10138072Y-4000000D01*
X10125812Y-3875518D01*
X10089502Y-3755820D01*
X10030537Y-3645506D01*
X9951185Y-3548815D01*
X9854494Y-3469463D01*
X9744180Y-3410498D01*
X9624482Y-3374188D01*
X9500000Y-3361928D01*
X7300000Y-3361928D01*
X7175518Y-3374188D01*
X7055820Y-3410498D01*
X6945506Y-3469463D01*
X6848815Y-3548815D01*
X6769463Y-3645506D01*
X6710498Y-3755820D01*
X6674188Y-3875518D01*
X6661928Y-4000000D01*
X660000Y-4000000D01*
X660000Y-1300000D01*
X8061928Y-1300000D01*
X8061928Y-2300000D01*
X8074188Y-2424482D01*
X8110498Y-2544180D01*
X8169463Y-2654494D01*
X8248815Y-2751185D01*
X8345506Y-2830537D01*
X8455820Y-2889502D01*
X8575518Y-2925812D01*
X8700000Y-2938072D01*
X10900000Y-2938072D01*
X11024482Y-2925812D01*
X11144180Y-2889502D01*
X11254494Y-2830537D01*
X11351185Y-2751185D01*
X11430537Y-2654494D01*
X11489502Y-2544180D01*
X11525812Y-2424482D01*
X11538072Y-2300000D01*
X11538072Y-1300000D01*
X11525812Y-1175518D01*
X11489502Y-1055820D01*
X11430537Y-945506D01*
X11351185Y-848815D01*
X11254494Y-769463D01*
X11144180Y-710498D01*
X11024482Y-674188D01*
X10900000Y-661928D01*
X8700000Y-661928D01*
X8575518Y-674188D01*
X8455820Y-710498D01*
X8345506Y-769463D01*
X8248815Y-848815D01*
X8169463Y-945506D01*
X8110498Y-1055820D01*
X8074188Y-1175518D01*
X8061928Y-1300000D01*
X660000Y-1300000D01*
X660000Y-660000D01*
X39248063Y-660000D01*
X39245557Y-99340000D01*
G36*
X15476262Y-50755049D02*
G01*
X15503975Y-50788817D01*
X15537743Y-50816530D01*
X15537745Y-50816532D01*
X15594867Y-50863411D01*
X15638733Y-50899411D01*
X15792479Y-50981589D01*
X15959302Y-51032195D01*
X16089315Y-51045000D01*
X16089323Y-51045000D01*
X16132792Y-51049281D01*
X16176261Y-51045000D01*
X33805344Y-51045000D01*
X33846525Y-51106632D01*
X34053368Y-51313475D01*
X34227760Y-51430000D01*
X34053368Y-51546525D01*
X33846525Y-51753368D01*
X33684010Y-51996589D01*
X33572068Y-52266842D01*
X33515000Y-52553740D01*
X33515000Y-52846260D01*
X33572068Y-53133158D01*
X33684010Y-53403411D01*
X33846525Y-53646632D01*
X34053368Y-53853475D01*
X34227760Y-53970000D01*
X34053368Y-54086525D01*
X33846525Y-54293368D01*
X33721822Y-54480000D01*
X18447322Y-54480000D01*
X18409999Y-54476324D01*
X18372676Y-54480000D01*
X18372667Y-54480000D01*
X18261014Y-54490997D01*
X18117753Y-54534454D01*
X17985724Y-54605026D01*
X17869999Y-54699999D01*
X17846201Y-54728997D01*
X13930068Y-58645131D01*
X13911126Y-58549902D01*
X13833105Y-58361544D01*
X13719837Y-58192026D01*
X13675900Y-58148089D01*
X13675900Y-57868220D01*
X13679576Y-57830897D01*
X13675900Y-57793574D01*
X13675900Y-57793565D01*
X13664903Y-57681912D01*
X13621446Y-57538651D01*
X13550874Y-57406622D01*
X13455901Y-57290897D01*
X13426903Y-57267099D01*
X10097875Y-53938072D01*
X10900000Y-53938072D01*
X11024482Y-53925812D01*
X11144180Y-53889502D01*
X11254494Y-53830537D01*
X11351185Y-53751185D01*
X11430537Y-53654494D01*
X11489502Y-53544180D01*
X11525812Y-53424482D01*
X11538072Y-53300000D01*
X11538072Y-52300000D01*
X11525812Y-52175518D01*
X11489502Y-52055820D01*
X11430537Y-51945506D01*
X11351185Y-51848815D01*
X11254494Y-51769463D01*
X11144180Y-51710498D01*
X11024482Y-51674188D01*
X10900000Y-51661928D01*
X8700000Y-51661928D01*
X8575518Y-51674188D01*
X8455820Y-51710498D01*
X8345506Y-51769463D01*
X8248815Y-51848815D01*
X8169463Y-51945506D01*
X8110498Y-52055820D01*
X8074188Y-52175518D01*
X8061928Y-52300000D01*
X8061928Y-52902706D01*
X3609880Y-48450659D01*
X3609880Y-46090332D01*
X3699578Y-46180030D01*
X3815526Y-46064082D01*
X3899208Y-46318261D01*
X4171775Y-46449158D01*
X4464642Y-46524365D01*
X4766553Y-46540991D01*
X5065907Y-46498397D01*
X5267356Y-46427662D01*
X5177791Y-46643892D01*
X5065000Y-47210928D01*
X5065000Y-47789072D01*
X5177791Y-48356108D01*
X5399037Y-48890244D01*
X5720237Y-49370953D01*
X6129047Y-49779763D01*
X6609756Y-50100963D01*
X7143892Y-50322209D01*
X7710928Y-50435000D01*
X8289072Y-50435000D01*
X8856108Y-50322209D01*
X9390244Y-50100963D01*
X9870953Y-49779763D01*
X10279763Y-49370953D01*
X10600963Y-48890244D01*
X10822209Y-48356108D01*
X10935000Y-47789072D01*
X10935000Y-47210928D01*
X10822209Y-46643892D01*
X10600963Y-46109756D01*
X10279763Y-45629047D01*
X9870953Y-45220237D01*
X9390244Y-44899037D01*
X8856108Y-44677791D01*
X8289072Y-44565000D01*
X7710928Y-44565000D01*
X7143892Y-44677791D01*
X6609756Y-44899037D01*
X6228871Y-45153537D01*
X6240991Y-44933447D01*
X6198397Y-44634093D01*
X6098222Y-44348801D01*
X6018261Y-44199208D01*
X5764080Y-44115525D01*
X4879605Y-45000000D01*
X4893748Y-45014143D01*
X4714143Y-45193748D01*
X4700000Y-45179605D01*
X4685858Y-45193748D01*
X4506253Y-45014143D01*
X4520395Y-45000000D01*
X4506253Y-44985858D01*
X4685858Y-44806253D01*
X4700000Y-44820395D01*
X5584475Y-43935920D01*
X5535690Y-43787738D01*
X5678505Y-43692312D01*
X5892312Y-43478505D01*
X6060299Y-43227095D01*
X6176011Y-42947743D01*
X6235000Y-42651184D01*
X6235000Y-42348816D01*
X6176011Y-42052257D01*
X6060299Y-41772905D01*
X5892312Y-41521495D01*
X5678505Y-41307688D01*
X5592169Y-41250000D01*
X5678505Y-41192312D01*
X5796015Y-41074802D01*
X15476262Y-50755049D01*
G37*
X15476262Y-50755049D02*
X15503975Y-50788817D01*
X15537743Y-50816530D01*
X15537745Y-50816532D01*
X15594867Y-50863411D01*
X15638733Y-50899411D01*
X15792479Y-50981589D01*
X15959302Y-51032195D01*
X16089315Y-51045000D01*
X16089323Y-51045000D01*
X16132792Y-51049281D01*
X16176261Y-51045000D01*
X33805344Y-51045000D01*
X33846525Y-51106632D01*
X34053368Y-51313475D01*
X34227760Y-51430000D01*
X34053368Y-51546525D01*
X33846525Y-51753368D01*
X33684010Y-51996589D01*
X33572068Y-52266842D01*
X33515000Y-52553740D01*
X33515000Y-52846260D01*
X33572068Y-53133158D01*
X33684010Y-53403411D01*
X33846525Y-53646632D01*
X34053368Y-53853475D01*
X34227760Y-53970000D01*
X34053368Y-54086525D01*
X33846525Y-54293368D01*
X33721822Y-54480000D01*
X18447322Y-54480000D01*
X18409999Y-54476324D01*
X18372676Y-54480000D01*
X18372667Y-54480000D01*
X18261014Y-54490997D01*
X18117753Y-54534454D01*
X17985724Y-54605026D01*
X17869999Y-54699999D01*
X17846201Y-54728997D01*
X13930068Y-58645131D01*
X13911126Y-58549902D01*
X13833105Y-58361544D01*
X13719837Y-58192026D01*
X13675900Y-58148089D01*
X13675900Y-57868220D01*
X13679576Y-57830897D01*
X13675900Y-57793574D01*
X13675900Y-57793565D01*
X13664903Y-57681912D01*
X13621446Y-57538651D01*
X13550874Y-57406622D01*
X13455901Y-57290897D01*
X13426903Y-57267099D01*
X10097875Y-53938072D01*
X10900000Y-53938072D01*
X11024482Y-53925812D01*
X11144180Y-53889502D01*
X11254494Y-53830537D01*
X11351185Y-53751185D01*
X11430537Y-53654494D01*
X11489502Y-53544180D01*
X11525812Y-53424482D01*
X11538072Y-53300000D01*
X11538072Y-52300000D01*
X11525812Y-52175518D01*
X11489502Y-52055820D01*
X11430537Y-51945506D01*
X11351185Y-51848815D01*
X11254494Y-51769463D01*
X11144180Y-51710498D01*
X11024482Y-51674188D01*
X10900000Y-51661928D01*
X8700000Y-51661928D01*
X8575518Y-51674188D01*
X8455820Y-51710498D01*
X8345506Y-51769463D01*
X8248815Y-51848815D01*
X8169463Y-51945506D01*
X8110498Y-52055820D01*
X8074188Y-52175518D01*
X8061928Y-52300000D01*
X8061928Y-52902706D01*
X3609880Y-48450659D01*
X3609880Y-46090332D01*
X3699578Y-46180030D01*
X3815526Y-46064082D01*
X3899208Y-46318261D01*
X4171775Y-46449158D01*
X4464642Y-46524365D01*
X4766553Y-46540991D01*
X5065907Y-46498397D01*
X5267356Y-46427662D01*
X5177791Y-46643892D01*
X5065000Y-47210928D01*
X5065000Y-47789072D01*
X5177791Y-48356108D01*
X5399037Y-48890244D01*
X5720237Y-49370953D01*
X6129047Y-49779763D01*
X6609756Y-50100963D01*
X7143892Y-50322209D01*
X7710928Y-50435000D01*
X8289072Y-50435000D01*
X8856108Y-50322209D01*
X9390244Y-50100963D01*
X9870953Y-49779763D01*
X10279763Y-49370953D01*
X10600963Y-48890244D01*
X10822209Y-48356108D01*
X10935000Y-47789072D01*
X10935000Y-47210928D01*
X10822209Y-46643892D01*
X10600963Y-46109756D01*
X10279763Y-45629047D01*
X9870953Y-45220237D01*
X9390244Y-44899037D01*
X8856108Y-44677791D01*
X8289072Y-44565000D01*
X7710928Y-44565000D01*
X7143892Y-44677791D01*
X6609756Y-44899037D01*
X6228871Y-45153537D01*
X6240991Y-44933447D01*
X6198397Y-44634093D01*
X6098222Y-44348801D01*
X6018261Y-44199208D01*
X5764080Y-44115525D01*
X4879605Y-45000000D01*
X4893748Y-45014143D01*
X4714143Y-45193748D01*
X4700000Y-45179605D01*
X4685858Y-45193748D01*
X4506253Y-45014143D01*
X4520395Y-45000000D01*
X4506253Y-44985858D01*
X4685858Y-44806253D01*
X4700000Y-44820395D01*
X5584475Y-43935920D01*
X5535690Y-43787738D01*
X5678505Y-43692312D01*
X5892312Y-43478505D01*
X6060299Y-43227095D01*
X6176011Y-42947743D01*
X6235000Y-42651184D01*
X6235000Y-42348816D01*
X6176011Y-42052257D01*
X6060299Y-41772905D01*
X5892312Y-41521495D01*
X5678505Y-41307688D01*
X5592169Y-41250000D01*
X5678505Y-41192312D01*
X5796015Y-41074802D01*
X15476262Y-50755049D01*
M02*
