G04 #@! TF.GenerationSoftware,KiCad,Pcbnew,9.0.0*
G04 #@! TF.CreationDate,2025-02-23T15:53:39-07:00*
G04 #@! TF.ProjectId,VCF,5643462e-6b69-4636-9164-5f7063625858,rev?*
G04 #@! TF.SameCoordinates,Original*
G04 #@! TF.FileFunction,Copper,L1,Top*
G04 #@! TF.FilePolarity,Positive*
%FSLAX46Y46*%
G04 Gerber Fmt 4.6, Leading zero omitted, Abs format (unit mm)*
G04 Created by KiCad (PCBNEW 9.0.0) date 2025-02-23 15:53:39*
%MOMM*%
%LPD*%
G01*
G04 APERTURE LIST*
G04 #@! TA.AperFunction,SMDPad,CuDef*
%ADD10R,2.500000X2.000000*%
G04 #@! TD*
G04 #@! TA.AperFunction,SMDPad,CuDef*
%ADD11R,2.000000X2.500000*%
G04 #@! TD*
G04 #@! TA.AperFunction,SMDPad,CuDef*
%ADD12R,1.200000X0.900000*%
G04 #@! TD*
G04 #@! TA.AperFunction,ComponentPad*
%ADD13R,1.000000X2.200000*%
G04 #@! TD*
G04 #@! TA.AperFunction,ComponentPad*
%ADD14R,2.200000X1.000000*%
G04 #@! TD*
G04 #@! TA.AperFunction,ComponentPad*
%ADD15R,1.700000X1.700000*%
G04 #@! TD*
G04 #@! TA.AperFunction,ComponentPad*
%ADD16O,1.700000X1.700000*%
G04 #@! TD*
G04 #@! TA.AperFunction,SMDPad,CuDef*
%ADD17R,0.900000X0.800000*%
G04 #@! TD*
G04 #@! TA.AperFunction,SMDPad,CuDef*
%ADD18R,0.800000X0.900000*%
G04 #@! TD*
G04 #@! TA.AperFunction,ComponentPad*
%ADD19C,4.600000*%
G04 #@! TD*
G04 #@! TA.AperFunction,ComponentPad*
%ADD20C,1.800000*%
G04 #@! TD*
G04 #@! TA.AperFunction,ComponentPad*
%ADD21C,1.580000*%
G04 #@! TD*
G04 #@! TA.AperFunction,ViaPad*
%ADD22C,0.800000*%
G04 #@! TD*
G04 #@! TA.AperFunction,Conductor*
%ADD23C,0.250000*%
G04 #@! TD*
G04 #@! TA.AperFunction,Conductor*
%ADD24C,0.500000*%
G04 #@! TD*
G04 APERTURE END LIST*
D10*
X16000000Y-11000000D03*
X16000000Y-7000000D03*
D11*
X30000000Y-58000000D03*
X26000000Y-58000000D03*
X30000000Y-53000000D03*
X26000000Y-53000000D03*
X26000000Y-38000000D03*
X30000000Y-38000000D03*
X30000000Y-16000000D03*
X26000000Y-16000000D03*
X28000000Y-64000000D03*
X32000000Y-64000000D03*
X28000000Y-69000000D03*
X32000000Y-69000000D03*
X28000000Y-74000000D03*
X32000000Y-74000000D03*
D10*
X16000000Y-97000000D03*
X16000000Y-93000000D03*
D12*
X21000000Y-33650000D03*
X21000000Y-30350000D03*
X25000000Y-30350000D03*
X25000000Y-33650000D03*
X29000000Y-33650000D03*
X29000000Y-30350000D03*
X33000000Y-30350000D03*
X33000000Y-33650000D03*
X33000000Y-24350000D03*
X33000000Y-27650000D03*
X29000000Y-27650000D03*
X29000000Y-24350000D03*
X25000000Y-24350000D03*
X25000000Y-27650000D03*
X21000000Y-27650000D03*
X21000000Y-24350000D03*
D13*
X2000000Y-7000000D03*
X13000000Y-11000000D03*
D14*
X5400000Y-11500000D03*
X9800000Y-1800000D03*
X8400000Y-4500000D03*
D13*
X2000000Y-58000000D03*
X13000000Y-62000000D03*
D14*
X5400000Y-62500000D03*
X9800000Y-52800000D03*
X8400000Y-55500000D03*
D15*
X12440000Y-26000000D03*
D16*
X12440000Y-23460000D03*
X12440000Y-20920000D03*
X12440000Y-18380000D03*
D15*
X42080180Y-98163380D03*
D16*
X42080180Y-95623380D03*
X42080180Y-93083380D03*
X42080180Y-90543380D03*
D15*
X35000000Y-40000000D03*
D16*
X37540000Y-40000000D03*
X35000000Y-42540000D03*
X37540000Y-42540000D03*
X35000000Y-45080000D03*
X37540000Y-45080000D03*
X35000000Y-47620000D03*
X37540000Y-47620000D03*
X35000000Y-50160000D03*
X37540000Y-50160000D03*
X35000000Y-52700000D03*
X37540000Y-52700000D03*
X35000000Y-55240000D03*
X37540000Y-55240000D03*
X35000000Y-57780000D03*
X37540000Y-57780000D03*
D13*
X2000000Y-93000000D03*
X13000000Y-97000000D03*
D14*
X5400000Y-97500000D03*
X8400000Y-90500000D03*
X9800000Y-87800000D03*
D17*
X20440140Y-50985380D03*
X20440140Y-52885380D03*
X22440140Y-51935380D03*
D18*
X22326640Y-55553100D03*
X20426640Y-55553100D03*
X21376640Y-57553100D03*
X23950000Y-71000000D03*
X22050000Y-71000000D03*
X23000000Y-73000000D03*
D17*
X24000000Y-76950000D03*
X24000000Y-75050000D03*
X22000000Y-76000000D03*
D10*
X21000000Y-47000000D03*
X21000000Y-43000000D03*
X16000000Y-47000000D03*
X16000000Y-43000000D03*
X16000000Y-50000000D03*
X16000000Y-54000000D03*
X16000000Y-23000000D03*
X16000000Y-27000000D03*
X16000000Y-30000000D03*
X16000000Y-34000000D03*
D11*
X26000000Y-48000000D03*
X30000000Y-48000000D03*
X26000000Y-43000000D03*
X30000000Y-43000000D03*
X26000000Y-11000000D03*
X30000000Y-11000000D03*
X32000000Y-94000000D03*
X28000000Y-94000000D03*
D10*
X16000000Y-57000000D03*
X16000000Y-61000000D03*
D11*
X28000000Y-84000000D03*
X32000000Y-84000000D03*
X28000000Y-79000000D03*
X32000000Y-79000000D03*
X28000000Y-89000000D03*
X32000000Y-89000000D03*
D10*
X16000000Y-73000000D03*
X16000000Y-69000000D03*
X16000000Y-80000000D03*
X16000000Y-76000000D03*
X16000000Y-90000000D03*
X16000000Y-86000000D03*
D19*
X8000000Y-47500000D03*
X8000000Y-37500000D03*
D20*
X4700000Y-40000000D03*
X4700000Y-42500000D03*
X4700000Y-45000000D03*
D19*
X8000000Y-72500000D03*
X8000000Y-82500000D03*
D20*
X4700000Y-75000000D03*
X4700000Y-77500000D03*
X4700000Y-80000000D03*
D21*
X50673320Y-92727460D03*
X51417220Y-94523560D03*
X50673320Y-96319660D03*
X48877220Y-91983560D03*
D10*
X16000000Y-18000000D03*
X16000000Y-14000000D03*
D11*
X30000000Y-21000000D03*
X26000000Y-21000000D03*
D22*
X19000000Y-98000000D03*
X1500000Y-39000000D03*
X11000000Y-81000000D03*
X10000000Y-93000000D03*
X12000000Y-40000000D03*
X24000000Y-61000000D03*
X18000000Y-59000000D03*
X18500000Y-52000000D03*
X38000000Y-64000000D03*
X36000000Y-34000000D03*
X22000000Y-61000000D03*
X36000000Y-64000000D03*
X21000000Y-98000000D03*
X10000000Y-76000000D03*
X14000000Y-40000000D03*
X18500000Y-54000000D03*
X13000000Y-81000000D03*
X12000000Y-76000000D03*
X12500000Y-44500000D03*
X12000000Y-93000000D03*
X20000000Y-59000000D03*
X38000000Y-34000000D03*
X12915900Y-58851800D03*
X18641060Y-26680160D03*
D23*
X16000000Y-14000000D02*
X16000000Y-11000000D01*
X5400000Y-10750000D02*
X9150000Y-7000000D01*
X5400000Y-11500000D02*
X5400000Y-10750000D01*
X9150000Y-7000000D02*
X14500000Y-7000000D01*
X14500000Y-7000000D02*
X16000000Y-7000000D01*
X30000000Y-53000000D02*
X30000000Y-58000000D01*
X30000000Y-43000000D02*
X30000000Y-48000000D01*
X30000000Y-48000000D02*
X30000000Y-53000000D01*
X25000000Y-33650000D02*
X25000000Y-37000000D01*
X25000000Y-33650000D02*
X25850000Y-33650000D01*
X25850000Y-33650000D02*
X29000000Y-33650000D01*
X25000000Y-37000000D02*
X26000000Y-38000000D01*
X27071321Y-30973891D02*
X28177199Y-32079769D01*
X13820140Y-24084280D02*
X13820140Y-22300140D01*
X25920000Y-20920000D02*
X26000000Y-21000000D01*
X11442700Y-24709120D02*
X13195300Y-24709120D01*
X30861000Y-35641280D02*
X30858720Y-35641280D01*
X12440000Y-20920000D02*
X25920000Y-20920000D01*
X23141942Y-22608058D02*
X23141942Y-25031702D01*
X16000000Y-86000000D02*
X17500000Y-86000000D01*
X24292129Y-26181889D02*
X26500800Y-26181889D01*
X3373120Y-75486122D02*
X3373120Y-62224920D01*
X19218070Y-78501670D02*
X7564670Y-78501670D01*
X7447280Y-61236860D02*
X12150498Y-56533642D01*
X3373120Y-62224920D02*
X4361180Y-61236860D01*
X30346360Y-32079769D02*
X30934660Y-32668069D01*
X30934660Y-32668069D02*
X30934660Y-35567620D01*
X20148330Y-83351670D02*
X20148330Y-79431930D01*
X11023600Y-25128220D02*
X11442700Y-24709120D01*
X7564670Y-78501670D02*
X5321420Y-76258420D01*
X4145418Y-76258420D02*
X3373120Y-75486122D01*
X23141942Y-25031702D02*
X24292129Y-26181889D01*
X20148330Y-79431930D02*
X19218070Y-78501670D01*
X12150498Y-46796410D02*
X14410980Y-44535928D01*
X17327662Y-44535928D02*
X18016220Y-43847370D01*
X14410980Y-44535928D02*
X17327662Y-44535928D01*
X18016220Y-43847370D02*
X18016220Y-41554400D01*
X4361180Y-61236860D02*
X7447280Y-61236860D01*
X13820140Y-22300140D02*
X13289999Y-21769999D01*
X12150498Y-56533642D02*
X12150498Y-46796410D01*
X13289999Y-21769999D02*
X12440000Y-20920000D01*
X26500800Y-26181889D02*
X27071321Y-26752410D01*
X24750000Y-21000000D02*
X23141942Y-22608058D01*
X30858720Y-35641280D02*
X30000000Y-36500000D01*
X5321420Y-76258420D02*
X4145418Y-76258420D01*
X27071321Y-26752410D02*
X27071321Y-30973891D01*
X13195300Y-24709120D02*
X13820140Y-24084280D01*
X26000000Y-21000000D02*
X24750000Y-21000000D01*
X30000000Y-36500000D02*
X30000000Y-38000000D01*
X18016220Y-41554400D02*
X11023600Y-34561780D01*
X28177199Y-32079769D02*
X30346360Y-32079769D01*
X17500000Y-86000000D02*
X20148330Y-83351670D01*
X30934660Y-35567620D02*
X30861000Y-35641280D01*
X11023600Y-34561780D02*
X11023600Y-25128220D01*
X33881140Y-33650000D02*
X39133780Y-38902640D01*
X39133780Y-38902640D02*
X39133780Y-59115960D01*
X33850000Y-24350000D02*
X34300160Y-24800160D01*
X33000000Y-24350000D02*
X33850000Y-24350000D01*
X39133780Y-59115960D02*
X34249740Y-64000000D01*
X33873360Y-33650000D02*
X33850000Y-33650000D01*
X32986980Y-23636980D02*
X32986980Y-17736980D01*
X33850000Y-33650000D02*
X33881140Y-33650000D01*
X33000000Y-24350000D02*
X33000000Y-23650000D01*
X33000000Y-23650000D02*
X32986980Y-23636980D01*
X33850000Y-33650000D02*
X33000000Y-33650000D01*
X34300160Y-24800160D02*
X34300160Y-33223200D01*
X34300160Y-33223200D02*
X33873360Y-33650000D01*
X32986980Y-17736980D02*
X31250000Y-16000000D01*
X31250000Y-16000000D02*
X30000000Y-16000000D01*
X34249740Y-64000000D02*
X32000000Y-64000000D01*
X19403060Y-19677380D02*
X23080440Y-16000000D01*
X26000000Y-12500000D02*
X26000000Y-16000000D01*
X11170920Y-20450078D02*
X11943618Y-19677380D01*
X11170920Y-22190920D02*
X11170920Y-20450078D01*
X26000000Y-11000000D02*
X26000000Y-12500000D01*
X11943618Y-19677380D02*
X19403060Y-19677380D01*
X23080440Y-16000000D02*
X26000000Y-16000000D01*
X12440000Y-23460000D02*
X11170920Y-22190920D01*
X23950000Y-71700000D02*
X25514300Y-73264300D01*
X28000000Y-64000000D02*
X26750000Y-64000000D01*
X25514300Y-73264300D02*
X25514300Y-87764300D01*
X26750000Y-89000000D02*
X28000000Y-89000000D01*
X26750000Y-64000000D02*
X23950000Y-66800000D01*
X23950000Y-66800000D02*
X23950000Y-70300000D01*
X23950000Y-70300000D02*
X23950000Y-71000000D01*
X23950000Y-71000000D02*
X23950000Y-71700000D01*
X25514300Y-87764300D02*
X26750000Y-89000000D01*
X30000000Y-21000000D02*
X30000000Y-24200000D01*
X29000000Y-24350000D02*
X25000000Y-24350000D01*
X30000000Y-24200000D02*
X29850000Y-24350000D01*
X29850000Y-24350000D02*
X29000000Y-24350000D01*
X25212040Y-45405040D02*
X27005280Y-45405040D01*
X26621310Y-26938810D02*
X26621310Y-31160290D01*
X24700000Y-75050000D02*
X25064290Y-75414290D01*
X29992320Y-87492320D02*
X29992320Y-93257680D01*
X28000000Y-84000000D02*
X28000000Y-85500000D01*
X16000000Y-23000000D02*
X22100840Y-23000000D01*
X28000000Y-82500000D02*
X26200100Y-80700100D01*
X28031440Y-37133558D02*
X28031440Y-39316660D01*
X28031440Y-39316660D02*
X27536140Y-39811960D01*
X24000000Y-75050000D02*
X24700000Y-75050000D01*
X26200100Y-77635100D02*
X28000000Y-75835200D01*
X28127960Y-61180980D02*
X29949140Y-63002160D01*
X26173038Y-39811960D02*
X23949660Y-42035338D01*
X30480000Y-34684998D02*
X28031440Y-37133558D01*
X29949140Y-68300860D02*
X29250000Y-69000000D01*
X29250000Y-69000000D02*
X28000000Y-69000000D01*
X25064290Y-92314290D02*
X26750000Y-94000000D01*
X30480000Y-32849820D02*
X30480000Y-34684998D01*
X29250000Y-94000000D02*
X28000000Y-94000000D01*
X25064290Y-75414290D02*
X25064290Y-92314290D01*
X23949660Y-42035338D02*
X23949660Y-44142660D01*
X28000000Y-70500000D02*
X28000000Y-74000000D01*
X27990800Y-32529780D02*
X30159960Y-32529780D01*
X26314400Y-26631900D02*
X26621310Y-26938810D01*
X28127960Y-46527720D02*
X28127960Y-61180980D01*
X28000000Y-75835200D02*
X28000000Y-74000000D01*
X26750000Y-94000000D02*
X28000000Y-94000000D01*
X24105730Y-26631900D02*
X26314400Y-26631900D01*
X26621310Y-31160290D02*
X27990800Y-32529780D01*
X28000000Y-69000000D02*
X28000000Y-70500000D01*
X26200100Y-80700100D02*
X26200100Y-77635100D01*
X29949140Y-63002160D02*
X29949140Y-68300860D01*
X28000000Y-84000000D02*
X28000000Y-82500000D01*
X22100840Y-23000000D02*
X22691931Y-23591091D01*
X22691931Y-25218101D02*
X24105730Y-26631900D01*
X27005280Y-45405040D02*
X28127960Y-46527720D01*
X27536140Y-39811960D02*
X26173038Y-39811960D01*
X28000000Y-85500000D02*
X29992320Y-87492320D01*
X22691931Y-23591091D02*
X22691931Y-25218101D01*
X23949660Y-44142660D02*
X25212040Y-45405040D01*
X29992320Y-93257680D02*
X29250000Y-94000000D01*
X30159960Y-32529780D02*
X30480000Y-32849820D01*
X17500000Y-90000000D02*
X22000000Y-85500000D01*
X4700000Y-75000000D02*
X7744040Y-78044040D01*
X21998120Y-76001880D02*
X22000000Y-76000000D01*
X16000000Y-90000000D02*
X16000000Y-91250000D01*
X22000000Y-76650000D02*
X22000000Y-76000000D01*
X16000000Y-90000000D02*
X17500000Y-90000000D01*
X16000000Y-91250000D02*
X16000000Y-93000000D01*
X21267420Y-76001880D02*
X21998120Y-76001880D01*
X22000000Y-85500000D02*
X22000000Y-76650000D01*
X19225260Y-78044040D02*
X21267420Y-76001880D01*
X7744040Y-78044040D02*
X19225260Y-78044040D01*
X5400000Y-97500000D02*
X6750000Y-97500000D01*
X8218560Y-98968560D02*
X15281440Y-98968560D01*
X6750000Y-97500000D02*
X8218560Y-98968560D01*
X16000000Y-98250000D02*
X16000000Y-97000000D01*
X15281440Y-98968560D02*
X16000000Y-98250000D01*
X21000000Y-30350000D02*
X25000000Y-30350000D01*
X22490140Y-51935380D02*
X22440140Y-51935380D01*
X23500080Y-35300080D02*
X23500080Y-41848507D01*
X16350000Y-33650000D02*
X16000000Y-34000000D01*
X23500080Y-44329491D02*
X23500080Y-50925440D01*
X23499649Y-44329060D02*
X23500080Y-44329491D01*
X23500080Y-41848507D02*
X23499649Y-41848938D01*
X21000000Y-33650000D02*
X16350000Y-33650000D01*
X23500080Y-50925440D02*
X22490140Y-51935380D01*
X21000000Y-33650000D02*
X21850000Y-33650000D01*
X21850000Y-33650000D02*
X23500080Y-35300080D01*
X23499649Y-41848938D02*
X23499649Y-44329060D01*
X29000000Y-30350000D02*
X29850000Y-30350000D01*
X29850000Y-30350000D02*
X33000000Y-30350000D01*
X29000000Y-27650000D02*
X33000000Y-27650000D01*
X21850000Y-27650000D02*
X25000000Y-27650000D01*
X21000000Y-27650000D02*
X21850000Y-27650000D01*
X20150000Y-24350000D02*
X18641060Y-25858940D01*
X21376640Y-57553100D02*
X21376640Y-59253120D01*
X18641060Y-25858940D02*
X18641060Y-26680160D01*
X12915900Y-58851800D02*
X15101800Y-58851800D01*
X21000000Y-24350000D02*
X20150000Y-24350000D01*
X15101800Y-58851800D02*
X16000000Y-59750000D01*
X16000000Y-59750000D02*
X16000000Y-61000000D01*
X19629760Y-61000000D02*
X16000000Y-61000000D01*
X21376640Y-59253120D02*
X19629760Y-61000000D01*
X35000000Y-55240000D02*
X36202081Y-55240000D01*
X36202081Y-55240000D02*
X37540000Y-55240000D01*
X20264061Y-44985939D02*
X14597380Y-44985939D01*
X14597380Y-44985939D02*
X12600509Y-46982810D01*
X21000000Y-44250000D02*
X20264061Y-44985939D01*
X12600509Y-56720042D02*
X6820551Y-62500000D01*
X6820551Y-62500000D02*
X6750000Y-62500000D01*
X6750000Y-62500000D02*
X5400000Y-62500000D01*
X12600509Y-46982810D02*
X12600509Y-56720042D01*
X21000000Y-43000000D02*
X21000000Y-44250000D01*
X23047960Y-44203620D02*
X23047960Y-36962080D01*
X16000000Y-28250000D02*
X16000000Y-30000000D01*
X23047960Y-36962080D02*
X22072600Y-35986720D01*
X16000000Y-57000000D02*
X14500000Y-57000000D01*
X15000000Y-26000000D02*
X16000000Y-27000000D01*
X16000000Y-27000000D02*
X16000000Y-28250000D01*
X13050520Y-55550520D02*
X13050520Y-47169210D01*
X14500000Y-57000000D02*
X13050520Y-55550520D01*
X14783780Y-45435950D02*
X21815630Y-45435950D01*
X13977620Y-35288220D02*
X13977620Y-30522380D01*
X13050520Y-47169210D02*
X14783780Y-45435950D01*
X14500000Y-30000000D02*
X16000000Y-30000000D01*
X14676120Y-35986720D02*
X13977620Y-35288220D01*
X13977620Y-30522380D02*
X14500000Y-30000000D01*
X12440000Y-26000000D02*
X15000000Y-26000000D01*
X22072600Y-35986720D02*
X14676120Y-35986720D01*
X21815630Y-45435950D02*
X23047960Y-44203620D01*
X12440000Y-18380000D02*
X15620000Y-18380000D01*
X15620000Y-18380000D02*
X16000000Y-18000000D01*
X42080180Y-90543380D02*
X47437040Y-90543380D01*
X47437040Y-90543380D02*
X48877220Y-91983560D01*
X40802560Y-96199960D02*
X41478200Y-96875600D01*
X41478200Y-96875600D02*
X49000152Y-96875600D01*
X42080180Y-93083380D02*
X40802560Y-94361000D01*
X49000152Y-96875600D02*
X49556092Y-96319660D01*
X49556092Y-96319660D02*
X50673320Y-96319660D01*
X40802560Y-94361000D02*
X40802560Y-96199960D01*
X50299992Y-94523560D02*
X51417220Y-94523560D01*
X43282261Y-95623380D02*
X44382081Y-94523560D01*
X44382081Y-94523560D02*
X50299992Y-94523560D01*
X42080180Y-95623380D02*
X43282261Y-95623380D01*
X51790548Y-92727460D02*
X50673320Y-92727460D01*
X52890420Y-95933260D02*
X52890420Y-93827332D01*
X42080180Y-98163380D02*
X50660300Y-98163380D01*
X50660300Y-98163380D02*
X52890420Y-95933260D01*
X52890420Y-93827332D02*
X51790548Y-92727460D01*
X37540000Y-57780000D02*
X36337919Y-57780000D01*
X36337919Y-57780000D02*
X35000000Y-57780000D01*
X36337919Y-52700000D02*
X35000000Y-52700000D01*
X37540000Y-52700000D02*
X36337919Y-52700000D01*
D24*
X6613942Y-95023940D02*
X662940Y-89072938D01*
X31651640Y-96098360D02*
X18338362Y-96098360D01*
X17263942Y-95023940D02*
X6613942Y-95023940D01*
X3012360Y-40000000D02*
X4700000Y-40000000D01*
X662940Y-89072938D02*
X662940Y-42349420D01*
X35000000Y-50160000D02*
X37540000Y-50160000D01*
X18338362Y-96098360D02*
X17263942Y-95023940D01*
X662940Y-42349420D02*
X3012360Y-40000000D01*
X32000000Y-95750000D02*
X31651640Y-96098360D01*
X32000000Y-94000000D02*
X32000000Y-95750000D01*
X31943040Y-40513000D02*
X32456040Y-40000000D01*
X26000000Y-43000000D02*
X26000000Y-41250000D01*
X26000000Y-41250000D02*
X26737000Y-40513000D01*
X35000000Y-40000000D02*
X37540000Y-40000000D01*
X32456040Y-40000000D02*
X35000000Y-40000000D01*
X26737000Y-40513000D02*
X31943040Y-40513000D01*
D23*
X20440140Y-52885380D02*
X20440140Y-55539600D01*
X20440140Y-55539600D02*
X20426640Y-55553100D01*
X26000000Y-49112880D02*
X26000000Y-48000000D01*
X23566120Y-52313840D02*
X23566120Y-51546760D01*
X22230080Y-52882800D02*
X22232620Y-52880260D01*
X21142720Y-52882800D02*
X22230080Y-52882800D01*
X20440140Y-52885380D02*
X21140140Y-52885380D01*
X23566120Y-51546760D02*
X26000000Y-49112880D01*
X21140140Y-52885380D02*
X21142720Y-52882800D01*
X22999700Y-52880260D02*
X23566120Y-52313840D01*
X22232620Y-52880260D02*
X22999700Y-52880260D01*
X20440140Y-50985380D02*
X20440140Y-47559860D01*
X19004240Y-50985380D02*
X20440140Y-50985380D01*
X16000000Y-47000000D02*
X16000000Y-48250000D01*
X18018860Y-50000000D02*
X19004240Y-50985380D01*
X16000000Y-48250000D02*
X16000000Y-50000000D01*
X20440140Y-47559860D02*
X21000000Y-47000000D01*
X16000000Y-50000000D02*
X18018860Y-50000000D01*
X22050000Y-71000000D02*
X16750000Y-71000000D01*
X16000000Y-71750000D02*
X16000000Y-73000000D01*
X16000000Y-76000000D02*
X16000000Y-74750000D01*
X16750000Y-71000000D02*
X16000000Y-71750000D01*
X16000000Y-74750000D02*
X16000000Y-73000000D01*
X23009860Y-73009860D02*
X23009860Y-76659860D01*
X23009860Y-76659860D02*
X23300000Y-76950000D01*
X23300000Y-76950000D02*
X24000000Y-76950000D01*
X23000000Y-73000000D02*
X23009860Y-73009860D01*
X16000000Y-43000000D02*
X5200000Y-43000000D01*
X5200000Y-43000000D02*
X4700000Y-42500000D01*
X28000000Y-80852320D02*
X28544520Y-81396840D01*
X28544520Y-81396840D02*
X31536640Y-81396840D01*
X32000000Y-84000000D02*
X32000000Y-89000000D01*
X32000000Y-81860200D02*
X32000000Y-84000000D01*
X31536640Y-81396840D02*
X32000000Y-81860200D01*
X28000000Y-79000000D02*
X28000000Y-80852320D01*
X4700000Y-80000000D02*
X4908440Y-79791560D01*
X4700000Y-77500000D02*
X4700000Y-78772792D01*
X4700000Y-78772792D02*
X4700000Y-80000000D01*
X14500000Y-80000000D02*
X16000000Y-80000000D01*
X4908440Y-79791560D02*
X14291560Y-79791560D01*
X14291560Y-79791560D02*
X14500000Y-80000000D01*
G04 #@! TA.AperFunction,Conductor*
G36*
X39291585Y-59958224D02*
G01*
X39348421Y-60000771D01*
X39373232Y-60067291D01*
X39373553Y-60076283D01*
X39372726Y-92667842D01*
X39372577Y-98564498D01*
X39372544Y-99848503D01*
X39352540Y-99916623D01*
X39298883Y-99963115D01*
X39246544Y-99974500D01*
X158981Y-99974500D01*
X90860Y-99954498D01*
X44367Y-99900842D01*
X32981Y-99848532D01*
X31980Y-95908440D01*
X31533Y-94148597D01*
X992000Y-94148597D01*
X998505Y-94209093D01*
X1049555Y-94345964D01*
X1049555Y-94345965D01*
X1137095Y-94462904D01*
X1254034Y-94550444D01*
X1390906Y-94601494D01*
X1451402Y-94607999D01*
X1451415Y-94608000D01*
X1746000Y-94608000D01*
X2254000Y-94608000D01*
X2548585Y-94608000D01*
X2548597Y-94607999D01*
X2609093Y-94601494D01*
X2745964Y-94550444D01*
X2745965Y-94550444D01*
X2862904Y-94462904D01*
X2950444Y-94345965D01*
X2950444Y-94345964D01*
X3001494Y-94209093D01*
X3007999Y-94148597D01*
X3008000Y-94148585D01*
X3008000Y-93254000D01*
X2254000Y-93254000D01*
X2254000Y-94608000D01*
X1746000Y-94608000D01*
X1746000Y-93254000D01*
X992000Y-93254000D01*
X992000Y-94148597D01*
X31533Y-94148597D01*
X30432Y-89817331D01*
X50417Y-89749208D01*
X104061Y-89702702D01*
X174332Y-89692580D01*
X238920Y-89722057D01*
X245527Y-89728207D01*
X1694226Y-91176905D01*
X1728251Y-91239217D01*
X1723187Y-91310032D01*
X1680640Y-91366868D01*
X1614120Y-91391679D01*
X1605131Y-91392000D01*
X1451402Y-91392000D01*
X1390906Y-91398505D01*
X1254035Y-91449555D01*
X1254034Y-91449555D01*
X1137095Y-91537095D01*
X1049555Y-91654034D01*
X1049555Y-91654035D01*
X998505Y-91790906D01*
X992000Y-91851402D01*
X992000Y-92746000D01*
X1800000Y-92746000D01*
X1800000Y-93439782D01*
X1830448Y-93513291D01*
X1886709Y-93569552D01*
X1960218Y-93600000D01*
X2039782Y-93600000D01*
X2113291Y-93569552D01*
X2169552Y-93513291D01*
X2200000Y-93439782D01*
X2200000Y-92746000D01*
X3008001Y-92746000D01*
X3044905Y-92709096D01*
X3046515Y-92710706D01*
X3081658Y-92680255D01*
X3151932Y-92670151D01*
X3216512Y-92699645D01*
X3223095Y-92705774D01*
X6130427Y-95613106D01*
X6223500Y-95675295D01*
X6223499Y-95675295D01*
X6254653Y-95696111D01*
X6254655Y-95696112D01*
X6254658Y-95696114D01*
X6392696Y-95753291D01*
X6539236Y-95782440D01*
X6539237Y-95782440D01*
X6688647Y-95782440D01*
X11865500Y-95782440D01*
X11933621Y-95802442D01*
X11980114Y-95856098D01*
X11991500Y-95908440D01*
X11991500Y-98148632D01*
X11991501Y-98148652D01*
X11996547Y-98195593D01*
X11983941Y-98265461D01*
X11935561Y-98317423D01*
X11871269Y-98335060D01*
X8533154Y-98335060D01*
X8465033Y-98315058D01*
X8444059Y-98298155D01*
X7153835Y-97007931D01*
X7153833Y-97007929D01*
X7050075Y-96938600D01*
X7050074Y-96938599D01*
X7044928Y-96935161D01*
X7046336Y-96933053D01*
X7003618Y-96891052D01*
X6995639Y-96873776D01*
X6950889Y-96753796D01*
X6950886Y-96753792D01*
X6950886Y-96753791D01*
X6863261Y-96636738D01*
X6746207Y-96549112D01*
X6746202Y-96549110D01*
X6609204Y-96498011D01*
X6609196Y-96498009D01*
X6548649Y-96491500D01*
X6548638Y-96491500D01*
X4251362Y-96491500D01*
X4251350Y-96491500D01*
X4190803Y-96498009D01*
X4190795Y-96498011D01*
X4053797Y-96549110D01*
X4053792Y-96549112D01*
X3936738Y-96636738D01*
X3849112Y-96753792D01*
X3849110Y-96753797D01*
X3798011Y-96890795D01*
X3798009Y-96890803D01*
X3791500Y-96951350D01*
X3791500Y-98048649D01*
X3798009Y-98109196D01*
X3798011Y-98109204D01*
X3849110Y-98246202D01*
X3849112Y-98246207D01*
X3936738Y-98363261D01*
X4053792Y-98450887D01*
X4053794Y-98450888D01*
X4053796Y-98450889D01*
X4073269Y-98458152D01*
X4190795Y-98501988D01*
X4190803Y-98501990D01*
X4251350Y-98508499D01*
X4251355Y-98508499D01*
X4251362Y-98508500D01*
X4251368Y-98508500D01*
X6548632Y-98508500D01*
X6548638Y-98508500D01*
X6548645Y-98508499D01*
X6548649Y-98508499D01*
X6609196Y-98501990D01*
X6609199Y-98501989D01*
X6609201Y-98501989D01*
X6713149Y-98463217D01*
X6783960Y-98458152D01*
X6846270Y-98492174D01*
X7726489Y-99372393D01*
X7814727Y-99460631D01*
X7918485Y-99529960D01*
X8033775Y-99577715D01*
X8156166Y-99602060D01*
X8156167Y-99602060D01*
X15343833Y-99602060D01*
X15343834Y-99602060D01*
X15466225Y-99577715D01*
X15581515Y-99529960D01*
X15685273Y-99460631D01*
X16492071Y-98653833D01*
X16551763Y-98564498D01*
X16606240Y-98518970D01*
X16656528Y-98508500D01*
X17298632Y-98508500D01*
X17298638Y-98508500D01*
X17298645Y-98508499D01*
X17298649Y-98508499D01*
X17359196Y-98501990D01*
X17359199Y-98501989D01*
X17359201Y-98501989D01*
X17496204Y-98450889D01*
X17529821Y-98425724D01*
X17613261Y-98363261D01*
X17700887Y-98246207D01*
X17700887Y-98246206D01*
X17700889Y-98246204D01*
X17751989Y-98109201D01*
X17758500Y-98048638D01*
X17758500Y-96858877D01*
X17759230Y-96856389D01*
X17758599Y-96853874D01*
X17769176Y-96822514D01*
X17778502Y-96790756D01*
X17780462Y-96789057D01*
X17781291Y-96786601D01*
X17807141Y-96765939D01*
X17832158Y-96744263D01*
X17834724Y-96743894D01*
X17836750Y-96742275D01*
X17869665Y-96738870D01*
X17902432Y-96734159D01*
X17905588Y-96735154D01*
X17907370Y-96734970D01*
X17915587Y-96738307D01*
X17941352Y-96746432D01*
X17948152Y-96749870D01*
X17979078Y-96770534D01*
X18029695Y-96791500D01*
X18117115Y-96827711D01*
X18190384Y-96842284D01*
X18190385Y-96842285D01*
X18204960Y-96845184D01*
X18263656Y-96856860D01*
X18263657Y-96856860D01*
X18263661Y-96856860D01*
X31726341Y-96856860D01*
X31726345Y-96856860D01*
X31726346Y-96856860D01*
X31799616Y-96842285D01*
X31872887Y-96827711D01*
X32010924Y-96770534D01*
X32135155Y-96687526D01*
X32589165Y-96233516D01*
X32629557Y-96173065D01*
X32672174Y-96109284D01*
X32707643Y-96023654D01*
X32729351Y-95971247D01*
X32751496Y-95859918D01*
X32784404Y-95797008D01*
X32846099Y-95761877D01*
X32875075Y-95758500D01*
X33048632Y-95758500D01*
X33048638Y-95758500D01*
X33048645Y-95758499D01*
X33048649Y-95758499D01*
X33109196Y-95751990D01*
X33109199Y-95751989D01*
X33109201Y-95751989D01*
X33246204Y-95700889D01*
X33280394Y-95675295D01*
X33363261Y-95613261D01*
X33450887Y-95496207D01*
X33450887Y-95496206D01*
X33450889Y-95496204D01*
X33501989Y-95359201D01*
X33504069Y-95339860D01*
X33508499Y-95298649D01*
X33508500Y-95298632D01*
X33508500Y-92701367D01*
X33508499Y-92701350D01*
X33501990Y-92640803D01*
X33501988Y-92640795D01*
X33450889Y-92503797D01*
X33450887Y-92503792D01*
X33363261Y-92386738D01*
X33246207Y-92299112D01*
X33246202Y-92299110D01*
X33109204Y-92248011D01*
X33109196Y-92248009D01*
X33048649Y-92241500D01*
X33048638Y-92241500D01*
X30951362Y-92241500D01*
X30951350Y-92241500D01*
X30890803Y-92248009D01*
X30890795Y-92248011D01*
X30795853Y-92283424D01*
X30725037Y-92288490D01*
X30662725Y-92254465D01*
X30628700Y-92192153D01*
X30625820Y-92165369D01*
X30625820Y-90834630D01*
X30645822Y-90766509D01*
X30699478Y-90720016D01*
X30769752Y-90709912D01*
X30795845Y-90716572D01*
X30864691Y-90742251D01*
X30890798Y-90751989D01*
X30890803Y-90751990D01*
X30951350Y-90758499D01*
X30951355Y-90758499D01*
X30951362Y-90758500D01*
X30951368Y-90758500D01*
X33048632Y-90758500D01*
X33048638Y-90758500D01*
X33048645Y-90758499D01*
X33048649Y-90758499D01*
X33109196Y-90751990D01*
X33109199Y-90751989D01*
X33109201Y-90751989D01*
X33246204Y-90700889D01*
X33363261Y-90613261D01*
X33402084Y-90561400D01*
X33450887Y-90496207D01*
X33450887Y-90496206D01*
X33450889Y-90496204D01*
X33501989Y-90359201D01*
X33508500Y-90298638D01*
X33508500Y-87701362D01*
X33508499Y-87701350D01*
X33501990Y-87640803D01*
X33501988Y-87640795D01*
X33463945Y-87538800D01*
X33450889Y-87503796D01*
X33450888Y-87503794D01*
X33450887Y-87503792D01*
X33363261Y-87386738D01*
X33246207Y-87299112D01*
X33246202Y-87299110D01*
X33109204Y-87248011D01*
X33109196Y-87248009D01*
X33048649Y-87241500D01*
X33048638Y-87241500D01*
X32759500Y-87241500D01*
X32691379Y-87221498D01*
X32644886Y-87167842D01*
X32633500Y-87115500D01*
X32633500Y-85884500D01*
X32653502Y-85816379D01*
X32707158Y-85769886D01*
X32759500Y-85758500D01*
X33048632Y-85758500D01*
X33048638Y-85758500D01*
X33048645Y-85758499D01*
X33048649Y-85758499D01*
X33109196Y-85751990D01*
X33109199Y-85751989D01*
X33109201Y-85751989D01*
X33246204Y-85700889D01*
X33267717Y-85684785D01*
X33363261Y-85613261D01*
X33450887Y-85496207D01*
X33450887Y-85496206D01*
X33450889Y-85496204D01*
X33501989Y-85359201D01*
X33508500Y-85298638D01*
X33508500Y-82701362D01*
X33508499Y-82701350D01*
X33501990Y-82640803D01*
X33501988Y-82640795D01*
X33450889Y-82503797D01*
X33450887Y-82503792D01*
X33363261Y-82386738D01*
X33246207Y-82299112D01*
X33246202Y-82299110D01*
X33109204Y-82248011D01*
X33109196Y-82248009D01*
X33048649Y-82241500D01*
X33048638Y-82241500D01*
X32759500Y-82241500D01*
X32691379Y-82221498D01*
X32644886Y-82167842D01*
X32633500Y-82115500D01*
X32633500Y-81797807D01*
X32633499Y-81797803D01*
X32609155Y-81675415D01*
X32561400Y-81560125D01*
X32492071Y-81456367D01*
X32403833Y-81368129D01*
X31940473Y-80904769D01*
X31836715Y-80835440D01*
X31836716Y-80835440D01*
X31836714Y-80835439D01*
X31836708Y-80835436D01*
X31823776Y-80830079D01*
X31768497Y-80785528D01*
X31759336Y-80758000D01*
X32254000Y-80758000D01*
X33048585Y-80758000D01*
X33048597Y-80757999D01*
X33109093Y-80751494D01*
X33245964Y-80700444D01*
X33245965Y-80700444D01*
X33362904Y-80612904D01*
X33450444Y-80495965D01*
X33450444Y-80495964D01*
X33501494Y-80359093D01*
X33507999Y-80298597D01*
X33508000Y-80298585D01*
X33508000Y-79254000D01*
X32254000Y-79254000D01*
X32254000Y-80758000D01*
X31759336Y-80758000D01*
X31746080Y-80718164D01*
X31746000Y-80713673D01*
X31746000Y-79254000D01*
X30492000Y-79254000D01*
X30492000Y-80298597D01*
X30498505Y-80359093D01*
X30549554Y-80495963D01*
X30598863Y-80561830D01*
X30623674Y-80628350D01*
X30608583Y-80697725D01*
X30558381Y-80747927D01*
X30497995Y-80763340D01*
X29502630Y-80763340D01*
X29434509Y-80743338D01*
X29388016Y-80689682D01*
X29377912Y-80619408D01*
X29401762Y-80561831D01*
X29450887Y-80496207D01*
X29450887Y-80496206D01*
X29450889Y-80496204D01*
X29501989Y-80359201D01*
X29505148Y-80329824D01*
X29508499Y-80298649D01*
X29508500Y-80298632D01*
X29508500Y-77701402D01*
X30492000Y-77701402D01*
X30492000Y-78746000D01*
X31746000Y-78746000D01*
X32254000Y-78746000D01*
X33508000Y-78746000D01*
X33508000Y-77701414D01*
X33507999Y-77701402D01*
X33501494Y-77640906D01*
X33450444Y-77504035D01*
X33450444Y-77504034D01*
X33362904Y-77387095D01*
X33245965Y-77299555D01*
X33109093Y-77248505D01*
X33048597Y-77242000D01*
X32254000Y-77242000D01*
X32254000Y-78746000D01*
X31746000Y-78746000D01*
X31746000Y-77242000D01*
X30951402Y-77242000D01*
X30890906Y-77248505D01*
X30754035Y-77299555D01*
X30754034Y-77299555D01*
X30637095Y-77387095D01*
X30549555Y-77504034D01*
X30549555Y-77504035D01*
X30498505Y-77640906D01*
X30492000Y-77701402D01*
X29508500Y-77701402D01*
X29508500Y-77701367D01*
X29508499Y-77701350D01*
X29501990Y-77640803D01*
X29501988Y-77640795D01*
X29466069Y-77544495D01*
X29450889Y-77503796D01*
X29450888Y-77503794D01*
X29450887Y-77503792D01*
X29363261Y-77386738D01*
X29246207Y-77299112D01*
X29246202Y-77299110D01*
X29109204Y-77248011D01*
X29109196Y-77248009D01*
X29048649Y-77241500D01*
X29048638Y-77241500D01*
X27793794Y-77241500D01*
X27725673Y-77221498D01*
X27679180Y-77167842D01*
X27669076Y-77097568D01*
X27698570Y-77032988D01*
X27704699Y-77026405D01*
X28061450Y-76669654D01*
X28492071Y-76239033D01*
X28561400Y-76135275D01*
X28609155Y-76019985D01*
X28633500Y-75897594D01*
X28633500Y-75884500D01*
X28653502Y-75816379D01*
X28707158Y-75769886D01*
X28759500Y-75758500D01*
X29048632Y-75758500D01*
X29048638Y-75758500D01*
X29048645Y-75758499D01*
X29048649Y-75758499D01*
X29109196Y-75751990D01*
X29109199Y-75751989D01*
X29109201Y-75751989D01*
X29246204Y-75700889D01*
X29246799Y-75700444D01*
X29363261Y-75613261D01*
X29450887Y-75496207D01*
X29450887Y-75496206D01*
X29450889Y-75496204D01*
X29501989Y-75359201D01*
X29502090Y-75358267D01*
X29508499Y-75298649D01*
X29508500Y-75298632D01*
X29508500Y-75298597D01*
X30492000Y-75298597D01*
X30498505Y-75359093D01*
X30549555Y-75495964D01*
X30549555Y-75495965D01*
X30637095Y-75612904D01*
X30754034Y-75700444D01*
X30890906Y-75751494D01*
X30951402Y-75757999D01*
X30951415Y-75758000D01*
X31746000Y-75758000D01*
X32254000Y-75758000D01*
X33048585Y-75758000D01*
X33048597Y-75757999D01*
X33109093Y-75751494D01*
X33245964Y-75700444D01*
X33245965Y-75700444D01*
X33362904Y-75612904D01*
X33450444Y-75495965D01*
X33450444Y-75495964D01*
X33501494Y-75359093D01*
X33507999Y-75298597D01*
X33508000Y-75298585D01*
X33508000Y-74254000D01*
X32254000Y-74254000D01*
X32254000Y-75758000D01*
X31746000Y-75758000D01*
X31746000Y-74254000D01*
X30492000Y-74254000D01*
X30492000Y-75298597D01*
X29508500Y-75298597D01*
X29508500Y-72701402D01*
X30492000Y-72701402D01*
X30492000Y-73746000D01*
X31746000Y-73746000D01*
X32254000Y-73746000D01*
X33508000Y-73746000D01*
X33508000Y-72701414D01*
X33507999Y-72701402D01*
X33501494Y-72640906D01*
X33450444Y-72504035D01*
X33450444Y-72504034D01*
X33362904Y-72387095D01*
X33245965Y-72299555D01*
X33109093Y-72248505D01*
X33048597Y-72242000D01*
X32254000Y-72242000D01*
X32254000Y-73746000D01*
X31746000Y-73746000D01*
X31746000Y-72242000D01*
X30951402Y-72242000D01*
X30890906Y-72248505D01*
X30754035Y-72299555D01*
X30754034Y-72299555D01*
X30637095Y-72387095D01*
X30549555Y-72504034D01*
X30549555Y-72504035D01*
X30498505Y-72640906D01*
X30492000Y-72701402D01*
X29508500Y-72701402D01*
X29508500Y-72701367D01*
X29508499Y-72701350D01*
X29501990Y-72640803D01*
X29501988Y-72640795D01*
X29450978Y-72504035D01*
X29450889Y-72503796D01*
X29450888Y-72503794D01*
X29450887Y-72503792D01*
X29363261Y-72386738D01*
X29246207Y-72299112D01*
X29246202Y-72299110D01*
X29109204Y-72248011D01*
X29109196Y-72248009D01*
X29048649Y-72241500D01*
X29048638Y-72241500D01*
X28759500Y-72241500D01*
X28691379Y-72221498D01*
X28644886Y-72167842D01*
X28633500Y-72115500D01*
X28633500Y-70884500D01*
X28653502Y-70816379D01*
X28707158Y-70769886D01*
X28759500Y-70758500D01*
X29048632Y-70758500D01*
X29048638Y-70758500D01*
X29048645Y-70758499D01*
X29048649Y-70758499D01*
X29109196Y-70751990D01*
X29109199Y-70751989D01*
X29109201Y-70751989D01*
X29246204Y-70700889D01*
X29246799Y-70700444D01*
X29363261Y-70613261D01*
X29450887Y-70496207D01*
X29450887Y-70496206D01*
X29450889Y-70496204D01*
X29501989Y-70359201D01*
X29503080Y-70349059D01*
X29508499Y-70298649D01*
X29508500Y-70298632D01*
X29508500Y-70298597D01*
X30492000Y-70298597D01*
X30498505Y-70359093D01*
X30549555Y-70495964D01*
X30549555Y-70495965D01*
X30637095Y-70612904D01*
X30754034Y-70700444D01*
X30890906Y-70751494D01*
X30951402Y-70757999D01*
X30951415Y-70758000D01*
X31746000Y-70758000D01*
X32254000Y-70758000D01*
X33048585Y-70758000D01*
X33048597Y-70757999D01*
X33109093Y-70751494D01*
X33245964Y-70700444D01*
X33245965Y-70700444D01*
X33362904Y-70612904D01*
X33450444Y-70495965D01*
X33450444Y-70495964D01*
X33501494Y-70359093D01*
X33507999Y-70298597D01*
X33508000Y-70298585D01*
X33508000Y-69254000D01*
X32254000Y-69254000D01*
X32254000Y-70758000D01*
X31746000Y-70758000D01*
X31746000Y-69254000D01*
X30492000Y-69254000D01*
X30492000Y-70298597D01*
X29508500Y-70298597D01*
X29508500Y-69656527D01*
X29528502Y-69588406D01*
X29564495Y-69551764D01*
X29653833Y-69492071D01*
X30362999Y-68782905D01*
X30425311Y-68748879D01*
X30452094Y-68746000D01*
X31746000Y-68746000D01*
X32254000Y-68746000D01*
X33508000Y-68746000D01*
X33508000Y-67701414D01*
X33507999Y-67701402D01*
X33501494Y-67640906D01*
X33450444Y-67504035D01*
X33450444Y-67504034D01*
X33362904Y-67387095D01*
X33245965Y-67299555D01*
X33109093Y-67248505D01*
X33048597Y-67242000D01*
X32254000Y-67242000D01*
X32254000Y-68746000D01*
X31746000Y-68746000D01*
X31746000Y-67242000D01*
X30951402Y-67242000D01*
X30890906Y-67248505D01*
X30752672Y-67300064D01*
X30681857Y-67305128D01*
X30619545Y-67271103D01*
X30585519Y-67208791D01*
X30582640Y-67182008D01*
X30582640Y-65818525D01*
X30602642Y-65750404D01*
X30656298Y-65703911D01*
X30726572Y-65693807D01*
X30752673Y-65700470D01*
X30890795Y-65751988D01*
X30890803Y-65751990D01*
X30951350Y-65758499D01*
X30951355Y-65758499D01*
X30951362Y-65758500D01*
X30951368Y-65758500D01*
X33048632Y-65758500D01*
X33048638Y-65758500D01*
X33048645Y-65758499D01*
X33048649Y-65758499D01*
X33109196Y-65751990D01*
X33109199Y-65751989D01*
X33109201Y-65751989D01*
X33246204Y-65700889D01*
X33255665Y-65693807D01*
X33363261Y-65613261D01*
X33450887Y-65496207D01*
X33450887Y-65496206D01*
X33450889Y-65496204D01*
X33501989Y-65359201D01*
X33503631Y-65343933D01*
X33508499Y-65298649D01*
X33508500Y-65298632D01*
X33508500Y-64759500D01*
X33528502Y-64691379D01*
X33582158Y-64644886D01*
X33634500Y-64633500D01*
X34312133Y-64633500D01*
X34312134Y-64633500D01*
X34434525Y-64609155D01*
X34549815Y-64561400D01*
X34653573Y-64492071D01*
X39158462Y-59987182D01*
X39220770Y-59953159D01*
X39291585Y-59958224D01*
G37*
G04 #@! TD.AperFunction*
G04 #@! TA.AperFunction,Conductor*
G36*
X3451214Y-40760066D02*
G01*
X3456663Y-40758962D01*
X3484913Y-40769960D01*
X3514002Y-40778502D01*
X3519017Y-40783238D01*
X3522822Y-40784720D01*
X3547817Y-40810439D01*
X3625658Y-40917578D01*
X3782417Y-41074337D01*
X3782420Y-41074339D01*
X3782424Y-41074343D01*
X3883892Y-41148064D01*
X3927245Y-41204287D01*
X3933320Y-41275023D01*
X3900188Y-41337815D01*
X3883892Y-41351936D01*
X3782417Y-41425662D01*
X3625658Y-41582421D01*
X3495345Y-41761781D01*
X3394693Y-41959322D01*
X3394690Y-41959328D01*
X3326183Y-42170170D01*
X3326182Y-42170175D01*
X3326182Y-42170176D01*
X3291500Y-42389149D01*
X3291500Y-42610851D01*
X3320508Y-42794000D01*
X3326183Y-42829829D01*
X3394472Y-43040000D01*
X3394692Y-43040676D01*
X3485456Y-43218810D01*
X3495345Y-43238218D01*
X3625658Y-43417578D01*
X3782418Y-43574338D01*
X3782421Y-43574340D01*
X3782424Y-43574343D01*
X3884316Y-43648372D01*
X3927670Y-43704594D01*
X3933745Y-43775331D01*
X3900613Y-43838122D01*
X3900221Y-43838461D01*
X3900035Y-43840825D01*
X4575052Y-44515842D01*
X4507007Y-44534075D01*
X4392993Y-44599901D01*
X4299901Y-44692993D01*
X4234075Y-44807007D01*
X4215842Y-44875052D01*
X3540825Y-44200035D01*
X3540823Y-44200035D01*
X3495772Y-44262043D01*
X3395156Y-44459514D01*
X3395155Y-44459516D01*
X3326670Y-44670289D01*
X3292000Y-44889191D01*
X3292000Y-45110808D01*
X3326670Y-45329710D01*
X3395155Y-45540483D01*
X3395156Y-45540485D01*
X3495770Y-45737952D01*
X3540824Y-45799963D01*
X4215841Y-45124946D01*
X4234075Y-45192993D01*
X4299901Y-45307007D01*
X4392993Y-45400099D01*
X4507007Y-45465925D01*
X4575051Y-45484157D01*
X3900035Y-46159173D01*
X3900035Y-46159174D01*
X3962047Y-46204229D01*
X4159514Y-46304843D01*
X4159516Y-46304844D01*
X4370289Y-46373329D01*
X4589191Y-46408000D01*
X4810809Y-46408000D01*
X5029710Y-46373329D01*
X5226815Y-46309285D01*
X5297783Y-46307257D01*
X5358581Y-46343919D01*
X5389906Y-46407631D01*
X5384682Y-46470733D01*
X5373113Y-46503796D01*
X5297015Y-46721275D01*
X5297012Y-46721283D01*
X5226819Y-47028814D01*
X5191500Y-47342276D01*
X5191500Y-47657723D01*
X5226819Y-47971185D01*
X5260786Y-48120000D01*
X5297012Y-48278718D01*
X5297014Y-48278724D01*
X5297013Y-48278724D01*
X5401189Y-48576442D01*
X5401200Y-48576469D01*
X5538063Y-48860668D01*
X5705890Y-49127762D01*
X5705894Y-49127768D01*
X5902563Y-49374381D01*
X5902572Y-49374391D01*
X6125608Y-49597427D01*
X6125618Y-49597436D01*
X6372231Y-49794105D01*
X6372238Y-49794109D01*
X6372241Y-49794112D01*
X6448270Y-49841884D01*
X6639331Y-49961936D01*
X6639334Y-49961937D01*
X6639335Y-49961938D01*
X6923540Y-50098804D01*
X6923556Y-50098809D01*
X6923557Y-50098810D01*
X7221275Y-50202986D01*
X7221278Y-50202986D01*
X7221282Y-50202988D01*
X7528818Y-50273181D01*
X7751088Y-50298225D01*
X7842276Y-50308500D01*
X7842278Y-50308500D01*
X8157724Y-50308500D01*
X8237332Y-50299529D01*
X8471182Y-50273181D01*
X8778718Y-50202988D01*
X9076460Y-50098804D01*
X9360665Y-49961938D01*
X9627759Y-49794112D01*
X9874383Y-49597435D01*
X10097435Y-49374383D01*
X10294112Y-49127759D01*
X10461938Y-48860665D01*
X10598804Y-48576460D01*
X10684432Y-48331748D01*
X10702986Y-48278724D01*
X10702986Y-48278723D01*
X10702988Y-48278718D01*
X10773181Y-47971182D01*
X10808500Y-47657722D01*
X10808500Y-47342278D01*
X10773181Y-47028818D01*
X10702988Y-46721282D01*
X10696019Y-46701367D01*
X10598810Y-46423557D01*
X10598809Y-46423556D01*
X10598804Y-46423540D01*
X10461938Y-46139335D01*
X10461937Y-46139334D01*
X10461936Y-46139331D01*
X10353301Y-45966440D01*
X10294112Y-45872241D01*
X10294109Y-45872237D01*
X10294105Y-45872231D01*
X10097436Y-45625618D01*
X10097427Y-45625608D01*
X9874391Y-45402572D01*
X9874381Y-45402563D01*
X9627768Y-45205894D01*
X9627762Y-45205890D01*
X9360668Y-45038063D01*
X9076469Y-44901200D01*
X9076464Y-44901198D01*
X9076460Y-44901196D01*
X9076454Y-44901193D01*
X9076442Y-44901189D01*
X8778724Y-44797013D01*
X8471185Y-44726819D01*
X8157724Y-44691500D01*
X8157722Y-44691500D01*
X7842278Y-44691500D01*
X7842276Y-44691500D01*
X7528814Y-44726819D01*
X7221275Y-44797013D01*
X6923557Y-44901189D01*
X6923530Y-44901200D01*
X6639331Y-45038063D01*
X6372237Y-45205890D01*
X6372233Y-45205893D01*
X6306351Y-45258432D01*
X6240621Y-45285266D01*
X6170817Y-45272304D01*
X6119103Y-45223661D01*
X6101897Y-45154781D01*
X6103343Y-45140209D01*
X6108000Y-45110807D01*
X6108000Y-44889191D01*
X6073329Y-44670289D01*
X6004844Y-44459516D01*
X6004843Y-44459514D01*
X5904229Y-44262047D01*
X5859174Y-44200035D01*
X5859173Y-44200035D01*
X5184157Y-44875051D01*
X5165925Y-44807007D01*
X5100099Y-44692993D01*
X5007007Y-44599901D01*
X4892993Y-44534075D01*
X4824946Y-44515841D01*
X5499963Y-43840824D01*
X5498545Y-43822806D01*
X5484979Y-43805214D01*
X5478903Y-43734478D01*
X5512035Y-43671686D01*
X5573855Y-43636775D01*
X5602394Y-43633500D01*
X14115500Y-43633500D01*
X14124325Y-43636091D01*
X14133432Y-43634782D01*
X14157857Y-43645937D01*
X14183621Y-43653502D01*
X14189645Y-43660455D01*
X14198012Y-43664276D01*
X14212526Y-43686861D01*
X14230114Y-43707158D01*
X14232438Y-43717844D01*
X14236396Y-43724002D01*
X14241500Y-43759500D01*
X14241500Y-43836243D01*
X14221498Y-43904364D01*
X14167842Y-43950857D01*
X14163738Y-43952643D01*
X14110905Y-43974528D01*
X14110903Y-43974529D01*
X14007151Y-44043854D01*
X14007144Y-44043859D01*
X11658429Y-46392574D01*
X11658424Y-46392581D01*
X11589099Y-46496333D01*
X11541344Y-46611622D01*
X11516998Y-46734013D01*
X11516998Y-51897122D01*
X11496996Y-51965243D01*
X11443340Y-52011736D01*
X11373066Y-52021840D01*
X11308486Y-51992346D01*
X11290130Y-51972631D01*
X11263261Y-51936738D01*
X11146207Y-51849112D01*
X11146202Y-51849110D01*
X11009204Y-51798011D01*
X11009196Y-51798009D01*
X10948649Y-51791500D01*
X10948638Y-51791500D01*
X8651362Y-51791500D01*
X8651350Y-51791500D01*
X8590803Y-51798009D01*
X8590795Y-51798011D01*
X8453797Y-51849110D01*
X8453792Y-51849112D01*
X8336738Y-51936738D01*
X8249112Y-52053792D01*
X8249110Y-52053797D01*
X8198011Y-52190795D01*
X8198009Y-52190803D01*
X8191500Y-52251350D01*
X8191500Y-53348649D01*
X8198009Y-53409196D01*
X8198011Y-53409204D01*
X8249110Y-53546202D01*
X8249112Y-53546207D01*
X8336738Y-53663261D01*
X8453792Y-53750887D01*
X8453794Y-53750888D01*
X8453796Y-53750889D01*
X8512875Y-53772924D01*
X8590795Y-53801988D01*
X8590803Y-53801990D01*
X8651350Y-53808499D01*
X8651355Y-53808499D01*
X8651362Y-53808500D01*
X8651368Y-53808500D01*
X10948632Y-53808500D01*
X10948638Y-53808500D01*
X10948645Y-53808499D01*
X10948649Y-53808499D01*
X11009196Y-53801990D01*
X11009199Y-53801989D01*
X11009201Y-53801989D01*
X11146204Y-53750889D01*
X11263261Y-53663261D01*
X11290130Y-53627368D01*
X11346965Y-53584822D01*
X11417780Y-53579756D01*
X11480093Y-53613781D01*
X11514118Y-53676093D01*
X11516998Y-53702877D01*
X11516998Y-56219047D01*
X11496996Y-56287168D01*
X11480093Y-56308142D01*
X7221781Y-60566455D01*
X7159469Y-60600481D01*
X7132686Y-60603360D01*
X4298783Y-60603360D01*
X4225748Y-60617888D01*
X4176395Y-60627705D01*
X4176393Y-60627705D01*
X4176392Y-60627706D01*
X4061103Y-60675461D01*
X3957351Y-60744786D01*
X3957344Y-60744791D01*
X2881051Y-61821084D01*
X2881049Y-61821087D01*
X2811720Y-61924845D01*
X2763965Y-62040135D01*
X2761843Y-62050804D01*
X2739620Y-62162523D01*
X2739620Y-62162526D01*
X2739620Y-75423728D01*
X2739620Y-75548516D01*
X2763965Y-75670907D01*
X2811720Y-75786197D01*
X2881049Y-75889955D01*
X2881051Y-75889957D01*
X3527621Y-76536527D01*
X3561647Y-76598839D01*
X3556582Y-76669654D01*
X3540463Y-76699682D01*
X3495344Y-76761782D01*
X3394693Y-76959322D01*
X3394690Y-76959328D01*
X3326183Y-77170170D01*
X3326182Y-77170175D01*
X3326182Y-77170176D01*
X3291500Y-77389149D01*
X3291500Y-77610851D01*
X3321599Y-77800887D01*
X3326183Y-77829829D01*
X3386444Y-78015292D01*
X3394692Y-78040676D01*
X3492389Y-78232417D01*
X3495345Y-78238218D01*
X3625658Y-78417578D01*
X3782417Y-78574337D01*
X3782420Y-78574339D01*
X3782424Y-78574343D01*
X3883892Y-78648064D01*
X3927245Y-78704287D01*
X3933320Y-78775023D01*
X3900188Y-78837815D01*
X3883892Y-78851936D01*
X3782417Y-78925662D01*
X3625658Y-79082421D01*
X3495345Y-79261781D01*
X3394693Y-79459322D01*
X3394690Y-79459328D01*
X3326183Y-79670170D01*
X3326182Y-79670175D01*
X3326182Y-79670176D01*
X3291500Y-79889149D01*
X3291500Y-80110851D01*
X3326182Y-80329824D01*
X3326183Y-80329829D01*
X3394690Y-80540671D01*
X3394692Y-80540676D01*
X3485127Y-80718164D01*
X3495345Y-80738218D01*
X3625658Y-80917578D01*
X3782421Y-81074341D01*
X3782424Y-81074343D01*
X3961785Y-81204657D01*
X4159324Y-81305308D01*
X4370176Y-81373818D01*
X4589149Y-81408500D01*
X4589152Y-81408500D01*
X4810848Y-81408500D01*
X4810851Y-81408500D01*
X5029824Y-81373818D01*
X5226611Y-81309877D01*
X5297576Y-81307850D01*
X5358374Y-81344513D01*
X5389699Y-81408225D01*
X5384474Y-81471326D01*
X5297013Y-81721275D01*
X5226819Y-82028814D01*
X5191500Y-82342276D01*
X5191500Y-82657723D01*
X5226819Y-82971185D01*
X5253771Y-83089266D01*
X5297012Y-83278718D01*
X5297014Y-83278724D01*
X5297013Y-83278724D01*
X5401189Y-83576442D01*
X5401200Y-83576469D01*
X5538063Y-83860668D01*
X5705890Y-84127762D01*
X5705894Y-84127768D01*
X5902563Y-84374381D01*
X5902572Y-84374391D01*
X6125608Y-84597427D01*
X6125618Y-84597436D01*
X6372231Y-84794105D01*
X6372238Y-84794109D01*
X6372241Y-84794112D01*
X6481268Y-84862618D01*
X6639331Y-84961936D01*
X6639334Y-84961937D01*
X6639335Y-84961938D01*
X6923540Y-85098804D01*
X6923556Y-85098809D01*
X6923557Y-85098810D01*
X7221275Y-85202986D01*
X7221278Y-85202986D01*
X7221282Y-85202988D01*
X7528818Y-85273181D01*
X7751088Y-85298225D01*
X7842276Y-85308500D01*
X7842278Y-85308500D01*
X8157724Y-85308500D01*
X8245248Y-85298638D01*
X8471182Y-85273181D01*
X8778718Y-85202988D01*
X9076460Y-85098804D01*
X9360665Y-84961938D01*
X9627759Y-84794112D01*
X9874383Y-84597435D01*
X10097435Y-84374383D01*
X10294112Y-84127759D01*
X10461938Y-83860665D01*
X10598804Y-83576460D01*
X10702988Y-83278718D01*
X10773181Y-82971182D01*
X10808500Y-82657722D01*
X10808500Y-82342278D01*
X10806247Y-82322286D01*
X10797145Y-82241500D01*
X10773181Y-82028818D01*
X10702988Y-81721282D01*
X10686937Y-81675412D01*
X10598810Y-81423557D01*
X10598809Y-81423556D01*
X10598804Y-81423540D01*
X10461938Y-81139335D01*
X10461937Y-81139334D01*
X10461936Y-81139331D01*
X10322598Y-80917576D01*
X10294112Y-80872241D01*
X10100626Y-80629619D01*
X10073793Y-80563890D01*
X10086755Y-80494087D01*
X10135397Y-80442372D01*
X10199138Y-80425060D01*
X13976965Y-80425060D01*
X13999030Y-80431538D01*
X14021952Y-80433365D01*
X14035775Y-80442328D01*
X14045086Y-80445062D01*
X14053289Y-80450807D01*
X14060046Y-80455951D01*
X14096167Y-80492072D01*
X14188743Y-80553929D01*
X14191824Y-80556275D01*
X14210660Y-80581866D01*
X14231029Y-80606239D01*
X14231987Y-80610842D01*
X14233909Y-80613453D01*
X14234511Y-80622965D01*
X14241500Y-80656528D01*
X14241500Y-81048649D01*
X14248009Y-81109196D01*
X14248011Y-81109204D01*
X14299110Y-81246202D01*
X14299112Y-81246207D01*
X14386738Y-81363261D01*
X14503792Y-81450887D01*
X14503794Y-81450888D01*
X14503796Y-81450889D01*
X14518494Y-81456371D01*
X14640795Y-81501988D01*
X14640803Y-81501990D01*
X14701350Y-81508499D01*
X14701355Y-81508499D01*
X14701362Y-81508500D01*
X14701368Y-81508500D01*
X17298632Y-81508500D01*
X17298638Y-81508500D01*
X17298645Y-81508499D01*
X17298649Y-81508499D01*
X17359196Y-81501990D01*
X17359199Y-81501989D01*
X17359201Y-81501989D01*
X17496204Y-81450889D01*
X17613261Y-81363261D01*
X17654741Y-81307850D01*
X17700887Y-81246207D01*
X17700887Y-81246206D01*
X17700889Y-81246204D01*
X17751989Y-81109201D01*
X17758500Y-81048638D01*
X17758500Y-79261170D01*
X17778502Y-79193049D01*
X17832158Y-79146556D01*
X17884500Y-79135170D01*
X18903476Y-79135170D01*
X18971597Y-79155172D01*
X18992571Y-79172075D01*
X19477925Y-79657429D01*
X19511951Y-79719741D01*
X19514830Y-79746524D01*
X19514830Y-83037075D01*
X19494828Y-83105196D01*
X19477925Y-83126170D01*
X17867674Y-84736420D01*
X17805362Y-84770446D01*
X17734546Y-84765381D01*
X17677711Y-84722834D01*
X17613261Y-84636738D01*
X17496207Y-84549112D01*
X17496202Y-84549110D01*
X17359204Y-84498011D01*
X17359196Y-84498009D01*
X17298649Y-84491500D01*
X17298638Y-84491500D01*
X14701362Y-84491500D01*
X14701350Y-84491500D01*
X14640803Y-84498009D01*
X14640795Y-84498011D01*
X14503797Y-84549110D01*
X14503792Y-84549112D01*
X14386738Y-84636738D01*
X14299112Y-84753792D01*
X14299110Y-84753797D01*
X14248011Y-84890795D01*
X14248009Y-84890803D01*
X14241500Y-84951350D01*
X14241500Y-87048649D01*
X14248009Y-87109196D01*
X14248011Y-87109204D01*
X14299110Y-87246202D01*
X14299112Y-87246207D01*
X14386738Y-87363261D01*
X14503792Y-87450887D01*
X14503794Y-87450888D01*
X14503796Y-87450889D01*
X14562875Y-87472924D01*
X14640795Y-87501988D01*
X14640803Y-87501990D01*
X14701350Y-87508499D01*
X14701355Y-87508499D01*
X14701362Y-87508500D01*
X14701368Y-87508500D01*
X17298632Y-87508500D01*
X17298638Y-87508500D01*
X17298645Y-87508499D01*
X17298649Y-87508499D01*
X17359196Y-87501990D01*
X17359199Y-87501989D01*
X17359201Y-87501989D01*
X17496204Y-87450889D01*
X17581900Y-87386738D01*
X17613261Y-87363261D01*
X17700887Y-87246207D01*
X17700887Y-87246206D01*
X17700889Y-87246204D01*
X17751989Y-87109201D01*
X17754192Y-87088717D01*
X17758499Y-87048649D01*
X17758500Y-87048632D01*
X17758500Y-86656527D01*
X17778502Y-86588406D01*
X17814495Y-86551764D01*
X17903833Y-86492071D01*
X20640401Y-83755503D01*
X20709730Y-83651745D01*
X20757485Y-83536455D01*
X20781830Y-83414064D01*
X20781830Y-83289276D01*
X20781830Y-79369536D01*
X20757485Y-79247145D01*
X20709730Y-79131855D01*
X20640401Y-79028097D01*
X20552163Y-78939859D01*
X19977848Y-78365544D01*
X19943822Y-78303232D01*
X19948887Y-78232417D01*
X19977844Y-78187359D01*
X21151405Y-77013797D01*
X21213717Y-76979772D01*
X21284533Y-76984837D01*
X21341368Y-77027384D01*
X21366179Y-77093904D01*
X21366500Y-77102893D01*
X21366500Y-85185405D01*
X21346498Y-85253526D01*
X21329595Y-85274500D01*
X17867674Y-88736420D01*
X17805362Y-88770446D01*
X17734546Y-88765381D01*
X17677711Y-88722834D01*
X17613261Y-88636738D01*
X17496207Y-88549112D01*
X17496202Y-88549110D01*
X17359204Y-88498011D01*
X17359196Y-88498009D01*
X17298649Y-88491500D01*
X17298638Y-88491500D01*
X14701362Y-88491500D01*
X14701350Y-88491500D01*
X14640803Y-88498009D01*
X14640795Y-88498011D01*
X14503797Y-88549110D01*
X14503792Y-88549112D01*
X14386738Y-88636738D01*
X14299112Y-88753792D01*
X14299110Y-88753797D01*
X14248011Y-88890795D01*
X14248009Y-88890803D01*
X14241500Y-88951350D01*
X14241500Y-91048649D01*
X14248009Y-91109196D01*
X14248011Y-91109204D01*
X14299110Y-91246202D01*
X14299112Y-91246207D01*
X14386737Y-91363259D01*
X14386738Y-91363259D01*
X14386739Y-91363261D01*
X14424701Y-91391679D01*
X14434657Y-91399132D01*
X14477203Y-91455968D01*
X14482267Y-91526784D01*
X14448242Y-91589096D01*
X14434657Y-91600868D01*
X14386737Y-91636740D01*
X14299112Y-91753792D01*
X14299110Y-91753797D01*
X14248011Y-91890795D01*
X14248009Y-91890803D01*
X14241500Y-91951350D01*
X14241500Y-94048649D01*
X14248009Y-94109196D01*
X14248309Y-94110462D01*
X14248254Y-94111474D01*
X14248853Y-94117039D01*
X14247951Y-94117135D01*
X14244509Y-94181357D01*
X14202984Y-94238944D01*
X14136918Y-94264938D01*
X14125686Y-94265440D01*
X6980313Y-94265440D01*
X6912192Y-94245438D01*
X6891218Y-94228535D01*
X2614033Y-89951350D01*
X6791500Y-89951350D01*
X6791500Y-91048649D01*
X6798009Y-91109196D01*
X6798011Y-91109204D01*
X6849110Y-91246202D01*
X6849112Y-91246207D01*
X6936738Y-91363261D01*
X7053792Y-91450887D01*
X7053794Y-91450888D01*
X7053796Y-91450889D01*
X7112875Y-91472924D01*
X7190795Y-91501988D01*
X7190803Y-91501990D01*
X7251350Y-91508499D01*
X7251355Y-91508499D01*
X7251362Y-91508500D01*
X7251368Y-91508500D01*
X9548632Y-91508500D01*
X9548638Y-91508500D01*
X9548645Y-91508499D01*
X9548649Y-91508499D01*
X9609196Y-91501990D01*
X9609199Y-91501989D01*
X9609201Y-91501989D01*
X9746204Y-91450889D01*
X9863261Y-91363261D01*
X9950889Y-91246204D01*
X10001989Y-91109201D01*
X10008500Y-91048638D01*
X10008500Y-89951362D01*
X10008499Y-89951350D01*
X10001990Y-89890803D01*
X10001988Y-89890795D01*
X9950889Y-89753797D01*
X9950887Y-89753792D01*
X9863261Y-89636738D01*
X9746207Y-89549112D01*
X9746202Y-89549110D01*
X9609204Y-89498011D01*
X9609196Y-89498009D01*
X9548649Y-89491500D01*
X9548638Y-89491500D01*
X7251362Y-89491500D01*
X7251350Y-89491500D01*
X7190803Y-89498009D01*
X7190795Y-89498011D01*
X7053797Y-89549110D01*
X7053792Y-89549112D01*
X6936738Y-89636738D01*
X6849112Y-89753792D01*
X6849110Y-89753797D01*
X6798011Y-89890795D01*
X6798009Y-89890803D01*
X6791500Y-89951350D01*
X2614033Y-89951350D01*
X1458345Y-88795662D01*
X1424319Y-88733350D01*
X1421440Y-88706567D01*
X1421440Y-87251350D01*
X8191500Y-87251350D01*
X8191500Y-88348649D01*
X8198009Y-88409196D01*
X8198011Y-88409204D01*
X8249110Y-88546202D01*
X8249112Y-88546207D01*
X8336738Y-88663261D01*
X8453792Y-88750887D01*
X8453794Y-88750888D01*
X8453796Y-88750889D01*
X8506230Y-88770446D01*
X8590795Y-88801988D01*
X8590803Y-88801990D01*
X8651350Y-88808499D01*
X8651355Y-88808499D01*
X8651362Y-88808500D01*
X8651368Y-88808500D01*
X10948632Y-88808500D01*
X10948638Y-88808500D01*
X10948645Y-88808499D01*
X10948649Y-88808499D01*
X11009196Y-88801990D01*
X11009199Y-88801989D01*
X11009201Y-88801989D01*
X11146204Y-88750889D01*
X11165533Y-88736420D01*
X11263261Y-88663261D01*
X11350887Y-88546207D01*
X11350887Y-88546206D01*
X11350889Y-88546204D01*
X11401989Y-88409201D01*
X11408500Y-88348638D01*
X11408500Y-87251362D01*
X11407946Y-87246207D01*
X11401990Y-87190803D01*
X11401988Y-87190795D01*
X11350889Y-87053797D01*
X11350887Y-87053792D01*
X11263261Y-86936738D01*
X11146207Y-86849112D01*
X11146202Y-86849110D01*
X11009204Y-86798011D01*
X11009196Y-86798009D01*
X10948649Y-86791500D01*
X10948638Y-86791500D01*
X8651362Y-86791500D01*
X8651350Y-86791500D01*
X8590803Y-86798009D01*
X8590795Y-86798011D01*
X8453797Y-86849110D01*
X8453792Y-86849112D01*
X8336738Y-86936738D01*
X8249112Y-87053792D01*
X8249110Y-87053797D01*
X8198011Y-87190795D01*
X8198009Y-87190803D01*
X8191500Y-87251350D01*
X1421440Y-87251350D01*
X1421440Y-59734000D01*
X1441442Y-59665879D01*
X1495098Y-59619386D01*
X1547440Y-59608000D01*
X1746000Y-59608000D01*
X2254000Y-59608000D01*
X2548585Y-59608000D01*
X2548597Y-59607999D01*
X2609093Y-59601494D01*
X2745964Y-59550444D01*
X2745965Y-59550444D01*
X2862904Y-59462904D01*
X2950444Y-59345965D01*
X2950444Y-59345964D01*
X3001494Y-59209093D01*
X3007999Y-59148597D01*
X3008000Y-59148585D01*
X3008000Y-58254000D01*
X2254000Y-58254000D01*
X2254000Y-59608000D01*
X1746000Y-59608000D01*
X1746000Y-57560218D01*
X1800000Y-57560218D01*
X1800000Y-58439782D01*
X1830448Y-58513291D01*
X1886709Y-58569552D01*
X1960218Y-58600000D01*
X2039782Y-58600000D01*
X2113291Y-58569552D01*
X2169552Y-58513291D01*
X2200000Y-58439782D01*
X2200000Y-57746000D01*
X2254000Y-57746000D01*
X3008000Y-57746000D01*
X3008000Y-56851414D01*
X3007999Y-56851402D01*
X3001494Y-56790906D01*
X2950444Y-56654035D01*
X2950444Y-56654034D01*
X2862904Y-56537095D01*
X2745965Y-56449555D01*
X2609093Y-56398505D01*
X2548597Y-56392000D01*
X2254000Y-56392000D01*
X2254000Y-57746000D01*
X2200000Y-57746000D01*
X2200000Y-57560218D01*
X2169552Y-57486709D01*
X2113291Y-57430448D01*
X2039782Y-57400000D01*
X1960218Y-57400000D01*
X1886709Y-57430448D01*
X1830448Y-57486709D01*
X1800000Y-57560218D01*
X1746000Y-57560218D01*
X1746000Y-56392000D01*
X1547440Y-56392000D01*
X1479319Y-56371998D01*
X1432826Y-56318342D01*
X1421440Y-56266000D01*
X1421440Y-54951350D01*
X6791500Y-54951350D01*
X6791500Y-56048649D01*
X6798009Y-56109196D01*
X6798011Y-56109204D01*
X6849110Y-56246202D01*
X6849112Y-56246207D01*
X6936738Y-56363261D01*
X7053792Y-56450887D01*
X7053794Y-56450888D01*
X7053796Y-56450889D01*
X7112875Y-56472924D01*
X7190795Y-56501988D01*
X7190803Y-56501990D01*
X7251350Y-56508499D01*
X7251355Y-56508499D01*
X7251362Y-56508500D01*
X7251368Y-56508500D01*
X9548632Y-56508500D01*
X9548638Y-56508500D01*
X9548645Y-56508499D01*
X9548649Y-56508499D01*
X9609196Y-56501990D01*
X9609199Y-56501989D01*
X9609201Y-56501989D01*
X9746204Y-56450889D01*
X9810763Y-56402561D01*
X9863261Y-56363261D01*
X9950887Y-56246207D01*
X9950887Y-56246206D01*
X9950889Y-56246204D01*
X10001989Y-56109201D01*
X10008173Y-56051685D01*
X10008499Y-56048649D01*
X10008500Y-56048632D01*
X10008500Y-54951367D01*
X10008499Y-54951350D01*
X10001990Y-54890803D01*
X10001988Y-54890795D01*
X9955492Y-54766138D01*
X9950889Y-54753796D01*
X9950888Y-54753794D01*
X9950887Y-54753792D01*
X9863261Y-54636738D01*
X9746207Y-54549112D01*
X9746202Y-54549110D01*
X9609204Y-54498011D01*
X9609196Y-54498009D01*
X9548649Y-54491500D01*
X9548638Y-54491500D01*
X7251362Y-54491500D01*
X7251350Y-54491500D01*
X7190803Y-54498009D01*
X7190795Y-54498011D01*
X7053797Y-54549110D01*
X7053792Y-54549112D01*
X6936738Y-54636738D01*
X6849112Y-54753792D01*
X6849110Y-54753797D01*
X6798011Y-54890795D01*
X6798009Y-54890803D01*
X6791500Y-54951350D01*
X1421440Y-54951350D01*
X1421440Y-42715791D01*
X1441442Y-42647670D01*
X1458345Y-42626696D01*
X3289636Y-40795405D01*
X3351948Y-40761379D01*
X3378731Y-40758500D01*
X3445881Y-40758500D01*
X3451214Y-40760066D01*
G37*
G04 #@! TD.AperFunction*
G04 #@! TA.AperFunction,Conductor*
G36*
X27428845Y-49656175D02*
G01*
X27479047Y-49706377D01*
X27494460Y-49766763D01*
X27494460Y-51233861D01*
X27474458Y-51301982D01*
X27420802Y-51348475D01*
X27350528Y-51358579D01*
X27292951Y-51334729D01*
X27245965Y-51299555D01*
X27109093Y-51248505D01*
X27048597Y-51242000D01*
X26254000Y-51242000D01*
X26254000Y-54758000D01*
X27048585Y-54758000D01*
X27048597Y-54757999D01*
X27109093Y-54751494D01*
X27245964Y-54700444D01*
X27245965Y-54700443D01*
X27292950Y-54665271D01*
X27359470Y-54640459D01*
X27428844Y-54655550D01*
X27479047Y-54705751D01*
X27494460Y-54766138D01*
X27494460Y-56233861D01*
X27474458Y-56301982D01*
X27420802Y-56348475D01*
X27350528Y-56358579D01*
X27292951Y-56334729D01*
X27245965Y-56299555D01*
X27109093Y-56248505D01*
X27048597Y-56242000D01*
X26254000Y-56242000D01*
X26254000Y-59758000D01*
X27048585Y-59758000D01*
X27048597Y-59757999D01*
X27109093Y-59751494D01*
X27245964Y-59700444D01*
X27245965Y-59700443D01*
X27292950Y-59665271D01*
X27359470Y-59640459D01*
X27428844Y-59655550D01*
X27479047Y-59705751D01*
X27494460Y-59766138D01*
X27494460Y-61118586D01*
X27494460Y-61243374D01*
X27518805Y-61365765D01*
X27566560Y-61481055D01*
X27635889Y-61584813D01*
X27635891Y-61584815D01*
X28077481Y-62026405D01*
X28111507Y-62088717D01*
X28106442Y-62159532D01*
X28063895Y-62216368D01*
X27997375Y-62241179D01*
X27988386Y-62241500D01*
X26951350Y-62241500D01*
X26890803Y-62248009D01*
X26890795Y-62248011D01*
X26753797Y-62299110D01*
X26753792Y-62299112D01*
X26636738Y-62386738D01*
X26549112Y-62503792D01*
X26549110Y-62503797D01*
X26498011Y-62640795D01*
X26498009Y-62640803D01*
X26491500Y-62701350D01*
X26491500Y-63343471D01*
X26471498Y-63411592D01*
X26435503Y-63448236D01*
X26346167Y-63507929D01*
X26346164Y-63507931D01*
X23457931Y-66396164D01*
X23457926Y-66396171D01*
X23388601Y-66499923D01*
X23340846Y-66615212D01*
X23316500Y-66737603D01*
X23316500Y-70026529D01*
X23296498Y-70094650D01*
X23266010Y-70127397D01*
X23186737Y-70186740D01*
X23100868Y-70301448D01*
X23044032Y-70343995D01*
X22973216Y-70349059D01*
X22910904Y-70315034D01*
X22899132Y-70301448D01*
X22813261Y-70186738D01*
X22696207Y-70099112D01*
X22696202Y-70099110D01*
X22559204Y-70048011D01*
X22559196Y-70048009D01*
X22498649Y-70041500D01*
X22498638Y-70041500D01*
X21601362Y-70041500D01*
X21601350Y-70041500D01*
X21540803Y-70048009D01*
X21540795Y-70048011D01*
X21403797Y-70099110D01*
X21403792Y-70099112D01*
X21286738Y-70186738D01*
X21193711Y-70311010D01*
X21191918Y-70309668D01*
X21150493Y-70351091D01*
X21090113Y-70366500D01*
X17836962Y-70366500D01*
X17768841Y-70346498D01*
X17722348Y-70292842D01*
X17712244Y-70222568D01*
X17718906Y-70196468D01*
X17751494Y-70109094D01*
X17757999Y-70048597D01*
X17758000Y-70048585D01*
X17758000Y-69254000D01*
X16254000Y-69254000D01*
X16254000Y-70547906D01*
X16233998Y-70616027D01*
X16217095Y-70637001D01*
X15507931Y-71346164D01*
X15507926Y-71346171D01*
X15448237Y-71435502D01*
X15393760Y-71481030D01*
X15343472Y-71491500D01*
X14701350Y-71491500D01*
X14640803Y-71498009D01*
X14640795Y-71498011D01*
X14503797Y-71549110D01*
X14503792Y-71549112D01*
X14386738Y-71636738D01*
X14299112Y-71753792D01*
X14299110Y-71753797D01*
X14248011Y-71890795D01*
X14248009Y-71890803D01*
X14241500Y-71951350D01*
X14241500Y-74048649D01*
X14248009Y-74109196D01*
X14248011Y-74109204D01*
X14299110Y-74246202D01*
X14299112Y-74246207D01*
X14386737Y-74363259D01*
X14386738Y-74363259D01*
X14386739Y-74363261D01*
X14401607Y-74374391D01*
X14434657Y-74399132D01*
X14477203Y-74455968D01*
X14482267Y-74526784D01*
X14448242Y-74589096D01*
X14434657Y-74600868D01*
X14386737Y-74636740D01*
X14299112Y-74753792D01*
X14299110Y-74753797D01*
X14248011Y-74890795D01*
X14248009Y-74890803D01*
X14241500Y-74951350D01*
X14241500Y-77048649D01*
X14248009Y-77109196D01*
X14248011Y-77109204D01*
X14296986Y-77240507D01*
X14302052Y-77311323D01*
X14268027Y-77373635D01*
X14205715Y-77407660D01*
X14178931Y-77410540D01*
X8058635Y-77410540D01*
X7990514Y-77390538D01*
X7969540Y-77373635D01*
X6092098Y-75496194D01*
X6058073Y-75433882D01*
X6061360Y-75368162D01*
X6073818Y-75329824D01*
X6108500Y-75110851D01*
X6108500Y-74889149D01*
X6103922Y-74860247D01*
X6113021Y-74789840D01*
X6158743Y-74735525D01*
X6226571Y-74714552D01*
X6294970Y-74733578D01*
X6306931Y-74742029D01*
X6372231Y-74794105D01*
X6372238Y-74794109D01*
X6372241Y-74794112D01*
X6477501Y-74860251D01*
X6639331Y-74961936D01*
X6639334Y-74961937D01*
X6639335Y-74961938D01*
X6923540Y-75098804D01*
X6923556Y-75098809D01*
X6923557Y-75098810D01*
X7221275Y-75202986D01*
X7221278Y-75202986D01*
X7221282Y-75202988D01*
X7528818Y-75273181D01*
X7751088Y-75298225D01*
X7842276Y-75308500D01*
X7842278Y-75308500D01*
X8157724Y-75308500D01*
X8245248Y-75298638D01*
X8471182Y-75273181D01*
X8778718Y-75202988D01*
X9076460Y-75098804D01*
X9360665Y-74961938D01*
X9627759Y-74794112D01*
X9874383Y-74597435D01*
X10097435Y-74374383D01*
X10271856Y-74155667D01*
X10294105Y-74127768D01*
X10294105Y-74127766D01*
X10294112Y-74127759D01*
X10461938Y-73860665D01*
X10598804Y-73576460D01*
X10702988Y-73278718D01*
X10773181Y-72971182D01*
X10808500Y-72657722D01*
X10808500Y-72342278D01*
X10773181Y-72028818D01*
X10702988Y-71721282D01*
X10692064Y-71690064D01*
X10598810Y-71423557D01*
X10598809Y-71423556D01*
X10598804Y-71423540D01*
X10461938Y-71139335D01*
X10461937Y-71139334D01*
X10461936Y-71139331D01*
X10375779Y-71002215D01*
X10294112Y-70872241D01*
X10294109Y-70872237D01*
X10294105Y-70872231D01*
X10097436Y-70625618D01*
X10097427Y-70625608D01*
X9874391Y-70402572D01*
X9874381Y-70402563D01*
X9627768Y-70205894D01*
X9627762Y-70205890D01*
X9377433Y-70048597D01*
X14242000Y-70048597D01*
X14248505Y-70109093D01*
X14299555Y-70245964D01*
X14299555Y-70245965D01*
X14387095Y-70362904D01*
X14504034Y-70450444D01*
X14640906Y-70501494D01*
X14701402Y-70507999D01*
X14701415Y-70508000D01*
X15746000Y-70508000D01*
X15746000Y-69254000D01*
X14242000Y-69254000D01*
X14242000Y-70048597D01*
X9377433Y-70048597D01*
X9360668Y-70038063D01*
X9076469Y-69901200D01*
X9076464Y-69901198D01*
X9076460Y-69901196D01*
X9076454Y-69901193D01*
X9076442Y-69901189D01*
X8778724Y-69797013D01*
X8471185Y-69726819D01*
X8157724Y-69691500D01*
X8157722Y-69691500D01*
X7842278Y-69691500D01*
X7842276Y-69691500D01*
X7528814Y-69726819D01*
X7221275Y-69797013D01*
X6923557Y-69901189D01*
X6923530Y-69901200D01*
X6639331Y-70038063D01*
X6372237Y-70205890D01*
X6372231Y-70205894D01*
X6125618Y-70402563D01*
X6125608Y-70402572D01*
X5902572Y-70625608D01*
X5902563Y-70625618D01*
X5705894Y-70872231D01*
X5705890Y-70872237D01*
X5538063Y-71139331D01*
X5401200Y-71423530D01*
X5401189Y-71423557D01*
X5297013Y-71721275D01*
X5226819Y-72028814D01*
X5191500Y-72342276D01*
X5191500Y-72657723D01*
X5226819Y-72971185D01*
X5251545Y-73079515D01*
X5297012Y-73278718D01*
X5297014Y-73278724D01*
X5297013Y-73278724D01*
X5384474Y-73528673D01*
X5388093Y-73599577D01*
X5352804Y-73661183D01*
X5289811Y-73693929D01*
X5226609Y-73690121D01*
X5029827Y-73626183D01*
X5029831Y-73626183D01*
X4989063Y-73619726D01*
X4810851Y-73591500D01*
X4589149Y-73591500D01*
X4370176Y-73626182D01*
X4370170Y-73626183D01*
X4171556Y-73690717D01*
X4100588Y-73692744D01*
X4039791Y-73656082D01*
X4008465Y-73592370D01*
X4006620Y-73570884D01*
X4006620Y-67951402D01*
X14242000Y-67951402D01*
X14242000Y-68746000D01*
X15746000Y-68746000D01*
X16254000Y-68746000D01*
X17758000Y-68746000D01*
X17758000Y-67951414D01*
X17757999Y-67951402D01*
X17751494Y-67890906D01*
X17700444Y-67754035D01*
X17700444Y-67754034D01*
X17612904Y-67637095D01*
X17495965Y-67549555D01*
X17359093Y-67498505D01*
X17298597Y-67492000D01*
X16254000Y-67492000D01*
X16254000Y-68746000D01*
X15746000Y-68746000D01*
X15746000Y-67492000D01*
X14701402Y-67492000D01*
X14640906Y-67498505D01*
X14504035Y-67549555D01*
X14504034Y-67549555D01*
X14387095Y-67637095D01*
X14299555Y-67754034D01*
X14299555Y-67754035D01*
X14248505Y-67890906D01*
X14242000Y-67951402D01*
X4006620Y-67951402D01*
X4006620Y-63614768D01*
X4026622Y-63546647D01*
X4080278Y-63500154D01*
X4150552Y-63490050D01*
X4176654Y-63496713D01*
X4190799Y-63501989D01*
X4190803Y-63501990D01*
X4251350Y-63508499D01*
X4251355Y-63508499D01*
X4251362Y-63508500D01*
X4251368Y-63508500D01*
X6548632Y-63508500D01*
X6548638Y-63508500D01*
X6548645Y-63508499D01*
X6548649Y-63508499D01*
X6609196Y-63501990D01*
X6609199Y-63501989D01*
X6609201Y-63501989D01*
X6746204Y-63450889D01*
X6863261Y-63363261D01*
X6875810Y-63346498D01*
X6950887Y-63246207D01*
X6950887Y-63246206D01*
X6950889Y-63246204D01*
X6982231Y-63162172D01*
X7024777Y-63105338D01*
X7052066Y-63089798D01*
X7120626Y-63061400D01*
X7224384Y-62992071D01*
X11886196Y-58330258D01*
X11948506Y-58296234D01*
X12019321Y-58301299D01*
X12076157Y-58343846D01*
X12100968Y-58410366D01*
X12091698Y-58467573D01*
X12042314Y-58586794D01*
X12007400Y-58762318D01*
X12007400Y-58941281D01*
X12020402Y-59006647D01*
X12039975Y-59105047D01*
X12042314Y-59116803D01*
X12055479Y-59148585D01*
X12110798Y-59282136D01*
X12210222Y-59430935D01*
X12336765Y-59557478D01*
X12485564Y-59656902D01*
X12650900Y-59725387D01*
X12826421Y-59760300D01*
X12826422Y-59760300D01*
X13005378Y-59760300D01*
X13005379Y-59760300D01*
X13180900Y-59725387D01*
X13346236Y-59656902D01*
X13495035Y-59557478D01*
X13530308Y-59522205D01*
X13592620Y-59488179D01*
X13619403Y-59485300D01*
X14248388Y-59485300D01*
X14316509Y-59505302D01*
X14363002Y-59558958D01*
X14373106Y-59629232D01*
X14349256Y-59686809D01*
X14299113Y-59753792D01*
X14299110Y-59753797D01*
X14248011Y-59890795D01*
X14248009Y-59890803D01*
X14241500Y-59951350D01*
X14241500Y-60734581D01*
X14221498Y-60802702D01*
X14167842Y-60849195D01*
X14097568Y-60859299D01*
X14032988Y-60829805D01*
X13997445Y-60778614D01*
X13950889Y-60653797D01*
X13950887Y-60653792D01*
X13863261Y-60536738D01*
X13746207Y-60449112D01*
X13746202Y-60449110D01*
X13609204Y-60398011D01*
X13609196Y-60398009D01*
X13548649Y-60391500D01*
X13548638Y-60391500D01*
X12451362Y-60391500D01*
X12451350Y-60391500D01*
X12390803Y-60398009D01*
X12390795Y-60398011D01*
X12253797Y-60449110D01*
X12253792Y-60449112D01*
X12136738Y-60536738D01*
X12049112Y-60653792D01*
X12049110Y-60653797D01*
X11998011Y-60790795D01*
X11998009Y-60790803D01*
X11991500Y-60851350D01*
X11991500Y-63148649D01*
X11998009Y-63209196D01*
X11998011Y-63209204D01*
X12049110Y-63346202D01*
X12049112Y-63346207D01*
X12136738Y-63463261D01*
X12253792Y-63550887D01*
X12253794Y-63550888D01*
X12253796Y-63550889D01*
X12312875Y-63572924D01*
X12390795Y-63601988D01*
X12390803Y-63601990D01*
X12451350Y-63608499D01*
X12451355Y-63608499D01*
X12451362Y-63608500D01*
X12451368Y-63608500D01*
X13548632Y-63608500D01*
X13548638Y-63608500D01*
X13548645Y-63608499D01*
X13548649Y-63608499D01*
X13609196Y-63601990D01*
X13609199Y-63601989D01*
X13609201Y-63601989D01*
X13746204Y-63550889D01*
X13818575Y-63496713D01*
X13863261Y-63463261D01*
X13950887Y-63346207D01*
X13950887Y-63346206D01*
X13950889Y-63346204D01*
X14001989Y-63209201D01*
X14008500Y-63148638D01*
X14008500Y-62165418D01*
X14028502Y-62097297D01*
X14082158Y-62050804D01*
X14152432Y-62040700D01*
X14217012Y-62070194D01*
X14252555Y-62121385D01*
X14299110Y-62246203D01*
X14299112Y-62246207D01*
X14386738Y-62363261D01*
X14503792Y-62450887D01*
X14503794Y-62450888D01*
X14503796Y-62450889D01*
X14562875Y-62472924D01*
X14640795Y-62501988D01*
X14640803Y-62501990D01*
X14701350Y-62508499D01*
X14701355Y-62508499D01*
X14701362Y-62508500D01*
X14701368Y-62508500D01*
X17298632Y-62508500D01*
X17298638Y-62508500D01*
X17298645Y-62508499D01*
X17298649Y-62508499D01*
X17359196Y-62501990D01*
X17359199Y-62501989D01*
X17359201Y-62501989D01*
X17496204Y-62450889D01*
X17581900Y-62386738D01*
X17613261Y-62363261D01*
X17700887Y-62246207D01*
X17700887Y-62246206D01*
X17700889Y-62246204D01*
X17751989Y-62109201D01*
X17754192Y-62088717D01*
X17758499Y-62048649D01*
X17758500Y-62048632D01*
X17758500Y-61759500D01*
X17778502Y-61691379D01*
X17832158Y-61644886D01*
X17884500Y-61633500D01*
X19692153Y-61633500D01*
X19692154Y-61633500D01*
X19814545Y-61609155D01*
X19929835Y-61561400D01*
X20033593Y-61492071D01*
X21868711Y-59656953D01*
X21938040Y-59553195D01*
X21985795Y-59437905D01*
X22010140Y-59315514D01*
X22010140Y-59298597D01*
X24492000Y-59298597D01*
X24498505Y-59359093D01*
X24549555Y-59495964D01*
X24549555Y-59495965D01*
X24637095Y-59612904D01*
X24754034Y-59700444D01*
X24890906Y-59751494D01*
X24951402Y-59757999D01*
X24951415Y-59758000D01*
X25746000Y-59758000D01*
X25746000Y-58254000D01*
X24492000Y-58254000D01*
X24492000Y-59298597D01*
X22010140Y-59298597D01*
X22010140Y-59190727D01*
X22010140Y-58526569D01*
X22030142Y-58458448D01*
X22060628Y-58425703D01*
X22139901Y-58366361D01*
X22227529Y-58249304D01*
X22265054Y-58148699D01*
X22278628Y-58112304D01*
X22278630Y-58112296D01*
X22285139Y-58051749D01*
X22285140Y-58051732D01*
X22285140Y-57054467D01*
X22285139Y-57054450D01*
X22278630Y-56993903D01*
X22278628Y-56993895D01*
X22245407Y-56904828D01*
X22227529Y-56856896D01*
X22227528Y-56856894D01*
X22227527Y-56856892D01*
X22171438Y-56781967D01*
X22171436Y-56781966D01*
X22139901Y-56739839D01*
X22088556Y-56701402D01*
X24492000Y-56701402D01*
X24492000Y-57746000D01*
X25746000Y-57746000D01*
X25746000Y-56242000D01*
X24951402Y-56242000D01*
X24890906Y-56248505D01*
X24754035Y-56299555D01*
X24754034Y-56299555D01*
X24637095Y-56387095D01*
X24549555Y-56504034D01*
X24549555Y-56504035D01*
X24498505Y-56640906D01*
X24492000Y-56701402D01*
X22088556Y-56701402D01*
X22081029Y-56695767D01*
X22075592Y-56690584D01*
X22061441Y-56666075D01*
X22044483Y-56643422D01*
X22043934Y-56635756D01*
X22040092Y-56629101D01*
X22041437Y-56600831D01*
X22039419Y-56572607D01*
X22043101Y-56565862D01*
X22043467Y-56558185D01*
X22059881Y-56535132D01*
X22072640Y-56511767D01*
X22072640Y-56511100D01*
X22580640Y-56511100D01*
X22775225Y-56511100D01*
X22775237Y-56511099D01*
X22835733Y-56504594D01*
X22972604Y-56453544D01*
X22972605Y-56453544D01*
X23089544Y-56366004D01*
X23177084Y-56249065D01*
X23177084Y-56249064D01*
X23228134Y-56112193D01*
X23234639Y-56051697D01*
X23234640Y-56051685D01*
X23234640Y-55807100D01*
X22580640Y-55807100D01*
X22580640Y-56511100D01*
X22072640Y-56511100D01*
X22072640Y-55299100D01*
X22580640Y-55299100D01*
X23234640Y-55299100D01*
X23234640Y-55054514D01*
X23234639Y-55054502D01*
X23228134Y-54994006D01*
X23177084Y-54857135D01*
X23177084Y-54857134D01*
X23089544Y-54740195D01*
X22972605Y-54652655D01*
X22835733Y-54601605D01*
X22775237Y-54595100D01*
X22580640Y-54595100D01*
X22580640Y-55299100D01*
X22072640Y-55299100D01*
X22072640Y-54595100D01*
X21878042Y-54595100D01*
X21817546Y-54601605D01*
X21680675Y-54652655D01*
X21680674Y-54652655D01*
X21563737Y-54740194D01*
X21477820Y-54854965D01*
X21420984Y-54897511D01*
X21350168Y-54902575D01*
X21287856Y-54868550D01*
X21276084Y-54854965D01*
X21209588Y-54766138D01*
X21189901Y-54739839D01*
X21189899Y-54739838D01*
X21189899Y-54739837D01*
X21124130Y-54690602D01*
X21081584Y-54633766D01*
X21073640Y-54589735D01*
X21073640Y-54298597D01*
X24492000Y-54298597D01*
X24498505Y-54359093D01*
X24549555Y-54495964D01*
X24549555Y-54495965D01*
X24637095Y-54612904D01*
X24754034Y-54700444D01*
X24890906Y-54751494D01*
X24951402Y-54757999D01*
X24951415Y-54758000D01*
X25746000Y-54758000D01*
X25746000Y-53254000D01*
X24492000Y-53254000D01*
X24492000Y-54298597D01*
X21073640Y-54298597D01*
X21073640Y-53845267D01*
X21093642Y-53777146D01*
X21130205Y-53743107D01*
X21129130Y-53741670D01*
X21253401Y-53648641D01*
X21301035Y-53585009D01*
X21314673Y-53566790D01*
X21371508Y-53524244D01*
X21415541Y-53516300D01*
X22292469Y-53516300D01*
X22292474Y-53516300D01*
X22292994Y-53516196D01*
X22293073Y-53516181D01*
X22317652Y-53513760D01*
X23062093Y-53513760D01*
X23062094Y-53513760D01*
X23184485Y-53489415D01*
X23299775Y-53441660D01*
X23403533Y-53372331D01*
X24058191Y-52717673D01*
X24127520Y-52613915D01*
X24175275Y-52498625D01*
X24199620Y-52376234D01*
X24199620Y-52251446D01*
X24199620Y-51861354D01*
X24208403Y-51831438D01*
X24215032Y-51800969D01*
X24218846Y-51795873D01*
X24219622Y-51793233D01*
X24236525Y-51772259D01*
X24276905Y-51731879D01*
X24339217Y-51697853D01*
X24410032Y-51702918D01*
X24466868Y-51745465D01*
X24491679Y-51811985D01*
X24492000Y-51820974D01*
X24492000Y-52746000D01*
X25746000Y-52746000D01*
X25746000Y-51242000D01*
X25070974Y-51242000D01*
X25002853Y-51221998D01*
X24956360Y-51168342D01*
X24946256Y-51098068D01*
X24975750Y-51033488D01*
X24981879Y-51026905D01*
X26213379Y-49795405D01*
X26275691Y-49761379D01*
X26302474Y-49758500D01*
X27048632Y-49758500D01*
X27048638Y-49758500D01*
X27048645Y-49758499D01*
X27048649Y-49758499D01*
X27109196Y-49751990D01*
X27109199Y-49751989D01*
X27109201Y-49751989D01*
X27246204Y-49700889D01*
X27285363Y-49671575D01*
X27292951Y-49665895D01*
X27359471Y-49641084D01*
X27428845Y-49656175D01*
G37*
G04 #@! TD.AperFunction*
G04 #@! TA.AperFunction,Conductor*
G36*
X33583621Y-40778502D02*
G01*
X33630114Y-40832158D01*
X33641500Y-40884500D01*
X33641500Y-40898649D01*
X33648009Y-40959196D01*
X33648011Y-40959204D01*
X33699110Y-41096202D01*
X33699112Y-41096207D01*
X33786738Y-41213261D01*
X33903792Y-41300887D01*
X33903796Y-41300889D01*
X34022224Y-41345061D01*
X34079059Y-41387607D01*
X34103870Y-41454128D01*
X34088778Y-41523502D01*
X34067287Y-41552211D01*
X33964176Y-41655322D01*
X33838536Y-41828249D01*
X33741493Y-42018707D01*
X33741490Y-42018713D01*
X33675440Y-42221995D01*
X33665302Y-42286000D01*
X34569297Y-42286000D01*
X34534075Y-42347007D01*
X34500000Y-42474174D01*
X34500000Y-42605826D01*
X34534075Y-42732993D01*
X34569297Y-42794000D01*
X33665302Y-42794000D01*
X33675440Y-42858004D01*
X33741490Y-43061286D01*
X33741493Y-43061292D01*
X33838536Y-43251750D01*
X33964177Y-43424679D01*
X34115320Y-43575822D01*
X34288256Y-43701468D01*
X34290052Y-43702569D01*
X34290591Y-43703164D01*
X34292258Y-43704376D01*
X34292003Y-43704726D01*
X34337682Y-43755217D01*
X34349288Y-43825259D01*
X34321183Y-43890456D01*
X34292211Y-43915559D01*
X34292258Y-43915624D01*
X34291511Y-43916166D01*
X34290052Y-43917431D01*
X34288256Y-43918531D01*
X34115320Y-44044177D01*
X33964177Y-44195320D01*
X33838536Y-44368249D01*
X33741493Y-44558707D01*
X33741490Y-44558713D01*
X33675440Y-44761995D01*
X33665302Y-44826000D01*
X34569297Y-44826000D01*
X34534075Y-44887007D01*
X34500000Y-45014174D01*
X34500000Y-45145826D01*
X34534075Y-45272993D01*
X34569297Y-45334000D01*
X33665302Y-45334000D01*
X33675440Y-45398004D01*
X33741490Y-45601286D01*
X33741493Y-45601292D01*
X33838536Y-45791750D01*
X33964177Y-45964679D01*
X34115320Y-46115822D01*
X34288256Y-46241468D01*
X34290052Y-46242569D01*
X34290591Y-46243164D01*
X34292258Y-46244376D01*
X34292003Y-46244726D01*
X34337682Y-46295217D01*
X34349288Y-46365259D01*
X34321183Y-46430456D01*
X34292211Y-46455559D01*
X34292258Y-46455624D01*
X34291511Y-46456166D01*
X34290052Y-46457431D01*
X34288256Y-46458531D01*
X34115320Y-46584177D01*
X33964177Y-46735320D01*
X33838536Y-46908249D01*
X33741493Y-47098707D01*
X33741490Y-47098713D01*
X33675440Y-47301995D01*
X33665302Y-47366000D01*
X34569297Y-47366000D01*
X34534075Y-47427007D01*
X34500000Y-47554174D01*
X34500000Y-47685826D01*
X34534075Y-47812993D01*
X34569297Y-47874000D01*
X33665302Y-47874000D01*
X33675440Y-47938004D01*
X33741490Y-48141286D01*
X33741493Y-48141292D01*
X33838536Y-48331750D01*
X33964177Y-48504679D01*
X34115320Y-48655822D01*
X34288244Y-48781460D01*
X34289560Y-48782266D01*
X34289955Y-48782703D01*
X34292258Y-48784376D01*
X34291906Y-48784859D01*
X34337196Y-48834910D01*
X34348809Y-48904950D01*
X34320712Y-48970150D01*
X34291925Y-48995098D01*
X34291996Y-48995196D01*
X34290862Y-48996019D01*
X34289580Y-48997131D01*
X34287998Y-48998100D01*
X34114993Y-49123796D01*
X34114990Y-49123798D01*
X33963798Y-49274990D01*
X33963796Y-49274993D01*
X33838108Y-49447987D01*
X33741029Y-49638515D01*
X33741026Y-49638521D01*
X33674952Y-49841878D01*
X33674951Y-49841883D01*
X33674951Y-49841884D01*
X33641500Y-50053084D01*
X33641500Y-50266916D01*
X33674644Y-50476175D01*
X33674952Y-50478121D01*
X33741026Y-50681478D01*
X33741028Y-50681483D01*
X33838106Y-50872009D01*
X33963794Y-51045004D01*
X33963796Y-51045006D01*
X33963798Y-51045009D01*
X34114990Y-51196201D01*
X34114993Y-51196203D01*
X34114996Y-51196206D01*
X34287991Y-51321894D01*
X34287996Y-51321896D01*
X34289088Y-51322566D01*
X34289418Y-51322931D01*
X34291996Y-51324804D01*
X34291602Y-51325345D01*
X34336721Y-51375213D01*
X34348328Y-51445255D01*
X34320226Y-51510453D01*
X34291870Y-51535023D01*
X34291996Y-51535196D01*
X34289982Y-51536658D01*
X34289088Y-51537434D01*
X34287987Y-51538108D01*
X34114993Y-51663796D01*
X34114990Y-51663798D01*
X33963798Y-51814990D01*
X33963796Y-51814993D01*
X33838108Y-51987987D01*
X33741029Y-52178515D01*
X33741026Y-52178521D01*
X33674952Y-52381878D01*
X33674951Y-52381883D01*
X33674951Y-52381884D01*
X33641500Y-52593084D01*
X33641500Y-52806916D01*
X33674951Y-53018116D01*
X33674952Y-53018121D01*
X33705687Y-53112714D01*
X33741028Y-53221483D01*
X33838106Y-53412009D01*
X33963794Y-53585004D01*
X33963796Y-53585006D01*
X33963798Y-53585009D01*
X34114990Y-53736201D01*
X34114993Y-53736203D01*
X34114996Y-53736206D01*
X34287991Y-53861894D01*
X34287996Y-53861896D01*
X34289088Y-53862566D01*
X34289418Y-53862931D01*
X34291996Y-53864804D01*
X34291602Y-53865345D01*
X34336721Y-53915213D01*
X34348328Y-53985255D01*
X34320226Y-54050453D01*
X34291870Y-54075023D01*
X34291996Y-54075196D01*
X34289982Y-54076658D01*
X34289088Y-54077434D01*
X34287987Y-54078108D01*
X34114993Y-54203796D01*
X34114990Y-54203798D01*
X33963798Y-54354990D01*
X33963796Y-54354993D01*
X33838108Y-54527987D01*
X33741029Y-54718515D01*
X33741026Y-54718521D01*
X33674952Y-54921878D01*
X33674951Y-54921883D01*
X33674951Y-54921884D01*
X33641500Y-55133084D01*
X33641500Y-55346916D01*
X33669939Y-55526470D01*
X33674952Y-55558121D01*
X33741026Y-55761478D01*
X33741028Y-55761483D01*
X33838106Y-55952009D01*
X33963794Y-56125004D01*
X33963796Y-56125006D01*
X33963798Y-56125009D01*
X34114990Y-56276201D01*
X34114993Y-56276203D01*
X34114996Y-56276206D01*
X34287991Y-56401894D01*
X34287996Y-56401896D01*
X34289088Y-56402566D01*
X34289418Y-56402931D01*
X34291996Y-56404804D01*
X34291602Y-56405345D01*
X34336721Y-56455213D01*
X34348328Y-56525255D01*
X34320226Y-56590453D01*
X34291870Y-56615023D01*
X34291996Y-56615196D01*
X34289982Y-56616658D01*
X34289088Y-56617434D01*
X34287987Y-56618108D01*
X34114993Y-56743796D01*
X34114990Y-56743798D01*
X33963798Y-56894990D01*
X33963796Y-56894993D01*
X33838108Y-57067987D01*
X33741029Y-57258515D01*
X33741026Y-57258521D01*
X33674952Y-57461878D01*
X33674951Y-57461883D01*
X33674951Y-57461884D01*
X33641500Y-57673084D01*
X33641500Y-57886916D01*
X33667607Y-58051749D01*
X33674952Y-58098121D01*
X33740968Y-58301299D01*
X33741028Y-58301483D01*
X33838106Y-58492009D01*
X33838108Y-58492012D01*
X33850087Y-58508499D01*
X33963794Y-58665004D01*
X33963796Y-58665006D01*
X33963798Y-58665009D01*
X34114990Y-58816201D01*
X34114993Y-58816203D01*
X34114996Y-58816206D01*
X34287991Y-58941894D01*
X34478517Y-59038972D01*
X34681878Y-59105047D01*
X34681879Y-59105047D01*
X34681884Y-59105049D01*
X34893084Y-59138500D01*
X34893087Y-59138500D01*
X35106913Y-59138500D01*
X35106916Y-59138500D01*
X35318116Y-59105049D01*
X35521483Y-59038972D01*
X35712009Y-58941894D01*
X35885004Y-58816206D01*
X36036206Y-58665004D01*
X36161894Y-58492009D01*
X36161899Y-58491997D01*
X36162561Y-58490920D01*
X36162924Y-58490591D01*
X36164804Y-58488004D01*
X36165347Y-58488398D01*
X36215204Y-58443283D01*
X36285244Y-58431670D01*
X36350445Y-58459766D01*
X36375021Y-58488130D01*
X36375196Y-58488004D01*
X36376668Y-58490030D01*
X36377439Y-58490920D01*
X36378108Y-58492012D01*
X36390087Y-58508499D01*
X36503794Y-58665004D01*
X36503796Y-58665006D01*
X36503798Y-58665009D01*
X36654990Y-58816201D01*
X36654993Y-58816203D01*
X36654996Y-58816206D01*
X36827991Y-58941894D01*
X37018517Y-59038972D01*
X37221878Y-59105047D01*
X37221879Y-59105047D01*
X37221884Y-59105049D01*
X37433084Y-59138500D01*
X37433087Y-59138500D01*
X37646913Y-59138500D01*
X37646916Y-59138500D01*
X37858116Y-59105049D01*
X37937678Y-59079197D01*
X38008644Y-59077170D01*
X38069442Y-59113833D01*
X38100768Y-59177545D01*
X38092675Y-59248079D01*
X38065708Y-59288126D01*
X34024241Y-63329595D01*
X33961929Y-63363620D01*
X33935146Y-63366500D01*
X33634500Y-63366500D01*
X33566379Y-63346498D01*
X33519886Y-63292842D01*
X33508500Y-63240500D01*
X33508500Y-62701367D01*
X33508499Y-62701350D01*
X33501990Y-62640803D01*
X33501988Y-62640795D01*
X33466520Y-62545703D01*
X33450889Y-62503796D01*
X33450888Y-62503794D01*
X33450887Y-62503792D01*
X33363261Y-62386738D01*
X33246207Y-62299112D01*
X33246202Y-62299110D01*
X33109204Y-62248011D01*
X33109196Y-62248009D01*
X33048649Y-62241500D01*
X33048638Y-62241500D01*
X30951362Y-62241500D01*
X30951350Y-62241500D01*
X30890803Y-62248009D01*
X30890795Y-62248011D01*
X30753797Y-62299110D01*
X30753792Y-62299112D01*
X30636740Y-62386737D01*
X30549589Y-62503157D01*
X30492753Y-62545703D01*
X30421937Y-62550767D01*
X30359626Y-62516742D01*
X28798365Y-60955481D01*
X28764339Y-60893169D01*
X28761460Y-60866386D01*
X28761460Y-59878356D01*
X28781462Y-59810235D01*
X28835118Y-59763742D01*
X28900928Y-59753078D01*
X28922219Y-59755366D01*
X28951352Y-59758499D01*
X28951353Y-59758499D01*
X28951362Y-59758500D01*
X28951368Y-59758500D01*
X31048632Y-59758500D01*
X31048638Y-59758500D01*
X31048645Y-59758499D01*
X31048649Y-59758499D01*
X31109196Y-59751990D01*
X31109199Y-59751989D01*
X31109201Y-59751989D01*
X31246204Y-59700889D01*
X31246799Y-59700444D01*
X31363261Y-59613261D01*
X31450887Y-59496207D01*
X31450887Y-59496206D01*
X31450889Y-59496204D01*
X31501989Y-59359201D01*
X31503391Y-59346167D01*
X31508499Y-59298649D01*
X31508500Y-59298632D01*
X31508500Y-56701367D01*
X31508499Y-56701350D01*
X31501990Y-56640803D01*
X31501988Y-56640795D01*
X31453862Y-56511767D01*
X31450889Y-56503796D01*
X31450888Y-56503794D01*
X31450887Y-56503792D01*
X31363261Y-56386738D01*
X31246207Y-56299112D01*
X31246202Y-56299110D01*
X31109204Y-56248011D01*
X31109196Y-56248009D01*
X31048649Y-56241500D01*
X31048638Y-56241500D01*
X30759500Y-56241500D01*
X30691379Y-56221498D01*
X30644886Y-56167842D01*
X30633500Y-56115500D01*
X30633500Y-54884500D01*
X30653502Y-54816379D01*
X30707158Y-54769886D01*
X30759500Y-54758500D01*
X31048632Y-54758500D01*
X31048638Y-54758500D01*
X31048645Y-54758499D01*
X31048649Y-54758499D01*
X31109196Y-54751990D01*
X31109199Y-54751989D01*
X31109201Y-54751989D01*
X31246204Y-54700889D01*
X31246799Y-54700444D01*
X31363261Y-54613261D01*
X31450887Y-54496207D01*
X31450887Y-54496206D01*
X31450889Y-54496204D01*
X31501989Y-54359201D01*
X31502442Y-54354996D01*
X31508499Y-54298649D01*
X31508500Y-54298632D01*
X31508500Y-51701367D01*
X31508499Y-51701350D01*
X31501990Y-51640803D01*
X31501988Y-51640795D01*
X31463435Y-51537434D01*
X31450889Y-51503796D01*
X31450888Y-51503794D01*
X31450887Y-51503792D01*
X31363261Y-51386738D01*
X31246207Y-51299112D01*
X31246202Y-51299110D01*
X31109204Y-51248011D01*
X31109196Y-51248009D01*
X31048649Y-51241500D01*
X31048638Y-51241500D01*
X30759500Y-51241500D01*
X30691379Y-51221498D01*
X30644886Y-51167842D01*
X30633500Y-51115500D01*
X30633500Y-49884500D01*
X30653502Y-49816379D01*
X30707158Y-49769886D01*
X30759500Y-49758500D01*
X31048632Y-49758500D01*
X31048638Y-49758500D01*
X31048645Y-49758499D01*
X31048649Y-49758499D01*
X31109196Y-49751990D01*
X31109199Y-49751989D01*
X31109201Y-49751989D01*
X31246204Y-49700889D01*
X31292951Y-49665895D01*
X31363261Y-49613261D01*
X31450887Y-49496207D01*
X31450887Y-49496206D01*
X31450889Y-49496204D01*
X31501989Y-49359201D01*
X31502661Y-49352956D01*
X31508499Y-49298649D01*
X31508500Y-49298632D01*
X31508500Y-46701367D01*
X31508499Y-46701350D01*
X31501990Y-46640803D01*
X31501988Y-46640795D01*
X31450889Y-46503797D01*
X31450887Y-46503792D01*
X31363261Y-46386738D01*
X31246207Y-46299112D01*
X31246202Y-46299110D01*
X31109204Y-46248011D01*
X31109196Y-46248009D01*
X31048649Y-46241500D01*
X31048638Y-46241500D01*
X30759500Y-46241500D01*
X30691379Y-46221498D01*
X30644886Y-46167842D01*
X30633500Y-46115500D01*
X30633500Y-44884500D01*
X30653502Y-44816379D01*
X30707158Y-44769886D01*
X30759500Y-44758500D01*
X31048632Y-44758500D01*
X31048638Y-44758500D01*
X31048645Y-44758499D01*
X31048649Y-44758499D01*
X31109196Y-44751990D01*
X31109199Y-44751989D01*
X31109201Y-44751989D01*
X31246204Y-44700889D01*
X31315890Y-44648723D01*
X31363261Y-44613261D01*
X31450887Y-44496207D01*
X31450887Y-44496206D01*
X31450889Y-44496204D01*
X31497119Y-44372258D01*
X31501988Y-44359204D01*
X31501990Y-44359196D01*
X31508499Y-44298649D01*
X31508500Y-44298632D01*
X31508500Y-41701367D01*
X31508499Y-41701350D01*
X31501990Y-41640803D01*
X31501988Y-41640795D01*
X31450889Y-41503797D01*
X31450889Y-41503796D01*
X31450745Y-41503604D01*
X31427843Y-41473009D01*
X31403032Y-41406488D01*
X31418124Y-41337114D01*
X31468326Y-41286912D01*
X31528711Y-41271500D01*
X32017741Y-41271500D01*
X32017745Y-41271500D01*
X32017746Y-41271500D01*
X32091016Y-41256925D01*
X32164287Y-41242351D01*
X32302324Y-41185174D01*
X32426555Y-41102166D01*
X32733316Y-40795405D01*
X32795628Y-40761379D01*
X32822411Y-40758500D01*
X33515500Y-40758500D01*
X33583621Y-40778502D01*
G37*
G04 #@! TD.AperFunction*
G04 #@! TA.AperFunction,Conductor*
G36*
X14159532Y-47060268D02*
G01*
X14216368Y-47102815D01*
X14241179Y-47169335D01*
X14241500Y-47178324D01*
X14241500Y-48048649D01*
X14248009Y-48109196D01*
X14248011Y-48109204D01*
X14299110Y-48246202D01*
X14299112Y-48246207D01*
X14386737Y-48363259D01*
X14386738Y-48363259D01*
X14386739Y-48363261D01*
X14404629Y-48376653D01*
X14434657Y-48399132D01*
X14477203Y-48455968D01*
X14482267Y-48526784D01*
X14448242Y-48589096D01*
X14434657Y-48600868D01*
X14386737Y-48636740D01*
X14299112Y-48753792D01*
X14299110Y-48753797D01*
X14248011Y-48890795D01*
X14248009Y-48890803D01*
X14241500Y-48951350D01*
X14241500Y-51048649D01*
X14248009Y-51109196D01*
X14248011Y-51109204D01*
X14299110Y-51246202D01*
X14299112Y-51246207D01*
X14386738Y-51363261D01*
X14503792Y-51450887D01*
X14503794Y-51450888D01*
X14503796Y-51450889D01*
X14562875Y-51472924D01*
X14640795Y-51501988D01*
X14640803Y-51501990D01*
X14701350Y-51508499D01*
X14701355Y-51508499D01*
X14701362Y-51508500D01*
X14701368Y-51508500D01*
X17298632Y-51508500D01*
X17298638Y-51508500D01*
X17298645Y-51508499D01*
X17298649Y-51508499D01*
X17359196Y-51501990D01*
X17359199Y-51501989D01*
X17359201Y-51501989D01*
X17496204Y-51450889D01*
X17524109Y-51430000D01*
X17613261Y-51363261D01*
X17700887Y-51246207D01*
X17700887Y-51246206D01*
X17700889Y-51246204D01*
X17751989Y-51109201D01*
X17754646Y-51084492D01*
X17758499Y-51048649D01*
X17758500Y-51048632D01*
X17758500Y-50939735D01*
X17778502Y-50871614D01*
X17832158Y-50825121D01*
X17902432Y-50815017D01*
X17967012Y-50844511D01*
X17973592Y-50850636D01*
X18600407Y-51477452D01*
X18704165Y-51546781D01*
X18819455Y-51594535D01*
X18941846Y-51618880D01*
X19066634Y-51618880D01*
X19466670Y-51618880D01*
X19534791Y-51638882D01*
X19567538Y-51669371D01*
X19626878Y-51748641D01*
X19741588Y-51834512D01*
X19784135Y-51891348D01*
X19789199Y-51962164D01*
X19755174Y-52024476D01*
X19741588Y-52036248D01*
X19626878Y-52122118D01*
X19539252Y-52239172D01*
X19539250Y-52239177D01*
X19488151Y-52376175D01*
X19488149Y-52376183D01*
X19481640Y-52436730D01*
X19481640Y-53334029D01*
X19488149Y-53394576D01*
X19488151Y-53394584D01*
X19539250Y-53531582D01*
X19539252Y-53531587D01*
X19626878Y-53648641D01*
X19751150Y-53741670D01*
X19749806Y-53743464D01*
X19791221Y-53784870D01*
X19806640Y-53845267D01*
X19806640Y-54569524D01*
X19786638Y-54637645D01*
X19756149Y-54670392D01*
X19663378Y-54739838D01*
X19575752Y-54856892D01*
X19575750Y-54856897D01*
X19524651Y-54993895D01*
X19524649Y-54993903D01*
X19518140Y-55054450D01*
X19518140Y-56051749D01*
X19524649Y-56112296D01*
X19524651Y-56112304D01*
X19575750Y-56249302D01*
X19575752Y-56249307D01*
X19663378Y-56366361D01*
X19780432Y-56453987D01*
X19780434Y-56453988D01*
X19780436Y-56453989D01*
X19839515Y-56476024D01*
X19917435Y-56505088D01*
X19917443Y-56505090D01*
X19977990Y-56511599D01*
X19977995Y-56511599D01*
X19978002Y-56511600D01*
X19978008Y-56511600D01*
X20539701Y-56511600D01*
X20607822Y-56531602D01*
X20654315Y-56585258D01*
X20664419Y-56655532D01*
X20634925Y-56720112D01*
X20615210Y-56738468D01*
X20613378Y-56739838D01*
X20525752Y-56856892D01*
X20525750Y-56856897D01*
X20474651Y-56993895D01*
X20474649Y-56993903D01*
X20468140Y-57054450D01*
X20468140Y-58051749D01*
X20474649Y-58112296D01*
X20474651Y-58112304D01*
X20525750Y-58249302D01*
X20525752Y-58249307D01*
X20586354Y-58330260D01*
X20613379Y-58366361D01*
X20692650Y-58425702D01*
X20735195Y-58482536D01*
X20743140Y-58526569D01*
X20743140Y-58938526D01*
X20723138Y-59006647D01*
X20706235Y-59027621D01*
X19404261Y-60329595D01*
X19341949Y-60363621D01*
X19315166Y-60366500D01*
X17884500Y-60366500D01*
X17816379Y-60346498D01*
X17769886Y-60292842D01*
X17758500Y-60240500D01*
X17758500Y-59951367D01*
X17758499Y-59951350D01*
X17751990Y-59890803D01*
X17751988Y-59890795D01*
X17705492Y-59766138D01*
X17700889Y-59753796D01*
X17700888Y-59753794D01*
X17700887Y-59753792D01*
X17613261Y-59636738D01*
X17496207Y-59549112D01*
X17496202Y-59549110D01*
X17359204Y-59498011D01*
X17359196Y-59498009D01*
X17298649Y-59491500D01*
X17298638Y-59491500D01*
X16656529Y-59491500D01*
X16588408Y-59471498D01*
X16551764Y-59435502D01*
X16492072Y-59346167D01*
X16184875Y-59038970D01*
X15869499Y-58723595D01*
X15835475Y-58661283D01*
X15840539Y-58590468D01*
X15883086Y-58533632D01*
X15949606Y-58508821D01*
X15958595Y-58508500D01*
X17298632Y-58508500D01*
X17298638Y-58508500D01*
X17298645Y-58508499D01*
X17298649Y-58508499D01*
X17359196Y-58501990D01*
X17359199Y-58501989D01*
X17359201Y-58501989D01*
X17496204Y-58450889D01*
X17506365Y-58443283D01*
X17613261Y-58363261D01*
X17700887Y-58246207D01*
X17700887Y-58246206D01*
X17700889Y-58246204D01*
X17751989Y-58109201D01*
X17753181Y-58098121D01*
X17758499Y-58048649D01*
X17758500Y-58048632D01*
X17758500Y-55951367D01*
X17758499Y-55951350D01*
X17751990Y-55890803D01*
X17751988Y-55890795D01*
X17705831Y-55767047D01*
X17700889Y-55753796D01*
X17700888Y-55753794D01*
X17700887Y-55753792D01*
X17613262Y-55636740D01*
X17564925Y-55600555D01*
X17522379Y-55543719D01*
X17517315Y-55472903D01*
X17551340Y-55410591D01*
X17564927Y-55398818D01*
X17612904Y-55362903D01*
X17700444Y-55245965D01*
X17700444Y-55245964D01*
X17751494Y-55109093D01*
X17757999Y-55048597D01*
X17758000Y-55048585D01*
X17758000Y-54254000D01*
X14242000Y-54254000D01*
X14242000Y-55048597D01*
X14248505Y-55109093D01*
X14299555Y-55245964D01*
X14299555Y-55245965D01*
X14387095Y-55362903D01*
X14435072Y-55398818D01*
X14477619Y-55455654D01*
X14482685Y-55526470D01*
X14451568Y-55585775D01*
X14443966Y-55593899D01*
X14386739Y-55636739D01*
X14318156Y-55728354D01*
X14313423Y-55733413D01*
X14288561Y-55748080D01*
X14265450Y-55765381D01*
X14258379Y-55765886D01*
X14252275Y-55769488D01*
X14223430Y-55768385D01*
X14194634Y-55770445D01*
X14188412Y-55767047D01*
X14181330Y-55766777D01*
X14157659Y-55750254D01*
X14132324Y-55736420D01*
X13720925Y-55325021D01*
X13686899Y-55262709D01*
X13684020Y-55235926D01*
X13684020Y-52951402D01*
X14242000Y-52951402D01*
X14242000Y-53746000D01*
X15746000Y-53746000D01*
X16254000Y-53746000D01*
X17758000Y-53746000D01*
X17758000Y-52951414D01*
X17757999Y-52951402D01*
X17751494Y-52890906D01*
X17700444Y-52754035D01*
X17700444Y-52754034D01*
X17612904Y-52637095D01*
X17495965Y-52549555D01*
X17359093Y-52498505D01*
X17298597Y-52492000D01*
X16254000Y-52492000D01*
X16254000Y-53746000D01*
X15746000Y-53746000D01*
X15746000Y-52492000D01*
X14701402Y-52492000D01*
X14640906Y-52498505D01*
X14504035Y-52549555D01*
X14504034Y-52549555D01*
X14387095Y-52637095D01*
X14299555Y-52754034D01*
X14299555Y-52754035D01*
X14248505Y-52890906D01*
X14242000Y-52951402D01*
X13684020Y-52951402D01*
X13684020Y-47483804D01*
X13704022Y-47415683D01*
X13720925Y-47394709D01*
X14026405Y-47089229D01*
X14088717Y-47055203D01*
X14159532Y-47060268D01*
G37*
G04 #@! TD.AperFunction*
G04 #@! TA.AperFunction,Conductor*
G36*
X37074075Y-47427007D02*
G01*
X37040000Y-47554174D01*
X37040000Y-47685826D01*
X37074075Y-47812993D01*
X37109297Y-47874000D01*
X35430703Y-47874000D01*
X35465925Y-47812993D01*
X35500000Y-47685826D01*
X35500000Y-47554174D01*
X35465925Y-47427007D01*
X35430703Y-47366000D01*
X37109297Y-47366000D01*
X37074075Y-47427007D01*
G37*
G04 #@! TD.AperFunction*
G04 #@! TA.AperFunction,Conductor*
G36*
X35254000Y-47189297D02*
G01*
X35192993Y-47154075D01*
X35065826Y-47120000D01*
X34934174Y-47120000D01*
X34807007Y-47154075D01*
X34746000Y-47189297D01*
X34746000Y-45510702D01*
X34807007Y-45545925D01*
X34934174Y-45580000D01*
X35065826Y-45580000D01*
X35192993Y-45545925D01*
X35254000Y-45510702D01*
X35254000Y-47189297D01*
G37*
G04 #@! TD.AperFunction*
G04 #@! TA.AperFunction,Conductor*
G36*
X37794000Y-47189297D02*
G01*
X37732993Y-47154075D01*
X37605826Y-47120000D01*
X37474174Y-47120000D01*
X37347007Y-47154075D01*
X37286000Y-47189297D01*
X37286000Y-45510702D01*
X37347007Y-45545925D01*
X37474174Y-45580000D01*
X37605826Y-45580000D01*
X37732993Y-45545925D01*
X37794000Y-45510702D01*
X37794000Y-47189297D01*
G37*
G04 #@! TD.AperFunction*
G04 #@! TA.AperFunction,Conductor*
G36*
X37074075Y-44887007D02*
G01*
X37040000Y-45014174D01*
X37040000Y-45145826D01*
X37074075Y-45272993D01*
X37109297Y-45334000D01*
X35430703Y-45334000D01*
X35465925Y-45272993D01*
X35500000Y-45145826D01*
X35500000Y-45014174D01*
X35465925Y-44887007D01*
X35430703Y-44826000D01*
X37109297Y-44826000D01*
X37074075Y-44887007D01*
G37*
G04 #@! TD.AperFunction*
G04 #@! TA.AperFunction,Conductor*
G36*
X35254000Y-44649297D02*
G01*
X35192993Y-44614075D01*
X35065826Y-44580000D01*
X34934174Y-44580000D01*
X34807007Y-44614075D01*
X34746000Y-44649297D01*
X34746000Y-42970702D01*
X34807007Y-43005925D01*
X34934174Y-43040000D01*
X35065826Y-43040000D01*
X35192993Y-43005925D01*
X35254000Y-42970702D01*
X35254000Y-44649297D01*
G37*
G04 #@! TD.AperFunction*
G04 #@! TA.AperFunction,Conductor*
G36*
X37794000Y-44649297D02*
G01*
X37732993Y-44614075D01*
X37605826Y-44580000D01*
X37474174Y-44580000D01*
X37347007Y-44614075D01*
X37286000Y-44649297D01*
X37286000Y-42970702D01*
X37347007Y-43005925D01*
X37474174Y-43040000D01*
X37605826Y-43040000D01*
X37732993Y-43005925D01*
X37794000Y-42970702D01*
X37794000Y-44649297D01*
G37*
G04 #@! TD.AperFunction*
G04 #@! TA.AperFunction,Conductor*
G36*
X37074075Y-42347007D02*
G01*
X37040000Y-42474174D01*
X37040000Y-42605826D01*
X37074075Y-42732993D01*
X37109297Y-42794000D01*
X35430703Y-42794000D01*
X35465925Y-42732993D01*
X35500000Y-42605826D01*
X35500000Y-42474174D01*
X35465925Y-42347007D01*
X35430703Y-42286000D01*
X37109297Y-42286000D01*
X37074075Y-42347007D01*
G37*
G04 #@! TD.AperFunction*
G04 #@! TA.AperFunction,Conductor*
G36*
X39317197Y-45502D02*
G01*
X39363690Y-99158D01*
X39375076Y-151503D01*
X39374115Y-37942883D01*
X39354111Y-38011003D01*
X39300454Y-38057495D01*
X39230180Y-38067597D01*
X39165600Y-38038102D01*
X39159020Y-38031975D01*
X34850067Y-33723022D01*
X34816041Y-33660710D01*
X34821106Y-33589895D01*
X34834392Y-33563934D01*
X34861560Y-33523275D01*
X34909315Y-33407985D01*
X34933660Y-33285594D01*
X34933660Y-33160807D01*
X34933660Y-24737766D01*
X34909315Y-24615375D01*
X34861560Y-24500085D01*
X34792231Y-24396327D01*
X34703993Y-24308089D01*
X34253833Y-23857929D01*
X34150075Y-23788600D01*
X34150073Y-23788599D01*
X34150073Y-23788598D01*
X34142903Y-23785629D01*
X34087622Y-23741081D01*
X34073066Y-23713253D01*
X34060246Y-23678884D01*
X34050889Y-23653796D01*
X34050888Y-23653794D01*
X34050887Y-23653792D01*
X33963261Y-23536738D01*
X33846207Y-23449112D01*
X33846202Y-23449110D01*
X33702447Y-23395491D01*
X33645611Y-23352944D01*
X33620801Y-23286424D01*
X33620480Y-23277436D01*
X33620480Y-17674587D01*
X33620479Y-17674583D01*
X33619166Y-17667981D01*
X33596135Y-17552195D01*
X33572943Y-17496204D01*
X33548381Y-17436905D01*
X33479052Y-17333147D01*
X31653833Y-15507929D01*
X31568464Y-15450887D01*
X31564497Y-15448236D01*
X31518970Y-15393758D01*
X31508500Y-15343471D01*
X31508500Y-14701367D01*
X31508499Y-14701350D01*
X31501990Y-14640803D01*
X31501988Y-14640795D01*
X31450889Y-14503797D01*
X31450887Y-14503792D01*
X31363261Y-14386738D01*
X31246207Y-14299112D01*
X31246202Y-14299110D01*
X31109204Y-14248011D01*
X31109196Y-14248009D01*
X31048649Y-14241500D01*
X31048638Y-14241500D01*
X28951362Y-14241500D01*
X28951350Y-14241500D01*
X28890803Y-14248009D01*
X28890795Y-14248011D01*
X28753797Y-14299110D01*
X28753792Y-14299112D01*
X28636738Y-14386738D01*
X28549112Y-14503792D01*
X28549110Y-14503797D01*
X28498011Y-14640795D01*
X28498009Y-14640803D01*
X28491500Y-14701350D01*
X28491500Y-17298649D01*
X28498009Y-17359196D01*
X28498011Y-17359204D01*
X28549110Y-17496202D01*
X28549112Y-17496207D01*
X28636738Y-17613261D01*
X28753792Y-17700887D01*
X28753794Y-17700888D01*
X28753796Y-17700889D01*
X28812875Y-17722924D01*
X28890795Y-17751988D01*
X28890803Y-17751990D01*
X28951350Y-17758499D01*
X28951355Y-17758499D01*
X28951362Y-17758500D01*
X28951368Y-17758500D01*
X31048632Y-17758500D01*
X31048638Y-17758500D01*
X31048645Y-17758499D01*
X31048649Y-17758499D01*
X31109196Y-17751990D01*
X31109199Y-17751989D01*
X31109201Y-17751989D01*
X31246204Y-17700889D01*
X31290151Y-17667991D01*
X31363261Y-17613261D01*
X31450886Y-17496208D01*
X31450885Y-17496208D01*
X31450889Y-17496204D01*
X31490878Y-17388990D01*
X31533423Y-17332158D01*
X31599944Y-17307347D01*
X31669318Y-17322439D01*
X31698027Y-17343931D01*
X32316575Y-17962479D01*
X32350601Y-18024791D01*
X32353480Y-18051574D01*
X32353480Y-23287148D01*
X32333478Y-23355269D01*
X32279822Y-23401762D01*
X32271514Y-23405203D01*
X32153795Y-23449111D01*
X32153792Y-23449112D01*
X32036738Y-23536738D01*
X31949112Y-23653792D01*
X31949110Y-23653797D01*
X31898011Y-23790795D01*
X31898009Y-23790803D01*
X31891500Y-23851350D01*
X31891500Y-24848649D01*
X31898009Y-24909196D01*
X31898011Y-24909204D01*
X31949110Y-25046202D01*
X31949112Y-25046207D01*
X32036738Y-25163261D01*
X32153792Y-25250887D01*
X32153794Y-25250888D01*
X32153796Y-25250889D01*
X32209686Y-25271735D01*
X32290795Y-25301988D01*
X32290803Y-25301990D01*
X32351350Y-25308499D01*
X32351355Y-25308499D01*
X32351362Y-25308500D01*
X32351368Y-25308500D01*
X33540660Y-25308500D01*
X33608781Y-25328502D01*
X33655274Y-25382158D01*
X33666660Y-25434500D01*
X33666660Y-26565500D01*
X33646658Y-26633621D01*
X33593002Y-26680114D01*
X33540660Y-26691500D01*
X32351350Y-26691500D01*
X32290803Y-26698009D01*
X32290795Y-26698011D01*
X32153797Y-26749110D01*
X32153792Y-26749112D01*
X32036738Y-26836738D01*
X31943711Y-26961010D01*
X31941918Y-26959668D01*
X31900493Y-27001091D01*
X31840113Y-27016500D01*
X30159887Y-27016500D01*
X30091766Y-26996498D01*
X30057724Y-26959935D01*
X30056289Y-26961010D01*
X29963261Y-26836738D01*
X29846207Y-26749112D01*
X29846202Y-26749110D01*
X29709204Y-26698011D01*
X29709196Y-26698009D01*
X29648649Y-26691500D01*
X29648638Y-26691500D01*
X28351362Y-26691500D01*
X28351350Y-26691500D01*
X28290803Y-26698009D01*
X28290795Y-26698011D01*
X28153797Y-26749110D01*
X28153792Y-26749112D01*
X28036738Y-26836738D01*
X27949112Y-26953792D01*
X27949110Y-26953797D01*
X27948875Y-26954428D01*
X27948472Y-26954966D01*
X27944795Y-26961701D01*
X27943826Y-26961172D01*
X27906327Y-27011263D01*
X27839806Y-27036071D01*
X27770432Y-27020978D01*
X27720232Y-26970774D01*
X27704821Y-26910392D01*
X27704821Y-26690017D01*
X27704820Y-26690013D01*
X27680476Y-26567625D01*
X27655749Y-26507929D01*
X27632722Y-26452335D01*
X27563393Y-26348577D01*
X26904633Y-25689818D01*
X26800875Y-25620489D01*
X26685585Y-25572734D01*
X26611886Y-25558074D01*
X26563196Y-25548389D01*
X26563194Y-25548389D01*
X25746948Y-25548389D01*
X25678827Y-25528387D01*
X25632334Y-25474731D01*
X25622230Y-25404457D01*
X25651724Y-25339877D01*
X25702915Y-25304334D01*
X25790314Y-25271735D01*
X25846204Y-25250889D01*
X25867502Y-25234946D01*
X25963261Y-25163261D01*
X26040057Y-25060674D01*
X26050889Y-25046204D01*
X26050890Y-25046202D01*
X26056289Y-25038990D01*
X26058081Y-25040331D01*
X26099507Y-24998909D01*
X26159887Y-24983500D01*
X27840113Y-24983500D01*
X27908234Y-25003502D01*
X27942275Y-25040064D01*
X27943711Y-25038990D01*
X27949110Y-25046202D01*
X27949111Y-25046204D01*
X27959943Y-25060674D01*
X28036738Y-25163261D01*
X28153792Y-25250887D01*
X28153794Y-25250888D01*
X28153796Y-25250889D01*
X28209686Y-25271735D01*
X28290795Y-25301988D01*
X28290803Y-25301990D01*
X28351350Y-25308499D01*
X28351355Y-25308499D01*
X28351362Y-25308500D01*
X28351368Y-25308500D01*
X29648632Y-25308500D01*
X29648638Y-25308500D01*
X29648645Y-25308499D01*
X29648649Y-25308499D01*
X29709196Y-25301990D01*
X29709199Y-25301989D01*
X29709201Y-25301989D01*
X29846204Y-25250889D01*
X29867502Y-25234946D01*
X29963261Y-25163261D01*
X30050887Y-25046207D01*
X30050888Y-25046205D01*
X30050887Y-25046205D01*
X30050889Y-25046204D01*
X30073065Y-24986745D01*
X30115610Y-24929912D01*
X30142900Y-24914371D01*
X30150075Y-24911400D01*
X30253833Y-24842071D01*
X30492071Y-24603833D01*
X30561400Y-24500075D01*
X30609155Y-24384785D01*
X30633500Y-24262394D01*
X30633500Y-24137606D01*
X30633500Y-22884500D01*
X30653502Y-22816379D01*
X30707158Y-22769886D01*
X30759500Y-22758500D01*
X31048632Y-22758500D01*
X31048638Y-22758500D01*
X31048645Y-22758499D01*
X31048649Y-22758499D01*
X31109196Y-22751990D01*
X31109199Y-22751989D01*
X31109201Y-22751989D01*
X31246204Y-22700889D01*
X31363261Y-22613261D01*
X31450889Y-22496204D01*
X31501989Y-22359201D01*
X31507496Y-22307983D01*
X31508499Y-22298649D01*
X31508500Y-22298632D01*
X31508500Y-19701367D01*
X31508499Y-19701350D01*
X31501990Y-19640803D01*
X31501988Y-19640795D01*
X31450889Y-19503797D01*
X31450887Y-19503792D01*
X31363261Y-19386738D01*
X31246207Y-19299112D01*
X31246202Y-19299110D01*
X31109204Y-19248011D01*
X31109196Y-19248009D01*
X31048649Y-19241500D01*
X31048638Y-19241500D01*
X28951362Y-19241500D01*
X28951350Y-19241500D01*
X28890803Y-19248009D01*
X28890795Y-19248011D01*
X28753797Y-19299110D01*
X28753792Y-19299112D01*
X28636738Y-19386738D01*
X28549112Y-19503792D01*
X28549110Y-19503797D01*
X28498011Y-19640795D01*
X28498009Y-19640803D01*
X28491500Y-19701350D01*
X28491500Y-22298649D01*
X28498009Y-22359196D01*
X28498011Y-22359204D01*
X28549110Y-22496202D01*
X28549112Y-22496207D01*
X28636738Y-22613261D01*
X28753792Y-22700887D01*
X28753794Y-22700888D01*
X28753796Y-22700889D01*
X28812875Y-22722924D01*
X28890795Y-22751988D01*
X28890803Y-22751990D01*
X28951350Y-22758499D01*
X28951355Y-22758499D01*
X28951362Y-22758500D01*
X29240500Y-22758500D01*
X29308621Y-22778502D01*
X29355114Y-22832158D01*
X29366500Y-22884500D01*
X29366500Y-23265500D01*
X29346498Y-23333621D01*
X29292842Y-23380114D01*
X29240500Y-23391500D01*
X28351350Y-23391500D01*
X28290803Y-23398009D01*
X28290795Y-23398011D01*
X28153797Y-23449110D01*
X28153792Y-23449112D01*
X28036738Y-23536738D01*
X27943711Y-23661010D01*
X27941918Y-23659668D01*
X27900493Y-23701091D01*
X27840113Y-23716500D01*
X26159887Y-23716500D01*
X26091766Y-23696498D01*
X26057724Y-23659935D01*
X26056289Y-23661010D01*
X26035695Y-23633500D01*
X25997690Y-23582730D01*
X25963261Y-23536738D01*
X25846207Y-23449112D01*
X25846202Y-23449110D01*
X25709204Y-23398011D01*
X25709196Y-23398009D01*
X25648649Y-23391500D01*
X25648638Y-23391500D01*
X24351362Y-23391500D01*
X24351350Y-23391500D01*
X24290803Y-23398009D01*
X24290795Y-23398011D01*
X24153797Y-23449110D01*
X24153792Y-23449112D01*
X24036738Y-23536738D01*
X24002310Y-23582730D01*
X23945474Y-23625277D01*
X23874658Y-23630341D01*
X23812346Y-23596316D01*
X23778321Y-23534004D01*
X23775442Y-23507221D01*
X23775442Y-22922652D01*
X23795444Y-22854531D01*
X23812341Y-22833562D01*
X24301975Y-22343928D01*
X24364284Y-22309906D01*
X24435099Y-22314970D01*
X24491935Y-22357517D01*
X24509122Y-22388992D01*
X24549111Y-22496204D01*
X24549112Y-22496207D01*
X24636738Y-22613261D01*
X24753792Y-22700887D01*
X24753794Y-22700888D01*
X24753796Y-22700889D01*
X24812875Y-22722924D01*
X24890795Y-22751988D01*
X24890803Y-22751990D01*
X24951350Y-22758499D01*
X24951355Y-22758499D01*
X24951362Y-22758500D01*
X24951368Y-22758500D01*
X27048632Y-22758500D01*
X27048638Y-22758500D01*
X27048645Y-22758499D01*
X27048649Y-22758499D01*
X27109196Y-22751990D01*
X27109199Y-22751989D01*
X27109201Y-22751989D01*
X27246204Y-22700889D01*
X27363261Y-22613261D01*
X27450889Y-22496204D01*
X27501989Y-22359201D01*
X27507496Y-22307983D01*
X27508499Y-22298649D01*
X27508500Y-22298632D01*
X27508500Y-19701367D01*
X27508499Y-19701350D01*
X27501990Y-19640803D01*
X27501988Y-19640795D01*
X27450889Y-19503797D01*
X27450887Y-19503792D01*
X27363261Y-19386738D01*
X27246207Y-19299112D01*
X27246202Y-19299110D01*
X27109204Y-19248011D01*
X27109196Y-19248009D01*
X27048649Y-19241500D01*
X27048638Y-19241500D01*
X24951362Y-19241500D01*
X24951350Y-19241500D01*
X24890803Y-19248009D01*
X24890795Y-19248011D01*
X24753797Y-19299110D01*
X24753792Y-19299112D01*
X24636738Y-19386738D01*
X24549112Y-19503792D01*
X24549110Y-19503797D01*
X24498011Y-19640795D01*
X24498009Y-19640803D01*
X24491500Y-19701350D01*
X24491500Y-20160500D01*
X24471498Y-20228621D01*
X24417842Y-20275114D01*
X24365500Y-20286500D01*
X19994034Y-20286500D01*
X19925913Y-20266498D01*
X19879420Y-20212842D01*
X19869316Y-20142568D01*
X19898810Y-20077988D01*
X19904939Y-20071405D01*
X23305940Y-16670405D01*
X23368252Y-16636379D01*
X23395035Y-16633500D01*
X24365500Y-16633500D01*
X24433621Y-16653502D01*
X24480114Y-16707158D01*
X24491500Y-16759500D01*
X24491500Y-17298649D01*
X24498009Y-17359196D01*
X24498011Y-17359204D01*
X24549110Y-17496202D01*
X24549112Y-17496207D01*
X24636738Y-17613261D01*
X24753792Y-17700887D01*
X24753794Y-17700888D01*
X24753796Y-17700889D01*
X24812875Y-17722924D01*
X24890795Y-17751988D01*
X24890803Y-17751990D01*
X24951350Y-17758499D01*
X24951355Y-17758499D01*
X24951362Y-17758500D01*
X24951368Y-17758500D01*
X27048632Y-17758500D01*
X27048638Y-17758500D01*
X27048645Y-17758499D01*
X27048649Y-17758499D01*
X27109196Y-17751990D01*
X27109199Y-17751989D01*
X27109201Y-17751989D01*
X27246204Y-17700889D01*
X27290151Y-17667991D01*
X27363261Y-17613261D01*
X27450887Y-17496207D01*
X27450887Y-17496206D01*
X27450889Y-17496204D01*
X27501989Y-17359201D01*
X27503646Y-17343796D01*
X27508499Y-17298649D01*
X27508500Y-17298632D01*
X27508500Y-14701367D01*
X27508499Y-14701350D01*
X27501990Y-14640803D01*
X27501988Y-14640795D01*
X27450889Y-14503797D01*
X27450887Y-14503792D01*
X27363261Y-14386738D01*
X27246207Y-14299112D01*
X27246202Y-14299110D01*
X27109204Y-14248011D01*
X27109196Y-14248009D01*
X27048649Y-14241500D01*
X27048638Y-14241500D01*
X26759500Y-14241500D01*
X26691379Y-14221498D01*
X26644886Y-14167842D01*
X26633500Y-14115500D01*
X26633500Y-12884500D01*
X26653502Y-12816379D01*
X26707158Y-12769886D01*
X26759500Y-12758500D01*
X27048632Y-12758500D01*
X27048638Y-12758500D01*
X27048645Y-12758499D01*
X27048649Y-12758499D01*
X27109196Y-12751990D01*
X27109199Y-12751989D01*
X27109201Y-12751989D01*
X27246204Y-12700889D01*
X27246799Y-12700444D01*
X27363261Y-12613261D01*
X27450887Y-12496207D01*
X27450887Y-12496206D01*
X27450889Y-12496204D01*
X27500475Y-12363261D01*
X27501988Y-12359204D01*
X27501990Y-12359196D01*
X27508499Y-12298649D01*
X27508500Y-12298632D01*
X27508500Y-12298597D01*
X28492000Y-12298597D01*
X28498505Y-12359093D01*
X28549555Y-12495964D01*
X28549555Y-12495965D01*
X28637095Y-12612904D01*
X28754034Y-12700444D01*
X28890906Y-12751494D01*
X28951402Y-12757999D01*
X28951415Y-12758000D01*
X29746000Y-12758000D01*
X30254000Y-12758000D01*
X31048585Y-12758000D01*
X31048597Y-12757999D01*
X31109093Y-12751494D01*
X31245964Y-12700444D01*
X31245965Y-12700444D01*
X31362904Y-12612904D01*
X31450444Y-12495965D01*
X31450444Y-12495964D01*
X31501494Y-12359093D01*
X31507999Y-12298597D01*
X31508000Y-12298585D01*
X31508000Y-11254000D01*
X30254000Y-11254000D01*
X30254000Y-12758000D01*
X29746000Y-12758000D01*
X29746000Y-11254000D01*
X28492000Y-11254000D01*
X28492000Y-12298597D01*
X27508500Y-12298597D01*
X27508500Y-9701402D01*
X28492000Y-9701402D01*
X28492000Y-10746000D01*
X29746000Y-10746000D01*
X30254000Y-10746000D01*
X31508000Y-10746000D01*
X31508000Y-9701414D01*
X31507999Y-9701402D01*
X31501494Y-9640906D01*
X31450444Y-9504035D01*
X31450444Y-9504034D01*
X31362904Y-9387095D01*
X31245965Y-9299555D01*
X31109093Y-9248505D01*
X31048597Y-9242000D01*
X30254000Y-9242000D01*
X30254000Y-10746000D01*
X29746000Y-10746000D01*
X29746000Y-9242000D01*
X28951402Y-9242000D01*
X28890906Y-9248505D01*
X28754035Y-9299555D01*
X28754034Y-9299555D01*
X28637095Y-9387095D01*
X28549555Y-9504034D01*
X28549555Y-9504035D01*
X28498505Y-9640906D01*
X28492000Y-9701402D01*
X27508500Y-9701402D01*
X27508500Y-9701367D01*
X27508499Y-9701350D01*
X27501990Y-9640803D01*
X27501988Y-9640795D01*
X27450978Y-9504035D01*
X27450889Y-9503796D01*
X27450888Y-9503794D01*
X27450887Y-9503792D01*
X27363261Y-9386738D01*
X27246207Y-9299112D01*
X27246202Y-9299110D01*
X27109204Y-9248011D01*
X27109196Y-9248009D01*
X27048649Y-9241500D01*
X27048638Y-9241500D01*
X24951362Y-9241500D01*
X24951350Y-9241500D01*
X24890803Y-9248009D01*
X24890795Y-9248011D01*
X24753797Y-9299110D01*
X24753792Y-9299112D01*
X24636738Y-9386738D01*
X24549112Y-9503792D01*
X24549110Y-9503797D01*
X24498011Y-9640795D01*
X24498009Y-9640803D01*
X24491500Y-9701350D01*
X24491500Y-12298649D01*
X24498009Y-12359196D01*
X24498011Y-12359204D01*
X24549110Y-12496202D01*
X24549112Y-12496207D01*
X24636738Y-12613261D01*
X24753792Y-12700887D01*
X24753794Y-12700888D01*
X24753796Y-12700889D01*
X24812875Y-12722924D01*
X24890795Y-12751988D01*
X24890803Y-12751990D01*
X24951350Y-12758499D01*
X24951355Y-12758499D01*
X24951362Y-12758500D01*
X25240500Y-12758500D01*
X25308621Y-12778502D01*
X25355114Y-12832158D01*
X25366500Y-12884500D01*
X25366500Y-14115500D01*
X25346498Y-14183621D01*
X25292842Y-14230114D01*
X25240500Y-14241500D01*
X24951350Y-14241500D01*
X24890803Y-14248009D01*
X24890795Y-14248011D01*
X24753797Y-14299110D01*
X24753792Y-14299112D01*
X24636738Y-14386738D01*
X24549112Y-14503792D01*
X24549110Y-14503797D01*
X24498011Y-14640795D01*
X24498009Y-14640803D01*
X24491500Y-14701350D01*
X24491500Y-15240500D01*
X24471498Y-15308621D01*
X24417842Y-15355114D01*
X24365500Y-15366500D01*
X23018040Y-15366500D01*
X22895657Y-15390844D01*
X22895649Y-15390846D01*
X22861887Y-15404830D01*
X22861887Y-15404831D01*
X22821940Y-15421378D01*
X22780365Y-15438599D01*
X22676607Y-15507927D01*
X22676601Y-15507932D01*
X19177561Y-19006975D01*
X19115249Y-19041000D01*
X19088466Y-19043880D01*
X17884500Y-19043880D01*
X17816379Y-19023878D01*
X17769886Y-18970222D01*
X17758500Y-18917880D01*
X17758500Y-16951367D01*
X17758499Y-16951350D01*
X17751990Y-16890803D01*
X17751988Y-16890795D01*
X17722924Y-16812875D01*
X17700889Y-16753796D01*
X17700888Y-16753794D01*
X17700887Y-16753792D01*
X17613261Y-16636738D01*
X17496207Y-16549112D01*
X17496202Y-16549110D01*
X17359204Y-16498011D01*
X17359196Y-16498009D01*
X17298649Y-16491500D01*
X17298638Y-16491500D01*
X14701362Y-16491500D01*
X14701350Y-16491500D01*
X14640803Y-16498009D01*
X14640795Y-16498011D01*
X14503797Y-16549110D01*
X14503792Y-16549112D01*
X14386738Y-16636738D01*
X14299112Y-16753792D01*
X14299110Y-16753797D01*
X14248011Y-16890795D01*
X14248009Y-16890803D01*
X14241500Y-16951350D01*
X14241500Y-17620500D01*
X14221498Y-17688621D01*
X14167842Y-17735114D01*
X14115500Y-17746500D01*
X13719109Y-17746500D01*
X13650988Y-17726498D01*
X13606844Y-17677706D01*
X13605253Y-17674583D01*
X13601894Y-17667991D01*
X13476206Y-17494996D01*
X13476203Y-17494993D01*
X13476201Y-17494990D01*
X13325009Y-17343798D01*
X13325006Y-17343796D01*
X13325004Y-17343794D01*
X13152009Y-17218106D01*
X12961483Y-17121028D01*
X12961480Y-17121027D01*
X12961478Y-17121026D01*
X12758120Y-17054952D01*
X12758123Y-17054952D01*
X12718801Y-17048724D01*
X12546916Y-17021500D01*
X12333084Y-17021500D01*
X12121884Y-17054951D01*
X12121878Y-17054952D01*
X11918521Y-17121026D01*
X11918515Y-17121029D01*
X11727987Y-17218108D01*
X11554993Y-17343796D01*
X11554990Y-17343798D01*
X11403798Y-17494990D01*
X11403796Y-17494993D01*
X11278108Y-17667987D01*
X11181029Y-17858515D01*
X11181026Y-17858521D01*
X11114952Y-18061878D01*
X11114951Y-18061883D01*
X11114951Y-18061884D01*
X11081500Y-18273084D01*
X11081500Y-18486916D01*
X11114951Y-18698116D01*
X11114952Y-18698121D01*
X11181026Y-18901478D01*
X11181028Y-18901483D01*
X11278106Y-19092009D01*
X11364230Y-19210549D01*
X11388088Y-19277415D01*
X11372008Y-19346567D01*
X11351390Y-19373704D01*
X10767087Y-19958007D01*
X10678851Y-20046242D01*
X10678846Y-20046249D01*
X10662038Y-20071405D01*
X10609520Y-20150003D01*
X10561765Y-20265293D01*
X10557547Y-20286500D01*
X10537420Y-20387681D01*
X10537420Y-20387684D01*
X10537420Y-22128526D01*
X10537420Y-22253314D01*
X10561765Y-22375705D01*
X10609520Y-22490995D01*
X10678849Y-22594753D01*
X10678851Y-22594755D01*
X11087581Y-23003485D01*
X11121607Y-23065797D01*
X11118321Y-23131510D01*
X11114952Y-23141879D01*
X11114951Y-23141882D01*
X11114951Y-23141884D01*
X11081500Y-23353084D01*
X11081500Y-23566916D01*
X11112817Y-23764640D01*
X11114952Y-23778121D01*
X11181026Y-23981478D01*
X11181033Y-23981493D01*
X11183634Y-23986599D01*
X11196734Y-24056376D01*
X11170030Y-24122159D01*
X11141367Y-24148560D01*
X11038867Y-24217049D01*
X11038864Y-24217051D01*
X10531531Y-24724384D01*
X10531526Y-24724391D01*
X10522589Y-24737767D01*
X10462200Y-24828145D01*
X10453707Y-24848649D01*
X10414446Y-24943432D01*
X10390100Y-25065823D01*
X10390100Y-25065826D01*
X10390100Y-34499386D01*
X10390100Y-34624174D01*
X10414445Y-34746565D01*
X10462200Y-34861855D01*
X10531529Y-34965613D01*
X10531531Y-34965615D01*
X16842321Y-41276405D01*
X16876347Y-41338717D01*
X16871282Y-41409532D01*
X16828735Y-41466368D01*
X16762215Y-41491179D01*
X16753226Y-41491500D01*
X14701350Y-41491500D01*
X14640803Y-41498009D01*
X14640795Y-41498011D01*
X14503797Y-41549110D01*
X14503792Y-41549112D01*
X14386738Y-41636738D01*
X14299112Y-41753792D01*
X14299110Y-41753797D01*
X14248011Y-41890795D01*
X14248009Y-41890803D01*
X14241500Y-41951350D01*
X14241500Y-42240500D01*
X14221498Y-42308621D01*
X14167842Y-42355114D01*
X14115500Y-42366500D01*
X6212527Y-42366500D01*
X6144406Y-42346498D01*
X6097913Y-42292842D01*
X6088078Y-42260211D01*
X6082025Y-42221995D01*
X6073818Y-42170176D01*
X6005308Y-41959324D01*
X5904657Y-41761785D01*
X5774343Y-41582424D01*
X5774341Y-41582421D01*
X5617578Y-41425658D01*
X5516108Y-41351936D01*
X5472754Y-41295713D01*
X5466679Y-41224977D01*
X5499811Y-41162186D01*
X5516108Y-41148064D01*
X5579281Y-41102166D01*
X5617576Y-41074343D01*
X5774343Y-40917576D01*
X5904657Y-40738215D01*
X6005308Y-40540676D01*
X6073818Y-40329824D01*
X6108500Y-40110851D01*
X6108500Y-39889149D01*
X6103922Y-39860247D01*
X6113021Y-39789840D01*
X6158743Y-39735525D01*
X6226571Y-39714552D01*
X6294970Y-39733578D01*
X6306931Y-39742029D01*
X6372231Y-39794105D01*
X6372238Y-39794109D01*
X6372241Y-39794112D01*
X6432791Y-39832158D01*
X6639331Y-39961936D01*
X6639334Y-39961937D01*
X6639335Y-39961938D01*
X6923540Y-40098804D01*
X6923556Y-40098809D01*
X6923557Y-40098810D01*
X7221275Y-40202986D01*
X7221278Y-40202986D01*
X7221282Y-40202988D01*
X7528818Y-40273181D01*
X7751088Y-40298225D01*
X7842276Y-40308500D01*
X7842278Y-40308500D01*
X8157724Y-40308500D01*
X8237332Y-40299529D01*
X8471182Y-40273181D01*
X8778718Y-40202988D01*
X9076460Y-40098804D01*
X9360665Y-39961938D01*
X9627759Y-39794112D01*
X9874383Y-39597435D01*
X10097435Y-39374383D01*
X10294112Y-39127759D01*
X10461938Y-38860665D01*
X10598804Y-38576460D01*
X10702988Y-38278718D01*
X10773181Y-37971182D01*
X10808500Y-37657722D01*
X10808500Y-37342278D01*
X10773181Y-37028818D01*
X10702988Y-36721282D01*
X10696019Y-36701367D01*
X10598810Y-36423557D01*
X10598809Y-36423556D01*
X10598804Y-36423540D01*
X10461938Y-36139335D01*
X10461937Y-36139334D01*
X10461936Y-36139331D01*
X10356448Y-35971448D01*
X10294112Y-35872241D01*
X10294109Y-35872237D01*
X10294105Y-35872231D01*
X10097436Y-35625618D01*
X10097427Y-35625608D01*
X9874391Y-35402572D01*
X9874381Y-35402563D01*
X9627768Y-35205894D01*
X9627762Y-35205890D01*
X9620759Y-35201490D01*
X9473874Y-35109196D01*
X9360667Y-35038063D01*
X9360665Y-35038062D01*
X9076469Y-34901200D01*
X9076464Y-34901198D01*
X9076460Y-34901196D01*
X9076454Y-34901193D01*
X9076442Y-34901189D01*
X8778724Y-34797013D01*
X8471185Y-34726819D01*
X8157724Y-34691500D01*
X8157722Y-34691500D01*
X7842278Y-34691500D01*
X7842276Y-34691500D01*
X7528814Y-34726819D01*
X7221275Y-34797013D01*
X6923557Y-34901189D01*
X6923530Y-34901200D01*
X6639335Y-35038062D01*
X6639332Y-35038063D01*
X6372237Y-35205890D01*
X6372231Y-35205894D01*
X6125618Y-35402563D01*
X6125608Y-35402572D01*
X5902572Y-35625608D01*
X5902563Y-35625618D01*
X5705894Y-35872231D01*
X5705890Y-35872237D01*
X5538063Y-36139331D01*
X5401200Y-36423530D01*
X5401189Y-36423557D01*
X5297013Y-36721275D01*
X5226819Y-37028814D01*
X5191500Y-37342276D01*
X5191500Y-37657723D01*
X5226819Y-37971185D01*
X5242093Y-38038102D01*
X5297012Y-38278718D01*
X5297014Y-38278724D01*
X5297013Y-38278724D01*
X5384474Y-38528673D01*
X5388093Y-38599577D01*
X5352804Y-38661183D01*
X5289811Y-38693929D01*
X5226609Y-38690121D01*
X5029827Y-38626183D01*
X5029831Y-38626183D01*
X4986531Y-38619325D01*
X4810851Y-38591500D01*
X4589149Y-38591500D01*
X4370176Y-38626182D01*
X4370170Y-38626183D01*
X4159328Y-38694690D01*
X4159322Y-38694693D01*
X3961781Y-38795345D01*
X3782421Y-38925658D01*
X3625658Y-39082421D01*
X3547817Y-39189561D01*
X3491594Y-39232915D01*
X3445881Y-39241500D01*
X2937650Y-39241500D01*
X2873476Y-39254266D01*
X2791113Y-39270649D01*
X2791110Y-39270650D01*
X2653076Y-39327826D01*
X2528846Y-39410833D01*
X2528840Y-39410838D01*
X240595Y-41699084D01*
X178283Y-41733110D01*
X107468Y-41728045D01*
X50632Y-41685498D01*
X25821Y-41618978D01*
X25500Y-41609989D01*
X25500Y-10951350D01*
X3791500Y-10951350D01*
X3791500Y-12048649D01*
X3798009Y-12109196D01*
X3798011Y-12109204D01*
X3849110Y-12246202D01*
X3849112Y-12246207D01*
X3936738Y-12363261D01*
X4053792Y-12450887D01*
X4053794Y-12450888D01*
X4053796Y-12450889D01*
X4112875Y-12472924D01*
X4190795Y-12501988D01*
X4190803Y-12501990D01*
X4251350Y-12508499D01*
X4251355Y-12508499D01*
X4251362Y-12508500D01*
X4251368Y-12508500D01*
X6548632Y-12508500D01*
X6548638Y-12508500D01*
X6548645Y-12508499D01*
X6548649Y-12508499D01*
X6609196Y-12501990D01*
X6609199Y-12501989D01*
X6609201Y-12501989D01*
X6625355Y-12495964D01*
X6628045Y-12494960D01*
X6746204Y-12450889D01*
X6863261Y-12363261D01*
X6866381Y-12359093D01*
X6950887Y-12246207D01*
X6950887Y-12246206D01*
X6950889Y-12246204D01*
X7001989Y-12109201D01*
X7008500Y-12048638D01*
X7008500Y-10951362D01*
X7008499Y-10951350D01*
X7001990Y-10890803D01*
X7001988Y-10890795D01*
X6950889Y-10753797D01*
X6950887Y-10753792D01*
X6863261Y-10636738D01*
X6746207Y-10549112D01*
X6738299Y-10544795D01*
X6739216Y-10543115D01*
X6691403Y-10507319D01*
X6666597Y-10440797D01*
X6681692Y-10371424D01*
X6703177Y-10342725D01*
X7194552Y-9851350D01*
X11991500Y-9851350D01*
X11991500Y-12148649D01*
X11998009Y-12209196D01*
X11998011Y-12209204D01*
X12049110Y-12346202D01*
X12049112Y-12346207D01*
X12136738Y-12463261D01*
X12253792Y-12550887D01*
X12253794Y-12550888D01*
X12253796Y-12550889D01*
X12312875Y-12572924D01*
X12390795Y-12601988D01*
X12390803Y-12601990D01*
X12451350Y-12608499D01*
X12451355Y-12608499D01*
X12451362Y-12608500D01*
X12451368Y-12608500D01*
X13548632Y-12608500D01*
X13548638Y-12608500D01*
X13548645Y-12608499D01*
X13548649Y-12608499D01*
X13609196Y-12601990D01*
X13609199Y-12601989D01*
X13609201Y-12601989D01*
X13612207Y-12600868D01*
X13643768Y-12589096D01*
X13746204Y-12550889D01*
X13778405Y-12526784D01*
X13863261Y-12463261D01*
X13950887Y-12346207D01*
X13950887Y-12346206D01*
X13950889Y-12346204D01*
X14001989Y-12209201D01*
X14008385Y-12149708D01*
X14035553Y-12084115D01*
X14093871Y-12043623D01*
X14164822Y-12041088D01*
X14225881Y-12077315D01*
X14251718Y-12119142D01*
X14299110Y-12246202D01*
X14299112Y-12246207D01*
X14386737Y-12363259D01*
X14386738Y-12363259D01*
X14386739Y-12363261D01*
X14434657Y-12399132D01*
X14477203Y-12455968D01*
X14482267Y-12526784D01*
X14448242Y-12589096D01*
X14434657Y-12600868D01*
X14386737Y-12636740D01*
X14299112Y-12753792D01*
X14299110Y-12753797D01*
X14248011Y-12890795D01*
X14248009Y-12890803D01*
X14241500Y-12951350D01*
X14241500Y-15048649D01*
X14248009Y-15109196D01*
X14248011Y-15109204D01*
X14299110Y-15246202D01*
X14299112Y-15246207D01*
X14386738Y-15363261D01*
X14503792Y-15450887D01*
X14503794Y-15450888D01*
X14503796Y-15450889D01*
X14562875Y-15472924D01*
X14640795Y-15501988D01*
X14640803Y-15501990D01*
X14701350Y-15508499D01*
X14701355Y-15508499D01*
X14701362Y-15508500D01*
X14701368Y-15508500D01*
X17298632Y-15508500D01*
X17298638Y-15508500D01*
X17298645Y-15508499D01*
X17298649Y-15508499D01*
X17359196Y-15501990D01*
X17359199Y-15501989D01*
X17359201Y-15501989D01*
X17496204Y-15450889D01*
X17512622Y-15438599D01*
X17613261Y-15363261D01*
X17700887Y-15246207D01*
X17700887Y-15246206D01*
X17700889Y-15246204D01*
X17751989Y-15109201D01*
X17758500Y-15048638D01*
X17758500Y-12951362D01*
X17758499Y-12951350D01*
X17751990Y-12890803D01*
X17751988Y-12890795D01*
X17706890Y-12769886D01*
X17700889Y-12753796D01*
X17700888Y-12753794D01*
X17700887Y-12753792D01*
X17613261Y-12636738D01*
X17565343Y-12600868D01*
X17522796Y-12544033D01*
X17517731Y-12473217D01*
X17551756Y-12410905D01*
X17565343Y-12399132D01*
X17613261Y-12363261D01*
X17700887Y-12246207D01*
X17700887Y-12246206D01*
X17700889Y-12246204D01*
X17751989Y-12109201D01*
X17758500Y-12048638D01*
X17758500Y-9951362D01*
X17758499Y-9951350D01*
X17751990Y-9890803D01*
X17751988Y-9890795D01*
X17714692Y-9790803D01*
X17700889Y-9753796D01*
X17700888Y-9753794D01*
X17700887Y-9753792D01*
X17613261Y-9636738D01*
X17496207Y-9549112D01*
X17496202Y-9549110D01*
X17359204Y-9498011D01*
X17359196Y-9498009D01*
X17298649Y-9491500D01*
X17298638Y-9491500D01*
X14701362Y-9491500D01*
X14701350Y-9491500D01*
X14640803Y-9498009D01*
X14640795Y-9498011D01*
X14503797Y-9549110D01*
X14503792Y-9549112D01*
X14386738Y-9636738D01*
X14299112Y-9753792D01*
X14299111Y-9753795D01*
X14251718Y-9880858D01*
X14209171Y-9937693D01*
X14142650Y-9962503D01*
X14073276Y-9947411D01*
X14023075Y-9897208D01*
X14008385Y-9850291D01*
X14001990Y-9790803D01*
X14001988Y-9790795D01*
X13950889Y-9653797D01*
X13950887Y-9653792D01*
X13863261Y-9536738D01*
X13746207Y-9449112D01*
X13746202Y-9449110D01*
X13609204Y-9398011D01*
X13609196Y-9398009D01*
X13548649Y-9391500D01*
X13548638Y-9391500D01*
X12451362Y-9391500D01*
X12451350Y-9391500D01*
X12390803Y-9398009D01*
X12390795Y-9398011D01*
X12253797Y-9449110D01*
X12253792Y-9449112D01*
X12136738Y-9536738D01*
X12049112Y-9653792D01*
X12049110Y-9653797D01*
X11998011Y-9790795D01*
X11998009Y-9790803D01*
X11991500Y-9851350D01*
X7194552Y-9851350D01*
X9375499Y-7670405D01*
X9437811Y-7636379D01*
X9464594Y-7633500D01*
X14115500Y-7633500D01*
X14183621Y-7653502D01*
X14230114Y-7707158D01*
X14241500Y-7759500D01*
X14241500Y-8048649D01*
X14248009Y-8109196D01*
X14248011Y-8109204D01*
X14299110Y-8246202D01*
X14299112Y-8246207D01*
X14386738Y-8363261D01*
X14503792Y-8450887D01*
X14503794Y-8450888D01*
X14503796Y-8450889D01*
X14562875Y-8472924D01*
X14640795Y-8501988D01*
X14640803Y-8501990D01*
X14701350Y-8508499D01*
X14701355Y-8508499D01*
X14701362Y-8508500D01*
X14701368Y-8508500D01*
X17298632Y-8508500D01*
X17298638Y-8508500D01*
X17298645Y-8508499D01*
X17298649Y-8508499D01*
X17359196Y-8501990D01*
X17359199Y-8501989D01*
X17359201Y-8501989D01*
X17496204Y-8450889D01*
X17613261Y-8363261D01*
X17700889Y-8246204D01*
X17751989Y-8109201D01*
X17758500Y-8048638D01*
X17758500Y-5951362D01*
X17758499Y-5951350D01*
X17751990Y-5890803D01*
X17751988Y-5890795D01*
X17700889Y-5753797D01*
X17700887Y-5753792D01*
X17613261Y-5636738D01*
X17496207Y-5549112D01*
X17496202Y-5549110D01*
X17359204Y-5498011D01*
X17359196Y-5498009D01*
X17298649Y-5491500D01*
X17298638Y-5491500D01*
X14701362Y-5491500D01*
X14701350Y-5491500D01*
X14640803Y-5498009D01*
X14640795Y-5498011D01*
X14503797Y-5549110D01*
X14503792Y-5549112D01*
X14386738Y-5636738D01*
X14299112Y-5753792D01*
X14299110Y-5753797D01*
X14248011Y-5890795D01*
X14248009Y-5890803D01*
X14241500Y-5951350D01*
X14241500Y-6240500D01*
X14221498Y-6308621D01*
X14167842Y-6355114D01*
X14115500Y-6366500D01*
X9087603Y-6366500D01*
X9014568Y-6381028D01*
X8965215Y-6390845D01*
X8965213Y-6390845D01*
X8965212Y-6390846D01*
X8849923Y-6438601D01*
X8746171Y-6507926D01*
X8746164Y-6507931D01*
X4907931Y-10346164D01*
X4907926Y-10346171D01*
X4848237Y-10435502D01*
X4793760Y-10481030D01*
X4743472Y-10491500D01*
X4251350Y-10491500D01*
X4190803Y-10498009D01*
X4190795Y-10498011D01*
X4053797Y-10549110D01*
X4053792Y-10549112D01*
X3936738Y-10636738D01*
X3849112Y-10753792D01*
X3849110Y-10753797D01*
X3798011Y-10890795D01*
X3798009Y-10890803D01*
X3791500Y-10951350D01*
X25500Y-10951350D01*
X25500Y-8148597D01*
X992000Y-8148597D01*
X998505Y-8209093D01*
X1049555Y-8345964D01*
X1049555Y-8345965D01*
X1137095Y-8462904D01*
X1254034Y-8550444D01*
X1390906Y-8601494D01*
X1451402Y-8607999D01*
X1451415Y-8608000D01*
X1746000Y-8608000D01*
X2254000Y-8608000D01*
X2548585Y-8608000D01*
X2548597Y-8607999D01*
X2609093Y-8601494D01*
X2745964Y-8550444D01*
X2745965Y-8550444D01*
X2862904Y-8462904D01*
X2950444Y-8345965D01*
X2950444Y-8345964D01*
X3001494Y-8209093D01*
X3007999Y-8148597D01*
X3008000Y-8148585D01*
X3008000Y-7254000D01*
X2254000Y-7254000D01*
X2254000Y-8608000D01*
X1746000Y-8608000D01*
X1746000Y-7254000D01*
X992000Y-7254000D01*
X992000Y-8148597D01*
X25500Y-8148597D01*
X25500Y-5851402D01*
X992000Y-5851402D01*
X992000Y-6746000D01*
X1746000Y-6746000D01*
X1746000Y-6560218D01*
X1800000Y-6560218D01*
X1800000Y-7439782D01*
X1830448Y-7513291D01*
X1886709Y-7569552D01*
X1960218Y-7600000D01*
X2039782Y-7600000D01*
X2113291Y-7569552D01*
X2169552Y-7513291D01*
X2200000Y-7439782D01*
X2200000Y-6746000D01*
X2254000Y-6746000D01*
X3008000Y-6746000D01*
X3008000Y-5851414D01*
X3007999Y-5851402D01*
X3001494Y-5790906D01*
X2950444Y-5654035D01*
X2950444Y-5654034D01*
X2862904Y-5537095D01*
X2745965Y-5449555D01*
X2609093Y-5398505D01*
X2548597Y-5392000D01*
X2254000Y-5392000D01*
X2254000Y-6746000D01*
X2200000Y-6746000D01*
X2200000Y-6560218D01*
X2169552Y-6486709D01*
X2113291Y-6430448D01*
X2039782Y-6400000D01*
X1960218Y-6400000D01*
X1886709Y-6430448D01*
X1830448Y-6486709D01*
X1800000Y-6560218D01*
X1746000Y-6560218D01*
X1746000Y-5392000D01*
X1451402Y-5392000D01*
X1390906Y-5398505D01*
X1254035Y-5449555D01*
X1254034Y-5449555D01*
X1137095Y-5537095D01*
X1049555Y-5654034D01*
X1049555Y-5654035D01*
X998505Y-5790906D01*
X992000Y-5851402D01*
X25500Y-5851402D01*
X25500Y-3951350D01*
X6791500Y-3951350D01*
X6791500Y-5048649D01*
X6798009Y-5109196D01*
X6798011Y-5109204D01*
X6849110Y-5246202D01*
X6849112Y-5246207D01*
X6936738Y-5363261D01*
X7053792Y-5450887D01*
X7053794Y-5450888D01*
X7053796Y-5450889D01*
X7112875Y-5472924D01*
X7190795Y-5501988D01*
X7190803Y-5501990D01*
X7251350Y-5508499D01*
X7251355Y-5508499D01*
X7251362Y-5508500D01*
X7251368Y-5508500D01*
X9548632Y-5508500D01*
X9548638Y-5508500D01*
X9548645Y-5508499D01*
X9548649Y-5508499D01*
X9609196Y-5501990D01*
X9609199Y-5501989D01*
X9609201Y-5501989D01*
X9746204Y-5450889D01*
X9863261Y-5363261D01*
X9950889Y-5246204D01*
X10001989Y-5109201D01*
X10008500Y-5048638D01*
X10008500Y-3951362D01*
X10008499Y-3951350D01*
X10001990Y-3890803D01*
X10001988Y-3890795D01*
X9950889Y-3753797D01*
X9950887Y-3753792D01*
X9863261Y-3636738D01*
X9746207Y-3549112D01*
X9746202Y-3549110D01*
X9609204Y-3498011D01*
X9609196Y-3498009D01*
X9548649Y-3491500D01*
X9548638Y-3491500D01*
X7251362Y-3491500D01*
X7251350Y-3491500D01*
X7190803Y-3498009D01*
X7190795Y-3498011D01*
X7053797Y-3549110D01*
X7053792Y-3549112D01*
X6936738Y-3636738D01*
X6849112Y-3753792D01*
X6849110Y-3753797D01*
X6798011Y-3890795D01*
X6798009Y-3890803D01*
X6791500Y-3951350D01*
X25500Y-3951350D01*
X25500Y-1251350D01*
X8191500Y-1251350D01*
X8191500Y-2348649D01*
X8198009Y-2409196D01*
X8198011Y-2409204D01*
X8249110Y-2546202D01*
X8249112Y-2546207D01*
X8336738Y-2663261D01*
X8453792Y-2750887D01*
X8453794Y-2750888D01*
X8453796Y-2750889D01*
X8512875Y-2772924D01*
X8590795Y-2801988D01*
X8590803Y-2801990D01*
X8651350Y-2808499D01*
X8651355Y-2808499D01*
X8651362Y-2808500D01*
X8651368Y-2808500D01*
X10948632Y-2808500D01*
X10948638Y-2808500D01*
X10948645Y-2808499D01*
X10948649Y-2808499D01*
X11009196Y-2801990D01*
X11009199Y-2801989D01*
X11009201Y-2801989D01*
X11146204Y-2750889D01*
X11263261Y-2663261D01*
X11350889Y-2546204D01*
X11401989Y-2409201D01*
X11408500Y-2348638D01*
X11408500Y-1251362D01*
X11408499Y-1251350D01*
X11401990Y-1190803D01*
X11401988Y-1190795D01*
X11350889Y-1053797D01*
X11350887Y-1053792D01*
X11263261Y-936738D01*
X11146207Y-849112D01*
X11146202Y-849110D01*
X11009204Y-798011D01*
X11009196Y-798009D01*
X10948649Y-791500D01*
X10948638Y-791500D01*
X8651362Y-791500D01*
X8651350Y-791500D01*
X8590803Y-798009D01*
X8590795Y-798011D01*
X8453797Y-849110D01*
X8453792Y-849112D01*
X8336738Y-936738D01*
X8249112Y-1053792D01*
X8249110Y-1053797D01*
X8198011Y-1190795D01*
X8198009Y-1190803D01*
X8191500Y-1251350D01*
X25500Y-1251350D01*
X25500Y-151500D01*
X45502Y-83379D01*
X99158Y-36886D01*
X151500Y-25500D01*
X39249076Y-25500D01*
X39317197Y-45502D01*
G37*
G04 #@! TD.AperFunction*
M02*
