G04 #@! TF.GenerationSoftware,KiCad,Pcbnew,(5.1.5)-3*
G04 #@! TF.CreationDate,2020-12-05T20:34:46-07:00*
G04 #@! TF.ProjectId,LFO_THT,4c464f5f-5448-4542-9e6b-696361645f70,rev?*
G04 #@! TF.SameCoordinates,Original*
G04 #@! TF.FileFunction,Legend,Top*
G04 #@! TF.FilePolarity,Positive*
%FSLAX46Y46*%
G04 Gerber Fmt 4.6, Leading zero omitted, Abs format (unit mm)*
G04 Created by KiCad (PCBNEW (5.1.5)-3) date 2020-12-05 20:34:46*
%MOMM*%
%LPD*%
G04 APERTURE LIST*
%ADD10C,0.150000*%
%ADD11C,0.120000*%
G04 APERTURE END LIST*
D10*
X64166666Y-31452380D02*
X63690476Y-31452380D01*
X63690476Y-30452380D01*
X64642857Y-31452380D02*
X64547619Y-31404761D01*
X64500000Y-31357142D01*
X64452380Y-31261904D01*
X64452380Y-30976190D01*
X64500000Y-30880952D01*
X64547619Y-30833333D01*
X64642857Y-30785714D01*
X64785714Y-30785714D01*
X64880952Y-30833333D01*
X64928571Y-30880952D01*
X64976190Y-30976190D01*
X64976190Y-31261904D01*
X64928571Y-31357142D01*
X64880952Y-31404761D01*
X64785714Y-31452380D01*
X64642857Y-31452380D01*
X65309523Y-30785714D02*
X65500000Y-31452380D01*
X65690476Y-30976190D01*
X65880952Y-31452380D01*
X66071428Y-30785714D01*
X66833333Y-31404761D02*
X66738095Y-31452380D01*
X66547619Y-31452380D01*
X66452380Y-31404761D01*
X66404761Y-31309523D01*
X66404761Y-30928571D01*
X66452380Y-30833333D01*
X66547619Y-30785714D01*
X66738095Y-30785714D01*
X66833333Y-30833333D01*
X66880952Y-30928571D01*
X66880952Y-31023809D01*
X66404761Y-31119047D01*
X67261904Y-31404761D02*
X67357142Y-31452380D01*
X67547619Y-31452380D01*
X67642857Y-31404761D01*
X67690476Y-31309523D01*
X67690476Y-31261904D01*
X67642857Y-31166666D01*
X67547619Y-31119047D01*
X67404761Y-31119047D01*
X67309523Y-31071428D01*
X67261904Y-30976190D01*
X67261904Y-30928571D01*
X67309523Y-30833333D01*
X67404761Y-30785714D01*
X67547619Y-30785714D01*
X67642857Y-30833333D01*
X67976190Y-30785714D02*
X68357142Y-30785714D01*
X68119047Y-30452380D02*
X68119047Y-31309523D01*
X68166666Y-31404761D01*
X68261904Y-31452380D01*
X68357142Y-31452380D01*
X70023809Y-31452380D02*
X69690476Y-30976190D01*
X69452380Y-31452380D02*
X69452380Y-30452380D01*
X69833333Y-30452380D01*
X69928571Y-30500000D01*
X69976190Y-30547619D01*
X70023809Y-30642857D01*
X70023809Y-30785714D01*
X69976190Y-30880952D01*
X69928571Y-30928571D01*
X69833333Y-30976190D01*
X69452380Y-30976190D01*
X70880952Y-31452380D02*
X70880952Y-30928571D01*
X70833333Y-30833333D01*
X70738095Y-30785714D01*
X70547619Y-30785714D01*
X70452380Y-30833333D01*
X70880952Y-31404761D02*
X70785714Y-31452380D01*
X70547619Y-31452380D01*
X70452380Y-31404761D01*
X70404761Y-31309523D01*
X70404761Y-31214285D01*
X70452380Y-31119047D01*
X70547619Y-31071428D01*
X70785714Y-31071428D01*
X70880952Y-31023809D01*
X71214285Y-30785714D02*
X71595238Y-30785714D01*
X71357142Y-30452380D02*
X71357142Y-31309523D01*
X71404761Y-31404761D01*
X71500000Y-31452380D01*
X71595238Y-31452380D01*
X72309523Y-31404761D02*
X72214285Y-31452380D01*
X72023809Y-31452380D01*
X71928571Y-31404761D01*
X71880952Y-31309523D01*
X71880952Y-30928571D01*
X71928571Y-30833333D01*
X72023809Y-30785714D01*
X72214285Y-30785714D01*
X72309523Y-30833333D01*
X72357142Y-30928571D01*
X72357142Y-31023809D01*
X71880952Y-31119047D01*
X34571428Y-94452380D02*
X35095238Y-93785714D01*
X34571428Y-93785714D02*
X35095238Y-94452380D01*
X35666666Y-93452380D02*
X35761904Y-93452380D01*
X35857142Y-93500000D01*
X35904761Y-93547619D01*
X35952380Y-93642857D01*
X36000000Y-93833333D01*
X36000000Y-94071428D01*
X35952380Y-94261904D01*
X35904761Y-94357142D01*
X35857142Y-94404761D01*
X35761904Y-94452380D01*
X35666666Y-94452380D01*
X35571428Y-94404761D01*
X35523809Y-94357142D01*
X35476190Y-94261904D01*
X35428571Y-94071428D01*
X35428571Y-93833333D01*
X35476190Y-93642857D01*
X35523809Y-93547619D01*
X35571428Y-93500000D01*
X35666666Y-93452380D01*
X36428571Y-94357142D02*
X36476190Y-94404761D01*
X36428571Y-94452380D01*
X36380952Y-94404761D01*
X36428571Y-94357142D01*
X36428571Y-94452380D01*
X37428571Y-94452380D02*
X36857142Y-94452380D01*
X37142857Y-94452380D02*
X37142857Y-93452380D01*
X37047619Y-93595238D01*
X36952380Y-93690476D01*
X36857142Y-93738095D01*
X38952380Y-93928571D02*
X39095238Y-93976190D01*
X39142857Y-94023809D01*
X39190476Y-94119047D01*
X39190476Y-94261904D01*
X39142857Y-94357142D01*
X39095238Y-94404761D01*
X39000000Y-94452380D01*
X38619047Y-94452380D01*
X38619047Y-93452380D01*
X38952380Y-93452380D01*
X39047619Y-93500000D01*
X39095238Y-93547619D01*
X39142857Y-93642857D01*
X39142857Y-93738095D01*
X39095238Y-93833333D01*
X39047619Y-93880952D01*
X38952380Y-93928571D01*
X38619047Y-93928571D01*
X39619047Y-94452380D02*
X39619047Y-93785714D01*
X39619047Y-93452380D02*
X39571428Y-93500000D01*
X39619047Y-93547619D01*
X39666666Y-93500000D01*
X39619047Y-93452380D01*
X39619047Y-93547619D01*
X40523809Y-94452380D02*
X40523809Y-93928571D01*
X40476190Y-93833333D01*
X40380952Y-93785714D01*
X40190476Y-93785714D01*
X40095238Y-93833333D01*
X40523809Y-94404761D02*
X40428571Y-94452380D01*
X40190476Y-94452380D01*
X40095238Y-94404761D01*
X40047619Y-94309523D01*
X40047619Y-94214285D01*
X40095238Y-94119047D01*
X40190476Y-94071428D01*
X40428571Y-94071428D01*
X40523809Y-94023809D01*
X40952380Y-94404761D02*
X41047619Y-94452380D01*
X41238095Y-94452380D01*
X41333333Y-94404761D01*
X41380952Y-94309523D01*
X41380952Y-94261904D01*
X41333333Y-94166666D01*
X41238095Y-94119047D01*
X41095238Y-94119047D01*
X41000000Y-94071428D01*
X40952380Y-93976190D01*
X40952380Y-93928571D01*
X41000000Y-93833333D01*
X41095238Y-93785714D01*
X41238095Y-93785714D01*
X41333333Y-93833333D01*
X34571428Y-103452380D02*
X35095238Y-102785714D01*
X34571428Y-102785714D02*
X35095238Y-103452380D01*
X36000000Y-103452380D02*
X35428571Y-103452380D01*
X35714285Y-103452380D02*
X35714285Y-102452380D01*
X35619047Y-102595238D01*
X35523809Y-102690476D01*
X35428571Y-102738095D01*
X36428571Y-103357142D02*
X36476190Y-103404761D01*
X36428571Y-103452380D01*
X36380952Y-103404761D01*
X36428571Y-103357142D01*
X36428571Y-103452380D01*
X37095238Y-102452380D02*
X37190476Y-102452380D01*
X37285714Y-102500000D01*
X37333333Y-102547619D01*
X37380952Y-102642857D01*
X37428571Y-102833333D01*
X37428571Y-103071428D01*
X37380952Y-103261904D01*
X37333333Y-103357142D01*
X37285714Y-103404761D01*
X37190476Y-103452380D01*
X37095238Y-103452380D01*
X37000000Y-103404761D01*
X36952380Y-103357142D01*
X36904761Y-103261904D01*
X36857142Y-103071428D01*
X36857142Y-102833333D01*
X36904761Y-102642857D01*
X36952380Y-102547619D01*
X37000000Y-102500000D01*
X37095238Y-102452380D01*
X38952380Y-102928571D02*
X39095238Y-102976190D01*
X39142857Y-103023809D01*
X39190476Y-103119047D01*
X39190476Y-103261904D01*
X39142857Y-103357142D01*
X39095238Y-103404761D01*
X39000000Y-103452380D01*
X38619047Y-103452380D01*
X38619047Y-102452380D01*
X38952380Y-102452380D01*
X39047619Y-102500000D01*
X39095238Y-102547619D01*
X39142857Y-102642857D01*
X39142857Y-102738095D01*
X39095238Y-102833333D01*
X39047619Y-102880952D01*
X38952380Y-102928571D01*
X38619047Y-102928571D01*
X39619047Y-103452380D02*
X39619047Y-102785714D01*
X39619047Y-102452380D02*
X39571428Y-102500000D01*
X39619047Y-102547619D01*
X39666666Y-102500000D01*
X39619047Y-102452380D01*
X39619047Y-102547619D01*
X40523809Y-103452380D02*
X40523809Y-102928571D01*
X40476190Y-102833333D01*
X40380952Y-102785714D01*
X40190476Y-102785714D01*
X40095238Y-102833333D01*
X40523809Y-103404761D02*
X40428571Y-103452380D01*
X40190476Y-103452380D01*
X40095238Y-103404761D01*
X40047619Y-103309523D01*
X40047619Y-103214285D01*
X40095238Y-103119047D01*
X40190476Y-103071428D01*
X40428571Y-103071428D01*
X40523809Y-103023809D01*
X40952380Y-103404761D02*
X41047619Y-103452380D01*
X41238095Y-103452380D01*
X41333333Y-103404761D01*
X41380952Y-103309523D01*
X41380952Y-103261904D01*
X41333333Y-103166666D01*
X41238095Y-103119047D01*
X41095238Y-103119047D01*
X41000000Y-103071428D01*
X40952380Y-102976190D01*
X40952380Y-102928571D01*
X41000000Y-102833333D01*
X41095238Y-102785714D01*
X41238095Y-102785714D01*
X41333333Y-102833333D01*
X66611904Y-109354761D02*
X66754761Y-109402380D01*
X66992857Y-109402380D01*
X67088095Y-109354761D01*
X67135714Y-109307142D01*
X67183333Y-109211904D01*
X67183333Y-109116666D01*
X67135714Y-109021428D01*
X67088095Y-108973809D01*
X66992857Y-108926190D01*
X66802380Y-108878571D01*
X66707142Y-108830952D01*
X66659523Y-108783333D01*
X66611904Y-108688095D01*
X66611904Y-108592857D01*
X66659523Y-108497619D01*
X66707142Y-108450000D01*
X66802380Y-108402380D01*
X67040476Y-108402380D01*
X67183333Y-108450000D01*
X67611904Y-109402380D02*
X67611904Y-108735714D01*
X67611904Y-108402380D02*
X67564285Y-108450000D01*
X67611904Y-108497619D01*
X67659523Y-108450000D01*
X67611904Y-108402380D01*
X67611904Y-108497619D01*
X68088095Y-108735714D02*
X68088095Y-109402380D01*
X68088095Y-108830952D02*
X68135714Y-108783333D01*
X68230952Y-108735714D01*
X68373809Y-108735714D01*
X68469047Y-108783333D01*
X68516666Y-108878571D01*
X68516666Y-109402380D01*
X69707142Y-108354761D02*
X68850000Y-109640476D01*
X69897619Y-108402380D02*
X70469047Y-108402380D01*
X70183333Y-109402380D02*
X70183333Y-108402380D01*
X70802380Y-109402380D02*
X70802380Y-108735714D01*
X70802380Y-108926190D02*
X70850000Y-108830952D01*
X70897619Y-108783333D01*
X70992857Y-108735714D01*
X71088095Y-108735714D01*
X71421428Y-109402380D02*
X71421428Y-108735714D01*
X71421428Y-108402380D02*
X71373809Y-108450000D01*
X71421428Y-108497619D01*
X71469047Y-108450000D01*
X71421428Y-108402380D01*
X71421428Y-108497619D01*
X72611904Y-109354761D02*
X72754761Y-109402380D01*
X72992857Y-109402380D01*
X73088095Y-109354761D01*
X73135714Y-109307142D01*
X73183333Y-109211904D01*
X73183333Y-109116666D01*
X73135714Y-109021428D01*
X73088095Y-108973809D01*
X72992857Y-108926190D01*
X72802380Y-108878571D01*
X72707142Y-108830952D01*
X72659523Y-108783333D01*
X72611904Y-108688095D01*
X72611904Y-108592857D01*
X72659523Y-108497619D01*
X72707142Y-108450000D01*
X72802380Y-108402380D01*
X73040476Y-108402380D01*
X73183333Y-108450000D01*
X73516666Y-108735714D02*
X73754761Y-109402380D01*
X73992857Y-108735714D02*
X73754761Y-109402380D01*
X73659523Y-109640476D01*
X73611904Y-109688095D01*
X73516666Y-109735714D01*
X74373809Y-109402380D02*
X74373809Y-108735714D01*
X74373809Y-108830952D02*
X74421428Y-108783333D01*
X74516666Y-108735714D01*
X74659523Y-108735714D01*
X74754761Y-108783333D01*
X74802380Y-108878571D01*
X74802380Y-109402380D01*
X74802380Y-108878571D02*
X74850000Y-108783333D01*
X74945238Y-108735714D01*
X75088095Y-108735714D01*
X75183333Y-108783333D01*
X75230952Y-108878571D01*
X75230952Y-109402380D01*
X76088095Y-109354761D02*
X75992857Y-109402380D01*
X75802380Y-109402380D01*
X75707142Y-109354761D01*
X75659523Y-109259523D01*
X75659523Y-108878571D01*
X75707142Y-108783333D01*
X75802380Y-108735714D01*
X75992857Y-108735714D01*
X76088095Y-108783333D01*
X76135714Y-108878571D01*
X76135714Y-108973809D01*
X75659523Y-109069047D01*
X76421428Y-108735714D02*
X76802380Y-108735714D01*
X76564285Y-108402380D02*
X76564285Y-109259523D01*
X76611904Y-109354761D01*
X76707142Y-109402380D01*
X76802380Y-109402380D01*
X77135714Y-109402380D02*
X77135714Y-108735714D01*
X77135714Y-108926190D02*
X77183333Y-108830952D01*
X77230952Y-108783333D01*
X77326190Y-108735714D01*
X77421428Y-108735714D01*
X77659523Y-108735714D02*
X77897619Y-109402380D01*
X78135714Y-108735714D02*
X77897619Y-109402380D01*
X77802380Y-109640476D01*
X77754761Y-109688095D01*
X77659523Y-109735714D01*
D11*
X20670000Y-88670000D02*
X22000000Y-88670000D01*
X20670000Y-90000000D02*
X20670000Y-88670000D01*
X23270000Y-88670000D02*
X25870000Y-88670000D01*
X23270000Y-91270000D02*
X23270000Y-88670000D01*
X20670000Y-91270000D02*
X23270000Y-91270000D01*
X25870000Y-88670000D02*
X25870000Y-109110000D01*
X20670000Y-91270000D02*
X20670000Y-109110000D01*
X20670000Y-109110000D02*
X25870000Y-109110000D01*
X57690000Y-28060000D02*
X57690000Y-22940000D01*
X60310000Y-28060000D02*
X60310000Y-22940000D01*
X57690000Y-28060000D02*
X58004000Y-28060000D01*
X59996000Y-28060000D02*
X60310000Y-28060000D01*
X57690000Y-22940000D02*
X58004000Y-22940000D01*
X59996000Y-22940000D02*
X60310000Y-22940000D01*
X71940000Y-3004000D02*
X71940000Y-2690000D01*
X71940000Y-5310000D02*
X71940000Y-4996000D01*
X77060000Y-3004000D02*
X77060000Y-2690000D01*
X77060000Y-5310000D02*
X77060000Y-4996000D01*
X77060000Y-2690000D02*
X71940000Y-2690000D01*
X77060000Y-5310000D02*
X71940000Y-5310000D01*
X41690000Y-30060000D02*
X41690000Y-24940000D01*
X44310000Y-30060000D02*
X44310000Y-24940000D01*
X41690000Y-30060000D02*
X42004000Y-30060000D01*
X43996000Y-30060000D02*
X44310000Y-30060000D01*
X41690000Y-24940000D02*
X42004000Y-24940000D01*
X43996000Y-24940000D02*
X44310000Y-24940000D01*
X90940000Y-58690000D02*
X96060000Y-58690000D01*
X90940000Y-61310000D02*
X96060000Y-61310000D01*
X90940000Y-58690000D02*
X90940000Y-59004000D01*
X90940000Y-60996000D02*
X90940000Y-61310000D01*
X96060000Y-58690000D02*
X96060000Y-59004000D01*
X96060000Y-60996000D02*
X96060000Y-61310000D01*
X96060000Y-78996000D02*
X96060000Y-79310000D01*
X96060000Y-76690000D02*
X96060000Y-77004000D01*
X90940000Y-78996000D02*
X90940000Y-79310000D01*
X90940000Y-76690000D02*
X90940000Y-77004000D01*
X90940000Y-79310000D02*
X96060000Y-79310000D01*
X90940000Y-76690000D02*
X96060000Y-76690000D01*
X63060000Y-100996000D02*
X63060000Y-101310000D01*
X63060000Y-98690000D02*
X63060000Y-99004000D01*
X57940000Y-100996000D02*
X57940000Y-101310000D01*
X57940000Y-98690000D02*
X57940000Y-99004000D01*
X57940000Y-101310000D02*
X63060000Y-101310000D01*
X57940000Y-98690000D02*
X63060000Y-98690000D01*
X63060000Y-48996000D02*
X63060000Y-49310000D01*
X63060000Y-46690000D02*
X63060000Y-47004000D01*
X57940000Y-48996000D02*
X57940000Y-49310000D01*
X57940000Y-46690000D02*
X57940000Y-47004000D01*
X57940000Y-49310000D02*
X63060000Y-49310000D01*
X57940000Y-46690000D02*
X63060000Y-46690000D01*
X46982180Y-7179136D02*
G75*
G03X53017482Y-7180000I3017820J1179136D01*
G01*
X46982180Y-4820864D02*
G75*
G02X53017482Y-4820000I3017820J-1179136D01*
G01*
X46982180Y-4820864D02*
G75*
G03X46982518Y-7180000I3017820J-1179136D01*
G01*
X50000000Y-9200000D02*
X50000000Y-2800000D01*
X49960000Y-9200000D02*
X49960000Y-2800000D01*
X49920000Y-9200000D02*
X49920000Y-2800000D01*
X49880000Y-9198000D02*
X49880000Y-2802000D01*
X49840000Y-9197000D02*
X49840000Y-2803000D01*
X49800000Y-9194000D02*
X49800000Y-2806000D01*
X49760000Y-9192000D02*
X49760000Y-2808000D01*
X49720000Y-9188000D02*
X49720000Y-6980000D01*
X49720000Y-5020000D02*
X49720000Y-2812000D01*
X49680000Y-9185000D02*
X49680000Y-6980000D01*
X49680000Y-5020000D02*
X49680000Y-2815000D01*
X49640000Y-9180000D02*
X49640000Y-6980000D01*
X49640000Y-5020000D02*
X49640000Y-2820000D01*
X49600000Y-9176000D02*
X49600000Y-6980000D01*
X49600000Y-5020000D02*
X49600000Y-2824000D01*
X49560000Y-9170000D02*
X49560000Y-6980000D01*
X49560000Y-5020000D02*
X49560000Y-2830000D01*
X49520000Y-9165000D02*
X49520000Y-6980000D01*
X49520000Y-5020000D02*
X49520000Y-2835000D01*
X49480000Y-9158000D02*
X49480000Y-6980000D01*
X49480000Y-5020000D02*
X49480000Y-2842000D01*
X49440000Y-9152000D02*
X49440000Y-6980000D01*
X49440000Y-5020000D02*
X49440000Y-2848000D01*
X49400000Y-9144000D02*
X49400000Y-6980000D01*
X49400000Y-5020000D02*
X49400000Y-2856000D01*
X49360000Y-9137000D02*
X49360000Y-6980000D01*
X49360000Y-5020000D02*
X49360000Y-2863000D01*
X49320000Y-9128000D02*
X49320000Y-6980000D01*
X49320000Y-5020000D02*
X49320000Y-2872000D01*
X49279000Y-9119000D02*
X49279000Y-6980000D01*
X49279000Y-5020000D02*
X49279000Y-2881000D01*
X49239000Y-9110000D02*
X49239000Y-6980000D01*
X49239000Y-5020000D02*
X49239000Y-2890000D01*
X49199000Y-9100000D02*
X49199000Y-6980000D01*
X49199000Y-5020000D02*
X49199000Y-2900000D01*
X49159000Y-9090000D02*
X49159000Y-6980000D01*
X49159000Y-5020000D02*
X49159000Y-2910000D01*
X49119000Y-9079000D02*
X49119000Y-6980000D01*
X49119000Y-5020000D02*
X49119000Y-2921000D01*
X49079000Y-9067000D02*
X49079000Y-6980000D01*
X49079000Y-5020000D02*
X49079000Y-2933000D01*
X49039000Y-9055000D02*
X49039000Y-6980000D01*
X49039000Y-5020000D02*
X49039000Y-2945000D01*
X48999000Y-9042000D02*
X48999000Y-6980000D01*
X48999000Y-5020000D02*
X48999000Y-2958000D01*
X48959000Y-9029000D02*
X48959000Y-6980000D01*
X48959000Y-5020000D02*
X48959000Y-2971000D01*
X48919000Y-9015000D02*
X48919000Y-6980000D01*
X48919000Y-5020000D02*
X48919000Y-2985000D01*
X48879000Y-9001000D02*
X48879000Y-6980000D01*
X48879000Y-5020000D02*
X48879000Y-2999000D01*
X48839000Y-8986000D02*
X48839000Y-6980000D01*
X48839000Y-5020000D02*
X48839000Y-3014000D01*
X48799000Y-8970000D02*
X48799000Y-6980000D01*
X48799000Y-5020000D02*
X48799000Y-3030000D01*
X48759000Y-8954000D02*
X48759000Y-6980000D01*
X48759000Y-5020000D02*
X48759000Y-3046000D01*
X48719000Y-8937000D02*
X48719000Y-6980000D01*
X48719000Y-5020000D02*
X48719000Y-3063000D01*
X48679000Y-8919000D02*
X48679000Y-6980000D01*
X48679000Y-5020000D02*
X48679000Y-3081000D01*
X48639000Y-8901000D02*
X48639000Y-6980000D01*
X48639000Y-5020000D02*
X48639000Y-3099000D01*
X48599000Y-8882000D02*
X48599000Y-6980000D01*
X48599000Y-5020000D02*
X48599000Y-3118000D01*
X48559000Y-8863000D02*
X48559000Y-6980000D01*
X48559000Y-5020000D02*
X48559000Y-3137000D01*
X48519000Y-8843000D02*
X48519000Y-6980000D01*
X48519000Y-5020000D02*
X48519000Y-3157000D01*
X48479000Y-8822000D02*
X48479000Y-6980000D01*
X48479000Y-5020000D02*
X48479000Y-3178000D01*
X48439000Y-8800000D02*
X48439000Y-6980000D01*
X48439000Y-5020000D02*
X48439000Y-3200000D01*
X48399000Y-8778000D02*
X48399000Y-6980000D01*
X48399000Y-5020000D02*
X48399000Y-3222000D01*
X48359000Y-8755000D02*
X48359000Y-6980000D01*
X48359000Y-5020000D02*
X48359000Y-3245000D01*
X48319000Y-8731000D02*
X48319000Y-6980000D01*
X48319000Y-5020000D02*
X48319000Y-3269000D01*
X48279000Y-8706000D02*
X48279000Y-6980000D01*
X48279000Y-5020000D02*
X48279000Y-3294000D01*
X48239000Y-8681000D02*
X48239000Y-6980000D01*
X48239000Y-5020000D02*
X48239000Y-3319000D01*
X48199000Y-8654000D02*
X48199000Y-6980000D01*
X48199000Y-5020000D02*
X48199000Y-3346000D01*
X48159000Y-8627000D02*
X48159000Y-6980000D01*
X48159000Y-5020000D02*
X48159000Y-3373000D01*
X48119000Y-8599000D02*
X48119000Y-6980000D01*
X48119000Y-5020000D02*
X48119000Y-3401000D01*
X48079000Y-8570000D02*
X48079000Y-6980000D01*
X48079000Y-5020000D02*
X48079000Y-3430000D01*
X48039000Y-8540000D02*
X48039000Y-6980000D01*
X48039000Y-5020000D02*
X48039000Y-3460000D01*
X47999000Y-8510000D02*
X47999000Y-6980000D01*
X47999000Y-5020000D02*
X47999000Y-3490000D01*
X47959000Y-8478000D02*
X47959000Y-6980000D01*
X47959000Y-5020000D02*
X47959000Y-3522000D01*
X47919000Y-8445000D02*
X47919000Y-6980000D01*
X47919000Y-5020000D02*
X47919000Y-3555000D01*
X47879000Y-8411000D02*
X47879000Y-6980000D01*
X47879000Y-5020000D02*
X47879000Y-3589000D01*
X47839000Y-8375000D02*
X47839000Y-6980000D01*
X47839000Y-5020000D02*
X47839000Y-3625000D01*
X47799000Y-8339000D02*
X47799000Y-6980000D01*
X47799000Y-5020000D02*
X47799000Y-3661000D01*
X47759000Y-8301000D02*
X47759000Y-3699000D01*
X47719000Y-8262000D02*
X47719000Y-3738000D01*
X47679000Y-8222000D02*
X47679000Y-3778000D01*
X47639000Y-8180000D02*
X47639000Y-3820000D01*
X47599000Y-8137000D02*
X47599000Y-3863000D01*
X47559000Y-8092000D02*
X47559000Y-3908000D01*
X47519000Y-8045000D02*
X47519000Y-3955000D01*
X47479000Y-7997000D02*
X47479000Y-4003000D01*
X47439000Y-7946000D02*
X47439000Y-4054000D01*
X47399000Y-7894000D02*
X47399000Y-4106000D01*
X47359000Y-7839000D02*
X47359000Y-4161000D01*
X47319000Y-7781000D02*
X47319000Y-4219000D01*
X47279000Y-7721000D02*
X47279000Y-4279000D01*
X47239000Y-7658000D02*
X47239000Y-4342000D01*
X47199000Y-7591000D02*
X47199000Y-4409000D01*
X47159000Y-7520000D02*
X47159000Y-4480000D01*
X47119000Y-7445000D02*
X47119000Y-4555000D01*
X47079000Y-7364000D02*
X47079000Y-4636000D01*
X47039000Y-7278000D02*
X47039000Y-4722000D01*
X46999000Y-7184000D02*
X46999000Y-4816000D01*
X46959000Y-7081000D02*
X46959000Y-4919000D01*
X46919000Y-6966000D02*
X46919000Y-5034000D01*
X46879000Y-6834000D02*
X46879000Y-5166000D01*
X46839000Y-6676000D02*
X46839000Y-5324000D01*
X46799000Y-6468000D02*
X46799000Y-5532000D01*
X53450000Y-6000000D02*
X52250000Y-6000000D01*
X52850000Y-6650000D02*
X52850000Y-5350000D01*
X29350000Y-101600000D02*
X30650000Y-101600000D01*
X30000000Y-102200000D02*
X30000000Y-101000000D01*
X29646000Y-96439000D02*
X30354000Y-96439000D01*
X29441000Y-96479000D02*
X30559000Y-96479000D01*
X29293000Y-96519000D02*
X30707000Y-96519000D01*
X29171000Y-96559000D02*
X30829000Y-96559000D01*
X29066000Y-96599000D02*
X30934000Y-96599000D01*
X28972000Y-96639000D02*
X31028000Y-96639000D01*
X28888000Y-96679000D02*
X31112000Y-96679000D01*
X28811000Y-96719000D02*
X31189000Y-96719000D01*
X28739000Y-96759000D02*
X31261000Y-96759000D01*
X28673000Y-96799000D02*
X31327000Y-96799000D01*
X28610000Y-96839000D02*
X31390000Y-96839000D01*
X28552000Y-96879000D02*
X31448000Y-96879000D01*
X28496000Y-96919000D02*
X31504000Y-96919000D01*
X28444000Y-96959000D02*
X31556000Y-96959000D01*
X28394000Y-96999000D02*
X31606000Y-96999000D01*
X30980000Y-97039000D02*
X31654000Y-97039000D01*
X28346000Y-97039000D02*
X29020000Y-97039000D01*
X30980000Y-97079000D02*
X31699000Y-97079000D01*
X28301000Y-97079000D02*
X29020000Y-97079000D01*
X30980000Y-97119000D02*
X31742000Y-97119000D01*
X28258000Y-97119000D02*
X29020000Y-97119000D01*
X30980000Y-97159000D02*
X31783000Y-97159000D01*
X28217000Y-97159000D02*
X29020000Y-97159000D01*
X30980000Y-97199000D02*
X31823000Y-97199000D01*
X28177000Y-97199000D02*
X29020000Y-97199000D01*
X30980000Y-97239000D02*
X31861000Y-97239000D01*
X28139000Y-97239000D02*
X29020000Y-97239000D01*
X30980000Y-97279000D02*
X31897000Y-97279000D01*
X28103000Y-97279000D02*
X29020000Y-97279000D01*
X30980000Y-97319000D02*
X31932000Y-97319000D01*
X28068000Y-97319000D02*
X29020000Y-97319000D01*
X30980000Y-97359000D02*
X31965000Y-97359000D01*
X28035000Y-97359000D02*
X29020000Y-97359000D01*
X30980000Y-97399000D02*
X31997000Y-97399000D01*
X28003000Y-97399000D02*
X29020000Y-97399000D01*
X30980000Y-97439000D02*
X32028000Y-97439000D01*
X27972000Y-97439000D02*
X29020000Y-97439000D01*
X30980000Y-97479000D02*
X32058000Y-97479000D01*
X27942000Y-97479000D02*
X29020000Y-97479000D01*
X30980000Y-97519000D02*
X32086000Y-97519000D01*
X27914000Y-97519000D02*
X29020000Y-97519000D01*
X30980000Y-97559000D02*
X32113000Y-97559000D01*
X27887000Y-97559000D02*
X29020000Y-97559000D01*
X30980000Y-97599000D02*
X32140000Y-97599000D01*
X27860000Y-97599000D02*
X29020000Y-97599000D01*
X30980000Y-97639000D02*
X32165000Y-97639000D01*
X27835000Y-97639000D02*
X29020000Y-97639000D01*
X30980000Y-97679000D02*
X32189000Y-97679000D01*
X27811000Y-97679000D02*
X29020000Y-97679000D01*
X30980000Y-97719000D02*
X32212000Y-97719000D01*
X27788000Y-97719000D02*
X29020000Y-97719000D01*
X30980000Y-97759000D02*
X32234000Y-97759000D01*
X27766000Y-97759000D02*
X29020000Y-97759000D01*
X30980000Y-97799000D02*
X32256000Y-97799000D01*
X27744000Y-97799000D02*
X29020000Y-97799000D01*
X30980000Y-97839000D02*
X32276000Y-97839000D01*
X27724000Y-97839000D02*
X29020000Y-97839000D01*
X30980000Y-97879000D02*
X32296000Y-97879000D01*
X27704000Y-97879000D02*
X29020000Y-97879000D01*
X30980000Y-97919000D02*
X32315000Y-97919000D01*
X27685000Y-97919000D02*
X29020000Y-97919000D01*
X30980000Y-97959000D02*
X32333000Y-97959000D01*
X27667000Y-97959000D02*
X29020000Y-97959000D01*
X30980000Y-97999000D02*
X32350000Y-97999000D01*
X27650000Y-97999000D02*
X29020000Y-97999000D01*
X30980000Y-98039000D02*
X32366000Y-98039000D01*
X27634000Y-98039000D02*
X29020000Y-98039000D01*
X30980000Y-98079000D02*
X32382000Y-98079000D01*
X27618000Y-98079000D02*
X29020000Y-98079000D01*
X30980000Y-98119000D02*
X32396000Y-98119000D01*
X27604000Y-98119000D02*
X29020000Y-98119000D01*
X30980000Y-98159000D02*
X32410000Y-98159000D01*
X27590000Y-98159000D02*
X29020000Y-98159000D01*
X30980000Y-98199000D02*
X32424000Y-98199000D01*
X27576000Y-98199000D02*
X29020000Y-98199000D01*
X30980000Y-98239000D02*
X32436000Y-98239000D01*
X27564000Y-98239000D02*
X29020000Y-98239000D01*
X30980000Y-98279000D02*
X32448000Y-98279000D01*
X27552000Y-98279000D02*
X29020000Y-98279000D01*
X30980000Y-98320000D02*
X32460000Y-98320000D01*
X27540000Y-98320000D02*
X29020000Y-98320000D01*
X30980000Y-98360000D02*
X32470000Y-98360000D01*
X27530000Y-98360000D02*
X29020000Y-98360000D01*
X30980000Y-98400000D02*
X32480000Y-98400000D01*
X27520000Y-98400000D02*
X29020000Y-98400000D01*
X30980000Y-98440000D02*
X32489000Y-98440000D01*
X27511000Y-98440000D02*
X29020000Y-98440000D01*
X30980000Y-98480000D02*
X32498000Y-98480000D01*
X27502000Y-98480000D02*
X29020000Y-98480000D01*
X30980000Y-98520000D02*
X32506000Y-98520000D01*
X27494000Y-98520000D02*
X29020000Y-98520000D01*
X30980000Y-98560000D02*
X32513000Y-98560000D01*
X27487000Y-98560000D02*
X29020000Y-98560000D01*
X30980000Y-98600000D02*
X32519000Y-98600000D01*
X27481000Y-98600000D02*
X29020000Y-98600000D01*
X30980000Y-98640000D02*
X32525000Y-98640000D01*
X27475000Y-98640000D02*
X29020000Y-98640000D01*
X30980000Y-98680000D02*
X32531000Y-98680000D01*
X27469000Y-98680000D02*
X29020000Y-98680000D01*
X30980000Y-98720000D02*
X32535000Y-98720000D01*
X27465000Y-98720000D02*
X29020000Y-98720000D01*
X30980000Y-98760000D02*
X32539000Y-98760000D01*
X27461000Y-98760000D02*
X29020000Y-98760000D01*
X30980000Y-98800000D02*
X32543000Y-98800000D01*
X27457000Y-98800000D02*
X29020000Y-98800000D01*
X30980000Y-98840000D02*
X32546000Y-98840000D01*
X27454000Y-98840000D02*
X29020000Y-98840000D01*
X30980000Y-98880000D02*
X32548000Y-98880000D01*
X27452000Y-98880000D02*
X29020000Y-98880000D01*
X30980000Y-98920000D02*
X32549000Y-98920000D01*
X27451000Y-98920000D02*
X29020000Y-98920000D01*
X30980000Y-98960000D02*
X32550000Y-98960000D01*
X27450000Y-98960000D02*
X29020000Y-98960000D01*
X27450000Y-99000000D02*
X32550000Y-99000000D01*
X31179723Y-96694278D02*
G75*
G03X28820000Y-96694420I-1179723J-2305722D01*
G01*
X31179723Y-96694278D02*
G75*
G02X31180000Y-101305580I-1179723J-2305722D01*
G01*
X28820277Y-96694278D02*
G75*
G03X28820000Y-101305580I1179723J-2305722D01*
G01*
X52850000Y-28650000D02*
X52850000Y-27350000D01*
X53450000Y-28000000D02*
X52250000Y-28000000D01*
X46799000Y-28468000D02*
X46799000Y-27532000D01*
X46839000Y-28676000D02*
X46839000Y-27324000D01*
X46879000Y-28834000D02*
X46879000Y-27166000D01*
X46919000Y-28966000D02*
X46919000Y-27034000D01*
X46959000Y-29081000D02*
X46959000Y-26919000D01*
X46999000Y-29184000D02*
X46999000Y-26816000D01*
X47039000Y-29278000D02*
X47039000Y-26722000D01*
X47079000Y-29364000D02*
X47079000Y-26636000D01*
X47119000Y-29445000D02*
X47119000Y-26555000D01*
X47159000Y-29520000D02*
X47159000Y-26480000D01*
X47199000Y-29591000D02*
X47199000Y-26409000D01*
X47239000Y-29658000D02*
X47239000Y-26342000D01*
X47279000Y-29721000D02*
X47279000Y-26279000D01*
X47319000Y-29781000D02*
X47319000Y-26219000D01*
X47359000Y-29839000D02*
X47359000Y-26161000D01*
X47399000Y-29894000D02*
X47399000Y-26106000D01*
X47439000Y-29946000D02*
X47439000Y-26054000D01*
X47479000Y-29997000D02*
X47479000Y-26003000D01*
X47519000Y-30045000D02*
X47519000Y-25955000D01*
X47559000Y-30092000D02*
X47559000Y-25908000D01*
X47599000Y-30137000D02*
X47599000Y-25863000D01*
X47639000Y-30180000D02*
X47639000Y-25820000D01*
X47679000Y-30222000D02*
X47679000Y-25778000D01*
X47719000Y-30262000D02*
X47719000Y-25738000D01*
X47759000Y-30301000D02*
X47759000Y-25699000D01*
X47799000Y-27020000D02*
X47799000Y-25661000D01*
X47799000Y-30339000D02*
X47799000Y-28980000D01*
X47839000Y-27020000D02*
X47839000Y-25625000D01*
X47839000Y-30375000D02*
X47839000Y-28980000D01*
X47879000Y-27020000D02*
X47879000Y-25589000D01*
X47879000Y-30411000D02*
X47879000Y-28980000D01*
X47919000Y-27020000D02*
X47919000Y-25555000D01*
X47919000Y-30445000D02*
X47919000Y-28980000D01*
X47959000Y-27020000D02*
X47959000Y-25522000D01*
X47959000Y-30478000D02*
X47959000Y-28980000D01*
X47999000Y-27020000D02*
X47999000Y-25490000D01*
X47999000Y-30510000D02*
X47999000Y-28980000D01*
X48039000Y-27020000D02*
X48039000Y-25460000D01*
X48039000Y-30540000D02*
X48039000Y-28980000D01*
X48079000Y-27020000D02*
X48079000Y-25430000D01*
X48079000Y-30570000D02*
X48079000Y-28980000D01*
X48119000Y-27020000D02*
X48119000Y-25401000D01*
X48119000Y-30599000D02*
X48119000Y-28980000D01*
X48159000Y-27020000D02*
X48159000Y-25373000D01*
X48159000Y-30627000D02*
X48159000Y-28980000D01*
X48199000Y-27020000D02*
X48199000Y-25346000D01*
X48199000Y-30654000D02*
X48199000Y-28980000D01*
X48239000Y-27020000D02*
X48239000Y-25319000D01*
X48239000Y-30681000D02*
X48239000Y-28980000D01*
X48279000Y-27020000D02*
X48279000Y-25294000D01*
X48279000Y-30706000D02*
X48279000Y-28980000D01*
X48319000Y-27020000D02*
X48319000Y-25269000D01*
X48319000Y-30731000D02*
X48319000Y-28980000D01*
X48359000Y-27020000D02*
X48359000Y-25245000D01*
X48359000Y-30755000D02*
X48359000Y-28980000D01*
X48399000Y-27020000D02*
X48399000Y-25222000D01*
X48399000Y-30778000D02*
X48399000Y-28980000D01*
X48439000Y-27020000D02*
X48439000Y-25200000D01*
X48439000Y-30800000D02*
X48439000Y-28980000D01*
X48479000Y-27020000D02*
X48479000Y-25178000D01*
X48479000Y-30822000D02*
X48479000Y-28980000D01*
X48519000Y-27020000D02*
X48519000Y-25157000D01*
X48519000Y-30843000D02*
X48519000Y-28980000D01*
X48559000Y-27020000D02*
X48559000Y-25137000D01*
X48559000Y-30863000D02*
X48559000Y-28980000D01*
X48599000Y-27020000D02*
X48599000Y-25118000D01*
X48599000Y-30882000D02*
X48599000Y-28980000D01*
X48639000Y-27020000D02*
X48639000Y-25099000D01*
X48639000Y-30901000D02*
X48639000Y-28980000D01*
X48679000Y-27020000D02*
X48679000Y-25081000D01*
X48679000Y-30919000D02*
X48679000Y-28980000D01*
X48719000Y-27020000D02*
X48719000Y-25063000D01*
X48719000Y-30937000D02*
X48719000Y-28980000D01*
X48759000Y-27020000D02*
X48759000Y-25046000D01*
X48759000Y-30954000D02*
X48759000Y-28980000D01*
X48799000Y-27020000D02*
X48799000Y-25030000D01*
X48799000Y-30970000D02*
X48799000Y-28980000D01*
X48839000Y-27020000D02*
X48839000Y-25014000D01*
X48839000Y-30986000D02*
X48839000Y-28980000D01*
X48879000Y-27020000D02*
X48879000Y-24999000D01*
X48879000Y-31001000D02*
X48879000Y-28980000D01*
X48919000Y-27020000D02*
X48919000Y-24985000D01*
X48919000Y-31015000D02*
X48919000Y-28980000D01*
X48959000Y-27020000D02*
X48959000Y-24971000D01*
X48959000Y-31029000D02*
X48959000Y-28980000D01*
X48999000Y-27020000D02*
X48999000Y-24958000D01*
X48999000Y-31042000D02*
X48999000Y-28980000D01*
X49039000Y-27020000D02*
X49039000Y-24945000D01*
X49039000Y-31055000D02*
X49039000Y-28980000D01*
X49079000Y-27020000D02*
X49079000Y-24933000D01*
X49079000Y-31067000D02*
X49079000Y-28980000D01*
X49119000Y-27020000D02*
X49119000Y-24921000D01*
X49119000Y-31079000D02*
X49119000Y-28980000D01*
X49159000Y-27020000D02*
X49159000Y-24910000D01*
X49159000Y-31090000D02*
X49159000Y-28980000D01*
X49199000Y-27020000D02*
X49199000Y-24900000D01*
X49199000Y-31100000D02*
X49199000Y-28980000D01*
X49239000Y-27020000D02*
X49239000Y-24890000D01*
X49239000Y-31110000D02*
X49239000Y-28980000D01*
X49279000Y-27020000D02*
X49279000Y-24881000D01*
X49279000Y-31119000D02*
X49279000Y-28980000D01*
X49320000Y-27020000D02*
X49320000Y-24872000D01*
X49320000Y-31128000D02*
X49320000Y-28980000D01*
X49360000Y-27020000D02*
X49360000Y-24863000D01*
X49360000Y-31137000D02*
X49360000Y-28980000D01*
X49400000Y-27020000D02*
X49400000Y-24856000D01*
X49400000Y-31144000D02*
X49400000Y-28980000D01*
X49440000Y-27020000D02*
X49440000Y-24848000D01*
X49440000Y-31152000D02*
X49440000Y-28980000D01*
X49480000Y-27020000D02*
X49480000Y-24842000D01*
X49480000Y-31158000D02*
X49480000Y-28980000D01*
X49520000Y-27020000D02*
X49520000Y-24835000D01*
X49520000Y-31165000D02*
X49520000Y-28980000D01*
X49560000Y-27020000D02*
X49560000Y-24830000D01*
X49560000Y-31170000D02*
X49560000Y-28980000D01*
X49600000Y-27020000D02*
X49600000Y-24824000D01*
X49600000Y-31176000D02*
X49600000Y-28980000D01*
X49640000Y-27020000D02*
X49640000Y-24820000D01*
X49640000Y-31180000D02*
X49640000Y-28980000D01*
X49680000Y-27020000D02*
X49680000Y-24815000D01*
X49680000Y-31185000D02*
X49680000Y-28980000D01*
X49720000Y-27020000D02*
X49720000Y-24812000D01*
X49720000Y-31188000D02*
X49720000Y-28980000D01*
X49760000Y-31192000D02*
X49760000Y-24808000D01*
X49800000Y-31194000D02*
X49800000Y-24806000D01*
X49840000Y-31197000D02*
X49840000Y-24803000D01*
X49880000Y-31198000D02*
X49880000Y-24802000D01*
X49920000Y-31200000D02*
X49920000Y-24800000D01*
X49960000Y-31200000D02*
X49960000Y-24800000D01*
X50000000Y-31200000D02*
X50000000Y-24800000D01*
X46982180Y-26820864D02*
G75*
G03X46982518Y-29180000I3017820J-1179136D01*
G01*
X46982180Y-26820864D02*
G75*
G02X53017482Y-26820000I3017820J-1179136D01*
G01*
X46982180Y-29179136D02*
G75*
G03X53017482Y-29180000I3017820J1179136D01*
G01*
X53017820Y-48820864D02*
G75*
G03X46982518Y-48820000I-3017820J-1179136D01*
G01*
X53017820Y-51179136D02*
G75*
G02X46982518Y-51180000I-3017820J1179136D01*
G01*
X53017820Y-51179136D02*
G75*
G03X53017482Y-48820000I-3017820J1179136D01*
G01*
X50000000Y-46800000D02*
X50000000Y-53200000D01*
X50040000Y-46800000D02*
X50040000Y-53200000D01*
X50080000Y-46800000D02*
X50080000Y-53200000D01*
X50120000Y-46802000D02*
X50120000Y-53198000D01*
X50160000Y-46803000D02*
X50160000Y-53197000D01*
X50200000Y-46806000D02*
X50200000Y-53194000D01*
X50240000Y-46808000D02*
X50240000Y-53192000D01*
X50280000Y-46812000D02*
X50280000Y-49020000D01*
X50280000Y-50980000D02*
X50280000Y-53188000D01*
X50320000Y-46815000D02*
X50320000Y-49020000D01*
X50320000Y-50980000D02*
X50320000Y-53185000D01*
X50360000Y-46820000D02*
X50360000Y-49020000D01*
X50360000Y-50980000D02*
X50360000Y-53180000D01*
X50400000Y-46824000D02*
X50400000Y-49020000D01*
X50400000Y-50980000D02*
X50400000Y-53176000D01*
X50440000Y-46830000D02*
X50440000Y-49020000D01*
X50440000Y-50980000D02*
X50440000Y-53170000D01*
X50480000Y-46835000D02*
X50480000Y-49020000D01*
X50480000Y-50980000D02*
X50480000Y-53165000D01*
X50520000Y-46842000D02*
X50520000Y-49020000D01*
X50520000Y-50980000D02*
X50520000Y-53158000D01*
X50560000Y-46848000D02*
X50560000Y-49020000D01*
X50560000Y-50980000D02*
X50560000Y-53152000D01*
X50600000Y-46856000D02*
X50600000Y-49020000D01*
X50600000Y-50980000D02*
X50600000Y-53144000D01*
X50640000Y-46863000D02*
X50640000Y-49020000D01*
X50640000Y-50980000D02*
X50640000Y-53137000D01*
X50680000Y-46872000D02*
X50680000Y-49020000D01*
X50680000Y-50980000D02*
X50680000Y-53128000D01*
X50721000Y-46881000D02*
X50721000Y-49020000D01*
X50721000Y-50980000D02*
X50721000Y-53119000D01*
X50761000Y-46890000D02*
X50761000Y-49020000D01*
X50761000Y-50980000D02*
X50761000Y-53110000D01*
X50801000Y-46900000D02*
X50801000Y-49020000D01*
X50801000Y-50980000D02*
X50801000Y-53100000D01*
X50841000Y-46910000D02*
X50841000Y-49020000D01*
X50841000Y-50980000D02*
X50841000Y-53090000D01*
X50881000Y-46921000D02*
X50881000Y-49020000D01*
X50881000Y-50980000D02*
X50881000Y-53079000D01*
X50921000Y-46933000D02*
X50921000Y-49020000D01*
X50921000Y-50980000D02*
X50921000Y-53067000D01*
X50961000Y-46945000D02*
X50961000Y-49020000D01*
X50961000Y-50980000D02*
X50961000Y-53055000D01*
X51001000Y-46958000D02*
X51001000Y-49020000D01*
X51001000Y-50980000D02*
X51001000Y-53042000D01*
X51041000Y-46971000D02*
X51041000Y-49020000D01*
X51041000Y-50980000D02*
X51041000Y-53029000D01*
X51081000Y-46985000D02*
X51081000Y-49020000D01*
X51081000Y-50980000D02*
X51081000Y-53015000D01*
X51121000Y-46999000D02*
X51121000Y-49020000D01*
X51121000Y-50980000D02*
X51121000Y-53001000D01*
X51161000Y-47014000D02*
X51161000Y-49020000D01*
X51161000Y-50980000D02*
X51161000Y-52986000D01*
X51201000Y-47030000D02*
X51201000Y-49020000D01*
X51201000Y-50980000D02*
X51201000Y-52970000D01*
X51241000Y-47046000D02*
X51241000Y-49020000D01*
X51241000Y-50980000D02*
X51241000Y-52954000D01*
X51281000Y-47063000D02*
X51281000Y-49020000D01*
X51281000Y-50980000D02*
X51281000Y-52937000D01*
X51321000Y-47081000D02*
X51321000Y-49020000D01*
X51321000Y-50980000D02*
X51321000Y-52919000D01*
X51361000Y-47099000D02*
X51361000Y-49020000D01*
X51361000Y-50980000D02*
X51361000Y-52901000D01*
X51401000Y-47118000D02*
X51401000Y-49020000D01*
X51401000Y-50980000D02*
X51401000Y-52882000D01*
X51441000Y-47137000D02*
X51441000Y-49020000D01*
X51441000Y-50980000D02*
X51441000Y-52863000D01*
X51481000Y-47157000D02*
X51481000Y-49020000D01*
X51481000Y-50980000D02*
X51481000Y-52843000D01*
X51521000Y-47178000D02*
X51521000Y-49020000D01*
X51521000Y-50980000D02*
X51521000Y-52822000D01*
X51561000Y-47200000D02*
X51561000Y-49020000D01*
X51561000Y-50980000D02*
X51561000Y-52800000D01*
X51601000Y-47222000D02*
X51601000Y-49020000D01*
X51601000Y-50980000D02*
X51601000Y-52778000D01*
X51641000Y-47245000D02*
X51641000Y-49020000D01*
X51641000Y-50980000D02*
X51641000Y-52755000D01*
X51681000Y-47269000D02*
X51681000Y-49020000D01*
X51681000Y-50980000D02*
X51681000Y-52731000D01*
X51721000Y-47294000D02*
X51721000Y-49020000D01*
X51721000Y-50980000D02*
X51721000Y-52706000D01*
X51761000Y-47319000D02*
X51761000Y-49020000D01*
X51761000Y-50980000D02*
X51761000Y-52681000D01*
X51801000Y-47346000D02*
X51801000Y-49020000D01*
X51801000Y-50980000D02*
X51801000Y-52654000D01*
X51841000Y-47373000D02*
X51841000Y-49020000D01*
X51841000Y-50980000D02*
X51841000Y-52627000D01*
X51881000Y-47401000D02*
X51881000Y-49020000D01*
X51881000Y-50980000D02*
X51881000Y-52599000D01*
X51921000Y-47430000D02*
X51921000Y-49020000D01*
X51921000Y-50980000D02*
X51921000Y-52570000D01*
X51961000Y-47460000D02*
X51961000Y-49020000D01*
X51961000Y-50980000D02*
X51961000Y-52540000D01*
X52001000Y-47490000D02*
X52001000Y-49020000D01*
X52001000Y-50980000D02*
X52001000Y-52510000D01*
X52041000Y-47522000D02*
X52041000Y-49020000D01*
X52041000Y-50980000D02*
X52041000Y-52478000D01*
X52081000Y-47555000D02*
X52081000Y-49020000D01*
X52081000Y-50980000D02*
X52081000Y-52445000D01*
X52121000Y-47589000D02*
X52121000Y-49020000D01*
X52121000Y-50980000D02*
X52121000Y-52411000D01*
X52161000Y-47625000D02*
X52161000Y-49020000D01*
X52161000Y-50980000D02*
X52161000Y-52375000D01*
X52201000Y-47661000D02*
X52201000Y-49020000D01*
X52201000Y-50980000D02*
X52201000Y-52339000D01*
X52241000Y-47699000D02*
X52241000Y-52301000D01*
X52281000Y-47738000D02*
X52281000Y-52262000D01*
X52321000Y-47778000D02*
X52321000Y-52222000D01*
X52361000Y-47820000D02*
X52361000Y-52180000D01*
X52401000Y-47863000D02*
X52401000Y-52137000D01*
X52441000Y-47908000D02*
X52441000Y-52092000D01*
X52481000Y-47955000D02*
X52481000Y-52045000D01*
X52521000Y-48003000D02*
X52521000Y-51997000D01*
X52561000Y-48054000D02*
X52561000Y-51946000D01*
X52601000Y-48106000D02*
X52601000Y-51894000D01*
X52641000Y-48161000D02*
X52641000Y-51839000D01*
X52681000Y-48219000D02*
X52681000Y-51781000D01*
X52721000Y-48279000D02*
X52721000Y-51721000D01*
X52761000Y-48342000D02*
X52761000Y-51658000D01*
X52801000Y-48409000D02*
X52801000Y-51591000D01*
X52841000Y-48480000D02*
X52841000Y-51520000D01*
X52881000Y-48555000D02*
X52881000Y-51445000D01*
X52921000Y-48636000D02*
X52921000Y-51364000D01*
X52961000Y-48722000D02*
X52961000Y-51278000D01*
X53001000Y-48816000D02*
X53001000Y-51184000D01*
X53041000Y-48919000D02*
X53041000Y-51081000D01*
X53081000Y-49034000D02*
X53081000Y-50966000D01*
X53121000Y-49166000D02*
X53121000Y-50834000D01*
X53161000Y-49324000D02*
X53161000Y-50676000D01*
X53201000Y-49532000D02*
X53201000Y-50468000D01*
X46550000Y-50000000D02*
X47750000Y-50000000D01*
X47150000Y-49350000D02*
X47150000Y-50650000D01*
X47150000Y-78350000D02*
X47150000Y-79650000D01*
X46550000Y-79000000D02*
X47750000Y-79000000D01*
X53201000Y-78532000D02*
X53201000Y-79468000D01*
X53161000Y-78324000D02*
X53161000Y-79676000D01*
X53121000Y-78166000D02*
X53121000Y-79834000D01*
X53081000Y-78034000D02*
X53081000Y-79966000D01*
X53041000Y-77919000D02*
X53041000Y-80081000D01*
X53001000Y-77816000D02*
X53001000Y-80184000D01*
X52961000Y-77722000D02*
X52961000Y-80278000D01*
X52921000Y-77636000D02*
X52921000Y-80364000D01*
X52881000Y-77555000D02*
X52881000Y-80445000D01*
X52841000Y-77480000D02*
X52841000Y-80520000D01*
X52801000Y-77409000D02*
X52801000Y-80591000D01*
X52761000Y-77342000D02*
X52761000Y-80658000D01*
X52721000Y-77279000D02*
X52721000Y-80721000D01*
X52681000Y-77219000D02*
X52681000Y-80781000D01*
X52641000Y-77161000D02*
X52641000Y-80839000D01*
X52601000Y-77106000D02*
X52601000Y-80894000D01*
X52561000Y-77054000D02*
X52561000Y-80946000D01*
X52521000Y-77003000D02*
X52521000Y-80997000D01*
X52481000Y-76955000D02*
X52481000Y-81045000D01*
X52441000Y-76908000D02*
X52441000Y-81092000D01*
X52401000Y-76863000D02*
X52401000Y-81137000D01*
X52361000Y-76820000D02*
X52361000Y-81180000D01*
X52321000Y-76778000D02*
X52321000Y-81222000D01*
X52281000Y-76738000D02*
X52281000Y-81262000D01*
X52241000Y-76699000D02*
X52241000Y-81301000D01*
X52201000Y-79980000D02*
X52201000Y-81339000D01*
X52201000Y-76661000D02*
X52201000Y-78020000D01*
X52161000Y-79980000D02*
X52161000Y-81375000D01*
X52161000Y-76625000D02*
X52161000Y-78020000D01*
X52121000Y-79980000D02*
X52121000Y-81411000D01*
X52121000Y-76589000D02*
X52121000Y-78020000D01*
X52081000Y-79980000D02*
X52081000Y-81445000D01*
X52081000Y-76555000D02*
X52081000Y-78020000D01*
X52041000Y-79980000D02*
X52041000Y-81478000D01*
X52041000Y-76522000D02*
X52041000Y-78020000D01*
X52001000Y-79980000D02*
X52001000Y-81510000D01*
X52001000Y-76490000D02*
X52001000Y-78020000D01*
X51961000Y-79980000D02*
X51961000Y-81540000D01*
X51961000Y-76460000D02*
X51961000Y-78020000D01*
X51921000Y-79980000D02*
X51921000Y-81570000D01*
X51921000Y-76430000D02*
X51921000Y-78020000D01*
X51881000Y-79980000D02*
X51881000Y-81599000D01*
X51881000Y-76401000D02*
X51881000Y-78020000D01*
X51841000Y-79980000D02*
X51841000Y-81627000D01*
X51841000Y-76373000D02*
X51841000Y-78020000D01*
X51801000Y-79980000D02*
X51801000Y-81654000D01*
X51801000Y-76346000D02*
X51801000Y-78020000D01*
X51761000Y-79980000D02*
X51761000Y-81681000D01*
X51761000Y-76319000D02*
X51761000Y-78020000D01*
X51721000Y-79980000D02*
X51721000Y-81706000D01*
X51721000Y-76294000D02*
X51721000Y-78020000D01*
X51681000Y-79980000D02*
X51681000Y-81731000D01*
X51681000Y-76269000D02*
X51681000Y-78020000D01*
X51641000Y-79980000D02*
X51641000Y-81755000D01*
X51641000Y-76245000D02*
X51641000Y-78020000D01*
X51601000Y-79980000D02*
X51601000Y-81778000D01*
X51601000Y-76222000D02*
X51601000Y-78020000D01*
X51561000Y-79980000D02*
X51561000Y-81800000D01*
X51561000Y-76200000D02*
X51561000Y-78020000D01*
X51521000Y-79980000D02*
X51521000Y-81822000D01*
X51521000Y-76178000D02*
X51521000Y-78020000D01*
X51481000Y-79980000D02*
X51481000Y-81843000D01*
X51481000Y-76157000D02*
X51481000Y-78020000D01*
X51441000Y-79980000D02*
X51441000Y-81863000D01*
X51441000Y-76137000D02*
X51441000Y-78020000D01*
X51401000Y-79980000D02*
X51401000Y-81882000D01*
X51401000Y-76118000D02*
X51401000Y-78020000D01*
X51361000Y-79980000D02*
X51361000Y-81901000D01*
X51361000Y-76099000D02*
X51361000Y-78020000D01*
X51321000Y-79980000D02*
X51321000Y-81919000D01*
X51321000Y-76081000D02*
X51321000Y-78020000D01*
X51281000Y-79980000D02*
X51281000Y-81937000D01*
X51281000Y-76063000D02*
X51281000Y-78020000D01*
X51241000Y-79980000D02*
X51241000Y-81954000D01*
X51241000Y-76046000D02*
X51241000Y-78020000D01*
X51201000Y-79980000D02*
X51201000Y-81970000D01*
X51201000Y-76030000D02*
X51201000Y-78020000D01*
X51161000Y-79980000D02*
X51161000Y-81986000D01*
X51161000Y-76014000D02*
X51161000Y-78020000D01*
X51121000Y-79980000D02*
X51121000Y-82001000D01*
X51121000Y-75999000D02*
X51121000Y-78020000D01*
X51081000Y-79980000D02*
X51081000Y-82015000D01*
X51081000Y-75985000D02*
X51081000Y-78020000D01*
X51041000Y-79980000D02*
X51041000Y-82029000D01*
X51041000Y-75971000D02*
X51041000Y-78020000D01*
X51001000Y-79980000D02*
X51001000Y-82042000D01*
X51001000Y-75958000D02*
X51001000Y-78020000D01*
X50961000Y-79980000D02*
X50961000Y-82055000D01*
X50961000Y-75945000D02*
X50961000Y-78020000D01*
X50921000Y-79980000D02*
X50921000Y-82067000D01*
X50921000Y-75933000D02*
X50921000Y-78020000D01*
X50881000Y-79980000D02*
X50881000Y-82079000D01*
X50881000Y-75921000D02*
X50881000Y-78020000D01*
X50841000Y-79980000D02*
X50841000Y-82090000D01*
X50841000Y-75910000D02*
X50841000Y-78020000D01*
X50801000Y-79980000D02*
X50801000Y-82100000D01*
X50801000Y-75900000D02*
X50801000Y-78020000D01*
X50761000Y-79980000D02*
X50761000Y-82110000D01*
X50761000Y-75890000D02*
X50761000Y-78020000D01*
X50721000Y-79980000D02*
X50721000Y-82119000D01*
X50721000Y-75881000D02*
X50721000Y-78020000D01*
X50680000Y-79980000D02*
X50680000Y-82128000D01*
X50680000Y-75872000D02*
X50680000Y-78020000D01*
X50640000Y-79980000D02*
X50640000Y-82137000D01*
X50640000Y-75863000D02*
X50640000Y-78020000D01*
X50600000Y-79980000D02*
X50600000Y-82144000D01*
X50600000Y-75856000D02*
X50600000Y-78020000D01*
X50560000Y-79980000D02*
X50560000Y-82152000D01*
X50560000Y-75848000D02*
X50560000Y-78020000D01*
X50520000Y-79980000D02*
X50520000Y-82158000D01*
X50520000Y-75842000D02*
X50520000Y-78020000D01*
X50480000Y-79980000D02*
X50480000Y-82165000D01*
X50480000Y-75835000D02*
X50480000Y-78020000D01*
X50440000Y-79980000D02*
X50440000Y-82170000D01*
X50440000Y-75830000D02*
X50440000Y-78020000D01*
X50400000Y-79980000D02*
X50400000Y-82176000D01*
X50400000Y-75824000D02*
X50400000Y-78020000D01*
X50360000Y-79980000D02*
X50360000Y-82180000D01*
X50360000Y-75820000D02*
X50360000Y-78020000D01*
X50320000Y-79980000D02*
X50320000Y-82185000D01*
X50320000Y-75815000D02*
X50320000Y-78020000D01*
X50280000Y-79980000D02*
X50280000Y-82188000D01*
X50280000Y-75812000D02*
X50280000Y-78020000D01*
X50240000Y-75808000D02*
X50240000Y-82192000D01*
X50200000Y-75806000D02*
X50200000Y-82194000D01*
X50160000Y-75803000D02*
X50160000Y-82197000D01*
X50120000Y-75802000D02*
X50120000Y-82198000D01*
X50080000Y-75800000D02*
X50080000Y-82200000D01*
X50040000Y-75800000D02*
X50040000Y-82200000D01*
X50000000Y-75800000D02*
X50000000Y-82200000D01*
X53017820Y-80179136D02*
G75*
G03X53017482Y-77820000I-3017820J1179136D01*
G01*
X53017820Y-80179136D02*
G75*
G02X46982518Y-80180000I-3017820J1179136D01*
G01*
X53017820Y-77820864D02*
G75*
G03X46982518Y-77820000I-3017820J-1179136D01*
G01*
X28820277Y-88694278D02*
G75*
G03X28820000Y-93305580I1179723J-2305722D01*
G01*
X31179723Y-88694278D02*
G75*
G02X31180000Y-93305580I-1179723J-2305722D01*
G01*
X31179723Y-88694278D02*
G75*
G03X28820000Y-88694420I-1179723J-2305722D01*
G01*
X27450000Y-91000000D02*
X32550000Y-91000000D01*
X27450000Y-90960000D02*
X29020000Y-90960000D01*
X30980000Y-90960000D02*
X32550000Y-90960000D01*
X27451000Y-90920000D02*
X29020000Y-90920000D01*
X30980000Y-90920000D02*
X32549000Y-90920000D01*
X27452000Y-90880000D02*
X29020000Y-90880000D01*
X30980000Y-90880000D02*
X32548000Y-90880000D01*
X27454000Y-90840000D02*
X29020000Y-90840000D01*
X30980000Y-90840000D02*
X32546000Y-90840000D01*
X27457000Y-90800000D02*
X29020000Y-90800000D01*
X30980000Y-90800000D02*
X32543000Y-90800000D01*
X27461000Y-90760000D02*
X29020000Y-90760000D01*
X30980000Y-90760000D02*
X32539000Y-90760000D01*
X27465000Y-90720000D02*
X29020000Y-90720000D01*
X30980000Y-90720000D02*
X32535000Y-90720000D01*
X27469000Y-90680000D02*
X29020000Y-90680000D01*
X30980000Y-90680000D02*
X32531000Y-90680000D01*
X27475000Y-90640000D02*
X29020000Y-90640000D01*
X30980000Y-90640000D02*
X32525000Y-90640000D01*
X27481000Y-90600000D02*
X29020000Y-90600000D01*
X30980000Y-90600000D02*
X32519000Y-90600000D01*
X27487000Y-90560000D02*
X29020000Y-90560000D01*
X30980000Y-90560000D02*
X32513000Y-90560000D01*
X27494000Y-90520000D02*
X29020000Y-90520000D01*
X30980000Y-90520000D02*
X32506000Y-90520000D01*
X27502000Y-90480000D02*
X29020000Y-90480000D01*
X30980000Y-90480000D02*
X32498000Y-90480000D01*
X27511000Y-90440000D02*
X29020000Y-90440000D01*
X30980000Y-90440000D02*
X32489000Y-90440000D01*
X27520000Y-90400000D02*
X29020000Y-90400000D01*
X30980000Y-90400000D02*
X32480000Y-90400000D01*
X27530000Y-90360000D02*
X29020000Y-90360000D01*
X30980000Y-90360000D02*
X32470000Y-90360000D01*
X27540000Y-90320000D02*
X29020000Y-90320000D01*
X30980000Y-90320000D02*
X32460000Y-90320000D01*
X27552000Y-90279000D02*
X29020000Y-90279000D01*
X30980000Y-90279000D02*
X32448000Y-90279000D01*
X27564000Y-90239000D02*
X29020000Y-90239000D01*
X30980000Y-90239000D02*
X32436000Y-90239000D01*
X27576000Y-90199000D02*
X29020000Y-90199000D01*
X30980000Y-90199000D02*
X32424000Y-90199000D01*
X27590000Y-90159000D02*
X29020000Y-90159000D01*
X30980000Y-90159000D02*
X32410000Y-90159000D01*
X27604000Y-90119000D02*
X29020000Y-90119000D01*
X30980000Y-90119000D02*
X32396000Y-90119000D01*
X27618000Y-90079000D02*
X29020000Y-90079000D01*
X30980000Y-90079000D02*
X32382000Y-90079000D01*
X27634000Y-90039000D02*
X29020000Y-90039000D01*
X30980000Y-90039000D02*
X32366000Y-90039000D01*
X27650000Y-89999000D02*
X29020000Y-89999000D01*
X30980000Y-89999000D02*
X32350000Y-89999000D01*
X27667000Y-89959000D02*
X29020000Y-89959000D01*
X30980000Y-89959000D02*
X32333000Y-89959000D01*
X27685000Y-89919000D02*
X29020000Y-89919000D01*
X30980000Y-89919000D02*
X32315000Y-89919000D01*
X27704000Y-89879000D02*
X29020000Y-89879000D01*
X30980000Y-89879000D02*
X32296000Y-89879000D01*
X27724000Y-89839000D02*
X29020000Y-89839000D01*
X30980000Y-89839000D02*
X32276000Y-89839000D01*
X27744000Y-89799000D02*
X29020000Y-89799000D01*
X30980000Y-89799000D02*
X32256000Y-89799000D01*
X27766000Y-89759000D02*
X29020000Y-89759000D01*
X30980000Y-89759000D02*
X32234000Y-89759000D01*
X27788000Y-89719000D02*
X29020000Y-89719000D01*
X30980000Y-89719000D02*
X32212000Y-89719000D01*
X27811000Y-89679000D02*
X29020000Y-89679000D01*
X30980000Y-89679000D02*
X32189000Y-89679000D01*
X27835000Y-89639000D02*
X29020000Y-89639000D01*
X30980000Y-89639000D02*
X32165000Y-89639000D01*
X27860000Y-89599000D02*
X29020000Y-89599000D01*
X30980000Y-89599000D02*
X32140000Y-89599000D01*
X27887000Y-89559000D02*
X29020000Y-89559000D01*
X30980000Y-89559000D02*
X32113000Y-89559000D01*
X27914000Y-89519000D02*
X29020000Y-89519000D01*
X30980000Y-89519000D02*
X32086000Y-89519000D01*
X27942000Y-89479000D02*
X29020000Y-89479000D01*
X30980000Y-89479000D02*
X32058000Y-89479000D01*
X27972000Y-89439000D02*
X29020000Y-89439000D01*
X30980000Y-89439000D02*
X32028000Y-89439000D01*
X28003000Y-89399000D02*
X29020000Y-89399000D01*
X30980000Y-89399000D02*
X31997000Y-89399000D01*
X28035000Y-89359000D02*
X29020000Y-89359000D01*
X30980000Y-89359000D02*
X31965000Y-89359000D01*
X28068000Y-89319000D02*
X29020000Y-89319000D01*
X30980000Y-89319000D02*
X31932000Y-89319000D01*
X28103000Y-89279000D02*
X29020000Y-89279000D01*
X30980000Y-89279000D02*
X31897000Y-89279000D01*
X28139000Y-89239000D02*
X29020000Y-89239000D01*
X30980000Y-89239000D02*
X31861000Y-89239000D01*
X28177000Y-89199000D02*
X29020000Y-89199000D01*
X30980000Y-89199000D02*
X31823000Y-89199000D01*
X28217000Y-89159000D02*
X29020000Y-89159000D01*
X30980000Y-89159000D02*
X31783000Y-89159000D01*
X28258000Y-89119000D02*
X29020000Y-89119000D01*
X30980000Y-89119000D02*
X31742000Y-89119000D01*
X28301000Y-89079000D02*
X29020000Y-89079000D01*
X30980000Y-89079000D02*
X31699000Y-89079000D01*
X28346000Y-89039000D02*
X29020000Y-89039000D01*
X30980000Y-89039000D02*
X31654000Y-89039000D01*
X28394000Y-88999000D02*
X31606000Y-88999000D01*
X28444000Y-88959000D02*
X31556000Y-88959000D01*
X28496000Y-88919000D02*
X31504000Y-88919000D01*
X28552000Y-88879000D02*
X31448000Y-88879000D01*
X28610000Y-88839000D02*
X31390000Y-88839000D01*
X28673000Y-88799000D02*
X31327000Y-88799000D01*
X28739000Y-88759000D02*
X31261000Y-88759000D01*
X28811000Y-88719000D02*
X31189000Y-88719000D01*
X28888000Y-88679000D02*
X31112000Y-88679000D01*
X28972000Y-88639000D02*
X31028000Y-88639000D01*
X29066000Y-88599000D02*
X30934000Y-88599000D01*
X29171000Y-88559000D02*
X30829000Y-88559000D01*
X29293000Y-88519000D02*
X30707000Y-88519000D01*
X29441000Y-88479000D02*
X30559000Y-88479000D01*
X29646000Y-88439000D02*
X30354000Y-88439000D01*
X30000000Y-94200000D02*
X30000000Y-93000000D01*
X29350000Y-93600000D02*
X30650000Y-93600000D01*
X94720000Y-101175000D02*
X94720000Y-100990000D01*
X94720000Y-103010000D02*
X94720000Y-102825000D01*
X94730000Y-100990000D02*
X94720000Y-100990000D01*
X96920000Y-100990000D02*
X96189000Y-100990000D01*
X94730000Y-103010000D02*
X94720000Y-103010000D01*
X96920000Y-103010000D02*
X96189000Y-103010000D01*
X74940000Y-73590000D02*
X77060000Y-73590000D01*
X76000000Y-69360000D02*
X76000000Y-70130000D01*
X76000000Y-75020000D02*
X76000000Y-74250000D01*
X74940000Y-70130000D02*
X74940000Y-74250000D01*
X77060000Y-70130000D02*
X74940000Y-70130000D01*
X77060000Y-74250000D02*
X77060000Y-70130000D01*
X74940000Y-74250000D02*
X77060000Y-74250000D01*
X74940000Y-64250000D02*
X77060000Y-64250000D01*
X77060000Y-64250000D02*
X77060000Y-60130000D01*
X77060000Y-60130000D02*
X74940000Y-60130000D01*
X74940000Y-60130000D02*
X74940000Y-64250000D01*
X76000000Y-65020000D02*
X76000000Y-64250000D01*
X76000000Y-59360000D02*
X76000000Y-60130000D01*
X74940000Y-63590000D02*
X77060000Y-63590000D01*
X74940000Y-83590000D02*
X77060000Y-83590000D01*
X76000000Y-79360000D02*
X76000000Y-80130000D01*
X76000000Y-85020000D02*
X76000000Y-84250000D01*
X74940000Y-80130000D02*
X74940000Y-84250000D01*
X77060000Y-80130000D02*
X74940000Y-80130000D01*
X77060000Y-84250000D02*
X77060000Y-80130000D01*
X74940000Y-84250000D02*
X77060000Y-84250000D01*
X74940000Y-94250000D02*
X77060000Y-94250000D01*
X77060000Y-94250000D02*
X77060000Y-90130000D01*
X77060000Y-90130000D02*
X74940000Y-90130000D01*
X74940000Y-90130000D02*
X74940000Y-94250000D01*
X76000000Y-95020000D02*
X76000000Y-94250000D01*
X76000000Y-89360000D02*
X76000000Y-90130000D01*
X74940000Y-93590000D02*
X77060000Y-93590000D01*
D10*
X100000000Y-94000000D02*
X86000000Y-94000000D01*
X86000000Y-94000000D02*
X86000000Y-82500000D01*
X86000000Y-82500000D02*
X100000000Y-82500000D01*
X100000000Y-82500000D02*
X100000000Y-94000000D01*
X100000000Y-89800000D02*
X103500000Y-89800000D01*
X103500000Y-89800000D02*
X103500000Y-86200000D01*
X100000000Y-86200000D02*
X103500000Y-86200000D01*
D11*
X83330000Y-56330000D02*
X82000000Y-56330000D01*
X83330000Y-55000000D02*
X83330000Y-56330000D01*
X83330000Y-53730000D02*
X80670000Y-53730000D01*
X80670000Y-53730000D02*
X80670000Y-25730000D01*
X83330000Y-53730000D02*
X83330000Y-25730000D01*
X83330000Y-25730000D02*
X80670000Y-25730000D01*
X79330000Y-25730000D02*
X76670000Y-25730000D01*
X79330000Y-53730000D02*
X79330000Y-25730000D01*
X76670000Y-53730000D02*
X76670000Y-25730000D01*
X79330000Y-53730000D02*
X76670000Y-53730000D01*
X79330000Y-55000000D02*
X79330000Y-56330000D01*
X79330000Y-56330000D02*
X78000000Y-56330000D01*
D10*
X100000000Y-29000000D02*
X86000000Y-29000000D01*
X86000000Y-29000000D02*
X86000000Y-17500000D01*
X86000000Y-17500000D02*
X100000000Y-17500000D01*
X100000000Y-17500000D02*
X100000000Y-29000000D01*
X100000000Y-24800000D02*
X103500000Y-24800000D01*
X103500000Y-24800000D02*
X103500000Y-21200000D01*
X100000000Y-21200000D02*
X103500000Y-21200000D01*
X100000000Y-6200000D02*
X103500000Y-6200000D01*
X103500000Y-9800000D02*
X103500000Y-6200000D01*
X100000000Y-9800000D02*
X103500000Y-9800000D01*
X100000000Y-2500000D02*
X100000000Y-14000000D01*
X86000000Y-2500000D02*
X100000000Y-2500000D01*
X86000000Y-14000000D02*
X86000000Y-2500000D01*
X100000000Y-14000000D02*
X86000000Y-14000000D01*
X0Y-23800000D02*
X-3500000Y-23800000D01*
X-3500000Y-20200000D02*
X-3500000Y-23800000D01*
X0Y-20200000D02*
X-3500000Y-20200000D01*
X0Y-27500000D02*
X0Y-16000000D01*
X14000000Y-27500000D02*
X0Y-27500000D01*
X14000000Y-16000000D02*
X14000000Y-27500000D01*
X0Y-16000000D02*
X14000000Y-16000000D01*
D11*
X16670000Y-38670000D02*
X18000000Y-38670000D01*
X16670000Y-40000000D02*
X16670000Y-38670000D01*
X16670000Y-41270000D02*
X19330000Y-41270000D01*
X19330000Y-41270000D02*
X19330000Y-56570000D01*
X16670000Y-41270000D02*
X16670000Y-56570000D01*
X16670000Y-56570000D02*
X19330000Y-56570000D01*
X23330000Y-43430000D02*
X20670000Y-43430000D01*
X23330000Y-58730000D02*
X23330000Y-43430000D01*
X20670000Y-58730000D02*
X20670000Y-43430000D01*
X23330000Y-58730000D02*
X20670000Y-58730000D01*
X23330000Y-60000000D02*
X23330000Y-61330000D01*
X23330000Y-61330000D02*
X22000000Y-61330000D01*
D10*
X0Y-81000000D02*
X14000000Y-81000000D01*
X14000000Y-81000000D02*
X14000000Y-92500000D01*
X14000000Y-92500000D02*
X0Y-92500000D01*
X0Y-92500000D02*
X0Y-81000000D01*
X0Y-85200000D02*
X-3500000Y-85200000D01*
X-3500000Y-85200000D02*
X-3500000Y-88800000D01*
X0Y-88800000D02*
X-3500000Y-88800000D01*
X0Y-103800000D02*
X-3500000Y-103800000D01*
X-3500000Y-100200000D02*
X-3500000Y-103800000D01*
X0Y-100200000D02*
X-3500000Y-100200000D01*
X0Y-107500000D02*
X0Y-96000000D01*
X14000000Y-107500000D02*
X0Y-107500000D01*
X14000000Y-96000000D02*
X14000000Y-107500000D01*
X0Y-96000000D02*
X14000000Y-96000000D01*
D11*
X66122795Y-10135816D02*
G75*
G02X66850000Y-10660000I-1122795J-2324184D01*
G01*
X63901193Y-10103600D02*
G75*
G03X62400000Y-12460000I1098807J-2356400D01*
G01*
X63901193Y-14816400D02*
G75*
G02X62400000Y-12460000I1098807J2356400D01*
G01*
X66122795Y-14784184D02*
G75*
G03X66850000Y-14260000I-1122795J2324184D01*
G01*
X66850000Y-14260000D02*
X66850000Y-10660000D01*
X70850000Y-39260000D02*
X70850000Y-35660000D01*
X70122795Y-39784184D02*
G75*
G03X70850000Y-39260000I-1122795J2324184D01*
G01*
X67901193Y-39816400D02*
G75*
G02X66400000Y-37460000I1098807J2356400D01*
G01*
X67901193Y-35103600D02*
G75*
G03X66400000Y-37460000I1098807J-2356400D01*
G01*
X70122795Y-35135816D02*
G75*
G02X70850000Y-35660000I-1122795J-2324184D01*
G01*
X70122795Y-45135816D02*
G75*
G02X70850000Y-45660000I-1122795J-2324184D01*
G01*
X67901193Y-45103600D02*
G75*
G03X66400000Y-47460000I1098807J-2356400D01*
G01*
X67901193Y-49816400D02*
G75*
G02X66400000Y-47460000I1098807J2356400D01*
G01*
X70122795Y-49784184D02*
G75*
G03X70850000Y-49260000I-1122795J2324184D01*
G01*
X70850000Y-49260000D02*
X70850000Y-45660000D01*
X71000000Y-16180000D02*
X71000000Y-15290000D01*
X71000000Y-7980000D02*
X71000000Y-8870000D01*
X72310000Y-15290000D02*
X72310000Y-8870000D01*
X69690000Y-15290000D02*
X72310000Y-15290000D01*
X69690000Y-8870000D02*
X69690000Y-15290000D01*
X72310000Y-8870000D02*
X69690000Y-8870000D01*
X87690000Y-105130000D02*
X90310000Y-105130000D01*
X90310000Y-105130000D02*
X90310000Y-98710000D01*
X90310000Y-98710000D02*
X87690000Y-98710000D01*
X87690000Y-98710000D02*
X87690000Y-105130000D01*
X89000000Y-106020000D02*
X89000000Y-105130000D01*
X89000000Y-97820000D02*
X89000000Y-98710000D01*
X59000000Y-8820000D02*
X59000000Y-9710000D01*
X59000000Y-17020000D02*
X59000000Y-16130000D01*
X57690000Y-9710000D02*
X57690000Y-16130000D01*
X60310000Y-9710000D02*
X57690000Y-9710000D01*
X60310000Y-16130000D02*
X60310000Y-9710000D01*
X57690000Y-16130000D02*
X60310000Y-16130000D01*
X29870000Y-52690000D02*
X29870000Y-55310000D01*
X29870000Y-55310000D02*
X36290000Y-55310000D01*
X36290000Y-55310000D02*
X36290000Y-52690000D01*
X36290000Y-52690000D02*
X29870000Y-52690000D01*
X28980000Y-54000000D02*
X29870000Y-54000000D01*
X37180000Y-54000000D02*
X36290000Y-54000000D01*
X29870000Y-17690000D02*
X29870000Y-20310000D01*
X29870000Y-20310000D02*
X36290000Y-20310000D01*
X36290000Y-20310000D02*
X36290000Y-17690000D01*
X36290000Y-17690000D02*
X29870000Y-17690000D01*
X28980000Y-19000000D02*
X29870000Y-19000000D01*
X37180000Y-19000000D02*
X36290000Y-19000000D01*
X37180000Y-59000000D02*
X36290000Y-59000000D01*
X28980000Y-59000000D02*
X29870000Y-59000000D01*
X36290000Y-57690000D02*
X29870000Y-57690000D01*
X36290000Y-60310000D02*
X36290000Y-57690000D01*
X29870000Y-60310000D02*
X36290000Y-60310000D01*
X29870000Y-57690000D02*
X29870000Y-60310000D01*
X37180000Y-79000000D02*
X36290000Y-79000000D01*
X28980000Y-79000000D02*
X29870000Y-79000000D01*
X36290000Y-77690000D02*
X29870000Y-77690000D01*
X36290000Y-80310000D02*
X36290000Y-77690000D01*
X29870000Y-80310000D02*
X36290000Y-80310000D01*
X29870000Y-77690000D02*
X29870000Y-80310000D01*
X74690000Y-15330000D02*
X77310000Y-15330000D01*
X77310000Y-15330000D02*
X77310000Y-8910000D01*
X77310000Y-8910000D02*
X74690000Y-8910000D01*
X74690000Y-8910000D02*
X74690000Y-15330000D01*
X76000000Y-16220000D02*
X76000000Y-15330000D01*
X76000000Y-8020000D02*
X76000000Y-8910000D01*
X29870000Y-47690000D02*
X29870000Y-50310000D01*
X29870000Y-50310000D02*
X36290000Y-50310000D01*
X36290000Y-50310000D02*
X36290000Y-47690000D01*
X36290000Y-47690000D02*
X29870000Y-47690000D01*
X28980000Y-49000000D02*
X29870000Y-49000000D01*
X37180000Y-49000000D02*
X36290000Y-49000000D01*
X37180000Y-64000000D02*
X36290000Y-64000000D01*
X28980000Y-64000000D02*
X29870000Y-64000000D01*
X36290000Y-62690000D02*
X29870000Y-62690000D01*
X36290000Y-65310000D02*
X36290000Y-62690000D01*
X29870000Y-65310000D02*
X36290000Y-65310000D01*
X29870000Y-62690000D02*
X29870000Y-65310000D01*
X29870000Y-72690000D02*
X29870000Y-75310000D01*
X29870000Y-75310000D02*
X36290000Y-75310000D01*
X36290000Y-75310000D02*
X36290000Y-72690000D01*
X36290000Y-72690000D02*
X29870000Y-72690000D01*
X28980000Y-74000000D02*
X29870000Y-74000000D01*
X37180000Y-74000000D02*
X36290000Y-74000000D01*
X37180000Y-69000000D02*
X36290000Y-69000000D01*
X28980000Y-69000000D02*
X29870000Y-69000000D01*
X36290000Y-67690000D02*
X29870000Y-67690000D01*
X36290000Y-70310000D02*
X36290000Y-67690000D01*
X29870000Y-70310000D02*
X36290000Y-70310000D01*
X29870000Y-67690000D02*
X29870000Y-70310000D01*
X42870000Y-105690000D02*
X42870000Y-108310000D01*
X42870000Y-108310000D02*
X49290000Y-108310000D01*
X49290000Y-108310000D02*
X49290000Y-105690000D01*
X49290000Y-105690000D02*
X42870000Y-105690000D01*
X41980000Y-107000000D02*
X42870000Y-107000000D01*
X50180000Y-107000000D02*
X49290000Y-107000000D01*
X37180000Y-44000000D02*
X36290000Y-44000000D01*
X28980000Y-44000000D02*
X29870000Y-44000000D01*
X36290000Y-42690000D02*
X29870000Y-42690000D01*
X36290000Y-45310000D02*
X36290000Y-42690000D01*
X29870000Y-45310000D02*
X36290000Y-45310000D01*
X29870000Y-42690000D02*
X29870000Y-45310000D01*
X37180000Y-39000000D02*
X36290000Y-39000000D01*
X28980000Y-39000000D02*
X29870000Y-39000000D01*
X36290000Y-37690000D02*
X29870000Y-37690000D01*
X36290000Y-40310000D02*
X36290000Y-37690000D01*
X29870000Y-40310000D02*
X36290000Y-40310000D01*
X29870000Y-37690000D02*
X29870000Y-40310000D01*
X61870000Y-92690000D02*
X61870000Y-95310000D01*
X61870000Y-95310000D02*
X68290000Y-95310000D01*
X68290000Y-95310000D02*
X68290000Y-92690000D01*
X68290000Y-92690000D02*
X61870000Y-92690000D01*
X60980000Y-94000000D02*
X61870000Y-94000000D01*
X69180000Y-94000000D02*
X68290000Y-94000000D01*
X37180000Y-29000000D02*
X36290000Y-29000000D01*
X28980000Y-29000000D02*
X29870000Y-29000000D01*
X36290000Y-27690000D02*
X29870000Y-27690000D01*
X36290000Y-30310000D02*
X36290000Y-27690000D01*
X29870000Y-30310000D02*
X36290000Y-30310000D01*
X29870000Y-27690000D02*
X29870000Y-30310000D01*
X61870000Y-72690000D02*
X61870000Y-75310000D01*
X61870000Y-75310000D02*
X68290000Y-75310000D01*
X68290000Y-75310000D02*
X68290000Y-72690000D01*
X68290000Y-72690000D02*
X61870000Y-72690000D01*
X60980000Y-74000000D02*
X61870000Y-74000000D01*
X69180000Y-74000000D02*
X68290000Y-74000000D01*
X29870000Y-32690000D02*
X29870000Y-35310000D01*
X29870000Y-35310000D02*
X36290000Y-35310000D01*
X36290000Y-35310000D02*
X36290000Y-32690000D01*
X36290000Y-32690000D02*
X29870000Y-32690000D01*
X28980000Y-34000000D02*
X29870000Y-34000000D01*
X37180000Y-34000000D02*
X36290000Y-34000000D01*
X63180000Y-107000000D02*
X62290000Y-107000000D01*
X54980000Y-107000000D02*
X55870000Y-107000000D01*
X62290000Y-105690000D02*
X55870000Y-105690000D01*
X62290000Y-108310000D02*
X62290000Y-105690000D01*
X55870000Y-108310000D02*
X62290000Y-108310000D01*
X55870000Y-105690000D02*
X55870000Y-108310000D01*
X29870000Y-22690000D02*
X29870000Y-25310000D01*
X29870000Y-25310000D02*
X36290000Y-25310000D01*
X36290000Y-25310000D02*
X36290000Y-22690000D01*
X36290000Y-22690000D02*
X29870000Y-22690000D01*
X28980000Y-24000000D02*
X29870000Y-24000000D01*
X37180000Y-24000000D02*
X36290000Y-24000000D01*
X37180000Y-4000000D02*
X36290000Y-4000000D01*
X28980000Y-4000000D02*
X29870000Y-4000000D01*
X36290000Y-2690000D02*
X29870000Y-2690000D01*
X36290000Y-5310000D02*
X36290000Y-2690000D01*
X29870000Y-5310000D02*
X36290000Y-5310000D01*
X29870000Y-2690000D02*
X29870000Y-5310000D01*
X28820000Y-107000000D02*
X29710000Y-107000000D01*
X37020000Y-107000000D02*
X36130000Y-107000000D01*
X29710000Y-108310000D02*
X36130000Y-108310000D01*
X29710000Y-105690000D02*
X29710000Y-108310000D01*
X36130000Y-105690000D02*
X29710000Y-105690000D01*
X36130000Y-108310000D02*
X36130000Y-105690000D01*
X59870000Y-2690000D02*
X59870000Y-5310000D01*
X59870000Y-5310000D02*
X66290000Y-5310000D01*
X66290000Y-5310000D02*
X66290000Y-2690000D01*
X66290000Y-2690000D02*
X59870000Y-2690000D01*
X58980000Y-4000000D02*
X59870000Y-4000000D01*
X67180000Y-4000000D02*
X66290000Y-4000000D01*
X29870000Y-82690000D02*
X29870000Y-85310000D01*
X29870000Y-85310000D02*
X36290000Y-85310000D01*
X36290000Y-85310000D02*
X36290000Y-82690000D01*
X36290000Y-82690000D02*
X29870000Y-82690000D01*
X28980000Y-84000000D02*
X29870000Y-84000000D01*
X37180000Y-84000000D02*
X36290000Y-84000000D01*
X29870000Y-12690000D02*
X29870000Y-15310000D01*
X29870000Y-15310000D02*
X36290000Y-15310000D01*
X36290000Y-15310000D02*
X36290000Y-12690000D01*
X36290000Y-12690000D02*
X29870000Y-12690000D01*
X28980000Y-14000000D02*
X29870000Y-14000000D01*
X37180000Y-14000000D02*
X36290000Y-14000000D01*
X37180000Y-9000000D02*
X36290000Y-9000000D01*
X28980000Y-9000000D02*
X29870000Y-9000000D01*
X36290000Y-7690000D02*
X29870000Y-7690000D01*
X36290000Y-10310000D02*
X36290000Y-7690000D01*
X29870000Y-10310000D02*
X36290000Y-10310000D01*
X29870000Y-7690000D02*
X29870000Y-10310000D01*
X61870000Y-52690000D02*
X61870000Y-55310000D01*
X61870000Y-55310000D02*
X68290000Y-55310000D01*
X68290000Y-55310000D02*
X68290000Y-52690000D01*
X68290000Y-52690000D02*
X61870000Y-52690000D01*
X60980000Y-54000000D02*
X61870000Y-54000000D01*
X69180000Y-54000000D02*
X68290000Y-54000000D01*
X61870000Y-62690000D02*
X61870000Y-65310000D01*
X61870000Y-65310000D02*
X68290000Y-65310000D01*
X68290000Y-65310000D02*
X68290000Y-62690000D01*
X68290000Y-62690000D02*
X61870000Y-62690000D01*
X60980000Y-64000000D02*
X61870000Y-64000000D01*
X69180000Y-64000000D02*
X68290000Y-64000000D01*
X69180000Y-59000000D02*
X68290000Y-59000000D01*
X60980000Y-59000000D02*
X61870000Y-59000000D01*
X68290000Y-57690000D02*
X61870000Y-57690000D01*
X68290000Y-60310000D02*
X68290000Y-57690000D01*
X61870000Y-60310000D02*
X68290000Y-60310000D01*
X61870000Y-57690000D02*
X61870000Y-60310000D01*
X69180000Y-89000000D02*
X68290000Y-89000000D01*
X60980000Y-89000000D02*
X61870000Y-89000000D01*
X68290000Y-87690000D02*
X61870000Y-87690000D01*
X68290000Y-90310000D02*
X68290000Y-87690000D01*
X61870000Y-90310000D02*
X68290000Y-90310000D01*
X61870000Y-87690000D02*
X61870000Y-90310000D01*
X69180000Y-79000000D02*
X68290000Y-79000000D01*
X60980000Y-79000000D02*
X61870000Y-79000000D01*
X68290000Y-77690000D02*
X61870000Y-77690000D01*
X68290000Y-80310000D02*
X68290000Y-77690000D01*
X61870000Y-80310000D02*
X68290000Y-80310000D01*
X61870000Y-77690000D02*
X61870000Y-80310000D01*
X69180000Y-84000000D02*
X68290000Y-84000000D01*
X60980000Y-84000000D02*
X61870000Y-84000000D01*
X68290000Y-82690000D02*
X61870000Y-82690000D01*
X68290000Y-85310000D02*
X68290000Y-82690000D01*
X61870000Y-85310000D02*
X68290000Y-85310000D01*
X61870000Y-82690000D02*
X61870000Y-85310000D01*
X61870000Y-67690000D02*
X61870000Y-70310000D01*
X61870000Y-70310000D02*
X68290000Y-70310000D01*
X68290000Y-70310000D02*
X68290000Y-67690000D01*
X68290000Y-67690000D02*
X61870000Y-67690000D01*
X60980000Y-69000000D02*
X61870000Y-69000000D01*
X69180000Y-69000000D02*
X68290000Y-69000000D01*
X60450000Y-33420000D02*
X60450000Y-34310000D01*
X60450000Y-41620000D02*
X60450000Y-40730000D01*
X59140000Y-34310000D02*
X59140000Y-40730000D01*
X61760000Y-34310000D02*
X59140000Y-34310000D01*
X61760000Y-40730000D02*
X61760000Y-34310000D01*
X59140000Y-40730000D02*
X61760000Y-40730000D01*
X69500000Y-24350000D02*
G75*
G03X69500000Y-24350000I-1500000J0D01*
G01*
X68090657Y-29559257D02*
G75*
G02X64128000Y-27836000I-90657J5209257D01*
G01*
X62966928Y-25698867D02*
G75*
G02X62885000Y-23356000I5033072J1348867D01*
G01*
X64009383Y-21000053D02*
G75*
G02X73077000Y-23179000I3990617J-3349947D01*
G01*
X73008173Y-25786071D02*
G75*
G02X68000000Y-29560000I-5008173J1436071D01*
G01*
X110060000Y-42440000D02*
X110060000Y-48560000D01*
X100860000Y-42440000D02*
X100860000Y-48560000D01*
X100860000Y-48560000D02*
X110060000Y-48560000D01*
X100860000Y-42440000D02*
X110060000Y-42440000D01*
X100860000Y-42040000D02*
X100860000Y-48960000D01*
X100060000Y-42040000D02*
X100060000Y-48960000D01*
X100060000Y-48960000D02*
X100860000Y-48960000D01*
X100060000Y-42040000D02*
X100860000Y-42040000D01*
X100060000Y-40590000D02*
X100060000Y-50410000D01*
X94940000Y-42375000D02*
X94940000Y-48625000D01*
X95695000Y-50410000D02*
X100060000Y-50410000D01*
X95695000Y-40590000D02*
X100060000Y-40590000D01*
X67491827Y-101213929D02*
G75*
G02X72500000Y-97440000I5008173J-1436071D01*
G01*
X76490617Y-105999947D02*
G75*
G02X67423000Y-103821000I-3990617J3349947D01*
G01*
X77533072Y-101301133D02*
G75*
G02X77615000Y-103644000I-5033072J-1348867D01*
G01*
X72409343Y-97440743D02*
G75*
G02X76372000Y-99164000I90657J-5209257D01*
G01*
X74000000Y-102650000D02*
G75*
G03X74000000Y-102650000I-1500000J0D01*
G01*
D10*
X41200000Y-97100000D02*
X34800000Y-97100000D01*
X41200000Y-97100000D02*
X41200000Y-102000000D01*
X34800000Y-102000000D02*
X41200000Y-102000000D01*
X34800000Y-97100000D02*
X34800000Y-102000000D01*
X34800000Y-88100000D02*
X34800000Y-93000000D01*
X34800000Y-93000000D02*
X41200000Y-93000000D01*
X41200000Y-88100000D02*
X41200000Y-93000000D01*
X41200000Y-88100000D02*
X34800000Y-88100000D01*
D11*
X4305000Y-47410000D02*
X-60000Y-47410000D01*
X4305000Y-37590000D02*
X-60000Y-37590000D01*
X5060000Y-45625000D02*
X5060000Y-39375000D01*
X-60000Y-47410000D02*
X-60000Y-37590000D01*
X-60000Y-45960000D02*
X-860000Y-45960000D01*
X-60000Y-39040000D02*
X-860000Y-39040000D01*
X-60000Y-45960000D02*
X-60000Y-39040000D01*
X-860000Y-45960000D02*
X-860000Y-39040000D01*
X-860000Y-45560000D02*
X-10060000Y-45560000D01*
X-860000Y-39440000D02*
X-10060000Y-39440000D01*
X-860000Y-45560000D02*
X-860000Y-39440000D01*
X-10060000Y-45560000D02*
X-10060000Y-39440000D01*
X-10060000Y-67560000D02*
X-10060000Y-61440000D01*
X-860000Y-67560000D02*
X-860000Y-61440000D01*
X-860000Y-61440000D02*
X-10060000Y-61440000D01*
X-860000Y-67560000D02*
X-10060000Y-67560000D01*
X-860000Y-67960000D02*
X-860000Y-61040000D01*
X-60000Y-67960000D02*
X-60000Y-61040000D01*
X-60000Y-61040000D02*
X-860000Y-61040000D01*
X-60000Y-67960000D02*
X-860000Y-67960000D01*
X-60000Y-69410000D02*
X-60000Y-59590000D01*
X5060000Y-67625000D02*
X5060000Y-61375000D01*
X4305000Y-59590000D02*
X-60000Y-59590000D01*
X4305000Y-69410000D02*
X-60000Y-69410000D01*
D10*
X100000000Y-74065000D02*
X100000000Y-65935000D01*
X100000000Y-65935000D02*
X90730000Y-65935000D01*
X100000000Y-74065000D02*
X90730000Y-74065000D01*
X90730000Y-74065000D02*
X90729000Y-73492500D01*
X90729000Y-71524000D02*
X90729000Y-71016000D01*
X90729000Y-68984000D02*
X90729000Y-68476000D01*
X90729000Y-65936000D02*
X90729000Y-66444000D01*
X100000000Y-71865000D02*
X104100000Y-71865000D01*
X104100000Y-71865000D02*
X104100000Y-68135000D01*
X100000000Y-68135000D02*
X104100000Y-68135000D01*
X104127500Y-70698500D02*
X105715000Y-71524000D01*
X106350000Y-70127000D02*
X104127500Y-69047500D01*
X106401026Y-70113848D02*
G75*
G02X105664201Y-71523999I-355826J-711652D01*
G01*
D11*
X51000000Y-11670000D02*
G75*
G02X49000000Y-11670000I-1000000J0D01*
G01*
X49000000Y-11670000D02*
X47350000Y-11670000D01*
X47350000Y-11670000D02*
X47350000Y-21950000D01*
X47350000Y-21950000D02*
X52650000Y-21950000D01*
X52650000Y-21950000D02*
X52650000Y-11670000D01*
X52650000Y-11670000D02*
X51000000Y-11670000D01*
X44860000Y-11610000D02*
X44860000Y-22010000D01*
X44860000Y-22010000D02*
X55140000Y-22010000D01*
X55140000Y-22010000D02*
X55140000Y-11610000D01*
X55140000Y-11610000D02*
X44860000Y-11610000D01*
X55140000Y-33610000D02*
X44860000Y-33610000D01*
X55140000Y-44010000D02*
X55140000Y-33610000D01*
X44860000Y-44010000D02*
X55140000Y-44010000D01*
X44860000Y-33610000D02*
X44860000Y-44010000D01*
X52650000Y-33670000D02*
X51000000Y-33670000D01*
X52650000Y-43950000D02*
X52650000Y-33670000D01*
X47350000Y-43950000D02*
X52650000Y-43950000D01*
X47350000Y-33670000D02*
X47350000Y-43950000D01*
X49000000Y-33670000D02*
X47350000Y-33670000D01*
X51000000Y-33670000D02*
G75*
G02X49000000Y-33670000I-1000000J0D01*
G01*
X51000000Y-55670000D02*
G75*
G02X49000000Y-55670000I-1000000J0D01*
G01*
X49000000Y-55670000D02*
X47350000Y-55670000D01*
X47350000Y-55670000D02*
X47350000Y-73570000D01*
X47350000Y-73570000D02*
X52650000Y-73570000D01*
X52650000Y-73570000D02*
X52650000Y-55670000D01*
X52650000Y-55670000D02*
X51000000Y-55670000D01*
X44860000Y-55610000D02*
X44860000Y-73630000D01*
X44860000Y-73630000D02*
X55140000Y-73630000D01*
X55140000Y-73630000D02*
X55140000Y-55610000D01*
X55140000Y-55610000D02*
X44860000Y-55610000D01*
X55140000Y-84610000D02*
X44860000Y-84610000D01*
X55140000Y-102630000D02*
X55140000Y-84610000D01*
X44860000Y-102630000D02*
X55140000Y-102630000D01*
X44860000Y-84610000D02*
X44860000Y-102630000D01*
X52650000Y-84670000D02*
X51000000Y-84670000D01*
X52650000Y-102570000D02*
X52650000Y-84670000D01*
X47350000Y-102570000D02*
X52650000Y-102570000D01*
X47350000Y-84670000D02*
X47350000Y-102570000D01*
X49000000Y-84670000D02*
X47350000Y-84670000D01*
X51000000Y-84670000D02*
G75*
G02X49000000Y-84670000I-1000000J0D01*
G01*
D10*
X22936666Y-87122380D02*
X22936666Y-87836666D01*
X22889047Y-87979523D01*
X22793809Y-88074761D01*
X22650952Y-88122380D01*
X22555714Y-88122380D01*
X23317619Y-87122380D02*
X23984285Y-87122380D01*
X23555714Y-88122380D01*
X56797142Y-25666666D02*
X56844761Y-25714285D01*
X56892380Y-25857142D01*
X56892380Y-25952380D01*
X56844761Y-26095238D01*
X56749523Y-26190476D01*
X56654285Y-26238095D01*
X56463809Y-26285714D01*
X56320952Y-26285714D01*
X56130476Y-26238095D01*
X56035238Y-26190476D01*
X55940000Y-26095238D01*
X55892380Y-25952380D01*
X55892380Y-25857142D01*
X55940000Y-25714285D01*
X55987619Y-25666666D01*
X56892380Y-24714285D02*
X56892380Y-25285714D01*
X56892380Y-25000000D02*
X55892380Y-25000000D01*
X56035238Y-25095238D01*
X56130476Y-25190476D01*
X56178095Y-25285714D01*
X74333333Y-1807142D02*
X74285714Y-1854761D01*
X74142857Y-1902380D01*
X74047619Y-1902380D01*
X73904761Y-1854761D01*
X73809523Y-1759523D01*
X73761904Y-1664285D01*
X73714285Y-1473809D01*
X73714285Y-1330952D01*
X73761904Y-1140476D01*
X73809523Y-1045238D01*
X73904761Y-950000D01*
X74047619Y-902380D01*
X74142857Y-902380D01*
X74285714Y-950000D01*
X74333333Y-997619D01*
X74714285Y-997619D02*
X74761904Y-950000D01*
X74857142Y-902380D01*
X75095238Y-902380D01*
X75190476Y-950000D01*
X75238095Y-997619D01*
X75285714Y-1092857D01*
X75285714Y-1188095D01*
X75238095Y-1330952D01*
X74666666Y-1902380D01*
X75285714Y-1902380D01*
X40797142Y-27666666D02*
X40844761Y-27714285D01*
X40892380Y-27857142D01*
X40892380Y-27952380D01*
X40844761Y-28095238D01*
X40749523Y-28190476D01*
X40654285Y-28238095D01*
X40463809Y-28285714D01*
X40320952Y-28285714D01*
X40130476Y-28238095D01*
X40035238Y-28190476D01*
X39940000Y-28095238D01*
X39892380Y-27952380D01*
X39892380Y-27857142D01*
X39940000Y-27714285D01*
X39987619Y-27666666D01*
X39892380Y-27333333D02*
X39892380Y-26714285D01*
X40273333Y-27047619D01*
X40273333Y-26904761D01*
X40320952Y-26809523D01*
X40368571Y-26761904D01*
X40463809Y-26714285D01*
X40701904Y-26714285D01*
X40797142Y-26761904D01*
X40844761Y-26809523D01*
X40892380Y-26904761D01*
X40892380Y-27190476D01*
X40844761Y-27285714D01*
X40797142Y-27333333D01*
X93333333Y-57797142D02*
X93285714Y-57844761D01*
X93142857Y-57892380D01*
X93047619Y-57892380D01*
X92904761Y-57844761D01*
X92809523Y-57749523D01*
X92761904Y-57654285D01*
X92714285Y-57463809D01*
X92714285Y-57320952D01*
X92761904Y-57130476D01*
X92809523Y-57035238D01*
X92904761Y-56940000D01*
X93047619Y-56892380D01*
X93142857Y-56892380D01*
X93285714Y-56940000D01*
X93333333Y-56987619D01*
X94190476Y-57225714D02*
X94190476Y-57892380D01*
X93952380Y-56844761D02*
X93714285Y-57559047D01*
X94333333Y-57559047D01*
X93333333Y-75797142D02*
X93285714Y-75844761D01*
X93142857Y-75892380D01*
X93047619Y-75892380D01*
X92904761Y-75844761D01*
X92809523Y-75749523D01*
X92761904Y-75654285D01*
X92714285Y-75463809D01*
X92714285Y-75320952D01*
X92761904Y-75130476D01*
X92809523Y-75035238D01*
X92904761Y-74940000D01*
X93047619Y-74892380D01*
X93142857Y-74892380D01*
X93285714Y-74940000D01*
X93333333Y-74987619D01*
X94238095Y-74892380D02*
X93761904Y-74892380D01*
X93714285Y-75368571D01*
X93761904Y-75320952D01*
X93857142Y-75273333D01*
X94095238Y-75273333D01*
X94190476Y-75320952D01*
X94238095Y-75368571D01*
X94285714Y-75463809D01*
X94285714Y-75701904D01*
X94238095Y-75797142D01*
X94190476Y-75844761D01*
X94095238Y-75892380D01*
X93857142Y-75892380D01*
X93761904Y-75844761D01*
X93714285Y-75797142D01*
X60333333Y-97797142D02*
X60285714Y-97844761D01*
X60142857Y-97892380D01*
X60047619Y-97892380D01*
X59904761Y-97844761D01*
X59809523Y-97749523D01*
X59761904Y-97654285D01*
X59714285Y-97463809D01*
X59714285Y-97320952D01*
X59761904Y-97130476D01*
X59809523Y-97035238D01*
X59904761Y-96940000D01*
X60047619Y-96892380D01*
X60142857Y-96892380D01*
X60285714Y-96940000D01*
X60333333Y-96987619D01*
X61190476Y-96892380D02*
X61000000Y-96892380D01*
X60904761Y-96940000D01*
X60857142Y-96987619D01*
X60761904Y-97130476D01*
X60714285Y-97320952D01*
X60714285Y-97701904D01*
X60761904Y-97797142D01*
X60809523Y-97844761D01*
X60904761Y-97892380D01*
X61095238Y-97892380D01*
X61190476Y-97844761D01*
X61238095Y-97797142D01*
X61285714Y-97701904D01*
X61285714Y-97463809D01*
X61238095Y-97368571D01*
X61190476Y-97320952D01*
X61095238Y-97273333D01*
X60904761Y-97273333D01*
X60809523Y-97320952D01*
X60761904Y-97368571D01*
X60714285Y-97463809D01*
X60333333Y-45797142D02*
X60285714Y-45844761D01*
X60142857Y-45892380D01*
X60047619Y-45892380D01*
X59904761Y-45844761D01*
X59809523Y-45749523D01*
X59761904Y-45654285D01*
X59714285Y-45463809D01*
X59714285Y-45320952D01*
X59761904Y-45130476D01*
X59809523Y-45035238D01*
X59904761Y-44940000D01*
X60047619Y-44892380D01*
X60142857Y-44892380D01*
X60285714Y-44940000D01*
X60333333Y-44987619D01*
X60666666Y-44892380D02*
X61333333Y-44892380D01*
X60904761Y-45892380D01*
X49583333Y-1857142D02*
X49535714Y-1904761D01*
X49392857Y-1952380D01*
X49297619Y-1952380D01*
X49154761Y-1904761D01*
X49059523Y-1809523D01*
X49011904Y-1714285D01*
X48964285Y-1523809D01*
X48964285Y-1380952D01*
X49011904Y-1190476D01*
X49059523Y-1095238D01*
X49154761Y-1000000D01*
X49297619Y-952380D01*
X49392857Y-952380D01*
X49535714Y-1000000D01*
X49583333Y-1047619D01*
X50154761Y-1380952D02*
X50059523Y-1333333D01*
X50011904Y-1285714D01*
X49964285Y-1190476D01*
X49964285Y-1142857D01*
X50011904Y-1047619D01*
X50059523Y-1000000D01*
X50154761Y-952380D01*
X50345238Y-952380D01*
X50440476Y-1000000D01*
X50488095Y-1047619D01*
X50535714Y-1142857D01*
X50535714Y-1190476D01*
X50488095Y-1285714D01*
X50440476Y-1333333D01*
X50345238Y-1380952D01*
X50154761Y-1380952D01*
X50059523Y-1428571D01*
X50011904Y-1476190D01*
X49964285Y-1571428D01*
X49964285Y-1761904D01*
X50011904Y-1857142D01*
X50059523Y-1904761D01*
X50154761Y-1952380D01*
X50345238Y-1952380D01*
X50440476Y-1904761D01*
X50488095Y-1857142D01*
X50535714Y-1761904D01*
X50535714Y-1571428D01*
X50488095Y-1476190D01*
X50440476Y-1428571D01*
X50345238Y-1380952D01*
X29833333Y-95857142D02*
X29785714Y-95904761D01*
X29642857Y-95952380D01*
X29547619Y-95952380D01*
X29404761Y-95904761D01*
X29309523Y-95809523D01*
X29261904Y-95714285D01*
X29214285Y-95523809D01*
X29214285Y-95380952D01*
X29261904Y-95190476D01*
X29309523Y-95095238D01*
X29404761Y-95000000D01*
X29547619Y-94952380D01*
X29642857Y-94952380D01*
X29785714Y-95000000D01*
X29833333Y-95047619D01*
X30309523Y-95952380D02*
X30500000Y-95952380D01*
X30595238Y-95904761D01*
X30642857Y-95857142D01*
X30738095Y-95714285D01*
X30785714Y-95523809D01*
X30785714Y-95142857D01*
X30738095Y-95047619D01*
X30690476Y-95000000D01*
X30595238Y-94952380D01*
X30404761Y-94952380D01*
X30309523Y-95000000D01*
X30261904Y-95047619D01*
X30214285Y-95142857D01*
X30214285Y-95380952D01*
X30261904Y-95476190D01*
X30309523Y-95523809D01*
X30404761Y-95571428D01*
X30595238Y-95571428D01*
X30690476Y-95523809D01*
X30738095Y-95476190D01*
X30785714Y-95380952D01*
X49357142Y-23857142D02*
X49309523Y-23904761D01*
X49166666Y-23952380D01*
X49071428Y-23952380D01*
X48928571Y-23904761D01*
X48833333Y-23809523D01*
X48785714Y-23714285D01*
X48738095Y-23523809D01*
X48738095Y-23380952D01*
X48785714Y-23190476D01*
X48833333Y-23095238D01*
X48928571Y-23000000D01*
X49071428Y-22952380D01*
X49166666Y-22952380D01*
X49309523Y-23000000D01*
X49357142Y-23047619D01*
X50309523Y-23952380D02*
X49738095Y-23952380D01*
X50023809Y-23952380D02*
X50023809Y-22952380D01*
X49928571Y-23095238D01*
X49833333Y-23190476D01*
X49738095Y-23238095D01*
X50928571Y-22952380D02*
X51023809Y-22952380D01*
X51119047Y-23000000D01*
X51166666Y-23047619D01*
X51214285Y-23142857D01*
X51261904Y-23333333D01*
X51261904Y-23571428D01*
X51214285Y-23761904D01*
X51166666Y-23857142D01*
X51119047Y-23904761D01*
X51023809Y-23952380D01*
X50928571Y-23952380D01*
X50833333Y-23904761D01*
X50785714Y-23857142D01*
X50738095Y-23761904D01*
X50690476Y-23571428D01*
X50690476Y-23333333D01*
X50738095Y-23142857D01*
X50785714Y-23047619D01*
X50833333Y-23000000D01*
X50928571Y-22952380D01*
X49357142Y-45897142D02*
X49309523Y-45944761D01*
X49166666Y-45992380D01*
X49071428Y-45992380D01*
X48928571Y-45944761D01*
X48833333Y-45849523D01*
X48785714Y-45754285D01*
X48738095Y-45563809D01*
X48738095Y-45420952D01*
X48785714Y-45230476D01*
X48833333Y-45135238D01*
X48928571Y-45040000D01*
X49071428Y-44992380D01*
X49166666Y-44992380D01*
X49309523Y-45040000D01*
X49357142Y-45087619D01*
X50309523Y-45992380D02*
X49738095Y-45992380D01*
X50023809Y-45992380D02*
X50023809Y-44992380D01*
X49928571Y-45135238D01*
X49833333Y-45230476D01*
X49738095Y-45278095D01*
X51261904Y-45992380D02*
X50690476Y-45992380D01*
X50976190Y-45992380D02*
X50976190Y-44992380D01*
X50880952Y-45135238D01*
X50785714Y-45230476D01*
X50690476Y-45278095D01*
X49357142Y-74897142D02*
X49309523Y-74944761D01*
X49166666Y-74992380D01*
X49071428Y-74992380D01*
X48928571Y-74944761D01*
X48833333Y-74849523D01*
X48785714Y-74754285D01*
X48738095Y-74563809D01*
X48738095Y-74420952D01*
X48785714Y-74230476D01*
X48833333Y-74135238D01*
X48928571Y-74040000D01*
X49071428Y-73992380D01*
X49166666Y-73992380D01*
X49309523Y-74040000D01*
X49357142Y-74087619D01*
X50309523Y-74992380D02*
X49738095Y-74992380D01*
X50023809Y-74992380D02*
X50023809Y-73992380D01*
X49928571Y-74135238D01*
X49833333Y-74230476D01*
X49738095Y-74278095D01*
X50690476Y-74087619D02*
X50738095Y-74040000D01*
X50833333Y-73992380D01*
X51071428Y-73992380D01*
X51166666Y-74040000D01*
X51214285Y-74087619D01*
X51261904Y-74182857D01*
X51261904Y-74278095D01*
X51214285Y-74420952D01*
X50642857Y-74992380D01*
X51261904Y-74992380D01*
X29357142Y-87857142D02*
X29309523Y-87904761D01*
X29166666Y-87952380D01*
X29071428Y-87952380D01*
X28928571Y-87904761D01*
X28833333Y-87809523D01*
X28785714Y-87714285D01*
X28738095Y-87523809D01*
X28738095Y-87380952D01*
X28785714Y-87190476D01*
X28833333Y-87095238D01*
X28928571Y-87000000D01*
X29071428Y-86952380D01*
X29166666Y-86952380D01*
X29309523Y-87000000D01*
X29357142Y-87047619D01*
X30309523Y-87952380D02*
X29738095Y-87952380D01*
X30023809Y-87952380D02*
X30023809Y-86952380D01*
X29928571Y-87095238D01*
X29833333Y-87190476D01*
X29738095Y-87238095D01*
X30642857Y-86952380D02*
X31261904Y-86952380D01*
X30928571Y-87333333D01*
X31071428Y-87333333D01*
X31166666Y-87380952D01*
X31214285Y-87428571D01*
X31261904Y-87523809D01*
X31261904Y-87761904D01*
X31214285Y-87857142D01*
X31166666Y-87904761D01*
X31071428Y-87952380D01*
X30785714Y-87952380D01*
X30690476Y-87904761D01*
X30642857Y-87857142D01*
X95991904Y-104462380D02*
X95991904Y-103462380D01*
X96230000Y-103462380D01*
X96372857Y-103510000D01*
X96468095Y-103605238D01*
X96515714Y-103700476D01*
X96563333Y-103890952D01*
X96563333Y-104033809D01*
X96515714Y-104224285D01*
X96468095Y-104319523D01*
X96372857Y-104414761D01*
X96230000Y-104462380D01*
X95991904Y-104462380D01*
X97515714Y-104462380D02*
X96944285Y-104462380D01*
X97230000Y-104462380D02*
X97230000Y-103462380D01*
X97134761Y-103605238D01*
X97039523Y-103700476D01*
X96944285Y-103748095D01*
X74392380Y-72928095D02*
X73392380Y-72928095D01*
X73392380Y-72690000D01*
X73440000Y-72547142D01*
X73535238Y-72451904D01*
X73630476Y-72404285D01*
X73820952Y-72356666D01*
X73963809Y-72356666D01*
X74154285Y-72404285D01*
X74249523Y-72451904D01*
X74344761Y-72547142D01*
X74392380Y-72690000D01*
X74392380Y-72928095D01*
X73487619Y-71975714D02*
X73440000Y-71928095D01*
X73392380Y-71832857D01*
X73392380Y-71594761D01*
X73440000Y-71499523D01*
X73487619Y-71451904D01*
X73582857Y-71404285D01*
X73678095Y-71404285D01*
X73820952Y-71451904D01*
X74392380Y-72023333D01*
X74392380Y-71404285D01*
X74392380Y-62928095D02*
X73392380Y-62928095D01*
X73392380Y-62690000D01*
X73440000Y-62547142D01*
X73535238Y-62451904D01*
X73630476Y-62404285D01*
X73820952Y-62356666D01*
X73963809Y-62356666D01*
X74154285Y-62404285D01*
X74249523Y-62451904D01*
X74344761Y-62547142D01*
X74392380Y-62690000D01*
X74392380Y-62928095D01*
X73392380Y-62023333D02*
X73392380Y-61404285D01*
X73773333Y-61737619D01*
X73773333Y-61594761D01*
X73820952Y-61499523D01*
X73868571Y-61451904D01*
X73963809Y-61404285D01*
X74201904Y-61404285D01*
X74297142Y-61451904D01*
X74344761Y-61499523D01*
X74392380Y-61594761D01*
X74392380Y-61880476D01*
X74344761Y-61975714D01*
X74297142Y-62023333D01*
X74392380Y-82928095D02*
X73392380Y-82928095D01*
X73392380Y-82690000D01*
X73440000Y-82547142D01*
X73535238Y-82451904D01*
X73630476Y-82404285D01*
X73820952Y-82356666D01*
X73963809Y-82356666D01*
X74154285Y-82404285D01*
X74249523Y-82451904D01*
X74344761Y-82547142D01*
X74392380Y-82690000D01*
X74392380Y-82928095D01*
X73725714Y-81499523D02*
X74392380Y-81499523D01*
X73344761Y-81737619D02*
X74059047Y-81975714D01*
X74059047Y-81356666D01*
X74392380Y-92928095D02*
X73392380Y-92928095D01*
X73392380Y-92690000D01*
X73440000Y-92547142D01*
X73535238Y-92451904D01*
X73630476Y-92404285D01*
X73820952Y-92356666D01*
X73963809Y-92356666D01*
X74154285Y-92404285D01*
X74249523Y-92451904D01*
X74344761Y-92547142D01*
X74392380Y-92690000D01*
X74392380Y-92928095D01*
X73392380Y-91451904D02*
X73392380Y-91928095D01*
X73868571Y-91975714D01*
X73820952Y-91928095D01*
X73773333Y-91832857D01*
X73773333Y-91594761D01*
X73820952Y-91499523D01*
X73868571Y-91451904D01*
X73963809Y-91404285D01*
X74201904Y-91404285D01*
X74297142Y-91451904D01*
X74344761Y-91499523D01*
X74392380Y-91594761D01*
X74392380Y-91832857D01*
X74344761Y-91928095D01*
X74297142Y-91975714D01*
X91348166Y-81038880D02*
X91348166Y-81753166D01*
X91300547Y-81896023D01*
X91205309Y-81991261D01*
X91062452Y-82038880D01*
X90967214Y-82038880D01*
X92348166Y-82038880D02*
X91776738Y-82038880D01*
X92062452Y-82038880D02*
X92062452Y-81038880D01*
X91967214Y-81181738D01*
X91871976Y-81276976D01*
X91776738Y-81324595D01*
X81666666Y-56782380D02*
X81666666Y-57496666D01*
X81619047Y-57639523D01*
X81523809Y-57734761D01*
X81380952Y-57782380D01*
X81285714Y-57782380D01*
X82095238Y-56877619D02*
X82142857Y-56830000D01*
X82238095Y-56782380D01*
X82476190Y-56782380D01*
X82571428Y-56830000D01*
X82619047Y-56877619D01*
X82666666Y-56972857D01*
X82666666Y-57068095D01*
X82619047Y-57210952D01*
X82047619Y-57782380D01*
X82666666Y-57782380D01*
X77666666Y-56782380D02*
X77666666Y-57496666D01*
X77619047Y-57639523D01*
X77523809Y-57734761D01*
X77380952Y-57782380D01*
X77285714Y-57782380D01*
X78047619Y-56782380D02*
X78666666Y-56782380D01*
X78333333Y-57163333D01*
X78476190Y-57163333D01*
X78571428Y-57210952D01*
X78619047Y-57258571D01*
X78666666Y-57353809D01*
X78666666Y-57591904D01*
X78619047Y-57687142D01*
X78571428Y-57734761D01*
X78476190Y-57782380D01*
X78190476Y-57782380D01*
X78095238Y-57734761D01*
X78047619Y-57687142D01*
X91348166Y-16038880D02*
X91348166Y-16753166D01*
X91300547Y-16896023D01*
X91205309Y-16991261D01*
X91062452Y-17038880D01*
X90967214Y-17038880D01*
X92252928Y-16372214D02*
X92252928Y-17038880D01*
X92014833Y-15991261D02*
X91776738Y-16705547D01*
X92395785Y-16705547D01*
X91348166Y-1038880D02*
X91348166Y-1753166D01*
X91300547Y-1896023D01*
X91205309Y-1991261D01*
X91062452Y-2038880D01*
X90967214Y-2038880D01*
X92300547Y-1038880D02*
X91824357Y-1038880D01*
X91776738Y-1515071D01*
X91824357Y-1467452D01*
X91919595Y-1419833D01*
X92157690Y-1419833D01*
X92252928Y-1467452D01*
X92300547Y-1515071D01*
X92348166Y-1610309D01*
X92348166Y-1848404D01*
X92300547Y-1943642D01*
X92252928Y-1991261D01*
X92157690Y-2038880D01*
X91919595Y-2038880D01*
X91824357Y-1991261D01*
X91776738Y-1943642D01*
X7985166Y-27865880D02*
X7985166Y-28580166D01*
X7937547Y-28723023D01*
X7842309Y-28818261D01*
X7699452Y-28865880D01*
X7604214Y-28865880D01*
X8889928Y-27865880D02*
X8699452Y-27865880D01*
X8604214Y-27913500D01*
X8556595Y-27961119D01*
X8461357Y-28103976D01*
X8413738Y-28294452D01*
X8413738Y-28675404D01*
X8461357Y-28770642D01*
X8508976Y-28818261D01*
X8604214Y-28865880D01*
X8794690Y-28865880D01*
X8889928Y-28818261D01*
X8937547Y-28770642D01*
X8985166Y-28675404D01*
X8985166Y-28437309D01*
X8937547Y-28342071D01*
X8889928Y-28294452D01*
X8794690Y-28246833D01*
X8604214Y-28246833D01*
X8508976Y-28294452D01*
X8461357Y-28342071D01*
X8413738Y-28437309D01*
X17666666Y-37122380D02*
X17666666Y-37836666D01*
X17619047Y-37979523D01*
X17523809Y-38074761D01*
X17380952Y-38122380D01*
X17285714Y-38122380D01*
X18285714Y-37550952D02*
X18190476Y-37503333D01*
X18142857Y-37455714D01*
X18095238Y-37360476D01*
X18095238Y-37312857D01*
X18142857Y-37217619D01*
X18190476Y-37170000D01*
X18285714Y-37122380D01*
X18476190Y-37122380D01*
X18571428Y-37170000D01*
X18619047Y-37217619D01*
X18666666Y-37312857D01*
X18666666Y-37360476D01*
X18619047Y-37455714D01*
X18571428Y-37503333D01*
X18476190Y-37550952D01*
X18285714Y-37550952D01*
X18190476Y-37598571D01*
X18142857Y-37646190D01*
X18095238Y-37741428D01*
X18095238Y-37931904D01*
X18142857Y-38027142D01*
X18190476Y-38074761D01*
X18285714Y-38122380D01*
X18476190Y-38122380D01*
X18571428Y-38074761D01*
X18619047Y-38027142D01*
X18666666Y-37931904D01*
X18666666Y-37741428D01*
X18619047Y-37646190D01*
X18571428Y-37598571D01*
X18476190Y-37550952D01*
X21666666Y-61782380D02*
X21666666Y-62496666D01*
X21619047Y-62639523D01*
X21523809Y-62734761D01*
X21380952Y-62782380D01*
X21285714Y-62782380D01*
X22190476Y-62782380D02*
X22380952Y-62782380D01*
X22476190Y-62734761D01*
X22523809Y-62687142D01*
X22619047Y-62544285D01*
X22666666Y-62353809D01*
X22666666Y-61972857D01*
X22619047Y-61877619D01*
X22571428Y-61830000D01*
X22476190Y-61782380D01*
X22285714Y-61782380D01*
X22190476Y-61830000D01*
X22142857Y-61877619D01*
X22095238Y-61972857D01*
X22095238Y-62210952D01*
X22142857Y-62306190D01*
X22190476Y-62353809D01*
X22285714Y-62401428D01*
X22476190Y-62401428D01*
X22571428Y-62353809D01*
X22619047Y-62306190D01*
X22666666Y-62210952D01*
X7508976Y-92865880D02*
X7508976Y-93580166D01*
X7461357Y-93723023D01*
X7366119Y-93818261D01*
X7223261Y-93865880D01*
X7128023Y-93865880D01*
X8508976Y-93865880D02*
X7937547Y-93865880D01*
X8223261Y-93865880D02*
X8223261Y-92865880D01*
X8128023Y-93008738D01*
X8032785Y-93103976D01*
X7937547Y-93151595D01*
X9128023Y-92865880D02*
X9223261Y-92865880D01*
X9318500Y-92913500D01*
X9366119Y-92961119D01*
X9413738Y-93056357D01*
X9461357Y-93246833D01*
X9461357Y-93484928D01*
X9413738Y-93675404D01*
X9366119Y-93770642D01*
X9318500Y-93818261D01*
X9223261Y-93865880D01*
X9128023Y-93865880D01*
X9032785Y-93818261D01*
X8985166Y-93770642D01*
X8937547Y-93675404D01*
X8889928Y-93484928D01*
X8889928Y-93246833D01*
X8937547Y-93056357D01*
X8985166Y-92961119D01*
X9032785Y-92913500D01*
X9128023Y-92865880D01*
X7508976Y-107865880D02*
X7508976Y-108580166D01*
X7461357Y-108723023D01*
X7366119Y-108818261D01*
X7223261Y-108865880D01*
X7128023Y-108865880D01*
X8508976Y-108865880D02*
X7937547Y-108865880D01*
X8223261Y-108865880D02*
X8223261Y-107865880D01*
X8128023Y-108008738D01*
X8032785Y-108103976D01*
X7937547Y-108151595D01*
X9461357Y-108865880D02*
X8889928Y-108865880D01*
X9175642Y-108865880D02*
X9175642Y-107865880D01*
X9080404Y-108008738D01*
X8985166Y-108103976D01*
X8889928Y-108151595D01*
X64954761Y-8697619D02*
X64859523Y-8650000D01*
X64764285Y-8554761D01*
X64621428Y-8411904D01*
X64526190Y-8364285D01*
X64430952Y-8364285D01*
X64478571Y-8602380D02*
X64383333Y-8554761D01*
X64288095Y-8459523D01*
X64240476Y-8269047D01*
X64240476Y-7935714D01*
X64288095Y-7745238D01*
X64383333Y-7650000D01*
X64478571Y-7602380D01*
X64669047Y-7602380D01*
X64764285Y-7650000D01*
X64859523Y-7745238D01*
X64907142Y-7935714D01*
X64907142Y-8269047D01*
X64859523Y-8459523D01*
X64764285Y-8554761D01*
X64669047Y-8602380D01*
X64478571Y-8602380D01*
X65859523Y-8602380D02*
X65288095Y-8602380D01*
X65573809Y-8602380D02*
X65573809Y-7602380D01*
X65478571Y-7745238D01*
X65383333Y-7840476D01*
X65288095Y-7888095D01*
X68754761Y-33647619D02*
X68659523Y-33600000D01*
X68564285Y-33504761D01*
X68421428Y-33361904D01*
X68326190Y-33314285D01*
X68230952Y-33314285D01*
X68278571Y-33552380D02*
X68183333Y-33504761D01*
X68088095Y-33409523D01*
X68040476Y-33219047D01*
X68040476Y-32885714D01*
X68088095Y-32695238D01*
X68183333Y-32600000D01*
X68278571Y-32552380D01*
X68469047Y-32552380D01*
X68564285Y-32600000D01*
X68659523Y-32695238D01*
X68707142Y-32885714D01*
X68707142Y-33219047D01*
X68659523Y-33409523D01*
X68564285Y-33504761D01*
X68469047Y-33552380D01*
X68278571Y-33552380D01*
X69088095Y-32647619D02*
X69135714Y-32600000D01*
X69230952Y-32552380D01*
X69469047Y-32552380D01*
X69564285Y-32600000D01*
X69611904Y-32647619D01*
X69659523Y-32742857D01*
X69659523Y-32838095D01*
X69611904Y-32980952D01*
X69040476Y-33552380D01*
X69659523Y-33552380D01*
X68904761Y-43697619D02*
X68809523Y-43650000D01*
X68714285Y-43554761D01*
X68571428Y-43411904D01*
X68476190Y-43364285D01*
X68380952Y-43364285D01*
X68428571Y-43602380D02*
X68333333Y-43554761D01*
X68238095Y-43459523D01*
X68190476Y-43269047D01*
X68190476Y-42935714D01*
X68238095Y-42745238D01*
X68333333Y-42650000D01*
X68428571Y-42602380D01*
X68619047Y-42602380D01*
X68714285Y-42650000D01*
X68809523Y-42745238D01*
X68857142Y-42935714D01*
X68857142Y-43269047D01*
X68809523Y-43459523D01*
X68714285Y-43554761D01*
X68619047Y-43602380D01*
X68428571Y-43602380D01*
X69190476Y-42602380D02*
X69809523Y-42602380D01*
X69476190Y-42983333D01*
X69619047Y-42983333D01*
X69714285Y-43030952D01*
X69761904Y-43078571D01*
X69809523Y-43173809D01*
X69809523Y-43411904D01*
X69761904Y-43507142D01*
X69714285Y-43554761D01*
X69619047Y-43602380D01*
X69333333Y-43602380D01*
X69238095Y-43554761D01*
X69190476Y-43507142D01*
X69152380Y-12246666D02*
X68676190Y-12580000D01*
X69152380Y-12818095D02*
X68152380Y-12818095D01*
X68152380Y-12437142D01*
X68200000Y-12341904D01*
X68247619Y-12294285D01*
X68342857Y-12246666D01*
X68485714Y-12246666D01*
X68580952Y-12294285D01*
X68628571Y-12341904D01*
X68676190Y-12437142D01*
X68676190Y-12818095D01*
X69152380Y-11294285D02*
X69152380Y-11865714D01*
X69152380Y-11580000D02*
X68152380Y-11580000D01*
X68295238Y-11675238D01*
X68390476Y-11770476D01*
X68438095Y-11865714D01*
X87142380Y-102086666D02*
X86666190Y-102420000D01*
X87142380Y-102658095D02*
X86142380Y-102658095D01*
X86142380Y-102277142D01*
X86190000Y-102181904D01*
X86237619Y-102134285D01*
X86332857Y-102086666D01*
X86475714Y-102086666D01*
X86570952Y-102134285D01*
X86618571Y-102181904D01*
X86666190Y-102277142D01*
X86666190Y-102658095D01*
X86237619Y-101705714D02*
X86190000Y-101658095D01*
X86142380Y-101562857D01*
X86142380Y-101324761D01*
X86190000Y-101229523D01*
X86237619Y-101181904D01*
X86332857Y-101134285D01*
X86428095Y-101134285D01*
X86570952Y-101181904D01*
X87142380Y-101753333D01*
X87142380Y-101134285D01*
X57142380Y-13086666D02*
X56666190Y-13420000D01*
X57142380Y-13658095D02*
X56142380Y-13658095D01*
X56142380Y-13277142D01*
X56190000Y-13181904D01*
X56237619Y-13134285D01*
X56332857Y-13086666D01*
X56475714Y-13086666D01*
X56570952Y-13134285D01*
X56618571Y-13181904D01*
X56666190Y-13277142D01*
X56666190Y-13658095D01*
X56142380Y-12753333D02*
X56142380Y-12134285D01*
X56523333Y-12467619D01*
X56523333Y-12324761D01*
X56570952Y-12229523D01*
X56618571Y-12181904D01*
X56713809Y-12134285D01*
X56951904Y-12134285D01*
X57047142Y-12181904D01*
X57094761Y-12229523D01*
X57142380Y-12324761D01*
X57142380Y-12610476D01*
X57094761Y-12705714D01*
X57047142Y-12753333D01*
X32913333Y-52142380D02*
X32580000Y-51666190D01*
X32341904Y-52142380D02*
X32341904Y-51142380D01*
X32722857Y-51142380D01*
X32818095Y-51190000D01*
X32865714Y-51237619D01*
X32913333Y-51332857D01*
X32913333Y-51475714D01*
X32865714Y-51570952D01*
X32818095Y-51618571D01*
X32722857Y-51666190D01*
X32341904Y-51666190D01*
X33770476Y-51475714D02*
X33770476Y-52142380D01*
X33532380Y-51094761D02*
X33294285Y-51809047D01*
X33913333Y-51809047D01*
X32913333Y-17142380D02*
X32580000Y-16666190D01*
X32341904Y-17142380D02*
X32341904Y-16142380D01*
X32722857Y-16142380D01*
X32818095Y-16190000D01*
X32865714Y-16237619D01*
X32913333Y-16332857D01*
X32913333Y-16475714D01*
X32865714Y-16570952D01*
X32818095Y-16618571D01*
X32722857Y-16666190D01*
X32341904Y-16666190D01*
X33818095Y-16142380D02*
X33341904Y-16142380D01*
X33294285Y-16618571D01*
X33341904Y-16570952D01*
X33437142Y-16523333D01*
X33675238Y-16523333D01*
X33770476Y-16570952D01*
X33818095Y-16618571D01*
X33865714Y-16713809D01*
X33865714Y-16951904D01*
X33818095Y-17047142D01*
X33770476Y-17094761D01*
X33675238Y-17142380D01*
X33437142Y-17142380D01*
X33341904Y-17094761D01*
X33294285Y-17047142D01*
X32913333Y-57142380D02*
X32580000Y-56666190D01*
X32341904Y-57142380D02*
X32341904Y-56142380D01*
X32722857Y-56142380D01*
X32818095Y-56190000D01*
X32865714Y-56237619D01*
X32913333Y-56332857D01*
X32913333Y-56475714D01*
X32865714Y-56570952D01*
X32818095Y-56618571D01*
X32722857Y-56666190D01*
X32341904Y-56666190D01*
X33770476Y-56142380D02*
X33580000Y-56142380D01*
X33484761Y-56190000D01*
X33437142Y-56237619D01*
X33341904Y-56380476D01*
X33294285Y-56570952D01*
X33294285Y-56951904D01*
X33341904Y-57047142D01*
X33389523Y-57094761D01*
X33484761Y-57142380D01*
X33675238Y-57142380D01*
X33770476Y-57094761D01*
X33818095Y-57047142D01*
X33865714Y-56951904D01*
X33865714Y-56713809D01*
X33818095Y-56618571D01*
X33770476Y-56570952D01*
X33675238Y-56523333D01*
X33484761Y-56523333D01*
X33389523Y-56570952D01*
X33341904Y-56618571D01*
X33294285Y-56713809D01*
X32913333Y-77142380D02*
X32580000Y-76666190D01*
X32341904Y-77142380D02*
X32341904Y-76142380D01*
X32722857Y-76142380D01*
X32818095Y-76190000D01*
X32865714Y-76237619D01*
X32913333Y-76332857D01*
X32913333Y-76475714D01*
X32865714Y-76570952D01*
X32818095Y-76618571D01*
X32722857Y-76666190D01*
X32341904Y-76666190D01*
X33246666Y-76142380D02*
X33913333Y-76142380D01*
X33484761Y-77142380D01*
X74142380Y-12286666D02*
X73666190Y-12620000D01*
X74142380Y-12858095D02*
X73142380Y-12858095D01*
X73142380Y-12477142D01*
X73190000Y-12381904D01*
X73237619Y-12334285D01*
X73332857Y-12286666D01*
X73475714Y-12286666D01*
X73570952Y-12334285D01*
X73618571Y-12381904D01*
X73666190Y-12477142D01*
X73666190Y-12858095D01*
X73570952Y-11715238D02*
X73523333Y-11810476D01*
X73475714Y-11858095D01*
X73380476Y-11905714D01*
X73332857Y-11905714D01*
X73237619Y-11858095D01*
X73190000Y-11810476D01*
X73142380Y-11715238D01*
X73142380Y-11524761D01*
X73190000Y-11429523D01*
X73237619Y-11381904D01*
X73332857Y-11334285D01*
X73380476Y-11334285D01*
X73475714Y-11381904D01*
X73523333Y-11429523D01*
X73570952Y-11524761D01*
X73570952Y-11715238D01*
X73618571Y-11810476D01*
X73666190Y-11858095D01*
X73761428Y-11905714D01*
X73951904Y-11905714D01*
X74047142Y-11858095D01*
X74094761Y-11810476D01*
X74142380Y-11715238D01*
X74142380Y-11524761D01*
X74094761Y-11429523D01*
X74047142Y-11381904D01*
X73951904Y-11334285D01*
X73761428Y-11334285D01*
X73666190Y-11381904D01*
X73618571Y-11429523D01*
X73570952Y-11524761D01*
X32913333Y-47142380D02*
X32580000Y-46666190D01*
X32341904Y-47142380D02*
X32341904Y-46142380D01*
X32722857Y-46142380D01*
X32818095Y-46190000D01*
X32865714Y-46237619D01*
X32913333Y-46332857D01*
X32913333Y-46475714D01*
X32865714Y-46570952D01*
X32818095Y-46618571D01*
X32722857Y-46666190D01*
X32341904Y-46666190D01*
X33389523Y-47142380D02*
X33580000Y-47142380D01*
X33675238Y-47094761D01*
X33722857Y-47047142D01*
X33818095Y-46904285D01*
X33865714Y-46713809D01*
X33865714Y-46332857D01*
X33818095Y-46237619D01*
X33770476Y-46190000D01*
X33675238Y-46142380D01*
X33484761Y-46142380D01*
X33389523Y-46190000D01*
X33341904Y-46237619D01*
X33294285Y-46332857D01*
X33294285Y-46570952D01*
X33341904Y-46666190D01*
X33389523Y-46713809D01*
X33484761Y-46761428D01*
X33675238Y-46761428D01*
X33770476Y-46713809D01*
X33818095Y-46666190D01*
X33865714Y-46570952D01*
X32437142Y-62142380D02*
X32103809Y-61666190D01*
X31865714Y-62142380D02*
X31865714Y-61142380D01*
X32246666Y-61142380D01*
X32341904Y-61190000D01*
X32389523Y-61237619D01*
X32437142Y-61332857D01*
X32437142Y-61475714D01*
X32389523Y-61570952D01*
X32341904Y-61618571D01*
X32246666Y-61666190D01*
X31865714Y-61666190D01*
X33389523Y-62142380D02*
X32818095Y-62142380D01*
X33103809Y-62142380D02*
X33103809Y-61142380D01*
X33008571Y-61285238D01*
X32913333Y-61380476D01*
X32818095Y-61428095D01*
X34008571Y-61142380D02*
X34103809Y-61142380D01*
X34199047Y-61190000D01*
X34246666Y-61237619D01*
X34294285Y-61332857D01*
X34341904Y-61523333D01*
X34341904Y-61761428D01*
X34294285Y-61951904D01*
X34246666Y-62047142D01*
X34199047Y-62094761D01*
X34103809Y-62142380D01*
X34008571Y-62142380D01*
X33913333Y-62094761D01*
X33865714Y-62047142D01*
X33818095Y-61951904D01*
X33770476Y-61761428D01*
X33770476Y-61523333D01*
X33818095Y-61332857D01*
X33865714Y-61237619D01*
X33913333Y-61190000D01*
X34008571Y-61142380D01*
X32437142Y-72142380D02*
X32103809Y-71666190D01*
X31865714Y-72142380D02*
X31865714Y-71142380D01*
X32246666Y-71142380D01*
X32341904Y-71190000D01*
X32389523Y-71237619D01*
X32437142Y-71332857D01*
X32437142Y-71475714D01*
X32389523Y-71570952D01*
X32341904Y-71618571D01*
X32246666Y-71666190D01*
X31865714Y-71666190D01*
X33389523Y-72142380D02*
X32818095Y-72142380D01*
X33103809Y-72142380D02*
X33103809Y-71142380D01*
X33008571Y-71285238D01*
X32913333Y-71380476D01*
X32818095Y-71428095D01*
X34341904Y-72142380D02*
X33770476Y-72142380D01*
X34056190Y-72142380D02*
X34056190Y-71142380D01*
X33960952Y-71285238D01*
X33865714Y-71380476D01*
X33770476Y-71428095D01*
X32437142Y-67142380D02*
X32103809Y-66666190D01*
X31865714Y-67142380D02*
X31865714Y-66142380D01*
X32246666Y-66142380D01*
X32341904Y-66190000D01*
X32389523Y-66237619D01*
X32437142Y-66332857D01*
X32437142Y-66475714D01*
X32389523Y-66570952D01*
X32341904Y-66618571D01*
X32246666Y-66666190D01*
X31865714Y-66666190D01*
X33389523Y-67142380D02*
X32818095Y-67142380D01*
X33103809Y-67142380D02*
X33103809Y-66142380D01*
X33008571Y-66285238D01*
X32913333Y-66380476D01*
X32818095Y-66428095D01*
X33770476Y-66237619D02*
X33818095Y-66190000D01*
X33913333Y-66142380D01*
X34151428Y-66142380D01*
X34246666Y-66190000D01*
X34294285Y-66237619D01*
X34341904Y-66332857D01*
X34341904Y-66428095D01*
X34294285Y-66570952D01*
X33722857Y-67142380D01*
X34341904Y-67142380D01*
X45437142Y-105142380D02*
X45103809Y-104666190D01*
X44865714Y-105142380D02*
X44865714Y-104142380D01*
X45246666Y-104142380D01*
X45341904Y-104190000D01*
X45389523Y-104237619D01*
X45437142Y-104332857D01*
X45437142Y-104475714D01*
X45389523Y-104570952D01*
X45341904Y-104618571D01*
X45246666Y-104666190D01*
X44865714Y-104666190D01*
X46389523Y-105142380D02*
X45818095Y-105142380D01*
X46103809Y-105142380D02*
X46103809Y-104142380D01*
X46008571Y-104285238D01*
X45913333Y-104380476D01*
X45818095Y-104428095D01*
X46722857Y-104142380D02*
X47341904Y-104142380D01*
X47008571Y-104523333D01*
X47151428Y-104523333D01*
X47246666Y-104570952D01*
X47294285Y-104618571D01*
X47341904Y-104713809D01*
X47341904Y-104951904D01*
X47294285Y-105047142D01*
X47246666Y-105094761D01*
X47151428Y-105142380D01*
X46865714Y-105142380D01*
X46770476Y-105094761D01*
X46722857Y-105047142D01*
X32437142Y-42142380D02*
X32103809Y-41666190D01*
X31865714Y-42142380D02*
X31865714Y-41142380D01*
X32246666Y-41142380D01*
X32341904Y-41190000D01*
X32389523Y-41237619D01*
X32437142Y-41332857D01*
X32437142Y-41475714D01*
X32389523Y-41570952D01*
X32341904Y-41618571D01*
X32246666Y-41666190D01*
X31865714Y-41666190D01*
X33389523Y-42142380D02*
X32818095Y-42142380D01*
X33103809Y-42142380D02*
X33103809Y-41142380D01*
X33008571Y-41285238D01*
X32913333Y-41380476D01*
X32818095Y-41428095D01*
X34246666Y-41475714D02*
X34246666Y-42142380D01*
X34008571Y-41094761D02*
X33770476Y-41809047D01*
X34389523Y-41809047D01*
X32437142Y-37142380D02*
X32103809Y-36666190D01*
X31865714Y-37142380D02*
X31865714Y-36142380D01*
X32246666Y-36142380D01*
X32341904Y-36190000D01*
X32389523Y-36237619D01*
X32437142Y-36332857D01*
X32437142Y-36475714D01*
X32389523Y-36570952D01*
X32341904Y-36618571D01*
X32246666Y-36666190D01*
X31865714Y-36666190D01*
X33389523Y-37142380D02*
X32818095Y-37142380D01*
X33103809Y-37142380D02*
X33103809Y-36142380D01*
X33008571Y-36285238D01*
X32913333Y-36380476D01*
X32818095Y-36428095D01*
X34294285Y-36142380D02*
X33818095Y-36142380D01*
X33770476Y-36618571D01*
X33818095Y-36570952D01*
X33913333Y-36523333D01*
X34151428Y-36523333D01*
X34246666Y-36570952D01*
X34294285Y-36618571D01*
X34341904Y-36713809D01*
X34341904Y-36951904D01*
X34294285Y-37047142D01*
X34246666Y-37094761D01*
X34151428Y-37142380D01*
X33913333Y-37142380D01*
X33818095Y-37094761D01*
X33770476Y-37047142D01*
X64437142Y-92142380D02*
X64103809Y-91666190D01*
X63865714Y-92142380D02*
X63865714Y-91142380D01*
X64246666Y-91142380D01*
X64341904Y-91190000D01*
X64389523Y-91237619D01*
X64437142Y-91332857D01*
X64437142Y-91475714D01*
X64389523Y-91570952D01*
X64341904Y-91618571D01*
X64246666Y-91666190D01*
X63865714Y-91666190D01*
X65389523Y-92142380D02*
X64818095Y-92142380D01*
X65103809Y-92142380D02*
X65103809Y-91142380D01*
X65008571Y-91285238D01*
X64913333Y-91380476D01*
X64818095Y-91428095D01*
X66246666Y-91142380D02*
X66056190Y-91142380D01*
X65960952Y-91190000D01*
X65913333Y-91237619D01*
X65818095Y-91380476D01*
X65770476Y-91570952D01*
X65770476Y-91951904D01*
X65818095Y-92047142D01*
X65865714Y-92094761D01*
X65960952Y-92142380D01*
X66151428Y-92142380D01*
X66246666Y-92094761D01*
X66294285Y-92047142D01*
X66341904Y-91951904D01*
X66341904Y-91713809D01*
X66294285Y-91618571D01*
X66246666Y-91570952D01*
X66151428Y-91523333D01*
X65960952Y-91523333D01*
X65865714Y-91570952D01*
X65818095Y-91618571D01*
X65770476Y-91713809D01*
X32437142Y-27142380D02*
X32103809Y-26666190D01*
X31865714Y-27142380D02*
X31865714Y-26142380D01*
X32246666Y-26142380D01*
X32341904Y-26190000D01*
X32389523Y-26237619D01*
X32437142Y-26332857D01*
X32437142Y-26475714D01*
X32389523Y-26570952D01*
X32341904Y-26618571D01*
X32246666Y-26666190D01*
X31865714Y-26666190D01*
X33389523Y-27142380D02*
X32818095Y-27142380D01*
X33103809Y-27142380D02*
X33103809Y-26142380D01*
X33008571Y-26285238D01*
X32913333Y-26380476D01*
X32818095Y-26428095D01*
X33722857Y-26142380D02*
X34389523Y-26142380D01*
X33960952Y-27142380D01*
X64437142Y-72142380D02*
X64103809Y-71666190D01*
X63865714Y-72142380D02*
X63865714Y-71142380D01*
X64246666Y-71142380D01*
X64341904Y-71190000D01*
X64389523Y-71237619D01*
X64437142Y-71332857D01*
X64437142Y-71475714D01*
X64389523Y-71570952D01*
X64341904Y-71618571D01*
X64246666Y-71666190D01*
X63865714Y-71666190D01*
X65389523Y-72142380D02*
X64818095Y-72142380D01*
X65103809Y-72142380D02*
X65103809Y-71142380D01*
X65008571Y-71285238D01*
X64913333Y-71380476D01*
X64818095Y-71428095D01*
X65960952Y-71570952D02*
X65865714Y-71523333D01*
X65818095Y-71475714D01*
X65770476Y-71380476D01*
X65770476Y-71332857D01*
X65818095Y-71237619D01*
X65865714Y-71190000D01*
X65960952Y-71142380D01*
X66151428Y-71142380D01*
X66246666Y-71190000D01*
X66294285Y-71237619D01*
X66341904Y-71332857D01*
X66341904Y-71380476D01*
X66294285Y-71475714D01*
X66246666Y-71523333D01*
X66151428Y-71570952D01*
X65960952Y-71570952D01*
X65865714Y-71618571D01*
X65818095Y-71666190D01*
X65770476Y-71761428D01*
X65770476Y-71951904D01*
X65818095Y-72047142D01*
X65865714Y-72094761D01*
X65960952Y-72142380D01*
X66151428Y-72142380D01*
X66246666Y-72094761D01*
X66294285Y-72047142D01*
X66341904Y-71951904D01*
X66341904Y-71761428D01*
X66294285Y-71666190D01*
X66246666Y-71618571D01*
X66151428Y-71570952D01*
X32437142Y-32142380D02*
X32103809Y-31666190D01*
X31865714Y-32142380D02*
X31865714Y-31142380D01*
X32246666Y-31142380D01*
X32341904Y-31190000D01*
X32389523Y-31237619D01*
X32437142Y-31332857D01*
X32437142Y-31475714D01*
X32389523Y-31570952D01*
X32341904Y-31618571D01*
X32246666Y-31666190D01*
X31865714Y-31666190D01*
X33389523Y-32142380D02*
X32818095Y-32142380D01*
X33103809Y-32142380D02*
X33103809Y-31142380D01*
X33008571Y-31285238D01*
X32913333Y-31380476D01*
X32818095Y-31428095D01*
X33865714Y-32142380D02*
X34056190Y-32142380D01*
X34151428Y-32094761D01*
X34199047Y-32047142D01*
X34294285Y-31904285D01*
X34341904Y-31713809D01*
X34341904Y-31332857D01*
X34294285Y-31237619D01*
X34246666Y-31190000D01*
X34151428Y-31142380D01*
X33960952Y-31142380D01*
X33865714Y-31190000D01*
X33818095Y-31237619D01*
X33770476Y-31332857D01*
X33770476Y-31570952D01*
X33818095Y-31666190D01*
X33865714Y-31713809D01*
X33960952Y-31761428D01*
X34151428Y-31761428D01*
X34246666Y-31713809D01*
X34294285Y-31666190D01*
X34341904Y-31570952D01*
X58437142Y-105142380D02*
X58103809Y-104666190D01*
X57865714Y-105142380D02*
X57865714Y-104142380D01*
X58246666Y-104142380D01*
X58341904Y-104190000D01*
X58389523Y-104237619D01*
X58437142Y-104332857D01*
X58437142Y-104475714D01*
X58389523Y-104570952D01*
X58341904Y-104618571D01*
X58246666Y-104666190D01*
X57865714Y-104666190D01*
X58818095Y-104237619D02*
X58865714Y-104190000D01*
X58960952Y-104142380D01*
X59199047Y-104142380D01*
X59294285Y-104190000D01*
X59341904Y-104237619D01*
X59389523Y-104332857D01*
X59389523Y-104428095D01*
X59341904Y-104570952D01*
X58770476Y-105142380D01*
X59389523Y-105142380D01*
X60008571Y-104142380D02*
X60103809Y-104142380D01*
X60199047Y-104190000D01*
X60246666Y-104237619D01*
X60294285Y-104332857D01*
X60341904Y-104523333D01*
X60341904Y-104761428D01*
X60294285Y-104951904D01*
X60246666Y-105047142D01*
X60199047Y-105094761D01*
X60103809Y-105142380D01*
X60008571Y-105142380D01*
X59913333Y-105094761D01*
X59865714Y-105047142D01*
X59818095Y-104951904D01*
X59770476Y-104761428D01*
X59770476Y-104523333D01*
X59818095Y-104332857D01*
X59865714Y-104237619D01*
X59913333Y-104190000D01*
X60008571Y-104142380D01*
X32437142Y-22142380D02*
X32103809Y-21666190D01*
X31865714Y-22142380D02*
X31865714Y-21142380D01*
X32246666Y-21142380D01*
X32341904Y-21190000D01*
X32389523Y-21237619D01*
X32437142Y-21332857D01*
X32437142Y-21475714D01*
X32389523Y-21570952D01*
X32341904Y-21618571D01*
X32246666Y-21666190D01*
X31865714Y-21666190D01*
X32818095Y-21237619D02*
X32865714Y-21190000D01*
X32960952Y-21142380D01*
X33199047Y-21142380D01*
X33294285Y-21190000D01*
X33341904Y-21237619D01*
X33389523Y-21332857D01*
X33389523Y-21428095D01*
X33341904Y-21570952D01*
X32770476Y-22142380D01*
X33389523Y-22142380D01*
X34341904Y-22142380D02*
X33770476Y-22142380D01*
X34056190Y-22142380D02*
X34056190Y-21142380D01*
X33960952Y-21285238D01*
X33865714Y-21380476D01*
X33770476Y-21428095D01*
X32437142Y-2142380D02*
X32103809Y-1666190D01*
X31865714Y-2142380D02*
X31865714Y-1142380D01*
X32246666Y-1142380D01*
X32341904Y-1190000D01*
X32389523Y-1237619D01*
X32437142Y-1332857D01*
X32437142Y-1475714D01*
X32389523Y-1570952D01*
X32341904Y-1618571D01*
X32246666Y-1666190D01*
X31865714Y-1666190D01*
X32818095Y-1237619D02*
X32865714Y-1190000D01*
X32960952Y-1142380D01*
X33199047Y-1142380D01*
X33294285Y-1190000D01*
X33341904Y-1237619D01*
X33389523Y-1332857D01*
X33389523Y-1428095D01*
X33341904Y-1570952D01*
X32770476Y-2142380D01*
X33389523Y-2142380D01*
X33770476Y-1237619D02*
X33818095Y-1190000D01*
X33913333Y-1142380D01*
X34151428Y-1142380D01*
X34246666Y-1190000D01*
X34294285Y-1237619D01*
X34341904Y-1332857D01*
X34341904Y-1428095D01*
X34294285Y-1570952D01*
X33722857Y-2142380D01*
X34341904Y-2142380D01*
X32277142Y-105202380D02*
X31943809Y-104726190D01*
X31705714Y-105202380D02*
X31705714Y-104202380D01*
X32086666Y-104202380D01*
X32181904Y-104250000D01*
X32229523Y-104297619D01*
X32277142Y-104392857D01*
X32277142Y-104535714D01*
X32229523Y-104630952D01*
X32181904Y-104678571D01*
X32086666Y-104726190D01*
X31705714Y-104726190D01*
X32658095Y-104297619D02*
X32705714Y-104250000D01*
X32800952Y-104202380D01*
X33039047Y-104202380D01*
X33134285Y-104250000D01*
X33181904Y-104297619D01*
X33229523Y-104392857D01*
X33229523Y-104488095D01*
X33181904Y-104630952D01*
X32610476Y-105202380D01*
X33229523Y-105202380D01*
X33562857Y-104202380D02*
X34181904Y-104202380D01*
X33848571Y-104583333D01*
X33991428Y-104583333D01*
X34086666Y-104630952D01*
X34134285Y-104678571D01*
X34181904Y-104773809D01*
X34181904Y-105011904D01*
X34134285Y-105107142D01*
X34086666Y-105154761D01*
X33991428Y-105202380D01*
X33705714Y-105202380D01*
X33610476Y-105154761D01*
X33562857Y-105107142D01*
X62437142Y-2142380D02*
X62103809Y-1666190D01*
X61865714Y-2142380D02*
X61865714Y-1142380D01*
X62246666Y-1142380D01*
X62341904Y-1190000D01*
X62389523Y-1237619D01*
X62437142Y-1332857D01*
X62437142Y-1475714D01*
X62389523Y-1570952D01*
X62341904Y-1618571D01*
X62246666Y-1666190D01*
X61865714Y-1666190D01*
X62818095Y-1237619D02*
X62865714Y-1190000D01*
X62960952Y-1142380D01*
X63199047Y-1142380D01*
X63294285Y-1190000D01*
X63341904Y-1237619D01*
X63389523Y-1332857D01*
X63389523Y-1428095D01*
X63341904Y-1570952D01*
X62770476Y-2142380D01*
X63389523Y-2142380D01*
X64246666Y-1475714D02*
X64246666Y-2142380D01*
X64008571Y-1094761D02*
X63770476Y-1809047D01*
X64389523Y-1809047D01*
X32437142Y-82142380D02*
X32103809Y-81666190D01*
X31865714Y-82142380D02*
X31865714Y-81142380D01*
X32246666Y-81142380D01*
X32341904Y-81190000D01*
X32389523Y-81237619D01*
X32437142Y-81332857D01*
X32437142Y-81475714D01*
X32389523Y-81570952D01*
X32341904Y-81618571D01*
X32246666Y-81666190D01*
X31865714Y-81666190D01*
X32818095Y-81237619D02*
X32865714Y-81190000D01*
X32960952Y-81142380D01*
X33199047Y-81142380D01*
X33294285Y-81190000D01*
X33341904Y-81237619D01*
X33389523Y-81332857D01*
X33389523Y-81428095D01*
X33341904Y-81570952D01*
X32770476Y-82142380D01*
X33389523Y-82142380D01*
X34294285Y-81142380D02*
X33818095Y-81142380D01*
X33770476Y-81618571D01*
X33818095Y-81570952D01*
X33913333Y-81523333D01*
X34151428Y-81523333D01*
X34246666Y-81570952D01*
X34294285Y-81618571D01*
X34341904Y-81713809D01*
X34341904Y-81951904D01*
X34294285Y-82047142D01*
X34246666Y-82094761D01*
X34151428Y-82142380D01*
X33913333Y-82142380D01*
X33818095Y-82094761D01*
X33770476Y-82047142D01*
X32437142Y-12142380D02*
X32103809Y-11666190D01*
X31865714Y-12142380D02*
X31865714Y-11142380D01*
X32246666Y-11142380D01*
X32341904Y-11190000D01*
X32389523Y-11237619D01*
X32437142Y-11332857D01*
X32437142Y-11475714D01*
X32389523Y-11570952D01*
X32341904Y-11618571D01*
X32246666Y-11666190D01*
X31865714Y-11666190D01*
X32818095Y-11237619D02*
X32865714Y-11190000D01*
X32960952Y-11142380D01*
X33199047Y-11142380D01*
X33294285Y-11190000D01*
X33341904Y-11237619D01*
X33389523Y-11332857D01*
X33389523Y-11428095D01*
X33341904Y-11570952D01*
X32770476Y-12142380D01*
X33389523Y-12142380D01*
X34246666Y-11142380D02*
X34056190Y-11142380D01*
X33960952Y-11190000D01*
X33913333Y-11237619D01*
X33818095Y-11380476D01*
X33770476Y-11570952D01*
X33770476Y-11951904D01*
X33818095Y-12047142D01*
X33865714Y-12094761D01*
X33960952Y-12142380D01*
X34151428Y-12142380D01*
X34246666Y-12094761D01*
X34294285Y-12047142D01*
X34341904Y-11951904D01*
X34341904Y-11713809D01*
X34294285Y-11618571D01*
X34246666Y-11570952D01*
X34151428Y-11523333D01*
X33960952Y-11523333D01*
X33865714Y-11570952D01*
X33818095Y-11618571D01*
X33770476Y-11713809D01*
X32437142Y-7142380D02*
X32103809Y-6666190D01*
X31865714Y-7142380D02*
X31865714Y-6142380D01*
X32246666Y-6142380D01*
X32341904Y-6190000D01*
X32389523Y-6237619D01*
X32437142Y-6332857D01*
X32437142Y-6475714D01*
X32389523Y-6570952D01*
X32341904Y-6618571D01*
X32246666Y-6666190D01*
X31865714Y-6666190D01*
X32818095Y-6237619D02*
X32865714Y-6190000D01*
X32960952Y-6142380D01*
X33199047Y-6142380D01*
X33294285Y-6190000D01*
X33341904Y-6237619D01*
X33389523Y-6332857D01*
X33389523Y-6428095D01*
X33341904Y-6570952D01*
X32770476Y-7142380D01*
X33389523Y-7142380D01*
X33722857Y-6142380D02*
X34389523Y-6142380D01*
X33960952Y-7142380D01*
X64437142Y-52142380D02*
X64103809Y-51666190D01*
X63865714Y-52142380D02*
X63865714Y-51142380D01*
X64246666Y-51142380D01*
X64341904Y-51190000D01*
X64389523Y-51237619D01*
X64437142Y-51332857D01*
X64437142Y-51475714D01*
X64389523Y-51570952D01*
X64341904Y-51618571D01*
X64246666Y-51666190D01*
X63865714Y-51666190D01*
X64818095Y-51237619D02*
X64865714Y-51190000D01*
X64960952Y-51142380D01*
X65199047Y-51142380D01*
X65294285Y-51190000D01*
X65341904Y-51237619D01*
X65389523Y-51332857D01*
X65389523Y-51428095D01*
X65341904Y-51570952D01*
X64770476Y-52142380D01*
X65389523Y-52142380D01*
X65960952Y-51570952D02*
X65865714Y-51523333D01*
X65818095Y-51475714D01*
X65770476Y-51380476D01*
X65770476Y-51332857D01*
X65818095Y-51237619D01*
X65865714Y-51190000D01*
X65960952Y-51142380D01*
X66151428Y-51142380D01*
X66246666Y-51190000D01*
X66294285Y-51237619D01*
X66341904Y-51332857D01*
X66341904Y-51380476D01*
X66294285Y-51475714D01*
X66246666Y-51523333D01*
X66151428Y-51570952D01*
X65960952Y-51570952D01*
X65865714Y-51618571D01*
X65818095Y-51666190D01*
X65770476Y-51761428D01*
X65770476Y-51951904D01*
X65818095Y-52047142D01*
X65865714Y-52094761D01*
X65960952Y-52142380D01*
X66151428Y-52142380D01*
X66246666Y-52094761D01*
X66294285Y-52047142D01*
X66341904Y-51951904D01*
X66341904Y-51761428D01*
X66294285Y-51666190D01*
X66246666Y-51618571D01*
X66151428Y-51570952D01*
X64437142Y-62142380D02*
X64103809Y-61666190D01*
X63865714Y-62142380D02*
X63865714Y-61142380D01*
X64246666Y-61142380D01*
X64341904Y-61190000D01*
X64389523Y-61237619D01*
X64437142Y-61332857D01*
X64437142Y-61475714D01*
X64389523Y-61570952D01*
X64341904Y-61618571D01*
X64246666Y-61666190D01*
X63865714Y-61666190D01*
X64818095Y-61237619D02*
X64865714Y-61190000D01*
X64960952Y-61142380D01*
X65199047Y-61142380D01*
X65294285Y-61190000D01*
X65341904Y-61237619D01*
X65389523Y-61332857D01*
X65389523Y-61428095D01*
X65341904Y-61570952D01*
X64770476Y-62142380D01*
X65389523Y-62142380D01*
X65865714Y-62142380D02*
X66056190Y-62142380D01*
X66151428Y-62094761D01*
X66199047Y-62047142D01*
X66294285Y-61904285D01*
X66341904Y-61713809D01*
X66341904Y-61332857D01*
X66294285Y-61237619D01*
X66246666Y-61190000D01*
X66151428Y-61142380D01*
X65960952Y-61142380D01*
X65865714Y-61190000D01*
X65818095Y-61237619D01*
X65770476Y-61332857D01*
X65770476Y-61570952D01*
X65818095Y-61666190D01*
X65865714Y-61713809D01*
X65960952Y-61761428D01*
X66151428Y-61761428D01*
X66246666Y-61713809D01*
X66294285Y-61666190D01*
X66341904Y-61570952D01*
X64437142Y-57142380D02*
X64103809Y-56666190D01*
X63865714Y-57142380D02*
X63865714Y-56142380D01*
X64246666Y-56142380D01*
X64341904Y-56190000D01*
X64389523Y-56237619D01*
X64437142Y-56332857D01*
X64437142Y-56475714D01*
X64389523Y-56570952D01*
X64341904Y-56618571D01*
X64246666Y-56666190D01*
X63865714Y-56666190D01*
X64770476Y-56142380D02*
X65389523Y-56142380D01*
X65056190Y-56523333D01*
X65199047Y-56523333D01*
X65294285Y-56570952D01*
X65341904Y-56618571D01*
X65389523Y-56713809D01*
X65389523Y-56951904D01*
X65341904Y-57047142D01*
X65294285Y-57094761D01*
X65199047Y-57142380D01*
X64913333Y-57142380D01*
X64818095Y-57094761D01*
X64770476Y-57047142D01*
X66008571Y-56142380D02*
X66103809Y-56142380D01*
X66199047Y-56190000D01*
X66246666Y-56237619D01*
X66294285Y-56332857D01*
X66341904Y-56523333D01*
X66341904Y-56761428D01*
X66294285Y-56951904D01*
X66246666Y-57047142D01*
X66199047Y-57094761D01*
X66103809Y-57142380D01*
X66008571Y-57142380D01*
X65913333Y-57094761D01*
X65865714Y-57047142D01*
X65818095Y-56951904D01*
X65770476Y-56761428D01*
X65770476Y-56523333D01*
X65818095Y-56332857D01*
X65865714Y-56237619D01*
X65913333Y-56190000D01*
X66008571Y-56142380D01*
X64437142Y-87142380D02*
X64103809Y-86666190D01*
X63865714Y-87142380D02*
X63865714Y-86142380D01*
X64246666Y-86142380D01*
X64341904Y-86190000D01*
X64389523Y-86237619D01*
X64437142Y-86332857D01*
X64437142Y-86475714D01*
X64389523Y-86570952D01*
X64341904Y-86618571D01*
X64246666Y-86666190D01*
X63865714Y-86666190D01*
X64770476Y-86142380D02*
X65389523Y-86142380D01*
X65056190Y-86523333D01*
X65199047Y-86523333D01*
X65294285Y-86570952D01*
X65341904Y-86618571D01*
X65389523Y-86713809D01*
X65389523Y-86951904D01*
X65341904Y-87047142D01*
X65294285Y-87094761D01*
X65199047Y-87142380D01*
X64913333Y-87142380D01*
X64818095Y-87094761D01*
X64770476Y-87047142D01*
X66341904Y-87142380D02*
X65770476Y-87142380D01*
X66056190Y-87142380D02*
X66056190Y-86142380D01*
X65960952Y-86285238D01*
X65865714Y-86380476D01*
X65770476Y-86428095D01*
X64437142Y-77142380D02*
X64103809Y-76666190D01*
X63865714Y-77142380D02*
X63865714Y-76142380D01*
X64246666Y-76142380D01*
X64341904Y-76190000D01*
X64389523Y-76237619D01*
X64437142Y-76332857D01*
X64437142Y-76475714D01*
X64389523Y-76570952D01*
X64341904Y-76618571D01*
X64246666Y-76666190D01*
X63865714Y-76666190D01*
X64770476Y-76142380D02*
X65389523Y-76142380D01*
X65056190Y-76523333D01*
X65199047Y-76523333D01*
X65294285Y-76570952D01*
X65341904Y-76618571D01*
X65389523Y-76713809D01*
X65389523Y-76951904D01*
X65341904Y-77047142D01*
X65294285Y-77094761D01*
X65199047Y-77142380D01*
X64913333Y-77142380D01*
X64818095Y-77094761D01*
X64770476Y-77047142D01*
X65770476Y-76237619D02*
X65818095Y-76190000D01*
X65913333Y-76142380D01*
X66151428Y-76142380D01*
X66246666Y-76190000D01*
X66294285Y-76237619D01*
X66341904Y-76332857D01*
X66341904Y-76428095D01*
X66294285Y-76570952D01*
X65722857Y-77142380D01*
X66341904Y-77142380D01*
X64437142Y-82142380D02*
X64103809Y-81666190D01*
X63865714Y-82142380D02*
X63865714Y-81142380D01*
X64246666Y-81142380D01*
X64341904Y-81190000D01*
X64389523Y-81237619D01*
X64437142Y-81332857D01*
X64437142Y-81475714D01*
X64389523Y-81570952D01*
X64341904Y-81618571D01*
X64246666Y-81666190D01*
X63865714Y-81666190D01*
X64770476Y-81142380D02*
X65389523Y-81142380D01*
X65056190Y-81523333D01*
X65199047Y-81523333D01*
X65294285Y-81570952D01*
X65341904Y-81618571D01*
X65389523Y-81713809D01*
X65389523Y-81951904D01*
X65341904Y-82047142D01*
X65294285Y-82094761D01*
X65199047Y-82142380D01*
X64913333Y-82142380D01*
X64818095Y-82094761D01*
X64770476Y-82047142D01*
X65722857Y-81142380D02*
X66341904Y-81142380D01*
X66008571Y-81523333D01*
X66151428Y-81523333D01*
X66246666Y-81570952D01*
X66294285Y-81618571D01*
X66341904Y-81713809D01*
X66341904Y-81951904D01*
X66294285Y-82047142D01*
X66246666Y-82094761D01*
X66151428Y-82142380D01*
X65865714Y-82142380D01*
X65770476Y-82094761D01*
X65722857Y-82047142D01*
X64437142Y-67142380D02*
X64103809Y-66666190D01*
X63865714Y-67142380D02*
X63865714Y-66142380D01*
X64246666Y-66142380D01*
X64341904Y-66190000D01*
X64389523Y-66237619D01*
X64437142Y-66332857D01*
X64437142Y-66475714D01*
X64389523Y-66570952D01*
X64341904Y-66618571D01*
X64246666Y-66666190D01*
X63865714Y-66666190D01*
X64770476Y-66142380D02*
X65389523Y-66142380D01*
X65056190Y-66523333D01*
X65199047Y-66523333D01*
X65294285Y-66570952D01*
X65341904Y-66618571D01*
X65389523Y-66713809D01*
X65389523Y-66951904D01*
X65341904Y-67047142D01*
X65294285Y-67094761D01*
X65199047Y-67142380D01*
X64913333Y-67142380D01*
X64818095Y-67094761D01*
X64770476Y-67047142D01*
X66246666Y-66475714D02*
X66246666Y-67142380D01*
X66008571Y-66094761D02*
X65770476Y-66809047D01*
X66389523Y-66809047D01*
X58592380Y-38162857D02*
X58116190Y-38496190D01*
X58592380Y-38734285D02*
X57592380Y-38734285D01*
X57592380Y-38353333D01*
X57640000Y-38258095D01*
X57687619Y-38210476D01*
X57782857Y-38162857D01*
X57925714Y-38162857D01*
X58020952Y-38210476D01*
X58068571Y-38258095D01*
X58116190Y-38353333D01*
X58116190Y-38734285D01*
X57592380Y-37829523D02*
X57592380Y-37210476D01*
X57973333Y-37543809D01*
X57973333Y-37400952D01*
X58020952Y-37305714D01*
X58068571Y-37258095D01*
X58163809Y-37210476D01*
X58401904Y-37210476D01*
X58497142Y-37258095D01*
X58544761Y-37305714D01*
X58592380Y-37400952D01*
X58592380Y-37686666D01*
X58544761Y-37781904D01*
X58497142Y-37829523D01*
X57592380Y-36305714D02*
X57592380Y-36781904D01*
X58068571Y-36829523D01*
X58020952Y-36781904D01*
X57973333Y-36686666D01*
X57973333Y-36448571D01*
X58020952Y-36353333D01*
X58068571Y-36305714D01*
X58163809Y-36258095D01*
X58401904Y-36258095D01*
X58497142Y-36305714D01*
X58544761Y-36353333D01*
X58592380Y-36448571D01*
X58592380Y-36686666D01*
X58544761Y-36781904D01*
X58497142Y-36829523D01*
X67404761Y-18402380D02*
X67071428Y-17926190D01*
X66833333Y-18402380D02*
X66833333Y-17402380D01*
X67214285Y-17402380D01*
X67309523Y-17450000D01*
X67357142Y-17497619D01*
X67404761Y-17592857D01*
X67404761Y-17735714D01*
X67357142Y-17830952D01*
X67309523Y-17878571D01*
X67214285Y-17926190D01*
X66833333Y-17926190D01*
X67690476Y-17402380D02*
X68023809Y-18402380D01*
X68357142Y-17402380D01*
X69214285Y-18402380D02*
X68642857Y-18402380D01*
X68928571Y-18402380D02*
X68928571Y-17402380D01*
X68833333Y-17545238D01*
X68738095Y-17640476D01*
X68642857Y-17688095D01*
X95904761Y-37402380D02*
X95571428Y-36926190D01*
X95333333Y-37402380D02*
X95333333Y-36402380D01*
X95714285Y-36402380D01*
X95809523Y-36450000D01*
X95857142Y-36497619D01*
X95904761Y-36592857D01*
X95904761Y-36735714D01*
X95857142Y-36830952D01*
X95809523Y-36878571D01*
X95714285Y-36926190D01*
X95333333Y-36926190D01*
X96190476Y-36402380D02*
X96523809Y-37402380D01*
X96857142Y-36402380D01*
X97142857Y-36497619D02*
X97190476Y-36450000D01*
X97285714Y-36402380D01*
X97523809Y-36402380D01*
X97619047Y-36450000D01*
X97666666Y-36497619D01*
X97714285Y-36592857D01*
X97714285Y-36688095D01*
X97666666Y-36830952D01*
X97095238Y-37402380D01*
X97714285Y-37402380D01*
X71904761Y-96702380D02*
X71571428Y-96226190D01*
X71333333Y-96702380D02*
X71333333Y-95702380D01*
X71714285Y-95702380D01*
X71809523Y-95750000D01*
X71857142Y-95797619D01*
X71904761Y-95892857D01*
X71904761Y-96035714D01*
X71857142Y-96130952D01*
X71809523Y-96178571D01*
X71714285Y-96226190D01*
X71333333Y-96226190D01*
X72190476Y-95702380D02*
X72523809Y-96702380D01*
X72857142Y-95702380D01*
X73095238Y-95702380D02*
X73714285Y-95702380D01*
X73380952Y-96083333D01*
X73523809Y-96083333D01*
X73619047Y-96130952D01*
X73666666Y-96178571D01*
X73714285Y-96273809D01*
X73714285Y-96511904D01*
X73666666Y-96607142D01*
X73619047Y-96654761D01*
X73523809Y-96702380D01*
X73238095Y-96702380D01*
X73142857Y-96654761D01*
X73095238Y-96607142D01*
X37353961Y-96652380D02*
X37020628Y-96176190D01*
X36782533Y-96652380D02*
X36782533Y-95652380D01*
X37163485Y-95652380D01*
X37258723Y-95700000D01*
X37306342Y-95747619D01*
X37353961Y-95842857D01*
X37353961Y-95985714D01*
X37306342Y-96080952D01*
X37258723Y-96128571D01*
X37163485Y-96176190D01*
X36782533Y-96176190D01*
X37639676Y-95652380D02*
X37973009Y-96652380D01*
X38306342Y-95652380D01*
X39068247Y-95985714D02*
X39068247Y-96652380D01*
X38830152Y-95604761D02*
X38592057Y-96319047D01*
X39211104Y-96319047D01*
X37353961Y-87602380D02*
X37020628Y-87126190D01*
X36782533Y-87602380D02*
X36782533Y-86602380D01*
X37163485Y-86602380D01*
X37258723Y-86650000D01*
X37306342Y-86697619D01*
X37353961Y-86792857D01*
X37353961Y-86935714D01*
X37306342Y-87030952D01*
X37258723Y-87078571D01*
X37163485Y-87126190D01*
X36782533Y-87126190D01*
X37639676Y-86602380D02*
X37973009Y-87602380D01*
X38306342Y-86602380D01*
X39115866Y-86602380D02*
X38639676Y-86602380D01*
X38592057Y-87078571D01*
X38639676Y-87030952D01*
X38734914Y-86983333D01*
X38973009Y-86983333D01*
X39068247Y-87030952D01*
X39115866Y-87078571D01*
X39163485Y-87173809D01*
X39163485Y-87411904D01*
X39115866Y-87507142D01*
X39068247Y-87554761D01*
X38973009Y-87602380D01*
X38734914Y-87602380D01*
X38639676Y-87554761D01*
X38592057Y-87507142D01*
X2904761Y-51502380D02*
X2571428Y-51026190D01*
X2333333Y-51502380D02*
X2333333Y-50502380D01*
X2714285Y-50502380D01*
X2809523Y-50550000D01*
X2857142Y-50597619D01*
X2904761Y-50692857D01*
X2904761Y-50835714D01*
X2857142Y-50930952D01*
X2809523Y-50978571D01*
X2714285Y-51026190D01*
X2333333Y-51026190D01*
X3190476Y-50502380D02*
X3523809Y-51502380D01*
X3857142Y-50502380D01*
X4619047Y-50502380D02*
X4428571Y-50502380D01*
X4333333Y-50550000D01*
X4285714Y-50597619D01*
X4190476Y-50740476D01*
X4142857Y-50930952D01*
X4142857Y-51311904D01*
X4190476Y-51407142D01*
X4238095Y-51454761D01*
X4333333Y-51502380D01*
X4523809Y-51502380D01*
X4619047Y-51454761D01*
X4666666Y-51407142D01*
X4714285Y-51311904D01*
X4714285Y-51073809D01*
X4666666Y-50978571D01*
X4619047Y-50930952D01*
X4523809Y-50883333D01*
X4333333Y-50883333D01*
X4238095Y-50930952D01*
X4190476Y-50978571D01*
X4142857Y-51073809D01*
X2904761Y-73502380D02*
X2571428Y-73026190D01*
X2333333Y-73502380D02*
X2333333Y-72502380D01*
X2714285Y-72502380D01*
X2809523Y-72550000D01*
X2857142Y-72597619D01*
X2904761Y-72692857D01*
X2904761Y-72835714D01*
X2857142Y-72930952D01*
X2809523Y-72978571D01*
X2714285Y-73026190D01*
X2333333Y-73026190D01*
X3190476Y-72502380D02*
X3523809Y-73502380D01*
X3857142Y-72502380D01*
X4095238Y-72502380D02*
X4761904Y-72502380D01*
X4333333Y-73502380D01*
X93586666Y-75421261D02*
X93729523Y-75468880D01*
X93967619Y-75468880D01*
X94062857Y-75421261D01*
X94110476Y-75373642D01*
X94158095Y-75278404D01*
X94158095Y-75183166D01*
X94110476Y-75087928D01*
X94062857Y-75040309D01*
X93967619Y-74992690D01*
X93777142Y-74945071D01*
X93681904Y-74897452D01*
X93634285Y-74849833D01*
X93586666Y-74754595D01*
X93586666Y-74659357D01*
X93634285Y-74564119D01*
X93681904Y-74516500D01*
X93777142Y-74468880D01*
X94015238Y-74468880D01*
X94158095Y-74516500D01*
X94491428Y-74468880D02*
X94729523Y-75468880D01*
X94920000Y-74754595D01*
X95110476Y-75468880D01*
X95348571Y-74468880D01*
X96253333Y-75468880D02*
X95681904Y-75468880D01*
X95967619Y-75468880D02*
X95967619Y-74468880D01*
X95872380Y-74611738D01*
X95777142Y-74706976D01*
X95681904Y-74754595D01*
X49238095Y-10122380D02*
X49238095Y-10931904D01*
X49285714Y-11027142D01*
X49333333Y-11074761D01*
X49428571Y-11122380D01*
X49619047Y-11122380D01*
X49714285Y-11074761D01*
X49761904Y-11027142D01*
X49809523Y-10931904D01*
X49809523Y-10122380D01*
X50809523Y-11122380D02*
X50238095Y-11122380D01*
X50523809Y-11122380D02*
X50523809Y-10122380D01*
X50428571Y-10265238D01*
X50333333Y-10360476D01*
X50238095Y-10408095D01*
X49238095Y-32122380D02*
X49238095Y-32931904D01*
X49285714Y-33027142D01*
X49333333Y-33074761D01*
X49428571Y-33122380D01*
X49619047Y-33122380D01*
X49714285Y-33074761D01*
X49761904Y-33027142D01*
X49809523Y-32931904D01*
X49809523Y-32122380D01*
X50238095Y-32217619D02*
X50285714Y-32170000D01*
X50380952Y-32122380D01*
X50619047Y-32122380D01*
X50714285Y-32170000D01*
X50761904Y-32217619D01*
X50809523Y-32312857D01*
X50809523Y-32408095D01*
X50761904Y-32550952D01*
X50190476Y-33122380D01*
X50809523Y-33122380D01*
X49238095Y-54122380D02*
X49238095Y-54931904D01*
X49285714Y-55027142D01*
X49333333Y-55074761D01*
X49428571Y-55122380D01*
X49619047Y-55122380D01*
X49714285Y-55074761D01*
X49761904Y-55027142D01*
X49809523Y-54931904D01*
X49809523Y-54122380D01*
X50190476Y-54122380D02*
X50809523Y-54122380D01*
X50476190Y-54503333D01*
X50619047Y-54503333D01*
X50714285Y-54550952D01*
X50761904Y-54598571D01*
X50809523Y-54693809D01*
X50809523Y-54931904D01*
X50761904Y-55027142D01*
X50714285Y-55074761D01*
X50619047Y-55122380D01*
X50333333Y-55122380D01*
X50238095Y-55074761D01*
X50190476Y-55027142D01*
X49238095Y-83122380D02*
X49238095Y-83931904D01*
X49285714Y-84027142D01*
X49333333Y-84074761D01*
X49428571Y-84122380D01*
X49619047Y-84122380D01*
X49714285Y-84074761D01*
X49761904Y-84027142D01*
X49809523Y-83931904D01*
X49809523Y-83122380D01*
X50714285Y-83455714D02*
X50714285Y-84122380D01*
X50476190Y-83074761D02*
X50238095Y-83789047D01*
X50857142Y-83789047D01*
M02*
