M48
; DRILL file {KiCad 9.0.0} date 2025-02-23T15:56:57-0700
; FORMAT={-:-/ absolute / inch / decimal}
; #@! TF.CreationDate,2025-02-23T15:56:57-07:00
; #@! TF.GenerationSoftware,Kicad,Pcbnew,9.0.0
; #@! TF.FileFunction,Plated,1,2,PTH
FMAT,2
INCH
; #@! TA.AperFunction,Plated,PTH,ViaDrill
T1C0.0157
; #@! TA.AperFunction,Plated,PTH,ComponentDrill
T2C0.0157
; #@! TA.AperFunction,Plated,PTH,ComponentDrill
T3C0.0197
; #@! TA.AperFunction,Plated,PTH,ComponentDrill
T4C0.0300
; #@! TA.AperFunction,Plated,PTH,ComponentDrill
T5C0.0315
; #@! TA.AperFunction,Plated,PTH,ComponentDrill
T6C0.0354
; #@! TA.AperFunction,Plated,PTH,ComponentDrill
T7C0.0394
; #@! TA.AperFunction,Plated,PTH,ComponentDrill
T8C0.0512
; #@! TA.AperFunction,Plated,PTH,ComponentDrill
T9C0.0906
%
G90
G05
T1
X0.0433Y-4.2874
X0.0492Y-0.0453
X0.7343Y-0.0472
X0.7343Y-4.2835
X0.8366Y-0.0472
X0.8701Y-2.5
X0.8701Y-3.4606
X0.998Y-2.2008
X1.0Y-2.5
X1.002Y-2.9823
X1.0039Y-1.9272
X1.0453Y-4.2795
X1.1811Y-3.0256
X1.3091Y-1.9921
X1.313Y-2.1555
X1.3346Y-3.2441
X1.4134Y-3.0236
X1.4902Y-2.6201
X1.6102Y-2.6181
X1.6457Y-3.0728
X1.6693Y-3.2461
X1.8386Y-1.878
X1.8583Y-3.2264
X1.9255Y-3.8114
X2.122Y-1.2677
X2.2185Y-3.1713
X2.2205Y-1.9094
X2.4823Y-1.9646
X2.5118Y-1.7559
X2.8878Y-1.061
X3.1004Y-0.0433
X3.1004Y-4.2874
X3.1988Y-4.2874
X3.2028Y-0.0433
X3.8878Y-4.2835
X3.8917Y-0.0433
T3
X1.3961Y-3.4933
X1.3961Y-3.8476
X1.4961Y-3.5933
X1.4961Y-3.9476
X1.5961Y-3.4933
X1.5961Y-3.8476
T4
X3.472Y-2.6559
X3.472Y-2.7559
X3.472Y-2.8559
X3.572Y-2.6559
X3.572Y-2.7559
X3.572Y-2.8559
X3.772Y-2.8559
X3.7732Y-2.6559
T5
X1.0961Y-4.2126
X1.1024Y-0.1575
X1.1024Y-0.3543
X1.1024Y-0.5512
X1.1024Y-0.748
X1.1024Y-0.9449
X1.1024Y-1.1417
X1.1024Y-1.3386
X1.1024Y-1.5354
X1.1024Y-1.7323
X1.1024Y-1.9291
X1.1024Y-2.126
X1.1024Y-2.3228
X1.1024Y-2.5197
X1.1024Y-2.7165
X1.1024Y-2.9134
X1.1024Y-3.1102
X1.1024Y-3.3071
X1.1811Y-3.5433
X1.1811Y-3.622
X1.1811Y-3.8583
X1.1811Y-3.937
X1.4961Y-4.2126
X1.5024Y-0.1575
X1.5024Y-0.3543
X1.5024Y-0.5512
X1.5024Y-0.748
X1.5024Y-0.9449
X1.5024Y-1.1417
X1.5024Y-1.3386
X1.5024Y-1.5354
X1.5024Y-1.7323
X1.5024Y-1.9291
X1.5024Y-2.126
X1.5024Y-2.3228
X1.5024Y-2.5197
X1.5024Y-2.7165
X1.5024Y-2.9134
X1.5024Y-3.1102
X1.5024Y-3.3071
X1.6142Y-4.2126
X1.6929Y-0.9843
X1.6929Y-1.1811
X1.8185Y-0.5118
X1.8185Y-0.6118
X1.8185Y-0.7118
X1.8185Y-0.8118
X1.8185Y-1.378
X1.8185Y-1.478
X1.8185Y-1.578
X1.8185Y-1.678
X1.8185Y-2.2441
X1.8185Y-2.3441
X1.8185Y-2.4441
X1.8185Y-2.5441
X1.8185Y-2.6441
X1.8185Y-2.7441
X1.8185Y-2.8441
X1.8185Y-3.3858
X1.8185Y-3.4858
X1.8185Y-3.5858
X1.8185Y-3.6858
X1.8185Y-3.7858
X1.8185Y-3.8858
X1.8185Y-3.9858
X1.9193Y-0.2362
X1.9193Y-1.1024
X1.9193Y-1.9685
X1.9193Y-3.1102
X2.0142Y-4.2126
X2.0177Y-0.2362
X2.0177Y-1.1024
X2.0177Y-1.9685
X2.0177Y-3.1102
X2.1185Y-0.5118
X2.1185Y-0.6118
X2.1185Y-0.7118
X2.1185Y-0.8118
X2.1185Y-1.378
X2.1185Y-1.478
X2.1185Y-1.578
X2.1185Y-1.678
X2.1185Y-2.2441
X2.1185Y-2.3441
X2.1185Y-2.4441
X2.1185Y-2.5441
X2.1185Y-2.6441
X2.1185Y-2.7441
X2.1185Y-2.8441
X2.1185Y-3.3858
X2.1185Y-3.4858
X2.1185Y-3.5858
X2.1185Y-3.6858
X2.1185Y-3.7858
X2.1185Y-3.8858
X2.1185Y-3.9858
X2.126Y-4.2126
X2.2835Y-0.1575
X2.2835Y-1.8898
X2.2835Y-3.937
X2.3228Y-0.3087
X2.3228Y-0.7087
X2.3228Y-0.9055
X2.3228Y-1.1024
X2.3622Y-2.126
X2.3622Y-2.3228
X2.3622Y-2.5197
X2.3622Y-2.7165
X2.3622Y-2.9134
X2.3622Y-3.1102
X2.3622Y-3.3071
X2.3622Y-3.5039
X2.3622Y-3.7008
X2.3799Y-1.2772
X2.3799Y-1.6772
X2.4803Y-1.8898
X2.4803Y-3.937
X2.526Y-4.2126
X2.5591Y-0.3906
X2.5591Y-0.4906
X2.5591Y-0.5906
X2.6835Y-0.1575
X2.7165Y-1.3748
X2.7165Y-1.4748
X2.7165Y-1.5748
X2.7165Y-1.7685
X2.7165Y-1.8685
X2.7165Y-1.9685
X2.7622Y-2.126
X2.7622Y-2.3228
X2.7622Y-2.5197
X2.7622Y-2.7165
X2.7622Y-2.9134
X2.7622Y-3.1102
X2.7622Y-3.3071
X2.7622Y-3.5039
X2.7622Y-3.7008
X2.7953Y-0.2756
X2.7953Y-0.6756
X2.8346Y-0.1575
X2.9921Y-0.2772
X2.9921Y-0.6772
X2.9921Y-2.2984
X2.9921Y-2.5984
X2.9921Y-2.6921
X2.9921Y-2.9921
X2.9921Y-3.0858
X2.9921Y-3.3858
X2.9921Y-3.4795
X2.9921Y-3.7795
X3.0315Y-0.1575
X3.5039Y-3.8126
X3.5039Y-4.2126
X3.5827Y-2.3622
X3.5827Y-3.0709
X3.7795Y-2.3622
X3.7795Y-3.0709
T6
X3.7583Y-4.0157
X3.8583Y-4.0157
T7
X0.1378Y-1.5748
X0.1378Y-1.6732
X0.1378Y-1.7717
X0.1378Y-2.4409
X0.1378Y-2.5394
X0.1378Y-2.6378
X0.7087Y-1.5748
X0.7087Y-1.6748
X0.7087Y-1.7748
X0.7087Y-1.8748
X0.7087Y-1.9748
X0.7087Y-2.0748
X0.7087Y-2.1748
X0.8661Y-1.7622
X0.8661Y-1.8622
X0.8661Y-1.9622
X0.8661Y-2.0622
X0.8661Y-2.1622
X0.8661Y-2.2622
X0.8661Y-2.3622
X0.8661Y-3.5433
X0.8661Y-3.6433
X0.8661Y-3.7433
X0.8661Y-3.8433
X0.8661Y-3.9433
X0.8661Y-4.0433
X0.8661Y-4.1433
X0.8661Y-4.2433
X0.9661Y-3.5433
X0.9661Y-3.6433
X0.9661Y-3.7433
X0.9661Y-3.8433
X0.9661Y-3.9433
X0.9661Y-4.0433
X0.9661Y-4.1433
X0.9661Y-4.2433
X3.0709Y-1.0654
X3.0709Y-1.1654
X3.0709Y-1.2654
X3.0709Y-1.3654
X3.0709Y-1.4654
X3.0709Y-1.5654
X3.0709Y-1.6654
X3.0709Y-1.7654
X3.0709Y-1.8654
X3.0709Y-1.9654
X3.0709Y-2.0654
X3.0709Y-2.1654
X3.2283Y-1.0654
X3.2283Y-1.1654
X3.2283Y-1.2654
X3.2283Y-1.3654
X3.2283Y-1.4654
X3.2283Y-1.5654
X3.2283Y-1.6654
X3.2283Y-1.7654
X3.2283Y-1.8654
X3.2283Y-1.9654
X3.2283Y-2.0654
X3.2283Y-2.1654
X3.7992Y-1.6929
X3.7992Y-1.7913
X3.7992Y-1.8898
T8
X2.4803Y-0.8661
X2.4803Y-1.063
X2.6575Y-4.0354
X2.874Y-0.9646
X3.0512Y-3.937
X3.0512Y-4.1339
T9
X0.2677Y-1.4764
X0.2677Y-1.8701
X0.2677Y-2.3425
X0.2677Y-2.7362
X3.6693Y-1.5945
X3.6693Y-1.9882
T2
G00X0.0787Y-0.8504
M15
G01X0.0787Y-0.8819
M16
G05
G00X0.0787Y-3.4094
M15
G01X0.0787Y-3.4409
M16
G05
G00X0.0787Y-4.0
M15
G01X0.0787Y-4.0315
M16
G05
G00X0.1969Y-1.0433
M15
G01X0.2283Y-1.0433
M16
G05
G00X0.1969Y-3.6024
M15
G01X0.2283Y-3.6024
M16
G05
G00X0.1969Y-4.1929
M15
G01X0.2283Y-4.1929
M16
G05
G00X0.315Y-0.7677
M15
G01X0.3465Y-0.7677
M16
G05
G00X0.315Y-3.3268
M15
G01X0.3465Y-3.3268
M16
G05
G00X0.315Y-3.9173
M15
G01X0.3465Y-3.9173
M16
G05
G00X0.3701Y-0.6614
M15
G01X0.4016Y-0.6614
M16
G05
G00X0.3701Y-3.2205
M15
G01X0.4016Y-3.2205
M16
G05
G00X0.3701Y-3.811
M15
G01X0.4016Y-3.811
M16
G05
G00X0.5118Y-1.0079
M15
G01X0.5118Y-1.0394
M16
G05
G00X0.5118Y-3.5669
M15
G01X0.5118Y-3.5984
M16
G05
G00X0.5118Y-4.1575
M15
G01X0.5118Y-4.189
M16
G05
G00X3.4252Y-0.1732
M15
G01X3.4252Y-0.1417
M16
G05
G00X3.4252Y-0.7638
M15
G01X3.4252Y-0.7323
M16
G05
G00X3.4252Y-3.3228
M15
G01X3.4252Y-3.2913
M16
G05
G00X3.5669Y-0.5197
M15
G01X3.5354Y-0.5197
M16
G05
G00X3.5669Y-1.1102
M15
G01X3.5354Y-1.1102
M16
G05
G00X3.5669Y-3.6693
M15
G01X3.5354Y-3.6693
M16
G05
G00X3.622Y-0.4134
M15
G01X3.5906Y-0.4134
M16
G05
G00X3.622Y-1.0039
M15
G01X3.5906Y-1.0039
M16
G05
G00X3.622Y-3.563
M15
G01X3.5906Y-3.563
M16
G05
G00X3.7402Y-0.1378
M15
G01X3.7087Y-0.1378
M16
G05
G00X3.7402Y-0.7283
M15
G01X3.7087Y-0.7283
M16
G05
G00X3.7402Y-3.2874
M15
G01X3.7087Y-3.2874
M16
G05
G00X3.8583Y-0.3307
M15
G01X3.8583Y-0.2992
M16
G05
G00X3.8583Y-0.9213
M15
G01X3.8583Y-0.8898
M16
G05
G00X3.8583Y-3.4803
M15
G01X3.8583Y-3.4488
M16
G05
M30
