G04 #@! TF.GenerationSoftware,KiCad,Pcbnew,(5.1.5)-3*
G04 #@! TF.CreationDate,2020-08-10T17:18:32-07:00*
G04 #@! TF.ProjectId,Notch_Filter_THT,4e6f7463-685f-4466-996c-7465725f5448,rev?*
G04 #@! TF.SameCoordinates,Original*
G04 #@! TF.FileFunction,Legend,Top*
G04 #@! TF.FilePolarity,Positive*
%FSLAX46Y46*%
G04 Gerber Fmt 4.6, Leading zero omitted, Abs format (unit mm)*
G04 Created by KiCad (PCBNEW (5.1.5)-3) date 2020-08-10 17:18:32*
%MOMM*%
%LPD*%
G04 APERTURE LIST*
%ADD10C,0.120000*%
%ADD11C,0.150000*%
G04 APERTURE END LIST*
D10*
X17980000Y-8000000D02*
X18870000Y-8000000D01*
X26180000Y-8000000D02*
X25290000Y-8000000D01*
X18870000Y-9310000D02*
X25290000Y-9310000D01*
X18870000Y-6690000D02*
X18870000Y-9310000D01*
X25290000Y-6690000D02*
X18870000Y-6690000D01*
X25290000Y-9310000D02*
X25290000Y-6690000D01*
X27238000Y-25534000D02*
X16958000Y-25534000D01*
X27238000Y-43554000D02*
X27238000Y-25534000D01*
X16958000Y-43554000D02*
X27238000Y-43554000D01*
X16958000Y-25534000D02*
X16958000Y-43554000D01*
X24748000Y-25594000D02*
X23098000Y-25594000D01*
X24748000Y-43494000D02*
X24748000Y-25594000D01*
X19448000Y-43494000D02*
X24748000Y-43494000D01*
X19448000Y-25594000D02*
X19448000Y-43494000D01*
X21098000Y-25594000D02*
X19448000Y-25594000D01*
X23098000Y-25594000D02*
G75*
G02X21098000Y-25594000I-1000000J0D01*
G01*
D11*
X0Y-88000000D02*
X14000000Y-88000000D01*
X14000000Y-88000000D02*
X14000000Y-99500000D01*
X14000000Y-99500000D02*
X0Y-99500000D01*
X0Y-99500000D02*
X0Y-88000000D01*
X0Y-92200000D02*
X-3500000Y-92200000D01*
X-3500000Y-92200000D02*
X-3500000Y-95800000D01*
X0Y-95800000D02*
X-3500000Y-95800000D01*
X0Y-500000D02*
X14000000Y-500000D01*
X14000000Y-500000D02*
X14000000Y-12000000D01*
X14000000Y-12000000D02*
X0Y-12000000D01*
X0Y-12000000D02*
X0Y-500000D01*
X0Y-4700000D02*
X-3500000Y-4700000D01*
X-3500000Y-4700000D02*
X-3500000Y-8300000D01*
X0Y-8300000D02*
X-3500000Y-8300000D01*
D10*
X29330000Y-98830000D02*
X28000000Y-98830000D01*
X29330000Y-97500000D02*
X29330000Y-98830000D01*
X26730000Y-98830000D02*
X24130000Y-98830000D01*
X26730000Y-96230000D02*
X26730000Y-98830000D01*
X29330000Y-96230000D02*
X26730000Y-96230000D01*
X24130000Y-98830000D02*
X24130000Y-78390000D01*
X29330000Y-96230000D02*
X29330000Y-78390000D01*
X29330000Y-78390000D02*
X24130000Y-78390000D01*
D11*
X0Y-44800000D02*
X-3500000Y-44800000D01*
X-3500000Y-41200000D02*
X-3500000Y-44800000D01*
X0Y-41200000D02*
X-3500000Y-41200000D01*
X0Y-48500000D02*
X0Y-37000000D01*
X14000000Y-48500000D02*
X0Y-48500000D01*
X14000000Y-37000000D02*
X14000000Y-48500000D01*
X0Y-37000000D02*
X14000000Y-37000000D01*
D10*
X16484000Y-82622000D02*
X20084000Y-82622000D01*
X15959816Y-81894795D02*
G75*
G03X16484000Y-82622000I2324184J1122795D01*
G01*
X15927600Y-79673193D02*
G75*
G02X18284000Y-78172000I2356400J-1098807D01*
G01*
X20640400Y-79673193D02*
G75*
G03X18284000Y-78172000I-2356400J-1098807D01*
G01*
X20608184Y-81894795D02*
G75*
G02X20084000Y-82622000I-2324184J1122795D01*
G01*
X15879816Y-84475205D02*
G75*
G02X16404000Y-83748000I2324184J-1122795D01*
G01*
X15847600Y-86696807D02*
G75*
G03X18204000Y-88198000I2356400J1098807D01*
G01*
X20560400Y-86696807D02*
G75*
G02X18204000Y-88198000I-2356400J1098807D01*
G01*
X20528184Y-84475205D02*
G75*
G03X20004000Y-83748000I-2324184J-1122795D01*
G01*
X20004000Y-83748000D02*
X16404000Y-83748000D01*
X16484000Y-93660000D02*
X20084000Y-93660000D01*
X15959816Y-92932795D02*
G75*
G03X16484000Y-93660000I2324184J1122795D01*
G01*
X15927600Y-90711193D02*
G75*
G02X18284000Y-89210000I2356400J-1098807D01*
G01*
X20640400Y-90711193D02*
G75*
G03X18284000Y-89210000I-2356400J-1098807D01*
G01*
X20608184Y-92932795D02*
G75*
G02X20084000Y-93660000I-2324184J1122795D01*
G01*
X15879816Y-95687205D02*
G75*
G02X16404000Y-94960000I2324184J-1122795D01*
G01*
X15847600Y-97908807D02*
G75*
G03X18204000Y-99410000I2356400J1098807D01*
G01*
X20560400Y-97908807D02*
G75*
G02X18204000Y-99410000I-2356400J1098807D01*
G01*
X20528184Y-95687205D02*
G75*
G03X20004000Y-94960000I-2324184J-1122795D01*
G01*
X20004000Y-94960000D02*
X16404000Y-94960000D01*
X20810000Y-4810000D02*
X15690000Y-4810000D01*
X20810000Y-2190000D02*
X15690000Y-2190000D01*
X20810000Y-4810000D02*
X20810000Y-2190000D01*
X15690000Y-4810000D02*
X15690000Y-2190000D01*
X27810000Y-4810000D02*
X22690000Y-4810000D01*
X27810000Y-2190000D02*
X22690000Y-2190000D01*
X27810000Y-4810000D02*
X27810000Y-2190000D01*
X22690000Y-4810000D02*
X22690000Y-2190000D01*
X22784000Y-48626000D02*
X22784000Y-49926000D01*
X22184000Y-49276000D02*
X23384000Y-49276000D01*
X28835000Y-48808000D02*
X28835000Y-49744000D01*
X28795000Y-48600000D02*
X28795000Y-49952000D01*
X28755000Y-48442000D02*
X28755000Y-50110000D01*
X28715000Y-48310000D02*
X28715000Y-50242000D01*
X28675000Y-48195000D02*
X28675000Y-50357000D01*
X28635000Y-48092000D02*
X28635000Y-50460000D01*
X28595000Y-47998000D02*
X28595000Y-50554000D01*
X28555000Y-47912000D02*
X28555000Y-50640000D01*
X28515000Y-47831000D02*
X28515000Y-50721000D01*
X28475000Y-47756000D02*
X28475000Y-50796000D01*
X28435000Y-47685000D02*
X28435000Y-50867000D01*
X28395000Y-47618000D02*
X28395000Y-50934000D01*
X28355000Y-47555000D02*
X28355000Y-50997000D01*
X28315000Y-47495000D02*
X28315000Y-51057000D01*
X28275000Y-47437000D02*
X28275000Y-51115000D01*
X28235000Y-47382000D02*
X28235000Y-51170000D01*
X28195000Y-47330000D02*
X28195000Y-51222000D01*
X28155000Y-47279000D02*
X28155000Y-51273000D01*
X28115000Y-47231000D02*
X28115000Y-51321000D01*
X28075000Y-47184000D02*
X28075000Y-51368000D01*
X28035000Y-47139000D02*
X28035000Y-51413000D01*
X27995000Y-47096000D02*
X27995000Y-51456000D01*
X27955000Y-47054000D02*
X27955000Y-51498000D01*
X27915000Y-47014000D02*
X27915000Y-51538000D01*
X27875000Y-46975000D02*
X27875000Y-51577000D01*
X27835000Y-50256000D02*
X27835000Y-51615000D01*
X27835000Y-46937000D02*
X27835000Y-48296000D01*
X27795000Y-50256000D02*
X27795000Y-51651000D01*
X27795000Y-46901000D02*
X27795000Y-48296000D01*
X27755000Y-50256000D02*
X27755000Y-51687000D01*
X27755000Y-46865000D02*
X27755000Y-48296000D01*
X27715000Y-50256000D02*
X27715000Y-51721000D01*
X27715000Y-46831000D02*
X27715000Y-48296000D01*
X27675000Y-50256000D02*
X27675000Y-51754000D01*
X27675000Y-46798000D02*
X27675000Y-48296000D01*
X27635000Y-50256000D02*
X27635000Y-51786000D01*
X27635000Y-46766000D02*
X27635000Y-48296000D01*
X27595000Y-50256000D02*
X27595000Y-51816000D01*
X27595000Y-46736000D02*
X27595000Y-48296000D01*
X27555000Y-50256000D02*
X27555000Y-51846000D01*
X27555000Y-46706000D02*
X27555000Y-48296000D01*
X27515000Y-50256000D02*
X27515000Y-51875000D01*
X27515000Y-46677000D02*
X27515000Y-48296000D01*
X27475000Y-50256000D02*
X27475000Y-51903000D01*
X27475000Y-46649000D02*
X27475000Y-48296000D01*
X27435000Y-50256000D02*
X27435000Y-51930000D01*
X27435000Y-46622000D02*
X27435000Y-48296000D01*
X27395000Y-50256000D02*
X27395000Y-51957000D01*
X27395000Y-46595000D02*
X27395000Y-48296000D01*
X27355000Y-50256000D02*
X27355000Y-51982000D01*
X27355000Y-46570000D02*
X27355000Y-48296000D01*
X27315000Y-50256000D02*
X27315000Y-52007000D01*
X27315000Y-46545000D02*
X27315000Y-48296000D01*
X27275000Y-50256000D02*
X27275000Y-52031000D01*
X27275000Y-46521000D02*
X27275000Y-48296000D01*
X27235000Y-50256000D02*
X27235000Y-52054000D01*
X27235000Y-46498000D02*
X27235000Y-48296000D01*
X27195000Y-50256000D02*
X27195000Y-52076000D01*
X27195000Y-46476000D02*
X27195000Y-48296000D01*
X27155000Y-50256000D02*
X27155000Y-52098000D01*
X27155000Y-46454000D02*
X27155000Y-48296000D01*
X27115000Y-50256000D02*
X27115000Y-52119000D01*
X27115000Y-46433000D02*
X27115000Y-48296000D01*
X27075000Y-50256000D02*
X27075000Y-52139000D01*
X27075000Y-46413000D02*
X27075000Y-48296000D01*
X27035000Y-50256000D02*
X27035000Y-52158000D01*
X27035000Y-46394000D02*
X27035000Y-48296000D01*
X26995000Y-50256000D02*
X26995000Y-52177000D01*
X26995000Y-46375000D02*
X26995000Y-48296000D01*
X26955000Y-50256000D02*
X26955000Y-52195000D01*
X26955000Y-46357000D02*
X26955000Y-48296000D01*
X26915000Y-50256000D02*
X26915000Y-52213000D01*
X26915000Y-46339000D02*
X26915000Y-48296000D01*
X26875000Y-50256000D02*
X26875000Y-52230000D01*
X26875000Y-46322000D02*
X26875000Y-48296000D01*
X26835000Y-50256000D02*
X26835000Y-52246000D01*
X26835000Y-46306000D02*
X26835000Y-48296000D01*
X26795000Y-50256000D02*
X26795000Y-52262000D01*
X26795000Y-46290000D02*
X26795000Y-48296000D01*
X26755000Y-50256000D02*
X26755000Y-52277000D01*
X26755000Y-46275000D02*
X26755000Y-48296000D01*
X26715000Y-50256000D02*
X26715000Y-52291000D01*
X26715000Y-46261000D02*
X26715000Y-48296000D01*
X26675000Y-50256000D02*
X26675000Y-52305000D01*
X26675000Y-46247000D02*
X26675000Y-48296000D01*
X26635000Y-50256000D02*
X26635000Y-52318000D01*
X26635000Y-46234000D02*
X26635000Y-48296000D01*
X26595000Y-50256000D02*
X26595000Y-52331000D01*
X26595000Y-46221000D02*
X26595000Y-48296000D01*
X26555000Y-50256000D02*
X26555000Y-52343000D01*
X26555000Y-46209000D02*
X26555000Y-48296000D01*
X26515000Y-50256000D02*
X26515000Y-52355000D01*
X26515000Y-46197000D02*
X26515000Y-48296000D01*
X26475000Y-50256000D02*
X26475000Y-52366000D01*
X26475000Y-46186000D02*
X26475000Y-48296000D01*
X26435000Y-50256000D02*
X26435000Y-52376000D01*
X26435000Y-46176000D02*
X26435000Y-48296000D01*
X26395000Y-50256000D02*
X26395000Y-52386000D01*
X26395000Y-46166000D02*
X26395000Y-48296000D01*
X26355000Y-50256000D02*
X26355000Y-52395000D01*
X26355000Y-46157000D02*
X26355000Y-48296000D01*
X26314000Y-50256000D02*
X26314000Y-52404000D01*
X26314000Y-46148000D02*
X26314000Y-48296000D01*
X26274000Y-50256000D02*
X26274000Y-52413000D01*
X26274000Y-46139000D02*
X26274000Y-48296000D01*
X26234000Y-50256000D02*
X26234000Y-52420000D01*
X26234000Y-46132000D02*
X26234000Y-48296000D01*
X26194000Y-50256000D02*
X26194000Y-52428000D01*
X26194000Y-46124000D02*
X26194000Y-48296000D01*
X26154000Y-50256000D02*
X26154000Y-52434000D01*
X26154000Y-46118000D02*
X26154000Y-48296000D01*
X26114000Y-50256000D02*
X26114000Y-52441000D01*
X26114000Y-46111000D02*
X26114000Y-48296000D01*
X26074000Y-50256000D02*
X26074000Y-52446000D01*
X26074000Y-46106000D02*
X26074000Y-48296000D01*
X26034000Y-50256000D02*
X26034000Y-52452000D01*
X26034000Y-46100000D02*
X26034000Y-48296000D01*
X25994000Y-50256000D02*
X25994000Y-52456000D01*
X25994000Y-46096000D02*
X25994000Y-48296000D01*
X25954000Y-50256000D02*
X25954000Y-52461000D01*
X25954000Y-46091000D02*
X25954000Y-48296000D01*
X25914000Y-50256000D02*
X25914000Y-52464000D01*
X25914000Y-46088000D02*
X25914000Y-48296000D01*
X25874000Y-46084000D02*
X25874000Y-52468000D01*
X25834000Y-46082000D02*
X25834000Y-52470000D01*
X25794000Y-46079000D02*
X25794000Y-52473000D01*
X25754000Y-46078000D02*
X25754000Y-52474000D01*
X25714000Y-46076000D02*
X25714000Y-52476000D01*
X25674000Y-46076000D02*
X25674000Y-52476000D01*
X25634000Y-46076000D02*
X25634000Y-52476000D01*
X28651820Y-50455136D02*
G75*
G03X28651482Y-48096000I-3017820J1179136D01*
G01*
X28651820Y-50455136D02*
G75*
G02X22616518Y-50456000I-3017820J1179136D01*
G01*
X28651820Y-48096864D02*
G75*
G03X22616518Y-48096000I-3017820J-1179136D01*
G01*
X2246000Y-31242000D02*
X4866000Y-31242000D01*
X2246000Y-36362000D02*
X4866000Y-36362000D01*
X4866000Y-36362000D02*
X4866000Y-31242000D01*
X2246000Y-36362000D02*
X2246000Y-31242000D01*
X13157820Y-31840864D02*
G75*
G03X7122518Y-31840000I-3017820J-1179136D01*
G01*
X13157820Y-34199136D02*
G75*
G02X7122518Y-34200000I-3017820J1179136D01*
G01*
X13157820Y-34199136D02*
G75*
G03X13157482Y-31840000I-3017820J1179136D01*
G01*
X10140000Y-29820000D02*
X10140000Y-36220000D01*
X10180000Y-29820000D02*
X10180000Y-36220000D01*
X10220000Y-29820000D02*
X10220000Y-36220000D01*
X10260000Y-29822000D02*
X10260000Y-36218000D01*
X10300000Y-29823000D02*
X10300000Y-36217000D01*
X10340000Y-29826000D02*
X10340000Y-36214000D01*
X10380000Y-29828000D02*
X10380000Y-36212000D01*
X10420000Y-29832000D02*
X10420000Y-32040000D01*
X10420000Y-34000000D02*
X10420000Y-36208000D01*
X10460000Y-29835000D02*
X10460000Y-32040000D01*
X10460000Y-34000000D02*
X10460000Y-36205000D01*
X10500000Y-29840000D02*
X10500000Y-32040000D01*
X10500000Y-34000000D02*
X10500000Y-36200000D01*
X10540000Y-29844000D02*
X10540000Y-32040000D01*
X10540000Y-34000000D02*
X10540000Y-36196000D01*
X10580000Y-29850000D02*
X10580000Y-32040000D01*
X10580000Y-34000000D02*
X10580000Y-36190000D01*
X10620000Y-29855000D02*
X10620000Y-32040000D01*
X10620000Y-34000000D02*
X10620000Y-36185000D01*
X10660000Y-29862000D02*
X10660000Y-32040000D01*
X10660000Y-34000000D02*
X10660000Y-36178000D01*
X10700000Y-29868000D02*
X10700000Y-32040000D01*
X10700000Y-34000000D02*
X10700000Y-36172000D01*
X10740000Y-29876000D02*
X10740000Y-32040000D01*
X10740000Y-34000000D02*
X10740000Y-36164000D01*
X10780000Y-29883000D02*
X10780000Y-32040000D01*
X10780000Y-34000000D02*
X10780000Y-36157000D01*
X10820000Y-29892000D02*
X10820000Y-32040000D01*
X10820000Y-34000000D02*
X10820000Y-36148000D01*
X10861000Y-29901000D02*
X10861000Y-32040000D01*
X10861000Y-34000000D02*
X10861000Y-36139000D01*
X10901000Y-29910000D02*
X10901000Y-32040000D01*
X10901000Y-34000000D02*
X10901000Y-36130000D01*
X10941000Y-29920000D02*
X10941000Y-32040000D01*
X10941000Y-34000000D02*
X10941000Y-36120000D01*
X10981000Y-29930000D02*
X10981000Y-32040000D01*
X10981000Y-34000000D02*
X10981000Y-36110000D01*
X11021000Y-29941000D02*
X11021000Y-32040000D01*
X11021000Y-34000000D02*
X11021000Y-36099000D01*
X11061000Y-29953000D02*
X11061000Y-32040000D01*
X11061000Y-34000000D02*
X11061000Y-36087000D01*
X11101000Y-29965000D02*
X11101000Y-32040000D01*
X11101000Y-34000000D02*
X11101000Y-36075000D01*
X11141000Y-29978000D02*
X11141000Y-32040000D01*
X11141000Y-34000000D02*
X11141000Y-36062000D01*
X11181000Y-29991000D02*
X11181000Y-32040000D01*
X11181000Y-34000000D02*
X11181000Y-36049000D01*
X11221000Y-30005000D02*
X11221000Y-32040000D01*
X11221000Y-34000000D02*
X11221000Y-36035000D01*
X11261000Y-30019000D02*
X11261000Y-32040000D01*
X11261000Y-34000000D02*
X11261000Y-36021000D01*
X11301000Y-30034000D02*
X11301000Y-32040000D01*
X11301000Y-34000000D02*
X11301000Y-36006000D01*
X11341000Y-30050000D02*
X11341000Y-32040000D01*
X11341000Y-34000000D02*
X11341000Y-35990000D01*
X11381000Y-30066000D02*
X11381000Y-32040000D01*
X11381000Y-34000000D02*
X11381000Y-35974000D01*
X11421000Y-30083000D02*
X11421000Y-32040000D01*
X11421000Y-34000000D02*
X11421000Y-35957000D01*
X11461000Y-30101000D02*
X11461000Y-32040000D01*
X11461000Y-34000000D02*
X11461000Y-35939000D01*
X11501000Y-30119000D02*
X11501000Y-32040000D01*
X11501000Y-34000000D02*
X11501000Y-35921000D01*
X11541000Y-30138000D02*
X11541000Y-32040000D01*
X11541000Y-34000000D02*
X11541000Y-35902000D01*
X11581000Y-30157000D02*
X11581000Y-32040000D01*
X11581000Y-34000000D02*
X11581000Y-35883000D01*
X11621000Y-30177000D02*
X11621000Y-32040000D01*
X11621000Y-34000000D02*
X11621000Y-35863000D01*
X11661000Y-30198000D02*
X11661000Y-32040000D01*
X11661000Y-34000000D02*
X11661000Y-35842000D01*
X11701000Y-30220000D02*
X11701000Y-32040000D01*
X11701000Y-34000000D02*
X11701000Y-35820000D01*
X11741000Y-30242000D02*
X11741000Y-32040000D01*
X11741000Y-34000000D02*
X11741000Y-35798000D01*
X11781000Y-30265000D02*
X11781000Y-32040000D01*
X11781000Y-34000000D02*
X11781000Y-35775000D01*
X11821000Y-30289000D02*
X11821000Y-32040000D01*
X11821000Y-34000000D02*
X11821000Y-35751000D01*
X11861000Y-30314000D02*
X11861000Y-32040000D01*
X11861000Y-34000000D02*
X11861000Y-35726000D01*
X11901000Y-30339000D02*
X11901000Y-32040000D01*
X11901000Y-34000000D02*
X11901000Y-35701000D01*
X11941000Y-30366000D02*
X11941000Y-32040000D01*
X11941000Y-34000000D02*
X11941000Y-35674000D01*
X11981000Y-30393000D02*
X11981000Y-32040000D01*
X11981000Y-34000000D02*
X11981000Y-35647000D01*
X12021000Y-30421000D02*
X12021000Y-32040000D01*
X12021000Y-34000000D02*
X12021000Y-35619000D01*
X12061000Y-30450000D02*
X12061000Y-32040000D01*
X12061000Y-34000000D02*
X12061000Y-35590000D01*
X12101000Y-30480000D02*
X12101000Y-32040000D01*
X12101000Y-34000000D02*
X12101000Y-35560000D01*
X12141000Y-30510000D02*
X12141000Y-32040000D01*
X12141000Y-34000000D02*
X12141000Y-35530000D01*
X12181000Y-30542000D02*
X12181000Y-32040000D01*
X12181000Y-34000000D02*
X12181000Y-35498000D01*
X12221000Y-30575000D02*
X12221000Y-32040000D01*
X12221000Y-34000000D02*
X12221000Y-35465000D01*
X12261000Y-30609000D02*
X12261000Y-32040000D01*
X12261000Y-34000000D02*
X12261000Y-35431000D01*
X12301000Y-30645000D02*
X12301000Y-32040000D01*
X12301000Y-34000000D02*
X12301000Y-35395000D01*
X12341000Y-30681000D02*
X12341000Y-32040000D01*
X12341000Y-34000000D02*
X12341000Y-35359000D01*
X12381000Y-30719000D02*
X12381000Y-35321000D01*
X12421000Y-30758000D02*
X12421000Y-35282000D01*
X12461000Y-30798000D02*
X12461000Y-35242000D01*
X12501000Y-30840000D02*
X12501000Y-35200000D01*
X12541000Y-30883000D02*
X12541000Y-35157000D01*
X12581000Y-30928000D02*
X12581000Y-35112000D01*
X12621000Y-30975000D02*
X12621000Y-35065000D01*
X12661000Y-31023000D02*
X12661000Y-35017000D01*
X12701000Y-31074000D02*
X12701000Y-34966000D01*
X12741000Y-31126000D02*
X12741000Y-34914000D01*
X12781000Y-31181000D02*
X12781000Y-34859000D01*
X12821000Y-31239000D02*
X12821000Y-34801000D01*
X12861000Y-31299000D02*
X12861000Y-34741000D01*
X12901000Y-31362000D02*
X12901000Y-34678000D01*
X12941000Y-31429000D02*
X12941000Y-34611000D01*
X12981000Y-31500000D02*
X12981000Y-34540000D01*
X13021000Y-31575000D02*
X13021000Y-34465000D01*
X13061000Y-31656000D02*
X13061000Y-34384000D01*
X13101000Y-31742000D02*
X13101000Y-34298000D01*
X13141000Y-31836000D02*
X13141000Y-34204000D01*
X13181000Y-31939000D02*
X13181000Y-34101000D01*
X13221000Y-32054000D02*
X13221000Y-33986000D01*
X13261000Y-32186000D02*
X13261000Y-33854000D01*
X13301000Y-32344000D02*
X13301000Y-33696000D01*
X13341000Y-32552000D02*
X13341000Y-33488000D01*
X6690000Y-33020000D02*
X7890000Y-33020000D01*
X7290000Y-32370000D02*
X7290000Y-33670000D01*
X15164000Y-48626000D02*
X15164000Y-49926000D01*
X14564000Y-49276000D02*
X15764000Y-49276000D01*
X21215000Y-48808000D02*
X21215000Y-49744000D01*
X21175000Y-48600000D02*
X21175000Y-49952000D01*
X21135000Y-48442000D02*
X21135000Y-50110000D01*
X21095000Y-48310000D02*
X21095000Y-50242000D01*
X21055000Y-48195000D02*
X21055000Y-50357000D01*
X21015000Y-48092000D02*
X21015000Y-50460000D01*
X20975000Y-47998000D02*
X20975000Y-50554000D01*
X20935000Y-47912000D02*
X20935000Y-50640000D01*
X20895000Y-47831000D02*
X20895000Y-50721000D01*
X20855000Y-47756000D02*
X20855000Y-50796000D01*
X20815000Y-47685000D02*
X20815000Y-50867000D01*
X20775000Y-47618000D02*
X20775000Y-50934000D01*
X20735000Y-47555000D02*
X20735000Y-50997000D01*
X20695000Y-47495000D02*
X20695000Y-51057000D01*
X20655000Y-47437000D02*
X20655000Y-51115000D01*
X20615000Y-47382000D02*
X20615000Y-51170000D01*
X20575000Y-47330000D02*
X20575000Y-51222000D01*
X20535000Y-47279000D02*
X20535000Y-51273000D01*
X20495000Y-47231000D02*
X20495000Y-51321000D01*
X20455000Y-47184000D02*
X20455000Y-51368000D01*
X20415000Y-47139000D02*
X20415000Y-51413000D01*
X20375000Y-47096000D02*
X20375000Y-51456000D01*
X20335000Y-47054000D02*
X20335000Y-51498000D01*
X20295000Y-47014000D02*
X20295000Y-51538000D01*
X20255000Y-46975000D02*
X20255000Y-51577000D01*
X20215000Y-50256000D02*
X20215000Y-51615000D01*
X20215000Y-46937000D02*
X20215000Y-48296000D01*
X20175000Y-50256000D02*
X20175000Y-51651000D01*
X20175000Y-46901000D02*
X20175000Y-48296000D01*
X20135000Y-50256000D02*
X20135000Y-51687000D01*
X20135000Y-46865000D02*
X20135000Y-48296000D01*
X20095000Y-50256000D02*
X20095000Y-51721000D01*
X20095000Y-46831000D02*
X20095000Y-48296000D01*
X20055000Y-50256000D02*
X20055000Y-51754000D01*
X20055000Y-46798000D02*
X20055000Y-48296000D01*
X20015000Y-50256000D02*
X20015000Y-51786000D01*
X20015000Y-46766000D02*
X20015000Y-48296000D01*
X19975000Y-50256000D02*
X19975000Y-51816000D01*
X19975000Y-46736000D02*
X19975000Y-48296000D01*
X19935000Y-50256000D02*
X19935000Y-51846000D01*
X19935000Y-46706000D02*
X19935000Y-48296000D01*
X19895000Y-50256000D02*
X19895000Y-51875000D01*
X19895000Y-46677000D02*
X19895000Y-48296000D01*
X19855000Y-50256000D02*
X19855000Y-51903000D01*
X19855000Y-46649000D02*
X19855000Y-48296000D01*
X19815000Y-50256000D02*
X19815000Y-51930000D01*
X19815000Y-46622000D02*
X19815000Y-48296000D01*
X19775000Y-50256000D02*
X19775000Y-51957000D01*
X19775000Y-46595000D02*
X19775000Y-48296000D01*
X19735000Y-50256000D02*
X19735000Y-51982000D01*
X19735000Y-46570000D02*
X19735000Y-48296000D01*
X19695000Y-50256000D02*
X19695000Y-52007000D01*
X19695000Y-46545000D02*
X19695000Y-48296000D01*
X19655000Y-50256000D02*
X19655000Y-52031000D01*
X19655000Y-46521000D02*
X19655000Y-48296000D01*
X19615000Y-50256000D02*
X19615000Y-52054000D01*
X19615000Y-46498000D02*
X19615000Y-48296000D01*
X19575000Y-50256000D02*
X19575000Y-52076000D01*
X19575000Y-46476000D02*
X19575000Y-48296000D01*
X19535000Y-50256000D02*
X19535000Y-52098000D01*
X19535000Y-46454000D02*
X19535000Y-48296000D01*
X19495000Y-50256000D02*
X19495000Y-52119000D01*
X19495000Y-46433000D02*
X19495000Y-48296000D01*
X19455000Y-50256000D02*
X19455000Y-52139000D01*
X19455000Y-46413000D02*
X19455000Y-48296000D01*
X19415000Y-50256000D02*
X19415000Y-52158000D01*
X19415000Y-46394000D02*
X19415000Y-48296000D01*
X19375000Y-50256000D02*
X19375000Y-52177000D01*
X19375000Y-46375000D02*
X19375000Y-48296000D01*
X19335000Y-50256000D02*
X19335000Y-52195000D01*
X19335000Y-46357000D02*
X19335000Y-48296000D01*
X19295000Y-50256000D02*
X19295000Y-52213000D01*
X19295000Y-46339000D02*
X19295000Y-48296000D01*
X19255000Y-50256000D02*
X19255000Y-52230000D01*
X19255000Y-46322000D02*
X19255000Y-48296000D01*
X19215000Y-50256000D02*
X19215000Y-52246000D01*
X19215000Y-46306000D02*
X19215000Y-48296000D01*
X19175000Y-50256000D02*
X19175000Y-52262000D01*
X19175000Y-46290000D02*
X19175000Y-48296000D01*
X19135000Y-50256000D02*
X19135000Y-52277000D01*
X19135000Y-46275000D02*
X19135000Y-48296000D01*
X19095000Y-50256000D02*
X19095000Y-52291000D01*
X19095000Y-46261000D02*
X19095000Y-48296000D01*
X19055000Y-50256000D02*
X19055000Y-52305000D01*
X19055000Y-46247000D02*
X19055000Y-48296000D01*
X19015000Y-50256000D02*
X19015000Y-52318000D01*
X19015000Y-46234000D02*
X19015000Y-48296000D01*
X18975000Y-50256000D02*
X18975000Y-52331000D01*
X18975000Y-46221000D02*
X18975000Y-48296000D01*
X18935000Y-50256000D02*
X18935000Y-52343000D01*
X18935000Y-46209000D02*
X18935000Y-48296000D01*
X18895000Y-50256000D02*
X18895000Y-52355000D01*
X18895000Y-46197000D02*
X18895000Y-48296000D01*
X18855000Y-50256000D02*
X18855000Y-52366000D01*
X18855000Y-46186000D02*
X18855000Y-48296000D01*
X18815000Y-50256000D02*
X18815000Y-52376000D01*
X18815000Y-46176000D02*
X18815000Y-48296000D01*
X18775000Y-50256000D02*
X18775000Y-52386000D01*
X18775000Y-46166000D02*
X18775000Y-48296000D01*
X18735000Y-50256000D02*
X18735000Y-52395000D01*
X18735000Y-46157000D02*
X18735000Y-48296000D01*
X18694000Y-50256000D02*
X18694000Y-52404000D01*
X18694000Y-46148000D02*
X18694000Y-48296000D01*
X18654000Y-50256000D02*
X18654000Y-52413000D01*
X18654000Y-46139000D02*
X18654000Y-48296000D01*
X18614000Y-50256000D02*
X18614000Y-52420000D01*
X18614000Y-46132000D02*
X18614000Y-48296000D01*
X18574000Y-50256000D02*
X18574000Y-52428000D01*
X18574000Y-46124000D02*
X18574000Y-48296000D01*
X18534000Y-50256000D02*
X18534000Y-52434000D01*
X18534000Y-46118000D02*
X18534000Y-48296000D01*
X18494000Y-50256000D02*
X18494000Y-52441000D01*
X18494000Y-46111000D02*
X18494000Y-48296000D01*
X18454000Y-50256000D02*
X18454000Y-52446000D01*
X18454000Y-46106000D02*
X18454000Y-48296000D01*
X18414000Y-50256000D02*
X18414000Y-52452000D01*
X18414000Y-46100000D02*
X18414000Y-48296000D01*
X18374000Y-50256000D02*
X18374000Y-52456000D01*
X18374000Y-46096000D02*
X18374000Y-48296000D01*
X18334000Y-50256000D02*
X18334000Y-52461000D01*
X18334000Y-46091000D02*
X18334000Y-48296000D01*
X18294000Y-50256000D02*
X18294000Y-52464000D01*
X18294000Y-46088000D02*
X18294000Y-48296000D01*
X18254000Y-46084000D02*
X18254000Y-52468000D01*
X18214000Y-46082000D02*
X18214000Y-52470000D01*
X18174000Y-46079000D02*
X18174000Y-52473000D01*
X18134000Y-46078000D02*
X18134000Y-52474000D01*
X18094000Y-46076000D02*
X18094000Y-52476000D01*
X18054000Y-46076000D02*
X18054000Y-52476000D01*
X18014000Y-46076000D02*
X18014000Y-52476000D01*
X21031820Y-50455136D02*
G75*
G03X21031482Y-48096000I-3017820J1179136D01*
G01*
X21031820Y-50455136D02*
G75*
G02X14996518Y-50456000I-3017820J1179136D01*
G01*
X21031820Y-48096864D02*
G75*
G03X14996518Y-48096000I-3017820J-1179136D01*
G01*
X11136000Y-82296000D02*
X13756000Y-82296000D01*
X11136000Y-87416000D02*
X13756000Y-87416000D01*
X13756000Y-87416000D02*
X13756000Y-82296000D01*
X11136000Y-87416000D02*
X11136000Y-82296000D01*
X26180000Y-12954000D02*
X25290000Y-12954000D01*
X17980000Y-12954000D02*
X18870000Y-12954000D01*
X25290000Y-11644000D02*
X18870000Y-11644000D01*
X25290000Y-14264000D02*
X25290000Y-11644000D01*
X18870000Y-14264000D02*
X25290000Y-14264000D01*
X18870000Y-11644000D02*
X18870000Y-14264000D01*
X13000000Y-16320000D02*
X13000000Y-17210000D01*
X13000000Y-24520000D02*
X13000000Y-23630000D01*
X11690000Y-17210000D02*
X11690000Y-23630000D01*
X14310000Y-17210000D02*
X11690000Y-17210000D01*
X14310000Y-23630000D02*
X14310000Y-17210000D01*
X11690000Y-23630000D02*
X14310000Y-23630000D01*
X25290000Y-18836000D02*
X25290000Y-16216000D01*
X25290000Y-16216000D02*
X18870000Y-16216000D01*
X18870000Y-16216000D02*
X18870000Y-18836000D01*
X18870000Y-18836000D02*
X25290000Y-18836000D01*
X26180000Y-17526000D02*
X25290000Y-17526000D01*
X17980000Y-17526000D02*
X18870000Y-17526000D01*
X13662000Y-71030000D02*
X14552000Y-71030000D01*
X21862000Y-71030000D02*
X20972000Y-71030000D01*
X14552000Y-72340000D02*
X20972000Y-72340000D01*
X14552000Y-69720000D02*
X14552000Y-72340000D01*
X20972000Y-69720000D02*
X14552000Y-69720000D01*
X20972000Y-72340000D02*
X20972000Y-69720000D01*
X20972000Y-57340000D02*
X20972000Y-54720000D01*
X20972000Y-54720000D02*
X14552000Y-54720000D01*
X14552000Y-54720000D02*
X14552000Y-57340000D01*
X14552000Y-57340000D02*
X20972000Y-57340000D01*
X21862000Y-56030000D02*
X20972000Y-56030000D01*
X13662000Y-56030000D02*
X14552000Y-56030000D01*
X18870000Y-21042000D02*
X18870000Y-23662000D01*
X18870000Y-23662000D02*
X25290000Y-23662000D01*
X25290000Y-23662000D02*
X25290000Y-21042000D01*
X25290000Y-21042000D02*
X18870000Y-21042000D01*
X17980000Y-22352000D02*
X18870000Y-22352000D01*
X26180000Y-22352000D02*
X25290000Y-22352000D01*
X14552000Y-74720000D02*
X14552000Y-77340000D01*
X14552000Y-77340000D02*
X20972000Y-77340000D01*
X20972000Y-77340000D02*
X20972000Y-74720000D01*
X20972000Y-74720000D02*
X14552000Y-74720000D01*
X13662000Y-76030000D02*
X14552000Y-76030000D01*
X21862000Y-76030000D02*
X20972000Y-76030000D01*
X21862000Y-61030000D02*
X20972000Y-61030000D01*
X13662000Y-61030000D02*
X14552000Y-61030000D01*
X20972000Y-59720000D02*
X14552000Y-59720000D01*
X20972000Y-62340000D02*
X20972000Y-59720000D01*
X14552000Y-62340000D02*
X20972000Y-62340000D01*
X14552000Y-59720000D02*
X14552000Y-62340000D01*
X14552000Y-64720000D02*
X14552000Y-67340000D01*
X14552000Y-67340000D02*
X20972000Y-67340000D01*
X20972000Y-67340000D02*
X20972000Y-64720000D01*
X20972000Y-64720000D02*
X14552000Y-64720000D01*
X13662000Y-66030000D02*
X14552000Y-66030000D01*
X21862000Y-66030000D02*
X20972000Y-66030000D01*
X5505000Y-26410000D02*
X1140000Y-26410000D01*
X5505000Y-16590000D02*
X1140000Y-16590000D01*
X6260000Y-24625000D02*
X6260000Y-18375000D01*
X1140000Y-26410000D02*
X1140000Y-16590000D01*
X1140000Y-24960000D02*
X340000Y-24960000D01*
X1140000Y-18040000D02*
X340000Y-18040000D01*
X1140000Y-24960000D02*
X1140000Y-18040000D01*
X340000Y-24960000D02*
X340000Y-18040000D01*
X340000Y-24560000D02*
X-8860000Y-24560000D01*
X340000Y-18440000D02*
X-8860000Y-18440000D01*
X340000Y-24560000D02*
X340000Y-18440000D01*
X-8860000Y-24560000D02*
X-8860000Y-18440000D01*
X-8860000Y-60560000D02*
X-8860000Y-54440000D01*
X340000Y-60560000D02*
X340000Y-54440000D01*
X340000Y-54440000D02*
X-8860000Y-54440000D01*
X340000Y-60560000D02*
X-8860000Y-60560000D01*
X340000Y-60960000D02*
X340000Y-54040000D01*
X1140000Y-60960000D02*
X1140000Y-54040000D01*
X1140000Y-54040000D02*
X340000Y-54040000D01*
X1140000Y-60960000D02*
X340000Y-60960000D01*
X1140000Y-62410000D02*
X1140000Y-52590000D01*
X6260000Y-60625000D02*
X6260000Y-54375000D01*
X5505000Y-52590000D02*
X1140000Y-52590000D01*
X5505000Y-62410000D02*
X1140000Y-62410000D01*
X-8860000Y-77560000D02*
X-8860000Y-71440000D01*
X340000Y-77560000D02*
X340000Y-71440000D01*
X340000Y-71440000D02*
X-8860000Y-71440000D01*
X340000Y-77560000D02*
X-8860000Y-77560000D01*
X340000Y-77960000D02*
X340000Y-71040000D01*
X1140000Y-77960000D02*
X1140000Y-71040000D01*
X1140000Y-71040000D02*
X340000Y-71040000D01*
X1140000Y-77960000D02*
X340000Y-77960000D01*
X1140000Y-79410000D02*
X1140000Y-69590000D01*
X6260000Y-77625000D02*
X6260000Y-71375000D01*
X5505000Y-69590000D02*
X1140000Y-69590000D01*
X5505000Y-79410000D02*
X1140000Y-79410000D01*
D11*
X21913333Y-6251200D02*
X21580000Y-5775010D01*
X21341904Y-6251200D02*
X21341904Y-5251200D01*
X21722857Y-5251200D01*
X21818095Y-5298820D01*
X21865714Y-5346439D01*
X21913333Y-5441677D01*
X21913333Y-5584534D01*
X21865714Y-5679772D01*
X21818095Y-5727391D01*
X21722857Y-5775010D01*
X21341904Y-5775010D01*
X22865714Y-6251200D02*
X22294285Y-6251200D01*
X22580000Y-6251200D02*
X22580000Y-5251200D01*
X22484761Y-5394058D01*
X22389523Y-5489296D01*
X22294285Y-5536915D01*
X21336095Y-24046380D02*
X21336095Y-24855904D01*
X21383714Y-24951142D01*
X21431333Y-24998761D01*
X21526571Y-25046380D01*
X21717047Y-25046380D01*
X21812285Y-24998761D01*
X21859904Y-24951142D01*
X21907523Y-24855904D01*
X21907523Y-24046380D01*
X22907523Y-25046380D02*
X22336095Y-25046380D01*
X22621809Y-25046380D02*
X22621809Y-24046380D01*
X22526571Y-24189238D01*
X22431333Y-24284476D01*
X22336095Y-24332095D01*
X6504346Y-86696300D02*
X6504346Y-87410586D01*
X6456727Y-87553443D01*
X6361489Y-87648681D01*
X6218632Y-87696300D01*
X6123394Y-87696300D01*
X6932918Y-86791539D02*
X6980537Y-86743920D01*
X7075775Y-86696300D01*
X7313870Y-86696300D01*
X7409108Y-86743920D01*
X7456727Y-86791539D01*
X7504346Y-86886777D01*
X7504346Y-86982015D01*
X7456727Y-87124872D01*
X6885299Y-87696300D01*
X7504346Y-87696300D01*
X7985166Y-12365880D02*
X7985166Y-13080166D01*
X7937547Y-13223023D01*
X7842309Y-13318261D01*
X7699452Y-13365880D01*
X7604214Y-13365880D01*
X8985166Y-13365880D02*
X8413738Y-13365880D01*
X8699452Y-13365880D02*
X8699452Y-12365880D01*
X8604214Y-12508738D01*
X8508976Y-12603976D01*
X8413738Y-12651595D01*
X26396666Y-99282380D02*
X26396666Y-99996666D01*
X26349047Y-100139523D01*
X26253809Y-100234761D01*
X26110952Y-100282380D01*
X26015714Y-100282380D01*
X26777619Y-99282380D02*
X27396666Y-99282380D01*
X27063333Y-99663333D01*
X27206190Y-99663333D01*
X27301428Y-99710952D01*
X27349047Y-99758571D01*
X27396666Y-99853809D01*
X27396666Y-100091904D01*
X27349047Y-100187142D01*
X27301428Y-100234761D01*
X27206190Y-100282380D01*
X26920476Y-100282380D01*
X26825238Y-100234761D01*
X26777619Y-100187142D01*
X7985166Y-48865880D02*
X7985166Y-49580166D01*
X7937547Y-49723023D01*
X7842309Y-49818261D01*
X7699452Y-49865880D01*
X7604214Y-49865880D01*
X8889928Y-49199214D02*
X8889928Y-49865880D01*
X8651833Y-48818261D02*
X8413738Y-49532547D01*
X9032785Y-49532547D01*
X23407619Y-80867238D02*
X23360000Y-80962476D01*
X23264761Y-81057714D01*
X23121904Y-81200571D01*
X23074285Y-81295809D01*
X23074285Y-81391047D01*
X23312380Y-81343428D02*
X23264761Y-81438666D01*
X23169523Y-81533904D01*
X22979047Y-81581523D01*
X22645714Y-81581523D01*
X22455238Y-81533904D01*
X22360000Y-81438666D01*
X22312380Y-81343428D01*
X22312380Y-81152952D01*
X22360000Y-81057714D01*
X22455238Y-80962476D01*
X22645714Y-80914857D01*
X22979047Y-80914857D01*
X23169523Y-80962476D01*
X23264761Y-81057714D01*
X23312380Y-81152952D01*
X23312380Y-81343428D01*
X23312380Y-79962476D02*
X23312380Y-80533904D01*
X23312380Y-80248190D02*
X22312380Y-80248190D01*
X22455238Y-80343428D01*
X22550476Y-80438666D01*
X22598095Y-80533904D01*
X23407619Y-85687238D02*
X23360000Y-85782476D01*
X23264761Y-85877714D01*
X23121904Y-86020571D01*
X23074285Y-86115809D01*
X23074285Y-86211047D01*
X23312380Y-86163428D02*
X23264761Y-86258666D01*
X23169523Y-86353904D01*
X22979047Y-86401523D01*
X22645714Y-86401523D01*
X22455238Y-86353904D01*
X22360000Y-86258666D01*
X22312380Y-86163428D01*
X22312380Y-85972952D01*
X22360000Y-85877714D01*
X22455238Y-85782476D01*
X22645714Y-85734857D01*
X22979047Y-85734857D01*
X23169523Y-85782476D01*
X23264761Y-85877714D01*
X23312380Y-85972952D01*
X23312380Y-86163428D01*
X22407619Y-85353904D02*
X22360000Y-85306285D01*
X22312380Y-85211047D01*
X22312380Y-84972952D01*
X22360000Y-84877714D01*
X22407619Y-84830095D01*
X22502857Y-84782476D01*
X22598095Y-84782476D01*
X22740952Y-84830095D01*
X23312380Y-85401523D01*
X23312380Y-84782476D01*
X23407619Y-92043238D02*
X23360000Y-92138476D01*
X23264761Y-92233714D01*
X23121904Y-92376571D01*
X23074285Y-92471809D01*
X23074285Y-92567047D01*
X23312380Y-92519428D02*
X23264761Y-92614666D01*
X23169523Y-92709904D01*
X22979047Y-92757523D01*
X22645714Y-92757523D01*
X22455238Y-92709904D01*
X22360000Y-92614666D01*
X22312380Y-92519428D01*
X22312380Y-92328952D01*
X22360000Y-92233714D01*
X22455238Y-92138476D01*
X22645714Y-92090857D01*
X22979047Y-92090857D01*
X23169523Y-92138476D01*
X23264761Y-92233714D01*
X23312380Y-92328952D01*
X23312380Y-92519428D01*
X22312380Y-91757523D02*
X22312380Y-91138476D01*
X22693333Y-91471809D01*
X22693333Y-91328952D01*
X22740952Y-91233714D01*
X22788571Y-91186095D01*
X22883809Y-91138476D01*
X23121904Y-91138476D01*
X23217142Y-91186095D01*
X23264761Y-91233714D01*
X23312380Y-91328952D01*
X23312380Y-91614666D01*
X23264761Y-91709904D01*
X23217142Y-91757523D01*
X23407619Y-96869238D02*
X23360000Y-96964476D01*
X23264761Y-97059714D01*
X23121904Y-97202571D01*
X23074285Y-97297809D01*
X23074285Y-97393047D01*
X23312380Y-97345428D02*
X23264761Y-97440666D01*
X23169523Y-97535904D01*
X22979047Y-97583523D01*
X22645714Y-97583523D01*
X22455238Y-97535904D01*
X22360000Y-97440666D01*
X22312380Y-97345428D01*
X22312380Y-97154952D01*
X22360000Y-97059714D01*
X22455238Y-96964476D01*
X22645714Y-96916857D01*
X22979047Y-96916857D01*
X23169523Y-96964476D01*
X23264761Y-97059714D01*
X23312380Y-97154952D01*
X23312380Y-97345428D01*
X22645714Y-96059714D02*
X23312380Y-96059714D01*
X22264761Y-96297809D02*
X22979047Y-96535904D01*
X22979047Y-95916857D01*
X18078573Y-1294282D02*
X18030954Y-1341901D01*
X17888097Y-1389520D01*
X17792859Y-1389520D01*
X17650001Y-1341901D01*
X17554763Y-1246663D01*
X17507144Y-1151425D01*
X17459525Y-960949D01*
X17459525Y-818092D01*
X17507144Y-627616D01*
X17554763Y-532378D01*
X17650001Y-437140D01*
X17792859Y-389520D01*
X17888097Y-389520D01*
X18030954Y-437140D01*
X18078573Y-484759D01*
X19030954Y-1389520D02*
X18459525Y-1389520D01*
X18745240Y-1389520D02*
X18745240Y-389520D01*
X18650001Y-532378D01*
X18554763Y-627616D01*
X18459525Y-675235D01*
X25063333Y-1317142D02*
X25015714Y-1364761D01*
X24872857Y-1412380D01*
X24777619Y-1412380D01*
X24634761Y-1364761D01*
X24539523Y-1269523D01*
X24491904Y-1174285D01*
X24444285Y-983809D01*
X24444285Y-840952D01*
X24491904Y-650476D01*
X24539523Y-555238D01*
X24634761Y-460000D01*
X24777619Y-412380D01*
X24872857Y-412380D01*
X25015714Y-460000D01*
X25063333Y-507619D01*
X25444285Y-507619D02*
X25491904Y-460000D01*
X25587142Y-412380D01*
X25825238Y-412380D01*
X25920476Y-460000D01*
X25968095Y-507619D01*
X26015714Y-602857D01*
X26015714Y-698095D01*
X25968095Y-840952D01*
X25396666Y-1412380D01*
X26015714Y-1412380D01*
X25467333Y-45173142D02*
X25419714Y-45220761D01*
X25276857Y-45268380D01*
X25181619Y-45268380D01*
X25038761Y-45220761D01*
X24943523Y-45125523D01*
X24895904Y-45030285D01*
X24848285Y-44839809D01*
X24848285Y-44696952D01*
X24895904Y-44506476D01*
X24943523Y-44411238D01*
X25038761Y-44316000D01*
X25181619Y-44268380D01*
X25276857Y-44268380D01*
X25419714Y-44316000D01*
X25467333Y-44363619D01*
X25800666Y-44268380D02*
X26419714Y-44268380D01*
X26086380Y-44649333D01*
X26229238Y-44649333D01*
X26324476Y-44696952D01*
X26372095Y-44744571D01*
X26419714Y-44839809D01*
X26419714Y-45077904D01*
X26372095Y-45173142D01*
X26324476Y-45220761D01*
X26229238Y-45268380D01*
X25943523Y-45268380D01*
X25848285Y-45220761D01*
X25800666Y-45173142D01*
X1353142Y-33968666D02*
X1400761Y-34016285D01*
X1448380Y-34159142D01*
X1448380Y-34254380D01*
X1400761Y-34397238D01*
X1305523Y-34492476D01*
X1210285Y-34540095D01*
X1019809Y-34587714D01*
X876952Y-34587714D01*
X686476Y-34540095D01*
X591238Y-34492476D01*
X495999Y-34397238D01*
X448380Y-34254380D01*
X448380Y-34159142D01*
X496000Y-34016285D01*
X543619Y-33968666D01*
X781714Y-33111523D02*
X1448380Y-33111523D01*
X400761Y-33349619D02*
X1115047Y-33587714D01*
X1115047Y-32968666D01*
X14835142Y-33186666D02*
X14882761Y-33234285D01*
X14930380Y-33377142D01*
X14930380Y-33472380D01*
X14882761Y-33615238D01*
X14787523Y-33710476D01*
X14692285Y-33758095D01*
X14501809Y-33805714D01*
X14358952Y-33805714D01*
X14168476Y-33758095D01*
X14073238Y-33710476D01*
X13978000Y-33615238D01*
X13930380Y-33472380D01*
X13930380Y-33377142D01*
X13978000Y-33234285D01*
X14025619Y-33186666D01*
X13930380Y-32281904D02*
X13930380Y-32758095D01*
X14406571Y-32805714D01*
X14358952Y-32758095D01*
X14311333Y-32662857D01*
X14311333Y-32424761D01*
X14358952Y-32329523D01*
X14406571Y-32281904D01*
X14501809Y-32234285D01*
X14739904Y-32234285D01*
X14835142Y-32281904D01*
X14882761Y-32329523D01*
X14930380Y-32424761D01*
X14930380Y-32662857D01*
X14882761Y-32758095D01*
X14835142Y-32805714D01*
X17847333Y-45173142D02*
X17799714Y-45220761D01*
X17656857Y-45268380D01*
X17561619Y-45268380D01*
X17418761Y-45220761D01*
X17323523Y-45125523D01*
X17275904Y-45030285D01*
X17228285Y-44839809D01*
X17228285Y-44696952D01*
X17275904Y-44506476D01*
X17323523Y-44411238D01*
X17418761Y-44316000D01*
X17561619Y-44268380D01*
X17656857Y-44268380D01*
X17799714Y-44316000D01*
X17847333Y-44363619D01*
X18704476Y-44268380D02*
X18514000Y-44268380D01*
X18418761Y-44316000D01*
X18371142Y-44363619D01*
X18275904Y-44506476D01*
X18228285Y-44696952D01*
X18228285Y-45077904D01*
X18275904Y-45173142D01*
X18323523Y-45220761D01*
X18418761Y-45268380D01*
X18609238Y-45268380D01*
X18704476Y-45220761D01*
X18752095Y-45173142D01*
X18799714Y-45077904D01*
X18799714Y-44839809D01*
X18752095Y-44744571D01*
X18704476Y-44696952D01*
X18609238Y-44649333D01*
X18418761Y-44649333D01*
X18323523Y-44696952D01*
X18275904Y-44744571D01*
X18228285Y-44839809D01*
X10243142Y-85022666D02*
X10290761Y-85070285D01*
X10338380Y-85213142D01*
X10338380Y-85308380D01*
X10290761Y-85451238D01*
X10195523Y-85546476D01*
X10100285Y-85594095D01*
X9909809Y-85641714D01*
X9766952Y-85641714D01*
X9576476Y-85594095D01*
X9481238Y-85546476D01*
X9386000Y-85451238D01*
X9338380Y-85308380D01*
X9338380Y-85213142D01*
X9386000Y-85070285D01*
X9433619Y-85022666D01*
X9338380Y-84689333D02*
X9338380Y-84022666D01*
X10338380Y-84451238D01*
X21913333Y-11096380D02*
X21580000Y-10620190D01*
X21341904Y-11096380D02*
X21341904Y-10096380D01*
X21722857Y-10096380D01*
X21818095Y-10144000D01*
X21865714Y-10191619D01*
X21913333Y-10286857D01*
X21913333Y-10429714D01*
X21865714Y-10524952D01*
X21818095Y-10572571D01*
X21722857Y-10620190D01*
X21341904Y-10620190D01*
X22294285Y-10191619D02*
X22341904Y-10144000D01*
X22437142Y-10096380D01*
X22675238Y-10096380D01*
X22770476Y-10144000D01*
X22818095Y-10191619D01*
X22865714Y-10286857D01*
X22865714Y-10382095D01*
X22818095Y-10524952D01*
X22246666Y-11096380D01*
X22865714Y-11096380D01*
X11142380Y-20586666D02*
X10666190Y-20920000D01*
X11142380Y-21158095D02*
X10142380Y-21158095D01*
X10142380Y-20777142D01*
X10190000Y-20681904D01*
X10237619Y-20634285D01*
X10332857Y-20586666D01*
X10475714Y-20586666D01*
X10570952Y-20634285D01*
X10618571Y-20681904D01*
X10666190Y-20777142D01*
X10666190Y-21158095D01*
X10142380Y-20253333D02*
X10142380Y-19634285D01*
X10523333Y-19967619D01*
X10523333Y-19824761D01*
X10570952Y-19729523D01*
X10618571Y-19681904D01*
X10713809Y-19634285D01*
X10951904Y-19634285D01*
X11047142Y-19681904D01*
X11094761Y-19729523D01*
X11142380Y-19824761D01*
X11142380Y-20110476D01*
X11094761Y-20205714D01*
X11047142Y-20253333D01*
X21905933Y-15707320D02*
X21572600Y-15231130D01*
X21334504Y-15707320D02*
X21334504Y-14707320D01*
X21715457Y-14707320D01*
X21810695Y-14754940D01*
X21858314Y-14802559D01*
X21905933Y-14897797D01*
X21905933Y-15040654D01*
X21858314Y-15135892D01*
X21810695Y-15183511D01*
X21715457Y-15231130D01*
X21334504Y-15231130D01*
X22763076Y-15040654D02*
X22763076Y-15707320D01*
X22524980Y-14659701D02*
X22286885Y-15373987D01*
X22905933Y-15373987D01*
X17590253Y-69173520D02*
X17256920Y-68697330D01*
X17018824Y-69173520D02*
X17018824Y-68173520D01*
X17399777Y-68173520D01*
X17495015Y-68221140D01*
X17542634Y-68268759D01*
X17590253Y-68363997D01*
X17590253Y-68506854D01*
X17542634Y-68602092D01*
X17495015Y-68649711D01*
X17399777Y-68697330D01*
X17018824Y-68697330D01*
X18495015Y-68173520D02*
X18018824Y-68173520D01*
X17971205Y-68649711D01*
X18018824Y-68602092D01*
X18114062Y-68554473D01*
X18352158Y-68554473D01*
X18447396Y-68602092D01*
X18495015Y-68649711D01*
X18542634Y-68744949D01*
X18542634Y-68983044D01*
X18495015Y-69078282D01*
X18447396Y-69125901D01*
X18352158Y-69173520D01*
X18114062Y-69173520D01*
X18018824Y-69125901D01*
X17971205Y-69078282D01*
X17597873Y-54237020D02*
X17264540Y-53760830D01*
X17026444Y-54237020D02*
X17026444Y-53237020D01*
X17407397Y-53237020D01*
X17502635Y-53284640D01*
X17550254Y-53332259D01*
X17597873Y-53427497D01*
X17597873Y-53570354D01*
X17550254Y-53665592D01*
X17502635Y-53713211D01*
X17407397Y-53760830D01*
X17026444Y-53760830D01*
X18455016Y-53237020D02*
X18264540Y-53237020D01*
X18169301Y-53284640D01*
X18121682Y-53332259D01*
X18026444Y-53475116D01*
X17978825Y-53665592D01*
X17978825Y-54046544D01*
X18026444Y-54141782D01*
X18074063Y-54189401D01*
X18169301Y-54237020D01*
X18359778Y-54237020D01*
X18455016Y-54189401D01*
X18502635Y-54141782D01*
X18550254Y-54046544D01*
X18550254Y-53808449D01*
X18502635Y-53713211D01*
X18455016Y-53665592D01*
X18359778Y-53617973D01*
X18169301Y-53617973D01*
X18074063Y-53665592D01*
X18026444Y-53713211D01*
X17978825Y-53808449D01*
X21913333Y-20494380D02*
X21580000Y-20018190D01*
X21341904Y-20494380D02*
X21341904Y-19494380D01*
X21722857Y-19494380D01*
X21818095Y-19542000D01*
X21865714Y-19589619D01*
X21913333Y-19684857D01*
X21913333Y-19827714D01*
X21865714Y-19922952D01*
X21818095Y-19970571D01*
X21722857Y-20018190D01*
X21341904Y-20018190D01*
X22246666Y-19494380D02*
X22913333Y-19494380D01*
X22484761Y-20494380D01*
X17595333Y-74172380D02*
X17262000Y-73696190D01*
X17023904Y-74172380D02*
X17023904Y-73172380D01*
X17404857Y-73172380D01*
X17500095Y-73220000D01*
X17547714Y-73267619D01*
X17595333Y-73362857D01*
X17595333Y-73505714D01*
X17547714Y-73600952D01*
X17500095Y-73648571D01*
X17404857Y-73696190D01*
X17023904Y-73696190D01*
X18166761Y-73600952D02*
X18071523Y-73553333D01*
X18023904Y-73505714D01*
X17976285Y-73410476D01*
X17976285Y-73362857D01*
X18023904Y-73267619D01*
X18071523Y-73220000D01*
X18166761Y-73172380D01*
X18357238Y-73172380D01*
X18452476Y-73220000D01*
X18500095Y-73267619D01*
X18547714Y-73362857D01*
X18547714Y-73410476D01*
X18500095Y-73505714D01*
X18452476Y-73553333D01*
X18357238Y-73600952D01*
X18166761Y-73600952D01*
X18071523Y-73648571D01*
X18023904Y-73696190D01*
X17976285Y-73791428D01*
X17976285Y-73981904D01*
X18023904Y-74077142D01*
X18071523Y-74124761D01*
X18166761Y-74172380D01*
X18357238Y-74172380D01*
X18452476Y-74124761D01*
X18500095Y-74077142D01*
X18547714Y-73981904D01*
X18547714Y-73791428D01*
X18500095Y-73696190D01*
X18452476Y-73648571D01*
X18357238Y-73600952D01*
X17595333Y-59172380D02*
X17262000Y-58696190D01*
X17023904Y-59172380D02*
X17023904Y-58172380D01*
X17404857Y-58172380D01*
X17500095Y-58220000D01*
X17547714Y-58267619D01*
X17595333Y-58362857D01*
X17595333Y-58505714D01*
X17547714Y-58600952D01*
X17500095Y-58648571D01*
X17404857Y-58696190D01*
X17023904Y-58696190D01*
X18071523Y-59172380D02*
X18262000Y-59172380D01*
X18357238Y-59124761D01*
X18404857Y-59077142D01*
X18500095Y-58934285D01*
X18547714Y-58743809D01*
X18547714Y-58362857D01*
X18500095Y-58267619D01*
X18452476Y-58220000D01*
X18357238Y-58172380D01*
X18166761Y-58172380D01*
X18071523Y-58220000D01*
X18023904Y-58267619D01*
X17976285Y-58362857D01*
X17976285Y-58600952D01*
X18023904Y-58696190D01*
X18071523Y-58743809D01*
X18166761Y-58791428D01*
X18357238Y-58791428D01*
X18452476Y-58743809D01*
X18500095Y-58696190D01*
X18547714Y-58600952D01*
X17119142Y-64172380D02*
X16785809Y-63696190D01*
X16547714Y-64172380D02*
X16547714Y-63172380D01*
X16928666Y-63172380D01*
X17023904Y-63220000D01*
X17071523Y-63267619D01*
X17119142Y-63362857D01*
X17119142Y-63505714D01*
X17071523Y-63600952D01*
X17023904Y-63648571D01*
X16928666Y-63696190D01*
X16547714Y-63696190D01*
X18071523Y-64172380D02*
X17500095Y-64172380D01*
X17785809Y-64172380D02*
X17785809Y-63172380D01*
X17690571Y-63315238D01*
X17595333Y-63410476D01*
X17500095Y-63458095D01*
X18690571Y-63172380D02*
X18785809Y-63172380D01*
X18881047Y-63220000D01*
X18928666Y-63267619D01*
X18976285Y-63362857D01*
X19023904Y-63553333D01*
X19023904Y-63791428D01*
X18976285Y-63981904D01*
X18928666Y-64077142D01*
X18881047Y-64124761D01*
X18785809Y-64172380D01*
X18690571Y-64172380D01*
X18595333Y-64124761D01*
X18547714Y-64077142D01*
X18500095Y-63981904D01*
X18452476Y-63791428D01*
X18452476Y-63553333D01*
X18500095Y-63362857D01*
X18547714Y-63267619D01*
X18595333Y-63220000D01*
X18690571Y-63172380D01*
X4104761Y-30502380D02*
X3771428Y-30026190D01*
X3533333Y-30502380D02*
X3533333Y-29502380D01*
X3914285Y-29502380D01*
X4009523Y-29550000D01*
X4057142Y-29597619D01*
X4104761Y-29692857D01*
X4104761Y-29835714D01*
X4057142Y-29930952D01*
X4009523Y-29978571D01*
X3914285Y-30026190D01*
X3533333Y-30026190D01*
X4390476Y-29502380D02*
X4723809Y-30502380D01*
X5057142Y-29502380D01*
X5914285Y-30502380D02*
X5342857Y-30502380D01*
X5628571Y-30502380D02*
X5628571Y-29502380D01*
X5533333Y-29645238D01*
X5438095Y-29740476D01*
X5342857Y-29788095D01*
X4104761Y-66502380D02*
X3771428Y-66026190D01*
X3533333Y-66502380D02*
X3533333Y-65502380D01*
X3914285Y-65502380D01*
X4009523Y-65550000D01*
X4057142Y-65597619D01*
X4104761Y-65692857D01*
X4104761Y-65835714D01*
X4057142Y-65930952D01*
X4009523Y-65978571D01*
X3914285Y-66026190D01*
X3533333Y-66026190D01*
X4390476Y-65502380D02*
X4723809Y-66502380D01*
X5057142Y-65502380D01*
X5342857Y-65597619D02*
X5390476Y-65550000D01*
X5485714Y-65502380D01*
X5723809Y-65502380D01*
X5819047Y-65550000D01*
X5866666Y-65597619D01*
X5914285Y-65692857D01*
X5914285Y-65788095D01*
X5866666Y-65930952D01*
X5295238Y-66502380D01*
X5914285Y-66502380D01*
X4104761Y-83502380D02*
X3771428Y-83026190D01*
X3533333Y-83502380D02*
X3533333Y-82502380D01*
X3914285Y-82502380D01*
X4009523Y-82550000D01*
X4057142Y-82597619D01*
X4104761Y-82692857D01*
X4104761Y-82835714D01*
X4057142Y-82930952D01*
X4009523Y-82978571D01*
X3914285Y-83026190D01*
X3533333Y-83026190D01*
X4390476Y-82502380D02*
X4723809Y-83502380D01*
X5057142Y-82502380D01*
X5295238Y-82502380D02*
X5914285Y-82502380D01*
X5580952Y-82883333D01*
X5723809Y-82883333D01*
X5819047Y-82930952D01*
X5866666Y-82978571D01*
X5914285Y-83073809D01*
X5914285Y-83311904D01*
X5866666Y-83407142D01*
X5819047Y-83454761D01*
X5723809Y-83502380D01*
X5438095Y-83502380D01*
X5342857Y-83454761D01*
X5295238Y-83407142D01*
M02*
