G04 #@! TF.GenerationSoftware,KiCad,Pcbnew,9.0.0*
G04 #@! TF.CreationDate,2025-02-23T16:05:49-07:00*
G04 #@! TF.ProjectId,Notch_Filter_THT,4e6f7463-685f-4466-996c-7465725f5448,rev?*
G04 #@! TF.SameCoordinates,Original*
G04 #@! TF.FileFunction,Copper,L2,Bot*
G04 #@! TF.FilePolarity,Positive*
%FSLAX46Y46*%
G04 Gerber Fmt 4.6, Leading zero omitted, Abs format (unit mm)*
G04 Created by KiCad (PCBNEW 9.0.0) date 2025-02-23 16:05:49*
%MOMM*%
%LPD*%
G01*
G04 APERTURE LIST*
G04 #@! TA.AperFunction,ComponentPad*
%ADD10R,1.000000X2.200000*%
G04 #@! TD*
G04 #@! TA.AperFunction,ComponentPad*
%ADD11R,2.200000X1.000000*%
G04 #@! TD*
G04 #@! TA.AperFunction,ComponentPad*
%ADD12R,1.700000X1.700000*%
G04 #@! TD*
G04 #@! TA.AperFunction,ComponentPad*
%ADD13O,1.700000X1.700000*%
G04 #@! TD*
G04 #@! TA.AperFunction,ComponentPad*
%ADD14R,1.520000X1.520000*%
G04 #@! TD*
G04 #@! TA.AperFunction,ComponentPad*
%ADD15C,1.520000*%
G04 #@! TD*
G04 #@! TA.AperFunction,ComponentPad*
%ADD16C,1.600000*%
G04 #@! TD*
G04 #@! TA.AperFunction,ComponentPad*
%ADD17R,1.600000X1.600000*%
G04 #@! TD*
G04 #@! TA.AperFunction,ComponentPad*
%ADD18O,1.600000X1.600000*%
G04 #@! TD*
G04 #@! TA.AperFunction,ComponentPad*
%ADD19C,4.600000*%
G04 #@! TD*
G04 #@! TA.AperFunction,ComponentPad*
%ADD20C,1.800000*%
G04 #@! TD*
G04 #@! TA.AperFunction,ViaPad*
%ADD21C,0.800000*%
G04 #@! TD*
G04 #@! TA.AperFunction,Conductor*
%ADD22C,0.250000*%
G04 #@! TD*
G04 #@! TA.AperFunction,Conductor*
%ADD23C,0.500000*%
G04 #@! TD*
G04 APERTURE END LIST*
D10*
X2000000Y-6500000D03*
X13000000Y-10500000D03*
D11*
X5400000Y-11000000D03*
X8400000Y-4000000D03*
X9800000Y-1300000D03*
D10*
X2000000Y-94000000D03*
X13000000Y-98000000D03*
D11*
X5400000Y-98500000D03*
X8400000Y-91500000D03*
X9800000Y-88800000D03*
D12*
X28000000Y-97500000D03*
D13*
X25460000Y-97500000D03*
X28000000Y-94960000D03*
X25460000Y-94960000D03*
X28000000Y-92420000D03*
X25460000Y-92420000D03*
X28000000Y-89880000D03*
X25460000Y-89880000D03*
X28000000Y-87340000D03*
X25460000Y-87340000D03*
X28000000Y-84800000D03*
X25460000Y-84800000D03*
X28000000Y-82260000D03*
X25460000Y-82260000D03*
X28000000Y-79720000D03*
X25460000Y-79720000D03*
D10*
X2000000Y-43000000D03*
X13000000Y-47000000D03*
D11*
X5400000Y-47500000D03*
X8400000Y-40500000D03*
X9800000Y-37800000D03*
D14*
X15744000Y-80772000D03*
D15*
X18284000Y-80772000D03*
X20824000Y-80772000D03*
D14*
X20744000Y-85598000D03*
D15*
X18204000Y-85598000D03*
X15664000Y-85598000D03*
D14*
X15744000Y-91810000D03*
D15*
X18284000Y-91810000D03*
X20824000Y-91810000D03*
D14*
X20744000Y-96810000D03*
D15*
X18204000Y-96810000D03*
X15664000Y-96810000D03*
D16*
X19500000Y-3500000D03*
X17000000Y-3500000D03*
X26500000Y-3500000D03*
X24000000Y-3500000D03*
D17*
X24384000Y-49276000D03*
D16*
X26884000Y-49276000D03*
D17*
X8890000Y-33020000D03*
D16*
X11390000Y-33020000D03*
D17*
X16764000Y-49276000D03*
D16*
X19264000Y-49276000D03*
X12446000Y-86106000D03*
X12446000Y-83606000D03*
X27160000Y-8000000D03*
D18*
X17000000Y-8000000D03*
D16*
X17000000Y-12954000D03*
D18*
X27160000Y-12954000D03*
D16*
X13000000Y-25500000D03*
D18*
X13000000Y-15340000D03*
D16*
X27160000Y-17526000D03*
D18*
X17000000Y-17526000D03*
D16*
X22842000Y-71030000D03*
D18*
X12682000Y-71030000D03*
D16*
X22842000Y-56030000D03*
D18*
X12682000Y-56030000D03*
D16*
X17000000Y-22352000D03*
D18*
X27160000Y-22352000D03*
D16*
X12682000Y-76030000D03*
D18*
X22842000Y-76030000D03*
D16*
X12682000Y-61030000D03*
D18*
X22842000Y-61030000D03*
D16*
X12682000Y-66030000D03*
D18*
X22842000Y-66030000D03*
D19*
X8000000Y-26500000D03*
X8000000Y-16500000D03*
D20*
X4700000Y-19000000D03*
X4700000Y-21500000D03*
X4700000Y-24000000D03*
D19*
X8000000Y-62500000D03*
X8000000Y-52500000D03*
D20*
X4700000Y-55000000D03*
X4700000Y-57500000D03*
X4700000Y-60000000D03*
D19*
X8000000Y-79500000D03*
X8000000Y-69500000D03*
D20*
X4700000Y-72000000D03*
X4700000Y-74500000D03*
X4700000Y-77000000D03*
D17*
X18288000Y-26924000D03*
D18*
X18288000Y-29464000D03*
X18288000Y-32004000D03*
X18288000Y-34544000D03*
X18288000Y-37084000D03*
X18288000Y-39624000D03*
X18288000Y-42164000D03*
X25908000Y-42164000D03*
X25908000Y-39624000D03*
X25908000Y-37084000D03*
X25908000Y-34544000D03*
X25908000Y-32004000D03*
X25908000Y-29464000D03*
X25908000Y-26924000D03*
D16*
X3556000Y-35052000D03*
X3556000Y-32552000D03*
D21*
X15356500Y-54827800D03*
D22*
X17000000Y-3500000D02*
X9500000Y-11000000D01*
X9500000Y-11000000D02*
X5400000Y-11000000D01*
X3048000Y-61722000D02*
X3048000Y-47244000D01*
X3556000Y-37878300D02*
X6096000Y-35338300D01*
X13970000Y-72261589D02*
X13970000Y-65484200D01*
X13255800Y-64770000D02*
X11912000Y-64770000D01*
X14835000Y-84769000D02*
X14835000Y-82766300D01*
X15632630Y-30480000D02*
X17156630Y-32004000D01*
X11871000Y-84769000D02*
X10725989Y-83623989D01*
X15744000Y-80772000D02*
X15744000Y-81857300D01*
X15664000Y-85598000D02*
X14835000Y-84769000D01*
X10725989Y-83623989D02*
X10725989Y-75505600D01*
X6479400Y-65153400D02*
X3048000Y-61722000D01*
X10725989Y-75505600D02*
X13970000Y-72261589D01*
X13970000Y-65484200D02*
X13255800Y-64770000D01*
X8887100Y-30480000D02*
X15632630Y-30480000D01*
X3556000Y-46736000D02*
X3556000Y-37878300D01*
X6096000Y-35338300D02*
X6096000Y-33271100D01*
X6096000Y-33271100D02*
X8887100Y-30480000D01*
X17156630Y-32004000D02*
X18288000Y-32004000D01*
X14835000Y-82766300D02*
X15744000Y-81857300D01*
X3048000Y-47244000D02*
X3556000Y-46736000D01*
X11912000Y-64770000D02*
X11528600Y-65153400D01*
X14835000Y-84769000D02*
X11871000Y-84769000D01*
X11528600Y-65153400D02*
X6479400Y-65153400D01*
X22842000Y-71030000D02*
X18284000Y-75588000D01*
X18284000Y-75588000D02*
X18284000Y-80772000D01*
X18284000Y-85518000D02*
X18204000Y-85598000D01*
X18284000Y-80772000D02*
X18284000Y-85518000D01*
X19716100Y-35655900D02*
X18288000Y-37084000D01*
X17022700Y-30734000D02*
X18620400Y-30734000D01*
X19716100Y-31829700D02*
X19716100Y-35655900D01*
X3556000Y-35052000D02*
X8636000Y-29972000D01*
X16260700Y-29972000D02*
X17022700Y-30734000D01*
X8636000Y-29972000D02*
X16260700Y-29972000D01*
X18620400Y-30734000D02*
X19716100Y-31829700D01*
D23*
X13658300Y-31464600D02*
X16737700Y-34544000D01*
X8890000Y-33020000D02*
X10445400Y-31464600D01*
X18288000Y-34544000D02*
X16737700Y-34544000D01*
X10445400Y-31464600D02*
X13658300Y-31464600D01*
X20223600Y-93451900D02*
X24307700Y-97536000D01*
X25460000Y-97500000D02*
X28000000Y-97500000D01*
X12357900Y-91038100D02*
X14771700Y-93451900D01*
X25424000Y-97536000D02*
X25460000Y-97500000D01*
X19264000Y-49276000D02*
X19264000Y-49570000D01*
X15619900Y-53214100D02*
X15619900Y-54564400D01*
X19304000Y-44047500D02*
X20854300Y-42497200D01*
X20854300Y-42497200D02*
X20854300Y-39597700D01*
X14771700Y-93451900D02*
X20223600Y-93451900D01*
X12357900Y-88363900D02*
X12357900Y-91038100D01*
X19264000Y-49570000D02*
X15619900Y-53214100D01*
X20854300Y-39597700D02*
X25908000Y-34544000D01*
X15619900Y-54564400D02*
X15356500Y-54827800D01*
X4700000Y-77000000D02*
X4700000Y-80706000D01*
X24307700Y-97536000D02*
X25424000Y-97536000D01*
X19304000Y-49236000D02*
X19304000Y-44047500D01*
X19264000Y-49276000D02*
X19304000Y-49236000D01*
X4700000Y-80706000D02*
X12357900Y-88363900D01*
D22*
X11529800Y-56501800D02*
X11529800Y-49895500D01*
X25460000Y-82260000D02*
X23976900Y-80776900D01*
X23976900Y-68948900D02*
X11529800Y-56501800D01*
X13000000Y-48425300D02*
X13000000Y-47000000D01*
X23976900Y-80776900D02*
X23976900Y-68948900D01*
X11529800Y-49895500D02*
X13000000Y-48425300D01*
X3974700Y-54274700D02*
X3974700Y-47500000D01*
X5400000Y-47500000D02*
X3974700Y-47500000D01*
X4700000Y-55000000D02*
X3974700Y-54274700D01*
X6500000Y-19000000D02*
X4700000Y-19000000D01*
X13000000Y-25500000D02*
X6500000Y-19000000D01*
X9152000Y-57500000D02*
X12682000Y-61030000D01*
X4700000Y-57500000D02*
X9152000Y-57500000D01*
X6712900Y-74500000D02*
X12682000Y-68530900D01*
X12682000Y-68530900D02*
X12682000Y-66030000D01*
X4700000Y-74500000D02*
X6712900Y-74500000D01*
X27178000Y-30734000D02*
X25908000Y-32004000D01*
X14019600Y-26924000D02*
X15289600Y-25654000D01*
X20948900Y-25654000D02*
X23488900Y-28194000D01*
X15289600Y-25654000D02*
X20948900Y-25654000D01*
X23488900Y-28194000D02*
X26307200Y-28194000D01*
X12393600Y-26924000D02*
X14019600Y-26924000D01*
X4700000Y-21500000D02*
X6969600Y-21500000D01*
X26307200Y-28194000D02*
X27178000Y-29064800D01*
X27178000Y-29064800D02*
X27178000Y-30734000D01*
X6969600Y-21500000D02*
X12393600Y-26924000D01*
X13000000Y-14214700D02*
X17000000Y-10214700D01*
X17000000Y-8000000D02*
X17000000Y-6874700D01*
X13000000Y-15340000D02*
X13000000Y-14214700D01*
X19500000Y-4374700D02*
X17000000Y-6874700D01*
X17000000Y-10214700D02*
X17000000Y-8000000D01*
X19500000Y-3500000D02*
X19500000Y-4374700D01*
X24000000Y-3500000D02*
X19500000Y-3500000D01*
X5364500Y-32512000D02*
X8412500Y-29464000D01*
X3556000Y-32552000D02*
X3596000Y-32512000D01*
X3596000Y-32512000D02*
X5364500Y-32512000D01*
X14622700Y-29464000D02*
X17162700Y-26924000D01*
X8412500Y-29464000D02*
X14622700Y-29464000D01*
X17162700Y-26924000D02*
X18288000Y-26924000D01*
X25108001Y-30263999D02*
X25908000Y-29464000D01*
X11176000Y-75692000D02*
X14478000Y-72390000D01*
X5080000Y-51308000D02*
X15494000Y-40894000D01*
X7581300Y-56096900D02*
X5080000Y-53595600D01*
X11176000Y-82336000D02*
X11176000Y-75692000D01*
X9629300Y-56096900D02*
X7581300Y-56096900D01*
X14478000Y-72390000D02*
X14478000Y-60945600D01*
X12446000Y-83606000D02*
X11176000Y-82336000D01*
X5080000Y-53595600D02*
X5080000Y-51308000D01*
X15494000Y-40894000D02*
X18796000Y-40894000D01*
X14478000Y-60945600D02*
X9629300Y-56096900D01*
X18796000Y-40894000D02*
X19812000Y-39878000D01*
X19812000Y-39878000D02*
X19812000Y-36508400D01*
X19812000Y-36508400D02*
X25108001Y-31212399D01*
X25108001Y-31212399D02*
X25108001Y-30263999D01*
X23876000Y-54610000D02*
X28448000Y-50038000D01*
X28448000Y-50038000D02*
X28448000Y-44704000D01*
X28448000Y-44704000D02*
X25908000Y-42164000D01*
X12682000Y-56030000D02*
X16090900Y-56030000D01*
X17510900Y-54610000D02*
X23876000Y-54610000D01*
X16090900Y-56030000D02*
X17510900Y-54610000D01*
X12682000Y-76030000D02*
X14986000Y-73726000D01*
X11062900Y-56782900D02*
X11062900Y-46868400D01*
X17156630Y-42164000D02*
X18288000Y-42164000D01*
X11062900Y-46868400D02*
X15767300Y-42164000D01*
X14986000Y-73726000D02*
X14986000Y-60706000D01*
X15767300Y-42164000D02*
X17156630Y-42164000D01*
X14986000Y-60706000D02*
X11062900Y-56782900D01*
G04 #@! TA.AperFunction,Conductor*
G36*
X23310228Y-72331148D02*
G01*
X23341554Y-72394860D01*
X23343400Y-72416347D01*
X23343400Y-74643652D01*
X23323398Y-74711773D01*
X23269742Y-74758266D01*
X23199468Y-74768370D01*
X23178465Y-74763486D01*
X23148409Y-74753720D01*
X23097551Y-74745665D01*
X22944981Y-74721500D01*
X22739019Y-74721500D01*
X22535592Y-74753720D01*
X22535590Y-74753720D01*
X22535587Y-74753721D01*
X22339714Y-74817364D01*
X22339708Y-74817367D01*
X22156193Y-74910873D01*
X21989567Y-75031934D01*
X21989564Y-75031936D01*
X21843936Y-75177564D01*
X21843934Y-75177567D01*
X21722873Y-75344193D01*
X21629367Y-75527708D01*
X21629364Y-75527714D01*
X21565721Y-75723587D01*
X21565720Y-75723590D01*
X21565720Y-75723592D01*
X21533500Y-75927019D01*
X21533500Y-76132981D01*
X21565720Y-76336408D01*
X21629366Y-76532290D01*
X21629367Y-76532291D01*
X21722873Y-76715806D01*
X21752802Y-76756999D01*
X21843932Y-76882430D01*
X21843934Y-76882432D01*
X21843936Y-76882435D01*
X21989564Y-77028063D01*
X21989567Y-77028065D01*
X21989570Y-77028068D01*
X22156197Y-77149129D01*
X22339710Y-77242634D01*
X22535592Y-77306280D01*
X22739019Y-77338500D01*
X22739022Y-77338500D01*
X22944978Y-77338500D01*
X22944981Y-77338500D01*
X23148408Y-77306280D01*
X23178464Y-77296513D01*
X23249430Y-77294486D01*
X23310228Y-77331148D01*
X23341554Y-77394860D01*
X23343400Y-77416347D01*
X23343400Y-80714506D01*
X23343400Y-80839294D01*
X23367745Y-80961685D01*
X23415500Y-81076975D01*
X23484829Y-81180733D01*
X23484831Y-81180735D01*
X24107581Y-81803485D01*
X24141607Y-81865797D01*
X24138321Y-81931510D01*
X24134952Y-81941879D01*
X24134951Y-81941882D01*
X24134951Y-81941884D01*
X24101500Y-82153084D01*
X24101500Y-82366916D01*
X24123182Y-82503807D01*
X24134952Y-82578121D01*
X24201026Y-82781478D01*
X24201028Y-82781483D01*
X24298106Y-82972009D01*
X24423794Y-83145004D01*
X24423796Y-83145006D01*
X24423798Y-83145009D01*
X24574990Y-83296201D01*
X24574993Y-83296203D01*
X24574996Y-83296206D01*
X24747991Y-83421894D01*
X24747996Y-83421896D01*
X24749088Y-83422566D01*
X24749418Y-83422931D01*
X24751996Y-83424804D01*
X24751602Y-83425345D01*
X24796721Y-83475213D01*
X24808328Y-83545255D01*
X24780226Y-83610453D01*
X24751870Y-83635023D01*
X24751996Y-83635196D01*
X24749982Y-83636658D01*
X24749088Y-83637434D01*
X24747987Y-83638108D01*
X24574993Y-83763796D01*
X24574990Y-83763798D01*
X24423798Y-83914990D01*
X24423796Y-83914993D01*
X24298108Y-84087987D01*
X24201029Y-84278515D01*
X24201026Y-84278521D01*
X24134952Y-84481878D01*
X24134951Y-84481883D01*
X24134951Y-84481884D01*
X24101500Y-84693084D01*
X24101500Y-84906916D01*
X24133834Y-85111065D01*
X24134952Y-85118121D01*
X24194359Y-85300959D01*
X24201028Y-85321483D01*
X24298106Y-85512009D01*
X24423794Y-85685004D01*
X24423796Y-85685006D01*
X24423798Y-85685009D01*
X24574990Y-85836201D01*
X24574993Y-85836203D01*
X24574996Y-85836206D01*
X24747991Y-85961894D01*
X24747996Y-85961896D01*
X24749088Y-85962566D01*
X24749418Y-85962931D01*
X24751996Y-85964804D01*
X24751602Y-85965345D01*
X24796721Y-86015213D01*
X24808328Y-86085255D01*
X24780226Y-86150453D01*
X24751870Y-86175023D01*
X24751996Y-86175196D01*
X24749982Y-86176658D01*
X24749088Y-86177434D01*
X24747987Y-86178108D01*
X24574993Y-86303796D01*
X24574990Y-86303798D01*
X24423798Y-86454990D01*
X24423796Y-86454993D01*
X24298108Y-86627987D01*
X24201029Y-86818515D01*
X24201026Y-86818521D01*
X24134952Y-87021878D01*
X24134951Y-87021883D01*
X24134951Y-87021884D01*
X24101500Y-87233084D01*
X24101500Y-87446916D01*
X24134951Y-87658116D01*
X24134952Y-87658121D01*
X24197008Y-87849111D01*
X24201028Y-87861483D01*
X24298106Y-88052009D01*
X24423794Y-88225004D01*
X24423796Y-88225006D01*
X24423798Y-88225009D01*
X24574990Y-88376201D01*
X24574993Y-88376203D01*
X24574996Y-88376206D01*
X24747991Y-88501894D01*
X24748001Y-88501899D01*
X24749567Y-88502859D01*
X24750042Y-88503384D01*
X24751996Y-88504804D01*
X24751697Y-88505214D01*
X24797200Y-88555505D01*
X24808808Y-88625546D01*
X24780707Y-88690745D01*
X24752157Y-88715485D01*
X24752258Y-88715624D01*
X24750644Y-88716796D01*
X24749574Y-88717724D01*
X24748255Y-88718532D01*
X24575320Y-88844177D01*
X24424177Y-88995320D01*
X24298536Y-89168249D01*
X24201493Y-89358707D01*
X24201490Y-89358713D01*
X24135440Y-89561995D01*
X24125302Y-89626000D01*
X25029297Y-89626000D01*
X24994075Y-89687007D01*
X24960000Y-89814174D01*
X24960000Y-89945826D01*
X24994075Y-90072993D01*
X25029297Y-90134000D01*
X24125302Y-90134000D01*
X24135440Y-90198004D01*
X24201490Y-90401286D01*
X24201493Y-90401292D01*
X24298536Y-90591750D01*
X24424177Y-90764679D01*
X24575320Y-90915822D01*
X24748256Y-91041468D01*
X24750052Y-91042569D01*
X24750591Y-91043164D01*
X24752258Y-91044376D01*
X24752003Y-91044726D01*
X24797682Y-91095217D01*
X24809288Y-91165259D01*
X24781183Y-91230456D01*
X24752211Y-91255559D01*
X24752258Y-91255624D01*
X24751511Y-91256166D01*
X24750052Y-91257431D01*
X24748256Y-91258531D01*
X24575320Y-91384177D01*
X24424177Y-91535320D01*
X24298536Y-91708249D01*
X24201493Y-91898707D01*
X24201490Y-91898713D01*
X24135440Y-92101995D01*
X24125302Y-92166000D01*
X25029297Y-92166000D01*
X24994075Y-92227007D01*
X24960000Y-92354174D01*
X24960000Y-92485826D01*
X24994075Y-92612993D01*
X25029297Y-92674000D01*
X24125302Y-92674000D01*
X24135440Y-92738004D01*
X24201490Y-92941286D01*
X24201493Y-92941292D01*
X24298536Y-93131750D01*
X24424177Y-93304679D01*
X24575320Y-93455822D01*
X24748256Y-93581468D01*
X24750052Y-93582569D01*
X24750591Y-93583164D01*
X24752258Y-93584376D01*
X24752003Y-93584726D01*
X24797682Y-93635217D01*
X24809288Y-93705259D01*
X24781183Y-93770456D01*
X24752211Y-93795559D01*
X24752258Y-93795624D01*
X24751511Y-93796166D01*
X24750052Y-93797431D01*
X24748256Y-93798531D01*
X24575320Y-93924177D01*
X24424177Y-94075320D01*
X24298536Y-94248249D01*
X24201493Y-94438707D01*
X24201490Y-94438713D01*
X24135440Y-94641995D01*
X24125302Y-94706000D01*
X25029297Y-94706000D01*
X24994075Y-94767007D01*
X24960000Y-94894174D01*
X24960000Y-95025826D01*
X24994075Y-95152993D01*
X25029297Y-95214000D01*
X24125302Y-95214000D01*
X24135440Y-95278004D01*
X24201490Y-95481286D01*
X24201493Y-95481292D01*
X24298536Y-95671750D01*
X24424177Y-95844679D01*
X24575320Y-95995822D01*
X24748244Y-96121460D01*
X24749560Y-96122266D01*
X24749955Y-96122703D01*
X24752258Y-96124376D01*
X24751906Y-96124859D01*
X24797196Y-96174910D01*
X24808809Y-96244950D01*
X24780712Y-96310150D01*
X24751925Y-96335098D01*
X24751996Y-96335196D01*
X24750862Y-96336019D01*
X24749580Y-96337131D01*
X24747998Y-96338100D01*
X24574994Y-96463795D01*
X24530678Y-96508110D01*
X24468365Y-96542134D01*
X24397549Y-96537068D01*
X24352489Y-96508108D01*
X21092896Y-93248515D01*
X21058870Y-93186203D01*
X21063935Y-93115388D01*
X21106482Y-93058552D01*
X21143055Y-93039587D01*
X21310738Y-92985103D01*
X21310744Y-92985100D01*
X21488580Y-92894488D01*
X21523734Y-92868946D01*
X20864789Y-92210000D01*
X20876661Y-92210000D01*
X20978394Y-92182741D01*
X21069606Y-92130080D01*
X21144080Y-92055606D01*
X21196741Y-91964394D01*
X21224000Y-91862661D01*
X21224000Y-91850788D01*
X21882946Y-92509734D01*
X21908488Y-92474580D01*
X21999100Y-92296744D01*
X21999103Y-92296738D01*
X22060776Y-92106929D01*
X22092000Y-91909790D01*
X22092000Y-91710209D01*
X22060776Y-91513070D01*
X21999103Y-91323261D01*
X21999100Y-91323255D01*
X21908489Y-91145421D01*
X21908483Y-91145410D01*
X21882947Y-91110264D01*
X21882944Y-91110264D01*
X21224000Y-91769208D01*
X21224000Y-91757339D01*
X21196741Y-91655606D01*
X21144080Y-91564394D01*
X21069606Y-91489920D01*
X20978394Y-91437259D01*
X20876661Y-91410000D01*
X20864789Y-91410000D01*
X21523734Y-90751053D01*
X21488576Y-90725509D01*
X21310744Y-90634899D01*
X21310738Y-90634896D01*
X21120929Y-90573223D01*
X20923791Y-90542000D01*
X20724209Y-90542000D01*
X20527070Y-90573223D01*
X20337261Y-90634896D01*
X20337255Y-90634899D01*
X20159425Y-90725508D01*
X20124264Y-90751053D01*
X20124264Y-90751054D01*
X20783210Y-91410000D01*
X20771339Y-91410000D01*
X20669606Y-91437259D01*
X20578394Y-91489920D01*
X20503920Y-91564394D01*
X20451259Y-91655606D01*
X20424000Y-91757339D01*
X20424000Y-91769210D01*
X19765054Y-91110264D01*
X19765053Y-91110264D01*
X19739508Y-91145425D01*
X19666547Y-91288619D01*
X19617798Y-91340234D01*
X19548884Y-91357300D01*
X19481682Y-91334399D01*
X19442014Y-91288621D01*
X19368918Y-91145161D01*
X19313984Y-91069551D01*
X19251555Y-90983625D01*
X19110374Y-90842444D01*
X18948842Y-90725084D01*
X18948841Y-90725083D01*
X18948839Y-90725082D01*
X18770935Y-90634435D01*
X18770932Y-90634434D01*
X18770930Y-90634433D01*
X18581046Y-90572736D01*
X18581042Y-90572735D01*
X18581041Y-90572735D01*
X18383833Y-90541500D01*
X18184167Y-90541500D01*
X17986959Y-90572735D01*
X17986953Y-90572736D01*
X17797069Y-90634433D01*
X17797063Y-90634436D01*
X17619157Y-90725084D01*
X17457625Y-90842444D01*
X17316444Y-90983625D01*
X17240436Y-91088242D01*
X17184213Y-91131596D01*
X17113477Y-91137671D01*
X17050685Y-91104539D01*
X17015774Y-91042719D01*
X17012500Y-91014181D01*
X17012500Y-91001367D01*
X17012499Y-91001350D01*
X17005990Y-90940803D01*
X17005988Y-90940795D01*
X16954889Y-90803797D01*
X16954887Y-90803792D01*
X16867261Y-90686738D01*
X16750207Y-90599112D01*
X16750202Y-90599110D01*
X16613204Y-90548011D01*
X16613196Y-90548009D01*
X16552649Y-90541500D01*
X16552638Y-90541500D01*
X14935362Y-90541500D01*
X14935350Y-90541500D01*
X14874803Y-90548009D01*
X14874795Y-90548011D01*
X14737797Y-90599110D01*
X14737792Y-90599112D01*
X14620738Y-90686738D01*
X14533112Y-90803792D01*
X14533110Y-90803797D01*
X14482011Y-90940795D01*
X14482009Y-90940803D01*
X14475500Y-91001350D01*
X14475500Y-91778829D01*
X14455498Y-91846950D01*
X14401842Y-91893443D01*
X14331568Y-91903547D01*
X14266988Y-91874053D01*
X14260405Y-91867924D01*
X13153305Y-90760824D01*
X13119279Y-90698512D01*
X13116400Y-90671729D01*
X13116400Y-88289195D01*
X13116399Y-88289191D01*
X13108874Y-88251362D01*
X13096828Y-88190799D01*
X13087251Y-88142653D01*
X13030074Y-88004615D01*
X12947066Y-87880385D01*
X12665310Y-87598629D01*
X12631284Y-87536317D01*
X12636349Y-87465502D01*
X12678896Y-87408666D01*
X12734693Y-87385085D01*
X12752408Y-87382280D01*
X12948290Y-87318634D01*
X13131803Y-87225129D01*
X13298430Y-87104068D01*
X13444068Y-86958430D01*
X13565129Y-86791803D01*
X13658634Y-86608290D01*
X13722280Y-86412408D01*
X13754500Y-86208981D01*
X13754500Y-86003019D01*
X13722280Y-85799592D01*
X13658634Y-85603710D01*
X13649458Y-85585702D01*
X13636354Y-85515928D01*
X13663053Y-85450143D01*
X13721080Y-85409236D01*
X13761725Y-85402500D01*
X14269500Y-85402500D01*
X14337621Y-85422502D01*
X14384114Y-85476158D01*
X14395500Y-85528500D01*
X14395500Y-85697833D01*
X14425412Y-85886689D01*
X14426736Y-85895046D01*
X14488433Y-86084930D01*
X14488435Y-86084935D01*
X14551638Y-86208977D01*
X14579084Y-86262842D01*
X14696444Y-86424374D01*
X14837625Y-86565555D01*
X14890492Y-86603965D01*
X14999161Y-86682918D01*
X15177065Y-86773565D01*
X15366959Y-86835265D01*
X15564167Y-86866500D01*
X15564170Y-86866500D01*
X15763830Y-86866500D01*
X15763833Y-86866500D01*
X15961041Y-86835265D01*
X16150935Y-86773565D01*
X16328839Y-86682918D01*
X16490372Y-86565557D01*
X16631557Y-86424372D01*
X16748918Y-86262839D01*
X16821734Y-86119929D01*
X16870481Y-86068316D01*
X16939396Y-86051250D01*
X17006598Y-86074151D01*
X17046265Y-86119929D01*
X17091638Y-86208977D01*
X17119084Y-86262842D01*
X17236444Y-86424374D01*
X17377625Y-86565555D01*
X17430492Y-86603965D01*
X17539161Y-86682918D01*
X17717065Y-86773565D01*
X17906959Y-86835265D01*
X18104167Y-86866500D01*
X18104170Y-86866500D01*
X18303830Y-86866500D01*
X18303833Y-86866500D01*
X18501041Y-86835265D01*
X18690935Y-86773565D01*
X18868839Y-86682918D01*
X19030372Y-86565557D01*
X19171557Y-86424372D01*
X19248064Y-86319068D01*
X19304286Y-86275715D01*
X19375022Y-86269640D01*
X19437814Y-86302771D01*
X19472726Y-86364591D01*
X19476000Y-86393130D01*
X19476000Y-86406597D01*
X19482505Y-86467093D01*
X19533555Y-86603964D01*
X19533555Y-86603965D01*
X19621095Y-86720904D01*
X19738034Y-86808444D01*
X19874906Y-86859494D01*
X19935402Y-86865999D01*
X19935415Y-86866000D01*
X20490000Y-86866000D01*
X20490000Y-85909686D01*
X20498394Y-85918080D01*
X20589606Y-85970741D01*
X20691339Y-85998000D01*
X20796661Y-85998000D01*
X20898394Y-85970741D01*
X20989606Y-85918080D01*
X20998000Y-85909686D01*
X20998000Y-86866000D01*
X21552585Y-86866000D01*
X21552597Y-86865999D01*
X21613093Y-86859494D01*
X21749964Y-86808444D01*
X21749965Y-86808444D01*
X21866904Y-86720904D01*
X21954444Y-86603965D01*
X21954444Y-86603964D01*
X22005494Y-86467093D01*
X22011999Y-86406597D01*
X22012000Y-86406585D01*
X22012000Y-85852000D01*
X21055686Y-85852000D01*
X21064080Y-85843606D01*
X21116741Y-85752394D01*
X21144000Y-85650661D01*
X21144000Y-85545339D01*
X21116741Y-85443606D01*
X21064080Y-85352394D01*
X21055686Y-85344000D01*
X22012000Y-85344000D01*
X22012000Y-84789414D01*
X22011999Y-84789402D01*
X22005494Y-84728906D01*
X21954444Y-84592035D01*
X21954444Y-84592034D01*
X21866904Y-84475095D01*
X21749965Y-84387555D01*
X21613093Y-84336505D01*
X21552597Y-84330000D01*
X20998000Y-84330000D01*
X20998000Y-85286314D01*
X20989606Y-85277920D01*
X20898394Y-85225259D01*
X20796661Y-85198000D01*
X20691339Y-85198000D01*
X20589606Y-85225259D01*
X20498394Y-85277920D01*
X20490000Y-85286314D01*
X20490000Y-84330000D01*
X19935402Y-84330000D01*
X19874906Y-84336505D01*
X19738035Y-84387555D01*
X19738034Y-84387555D01*
X19621095Y-84475095D01*
X19533555Y-84592034D01*
X19533555Y-84592035D01*
X19482505Y-84728906D01*
X19476000Y-84789402D01*
X19476000Y-84802869D01*
X19455998Y-84870990D01*
X19402342Y-84917483D01*
X19332068Y-84927587D01*
X19267488Y-84898093D01*
X19248064Y-84876930D01*
X19171555Y-84771625D01*
X19030378Y-84630448D01*
X19030374Y-84630445D01*
X19030372Y-84630443D01*
X18969437Y-84586170D01*
X18926085Y-84529949D01*
X18917500Y-84484236D01*
X18917500Y-81943887D01*
X18937502Y-81875766D01*
X18969439Y-81841951D01*
X19110372Y-81739557D01*
X19111414Y-81738515D01*
X19156101Y-81693829D01*
X19251552Y-81598377D01*
X19251555Y-81598374D01*
X19251557Y-81598372D01*
X19368918Y-81436839D01*
X19442014Y-81293379D01*
X19490761Y-81241765D01*
X19559676Y-81224699D01*
X19626878Y-81247599D01*
X19666547Y-81293380D01*
X19739509Y-81436576D01*
X19765053Y-81471734D01*
X20424000Y-80812787D01*
X20424000Y-80824661D01*
X20451259Y-80926394D01*
X20503920Y-81017606D01*
X20578394Y-81092080D01*
X20669606Y-81144741D01*
X20771339Y-81172000D01*
X20783209Y-81172000D01*
X20124264Y-81830944D01*
X20124264Y-81830947D01*
X20159410Y-81856483D01*
X20159421Y-81856489D01*
X20337255Y-81947100D01*
X20337261Y-81947103D01*
X20527070Y-82008776D01*
X20724209Y-82040000D01*
X20923791Y-82040000D01*
X21120929Y-82008776D01*
X21310738Y-81947103D01*
X21310744Y-81947100D01*
X21488580Y-81856488D01*
X21523734Y-81830946D01*
X20864790Y-81172000D01*
X20876661Y-81172000D01*
X20978394Y-81144741D01*
X21069606Y-81092080D01*
X21144080Y-81017606D01*
X21196741Y-80926394D01*
X21224000Y-80824661D01*
X21224000Y-80812788D01*
X21882946Y-81471734D01*
X21908488Y-81436580D01*
X21999100Y-81258744D01*
X21999103Y-81258738D01*
X22060776Y-81068929D01*
X22092000Y-80871790D01*
X22092000Y-80672209D01*
X22060776Y-80475070D01*
X21999103Y-80285261D01*
X21999100Y-80285255D01*
X21908489Y-80107421D01*
X21908483Y-80107410D01*
X21882947Y-80072264D01*
X21882944Y-80072264D01*
X21224000Y-80731208D01*
X21224000Y-80719339D01*
X21196741Y-80617606D01*
X21144080Y-80526394D01*
X21069606Y-80451920D01*
X20978394Y-80399259D01*
X20876661Y-80372000D01*
X20864789Y-80372000D01*
X21523734Y-79713053D01*
X21488576Y-79687509D01*
X21310744Y-79596899D01*
X21310738Y-79596896D01*
X21120929Y-79535223D01*
X20923791Y-79504000D01*
X20724209Y-79504000D01*
X20527070Y-79535223D01*
X20337261Y-79596896D01*
X20337255Y-79596899D01*
X20159425Y-79687508D01*
X20124264Y-79713053D01*
X20124264Y-79713054D01*
X20783210Y-80372000D01*
X20771339Y-80372000D01*
X20669606Y-80399259D01*
X20578394Y-80451920D01*
X20503920Y-80526394D01*
X20451259Y-80617606D01*
X20424000Y-80719339D01*
X20424000Y-80731210D01*
X19765054Y-80072264D01*
X19765053Y-80072264D01*
X19739508Y-80107425D01*
X19666547Y-80250619D01*
X19617798Y-80302234D01*
X19548884Y-80319300D01*
X19481682Y-80296399D01*
X19442014Y-80250621D01*
X19368918Y-80107161D01*
X19251557Y-79945628D01*
X19251555Y-79945625D01*
X19110378Y-79804448D01*
X19110374Y-79804445D01*
X19110372Y-79804443D01*
X18969438Y-79702048D01*
X18926085Y-79645825D01*
X18917500Y-79600112D01*
X18917500Y-75902593D01*
X18937502Y-75834472D01*
X18954400Y-75813503D01*
X22426342Y-72341560D01*
X22488652Y-72307536D01*
X22535146Y-72306208D01*
X22535583Y-72306277D01*
X22535592Y-72306280D01*
X22739019Y-72338500D01*
X22739022Y-72338500D01*
X22944978Y-72338500D01*
X22944981Y-72338500D01*
X23148408Y-72306280D01*
X23178464Y-72296513D01*
X23249430Y-72294486D01*
X23310228Y-72331148D01*
G37*
G04 #@! TD.AperFunction*
G04 #@! TA.AperFunction,Conductor*
G36*
X27534075Y-94767007D02*
G01*
X27500000Y-94894174D01*
X27500000Y-95025826D01*
X27534075Y-95152993D01*
X27569297Y-95214000D01*
X25890703Y-95214000D01*
X25925925Y-95152993D01*
X25960000Y-95025826D01*
X25960000Y-94894174D01*
X25925925Y-94767007D01*
X25890703Y-94706000D01*
X27569297Y-94706000D01*
X27534075Y-94767007D01*
G37*
G04 #@! TD.AperFunction*
G04 #@! TA.AperFunction,Conductor*
G36*
X25714000Y-94529297D02*
G01*
X25652993Y-94494075D01*
X25525826Y-94460000D01*
X25394174Y-94460000D01*
X25267007Y-94494075D01*
X25206000Y-94529297D01*
X25206000Y-92850702D01*
X25267007Y-92885925D01*
X25394174Y-92920000D01*
X25525826Y-92920000D01*
X25652993Y-92885925D01*
X25714000Y-92850702D01*
X25714000Y-94529297D01*
G37*
G04 #@! TD.AperFunction*
G04 #@! TA.AperFunction,Conductor*
G36*
X28254000Y-94529297D02*
G01*
X28192993Y-94494075D01*
X28065826Y-94460000D01*
X27934174Y-94460000D01*
X27807007Y-94494075D01*
X27746000Y-94529297D01*
X27746000Y-92850702D01*
X27807007Y-92885925D01*
X27934174Y-92920000D01*
X28065826Y-92920000D01*
X28192993Y-92885925D01*
X28254000Y-92850702D01*
X28254000Y-94529297D01*
G37*
G04 #@! TD.AperFunction*
G04 #@! TA.AperFunction,Conductor*
G36*
X27534075Y-92227007D02*
G01*
X27500000Y-92354174D01*
X27500000Y-92485826D01*
X27534075Y-92612993D01*
X27569297Y-92674000D01*
X25890703Y-92674000D01*
X25925925Y-92612993D01*
X25960000Y-92485826D01*
X25960000Y-92354174D01*
X25925925Y-92227007D01*
X25890703Y-92166000D01*
X27569297Y-92166000D01*
X27534075Y-92227007D01*
G37*
G04 #@! TD.AperFunction*
G04 #@! TA.AperFunction,Conductor*
G36*
X25714000Y-91989297D02*
G01*
X25652993Y-91954075D01*
X25525826Y-91920000D01*
X25394174Y-91920000D01*
X25267007Y-91954075D01*
X25206000Y-91989297D01*
X25206000Y-90310702D01*
X25267007Y-90345925D01*
X25394174Y-90380000D01*
X25525826Y-90380000D01*
X25652993Y-90345925D01*
X25714000Y-90310702D01*
X25714000Y-91989297D01*
G37*
G04 #@! TD.AperFunction*
G04 #@! TA.AperFunction,Conductor*
G36*
X28254000Y-91989297D02*
G01*
X28192993Y-91954075D01*
X28065826Y-91920000D01*
X27934174Y-91920000D01*
X27807007Y-91954075D01*
X27746000Y-91989297D01*
X27746000Y-90310702D01*
X27807007Y-90345925D01*
X27934174Y-90380000D01*
X28065826Y-90380000D01*
X28192993Y-90345925D01*
X28254000Y-90310702D01*
X28254000Y-91989297D01*
G37*
G04 #@! TD.AperFunction*
G04 #@! TA.AperFunction,Conductor*
G36*
X27534075Y-89687007D02*
G01*
X27500000Y-89814174D01*
X27500000Y-89945826D01*
X27534075Y-90072993D01*
X27569297Y-90134000D01*
X25890703Y-90134000D01*
X25925925Y-90072993D01*
X25960000Y-89945826D01*
X25960000Y-89814174D01*
X25925925Y-89687007D01*
X25890703Y-89626000D01*
X27569297Y-89626000D01*
X27534075Y-89687007D01*
G37*
G04 #@! TD.AperFunction*
G04 #@! TA.AperFunction,Conductor*
G36*
X6294392Y-71733117D02*
G01*
X6306343Y-71741560D01*
X6372241Y-71794112D01*
X6523559Y-71889191D01*
X6639331Y-71961936D01*
X6639334Y-71961937D01*
X6639335Y-71961938D01*
X6923540Y-72098804D01*
X6923556Y-72098809D01*
X6923557Y-72098810D01*
X7221275Y-72202986D01*
X7221278Y-72202986D01*
X7221282Y-72202988D01*
X7528818Y-72273181D01*
X7731668Y-72296037D01*
X7797121Y-72323541D01*
X7837314Y-72382065D01*
X7839486Y-72453028D01*
X7806655Y-72510340D01*
X6487401Y-73829595D01*
X6425089Y-73863620D01*
X6398306Y-73866500D01*
X6035225Y-73866500D01*
X5967104Y-73846498D01*
X5922959Y-73797704D01*
X5904656Y-73761784D01*
X5774341Y-73582421D01*
X5617578Y-73425658D01*
X5515682Y-73351626D01*
X5472328Y-73295403D01*
X5466253Y-73224667D01*
X5499385Y-73161875D01*
X5499778Y-73161534D01*
X5499964Y-73159174D01*
X4824947Y-72484157D01*
X4892993Y-72465925D01*
X5007007Y-72400099D01*
X5100099Y-72307007D01*
X5165925Y-72192993D01*
X5184157Y-72124947D01*
X5859174Y-72799964D01*
X5859175Y-72799963D01*
X5904227Y-72737956D01*
X5904228Y-72737954D01*
X6004843Y-72540485D01*
X6004844Y-72540483D01*
X6073329Y-72329710D01*
X6108000Y-72110808D01*
X6108000Y-71889191D01*
X6103343Y-71859788D01*
X6112443Y-71789377D01*
X6158165Y-71735063D01*
X6225993Y-71714090D01*
X6294392Y-71733117D01*
G37*
G04 #@! TD.AperFunction*
G04 #@! TA.AperFunction,Conductor*
G36*
X8905527Y-58153502D02*
G01*
X8926501Y-58170405D01*
X11370437Y-60614341D01*
X11404463Y-60676653D01*
X11405791Y-60723147D01*
X11405721Y-60723588D01*
X11405720Y-60723592D01*
X11373500Y-60927019D01*
X11373500Y-61132981D01*
X11400721Y-61304843D01*
X11405721Y-61336412D01*
X11454781Y-61487404D01*
X11469366Y-61532290D01*
X11562871Y-61715803D01*
X11562873Y-61715806D01*
X11592802Y-61756999D01*
X11683932Y-61882430D01*
X11683934Y-61882432D01*
X11683936Y-61882435D01*
X11829564Y-62028063D01*
X11829567Y-62028065D01*
X11829570Y-62028068D01*
X11996197Y-62149129D01*
X12179710Y-62242634D01*
X12375592Y-62306280D01*
X12579019Y-62338500D01*
X12579022Y-62338500D01*
X12784978Y-62338500D01*
X12784981Y-62338500D01*
X12988408Y-62306280D01*
X13184290Y-62242634D01*
X13367803Y-62149129D01*
X13534430Y-62028068D01*
X13549298Y-62013200D01*
X13629405Y-61933094D01*
X13691717Y-61899068D01*
X13762532Y-61904133D01*
X13819368Y-61946680D01*
X13844179Y-62013200D01*
X13844500Y-62022189D01*
X13844500Y-64165723D01*
X13824498Y-64233844D01*
X13770842Y-64280337D01*
X13700568Y-64290441D01*
X13648499Y-64270489D01*
X13555875Y-64208600D01*
X13440587Y-64160846D01*
X13440585Y-64160845D01*
X13366886Y-64146185D01*
X13318196Y-64136500D01*
X13318194Y-64136500D01*
X11849606Y-64136500D01*
X11849603Y-64136500D01*
X11776568Y-64151028D01*
X11727215Y-64160845D01*
X11727213Y-64160845D01*
X11727212Y-64160846D01*
X11611923Y-64208601D01*
X11508171Y-64277926D01*
X11508164Y-64277931D01*
X11303101Y-64482995D01*
X11240789Y-64517021D01*
X11214006Y-64519900D01*
X10243031Y-64519900D01*
X10174910Y-64499898D01*
X10128417Y-64446242D01*
X10118313Y-64375968D01*
X10144520Y-64315340D01*
X10294112Y-64127759D01*
X10461938Y-63860665D01*
X10598804Y-63576460D01*
X10702988Y-63278718D01*
X10773181Y-62971182D01*
X10808102Y-62661257D01*
X10808500Y-62657723D01*
X10808500Y-62342276D01*
X10786737Y-62149129D01*
X10773181Y-62028818D01*
X10702988Y-61721282D01*
X10687486Y-61676980D01*
X10598810Y-61423557D01*
X10598809Y-61423556D01*
X10598804Y-61423540D01*
X10461938Y-61139335D01*
X10461937Y-61139334D01*
X10461936Y-61139331D01*
X10294109Y-60872237D01*
X10294105Y-60872231D01*
X10097436Y-60625618D01*
X10097427Y-60625608D01*
X9874391Y-60402572D01*
X9874381Y-60402563D01*
X9627768Y-60205894D01*
X9627762Y-60205890D01*
X9360668Y-60038063D01*
X9076469Y-59901200D01*
X9076464Y-59901198D01*
X9076460Y-59901196D01*
X9076454Y-59901193D01*
X9076442Y-59901189D01*
X8778724Y-59797013D01*
X8471185Y-59726819D01*
X8157724Y-59691500D01*
X8157722Y-59691500D01*
X7842278Y-59691500D01*
X7842276Y-59691500D01*
X7528814Y-59726819D01*
X7221275Y-59797013D01*
X6923557Y-59901189D01*
X6923530Y-59901200D01*
X6639331Y-60038063D01*
X6372237Y-60205890D01*
X6372233Y-60205893D01*
X6306351Y-60258432D01*
X6240621Y-60285266D01*
X6170817Y-60272304D01*
X6119103Y-60223661D01*
X6101897Y-60154781D01*
X6103343Y-60140209D01*
X6108000Y-60110807D01*
X6108000Y-59889191D01*
X6073329Y-59670289D01*
X6004844Y-59459516D01*
X6004843Y-59459514D01*
X5904229Y-59262047D01*
X5859174Y-59200035D01*
X5184157Y-59875051D01*
X5165925Y-59807007D01*
X5100099Y-59692993D01*
X5007007Y-59599901D01*
X4892993Y-59534075D01*
X4824946Y-59515841D01*
X5499963Y-58840824D01*
X5499177Y-58830839D01*
X5472328Y-58796019D01*
X5466254Y-58725283D01*
X5499387Y-58662492D01*
X5515676Y-58648377D01*
X5617576Y-58574343D01*
X5774343Y-58417576D01*
X5904657Y-58238215D01*
X5922959Y-58202296D01*
X5971707Y-58150681D01*
X6035225Y-58133500D01*
X8837406Y-58133500D01*
X8905527Y-58153502D01*
G37*
G04 #@! TD.AperFunction*
G04 #@! TA.AperFunction,Conductor*
G36*
X17072003Y-42799066D02*
G01*
X17077452Y-42797962D01*
X17105704Y-42808961D01*
X17134791Y-42817502D01*
X17139805Y-42822238D01*
X17143612Y-42823720D01*
X17168606Y-42849439D01*
X17227020Y-42929839D01*
X17289932Y-43016430D01*
X17289934Y-43016432D01*
X17289936Y-43016435D01*
X17435564Y-43162063D01*
X17435567Y-43162065D01*
X17435570Y-43162068D01*
X17602197Y-43283129D01*
X17785710Y-43376634D01*
X17981592Y-43440280D01*
X18185019Y-43472500D01*
X18185022Y-43472500D01*
X18390977Y-43472500D01*
X18390981Y-43472500D01*
X18537018Y-43449369D01*
X18607423Y-43458468D01*
X18661738Y-43504190D01*
X18682711Y-43572018D01*
X18663684Y-43640417D01*
X18661491Y-43643818D01*
X18631825Y-43688217D01*
X18574650Y-43826250D01*
X18574649Y-43826253D01*
X18545500Y-43972790D01*
X18545500Y-48116426D01*
X18525498Y-48184547D01*
X18493561Y-48218362D01*
X18411569Y-48277932D01*
X18273972Y-48415529D01*
X18211660Y-48449554D01*
X18140844Y-48444489D01*
X18084009Y-48401942D01*
X18066821Y-48370465D01*
X18014444Y-48230034D01*
X17926904Y-48113095D01*
X17809965Y-48025555D01*
X17673093Y-47974505D01*
X17612597Y-47968000D01*
X17018000Y-47968000D01*
X17018000Y-48964314D01*
X17009606Y-48955920D01*
X16918394Y-48903259D01*
X16816661Y-48876000D01*
X16711339Y-48876000D01*
X16609606Y-48903259D01*
X16518394Y-48955920D01*
X16510000Y-48964314D01*
X16510000Y-47968000D01*
X15915402Y-47968000D01*
X15854906Y-47974505D01*
X15718035Y-48025555D01*
X15718034Y-48025555D01*
X15601095Y-48113095D01*
X15513555Y-48230034D01*
X15513555Y-48230035D01*
X15462505Y-48366906D01*
X15456000Y-48427402D01*
X15456000Y-49022000D01*
X16452314Y-49022000D01*
X16443920Y-49030394D01*
X16391259Y-49121606D01*
X16364000Y-49223339D01*
X16364000Y-49328661D01*
X16391259Y-49430394D01*
X16443920Y-49521606D01*
X16452314Y-49530000D01*
X15456000Y-49530000D01*
X15456000Y-50124597D01*
X15462505Y-50185093D01*
X15513555Y-50321964D01*
X15513555Y-50321965D01*
X15601095Y-50438904D01*
X15718034Y-50526444D01*
X15854906Y-50577494D01*
X15915402Y-50583999D01*
X15915415Y-50584000D01*
X16510000Y-50584000D01*
X16510000Y-49587686D01*
X16518394Y-49596080D01*
X16609606Y-49648741D01*
X16711339Y-49676000D01*
X16816661Y-49676000D01*
X16918394Y-49648741D01*
X17009606Y-49596080D01*
X17018000Y-49587686D01*
X17018000Y-50591846D01*
X17042589Y-50636876D01*
X17037524Y-50707691D01*
X17008563Y-50752754D01*
X15030740Y-52730577D01*
X15030735Y-52730583D01*
X14947726Y-52854815D01*
X14893206Y-52986440D01*
X14890550Y-52992851D01*
X14890548Y-52992857D01*
X14861400Y-53139390D01*
X14861400Y-53998622D01*
X14841398Y-54066743D01*
X14805404Y-54103385D01*
X14777371Y-54122116D01*
X14777365Y-54122121D01*
X14650820Y-54248667D01*
X14650819Y-54248669D01*
X14551399Y-54397462D01*
X14482914Y-54562796D01*
X14448000Y-54738318D01*
X14448000Y-54738321D01*
X14448000Y-54917279D01*
X14482913Y-55092800D01*
X14482914Y-55092802D01*
X14482915Y-55092807D01*
X14536546Y-55222281D01*
X14544136Y-55292871D01*
X14512357Y-55356358D01*
X14451300Y-55392586D01*
X14420138Y-55396500D01*
X13903330Y-55396500D01*
X13835209Y-55376498D01*
X13801394Y-55344561D01*
X13738602Y-55258136D01*
X13680068Y-55177570D01*
X13680065Y-55177567D01*
X13680063Y-55177564D01*
X13534435Y-55031936D01*
X13534432Y-55031934D01*
X13534430Y-55031932D01*
X13367803Y-54910871D01*
X13184290Y-54817366D01*
X13184287Y-54817365D01*
X13184285Y-54817364D01*
X12988412Y-54753721D01*
X12988410Y-54753720D01*
X12988408Y-54753720D01*
X12784981Y-54721500D01*
X12579019Y-54721500D01*
X12426448Y-54745665D01*
X12375591Y-54753720D01*
X12328235Y-54769107D01*
X12257267Y-54771133D01*
X12196470Y-54734470D01*
X12165145Y-54670757D01*
X12163300Y-54649273D01*
X12163300Y-50210094D01*
X12183302Y-50141973D01*
X12200200Y-50121003D01*
X13492072Y-48829133D01*
X13561401Y-48725375D01*
X13592124Y-48651199D01*
X13636671Y-48595920D01*
X13664502Y-48581362D01*
X13704673Y-48566379D01*
X13746204Y-48550889D01*
X13863261Y-48463261D01*
X13892978Y-48423564D01*
X13949151Y-48348526D01*
X13949152Y-48348525D01*
X13949153Y-48348523D01*
X13950889Y-48346204D01*
X14001989Y-48209201D01*
X14002700Y-48202595D01*
X14008499Y-48148649D01*
X14008500Y-48148632D01*
X14008500Y-45851367D01*
X14008499Y-45851350D01*
X14001990Y-45790803D01*
X14001988Y-45790795D01*
X13950889Y-45653797D01*
X13950887Y-45653792D01*
X13863261Y-45536738D01*
X13746207Y-45449112D01*
X13746204Y-45449111D01*
X13661789Y-45417625D01*
X13604954Y-45375078D01*
X13580144Y-45308557D01*
X13595236Y-45239183D01*
X13616725Y-45210478D01*
X15992799Y-42834405D01*
X16055111Y-42800379D01*
X16081894Y-42797500D01*
X17066670Y-42797500D01*
X17072003Y-42799066D01*
G37*
G04 #@! TD.AperFunction*
G04 #@! TA.AperFunction,Conductor*
G36*
X24522408Y-37106436D02*
G01*
X24579244Y-37148983D01*
X24602825Y-37204781D01*
X24632208Y-37390296D01*
X24695826Y-37586093D01*
X24695829Y-37586099D01*
X24789300Y-37769545D01*
X24910315Y-37936107D01*
X24910317Y-37936110D01*
X25055889Y-38081682D01*
X25055892Y-38081684D01*
X25222455Y-38202700D01*
X25298511Y-38241453D01*
X25350126Y-38290202D01*
X25367192Y-38359117D01*
X25344291Y-38426318D01*
X25298511Y-38465987D01*
X25222193Y-38504872D01*
X25055567Y-38625934D01*
X25055564Y-38625936D01*
X24909936Y-38771564D01*
X24909934Y-38771567D01*
X24788873Y-38938193D01*
X24695367Y-39121708D01*
X24695364Y-39121714D01*
X24631721Y-39317587D01*
X24631720Y-39317590D01*
X24631720Y-39317592D01*
X24599500Y-39521019D01*
X24599500Y-39726981D01*
X24628786Y-39911881D01*
X24631721Y-39930412D01*
X24685382Y-40095564D01*
X24695366Y-40126290D01*
X24788871Y-40309803D01*
X24909932Y-40476430D01*
X24909934Y-40476432D01*
X24909936Y-40476435D01*
X25055564Y-40622063D01*
X25055567Y-40622065D01*
X25055570Y-40622068D01*
X25222197Y-40743129D01*
X25297962Y-40781733D01*
X25349577Y-40830482D01*
X25366643Y-40899397D01*
X25343742Y-40966598D01*
X25297963Y-41006266D01*
X25229033Y-41041387D01*
X25222193Y-41044873D01*
X25055567Y-41165934D01*
X25055564Y-41165936D01*
X24909936Y-41311564D01*
X24909934Y-41311567D01*
X24788873Y-41478193D01*
X24695367Y-41661708D01*
X24695364Y-41661714D01*
X24631721Y-41857587D01*
X24631720Y-41857590D01*
X24631720Y-41857592D01*
X24599500Y-42061019D01*
X24599500Y-42266981D01*
X24625391Y-42430448D01*
X24631721Y-42470412D01*
X24664699Y-42571909D01*
X24695366Y-42666290D01*
X24788871Y-42849803D01*
X24909932Y-43016430D01*
X24909934Y-43016432D01*
X24909936Y-43016435D01*
X25055564Y-43162063D01*
X25055567Y-43162065D01*
X25055570Y-43162068D01*
X25222197Y-43283129D01*
X25405710Y-43376634D01*
X25601592Y-43440280D01*
X25805019Y-43472500D01*
X25805022Y-43472500D01*
X26010978Y-43472500D01*
X26010981Y-43472500D01*
X26214408Y-43440280D01*
X26214411Y-43440278D01*
X26214853Y-43440209D01*
X26285264Y-43449309D01*
X26323659Y-43475563D01*
X27777595Y-44929499D01*
X27811621Y-44991811D01*
X27814500Y-45018594D01*
X27814500Y-48087981D01*
X27794498Y-48156102D01*
X27740842Y-48202595D01*
X27670568Y-48212699D01*
X27614440Y-48189918D01*
X27569543Y-48157299D01*
X27386099Y-48063829D01*
X27386093Y-48063826D01*
X27190294Y-48000208D01*
X27190298Y-48000208D01*
X26986939Y-47968000D01*
X26781061Y-47968000D01*
X26577703Y-48000208D01*
X26381906Y-48063826D01*
X26381900Y-48063829D01*
X26198452Y-48157301D01*
X26155626Y-48188415D01*
X26843211Y-48876000D01*
X26831339Y-48876000D01*
X26729606Y-48903259D01*
X26638394Y-48955920D01*
X26563920Y-49030394D01*
X26511259Y-49121606D01*
X26484000Y-49223339D01*
X26484000Y-49235209D01*
X25784816Y-48536025D01*
X25758665Y-48530531D01*
X25708106Y-48480689D01*
X25693703Y-48430626D01*
X25692861Y-48430717D01*
X25685990Y-48366803D01*
X25685988Y-48366795D01*
X25634978Y-48230035D01*
X25634889Y-48229796D01*
X25634888Y-48229794D01*
X25634887Y-48229792D01*
X25547261Y-48112738D01*
X25430207Y-48025112D01*
X25430202Y-48025110D01*
X25293204Y-47974011D01*
X25293196Y-47974009D01*
X25232649Y-47967500D01*
X25232638Y-47967500D01*
X23535362Y-47967500D01*
X23535350Y-47967500D01*
X23474803Y-47974009D01*
X23474795Y-47974011D01*
X23337797Y-48025110D01*
X23337792Y-48025112D01*
X23220738Y-48112738D01*
X23133112Y-48229792D01*
X23133110Y-48229797D01*
X23082011Y-48366795D01*
X23082009Y-48366803D01*
X23075500Y-48427350D01*
X23075500Y-50124649D01*
X23082009Y-50185196D01*
X23082011Y-50185204D01*
X23133110Y-50322202D01*
X23133112Y-50322207D01*
X23220738Y-50439261D01*
X23337792Y-50526887D01*
X23337794Y-50526888D01*
X23337796Y-50526889D01*
X23396875Y-50548924D01*
X23474795Y-50577988D01*
X23474803Y-50577990D01*
X23535350Y-50584499D01*
X23535355Y-50584499D01*
X23535362Y-50584500D01*
X23535368Y-50584500D01*
X25232632Y-50584500D01*
X25232638Y-50584500D01*
X25232645Y-50584499D01*
X25232649Y-50584499D01*
X25293196Y-50577990D01*
X25293199Y-50577989D01*
X25293201Y-50577989D01*
X25298309Y-50576084D01*
X25312045Y-50570960D01*
X25430204Y-50526889D01*
X25430799Y-50526444D01*
X25547261Y-50439261D01*
X25634887Y-50322207D01*
X25634887Y-50322206D01*
X25634889Y-50322204D01*
X25685989Y-50185201D01*
X25690637Y-50141973D01*
X25692861Y-50121283D01*
X25693979Y-50121403D01*
X25716038Y-50058815D01*
X25772093Y-50015244D01*
X25787907Y-50012881D01*
X26484000Y-49316788D01*
X26484000Y-49328661D01*
X26511259Y-49430394D01*
X26563920Y-49521606D01*
X26638394Y-49596080D01*
X26729606Y-49648741D01*
X26831339Y-49676000D01*
X26843208Y-49676000D01*
X26155626Y-50363581D01*
X26155626Y-50363583D01*
X26198454Y-50394699D01*
X26381900Y-50488170D01*
X26381906Y-50488173D01*
X26577705Y-50551791D01*
X26577701Y-50551791D01*
X26731082Y-50576084D01*
X26795235Y-50606496D01*
X26832762Y-50666764D01*
X26831748Y-50737754D01*
X26800466Y-50789628D01*
X23650501Y-53939595D01*
X23588189Y-53973620D01*
X23561406Y-53976500D01*
X17448503Y-53976500D01*
X17375468Y-53991028D01*
X17326115Y-54000845D01*
X17326113Y-54000845D01*
X17326112Y-54000846D01*
X17210823Y-54048601D01*
X17107071Y-54117926D01*
X17107069Y-54117927D01*
X16593495Y-54631500D01*
X16531183Y-54665525D01*
X16460367Y-54660460D01*
X16403532Y-54617913D01*
X16378721Y-54551392D01*
X16378400Y-54542404D01*
X16378400Y-53580471D01*
X16398402Y-53512350D01*
X16415305Y-53491376D01*
X17176104Y-52730577D01*
X19285486Y-50621194D01*
X19347796Y-50587170D01*
X19364701Y-50584679D01*
X19366965Y-50584500D01*
X19366981Y-50584500D01*
X19570408Y-50552280D01*
X19766290Y-50488634D01*
X19949803Y-50395129D01*
X20116430Y-50274068D01*
X20262068Y-50128430D01*
X20383129Y-49961803D01*
X20476634Y-49778290D01*
X20540280Y-49582408D01*
X20572500Y-49378981D01*
X20572500Y-49173019D01*
X20540280Y-48969592D01*
X20476634Y-48773710D01*
X20383129Y-48590197D01*
X20319043Y-48501990D01*
X20316180Y-48498049D01*
X20277266Y-48444489D01*
X20262068Y-48423570D01*
X20262065Y-48423567D01*
X20262063Y-48423564D01*
X20116433Y-48277934D01*
X20116426Y-48277928D01*
X20114429Y-48276477D01*
X20113854Y-48275731D01*
X20112663Y-48274714D01*
X20112876Y-48274463D01*
X20071081Y-48220250D01*
X20062500Y-48174548D01*
X20062500Y-44413871D01*
X20082502Y-44345750D01*
X20099405Y-44324776D01*
X20735965Y-43688216D01*
X21443465Y-42980716D01*
X21526473Y-42856485D01*
X21526474Y-42856484D01*
X21583651Y-42718446D01*
X21612800Y-42571906D01*
X21612800Y-39964070D01*
X21632802Y-39895949D01*
X21649700Y-39874980D01*
X24389286Y-37135394D01*
X24451593Y-37101372D01*
X24522408Y-37106436D01*
G37*
G04 #@! TD.AperFunction*
G04 #@! TA.AperFunction,Conductor*
G36*
X13360050Y-32243102D02*
G01*
X13381024Y-32260005D01*
X16148534Y-35027515D01*
X16148535Y-35027516D01*
X16254184Y-35133165D01*
X16378416Y-35216174D01*
X16428176Y-35236785D01*
X16516453Y-35273351D01*
X16589724Y-35287925D01*
X16662994Y-35302500D01*
X16662995Y-35302500D01*
X16812405Y-35302500D01*
X17157488Y-35302500D01*
X17225609Y-35322502D01*
X17259423Y-35354438D01*
X17289932Y-35396430D01*
X17289934Y-35396432D01*
X17289936Y-35396435D01*
X17435564Y-35542063D01*
X17435567Y-35542065D01*
X17435570Y-35542068D01*
X17602197Y-35663129D01*
X17677962Y-35701733D01*
X17729577Y-35750482D01*
X17746643Y-35819397D01*
X17723742Y-35886598D01*
X17677963Y-35926266D01*
X17677416Y-35926545D01*
X17602193Y-35964873D01*
X17435567Y-36085934D01*
X17435564Y-36085936D01*
X17289936Y-36231564D01*
X17289934Y-36231567D01*
X17168873Y-36398193D01*
X17075367Y-36581708D01*
X17075364Y-36581714D01*
X17011721Y-36777587D01*
X17011720Y-36777590D01*
X17011720Y-36777592D01*
X16979500Y-36981019D01*
X16979500Y-37186981D01*
X17011720Y-37390408D01*
X17011721Y-37390412D01*
X17072745Y-37578225D01*
X17075366Y-37586290D01*
X17168871Y-37769803D01*
X17289932Y-37936430D01*
X17289934Y-37936432D01*
X17289936Y-37936435D01*
X17435564Y-38082063D01*
X17435567Y-38082065D01*
X17435570Y-38082068D01*
X17602197Y-38203129D01*
X17677962Y-38241733D01*
X17729577Y-38290482D01*
X17746643Y-38359397D01*
X17723742Y-38426598D01*
X17677963Y-38466266D01*
X17609033Y-38501387D01*
X17602193Y-38504873D01*
X17435567Y-38625934D01*
X17435564Y-38625936D01*
X17289936Y-38771564D01*
X17289934Y-38771567D01*
X17168873Y-38938193D01*
X17075367Y-39121708D01*
X17075364Y-39121714D01*
X17011721Y-39317587D01*
X17011720Y-39317590D01*
X17011720Y-39317592D01*
X16979500Y-39521019D01*
X16979500Y-39726981D01*
X17008786Y-39911881D01*
X17011721Y-39930412D01*
X17065382Y-40095564D01*
X17067409Y-40166532D01*
X17030747Y-40227329D01*
X16967035Y-40258655D01*
X16945549Y-40260500D01*
X15431603Y-40260500D01*
X15358568Y-40275028D01*
X15309215Y-40284845D01*
X15309213Y-40284845D01*
X15309212Y-40284846D01*
X15193923Y-40332601D01*
X15090171Y-40401926D01*
X15090164Y-40401931D01*
X7184971Y-48307124D01*
X7122659Y-48341150D01*
X7051844Y-48336085D01*
X6995008Y-48293538D01*
X6970197Y-48227018D01*
X6977820Y-48173998D01*
X7001989Y-48109201D01*
X7004271Y-48087981D01*
X7008499Y-48048649D01*
X7008500Y-48048632D01*
X7008500Y-46951367D01*
X7008499Y-46951350D01*
X7001990Y-46890803D01*
X7001988Y-46890795D01*
X6950889Y-46753797D01*
X6950887Y-46753792D01*
X6863261Y-46636738D01*
X6746207Y-46549112D01*
X6746202Y-46549110D01*
X6609204Y-46498011D01*
X6609196Y-46498009D01*
X6548649Y-46491500D01*
X6548638Y-46491500D01*
X4315500Y-46491500D01*
X4247379Y-46471498D01*
X4200886Y-46417842D01*
X4189500Y-46365500D01*
X4189500Y-39951350D01*
X6791500Y-39951350D01*
X6791500Y-41048649D01*
X6798009Y-41109196D01*
X6798011Y-41109204D01*
X6849110Y-41246202D01*
X6849112Y-41246207D01*
X6936738Y-41363261D01*
X7053792Y-41450887D01*
X7053794Y-41450888D01*
X7053796Y-41450889D01*
X7112875Y-41472924D01*
X7190795Y-41501988D01*
X7190803Y-41501990D01*
X7251350Y-41508499D01*
X7251355Y-41508499D01*
X7251362Y-41508500D01*
X7251368Y-41508500D01*
X9548632Y-41508500D01*
X9548638Y-41508500D01*
X9548645Y-41508499D01*
X9548649Y-41508499D01*
X9609196Y-41501990D01*
X9609199Y-41501989D01*
X9609201Y-41501989D01*
X9746204Y-41450889D01*
X9749344Y-41448539D01*
X9863261Y-41363261D01*
X9950887Y-41246207D01*
X9950887Y-41246206D01*
X9950889Y-41246204D01*
X10001989Y-41109201D01*
X10008500Y-41048638D01*
X10008500Y-39951362D01*
X10006248Y-39930412D01*
X10001990Y-39890803D01*
X10001988Y-39890795D01*
X9950889Y-39753797D01*
X9950887Y-39753792D01*
X9863261Y-39636738D01*
X9746207Y-39549112D01*
X9746202Y-39549110D01*
X9609204Y-39498011D01*
X9609196Y-39498009D01*
X9548649Y-39491500D01*
X9548638Y-39491500D01*
X7251362Y-39491500D01*
X7251350Y-39491500D01*
X7190803Y-39498009D01*
X7190795Y-39498011D01*
X7053797Y-39549110D01*
X7053792Y-39549112D01*
X6936738Y-39636738D01*
X6849112Y-39753792D01*
X6849110Y-39753797D01*
X6798011Y-39890795D01*
X6798009Y-39890803D01*
X6791500Y-39951350D01*
X4189500Y-39951350D01*
X4189500Y-38192894D01*
X4209502Y-38124773D01*
X4226405Y-38103799D01*
X5078854Y-37251350D01*
X8191500Y-37251350D01*
X8191500Y-38348649D01*
X8198009Y-38409196D01*
X8198011Y-38409204D01*
X8249110Y-38546202D01*
X8249112Y-38546207D01*
X8336738Y-38663261D01*
X8453792Y-38750887D01*
X8453794Y-38750888D01*
X8453796Y-38750889D01*
X8509227Y-38771564D01*
X8590795Y-38801988D01*
X8590803Y-38801990D01*
X8651350Y-38808499D01*
X8651355Y-38808499D01*
X8651362Y-38808500D01*
X8651368Y-38808500D01*
X10948632Y-38808500D01*
X10948638Y-38808500D01*
X10948645Y-38808499D01*
X10948649Y-38808499D01*
X11009196Y-38801990D01*
X11009199Y-38801989D01*
X11009201Y-38801989D01*
X11146204Y-38750889D01*
X11150486Y-38747684D01*
X11263261Y-38663261D01*
X11350887Y-38546207D01*
X11350887Y-38546206D01*
X11350889Y-38546204D01*
X11398991Y-38417239D01*
X11401988Y-38409204D01*
X11401990Y-38409196D01*
X11408499Y-38348649D01*
X11408500Y-38348632D01*
X11408500Y-37251367D01*
X11408499Y-37251350D01*
X11401990Y-37190803D01*
X11401988Y-37190795D01*
X11350889Y-37053797D01*
X11350887Y-37053792D01*
X11263261Y-36936738D01*
X11146207Y-36849112D01*
X11146202Y-36849110D01*
X11009204Y-36798011D01*
X11009196Y-36798009D01*
X10948649Y-36791500D01*
X10948638Y-36791500D01*
X8651362Y-36791500D01*
X8651350Y-36791500D01*
X8590803Y-36798009D01*
X8590795Y-36798011D01*
X8453797Y-36849110D01*
X8453792Y-36849112D01*
X8336738Y-36936738D01*
X8249112Y-37053792D01*
X8249110Y-37053797D01*
X8198011Y-37190795D01*
X8198009Y-37190803D01*
X8191500Y-37251350D01*
X5078854Y-37251350D01*
X5171311Y-37158893D01*
X5838222Y-36491982D01*
X6588071Y-35742133D01*
X6657400Y-35638375D01*
X6692229Y-35554290D01*
X6705155Y-35523085D01*
X6729500Y-35400694D01*
X6729500Y-33585694D01*
X6749502Y-33517573D01*
X6766405Y-33496599D01*
X7366405Y-32896599D01*
X7428717Y-32862573D01*
X7499532Y-32867638D01*
X7556368Y-32910185D01*
X7581179Y-32976705D01*
X7581500Y-32985694D01*
X7581500Y-33868649D01*
X7588009Y-33929196D01*
X7588011Y-33929204D01*
X7639110Y-34066202D01*
X7639112Y-34066207D01*
X7726738Y-34183261D01*
X7843792Y-34270887D01*
X7843794Y-34270888D01*
X7843796Y-34270889D01*
X7902875Y-34292924D01*
X7980795Y-34321988D01*
X7980803Y-34321990D01*
X8041350Y-34328499D01*
X8041355Y-34328499D01*
X8041362Y-34328500D01*
X8041368Y-34328500D01*
X9738632Y-34328500D01*
X9738638Y-34328500D01*
X9738645Y-34328499D01*
X9738649Y-34328499D01*
X9799196Y-34321990D01*
X9799199Y-34321989D01*
X9799201Y-34321989D01*
X9936204Y-34270889D01*
X9980684Y-34237592D01*
X10053261Y-34183261D01*
X10140887Y-34066207D01*
X10140887Y-34066206D01*
X10140889Y-34066204D01*
X10191989Y-33929201D01*
X10198500Y-33868638D01*
X10198500Y-33859811D01*
X10202124Y-33845517D01*
X10214169Y-33825140D01*
X10222038Y-33802815D01*
X10231898Y-33795150D01*
X10238253Y-33784401D01*
X10259404Y-33773770D01*
X10278093Y-33759244D01*
X10292627Y-33757072D01*
X10294818Y-33755971D01*
X10990000Y-33060789D01*
X10990000Y-33072661D01*
X11017259Y-33174394D01*
X11069920Y-33265606D01*
X11144394Y-33340080D01*
X11235606Y-33392741D01*
X11337339Y-33420000D01*
X11349210Y-33420000D01*
X10661626Y-34107582D01*
X10661626Y-34107583D01*
X10704454Y-34138699D01*
X10887900Y-34232170D01*
X10887906Y-34232173D01*
X11083705Y-34295791D01*
X11083701Y-34295791D01*
X11287061Y-34328000D01*
X11492939Y-34328000D01*
X11696296Y-34295791D01*
X11892093Y-34232173D01*
X11892099Y-34232170D01*
X12075541Y-34138701D01*
X12118372Y-34107582D01*
X12118372Y-34107581D01*
X11430791Y-33420000D01*
X11442661Y-33420000D01*
X11544394Y-33392741D01*
X11635606Y-33340080D01*
X11710080Y-33265606D01*
X11762741Y-33174394D01*
X11790000Y-33072661D01*
X11790000Y-33060789D01*
X12477582Y-33748372D01*
X12508701Y-33705541D01*
X12602170Y-33522099D01*
X12602173Y-33522093D01*
X12665791Y-33326296D01*
X12698000Y-33122938D01*
X12698000Y-32917061D01*
X12665791Y-32713703D01*
X12602173Y-32517906D01*
X12602170Y-32517900D01*
X12545309Y-32406303D01*
X12532205Y-32336526D01*
X12558905Y-32270741D01*
X12616933Y-32229835D01*
X12657576Y-32223100D01*
X13291929Y-32223100D01*
X13360050Y-32243102D01*
G37*
G04 #@! TD.AperFunction*
G04 #@! TA.AperFunction,Conductor*
G36*
X29916621Y-45502D02*
G01*
X29963114Y-99158D01*
X29974500Y-151500D01*
X29974500Y-99848500D01*
X29954498Y-99916621D01*
X29900842Y-99963114D01*
X29848500Y-99974500D01*
X151500Y-99974500D01*
X83379Y-99954498D01*
X36886Y-99900842D01*
X25500Y-99848500D01*
X25500Y-97951350D01*
X3791500Y-97951350D01*
X3791500Y-99048649D01*
X3798009Y-99109196D01*
X3798011Y-99109204D01*
X3849110Y-99246202D01*
X3849112Y-99246207D01*
X3936738Y-99363261D01*
X4053792Y-99450887D01*
X4053794Y-99450888D01*
X4053796Y-99450889D01*
X4112875Y-99472924D01*
X4190795Y-99501988D01*
X4190803Y-99501990D01*
X4251350Y-99508499D01*
X4251355Y-99508499D01*
X4251362Y-99508500D01*
X4251368Y-99508500D01*
X6548632Y-99508500D01*
X6548638Y-99508500D01*
X6548645Y-99508499D01*
X6548649Y-99508499D01*
X6609196Y-99501990D01*
X6609199Y-99501989D01*
X6609201Y-99501989D01*
X6746204Y-99450889D01*
X6863261Y-99363261D01*
X6950887Y-99246207D01*
X6950887Y-99246206D01*
X6950889Y-99246204D01*
X7001989Y-99109201D01*
X7008500Y-99048638D01*
X7008500Y-97951362D01*
X7002432Y-97894915D01*
X7001990Y-97890803D01*
X7001988Y-97890795D01*
X6950889Y-97753797D01*
X6950887Y-97753792D01*
X6863261Y-97636738D01*
X6746207Y-97549112D01*
X6746202Y-97549110D01*
X6609204Y-97498011D01*
X6609196Y-97498009D01*
X6548649Y-97491500D01*
X6548638Y-97491500D01*
X4251362Y-97491500D01*
X4251350Y-97491500D01*
X4190803Y-97498009D01*
X4190795Y-97498011D01*
X4053797Y-97549110D01*
X4053792Y-97549112D01*
X3936738Y-97636738D01*
X3849112Y-97753792D01*
X3849110Y-97753797D01*
X3798011Y-97890795D01*
X3798009Y-97890803D01*
X3791500Y-97951350D01*
X25500Y-97951350D01*
X25500Y-96851350D01*
X11991500Y-96851350D01*
X11991500Y-99148649D01*
X11998009Y-99209196D01*
X11998011Y-99209204D01*
X12049110Y-99346202D01*
X12049112Y-99346207D01*
X12136738Y-99463261D01*
X12253792Y-99550887D01*
X12253794Y-99550888D01*
X12253796Y-99550889D01*
X12312875Y-99572924D01*
X12390795Y-99601988D01*
X12390803Y-99601990D01*
X12451350Y-99608499D01*
X12451355Y-99608499D01*
X12451362Y-99608500D01*
X12451368Y-99608500D01*
X13548632Y-99608500D01*
X13548638Y-99608500D01*
X13548645Y-99608499D01*
X13548649Y-99608499D01*
X13609196Y-99601990D01*
X13609199Y-99601989D01*
X13609201Y-99601989D01*
X13746204Y-99550889D01*
X13863261Y-99463261D01*
X13950889Y-99346204D01*
X14001989Y-99209201D01*
X14008500Y-99148638D01*
X14008500Y-96851362D01*
X14008499Y-96851350D01*
X14001990Y-96790803D01*
X14001989Y-96790802D01*
X14001989Y-96790799D01*
X13950889Y-96653796D01*
X13950888Y-96653794D01*
X13950887Y-96653792D01*
X13863261Y-96536738D01*
X13746207Y-96449112D01*
X13746202Y-96449110D01*
X13609204Y-96398011D01*
X13609196Y-96398009D01*
X13548649Y-96391500D01*
X13548638Y-96391500D01*
X12451362Y-96391500D01*
X12451350Y-96391500D01*
X12390803Y-96398009D01*
X12390795Y-96398011D01*
X12253797Y-96449110D01*
X12253792Y-96449112D01*
X12136738Y-96536738D01*
X12049112Y-96653792D01*
X12049110Y-96653797D01*
X11998011Y-96790795D01*
X11998009Y-96790803D01*
X11991500Y-96851350D01*
X25500Y-96851350D01*
X25500Y-95148597D01*
X992000Y-95148597D01*
X998505Y-95209093D01*
X1049555Y-95345964D01*
X1049555Y-95345965D01*
X1137095Y-95462904D01*
X1254034Y-95550444D01*
X1390906Y-95601494D01*
X1451402Y-95607999D01*
X1451415Y-95608000D01*
X1746000Y-95608000D01*
X2254000Y-95608000D01*
X2548585Y-95608000D01*
X2548597Y-95607999D01*
X2609093Y-95601494D01*
X2745964Y-95550444D01*
X2745965Y-95550444D01*
X2862904Y-95462904D01*
X2950444Y-95345965D01*
X2950444Y-95345964D01*
X3001494Y-95209093D01*
X3007999Y-95148597D01*
X3008000Y-95148585D01*
X3008000Y-94254000D01*
X2254000Y-94254000D01*
X2254000Y-95608000D01*
X1746000Y-95608000D01*
X1746000Y-94254000D01*
X992000Y-94254000D01*
X992000Y-95148597D01*
X25500Y-95148597D01*
X25500Y-92851402D01*
X992000Y-92851402D01*
X992000Y-93746000D01*
X1746000Y-93746000D01*
X1746000Y-93560218D01*
X1800000Y-93560218D01*
X1800000Y-94439782D01*
X1830448Y-94513291D01*
X1886709Y-94569552D01*
X1960218Y-94600000D01*
X2039782Y-94600000D01*
X2113291Y-94569552D01*
X2169552Y-94513291D01*
X2200000Y-94439782D01*
X2200000Y-93746000D01*
X2254000Y-93746000D01*
X3008000Y-93746000D01*
X3008000Y-92851414D01*
X3007999Y-92851402D01*
X3001494Y-92790906D01*
X2950444Y-92654035D01*
X2950444Y-92654034D01*
X2862904Y-92537095D01*
X2745965Y-92449555D01*
X2609093Y-92398505D01*
X2548597Y-92392000D01*
X2254000Y-92392000D01*
X2254000Y-93746000D01*
X2200000Y-93746000D01*
X2200000Y-93560218D01*
X2169552Y-93486709D01*
X2113291Y-93430448D01*
X2039782Y-93400000D01*
X1960218Y-93400000D01*
X1886709Y-93430448D01*
X1830448Y-93486709D01*
X1800000Y-93560218D01*
X1746000Y-93560218D01*
X1746000Y-92392000D01*
X1451402Y-92392000D01*
X1390906Y-92398505D01*
X1254035Y-92449555D01*
X1254034Y-92449555D01*
X1137095Y-92537095D01*
X1049555Y-92654034D01*
X1049555Y-92654035D01*
X998505Y-92790906D01*
X992000Y-92851402D01*
X25500Y-92851402D01*
X25500Y-90951350D01*
X6791500Y-90951350D01*
X6791500Y-92048649D01*
X6798009Y-92109196D01*
X6798011Y-92109204D01*
X6849110Y-92246202D01*
X6849112Y-92246207D01*
X6936738Y-92363261D01*
X7053792Y-92450887D01*
X7053794Y-92450888D01*
X7053796Y-92450889D01*
X7112875Y-92472924D01*
X7190795Y-92501988D01*
X7190803Y-92501990D01*
X7251350Y-92508499D01*
X7251355Y-92508499D01*
X7251362Y-92508500D01*
X7251368Y-92508500D01*
X9548632Y-92508500D01*
X9548638Y-92508500D01*
X9548645Y-92508499D01*
X9548649Y-92508499D01*
X9609196Y-92501990D01*
X9609199Y-92501989D01*
X9609201Y-92501989D01*
X9746204Y-92450889D01*
X9863261Y-92363261D01*
X9950889Y-92246204D01*
X10001989Y-92109201D01*
X10002222Y-92107041D01*
X10008499Y-92048649D01*
X10008500Y-92048632D01*
X10008500Y-90951367D01*
X10008499Y-90951350D01*
X10001990Y-90890803D01*
X10001988Y-90890795D01*
X9950889Y-90753797D01*
X9950887Y-90753792D01*
X9863261Y-90636738D01*
X9746207Y-90549112D01*
X9746202Y-90549110D01*
X9609204Y-90498011D01*
X9609196Y-90498009D01*
X9548649Y-90491500D01*
X9548638Y-90491500D01*
X7251362Y-90491500D01*
X7251350Y-90491500D01*
X7190803Y-90498009D01*
X7190795Y-90498011D01*
X7053797Y-90549110D01*
X7053792Y-90549112D01*
X6936738Y-90636738D01*
X6849112Y-90753792D01*
X6849110Y-90753797D01*
X6798011Y-90890795D01*
X6798009Y-90890803D01*
X6791500Y-90951350D01*
X25500Y-90951350D01*
X25500Y-44148597D01*
X992000Y-44148597D01*
X998505Y-44209093D01*
X1049555Y-44345964D01*
X1049555Y-44345965D01*
X1137095Y-44462904D01*
X1254034Y-44550444D01*
X1390906Y-44601494D01*
X1451402Y-44607999D01*
X1451415Y-44608000D01*
X1746000Y-44608000D01*
X1746000Y-43254000D01*
X992000Y-43254000D01*
X992000Y-44148597D01*
X25500Y-44148597D01*
X25500Y-41851402D01*
X992000Y-41851402D01*
X992000Y-42746000D01*
X1746000Y-42746000D01*
X1746000Y-42560218D01*
X1800000Y-42560218D01*
X1800000Y-43439782D01*
X1830448Y-43513291D01*
X1886709Y-43569552D01*
X1960218Y-43600000D01*
X2039782Y-43600000D01*
X2113291Y-43569552D01*
X2169552Y-43513291D01*
X2200000Y-43439782D01*
X2200000Y-42560218D01*
X2169552Y-42486709D01*
X2113291Y-42430448D01*
X2039782Y-42400000D01*
X1960218Y-42400000D01*
X1886709Y-42430448D01*
X1830448Y-42486709D01*
X1800000Y-42560218D01*
X1746000Y-42560218D01*
X1746000Y-41392000D01*
X1451402Y-41392000D01*
X1390906Y-41398505D01*
X1254035Y-41449555D01*
X1254034Y-41449555D01*
X1137095Y-41537095D01*
X1049555Y-41654034D01*
X1049555Y-41654035D01*
X998505Y-41790906D01*
X992000Y-41851402D01*
X25500Y-41851402D01*
X25500Y-32449019D01*
X2247500Y-32449019D01*
X2247500Y-32654981D01*
X2279407Y-32856430D01*
X2279721Y-32858412D01*
X2340049Y-33044083D01*
X2343366Y-33054290D01*
X2436871Y-33237803D01*
X2557932Y-33404430D01*
X2557934Y-33404432D01*
X2557936Y-33404435D01*
X2703564Y-33550063D01*
X2703567Y-33550065D01*
X2703570Y-33550068D01*
X2870197Y-33671129D01*
X2906710Y-33689733D01*
X2958325Y-33738482D01*
X2975391Y-33807397D01*
X2952490Y-33874598D01*
X2906711Y-33914266D01*
X2877410Y-33929196D01*
X2870193Y-33932873D01*
X2703567Y-34053934D01*
X2703564Y-34053936D01*
X2557936Y-34199564D01*
X2557934Y-34199567D01*
X2436873Y-34366193D01*
X2343367Y-34549708D01*
X2343364Y-34549714D01*
X2279721Y-34745587D01*
X2279720Y-34745590D01*
X2279720Y-34745592D01*
X2247500Y-34949019D01*
X2247500Y-35154981D01*
X2279720Y-35358407D01*
X2279721Y-35358412D01*
X2339394Y-35542068D01*
X2343366Y-35554290D01*
X2436871Y-35737803D01*
X2557932Y-35904430D01*
X2557934Y-35904432D01*
X2557936Y-35904435D01*
X2703564Y-36050063D01*
X2703567Y-36050065D01*
X2703570Y-36050068D01*
X2870197Y-36171129D01*
X3053710Y-36264634D01*
X3249592Y-36328280D01*
X3453019Y-36360500D01*
X3453022Y-36360500D01*
X3658978Y-36360500D01*
X3658981Y-36360500D01*
X3862408Y-36328280D01*
X3878329Y-36323106D01*
X3949293Y-36321077D01*
X4010092Y-36357737D01*
X4041420Y-36421448D01*
X4033330Y-36491982D01*
X4006362Y-36532034D01*
X3152167Y-37386229D01*
X3063931Y-37474464D01*
X3063929Y-37474467D01*
X2994600Y-37578225D01*
X2991259Y-37586290D01*
X2946846Y-37693512D01*
X2922500Y-37815903D01*
X2922500Y-41333925D01*
X2902498Y-41402046D01*
X2848842Y-41448539D01*
X2778568Y-41458643D01*
X2752468Y-41451981D01*
X2609093Y-41398505D01*
X2548597Y-41392000D01*
X2254000Y-41392000D01*
X2254000Y-44608000D01*
X2548585Y-44608000D01*
X2548597Y-44607999D01*
X2609096Y-44601494D01*
X2752467Y-44548019D01*
X2823283Y-44542953D01*
X2885595Y-44576978D01*
X2919620Y-44639290D01*
X2922500Y-44666074D01*
X2922500Y-46421406D01*
X2902498Y-46489527D01*
X2885595Y-46510501D01*
X2555931Y-46840164D01*
X2555926Y-46840171D01*
X2522098Y-46890799D01*
X2486600Y-46943925D01*
X2466821Y-46991675D01*
X2438846Y-47059212D01*
X2414500Y-47181603D01*
X2414500Y-47181606D01*
X2414500Y-61659606D01*
X2414500Y-61784394D01*
X2438845Y-61906785D01*
X2486600Y-62022075D01*
X2555929Y-62125833D01*
X5987329Y-65557233D01*
X6075567Y-65645471D01*
X6179325Y-65714800D01*
X6294615Y-65762555D01*
X6417006Y-65786900D01*
X11248222Y-65786900D01*
X11316343Y-65806902D01*
X11362836Y-65860558D01*
X11373833Y-65922792D01*
X11373500Y-65927018D01*
X11373500Y-65927019D01*
X11373500Y-66132981D01*
X11405720Y-66336408D01*
X11469366Y-66532290D01*
X11469367Y-66532291D01*
X11562873Y-66715806D01*
X11592802Y-66756999D01*
X11683932Y-66882430D01*
X11683934Y-66882432D01*
X11683936Y-66882435D01*
X11829564Y-67028063D01*
X11829567Y-67028065D01*
X11829570Y-67028068D01*
X11996197Y-67149129D01*
X11996204Y-67149133D01*
X11996560Y-67149391D01*
X12039915Y-67205613D01*
X12048500Y-67251328D01*
X12048500Y-68216306D01*
X12028498Y-68284427D01*
X12011595Y-68305401D01*
X11010340Y-69306655D01*
X10948028Y-69340681D01*
X10877212Y-69335616D01*
X10820377Y-69293069D01*
X10796037Y-69231668D01*
X10773181Y-69028818D01*
X10702988Y-68721282D01*
X10677634Y-68648825D01*
X10598810Y-68423557D01*
X10598809Y-68423556D01*
X10598804Y-68423540D01*
X10461938Y-68139335D01*
X10461937Y-68139334D01*
X10461936Y-68139331D01*
X10294109Y-67872237D01*
X10294105Y-67872231D01*
X10097436Y-67625618D01*
X10097427Y-67625608D01*
X9874391Y-67402572D01*
X9874381Y-67402563D01*
X9627768Y-67205894D01*
X9627762Y-67205890D01*
X9360668Y-67038063D01*
X9076469Y-66901200D01*
X9076464Y-66901198D01*
X9076460Y-66901196D01*
X9076454Y-66901193D01*
X9076442Y-66901189D01*
X8778724Y-66797013D01*
X8471185Y-66726819D01*
X8157724Y-66691500D01*
X8157722Y-66691500D01*
X7842278Y-66691500D01*
X7842276Y-66691500D01*
X7528814Y-66726819D01*
X7221275Y-66797013D01*
X6923557Y-66901189D01*
X6923530Y-66901200D01*
X6639331Y-67038063D01*
X6372237Y-67205890D01*
X6372231Y-67205894D01*
X6125618Y-67402563D01*
X6125608Y-67402572D01*
X5902572Y-67625608D01*
X5902563Y-67625618D01*
X5705894Y-67872231D01*
X5705890Y-67872237D01*
X5538063Y-68139331D01*
X5401200Y-68423530D01*
X5401189Y-68423557D01*
X5297013Y-68721275D01*
X5226819Y-69028814D01*
X5191500Y-69342276D01*
X5191500Y-69657723D01*
X5226819Y-69971185D01*
X5263362Y-70131289D01*
X5297012Y-70278718D01*
X5297014Y-70278724D01*
X5297013Y-70278724D01*
X5384681Y-70529266D01*
X5388300Y-70600171D01*
X5353011Y-70661776D01*
X5290018Y-70694522D01*
X5226815Y-70690714D01*
X5029710Y-70626670D01*
X4810809Y-70592000D01*
X4589191Y-70592000D01*
X4370289Y-70626670D01*
X4159516Y-70695155D01*
X4159514Y-70695156D01*
X3962043Y-70795772D01*
X3900035Y-70840823D01*
X3900035Y-70840825D01*
X4575052Y-71515842D01*
X4507007Y-71534075D01*
X4392993Y-71599901D01*
X4299901Y-71692993D01*
X4234075Y-71807007D01*
X4215842Y-71875052D01*
X3540825Y-71200035D01*
X3540823Y-71200035D01*
X3495772Y-71262043D01*
X3395156Y-71459514D01*
X3395155Y-71459516D01*
X3326670Y-71670289D01*
X3292000Y-71889191D01*
X3292000Y-72110808D01*
X3326670Y-72329710D01*
X3395155Y-72540483D01*
X3395156Y-72540485D01*
X3495770Y-72737952D01*
X3540824Y-72799963D01*
X4215841Y-72124946D01*
X4234075Y-72192993D01*
X4299901Y-72307007D01*
X4392993Y-72400099D01*
X4507007Y-72465925D01*
X4575051Y-72484157D01*
X3900035Y-73159173D01*
X3900821Y-73169157D01*
X3927671Y-73203978D01*
X3933746Y-73274714D01*
X3900614Y-73337506D01*
X3884317Y-73351627D01*
X3782421Y-73425658D01*
X3625658Y-73582421D01*
X3495345Y-73761781D01*
X3394693Y-73959322D01*
X3394690Y-73959328D01*
X3326183Y-74170170D01*
X3326182Y-74170175D01*
X3326182Y-74170176D01*
X3291500Y-74389149D01*
X3291500Y-74610851D01*
X3324163Y-74817076D01*
X3326183Y-74829829D01*
X3391852Y-75031936D01*
X3394692Y-75040676D01*
X3478686Y-75205523D01*
X3495345Y-75238218D01*
X3625658Y-75417578D01*
X3782417Y-75574337D01*
X3782420Y-75574339D01*
X3782424Y-75574343D01*
X3837474Y-75614339D01*
X3883892Y-75648064D01*
X3927245Y-75704287D01*
X3933320Y-75775023D01*
X3900188Y-75837815D01*
X3883892Y-75851936D01*
X3782417Y-75925662D01*
X3625658Y-76082421D01*
X3495345Y-76261781D01*
X3394693Y-76459322D01*
X3394690Y-76459328D01*
X3326183Y-76670170D01*
X3326182Y-76670175D01*
X3326182Y-76670176D01*
X3291500Y-76889149D01*
X3291500Y-77110851D01*
X3314802Y-77257971D01*
X3326183Y-77329829D01*
X3394690Y-77540671D01*
X3394692Y-77540676D01*
X3495343Y-77738215D01*
X3495345Y-77738218D01*
X3625658Y-77917578D01*
X3782418Y-78074338D01*
X3782421Y-78074340D01*
X3782424Y-78074343D01*
X3889562Y-78152184D01*
X3932915Y-78208404D01*
X3941500Y-78254118D01*
X3941500Y-80780707D01*
X3962241Y-80884978D01*
X3970649Y-80927247D01*
X4027826Y-81065284D01*
X4110834Y-81189515D01*
X4110838Y-81189519D01*
X10497724Y-87576405D01*
X10531750Y-87638717D01*
X10526685Y-87709532D01*
X10484138Y-87766368D01*
X10417618Y-87791179D01*
X10408629Y-87791500D01*
X8651350Y-87791500D01*
X8590803Y-87798009D01*
X8590795Y-87798011D01*
X8453797Y-87849110D01*
X8453792Y-87849112D01*
X8336738Y-87936738D01*
X8249112Y-88053792D01*
X8249110Y-88053797D01*
X8198011Y-88190795D01*
X8198009Y-88190803D01*
X8191500Y-88251350D01*
X8191500Y-89348649D01*
X8198009Y-89409196D01*
X8198011Y-89409204D01*
X8249110Y-89546202D01*
X8249112Y-89546207D01*
X8336738Y-89663261D01*
X8453792Y-89750887D01*
X8453794Y-89750888D01*
X8453796Y-89750889D01*
X8512875Y-89772924D01*
X8590795Y-89801988D01*
X8590803Y-89801990D01*
X8651350Y-89808499D01*
X8651355Y-89808499D01*
X8651362Y-89808500D01*
X8651368Y-89808500D01*
X10948632Y-89808500D01*
X10948638Y-89808500D01*
X10948645Y-89808499D01*
X10948649Y-89808499D01*
X11009196Y-89801990D01*
X11009199Y-89801989D01*
X11009201Y-89801989D01*
X11146204Y-89750889D01*
X11263261Y-89663261D01*
X11350889Y-89546204D01*
X11355345Y-89534256D01*
X11397891Y-89477422D01*
X11464411Y-89452611D01*
X11533785Y-89467702D01*
X11583987Y-89517904D01*
X11599400Y-89578290D01*
X11599400Y-91112807D01*
X11617697Y-91204791D01*
X11628549Y-91259347D01*
X11685726Y-91397384D01*
X11768734Y-91521615D01*
X14182534Y-93935415D01*
X14182535Y-93935416D01*
X14288184Y-94041065D01*
X14412416Y-94124074D01*
X14550454Y-94181251D01*
X14696994Y-94210400D01*
X14696995Y-94210400D01*
X14846405Y-94210400D01*
X19857229Y-94210400D01*
X19925350Y-94230402D01*
X19946324Y-94247305D01*
X21030414Y-95331395D01*
X21064440Y-95393707D01*
X21059375Y-95464522D01*
X21030414Y-95509585D01*
X20998000Y-95541999D01*
X20998000Y-96498314D01*
X20989606Y-96489920D01*
X20898394Y-96437259D01*
X20796661Y-96410000D01*
X20691339Y-96410000D01*
X20589606Y-96437259D01*
X20498394Y-96489920D01*
X20490000Y-96498314D01*
X20490000Y-95542000D01*
X19935402Y-95542000D01*
X19874906Y-95548505D01*
X19738035Y-95599555D01*
X19738034Y-95599555D01*
X19621095Y-95687095D01*
X19533555Y-95804034D01*
X19533555Y-95804035D01*
X19482505Y-95940906D01*
X19476000Y-96001402D01*
X19476000Y-96014869D01*
X19455998Y-96082990D01*
X19402342Y-96129483D01*
X19332068Y-96139587D01*
X19267488Y-96110093D01*
X19248064Y-96088930D01*
X19171555Y-95983625D01*
X19030374Y-95842444D01*
X18868842Y-95725084D01*
X18868841Y-95725083D01*
X18868839Y-95725082D01*
X18690935Y-95634435D01*
X18690932Y-95634434D01*
X18690930Y-95634433D01*
X18501046Y-95572736D01*
X18501042Y-95572735D01*
X18501041Y-95572735D01*
X18303833Y-95541500D01*
X18104167Y-95541500D01*
X17906959Y-95572735D01*
X17906953Y-95572736D01*
X17717069Y-95634433D01*
X17717063Y-95634436D01*
X17539157Y-95725084D01*
X17377625Y-95842444D01*
X17236444Y-95983625D01*
X17119083Y-96145158D01*
X17046267Y-96288068D01*
X16997518Y-96339683D01*
X16928603Y-96356749D01*
X16861402Y-96333848D01*
X16821733Y-96288068D01*
X16797765Y-96241028D01*
X16748918Y-96145161D01*
X16733919Y-96124516D01*
X16631555Y-95983625D01*
X16490374Y-95842444D01*
X16328842Y-95725084D01*
X16328841Y-95725083D01*
X16328839Y-95725082D01*
X16150935Y-95634435D01*
X16150932Y-95634434D01*
X16150930Y-95634433D01*
X15961046Y-95572736D01*
X15961042Y-95572735D01*
X15961041Y-95572735D01*
X15763833Y-95541500D01*
X15564167Y-95541500D01*
X15366959Y-95572735D01*
X15366953Y-95572736D01*
X15177069Y-95634433D01*
X15177063Y-95634436D01*
X14999157Y-95725084D01*
X14837625Y-95842444D01*
X14696444Y-95983625D01*
X14579084Y-96145157D01*
X14488436Y-96323063D01*
X14488433Y-96323069D01*
X14426736Y-96512953D01*
X14426735Y-96512958D01*
X14426735Y-96512959D01*
X14395500Y-96710167D01*
X14395500Y-96909833D01*
X14419918Y-97064000D01*
X14426736Y-97107046D01*
X14451331Y-97182741D01*
X14488435Y-97296935D01*
X14579082Y-97474839D01*
X14579084Y-97474842D01*
X14696444Y-97636374D01*
X14837625Y-97777555D01*
X14890492Y-97815965D01*
X14999161Y-97894918D01*
X15177065Y-97985565D01*
X15366959Y-98047265D01*
X15564167Y-98078500D01*
X15564170Y-98078500D01*
X15763830Y-98078500D01*
X15763833Y-98078500D01*
X15961041Y-98047265D01*
X16150935Y-97985565D01*
X16328839Y-97894918D01*
X16490372Y-97777557D01*
X16631557Y-97636372D01*
X16748918Y-97474839D01*
X16821734Y-97331929D01*
X16870481Y-97280316D01*
X16939396Y-97263250D01*
X17006598Y-97286151D01*
X17046265Y-97331929D01*
X17119082Y-97474839D01*
X17119084Y-97474842D01*
X17236444Y-97636374D01*
X17377625Y-97777555D01*
X17430492Y-97815965D01*
X17539161Y-97894918D01*
X17717065Y-97985565D01*
X17906959Y-98047265D01*
X18104167Y-98078500D01*
X18104170Y-98078500D01*
X18303830Y-98078500D01*
X18303833Y-98078500D01*
X18501041Y-98047265D01*
X18690935Y-97985565D01*
X18868839Y-97894918D01*
X19030372Y-97777557D01*
X19171557Y-97636372D01*
X19248064Y-97531068D01*
X19304286Y-97487715D01*
X19375022Y-97481640D01*
X19437814Y-97514771D01*
X19472726Y-97576591D01*
X19476000Y-97605130D01*
X19476000Y-97618597D01*
X19482505Y-97679093D01*
X19533555Y-97815964D01*
X19533555Y-97815965D01*
X19621095Y-97932904D01*
X19738034Y-98020444D01*
X19874906Y-98071494D01*
X19935402Y-98077999D01*
X19935415Y-98078000D01*
X20490000Y-98078000D01*
X20490000Y-97121686D01*
X20498394Y-97130080D01*
X20589606Y-97182741D01*
X20691339Y-97210000D01*
X20796661Y-97210000D01*
X20898394Y-97182741D01*
X20989606Y-97130080D01*
X20998000Y-97121686D01*
X20998000Y-98078000D01*
X21552585Y-98078000D01*
X21552597Y-98077999D01*
X21613093Y-98071494D01*
X21749964Y-98020444D01*
X21749965Y-98020444D01*
X21866904Y-97932904D01*
X21954444Y-97815965D01*
X21954444Y-97815964D01*
X22005494Y-97679093D01*
X22011999Y-97618597D01*
X22012000Y-97618585D01*
X22012000Y-97064000D01*
X21055686Y-97064000D01*
X21064080Y-97055606D01*
X21116741Y-96964394D01*
X21144000Y-96862661D01*
X21144000Y-96757339D01*
X21116741Y-96655606D01*
X21064080Y-96564394D01*
X21055686Y-96556000D01*
X22012001Y-96556000D01*
X22044415Y-96523586D01*
X22106727Y-96489560D01*
X22177542Y-96494625D01*
X22222605Y-96523586D01*
X23718534Y-98019515D01*
X23718535Y-98019516D01*
X23824184Y-98125165D01*
X23948416Y-98208174D01*
X24086454Y-98265351D01*
X24232994Y-98294500D01*
X24232995Y-98294500D01*
X24293839Y-98294500D01*
X24361960Y-98314502D01*
X24395774Y-98346438D01*
X24423794Y-98385004D01*
X24423796Y-98385006D01*
X24423798Y-98385009D01*
X24574990Y-98536201D01*
X24574993Y-98536203D01*
X24574996Y-98536206D01*
X24747991Y-98661894D01*
X24938517Y-98758972D01*
X25141878Y-98825047D01*
X25141879Y-98825047D01*
X25141884Y-98825049D01*
X25353084Y-98858500D01*
X25353087Y-98858500D01*
X25566913Y-98858500D01*
X25566916Y-98858500D01*
X25778116Y-98825049D01*
X25981483Y-98758972D01*
X26172009Y-98661894D01*
X26345004Y-98536206D01*
X26447982Y-98433227D01*
X26510292Y-98399204D01*
X26581108Y-98404268D01*
X26637944Y-98446815D01*
X26655131Y-98478291D01*
X26699110Y-98596203D01*
X26699112Y-98596207D01*
X26786738Y-98713261D01*
X26903792Y-98800887D01*
X26903794Y-98800888D01*
X26903796Y-98800889D01*
X26962875Y-98822924D01*
X27040795Y-98851988D01*
X27040803Y-98851990D01*
X27101350Y-98858499D01*
X27101355Y-98858499D01*
X27101362Y-98858500D01*
X27101368Y-98858500D01*
X28898632Y-98858500D01*
X28898638Y-98858500D01*
X28898645Y-98858499D01*
X28898649Y-98858499D01*
X28959196Y-98851990D01*
X28959199Y-98851989D01*
X28959201Y-98851989D01*
X29096204Y-98800889D01*
X29152199Y-98758972D01*
X29213261Y-98713261D01*
X29300887Y-98596207D01*
X29300887Y-98596206D01*
X29300889Y-98596204D01*
X29351989Y-98459201D01*
X29354782Y-98433229D01*
X29358499Y-98398649D01*
X29358500Y-98398632D01*
X29358500Y-96601367D01*
X29358499Y-96601350D01*
X29351990Y-96540803D01*
X29351988Y-96540795D01*
X29300889Y-96403797D01*
X29300887Y-96403792D01*
X29213261Y-96286738D01*
X29096207Y-96199112D01*
X29096202Y-96199110D01*
X28977775Y-96154938D01*
X28920939Y-96112391D01*
X28896129Y-96045871D01*
X28911221Y-95976497D01*
X28932713Y-95947787D01*
X29035823Y-95844677D01*
X29161463Y-95671750D01*
X29258506Y-95481292D01*
X29258509Y-95481286D01*
X29324559Y-95278004D01*
X29334698Y-95214000D01*
X28430703Y-95214000D01*
X28465925Y-95152993D01*
X28500000Y-95025826D01*
X28500000Y-94894174D01*
X28465925Y-94767007D01*
X28430703Y-94706000D01*
X29334697Y-94706000D01*
X29324559Y-94641995D01*
X29258509Y-94438713D01*
X29258506Y-94438707D01*
X29161463Y-94248249D01*
X29035822Y-94075320D01*
X28884679Y-93924177D01*
X28711748Y-93798534D01*
X28709955Y-93797436D01*
X28709415Y-93796840D01*
X28707742Y-93795624D01*
X28707997Y-93795272D01*
X28662321Y-93744791D01*
X28650710Y-93674750D01*
X28678810Y-93609551D01*
X28707789Y-93584440D01*
X28707742Y-93584376D01*
X28708496Y-93583827D01*
X28709955Y-93582564D01*
X28711748Y-93581465D01*
X28884679Y-93455822D01*
X29035822Y-93304679D01*
X29161463Y-93131750D01*
X29258506Y-92941292D01*
X29258509Y-92941286D01*
X29324559Y-92738004D01*
X29334698Y-92674000D01*
X28430703Y-92674000D01*
X28465925Y-92612993D01*
X28500000Y-92485826D01*
X28500000Y-92354174D01*
X28465925Y-92227007D01*
X28430703Y-92166000D01*
X29334697Y-92166000D01*
X29324559Y-92101995D01*
X29258509Y-91898713D01*
X29258506Y-91898707D01*
X29161463Y-91708249D01*
X29035822Y-91535320D01*
X28884679Y-91384177D01*
X28711748Y-91258534D01*
X28709955Y-91257436D01*
X28709415Y-91256840D01*
X28707742Y-91255624D01*
X28707997Y-91255272D01*
X28662321Y-91204791D01*
X28650710Y-91134750D01*
X28678810Y-91069551D01*
X28707789Y-91044440D01*
X28707742Y-91044376D01*
X28708496Y-91043827D01*
X28709955Y-91042564D01*
X28711748Y-91041465D01*
X28884679Y-90915822D01*
X29035822Y-90764679D01*
X29161463Y-90591750D01*
X29258506Y-90401292D01*
X29258509Y-90401286D01*
X29324559Y-90198004D01*
X29334698Y-90134000D01*
X28430703Y-90134000D01*
X28465925Y-90072993D01*
X28500000Y-89945826D01*
X28500000Y-89814174D01*
X28465925Y-89687007D01*
X28430703Y-89626000D01*
X29334697Y-89626000D01*
X29324559Y-89561995D01*
X29258509Y-89358713D01*
X29258506Y-89358707D01*
X29161463Y-89168249D01*
X29035822Y-88995320D01*
X28884679Y-88844177D01*
X28711749Y-88718535D01*
X28710433Y-88717729D01*
X28710037Y-88717291D01*
X28707742Y-88715624D01*
X28708092Y-88715141D01*
X28662800Y-88665084D01*
X28651190Y-88595043D01*
X28679291Y-88529844D01*
X28708076Y-88504903D01*
X28708004Y-88504804D01*
X28709158Y-88503965D01*
X28710441Y-88502854D01*
X28711992Y-88501902D01*
X28712009Y-88501894D01*
X28885004Y-88376206D01*
X29036206Y-88225004D01*
X29161894Y-88052009D01*
X29258972Y-87861483D01*
X29325049Y-87658116D01*
X29358500Y-87446916D01*
X29358500Y-87233084D01*
X29325049Y-87021884D01*
X29258972Y-86818517D01*
X29161894Y-86627991D01*
X29036206Y-86454996D01*
X29036203Y-86454993D01*
X29036201Y-86454990D01*
X28885009Y-86303798D01*
X28885006Y-86303796D01*
X28885004Y-86303794D01*
X28712009Y-86178106D01*
X28712007Y-86178105D01*
X28710920Y-86177439D01*
X28710591Y-86177075D01*
X28708004Y-86175196D01*
X28708398Y-86174652D01*
X28663283Y-86124796D01*
X28651670Y-86054756D01*
X28679766Y-85989555D01*
X28708130Y-85964978D01*
X28708004Y-85964804D01*
X28710030Y-85963331D01*
X28710920Y-85962561D01*
X28711997Y-85961899D01*
X28712009Y-85961894D01*
X28885004Y-85836206D01*
X29036206Y-85685004D01*
X29161894Y-85512009D01*
X29258972Y-85321483D01*
X29325049Y-85118116D01*
X29358500Y-84906916D01*
X29358500Y-84693084D01*
X29325049Y-84481884D01*
X29258972Y-84278517D01*
X29161894Y-84087991D01*
X29036206Y-83914996D01*
X29036203Y-83914993D01*
X29036201Y-83914990D01*
X28885009Y-83763798D01*
X28885006Y-83763796D01*
X28885004Y-83763794D01*
X28712009Y-83638106D01*
X28712007Y-83638105D01*
X28710920Y-83637439D01*
X28710591Y-83637075D01*
X28708004Y-83635196D01*
X28708398Y-83634652D01*
X28663283Y-83584796D01*
X28651670Y-83514756D01*
X28679766Y-83449555D01*
X28708130Y-83424978D01*
X28708004Y-83424804D01*
X28710030Y-83423331D01*
X28710920Y-83422561D01*
X28711997Y-83421899D01*
X28712009Y-83421894D01*
X28885004Y-83296206D01*
X29036206Y-83145004D01*
X29161894Y-82972009D01*
X29258972Y-82781483D01*
X29325049Y-82578116D01*
X29358500Y-82366916D01*
X29358500Y-82153084D01*
X29325049Y-81941884D01*
X29258972Y-81738517D01*
X29161894Y-81547991D01*
X29036206Y-81374996D01*
X29036203Y-81374993D01*
X29036201Y-81374990D01*
X28885009Y-81223798D01*
X28885006Y-81223796D01*
X28885004Y-81223794D01*
X28712009Y-81098106D01*
X28712007Y-81098105D01*
X28710920Y-81097439D01*
X28710591Y-81097075D01*
X28708004Y-81095196D01*
X28708398Y-81094652D01*
X28663283Y-81044796D01*
X28651670Y-80974756D01*
X28679766Y-80909555D01*
X28708130Y-80884978D01*
X28708004Y-80884804D01*
X28710030Y-80883331D01*
X28710920Y-80882561D01*
X28711997Y-80881899D01*
X28712009Y-80881894D01*
X28885004Y-80756206D01*
X29036206Y-80605004D01*
X29161894Y-80432009D01*
X29258972Y-80241483D01*
X29325049Y-80038116D01*
X29358500Y-79826916D01*
X29358500Y-79613084D01*
X29325049Y-79401884D01*
X29258972Y-79198517D01*
X29161894Y-79007991D01*
X29036206Y-78834996D01*
X29036203Y-78834993D01*
X29036201Y-78834990D01*
X28885009Y-78683798D01*
X28885006Y-78683796D01*
X28885004Y-78683794D01*
X28712009Y-78558106D01*
X28521483Y-78461028D01*
X28521480Y-78461027D01*
X28521478Y-78461026D01*
X28318120Y-78394952D01*
X28318123Y-78394952D01*
X28278801Y-78388724D01*
X28106916Y-78361500D01*
X27893084Y-78361500D01*
X27681884Y-78394951D01*
X27681878Y-78394952D01*
X27478521Y-78461026D01*
X27478515Y-78461029D01*
X27287987Y-78558108D01*
X27114993Y-78683796D01*
X27114990Y-78683798D01*
X26963798Y-78834990D01*
X26963796Y-78834993D01*
X26838108Y-79007987D01*
X26837434Y-79009088D01*
X26837068Y-79009418D01*
X26835196Y-79011996D01*
X26834654Y-79011602D01*
X26784787Y-79056721D01*
X26714745Y-79068328D01*
X26649547Y-79040226D01*
X26624976Y-79011870D01*
X26624804Y-79011996D01*
X26623341Y-79009982D01*
X26622566Y-79009088D01*
X26621896Y-79007996D01*
X26621894Y-79007991D01*
X26496206Y-78834996D01*
X26496203Y-78834993D01*
X26496201Y-78834990D01*
X26345009Y-78683798D01*
X26345006Y-78683796D01*
X26345004Y-78683794D01*
X26172009Y-78558106D01*
X25981483Y-78461028D01*
X25981480Y-78461027D01*
X25981478Y-78461026D01*
X25778120Y-78394952D01*
X25778123Y-78394952D01*
X25738801Y-78388724D01*
X25566916Y-78361500D01*
X25353084Y-78361500D01*
X25141884Y-78394951D01*
X25141878Y-78394952D01*
X24938521Y-78461026D01*
X24938509Y-78461031D01*
X24793602Y-78534865D01*
X24723825Y-78547969D01*
X24658041Y-78521268D01*
X24617135Y-78463241D01*
X24610400Y-78422598D01*
X24610400Y-68886507D01*
X24610399Y-68886503D01*
X24599354Y-68830975D01*
X24586055Y-68764115D01*
X24565995Y-68715685D01*
X24538301Y-68648825D01*
X24468972Y-68545067D01*
X23349166Y-67425261D01*
X23315140Y-67362949D01*
X23320205Y-67292134D01*
X23362752Y-67235298D01*
X23381052Y-67223902D01*
X23527803Y-67149129D01*
X23694430Y-67028068D01*
X23840068Y-66882430D01*
X23961129Y-66715803D01*
X24054634Y-66532290D01*
X24118280Y-66336408D01*
X24150500Y-66132981D01*
X24150500Y-65927019D01*
X24118280Y-65723592D01*
X24054634Y-65527710D01*
X23961129Y-65344197D01*
X23840068Y-65177570D01*
X23840065Y-65177567D01*
X23840063Y-65177564D01*
X23694435Y-65031936D01*
X23694432Y-65031934D01*
X23694430Y-65031932D01*
X23527803Y-64910871D01*
X23344290Y-64817366D01*
X23344287Y-64817365D01*
X23344285Y-64817364D01*
X23148412Y-64753721D01*
X23148410Y-64753720D01*
X23148408Y-64753720D01*
X22944981Y-64721500D01*
X22739019Y-64721500D01*
X22535592Y-64753720D01*
X22535590Y-64753720D01*
X22535587Y-64753721D01*
X22339714Y-64817364D01*
X22339708Y-64817367D01*
X22156193Y-64910873D01*
X21989567Y-65031934D01*
X21989564Y-65031936D01*
X21843936Y-65177564D01*
X21843934Y-65177567D01*
X21722871Y-65344196D01*
X21648099Y-65490942D01*
X21599351Y-65542557D01*
X21530436Y-65559622D01*
X21463234Y-65536721D01*
X21446738Y-65522833D01*
X19202623Y-63278718D01*
X16850924Y-60927019D01*
X21533500Y-60927019D01*
X21533500Y-61132981D01*
X21560721Y-61304843D01*
X21565721Y-61336412D01*
X21614781Y-61487404D01*
X21629366Y-61532290D01*
X21722871Y-61715803D01*
X21722873Y-61715806D01*
X21752802Y-61756999D01*
X21843932Y-61882430D01*
X21843934Y-61882432D01*
X21843936Y-61882435D01*
X21989564Y-62028063D01*
X21989567Y-62028065D01*
X21989570Y-62028068D01*
X22156197Y-62149129D01*
X22339710Y-62242634D01*
X22535592Y-62306280D01*
X22739019Y-62338500D01*
X22739022Y-62338500D01*
X22944978Y-62338500D01*
X22944981Y-62338500D01*
X23148408Y-62306280D01*
X23344290Y-62242634D01*
X23527803Y-62149129D01*
X23694430Y-62028068D01*
X23840068Y-61882430D01*
X23961129Y-61715803D01*
X24054634Y-61532290D01*
X24118280Y-61336408D01*
X24150500Y-61132981D01*
X24150500Y-60927019D01*
X24118280Y-60723592D01*
X24054634Y-60527710D01*
X23961129Y-60344197D01*
X23840068Y-60177570D01*
X23840065Y-60177567D01*
X23840063Y-60177564D01*
X23694435Y-60031936D01*
X23694432Y-60031934D01*
X23694430Y-60031932D01*
X23527803Y-59910871D01*
X23344290Y-59817366D01*
X23344287Y-59817365D01*
X23344285Y-59817364D01*
X23148412Y-59753721D01*
X23148410Y-59753720D01*
X23148408Y-59753720D01*
X22944981Y-59721500D01*
X22739019Y-59721500D01*
X22535592Y-59753720D01*
X22535590Y-59753720D01*
X22535587Y-59753721D01*
X22339714Y-59817364D01*
X22339708Y-59817367D01*
X22156193Y-59910873D01*
X21989567Y-60031934D01*
X21989564Y-60031936D01*
X21843936Y-60177564D01*
X21843934Y-60177567D01*
X21722873Y-60344193D01*
X21629367Y-60527708D01*
X21629364Y-60527714D01*
X21565721Y-60723587D01*
X21565720Y-60723590D01*
X21565720Y-60723592D01*
X21533500Y-60927019D01*
X16850924Y-60927019D01*
X13295157Y-57371253D01*
X13261132Y-57308942D01*
X13266197Y-57238127D01*
X13308744Y-57181291D01*
X13327041Y-57169897D01*
X13367803Y-57149129D01*
X13534430Y-57028068D01*
X13680068Y-56882430D01*
X13801127Y-56715806D01*
X13801394Y-56715439D01*
X13857616Y-56672085D01*
X13903330Y-56663500D01*
X16153293Y-56663500D01*
X16153294Y-56663500D01*
X16275685Y-56639155D01*
X16390975Y-56591400D01*
X16494733Y-56522071D01*
X17736399Y-55280405D01*
X17798711Y-55246379D01*
X17825494Y-55243500D01*
X21568565Y-55243500D01*
X21636686Y-55263502D01*
X21683179Y-55317158D01*
X21693283Y-55387432D01*
X21680832Y-55426703D01*
X21629367Y-55527708D01*
X21629364Y-55527714D01*
X21565721Y-55723587D01*
X21565720Y-55723590D01*
X21565720Y-55723592D01*
X21533500Y-55927019D01*
X21533500Y-56132981D01*
X21565720Y-56336408D01*
X21565721Y-56336412D01*
X21626045Y-56522071D01*
X21629366Y-56532290D01*
X21722871Y-56715803D01*
X21843932Y-56882430D01*
X21843934Y-56882432D01*
X21843936Y-56882435D01*
X21989564Y-57028063D01*
X21989567Y-57028065D01*
X21989570Y-57028068D01*
X22156197Y-57149129D01*
X22339710Y-57242634D01*
X22535592Y-57306280D01*
X22739019Y-57338500D01*
X22739022Y-57338500D01*
X22944978Y-57338500D01*
X22944981Y-57338500D01*
X23148408Y-57306280D01*
X23344290Y-57242634D01*
X23527803Y-57149129D01*
X23694430Y-57028068D01*
X23840068Y-56882430D01*
X23961129Y-56715803D01*
X24054634Y-56532290D01*
X24118280Y-56336408D01*
X24150500Y-56132981D01*
X24150500Y-55927019D01*
X24118280Y-55723592D01*
X24054634Y-55527710D01*
X23987609Y-55396168D01*
X23974505Y-55326393D01*
X24001205Y-55260608D01*
X24055423Y-55222386D01*
X24055066Y-55221524D01*
X24058897Y-55219937D01*
X24059232Y-55219701D01*
X24060283Y-55219362D01*
X24060780Y-55219155D01*
X24060785Y-55219155D01*
X24176075Y-55171400D01*
X24279833Y-55102071D01*
X28940071Y-50441833D01*
X29009400Y-50338075D01*
X29057155Y-50222785D01*
X29081500Y-50100394D01*
X29081500Y-49975607D01*
X29081500Y-44641606D01*
X29057155Y-44519215D01*
X29009400Y-44403925D01*
X28940071Y-44300167D01*
X28851833Y-44211929D01*
X27219563Y-42579659D01*
X27185537Y-42517347D01*
X27184209Y-42470853D01*
X27184278Y-42470411D01*
X27184280Y-42470408D01*
X27216500Y-42266981D01*
X27216500Y-42061019D01*
X27184280Y-41857592D01*
X27120634Y-41661710D01*
X27027129Y-41478197D01*
X26906068Y-41311570D01*
X26906065Y-41311567D01*
X26906063Y-41311564D01*
X26760435Y-41165936D01*
X26760432Y-41165934D01*
X26760430Y-41165932D01*
X26593803Y-41044871D01*
X26518034Y-41006265D01*
X26466422Y-40957519D01*
X26449356Y-40888604D01*
X26472257Y-40821402D01*
X26518034Y-40781735D01*
X26593803Y-40743129D01*
X26760430Y-40622068D01*
X26906068Y-40476430D01*
X27027129Y-40309803D01*
X27120634Y-40126290D01*
X27184280Y-39930408D01*
X27216500Y-39726981D01*
X27216500Y-39521019D01*
X27184280Y-39317592D01*
X27120634Y-39121710D01*
X27027129Y-38938197D01*
X26906068Y-38771570D01*
X26906065Y-38771567D01*
X26906063Y-38771564D01*
X26760435Y-38625936D01*
X26760432Y-38625934D01*
X26760430Y-38625932D01*
X26593803Y-38504871D01*
X26517486Y-38465985D01*
X26465873Y-38417239D01*
X26448807Y-38348324D01*
X26471708Y-38281122D01*
X26517488Y-38241453D01*
X26593545Y-38202699D01*
X26760107Y-38081684D01*
X26760110Y-38081682D01*
X26905682Y-37936110D01*
X26905684Y-37936107D01*
X27026699Y-37769545D01*
X27120170Y-37586099D01*
X27120173Y-37586093D01*
X27183791Y-37390295D01*
X27192074Y-37338000D01*
X26219686Y-37338000D01*
X26228080Y-37329606D01*
X26280741Y-37238394D01*
X26308000Y-37136661D01*
X26308000Y-37031339D01*
X26280741Y-36929606D01*
X26228080Y-36838394D01*
X26219686Y-36830000D01*
X27192074Y-36830000D01*
X27183791Y-36777704D01*
X27120173Y-36581906D01*
X27120170Y-36581900D01*
X27026699Y-36398454D01*
X26905684Y-36231892D01*
X26905682Y-36231889D01*
X26760110Y-36086317D01*
X26760107Y-36086315D01*
X26593542Y-35965298D01*
X26517487Y-35926545D01*
X26465872Y-35877797D01*
X26448807Y-35808882D01*
X26471708Y-35741680D01*
X26517485Y-35702014D01*
X26593803Y-35663129D01*
X26760430Y-35542068D01*
X26906068Y-35396430D01*
X27027129Y-35229803D01*
X27120634Y-35046290D01*
X27184280Y-34850408D01*
X27216500Y-34646981D01*
X27216500Y-34441019D01*
X27184280Y-34237592D01*
X27120634Y-34041710D01*
X27027129Y-33858197D01*
X26906068Y-33691570D01*
X26906065Y-33691567D01*
X26906063Y-33691564D01*
X26760435Y-33545936D01*
X26760432Y-33545934D01*
X26760430Y-33545932D01*
X26593803Y-33424871D01*
X26518034Y-33386265D01*
X26466422Y-33337519D01*
X26449356Y-33268604D01*
X26472257Y-33201402D01*
X26518034Y-33161735D01*
X26593803Y-33123129D01*
X26760430Y-33002068D01*
X26906068Y-32856430D01*
X27027129Y-32689803D01*
X27120634Y-32506290D01*
X27184280Y-32310408D01*
X27216500Y-32106981D01*
X27216500Y-31901019D01*
X27184280Y-31697592D01*
X27184278Y-31697588D01*
X27184209Y-31697147D01*
X27193309Y-31626736D01*
X27219563Y-31588340D01*
X27382040Y-31425863D01*
X27670071Y-31137833D01*
X27739400Y-31034075D01*
X27787155Y-30918785D01*
X27811500Y-30796394D01*
X27811500Y-30671606D01*
X27811500Y-29002406D01*
X27787155Y-28880015D01*
X27739400Y-28764725D01*
X27670071Y-28660967D01*
X27581833Y-28572729D01*
X26931440Y-27922336D01*
X26897414Y-27860024D01*
X26902479Y-27789209D01*
X26918591Y-27759192D01*
X27027129Y-27609803D01*
X27120634Y-27426290D01*
X27184280Y-27230408D01*
X27216500Y-27026981D01*
X27216500Y-26821019D01*
X27184280Y-26617592D01*
X27120634Y-26421710D01*
X27027129Y-26238197D01*
X26906068Y-26071570D01*
X26906065Y-26071567D01*
X26906063Y-26071564D01*
X26760435Y-25925936D01*
X26760432Y-25925934D01*
X26760430Y-25925932D01*
X26593803Y-25804871D01*
X26410290Y-25711366D01*
X26410287Y-25711365D01*
X26410285Y-25711364D01*
X26214412Y-25647721D01*
X26214410Y-25647720D01*
X26214408Y-25647720D01*
X26010981Y-25615500D01*
X25805019Y-25615500D01*
X25601592Y-25647720D01*
X25601590Y-25647720D01*
X25601587Y-25647721D01*
X25405714Y-25711364D01*
X25405708Y-25711367D01*
X25222193Y-25804873D01*
X25055567Y-25925934D01*
X25055564Y-25925936D01*
X24909936Y-26071564D01*
X24909934Y-26071567D01*
X24788873Y-26238193D01*
X24695367Y-26421708D01*
X24695364Y-26421714D01*
X24631721Y-26617587D01*
X24631720Y-26617590D01*
X24631720Y-26617592D01*
X24599500Y-26821019D01*
X24599500Y-27026981D01*
X24631720Y-27230408D01*
X24631721Y-27230412D01*
X24685382Y-27395564D01*
X24687409Y-27466532D01*
X24650747Y-27527329D01*
X24587035Y-27558655D01*
X24565549Y-27560500D01*
X23803494Y-27560500D01*
X23735373Y-27540498D01*
X23714399Y-27523595D01*
X21352735Y-25161931D01*
X21352733Y-25161929D01*
X21248975Y-25092600D01*
X21133685Y-25044845D01*
X21059986Y-25030185D01*
X21011296Y-25020500D01*
X21011294Y-25020500D01*
X15351994Y-25020500D01*
X15227206Y-25020500D01*
X15227203Y-25020500D01*
X15154168Y-25035028D01*
X15104815Y-25044845D01*
X15104813Y-25044845D01*
X15104812Y-25044846D01*
X14989523Y-25092601D01*
X14885771Y-25161926D01*
X14885769Y-25161927D01*
X14523595Y-25524100D01*
X14461283Y-25558125D01*
X14390467Y-25553060D01*
X14333632Y-25510513D01*
X14308821Y-25443992D01*
X14308500Y-25435004D01*
X14308500Y-25397022D01*
X14304825Y-25373818D01*
X14276280Y-25193592D01*
X14212634Y-24997710D01*
X14119129Y-24814197D01*
X13998068Y-24647570D01*
X13998065Y-24647567D01*
X13998063Y-24647564D01*
X13852435Y-24501936D01*
X13852432Y-24501934D01*
X13852430Y-24501932D01*
X13685803Y-24380871D01*
X13502290Y-24287366D01*
X13502287Y-24287365D01*
X13502285Y-24287364D01*
X13306412Y-24223721D01*
X13306410Y-24223720D01*
X13306408Y-24223720D01*
X13102981Y-24191500D01*
X12897019Y-24191500D01*
X12693592Y-24223720D01*
X12693588Y-24223721D01*
X12693147Y-24223791D01*
X12622736Y-24214691D01*
X12584341Y-24188437D01*
X10644923Y-22249019D01*
X15691500Y-22249019D01*
X15691500Y-22454981D01*
X15722082Y-22648064D01*
X15723721Y-22658412D01*
X15761610Y-22775023D01*
X15787366Y-22854290D01*
X15880871Y-23037803D01*
X16001932Y-23204430D01*
X16001934Y-23204432D01*
X16001936Y-23204435D01*
X16147564Y-23350063D01*
X16147567Y-23350065D01*
X16147570Y-23350068D01*
X16314197Y-23471129D01*
X16497710Y-23564634D01*
X16693592Y-23628280D01*
X16897019Y-23660500D01*
X16897022Y-23660500D01*
X17102978Y-23660500D01*
X17102981Y-23660500D01*
X17306408Y-23628280D01*
X17502290Y-23564634D01*
X17685803Y-23471129D01*
X17852430Y-23350068D01*
X17998068Y-23204430D01*
X18119129Y-23037803D01*
X18212634Y-22854290D01*
X18276280Y-22658408D01*
X18308500Y-22454981D01*
X18308500Y-22249019D01*
X25851500Y-22249019D01*
X25851500Y-22454981D01*
X25882082Y-22648064D01*
X25883721Y-22658412D01*
X25921610Y-22775023D01*
X25947366Y-22854290D01*
X26040871Y-23037803D01*
X26161932Y-23204430D01*
X26161934Y-23204432D01*
X26161936Y-23204435D01*
X26307564Y-23350063D01*
X26307567Y-23350065D01*
X26307570Y-23350068D01*
X26474197Y-23471129D01*
X26657710Y-23564634D01*
X26853592Y-23628280D01*
X27057019Y-23660500D01*
X27057022Y-23660500D01*
X27262978Y-23660500D01*
X27262981Y-23660500D01*
X27466408Y-23628280D01*
X27662290Y-23564634D01*
X27845803Y-23471129D01*
X28012430Y-23350068D01*
X28158068Y-23204430D01*
X28279129Y-23037803D01*
X28372634Y-22854290D01*
X28436280Y-22658408D01*
X28468500Y-22454981D01*
X28468500Y-22249019D01*
X28436280Y-22045592D01*
X28372634Y-21849710D01*
X28279129Y-21666197D01*
X28158068Y-21499570D01*
X28158065Y-21499567D01*
X28158063Y-21499564D01*
X28012435Y-21353936D01*
X28012432Y-21353934D01*
X28012430Y-21353932D01*
X27845803Y-21232871D01*
X27662290Y-21139366D01*
X27662287Y-21139365D01*
X27662285Y-21139364D01*
X27466412Y-21075721D01*
X27466410Y-21075720D01*
X27466408Y-21075720D01*
X27262981Y-21043500D01*
X27057019Y-21043500D01*
X26853592Y-21075720D01*
X26853590Y-21075720D01*
X26853587Y-21075721D01*
X26657714Y-21139364D01*
X26657708Y-21139367D01*
X26474193Y-21232873D01*
X26307567Y-21353934D01*
X26307564Y-21353936D01*
X26161936Y-21499564D01*
X26161934Y-21499567D01*
X26040873Y-21666193D01*
X25947367Y-21849708D01*
X25947364Y-21849714D01*
X25883721Y-22045587D01*
X25883720Y-22045590D01*
X25883720Y-22045592D01*
X25851500Y-22249019D01*
X18308500Y-22249019D01*
X18276280Y-22045592D01*
X18212634Y-21849710D01*
X18119129Y-21666197D01*
X17998068Y-21499570D01*
X17998065Y-21499567D01*
X17998063Y-21499564D01*
X17852435Y-21353936D01*
X17852432Y-21353934D01*
X17852430Y-21353932D01*
X17685803Y-21232871D01*
X17502290Y-21139366D01*
X17502287Y-21139365D01*
X17502285Y-21139364D01*
X17306412Y-21075721D01*
X17306410Y-21075720D01*
X17306408Y-21075720D01*
X17102981Y-21043500D01*
X16897019Y-21043500D01*
X16693592Y-21075720D01*
X16693590Y-21075720D01*
X16693587Y-21075721D01*
X16497714Y-21139364D01*
X16497708Y-21139367D01*
X16314193Y-21232873D01*
X16147567Y-21353934D01*
X16147564Y-21353936D01*
X16001936Y-21499564D01*
X16001934Y-21499567D01*
X15880873Y-21666193D01*
X15787367Y-21849708D01*
X15787364Y-21849714D01*
X15723721Y-22045587D01*
X15723720Y-22045590D01*
X15723720Y-22045592D01*
X15691500Y-22249019D01*
X10644923Y-22249019D01*
X7919499Y-19523595D01*
X7885473Y-19461283D01*
X7890538Y-19390468D01*
X7933085Y-19333632D01*
X7999605Y-19308821D01*
X8008594Y-19308500D01*
X8157724Y-19308500D01*
X8237332Y-19299529D01*
X8471182Y-19273181D01*
X8778718Y-19202988D01*
X9076460Y-19098804D01*
X9360665Y-18961938D01*
X9627759Y-18794112D01*
X9874383Y-18597435D01*
X10097435Y-18374383D01*
X10294112Y-18127759D01*
X10461938Y-17860665D01*
X10598804Y-17576460D01*
X10652495Y-17423019D01*
X15691500Y-17423019D01*
X15691500Y-17628981D01*
X15717850Y-17795345D01*
X15723721Y-17832412D01*
X15754018Y-17925658D01*
X15787366Y-18028290D01*
X15880871Y-18211803D01*
X16001932Y-18378430D01*
X16001934Y-18378432D01*
X16001936Y-18378435D01*
X16147564Y-18524063D01*
X16147567Y-18524065D01*
X16147570Y-18524068D01*
X16314197Y-18645129D01*
X16497710Y-18738634D01*
X16693592Y-18802280D01*
X16897019Y-18834500D01*
X16897022Y-18834500D01*
X17102978Y-18834500D01*
X17102981Y-18834500D01*
X17306408Y-18802280D01*
X17502290Y-18738634D01*
X17685803Y-18645129D01*
X17852430Y-18524068D01*
X17998068Y-18378430D01*
X18119129Y-18211803D01*
X18212634Y-18028290D01*
X18276280Y-17832408D01*
X18308500Y-17628981D01*
X18308500Y-17423019D01*
X25851500Y-17423019D01*
X25851500Y-17628981D01*
X25877850Y-17795345D01*
X25883721Y-17832412D01*
X25914018Y-17925658D01*
X25947366Y-18028290D01*
X26040871Y-18211803D01*
X26161932Y-18378430D01*
X26161934Y-18378432D01*
X26161936Y-18378435D01*
X26307564Y-18524063D01*
X26307567Y-18524065D01*
X26307570Y-18524068D01*
X26474197Y-18645129D01*
X26657710Y-18738634D01*
X26853592Y-18802280D01*
X27057019Y-18834500D01*
X27057022Y-18834500D01*
X27262978Y-18834500D01*
X27262981Y-18834500D01*
X27466408Y-18802280D01*
X27662290Y-18738634D01*
X27845803Y-18645129D01*
X28012430Y-18524068D01*
X28158068Y-18378430D01*
X28279129Y-18211803D01*
X28372634Y-18028290D01*
X28436280Y-17832408D01*
X28468500Y-17628981D01*
X28468500Y-17423019D01*
X28436280Y-17219592D01*
X28372634Y-17023710D01*
X28279129Y-16840197D01*
X28158068Y-16673570D01*
X28158065Y-16673567D01*
X28158063Y-16673564D01*
X28012435Y-16527936D01*
X28012432Y-16527934D01*
X28012430Y-16527932D01*
X27845803Y-16406871D01*
X27662290Y-16313366D01*
X27662287Y-16313365D01*
X27662285Y-16313364D01*
X27466412Y-16249721D01*
X27466410Y-16249720D01*
X27466408Y-16249720D01*
X27262981Y-16217500D01*
X27057019Y-16217500D01*
X26853592Y-16249720D01*
X26853590Y-16249720D01*
X26853587Y-16249721D01*
X26657714Y-16313364D01*
X26657708Y-16313367D01*
X26474193Y-16406873D01*
X26307567Y-16527934D01*
X26307564Y-16527936D01*
X26161936Y-16673564D01*
X26161934Y-16673567D01*
X26040873Y-16840193D01*
X25947367Y-17023708D01*
X25947364Y-17023714D01*
X25883721Y-17219587D01*
X25883720Y-17219590D01*
X25883720Y-17219592D01*
X25851500Y-17423019D01*
X18308500Y-17423019D01*
X18276280Y-17219592D01*
X18212634Y-17023710D01*
X18119129Y-16840197D01*
X17998068Y-16673570D01*
X17998065Y-16673567D01*
X17998063Y-16673564D01*
X17852435Y-16527936D01*
X17852432Y-16527934D01*
X17852430Y-16527932D01*
X17685803Y-16406871D01*
X17502290Y-16313366D01*
X17502287Y-16313365D01*
X17502285Y-16313364D01*
X17306412Y-16249721D01*
X17306410Y-16249720D01*
X17306408Y-16249720D01*
X17102981Y-16217500D01*
X16897019Y-16217500D01*
X16693592Y-16249720D01*
X16693590Y-16249720D01*
X16693587Y-16249721D01*
X16497714Y-16313364D01*
X16497708Y-16313367D01*
X16314193Y-16406873D01*
X16147567Y-16527934D01*
X16147564Y-16527936D01*
X16001936Y-16673564D01*
X16001934Y-16673567D01*
X15880873Y-16840193D01*
X15787367Y-17023708D01*
X15787364Y-17023714D01*
X15723721Y-17219587D01*
X15723720Y-17219590D01*
X15723720Y-17219592D01*
X15691500Y-17423019D01*
X10652495Y-17423019D01*
X10702988Y-17278718D01*
X10773181Y-16971182D01*
X10808500Y-16657722D01*
X10808500Y-16342278D01*
X10808025Y-16338065D01*
X10791616Y-16192430D01*
X10773181Y-16028818D01*
X10702988Y-15721282D01*
X10598804Y-15423540D01*
X10461938Y-15139335D01*
X10461937Y-15139334D01*
X10461936Y-15139331D01*
X10294109Y-14872237D01*
X10294105Y-14872231D01*
X10097436Y-14625618D01*
X10097427Y-14625608D01*
X9874391Y-14402572D01*
X9874381Y-14402563D01*
X9627768Y-14205894D01*
X9627762Y-14205890D01*
X9360668Y-14038063D01*
X9076469Y-13901200D01*
X9076464Y-13901198D01*
X9076460Y-13901196D01*
X9076454Y-13901193D01*
X9076442Y-13901189D01*
X8778724Y-13797013D01*
X8471185Y-13726819D01*
X8157724Y-13691500D01*
X8157722Y-13691500D01*
X7842278Y-13691500D01*
X7842276Y-13691500D01*
X7528814Y-13726819D01*
X7221275Y-13797013D01*
X6923557Y-13901189D01*
X6923530Y-13901200D01*
X6639331Y-14038063D01*
X6372237Y-14205890D01*
X6372231Y-14205894D01*
X6125618Y-14402563D01*
X6125608Y-14402572D01*
X5902572Y-14625608D01*
X5902563Y-14625618D01*
X5705894Y-14872231D01*
X5705890Y-14872237D01*
X5538063Y-15139331D01*
X5401200Y-15423530D01*
X5401189Y-15423557D01*
X5297013Y-15721275D01*
X5226819Y-16028814D01*
X5191500Y-16342276D01*
X5191500Y-16657723D01*
X5226819Y-16971185D01*
X5238808Y-17023710D01*
X5297012Y-17278718D01*
X5297014Y-17278724D01*
X5297013Y-17278724D01*
X5384474Y-17528673D01*
X5388093Y-17599577D01*
X5352804Y-17661183D01*
X5289811Y-17693929D01*
X5226609Y-17690121D01*
X5029827Y-17626183D01*
X5029831Y-17626183D01*
X4989063Y-17619726D01*
X4810851Y-17591500D01*
X4589149Y-17591500D01*
X4370176Y-17626182D01*
X4370170Y-17626183D01*
X4159328Y-17694690D01*
X4159322Y-17694693D01*
X3961781Y-17795345D01*
X3782421Y-17925658D01*
X3625658Y-18082421D01*
X3495345Y-18261781D01*
X3394693Y-18459322D01*
X3394690Y-18459328D01*
X3326183Y-18670170D01*
X3326182Y-18670175D01*
X3326182Y-18670176D01*
X3291500Y-18889149D01*
X3291500Y-19110851D01*
X3326182Y-19329824D01*
X3326183Y-19329829D01*
X3389142Y-19523595D01*
X3394692Y-19540676D01*
X3495343Y-19738215D01*
X3495345Y-19738218D01*
X3625658Y-19917578D01*
X3782417Y-20074337D01*
X3782420Y-20074339D01*
X3782424Y-20074343D01*
X3883892Y-20148064D01*
X3927245Y-20204287D01*
X3933320Y-20275023D01*
X3900188Y-20337815D01*
X3883892Y-20351936D01*
X3782417Y-20425662D01*
X3625658Y-20582421D01*
X3495345Y-20761781D01*
X3394693Y-20959322D01*
X3394690Y-20959328D01*
X3326183Y-21170170D01*
X3326182Y-21170175D01*
X3326182Y-21170176D01*
X3291500Y-21389149D01*
X3291500Y-21610851D01*
X3300266Y-21666197D01*
X3326183Y-21829829D01*
X3394690Y-22040671D01*
X3394692Y-22040676D01*
X3495343Y-22238215D01*
X3495345Y-22238218D01*
X3625658Y-22417578D01*
X3782417Y-22574337D01*
X3782420Y-22574339D01*
X3782424Y-22574343D01*
X3883892Y-22648064D01*
X3927245Y-22704287D01*
X3933320Y-22775023D01*
X3900188Y-22837815D01*
X3883893Y-22851935D01*
X3817865Y-22899907D01*
X3782417Y-22925662D01*
X3625658Y-23082421D01*
X3495345Y-23261781D01*
X3394693Y-23459322D01*
X3394690Y-23459328D01*
X3326183Y-23670170D01*
X3326182Y-23670175D01*
X3326182Y-23670176D01*
X3291500Y-23889149D01*
X3291500Y-24110851D01*
X3326182Y-24329824D01*
X3326183Y-24329829D01*
X3394690Y-24540671D01*
X3394692Y-24540676D01*
X3495343Y-24738215D01*
X3495345Y-24738218D01*
X3625658Y-24917578D01*
X3782421Y-25074341D01*
X3782424Y-25074343D01*
X3961785Y-25204657D01*
X4159324Y-25305308D01*
X4370176Y-25373818D01*
X4589149Y-25408500D01*
X4589152Y-25408500D01*
X4810848Y-25408500D01*
X4810851Y-25408500D01*
X5029824Y-25373818D01*
X5226611Y-25309877D01*
X5297576Y-25307850D01*
X5358374Y-25344513D01*
X5389699Y-25408225D01*
X5384474Y-25471326D01*
X5297013Y-25721275D01*
X5226819Y-26028814D01*
X5191500Y-26342276D01*
X5191500Y-26657723D01*
X5226819Y-26971185D01*
X5263362Y-27131289D01*
X5297012Y-27278718D01*
X5297014Y-27278724D01*
X5297013Y-27278724D01*
X5401189Y-27576442D01*
X5401200Y-27576469D01*
X5538063Y-27860668D01*
X5705890Y-28127762D01*
X5705894Y-28127768D01*
X5902563Y-28374381D01*
X5902572Y-28374391D01*
X6125608Y-28597427D01*
X6125618Y-28597436D01*
X6372231Y-28794105D01*
X6372238Y-28794109D01*
X6372241Y-28794112D01*
X6457211Y-28847502D01*
X6639331Y-28961936D01*
X6639334Y-28961937D01*
X6639335Y-28961938D01*
X6923540Y-29098804D01*
X6923556Y-29098809D01*
X6923557Y-29098810D01*
X7221275Y-29202986D01*
X7221278Y-29202986D01*
X7221282Y-29202988D01*
X7451962Y-29255639D01*
X7513924Y-29290298D01*
X7547311Y-29352954D01*
X7541524Y-29423714D01*
X7513019Y-29467575D01*
X5139001Y-31841595D01*
X5076689Y-31875620D01*
X5049906Y-31878500D01*
X4748268Y-31878500D01*
X4680147Y-31858498D01*
X4646332Y-31826561D01*
X4636622Y-31813197D01*
X4554068Y-31699570D01*
X4554065Y-31699567D01*
X4554063Y-31699564D01*
X4408435Y-31553936D01*
X4408432Y-31553934D01*
X4408430Y-31553932D01*
X4241803Y-31432871D01*
X4058290Y-31339366D01*
X4058287Y-31339365D01*
X4058285Y-31339364D01*
X3862412Y-31275721D01*
X3862410Y-31275720D01*
X3862408Y-31275720D01*
X3658981Y-31243500D01*
X3453019Y-31243500D01*
X3249592Y-31275720D01*
X3249590Y-31275720D01*
X3249587Y-31275721D01*
X3053714Y-31339364D01*
X3053708Y-31339367D01*
X2870193Y-31432873D01*
X2703567Y-31553934D01*
X2703564Y-31553936D01*
X2557936Y-31699564D01*
X2557934Y-31699567D01*
X2436873Y-31866193D01*
X2343367Y-32049708D01*
X2343364Y-32049714D01*
X2279721Y-32245587D01*
X2279720Y-32245590D01*
X2279720Y-32245592D01*
X2247500Y-32449019D01*
X25500Y-32449019D01*
X25500Y-10451350D01*
X3791500Y-10451350D01*
X3791500Y-11548649D01*
X3798009Y-11609196D01*
X3798011Y-11609204D01*
X3849110Y-11746202D01*
X3849112Y-11746207D01*
X3936738Y-11863261D01*
X4053792Y-11950887D01*
X4053794Y-11950888D01*
X4053796Y-11950889D01*
X4112875Y-11972924D01*
X4190795Y-12001988D01*
X4190803Y-12001990D01*
X4251350Y-12008499D01*
X4251355Y-12008499D01*
X4251362Y-12008500D01*
X4251368Y-12008500D01*
X6548632Y-12008500D01*
X6548638Y-12008500D01*
X6548645Y-12008499D01*
X6548649Y-12008499D01*
X6609196Y-12001990D01*
X6609199Y-12001989D01*
X6609201Y-12001989D01*
X6746204Y-11950889D01*
X6764674Y-11937063D01*
X6863261Y-11863261D01*
X6950887Y-11746207D01*
X6950887Y-11746206D01*
X6950889Y-11746204D01*
X6962354Y-11715466D01*
X7004901Y-11658631D01*
X7071422Y-11633821D01*
X7080409Y-11633500D01*
X9562393Y-11633500D01*
X9562394Y-11633500D01*
X9684785Y-11609155D01*
X9800075Y-11561400D01*
X9903833Y-11492071D01*
X11776405Y-9619499D01*
X11838717Y-9585473D01*
X11909532Y-9590538D01*
X11966368Y-9633085D01*
X11991179Y-9699605D01*
X11991500Y-9708594D01*
X11991500Y-11648649D01*
X11998009Y-11709196D01*
X11998011Y-11709204D01*
X12049110Y-11846202D01*
X12049112Y-11846207D01*
X12136738Y-11963261D01*
X12253792Y-12050887D01*
X12253794Y-12050888D01*
X12253796Y-12050889D01*
X12312875Y-12072924D01*
X12390795Y-12101988D01*
X12390803Y-12101990D01*
X12451350Y-12108499D01*
X12451355Y-12108499D01*
X12451362Y-12108500D01*
X12451368Y-12108500D01*
X13548632Y-12108500D01*
X13548638Y-12108500D01*
X13548645Y-12108499D01*
X13548649Y-12108499D01*
X13609196Y-12101990D01*
X13609199Y-12101989D01*
X13609201Y-12101989D01*
X13610325Y-12101570D01*
X13628045Y-12094960D01*
X13746204Y-12050889D01*
X13863261Y-11963261D01*
X13950889Y-11846204D01*
X14001989Y-11709201D01*
X14005374Y-11677721D01*
X14008499Y-11648649D01*
X14008500Y-11648632D01*
X14008500Y-9351367D01*
X14008499Y-9351350D01*
X14001990Y-9290803D01*
X14001988Y-9290795D01*
X13950889Y-9153797D01*
X13950887Y-9153792D01*
X13863261Y-9036738D01*
X13746207Y-8949112D01*
X13746202Y-8949110D01*
X13609204Y-8898011D01*
X13609196Y-8898009D01*
X13548649Y-8891500D01*
X13548638Y-8891500D01*
X12808594Y-8891500D01*
X12740473Y-8871498D01*
X12693980Y-8817842D01*
X12683876Y-8747568D01*
X12713370Y-8682988D01*
X12719499Y-8676405D01*
X14641904Y-6754000D01*
X16584342Y-4811561D01*
X16646652Y-4777537D01*
X16693146Y-4776209D01*
X16693589Y-4776279D01*
X16693592Y-4776280D01*
X16897019Y-4808500D01*
X16897022Y-4808500D01*
X17102978Y-4808500D01*
X17102981Y-4808500D01*
X17306408Y-4776280D01*
X17502290Y-4712634D01*
X17685803Y-4619129D01*
X17852430Y-4498068D01*
X17998068Y-4352430D01*
X18119129Y-4185803D01*
X18137733Y-4149289D01*
X18141078Y-4145747D01*
X18142334Y-4141040D01*
X18165220Y-4120185D01*
X18186481Y-4097674D01*
X18191210Y-4096502D01*
X18194812Y-4093221D01*
X18225340Y-4088050D01*
X18255395Y-4080608D01*
X18260007Y-4082179D01*
X18264812Y-4081366D01*
X18293288Y-4093520D01*
X18322597Y-4103508D01*
X18326864Y-4107852D01*
X18330109Y-4109237D01*
X18338540Y-4119738D01*
X18354264Y-4135745D01*
X18358684Y-4142259D01*
X18380871Y-4185803D01*
X18492249Y-4339103D01*
X18493369Y-4340753D01*
X18503626Y-4372710D01*
X18514900Y-4404307D01*
X18514424Y-4406353D01*
X18515066Y-4408353D01*
X18506420Y-4440769D01*
X18498819Y-4473458D01*
X18497099Y-4475721D01*
X18496771Y-4476952D01*
X18494798Y-4478749D01*
X18478200Y-4500595D01*
X16596167Y-6382629D01*
X16507931Y-6470864D01*
X16507926Y-6470871D01*
X16438601Y-6574623D01*
X16390846Y-6689911D01*
X16368980Y-6799835D01*
X16336072Y-6862744D01*
X16317806Y-6877416D01*
X16318202Y-6877961D01*
X16147567Y-7001934D01*
X16147564Y-7001936D01*
X16001936Y-7147564D01*
X16001934Y-7147567D01*
X15880873Y-7314193D01*
X15787367Y-7497708D01*
X15787364Y-7497714D01*
X15723721Y-7693587D01*
X15723720Y-7693590D01*
X15723720Y-7693592D01*
X15691500Y-7897019D01*
X15691500Y-8102981D01*
X15723720Y-8306408D01*
X15787366Y-8502290D01*
X15880871Y-8685803D01*
X16001932Y-8852430D01*
X16001934Y-8852432D01*
X16001936Y-8852435D01*
X16147564Y-8998063D01*
X16147567Y-8998065D01*
X16147570Y-8998068D01*
X16314197Y-9119129D01*
X16314204Y-9119133D01*
X16314560Y-9119391D01*
X16357915Y-9175613D01*
X16366500Y-9221328D01*
X16366500Y-9900106D01*
X16346498Y-9968227D01*
X16329595Y-9989201D01*
X12507931Y-13810864D01*
X12507926Y-13810871D01*
X12438601Y-13914623D01*
X12390846Y-14029911D01*
X12390845Y-14029914D01*
X12390845Y-14029915D01*
X12389224Y-14038063D01*
X12368980Y-14139835D01*
X12336072Y-14202744D01*
X12317806Y-14217416D01*
X12318202Y-14217961D01*
X12147567Y-14341934D01*
X12147564Y-14341936D01*
X12001936Y-14487564D01*
X12001934Y-14487567D01*
X11880873Y-14654193D01*
X11787367Y-14837708D01*
X11787364Y-14837714D01*
X11723721Y-15033587D01*
X11723720Y-15033590D01*
X11723720Y-15033592D01*
X11691500Y-15237019D01*
X11691500Y-15442981D01*
X11723720Y-15646408D01*
X11723721Y-15646412D01*
X11748045Y-15721275D01*
X11787366Y-15842290D01*
X11787367Y-15842291D01*
X11880873Y-16025806D01*
X11910802Y-16066999D01*
X12001932Y-16192430D01*
X12001934Y-16192432D01*
X12001936Y-16192435D01*
X12147564Y-16338063D01*
X12147567Y-16338065D01*
X12147570Y-16338068D01*
X12314197Y-16459129D01*
X12497710Y-16552634D01*
X12693592Y-16616280D01*
X12897019Y-16648500D01*
X12897022Y-16648500D01*
X13102978Y-16648500D01*
X13102981Y-16648500D01*
X13306408Y-16616280D01*
X13502290Y-16552634D01*
X13685803Y-16459129D01*
X13852430Y-16338068D01*
X13998068Y-16192430D01*
X14119129Y-16025803D01*
X14212634Y-15842290D01*
X14276280Y-15646408D01*
X14308500Y-15442981D01*
X14308500Y-15237019D01*
X14276280Y-15033592D01*
X14212634Y-14837710D01*
X14119129Y-14654197D01*
X13998068Y-14487570D01*
X13998065Y-14487567D01*
X13998063Y-14487564D01*
X13899646Y-14389147D01*
X13865620Y-14326835D01*
X13870685Y-14256020D01*
X13899646Y-14210957D01*
X14654318Y-13456285D01*
X15498578Y-12612024D01*
X15560888Y-12578001D01*
X15631703Y-12583065D01*
X15688539Y-12625612D01*
X15713350Y-12692132D01*
X15712120Y-12720830D01*
X15691500Y-12851019D01*
X15691500Y-13056981D01*
X15723720Y-13260408D01*
X15787366Y-13456290D01*
X15880871Y-13639803D01*
X16001932Y-13806430D01*
X16001934Y-13806432D01*
X16001936Y-13806435D01*
X16147564Y-13952063D01*
X16147567Y-13952065D01*
X16147570Y-13952068D01*
X16314197Y-14073129D01*
X16497710Y-14166634D01*
X16693592Y-14230280D01*
X16897019Y-14262500D01*
X16897022Y-14262500D01*
X17102978Y-14262500D01*
X17102981Y-14262500D01*
X17306408Y-14230280D01*
X17502290Y-14166634D01*
X17685803Y-14073129D01*
X17852430Y-13952068D01*
X17998068Y-13806430D01*
X18119129Y-13639803D01*
X18212634Y-13456290D01*
X18276280Y-13260408D01*
X18308500Y-13056981D01*
X18308500Y-12851019D01*
X25851500Y-12851019D01*
X25851500Y-13056981D01*
X25883720Y-13260408D01*
X25947366Y-13456290D01*
X26040871Y-13639803D01*
X26161932Y-13806430D01*
X26161934Y-13806432D01*
X26161936Y-13806435D01*
X26307564Y-13952063D01*
X26307567Y-13952065D01*
X26307570Y-13952068D01*
X26474197Y-14073129D01*
X26657710Y-14166634D01*
X26853592Y-14230280D01*
X27057019Y-14262500D01*
X27057022Y-14262500D01*
X27262978Y-14262500D01*
X27262981Y-14262500D01*
X27466408Y-14230280D01*
X27662290Y-14166634D01*
X27845803Y-14073129D01*
X28012430Y-13952068D01*
X28158068Y-13806430D01*
X28279129Y-13639803D01*
X28372634Y-13456290D01*
X28436280Y-13260408D01*
X28468500Y-13056981D01*
X28468500Y-12851019D01*
X28436280Y-12647592D01*
X28372634Y-12451710D01*
X28279129Y-12268197D01*
X28158068Y-12101570D01*
X28158065Y-12101567D01*
X28158063Y-12101564D01*
X28012435Y-11955936D01*
X28012432Y-11955934D01*
X28012430Y-11955932D01*
X27845803Y-11834871D01*
X27662290Y-11741366D01*
X27662287Y-11741365D01*
X27662285Y-11741364D01*
X27466412Y-11677721D01*
X27466410Y-11677720D01*
X27466408Y-11677720D01*
X27262981Y-11645500D01*
X27057019Y-11645500D01*
X26853592Y-11677720D01*
X26853590Y-11677720D01*
X26853587Y-11677721D01*
X26657714Y-11741364D01*
X26657708Y-11741367D01*
X26474193Y-11834873D01*
X26307567Y-11955934D01*
X26307564Y-11955936D01*
X26161936Y-12101564D01*
X26161934Y-12101567D01*
X26040873Y-12268193D01*
X25947367Y-12451708D01*
X25947364Y-12451714D01*
X25883721Y-12647587D01*
X25883720Y-12647590D01*
X25883720Y-12647592D01*
X25851500Y-12851019D01*
X18308500Y-12851019D01*
X18276280Y-12647592D01*
X18212634Y-12451710D01*
X18119129Y-12268197D01*
X17998068Y-12101570D01*
X17998065Y-12101567D01*
X17998063Y-12101564D01*
X17852435Y-11955936D01*
X17852432Y-11955934D01*
X17852430Y-11955932D01*
X17685803Y-11834871D01*
X17502290Y-11741366D01*
X17502287Y-11741365D01*
X17502285Y-11741364D01*
X17306412Y-11677721D01*
X17306410Y-11677720D01*
X17306408Y-11677720D01*
X17102981Y-11645500D01*
X16897019Y-11645500D01*
X16766831Y-11666119D01*
X16696422Y-11657020D01*
X16642108Y-11611298D01*
X16621135Y-11543470D01*
X16640162Y-11475071D01*
X16658021Y-11452581D01*
X17492071Y-10618533D01*
X17561400Y-10514775D01*
X17609155Y-10399485D01*
X17633500Y-10277094D01*
X17633500Y-10152306D01*
X17633500Y-9221328D01*
X17653502Y-9153207D01*
X17685440Y-9119391D01*
X17685795Y-9119133D01*
X17685803Y-9119129D01*
X17852430Y-8998068D01*
X17998068Y-8852430D01*
X18119129Y-8685803D01*
X18212634Y-8502290D01*
X18276280Y-8306408D01*
X18308500Y-8102981D01*
X18308500Y-7897019D01*
X25851500Y-7897019D01*
X25851500Y-8102981D01*
X25883720Y-8306408D01*
X25947366Y-8502290D01*
X26040871Y-8685803D01*
X26161932Y-8852430D01*
X26161934Y-8852432D01*
X26161936Y-8852435D01*
X26307564Y-8998063D01*
X26307567Y-8998065D01*
X26307570Y-8998068D01*
X26474197Y-9119129D01*
X26657710Y-9212634D01*
X26853592Y-9276280D01*
X27057019Y-9308500D01*
X27057022Y-9308500D01*
X27262978Y-9308500D01*
X27262981Y-9308500D01*
X27466408Y-9276280D01*
X27662290Y-9212634D01*
X27845803Y-9119129D01*
X28012430Y-8998068D01*
X28158068Y-8852430D01*
X28279129Y-8685803D01*
X28372634Y-8502290D01*
X28436280Y-8306408D01*
X28468500Y-8102981D01*
X28468500Y-7897019D01*
X28436280Y-7693592D01*
X28372634Y-7497710D01*
X28279129Y-7314197D01*
X28158068Y-7147570D01*
X28158065Y-7147567D01*
X28158063Y-7147564D01*
X28012435Y-7001936D01*
X28012432Y-7001934D01*
X28012430Y-7001932D01*
X27845803Y-6880871D01*
X27662290Y-6787366D01*
X27662287Y-6787365D01*
X27662285Y-6787364D01*
X27466412Y-6723721D01*
X27466410Y-6723720D01*
X27466408Y-6723720D01*
X27262981Y-6691500D01*
X27057019Y-6691500D01*
X26853592Y-6723720D01*
X26853590Y-6723720D01*
X26853587Y-6723721D01*
X26657714Y-6787364D01*
X26657708Y-6787367D01*
X26474193Y-6880873D01*
X26307567Y-7001934D01*
X26307564Y-7001936D01*
X26161936Y-7147564D01*
X26161934Y-7147567D01*
X26040873Y-7314193D01*
X25947367Y-7497708D01*
X25947364Y-7497714D01*
X25883721Y-7693587D01*
X25883720Y-7693590D01*
X25883720Y-7693592D01*
X25851500Y-7897019D01*
X18308500Y-7897019D01*
X18276280Y-7693592D01*
X18212634Y-7497710D01*
X18119129Y-7314197D01*
X17998068Y-7147570D01*
X17998065Y-7147567D01*
X17998063Y-7147564D01*
X17899646Y-7049147D01*
X17865620Y-6986835D01*
X17870685Y-6916020D01*
X17899646Y-6870957D01*
X19992067Y-4778537D01*
X19992067Y-4778536D01*
X19992071Y-4778533D01*
X20035290Y-4713849D01*
X20082852Y-4671584D01*
X20185803Y-4619129D01*
X20352430Y-4498068D01*
X20498068Y-4352430D01*
X20619127Y-4185806D01*
X20619394Y-4185439D01*
X20675616Y-4142085D01*
X20721330Y-4133500D01*
X22778670Y-4133500D01*
X22846791Y-4153502D01*
X22880606Y-4185439D01*
X22880873Y-4185806D01*
X23001932Y-4352430D01*
X23001934Y-4352432D01*
X23001936Y-4352435D01*
X23147564Y-4498063D01*
X23147567Y-4498065D01*
X23147570Y-4498068D01*
X23314197Y-4619129D01*
X23497710Y-4712634D01*
X23693592Y-4776280D01*
X23897019Y-4808500D01*
X23897022Y-4808500D01*
X24102978Y-4808500D01*
X24102981Y-4808500D01*
X24306408Y-4776280D01*
X24502290Y-4712634D01*
X24685803Y-4619129D01*
X24852430Y-4498068D01*
X24998068Y-4352430D01*
X25119129Y-4185803D01*
X25137733Y-4149289D01*
X25186481Y-4097674D01*
X25255395Y-4080608D01*
X25322597Y-4103508D01*
X25362266Y-4149288D01*
X25380871Y-4185803D01*
X25501932Y-4352430D01*
X25501934Y-4352432D01*
X25501936Y-4352435D01*
X25647564Y-4498063D01*
X25647567Y-4498065D01*
X25647570Y-4498068D01*
X25814197Y-4619129D01*
X25997710Y-4712634D01*
X26193592Y-4776280D01*
X26397019Y-4808500D01*
X26397022Y-4808500D01*
X26602978Y-4808500D01*
X26602981Y-4808500D01*
X26806408Y-4776280D01*
X27002290Y-4712634D01*
X27185803Y-4619129D01*
X27352430Y-4498068D01*
X27498068Y-4352430D01*
X27619129Y-4185803D01*
X27712634Y-4002290D01*
X27776280Y-3806408D01*
X27808500Y-3602981D01*
X27808500Y-3397019D01*
X27776280Y-3193592D01*
X27712634Y-2997710D01*
X27619129Y-2814197D01*
X27498068Y-2647570D01*
X27498065Y-2647567D01*
X27498063Y-2647564D01*
X27352435Y-2501936D01*
X27352432Y-2501934D01*
X27352430Y-2501932D01*
X27185803Y-2380871D01*
X27002290Y-2287366D01*
X27002287Y-2287365D01*
X27002285Y-2287364D01*
X26806412Y-2223721D01*
X26806410Y-2223720D01*
X26806408Y-2223720D01*
X26602981Y-2191500D01*
X26397019Y-2191500D01*
X26193592Y-2223720D01*
X26193590Y-2223720D01*
X26193587Y-2223721D01*
X25997714Y-2287364D01*
X25997708Y-2287367D01*
X25814193Y-2380873D01*
X25647567Y-2501934D01*
X25647564Y-2501936D01*
X25501936Y-2647564D01*
X25501934Y-2647567D01*
X25380873Y-2814193D01*
X25362267Y-2850710D01*
X25313518Y-2902325D01*
X25244603Y-2919391D01*
X25177402Y-2896490D01*
X25137733Y-2850710D01*
X25119314Y-2814561D01*
X25119129Y-2814197D01*
X24998068Y-2647570D01*
X24998065Y-2647567D01*
X24998063Y-2647564D01*
X24852435Y-2501936D01*
X24852432Y-2501934D01*
X24852430Y-2501932D01*
X24685803Y-2380871D01*
X24502290Y-2287366D01*
X24502287Y-2287365D01*
X24502285Y-2287364D01*
X24306412Y-2223721D01*
X24306410Y-2223720D01*
X24306408Y-2223720D01*
X24102981Y-2191500D01*
X23897019Y-2191500D01*
X23693592Y-2223720D01*
X23693590Y-2223720D01*
X23693587Y-2223721D01*
X23497714Y-2287364D01*
X23497708Y-2287367D01*
X23314193Y-2380873D01*
X23147567Y-2501934D01*
X23147564Y-2501936D01*
X23001936Y-2647564D01*
X23001934Y-2647567D01*
X22880606Y-2814561D01*
X22824384Y-2857915D01*
X22778670Y-2866500D01*
X20721330Y-2866500D01*
X20653209Y-2846498D01*
X20619394Y-2814561D01*
X20571241Y-2748285D01*
X20498068Y-2647570D01*
X20498065Y-2647567D01*
X20498063Y-2647564D01*
X20352435Y-2501936D01*
X20352432Y-2501934D01*
X20352430Y-2501932D01*
X20185803Y-2380871D01*
X20002290Y-2287366D01*
X20002287Y-2287365D01*
X20002285Y-2287364D01*
X19806412Y-2223721D01*
X19806410Y-2223720D01*
X19806408Y-2223720D01*
X19602981Y-2191500D01*
X19397019Y-2191500D01*
X19193592Y-2223720D01*
X19193590Y-2223720D01*
X19193587Y-2223721D01*
X18997714Y-2287364D01*
X18997708Y-2287367D01*
X18814193Y-2380873D01*
X18647567Y-2501934D01*
X18647564Y-2501936D01*
X18501936Y-2647564D01*
X18501934Y-2647567D01*
X18380873Y-2814193D01*
X18362267Y-2850710D01*
X18313518Y-2902325D01*
X18244603Y-2919391D01*
X18177402Y-2896490D01*
X18137733Y-2850710D01*
X18119314Y-2814561D01*
X18119129Y-2814197D01*
X17998068Y-2647570D01*
X17998065Y-2647567D01*
X17998063Y-2647564D01*
X17852435Y-2501936D01*
X17852432Y-2501934D01*
X17852430Y-2501932D01*
X17685803Y-2380871D01*
X17502290Y-2287366D01*
X17502287Y-2287365D01*
X17502285Y-2287364D01*
X17306412Y-2223721D01*
X17306410Y-2223720D01*
X17306408Y-2223720D01*
X17102981Y-2191500D01*
X16897019Y-2191500D01*
X16693592Y-2223720D01*
X16693590Y-2223720D01*
X16693587Y-2223721D01*
X16497714Y-2287364D01*
X16497708Y-2287367D01*
X16314193Y-2380873D01*
X16147567Y-2501934D01*
X16147564Y-2501936D01*
X16001936Y-2647564D01*
X16001934Y-2647567D01*
X15880873Y-2814193D01*
X15787367Y-2997708D01*
X15787364Y-2997714D01*
X15723721Y-3193587D01*
X15723720Y-3193590D01*
X15723720Y-3193592D01*
X15691500Y-3397019D01*
X15691500Y-3602981D01*
X15717117Y-3764720D01*
X15723790Y-3806851D01*
X15714690Y-3877263D01*
X15688436Y-3915657D01*
X9274501Y-10329595D01*
X9212189Y-10363620D01*
X9185406Y-10366500D01*
X7080409Y-10366500D01*
X7012288Y-10346498D01*
X6965795Y-10292842D01*
X6962354Y-10284534D01*
X6950889Y-10253797D01*
X6950889Y-10253796D01*
X6950887Y-10253794D01*
X6950887Y-10253792D01*
X6863261Y-10136738D01*
X6746207Y-10049112D01*
X6746202Y-10049110D01*
X6609204Y-9998011D01*
X6609196Y-9998009D01*
X6548649Y-9991500D01*
X6548638Y-9991500D01*
X4251362Y-9991500D01*
X4251350Y-9991500D01*
X4190803Y-9998009D01*
X4190795Y-9998011D01*
X4053797Y-10049110D01*
X4053792Y-10049112D01*
X3936738Y-10136738D01*
X3849112Y-10253792D01*
X3849110Y-10253797D01*
X3798011Y-10390795D01*
X3798009Y-10390803D01*
X3791500Y-10451350D01*
X25500Y-10451350D01*
X25500Y-7648597D01*
X992000Y-7648597D01*
X998505Y-7709093D01*
X1049555Y-7845964D01*
X1049555Y-7845965D01*
X1137095Y-7962904D01*
X1254034Y-8050444D01*
X1390906Y-8101494D01*
X1451402Y-8107999D01*
X1451415Y-8108000D01*
X1746000Y-8108000D01*
X2254000Y-8108000D01*
X2548585Y-8108000D01*
X2548597Y-8107999D01*
X2609093Y-8101494D01*
X2745964Y-8050444D01*
X2745965Y-8050444D01*
X2862904Y-7962904D01*
X2950444Y-7845965D01*
X2950444Y-7845964D01*
X3001494Y-7709093D01*
X3007999Y-7648597D01*
X3008000Y-7648585D01*
X3008000Y-6754000D01*
X2254000Y-6754000D01*
X2254000Y-8108000D01*
X1746000Y-8108000D01*
X1746000Y-6754000D01*
X992000Y-6754000D01*
X992000Y-7648597D01*
X25500Y-7648597D01*
X25500Y-5351402D01*
X992000Y-5351402D01*
X992000Y-6246000D01*
X1746000Y-6246000D01*
X1746000Y-6060218D01*
X1800000Y-6060218D01*
X1800000Y-6939782D01*
X1830448Y-7013291D01*
X1886709Y-7069552D01*
X1960218Y-7100000D01*
X2039782Y-7100000D01*
X2113291Y-7069552D01*
X2169552Y-7013291D01*
X2200000Y-6939782D01*
X2200000Y-6246000D01*
X2254000Y-6246000D01*
X3008000Y-6246000D01*
X3008000Y-5351414D01*
X3007999Y-5351402D01*
X3001494Y-5290906D01*
X2950444Y-5154035D01*
X2950444Y-5154034D01*
X2862904Y-5037095D01*
X2745965Y-4949555D01*
X2609093Y-4898505D01*
X2548597Y-4892000D01*
X2254000Y-4892000D01*
X2254000Y-6246000D01*
X2200000Y-6246000D01*
X2200000Y-6060218D01*
X2169552Y-5986709D01*
X2113291Y-5930448D01*
X2039782Y-5900000D01*
X1960218Y-5900000D01*
X1886709Y-5930448D01*
X1830448Y-5986709D01*
X1800000Y-6060218D01*
X1746000Y-6060218D01*
X1746000Y-4892000D01*
X1451402Y-4892000D01*
X1390906Y-4898505D01*
X1254035Y-4949555D01*
X1254034Y-4949555D01*
X1137095Y-5037095D01*
X1049555Y-5154034D01*
X1049555Y-5154035D01*
X998505Y-5290906D01*
X992000Y-5351402D01*
X25500Y-5351402D01*
X25500Y-3451350D01*
X6791500Y-3451350D01*
X6791500Y-4548649D01*
X6798009Y-4609196D01*
X6798011Y-4609204D01*
X6849110Y-4746202D01*
X6849112Y-4746207D01*
X6936738Y-4863261D01*
X7053792Y-4950887D01*
X7053794Y-4950888D01*
X7053796Y-4950889D01*
X7112875Y-4972924D01*
X7190795Y-5001988D01*
X7190803Y-5001990D01*
X7251350Y-5008499D01*
X7251355Y-5008499D01*
X7251362Y-5008500D01*
X7251368Y-5008500D01*
X9548632Y-5008500D01*
X9548638Y-5008500D01*
X9548645Y-5008499D01*
X9548649Y-5008499D01*
X9609196Y-5001990D01*
X9609199Y-5001989D01*
X9609201Y-5001989D01*
X9746204Y-4950889D01*
X9863261Y-4863261D01*
X9926691Y-4778529D01*
X9950887Y-4746207D01*
X9950887Y-4746206D01*
X9950889Y-4746204D01*
X10001989Y-4609201D01*
X10008500Y-4548638D01*
X10008500Y-3451362D01*
X10008499Y-3451350D01*
X10001990Y-3390803D01*
X10001988Y-3390795D01*
X9950889Y-3253797D01*
X9950887Y-3253792D01*
X9863261Y-3136738D01*
X9746207Y-3049112D01*
X9746202Y-3049110D01*
X9609204Y-2998011D01*
X9609196Y-2998009D01*
X9548649Y-2991500D01*
X9548638Y-2991500D01*
X7251362Y-2991500D01*
X7251350Y-2991500D01*
X7190803Y-2998009D01*
X7190795Y-2998011D01*
X7053797Y-3049110D01*
X7053792Y-3049112D01*
X6936738Y-3136738D01*
X6849112Y-3253792D01*
X6849110Y-3253797D01*
X6798011Y-3390795D01*
X6798009Y-3390803D01*
X6791500Y-3451350D01*
X25500Y-3451350D01*
X25500Y-751350D01*
X8191500Y-751350D01*
X8191500Y-1848649D01*
X8198009Y-1909196D01*
X8198011Y-1909204D01*
X8249110Y-2046202D01*
X8249112Y-2046207D01*
X8336738Y-2163261D01*
X8453792Y-2250887D01*
X8453794Y-2250888D01*
X8453796Y-2250889D01*
X8512875Y-2272924D01*
X8590795Y-2301988D01*
X8590803Y-2301990D01*
X8651350Y-2308499D01*
X8651355Y-2308499D01*
X8651362Y-2308500D01*
X8651368Y-2308500D01*
X10948632Y-2308500D01*
X10948638Y-2308500D01*
X10948645Y-2308499D01*
X10948649Y-2308499D01*
X11009196Y-2301990D01*
X11009199Y-2301989D01*
X11009201Y-2301989D01*
X11146204Y-2250889D01*
X11182498Y-2223720D01*
X11263261Y-2163261D01*
X11350887Y-2046207D01*
X11350887Y-2046206D01*
X11350889Y-2046204D01*
X11401989Y-1909201D01*
X11408500Y-1848638D01*
X11408500Y-751362D01*
X11408499Y-751350D01*
X11401990Y-690803D01*
X11401988Y-690795D01*
X11350889Y-553797D01*
X11350887Y-553792D01*
X11263261Y-436738D01*
X11146207Y-349112D01*
X11146202Y-349110D01*
X11009204Y-298011D01*
X11009196Y-298009D01*
X10948649Y-291500D01*
X10948638Y-291500D01*
X8651362Y-291500D01*
X8651350Y-291500D01*
X8590803Y-298009D01*
X8590795Y-298011D01*
X8453797Y-349110D01*
X8453792Y-349112D01*
X8336738Y-436738D01*
X8249112Y-553792D01*
X8249110Y-553797D01*
X8198011Y-690795D01*
X8198009Y-690803D01*
X8191500Y-751350D01*
X25500Y-751350D01*
X25500Y-151500D01*
X45502Y-83379D01*
X99158Y-36886D01*
X151500Y-25500D01*
X29848500Y-25500D01*
X29916621Y-45502D01*
G37*
G04 #@! TD.AperFunction*
M02*
