M48
; DRILL file {KiCad (5.1.5)-3} date 7/27/2020 6:33:07 PM
; FORMAT={-:-/ absolute / metric / decimal}
; #@! TF.CreationDate,2020-07-27T18:33:07-07:00
; #@! TF.GenerationSoftware,Kicad,Pcbnew,(5.1.5)-3
FMAT,2
METRIC
T1C0.400
T2C1.000
%
G90
G05
T2
X20.0Y-43.65
X20.0Y-46.19
X20.0Y-48.73
X20.0Y-51.27
X20.0Y-53.81
X20.0Y-56.35
X22.54Y-43.65
X22.54Y-46.19
X22.54Y-48.73
X22.54Y-51.27
X22.54Y-53.81
X22.54Y-56.35
T1
G00X2.0Y-91.6
M15
G01X2.0Y-92.4
M16
G05
G00X5.0Y-96.5
M15
G01X5.8Y-96.5
M16
G05
G00X8.0Y-89.5
M15
G01X8.8Y-89.5
M16
G05
G00X9.4Y-86.8
M15
G01X10.2Y-86.8
M16
G05
G00X13.0Y-95.6
M15
G01X13.0Y-96.4
M16
G05
G00X2.0Y-79.6
M15
G01X2.0Y-80.4
M16
G05
G00X5.0Y-84.5
M15
G01X5.8Y-84.5
M16
G05
G00X8.0Y-77.5
M15
G01X8.8Y-77.5
M16
G05
G00X9.4Y-74.8
M15
G01X10.2Y-74.8
M16
G05
G00X13.0Y-83.6
M15
G01X13.0Y-84.4
M16
G05
G00X2.0Y-19.6
M15
G01X2.0Y-20.4
M16
G05
G00X5.0Y-24.5
M15
G01X5.8Y-24.5
M16
G05
G00X8.0Y-17.5
M15
G01X8.8Y-17.5
M16
G05
G00X9.4Y-14.8
M15
G01X10.2Y-14.8
M16
G05
G00X13.0Y-23.6
M15
G01X13.0Y-24.4
M16
G05
G00X2.0Y-7.6
M15
G01X2.0Y-8.4
M16
G05
G00X5.0Y-12.5
M15
G01X5.8Y-12.5
M16
G05
G00X8.0Y-5.5
M15
G01X8.8Y-5.5
M16
G05
G00X9.4Y-2.8
M15
G01X10.2Y-2.8
M16
G05
G00X13.0Y-11.6
M15
G01X13.0Y-12.4
M16
G05
G00X2.0Y-67.6
M15
G01X2.0Y-68.4
M16
G05
G00X5.0Y-72.5
M15
G01X5.8Y-72.5
M16
G05
G00X8.0Y-65.5
M15
G01X8.8Y-65.5
M16
G05
G00X9.4Y-62.8
M15
G01X10.2Y-62.8
M16
G05
G00X13.0Y-71.6
M15
G01X13.0Y-72.4
M16
G05
G00X2.0Y-31.6
M15
G01X2.0Y-32.4
M16
G05
G00X5.0Y-36.5
M15
G01X5.8Y-36.5
M16
G05
G00X8.0Y-29.5
M15
G01X8.8Y-29.5
M16
G05
G00X9.4Y-26.8
M15
G01X10.2Y-26.8
M16
G05
G00X13.0Y-35.6
M15
G01X13.0Y-36.4
M16
G05
G00X2.0Y-55.6
M15
G01X2.0Y-56.4
M16
G05
G00X5.0Y-60.5
M15
G01X5.8Y-60.5
M16
G05
G00X8.0Y-53.5
M15
G01X8.8Y-53.5
M16
G05
G00X9.4Y-50.8
M15
G01X10.2Y-50.8
M16
G05
G00X13.0Y-59.6
M15
G01X13.0Y-60.4
M16
G05
G00X2.0Y-43.6
M15
G01X2.0Y-44.4
M16
G05
G00X5.0Y-48.5
M15
G01X5.8Y-48.5
M16
G05
G00X8.0Y-41.5
M15
G01X8.8Y-41.5
M16
G05
G00X9.4Y-38.8
M15
G01X10.2Y-38.8
M16
G05
G00X13.0Y-47.6
M15
G01X13.0Y-48.4
M16
G05
T0
M30
