M48
; DRILL file {KiCad 9.0.0} date 2025-02-23T16:06:55-0700
; FORMAT={-:-/ absolute / inch / decimal}
; #@! TF.CreationDate,2025-02-23T16:06:55-07:00
; #@! TF.GenerationSoftware,Kicad,Pcbnew,9.0.0
; #@! TF.FileFunction,Plated,1,2,PTH
FMAT,2
INCH
; #@! TA.AperFunction,Plated,PTH,ComponentDrill
T1C0.0157
; #@! TA.AperFunction,Plated,PTH,ComponentDrill
T2C0.0394
%
G90
G05
T2
X0.7874Y-1.7185
X0.7874Y-1.8185
X0.7874Y-1.9185
X0.7874Y-2.0185
X0.7874Y-2.1185
X0.7874Y-2.2185
X0.8874Y-1.7185
X0.8874Y-1.8185
X0.8874Y-1.9185
X0.8874Y-2.0185
X0.8874Y-2.1185
X0.8874Y-2.2185
T1
G00X0.0787Y-0.2992
M15
G01X0.0787Y-0.3307
M16
G05
G00X0.0787Y-0.7717
M15
G01X0.0787Y-0.8031
M16
G05
G00X0.0787Y-1.2441
M15
G01X0.0787Y-1.2756
M16
G05
G00X0.0787Y-1.7165
M15
G01X0.0787Y-1.748
M16
G05
G00X0.0787Y-2.189
M15
G01X0.0787Y-2.2205
M16
G05
G00X0.0787Y-2.6614
M15
G01X0.0787Y-2.6929
M16
G05
G00X0.0787Y-3.1339
M15
G01X0.0787Y-3.1654
M16
G05
G00X0.0787Y-3.6063
M15
G01X0.0787Y-3.6378
M16
G05
G00X0.1969Y-0.4921
M15
G01X0.2283Y-0.4921
M16
G05
G00X0.1969Y-0.9646
M15
G01X0.2283Y-0.9646
M16
G05
G00X0.1969Y-1.437
M15
G01X0.2283Y-1.437
M16
G05
G00X0.1969Y-1.9094
M15
G01X0.2283Y-1.9094
M16
G05
G00X0.1969Y-2.3819
M15
G01X0.2283Y-2.3819
M16
G05
G00X0.1969Y-2.8543
M15
G01X0.2283Y-2.8543
M16
G05
G00X0.1969Y-3.3268
M15
G01X0.2283Y-3.3268
M16
G05
G00X0.1969Y-3.7992
M15
G01X0.2283Y-3.7992
M16
G05
G00X0.315Y-0.2165
M15
G01X0.3465Y-0.2165
M16
G05
G00X0.315Y-0.689
M15
G01X0.3465Y-0.689
M16
G05
G00X0.315Y-1.1614
M15
G01X0.3465Y-1.1614
M16
G05
G00X0.315Y-1.6339
M15
G01X0.3465Y-1.6339
M16
G05
G00X0.315Y-2.1063
M15
G01X0.3465Y-2.1063
M16
G05
G00X0.315Y-2.5787
M15
G01X0.3465Y-2.5787
M16
G05
G00X0.315Y-3.0512
M15
G01X0.3465Y-3.0512
M16
G05
G00X0.315Y-3.5236
M15
G01X0.3465Y-3.5236
M16
G05
G00X0.3701Y-0.1102
M15
G01X0.4016Y-0.1102
M16
G05
G00X0.3701Y-0.5827
M15
G01X0.4016Y-0.5827
M16
G05
G00X0.3701Y-1.0551
M15
G01X0.4016Y-1.0551
M16
G05
G00X0.3701Y-1.5276
M15
G01X0.4016Y-1.5276
M16
G05
G00X0.3701Y-2.0
M15
G01X0.4016Y-2.0
M16
G05
G00X0.3701Y-2.4724
M15
G01X0.4016Y-2.4724
M16
G05
G00X0.3701Y-2.9449
M15
G01X0.4016Y-2.9449
M16
G05
G00X0.3701Y-3.4173
M15
G01X0.4016Y-3.4173
M16
G05
G00X0.5118Y-0.4567
M15
G01X0.5118Y-0.4882
M16
G05
G00X0.5118Y-0.9291
M15
G01X0.5118Y-0.9606
M16
G05
G00X0.5118Y-1.4016
M15
G01X0.5118Y-1.4331
M16
G05
G00X0.5118Y-1.874
M15
G01X0.5118Y-1.9055
M16
G05
G00X0.5118Y-2.3465
M15
G01X0.5118Y-2.378
M16
G05
G00X0.5118Y-2.8189
M15
G01X0.5118Y-2.8504
M16
G05
G00X0.5118Y-3.2913
M15
G01X0.5118Y-3.3228
M16
G05
G00X0.5118Y-3.7638
M15
G01X0.5118Y-3.7953
M16
G05
M30
