G04 #@! TF.GenerationSoftware,KiCad,Pcbnew,(5.1.5)-3*
G04 #@! TF.CreationDate,2020-07-27T18:32:53-07:00*
G04 #@! TF.ProjectId,Patch_Bay,50617463-685f-4426-9179-2e6b69636164,rev?*
G04 #@! TF.SameCoordinates,Original*
G04 #@! TF.FileFunction,Legend,Top*
G04 #@! TF.FilePolarity,Positive*
%FSLAX46Y46*%
G04 Gerber Fmt 4.6, Leading zero omitted, Abs format (unit mm)*
G04 Created by KiCad (PCBNEW (5.1.5)-3) date 2020-07-27 18:32:53*
%MOMM*%
%LPD*%
G04 APERTURE LIST*
%ADD10C,0.150000*%
%ADD11C,0.120000*%
G04 APERTURE END LIST*
D10*
X0Y-2000000D02*
X14000000Y-2000000D01*
X14000000Y-2000000D02*
X14000000Y-13500000D01*
X14000000Y-13500000D02*
X0Y-13500000D01*
X0Y-13500000D02*
X0Y-2000000D01*
X0Y-6200000D02*
X-3500000Y-6200000D01*
X-3500000Y-6200000D02*
X-3500000Y-9800000D01*
X0Y-9800000D02*
X-3500000Y-9800000D01*
X0Y-21800000D02*
X-3500000Y-21800000D01*
X-3500000Y-18200000D02*
X-3500000Y-21800000D01*
X0Y-18200000D02*
X-3500000Y-18200000D01*
X0Y-25500000D02*
X0Y-14000000D01*
X14000000Y-25500000D02*
X0Y-25500000D01*
X14000000Y-14000000D02*
X14000000Y-25500000D01*
X0Y-14000000D02*
X14000000Y-14000000D01*
X0Y-26000000D02*
X14000000Y-26000000D01*
X14000000Y-26000000D02*
X14000000Y-37500000D01*
X14000000Y-37500000D02*
X0Y-37500000D01*
X0Y-37500000D02*
X0Y-26000000D01*
X0Y-30200000D02*
X-3500000Y-30200000D01*
X-3500000Y-30200000D02*
X-3500000Y-33800000D01*
X0Y-33800000D02*
X-3500000Y-33800000D01*
X0Y-45800000D02*
X-3500000Y-45800000D01*
X-3500000Y-42200000D02*
X-3500000Y-45800000D01*
X0Y-42200000D02*
X-3500000Y-42200000D01*
X0Y-49500000D02*
X0Y-38000000D01*
X14000000Y-49500000D02*
X0Y-49500000D01*
X14000000Y-38000000D02*
X14000000Y-49500000D01*
X0Y-38000000D02*
X14000000Y-38000000D01*
X0Y-50000000D02*
X14000000Y-50000000D01*
X14000000Y-50000000D02*
X14000000Y-61500000D01*
X14000000Y-61500000D02*
X0Y-61500000D01*
X0Y-61500000D02*
X0Y-50000000D01*
X0Y-54200000D02*
X-3500000Y-54200000D01*
X-3500000Y-54200000D02*
X-3500000Y-57800000D01*
X0Y-57800000D02*
X-3500000Y-57800000D01*
X0Y-69800000D02*
X-3500000Y-69800000D01*
X-3500000Y-66200000D02*
X-3500000Y-69800000D01*
X0Y-66200000D02*
X-3500000Y-66200000D01*
X0Y-73500000D02*
X0Y-62000000D01*
X14000000Y-73500000D02*
X0Y-73500000D01*
X14000000Y-62000000D02*
X14000000Y-73500000D01*
X0Y-62000000D02*
X14000000Y-62000000D01*
X0Y-74000000D02*
X14000000Y-74000000D01*
X14000000Y-74000000D02*
X14000000Y-85500000D01*
X14000000Y-85500000D02*
X0Y-85500000D01*
X0Y-85500000D02*
X0Y-74000000D01*
X0Y-78200000D02*
X-3500000Y-78200000D01*
X-3500000Y-78200000D02*
X-3500000Y-81800000D01*
X0Y-81800000D02*
X-3500000Y-81800000D01*
X0Y-93800000D02*
X-3500000Y-93800000D01*
X-3500000Y-90200000D02*
X-3500000Y-93800000D01*
X0Y-90200000D02*
X-3500000Y-90200000D01*
X0Y-97500000D02*
X0Y-86000000D01*
X14000000Y-97500000D02*
X0Y-97500000D01*
X14000000Y-86000000D02*
X14000000Y-97500000D01*
X0Y-86000000D02*
X14000000Y-86000000D01*
D11*
X18670000Y-42320000D02*
X20000000Y-42320000D01*
X18670000Y-43650000D02*
X18670000Y-42320000D01*
X21270000Y-42320000D02*
X23870000Y-42320000D01*
X21270000Y-44920000D02*
X21270000Y-42320000D01*
X18670000Y-44920000D02*
X21270000Y-44920000D01*
X23870000Y-42320000D02*
X23870000Y-57680000D01*
X18670000Y-44920000D02*
X18670000Y-57680000D01*
X18670000Y-57680000D02*
X23870000Y-57680000D01*
D10*
X14666666Y-7452380D02*
X14666666Y-8166666D01*
X14619047Y-8309523D01*
X14523809Y-8404761D01*
X14380952Y-8452380D01*
X14285714Y-8452380D01*
X15666666Y-8452380D02*
X15095238Y-8452380D01*
X15380952Y-8452380D02*
X15380952Y-7452380D01*
X15285714Y-7595238D01*
X15190476Y-7690476D01*
X15095238Y-7738095D01*
X14666666Y-19452380D02*
X14666666Y-20166666D01*
X14619047Y-20309523D01*
X14523809Y-20404761D01*
X14380952Y-20452380D01*
X14285714Y-20452380D01*
X15095238Y-19547619D02*
X15142857Y-19500000D01*
X15238095Y-19452380D01*
X15476190Y-19452380D01*
X15571428Y-19500000D01*
X15619047Y-19547619D01*
X15666666Y-19642857D01*
X15666666Y-19738095D01*
X15619047Y-19880952D01*
X15047619Y-20452380D01*
X15666666Y-20452380D01*
X14666666Y-31452380D02*
X14666666Y-32166666D01*
X14619047Y-32309523D01*
X14523809Y-32404761D01*
X14380952Y-32452380D01*
X14285714Y-32452380D01*
X15047619Y-31452380D02*
X15666666Y-31452380D01*
X15333333Y-31833333D01*
X15476190Y-31833333D01*
X15571428Y-31880952D01*
X15619047Y-31928571D01*
X15666666Y-32023809D01*
X15666666Y-32261904D01*
X15619047Y-32357142D01*
X15571428Y-32404761D01*
X15476190Y-32452380D01*
X15190476Y-32452380D01*
X15095238Y-32404761D01*
X15047619Y-32357142D01*
X14666666Y-43452380D02*
X14666666Y-44166666D01*
X14619047Y-44309523D01*
X14523809Y-44404761D01*
X14380952Y-44452380D01*
X14285714Y-44452380D01*
X15571428Y-43785714D02*
X15571428Y-44452380D01*
X15333333Y-43404761D02*
X15095238Y-44119047D01*
X15714285Y-44119047D01*
X14666666Y-55452380D02*
X14666666Y-56166666D01*
X14619047Y-56309523D01*
X14523809Y-56404761D01*
X14380952Y-56452380D01*
X14285714Y-56452380D01*
X15619047Y-55452380D02*
X15142857Y-55452380D01*
X15095238Y-55928571D01*
X15142857Y-55880952D01*
X15238095Y-55833333D01*
X15476190Y-55833333D01*
X15571428Y-55880952D01*
X15619047Y-55928571D01*
X15666666Y-56023809D01*
X15666666Y-56261904D01*
X15619047Y-56357142D01*
X15571428Y-56404761D01*
X15476190Y-56452380D01*
X15238095Y-56452380D01*
X15142857Y-56404761D01*
X15095238Y-56357142D01*
X14666666Y-67452380D02*
X14666666Y-68166666D01*
X14619047Y-68309523D01*
X14523809Y-68404761D01*
X14380952Y-68452380D01*
X14285714Y-68452380D01*
X15571428Y-67452380D02*
X15380952Y-67452380D01*
X15285714Y-67500000D01*
X15238095Y-67547619D01*
X15142857Y-67690476D01*
X15095238Y-67880952D01*
X15095238Y-68261904D01*
X15142857Y-68357142D01*
X15190476Y-68404761D01*
X15285714Y-68452380D01*
X15476190Y-68452380D01*
X15571428Y-68404761D01*
X15619047Y-68357142D01*
X15666666Y-68261904D01*
X15666666Y-68023809D01*
X15619047Y-67928571D01*
X15571428Y-67880952D01*
X15476190Y-67833333D01*
X15285714Y-67833333D01*
X15190476Y-67880952D01*
X15142857Y-67928571D01*
X15095238Y-68023809D01*
X14666666Y-79452380D02*
X14666666Y-80166666D01*
X14619047Y-80309523D01*
X14523809Y-80404761D01*
X14380952Y-80452380D01*
X14285714Y-80452380D01*
X15047619Y-79452380D02*
X15714285Y-79452380D01*
X15285714Y-80452380D01*
X14666666Y-91452380D02*
X14666666Y-92166666D01*
X14619047Y-92309523D01*
X14523809Y-92404761D01*
X14380952Y-92452380D01*
X14285714Y-92452380D01*
X15285714Y-91880952D02*
X15190476Y-91833333D01*
X15142857Y-91785714D01*
X15095238Y-91690476D01*
X15095238Y-91642857D01*
X15142857Y-91547619D01*
X15190476Y-91500000D01*
X15285714Y-91452380D01*
X15476190Y-91452380D01*
X15571428Y-91500000D01*
X15619047Y-91547619D01*
X15666666Y-91642857D01*
X15666666Y-91690476D01*
X15619047Y-91785714D01*
X15571428Y-91833333D01*
X15476190Y-91880952D01*
X15285714Y-91880952D01*
X15190476Y-91928571D01*
X15142857Y-91976190D01*
X15095238Y-92071428D01*
X15095238Y-92261904D01*
X15142857Y-92357142D01*
X15190476Y-92404761D01*
X15285714Y-92452380D01*
X15476190Y-92452380D01*
X15571428Y-92404761D01*
X15619047Y-92357142D01*
X15666666Y-92261904D01*
X15666666Y-92071428D01*
X15619047Y-91976190D01*
X15571428Y-91928571D01*
X15476190Y-91880952D01*
X20936666Y-40772380D02*
X20936666Y-41486666D01*
X20889047Y-41629523D01*
X20793809Y-41724761D01*
X20650952Y-41772380D01*
X20555714Y-41772380D01*
X21460476Y-41772380D02*
X21650952Y-41772380D01*
X21746190Y-41724761D01*
X21793809Y-41677142D01*
X21889047Y-41534285D01*
X21936666Y-41343809D01*
X21936666Y-40962857D01*
X21889047Y-40867619D01*
X21841428Y-40820000D01*
X21746190Y-40772380D01*
X21555714Y-40772380D01*
X21460476Y-40820000D01*
X21412857Y-40867619D01*
X21365238Y-40962857D01*
X21365238Y-41200952D01*
X21412857Y-41296190D01*
X21460476Y-41343809D01*
X21555714Y-41391428D01*
X21746190Y-41391428D01*
X21841428Y-41343809D01*
X21889047Y-41296190D01*
X21936666Y-41200952D01*
M02*
