G04 #@! TF.GenerationSoftware,KiCad,Pcbnew,(5.1.5)-3*
G04 #@! TF.CreationDate,2020-08-14T09:08:36-07:00*
G04 #@! TF.ProjectId,Noise_Gen,4e6f6973-655f-4476-956e-2e6b69636164,rev?*
G04 #@! TF.SameCoordinates,Original*
G04 #@! TF.FileFunction,Copper,L1,Top*
G04 #@! TF.FilePolarity,Positive*
%FSLAX46Y46*%
G04 Gerber Fmt 4.6, Leading zero omitted, Abs format (unit mm)*
G04 Created by KiCad (PCBNEW (5.1.5)-3) date 2020-08-14 09:08:36*
%MOMM*%
%LPD*%
G04 APERTURE LIST*
%ADD10R,2.200000X1.000000*%
%ADD11R,1.000000X2.200000*%
%ADD12C,1.800000*%
%ADD13C,4.600000*%
%ADD14O,1.700000X1.700000*%
%ADD15R,1.700000X1.700000*%
%ADD16R,2.600000X1.600000*%
%ADD17R,2.500000X2.000000*%
%ADD18R,2.000000X2.500000*%
%ADD19R,3.500000X1.600000*%
%ADD20R,1.520000X1.520000*%
%ADD21C,1.520000*%
%ADD22R,0.600000X1.550000*%
%ADD23C,0.800000*%
%ADD24C,0.250000*%
%ADD25C,0.500000*%
%ADD26C,0.254000*%
G04 APERTURE END LIST*
D10*
X9800000Y-20800000D03*
X8400000Y-23500000D03*
D11*
X13000000Y-30000000D03*
D10*
X5400000Y-30500000D03*
D11*
X2000000Y-26000000D03*
X2000000Y-73000000D03*
D10*
X5400000Y-77500000D03*
D11*
X13000000Y-77000000D03*
D10*
X8400000Y-70500000D03*
X9800000Y-67800000D03*
D12*
X3500000Y-14000000D03*
X3500000Y-11500000D03*
X3500000Y-9000000D03*
D13*
X6800000Y-16500000D03*
X6800000Y-6500000D03*
X6800000Y-53500000D03*
X6800000Y-63500000D03*
D12*
X3500000Y-56000000D03*
X3500000Y-58500000D03*
X3500000Y-61000000D03*
D14*
X27540000Y-97160000D03*
X25000000Y-97160000D03*
X27540000Y-94620000D03*
X25000000Y-94620000D03*
X27540000Y-92080000D03*
X25000000Y-92080000D03*
X27540000Y-89540000D03*
X25000000Y-89540000D03*
X27540000Y-87000000D03*
D15*
X25000000Y-87000000D03*
D16*
X25800000Y-77000000D03*
X22200000Y-77000000D03*
D17*
X14000000Y-59000000D03*
X14000000Y-63000000D03*
D18*
X26000000Y-45000000D03*
X22000000Y-45000000D03*
X22000000Y-40000000D03*
X26000000Y-40000000D03*
X26000000Y-35000000D03*
X22000000Y-35000000D03*
X22000000Y-30000000D03*
X26000000Y-30000000D03*
X19000000Y-10000000D03*
X15000000Y-10000000D03*
D19*
X19700000Y-95000000D03*
X14300000Y-95000000D03*
X14300000Y-86000000D03*
X19700000Y-86000000D03*
D20*
X8000000Y-86000000D03*
D21*
X2920000Y-86000000D03*
X5460000Y-86000000D03*
D18*
X4000000Y-95000000D03*
X8000000Y-95000000D03*
D17*
X17000000Y-69000000D03*
X17000000Y-73000000D03*
D18*
X26000000Y-71000000D03*
X22000000Y-71000000D03*
D17*
X14000000Y-50000000D03*
X14000000Y-54000000D03*
D18*
X22000000Y-50000000D03*
X26000000Y-50000000D03*
X17000000Y-45000000D03*
X13000000Y-45000000D03*
X17000000Y-40000000D03*
X13000000Y-40000000D03*
X13000000Y-35000000D03*
X17000000Y-35000000D03*
D22*
X21095000Y-57300000D03*
X22365000Y-57300000D03*
X23635000Y-57300000D03*
X24905000Y-57300000D03*
X24905000Y-62700000D03*
X23635000Y-62700000D03*
X22365000Y-62700000D03*
X21095000Y-62700000D03*
D23*
X27000000Y-57000000D03*
D24*
X14300000Y-62700000D02*
X14000000Y-63000000D01*
X21095000Y-62700000D02*
X14300000Y-62700000D01*
X11772792Y-63000000D02*
X12500000Y-63000000D01*
X12500000Y-63000000D02*
X14000000Y-63000000D01*
X4772792Y-56000000D02*
X11772792Y-63000000D01*
X3500000Y-56000000D02*
X4772792Y-56000000D01*
X17000000Y-66276000D02*
X17000000Y-69000000D01*
X14732000Y-65786000D02*
X16510000Y-65786000D01*
X16510000Y-65786000D02*
X17000000Y-66276000D01*
X14000000Y-63000000D02*
X14000000Y-65054000D01*
X14000000Y-65054000D02*
X14732000Y-65786000D01*
X13750000Y-10000000D02*
X15000000Y-10000000D01*
X5772792Y-10000000D02*
X13750000Y-10000000D01*
X4772792Y-9000000D02*
X5772792Y-10000000D01*
X3500000Y-9000000D02*
X4772792Y-9000000D01*
X5400000Y-29750000D02*
X5400000Y-30500000D01*
X5400000Y-22286000D02*
X5400000Y-29750000D01*
X3570000Y-11430000D02*
X6096000Y-11430000D01*
X9906000Y-15240000D02*
X9906000Y-17780000D01*
X9906000Y-17780000D02*
X5400000Y-22286000D01*
X3500000Y-11500000D02*
X3570000Y-11430000D01*
X6096000Y-11430000D02*
X9906000Y-15240000D01*
X5400000Y-76750000D02*
X5400000Y-77500000D01*
X3500000Y-58500000D02*
X6176000Y-58500000D01*
X9906000Y-62230000D02*
X9906000Y-64770000D01*
X6176000Y-58500000D02*
X9906000Y-62230000D01*
X9906000Y-64770000D02*
X5400000Y-69276000D01*
X5400000Y-69276000D02*
X5400000Y-76750000D01*
D25*
X22950000Y-87000000D02*
X25000000Y-87000000D01*
X19700000Y-86000000D02*
X21950000Y-86000000D01*
X21950000Y-86000000D02*
X22950000Y-87000000D01*
X25000000Y-87000000D02*
X27540000Y-87000000D01*
X24905000Y-64021000D02*
X24905000Y-62700000D01*
X27686000Y-66802000D02*
X24905000Y-64021000D01*
X27686000Y-73814000D02*
X27686000Y-66802000D01*
X25800000Y-77000000D02*
X25800000Y-75700000D01*
X25800000Y-75700000D02*
X27686000Y-73814000D01*
X19700000Y-84978000D02*
X19700000Y-86000000D01*
X2794000Y-97282000D02*
X5334000Y-97282000D01*
X1778000Y-89682000D02*
X1778000Y-96266000D01*
X1778000Y-96266000D02*
X2794000Y-97282000D01*
X5334000Y-97282000D02*
X6096000Y-96520000D01*
X5460000Y-86000000D02*
X1778000Y-89682000D01*
X6096000Y-96520000D02*
X6096000Y-92710000D01*
X13010374Y-83058000D02*
X17780000Y-83058000D01*
X12192000Y-83820000D02*
X12248374Y-83820000D01*
X17780000Y-83058000D02*
X19700000Y-84978000D01*
X12248374Y-83820000D02*
X13010374Y-83058000D01*
X6096000Y-92710000D02*
X10922000Y-87884000D01*
X10922000Y-87884000D02*
X10922000Y-85090000D01*
X10922000Y-85090000D02*
X12192000Y-83820000D01*
X25800000Y-78848000D02*
X25800000Y-77000000D01*
X23114000Y-81534000D02*
X25800000Y-78848000D01*
X5460000Y-86000000D02*
X9926000Y-81534000D01*
X9926000Y-81534000D02*
X23114000Y-81534000D01*
X8000000Y-95000000D02*
X14300000Y-95000000D01*
X27540000Y-97160000D02*
X25000000Y-97160000D01*
X14300000Y-96300000D02*
X14300000Y-95000000D01*
X15160000Y-97160000D02*
X14300000Y-96300000D01*
X25000000Y-97160000D02*
X15160000Y-97160000D01*
X28389999Y-96310001D02*
X27540000Y-97160000D01*
X29210000Y-95490000D02*
X28389999Y-96310001D01*
X21095000Y-58575000D02*
X22210000Y-59690000D01*
X22210000Y-59690000D02*
X28448000Y-59690000D01*
X21095000Y-57300000D02*
X21095000Y-58575000D01*
X28448000Y-59690000D02*
X29210000Y-60452000D01*
X29210000Y-60452000D02*
X29210000Y-95490000D01*
D24*
X22000000Y-76800000D02*
X22200000Y-77000000D01*
X22000000Y-71000000D02*
X22000000Y-76800000D01*
X14000000Y-54000000D02*
X14000000Y-59000000D01*
X26000000Y-31500000D02*
X26000000Y-45000000D01*
X26000000Y-30000000D02*
X26000000Y-31500000D01*
X26000000Y-46500000D02*
X26000000Y-50000000D01*
X26000000Y-45000000D02*
X26000000Y-46500000D01*
X26000000Y-51978000D02*
X26000000Y-50000000D01*
X25654000Y-52324000D02*
X26000000Y-51978000D01*
X24130000Y-52324000D02*
X25654000Y-52324000D01*
X23635000Y-57300000D02*
X23635000Y-52819000D01*
X23635000Y-52819000D02*
X24130000Y-52324000D01*
X17742000Y-50000000D02*
X14000000Y-50000000D01*
X23635000Y-58325000D02*
X23286000Y-58674000D01*
X21739999Y-53997999D02*
X17742000Y-50000000D01*
X21739999Y-58250999D02*
X21739999Y-53997999D01*
X23635000Y-57300000D02*
X23635000Y-58325000D01*
X23286000Y-58674000D02*
X22163000Y-58674000D01*
X22163000Y-58674000D02*
X21739999Y-58250999D01*
X18250000Y-45000000D02*
X22000000Y-45000000D01*
X17000000Y-45000000D02*
X18250000Y-45000000D01*
X18250000Y-40000000D02*
X22000000Y-40000000D01*
X17000000Y-40000000D02*
X18250000Y-40000000D01*
X18250000Y-35000000D02*
X22000000Y-35000000D01*
X17000000Y-35000000D02*
X18250000Y-35000000D01*
X22000000Y-28500000D02*
X22000000Y-30000000D01*
X19000000Y-10000000D02*
X20922000Y-10000000D01*
X22000000Y-11078000D02*
X22000000Y-28500000D01*
X20922000Y-10000000D02*
X22000000Y-11078000D01*
X13000000Y-35000000D02*
X13000000Y-45000000D01*
X22000000Y-31848000D02*
X22000000Y-30000000D01*
X21336000Y-32512000D02*
X22000000Y-31848000D01*
X13462000Y-32512000D02*
X21336000Y-32512000D01*
X13000000Y-35000000D02*
X13000000Y-32974000D01*
X13000000Y-32974000D02*
X13462000Y-32512000D01*
X22000000Y-48416000D02*
X22000000Y-50000000D01*
X13998000Y-47498000D02*
X21082000Y-47498000D01*
X21082000Y-47498000D02*
X22000000Y-48416000D01*
X13000000Y-45000000D02*
X13000000Y-46500000D01*
X13000000Y-46500000D02*
X13998000Y-47498000D01*
X22000000Y-50000000D02*
X22000000Y-52480000D01*
X22365000Y-52845000D02*
X22365000Y-57300000D01*
X22000000Y-52480000D02*
X22365000Y-52845000D01*
X4000000Y-90000000D02*
X8000000Y-86000000D01*
X4000000Y-95000000D02*
X4000000Y-90000000D01*
X24350000Y-60960000D02*
X23635000Y-61675000D01*
X27940000Y-60960000D02*
X24350000Y-60960000D01*
X8000000Y-85980000D02*
X11684000Y-82296000D01*
X8000000Y-86000000D02*
X8000000Y-85980000D01*
X28448000Y-61468000D02*
X27940000Y-60960000D01*
X11684000Y-82296000D02*
X26416000Y-82296000D01*
X23635000Y-61675000D02*
X23635000Y-62700000D01*
X26416000Y-82296000D02*
X28448000Y-80264000D01*
X28448000Y-80264000D02*
X28448000Y-61468000D01*
X22365000Y-62700000D02*
X22365000Y-65545000D01*
X22365000Y-65545000D02*
X23114000Y-66294000D01*
X23114000Y-66294000D02*
X25400000Y-66294000D01*
X25400000Y-66294000D02*
X26000000Y-66894000D01*
X26000000Y-68672000D02*
X26000000Y-71000000D01*
X26000000Y-66894000D02*
X26000000Y-68672000D01*
X20066000Y-68580000D02*
X26000000Y-68580000D01*
X19558000Y-69088000D02*
X20066000Y-68580000D01*
X19558000Y-71942000D02*
X19558000Y-69088000D01*
X17000000Y-73000000D02*
X18500000Y-73000000D01*
X18500000Y-73000000D02*
X19558000Y-71942000D01*
D26*
G36*
X29340001Y-59330422D02*
G01*
X29104534Y-59094956D01*
X29076817Y-59061183D01*
X28942059Y-58950589D01*
X28788313Y-58868411D01*
X28621490Y-58817805D01*
X28491477Y-58805000D01*
X28491469Y-58805000D01*
X28448000Y-58800719D01*
X28404531Y-58805000D01*
X24224243Y-58805000D01*
X24269974Y-58749276D01*
X24325406Y-58645572D01*
X24360820Y-58664502D01*
X24480518Y-58700812D01*
X24605000Y-58713072D01*
X24619250Y-58710000D01*
X24778000Y-58551250D01*
X24778000Y-57427000D01*
X25032000Y-57427000D01*
X25032000Y-58551250D01*
X25190750Y-58710000D01*
X25205000Y-58713072D01*
X25329482Y-58700812D01*
X25449180Y-58664502D01*
X25559494Y-58605537D01*
X25656185Y-58526185D01*
X25735537Y-58429494D01*
X25794502Y-58319180D01*
X25830812Y-58199482D01*
X25843072Y-58075000D01*
X25840000Y-57585750D01*
X25681250Y-57427000D01*
X25032000Y-57427000D01*
X24778000Y-57427000D01*
X24758000Y-57427000D01*
X24758000Y-57173000D01*
X24778000Y-57173000D01*
X24778000Y-56048750D01*
X25032000Y-56048750D01*
X25032000Y-57173000D01*
X25681250Y-57173000D01*
X25840000Y-57014250D01*
X25843072Y-56525000D01*
X25830812Y-56400518D01*
X25794502Y-56280820D01*
X25735537Y-56170506D01*
X25656185Y-56073815D01*
X25559494Y-55994463D01*
X25449180Y-55935498D01*
X25329482Y-55899188D01*
X25205000Y-55886928D01*
X25190750Y-55890000D01*
X25032000Y-56048750D01*
X24778000Y-56048750D01*
X24619250Y-55890000D01*
X24605000Y-55886928D01*
X24480518Y-55899188D01*
X24395000Y-55925130D01*
X24395000Y-53133801D01*
X24444801Y-53084000D01*
X25616678Y-53084000D01*
X25654000Y-53087676D01*
X25691322Y-53084000D01*
X25691333Y-53084000D01*
X25802986Y-53073003D01*
X25946247Y-53029546D01*
X26078276Y-52958974D01*
X26194001Y-52864001D01*
X26217804Y-52834997D01*
X26510998Y-52541803D01*
X26540001Y-52518001D01*
X26634974Y-52402276D01*
X26705546Y-52270247D01*
X26749003Y-52126986D01*
X26760000Y-52015333D01*
X26760000Y-52015323D01*
X26763676Y-51978000D01*
X26760000Y-51940677D01*
X26760000Y-51888072D01*
X27000000Y-51888072D01*
X27124482Y-51875812D01*
X27244180Y-51839502D01*
X27354494Y-51780537D01*
X27451185Y-51701185D01*
X27530537Y-51604494D01*
X27589502Y-51494180D01*
X27625812Y-51374482D01*
X27638072Y-51250000D01*
X27638072Y-48750000D01*
X27625812Y-48625518D01*
X27589502Y-48505820D01*
X27530537Y-48395506D01*
X27451185Y-48298815D01*
X27354494Y-48219463D01*
X27244180Y-48160498D01*
X27124482Y-48124188D01*
X27000000Y-48111928D01*
X26760000Y-48111928D01*
X26760000Y-46888072D01*
X27000000Y-46888072D01*
X27124482Y-46875812D01*
X27244180Y-46839502D01*
X27354494Y-46780537D01*
X27451185Y-46701185D01*
X27530537Y-46604494D01*
X27589502Y-46494180D01*
X27625812Y-46374482D01*
X27638072Y-46250000D01*
X27638072Y-43750000D01*
X27625812Y-43625518D01*
X27589502Y-43505820D01*
X27530537Y-43395506D01*
X27451185Y-43298815D01*
X27354494Y-43219463D01*
X27244180Y-43160498D01*
X27124482Y-43124188D01*
X27000000Y-43111928D01*
X26760000Y-43111928D01*
X26760000Y-41888072D01*
X27000000Y-41888072D01*
X27124482Y-41875812D01*
X27244180Y-41839502D01*
X27354494Y-41780537D01*
X27451185Y-41701185D01*
X27530537Y-41604494D01*
X27589502Y-41494180D01*
X27625812Y-41374482D01*
X27638072Y-41250000D01*
X27638072Y-38750000D01*
X27625812Y-38625518D01*
X27589502Y-38505820D01*
X27530537Y-38395506D01*
X27451185Y-38298815D01*
X27354494Y-38219463D01*
X27244180Y-38160498D01*
X27124482Y-38124188D01*
X27000000Y-38111928D01*
X26760000Y-38111928D01*
X26760000Y-36888072D01*
X27000000Y-36888072D01*
X27124482Y-36875812D01*
X27244180Y-36839502D01*
X27354494Y-36780537D01*
X27451185Y-36701185D01*
X27530537Y-36604494D01*
X27589502Y-36494180D01*
X27625812Y-36374482D01*
X27638072Y-36250000D01*
X27638072Y-33750000D01*
X27625812Y-33625518D01*
X27589502Y-33505820D01*
X27530537Y-33395506D01*
X27451185Y-33298815D01*
X27354494Y-33219463D01*
X27244180Y-33160498D01*
X27124482Y-33124188D01*
X27000000Y-33111928D01*
X26760000Y-33111928D01*
X26760000Y-31888072D01*
X27000000Y-31888072D01*
X27124482Y-31875812D01*
X27244180Y-31839502D01*
X27354494Y-31780537D01*
X27451185Y-31701185D01*
X27530537Y-31604494D01*
X27589502Y-31494180D01*
X27625812Y-31374482D01*
X27638072Y-31250000D01*
X27638072Y-28750000D01*
X27625812Y-28625518D01*
X27589502Y-28505820D01*
X27530537Y-28395506D01*
X27451185Y-28298815D01*
X27354494Y-28219463D01*
X27244180Y-28160498D01*
X27124482Y-28124188D01*
X27000000Y-28111928D01*
X25000000Y-28111928D01*
X24875518Y-28124188D01*
X24755820Y-28160498D01*
X24645506Y-28219463D01*
X24548815Y-28298815D01*
X24469463Y-28395506D01*
X24410498Y-28505820D01*
X24374188Y-28625518D01*
X24361928Y-28750000D01*
X24361928Y-31250000D01*
X24374188Y-31374482D01*
X24410498Y-31494180D01*
X24469463Y-31604494D01*
X24548815Y-31701185D01*
X24645506Y-31780537D01*
X24755820Y-31839502D01*
X24875518Y-31875812D01*
X25000000Y-31888072D01*
X25240000Y-31888072D01*
X25240000Y-33111928D01*
X25000000Y-33111928D01*
X24875518Y-33124188D01*
X24755820Y-33160498D01*
X24645506Y-33219463D01*
X24548815Y-33298815D01*
X24469463Y-33395506D01*
X24410498Y-33505820D01*
X24374188Y-33625518D01*
X24361928Y-33750000D01*
X24361928Y-36250000D01*
X24374188Y-36374482D01*
X24410498Y-36494180D01*
X24469463Y-36604494D01*
X24548815Y-36701185D01*
X24645506Y-36780537D01*
X24755820Y-36839502D01*
X24875518Y-36875812D01*
X25000000Y-36888072D01*
X25240000Y-36888072D01*
X25240000Y-38111928D01*
X25000000Y-38111928D01*
X24875518Y-38124188D01*
X24755820Y-38160498D01*
X24645506Y-38219463D01*
X24548815Y-38298815D01*
X24469463Y-38395506D01*
X24410498Y-38505820D01*
X24374188Y-38625518D01*
X24361928Y-38750000D01*
X24361928Y-41250000D01*
X24374188Y-41374482D01*
X24410498Y-41494180D01*
X24469463Y-41604494D01*
X24548815Y-41701185D01*
X24645506Y-41780537D01*
X24755820Y-41839502D01*
X24875518Y-41875812D01*
X25000000Y-41888072D01*
X25240001Y-41888072D01*
X25240001Y-43111928D01*
X25000000Y-43111928D01*
X24875518Y-43124188D01*
X24755820Y-43160498D01*
X24645506Y-43219463D01*
X24548815Y-43298815D01*
X24469463Y-43395506D01*
X24410498Y-43505820D01*
X24374188Y-43625518D01*
X24361928Y-43750000D01*
X24361928Y-46250000D01*
X24374188Y-46374482D01*
X24410498Y-46494180D01*
X24469463Y-46604494D01*
X24548815Y-46701185D01*
X24645506Y-46780537D01*
X24755820Y-46839502D01*
X24875518Y-46875812D01*
X25000000Y-46888072D01*
X25240000Y-46888072D01*
X25240000Y-48111928D01*
X25000000Y-48111928D01*
X24875518Y-48124188D01*
X24755820Y-48160498D01*
X24645506Y-48219463D01*
X24548815Y-48298815D01*
X24469463Y-48395506D01*
X24410498Y-48505820D01*
X24374188Y-48625518D01*
X24361928Y-48750000D01*
X24361928Y-51250000D01*
X24374188Y-51374482D01*
X24410498Y-51494180D01*
X24447818Y-51564000D01*
X24167325Y-51564000D01*
X24130000Y-51560324D01*
X24092675Y-51564000D01*
X24092667Y-51564000D01*
X23981014Y-51574997D01*
X23837753Y-51618454D01*
X23705724Y-51689026D01*
X23589999Y-51783999D01*
X23566196Y-51813003D01*
X23123998Y-52255201D01*
X23095000Y-52278999D01*
X23071202Y-52307997D01*
X23071201Y-52307998D01*
X23000026Y-52394724D01*
X22991590Y-52410507D01*
X22905001Y-52304999D01*
X22875998Y-52281197D01*
X22760000Y-52165199D01*
X22760000Y-51888072D01*
X23000000Y-51888072D01*
X23124482Y-51875812D01*
X23244180Y-51839502D01*
X23354494Y-51780537D01*
X23451185Y-51701185D01*
X23530537Y-51604494D01*
X23589502Y-51494180D01*
X23625812Y-51374482D01*
X23638072Y-51250000D01*
X23638072Y-48750000D01*
X23625812Y-48625518D01*
X23589502Y-48505820D01*
X23530537Y-48395506D01*
X23451185Y-48298815D01*
X23354494Y-48219463D01*
X23244180Y-48160498D01*
X23124482Y-48124188D01*
X23000000Y-48111928D01*
X22699225Y-48111928D01*
X22634974Y-47991723D01*
X22563799Y-47904997D01*
X22540001Y-47875999D01*
X22511004Y-47852202D01*
X21645803Y-46987002D01*
X21622001Y-46957999D01*
X21536795Y-46888072D01*
X23000000Y-46888072D01*
X23124482Y-46875812D01*
X23244180Y-46839502D01*
X23354494Y-46780537D01*
X23451185Y-46701185D01*
X23530537Y-46604494D01*
X23589502Y-46494180D01*
X23625812Y-46374482D01*
X23638072Y-46250000D01*
X23638072Y-43750000D01*
X23625812Y-43625518D01*
X23589502Y-43505820D01*
X23530537Y-43395506D01*
X23451185Y-43298815D01*
X23354494Y-43219463D01*
X23244180Y-43160498D01*
X23124482Y-43124188D01*
X23000000Y-43111928D01*
X21000000Y-43111928D01*
X20875518Y-43124188D01*
X20755820Y-43160498D01*
X20645506Y-43219463D01*
X20548815Y-43298815D01*
X20469463Y-43395506D01*
X20410498Y-43505820D01*
X20374188Y-43625518D01*
X20361928Y-43750000D01*
X20361928Y-44240000D01*
X18638072Y-44240000D01*
X18638072Y-43750000D01*
X18625812Y-43625518D01*
X18589502Y-43505820D01*
X18530537Y-43395506D01*
X18451185Y-43298815D01*
X18354494Y-43219463D01*
X18244180Y-43160498D01*
X18124482Y-43124188D01*
X18000000Y-43111928D01*
X16000000Y-43111928D01*
X15875518Y-43124188D01*
X15755820Y-43160498D01*
X15645506Y-43219463D01*
X15548815Y-43298815D01*
X15469463Y-43395506D01*
X15410498Y-43505820D01*
X15374188Y-43625518D01*
X15361928Y-43750000D01*
X15361928Y-46250000D01*
X15374188Y-46374482D01*
X15410498Y-46494180D01*
X15469463Y-46604494D01*
X15548815Y-46701185D01*
X15593674Y-46738000D01*
X14406326Y-46738000D01*
X14451185Y-46701185D01*
X14530537Y-46604494D01*
X14589502Y-46494180D01*
X14625812Y-46374482D01*
X14638072Y-46250000D01*
X14638072Y-43750000D01*
X14625812Y-43625518D01*
X14589502Y-43505820D01*
X14530537Y-43395506D01*
X14451185Y-43298815D01*
X14354494Y-43219463D01*
X14244180Y-43160498D01*
X14124482Y-43124188D01*
X14000000Y-43111928D01*
X13760000Y-43111928D01*
X13760000Y-41888072D01*
X14000000Y-41888072D01*
X14124482Y-41875812D01*
X14244180Y-41839502D01*
X14354494Y-41780537D01*
X14451185Y-41701185D01*
X14530537Y-41604494D01*
X14589502Y-41494180D01*
X14625812Y-41374482D01*
X14638072Y-41250000D01*
X14638072Y-38750000D01*
X15361928Y-38750000D01*
X15361928Y-41250000D01*
X15374188Y-41374482D01*
X15410498Y-41494180D01*
X15469463Y-41604494D01*
X15548815Y-41701185D01*
X15645506Y-41780537D01*
X15755820Y-41839502D01*
X15875518Y-41875812D01*
X16000000Y-41888072D01*
X18000000Y-41888072D01*
X18124482Y-41875812D01*
X18244180Y-41839502D01*
X18354494Y-41780537D01*
X18451185Y-41701185D01*
X18530537Y-41604494D01*
X18589502Y-41494180D01*
X18625812Y-41374482D01*
X18638072Y-41250000D01*
X18638072Y-40760000D01*
X20361928Y-40760000D01*
X20361928Y-41250000D01*
X20374188Y-41374482D01*
X20410498Y-41494180D01*
X20469463Y-41604494D01*
X20548815Y-41701185D01*
X20645506Y-41780537D01*
X20755820Y-41839502D01*
X20875518Y-41875812D01*
X21000000Y-41888072D01*
X23000000Y-41888072D01*
X23124482Y-41875812D01*
X23244180Y-41839502D01*
X23354494Y-41780537D01*
X23451185Y-41701185D01*
X23530537Y-41604494D01*
X23589502Y-41494180D01*
X23625812Y-41374482D01*
X23638072Y-41250000D01*
X23638072Y-38750000D01*
X23625812Y-38625518D01*
X23589502Y-38505820D01*
X23530537Y-38395506D01*
X23451185Y-38298815D01*
X23354494Y-38219463D01*
X23244180Y-38160498D01*
X23124482Y-38124188D01*
X23000000Y-38111928D01*
X21000000Y-38111928D01*
X20875518Y-38124188D01*
X20755820Y-38160498D01*
X20645506Y-38219463D01*
X20548815Y-38298815D01*
X20469463Y-38395506D01*
X20410498Y-38505820D01*
X20374188Y-38625518D01*
X20361928Y-38750000D01*
X20361928Y-39240000D01*
X18638072Y-39240000D01*
X18638072Y-38750000D01*
X18625812Y-38625518D01*
X18589502Y-38505820D01*
X18530537Y-38395506D01*
X18451185Y-38298815D01*
X18354494Y-38219463D01*
X18244180Y-38160498D01*
X18124482Y-38124188D01*
X18000000Y-38111928D01*
X16000000Y-38111928D01*
X15875518Y-38124188D01*
X15755820Y-38160498D01*
X15645506Y-38219463D01*
X15548815Y-38298815D01*
X15469463Y-38395506D01*
X15410498Y-38505820D01*
X15374188Y-38625518D01*
X15361928Y-38750000D01*
X14638072Y-38750000D01*
X14625812Y-38625518D01*
X14589502Y-38505820D01*
X14530537Y-38395506D01*
X14451185Y-38298815D01*
X14354494Y-38219463D01*
X14244180Y-38160498D01*
X14124482Y-38124188D01*
X14000000Y-38111928D01*
X13760000Y-38111928D01*
X13760000Y-36888072D01*
X14000000Y-36888072D01*
X14124482Y-36875812D01*
X14244180Y-36839502D01*
X14354494Y-36780537D01*
X14451185Y-36701185D01*
X14530537Y-36604494D01*
X14589502Y-36494180D01*
X14625812Y-36374482D01*
X14638072Y-36250000D01*
X14638072Y-33750000D01*
X14625812Y-33625518D01*
X14589502Y-33505820D01*
X14530537Y-33395506D01*
X14451185Y-33298815D01*
X14418511Y-33272000D01*
X15581489Y-33272000D01*
X15548815Y-33298815D01*
X15469463Y-33395506D01*
X15410498Y-33505820D01*
X15374188Y-33625518D01*
X15361928Y-33750000D01*
X15361928Y-36250000D01*
X15374188Y-36374482D01*
X15410498Y-36494180D01*
X15469463Y-36604494D01*
X15548815Y-36701185D01*
X15645506Y-36780537D01*
X15755820Y-36839502D01*
X15875518Y-36875812D01*
X16000000Y-36888072D01*
X18000000Y-36888072D01*
X18124482Y-36875812D01*
X18244180Y-36839502D01*
X18354494Y-36780537D01*
X18451185Y-36701185D01*
X18530537Y-36604494D01*
X18589502Y-36494180D01*
X18625812Y-36374482D01*
X18638072Y-36250000D01*
X18638072Y-35760000D01*
X20361928Y-35760000D01*
X20361928Y-36250000D01*
X20374188Y-36374482D01*
X20410498Y-36494180D01*
X20469463Y-36604494D01*
X20548815Y-36701185D01*
X20645506Y-36780537D01*
X20755820Y-36839502D01*
X20875518Y-36875812D01*
X21000000Y-36888072D01*
X23000000Y-36888072D01*
X23124482Y-36875812D01*
X23244180Y-36839502D01*
X23354494Y-36780537D01*
X23451185Y-36701185D01*
X23530537Y-36604494D01*
X23589502Y-36494180D01*
X23625812Y-36374482D01*
X23638072Y-36250000D01*
X23638072Y-33750000D01*
X23625812Y-33625518D01*
X23589502Y-33505820D01*
X23530537Y-33395506D01*
X23451185Y-33298815D01*
X23354494Y-33219463D01*
X23244180Y-33160498D01*
X23124482Y-33124188D01*
X23000000Y-33111928D01*
X21802980Y-33111928D01*
X21876001Y-33052001D01*
X21899803Y-33022998D01*
X22511004Y-32411798D01*
X22540001Y-32388001D01*
X22634974Y-32272276D01*
X22705546Y-32140247D01*
X22749003Y-31996986D01*
X22759730Y-31888072D01*
X23000000Y-31888072D01*
X23124482Y-31875812D01*
X23244180Y-31839502D01*
X23354494Y-31780537D01*
X23451185Y-31701185D01*
X23530537Y-31604494D01*
X23589502Y-31494180D01*
X23625812Y-31374482D01*
X23638072Y-31250000D01*
X23638072Y-28750000D01*
X23625812Y-28625518D01*
X23589502Y-28505820D01*
X23530537Y-28395506D01*
X23451185Y-28298815D01*
X23354494Y-28219463D01*
X23244180Y-28160498D01*
X23124482Y-28124188D01*
X23000000Y-28111928D01*
X22760000Y-28111928D01*
X22760000Y-11115322D01*
X22763676Y-11077999D01*
X22760000Y-11040676D01*
X22760000Y-11040667D01*
X22749003Y-10929014D01*
X22705546Y-10785753D01*
X22634974Y-10653724D01*
X22540001Y-10537999D01*
X22511004Y-10514202D01*
X21485804Y-9489002D01*
X21462001Y-9459999D01*
X21346276Y-9365026D01*
X21214247Y-9294454D01*
X21070986Y-9250997D01*
X20959333Y-9240000D01*
X20959322Y-9240000D01*
X20922000Y-9236324D01*
X20884678Y-9240000D01*
X20638072Y-9240000D01*
X20638072Y-8750000D01*
X20625812Y-8625518D01*
X20589502Y-8505820D01*
X20530537Y-8395506D01*
X20451185Y-8298815D01*
X20354494Y-8219463D01*
X20244180Y-8160498D01*
X20124482Y-8124188D01*
X20000000Y-8111928D01*
X18000000Y-8111928D01*
X17875518Y-8124188D01*
X17755820Y-8160498D01*
X17645506Y-8219463D01*
X17548815Y-8298815D01*
X17469463Y-8395506D01*
X17410498Y-8505820D01*
X17374188Y-8625518D01*
X17361928Y-8750000D01*
X17361928Y-11250000D01*
X17374188Y-11374482D01*
X17410498Y-11494180D01*
X17469463Y-11604494D01*
X17548815Y-11701185D01*
X17645506Y-11780537D01*
X17755820Y-11839502D01*
X17875518Y-11875812D01*
X18000000Y-11888072D01*
X20000000Y-11888072D01*
X20124482Y-11875812D01*
X20244180Y-11839502D01*
X20354494Y-11780537D01*
X20451185Y-11701185D01*
X20530537Y-11604494D01*
X20589502Y-11494180D01*
X20625812Y-11374482D01*
X20638072Y-11250000D01*
X20638072Y-10790873D01*
X21240000Y-11392802D01*
X21240001Y-28111928D01*
X21000000Y-28111928D01*
X20875518Y-28124188D01*
X20755820Y-28160498D01*
X20645506Y-28219463D01*
X20548815Y-28298815D01*
X20469463Y-28395506D01*
X20410498Y-28505820D01*
X20374188Y-28625518D01*
X20361928Y-28750000D01*
X20361928Y-31250000D01*
X20374188Y-31374482D01*
X20410498Y-31494180D01*
X20469463Y-31604494D01*
X20548815Y-31701185D01*
X20610733Y-31752000D01*
X13499325Y-31752000D01*
X13462000Y-31748324D01*
X13424675Y-31752000D01*
X13424667Y-31752000D01*
X13313014Y-31762997D01*
X13169753Y-31806454D01*
X13037724Y-31877026D01*
X12921999Y-31971999D01*
X12898196Y-32001003D01*
X12488998Y-32410201D01*
X12460000Y-32433999D01*
X12436202Y-32462997D01*
X12436201Y-32462998D01*
X12365026Y-32549724D01*
X12294454Y-32681754D01*
X12264180Y-32781558D01*
X12257298Y-32804247D01*
X12250998Y-32825015D01*
X12236324Y-32974000D01*
X12240001Y-33011332D01*
X12240001Y-33111928D01*
X12000000Y-33111928D01*
X11875518Y-33124188D01*
X11755820Y-33160498D01*
X11645506Y-33219463D01*
X11548815Y-33298815D01*
X11469463Y-33395506D01*
X11410498Y-33505820D01*
X11374188Y-33625518D01*
X11361928Y-33750000D01*
X11361928Y-36250000D01*
X11374188Y-36374482D01*
X11410498Y-36494180D01*
X11469463Y-36604494D01*
X11548815Y-36701185D01*
X11645506Y-36780537D01*
X11755820Y-36839502D01*
X11875518Y-36875812D01*
X12000000Y-36888072D01*
X12240000Y-36888072D01*
X12240000Y-38111928D01*
X12000000Y-38111928D01*
X11875518Y-38124188D01*
X11755820Y-38160498D01*
X11645506Y-38219463D01*
X11548815Y-38298815D01*
X11469463Y-38395506D01*
X11410498Y-38505820D01*
X11374188Y-38625518D01*
X11361928Y-38750000D01*
X11361928Y-41250000D01*
X11374188Y-41374482D01*
X11410498Y-41494180D01*
X11469463Y-41604494D01*
X11548815Y-41701185D01*
X11645506Y-41780537D01*
X11755820Y-41839502D01*
X11875518Y-41875812D01*
X12000000Y-41888072D01*
X12240001Y-41888072D01*
X12240001Y-43111928D01*
X12000000Y-43111928D01*
X11875518Y-43124188D01*
X11755820Y-43160498D01*
X11645506Y-43219463D01*
X11548815Y-43298815D01*
X11469463Y-43395506D01*
X11410498Y-43505820D01*
X11374188Y-43625518D01*
X11361928Y-43750000D01*
X11361928Y-46250000D01*
X11374188Y-46374482D01*
X11410498Y-46494180D01*
X11469463Y-46604494D01*
X11548815Y-46701185D01*
X11645506Y-46780537D01*
X11755820Y-46839502D01*
X11875518Y-46875812D01*
X12000000Y-46888072D01*
X12345674Y-46888072D01*
X12365026Y-46924276D01*
X12436201Y-47011002D01*
X12460000Y-47040001D01*
X12488998Y-47063799D01*
X13434200Y-48009002D01*
X13457999Y-48038001D01*
X13486997Y-48061799D01*
X13573723Y-48132974D01*
X13705753Y-48203546D01*
X13849014Y-48247003D01*
X13960667Y-48258000D01*
X13960676Y-48258000D01*
X13997999Y-48261676D01*
X14035322Y-48258000D01*
X20598548Y-48258000D01*
X20548815Y-48298815D01*
X20469463Y-48395506D01*
X20410498Y-48505820D01*
X20374188Y-48625518D01*
X20361928Y-48750000D01*
X20361928Y-51250000D01*
X20374188Y-51374482D01*
X20410498Y-51494180D01*
X20469463Y-51604494D01*
X20548815Y-51701185D01*
X20645506Y-51780537D01*
X20755820Y-51839502D01*
X20875518Y-51875812D01*
X21000000Y-51888072D01*
X21240001Y-51888072D01*
X21240001Y-52423198D01*
X18305804Y-49489003D01*
X18282001Y-49459999D01*
X18166276Y-49365026D01*
X18034247Y-49294454D01*
X17890986Y-49250997D01*
X17779333Y-49240000D01*
X17779322Y-49240000D01*
X17742000Y-49236324D01*
X17704678Y-49240000D01*
X15888072Y-49240000D01*
X15888072Y-49000000D01*
X15875812Y-48875518D01*
X15839502Y-48755820D01*
X15780537Y-48645506D01*
X15701185Y-48548815D01*
X15604494Y-48469463D01*
X15494180Y-48410498D01*
X15374482Y-48374188D01*
X15250000Y-48361928D01*
X12750000Y-48361928D01*
X12625518Y-48374188D01*
X12505820Y-48410498D01*
X12395506Y-48469463D01*
X12298815Y-48548815D01*
X12219463Y-48645506D01*
X12160498Y-48755820D01*
X12124188Y-48875518D01*
X12111928Y-49000000D01*
X12111928Y-51000000D01*
X12124188Y-51124482D01*
X12160498Y-51244180D01*
X12219463Y-51354494D01*
X12298815Y-51451185D01*
X12395506Y-51530537D01*
X12505820Y-51589502D01*
X12625518Y-51625812D01*
X12750000Y-51638072D01*
X15250000Y-51638072D01*
X15374482Y-51625812D01*
X15494180Y-51589502D01*
X15604494Y-51530537D01*
X15701185Y-51451185D01*
X15780537Y-51354494D01*
X15839502Y-51244180D01*
X15875812Y-51124482D01*
X15888072Y-51000000D01*
X15888072Y-50760000D01*
X17427199Y-50760000D01*
X20980000Y-54312803D01*
X20980000Y-55886928D01*
X20795000Y-55886928D01*
X20670518Y-55899188D01*
X20550820Y-55935498D01*
X20440506Y-55994463D01*
X20343815Y-56073815D01*
X20264463Y-56170506D01*
X20205498Y-56280820D01*
X20169188Y-56400518D01*
X20156928Y-56525000D01*
X20156928Y-58075000D01*
X20169188Y-58199482D01*
X20205498Y-58319180D01*
X20210001Y-58327604D01*
X20210001Y-58531522D01*
X20205719Y-58575000D01*
X20222805Y-58748490D01*
X20273412Y-58915313D01*
X20355590Y-59069059D01*
X20438468Y-59170046D01*
X20438471Y-59170049D01*
X20466184Y-59203817D01*
X20499951Y-59231529D01*
X21553470Y-60285049D01*
X21581183Y-60318817D01*
X21614951Y-60346530D01*
X21614953Y-60346532D01*
X21617718Y-60348801D01*
X21715941Y-60429411D01*
X21869687Y-60511589D01*
X22036510Y-60562195D01*
X22166523Y-60575000D01*
X22166533Y-60575000D01*
X22209999Y-60579281D01*
X22253465Y-60575000D01*
X23660198Y-60575000D01*
X23124002Y-61111197D01*
X23094999Y-61134999D01*
X23048703Y-61191411D01*
X23000026Y-61250724D01*
X22963525Y-61319013D01*
X22944595Y-61354428D01*
X22909180Y-61335498D01*
X22789482Y-61299188D01*
X22665000Y-61286928D01*
X22065000Y-61286928D01*
X21940518Y-61299188D01*
X21820820Y-61335498D01*
X21730000Y-61384043D01*
X21639180Y-61335498D01*
X21519482Y-61299188D01*
X21395000Y-61286928D01*
X20795000Y-61286928D01*
X20670518Y-61299188D01*
X20550820Y-61335498D01*
X20440506Y-61394463D01*
X20343815Y-61473815D01*
X20264463Y-61570506D01*
X20205498Y-61680820D01*
X20169188Y-61800518D01*
X20156928Y-61925000D01*
X20156928Y-61940000D01*
X15882163Y-61940000D01*
X15875812Y-61875518D01*
X15839502Y-61755820D01*
X15780537Y-61645506D01*
X15701185Y-61548815D01*
X15604494Y-61469463D01*
X15494180Y-61410498D01*
X15374482Y-61374188D01*
X15250000Y-61361928D01*
X12750000Y-61361928D01*
X12625518Y-61374188D01*
X12505820Y-61410498D01*
X12395506Y-61469463D01*
X12298815Y-61548815D01*
X12219463Y-61645506D01*
X12160498Y-61755820D01*
X12124188Y-61875518D01*
X12111928Y-62000000D01*
X12111928Y-62240000D01*
X12087594Y-62240000D01*
X6225897Y-56378303D01*
X6510928Y-56435000D01*
X7089072Y-56435000D01*
X7656108Y-56322209D01*
X8190244Y-56100963D01*
X8670953Y-55779763D01*
X9079763Y-55370953D01*
X9400963Y-54890244D01*
X9622209Y-54356108D01*
X9735000Y-53789072D01*
X9735000Y-53210928D01*
X9693044Y-53000000D01*
X12111928Y-53000000D01*
X12111928Y-55000000D01*
X12124188Y-55124482D01*
X12160498Y-55244180D01*
X12219463Y-55354494D01*
X12298815Y-55451185D01*
X12395506Y-55530537D01*
X12505820Y-55589502D01*
X12625518Y-55625812D01*
X12750000Y-55638072D01*
X13240000Y-55638072D01*
X13240001Y-57361928D01*
X12750000Y-57361928D01*
X12625518Y-57374188D01*
X12505820Y-57410498D01*
X12395506Y-57469463D01*
X12298815Y-57548815D01*
X12219463Y-57645506D01*
X12160498Y-57755820D01*
X12124188Y-57875518D01*
X12111928Y-58000000D01*
X12111928Y-60000000D01*
X12124188Y-60124482D01*
X12160498Y-60244180D01*
X12219463Y-60354494D01*
X12298815Y-60451185D01*
X12395506Y-60530537D01*
X12505820Y-60589502D01*
X12625518Y-60625812D01*
X12750000Y-60638072D01*
X15250000Y-60638072D01*
X15374482Y-60625812D01*
X15494180Y-60589502D01*
X15604494Y-60530537D01*
X15701185Y-60451185D01*
X15780537Y-60354494D01*
X15839502Y-60244180D01*
X15875812Y-60124482D01*
X15888072Y-60000000D01*
X15888072Y-58000000D01*
X15875812Y-57875518D01*
X15839502Y-57755820D01*
X15780537Y-57645506D01*
X15701185Y-57548815D01*
X15604494Y-57469463D01*
X15494180Y-57410498D01*
X15374482Y-57374188D01*
X15250000Y-57361928D01*
X14760000Y-57361928D01*
X14760000Y-55638072D01*
X15250000Y-55638072D01*
X15374482Y-55625812D01*
X15494180Y-55589502D01*
X15604494Y-55530537D01*
X15701185Y-55451185D01*
X15780537Y-55354494D01*
X15839502Y-55244180D01*
X15875812Y-55124482D01*
X15888072Y-55000000D01*
X15888072Y-53000000D01*
X15875812Y-52875518D01*
X15839502Y-52755820D01*
X15780537Y-52645506D01*
X15701185Y-52548815D01*
X15604494Y-52469463D01*
X15494180Y-52410498D01*
X15374482Y-52374188D01*
X15250000Y-52361928D01*
X12750000Y-52361928D01*
X12625518Y-52374188D01*
X12505820Y-52410498D01*
X12395506Y-52469463D01*
X12298815Y-52548815D01*
X12219463Y-52645506D01*
X12160498Y-52755820D01*
X12124188Y-52875518D01*
X12111928Y-53000000D01*
X9693044Y-53000000D01*
X9622209Y-52643892D01*
X9400963Y-52109756D01*
X9079763Y-51629047D01*
X8670953Y-51220237D01*
X8190244Y-50899037D01*
X7656108Y-50677791D01*
X7089072Y-50565000D01*
X6510928Y-50565000D01*
X5943892Y-50677791D01*
X5409756Y-50899037D01*
X4929047Y-51220237D01*
X4520237Y-51629047D01*
X4199037Y-52109756D01*
X3977791Y-52643892D01*
X3865000Y-53210928D01*
X3865000Y-53789072D01*
X3977791Y-54356108D01*
X4067955Y-54573783D01*
X3947743Y-54523989D01*
X3651184Y-54465000D01*
X3348816Y-54465000D01*
X3052257Y-54523989D01*
X2772905Y-54639701D01*
X2521495Y-54807688D01*
X2307688Y-55021495D01*
X2139701Y-55272905D01*
X2023989Y-55552257D01*
X1965000Y-55848816D01*
X1965000Y-56151184D01*
X2023989Y-56447743D01*
X2139701Y-56727095D01*
X2307688Y-56978505D01*
X2521495Y-57192312D01*
X2607831Y-57250000D01*
X2521495Y-57307688D01*
X2307688Y-57521495D01*
X2139701Y-57772905D01*
X2023989Y-58052257D01*
X1965000Y-58348816D01*
X1965000Y-58651184D01*
X2023989Y-58947743D01*
X2139701Y-59227095D01*
X2307688Y-59478505D01*
X2521495Y-59692312D01*
X2664310Y-59787738D01*
X2615525Y-59935920D01*
X3500000Y-60820395D01*
X4384475Y-59935920D01*
X4335690Y-59787738D01*
X4478505Y-59692312D01*
X4692312Y-59478505D01*
X4838313Y-59260000D01*
X5861199Y-59260000D01*
X7185349Y-60584151D01*
X7089072Y-60565000D01*
X6510928Y-60565000D01*
X5943892Y-60677791D01*
X5409756Y-60899037D01*
X5028871Y-61153537D01*
X5040991Y-60933447D01*
X4998397Y-60634093D01*
X4898222Y-60348801D01*
X4818261Y-60199208D01*
X4564080Y-60115525D01*
X3679605Y-61000000D01*
X3693748Y-61014143D01*
X3514143Y-61193748D01*
X3500000Y-61179605D01*
X2615525Y-62064080D01*
X2699208Y-62318261D01*
X2971775Y-62449158D01*
X3264642Y-62524365D01*
X3566553Y-62540991D01*
X3865907Y-62498397D01*
X4067356Y-62427662D01*
X3977791Y-62643892D01*
X3865000Y-63210928D01*
X3865000Y-63789072D01*
X3977791Y-64356108D01*
X4199037Y-64890244D01*
X4520237Y-65370953D01*
X4929047Y-65779763D01*
X5409756Y-66100963D01*
X5943892Y-66322209D01*
X6510928Y-66435000D01*
X7089072Y-66435000D01*
X7185349Y-66415849D01*
X4889003Y-68712196D01*
X4859999Y-68735999D01*
X4810961Y-68795753D01*
X4765026Y-68851724D01*
X4744833Y-68889502D01*
X4694454Y-68983754D01*
X4650997Y-69127015D01*
X4640000Y-69238668D01*
X4640000Y-69238678D01*
X4636324Y-69276000D01*
X4640000Y-69313322D01*
X4640001Y-76361928D01*
X4300000Y-76361928D01*
X4175518Y-76374188D01*
X4055820Y-76410498D01*
X3945506Y-76469463D01*
X3848815Y-76548815D01*
X3769463Y-76645506D01*
X3710498Y-76755820D01*
X3674188Y-76875518D01*
X3661928Y-77000000D01*
X3661928Y-78000000D01*
X3674188Y-78124482D01*
X3710498Y-78244180D01*
X3769463Y-78354494D01*
X3848815Y-78451185D01*
X3945506Y-78530537D01*
X4055820Y-78589502D01*
X4175518Y-78625812D01*
X4300000Y-78638072D01*
X6500000Y-78638072D01*
X6624482Y-78625812D01*
X6744180Y-78589502D01*
X6854494Y-78530537D01*
X6951185Y-78451185D01*
X7030537Y-78354494D01*
X7089502Y-78244180D01*
X7125812Y-78124482D01*
X7138072Y-78000000D01*
X7138072Y-77000000D01*
X7125812Y-76875518D01*
X7089502Y-76755820D01*
X7030537Y-76645506D01*
X6951185Y-76548815D01*
X6854494Y-76469463D01*
X6744180Y-76410498D01*
X6624482Y-76374188D01*
X6500000Y-76361928D01*
X6160000Y-76361928D01*
X6160000Y-75900000D01*
X11861928Y-75900000D01*
X11861928Y-78100000D01*
X11874188Y-78224482D01*
X11910498Y-78344180D01*
X11969463Y-78454494D01*
X12048815Y-78551185D01*
X12145506Y-78630537D01*
X12255820Y-78689502D01*
X12375518Y-78725812D01*
X12500000Y-78738072D01*
X13500000Y-78738072D01*
X13624482Y-78725812D01*
X13744180Y-78689502D01*
X13854494Y-78630537D01*
X13951185Y-78551185D01*
X14030537Y-78454494D01*
X14089502Y-78344180D01*
X14125812Y-78224482D01*
X14138072Y-78100000D01*
X14138072Y-75900000D01*
X14125812Y-75775518D01*
X14089502Y-75655820D01*
X14030537Y-75545506D01*
X13951185Y-75448815D01*
X13854494Y-75369463D01*
X13744180Y-75310498D01*
X13624482Y-75274188D01*
X13500000Y-75261928D01*
X12500000Y-75261928D01*
X12375518Y-75274188D01*
X12255820Y-75310498D01*
X12145506Y-75369463D01*
X12048815Y-75448815D01*
X11969463Y-75545506D01*
X11910498Y-75655820D01*
X11874188Y-75775518D01*
X11861928Y-75900000D01*
X6160000Y-75900000D01*
X6160000Y-70000000D01*
X6661928Y-70000000D01*
X6661928Y-71000000D01*
X6674188Y-71124482D01*
X6710498Y-71244180D01*
X6769463Y-71354494D01*
X6848815Y-71451185D01*
X6945506Y-71530537D01*
X7055820Y-71589502D01*
X7175518Y-71625812D01*
X7300000Y-71638072D01*
X9500000Y-71638072D01*
X9624482Y-71625812D01*
X9744180Y-71589502D01*
X9854494Y-71530537D01*
X9951185Y-71451185D01*
X10030537Y-71354494D01*
X10089502Y-71244180D01*
X10125812Y-71124482D01*
X10138072Y-71000000D01*
X10138072Y-70000000D01*
X10125812Y-69875518D01*
X10089502Y-69755820D01*
X10030537Y-69645506D01*
X9951185Y-69548815D01*
X9854494Y-69469463D01*
X9744180Y-69410498D01*
X9624482Y-69374188D01*
X9500000Y-69361928D01*
X7300000Y-69361928D01*
X7175518Y-69374188D01*
X7055820Y-69410498D01*
X6945506Y-69469463D01*
X6848815Y-69548815D01*
X6769463Y-69645506D01*
X6710498Y-69755820D01*
X6674188Y-69875518D01*
X6661928Y-70000000D01*
X6160000Y-70000000D01*
X6160000Y-69590801D01*
X8061928Y-67688873D01*
X8061928Y-68300000D01*
X8074188Y-68424482D01*
X8110498Y-68544180D01*
X8169463Y-68654494D01*
X8248815Y-68751185D01*
X8345506Y-68830537D01*
X8455820Y-68889502D01*
X8575518Y-68925812D01*
X8700000Y-68938072D01*
X10900000Y-68938072D01*
X11024482Y-68925812D01*
X11144180Y-68889502D01*
X11254494Y-68830537D01*
X11351185Y-68751185D01*
X11430537Y-68654494D01*
X11489502Y-68544180D01*
X11525812Y-68424482D01*
X11538072Y-68300000D01*
X11538072Y-67300000D01*
X11525812Y-67175518D01*
X11489502Y-67055820D01*
X11430537Y-66945506D01*
X11351185Y-66848815D01*
X11254494Y-66769463D01*
X11144180Y-66710498D01*
X11024482Y-66674188D01*
X10900000Y-66661928D01*
X9088874Y-66661928D01*
X10417003Y-65333799D01*
X10446001Y-65310001D01*
X10540974Y-65194276D01*
X10611546Y-65062247D01*
X10655003Y-64918986D01*
X10666000Y-64807333D01*
X10666000Y-64807324D01*
X10669676Y-64770001D01*
X10666000Y-64732678D01*
X10666000Y-62968010D01*
X11208993Y-63511003D01*
X11232791Y-63540001D01*
X11261789Y-63563799D01*
X11348515Y-63634974D01*
X11480545Y-63705546D01*
X11623806Y-63749003D01*
X11735459Y-63760000D01*
X11735469Y-63760000D01*
X11772792Y-63763676D01*
X11810115Y-63760000D01*
X12111928Y-63760000D01*
X12111928Y-64000000D01*
X12124188Y-64124482D01*
X12160498Y-64244180D01*
X12219463Y-64354494D01*
X12298815Y-64451185D01*
X12395506Y-64530537D01*
X12505820Y-64589502D01*
X12625518Y-64625812D01*
X12750000Y-64638072D01*
X13240001Y-64638072D01*
X13240001Y-65016668D01*
X13236324Y-65054000D01*
X13250998Y-65202985D01*
X13294454Y-65346246D01*
X13365026Y-65478276D01*
X13410493Y-65533677D01*
X13460000Y-65594001D01*
X13488998Y-65617799D01*
X14168201Y-66297002D01*
X14191999Y-66326001D01*
X14307724Y-66420974D01*
X14439753Y-66491546D01*
X14583014Y-66535003D01*
X14694667Y-66546000D01*
X14694676Y-66546000D01*
X14731999Y-66549676D01*
X14769322Y-66546000D01*
X16195199Y-66546000D01*
X16240000Y-66590801D01*
X16240000Y-67361928D01*
X15750000Y-67361928D01*
X15625518Y-67374188D01*
X15505820Y-67410498D01*
X15395506Y-67469463D01*
X15298815Y-67548815D01*
X15219463Y-67645506D01*
X15160498Y-67755820D01*
X15124188Y-67875518D01*
X15111928Y-68000000D01*
X15111928Y-70000000D01*
X15124188Y-70124482D01*
X15160498Y-70244180D01*
X15219463Y-70354494D01*
X15298815Y-70451185D01*
X15395506Y-70530537D01*
X15505820Y-70589502D01*
X15625518Y-70625812D01*
X15750000Y-70638072D01*
X18250000Y-70638072D01*
X18374482Y-70625812D01*
X18494180Y-70589502D01*
X18604494Y-70530537D01*
X18701185Y-70451185D01*
X18780537Y-70354494D01*
X18798001Y-70321822D01*
X18798000Y-71627198D01*
X18780156Y-71645042D01*
X18701185Y-71548815D01*
X18604494Y-71469463D01*
X18494180Y-71410498D01*
X18374482Y-71374188D01*
X18250000Y-71361928D01*
X15750000Y-71361928D01*
X15625518Y-71374188D01*
X15505820Y-71410498D01*
X15395506Y-71469463D01*
X15298815Y-71548815D01*
X15219463Y-71645506D01*
X15160498Y-71755820D01*
X15124188Y-71875518D01*
X15111928Y-72000000D01*
X15111928Y-74000000D01*
X15124188Y-74124482D01*
X15160498Y-74244180D01*
X15219463Y-74354494D01*
X15298815Y-74451185D01*
X15395506Y-74530537D01*
X15505820Y-74589502D01*
X15625518Y-74625812D01*
X15750000Y-74638072D01*
X18250000Y-74638072D01*
X18374482Y-74625812D01*
X18494180Y-74589502D01*
X18604494Y-74530537D01*
X18701185Y-74451185D01*
X18780537Y-74354494D01*
X18839502Y-74244180D01*
X18875812Y-74124482D01*
X18888072Y-74000000D01*
X18888072Y-73654326D01*
X18924276Y-73634974D01*
X19040001Y-73540001D01*
X19063804Y-73510998D01*
X20069004Y-72505798D01*
X20098001Y-72482001D01*
X20186240Y-72374482D01*
X20192974Y-72366277D01*
X20263546Y-72234247D01*
X20263546Y-72234246D01*
X20307003Y-72090986D01*
X20318000Y-71979333D01*
X20318000Y-71979323D01*
X20321676Y-71942000D01*
X20318000Y-71904677D01*
X20318000Y-69402801D01*
X20380802Y-69340000D01*
X20515015Y-69340000D01*
X20469463Y-69395506D01*
X20410498Y-69505820D01*
X20374188Y-69625518D01*
X20361928Y-69750000D01*
X20361928Y-72250000D01*
X20374188Y-72374482D01*
X20410498Y-72494180D01*
X20469463Y-72604494D01*
X20548815Y-72701185D01*
X20645506Y-72780537D01*
X20755820Y-72839502D01*
X20875518Y-72875812D01*
X21000000Y-72888072D01*
X21240000Y-72888072D01*
X21240001Y-75561928D01*
X20900000Y-75561928D01*
X20775518Y-75574188D01*
X20655820Y-75610498D01*
X20545506Y-75669463D01*
X20448815Y-75748815D01*
X20369463Y-75845506D01*
X20310498Y-75955820D01*
X20274188Y-76075518D01*
X20261928Y-76200000D01*
X20261928Y-77800000D01*
X20274188Y-77924482D01*
X20310498Y-78044180D01*
X20369463Y-78154494D01*
X20448815Y-78251185D01*
X20545506Y-78330537D01*
X20655820Y-78389502D01*
X20775518Y-78425812D01*
X20900000Y-78438072D01*
X23500000Y-78438072D01*
X23624482Y-78425812D01*
X23744180Y-78389502D01*
X23854494Y-78330537D01*
X23951185Y-78251185D01*
X24000000Y-78191704D01*
X24048815Y-78251185D01*
X24145506Y-78330537D01*
X24255820Y-78389502D01*
X24375518Y-78425812D01*
X24500000Y-78438072D01*
X24915000Y-78438072D01*
X24915000Y-78481421D01*
X22747422Y-80649000D01*
X9969469Y-80649000D01*
X9926000Y-80644719D01*
X9882531Y-80649000D01*
X9882523Y-80649000D01*
X9752510Y-80661805D01*
X9585687Y-80712411D01*
X9468584Y-80775003D01*
X9431941Y-80794589D01*
X9330953Y-80877468D01*
X9330951Y-80877470D01*
X9297183Y-80905183D01*
X9269470Y-80938951D01*
X5602422Y-84606000D01*
X5597396Y-84605000D01*
X5322604Y-84605000D01*
X5053093Y-84658609D01*
X4799220Y-84763767D01*
X4570739Y-84916433D01*
X4376433Y-85110739D01*
X4223767Y-85339220D01*
X4190000Y-85420740D01*
X4156233Y-85339220D01*
X4003567Y-85110739D01*
X3809261Y-84916433D01*
X3580780Y-84763767D01*
X3326907Y-84658609D01*
X3057396Y-84605000D01*
X2782604Y-84605000D01*
X2513093Y-84658609D01*
X2259220Y-84763767D01*
X2030739Y-84916433D01*
X1836433Y-85110739D01*
X1683767Y-85339220D01*
X1578609Y-85593093D01*
X1525000Y-85862604D01*
X1525000Y-86137396D01*
X1578609Y-86406907D01*
X1683767Y-86660780D01*
X1836433Y-86889261D01*
X2030739Y-87083567D01*
X2259220Y-87236233D01*
X2513093Y-87341391D01*
X2782604Y-87395000D01*
X2813422Y-87395000D01*
X1182956Y-89025466D01*
X1149183Y-89053183D01*
X1038589Y-89187942D01*
X956411Y-89341688D01*
X905805Y-89508511D01*
X893000Y-89638524D01*
X893000Y-89638531D01*
X888719Y-89682000D01*
X893000Y-89725469D01*
X893001Y-96222521D01*
X888719Y-96266000D01*
X905805Y-96439490D01*
X956412Y-96606313D01*
X1038590Y-96760059D01*
X1121468Y-96861046D01*
X1121471Y-96861049D01*
X1149184Y-96894817D01*
X1182951Y-96922529D01*
X2137470Y-97877049D01*
X2165183Y-97910817D01*
X2198951Y-97938530D01*
X2198953Y-97938532D01*
X2251417Y-97981588D01*
X2299941Y-98021411D01*
X2453687Y-98103589D01*
X2569903Y-98138843D01*
X2620509Y-98154195D01*
X2635306Y-98155652D01*
X2750523Y-98167000D01*
X2750531Y-98167000D01*
X2794000Y-98171281D01*
X2837469Y-98167000D01*
X5290531Y-98167000D01*
X5334000Y-98171281D01*
X5377469Y-98167000D01*
X5377477Y-98167000D01*
X5507490Y-98154195D01*
X5674313Y-98103589D01*
X5828059Y-98021411D01*
X5962817Y-97910817D01*
X5990534Y-97877044D01*
X6691050Y-97176529D01*
X6724817Y-97148817D01*
X6757897Y-97108510D01*
X6835411Y-97014059D01*
X6874095Y-96941686D01*
X6907615Y-96878973D01*
X7000000Y-96888072D01*
X9000000Y-96888072D01*
X9124482Y-96875812D01*
X9244180Y-96839502D01*
X9354494Y-96780537D01*
X9451185Y-96701185D01*
X9530537Y-96604494D01*
X9589502Y-96494180D01*
X9625812Y-96374482D01*
X9638072Y-96250000D01*
X9638072Y-95885000D01*
X11920299Y-95885000D01*
X11924188Y-95924482D01*
X11960498Y-96044180D01*
X12019463Y-96154494D01*
X12098815Y-96251185D01*
X12195506Y-96330537D01*
X12305820Y-96389502D01*
X12425518Y-96425812D01*
X12550000Y-96438072D01*
X13424317Y-96438072D01*
X13426141Y-96456589D01*
X13427805Y-96473490D01*
X13441914Y-96520000D01*
X13478411Y-96640312D01*
X13560589Y-96794058D01*
X13671183Y-96928817D01*
X13704956Y-96956534D01*
X14503470Y-97755049D01*
X14531183Y-97788817D01*
X14564951Y-97816530D01*
X14564953Y-97816532D01*
X14665941Y-97899411D01*
X14819686Y-97981589D01*
X14950957Y-98021410D01*
X14986510Y-98032195D01*
X15116523Y-98045000D01*
X15116531Y-98045000D01*
X15160000Y-98049281D01*
X15203469Y-98045000D01*
X23805344Y-98045000D01*
X23846525Y-98106632D01*
X24053368Y-98313475D01*
X24296589Y-98475990D01*
X24566842Y-98587932D01*
X24853740Y-98645000D01*
X25146260Y-98645000D01*
X25433158Y-98587932D01*
X25703411Y-98475990D01*
X25946632Y-98313475D01*
X26153475Y-98106632D01*
X26194656Y-98045000D01*
X26345344Y-98045000D01*
X26386525Y-98106632D01*
X26593368Y-98313475D01*
X26836589Y-98475990D01*
X27106842Y-98587932D01*
X27393740Y-98645000D01*
X27686260Y-98645000D01*
X27973158Y-98587932D01*
X28243411Y-98475990D01*
X28486632Y-98313475D01*
X28693475Y-98106632D01*
X28855990Y-97863411D01*
X28967932Y-97593158D01*
X29025000Y-97306260D01*
X29025000Y-97013740D01*
X29010539Y-96941040D01*
X29046531Y-96905048D01*
X29046535Y-96905043D01*
X29340001Y-96611577D01*
X29340001Y-99340000D01*
X660000Y-99340000D01*
X660000Y-74100000D01*
X861928Y-74100000D01*
X874188Y-74224482D01*
X910498Y-74344180D01*
X969463Y-74454494D01*
X1048815Y-74551185D01*
X1145506Y-74630537D01*
X1255820Y-74689502D01*
X1375518Y-74725812D01*
X1500000Y-74738072D01*
X1714250Y-74735000D01*
X1873000Y-74576250D01*
X1873000Y-73127000D01*
X2127000Y-73127000D01*
X2127000Y-74576250D01*
X2285750Y-74735000D01*
X2500000Y-74738072D01*
X2624482Y-74725812D01*
X2744180Y-74689502D01*
X2854494Y-74630537D01*
X2951185Y-74551185D01*
X3030537Y-74454494D01*
X3089502Y-74344180D01*
X3125812Y-74224482D01*
X3138072Y-74100000D01*
X3135000Y-73285750D01*
X2976250Y-73127000D01*
X2127000Y-73127000D01*
X1873000Y-73127000D01*
X1023750Y-73127000D01*
X865000Y-73285750D01*
X861928Y-74100000D01*
X660000Y-74100000D01*
X660000Y-71900000D01*
X861928Y-71900000D01*
X865000Y-72714250D01*
X1023750Y-72873000D01*
X1873000Y-72873000D01*
X1873000Y-71423750D01*
X2127000Y-71423750D01*
X2127000Y-72873000D01*
X2976250Y-72873000D01*
X3135000Y-72714250D01*
X3138072Y-71900000D01*
X3125812Y-71775518D01*
X3089502Y-71655820D01*
X3030537Y-71545506D01*
X2951185Y-71448815D01*
X2854494Y-71369463D01*
X2744180Y-71310498D01*
X2624482Y-71274188D01*
X2500000Y-71261928D01*
X2285750Y-71265000D01*
X2127000Y-71423750D01*
X1873000Y-71423750D01*
X1714250Y-71265000D01*
X1500000Y-71261928D01*
X1375518Y-71274188D01*
X1255820Y-71310498D01*
X1145506Y-71369463D01*
X1048815Y-71448815D01*
X969463Y-71545506D01*
X910498Y-71655820D01*
X874188Y-71775518D01*
X861928Y-71900000D01*
X660000Y-71900000D01*
X660000Y-61066553D01*
X1959009Y-61066553D01*
X2001603Y-61365907D01*
X2101778Y-61651199D01*
X2181739Y-61800792D01*
X2435920Y-61884475D01*
X3320395Y-61000000D01*
X2435920Y-60115525D01*
X2181739Y-60199208D01*
X2050842Y-60471775D01*
X1975635Y-60764642D01*
X1959009Y-61066553D01*
X660000Y-61066553D01*
X660000Y-27100000D01*
X861928Y-27100000D01*
X874188Y-27224482D01*
X910498Y-27344180D01*
X969463Y-27454494D01*
X1048815Y-27551185D01*
X1145506Y-27630537D01*
X1255820Y-27689502D01*
X1375518Y-27725812D01*
X1500000Y-27738072D01*
X1714250Y-27735000D01*
X1873000Y-27576250D01*
X1873000Y-26127000D01*
X2127000Y-26127000D01*
X2127000Y-27576250D01*
X2285750Y-27735000D01*
X2500000Y-27738072D01*
X2624482Y-27725812D01*
X2744180Y-27689502D01*
X2854494Y-27630537D01*
X2951185Y-27551185D01*
X3030537Y-27454494D01*
X3089502Y-27344180D01*
X3125812Y-27224482D01*
X3138072Y-27100000D01*
X3135000Y-26285750D01*
X2976250Y-26127000D01*
X2127000Y-26127000D01*
X1873000Y-26127000D01*
X1023750Y-26127000D01*
X865000Y-26285750D01*
X861928Y-27100000D01*
X660000Y-27100000D01*
X660000Y-24900000D01*
X861928Y-24900000D01*
X865000Y-25714250D01*
X1023750Y-25873000D01*
X1873000Y-25873000D01*
X1873000Y-24423750D01*
X2127000Y-24423750D01*
X2127000Y-25873000D01*
X2976250Y-25873000D01*
X3135000Y-25714250D01*
X3138072Y-24900000D01*
X3125812Y-24775518D01*
X3089502Y-24655820D01*
X3030537Y-24545506D01*
X2951185Y-24448815D01*
X2854494Y-24369463D01*
X2744180Y-24310498D01*
X2624482Y-24274188D01*
X2500000Y-24261928D01*
X2285750Y-24265000D01*
X2127000Y-24423750D01*
X1873000Y-24423750D01*
X1714250Y-24265000D01*
X1500000Y-24261928D01*
X1375518Y-24274188D01*
X1255820Y-24310498D01*
X1145506Y-24369463D01*
X1048815Y-24448815D01*
X969463Y-24545506D01*
X910498Y-24655820D01*
X874188Y-24775518D01*
X861928Y-24900000D01*
X660000Y-24900000D01*
X660000Y-14066553D01*
X1959009Y-14066553D01*
X2001603Y-14365907D01*
X2101778Y-14651199D01*
X2181739Y-14800792D01*
X2435920Y-14884475D01*
X3320395Y-14000000D01*
X2435920Y-13115525D01*
X2181739Y-13199208D01*
X2050842Y-13471775D01*
X1975635Y-13764642D01*
X1959009Y-14066553D01*
X660000Y-14066553D01*
X660000Y-8848816D01*
X1965000Y-8848816D01*
X1965000Y-9151184D01*
X2023989Y-9447743D01*
X2139701Y-9727095D01*
X2307688Y-9978505D01*
X2521495Y-10192312D01*
X2607831Y-10250000D01*
X2521495Y-10307688D01*
X2307688Y-10521495D01*
X2139701Y-10772905D01*
X2023989Y-11052257D01*
X1965000Y-11348816D01*
X1965000Y-11651184D01*
X2023989Y-11947743D01*
X2139701Y-12227095D01*
X2307688Y-12478505D01*
X2521495Y-12692312D01*
X2664310Y-12787738D01*
X2615525Y-12935920D01*
X3500000Y-13820395D01*
X4384475Y-12935920D01*
X4335690Y-12787738D01*
X4478505Y-12692312D01*
X4692312Y-12478505D01*
X4860299Y-12227095D01*
X4875664Y-12190000D01*
X5781199Y-12190000D01*
X7172866Y-13581668D01*
X7089072Y-13565000D01*
X6510928Y-13565000D01*
X5943892Y-13677791D01*
X5409756Y-13899037D01*
X5028871Y-14153537D01*
X5040991Y-13933447D01*
X4998397Y-13634093D01*
X4898222Y-13348801D01*
X4818261Y-13199208D01*
X4564080Y-13115525D01*
X3679605Y-14000000D01*
X3693748Y-14014143D01*
X3514143Y-14193748D01*
X3500000Y-14179605D01*
X2615525Y-15064080D01*
X2699208Y-15318261D01*
X2971775Y-15449158D01*
X3264642Y-15524365D01*
X3566553Y-15540991D01*
X3865907Y-15498397D01*
X4067356Y-15427662D01*
X3977791Y-15643892D01*
X3865000Y-16210928D01*
X3865000Y-16789072D01*
X3977791Y-17356108D01*
X4199037Y-17890244D01*
X4520237Y-18370953D01*
X4929047Y-18779763D01*
X5409756Y-19100963D01*
X5943892Y-19322209D01*
X6510928Y-19435000D01*
X7089072Y-19435000D01*
X7197832Y-19413366D01*
X4889003Y-21722196D01*
X4859999Y-21745999D01*
X4804871Y-21813174D01*
X4765026Y-21861724D01*
X4730770Y-21925812D01*
X4694454Y-21993754D01*
X4650997Y-22137015D01*
X4640000Y-22248668D01*
X4640000Y-22248678D01*
X4636324Y-22286000D01*
X4640000Y-22323322D01*
X4640001Y-29361928D01*
X4300000Y-29361928D01*
X4175518Y-29374188D01*
X4055820Y-29410498D01*
X3945506Y-29469463D01*
X3848815Y-29548815D01*
X3769463Y-29645506D01*
X3710498Y-29755820D01*
X3674188Y-29875518D01*
X3661928Y-30000000D01*
X3661928Y-31000000D01*
X3674188Y-31124482D01*
X3710498Y-31244180D01*
X3769463Y-31354494D01*
X3848815Y-31451185D01*
X3945506Y-31530537D01*
X4055820Y-31589502D01*
X4175518Y-31625812D01*
X4300000Y-31638072D01*
X6500000Y-31638072D01*
X6624482Y-31625812D01*
X6744180Y-31589502D01*
X6854494Y-31530537D01*
X6951185Y-31451185D01*
X7030537Y-31354494D01*
X7089502Y-31244180D01*
X7125812Y-31124482D01*
X7138072Y-31000000D01*
X7138072Y-30000000D01*
X7125812Y-29875518D01*
X7089502Y-29755820D01*
X7030537Y-29645506D01*
X6951185Y-29548815D01*
X6854494Y-29469463D01*
X6744180Y-29410498D01*
X6624482Y-29374188D01*
X6500000Y-29361928D01*
X6160000Y-29361928D01*
X6160000Y-28900000D01*
X11861928Y-28900000D01*
X11861928Y-31100000D01*
X11874188Y-31224482D01*
X11910498Y-31344180D01*
X11969463Y-31454494D01*
X12048815Y-31551185D01*
X12145506Y-31630537D01*
X12255820Y-31689502D01*
X12375518Y-31725812D01*
X12500000Y-31738072D01*
X13500000Y-31738072D01*
X13624482Y-31725812D01*
X13744180Y-31689502D01*
X13854494Y-31630537D01*
X13951185Y-31551185D01*
X14030537Y-31454494D01*
X14089502Y-31344180D01*
X14125812Y-31224482D01*
X14138072Y-31100000D01*
X14138072Y-28900000D01*
X14125812Y-28775518D01*
X14089502Y-28655820D01*
X14030537Y-28545506D01*
X13951185Y-28448815D01*
X13854494Y-28369463D01*
X13744180Y-28310498D01*
X13624482Y-28274188D01*
X13500000Y-28261928D01*
X12500000Y-28261928D01*
X12375518Y-28274188D01*
X12255820Y-28310498D01*
X12145506Y-28369463D01*
X12048815Y-28448815D01*
X11969463Y-28545506D01*
X11910498Y-28655820D01*
X11874188Y-28775518D01*
X11861928Y-28900000D01*
X6160000Y-28900000D01*
X6160000Y-23000000D01*
X6661928Y-23000000D01*
X6661928Y-24000000D01*
X6674188Y-24124482D01*
X6710498Y-24244180D01*
X6769463Y-24354494D01*
X6848815Y-24451185D01*
X6945506Y-24530537D01*
X7055820Y-24589502D01*
X7175518Y-24625812D01*
X7300000Y-24638072D01*
X9500000Y-24638072D01*
X9624482Y-24625812D01*
X9744180Y-24589502D01*
X9854494Y-24530537D01*
X9951185Y-24451185D01*
X10030537Y-24354494D01*
X10089502Y-24244180D01*
X10125812Y-24124482D01*
X10138072Y-24000000D01*
X10138072Y-23000000D01*
X10125812Y-22875518D01*
X10089502Y-22755820D01*
X10030537Y-22645506D01*
X9951185Y-22548815D01*
X9854494Y-22469463D01*
X9744180Y-22410498D01*
X9624482Y-22374188D01*
X9500000Y-22361928D01*
X7300000Y-22361928D01*
X7175518Y-22374188D01*
X7055820Y-22410498D01*
X6945506Y-22469463D01*
X6848815Y-22548815D01*
X6769463Y-22645506D01*
X6710498Y-22755820D01*
X6674188Y-22875518D01*
X6661928Y-23000000D01*
X6160000Y-23000000D01*
X6160000Y-22600801D01*
X8061928Y-20698873D01*
X8061928Y-21300000D01*
X8074188Y-21424482D01*
X8110498Y-21544180D01*
X8169463Y-21654494D01*
X8248815Y-21751185D01*
X8345506Y-21830537D01*
X8455820Y-21889502D01*
X8575518Y-21925812D01*
X8700000Y-21938072D01*
X10900000Y-21938072D01*
X11024482Y-21925812D01*
X11144180Y-21889502D01*
X11254494Y-21830537D01*
X11351185Y-21751185D01*
X11430537Y-21654494D01*
X11489502Y-21544180D01*
X11525812Y-21424482D01*
X11538072Y-21300000D01*
X11538072Y-20300000D01*
X11525812Y-20175518D01*
X11489502Y-20055820D01*
X11430537Y-19945506D01*
X11351185Y-19848815D01*
X11254494Y-19769463D01*
X11144180Y-19710498D01*
X11024482Y-19674188D01*
X10900000Y-19661928D01*
X9098874Y-19661928D01*
X10417003Y-18343799D01*
X10446001Y-18320001D01*
X10540974Y-18204276D01*
X10611546Y-18072247D01*
X10655003Y-17928986D01*
X10666000Y-17817333D01*
X10666000Y-17817324D01*
X10669676Y-17780001D01*
X10666000Y-17742678D01*
X10666000Y-15277325D01*
X10669676Y-15240000D01*
X10666000Y-15202675D01*
X10666000Y-15202667D01*
X10655003Y-15091014D01*
X10611546Y-14947753D01*
X10540974Y-14815724D01*
X10446001Y-14699999D01*
X10417004Y-14676202D01*
X6659804Y-10919003D01*
X6636001Y-10889999D01*
X6520276Y-10795026D01*
X6454748Y-10760000D01*
X13361928Y-10760000D01*
X13361928Y-11250000D01*
X13374188Y-11374482D01*
X13410498Y-11494180D01*
X13469463Y-11604494D01*
X13548815Y-11701185D01*
X13645506Y-11780537D01*
X13755820Y-11839502D01*
X13875518Y-11875812D01*
X14000000Y-11888072D01*
X16000000Y-11888072D01*
X16124482Y-11875812D01*
X16244180Y-11839502D01*
X16354494Y-11780537D01*
X16451185Y-11701185D01*
X16530537Y-11604494D01*
X16589502Y-11494180D01*
X16625812Y-11374482D01*
X16638072Y-11250000D01*
X16638072Y-8750000D01*
X16625812Y-8625518D01*
X16589502Y-8505820D01*
X16530537Y-8395506D01*
X16451185Y-8298815D01*
X16354494Y-8219463D01*
X16244180Y-8160498D01*
X16124482Y-8124188D01*
X16000000Y-8111928D01*
X14000000Y-8111928D01*
X13875518Y-8124188D01*
X13755820Y-8160498D01*
X13645506Y-8219463D01*
X13548815Y-8298815D01*
X13469463Y-8395506D01*
X13410498Y-8505820D01*
X13374188Y-8625518D01*
X13361928Y-8750000D01*
X13361928Y-9240000D01*
X7854578Y-9240000D01*
X8190244Y-9100963D01*
X8670953Y-8779763D01*
X9079763Y-8370953D01*
X9400963Y-7890244D01*
X9622209Y-7356108D01*
X9735000Y-6789072D01*
X9735000Y-6210928D01*
X9622209Y-5643892D01*
X9400963Y-5109756D01*
X9079763Y-4629047D01*
X8670953Y-4220237D01*
X8190244Y-3899037D01*
X7656108Y-3677791D01*
X7089072Y-3565000D01*
X6510928Y-3565000D01*
X5943892Y-3677791D01*
X5409756Y-3899037D01*
X4929047Y-4220237D01*
X4520237Y-4629047D01*
X4199037Y-5109756D01*
X3977791Y-5643892D01*
X3865000Y-6210928D01*
X3865000Y-6789072D01*
X3977791Y-7356108D01*
X4067955Y-7573783D01*
X3947743Y-7523989D01*
X3651184Y-7465000D01*
X3348816Y-7465000D01*
X3052257Y-7523989D01*
X2772905Y-7639701D01*
X2521495Y-7807688D01*
X2307688Y-8021495D01*
X2139701Y-8272905D01*
X2023989Y-8552257D01*
X1965000Y-8848816D01*
X660000Y-8848816D01*
X660000Y-660000D01*
X29340000Y-660000D01*
X29340001Y-59330422D01*
G37*
X29340001Y-59330422D02*
X29104534Y-59094956D01*
X29076817Y-59061183D01*
X28942059Y-58950589D01*
X28788313Y-58868411D01*
X28621490Y-58817805D01*
X28491477Y-58805000D01*
X28491469Y-58805000D01*
X28448000Y-58800719D01*
X28404531Y-58805000D01*
X24224243Y-58805000D01*
X24269974Y-58749276D01*
X24325406Y-58645572D01*
X24360820Y-58664502D01*
X24480518Y-58700812D01*
X24605000Y-58713072D01*
X24619250Y-58710000D01*
X24778000Y-58551250D01*
X24778000Y-57427000D01*
X25032000Y-57427000D01*
X25032000Y-58551250D01*
X25190750Y-58710000D01*
X25205000Y-58713072D01*
X25329482Y-58700812D01*
X25449180Y-58664502D01*
X25559494Y-58605537D01*
X25656185Y-58526185D01*
X25735537Y-58429494D01*
X25794502Y-58319180D01*
X25830812Y-58199482D01*
X25843072Y-58075000D01*
X25840000Y-57585750D01*
X25681250Y-57427000D01*
X25032000Y-57427000D01*
X24778000Y-57427000D01*
X24758000Y-57427000D01*
X24758000Y-57173000D01*
X24778000Y-57173000D01*
X24778000Y-56048750D01*
X25032000Y-56048750D01*
X25032000Y-57173000D01*
X25681250Y-57173000D01*
X25840000Y-57014250D01*
X25843072Y-56525000D01*
X25830812Y-56400518D01*
X25794502Y-56280820D01*
X25735537Y-56170506D01*
X25656185Y-56073815D01*
X25559494Y-55994463D01*
X25449180Y-55935498D01*
X25329482Y-55899188D01*
X25205000Y-55886928D01*
X25190750Y-55890000D01*
X25032000Y-56048750D01*
X24778000Y-56048750D01*
X24619250Y-55890000D01*
X24605000Y-55886928D01*
X24480518Y-55899188D01*
X24395000Y-55925130D01*
X24395000Y-53133801D01*
X24444801Y-53084000D01*
X25616678Y-53084000D01*
X25654000Y-53087676D01*
X25691322Y-53084000D01*
X25691333Y-53084000D01*
X25802986Y-53073003D01*
X25946247Y-53029546D01*
X26078276Y-52958974D01*
X26194001Y-52864001D01*
X26217804Y-52834997D01*
X26510998Y-52541803D01*
X26540001Y-52518001D01*
X26634974Y-52402276D01*
X26705546Y-52270247D01*
X26749003Y-52126986D01*
X26760000Y-52015333D01*
X26760000Y-52015323D01*
X26763676Y-51978000D01*
X26760000Y-51940677D01*
X26760000Y-51888072D01*
X27000000Y-51888072D01*
X27124482Y-51875812D01*
X27244180Y-51839502D01*
X27354494Y-51780537D01*
X27451185Y-51701185D01*
X27530537Y-51604494D01*
X27589502Y-51494180D01*
X27625812Y-51374482D01*
X27638072Y-51250000D01*
X27638072Y-48750000D01*
X27625812Y-48625518D01*
X27589502Y-48505820D01*
X27530537Y-48395506D01*
X27451185Y-48298815D01*
X27354494Y-48219463D01*
X27244180Y-48160498D01*
X27124482Y-48124188D01*
X27000000Y-48111928D01*
X26760000Y-48111928D01*
X26760000Y-46888072D01*
X27000000Y-46888072D01*
X27124482Y-46875812D01*
X27244180Y-46839502D01*
X27354494Y-46780537D01*
X27451185Y-46701185D01*
X27530537Y-46604494D01*
X27589502Y-46494180D01*
X27625812Y-46374482D01*
X27638072Y-46250000D01*
X27638072Y-43750000D01*
X27625812Y-43625518D01*
X27589502Y-43505820D01*
X27530537Y-43395506D01*
X27451185Y-43298815D01*
X27354494Y-43219463D01*
X27244180Y-43160498D01*
X27124482Y-43124188D01*
X27000000Y-43111928D01*
X26760000Y-43111928D01*
X26760000Y-41888072D01*
X27000000Y-41888072D01*
X27124482Y-41875812D01*
X27244180Y-41839502D01*
X27354494Y-41780537D01*
X27451185Y-41701185D01*
X27530537Y-41604494D01*
X27589502Y-41494180D01*
X27625812Y-41374482D01*
X27638072Y-41250000D01*
X27638072Y-38750000D01*
X27625812Y-38625518D01*
X27589502Y-38505820D01*
X27530537Y-38395506D01*
X27451185Y-38298815D01*
X27354494Y-38219463D01*
X27244180Y-38160498D01*
X27124482Y-38124188D01*
X27000000Y-38111928D01*
X26760000Y-38111928D01*
X26760000Y-36888072D01*
X27000000Y-36888072D01*
X27124482Y-36875812D01*
X27244180Y-36839502D01*
X27354494Y-36780537D01*
X27451185Y-36701185D01*
X27530537Y-36604494D01*
X27589502Y-36494180D01*
X27625812Y-36374482D01*
X27638072Y-36250000D01*
X27638072Y-33750000D01*
X27625812Y-33625518D01*
X27589502Y-33505820D01*
X27530537Y-33395506D01*
X27451185Y-33298815D01*
X27354494Y-33219463D01*
X27244180Y-33160498D01*
X27124482Y-33124188D01*
X27000000Y-33111928D01*
X26760000Y-33111928D01*
X26760000Y-31888072D01*
X27000000Y-31888072D01*
X27124482Y-31875812D01*
X27244180Y-31839502D01*
X27354494Y-31780537D01*
X27451185Y-31701185D01*
X27530537Y-31604494D01*
X27589502Y-31494180D01*
X27625812Y-31374482D01*
X27638072Y-31250000D01*
X27638072Y-28750000D01*
X27625812Y-28625518D01*
X27589502Y-28505820D01*
X27530537Y-28395506D01*
X27451185Y-28298815D01*
X27354494Y-28219463D01*
X27244180Y-28160498D01*
X27124482Y-28124188D01*
X27000000Y-28111928D01*
X25000000Y-28111928D01*
X24875518Y-28124188D01*
X24755820Y-28160498D01*
X24645506Y-28219463D01*
X24548815Y-28298815D01*
X24469463Y-28395506D01*
X24410498Y-28505820D01*
X24374188Y-28625518D01*
X24361928Y-28750000D01*
X24361928Y-31250000D01*
X24374188Y-31374482D01*
X24410498Y-31494180D01*
X24469463Y-31604494D01*
X24548815Y-31701185D01*
X24645506Y-31780537D01*
X24755820Y-31839502D01*
X24875518Y-31875812D01*
X25000000Y-31888072D01*
X25240000Y-31888072D01*
X25240000Y-33111928D01*
X25000000Y-33111928D01*
X24875518Y-33124188D01*
X24755820Y-33160498D01*
X24645506Y-33219463D01*
X24548815Y-33298815D01*
X24469463Y-33395506D01*
X24410498Y-33505820D01*
X24374188Y-33625518D01*
X24361928Y-33750000D01*
X24361928Y-36250000D01*
X24374188Y-36374482D01*
X24410498Y-36494180D01*
X24469463Y-36604494D01*
X24548815Y-36701185D01*
X24645506Y-36780537D01*
X24755820Y-36839502D01*
X24875518Y-36875812D01*
X25000000Y-36888072D01*
X25240000Y-36888072D01*
X25240000Y-38111928D01*
X25000000Y-38111928D01*
X24875518Y-38124188D01*
X24755820Y-38160498D01*
X24645506Y-38219463D01*
X24548815Y-38298815D01*
X24469463Y-38395506D01*
X24410498Y-38505820D01*
X24374188Y-38625518D01*
X24361928Y-38750000D01*
X24361928Y-41250000D01*
X24374188Y-41374482D01*
X24410498Y-41494180D01*
X24469463Y-41604494D01*
X24548815Y-41701185D01*
X24645506Y-41780537D01*
X24755820Y-41839502D01*
X24875518Y-41875812D01*
X25000000Y-41888072D01*
X25240001Y-41888072D01*
X25240001Y-43111928D01*
X25000000Y-43111928D01*
X24875518Y-43124188D01*
X24755820Y-43160498D01*
X24645506Y-43219463D01*
X24548815Y-43298815D01*
X24469463Y-43395506D01*
X24410498Y-43505820D01*
X24374188Y-43625518D01*
X24361928Y-43750000D01*
X24361928Y-46250000D01*
X24374188Y-46374482D01*
X24410498Y-46494180D01*
X24469463Y-46604494D01*
X24548815Y-46701185D01*
X24645506Y-46780537D01*
X24755820Y-46839502D01*
X24875518Y-46875812D01*
X25000000Y-46888072D01*
X25240000Y-46888072D01*
X25240000Y-48111928D01*
X25000000Y-48111928D01*
X24875518Y-48124188D01*
X24755820Y-48160498D01*
X24645506Y-48219463D01*
X24548815Y-48298815D01*
X24469463Y-48395506D01*
X24410498Y-48505820D01*
X24374188Y-48625518D01*
X24361928Y-48750000D01*
X24361928Y-51250000D01*
X24374188Y-51374482D01*
X24410498Y-51494180D01*
X24447818Y-51564000D01*
X24167325Y-51564000D01*
X24130000Y-51560324D01*
X24092675Y-51564000D01*
X24092667Y-51564000D01*
X23981014Y-51574997D01*
X23837753Y-51618454D01*
X23705724Y-51689026D01*
X23589999Y-51783999D01*
X23566196Y-51813003D01*
X23123998Y-52255201D01*
X23095000Y-52278999D01*
X23071202Y-52307997D01*
X23071201Y-52307998D01*
X23000026Y-52394724D01*
X22991590Y-52410507D01*
X22905001Y-52304999D01*
X22875998Y-52281197D01*
X22760000Y-52165199D01*
X22760000Y-51888072D01*
X23000000Y-51888072D01*
X23124482Y-51875812D01*
X23244180Y-51839502D01*
X23354494Y-51780537D01*
X23451185Y-51701185D01*
X23530537Y-51604494D01*
X23589502Y-51494180D01*
X23625812Y-51374482D01*
X23638072Y-51250000D01*
X23638072Y-48750000D01*
X23625812Y-48625518D01*
X23589502Y-48505820D01*
X23530537Y-48395506D01*
X23451185Y-48298815D01*
X23354494Y-48219463D01*
X23244180Y-48160498D01*
X23124482Y-48124188D01*
X23000000Y-48111928D01*
X22699225Y-48111928D01*
X22634974Y-47991723D01*
X22563799Y-47904997D01*
X22540001Y-47875999D01*
X22511004Y-47852202D01*
X21645803Y-46987002D01*
X21622001Y-46957999D01*
X21536795Y-46888072D01*
X23000000Y-46888072D01*
X23124482Y-46875812D01*
X23244180Y-46839502D01*
X23354494Y-46780537D01*
X23451185Y-46701185D01*
X23530537Y-46604494D01*
X23589502Y-46494180D01*
X23625812Y-46374482D01*
X23638072Y-46250000D01*
X23638072Y-43750000D01*
X23625812Y-43625518D01*
X23589502Y-43505820D01*
X23530537Y-43395506D01*
X23451185Y-43298815D01*
X23354494Y-43219463D01*
X23244180Y-43160498D01*
X23124482Y-43124188D01*
X23000000Y-43111928D01*
X21000000Y-43111928D01*
X20875518Y-43124188D01*
X20755820Y-43160498D01*
X20645506Y-43219463D01*
X20548815Y-43298815D01*
X20469463Y-43395506D01*
X20410498Y-43505820D01*
X20374188Y-43625518D01*
X20361928Y-43750000D01*
X20361928Y-44240000D01*
X18638072Y-44240000D01*
X18638072Y-43750000D01*
X18625812Y-43625518D01*
X18589502Y-43505820D01*
X18530537Y-43395506D01*
X18451185Y-43298815D01*
X18354494Y-43219463D01*
X18244180Y-43160498D01*
X18124482Y-43124188D01*
X18000000Y-43111928D01*
X16000000Y-43111928D01*
X15875518Y-43124188D01*
X15755820Y-43160498D01*
X15645506Y-43219463D01*
X15548815Y-43298815D01*
X15469463Y-43395506D01*
X15410498Y-43505820D01*
X15374188Y-43625518D01*
X15361928Y-43750000D01*
X15361928Y-46250000D01*
X15374188Y-46374482D01*
X15410498Y-46494180D01*
X15469463Y-46604494D01*
X15548815Y-46701185D01*
X15593674Y-46738000D01*
X14406326Y-46738000D01*
X14451185Y-46701185D01*
X14530537Y-46604494D01*
X14589502Y-46494180D01*
X14625812Y-46374482D01*
X14638072Y-46250000D01*
X14638072Y-43750000D01*
X14625812Y-43625518D01*
X14589502Y-43505820D01*
X14530537Y-43395506D01*
X14451185Y-43298815D01*
X14354494Y-43219463D01*
X14244180Y-43160498D01*
X14124482Y-43124188D01*
X14000000Y-43111928D01*
X13760000Y-43111928D01*
X13760000Y-41888072D01*
X14000000Y-41888072D01*
X14124482Y-41875812D01*
X14244180Y-41839502D01*
X14354494Y-41780537D01*
X14451185Y-41701185D01*
X14530537Y-41604494D01*
X14589502Y-41494180D01*
X14625812Y-41374482D01*
X14638072Y-41250000D01*
X14638072Y-38750000D01*
X15361928Y-38750000D01*
X15361928Y-41250000D01*
X15374188Y-41374482D01*
X15410498Y-41494180D01*
X15469463Y-41604494D01*
X15548815Y-41701185D01*
X15645506Y-41780537D01*
X15755820Y-41839502D01*
X15875518Y-41875812D01*
X16000000Y-41888072D01*
X18000000Y-41888072D01*
X18124482Y-41875812D01*
X18244180Y-41839502D01*
X18354494Y-41780537D01*
X18451185Y-41701185D01*
X18530537Y-41604494D01*
X18589502Y-41494180D01*
X18625812Y-41374482D01*
X18638072Y-41250000D01*
X18638072Y-40760000D01*
X20361928Y-40760000D01*
X20361928Y-41250000D01*
X20374188Y-41374482D01*
X20410498Y-41494180D01*
X20469463Y-41604494D01*
X20548815Y-41701185D01*
X20645506Y-41780537D01*
X20755820Y-41839502D01*
X20875518Y-41875812D01*
X21000000Y-41888072D01*
X23000000Y-41888072D01*
X23124482Y-41875812D01*
X23244180Y-41839502D01*
X23354494Y-41780537D01*
X23451185Y-41701185D01*
X23530537Y-41604494D01*
X23589502Y-41494180D01*
X23625812Y-41374482D01*
X23638072Y-41250000D01*
X23638072Y-38750000D01*
X23625812Y-38625518D01*
X23589502Y-38505820D01*
X23530537Y-38395506D01*
X23451185Y-38298815D01*
X23354494Y-38219463D01*
X23244180Y-38160498D01*
X23124482Y-38124188D01*
X23000000Y-38111928D01*
X21000000Y-38111928D01*
X20875518Y-38124188D01*
X20755820Y-38160498D01*
X20645506Y-38219463D01*
X20548815Y-38298815D01*
X20469463Y-38395506D01*
X20410498Y-38505820D01*
X20374188Y-38625518D01*
X20361928Y-38750000D01*
X20361928Y-39240000D01*
X18638072Y-39240000D01*
X18638072Y-38750000D01*
X18625812Y-38625518D01*
X18589502Y-38505820D01*
X18530537Y-38395506D01*
X18451185Y-38298815D01*
X18354494Y-38219463D01*
X18244180Y-38160498D01*
X18124482Y-38124188D01*
X18000000Y-38111928D01*
X16000000Y-38111928D01*
X15875518Y-38124188D01*
X15755820Y-38160498D01*
X15645506Y-38219463D01*
X15548815Y-38298815D01*
X15469463Y-38395506D01*
X15410498Y-38505820D01*
X15374188Y-38625518D01*
X15361928Y-38750000D01*
X14638072Y-38750000D01*
X14625812Y-38625518D01*
X14589502Y-38505820D01*
X14530537Y-38395506D01*
X14451185Y-38298815D01*
X14354494Y-38219463D01*
X14244180Y-38160498D01*
X14124482Y-38124188D01*
X14000000Y-38111928D01*
X13760000Y-38111928D01*
X13760000Y-36888072D01*
X14000000Y-36888072D01*
X14124482Y-36875812D01*
X14244180Y-36839502D01*
X14354494Y-36780537D01*
X14451185Y-36701185D01*
X14530537Y-36604494D01*
X14589502Y-36494180D01*
X14625812Y-36374482D01*
X14638072Y-36250000D01*
X14638072Y-33750000D01*
X14625812Y-33625518D01*
X14589502Y-33505820D01*
X14530537Y-33395506D01*
X14451185Y-33298815D01*
X14418511Y-33272000D01*
X15581489Y-33272000D01*
X15548815Y-33298815D01*
X15469463Y-33395506D01*
X15410498Y-33505820D01*
X15374188Y-33625518D01*
X15361928Y-33750000D01*
X15361928Y-36250000D01*
X15374188Y-36374482D01*
X15410498Y-36494180D01*
X15469463Y-36604494D01*
X15548815Y-36701185D01*
X15645506Y-36780537D01*
X15755820Y-36839502D01*
X15875518Y-36875812D01*
X16000000Y-36888072D01*
X18000000Y-36888072D01*
X18124482Y-36875812D01*
X18244180Y-36839502D01*
X18354494Y-36780537D01*
X18451185Y-36701185D01*
X18530537Y-36604494D01*
X18589502Y-36494180D01*
X18625812Y-36374482D01*
X18638072Y-36250000D01*
X18638072Y-35760000D01*
X20361928Y-35760000D01*
X20361928Y-36250000D01*
X20374188Y-36374482D01*
X20410498Y-36494180D01*
X20469463Y-36604494D01*
X20548815Y-36701185D01*
X20645506Y-36780537D01*
X20755820Y-36839502D01*
X20875518Y-36875812D01*
X21000000Y-36888072D01*
X23000000Y-36888072D01*
X23124482Y-36875812D01*
X23244180Y-36839502D01*
X23354494Y-36780537D01*
X23451185Y-36701185D01*
X23530537Y-36604494D01*
X23589502Y-36494180D01*
X23625812Y-36374482D01*
X23638072Y-36250000D01*
X23638072Y-33750000D01*
X23625812Y-33625518D01*
X23589502Y-33505820D01*
X23530537Y-33395506D01*
X23451185Y-33298815D01*
X23354494Y-33219463D01*
X23244180Y-33160498D01*
X23124482Y-33124188D01*
X23000000Y-33111928D01*
X21802980Y-33111928D01*
X21876001Y-33052001D01*
X21899803Y-33022998D01*
X22511004Y-32411798D01*
X22540001Y-32388001D01*
X22634974Y-32272276D01*
X22705546Y-32140247D01*
X22749003Y-31996986D01*
X22759730Y-31888072D01*
X23000000Y-31888072D01*
X23124482Y-31875812D01*
X23244180Y-31839502D01*
X23354494Y-31780537D01*
X23451185Y-31701185D01*
X23530537Y-31604494D01*
X23589502Y-31494180D01*
X23625812Y-31374482D01*
X23638072Y-31250000D01*
X23638072Y-28750000D01*
X23625812Y-28625518D01*
X23589502Y-28505820D01*
X23530537Y-28395506D01*
X23451185Y-28298815D01*
X23354494Y-28219463D01*
X23244180Y-28160498D01*
X23124482Y-28124188D01*
X23000000Y-28111928D01*
X22760000Y-28111928D01*
X22760000Y-11115322D01*
X22763676Y-11077999D01*
X22760000Y-11040676D01*
X22760000Y-11040667D01*
X22749003Y-10929014D01*
X22705546Y-10785753D01*
X22634974Y-10653724D01*
X22540001Y-10537999D01*
X22511004Y-10514202D01*
X21485804Y-9489002D01*
X21462001Y-9459999D01*
X21346276Y-9365026D01*
X21214247Y-9294454D01*
X21070986Y-9250997D01*
X20959333Y-9240000D01*
X20959322Y-9240000D01*
X20922000Y-9236324D01*
X20884678Y-9240000D01*
X20638072Y-9240000D01*
X20638072Y-8750000D01*
X20625812Y-8625518D01*
X20589502Y-8505820D01*
X20530537Y-8395506D01*
X20451185Y-8298815D01*
X20354494Y-8219463D01*
X20244180Y-8160498D01*
X20124482Y-8124188D01*
X20000000Y-8111928D01*
X18000000Y-8111928D01*
X17875518Y-8124188D01*
X17755820Y-8160498D01*
X17645506Y-8219463D01*
X17548815Y-8298815D01*
X17469463Y-8395506D01*
X17410498Y-8505820D01*
X17374188Y-8625518D01*
X17361928Y-8750000D01*
X17361928Y-11250000D01*
X17374188Y-11374482D01*
X17410498Y-11494180D01*
X17469463Y-11604494D01*
X17548815Y-11701185D01*
X17645506Y-11780537D01*
X17755820Y-11839502D01*
X17875518Y-11875812D01*
X18000000Y-11888072D01*
X20000000Y-11888072D01*
X20124482Y-11875812D01*
X20244180Y-11839502D01*
X20354494Y-11780537D01*
X20451185Y-11701185D01*
X20530537Y-11604494D01*
X20589502Y-11494180D01*
X20625812Y-11374482D01*
X20638072Y-11250000D01*
X20638072Y-10790873D01*
X21240000Y-11392802D01*
X21240001Y-28111928D01*
X21000000Y-28111928D01*
X20875518Y-28124188D01*
X20755820Y-28160498D01*
X20645506Y-28219463D01*
X20548815Y-28298815D01*
X20469463Y-28395506D01*
X20410498Y-28505820D01*
X20374188Y-28625518D01*
X20361928Y-28750000D01*
X20361928Y-31250000D01*
X20374188Y-31374482D01*
X20410498Y-31494180D01*
X20469463Y-31604494D01*
X20548815Y-31701185D01*
X20610733Y-31752000D01*
X13499325Y-31752000D01*
X13462000Y-31748324D01*
X13424675Y-31752000D01*
X13424667Y-31752000D01*
X13313014Y-31762997D01*
X13169753Y-31806454D01*
X13037724Y-31877026D01*
X12921999Y-31971999D01*
X12898196Y-32001003D01*
X12488998Y-32410201D01*
X12460000Y-32433999D01*
X12436202Y-32462997D01*
X12436201Y-32462998D01*
X12365026Y-32549724D01*
X12294454Y-32681754D01*
X12264180Y-32781558D01*
X12257298Y-32804247D01*
X12250998Y-32825015D01*
X12236324Y-32974000D01*
X12240001Y-33011332D01*
X12240001Y-33111928D01*
X12000000Y-33111928D01*
X11875518Y-33124188D01*
X11755820Y-33160498D01*
X11645506Y-33219463D01*
X11548815Y-33298815D01*
X11469463Y-33395506D01*
X11410498Y-33505820D01*
X11374188Y-33625518D01*
X11361928Y-33750000D01*
X11361928Y-36250000D01*
X11374188Y-36374482D01*
X11410498Y-36494180D01*
X11469463Y-36604494D01*
X11548815Y-36701185D01*
X11645506Y-36780537D01*
X11755820Y-36839502D01*
X11875518Y-36875812D01*
X12000000Y-36888072D01*
X12240000Y-36888072D01*
X12240000Y-38111928D01*
X12000000Y-38111928D01*
X11875518Y-38124188D01*
X11755820Y-38160498D01*
X11645506Y-38219463D01*
X11548815Y-38298815D01*
X11469463Y-38395506D01*
X11410498Y-38505820D01*
X11374188Y-38625518D01*
X11361928Y-38750000D01*
X11361928Y-41250000D01*
X11374188Y-41374482D01*
X11410498Y-41494180D01*
X11469463Y-41604494D01*
X11548815Y-41701185D01*
X11645506Y-41780537D01*
X11755820Y-41839502D01*
X11875518Y-41875812D01*
X12000000Y-41888072D01*
X12240001Y-41888072D01*
X12240001Y-43111928D01*
X12000000Y-43111928D01*
X11875518Y-43124188D01*
X11755820Y-43160498D01*
X11645506Y-43219463D01*
X11548815Y-43298815D01*
X11469463Y-43395506D01*
X11410498Y-43505820D01*
X11374188Y-43625518D01*
X11361928Y-43750000D01*
X11361928Y-46250000D01*
X11374188Y-46374482D01*
X11410498Y-46494180D01*
X11469463Y-46604494D01*
X11548815Y-46701185D01*
X11645506Y-46780537D01*
X11755820Y-46839502D01*
X11875518Y-46875812D01*
X12000000Y-46888072D01*
X12345674Y-46888072D01*
X12365026Y-46924276D01*
X12436201Y-47011002D01*
X12460000Y-47040001D01*
X12488998Y-47063799D01*
X13434200Y-48009002D01*
X13457999Y-48038001D01*
X13486997Y-48061799D01*
X13573723Y-48132974D01*
X13705753Y-48203546D01*
X13849014Y-48247003D01*
X13960667Y-48258000D01*
X13960676Y-48258000D01*
X13997999Y-48261676D01*
X14035322Y-48258000D01*
X20598548Y-48258000D01*
X20548815Y-48298815D01*
X20469463Y-48395506D01*
X20410498Y-48505820D01*
X20374188Y-48625518D01*
X20361928Y-48750000D01*
X20361928Y-51250000D01*
X20374188Y-51374482D01*
X20410498Y-51494180D01*
X20469463Y-51604494D01*
X20548815Y-51701185D01*
X20645506Y-51780537D01*
X20755820Y-51839502D01*
X20875518Y-51875812D01*
X21000000Y-51888072D01*
X21240001Y-51888072D01*
X21240001Y-52423198D01*
X18305804Y-49489003D01*
X18282001Y-49459999D01*
X18166276Y-49365026D01*
X18034247Y-49294454D01*
X17890986Y-49250997D01*
X17779333Y-49240000D01*
X17779322Y-49240000D01*
X17742000Y-49236324D01*
X17704678Y-49240000D01*
X15888072Y-49240000D01*
X15888072Y-49000000D01*
X15875812Y-48875518D01*
X15839502Y-48755820D01*
X15780537Y-48645506D01*
X15701185Y-48548815D01*
X15604494Y-48469463D01*
X15494180Y-48410498D01*
X15374482Y-48374188D01*
X15250000Y-48361928D01*
X12750000Y-48361928D01*
X12625518Y-48374188D01*
X12505820Y-48410498D01*
X12395506Y-48469463D01*
X12298815Y-48548815D01*
X12219463Y-48645506D01*
X12160498Y-48755820D01*
X12124188Y-48875518D01*
X12111928Y-49000000D01*
X12111928Y-51000000D01*
X12124188Y-51124482D01*
X12160498Y-51244180D01*
X12219463Y-51354494D01*
X12298815Y-51451185D01*
X12395506Y-51530537D01*
X12505820Y-51589502D01*
X12625518Y-51625812D01*
X12750000Y-51638072D01*
X15250000Y-51638072D01*
X15374482Y-51625812D01*
X15494180Y-51589502D01*
X15604494Y-51530537D01*
X15701185Y-51451185D01*
X15780537Y-51354494D01*
X15839502Y-51244180D01*
X15875812Y-51124482D01*
X15888072Y-51000000D01*
X15888072Y-50760000D01*
X17427199Y-50760000D01*
X20980000Y-54312803D01*
X20980000Y-55886928D01*
X20795000Y-55886928D01*
X20670518Y-55899188D01*
X20550820Y-55935498D01*
X20440506Y-55994463D01*
X20343815Y-56073815D01*
X20264463Y-56170506D01*
X20205498Y-56280820D01*
X20169188Y-56400518D01*
X20156928Y-56525000D01*
X20156928Y-58075000D01*
X20169188Y-58199482D01*
X20205498Y-58319180D01*
X20210001Y-58327604D01*
X20210001Y-58531522D01*
X20205719Y-58575000D01*
X20222805Y-58748490D01*
X20273412Y-58915313D01*
X20355590Y-59069059D01*
X20438468Y-59170046D01*
X20438471Y-59170049D01*
X20466184Y-59203817D01*
X20499951Y-59231529D01*
X21553470Y-60285049D01*
X21581183Y-60318817D01*
X21614951Y-60346530D01*
X21614953Y-60346532D01*
X21617718Y-60348801D01*
X21715941Y-60429411D01*
X21869687Y-60511589D01*
X22036510Y-60562195D01*
X22166523Y-60575000D01*
X22166533Y-60575000D01*
X22209999Y-60579281D01*
X22253465Y-60575000D01*
X23660198Y-60575000D01*
X23124002Y-61111197D01*
X23094999Y-61134999D01*
X23048703Y-61191411D01*
X23000026Y-61250724D01*
X22963525Y-61319013D01*
X22944595Y-61354428D01*
X22909180Y-61335498D01*
X22789482Y-61299188D01*
X22665000Y-61286928D01*
X22065000Y-61286928D01*
X21940518Y-61299188D01*
X21820820Y-61335498D01*
X21730000Y-61384043D01*
X21639180Y-61335498D01*
X21519482Y-61299188D01*
X21395000Y-61286928D01*
X20795000Y-61286928D01*
X20670518Y-61299188D01*
X20550820Y-61335498D01*
X20440506Y-61394463D01*
X20343815Y-61473815D01*
X20264463Y-61570506D01*
X20205498Y-61680820D01*
X20169188Y-61800518D01*
X20156928Y-61925000D01*
X20156928Y-61940000D01*
X15882163Y-61940000D01*
X15875812Y-61875518D01*
X15839502Y-61755820D01*
X15780537Y-61645506D01*
X15701185Y-61548815D01*
X15604494Y-61469463D01*
X15494180Y-61410498D01*
X15374482Y-61374188D01*
X15250000Y-61361928D01*
X12750000Y-61361928D01*
X12625518Y-61374188D01*
X12505820Y-61410498D01*
X12395506Y-61469463D01*
X12298815Y-61548815D01*
X12219463Y-61645506D01*
X12160498Y-61755820D01*
X12124188Y-61875518D01*
X12111928Y-62000000D01*
X12111928Y-62240000D01*
X12087594Y-62240000D01*
X6225897Y-56378303D01*
X6510928Y-56435000D01*
X7089072Y-56435000D01*
X7656108Y-56322209D01*
X8190244Y-56100963D01*
X8670953Y-55779763D01*
X9079763Y-55370953D01*
X9400963Y-54890244D01*
X9622209Y-54356108D01*
X9735000Y-53789072D01*
X9735000Y-53210928D01*
X9693044Y-53000000D01*
X12111928Y-53000000D01*
X12111928Y-55000000D01*
X12124188Y-55124482D01*
X12160498Y-55244180D01*
X12219463Y-55354494D01*
X12298815Y-55451185D01*
X12395506Y-55530537D01*
X12505820Y-55589502D01*
X12625518Y-55625812D01*
X12750000Y-55638072D01*
X13240000Y-55638072D01*
X13240001Y-57361928D01*
X12750000Y-57361928D01*
X12625518Y-57374188D01*
X12505820Y-57410498D01*
X12395506Y-57469463D01*
X12298815Y-57548815D01*
X12219463Y-57645506D01*
X12160498Y-57755820D01*
X12124188Y-57875518D01*
X12111928Y-58000000D01*
X12111928Y-60000000D01*
X12124188Y-60124482D01*
X12160498Y-60244180D01*
X12219463Y-60354494D01*
X12298815Y-60451185D01*
X12395506Y-60530537D01*
X12505820Y-60589502D01*
X12625518Y-60625812D01*
X12750000Y-60638072D01*
X15250000Y-60638072D01*
X15374482Y-60625812D01*
X15494180Y-60589502D01*
X15604494Y-60530537D01*
X15701185Y-60451185D01*
X15780537Y-60354494D01*
X15839502Y-60244180D01*
X15875812Y-60124482D01*
X15888072Y-60000000D01*
X15888072Y-58000000D01*
X15875812Y-57875518D01*
X15839502Y-57755820D01*
X15780537Y-57645506D01*
X15701185Y-57548815D01*
X15604494Y-57469463D01*
X15494180Y-57410498D01*
X15374482Y-57374188D01*
X15250000Y-57361928D01*
X14760000Y-57361928D01*
X14760000Y-55638072D01*
X15250000Y-55638072D01*
X15374482Y-55625812D01*
X15494180Y-55589502D01*
X15604494Y-55530537D01*
X15701185Y-55451185D01*
X15780537Y-55354494D01*
X15839502Y-55244180D01*
X15875812Y-55124482D01*
X15888072Y-55000000D01*
X15888072Y-53000000D01*
X15875812Y-52875518D01*
X15839502Y-52755820D01*
X15780537Y-52645506D01*
X15701185Y-52548815D01*
X15604494Y-52469463D01*
X15494180Y-52410498D01*
X15374482Y-52374188D01*
X15250000Y-52361928D01*
X12750000Y-52361928D01*
X12625518Y-52374188D01*
X12505820Y-52410498D01*
X12395506Y-52469463D01*
X12298815Y-52548815D01*
X12219463Y-52645506D01*
X12160498Y-52755820D01*
X12124188Y-52875518D01*
X12111928Y-53000000D01*
X9693044Y-53000000D01*
X9622209Y-52643892D01*
X9400963Y-52109756D01*
X9079763Y-51629047D01*
X8670953Y-51220237D01*
X8190244Y-50899037D01*
X7656108Y-50677791D01*
X7089072Y-50565000D01*
X6510928Y-50565000D01*
X5943892Y-50677791D01*
X5409756Y-50899037D01*
X4929047Y-51220237D01*
X4520237Y-51629047D01*
X4199037Y-52109756D01*
X3977791Y-52643892D01*
X3865000Y-53210928D01*
X3865000Y-53789072D01*
X3977791Y-54356108D01*
X4067955Y-54573783D01*
X3947743Y-54523989D01*
X3651184Y-54465000D01*
X3348816Y-54465000D01*
X3052257Y-54523989D01*
X2772905Y-54639701D01*
X2521495Y-54807688D01*
X2307688Y-55021495D01*
X2139701Y-55272905D01*
X2023989Y-55552257D01*
X1965000Y-55848816D01*
X1965000Y-56151184D01*
X2023989Y-56447743D01*
X2139701Y-56727095D01*
X2307688Y-56978505D01*
X2521495Y-57192312D01*
X2607831Y-57250000D01*
X2521495Y-57307688D01*
X2307688Y-57521495D01*
X2139701Y-57772905D01*
X2023989Y-58052257D01*
X1965000Y-58348816D01*
X1965000Y-58651184D01*
X2023989Y-58947743D01*
X2139701Y-59227095D01*
X2307688Y-59478505D01*
X2521495Y-59692312D01*
X2664310Y-59787738D01*
X2615525Y-59935920D01*
X3500000Y-60820395D01*
X4384475Y-59935920D01*
X4335690Y-59787738D01*
X4478505Y-59692312D01*
X4692312Y-59478505D01*
X4838313Y-59260000D01*
X5861199Y-59260000D01*
X7185349Y-60584151D01*
X7089072Y-60565000D01*
X6510928Y-60565000D01*
X5943892Y-60677791D01*
X5409756Y-60899037D01*
X5028871Y-61153537D01*
X5040991Y-60933447D01*
X4998397Y-60634093D01*
X4898222Y-60348801D01*
X4818261Y-60199208D01*
X4564080Y-60115525D01*
X3679605Y-61000000D01*
X3693748Y-61014143D01*
X3514143Y-61193748D01*
X3500000Y-61179605D01*
X2615525Y-62064080D01*
X2699208Y-62318261D01*
X2971775Y-62449158D01*
X3264642Y-62524365D01*
X3566553Y-62540991D01*
X3865907Y-62498397D01*
X4067356Y-62427662D01*
X3977791Y-62643892D01*
X3865000Y-63210928D01*
X3865000Y-63789072D01*
X3977791Y-64356108D01*
X4199037Y-64890244D01*
X4520237Y-65370953D01*
X4929047Y-65779763D01*
X5409756Y-66100963D01*
X5943892Y-66322209D01*
X6510928Y-66435000D01*
X7089072Y-66435000D01*
X7185349Y-66415849D01*
X4889003Y-68712196D01*
X4859999Y-68735999D01*
X4810961Y-68795753D01*
X4765026Y-68851724D01*
X4744833Y-68889502D01*
X4694454Y-68983754D01*
X4650997Y-69127015D01*
X4640000Y-69238668D01*
X4640000Y-69238678D01*
X4636324Y-69276000D01*
X4640000Y-69313322D01*
X4640001Y-76361928D01*
X4300000Y-76361928D01*
X4175518Y-76374188D01*
X4055820Y-76410498D01*
X3945506Y-76469463D01*
X3848815Y-76548815D01*
X3769463Y-76645506D01*
X3710498Y-76755820D01*
X3674188Y-76875518D01*
X3661928Y-77000000D01*
X3661928Y-78000000D01*
X3674188Y-78124482D01*
X3710498Y-78244180D01*
X3769463Y-78354494D01*
X3848815Y-78451185D01*
X3945506Y-78530537D01*
X4055820Y-78589502D01*
X4175518Y-78625812D01*
X4300000Y-78638072D01*
X6500000Y-78638072D01*
X6624482Y-78625812D01*
X6744180Y-78589502D01*
X6854494Y-78530537D01*
X6951185Y-78451185D01*
X7030537Y-78354494D01*
X7089502Y-78244180D01*
X7125812Y-78124482D01*
X7138072Y-78000000D01*
X7138072Y-77000000D01*
X7125812Y-76875518D01*
X7089502Y-76755820D01*
X7030537Y-76645506D01*
X6951185Y-76548815D01*
X6854494Y-76469463D01*
X6744180Y-76410498D01*
X6624482Y-76374188D01*
X6500000Y-76361928D01*
X6160000Y-76361928D01*
X6160000Y-75900000D01*
X11861928Y-75900000D01*
X11861928Y-78100000D01*
X11874188Y-78224482D01*
X11910498Y-78344180D01*
X11969463Y-78454494D01*
X12048815Y-78551185D01*
X12145506Y-78630537D01*
X12255820Y-78689502D01*
X12375518Y-78725812D01*
X12500000Y-78738072D01*
X13500000Y-78738072D01*
X13624482Y-78725812D01*
X13744180Y-78689502D01*
X13854494Y-78630537D01*
X13951185Y-78551185D01*
X14030537Y-78454494D01*
X14089502Y-78344180D01*
X14125812Y-78224482D01*
X14138072Y-78100000D01*
X14138072Y-75900000D01*
X14125812Y-75775518D01*
X14089502Y-75655820D01*
X14030537Y-75545506D01*
X13951185Y-75448815D01*
X13854494Y-75369463D01*
X13744180Y-75310498D01*
X13624482Y-75274188D01*
X13500000Y-75261928D01*
X12500000Y-75261928D01*
X12375518Y-75274188D01*
X12255820Y-75310498D01*
X12145506Y-75369463D01*
X12048815Y-75448815D01*
X11969463Y-75545506D01*
X11910498Y-75655820D01*
X11874188Y-75775518D01*
X11861928Y-75900000D01*
X6160000Y-75900000D01*
X6160000Y-70000000D01*
X6661928Y-70000000D01*
X6661928Y-71000000D01*
X6674188Y-71124482D01*
X6710498Y-71244180D01*
X6769463Y-71354494D01*
X6848815Y-71451185D01*
X6945506Y-71530537D01*
X7055820Y-71589502D01*
X7175518Y-71625812D01*
X7300000Y-71638072D01*
X9500000Y-71638072D01*
X9624482Y-71625812D01*
X9744180Y-71589502D01*
X9854494Y-71530537D01*
X9951185Y-71451185D01*
X10030537Y-71354494D01*
X10089502Y-71244180D01*
X10125812Y-71124482D01*
X10138072Y-71000000D01*
X10138072Y-70000000D01*
X10125812Y-69875518D01*
X10089502Y-69755820D01*
X10030537Y-69645506D01*
X9951185Y-69548815D01*
X9854494Y-69469463D01*
X9744180Y-69410498D01*
X9624482Y-69374188D01*
X9500000Y-69361928D01*
X7300000Y-69361928D01*
X7175518Y-69374188D01*
X7055820Y-69410498D01*
X6945506Y-69469463D01*
X6848815Y-69548815D01*
X6769463Y-69645506D01*
X6710498Y-69755820D01*
X6674188Y-69875518D01*
X6661928Y-70000000D01*
X6160000Y-70000000D01*
X6160000Y-69590801D01*
X8061928Y-67688873D01*
X8061928Y-68300000D01*
X8074188Y-68424482D01*
X8110498Y-68544180D01*
X8169463Y-68654494D01*
X8248815Y-68751185D01*
X8345506Y-68830537D01*
X8455820Y-68889502D01*
X8575518Y-68925812D01*
X8700000Y-68938072D01*
X10900000Y-68938072D01*
X11024482Y-68925812D01*
X11144180Y-68889502D01*
X11254494Y-68830537D01*
X11351185Y-68751185D01*
X11430537Y-68654494D01*
X11489502Y-68544180D01*
X11525812Y-68424482D01*
X11538072Y-68300000D01*
X11538072Y-67300000D01*
X11525812Y-67175518D01*
X11489502Y-67055820D01*
X11430537Y-66945506D01*
X11351185Y-66848815D01*
X11254494Y-66769463D01*
X11144180Y-66710498D01*
X11024482Y-66674188D01*
X10900000Y-66661928D01*
X9088874Y-66661928D01*
X10417003Y-65333799D01*
X10446001Y-65310001D01*
X10540974Y-65194276D01*
X10611546Y-65062247D01*
X10655003Y-64918986D01*
X10666000Y-64807333D01*
X10666000Y-64807324D01*
X10669676Y-64770001D01*
X10666000Y-64732678D01*
X10666000Y-62968010D01*
X11208993Y-63511003D01*
X11232791Y-63540001D01*
X11261789Y-63563799D01*
X11348515Y-63634974D01*
X11480545Y-63705546D01*
X11623806Y-63749003D01*
X11735459Y-63760000D01*
X11735469Y-63760000D01*
X11772792Y-63763676D01*
X11810115Y-63760000D01*
X12111928Y-63760000D01*
X12111928Y-64000000D01*
X12124188Y-64124482D01*
X12160498Y-64244180D01*
X12219463Y-64354494D01*
X12298815Y-64451185D01*
X12395506Y-64530537D01*
X12505820Y-64589502D01*
X12625518Y-64625812D01*
X12750000Y-64638072D01*
X13240001Y-64638072D01*
X13240001Y-65016668D01*
X13236324Y-65054000D01*
X13250998Y-65202985D01*
X13294454Y-65346246D01*
X13365026Y-65478276D01*
X13410493Y-65533677D01*
X13460000Y-65594001D01*
X13488998Y-65617799D01*
X14168201Y-66297002D01*
X14191999Y-66326001D01*
X14307724Y-66420974D01*
X14439753Y-66491546D01*
X14583014Y-66535003D01*
X14694667Y-66546000D01*
X14694676Y-66546000D01*
X14731999Y-66549676D01*
X14769322Y-66546000D01*
X16195199Y-66546000D01*
X16240000Y-66590801D01*
X16240000Y-67361928D01*
X15750000Y-67361928D01*
X15625518Y-67374188D01*
X15505820Y-67410498D01*
X15395506Y-67469463D01*
X15298815Y-67548815D01*
X15219463Y-67645506D01*
X15160498Y-67755820D01*
X15124188Y-67875518D01*
X15111928Y-68000000D01*
X15111928Y-70000000D01*
X15124188Y-70124482D01*
X15160498Y-70244180D01*
X15219463Y-70354494D01*
X15298815Y-70451185D01*
X15395506Y-70530537D01*
X15505820Y-70589502D01*
X15625518Y-70625812D01*
X15750000Y-70638072D01*
X18250000Y-70638072D01*
X18374482Y-70625812D01*
X18494180Y-70589502D01*
X18604494Y-70530537D01*
X18701185Y-70451185D01*
X18780537Y-70354494D01*
X18798001Y-70321822D01*
X18798000Y-71627198D01*
X18780156Y-71645042D01*
X18701185Y-71548815D01*
X18604494Y-71469463D01*
X18494180Y-71410498D01*
X18374482Y-71374188D01*
X18250000Y-71361928D01*
X15750000Y-71361928D01*
X15625518Y-71374188D01*
X15505820Y-71410498D01*
X15395506Y-71469463D01*
X15298815Y-71548815D01*
X15219463Y-71645506D01*
X15160498Y-71755820D01*
X15124188Y-71875518D01*
X15111928Y-72000000D01*
X15111928Y-74000000D01*
X15124188Y-74124482D01*
X15160498Y-74244180D01*
X15219463Y-74354494D01*
X15298815Y-74451185D01*
X15395506Y-74530537D01*
X15505820Y-74589502D01*
X15625518Y-74625812D01*
X15750000Y-74638072D01*
X18250000Y-74638072D01*
X18374482Y-74625812D01*
X18494180Y-74589502D01*
X18604494Y-74530537D01*
X18701185Y-74451185D01*
X18780537Y-74354494D01*
X18839502Y-74244180D01*
X18875812Y-74124482D01*
X18888072Y-74000000D01*
X18888072Y-73654326D01*
X18924276Y-73634974D01*
X19040001Y-73540001D01*
X19063804Y-73510998D01*
X20069004Y-72505798D01*
X20098001Y-72482001D01*
X20186240Y-72374482D01*
X20192974Y-72366277D01*
X20263546Y-72234247D01*
X20263546Y-72234246D01*
X20307003Y-72090986D01*
X20318000Y-71979333D01*
X20318000Y-71979323D01*
X20321676Y-71942000D01*
X20318000Y-71904677D01*
X20318000Y-69402801D01*
X20380802Y-69340000D01*
X20515015Y-69340000D01*
X20469463Y-69395506D01*
X20410498Y-69505820D01*
X20374188Y-69625518D01*
X20361928Y-69750000D01*
X20361928Y-72250000D01*
X20374188Y-72374482D01*
X20410498Y-72494180D01*
X20469463Y-72604494D01*
X20548815Y-72701185D01*
X20645506Y-72780537D01*
X20755820Y-72839502D01*
X20875518Y-72875812D01*
X21000000Y-72888072D01*
X21240000Y-72888072D01*
X21240001Y-75561928D01*
X20900000Y-75561928D01*
X20775518Y-75574188D01*
X20655820Y-75610498D01*
X20545506Y-75669463D01*
X20448815Y-75748815D01*
X20369463Y-75845506D01*
X20310498Y-75955820D01*
X20274188Y-76075518D01*
X20261928Y-76200000D01*
X20261928Y-77800000D01*
X20274188Y-77924482D01*
X20310498Y-78044180D01*
X20369463Y-78154494D01*
X20448815Y-78251185D01*
X20545506Y-78330537D01*
X20655820Y-78389502D01*
X20775518Y-78425812D01*
X20900000Y-78438072D01*
X23500000Y-78438072D01*
X23624482Y-78425812D01*
X23744180Y-78389502D01*
X23854494Y-78330537D01*
X23951185Y-78251185D01*
X24000000Y-78191704D01*
X24048815Y-78251185D01*
X24145506Y-78330537D01*
X24255820Y-78389502D01*
X24375518Y-78425812D01*
X24500000Y-78438072D01*
X24915000Y-78438072D01*
X24915000Y-78481421D01*
X22747422Y-80649000D01*
X9969469Y-80649000D01*
X9926000Y-80644719D01*
X9882531Y-80649000D01*
X9882523Y-80649000D01*
X9752510Y-80661805D01*
X9585687Y-80712411D01*
X9468584Y-80775003D01*
X9431941Y-80794589D01*
X9330953Y-80877468D01*
X9330951Y-80877470D01*
X9297183Y-80905183D01*
X9269470Y-80938951D01*
X5602422Y-84606000D01*
X5597396Y-84605000D01*
X5322604Y-84605000D01*
X5053093Y-84658609D01*
X4799220Y-84763767D01*
X4570739Y-84916433D01*
X4376433Y-85110739D01*
X4223767Y-85339220D01*
X4190000Y-85420740D01*
X4156233Y-85339220D01*
X4003567Y-85110739D01*
X3809261Y-84916433D01*
X3580780Y-84763767D01*
X3326907Y-84658609D01*
X3057396Y-84605000D01*
X2782604Y-84605000D01*
X2513093Y-84658609D01*
X2259220Y-84763767D01*
X2030739Y-84916433D01*
X1836433Y-85110739D01*
X1683767Y-85339220D01*
X1578609Y-85593093D01*
X1525000Y-85862604D01*
X1525000Y-86137396D01*
X1578609Y-86406907D01*
X1683767Y-86660780D01*
X1836433Y-86889261D01*
X2030739Y-87083567D01*
X2259220Y-87236233D01*
X2513093Y-87341391D01*
X2782604Y-87395000D01*
X2813422Y-87395000D01*
X1182956Y-89025466D01*
X1149183Y-89053183D01*
X1038589Y-89187942D01*
X956411Y-89341688D01*
X905805Y-89508511D01*
X893000Y-89638524D01*
X893000Y-89638531D01*
X888719Y-89682000D01*
X893000Y-89725469D01*
X893001Y-96222521D01*
X888719Y-96266000D01*
X905805Y-96439490D01*
X956412Y-96606313D01*
X1038590Y-96760059D01*
X1121468Y-96861046D01*
X1121471Y-96861049D01*
X1149184Y-96894817D01*
X1182951Y-96922529D01*
X2137470Y-97877049D01*
X2165183Y-97910817D01*
X2198951Y-97938530D01*
X2198953Y-97938532D01*
X2251417Y-97981588D01*
X2299941Y-98021411D01*
X2453687Y-98103589D01*
X2569903Y-98138843D01*
X2620509Y-98154195D01*
X2635306Y-98155652D01*
X2750523Y-98167000D01*
X2750531Y-98167000D01*
X2794000Y-98171281D01*
X2837469Y-98167000D01*
X5290531Y-98167000D01*
X5334000Y-98171281D01*
X5377469Y-98167000D01*
X5377477Y-98167000D01*
X5507490Y-98154195D01*
X5674313Y-98103589D01*
X5828059Y-98021411D01*
X5962817Y-97910817D01*
X5990534Y-97877044D01*
X6691050Y-97176529D01*
X6724817Y-97148817D01*
X6757897Y-97108510D01*
X6835411Y-97014059D01*
X6874095Y-96941686D01*
X6907615Y-96878973D01*
X7000000Y-96888072D01*
X9000000Y-96888072D01*
X9124482Y-96875812D01*
X9244180Y-96839502D01*
X9354494Y-96780537D01*
X9451185Y-96701185D01*
X9530537Y-96604494D01*
X9589502Y-96494180D01*
X9625812Y-96374482D01*
X9638072Y-96250000D01*
X9638072Y-95885000D01*
X11920299Y-95885000D01*
X11924188Y-95924482D01*
X11960498Y-96044180D01*
X12019463Y-96154494D01*
X12098815Y-96251185D01*
X12195506Y-96330537D01*
X12305820Y-96389502D01*
X12425518Y-96425812D01*
X12550000Y-96438072D01*
X13424317Y-96438072D01*
X13426141Y-96456589D01*
X13427805Y-96473490D01*
X13441914Y-96520000D01*
X13478411Y-96640312D01*
X13560589Y-96794058D01*
X13671183Y-96928817D01*
X13704956Y-96956534D01*
X14503470Y-97755049D01*
X14531183Y-97788817D01*
X14564951Y-97816530D01*
X14564953Y-97816532D01*
X14665941Y-97899411D01*
X14819686Y-97981589D01*
X14950957Y-98021410D01*
X14986510Y-98032195D01*
X15116523Y-98045000D01*
X15116531Y-98045000D01*
X15160000Y-98049281D01*
X15203469Y-98045000D01*
X23805344Y-98045000D01*
X23846525Y-98106632D01*
X24053368Y-98313475D01*
X24296589Y-98475990D01*
X24566842Y-98587932D01*
X24853740Y-98645000D01*
X25146260Y-98645000D01*
X25433158Y-98587932D01*
X25703411Y-98475990D01*
X25946632Y-98313475D01*
X26153475Y-98106632D01*
X26194656Y-98045000D01*
X26345344Y-98045000D01*
X26386525Y-98106632D01*
X26593368Y-98313475D01*
X26836589Y-98475990D01*
X27106842Y-98587932D01*
X27393740Y-98645000D01*
X27686260Y-98645000D01*
X27973158Y-98587932D01*
X28243411Y-98475990D01*
X28486632Y-98313475D01*
X28693475Y-98106632D01*
X28855990Y-97863411D01*
X28967932Y-97593158D01*
X29025000Y-97306260D01*
X29025000Y-97013740D01*
X29010539Y-96941040D01*
X29046531Y-96905048D01*
X29046535Y-96905043D01*
X29340001Y-96611577D01*
X29340001Y-99340000D01*
X660000Y-99340000D01*
X660000Y-74100000D01*
X861928Y-74100000D01*
X874188Y-74224482D01*
X910498Y-74344180D01*
X969463Y-74454494D01*
X1048815Y-74551185D01*
X1145506Y-74630537D01*
X1255820Y-74689502D01*
X1375518Y-74725812D01*
X1500000Y-74738072D01*
X1714250Y-74735000D01*
X1873000Y-74576250D01*
X1873000Y-73127000D01*
X2127000Y-73127000D01*
X2127000Y-74576250D01*
X2285750Y-74735000D01*
X2500000Y-74738072D01*
X2624482Y-74725812D01*
X2744180Y-74689502D01*
X2854494Y-74630537D01*
X2951185Y-74551185D01*
X3030537Y-74454494D01*
X3089502Y-74344180D01*
X3125812Y-74224482D01*
X3138072Y-74100000D01*
X3135000Y-73285750D01*
X2976250Y-73127000D01*
X2127000Y-73127000D01*
X1873000Y-73127000D01*
X1023750Y-73127000D01*
X865000Y-73285750D01*
X861928Y-74100000D01*
X660000Y-74100000D01*
X660000Y-71900000D01*
X861928Y-71900000D01*
X865000Y-72714250D01*
X1023750Y-72873000D01*
X1873000Y-72873000D01*
X1873000Y-71423750D01*
X2127000Y-71423750D01*
X2127000Y-72873000D01*
X2976250Y-72873000D01*
X3135000Y-72714250D01*
X3138072Y-71900000D01*
X3125812Y-71775518D01*
X3089502Y-71655820D01*
X3030537Y-71545506D01*
X2951185Y-71448815D01*
X2854494Y-71369463D01*
X2744180Y-71310498D01*
X2624482Y-71274188D01*
X2500000Y-71261928D01*
X2285750Y-71265000D01*
X2127000Y-71423750D01*
X1873000Y-71423750D01*
X1714250Y-71265000D01*
X1500000Y-71261928D01*
X1375518Y-71274188D01*
X1255820Y-71310498D01*
X1145506Y-71369463D01*
X1048815Y-71448815D01*
X969463Y-71545506D01*
X910498Y-71655820D01*
X874188Y-71775518D01*
X861928Y-71900000D01*
X660000Y-71900000D01*
X660000Y-61066553D01*
X1959009Y-61066553D01*
X2001603Y-61365907D01*
X2101778Y-61651199D01*
X2181739Y-61800792D01*
X2435920Y-61884475D01*
X3320395Y-61000000D01*
X2435920Y-60115525D01*
X2181739Y-60199208D01*
X2050842Y-60471775D01*
X1975635Y-60764642D01*
X1959009Y-61066553D01*
X660000Y-61066553D01*
X660000Y-27100000D01*
X861928Y-27100000D01*
X874188Y-27224482D01*
X910498Y-27344180D01*
X969463Y-27454494D01*
X1048815Y-27551185D01*
X1145506Y-27630537D01*
X1255820Y-27689502D01*
X1375518Y-27725812D01*
X1500000Y-27738072D01*
X1714250Y-27735000D01*
X1873000Y-27576250D01*
X1873000Y-26127000D01*
X2127000Y-26127000D01*
X2127000Y-27576250D01*
X2285750Y-27735000D01*
X2500000Y-27738072D01*
X2624482Y-27725812D01*
X2744180Y-27689502D01*
X2854494Y-27630537D01*
X2951185Y-27551185D01*
X3030537Y-27454494D01*
X3089502Y-27344180D01*
X3125812Y-27224482D01*
X3138072Y-27100000D01*
X3135000Y-26285750D01*
X2976250Y-26127000D01*
X2127000Y-26127000D01*
X1873000Y-26127000D01*
X1023750Y-26127000D01*
X865000Y-26285750D01*
X861928Y-27100000D01*
X660000Y-27100000D01*
X660000Y-24900000D01*
X861928Y-24900000D01*
X865000Y-25714250D01*
X1023750Y-25873000D01*
X1873000Y-25873000D01*
X1873000Y-24423750D01*
X2127000Y-24423750D01*
X2127000Y-25873000D01*
X2976250Y-25873000D01*
X3135000Y-25714250D01*
X3138072Y-24900000D01*
X3125812Y-24775518D01*
X3089502Y-24655820D01*
X3030537Y-24545506D01*
X2951185Y-24448815D01*
X2854494Y-24369463D01*
X2744180Y-24310498D01*
X2624482Y-24274188D01*
X2500000Y-24261928D01*
X2285750Y-24265000D01*
X2127000Y-24423750D01*
X1873000Y-24423750D01*
X1714250Y-24265000D01*
X1500000Y-24261928D01*
X1375518Y-24274188D01*
X1255820Y-24310498D01*
X1145506Y-24369463D01*
X1048815Y-24448815D01*
X969463Y-24545506D01*
X910498Y-24655820D01*
X874188Y-24775518D01*
X861928Y-24900000D01*
X660000Y-24900000D01*
X660000Y-14066553D01*
X1959009Y-14066553D01*
X2001603Y-14365907D01*
X2101778Y-14651199D01*
X2181739Y-14800792D01*
X2435920Y-14884475D01*
X3320395Y-14000000D01*
X2435920Y-13115525D01*
X2181739Y-13199208D01*
X2050842Y-13471775D01*
X1975635Y-13764642D01*
X1959009Y-14066553D01*
X660000Y-14066553D01*
X660000Y-8848816D01*
X1965000Y-8848816D01*
X1965000Y-9151184D01*
X2023989Y-9447743D01*
X2139701Y-9727095D01*
X2307688Y-9978505D01*
X2521495Y-10192312D01*
X2607831Y-10250000D01*
X2521495Y-10307688D01*
X2307688Y-10521495D01*
X2139701Y-10772905D01*
X2023989Y-11052257D01*
X1965000Y-11348816D01*
X1965000Y-11651184D01*
X2023989Y-11947743D01*
X2139701Y-12227095D01*
X2307688Y-12478505D01*
X2521495Y-12692312D01*
X2664310Y-12787738D01*
X2615525Y-12935920D01*
X3500000Y-13820395D01*
X4384475Y-12935920D01*
X4335690Y-12787738D01*
X4478505Y-12692312D01*
X4692312Y-12478505D01*
X4860299Y-12227095D01*
X4875664Y-12190000D01*
X5781199Y-12190000D01*
X7172866Y-13581668D01*
X7089072Y-13565000D01*
X6510928Y-13565000D01*
X5943892Y-13677791D01*
X5409756Y-13899037D01*
X5028871Y-14153537D01*
X5040991Y-13933447D01*
X4998397Y-13634093D01*
X4898222Y-13348801D01*
X4818261Y-13199208D01*
X4564080Y-13115525D01*
X3679605Y-14000000D01*
X3693748Y-14014143D01*
X3514143Y-14193748D01*
X3500000Y-14179605D01*
X2615525Y-15064080D01*
X2699208Y-15318261D01*
X2971775Y-15449158D01*
X3264642Y-15524365D01*
X3566553Y-15540991D01*
X3865907Y-15498397D01*
X4067356Y-15427662D01*
X3977791Y-15643892D01*
X3865000Y-16210928D01*
X3865000Y-16789072D01*
X3977791Y-17356108D01*
X4199037Y-17890244D01*
X4520237Y-18370953D01*
X4929047Y-18779763D01*
X5409756Y-19100963D01*
X5943892Y-19322209D01*
X6510928Y-19435000D01*
X7089072Y-19435000D01*
X7197832Y-19413366D01*
X4889003Y-21722196D01*
X4859999Y-21745999D01*
X4804871Y-21813174D01*
X4765026Y-21861724D01*
X4730770Y-21925812D01*
X4694454Y-21993754D01*
X4650997Y-22137015D01*
X4640000Y-22248668D01*
X4640000Y-22248678D01*
X4636324Y-22286000D01*
X4640000Y-22323322D01*
X4640001Y-29361928D01*
X4300000Y-29361928D01*
X4175518Y-29374188D01*
X4055820Y-29410498D01*
X3945506Y-29469463D01*
X3848815Y-29548815D01*
X3769463Y-29645506D01*
X3710498Y-29755820D01*
X3674188Y-29875518D01*
X3661928Y-30000000D01*
X3661928Y-31000000D01*
X3674188Y-31124482D01*
X3710498Y-31244180D01*
X3769463Y-31354494D01*
X3848815Y-31451185D01*
X3945506Y-31530537D01*
X4055820Y-31589502D01*
X4175518Y-31625812D01*
X4300000Y-31638072D01*
X6500000Y-31638072D01*
X6624482Y-31625812D01*
X6744180Y-31589502D01*
X6854494Y-31530537D01*
X6951185Y-31451185D01*
X7030537Y-31354494D01*
X7089502Y-31244180D01*
X7125812Y-31124482D01*
X7138072Y-31000000D01*
X7138072Y-30000000D01*
X7125812Y-29875518D01*
X7089502Y-29755820D01*
X7030537Y-29645506D01*
X6951185Y-29548815D01*
X6854494Y-29469463D01*
X6744180Y-29410498D01*
X6624482Y-29374188D01*
X6500000Y-29361928D01*
X6160000Y-29361928D01*
X6160000Y-28900000D01*
X11861928Y-28900000D01*
X11861928Y-31100000D01*
X11874188Y-31224482D01*
X11910498Y-31344180D01*
X11969463Y-31454494D01*
X12048815Y-31551185D01*
X12145506Y-31630537D01*
X12255820Y-31689502D01*
X12375518Y-31725812D01*
X12500000Y-31738072D01*
X13500000Y-31738072D01*
X13624482Y-31725812D01*
X13744180Y-31689502D01*
X13854494Y-31630537D01*
X13951185Y-31551185D01*
X14030537Y-31454494D01*
X14089502Y-31344180D01*
X14125812Y-31224482D01*
X14138072Y-31100000D01*
X14138072Y-28900000D01*
X14125812Y-28775518D01*
X14089502Y-28655820D01*
X14030537Y-28545506D01*
X13951185Y-28448815D01*
X13854494Y-28369463D01*
X13744180Y-28310498D01*
X13624482Y-28274188D01*
X13500000Y-28261928D01*
X12500000Y-28261928D01*
X12375518Y-28274188D01*
X12255820Y-28310498D01*
X12145506Y-28369463D01*
X12048815Y-28448815D01*
X11969463Y-28545506D01*
X11910498Y-28655820D01*
X11874188Y-28775518D01*
X11861928Y-28900000D01*
X6160000Y-28900000D01*
X6160000Y-23000000D01*
X6661928Y-23000000D01*
X6661928Y-24000000D01*
X6674188Y-24124482D01*
X6710498Y-24244180D01*
X6769463Y-24354494D01*
X6848815Y-24451185D01*
X6945506Y-24530537D01*
X7055820Y-24589502D01*
X7175518Y-24625812D01*
X7300000Y-24638072D01*
X9500000Y-24638072D01*
X9624482Y-24625812D01*
X9744180Y-24589502D01*
X9854494Y-24530537D01*
X9951185Y-24451185D01*
X10030537Y-24354494D01*
X10089502Y-24244180D01*
X10125812Y-24124482D01*
X10138072Y-24000000D01*
X10138072Y-23000000D01*
X10125812Y-22875518D01*
X10089502Y-22755820D01*
X10030537Y-22645506D01*
X9951185Y-22548815D01*
X9854494Y-22469463D01*
X9744180Y-22410498D01*
X9624482Y-22374188D01*
X9500000Y-22361928D01*
X7300000Y-22361928D01*
X7175518Y-22374188D01*
X7055820Y-22410498D01*
X6945506Y-22469463D01*
X6848815Y-22548815D01*
X6769463Y-22645506D01*
X6710498Y-22755820D01*
X6674188Y-22875518D01*
X6661928Y-23000000D01*
X6160000Y-23000000D01*
X6160000Y-22600801D01*
X8061928Y-20698873D01*
X8061928Y-21300000D01*
X8074188Y-21424482D01*
X8110498Y-21544180D01*
X8169463Y-21654494D01*
X8248815Y-21751185D01*
X8345506Y-21830537D01*
X8455820Y-21889502D01*
X8575518Y-21925812D01*
X8700000Y-21938072D01*
X10900000Y-21938072D01*
X11024482Y-21925812D01*
X11144180Y-21889502D01*
X11254494Y-21830537D01*
X11351185Y-21751185D01*
X11430537Y-21654494D01*
X11489502Y-21544180D01*
X11525812Y-21424482D01*
X11538072Y-21300000D01*
X11538072Y-20300000D01*
X11525812Y-20175518D01*
X11489502Y-20055820D01*
X11430537Y-19945506D01*
X11351185Y-19848815D01*
X11254494Y-19769463D01*
X11144180Y-19710498D01*
X11024482Y-19674188D01*
X10900000Y-19661928D01*
X9098874Y-19661928D01*
X10417003Y-18343799D01*
X10446001Y-18320001D01*
X10540974Y-18204276D01*
X10611546Y-18072247D01*
X10655003Y-17928986D01*
X10666000Y-17817333D01*
X10666000Y-17817324D01*
X10669676Y-17780001D01*
X10666000Y-17742678D01*
X10666000Y-15277325D01*
X10669676Y-15240000D01*
X10666000Y-15202675D01*
X10666000Y-15202667D01*
X10655003Y-15091014D01*
X10611546Y-14947753D01*
X10540974Y-14815724D01*
X10446001Y-14699999D01*
X10417004Y-14676202D01*
X6659804Y-10919003D01*
X6636001Y-10889999D01*
X6520276Y-10795026D01*
X6454748Y-10760000D01*
X13361928Y-10760000D01*
X13361928Y-11250000D01*
X13374188Y-11374482D01*
X13410498Y-11494180D01*
X13469463Y-11604494D01*
X13548815Y-11701185D01*
X13645506Y-11780537D01*
X13755820Y-11839502D01*
X13875518Y-11875812D01*
X14000000Y-11888072D01*
X16000000Y-11888072D01*
X16124482Y-11875812D01*
X16244180Y-11839502D01*
X16354494Y-11780537D01*
X16451185Y-11701185D01*
X16530537Y-11604494D01*
X16589502Y-11494180D01*
X16625812Y-11374482D01*
X16638072Y-11250000D01*
X16638072Y-8750000D01*
X16625812Y-8625518D01*
X16589502Y-8505820D01*
X16530537Y-8395506D01*
X16451185Y-8298815D01*
X16354494Y-8219463D01*
X16244180Y-8160498D01*
X16124482Y-8124188D01*
X16000000Y-8111928D01*
X14000000Y-8111928D01*
X13875518Y-8124188D01*
X13755820Y-8160498D01*
X13645506Y-8219463D01*
X13548815Y-8298815D01*
X13469463Y-8395506D01*
X13410498Y-8505820D01*
X13374188Y-8625518D01*
X13361928Y-8750000D01*
X13361928Y-9240000D01*
X7854578Y-9240000D01*
X8190244Y-9100963D01*
X8670953Y-8779763D01*
X9079763Y-8370953D01*
X9400963Y-7890244D01*
X9622209Y-7356108D01*
X9735000Y-6789072D01*
X9735000Y-6210928D01*
X9622209Y-5643892D01*
X9400963Y-5109756D01*
X9079763Y-4629047D01*
X8670953Y-4220237D01*
X8190244Y-3899037D01*
X7656108Y-3677791D01*
X7089072Y-3565000D01*
X6510928Y-3565000D01*
X5943892Y-3677791D01*
X5409756Y-3899037D01*
X4929047Y-4220237D01*
X4520237Y-4629047D01*
X4199037Y-5109756D01*
X3977791Y-5643892D01*
X3865000Y-6210928D01*
X3865000Y-6789072D01*
X3977791Y-7356108D01*
X4067955Y-7573783D01*
X3947743Y-7523989D01*
X3651184Y-7465000D01*
X3348816Y-7465000D01*
X3052257Y-7523989D01*
X2772905Y-7639701D01*
X2521495Y-7807688D01*
X2307688Y-8021495D01*
X2139701Y-8272905D01*
X2023989Y-8552257D01*
X1965000Y-8848816D01*
X660000Y-8848816D01*
X660000Y-660000D01*
X29340000Y-660000D01*
X29340001Y-59330422D01*
G36*
X18032350Y-84561928D02*
G01*
X17950000Y-84561928D01*
X17825518Y-84574188D01*
X17705820Y-84610498D01*
X17595506Y-84669463D01*
X17498815Y-84748815D01*
X17419463Y-84845506D01*
X17360498Y-84955820D01*
X17324188Y-85075518D01*
X17311928Y-85200000D01*
X17311928Y-86800000D01*
X17324188Y-86924482D01*
X17360498Y-87044180D01*
X17419463Y-87154494D01*
X17498815Y-87251185D01*
X17595506Y-87330537D01*
X17705820Y-87389502D01*
X17825518Y-87425812D01*
X17950000Y-87438072D01*
X21450000Y-87438072D01*
X21574482Y-87425812D01*
X21694180Y-87389502D01*
X21804494Y-87330537D01*
X21901185Y-87251185D01*
X21923011Y-87224590D01*
X22293470Y-87595049D01*
X22321183Y-87628817D01*
X22354951Y-87656530D01*
X22354953Y-87656532D01*
X22455941Y-87739411D01*
X22609686Y-87821589D01*
X22703344Y-87850000D01*
X22776510Y-87872195D01*
X22906523Y-87885000D01*
X22906531Y-87885000D01*
X22950000Y-87889281D01*
X22993469Y-87885000D01*
X23515375Y-87885000D01*
X23524188Y-87974482D01*
X23560498Y-88094180D01*
X23619463Y-88204494D01*
X23698815Y-88301185D01*
X23795506Y-88380537D01*
X23905820Y-88439502D01*
X23986466Y-88463966D01*
X23902412Y-88539731D01*
X23728359Y-88773080D01*
X23603175Y-89035901D01*
X23558524Y-89183110D01*
X23679845Y-89413000D01*
X24873000Y-89413000D01*
X24873000Y-89393000D01*
X25127000Y-89393000D01*
X25127000Y-89413000D01*
X27413000Y-89413000D01*
X27413000Y-89393000D01*
X27667000Y-89393000D01*
X27667000Y-89413000D01*
X27687000Y-89413000D01*
X27687000Y-89667000D01*
X27667000Y-89667000D01*
X27667000Y-91953000D01*
X27687000Y-91953000D01*
X27687000Y-92207000D01*
X27667000Y-92207000D01*
X27667000Y-94493000D01*
X27687000Y-94493000D01*
X27687000Y-94747000D01*
X27667000Y-94747000D01*
X27667000Y-94767000D01*
X27413000Y-94767000D01*
X27413000Y-94747000D01*
X25127000Y-94747000D01*
X25127000Y-94767000D01*
X24873000Y-94767000D01*
X24873000Y-94747000D01*
X23679845Y-94747000D01*
X23558524Y-94976890D01*
X23603175Y-95124099D01*
X23728359Y-95386920D01*
X23902412Y-95620269D01*
X24118645Y-95815178D01*
X24235534Y-95884805D01*
X24053368Y-96006525D01*
X23846525Y-96213368D01*
X23805344Y-96275000D01*
X21872166Y-96275000D01*
X21901185Y-96251185D01*
X21980537Y-96154494D01*
X22039502Y-96044180D01*
X22075812Y-95924482D01*
X22088072Y-95800000D01*
X22085000Y-95285750D01*
X21926250Y-95127000D01*
X19827000Y-95127000D01*
X19827000Y-95147000D01*
X19573000Y-95147000D01*
X19573000Y-95127000D01*
X17473750Y-95127000D01*
X17315000Y-95285750D01*
X17311928Y-95800000D01*
X17324188Y-95924482D01*
X17360498Y-96044180D01*
X17419463Y-96154494D01*
X17498815Y-96251185D01*
X17527834Y-96275000D01*
X16472166Y-96275000D01*
X16501185Y-96251185D01*
X16580537Y-96154494D01*
X16639502Y-96044180D01*
X16675812Y-95924482D01*
X16688072Y-95800000D01*
X16688072Y-94200000D01*
X17311928Y-94200000D01*
X17315000Y-94714250D01*
X17473750Y-94873000D01*
X19573000Y-94873000D01*
X19573000Y-93723750D01*
X19827000Y-93723750D01*
X19827000Y-94873000D01*
X21926250Y-94873000D01*
X22085000Y-94714250D01*
X22088072Y-94200000D01*
X22075812Y-94075518D01*
X22039502Y-93955820D01*
X21980537Y-93845506D01*
X21901185Y-93748815D01*
X21804494Y-93669463D01*
X21694180Y-93610498D01*
X21574482Y-93574188D01*
X21450000Y-93561928D01*
X19985750Y-93565000D01*
X19827000Y-93723750D01*
X19573000Y-93723750D01*
X19414250Y-93565000D01*
X17950000Y-93561928D01*
X17825518Y-93574188D01*
X17705820Y-93610498D01*
X17595506Y-93669463D01*
X17498815Y-93748815D01*
X17419463Y-93845506D01*
X17360498Y-93955820D01*
X17324188Y-94075518D01*
X17311928Y-94200000D01*
X16688072Y-94200000D01*
X16675812Y-94075518D01*
X16639502Y-93955820D01*
X16580537Y-93845506D01*
X16501185Y-93748815D01*
X16404494Y-93669463D01*
X16294180Y-93610498D01*
X16174482Y-93574188D01*
X16050000Y-93561928D01*
X12550000Y-93561928D01*
X12425518Y-93574188D01*
X12305820Y-93610498D01*
X12195506Y-93669463D01*
X12098815Y-93748815D01*
X12019463Y-93845506D01*
X11960498Y-93955820D01*
X11924188Y-94075518D01*
X11920299Y-94115000D01*
X9638072Y-94115000D01*
X9638072Y-93750000D01*
X9625812Y-93625518D01*
X9589502Y-93505820D01*
X9530537Y-93395506D01*
X9451185Y-93298815D01*
X9354494Y-93219463D01*
X9244180Y-93160498D01*
X9124482Y-93124188D01*
X9000000Y-93111928D01*
X7000000Y-93111928D01*
X6981000Y-93113799D01*
X6981000Y-93076578D01*
X7620688Y-92436890D01*
X23558524Y-92436890D01*
X23603175Y-92584099D01*
X23728359Y-92846920D01*
X23902412Y-93080269D01*
X24118645Y-93275178D01*
X24244255Y-93350000D01*
X24118645Y-93424822D01*
X23902412Y-93619731D01*
X23728359Y-93853080D01*
X23603175Y-94115901D01*
X23558524Y-94263110D01*
X23679845Y-94493000D01*
X24873000Y-94493000D01*
X24873000Y-92207000D01*
X25127000Y-92207000D01*
X25127000Y-94493000D01*
X27413000Y-94493000D01*
X27413000Y-92207000D01*
X25127000Y-92207000D01*
X24873000Y-92207000D01*
X23679845Y-92207000D01*
X23558524Y-92436890D01*
X7620688Y-92436890D01*
X10160688Y-89896890D01*
X23558524Y-89896890D01*
X23603175Y-90044099D01*
X23728359Y-90306920D01*
X23902412Y-90540269D01*
X24118645Y-90735178D01*
X24244255Y-90810000D01*
X24118645Y-90884822D01*
X23902412Y-91079731D01*
X23728359Y-91313080D01*
X23603175Y-91575901D01*
X23558524Y-91723110D01*
X23679845Y-91953000D01*
X24873000Y-91953000D01*
X24873000Y-89667000D01*
X25127000Y-89667000D01*
X25127000Y-91953000D01*
X27413000Y-91953000D01*
X27413000Y-89667000D01*
X25127000Y-89667000D01*
X24873000Y-89667000D01*
X23679845Y-89667000D01*
X23558524Y-89896890D01*
X10160688Y-89896890D01*
X11517051Y-88540528D01*
X11550817Y-88512817D01*
X11581187Y-88475812D01*
X11661411Y-88378059D01*
X11743589Y-88224314D01*
X11794195Y-88057490D01*
X11805113Y-87946632D01*
X11807000Y-87927477D01*
X11807000Y-87927469D01*
X11811281Y-87884000D01*
X11807000Y-87840531D01*
X11807000Y-86800000D01*
X11911928Y-86800000D01*
X11924188Y-86924482D01*
X11960498Y-87044180D01*
X12019463Y-87154494D01*
X12098815Y-87251185D01*
X12195506Y-87330537D01*
X12305820Y-87389502D01*
X12425518Y-87425812D01*
X12550000Y-87438072D01*
X14014250Y-87435000D01*
X14173000Y-87276250D01*
X14173000Y-86127000D01*
X14427000Y-86127000D01*
X14427000Y-87276250D01*
X14585750Y-87435000D01*
X16050000Y-87438072D01*
X16174482Y-87425812D01*
X16294180Y-87389502D01*
X16404494Y-87330537D01*
X16501185Y-87251185D01*
X16580537Y-87154494D01*
X16639502Y-87044180D01*
X16675812Y-86924482D01*
X16688072Y-86800000D01*
X16685000Y-86285750D01*
X16526250Y-86127000D01*
X14427000Y-86127000D01*
X14173000Y-86127000D01*
X12073750Y-86127000D01*
X11915000Y-86285750D01*
X11911928Y-86800000D01*
X11807000Y-86800000D01*
X11807000Y-85456578D01*
X11912829Y-85350750D01*
X11915000Y-85714250D01*
X12073750Y-85873000D01*
X14173000Y-85873000D01*
X14173000Y-84723750D01*
X14427000Y-84723750D01*
X14427000Y-85873000D01*
X16526250Y-85873000D01*
X16685000Y-85714250D01*
X16688072Y-85200000D01*
X16675812Y-85075518D01*
X16639502Y-84955820D01*
X16580537Y-84845506D01*
X16501185Y-84748815D01*
X16404494Y-84669463D01*
X16294180Y-84610498D01*
X16174482Y-84574188D01*
X16050000Y-84561928D01*
X14585750Y-84565000D01*
X14427000Y-84723750D01*
X14173000Y-84723750D01*
X14014250Y-84565000D01*
X12736990Y-84562320D01*
X12742433Y-84559411D01*
X12877191Y-84448817D01*
X12904908Y-84415044D01*
X13376953Y-83943000D01*
X17413422Y-83943000D01*
X18032350Y-84561928D01*
G37*
X18032350Y-84561928D02*
X17950000Y-84561928D01*
X17825518Y-84574188D01*
X17705820Y-84610498D01*
X17595506Y-84669463D01*
X17498815Y-84748815D01*
X17419463Y-84845506D01*
X17360498Y-84955820D01*
X17324188Y-85075518D01*
X17311928Y-85200000D01*
X17311928Y-86800000D01*
X17324188Y-86924482D01*
X17360498Y-87044180D01*
X17419463Y-87154494D01*
X17498815Y-87251185D01*
X17595506Y-87330537D01*
X17705820Y-87389502D01*
X17825518Y-87425812D01*
X17950000Y-87438072D01*
X21450000Y-87438072D01*
X21574482Y-87425812D01*
X21694180Y-87389502D01*
X21804494Y-87330537D01*
X21901185Y-87251185D01*
X21923011Y-87224590D01*
X22293470Y-87595049D01*
X22321183Y-87628817D01*
X22354951Y-87656530D01*
X22354953Y-87656532D01*
X22455941Y-87739411D01*
X22609686Y-87821589D01*
X22703344Y-87850000D01*
X22776510Y-87872195D01*
X22906523Y-87885000D01*
X22906531Y-87885000D01*
X22950000Y-87889281D01*
X22993469Y-87885000D01*
X23515375Y-87885000D01*
X23524188Y-87974482D01*
X23560498Y-88094180D01*
X23619463Y-88204494D01*
X23698815Y-88301185D01*
X23795506Y-88380537D01*
X23905820Y-88439502D01*
X23986466Y-88463966D01*
X23902412Y-88539731D01*
X23728359Y-88773080D01*
X23603175Y-89035901D01*
X23558524Y-89183110D01*
X23679845Y-89413000D01*
X24873000Y-89413000D01*
X24873000Y-89393000D01*
X25127000Y-89393000D01*
X25127000Y-89413000D01*
X27413000Y-89413000D01*
X27413000Y-89393000D01*
X27667000Y-89393000D01*
X27667000Y-89413000D01*
X27687000Y-89413000D01*
X27687000Y-89667000D01*
X27667000Y-89667000D01*
X27667000Y-91953000D01*
X27687000Y-91953000D01*
X27687000Y-92207000D01*
X27667000Y-92207000D01*
X27667000Y-94493000D01*
X27687000Y-94493000D01*
X27687000Y-94747000D01*
X27667000Y-94747000D01*
X27667000Y-94767000D01*
X27413000Y-94767000D01*
X27413000Y-94747000D01*
X25127000Y-94747000D01*
X25127000Y-94767000D01*
X24873000Y-94767000D01*
X24873000Y-94747000D01*
X23679845Y-94747000D01*
X23558524Y-94976890D01*
X23603175Y-95124099D01*
X23728359Y-95386920D01*
X23902412Y-95620269D01*
X24118645Y-95815178D01*
X24235534Y-95884805D01*
X24053368Y-96006525D01*
X23846525Y-96213368D01*
X23805344Y-96275000D01*
X21872166Y-96275000D01*
X21901185Y-96251185D01*
X21980537Y-96154494D01*
X22039502Y-96044180D01*
X22075812Y-95924482D01*
X22088072Y-95800000D01*
X22085000Y-95285750D01*
X21926250Y-95127000D01*
X19827000Y-95127000D01*
X19827000Y-95147000D01*
X19573000Y-95147000D01*
X19573000Y-95127000D01*
X17473750Y-95127000D01*
X17315000Y-95285750D01*
X17311928Y-95800000D01*
X17324188Y-95924482D01*
X17360498Y-96044180D01*
X17419463Y-96154494D01*
X17498815Y-96251185D01*
X17527834Y-96275000D01*
X16472166Y-96275000D01*
X16501185Y-96251185D01*
X16580537Y-96154494D01*
X16639502Y-96044180D01*
X16675812Y-95924482D01*
X16688072Y-95800000D01*
X16688072Y-94200000D01*
X17311928Y-94200000D01*
X17315000Y-94714250D01*
X17473750Y-94873000D01*
X19573000Y-94873000D01*
X19573000Y-93723750D01*
X19827000Y-93723750D01*
X19827000Y-94873000D01*
X21926250Y-94873000D01*
X22085000Y-94714250D01*
X22088072Y-94200000D01*
X22075812Y-94075518D01*
X22039502Y-93955820D01*
X21980537Y-93845506D01*
X21901185Y-93748815D01*
X21804494Y-93669463D01*
X21694180Y-93610498D01*
X21574482Y-93574188D01*
X21450000Y-93561928D01*
X19985750Y-93565000D01*
X19827000Y-93723750D01*
X19573000Y-93723750D01*
X19414250Y-93565000D01*
X17950000Y-93561928D01*
X17825518Y-93574188D01*
X17705820Y-93610498D01*
X17595506Y-93669463D01*
X17498815Y-93748815D01*
X17419463Y-93845506D01*
X17360498Y-93955820D01*
X17324188Y-94075518D01*
X17311928Y-94200000D01*
X16688072Y-94200000D01*
X16675812Y-94075518D01*
X16639502Y-93955820D01*
X16580537Y-93845506D01*
X16501185Y-93748815D01*
X16404494Y-93669463D01*
X16294180Y-93610498D01*
X16174482Y-93574188D01*
X16050000Y-93561928D01*
X12550000Y-93561928D01*
X12425518Y-93574188D01*
X12305820Y-93610498D01*
X12195506Y-93669463D01*
X12098815Y-93748815D01*
X12019463Y-93845506D01*
X11960498Y-93955820D01*
X11924188Y-94075518D01*
X11920299Y-94115000D01*
X9638072Y-94115000D01*
X9638072Y-93750000D01*
X9625812Y-93625518D01*
X9589502Y-93505820D01*
X9530537Y-93395506D01*
X9451185Y-93298815D01*
X9354494Y-93219463D01*
X9244180Y-93160498D01*
X9124482Y-93124188D01*
X9000000Y-93111928D01*
X7000000Y-93111928D01*
X6981000Y-93113799D01*
X6981000Y-93076578D01*
X7620688Y-92436890D01*
X23558524Y-92436890D01*
X23603175Y-92584099D01*
X23728359Y-92846920D01*
X23902412Y-93080269D01*
X24118645Y-93275178D01*
X24244255Y-93350000D01*
X24118645Y-93424822D01*
X23902412Y-93619731D01*
X23728359Y-93853080D01*
X23603175Y-94115901D01*
X23558524Y-94263110D01*
X23679845Y-94493000D01*
X24873000Y-94493000D01*
X24873000Y-92207000D01*
X25127000Y-92207000D01*
X25127000Y-94493000D01*
X27413000Y-94493000D01*
X27413000Y-92207000D01*
X25127000Y-92207000D01*
X24873000Y-92207000D01*
X23679845Y-92207000D01*
X23558524Y-92436890D01*
X7620688Y-92436890D01*
X10160688Y-89896890D01*
X23558524Y-89896890D01*
X23603175Y-90044099D01*
X23728359Y-90306920D01*
X23902412Y-90540269D01*
X24118645Y-90735178D01*
X24244255Y-90810000D01*
X24118645Y-90884822D01*
X23902412Y-91079731D01*
X23728359Y-91313080D01*
X23603175Y-91575901D01*
X23558524Y-91723110D01*
X23679845Y-91953000D01*
X24873000Y-91953000D01*
X24873000Y-89667000D01*
X25127000Y-89667000D01*
X25127000Y-91953000D01*
X27413000Y-91953000D01*
X27413000Y-89667000D01*
X25127000Y-89667000D01*
X24873000Y-89667000D01*
X23679845Y-89667000D01*
X23558524Y-89896890D01*
X10160688Y-89896890D01*
X11517051Y-88540528D01*
X11550817Y-88512817D01*
X11581187Y-88475812D01*
X11661411Y-88378059D01*
X11743589Y-88224314D01*
X11794195Y-88057490D01*
X11805113Y-87946632D01*
X11807000Y-87927477D01*
X11807000Y-87927469D01*
X11811281Y-87884000D01*
X11807000Y-87840531D01*
X11807000Y-86800000D01*
X11911928Y-86800000D01*
X11924188Y-86924482D01*
X11960498Y-87044180D01*
X12019463Y-87154494D01*
X12098815Y-87251185D01*
X12195506Y-87330537D01*
X12305820Y-87389502D01*
X12425518Y-87425812D01*
X12550000Y-87438072D01*
X14014250Y-87435000D01*
X14173000Y-87276250D01*
X14173000Y-86127000D01*
X14427000Y-86127000D01*
X14427000Y-87276250D01*
X14585750Y-87435000D01*
X16050000Y-87438072D01*
X16174482Y-87425812D01*
X16294180Y-87389502D01*
X16404494Y-87330537D01*
X16501185Y-87251185D01*
X16580537Y-87154494D01*
X16639502Y-87044180D01*
X16675812Y-86924482D01*
X16688072Y-86800000D01*
X16685000Y-86285750D01*
X16526250Y-86127000D01*
X14427000Y-86127000D01*
X14173000Y-86127000D01*
X12073750Y-86127000D01*
X11915000Y-86285750D01*
X11911928Y-86800000D01*
X11807000Y-86800000D01*
X11807000Y-85456578D01*
X11912829Y-85350750D01*
X11915000Y-85714250D01*
X12073750Y-85873000D01*
X14173000Y-85873000D01*
X14173000Y-84723750D01*
X14427000Y-84723750D01*
X14427000Y-85873000D01*
X16526250Y-85873000D01*
X16685000Y-85714250D01*
X16688072Y-85200000D01*
X16675812Y-85075518D01*
X16639502Y-84955820D01*
X16580537Y-84845506D01*
X16501185Y-84748815D01*
X16404494Y-84669463D01*
X16294180Y-84610498D01*
X16174482Y-84574188D01*
X16050000Y-84561928D01*
X14585750Y-84565000D01*
X14427000Y-84723750D01*
X14173000Y-84723750D01*
X14014250Y-84565000D01*
X12736990Y-84562320D01*
X12742433Y-84559411D01*
X12877191Y-84448817D01*
X12904908Y-84415044D01*
X13376953Y-83943000D01*
X17413422Y-83943000D01*
X18032350Y-84561928D01*
M02*
