M48
; DRILL file {KiCad (5.1.5)-3} date 8/14/2020 9:08:39 AM
; FORMAT={-:-/ absolute / metric / decimal}
; #@! TF.CreationDate,2020-08-14T09:08:39-07:00
; #@! TF.GenerationSoftware,Kicad,Pcbnew,(5.1.5)-3
FMAT,2
METRIC
T1C0.400
T2C0.800
T3C1.000
T4C2.300
%
G90
G05
T1
X27.0Y-57.0
T2
X2.92Y-86.0
X5.46Y-86.0
X8.0Y-86.0
T3
X25.0Y-87.0
X25.0Y-89.54
X25.0Y-92.08
X25.0Y-94.62
X25.0Y-97.16
X27.54Y-87.0
X27.54Y-89.54
X27.54Y-92.08
X27.54Y-94.62
X27.54Y-97.16
X3.5Y-56.0
X3.5Y-58.5
X3.5Y-61.0
X3.5Y-9.0
X3.5Y-11.5
X3.5Y-14.0
T4
X6.8Y-53.5
X6.8Y-63.5
X6.8Y-6.5
X6.8Y-16.5
T1
G00X2.0Y-72.6
M15
G01X2.0Y-73.4
M16
G05
G00X5.0Y-77.5
M15
G01X5.8Y-77.5
M16
G05
G00X8.0Y-70.5
M15
G01X8.8Y-70.5
M16
G05
G00X9.4Y-67.8
M15
G01X10.2Y-67.8
M16
G05
G00X13.0Y-76.6
M15
G01X13.0Y-77.4
M16
G05
G00X2.0Y-25.6
M15
G01X2.0Y-26.4
M16
G05
G00X5.0Y-30.5
M15
G01X5.8Y-30.5
M16
G05
G00X8.0Y-23.5
M15
G01X8.8Y-23.5
M16
G05
G00X9.4Y-20.8
M15
G01X10.2Y-20.8
M16
G05
G00X13.0Y-29.6
M15
G01X13.0Y-30.4
M16
G05
T0
M30
