M48
; DRILL file {KiCad (5.1.5)-3} date 12/5/2020 11:42:11 AM
; FORMAT={-:-/ absolute / metric / decimal}
; #@! TF.CreationDate,2020-12-05T11:42:11-07:00
; #@! TF.GenerationSoftware,Kicad,Pcbnew,(5.1.5)-3
FMAT,2
METRIC
T1C0.400
T2C0.762
T3C0.900
T4C1.000
T5C1.300
T6C2.300
%
G90
G05
T1
X1.143Y-108.902
X1.206Y-1.143
X18.796Y-1.27
X18.796Y-108.839
X21.488Y-1.27
X25.146Y-35.103
X26.568Y-108.509
X27.737Y-10.16
X29.515Y-38.964
X29.921Y-73.762
X31.394Y-59.334
X31.496Y-62.738
X31.598Y-32.156
X32.309Y-68.275
X34.087Y-65.329
X34.696Y-80.975
X34.849Y-73.711
X35.865Y-54.305
X37.186Y-24.486
X37.44Y-63.602
X37.49Y-10.211
X39.98Y-86.055
X42.215Y-63.805
X42.57Y-60.808
X42.774Y-52.121
X43.18Y-66.548
X43.383Y-29.972
X43.637Y-63.754
X43.942Y-68.732
X44.399Y-53.659
X45.212Y-68.834
X45.263Y-51.867
X45.263Y-54.509
X45.517Y-60.401
X45.618Y-39.878
X45.923Y-90.932
X46.228Y-45.415
X46.736Y-63.297
X47.346Y-66.04
X47.346Y-81.991
X47.396Y-68.732
X47.396Y-75.489
X48.87Y-61.671
X50.902Y-61.366
X51.156Y-55.067
X52.837Y-58.314
X54.712Y-54.61
X55.829Y-3.353
X55.88Y-34.442
X58.471Y-1.27
X58.471Y-108.712
X61.341Y-1.27
X61.562Y-108.712
X64.356Y-51.435
X64.356Y-58.166
X78.707Y-52.832
X78.707Y-108.839
X78.834Y-57.658
X78.834Y-95.123
X78.867Y-1.27
T2
X68.19Y-75.46
X68.19Y-78.0
X68.19Y-80.54
X70.73Y-75.46
X70.73Y-78.0
X70.73Y-80.54
X75.81Y-80.54
X75.84Y-75.46
T3
X75.46Y-55.0
X78.0Y-55.0
T4
X3.5Y-90.0
X3.5Y-92.5
X3.5Y-95.0
X22.0Y-37.0
X22.0Y-39.54
X22.0Y-42.08
X22.0Y-44.62
X22.0Y-47.16
X22.0Y-49.7
X22.0Y-52.24
X22.0Y-54.78
X22.0Y-57.32
X22.0Y-59.86
X22.0Y-62.4
X22.0Y-64.94
X58.0Y-37.0
X58.0Y-39.54
X58.0Y-42.08
X58.0Y-44.62
X58.0Y-47.16
X58.0Y-49.7
X58.0Y-52.24
X58.0Y-54.78
X58.0Y-57.32
X58.0Y-59.86
X58.0Y-62.4
X58.0Y-64.94
X3.5Y-70.0
X3.5Y-72.5
X3.5Y-75.0
X77.4Y-97.75
X77.4Y-102.25
X18.0Y-37.0
X18.0Y-39.54
X18.0Y-42.08
X18.0Y-44.62
X18.0Y-47.16
X18.0Y-49.7
X18.0Y-52.24
X18.0Y-54.78
X18.0Y-57.32
X18.0Y-59.86
X18.0Y-62.4
X18.0Y-64.94
X62.0Y-45.06
X62.0Y-47.6
X62.0Y-50.14
X62.0Y-52.68
X62.0Y-55.22
X62.0Y-57.76
X62.0Y-60.3
X62.0Y-62.84
X62.0Y-65.38
X62.0Y-67.92
X62.0Y-70.46
X62.0Y-73.0
X3.5Y-30.0
X3.5Y-32.5
X3.5Y-35.0
X3.5Y-50.0
X3.5Y-52.5
X3.5Y-55.0
X22.0Y-90.0
X22.0Y-92.54
X22.0Y-95.08
X22.0Y-97.62
X22.0Y-100.16
X22.0Y-102.7
X22.0Y-105.24
X22.0Y-107.78
X24.54Y-90.0
X24.54Y-92.54
X24.54Y-95.08
X24.54Y-97.62
X24.54Y-100.16
X24.54Y-102.7
X24.54Y-105.24
X24.54Y-107.78
T5
X74.9Y-96.5
X74.9Y-103.5
T6
X6.8Y-47.5
X6.8Y-57.5
X6.8Y-87.5
X6.8Y-97.5
X6.8Y-67.5
X6.8Y-77.5
X6.8Y-27.5
X6.8Y-37.5
T1
G00X67.0Y-5.4
M15
G01X67.0Y-4.6
M16
G05
G00X70.6Y-14.2
M15
G01X69.8Y-14.2
M16
G05
G00X72.0Y-11.5
M15
G01X71.2Y-11.5
M16
G05
G00X75.0Y-4.5
M15
G01X74.2Y-4.5
M16
G05
G00X78.0Y-9.4
M15
G01X78.0Y-8.6
M16
G05
G00X67.0Y-24.4
M15
G01X67.0Y-23.6
M16
G05
G00X70.6Y-33.2
M15
G01X69.8Y-33.2
M16
G05
G00X72.0Y-30.5
M15
G01X71.2Y-30.5
M16
G05
G00X75.0Y-23.5
M15
G01X74.2Y-23.5
M16
G05
G00X78.0Y-28.4
M15
G01X78.0Y-27.6
M16
G05
G00X2.0Y-9.6
M15
G01X2.0Y-10.4
M16
G05
G00X5.0Y-14.5
M15
G01X5.8Y-14.5
M16
G05
G00X8.0Y-7.5
M15
G01X8.8Y-7.5
M16
G05
G00X9.4Y-4.8
M15
G01X10.2Y-4.8
M16
G05
G00X13.0Y-13.6
M15
G01X13.0Y-14.4
M16
G05
T0
M30
