G04 #@! TF.GenerationSoftware,KiCad,Pcbnew,(5.1.5)-3*
G04 #@! TF.CreationDate,2020-12-05T11:42:08-07:00*
G04 #@! TF.ProjectId,ADSR_Envelope,41445352-5f45-46e7-9665-6c6f70652e6b,rev?*
G04 #@! TF.SameCoordinates,Original*
G04 #@! TF.FileFunction,Legend,Top*
G04 #@! TF.FilePolarity,Positive*
%FSLAX46Y46*%
G04 Gerber Fmt 4.6, Leading zero omitted, Abs format (unit mm)*
G04 Created by KiCad (PCBNEW (5.1.5)-3) date 2020-12-05 11:42:08*
%MOMM*%
%LPD*%
G04 APERTURE LIST*
%ADD10C,0.120000*%
%ADD11C,0.150000*%
G04 APERTURE END LIST*
D10*
X73187600Y-103045600D02*
X73537600Y-103045600D01*
X73187600Y-103935600D02*
X73187600Y-103045600D01*
X73487600Y-103935600D02*
X73187600Y-103935600D01*
X76127600Y-103935600D02*
X79977600Y-103935600D01*
X80000000Y-103935600D02*
X80000000Y-96195600D01*
X79977600Y-96195600D02*
X76127600Y-96195600D01*
X75737600Y-97575600D02*
X75737600Y-102555600D01*
X73187600Y-97085600D02*
X73187600Y-96195600D01*
X73187600Y-97085600D02*
X73537600Y-97085600D01*
X73487600Y-96195600D02*
X73187600Y-96195600D01*
X56670000Y-35670000D02*
X58000000Y-35670000D01*
X56670000Y-37000000D02*
X56670000Y-35670000D01*
X56670000Y-38270000D02*
X59330000Y-38270000D01*
X59330000Y-38270000D02*
X59330000Y-66270000D01*
X56670000Y-38270000D02*
X56670000Y-66270000D01*
X56670000Y-66270000D02*
X59330000Y-66270000D01*
X14000000Y-45750000D02*
X14000000Y-49650000D01*
X12000000Y-45750000D02*
X12000000Y-49650000D01*
X14000000Y-45750000D02*
X12000000Y-45750000D01*
X62520000Y-11000000D02*
X62520000Y-9000000D01*
X65480000Y-9000000D02*
X65480000Y-11000000D01*
X76920000Y-56010000D02*
X76189000Y-56010000D01*
X74730000Y-56010000D02*
X74720000Y-56010000D01*
X76920000Y-53990000D02*
X76189000Y-53990000D01*
X74730000Y-53990000D02*
X74720000Y-53990000D01*
X74720000Y-56010000D02*
X74720000Y-55825000D01*
X74720000Y-54175000D02*
X74720000Y-53990000D01*
D11*
X0Y-11800000D02*
X-3500000Y-11800000D01*
X-3500000Y-8200000D02*
X-3500000Y-11800000D01*
X0Y-8200000D02*
X-3500000Y-8200000D01*
X0Y-15500000D02*
X0Y-4000000D01*
X14000000Y-15500000D02*
X0Y-15500000D01*
X14000000Y-4000000D02*
X14000000Y-15500000D01*
X0Y-4000000D02*
X14000000Y-4000000D01*
X80000000Y-26200000D02*
X83500000Y-26200000D01*
X83500000Y-29800000D02*
X83500000Y-26200000D01*
X80000000Y-29800000D02*
X83500000Y-29800000D01*
X80000000Y-22500000D02*
X80000000Y-34000000D01*
X66000000Y-22500000D02*
X80000000Y-22500000D01*
X66000000Y-34000000D02*
X66000000Y-22500000D01*
X80000000Y-34000000D02*
X66000000Y-34000000D01*
D10*
X20670000Y-109110000D02*
X25870000Y-109110000D01*
X20670000Y-91270000D02*
X20670000Y-109110000D01*
X25870000Y-88670000D02*
X25870000Y-109110000D01*
X20670000Y-91270000D02*
X23270000Y-91270000D01*
X23270000Y-91270000D02*
X23270000Y-88670000D01*
X23270000Y-88670000D02*
X25870000Y-88670000D01*
X20670000Y-90000000D02*
X20670000Y-88670000D01*
X20670000Y-88670000D02*
X22000000Y-88670000D01*
D11*
X80000000Y-15000000D02*
X66000000Y-15000000D01*
X66000000Y-15000000D02*
X66000000Y-3500000D01*
X66000000Y-3500000D02*
X80000000Y-3500000D01*
X80000000Y-3500000D02*
X80000000Y-15000000D01*
X80000000Y-10800000D02*
X83500000Y-10800000D01*
X83500000Y-10800000D02*
X83500000Y-7200000D01*
X80000000Y-7200000D02*
X83500000Y-7200000D01*
D10*
X-10060000Y-75560000D02*
X-10060000Y-69440000D01*
X-860000Y-75560000D02*
X-860000Y-69440000D01*
X-860000Y-69440000D02*
X-10060000Y-69440000D01*
X-860000Y-75560000D02*
X-10060000Y-75560000D01*
X-860000Y-75960000D02*
X-860000Y-69040000D01*
X-60000Y-75960000D02*
X-60000Y-69040000D01*
X-60000Y-69040000D02*
X-860000Y-69040000D01*
X-60000Y-75960000D02*
X-860000Y-75960000D01*
X-60000Y-77410000D02*
X-60000Y-67590000D01*
X5060000Y-75625000D02*
X5060000Y-69375000D01*
X4305000Y-67590000D02*
X-60000Y-67590000D01*
X4305000Y-77410000D02*
X-60000Y-77410000D01*
X4305000Y-57410000D02*
X-60000Y-57410000D01*
X4305000Y-47590000D02*
X-60000Y-47590000D01*
X5060000Y-55625000D02*
X5060000Y-49375000D01*
X-60000Y-57410000D02*
X-60000Y-47590000D01*
X-60000Y-55960000D02*
X-860000Y-55960000D01*
X-60000Y-49040000D02*
X-860000Y-49040000D01*
X-60000Y-55960000D02*
X-60000Y-49040000D01*
X-860000Y-55960000D02*
X-860000Y-49040000D01*
X-860000Y-55560000D02*
X-10060000Y-55560000D01*
X-860000Y-49440000D02*
X-10060000Y-49440000D01*
X-860000Y-55560000D02*
X-860000Y-49440000D01*
X-10060000Y-55560000D02*
X-10060000Y-49440000D01*
X4305000Y-37410000D02*
X-60000Y-37410000D01*
X4305000Y-27590000D02*
X-60000Y-27590000D01*
X5060000Y-35625000D02*
X5060000Y-29375000D01*
X-60000Y-37410000D02*
X-60000Y-27590000D01*
X-60000Y-35960000D02*
X-860000Y-35960000D01*
X-60000Y-29040000D02*
X-860000Y-29040000D01*
X-60000Y-35960000D02*
X-60000Y-29040000D01*
X-860000Y-35960000D02*
X-860000Y-29040000D01*
X-860000Y-35560000D02*
X-10060000Y-35560000D01*
X-860000Y-29440000D02*
X-10060000Y-29440000D01*
X-860000Y-35560000D02*
X-860000Y-29440000D01*
X-10060000Y-35560000D02*
X-10060000Y-29440000D01*
X-10060000Y-95560000D02*
X-10060000Y-89440000D01*
X-860000Y-95560000D02*
X-860000Y-89440000D01*
X-860000Y-89440000D02*
X-10060000Y-89440000D01*
X-860000Y-95560000D02*
X-10060000Y-95560000D01*
X-860000Y-95960000D02*
X-860000Y-89040000D01*
X-60000Y-95960000D02*
X-60000Y-89040000D01*
X-60000Y-89040000D02*
X-860000Y-89040000D01*
X-60000Y-95960000D02*
X-860000Y-95960000D01*
X-60000Y-97410000D02*
X-60000Y-87590000D01*
X5060000Y-95625000D02*
X5060000Y-89375000D01*
X4305000Y-87590000D02*
X-60000Y-87590000D01*
X4305000Y-97410000D02*
X-60000Y-97410000D01*
D11*
X86350000Y-78127000D02*
X84127500Y-77047500D01*
X84127500Y-78698500D02*
X85715000Y-79524000D01*
X80000000Y-76135000D02*
X84100000Y-76135000D01*
X84100000Y-79865000D02*
X84100000Y-76135000D01*
X80000000Y-79865000D02*
X84100000Y-79865000D01*
X70729000Y-73936000D02*
X70729000Y-74444000D01*
X70729000Y-76984000D02*
X70729000Y-76476000D01*
X70729000Y-79524000D02*
X70729000Y-79016000D01*
X70730000Y-82065000D02*
X70729000Y-81492500D01*
X80000000Y-82065000D02*
X70730000Y-82065000D01*
X80000000Y-73935000D02*
X70730000Y-73935000D01*
X80000000Y-82065000D02*
X80000000Y-73935000D01*
X86401026Y-78113848D02*
G75*
G02X85664201Y-79523999I-355826J-711652D01*
G01*
D10*
X63330000Y-43730000D02*
X60670000Y-43730000D01*
X63330000Y-71730000D02*
X63330000Y-43730000D01*
X60670000Y-71730000D02*
X60670000Y-43730000D01*
X63330000Y-71730000D02*
X60670000Y-71730000D01*
X63330000Y-73000000D02*
X63330000Y-74330000D01*
X63330000Y-74330000D02*
X62000000Y-74330000D01*
X20670000Y-35670000D02*
X22000000Y-35670000D01*
X20670000Y-37000000D02*
X20670000Y-35670000D01*
X20670000Y-38270000D02*
X23330000Y-38270000D01*
X23330000Y-38270000D02*
X23330000Y-66270000D01*
X20670000Y-38270000D02*
X20670000Y-66270000D01*
X20670000Y-66270000D02*
X23330000Y-66270000D01*
X16670000Y-66270000D02*
X19330000Y-66270000D01*
X16670000Y-38270000D02*
X16670000Y-66270000D01*
X19330000Y-38270000D02*
X19330000Y-66270000D01*
X16670000Y-38270000D02*
X19330000Y-38270000D01*
X16670000Y-37000000D02*
X16670000Y-35670000D01*
X16670000Y-35670000D02*
X18000000Y-35670000D01*
X49480000Y-42000000D02*
X49480000Y-40000000D01*
X46520000Y-40000000D02*
X46520000Y-42000000D01*
X50000000Y-28520000D02*
X48000000Y-28520000D01*
X48000000Y-31480000D02*
X50000000Y-31480000D01*
X33000000Y-50520000D02*
X31000000Y-50520000D01*
X31000000Y-53480000D02*
X33000000Y-53480000D01*
X31000000Y-57980000D02*
X33000000Y-57980000D01*
X33000000Y-55020000D02*
X31000000Y-55020000D01*
X31480000Y-99000000D02*
X31480000Y-97000000D01*
X28520000Y-97000000D02*
X28520000Y-99000000D01*
X30520000Y-40000000D02*
X30520000Y-42000000D01*
X33480000Y-42000000D02*
X33480000Y-40000000D01*
X47520000Y-61000000D02*
X47520000Y-63000000D01*
X50480000Y-63000000D02*
X50480000Y-61000000D01*
X28520000Y-90000000D02*
X28520000Y-92000000D01*
X31480000Y-92000000D02*
X31480000Y-90000000D01*
X49000000Y-87250000D02*
X49000000Y-83350000D01*
X51000000Y-87250000D02*
X51000000Y-83350000D01*
X49000000Y-87250000D02*
X51000000Y-87250000D01*
X27750000Y-29000000D02*
X27750000Y-31000000D01*
X27750000Y-31000000D02*
X31650000Y-31000000D01*
X27750000Y-29000000D02*
X31650000Y-29000000D01*
X49000000Y-47750000D02*
X47000000Y-47750000D01*
X47000000Y-47750000D02*
X47000000Y-51650000D01*
X49000000Y-47750000D02*
X49000000Y-51650000D01*
X29000000Y-63250000D02*
X29000000Y-59350000D01*
X31000000Y-63250000D02*
X31000000Y-59350000D01*
X29000000Y-63250000D02*
X31000000Y-63250000D01*
X48760000Y-17580000D02*
X48760000Y-16650000D01*
X48760000Y-14420000D02*
X48760000Y-15350000D01*
X48760000Y-14420000D02*
X46600000Y-14420000D01*
X48760000Y-17580000D02*
X47300000Y-17580000D01*
X48760000Y-24580000D02*
X48760000Y-23650000D01*
X48760000Y-21420000D02*
X48760000Y-22350000D01*
X48760000Y-21420000D02*
X46600000Y-21420000D01*
X48760000Y-24580000D02*
X47300000Y-24580000D01*
X32760000Y-17580000D02*
X31300000Y-17580000D01*
X32760000Y-14420000D02*
X30600000Y-14420000D01*
X32760000Y-14420000D02*
X32760000Y-15350000D01*
X32760000Y-17580000D02*
X32760000Y-16650000D01*
X32760000Y-24580000D02*
X31300000Y-24580000D01*
X32760000Y-21420000D02*
X30600000Y-21420000D01*
X32760000Y-21420000D02*
X32760000Y-22350000D01*
X32760000Y-24580000D02*
X32760000Y-23650000D01*
X13480000Y-64000000D02*
X13480000Y-66000000D01*
X10520000Y-66000000D02*
X10520000Y-64000000D01*
X47000000Y-7520000D02*
X49000000Y-7520000D01*
X49000000Y-10480000D02*
X47000000Y-10480000D01*
X38520000Y-51000000D02*
X38520000Y-49000000D01*
X41480000Y-49000000D02*
X41480000Y-51000000D01*
X65480000Y-97000000D02*
X65480000Y-99000000D01*
X62520000Y-99000000D02*
X62520000Y-97000000D01*
X41000000Y-92480000D02*
X39000000Y-92480000D01*
X39000000Y-89520000D02*
X41000000Y-89520000D01*
X33000000Y-5480000D02*
X31000000Y-5480000D01*
X31000000Y-2520000D02*
X33000000Y-2520000D01*
X31000000Y-7520000D02*
X33000000Y-7520000D01*
X33000000Y-10480000D02*
X31000000Y-10480000D01*
X39000000Y-79520000D02*
X41000000Y-79520000D01*
X41000000Y-82480000D02*
X39000000Y-82480000D01*
X67520000Y-99000000D02*
X67520000Y-97000000D01*
X70480000Y-97000000D02*
X70480000Y-99000000D01*
X33000000Y-48980000D02*
X31000000Y-48980000D01*
X31000000Y-46020000D02*
X33000000Y-46020000D01*
X39000000Y-99520000D02*
X41000000Y-99520000D01*
X41000000Y-102480000D02*
X39000000Y-102480000D01*
X25520000Y-21000000D02*
X25520000Y-19000000D01*
X28480000Y-19000000D02*
X28480000Y-21000000D01*
X11520000Y-88000000D02*
X11520000Y-86000000D01*
X14480000Y-86000000D02*
X14480000Y-88000000D01*
X49000000Y-5480000D02*
X47000000Y-5480000D01*
X47000000Y-2520000D02*
X49000000Y-2520000D01*
X37000000Y-28520000D02*
X39000000Y-28520000D01*
X39000000Y-31480000D02*
X37000000Y-31480000D01*
X65480000Y-29000000D02*
X65480000Y-31000000D01*
X62520000Y-31000000D02*
X62520000Y-29000000D01*
X41000000Y-77480000D02*
X39000000Y-77480000D01*
X39000000Y-74520000D02*
X41000000Y-74520000D01*
X41000000Y-97480000D02*
X39000000Y-97480000D01*
X39000000Y-94520000D02*
X41000000Y-94520000D01*
X39000000Y-84520000D02*
X41000000Y-84520000D01*
X41000000Y-87480000D02*
X39000000Y-87480000D01*
X31480000Y-67000000D02*
X31480000Y-69000000D01*
X28520000Y-69000000D02*
X28520000Y-67000000D01*
D11*
X35555000Y-62762000D02*
X34920000Y-62762000D01*
X35555000Y-61492000D02*
X35555000Y-62762000D01*
X34920000Y-61492000D02*
X35555000Y-61492000D01*
X34920000Y-59714000D02*
X45080000Y-59714000D01*
X34920000Y-64540000D02*
X34920000Y-59714000D01*
X45080000Y-64540000D02*
X34920000Y-64540000D01*
X45080000Y-59714000D02*
X45080000Y-64540000D01*
X37968000Y-41508000D02*
X37460000Y-41508000D01*
X37968000Y-40238000D02*
X37968000Y-41508000D01*
X37460000Y-40238000D02*
X37968000Y-40238000D01*
X37460000Y-43286000D02*
X37460000Y-38714000D01*
X42540000Y-43286000D02*
X37460000Y-43286000D01*
X42540000Y-38714000D02*
X42540000Y-43286000D01*
X37460000Y-38714000D02*
X42540000Y-38714000D01*
X75212361Y-101398933D02*
X75259980Y-101256076D01*
X75259980Y-101017980D01*
X75212361Y-100922742D01*
X75164742Y-100875123D01*
X75069504Y-100827504D01*
X74974266Y-100827504D01*
X74879028Y-100875123D01*
X74831409Y-100922742D01*
X74783790Y-101017980D01*
X74736171Y-101208457D01*
X74688552Y-101303695D01*
X74640933Y-101351314D01*
X74545695Y-101398933D01*
X74450457Y-101398933D01*
X74355219Y-101351314D01*
X74307600Y-101303695D01*
X74259980Y-101208457D01*
X74259980Y-100970361D01*
X74307600Y-100827504D01*
X74259980Y-100494171D02*
X75259980Y-100256076D01*
X74545695Y-100065600D01*
X75259980Y-99875123D01*
X74259980Y-99637028D01*
X75259980Y-98732266D02*
X75259980Y-99303695D01*
X75259980Y-99017980D02*
X74259980Y-99017980D01*
X74402838Y-99113219D01*
X74498076Y-99208457D01*
X74545695Y-99303695D01*
X57666666Y-34122380D02*
X57666666Y-34836666D01*
X57619047Y-34979523D01*
X57523809Y-35074761D01*
X57380952Y-35122380D01*
X57285714Y-35122380D01*
X58285714Y-34550952D02*
X58190476Y-34503333D01*
X58142857Y-34455714D01*
X58095238Y-34360476D01*
X58095238Y-34312857D01*
X58142857Y-34217619D01*
X58190476Y-34170000D01*
X58285714Y-34122380D01*
X58476190Y-34122380D01*
X58571428Y-34170000D01*
X58619047Y-34217619D01*
X58666666Y-34312857D01*
X58666666Y-34360476D01*
X58619047Y-34455714D01*
X58571428Y-34503333D01*
X58476190Y-34550952D01*
X58285714Y-34550952D01*
X58190476Y-34598571D01*
X58142857Y-34646190D01*
X58095238Y-34741428D01*
X58095238Y-34931904D01*
X58142857Y-35027142D01*
X58190476Y-35074761D01*
X58285714Y-35122380D01*
X58476190Y-35122380D01*
X58571428Y-35074761D01*
X58619047Y-35027142D01*
X58666666Y-34931904D01*
X58666666Y-34741428D01*
X58619047Y-34646190D01*
X58571428Y-34598571D01*
X58476190Y-34550952D01*
X15452380Y-48738095D02*
X14452380Y-48738095D01*
X14452380Y-48500000D01*
X14500000Y-48357142D01*
X14595238Y-48261904D01*
X14690476Y-48214285D01*
X14880952Y-48166666D01*
X15023809Y-48166666D01*
X15214285Y-48214285D01*
X15309523Y-48261904D01*
X15404761Y-48357142D01*
X15452380Y-48500000D01*
X15452380Y-48738095D01*
X15452380Y-47214285D02*
X15452380Y-47785714D01*
X15452380Y-47500000D02*
X14452380Y-47500000D01*
X14595238Y-47595238D01*
X14690476Y-47690476D01*
X14738095Y-47785714D01*
X62152380Y-10642857D02*
X61676190Y-10976190D01*
X62152380Y-11214285D02*
X61152380Y-11214285D01*
X61152380Y-10833333D01*
X61200000Y-10738095D01*
X61247619Y-10690476D01*
X61342857Y-10642857D01*
X61485714Y-10642857D01*
X61580952Y-10690476D01*
X61628571Y-10738095D01*
X61676190Y-10833333D01*
X61676190Y-11214285D01*
X62152380Y-9690476D02*
X62152380Y-10261904D01*
X62152380Y-9976190D02*
X61152380Y-9976190D01*
X61295238Y-10071428D01*
X61390476Y-10166666D01*
X61438095Y-10261904D01*
X61580952Y-9119047D02*
X61533333Y-9214285D01*
X61485714Y-9261904D01*
X61390476Y-9309523D01*
X61342857Y-9309523D01*
X61247619Y-9261904D01*
X61200000Y-9214285D01*
X61152380Y-9119047D01*
X61152380Y-8928571D01*
X61200000Y-8833333D01*
X61247619Y-8785714D01*
X61342857Y-8738095D01*
X61390476Y-8738095D01*
X61485714Y-8785714D01*
X61533333Y-8833333D01*
X61580952Y-8928571D01*
X61580952Y-9119047D01*
X61628571Y-9214285D01*
X61676190Y-9261904D01*
X61771428Y-9309523D01*
X61961904Y-9309523D01*
X62057142Y-9261904D01*
X62104761Y-9214285D01*
X62152380Y-9119047D01*
X62152380Y-8928571D01*
X62104761Y-8833333D01*
X62057142Y-8785714D01*
X61961904Y-8738095D01*
X61771428Y-8738095D01*
X61676190Y-8785714D01*
X61628571Y-8833333D01*
X61580952Y-8928571D01*
X75991904Y-57462380D02*
X75991904Y-56462380D01*
X76230000Y-56462380D01*
X76372857Y-56510000D01*
X76468095Y-56605238D01*
X76515714Y-56700476D01*
X76563333Y-56890952D01*
X76563333Y-57033809D01*
X76515714Y-57224285D01*
X76468095Y-57319523D01*
X76372857Y-57414761D01*
X76230000Y-57462380D01*
X75991904Y-57462380D01*
X77420476Y-56462380D02*
X77230000Y-56462380D01*
X77134761Y-56510000D01*
X77087142Y-56557619D01*
X76991904Y-56700476D01*
X76944285Y-56890952D01*
X76944285Y-57271904D01*
X76991904Y-57367142D01*
X77039523Y-57414761D01*
X77134761Y-57462380D01*
X77325238Y-57462380D01*
X77420476Y-57414761D01*
X77468095Y-57367142D01*
X77515714Y-57271904D01*
X77515714Y-57033809D01*
X77468095Y-56938571D01*
X77420476Y-56890952D01*
X77325238Y-56843333D01*
X77134761Y-56843333D01*
X77039523Y-56890952D01*
X76991904Y-56938571D01*
X76944285Y-57033809D01*
X7985166Y-15865880D02*
X7985166Y-16580166D01*
X7937547Y-16723023D01*
X7842309Y-16818261D01*
X7699452Y-16865880D01*
X7604214Y-16865880D01*
X8985166Y-16865880D02*
X8413738Y-16865880D01*
X8699452Y-16865880D02*
X8699452Y-15865880D01*
X8604214Y-16008738D01*
X8508976Y-16103976D01*
X8413738Y-16151595D01*
X71348166Y-21038880D02*
X71348166Y-21753166D01*
X71300547Y-21896023D01*
X71205309Y-21991261D01*
X71062452Y-22038880D01*
X70967214Y-22038880D01*
X71776738Y-21134119D02*
X71824357Y-21086500D01*
X71919595Y-21038880D01*
X72157690Y-21038880D01*
X72252928Y-21086500D01*
X72300547Y-21134119D01*
X72348166Y-21229357D01*
X72348166Y-21324595D01*
X72300547Y-21467452D01*
X71729119Y-22038880D01*
X72348166Y-22038880D01*
X22936666Y-87122380D02*
X22936666Y-87836666D01*
X22889047Y-87979523D01*
X22793809Y-88074761D01*
X22650952Y-88122380D01*
X22555714Y-88122380D01*
X23317619Y-87122380D02*
X23936666Y-87122380D01*
X23603333Y-87503333D01*
X23746190Y-87503333D01*
X23841428Y-87550952D01*
X23889047Y-87598571D01*
X23936666Y-87693809D01*
X23936666Y-87931904D01*
X23889047Y-88027142D01*
X23841428Y-88074761D01*
X23746190Y-88122380D01*
X23460476Y-88122380D01*
X23365238Y-88074761D01*
X23317619Y-88027142D01*
X71348166Y-2038880D02*
X71348166Y-2753166D01*
X71300547Y-2896023D01*
X71205309Y-2991261D01*
X71062452Y-3038880D01*
X70967214Y-3038880D01*
X72252928Y-2372214D02*
X72252928Y-3038880D01*
X72014833Y-1991261D02*
X71776738Y-2705547D01*
X72395785Y-2705547D01*
X2904761Y-81502380D02*
X2571428Y-81026190D01*
X2333333Y-81502380D02*
X2333333Y-80502380D01*
X2714285Y-80502380D01*
X2809523Y-80550000D01*
X2857142Y-80597619D01*
X2904761Y-80692857D01*
X2904761Y-80835714D01*
X2857142Y-80930952D01*
X2809523Y-80978571D01*
X2714285Y-81026190D01*
X2333333Y-81026190D01*
X3190476Y-80502380D02*
X3523809Y-81502380D01*
X3857142Y-80502380D01*
X4714285Y-81502380D02*
X4142857Y-81502380D01*
X4428571Y-81502380D02*
X4428571Y-80502380D01*
X4333333Y-80645238D01*
X4238095Y-80740476D01*
X4142857Y-80788095D01*
X2904761Y-61502380D02*
X2571428Y-61026190D01*
X2333333Y-61502380D02*
X2333333Y-60502380D01*
X2714285Y-60502380D01*
X2809523Y-60550000D01*
X2857142Y-60597619D01*
X2904761Y-60692857D01*
X2904761Y-60835714D01*
X2857142Y-60930952D01*
X2809523Y-60978571D01*
X2714285Y-61026190D01*
X2333333Y-61026190D01*
X3190476Y-60502380D02*
X3523809Y-61502380D01*
X3857142Y-60502380D01*
X4142857Y-60597619D02*
X4190476Y-60550000D01*
X4285714Y-60502380D01*
X4523809Y-60502380D01*
X4619047Y-60550000D01*
X4666666Y-60597619D01*
X4714285Y-60692857D01*
X4714285Y-60788095D01*
X4666666Y-60930952D01*
X4095238Y-61502380D01*
X4714285Y-61502380D01*
X2904761Y-41502380D02*
X2571428Y-41026190D01*
X2333333Y-41502380D02*
X2333333Y-40502380D01*
X2714285Y-40502380D01*
X2809523Y-40550000D01*
X2857142Y-40597619D01*
X2904761Y-40692857D01*
X2904761Y-40835714D01*
X2857142Y-40930952D01*
X2809523Y-40978571D01*
X2714285Y-41026190D01*
X2333333Y-41026190D01*
X3190476Y-40502380D02*
X3523809Y-41502380D01*
X3857142Y-40502380D01*
X4095238Y-40502380D02*
X4714285Y-40502380D01*
X4380952Y-40883333D01*
X4523809Y-40883333D01*
X4619047Y-40930952D01*
X4666666Y-40978571D01*
X4714285Y-41073809D01*
X4714285Y-41311904D01*
X4666666Y-41407142D01*
X4619047Y-41454761D01*
X4523809Y-41502380D01*
X4238095Y-41502380D01*
X4142857Y-41454761D01*
X4095238Y-41407142D01*
X2904761Y-101502380D02*
X2571428Y-101026190D01*
X2333333Y-101502380D02*
X2333333Y-100502380D01*
X2714285Y-100502380D01*
X2809523Y-100550000D01*
X2857142Y-100597619D01*
X2904761Y-100692857D01*
X2904761Y-100835714D01*
X2857142Y-100930952D01*
X2809523Y-100978571D01*
X2714285Y-101026190D01*
X2333333Y-101026190D01*
X3190476Y-100502380D02*
X3523809Y-101502380D01*
X3857142Y-100502380D01*
X4619047Y-100835714D02*
X4619047Y-101502380D01*
X4380952Y-100454761D02*
X4142857Y-101169047D01*
X4761904Y-101169047D01*
X73586666Y-83421261D02*
X73729523Y-83468880D01*
X73967619Y-83468880D01*
X74062857Y-83421261D01*
X74110476Y-83373642D01*
X74158095Y-83278404D01*
X74158095Y-83183166D01*
X74110476Y-83087928D01*
X74062857Y-83040309D01*
X73967619Y-82992690D01*
X73777142Y-82945071D01*
X73681904Y-82897452D01*
X73634285Y-82849833D01*
X73586666Y-82754595D01*
X73586666Y-82659357D01*
X73634285Y-82564119D01*
X73681904Y-82516500D01*
X73777142Y-82468880D01*
X74015238Y-82468880D01*
X74158095Y-82516500D01*
X74491428Y-82468880D02*
X74729523Y-83468880D01*
X74920000Y-82754595D01*
X75110476Y-83468880D01*
X75348571Y-82468880D01*
X75681904Y-82564119D02*
X75729523Y-82516500D01*
X75824761Y-82468880D01*
X76062857Y-82468880D01*
X76158095Y-82516500D01*
X76205714Y-82564119D01*
X76253333Y-82659357D01*
X76253333Y-82754595D01*
X76205714Y-82897452D01*
X75634285Y-83468880D01*
X76253333Y-83468880D01*
X61666666Y-74782380D02*
X61666666Y-75496666D01*
X61619047Y-75639523D01*
X61523809Y-75734761D01*
X61380952Y-75782380D01*
X61285714Y-75782380D01*
X62619047Y-74782380D02*
X62142857Y-74782380D01*
X62095238Y-75258571D01*
X62142857Y-75210952D01*
X62238095Y-75163333D01*
X62476190Y-75163333D01*
X62571428Y-75210952D01*
X62619047Y-75258571D01*
X62666666Y-75353809D01*
X62666666Y-75591904D01*
X62619047Y-75687142D01*
X62571428Y-75734761D01*
X62476190Y-75782380D01*
X62238095Y-75782380D01*
X62142857Y-75734761D01*
X62095238Y-75687142D01*
X21666666Y-34122380D02*
X21666666Y-34836666D01*
X21619047Y-34979523D01*
X21523809Y-35074761D01*
X21380952Y-35122380D01*
X21285714Y-35122380D01*
X22571428Y-34122380D02*
X22380952Y-34122380D01*
X22285714Y-34170000D01*
X22238095Y-34217619D01*
X22142857Y-34360476D01*
X22095238Y-34550952D01*
X22095238Y-34931904D01*
X22142857Y-35027142D01*
X22190476Y-35074761D01*
X22285714Y-35122380D01*
X22476190Y-35122380D01*
X22571428Y-35074761D01*
X22619047Y-35027142D01*
X22666666Y-34931904D01*
X22666666Y-34693809D01*
X22619047Y-34598571D01*
X22571428Y-34550952D01*
X22476190Y-34503333D01*
X22285714Y-34503333D01*
X22190476Y-34550952D01*
X22142857Y-34598571D01*
X22095238Y-34693809D01*
X17666666Y-34122380D02*
X17666666Y-34836666D01*
X17619047Y-34979523D01*
X17523809Y-35074761D01*
X17380952Y-35122380D01*
X17285714Y-35122380D01*
X18047619Y-34122380D02*
X18714285Y-34122380D01*
X18285714Y-35122380D01*
X46107142Y-41166666D02*
X46154761Y-41214285D01*
X46202380Y-41357142D01*
X46202380Y-41452380D01*
X46154761Y-41595238D01*
X46059523Y-41690476D01*
X45964285Y-41738095D01*
X45773809Y-41785714D01*
X45630952Y-41785714D01*
X45440476Y-41738095D01*
X45345238Y-41690476D01*
X45250000Y-41595238D01*
X45202380Y-41452380D01*
X45202380Y-41357142D01*
X45250000Y-41214285D01*
X45297619Y-41166666D01*
X46202380Y-40214285D02*
X46202380Y-40785714D01*
X46202380Y-40500000D02*
X45202380Y-40500000D01*
X45345238Y-40595238D01*
X45440476Y-40690476D01*
X45488095Y-40785714D01*
X48833333Y-28107142D02*
X48785714Y-28154761D01*
X48642857Y-28202380D01*
X48547619Y-28202380D01*
X48404761Y-28154761D01*
X48309523Y-28059523D01*
X48261904Y-27964285D01*
X48214285Y-27773809D01*
X48214285Y-27630952D01*
X48261904Y-27440476D01*
X48309523Y-27345238D01*
X48404761Y-27250000D01*
X48547619Y-27202380D01*
X48642857Y-27202380D01*
X48785714Y-27250000D01*
X48833333Y-27297619D01*
X49214285Y-27297619D02*
X49261904Y-27250000D01*
X49357142Y-27202380D01*
X49595238Y-27202380D01*
X49690476Y-27250000D01*
X49738095Y-27297619D01*
X49785714Y-27392857D01*
X49785714Y-27488095D01*
X49738095Y-27630952D01*
X49166666Y-28202380D01*
X49785714Y-28202380D01*
X31833333Y-50107142D02*
X31785714Y-50154761D01*
X31642857Y-50202380D01*
X31547619Y-50202380D01*
X31404761Y-50154761D01*
X31309523Y-50059523D01*
X31261904Y-49964285D01*
X31214285Y-49773809D01*
X31214285Y-49630952D01*
X31261904Y-49440476D01*
X31309523Y-49345238D01*
X31404761Y-49250000D01*
X31547619Y-49202380D01*
X31642857Y-49202380D01*
X31785714Y-49250000D01*
X31833333Y-49297619D01*
X32166666Y-49202380D02*
X32785714Y-49202380D01*
X32452380Y-49583333D01*
X32595238Y-49583333D01*
X32690476Y-49630952D01*
X32738095Y-49678571D01*
X32785714Y-49773809D01*
X32785714Y-50011904D01*
X32738095Y-50107142D01*
X32690476Y-50154761D01*
X32595238Y-50202380D01*
X32309523Y-50202380D01*
X32214285Y-50154761D01*
X32166666Y-50107142D01*
X31833333Y-54607142D02*
X31785714Y-54654761D01*
X31642857Y-54702380D01*
X31547619Y-54702380D01*
X31404761Y-54654761D01*
X31309523Y-54559523D01*
X31261904Y-54464285D01*
X31214285Y-54273809D01*
X31214285Y-54130952D01*
X31261904Y-53940476D01*
X31309523Y-53845238D01*
X31404761Y-53750000D01*
X31547619Y-53702380D01*
X31642857Y-53702380D01*
X31785714Y-53750000D01*
X31833333Y-53797619D01*
X32690476Y-54035714D02*
X32690476Y-54702380D01*
X32452380Y-53654761D02*
X32214285Y-54369047D01*
X32833333Y-54369047D01*
X28107142Y-98166666D02*
X28154761Y-98214285D01*
X28202380Y-98357142D01*
X28202380Y-98452380D01*
X28154761Y-98595238D01*
X28059523Y-98690476D01*
X27964285Y-98738095D01*
X27773809Y-98785714D01*
X27630952Y-98785714D01*
X27440476Y-98738095D01*
X27345238Y-98690476D01*
X27250000Y-98595238D01*
X27202380Y-98452380D01*
X27202380Y-98357142D01*
X27250000Y-98214285D01*
X27297619Y-98166666D01*
X27202380Y-97261904D02*
X27202380Y-97738095D01*
X27678571Y-97785714D01*
X27630952Y-97738095D01*
X27583333Y-97642857D01*
X27583333Y-97404761D01*
X27630952Y-97309523D01*
X27678571Y-97261904D01*
X27773809Y-97214285D01*
X28011904Y-97214285D01*
X28107142Y-97261904D01*
X28154761Y-97309523D01*
X28202380Y-97404761D01*
X28202380Y-97642857D01*
X28154761Y-97738095D01*
X28107142Y-97785714D01*
X29821142Y-41187666D02*
X29868761Y-41235285D01*
X29916380Y-41378142D01*
X29916380Y-41473380D01*
X29868761Y-41616238D01*
X29773523Y-41711476D01*
X29678285Y-41759095D01*
X29487809Y-41806714D01*
X29344952Y-41806714D01*
X29154476Y-41759095D01*
X29059238Y-41711476D01*
X28964000Y-41616238D01*
X28916380Y-41473380D01*
X28916380Y-41378142D01*
X28964000Y-41235285D01*
X29011619Y-41187666D01*
X28916380Y-40330523D02*
X28916380Y-40521000D01*
X28964000Y-40616238D01*
X29011619Y-40663857D01*
X29154476Y-40759095D01*
X29344952Y-40806714D01*
X29725904Y-40806714D01*
X29821142Y-40759095D01*
X29868761Y-40711476D01*
X29916380Y-40616238D01*
X29916380Y-40425761D01*
X29868761Y-40330523D01*
X29821142Y-40282904D01*
X29725904Y-40235285D01*
X29487809Y-40235285D01*
X29392571Y-40282904D01*
X29344952Y-40330523D01*
X29297333Y-40425761D01*
X29297333Y-40616238D01*
X29344952Y-40711476D01*
X29392571Y-40759095D01*
X29487809Y-40806714D01*
X47107142Y-62166666D02*
X47154761Y-62214285D01*
X47202380Y-62357142D01*
X47202380Y-62452380D01*
X47154761Y-62595238D01*
X47059523Y-62690476D01*
X46964285Y-62738095D01*
X46773809Y-62785714D01*
X46630952Y-62785714D01*
X46440476Y-62738095D01*
X46345238Y-62690476D01*
X46250000Y-62595238D01*
X46202380Y-62452380D01*
X46202380Y-62357142D01*
X46250000Y-62214285D01*
X46297619Y-62166666D01*
X46202380Y-61833333D02*
X46202380Y-61166666D01*
X47202380Y-61595238D01*
X28107142Y-91166666D02*
X28154761Y-91214285D01*
X28202380Y-91357142D01*
X28202380Y-91452380D01*
X28154761Y-91595238D01*
X28059523Y-91690476D01*
X27964285Y-91738095D01*
X27773809Y-91785714D01*
X27630952Y-91785714D01*
X27440476Y-91738095D01*
X27345238Y-91690476D01*
X27250000Y-91595238D01*
X27202380Y-91452380D01*
X27202380Y-91357142D01*
X27250000Y-91214285D01*
X27297619Y-91166666D01*
X27630952Y-90595238D02*
X27583333Y-90690476D01*
X27535714Y-90738095D01*
X27440476Y-90785714D01*
X27392857Y-90785714D01*
X27297619Y-90738095D01*
X27250000Y-90690476D01*
X27202380Y-90595238D01*
X27202380Y-90404761D01*
X27250000Y-90309523D01*
X27297619Y-90261904D01*
X27392857Y-90214285D01*
X27440476Y-90214285D01*
X27535714Y-90261904D01*
X27583333Y-90309523D01*
X27630952Y-90404761D01*
X27630952Y-90595238D01*
X27678571Y-90690476D01*
X27726190Y-90738095D01*
X27821428Y-90785714D01*
X28011904Y-90785714D01*
X28107142Y-90738095D01*
X28154761Y-90690476D01*
X28202380Y-90595238D01*
X28202380Y-90404761D01*
X28154761Y-90309523D01*
X28107142Y-90261904D01*
X28011904Y-90214285D01*
X27821428Y-90214285D01*
X27726190Y-90261904D01*
X27678571Y-90309523D01*
X27630952Y-90404761D01*
X48452380Y-85738095D02*
X47452380Y-85738095D01*
X47452380Y-85500000D01*
X47500000Y-85357142D01*
X47595238Y-85261904D01*
X47690476Y-85214285D01*
X47880952Y-85166666D01*
X48023809Y-85166666D01*
X48214285Y-85214285D01*
X48309523Y-85261904D01*
X48404761Y-85357142D01*
X48452380Y-85500000D01*
X48452380Y-85738095D01*
X47547619Y-84785714D02*
X47500000Y-84738095D01*
X47452380Y-84642857D01*
X47452380Y-84404761D01*
X47500000Y-84309523D01*
X47547619Y-84261904D01*
X47642857Y-84214285D01*
X47738095Y-84214285D01*
X47880952Y-84261904D01*
X48452380Y-84833333D01*
X48452380Y-84214285D01*
X29261904Y-28452380D02*
X29261904Y-27452380D01*
X29500000Y-27452380D01*
X29642857Y-27500000D01*
X29738095Y-27595238D01*
X29785714Y-27690476D01*
X29833333Y-27880952D01*
X29833333Y-28023809D01*
X29785714Y-28214285D01*
X29738095Y-28309523D01*
X29642857Y-28404761D01*
X29500000Y-28452380D01*
X29261904Y-28452380D01*
X30166666Y-27452380D02*
X30785714Y-27452380D01*
X30452380Y-27833333D01*
X30595238Y-27833333D01*
X30690476Y-27880952D01*
X30738095Y-27928571D01*
X30785714Y-28023809D01*
X30785714Y-28261904D01*
X30738095Y-28357142D01*
X30690476Y-28404761D01*
X30595238Y-28452380D01*
X30309523Y-28452380D01*
X30214285Y-28404761D01*
X30166666Y-28357142D01*
X46324780Y-50738095D02*
X45324780Y-50738095D01*
X45324780Y-50500000D01*
X45372400Y-50357142D01*
X45467638Y-50261904D01*
X45562876Y-50214285D01*
X45753352Y-50166666D01*
X45896209Y-50166666D01*
X46086685Y-50214285D01*
X46181923Y-50261904D01*
X46277161Y-50357142D01*
X46324780Y-50500000D01*
X46324780Y-50738095D01*
X45658114Y-49309523D02*
X46324780Y-49309523D01*
X45277161Y-49547619D02*
X45991447Y-49785714D01*
X45991447Y-49166666D01*
X28443180Y-61738095D02*
X27443180Y-61738095D01*
X27443180Y-61500000D01*
X27490800Y-61357142D01*
X27586038Y-61261904D01*
X27681276Y-61214285D01*
X27871752Y-61166666D01*
X28014609Y-61166666D01*
X28205085Y-61214285D01*
X28300323Y-61261904D01*
X28395561Y-61357142D01*
X28443180Y-61500000D01*
X28443180Y-61738095D01*
X27443180Y-60261904D02*
X27443180Y-60738095D01*
X27919371Y-60785714D01*
X27871752Y-60738095D01*
X27824133Y-60642857D01*
X27824133Y-60404761D01*
X27871752Y-60309523D01*
X27919371Y-60261904D01*
X28014609Y-60214285D01*
X28252704Y-60214285D01*
X28347942Y-60261904D01*
X28395561Y-60309523D01*
X28443180Y-60404761D01*
X28443180Y-60642857D01*
X28395561Y-60738095D01*
X28347942Y-60785714D01*
X47904761Y-14047619D02*
X47809523Y-14000000D01*
X47714285Y-13904761D01*
X47571428Y-13761904D01*
X47476190Y-13714285D01*
X47380952Y-13714285D01*
X47428571Y-13952380D02*
X47333333Y-13904761D01*
X47238095Y-13809523D01*
X47190476Y-13619047D01*
X47190476Y-13285714D01*
X47238095Y-13095238D01*
X47333333Y-13000000D01*
X47428571Y-12952380D01*
X47619047Y-12952380D01*
X47714285Y-13000000D01*
X47809523Y-13095238D01*
X47857142Y-13285714D01*
X47857142Y-13619047D01*
X47809523Y-13809523D01*
X47714285Y-13904761D01*
X47619047Y-13952380D01*
X47428571Y-13952380D01*
X48809523Y-13952380D02*
X48238095Y-13952380D01*
X48523809Y-13952380D02*
X48523809Y-12952380D01*
X48428571Y-13095238D01*
X48333333Y-13190476D01*
X48238095Y-13238095D01*
X47904761Y-21047619D02*
X47809523Y-21000000D01*
X47714285Y-20904761D01*
X47571428Y-20761904D01*
X47476190Y-20714285D01*
X47380952Y-20714285D01*
X47428571Y-20952380D02*
X47333333Y-20904761D01*
X47238095Y-20809523D01*
X47190476Y-20619047D01*
X47190476Y-20285714D01*
X47238095Y-20095238D01*
X47333333Y-20000000D01*
X47428571Y-19952380D01*
X47619047Y-19952380D01*
X47714285Y-20000000D01*
X47809523Y-20095238D01*
X47857142Y-20285714D01*
X47857142Y-20619047D01*
X47809523Y-20809523D01*
X47714285Y-20904761D01*
X47619047Y-20952380D01*
X47428571Y-20952380D01*
X48238095Y-20047619D02*
X48285714Y-20000000D01*
X48380952Y-19952380D01*
X48619047Y-19952380D01*
X48714285Y-20000000D01*
X48761904Y-20047619D01*
X48809523Y-20142857D01*
X48809523Y-20238095D01*
X48761904Y-20380952D01*
X48190476Y-20952380D01*
X48809523Y-20952380D01*
X31904761Y-14047619D02*
X31809523Y-14000000D01*
X31714285Y-13904761D01*
X31571428Y-13761904D01*
X31476190Y-13714285D01*
X31380952Y-13714285D01*
X31428571Y-13952380D02*
X31333333Y-13904761D01*
X31238095Y-13809523D01*
X31190476Y-13619047D01*
X31190476Y-13285714D01*
X31238095Y-13095238D01*
X31333333Y-13000000D01*
X31428571Y-12952380D01*
X31619047Y-12952380D01*
X31714285Y-13000000D01*
X31809523Y-13095238D01*
X31857142Y-13285714D01*
X31857142Y-13619047D01*
X31809523Y-13809523D01*
X31714285Y-13904761D01*
X31619047Y-13952380D01*
X31428571Y-13952380D01*
X32190476Y-12952380D02*
X32809523Y-12952380D01*
X32476190Y-13333333D01*
X32619047Y-13333333D01*
X32714285Y-13380952D01*
X32761904Y-13428571D01*
X32809523Y-13523809D01*
X32809523Y-13761904D01*
X32761904Y-13857142D01*
X32714285Y-13904761D01*
X32619047Y-13952380D01*
X32333333Y-13952380D01*
X32238095Y-13904761D01*
X32190476Y-13857142D01*
X31904761Y-21047619D02*
X31809523Y-21000000D01*
X31714285Y-20904761D01*
X31571428Y-20761904D01*
X31476190Y-20714285D01*
X31380952Y-20714285D01*
X31428571Y-20952380D02*
X31333333Y-20904761D01*
X31238095Y-20809523D01*
X31190476Y-20619047D01*
X31190476Y-20285714D01*
X31238095Y-20095238D01*
X31333333Y-20000000D01*
X31428571Y-19952380D01*
X31619047Y-19952380D01*
X31714285Y-20000000D01*
X31809523Y-20095238D01*
X31857142Y-20285714D01*
X31857142Y-20619047D01*
X31809523Y-20809523D01*
X31714285Y-20904761D01*
X31619047Y-20952380D01*
X31428571Y-20952380D01*
X32714285Y-20285714D02*
X32714285Y-20952380D01*
X32476190Y-19904761D02*
X32238095Y-20619047D01*
X32857142Y-20619047D01*
X14752380Y-65166666D02*
X14276190Y-65500000D01*
X14752380Y-65738095D02*
X13752380Y-65738095D01*
X13752380Y-65357142D01*
X13800000Y-65261904D01*
X13847619Y-65214285D01*
X13942857Y-65166666D01*
X14085714Y-65166666D01*
X14180952Y-65214285D01*
X14228571Y-65261904D01*
X14276190Y-65357142D01*
X14276190Y-65738095D01*
X14752380Y-64214285D02*
X14752380Y-64785714D01*
X14752380Y-64500000D02*
X13752380Y-64500000D01*
X13895238Y-64595238D01*
X13990476Y-64690476D01*
X14038095Y-64785714D01*
X47833333Y-7039880D02*
X47500000Y-6563690D01*
X47261904Y-7039880D02*
X47261904Y-6039880D01*
X47642857Y-6039880D01*
X47738095Y-6087500D01*
X47785714Y-6135119D01*
X47833333Y-6230357D01*
X47833333Y-6373214D01*
X47785714Y-6468452D01*
X47738095Y-6516071D01*
X47642857Y-6563690D01*
X47261904Y-6563690D01*
X48214285Y-6135119D02*
X48261904Y-6087500D01*
X48357142Y-6039880D01*
X48595238Y-6039880D01*
X48690476Y-6087500D01*
X48738095Y-6135119D01*
X48785714Y-6230357D01*
X48785714Y-6325595D01*
X48738095Y-6468452D01*
X48166666Y-7039880D01*
X48785714Y-7039880D01*
X38152380Y-50166666D02*
X37676190Y-50500000D01*
X38152380Y-50738095D02*
X37152380Y-50738095D01*
X37152380Y-50357142D01*
X37200000Y-50261904D01*
X37247619Y-50214285D01*
X37342857Y-50166666D01*
X37485714Y-50166666D01*
X37580952Y-50214285D01*
X37628571Y-50261904D01*
X37676190Y-50357142D01*
X37676190Y-50738095D01*
X37152380Y-49833333D02*
X37152380Y-49214285D01*
X37533333Y-49547619D01*
X37533333Y-49404761D01*
X37580952Y-49309523D01*
X37628571Y-49261904D01*
X37723809Y-49214285D01*
X37961904Y-49214285D01*
X38057142Y-49261904D01*
X38104761Y-49309523D01*
X38152380Y-49404761D01*
X38152380Y-49690476D01*
X38104761Y-49785714D01*
X38057142Y-49833333D01*
X66752380Y-98166666D02*
X66276190Y-98500000D01*
X66752380Y-98738095D02*
X65752380Y-98738095D01*
X65752380Y-98357142D01*
X65800000Y-98261904D01*
X65847619Y-98214285D01*
X65942857Y-98166666D01*
X66085714Y-98166666D01*
X66180952Y-98214285D01*
X66228571Y-98261904D01*
X66276190Y-98357142D01*
X66276190Y-98738095D01*
X66085714Y-97309523D02*
X66752380Y-97309523D01*
X65704761Y-97547619D02*
X66419047Y-97785714D01*
X66419047Y-97166666D01*
X39833333Y-89152380D02*
X39500000Y-88676190D01*
X39261904Y-89152380D02*
X39261904Y-88152380D01*
X39642857Y-88152380D01*
X39738095Y-88200000D01*
X39785714Y-88247619D01*
X39833333Y-88342857D01*
X39833333Y-88485714D01*
X39785714Y-88580952D01*
X39738095Y-88628571D01*
X39642857Y-88676190D01*
X39261904Y-88676190D01*
X40738095Y-88152380D02*
X40261904Y-88152380D01*
X40214285Y-88628571D01*
X40261904Y-88580952D01*
X40357142Y-88533333D01*
X40595238Y-88533333D01*
X40690476Y-88580952D01*
X40738095Y-88628571D01*
X40785714Y-88723809D01*
X40785714Y-88961904D01*
X40738095Y-89057142D01*
X40690476Y-89104761D01*
X40595238Y-89152380D01*
X40357142Y-89152380D01*
X40261904Y-89104761D01*
X40214285Y-89057142D01*
X31833333Y-2152380D02*
X31500000Y-1676190D01*
X31261904Y-2152380D02*
X31261904Y-1152380D01*
X31642857Y-1152380D01*
X31738095Y-1200000D01*
X31785714Y-1247619D01*
X31833333Y-1342857D01*
X31833333Y-1485714D01*
X31785714Y-1580952D01*
X31738095Y-1628571D01*
X31642857Y-1676190D01*
X31261904Y-1676190D01*
X32690476Y-1152380D02*
X32500000Y-1152380D01*
X32404761Y-1200000D01*
X32357142Y-1247619D01*
X32261904Y-1390476D01*
X32214285Y-1580952D01*
X32214285Y-1961904D01*
X32261904Y-2057142D01*
X32309523Y-2104761D01*
X32404761Y-2152380D01*
X32595238Y-2152380D01*
X32690476Y-2104761D01*
X32738095Y-2057142D01*
X32785714Y-1961904D01*
X32785714Y-1723809D01*
X32738095Y-1628571D01*
X32690476Y-1580952D01*
X32595238Y-1533333D01*
X32404761Y-1533333D01*
X32309523Y-1580952D01*
X32261904Y-1628571D01*
X32214285Y-1723809D01*
X31833333Y-7152380D02*
X31500000Y-6676190D01*
X31261904Y-7152380D02*
X31261904Y-6152380D01*
X31642857Y-6152380D01*
X31738095Y-6200000D01*
X31785714Y-6247619D01*
X31833333Y-6342857D01*
X31833333Y-6485714D01*
X31785714Y-6580952D01*
X31738095Y-6628571D01*
X31642857Y-6676190D01*
X31261904Y-6676190D01*
X32166666Y-6152380D02*
X32833333Y-6152380D01*
X32404761Y-7152380D01*
X39833333Y-79152380D02*
X39500000Y-78676190D01*
X39261904Y-79152380D02*
X39261904Y-78152380D01*
X39642857Y-78152380D01*
X39738095Y-78200000D01*
X39785714Y-78247619D01*
X39833333Y-78342857D01*
X39833333Y-78485714D01*
X39785714Y-78580952D01*
X39738095Y-78628571D01*
X39642857Y-78676190D01*
X39261904Y-78676190D01*
X40404761Y-78580952D02*
X40309523Y-78533333D01*
X40261904Y-78485714D01*
X40214285Y-78390476D01*
X40214285Y-78342857D01*
X40261904Y-78247619D01*
X40309523Y-78200000D01*
X40404761Y-78152380D01*
X40595238Y-78152380D01*
X40690476Y-78200000D01*
X40738095Y-78247619D01*
X40785714Y-78342857D01*
X40785714Y-78390476D01*
X40738095Y-78485714D01*
X40690476Y-78533333D01*
X40595238Y-78580952D01*
X40404761Y-78580952D01*
X40309523Y-78628571D01*
X40261904Y-78676190D01*
X40214285Y-78771428D01*
X40214285Y-78961904D01*
X40261904Y-79057142D01*
X40309523Y-79104761D01*
X40404761Y-79152380D01*
X40595238Y-79152380D01*
X40690476Y-79104761D01*
X40738095Y-79057142D01*
X40785714Y-78961904D01*
X40785714Y-78771428D01*
X40738095Y-78676190D01*
X40690476Y-78628571D01*
X40595238Y-78580952D01*
X71752380Y-98166666D02*
X71276190Y-98500000D01*
X71752380Y-98738095D02*
X70752380Y-98738095D01*
X70752380Y-98357142D01*
X70800000Y-98261904D01*
X70847619Y-98214285D01*
X70942857Y-98166666D01*
X71085714Y-98166666D01*
X71180952Y-98214285D01*
X71228571Y-98261904D01*
X71276190Y-98357142D01*
X71276190Y-98738095D01*
X71752380Y-97690476D02*
X71752380Y-97500000D01*
X71704761Y-97404761D01*
X71657142Y-97357142D01*
X71514285Y-97261904D01*
X71323809Y-97214285D01*
X70942857Y-97214285D01*
X70847619Y-97261904D01*
X70800000Y-97309523D01*
X70752380Y-97404761D01*
X70752380Y-97595238D01*
X70800000Y-97690476D01*
X70847619Y-97738095D01*
X70942857Y-97785714D01*
X71180952Y-97785714D01*
X71276190Y-97738095D01*
X71323809Y-97690476D01*
X71371428Y-97595238D01*
X71371428Y-97404761D01*
X71323809Y-97309523D01*
X71276190Y-97261904D01*
X71180952Y-97214285D01*
X31357142Y-45652380D02*
X31023809Y-45176190D01*
X30785714Y-45652380D02*
X30785714Y-44652380D01*
X31166666Y-44652380D01*
X31261904Y-44700000D01*
X31309523Y-44747619D01*
X31357142Y-44842857D01*
X31357142Y-44985714D01*
X31309523Y-45080952D01*
X31261904Y-45128571D01*
X31166666Y-45176190D01*
X30785714Y-45176190D01*
X32309523Y-45652380D02*
X31738095Y-45652380D01*
X32023809Y-45652380D02*
X32023809Y-44652380D01*
X31928571Y-44795238D01*
X31833333Y-44890476D01*
X31738095Y-44938095D01*
X32928571Y-44652380D02*
X33023809Y-44652380D01*
X33119047Y-44700000D01*
X33166666Y-44747619D01*
X33214285Y-44842857D01*
X33261904Y-45033333D01*
X33261904Y-45271428D01*
X33214285Y-45461904D01*
X33166666Y-45557142D01*
X33119047Y-45604761D01*
X33023809Y-45652380D01*
X32928571Y-45652380D01*
X32833333Y-45604761D01*
X32785714Y-45557142D01*
X32738095Y-45461904D01*
X32690476Y-45271428D01*
X32690476Y-45033333D01*
X32738095Y-44842857D01*
X32785714Y-44747619D01*
X32833333Y-44700000D01*
X32928571Y-44652380D01*
X39336742Y-99055180D02*
X39003409Y-98578990D01*
X38765314Y-99055180D02*
X38765314Y-98055180D01*
X39146266Y-98055180D01*
X39241504Y-98102800D01*
X39289123Y-98150419D01*
X39336742Y-98245657D01*
X39336742Y-98388514D01*
X39289123Y-98483752D01*
X39241504Y-98531371D01*
X39146266Y-98578990D01*
X38765314Y-98578990D01*
X40289123Y-99055180D02*
X39717695Y-99055180D01*
X40003409Y-99055180D02*
X40003409Y-98055180D01*
X39908171Y-98198038D01*
X39812933Y-98293276D01*
X39717695Y-98340895D01*
X41241504Y-99055180D02*
X40670076Y-99055180D01*
X40955790Y-99055180D02*
X40955790Y-98055180D01*
X40860552Y-98198038D01*
X40765314Y-98293276D01*
X40670076Y-98340895D01*
X25152380Y-20642857D02*
X24676190Y-20976190D01*
X25152380Y-21214285D02*
X24152380Y-21214285D01*
X24152380Y-20833333D01*
X24200000Y-20738095D01*
X24247619Y-20690476D01*
X24342857Y-20642857D01*
X24485714Y-20642857D01*
X24580952Y-20690476D01*
X24628571Y-20738095D01*
X24676190Y-20833333D01*
X24676190Y-21214285D01*
X25152380Y-19690476D02*
X25152380Y-20261904D01*
X25152380Y-19976190D02*
X24152380Y-19976190D01*
X24295238Y-20071428D01*
X24390476Y-20166666D01*
X24438095Y-20261904D01*
X24247619Y-19309523D02*
X24200000Y-19261904D01*
X24152380Y-19166666D01*
X24152380Y-18928571D01*
X24200000Y-18833333D01*
X24247619Y-18785714D01*
X24342857Y-18738095D01*
X24438095Y-18738095D01*
X24580952Y-18785714D01*
X25152380Y-19357142D01*
X25152380Y-18738095D01*
X15752380Y-87642857D02*
X15276190Y-87976190D01*
X15752380Y-88214285D02*
X14752380Y-88214285D01*
X14752380Y-87833333D01*
X14800000Y-87738095D01*
X14847619Y-87690476D01*
X14942857Y-87642857D01*
X15085714Y-87642857D01*
X15180952Y-87690476D01*
X15228571Y-87738095D01*
X15276190Y-87833333D01*
X15276190Y-88214285D01*
X15752380Y-86690476D02*
X15752380Y-87261904D01*
X15752380Y-86976190D02*
X14752380Y-86976190D01*
X14895238Y-87071428D01*
X14990476Y-87166666D01*
X15038095Y-87261904D01*
X14752380Y-86357142D02*
X14752380Y-85738095D01*
X15133333Y-86071428D01*
X15133333Y-85928571D01*
X15180952Y-85833333D01*
X15228571Y-85785714D01*
X15323809Y-85738095D01*
X15561904Y-85738095D01*
X15657142Y-85785714D01*
X15704761Y-85833333D01*
X15752380Y-85928571D01*
X15752380Y-86214285D01*
X15704761Y-86309523D01*
X15657142Y-86357142D01*
X47357142Y-2152380D02*
X47023809Y-1676190D01*
X46785714Y-2152380D02*
X46785714Y-1152380D01*
X47166666Y-1152380D01*
X47261904Y-1200000D01*
X47309523Y-1247619D01*
X47357142Y-1342857D01*
X47357142Y-1485714D01*
X47309523Y-1580952D01*
X47261904Y-1628571D01*
X47166666Y-1676190D01*
X46785714Y-1676190D01*
X48309523Y-2152380D02*
X47738095Y-2152380D01*
X48023809Y-2152380D02*
X48023809Y-1152380D01*
X47928571Y-1295238D01*
X47833333Y-1390476D01*
X47738095Y-1438095D01*
X49166666Y-1485714D02*
X49166666Y-2152380D01*
X48928571Y-1104761D02*
X48690476Y-1819047D01*
X49309523Y-1819047D01*
X37357142Y-28152380D02*
X37023809Y-27676190D01*
X36785714Y-28152380D02*
X36785714Y-27152380D01*
X37166666Y-27152380D01*
X37261904Y-27200000D01*
X37309523Y-27247619D01*
X37357142Y-27342857D01*
X37357142Y-27485714D01*
X37309523Y-27580952D01*
X37261904Y-27628571D01*
X37166666Y-27676190D01*
X36785714Y-27676190D01*
X38309523Y-28152380D02*
X37738095Y-28152380D01*
X38023809Y-28152380D02*
X38023809Y-27152380D01*
X37928571Y-27295238D01*
X37833333Y-27390476D01*
X37738095Y-27438095D01*
X39214285Y-27152380D02*
X38738095Y-27152380D01*
X38690476Y-27628571D01*
X38738095Y-27580952D01*
X38833333Y-27533333D01*
X39071428Y-27533333D01*
X39166666Y-27580952D01*
X39214285Y-27628571D01*
X39261904Y-27723809D01*
X39261904Y-27961904D01*
X39214285Y-28057142D01*
X39166666Y-28104761D01*
X39071428Y-28152380D01*
X38833333Y-28152380D01*
X38738095Y-28104761D01*
X38690476Y-28057142D01*
X62152380Y-30642857D02*
X61676190Y-30976190D01*
X62152380Y-31214285D02*
X61152380Y-31214285D01*
X61152380Y-30833333D01*
X61200000Y-30738095D01*
X61247619Y-30690476D01*
X61342857Y-30642857D01*
X61485714Y-30642857D01*
X61580952Y-30690476D01*
X61628571Y-30738095D01*
X61676190Y-30833333D01*
X61676190Y-31214285D01*
X62152380Y-29690476D02*
X62152380Y-30261904D01*
X62152380Y-29976190D02*
X61152380Y-29976190D01*
X61295238Y-30071428D01*
X61390476Y-30166666D01*
X61438095Y-30261904D01*
X61152380Y-28833333D02*
X61152380Y-29023809D01*
X61200000Y-29119047D01*
X61247619Y-29166666D01*
X61390476Y-29261904D01*
X61580952Y-29309523D01*
X61961904Y-29309523D01*
X62057142Y-29261904D01*
X62104761Y-29214285D01*
X62152380Y-29119047D01*
X62152380Y-28928571D01*
X62104761Y-28833333D01*
X62057142Y-28785714D01*
X61961904Y-28738095D01*
X61723809Y-28738095D01*
X61628571Y-28785714D01*
X61580952Y-28833333D01*
X61533333Y-28928571D01*
X61533333Y-29119047D01*
X61580952Y-29214285D01*
X61628571Y-29261904D01*
X61723809Y-29309523D01*
X39357142Y-74039380D02*
X39023809Y-73563190D01*
X38785714Y-74039380D02*
X38785714Y-73039380D01*
X39166666Y-73039380D01*
X39261904Y-73087000D01*
X39309523Y-73134619D01*
X39357142Y-73229857D01*
X39357142Y-73372714D01*
X39309523Y-73467952D01*
X39261904Y-73515571D01*
X39166666Y-73563190D01*
X38785714Y-73563190D01*
X40309523Y-74039380D02*
X39738095Y-74039380D01*
X40023809Y-74039380D02*
X40023809Y-73039380D01*
X39928571Y-73182238D01*
X39833333Y-73277476D01*
X39738095Y-73325095D01*
X40642857Y-73039380D02*
X41309523Y-73039380D01*
X40880952Y-74039380D01*
X39357142Y-94152380D02*
X39023809Y-93676190D01*
X38785714Y-94152380D02*
X38785714Y-93152380D01*
X39166666Y-93152380D01*
X39261904Y-93200000D01*
X39309523Y-93247619D01*
X39357142Y-93342857D01*
X39357142Y-93485714D01*
X39309523Y-93580952D01*
X39261904Y-93628571D01*
X39166666Y-93676190D01*
X38785714Y-93676190D01*
X40309523Y-94152380D02*
X39738095Y-94152380D01*
X40023809Y-94152380D02*
X40023809Y-93152380D01*
X39928571Y-93295238D01*
X39833333Y-93390476D01*
X39738095Y-93438095D01*
X40785714Y-94152380D02*
X40976190Y-94152380D01*
X41071428Y-94104761D01*
X41119047Y-94057142D01*
X41214285Y-93914285D01*
X41261904Y-93723809D01*
X41261904Y-93342857D01*
X41214285Y-93247619D01*
X41166666Y-93200000D01*
X41071428Y-93152380D01*
X40880952Y-93152380D01*
X40785714Y-93200000D01*
X40738095Y-93247619D01*
X40690476Y-93342857D01*
X40690476Y-93580952D01*
X40738095Y-93676190D01*
X40785714Y-93723809D01*
X40880952Y-93771428D01*
X41071428Y-93771428D01*
X41166666Y-93723809D01*
X41214285Y-93676190D01*
X41261904Y-93580952D01*
X39357142Y-84152380D02*
X39023809Y-83676190D01*
X38785714Y-84152380D02*
X38785714Y-83152380D01*
X39166666Y-83152380D01*
X39261904Y-83200000D01*
X39309523Y-83247619D01*
X39357142Y-83342857D01*
X39357142Y-83485714D01*
X39309523Y-83580952D01*
X39261904Y-83628571D01*
X39166666Y-83676190D01*
X38785714Y-83676190D01*
X39738095Y-83247619D02*
X39785714Y-83200000D01*
X39880952Y-83152380D01*
X40119047Y-83152380D01*
X40214285Y-83200000D01*
X40261904Y-83247619D01*
X40309523Y-83342857D01*
X40309523Y-83438095D01*
X40261904Y-83580952D01*
X39690476Y-84152380D01*
X40309523Y-84152380D01*
X40928571Y-83152380D02*
X41023809Y-83152380D01*
X41119047Y-83200000D01*
X41166666Y-83247619D01*
X41214285Y-83342857D01*
X41261904Y-83533333D01*
X41261904Y-83771428D01*
X41214285Y-83961904D01*
X41166666Y-84057142D01*
X41119047Y-84104761D01*
X41023809Y-84152380D01*
X40928571Y-84152380D01*
X40833333Y-84104761D01*
X40785714Y-84057142D01*
X40738095Y-83961904D01*
X40690476Y-83771428D01*
X40690476Y-83533333D01*
X40738095Y-83342857D01*
X40785714Y-83247619D01*
X40833333Y-83200000D01*
X40928571Y-83152380D01*
X28087580Y-68642857D02*
X27611390Y-68976190D01*
X28087580Y-69214285D02*
X27087580Y-69214285D01*
X27087580Y-68833333D01*
X27135200Y-68738095D01*
X27182819Y-68690476D01*
X27278057Y-68642857D01*
X27420914Y-68642857D01*
X27516152Y-68690476D01*
X27563771Y-68738095D01*
X27611390Y-68833333D01*
X27611390Y-69214285D01*
X27182819Y-68261904D02*
X27135200Y-68214285D01*
X27087580Y-68119047D01*
X27087580Y-67880952D01*
X27135200Y-67785714D01*
X27182819Y-67738095D01*
X27278057Y-67690476D01*
X27373295Y-67690476D01*
X27516152Y-67738095D01*
X28087580Y-68309523D01*
X28087580Y-67690476D01*
X28087580Y-66738095D02*
X28087580Y-67309523D01*
X28087580Y-67023809D02*
X27087580Y-67023809D01*
X27230438Y-67119047D01*
X27325676Y-67214285D01*
X27373295Y-67309523D01*
X39238095Y-58177180D02*
X39238095Y-58986704D01*
X39285714Y-59081942D01*
X39333333Y-59129561D01*
X39428571Y-59177180D01*
X39619047Y-59177180D01*
X39714285Y-59129561D01*
X39761904Y-59081942D01*
X39809523Y-58986704D01*
X39809523Y-58177180D01*
X40809523Y-59177180D02*
X40238095Y-59177180D01*
X40523809Y-59177180D02*
X40523809Y-58177180D01*
X40428571Y-58320038D01*
X40333333Y-58415276D01*
X40238095Y-58462895D01*
X39238095Y-35520380D02*
X39238095Y-36329904D01*
X39285714Y-36425142D01*
X39333333Y-36472761D01*
X39428571Y-36520380D01*
X39619047Y-36520380D01*
X39714285Y-36472761D01*
X39761904Y-36425142D01*
X39809523Y-36329904D01*
X39809523Y-35520380D01*
X40238095Y-35615619D02*
X40285714Y-35568000D01*
X40380952Y-35520380D01*
X40619047Y-35520380D01*
X40714285Y-35568000D01*
X40761904Y-35615619D01*
X40809523Y-35710857D01*
X40809523Y-35806095D01*
X40761904Y-35948952D01*
X40190476Y-36520380D01*
X40809523Y-36520380D01*
M02*
