M48
; DRILL file {KiCad 9.0.0} date 2025-02-23T15:32:11-0700
; FORMAT={-:-/ absolute / inch / decimal}
; #@! TF.CreationDate,2025-02-23T15:32:11-07:00
; #@! TF.GenerationSoftware,Kicad,Pcbnew,9.0.0
; #@! TF.FileFunction,Plated,1,2,PTH
FMAT,2
INCH
; #@! TA.AperFunction,Plated,PTH,ViaDrill
T1C0.0157
; #@! TA.AperFunction,Plated,PTH,ComponentDrill
T2C0.0157
; #@! TA.AperFunction,Plated,PTH,ComponentDrill
T3C0.0354
; #@! TA.AperFunction,Plated,PTH,ComponentDrill
T4C0.0394
%
G90
G05
T1
X0.0591Y-0.0591
X0.0591Y-0.1181
X0.0591Y-3.8189
X0.0591Y-3.878
X0.1181Y-0.0591
X0.1181Y-3.878
X1.063Y-0.0591
X1.063Y-3.878
X1.122Y-0.0591
X1.122Y-0.1181
X1.122Y-3.8189
X1.122Y-3.878
X1.2402Y-0.0591
X1.2402Y-0.1181
X1.2402Y-3.8189
X1.2402Y-3.878
X1.2992Y-0.0591
X1.2992Y-3.878
X1.3386Y-1.4961
X1.575Y-2.0
X1.5983Y-3.0711
X1.6106Y-1.3274
X1.6106Y-2.2384
X1.625Y-0.7624
X1.6298Y-0.655
X1.64Y-1.91
X1.68Y-0.43
X1.758Y-1.1212
X1.758Y-2.176
X1.8Y-0.24
X1.8Y-0.765
X1.81Y-0.6
X1.81Y-3.1522
X1.811Y-1.3386
X1.811Y-1.4173
X1.811Y-1.9291
X1.811Y-2.0472
X1.811Y-2.2835
X1.8695Y-1.6625
X1.8695Y-2.3593
X2.0456Y-0.7087
X2.0472Y-0.5118
X2.126Y-0.5118
X2.56Y-1.025
X2.565Y-2.815
X2.565Y-3.3606
X2.565Y-3.4
X2.605Y-2.815
X2.6378Y-0.0591
X2.6378Y-3.878
X2.6969Y-0.0591
X2.6969Y-0.1181
X2.6969Y-3.8189
X2.6969Y-3.878
X2.815Y-0.0591
X2.815Y-0.1181
X2.815Y-3.8189
X2.815Y-3.878
X2.874Y-0.0591
X2.874Y-3.878
X2.98Y-1.64
X3.0Y-3.61
X3.02Y-2.63
X3.8189Y-0.0591
X3.8189Y-3.878
X3.878Y-0.0591
X3.878Y-0.1181
X3.878Y-3.8189
X3.878Y-3.878
T3
X2.4197Y-0.2368
X2.4197Y-0.748
X2.4197Y-1.2402
X2.4197Y-1.7323
X2.4197Y-2.2244
X2.4197Y-2.7165
X2.4197Y-3.2087
X2.4197Y-3.7008
X2.5197Y-0.2368
X2.5197Y-0.748
X2.5197Y-1.2402
X2.5197Y-1.7323
X2.5197Y-2.2244
X2.5197Y-2.7165
X2.5197Y-3.2087
X2.5197Y-3.7008
X3.7795Y-0.2657
X3.7795Y-1.2303
X3.7795Y-2.2146
X3.7795Y-3.1988
X3.8795Y-0.2657
X3.8795Y-1.2303
X3.8795Y-2.2146
X3.8795Y-3.1988
T4
X1.1024Y-0.5906
X1.1024Y-0.6906
X1.1024Y-0.7906
X1.1024Y-0.8906
X1.1024Y-0.9906
X1.1024Y-1.0906
X1.1024Y-1.1906
X1.1024Y-1.2906
X1.1024Y-2.3622
X1.1024Y-2.4622
X1.1024Y-2.5622
X1.1024Y-2.6622
X1.1024Y-2.7622
X1.1024Y-2.8622
X1.1024Y-2.9622
X1.1024Y-3.0622
X1.2598Y-1.378
X1.2598Y-1.478
X1.2598Y-1.578
X1.2598Y-1.678
X1.2598Y-1.778
X1.2598Y-1.878
X1.2598Y-1.978
X1.2598Y-2.078
X1.2598Y-2.178
X1.2598Y-2.278
X1.2598Y-2.378
X1.2598Y-2.478
X2.126Y-1.5748
X2.126Y-1.6748
X2.126Y-1.7748
X2.126Y-1.8748
X2.126Y-1.9748
X2.126Y-2.0748
X2.126Y-2.1748
X2.126Y-2.2748
X2.226Y-1.5748
X2.226Y-1.6748
X2.226Y-1.7748
X2.226Y-1.8748
X2.226Y-1.9748
X2.226Y-2.0748
X2.226Y-2.1748
X2.226Y-2.2748
X2.6772Y-0.5906
X2.6772Y-0.6906
X2.6772Y-0.7906
X2.6772Y-0.8906
X2.6772Y-0.9906
X2.6772Y-1.0906
X2.6772Y-1.1906
X2.6772Y-1.2906
X2.6772Y-2.3622
X2.6772Y-2.4622
X2.6772Y-2.5622
X2.6772Y-2.6622
X2.6772Y-2.7622
X2.6772Y-2.8622
X2.6772Y-2.9622
X2.6772Y-3.0622
X2.8346Y-1.3681
X2.8346Y-1.4681
X2.8346Y-1.5681
X2.8346Y-1.6681
X2.8346Y-1.7681
X2.8346Y-1.8681
X2.8346Y-1.9681
X2.8346Y-2.0681
X2.8346Y-2.1681
X2.8346Y-2.2681
X2.8346Y-2.3681
X2.8346Y-2.4681
T2
G00X0.0787Y-0.2402
M15
G01X0.0787Y-0.2717
M16
G05
G00X0.0787Y-0.7323
M15
G01X0.0787Y-0.7638
M16
G05
G00X0.0787Y-1.2244
M15
G01X0.0787Y-1.2559
M16
G05
G00X0.0787Y-1.7165
M15
G01X0.0787Y-1.748
M16
G05
G00X0.0787Y-2.2087
M15
G01X0.0787Y-2.2402
M16
G05
G00X0.0787Y-2.7008
M15
G01X0.0787Y-2.7323
M16
G05
G00X0.0787Y-3.1929
M15
G01X0.0787Y-3.2244
M16
G05
G00X0.0787Y-3.685
M15
G01X0.0787Y-3.7165
M16
G05
G00X0.1969Y-0.4331
M15
G01X0.2283Y-0.4331
M16
G05
G00X0.1969Y-0.9252
M15
G01X0.2283Y-0.9252
M16
G05
G00X0.1969Y-1.4173
M15
G01X0.2283Y-1.4173
M16
G05
G00X0.1969Y-1.9094
M15
G01X0.2283Y-1.9094
M16
G05
G00X0.1969Y-2.4016
M15
G01X0.2283Y-2.4016
M16
G05
G00X0.1969Y-2.8937
M15
G01X0.2283Y-2.8937
M16
G05
G00X0.1969Y-3.3858
M15
G01X0.2283Y-3.3858
M16
G05
G00X0.1969Y-3.878
M15
G01X0.2283Y-3.878
M16
G05
G00X0.315Y-0.1575
M15
G01X0.3465Y-0.1575
M16
G05
G00X0.315Y-0.6496
M15
G01X0.3465Y-0.6496
M16
G05
G00X0.315Y-1.1417
M15
G01X0.3465Y-1.1417
M16
G05
G00X0.315Y-1.6339
M15
G01X0.3465Y-1.6339
M16
G05
G00X0.315Y-2.126
M15
G01X0.3465Y-2.126
M16
G05
G00X0.315Y-2.6181
M15
G01X0.3465Y-2.6181
M16
G05
G00X0.315Y-3.1102
M15
G01X0.3465Y-3.1102
M16
G05
G00X0.315Y-3.6024
M15
G01X0.3465Y-3.6024
M16
G05
G00X0.3701Y-0.0512
M15
G01X0.4016Y-0.0512
M16
G05
G00X0.3701Y-0.5433
M15
G01X0.4016Y-0.5433
M16
G05
G00X0.3701Y-1.0354
M15
G01X0.4016Y-1.0354
M16
G05
G00X0.3701Y-1.5276
M15
G01X0.4016Y-1.5276
M16
G05
G00X0.3701Y-2.0197
M15
G01X0.4016Y-2.0197
M16
G05
G00X0.3701Y-2.5118
M15
G01X0.4016Y-2.5118
M16
G05
G00X0.3701Y-3.0039
M15
G01X0.4016Y-3.0039
M16
G05
G00X0.3701Y-3.4961
M15
G01X0.4016Y-3.4961
M16
G05
G00X0.5118Y-0.3976
M15
G01X0.5118Y-0.4291
M16
G05
G00X0.5118Y-0.8898
M15
G01X0.5118Y-0.9213
M16
G05
G00X0.5118Y-1.3819
M15
G01X0.5118Y-1.4134
M16
G05
G00X0.5118Y-1.874
M15
G01X0.5118Y-1.9055
M16
G05
G00X0.5118Y-2.3661
M15
G01X0.5118Y-2.3976
M16
G05
G00X0.5118Y-2.8583
M15
G01X0.5118Y-2.8898
M16
G05
G00X0.5118Y-3.3504
M15
G01X0.5118Y-3.3819
M16
G05
G00X0.5118Y-3.8425
M15
G01X0.5118Y-3.874
M16
G05
G00X3.4252Y-0.5965
M15
G01X3.4252Y-0.565
M16
G05
G00X3.4252Y-1.5807
M15
G01X3.4252Y-1.5492
M16
G05
G00X3.4252Y-2.565
M15
G01X3.4252Y-2.5335
M16
G05
G00X3.4252Y-3.5492
M15
G01X3.4252Y-3.5177
M16
G05
G00X3.5669Y-0.9429
M15
G01X3.5354Y-0.9429
M16
G05
G00X3.5669Y-1.9272
M15
G01X3.5354Y-1.9272
M16
G05
G00X3.5669Y-2.9114
M15
G01X3.5354Y-2.9114
M16
G05
G00X3.5669Y-3.8957
M15
G01X3.5354Y-3.8957
M16
G05
G00X3.622Y-0.8366
M15
G01X3.5906Y-0.8366
M16
G05
G00X3.622Y-1.8209
M15
G01X3.5906Y-1.8209
M16
G05
G00X3.622Y-2.8051
M15
G01X3.5906Y-2.8051
M16
G05
G00X3.622Y-3.7894
M15
G01X3.5906Y-3.7894
M16
G05
G00X3.7402Y-0.561
M15
G01X3.7087Y-0.561
M16
G05
G00X3.7402Y-1.5453
M15
G01X3.7087Y-1.5453
M16
G05
G00X3.7402Y-2.5295
M15
G01X3.7087Y-2.5295
M16
G05
G00X3.7402Y-3.5138
M15
G01X3.7087Y-3.5138
M16
G05
G00X3.8583Y-0.7539
M15
G01X3.8583Y-0.7224
M16
G05
G00X3.8583Y-1.7382
M15
G01X3.8583Y-1.7067
M16
G05
G00X3.8583Y-2.7224
M15
G01X3.8583Y-2.6909
M16
G05
G00X3.8583Y-3.7067
M15
G01X3.8583Y-3.6752
M16
G05
M30
