M48
; DRILL file {KiCad (5.1.5)-3} date 11/25/2020 11:55:08 AM
; FORMAT={-:-/ absolute / metric / decimal}
; #@! TF.CreationDate,2020-11-25T11:55:08-07:00
; #@! TF.GenerationSoftware,Kicad,Pcbnew,(5.1.5)-3
FMAT,2
METRIC
T1C1.000
T2C1.200
T3C1.520
T4C3.000
%
G90
G05
T1
X69.0Y-8.22
X69.0Y-10.76
X69.0Y-13.3
X69.0Y-15.84
X69.0Y-18.38
X69.0Y-20.92
X69.0Y-23.46
X69.0Y-26.0
X71.54Y-8.22
X71.54Y-10.76
X71.54Y-13.3
X71.54Y-15.84
X71.54Y-18.38
X71.54Y-20.92
X71.54Y-23.46
X71.54Y-26.0
X31.0Y-57.84
X31.0Y-60.38
X31.0Y-62.92
X31.0Y-65.46
X31.0Y-68.0
X33.54Y-57.84
X33.54Y-60.38
X33.54Y-62.92
X33.54Y-65.46
X33.54Y-68.0
X12.0Y-57.84
X12.0Y-60.38
X12.0Y-62.92
X12.0Y-65.46
X12.0Y-68.0
X14.54Y-57.84
X14.54Y-60.38
X14.54Y-62.92
X14.54Y-65.46
X14.54Y-68.0
X164.0Y-57.84
X164.0Y-60.38
X164.0Y-62.92
X164.0Y-65.46
X164.0Y-68.0
X166.54Y-57.84
X166.54Y-60.38
X166.54Y-62.92
X166.54Y-65.46
X166.54Y-68.0
X183.0Y-8.22
X183.0Y-10.76
X183.0Y-13.3
X183.0Y-15.84
X183.0Y-18.38
X183.0Y-20.92
X183.0Y-23.46
X183.0Y-26.0
X185.54Y-8.22
X185.54Y-10.76
X185.54Y-13.3
X185.54Y-15.84
X185.54Y-18.38
X185.54Y-20.92
X185.54Y-23.46
X185.54Y-26.0
X126.0Y-8.22
X126.0Y-10.76
X126.0Y-13.3
X126.0Y-15.84
X126.0Y-18.38
X126.0Y-20.92
X126.0Y-23.46
X126.0Y-26.0
X128.54Y-8.22
X128.54Y-10.76
X128.54Y-13.3
X128.54Y-15.84
X128.54Y-18.38
X128.54Y-20.92
X128.54Y-23.46
X128.54Y-26.0
X145.0Y-8.22
X145.0Y-10.76
X145.0Y-13.3
X145.0Y-15.84
X145.0Y-18.38
X145.0Y-20.92
X145.0Y-23.46
X145.0Y-26.0
X147.54Y-8.22
X147.54Y-10.76
X147.54Y-13.3
X147.54Y-15.84
X147.54Y-18.38
X147.54Y-20.92
X147.54Y-23.46
X147.54Y-26.0
X88.0Y-8.22
X88.0Y-10.76
X88.0Y-13.3
X88.0Y-15.84
X88.0Y-18.38
X88.0Y-20.92
X88.0Y-23.46
X88.0Y-26.0
X90.54Y-8.22
X90.54Y-10.76
X90.54Y-13.3
X90.54Y-15.84
X90.54Y-18.38
X90.54Y-20.92
X90.54Y-23.46
X90.54Y-26.0
X50.0Y-8.22
X50.0Y-10.76
X50.0Y-13.3
X50.0Y-15.84
X50.0Y-18.38
X50.0Y-20.92
X50.0Y-23.46
X50.0Y-26.0
X52.54Y-8.22
X52.54Y-10.76
X52.54Y-13.3
X52.54Y-15.84
X52.54Y-18.38
X52.54Y-20.92
X52.54Y-23.46
X52.54Y-26.0
X31.0Y-8.22
X31.0Y-10.76
X31.0Y-13.3
X31.0Y-15.84
X31.0Y-18.38
X31.0Y-20.92
X31.0Y-23.46
X31.0Y-26.0
X33.54Y-8.22
X33.54Y-10.76
X33.54Y-13.3
X33.54Y-15.84
X33.54Y-18.38
X33.54Y-20.92
X33.54Y-23.46
X33.54Y-26.0
X183.0Y-57.84
X183.0Y-60.38
X183.0Y-62.92
X183.0Y-65.46
X183.0Y-68.0
X185.54Y-57.84
X185.54Y-60.38
X185.54Y-62.92
X185.54Y-65.46
X185.54Y-68.0
X50.0Y-57.84
X50.0Y-60.38
X50.0Y-62.92
X50.0Y-65.46
X50.0Y-68.0
X52.54Y-57.84
X52.54Y-60.38
X52.54Y-62.92
X52.54Y-65.46
X52.54Y-68.0
X145.0Y-57.84
X145.0Y-60.38
X145.0Y-62.92
X145.0Y-65.46
X145.0Y-68.0
X147.54Y-57.84
X147.54Y-60.38
X147.54Y-62.92
X147.54Y-65.46
X147.54Y-68.0
X107.0Y-57.84
X107.0Y-60.38
X107.0Y-62.92
X107.0Y-65.46
X107.0Y-68.0
X109.54Y-57.84
X109.54Y-60.38
X109.54Y-62.92
X109.54Y-65.46
X109.54Y-68.0
X107.0Y-8.22
X107.0Y-10.76
X107.0Y-13.3
X107.0Y-15.84
X107.0Y-18.38
X107.0Y-20.92
X107.0Y-23.46
X107.0Y-26.0
X109.54Y-8.22
X109.54Y-10.76
X109.54Y-13.3
X109.54Y-15.84
X109.54Y-18.38
X109.54Y-20.92
X109.54Y-23.46
X109.54Y-26.0
X164.0Y-8.22
X164.0Y-10.76
X164.0Y-13.3
X164.0Y-15.84
X164.0Y-18.38
X164.0Y-20.92
X164.0Y-23.46
X164.0Y-26.0
X166.54Y-8.22
X166.54Y-10.76
X166.54Y-13.3
X166.54Y-15.84
X166.54Y-18.38
X166.54Y-20.92
X166.54Y-23.46
X166.54Y-26.0
X126.0Y-57.84
X126.0Y-60.38
X126.0Y-62.92
X126.0Y-65.46
X126.0Y-68.0
X128.54Y-57.84
X128.54Y-60.38
X128.54Y-62.92
X128.54Y-65.46
X128.54Y-68.0
X88.0Y-57.84
X88.0Y-60.38
X88.0Y-62.92
X88.0Y-65.46
X88.0Y-68.0
X90.54Y-57.84
X90.54Y-60.38
X90.54Y-62.92
X90.54Y-65.46
X90.54Y-68.0
X12.0Y-8.22
X12.0Y-10.76
X12.0Y-13.3
X12.0Y-15.84
X12.0Y-18.38
X12.0Y-20.92
X12.0Y-23.46
X12.0Y-26.0
X14.54Y-8.22
X14.54Y-10.76
X14.54Y-13.3
X14.54Y-15.84
X14.54Y-18.38
X14.54Y-20.92
X14.54Y-23.46
X14.54Y-26.0
X69.0Y-57.84
X69.0Y-60.38
X69.0Y-62.92
X69.0Y-65.46
X69.0Y-68.0
X71.54Y-57.84
X71.54Y-60.38
X71.54Y-62.92
X71.54Y-65.46
X71.54Y-68.0
T2
X31.0Y-38.0
X31.0Y-45.5
X50.0Y-38.0
X50.0Y-45.5
X183.0Y-38.0
X183.0Y-45.5
X12.0Y-38.0
X12.0Y-45.5
X107.0Y-38.0
X107.0Y-45.5
X164.0Y-38.0
X164.0Y-45.5
X145.0Y-38.0
X145.0Y-45.5
X69.0Y-38.0
X69.0Y-45.5
X126.0Y-38.0
X126.0Y-45.5
X88.0Y-38.0
X88.0Y-45.5
T3
X200.0Y-35.0
X200.0Y-40.08
X200.0Y-45.16
X200.0Y-50.24
T4
X105.0Y-74.5
X3.5Y-1.5
X105.0Y-1.5
X206.5Y-74.5
X3.5Y-74.5
X206.5Y-1.5
T0
M30
