G04 #@! TF.GenerationSoftware,KiCad,Pcbnew,(5.1.5)-3*
G04 #@! TF.CreationDate,2020-07-25T11:56:43-07:00*
G04 #@! TF.ProjectId,VCF_THT,5643465f-5448-4542-9e6b-696361645f70,rev?*
G04 #@! TF.SameCoordinates,Original*
G04 #@! TF.FileFunction,Legend,Top*
G04 #@! TF.FilePolarity,Positive*
%FSLAX46Y46*%
G04 Gerber Fmt 4.6, Leading zero omitted, Abs format (unit mm)*
G04 Created by KiCad (PCBNEW (5.1.5)-3) date 2020-07-25 11:56:43*
%MOMM*%
%LPD*%
G04 APERTURE LIST*
%ADD10C,0.120000*%
%ADD11C,0.150000*%
G04 APERTURE END LIST*
D10*
X-8860000Y-80560000D02*
X-8860000Y-74440000D01*
X340000Y-80560000D02*
X340000Y-74440000D01*
X340000Y-74440000D02*
X-8860000Y-74440000D01*
X340000Y-80560000D02*
X-8860000Y-80560000D01*
X340000Y-80960000D02*
X340000Y-74040000D01*
X1140000Y-80960000D02*
X1140000Y-74040000D01*
X1140000Y-74040000D02*
X340000Y-74040000D01*
X1140000Y-80960000D02*
X340000Y-80960000D01*
X1140000Y-82410000D02*
X1140000Y-72590000D01*
X6260000Y-80625000D02*
X6260000Y-74375000D01*
X5505000Y-72590000D02*
X1140000Y-72590000D01*
X5505000Y-82410000D02*
X1140000Y-82410000D01*
X24440000Y-22250000D02*
X26560000Y-22250000D01*
X26560000Y-22250000D02*
X26560000Y-18130000D01*
X26560000Y-18130000D02*
X24440000Y-18130000D01*
X24440000Y-18130000D02*
X24440000Y-22250000D01*
X25500000Y-23020000D02*
X25500000Y-22250000D01*
X25500000Y-17360000D02*
X25500000Y-18130000D01*
X24440000Y-21590000D02*
X26560000Y-21590000D01*
X23980000Y-32000000D02*
X24870000Y-32000000D01*
X32180000Y-32000000D02*
X31290000Y-32000000D01*
X24870000Y-33310000D02*
X31290000Y-33310000D01*
X24870000Y-30690000D02*
X24870000Y-33310000D01*
X31290000Y-30690000D02*
X24870000Y-30690000D01*
X31290000Y-33310000D02*
X31290000Y-30690000D01*
X13770000Y-17050000D02*
X11110000Y-17050000D01*
X13770000Y-24730000D02*
X13770000Y-17050000D01*
X11110000Y-24730000D02*
X11110000Y-17050000D01*
X13770000Y-24730000D02*
X11110000Y-24730000D01*
X13770000Y-26000000D02*
X13770000Y-27330000D01*
X13770000Y-27330000D02*
X12440000Y-27330000D01*
X14690000Y-6310000D02*
X14690000Y-1190000D01*
X17310000Y-6310000D02*
X17310000Y-1190000D01*
X14690000Y-6310000D02*
X17310000Y-6310000D01*
X14690000Y-1190000D02*
X17310000Y-1190000D01*
D11*
X0Y-1000000D02*
X14000000Y-1000000D01*
X14000000Y-1000000D02*
X14000000Y-12500000D01*
X14000000Y-12500000D02*
X0Y-12500000D01*
X0Y-12500000D02*
X0Y-1000000D01*
X0Y-5200000D02*
X-3500000Y-5200000D01*
X-3500000Y-5200000D02*
X-3500000Y-8800000D01*
X0Y-8800000D02*
X-3500000Y-8800000D01*
X0Y-59800000D02*
X-3500000Y-59800000D01*
X-3500000Y-56200000D02*
X-3500000Y-59800000D01*
X0Y-56200000D02*
X-3500000Y-56200000D01*
X0Y-63500000D02*
X0Y-52000000D01*
X14000000Y-63500000D02*
X0Y-63500000D01*
X14000000Y-52000000D02*
X14000000Y-63500000D01*
X0Y-52000000D02*
X14000000Y-52000000D01*
D10*
X43410180Y-99493380D02*
X42080180Y-99493380D01*
X43410180Y-98163380D02*
X43410180Y-99493380D01*
X43410180Y-96893380D02*
X40750180Y-96893380D01*
X40750180Y-96893380D02*
X40750180Y-89213380D01*
X43410180Y-96893380D02*
X43410180Y-89213380D01*
X43410180Y-89213380D02*
X40750180Y-89213380D01*
X33670000Y-38670000D02*
X35000000Y-38670000D01*
X33670000Y-40000000D02*
X33670000Y-38670000D01*
X36270000Y-38670000D02*
X38870000Y-38670000D01*
X36270000Y-41270000D02*
X36270000Y-38670000D01*
X33670000Y-41270000D02*
X36270000Y-41270000D01*
X38870000Y-38670000D02*
X38870000Y-59110000D01*
X33670000Y-41270000D02*
X33670000Y-59110000D01*
X33670000Y-59110000D02*
X38870000Y-59110000D01*
D11*
X0Y-87000000D02*
X14000000Y-87000000D01*
X14000000Y-87000000D02*
X14000000Y-98500000D01*
X14000000Y-98500000D02*
X0Y-98500000D01*
X0Y-98500000D02*
X0Y-87000000D01*
X0Y-91200000D02*
X-3500000Y-91200000D01*
X-3500000Y-91200000D02*
X-3500000Y-94800000D01*
X0Y-94800000D02*
X-3500000Y-94800000D01*
D10*
X5505000Y-47410000D02*
X1140000Y-47410000D01*
X5505000Y-37590000D02*
X1140000Y-37590000D01*
X6260000Y-45625000D02*
X6260000Y-39375000D01*
X1140000Y-47410000D02*
X1140000Y-37590000D01*
X1140000Y-45960000D02*
X340000Y-45960000D01*
X1140000Y-39040000D02*
X340000Y-39040000D01*
X1140000Y-45960000D02*
X1140000Y-39040000D01*
X340000Y-45960000D02*
X340000Y-39040000D01*
X340000Y-45560000D02*
X-8860000Y-45560000D01*
X340000Y-39440000D02*
X-8860000Y-39440000D01*
X340000Y-45560000D02*
X340000Y-39440000D01*
X-8860000Y-45560000D02*
X-8860000Y-39440000D01*
D11*
X53477220Y-94523560D02*
G75*
G03X53477220Y-94523560I-4600000J0D01*
G01*
X50377220Y-94523560D02*
G75*
G03X50377220Y-94523560I-1500000J0D01*
G01*
X48496220Y-89888060D02*
X48496220Y-89507060D01*
X48496220Y-89507060D02*
X49258220Y-89507060D01*
X49258220Y-89507060D02*
X49258220Y-89888060D01*
D10*
X30600000Y-52650000D02*
X30600000Y-51350000D01*
X31200000Y-52000000D02*
X30000000Y-52000000D01*
X24549000Y-52468000D02*
X24549000Y-51532000D01*
X24589000Y-52676000D02*
X24589000Y-51324000D01*
X24629000Y-52834000D02*
X24629000Y-51166000D01*
X24669000Y-52966000D02*
X24669000Y-51034000D01*
X24709000Y-53081000D02*
X24709000Y-50919000D01*
X24749000Y-53184000D02*
X24749000Y-50816000D01*
X24789000Y-53278000D02*
X24789000Y-50722000D01*
X24829000Y-53364000D02*
X24829000Y-50636000D01*
X24869000Y-53445000D02*
X24869000Y-50555000D01*
X24909000Y-53520000D02*
X24909000Y-50480000D01*
X24949000Y-53591000D02*
X24949000Y-50409000D01*
X24989000Y-53658000D02*
X24989000Y-50342000D01*
X25029000Y-53721000D02*
X25029000Y-50279000D01*
X25069000Y-53781000D02*
X25069000Y-50219000D01*
X25109000Y-53839000D02*
X25109000Y-50161000D01*
X25149000Y-53894000D02*
X25149000Y-50106000D01*
X25189000Y-53946000D02*
X25189000Y-50054000D01*
X25229000Y-53997000D02*
X25229000Y-50003000D01*
X25269000Y-54045000D02*
X25269000Y-49955000D01*
X25309000Y-54092000D02*
X25309000Y-49908000D01*
X25349000Y-54137000D02*
X25349000Y-49863000D01*
X25389000Y-54180000D02*
X25389000Y-49820000D01*
X25429000Y-54222000D02*
X25429000Y-49778000D01*
X25469000Y-54262000D02*
X25469000Y-49738000D01*
X25509000Y-54301000D02*
X25509000Y-49699000D01*
X25549000Y-51020000D02*
X25549000Y-49661000D01*
X25549000Y-54339000D02*
X25549000Y-52980000D01*
X25589000Y-51020000D02*
X25589000Y-49625000D01*
X25589000Y-54375000D02*
X25589000Y-52980000D01*
X25629000Y-51020000D02*
X25629000Y-49589000D01*
X25629000Y-54411000D02*
X25629000Y-52980000D01*
X25669000Y-51020000D02*
X25669000Y-49555000D01*
X25669000Y-54445000D02*
X25669000Y-52980000D01*
X25709000Y-51020000D02*
X25709000Y-49522000D01*
X25709000Y-54478000D02*
X25709000Y-52980000D01*
X25749000Y-51020000D02*
X25749000Y-49490000D01*
X25749000Y-54510000D02*
X25749000Y-52980000D01*
X25789000Y-51020000D02*
X25789000Y-49460000D01*
X25789000Y-54540000D02*
X25789000Y-52980000D01*
X25829000Y-51020000D02*
X25829000Y-49430000D01*
X25829000Y-54570000D02*
X25829000Y-52980000D01*
X25869000Y-51020000D02*
X25869000Y-49401000D01*
X25869000Y-54599000D02*
X25869000Y-52980000D01*
X25909000Y-51020000D02*
X25909000Y-49373000D01*
X25909000Y-54627000D02*
X25909000Y-52980000D01*
X25949000Y-51020000D02*
X25949000Y-49346000D01*
X25949000Y-54654000D02*
X25949000Y-52980000D01*
X25989000Y-51020000D02*
X25989000Y-49319000D01*
X25989000Y-54681000D02*
X25989000Y-52980000D01*
X26029000Y-51020000D02*
X26029000Y-49294000D01*
X26029000Y-54706000D02*
X26029000Y-52980000D01*
X26069000Y-51020000D02*
X26069000Y-49269000D01*
X26069000Y-54731000D02*
X26069000Y-52980000D01*
X26109000Y-51020000D02*
X26109000Y-49245000D01*
X26109000Y-54755000D02*
X26109000Y-52980000D01*
X26149000Y-51020000D02*
X26149000Y-49222000D01*
X26149000Y-54778000D02*
X26149000Y-52980000D01*
X26189000Y-51020000D02*
X26189000Y-49200000D01*
X26189000Y-54800000D02*
X26189000Y-52980000D01*
X26229000Y-51020000D02*
X26229000Y-49178000D01*
X26229000Y-54822000D02*
X26229000Y-52980000D01*
X26269000Y-51020000D02*
X26269000Y-49157000D01*
X26269000Y-54843000D02*
X26269000Y-52980000D01*
X26309000Y-51020000D02*
X26309000Y-49137000D01*
X26309000Y-54863000D02*
X26309000Y-52980000D01*
X26349000Y-51020000D02*
X26349000Y-49118000D01*
X26349000Y-54882000D02*
X26349000Y-52980000D01*
X26389000Y-51020000D02*
X26389000Y-49099000D01*
X26389000Y-54901000D02*
X26389000Y-52980000D01*
X26429000Y-51020000D02*
X26429000Y-49081000D01*
X26429000Y-54919000D02*
X26429000Y-52980000D01*
X26469000Y-51020000D02*
X26469000Y-49063000D01*
X26469000Y-54937000D02*
X26469000Y-52980000D01*
X26509000Y-51020000D02*
X26509000Y-49046000D01*
X26509000Y-54954000D02*
X26509000Y-52980000D01*
X26549000Y-51020000D02*
X26549000Y-49030000D01*
X26549000Y-54970000D02*
X26549000Y-52980000D01*
X26589000Y-51020000D02*
X26589000Y-49014000D01*
X26589000Y-54986000D02*
X26589000Y-52980000D01*
X26629000Y-51020000D02*
X26629000Y-48999000D01*
X26629000Y-55001000D02*
X26629000Y-52980000D01*
X26669000Y-51020000D02*
X26669000Y-48985000D01*
X26669000Y-55015000D02*
X26669000Y-52980000D01*
X26709000Y-51020000D02*
X26709000Y-48971000D01*
X26709000Y-55029000D02*
X26709000Y-52980000D01*
X26749000Y-51020000D02*
X26749000Y-48958000D01*
X26749000Y-55042000D02*
X26749000Y-52980000D01*
X26789000Y-51020000D02*
X26789000Y-48945000D01*
X26789000Y-55055000D02*
X26789000Y-52980000D01*
X26829000Y-51020000D02*
X26829000Y-48933000D01*
X26829000Y-55067000D02*
X26829000Y-52980000D01*
X26869000Y-51020000D02*
X26869000Y-48921000D01*
X26869000Y-55079000D02*
X26869000Y-52980000D01*
X26909000Y-51020000D02*
X26909000Y-48910000D01*
X26909000Y-55090000D02*
X26909000Y-52980000D01*
X26949000Y-51020000D02*
X26949000Y-48900000D01*
X26949000Y-55100000D02*
X26949000Y-52980000D01*
X26989000Y-51020000D02*
X26989000Y-48890000D01*
X26989000Y-55110000D02*
X26989000Y-52980000D01*
X27029000Y-51020000D02*
X27029000Y-48881000D01*
X27029000Y-55119000D02*
X27029000Y-52980000D01*
X27070000Y-51020000D02*
X27070000Y-48872000D01*
X27070000Y-55128000D02*
X27070000Y-52980000D01*
X27110000Y-51020000D02*
X27110000Y-48863000D01*
X27110000Y-55137000D02*
X27110000Y-52980000D01*
X27150000Y-51020000D02*
X27150000Y-48856000D01*
X27150000Y-55144000D02*
X27150000Y-52980000D01*
X27190000Y-51020000D02*
X27190000Y-48848000D01*
X27190000Y-55152000D02*
X27190000Y-52980000D01*
X27230000Y-51020000D02*
X27230000Y-48842000D01*
X27230000Y-55158000D02*
X27230000Y-52980000D01*
X27270000Y-51020000D02*
X27270000Y-48835000D01*
X27270000Y-55165000D02*
X27270000Y-52980000D01*
X27310000Y-51020000D02*
X27310000Y-48830000D01*
X27310000Y-55170000D02*
X27310000Y-52980000D01*
X27350000Y-51020000D02*
X27350000Y-48824000D01*
X27350000Y-55176000D02*
X27350000Y-52980000D01*
X27390000Y-51020000D02*
X27390000Y-48820000D01*
X27390000Y-55180000D02*
X27390000Y-52980000D01*
X27430000Y-51020000D02*
X27430000Y-48815000D01*
X27430000Y-55185000D02*
X27430000Y-52980000D01*
X27470000Y-51020000D02*
X27470000Y-48812000D01*
X27470000Y-55188000D02*
X27470000Y-52980000D01*
X27510000Y-55192000D02*
X27510000Y-48808000D01*
X27550000Y-55194000D02*
X27550000Y-48806000D01*
X27590000Y-55197000D02*
X27590000Y-48803000D01*
X27630000Y-55198000D02*
X27630000Y-48802000D01*
X27670000Y-55200000D02*
X27670000Y-48800000D01*
X27710000Y-55200000D02*
X27710000Y-48800000D01*
X27750000Y-55200000D02*
X27750000Y-48800000D01*
X24732180Y-50820864D02*
G75*
G03X24732518Y-53180000I3017820J-1179136D01*
G01*
X24732180Y-50820864D02*
G75*
G02X30767482Y-50820000I3017820J-1179136D01*
G01*
X24732180Y-53179136D02*
G75*
G03X30767482Y-53180000I3017820J1179136D01*
G01*
X24732180Y-44179136D02*
G75*
G03X30767482Y-44180000I3017820J1179136D01*
G01*
X24732180Y-41820864D02*
G75*
G02X30767482Y-41820000I3017820J-1179136D01*
G01*
X24732180Y-41820864D02*
G75*
G03X24732518Y-44180000I3017820J-1179136D01*
G01*
X27750000Y-46200000D02*
X27750000Y-39800000D01*
X27710000Y-46200000D02*
X27710000Y-39800000D01*
X27670000Y-46200000D02*
X27670000Y-39800000D01*
X27630000Y-46198000D02*
X27630000Y-39802000D01*
X27590000Y-46197000D02*
X27590000Y-39803000D01*
X27550000Y-46194000D02*
X27550000Y-39806000D01*
X27510000Y-46192000D02*
X27510000Y-39808000D01*
X27470000Y-46188000D02*
X27470000Y-43980000D01*
X27470000Y-42020000D02*
X27470000Y-39812000D01*
X27430000Y-46185000D02*
X27430000Y-43980000D01*
X27430000Y-42020000D02*
X27430000Y-39815000D01*
X27390000Y-46180000D02*
X27390000Y-43980000D01*
X27390000Y-42020000D02*
X27390000Y-39820000D01*
X27350000Y-46176000D02*
X27350000Y-43980000D01*
X27350000Y-42020000D02*
X27350000Y-39824000D01*
X27310000Y-46170000D02*
X27310000Y-43980000D01*
X27310000Y-42020000D02*
X27310000Y-39830000D01*
X27270000Y-46165000D02*
X27270000Y-43980000D01*
X27270000Y-42020000D02*
X27270000Y-39835000D01*
X27230000Y-46158000D02*
X27230000Y-43980000D01*
X27230000Y-42020000D02*
X27230000Y-39842000D01*
X27190000Y-46152000D02*
X27190000Y-43980000D01*
X27190000Y-42020000D02*
X27190000Y-39848000D01*
X27150000Y-46144000D02*
X27150000Y-43980000D01*
X27150000Y-42020000D02*
X27150000Y-39856000D01*
X27110000Y-46137000D02*
X27110000Y-43980000D01*
X27110000Y-42020000D02*
X27110000Y-39863000D01*
X27070000Y-46128000D02*
X27070000Y-43980000D01*
X27070000Y-42020000D02*
X27070000Y-39872000D01*
X27029000Y-46119000D02*
X27029000Y-43980000D01*
X27029000Y-42020000D02*
X27029000Y-39881000D01*
X26989000Y-46110000D02*
X26989000Y-43980000D01*
X26989000Y-42020000D02*
X26989000Y-39890000D01*
X26949000Y-46100000D02*
X26949000Y-43980000D01*
X26949000Y-42020000D02*
X26949000Y-39900000D01*
X26909000Y-46090000D02*
X26909000Y-43980000D01*
X26909000Y-42020000D02*
X26909000Y-39910000D01*
X26869000Y-46079000D02*
X26869000Y-43980000D01*
X26869000Y-42020000D02*
X26869000Y-39921000D01*
X26829000Y-46067000D02*
X26829000Y-43980000D01*
X26829000Y-42020000D02*
X26829000Y-39933000D01*
X26789000Y-46055000D02*
X26789000Y-43980000D01*
X26789000Y-42020000D02*
X26789000Y-39945000D01*
X26749000Y-46042000D02*
X26749000Y-43980000D01*
X26749000Y-42020000D02*
X26749000Y-39958000D01*
X26709000Y-46029000D02*
X26709000Y-43980000D01*
X26709000Y-42020000D02*
X26709000Y-39971000D01*
X26669000Y-46015000D02*
X26669000Y-43980000D01*
X26669000Y-42020000D02*
X26669000Y-39985000D01*
X26629000Y-46001000D02*
X26629000Y-43980000D01*
X26629000Y-42020000D02*
X26629000Y-39999000D01*
X26589000Y-45986000D02*
X26589000Y-43980000D01*
X26589000Y-42020000D02*
X26589000Y-40014000D01*
X26549000Y-45970000D02*
X26549000Y-43980000D01*
X26549000Y-42020000D02*
X26549000Y-40030000D01*
X26509000Y-45954000D02*
X26509000Y-43980000D01*
X26509000Y-42020000D02*
X26509000Y-40046000D01*
X26469000Y-45937000D02*
X26469000Y-43980000D01*
X26469000Y-42020000D02*
X26469000Y-40063000D01*
X26429000Y-45919000D02*
X26429000Y-43980000D01*
X26429000Y-42020000D02*
X26429000Y-40081000D01*
X26389000Y-45901000D02*
X26389000Y-43980000D01*
X26389000Y-42020000D02*
X26389000Y-40099000D01*
X26349000Y-45882000D02*
X26349000Y-43980000D01*
X26349000Y-42020000D02*
X26349000Y-40118000D01*
X26309000Y-45863000D02*
X26309000Y-43980000D01*
X26309000Y-42020000D02*
X26309000Y-40137000D01*
X26269000Y-45843000D02*
X26269000Y-43980000D01*
X26269000Y-42020000D02*
X26269000Y-40157000D01*
X26229000Y-45822000D02*
X26229000Y-43980000D01*
X26229000Y-42020000D02*
X26229000Y-40178000D01*
X26189000Y-45800000D02*
X26189000Y-43980000D01*
X26189000Y-42020000D02*
X26189000Y-40200000D01*
X26149000Y-45778000D02*
X26149000Y-43980000D01*
X26149000Y-42020000D02*
X26149000Y-40222000D01*
X26109000Y-45755000D02*
X26109000Y-43980000D01*
X26109000Y-42020000D02*
X26109000Y-40245000D01*
X26069000Y-45731000D02*
X26069000Y-43980000D01*
X26069000Y-42020000D02*
X26069000Y-40269000D01*
X26029000Y-45706000D02*
X26029000Y-43980000D01*
X26029000Y-42020000D02*
X26029000Y-40294000D01*
X25989000Y-45681000D02*
X25989000Y-43980000D01*
X25989000Y-42020000D02*
X25989000Y-40319000D01*
X25949000Y-45654000D02*
X25949000Y-43980000D01*
X25949000Y-42020000D02*
X25949000Y-40346000D01*
X25909000Y-45627000D02*
X25909000Y-43980000D01*
X25909000Y-42020000D02*
X25909000Y-40373000D01*
X25869000Y-45599000D02*
X25869000Y-43980000D01*
X25869000Y-42020000D02*
X25869000Y-40401000D01*
X25829000Y-45570000D02*
X25829000Y-43980000D01*
X25829000Y-42020000D02*
X25829000Y-40430000D01*
X25789000Y-45540000D02*
X25789000Y-43980000D01*
X25789000Y-42020000D02*
X25789000Y-40460000D01*
X25749000Y-45510000D02*
X25749000Y-43980000D01*
X25749000Y-42020000D02*
X25749000Y-40490000D01*
X25709000Y-45478000D02*
X25709000Y-43980000D01*
X25709000Y-42020000D02*
X25709000Y-40522000D01*
X25669000Y-45445000D02*
X25669000Y-43980000D01*
X25669000Y-42020000D02*
X25669000Y-40555000D01*
X25629000Y-45411000D02*
X25629000Y-43980000D01*
X25629000Y-42020000D02*
X25629000Y-40589000D01*
X25589000Y-45375000D02*
X25589000Y-43980000D01*
X25589000Y-42020000D02*
X25589000Y-40625000D01*
X25549000Y-45339000D02*
X25549000Y-43980000D01*
X25549000Y-42020000D02*
X25549000Y-40661000D01*
X25509000Y-45301000D02*
X25509000Y-40699000D01*
X25469000Y-45262000D02*
X25469000Y-40738000D01*
X25429000Y-45222000D02*
X25429000Y-40778000D01*
X25389000Y-45180000D02*
X25389000Y-40820000D01*
X25349000Y-45137000D02*
X25349000Y-40863000D01*
X25309000Y-45092000D02*
X25309000Y-40908000D01*
X25269000Y-45045000D02*
X25269000Y-40955000D01*
X25229000Y-44997000D02*
X25229000Y-41003000D01*
X25189000Y-44946000D02*
X25189000Y-41054000D01*
X25149000Y-44894000D02*
X25149000Y-41106000D01*
X25109000Y-44839000D02*
X25109000Y-41161000D01*
X25069000Y-44781000D02*
X25069000Y-41219000D01*
X25029000Y-44721000D02*
X25029000Y-41279000D01*
X24989000Y-44658000D02*
X24989000Y-41342000D01*
X24949000Y-44591000D02*
X24949000Y-41409000D01*
X24909000Y-44520000D02*
X24909000Y-41480000D01*
X24869000Y-44445000D02*
X24869000Y-41555000D01*
X24829000Y-44364000D02*
X24829000Y-41636000D01*
X24789000Y-44278000D02*
X24789000Y-41722000D01*
X24749000Y-44184000D02*
X24749000Y-41816000D01*
X24709000Y-44081000D02*
X24709000Y-41919000D01*
X24669000Y-43966000D02*
X24669000Y-42034000D01*
X24629000Y-43834000D02*
X24629000Y-42166000D01*
X24589000Y-43676000D02*
X24589000Y-42324000D01*
X24549000Y-43468000D02*
X24549000Y-42532000D01*
X31200000Y-43000000D02*
X30000000Y-43000000D01*
X30600000Y-43650000D02*
X30600000Y-42350000D01*
X22310000Y-25810000D02*
X19690000Y-25810000D01*
X22310000Y-20690000D02*
X19690000Y-20690000D01*
X19690000Y-20690000D02*
X19690000Y-25810000D01*
X22310000Y-20690000D02*
X22310000Y-25810000D01*
X32762820Y-3425820D02*
X27642820Y-3425820D01*
X32762820Y-805820D02*
X27642820Y-805820D01*
X32762820Y-3425820D02*
X32762820Y-805820D01*
X27642820Y-3425820D02*
X27642820Y-805820D01*
X35190000Y-26190000D02*
X37810000Y-26190000D01*
X35190000Y-31310000D02*
X37810000Y-31310000D01*
X37810000Y-31310000D02*
X37810000Y-26190000D01*
X35190000Y-31310000D02*
X35190000Y-26190000D01*
X22310000Y-14690000D02*
X22310000Y-19810000D01*
X19690000Y-14690000D02*
X19690000Y-19810000D01*
X22310000Y-14690000D02*
X19690000Y-14690000D01*
X22310000Y-19810000D02*
X19690000Y-19810000D01*
X28400000Y-95350000D02*
X28400000Y-96650000D01*
X27800000Y-96000000D02*
X29000000Y-96000000D01*
X34451000Y-95532000D02*
X34451000Y-96468000D01*
X34411000Y-95324000D02*
X34411000Y-96676000D01*
X34371000Y-95166000D02*
X34371000Y-96834000D01*
X34331000Y-95034000D02*
X34331000Y-96966000D01*
X34291000Y-94919000D02*
X34291000Y-97081000D01*
X34251000Y-94816000D02*
X34251000Y-97184000D01*
X34211000Y-94722000D02*
X34211000Y-97278000D01*
X34171000Y-94636000D02*
X34171000Y-97364000D01*
X34131000Y-94555000D02*
X34131000Y-97445000D01*
X34091000Y-94480000D02*
X34091000Y-97520000D01*
X34051000Y-94409000D02*
X34051000Y-97591000D01*
X34011000Y-94342000D02*
X34011000Y-97658000D01*
X33971000Y-94279000D02*
X33971000Y-97721000D01*
X33931000Y-94219000D02*
X33931000Y-97781000D01*
X33891000Y-94161000D02*
X33891000Y-97839000D01*
X33851000Y-94106000D02*
X33851000Y-97894000D01*
X33811000Y-94054000D02*
X33811000Y-97946000D01*
X33771000Y-94003000D02*
X33771000Y-97997000D01*
X33731000Y-93955000D02*
X33731000Y-98045000D01*
X33691000Y-93908000D02*
X33691000Y-98092000D01*
X33651000Y-93863000D02*
X33651000Y-98137000D01*
X33611000Y-93820000D02*
X33611000Y-98180000D01*
X33571000Y-93778000D02*
X33571000Y-98222000D01*
X33531000Y-93738000D02*
X33531000Y-98262000D01*
X33491000Y-93699000D02*
X33491000Y-98301000D01*
X33451000Y-96980000D02*
X33451000Y-98339000D01*
X33451000Y-93661000D02*
X33451000Y-95020000D01*
X33411000Y-96980000D02*
X33411000Y-98375000D01*
X33411000Y-93625000D02*
X33411000Y-95020000D01*
X33371000Y-96980000D02*
X33371000Y-98411000D01*
X33371000Y-93589000D02*
X33371000Y-95020000D01*
X33331000Y-96980000D02*
X33331000Y-98445000D01*
X33331000Y-93555000D02*
X33331000Y-95020000D01*
X33291000Y-96980000D02*
X33291000Y-98478000D01*
X33291000Y-93522000D02*
X33291000Y-95020000D01*
X33251000Y-96980000D02*
X33251000Y-98510000D01*
X33251000Y-93490000D02*
X33251000Y-95020000D01*
X33211000Y-96980000D02*
X33211000Y-98540000D01*
X33211000Y-93460000D02*
X33211000Y-95020000D01*
X33171000Y-96980000D02*
X33171000Y-98570000D01*
X33171000Y-93430000D02*
X33171000Y-95020000D01*
X33131000Y-96980000D02*
X33131000Y-98599000D01*
X33131000Y-93401000D02*
X33131000Y-95020000D01*
X33091000Y-96980000D02*
X33091000Y-98627000D01*
X33091000Y-93373000D02*
X33091000Y-95020000D01*
X33051000Y-96980000D02*
X33051000Y-98654000D01*
X33051000Y-93346000D02*
X33051000Y-95020000D01*
X33011000Y-96980000D02*
X33011000Y-98681000D01*
X33011000Y-93319000D02*
X33011000Y-95020000D01*
X32971000Y-96980000D02*
X32971000Y-98706000D01*
X32971000Y-93294000D02*
X32971000Y-95020000D01*
X32931000Y-96980000D02*
X32931000Y-98731000D01*
X32931000Y-93269000D02*
X32931000Y-95020000D01*
X32891000Y-96980000D02*
X32891000Y-98755000D01*
X32891000Y-93245000D02*
X32891000Y-95020000D01*
X32851000Y-96980000D02*
X32851000Y-98778000D01*
X32851000Y-93222000D02*
X32851000Y-95020000D01*
X32811000Y-96980000D02*
X32811000Y-98800000D01*
X32811000Y-93200000D02*
X32811000Y-95020000D01*
X32771000Y-96980000D02*
X32771000Y-98822000D01*
X32771000Y-93178000D02*
X32771000Y-95020000D01*
X32731000Y-96980000D02*
X32731000Y-98843000D01*
X32731000Y-93157000D02*
X32731000Y-95020000D01*
X32691000Y-96980000D02*
X32691000Y-98863000D01*
X32691000Y-93137000D02*
X32691000Y-95020000D01*
X32651000Y-96980000D02*
X32651000Y-98882000D01*
X32651000Y-93118000D02*
X32651000Y-95020000D01*
X32611000Y-96980000D02*
X32611000Y-98901000D01*
X32611000Y-93099000D02*
X32611000Y-95020000D01*
X32571000Y-96980000D02*
X32571000Y-98919000D01*
X32571000Y-93081000D02*
X32571000Y-95020000D01*
X32531000Y-96980000D02*
X32531000Y-98937000D01*
X32531000Y-93063000D02*
X32531000Y-95020000D01*
X32491000Y-96980000D02*
X32491000Y-98954000D01*
X32491000Y-93046000D02*
X32491000Y-95020000D01*
X32451000Y-96980000D02*
X32451000Y-98970000D01*
X32451000Y-93030000D02*
X32451000Y-95020000D01*
X32411000Y-96980000D02*
X32411000Y-98986000D01*
X32411000Y-93014000D02*
X32411000Y-95020000D01*
X32371000Y-96980000D02*
X32371000Y-99001000D01*
X32371000Y-92999000D02*
X32371000Y-95020000D01*
X32331000Y-96980000D02*
X32331000Y-99015000D01*
X32331000Y-92985000D02*
X32331000Y-95020000D01*
X32291000Y-96980000D02*
X32291000Y-99029000D01*
X32291000Y-92971000D02*
X32291000Y-95020000D01*
X32251000Y-96980000D02*
X32251000Y-99042000D01*
X32251000Y-92958000D02*
X32251000Y-95020000D01*
X32211000Y-96980000D02*
X32211000Y-99055000D01*
X32211000Y-92945000D02*
X32211000Y-95020000D01*
X32171000Y-96980000D02*
X32171000Y-99067000D01*
X32171000Y-92933000D02*
X32171000Y-95020000D01*
X32131000Y-96980000D02*
X32131000Y-99079000D01*
X32131000Y-92921000D02*
X32131000Y-95020000D01*
X32091000Y-96980000D02*
X32091000Y-99090000D01*
X32091000Y-92910000D02*
X32091000Y-95020000D01*
X32051000Y-96980000D02*
X32051000Y-99100000D01*
X32051000Y-92900000D02*
X32051000Y-95020000D01*
X32011000Y-96980000D02*
X32011000Y-99110000D01*
X32011000Y-92890000D02*
X32011000Y-95020000D01*
X31971000Y-96980000D02*
X31971000Y-99119000D01*
X31971000Y-92881000D02*
X31971000Y-95020000D01*
X31930000Y-96980000D02*
X31930000Y-99128000D01*
X31930000Y-92872000D02*
X31930000Y-95020000D01*
X31890000Y-96980000D02*
X31890000Y-99137000D01*
X31890000Y-92863000D02*
X31890000Y-95020000D01*
X31850000Y-96980000D02*
X31850000Y-99144000D01*
X31850000Y-92856000D02*
X31850000Y-95020000D01*
X31810000Y-96980000D02*
X31810000Y-99152000D01*
X31810000Y-92848000D02*
X31810000Y-95020000D01*
X31770000Y-96980000D02*
X31770000Y-99158000D01*
X31770000Y-92842000D02*
X31770000Y-95020000D01*
X31730000Y-96980000D02*
X31730000Y-99165000D01*
X31730000Y-92835000D02*
X31730000Y-95020000D01*
X31690000Y-96980000D02*
X31690000Y-99170000D01*
X31690000Y-92830000D02*
X31690000Y-95020000D01*
X31650000Y-96980000D02*
X31650000Y-99176000D01*
X31650000Y-92824000D02*
X31650000Y-95020000D01*
X31610000Y-96980000D02*
X31610000Y-99180000D01*
X31610000Y-92820000D02*
X31610000Y-95020000D01*
X31570000Y-96980000D02*
X31570000Y-99185000D01*
X31570000Y-92815000D02*
X31570000Y-95020000D01*
X31530000Y-96980000D02*
X31530000Y-99188000D01*
X31530000Y-92812000D02*
X31530000Y-95020000D01*
X31490000Y-92808000D02*
X31490000Y-99192000D01*
X31450000Y-92806000D02*
X31450000Y-99194000D01*
X31410000Y-92803000D02*
X31410000Y-99197000D01*
X31370000Y-92802000D02*
X31370000Y-99198000D01*
X31330000Y-92800000D02*
X31330000Y-99200000D01*
X31290000Y-92800000D02*
X31290000Y-99200000D01*
X31250000Y-92800000D02*
X31250000Y-99200000D01*
X34267820Y-97179136D02*
G75*
G03X34267482Y-94820000I-3017820J1179136D01*
G01*
X34267820Y-97179136D02*
G75*
G02X28232518Y-97180000I-3017820J1179136D01*
G01*
X34267820Y-94820864D02*
G75*
G03X28232518Y-94820000I-3017820J-1179136D01*
G01*
X26267820Y-94820864D02*
G75*
G03X20232518Y-94820000I-3017820J-1179136D01*
G01*
X26267820Y-97179136D02*
G75*
G02X20232518Y-97180000I-3017820J1179136D01*
G01*
X26267820Y-97179136D02*
G75*
G03X26267482Y-94820000I-3017820J1179136D01*
G01*
X23250000Y-92800000D02*
X23250000Y-99200000D01*
X23290000Y-92800000D02*
X23290000Y-99200000D01*
X23330000Y-92800000D02*
X23330000Y-99200000D01*
X23370000Y-92802000D02*
X23370000Y-99198000D01*
X23410000Y-92803000D02*
X23410000Y-99197000D01*
X23450000Y-92806000D02*
X23450000Y-99194000D01*
X23490000Y-92808000D02*
X23490000Y-99192000D01*
X23530000Y-92812000D02*
X23530000Y-95020000D01*
X23530000Y-96980000D02*
X23530000Y-99188000D01*
X23570000Y-92815000D02*
X23570000Y-95020000D01*
X23570000Y-96980000D02*
X23570000Y-99185000D01*
X23610000Y-92820000D02*
X23610000Y-95020000D01*
X23610000Y-96980000D02*
X23610000Y-99180000D01*
X23650000Y-92824000D02*
X23650000Y-95020000D01*
X23650000Y-96980000D02*
X23650000Y-99176000D01*
X23690000Y-92830000D02*
X23690000Y-95020000D01*
X23690000Y-96980000D02*
X23690000Y-99170000D01*
X23730000Y-92835000D02*
X23730000Y-95020000D01*
X23730000Y-96980000D02*
X23730000Y-99165000D01*
X23770000Y-92842000D02*
X23770000Y-95020000D01*
X23770000Y-96980000D02*
X23770000Y-99158000D01*
X23810000Y-92848000D02*
X23810000Y-95020000D01*
X23810000Y-96980000D02*
X23810000Y-99152000D01*
X23850000Y-92856000D02*
X23850000Y-95020000D01*
X23850000Y-96980000D02*
X23850000Y-99144000D01*
X23890000Y-92863000D02*
X23890000Y-95020000D01*
X23890000Y-96980000D02*
X23890000Y-99137000D01*
X23930000Y-92872000D02*
X23930000Y-95020000D01*
X23930000Y-96980000D02*
X23930000Y-99128000D01*
X23971000Y-92881000D02*
X23971000Y-95020000D01*
X23971000Y-96980000D02*
X23971000Y-99119000D01*
X24011000Y-92890000D02*
X24011000Y-95020000D01*
X24011000Y-96980000D02*
X24011000Y-99110000D01*
X24051000Y-92900000D02*
X24051000Y-95020000D01*
X24051000Y-96980000D02*
X24051000Y-99100000D01*
X24091000Y-92910000D02*
X24091000Y-95020000D01*
X24091000Y-96980000D02*
X24091000Y-99090000D01*
X24131000Y-92921000D02*
X24131000Y-95020000D01*
X24131000Y-96980000D02*
X24131000Y-99079000D01*
X24171000Y-92933000D02*
X24171000Y-95020000D01*
X24171000Y-96980000D02*
X24171000Y-99067000D01*
X24211000Y-92945000D02*
X24211000Y-95020000D01*
X24211000Y-96980000D02*
X24211000Y-99055000D01*
X24251000Y-92958000D02*
X24251000Y-95020000D01*
X24251000Y-96980000D02*
X24251000Y-99042000D01*
X24291000Y-92971000D02*
X24291000Y-95020000D01*
X24291000Y-96980000D02*
X24291000Y-99029000D01*
X24331000Y-92985000D02*
X24331000Y-95020000D01*
X24331000Y-96980000D02*
X24331000Y-99015000D01*
X24371000Y-92999000D02*
X24371000Y-95020000D01*
X24371000Y-96980000D02*
X24371000Y-99001000D01*
X24411000Y-93014000D02*
X24411000Y-95020000D01*
X24411000Y-96980000D02*
X24411000Y-98986000D01*
X24451000Y-93030000D02*
X24451000Y-95020000D01*
X24451000Y-96980000D02*
X24451000Y-98970000D01*
X24491000Y-93046000D02*
X24491000Y-95020000D01*
X24491000Y-96980000D02*
X24491000Y-98954000D01*
X24531000Y-93063000D02*
X24531000Y-95020000D01*
X24531000Y-96980000D02*
X24531000Y-98937000D01*
X24571000Y-93081000D02*
X24571000Y-95020000D01*
X24571000Y-96980000D02*
X24571000Y-98919000D01*
X24611000Y-93099000D02*
X24611000Y-95020000D01*
X24611000Y-96980000D02*
X24611000Y-98901000D01*
X24651000Y-93118000D02*
X24651000Y-95020000D01*
X24651000Y-96980000D02*
X24651000Y-98882000D01*
X24691000Y-93137000D02*
X24691000Y-95020000D01*
X24691000Y-96980000D02*
X24691000Y-98863000D01*
X24731000Y-93157000D02*
X24731000Y-95020000D01*
X24731000Y-96980000D02*
X24731000Y-98843000D01*
X24771000Y-93178000D02*
X24771000Y-95020000D01*
X24771000Y-96980000D02*
X24771000Y-98822000D01*
X24811000Y-93200000D02*
X24811000Y-95020000D01*
X24811000Y-96980000D02*
X24811000Y-98800000D01*
X24851000Y-93222000D02*
X24851000Y-95020000D01*
X24851000Y-96980000D02*
X24851000Y-98778000D01*
X24891000Y-93245000D02*
X24891000Y-95020000D01*
X24891000Y-96980000D02*
X24891000Y-98755000D01*
X24931000Y-93269000D02*
X24931000Y-95020000D01*
X24931000Y-96980000D02*
X24931000Y-98731000D01*
X24971000Y-93294000D02*
X24971000Y-95020000D01*
X24971000Y-96980000D02*
X24971000Y-98706000D01*
X25011000Y-93319000D02*
X25011000Y-95020000D01*
X25011000Y-96980000D02*
X25011000Y-98681000D01*
X25051000Y-93346000D02*
X25051000Y-95020000D01*
X25051000Y-96980000D02*
X25051000Y-98654000D01*
X25091000Y-93373000D02*
X25091000Y-95020000D01*
X25091000Y-96980000D02*
X25091000Y-98627000D01*
X25131000Y-93401000D02*
X25131000Y-95020000D01*
X25131000Y-96980000D02*
X25131000Y-98599000D01*
X25171000Y-93430000D02*
X25171000Y-95020000D01*
X25171000Y-96980000D02*
X25171000Y-98570000D01*
X25211000Y-93460000D02*
X25211000Y-95020000D01*
X25211000Y-96980000D02*
X25211000Y-98540000D01*
X25251000Y-93490000D02*
X25251000Y-95020000D01*
X25251000Y-96980000D02*
X25251000Y-98510000D01*
X25291000Y-93522000D02*
X25291000Y-95020000D01*
X25291000Y-96980000D02*
X25291000Y-98478000D01*
X25331000Y-93555000D02*
X25331000Y-95020000D01*
X25331000Y-96980000D02*
X25331000Y-98445000D01*
X25371000Y-93589000D02*
X25371000Y-95020000D01*
X25371000Y-96980000D02*
X25371000Y-98411000D01*
X25411000Y-93625000D02*
X25411000Y-95020000D01*
X25411000Y-96980000D02*
X25411000Y-98375000D01*
X25451000Y-93661000D02*
X25451000Y-95020000D01*
X25451000Y-96980000D02*
X25451000Y-98339000D01*
X25491000Y-93699000D02*
X25491000Y-98301000D01*
X25531000Y-93738000D02*
X25531000Y-98262000D01*
X25571000Y-93778000D02*
X25571000Y-98222000D01*
X25611000Y-93820000D02*
X25611000Y-98180000D01*
X25651000Y-93863000D02*
X25651000Y-98137000D01*
X25691000Y-93908000D02*
X25691000Y-98092000D01*
X25731000Y-93955000D02*
X25731000Y-98045000D01*
X25771000Y-94003000D02*
X25771000Y-97997000D01*
X25811000Y-94054000D02*
X25811000Y-97946000D01*
X25851000Y-94106000D02*
X25851000Y-97894000D01*
X25891000Y-94161000D02*
X25891000Y-97839000D01*
X25931000Y-94219000D02*
X25931000Y-97781000D01*
X25971000Y-94279000D02*
X25971000Y-97721000D01*
X26011000Y-94342000D02*
X26011000Y-97658000D01*
X26051000Y-94409000D02*
X26051000Y-97591000D01*
X26091000Y-94480000D02*
X26091000Y-97520000D01*
X26131000Y-94555000D02*
X26131000Y-97445000D01*
X26171000Y-94636000D02*
X26171000Y-97364000D01*
X26211000Y-94722000D02*
X26211000Y-97278000D01*
X26251000Y-94816000D02*
X26251000Y-97184000D01*
X26291000Y-94919000D02*
X26291000Y-97081000D01*
X26331000Y-95034000D02*
X26331000Y-96966000D01*
X26371000Y-95166000D02*
X26371000Y-96834000D01*
X26411000Y-95324000D02*
X26411000Y-96676000D01*
X26451000Y-95532000D02*
X26451000Y-96468000D01*
X19800000Y-96000000D02*
X21000000Y-96000000D01*
X20400000Y-95350000D02*
X20400000Y-96650000D01*
X14690000Y-93190000D02*
X17310000Y-93190000D01*
X14690000Y-98310000D02*
X17310000Y-98310000D01*
X17310000Y-98310000D02*
X17310000Y-93190000D01*
X14690000Y-98310000D02*
X14690000Y-93190000D01*
X29560000Y-18790000D02*
X27440000Y-18790000D01*
X28500000Y-23020000D02*
X28500000Y-22250000D01*
X28500000Y-17360000D02*
X28500000Y-18130000D01*
X29560000Y-22250000D02*
X29560000Y-18130000D01*
X27440000Y-22250000D02*
X29560000Y-22250000D01*
X27440000Y-18130000D02*
X27440000Y-22250000D01*
X29560000Y-18130000D02*
X27440000Y-18130000D01*
X32940000Y-21590000D02*
X35060000Y-21590000D01*
X34000000Y-17360000D02*
X34000000Y-18130000D01*
X34000000Y-23020000D02*
X34000000Y-22250000D01*
X32940000Y-18130000D02*
X32940000Y-22250000D01*
X35060000Y-18130000D02*
X32940000Y-18130000D01*
X35060000Y-22250000D02*
X35060000Y-18130000D01*
X32940000Y-22250000D02*
X35060000Y-22250000D01*
X38060000Y-18790000D02*
X35940000Y-18790000D01*
X37000000Y-23020000D02*
X37000000Y-22250000D01*
X37000000Y-17360000D02*
X37000000Y-18130000D01*
X38060000Y-22250000D02*
X38060000Y-18130000D01*
X35940000Y-22250000D02*
X38060000Y-22250000D01*
X35940000Y-18130000D02*
X35940000Y-22250000D01*
X38060000Y-18130000D02*
X35940000Y-18130000D01*
X38060000Y-8130000D02*
X35940000Y-8130000D01*
X35940000Y-8130000D02*
X35940000Y-12250000D01*
X35940000Y-12250000D02*
X38060000Y-12250000D01*
X38060000Y-12250000D02*
X38060000Y-8130000D01*
X37000000Y-7360000D02*
X37000000Y-8130000D01*
X37000000Y-13020000D02*
X37000000Y-12250000D01*
X38060000Y-8790000D02*
X35940000Y-8790000D01*
X32940000Y-12250000D02*
X35060000Y-12250000D01*
X35060000Y-12250000D02*
X35060000Y-8130000D01*
X35060000Y-8130000D02*
X32940000Y-8130000D01*
X32940000Y-8130000D02*
X32940000Y-12250000D01*
X34000000Y-13020000D02*
X34000000Y-12250000D01*
X34000000Y-7360000D02*
X34000000Y-8130000D01*
X32940000Y-11590000D02*
X35060000Y-11590000D01*
X29560000Y-8130000D02*
X27440000Y-8130000D01*
X27440000Y-8130000D02*
X27440000Y-12250000D01*
X27440000Y-12250000D02*
X29560000Y-12250000D01*
X29560000Y-12250000D02*
X29560000Y-8130000D01*
X28500000Y-7360000D02*
X28500000Y-8130000D01*
X28500000Y-13020000D02*
X28500000Y-12250000D01*
X29560000Y-8790000D02*
X27440000Y-8790000D01*
X24440000Y-11590000D02*
X26560000Y-11590000D01*
X25500000Y-7360000D02*
X25500000Y-8130000D01*
X25500000Y-13020000D02*
X25500000Y-12250000D01*
X24440000Y-8130000D02*
X24440000Y-12250000D01*
X26560000Y-8130000D02*
X24440000Y-8130000D01*
X26560000Y-12250000D02*
X26560000Y-8130000D01*
X24440000Y-12250000D02*
X26560000Y-12250000D01*
X15740000Y-39850000D02*
X19340000Y-39850000D01*
X15215816Y-39122795D02*
G75*
G03X15740000Y-39850000I2324184J1122795D01*
G01*
X15183600Y-36901193D02*
G75*
G02X17540000Y-35400000I2356400J-1098807D01*
G01*
X19896400Y-36901193D02*
G75*
G03X17540000Y-35400000I-2356400J-1098807D01*
G01*
X19864184Y-39122795D02*
G75*
G02X19340000Y-39850000I-2324184J1122795D01*
G01*
X19864184Y-46122795D02*
G75*
G02X19340000Y-46850000I-2324184J1122795D01*
G01*
X19896400Y-43901193D02*
G75*
G03X17540000Y-42400000I-2356400J-1098807D01*
G01*
X15183600Y-43901193D02*
G75*
G02X17540000Y-42400000I2356400J-1098807D01*
G01*
X15215816Y-46122795D02*
G75*
G03X15740000Y-46850000I2324184J1122795D01*
G01*
X15740000Y-46850000D02*
X19340000Y-46850000D01*
X20864184Y-83122795D02*
G75*
G02X20340000Y-83850000I-2324184J1122795D01*
G01*
X20896400Y-80901193D02*
G75*
G03X18540000Y-79400000I-2356400J-1098807D01*
G01*
X16183600Y-80901193D02*
G75*
G02X18540000Y-79400000I2356400J-1098807D01*
G01*
X16215816Y-83122795D02*
G75*
G03X16740000Y-83850000I2324184J1122795D01*
G01*
X16740000Y-83850000D02*
X20340000Y-83850000D01*
X16740000Y-90850000D02*
X20340000Y-90850000D01*
X16215816Y-90122795D02*
G75*
G03X16740000Y-90850000I2324184J1122795D01*
G01*
X16183600Y-87901193D02*
G75*
G02X18540000Y-86400000I2356400J-1098807D01*
G01*
X20896400Y-87901193D02*
G75*
G03X18540000Y-86400000I-2356400J-1098807D01*
G01*
X20864184Y-90122795D02*
G75*
G02X20340000Y-90850000I-2324184J1122795D01*
G01*
X14690000Y-16130000D02*
X17310000Y-16130000D01*
X17310000Y-16130000D02*
X17310000Y-9710000D01*
X17310000Y-9710000D02*
X14690000Y-9710000D01*
X14690000Y-9710000D02*
X14690000Y-16130000D01*
X16000000Y-17020000D02*
X16000000Y-16130000D01*
X16000000Y-8820000D02*
X16000000Y-9710000D01*
X16000000Y-59180000D02*
X16000000Y-58290000D01*
X16000000Y-50980000D02*
X16000000Y-51870000D01*
X17310000Y-58290000D02*
X17310000Y-51870000D01*
X14690000Y-58290000D02*
X17310000Y-58290000D01*
X14690000Y-51870000D02*
X14690000Y-58290000D01*
X17310000Y-51870000D02*
X14690000Y-51870000D01*
X21000000Y-50980000D02*
X21000000Y-51870000D01*
X21000000Y-59180000D02*
X21000000Y-58290000D01*
X19690000Y-51870000D02*
X19690000Y-58290000D01*
X22310000Y-51870000D02*
X19690000Y-51870000D01*
X22310000Y-58290000D02*
X22310000Y-51870000D01*
X19690000Y-58290000D02*
X22310000Y-58290000D01*
X17310000Y-64870000D02*
X14690000Y-64870000D01*
X14690000Y-64870000D02*
X14690000Y-71290000D01*
X14690000Y-71290000D02*
X17310000Y-71290000D01*
X17310000Y-71290000D02*
X17310000Y-64870000D01*
X16000000Y-63980000D02*
X16000000Y-64870000D01*
X16000000Y-72180000D02*
X16000000Y-71290000D01*
X24870000Y-27190000D02*
X24870000Y-29810000D01*
X24870000Y-29810000D02*
X31290000Y-29810000D01*
X31290000Y-29810000D02*
X31290000Y-27190000D01*
X31290000Y-27190000D02*
X24870000Y-27190000D01*
X23980000Y-28500000D02*
X24870000Y-28500000D01*
X32180000Y-28500000D02*
X31290000Y-28500000D01*
X32180000Y-36500000D02*
X31290000Y-36500000D01*
X23980000Y-36500000D02*
X24870000Y-36500000D01*
X31290000Y-35190000D02*
X24870000Y-35190000D01*
X31290000Y-37810000D02*
X31290000Y-35190000D01*
X24870000Y-37810000D02*
X31290000Y-37810000D01*
X24870000Y-35190000D02*
X24870000Y-37810000D01*
X19690000Y-71290000D02*
X22310000Y-71290000D01*
X22310000Y-71290000D02*
X22310000Y-64870000D01*
X22310000Y-64870000D02*
X19690000Y-64870000D01*
X19690000Y-64870000D02*
X19690000Y-71290000D01*
X21000000Y-72180000D02*
X21000000Y-71290000D01*
X21000000Y-63980000D02*
X21000000Y-64870000D01*
X21000000Y-11180000D02*
X21000000Y-10290000D01*
X21000000Y-2980000D02*
X21000000Y-3870000D01*
X22310000Y-10290000D02*
X22310000Y-3870000D01*
X19690000Y-10290000D02*
X22310000Y-10290000D01*
X19690000Y-3870000D02*
X19690000Y-10290000D01*
X22310000Y-3870000D02*
X19690000Y-3870000D01*
X25980000Y-79000000D02*
X26870000Y-79000000D01*
X34180000Y-79000000D02*
X33290000Y-79000000D01*
X26870000Y-80310000D02*
X33290000Y-80310000D01*
X26870000Y-77690000D02*
X26870000Y-80310000D01*
X33290000Y-77690000D02*
X26870000Y-77690000D01*
X33290000Y-80310000D02*
X33290000Y-77690000D01*
X25980000Y-64000000D02*
X26870000Y-64000000D01*
X34180000Y-64000000D02*
X33290000Y-64000000D01*
X26870000Y-65310000D02*
X33290000Y-65310000D01*
X26870000Y-62690000D02*
X26870000Y-65310000D01*
X33290000Y-62690000D02*
X26870000Y-62690000D01*
X33290000Y-65310000D02*
X33290000Y-62690000D01*
X26870000Y-87690000D02*
X26870000Y-90310000D01*
X26870000Y-90310000D02*
X33290000Y-90310000D01*
X33290000Y-90310000D02*
X33290000Y-87690000D01*
X33290000Y-87690000D02*
X26870000Y-87690000D01*
X25980000Y-89000000D02*
X26870000Y-89000000D01*
X34180000Y-89000000D02*
X33290000Y-89000000D01*
X33290000Y-75310000D02*
X33290000Y-72690000D01*
X33290000Y-72690000D02*
X26870000Y-72690000D01*
X26870000Y-72690000D02*
X26870000Y-75310000D01*
X26870000Y-75310000D02*
X33290000Y-75310000D01*
X34180000Y-74000000D02*
X33290000Y-74000000D01*
X25980000Y-74000000D02*
X26870000Y-74000000D01*
X34180000Y-84000000D02*
X33290000Y-84000000D01*
X25980000Y-84000000D02*
X26870000Y-84000000D01*
X33290000Y-82690000D02*
X26870000Y-82690000D01*
X33290000Y-85310000D02*
X33290000Y-82690000D01*
X26870000Y-85310000D02*
X33290000Y-85310000D01*
X26870000Y-82690000D02*
X26870000Y-85310000D01*
X11190000Y-80630000D02*
X13810000Y-80630000D01*
X13810000Y-80630000D02*
X13810000Y-74210000D01*
X13810000Y-74210000D02*
X11190000Y-74210000D01*
X11190000Y-74210000D02*
X11190000Y-80630000D01*
X12500000Y-81520000D02*
X12500000Y-80630000D01*
X12500000Y-73320000D02*
X12500000Y-74210000D01*
X34180000Y-69000000D02*
X33290000Y-69000000D01*
X25980000Y-69000000D02*
X26870000Y-69000000D01*
X33290000Y-67690000D02*
X26870000Y-67690000D01*
X33290000Y-70310000D02*
X33290000Y-67690000D01*
X26870000Y-70310000D02*
X33290000Y-70310000D01*
X26870000Y-67690000D02*
X26870000Y-70310000D01*
X4870000Y-65690000D02*
X4870000Y-68310000D01*
X4870000Y-68310000D02*
X11290000Y-68310000D01*
X11290000Y-68310000D02*
X11290000Y-65690000D01*
X11290000Y-65690000D02*
X4870000Y-65690000D01*
X3980000Y-67000000D02*
X4870000Y-67000000D01*
X12180000Y-67000000D02*
X11290000Y-67000000D01*
D11*
X4104761Y-86502380D02*
X3771428Y-86026190D01*
X3533333Y-86502380D02*
X3533333Y-85502380D01*
X3914285Y-85502380D01*
X4009523Y-85550000D01*
X4057142Y-85597619D01*
X4104761Y-85692857D01*
X4104761Y-85835714D01*
X4057142Y-85930952D01*
X4009523Y-85978571D01*
X3914285Y-86026190D01*
X3533333Y-86026190D01*
X4390476Y-85502380D02*
X4723809Y-86502380D01*
X5057142Y-85502380D01*
X5342857Y-85597619D02*
X5390476Y-85550000D01*
X5485714Y-85502380D01*
X5723809Y-85502380D01*
X5819047Y-85550000D01*
X5866666Y-85597619D01*
X5914285Y-85692857D01*
X5914285Y-85788095D01*
X5866666Y-85930952D01*
X5295238Y-86502380D01*
X5914285Y-86502380D01*
X23892380Y-20928095D02*
X22892380Y-20928095D01*
X22892380Y-20690000D01*
X22940000Y-20547142D01*
X23035238Y-20451904D01*
X23130476Y-20404285D01*
X23320952Y-20356666D01*
X23463809Y-20356666D01*
X23654285Y-20404285D01*
X23749523Y-20451904D01*
X23844761Y-20547142D01*
X23892380Y-20690000D01*
X23892380Y-20928095D01*
X23892380Y-19404285D02*
X23892380Y-19975714D01*
X23892380Y-19690000D02*
X22892380Y-19690000D01*
X23035238Y-19785238D01*
X23130476Y-19880476D01*
X23178095Y-19975714D01*
X27913333Y-34762380D02*
X27580000Y-34286190D01*
X27341904Y-34762380D02*
X27341904Y-33762380D01*
X27722857Y-33762380D01*
X27818095Y-33810000D01*
X27865714Y-33857619D01*
X27913333Y-33952857D01*
X27913333Y-34095714D01*
X27865714Y-34190952D01*
X27818095Y-34238571D01*
X27722857Y-34286190D01*
X27341904Y-34286190D01*
X28818095Y-33762380D02*
X28341904Y-33762380D01*
X28294285Y-34238571D01*
X28341904Y-34190952D01*
X28437142Y-34143333D01*
X28675238Y-34143333D01*
X28770476Y-34190952D01*
X28818095Y-34238571D01*
X28865714Y-34333809D01*
X28865714Y-34571904D01*
X28818095Y-34667142D01*
X28770476Y-34714761D01*
X28675238Y-34762380D01*
X28437142Y-34762380D01*
X28341904Y-34714761D01*
X28294285Y-34667142D01*
X12106666Y-27782380D02*
X12106666Y-28496666D01*
X12059047Y-28639523D01*
X11963809Y-28734761D01*
X11820952Y-28782380D01*
X11725714Y-28782380D01*
X12487619Y-27782380D02*
X13106666Y-27782380D01*
X12773333Y-28163333D01*
X12916190Y-28163333D01*
X13011428Y-28210952D01*
X13059047Y-28258571D01*
X13106666Y-28353809D01*
X13106666Y-28591904D01*
X13059047Y-28687142D01*
X13011428Y-28734761D01*
X12916190Y-28782380D01*
X12630476Y-28782380D01*
X12535238Y-28734761D01*
X12487619Y-28687142D01*
X18828562Y-3914446D02*
X18876181Y-3962065D01*
X18923800Y-4104922D01*
X18923800Y-4200160D01*
X18876181Y-4343018D01*
X18780943Y-4438256D01*
X18685705Y-4485875D01*
X18495229Y-4533494D01*
X18352372Y-4533494D01*
X18161896Y-4485875D01*
X18066658Y-4438256D01*
X17971420Y-4343018D01*
X17923800Y-4200160D01*
X17923800Y-4104922D01*
X17971420Y-3962065D01*
X18019039Y-3914446D01*
X18923800Y-2962065D02*
X18923800Y-3533494D01*
X18923800Y-3247780D02*
X17923800Y-3247780D01*
X18066658Y-3343018D01*
X18161896Y-3438256D01*
X18209515Y-3533494D01*
X7985166Y-12865880D02*
X7985166Y-13580166D01*
X7937547Y-13723023D01*
X7842309Y-13818261D01*
X7699452Y-13865880D01*
X7604214Y-13865880D01*
X8985166Y-13865880D02*
X8413738Y-13865880D01*
X8699452Y-13865880D02*
X8699452Y-12865880D01*
X8604214Y-13008738D01*
X8508976Y-13103976D01*
X8413738Y-13151595D01*
X7985166Y-63865880D02*
X7985166Y-64580166D01*
X7937547Y-64723023D01*
X7842309Y-64818261D01*
X7699452Y-64865880D01*
X7604214Y-64865880D01*
X8413738Y-63961119D02*
X8461357Y-63913500D01*
X8556595Y-63865880D01*
X8794690Y-63865880D01*
X8889928Y-63913500D01*
X8937547Y-63961119D01*
X8985166Y-64056357D01*
X8985166Y-64151595D01*
X8937547Y-64294452D01*
X8366119Y-64865880D01*
X8985166Y-64865880D01*
X44517986Y-98715580D02*
X44517986Y-99429866D01*
X44470367Y-99572723D01*
X44375129Y-99667961D01*
X44232272Y-99715580D01*
X44137034Y-99715580D01*
X45422748Y-99048914D02*
X45422748Y-99715580D01*
X45184653Y-98667961D02*
X44946558Y-99382247D01*
X45565605Y-99382247D01*
X35936666Y-37122380D02*
X35936666Y-37836666D01*
X35889047Y-37979523D01*
X35793809Y-38074761D01*
X35650952Y-38122380D01*
X35555714Y-38122380D01*
X36889047Y-37122380D02*
X36412857Y-37122380D01*
X36365238Y-37598571D01*
X36412857Y-37550952D01*
X36508095Y-37503333D01*
X36746190Y-37503333D01*
X36841428Y-37550952D01*
X36889047Y-37598571D01*
X36936666Y-37693809D01*
X36936666Y-37931904D01*
X36889047Y-38027142D01*
X36841428Y-38074761D01*
X36746190Y-38122380D01*
X36508095Y-38122380D01*
X36412857Y-38074761D01*
X36365238Y-38027142D01*
X7985166Y-98865880D02*
X7985166Y-99580166D01*
X7937547Y-99723023D01*
X7842309Y-99818261D01*
X7699452Y-99865880D01*
X7604214Y-99865880D01*
X8889928Y-98865880D02*
X8699452Y-98865880D01*
X8604214Y-98913500D01*
X8556595Y-98961119D01*
X8461357Y-99103976D01*
X8413738Y-99294452D01*
X8413738Y-99675404D01*
X8461357Y-99770642D01*
X8508976Y-99818261D01*
X8604214Y-99865880D01*
X8794690Y-99865880D01*
X8889928Y-99818261D01*
X8937547Y-99770642D01*
X8985166Y-99675404D01*
X8985166Y-99437309D01*
X8937547Y-99342071D01*
X8889928Y-99294452D01*
X8794690Y-99246833D01*
X8604214Y-99246833D01*
X8508976Y-99294452D01*
X8461357Y-99342071D01*
X8413738Y-99437309D01*
X4104761Y-51502380D02*
X3771428Y-51026190D01*
X3533333Y-51502380D02*
X3533333Y-50502380D01*
X3914285Y-50502380D01*
X4009523Y-50550000D01*
X4057142Y-50597619D01*
X4104761Y-50692857D01*
X4104761Y-50835714D01*
X4057142Y-50930952D01*
X4009523Y-50978571D01*
X3914285Y-51026190D01*
X3533333Y-51026190D01*
X4390476Y-50502380D02*
X4723809Y-51502380D01*
X5057142Y-50502380D01*
X5914285Y-51502380D02*
X5342857Y-51502380D01*
X5628571Y-51502380D02*
X5628571Y-50502380D01*
X5533333Y-50645238D01*
X5438095Y-50740476D01*
X5342857Y-50788095D01*
X51049086Y-99657801D02*
X51191943Y-99705420D01*
X51430039Y-99705420D01*
X51525277Y-99657801D01*
X51572896Y-99610182D01*
X51620515Y-99514944D01*
X51620515Y-99419706D01*
X51572896Y-99324468D01*
X51525277Y-99276849D01*
X51430039Y-99229230D01*
X51239562Y-99181611D01*
X51144324Y-99133992D01*
X51096705Y-99086373D01*
X51049086Y-98991135D01*
X51049086Y-98895897D01*
X51096705Y-98800659D01*
X51144324Y-98753040D01*
X51239562Y-98705420D01*
X51477658Y-98705420D01*
X51620515Y-98753040D01*
X51953848Y-98705420D02*
X52191943Y-99705420D01*
X52382420Y-98991135D01*
X52572896Y-99705420D01*
X52810991Y-98705420D01*
X53715753Y-99705420D02*
X53144324Y-99705420D01*
X53430039Y-99705420D02*
X53430039Y-98705420D01*
X53334800Y-98848278D01*
X53239562Y-98943516D01*
X53144324Y-98991135D01*
X27583333Y-56817142D02*
X27535714Y-56864761D01*
X27392857Y-56912380D01*
X27297619Y-56912380D01*
X27154761Y-56864761D01*
X27059523Y-56769523D01*
X27011904Y-56674285D01*
X26964285Y-56483809D01*
X26964285Y-56340952D01*
X27011904Y-56150476D01*
X27059523Y-56055238D01*
X27154761Y-55960000D01*
X27297619Y-55912380D01*
X27392857Y-55912380D01*
X27535714Y-55960000D01*
X27583333Y-56007619D01*
X27964285Y-56007619D02*
X28011904Y-55960000D01*
X28107142Y-55912380D01*
X28345238Y-55912380D01*
X28440476Y-55960000D01*
X28488095Y-56007619D01*
X28535714Y-56102857D01*
X28535714Y-56198095D01*
X28488095Y-56340952D01*
X27916666Y-56912380D01*
X28535714Y-56912380D01*
X27583333Y-47817142D02*
X27535714Y-47864761D01*
X27392857Y-47912380D01*
X27297619Y-47912380D01*
X27154761Y-47864761D01*
X27059523Y-47769523D01*
X27011904Y-47674285D01*
X26964285Y-47483809D01*
X26964285Y-47340952D01*
X27011904Y-47150476D01*
X27059523Y-47055238D01*
X27154761Y-46960000D01*
X27297619Y-46912380D01*
X27392857Y-46912380D01*
X27535714Y-46960000D01*
X27583333Y-47007619D01*
X27916666Y-46912380D02*
X28535714Y-46912380D01*
X28202380Y-47293333D01*
X28345238Y-47293333D01*
X28440476Y-47340952D01*
X28488095Y-47388571D01*
X28535714Y-47483809D01*
X28535714Y-47721904D01*
X28488095Y-47817142D01*
X28440476Y-47864761D01*
X28345238Y-47912380D01*
X28059523Y-47912380D01*
X27964285Y-47864761D01*
X27916666Y-47817142D01*
X23917142Y-23416666D02*
X23964761Y-23464285D01*
X24012380Y-23607142D01*
X24012380Y-23702380D01*
X23964761Y-23845238D01*
X23869523Y-23940476D01*
X23774285Y-23988095D01*
X23583809Y-24035714D01*
X23440952Y-24035714D01*
X23250476Y-23988095D01*
X23155238Y-23940476D01*
X23060000Y-23845238D01*
X23012380Y-23702380D01*
X23012380Y-23607142D01*
X23060000Y-23464285D01*
X23107619Y-23416666D01*
X23345714Y-22559523D02*
X24012380Y-22559523D01*
X22964761Y-22797619D02*
X23679047Y-23035714D01*
X23679047Y-22416666D01*
X30036153Y-5032962D02*
X29988534Y-5080581D01*
X29845677Y-5128200D01*
X29750439Y-5128200D01*
X29607581Y-5080581D01*
X29512343Y-4985343D01*
X29464724Y-4890105D01*
X29417105Y-4699629D01*
X29417105Y-4556772D01*
X29464724Y-4366296D01*
X29512343Y-4271058D01*
X29607581Y-4175820D01*
X29750439Y-4128200D01*
X29845677Y-4128200D01*
X29988534Y-4175820D01*
X30036153Y-4223439D01*
X30940915Y-4128200D02*
X30464724Y-4128200D01*
X30417105Y-4604391D01*
X30464724Y-4556772D01*
X30559962Y-4509153D01*
X30798058Y-4509153D01*
X30893296Y-4556772D01*
X30940915Y-4604391D01*
X30988534Y-4699629D01*
X30988534Y-4937724D01*
X30940915Y-5032962D01*
X30893296Y-5080581D01*
X30798058Y-5128200D01*
X30559962Y-5128200D01*
X30464724Y-5080581D01*
X30417105Y-5032962D01*
X39468262Y-29013506D02*
X39515881Y-29061125D01*
X39563500Y-29203982D01*
X39563500Y-29299220D01*
X39515881Y-29442078D01*
X39420643Y-29537316D01*
X39325405Y-29584935D01*
X39134929Y-29632554D01*
X38992072Y-29632554D01*
X38801596Y-29584935D01*
X38706358Y-29537316D01*
X38611120Y-29442078D01*
X38563500Y-29299220D01*
X38563500Y-29203982D01*
X38611120Y-29061125D01*
X38658739Y-29013506D01*
X38563500Y-28156363D02*
X38563500Y-28346840D01*
X38611120Y-28442078D01*
X38658739Y-28489697D01*
X38801596Y-28584935D01*
X38992072Y-28632554D01*
X39373024Y-28632554D01*
X39468262Y-28584935D01*
X39515881Y-28537316D01*
X39563500Y-28442078D01*
X39563500Y-28251601D01*
X39515881Y-28156363D01*
X39468262Y-28108744D01*
X39373024Y-28061125D01*
X39134929Y-28061125D01*
X39039691Y-28108744D01*
X38992072Y-28156363D01*
X38944453Y-28251601D01*
X38944453Y-28442078D01*
X38992072Y-28537316D01*
X39039691Y-28584935D01*
X39134929Y-28632554D01*
X23917142Y-17416666D02*
X23964761Y-17464285D01*
X24012380Y-17607142D01*
X24012380Y-17702380D01*
X23964761Y-17845238D01*
X23869523Y-17940476D01*
X23774285Y-17988095D01*
X23583809Y-18035714D01*
X23440952Y-18035714D01*
X23250476Y-17988095D01*
X23155238Y-17940476D01*
X23060000Y-17845238D01*
X23012380Y-17702380D01*
X23012380Y-17607142D01*
X23060000Y-17464285D01*
X23107619Y-17416666D01*
X23012380Y-17083333D02*
X23012380Y-16416666D01*
X24012380Y-16845238D01*
X31083333Y-91897142D02*
X31035714Y-91944761D01*
X30892857Y-91992380D01*
X30797619Y-91992380D01*
X30654761Y-91944761D01*
X30559523Y-91849523D01*
X30511904Y-91754285D01*
X30464285Y-91563809D01*
X30464285Y-91420952D01*
X30511904Y-91230476D01*
X30559523Y-91135238D01*
X30654761Y-91040000D01*
X30797619Y-90992380D01*
X30892857Y-90992380D01*
X31035714Y-91040000D01*
X31083333Y-91087619D01*
X31654761Y-91420952D02*
X31559523Y-91373333D01*
X31511904Y-91325714D01*
X31464285Y-91230476D01*
X31464285Y-91182857D01*
X31511904Y-91087619D01*
X31559523Y-91040000D01*
X31654761Y-90992380D01*
X31845238Y-90992380D01*
X31940476Y-91040000D01*
X31988095Y-91087619D01*
X32035714Y-91182857D01*
X32035714Y-91230476D01*
X31988095Y-91325714D01*
X31940476Y-91373333D01*
X31845238Y-91420952D01*
X31654761Y-91420952D01*
X31559523Y-91468571D01*
X31511904Y-91516190D01*
X31464285Y-91611428D01*
X31464285Y-91801904D01*
X31511904Y-91897142D01*
X31559523Y-91944761D01*
X31654761Y-91992380D01*
X31845238Y-91992380D01*
X31940476Y-91944761D01*
X31988095Y-91897142D01*
X32035714Y-91801904D01*
X32035714Y-91611428D01*
X31988095Y-91516190D01*
X31940476Y-91468571D01*
X31845238Y-91420952D01*
X23083333Y-91897142D02*
X23035714Y-91944761D01*
X22892857Y-91992380D01*
X22797619Y-91992380D01*
X22654761Y-91944761D01*
X22559523Y-91849523D01*
X22511904Y-91754285D01*
X22464285Y-91563809D01*
X22464285Y-91420952D01*
X22511904Y-91230476D01*
X22559523Y-91135238D01*
X22654761Y-91040000D01*
X22797619Y-90992380D01*
X22892857Y-90992380D01*
X23035714Y-91040000D01*
X23083333Y-91087619D01*
X23559523Y-91992380D02*
X23750000Y-91992380D01*
X23845238Y-91944761D01*
X23892857Y-91897142D01*
X23988095Y-91754285D01*
X24035714Y-91563809D01*
X24035714Y-91182857D01*
X23988095Y-91087619D01*
X23940476Y-91040000D01*
X23845238Y-90992380D01*
X23654761Y-90992380D01*
X23559523Y-91040000D01*
X23511904Y-91087619D01*
X23464285Y-91182857D01*
X23464285Y-91420952D01*
X23511904Y-91516190D01*
X23559523Y-91563809D01*
X23654761Y-91611428D01*
X23845238Y-91611428D01*
X23940476Y-91563809D01*
X23988095Y-91516190D01*
X24035714Y-91420952D01*
X13797142Y-96392857D02*
X13844761Y-96440476D01*
X13892380Y-96583333D01*
X13892380Y-96678571D01*
X13844761Y-96821428D01*
X13749523Y-96916666D01*
X13654285Y-96964285D01*
X13463809Y-97011904D01*
X13320952Y-97011904D01*
X13130476Y-96964285D01*
X13035238Y-96916666D01*
X12940000Y-96821428D01*
X12892380Y-96678571D01*
X12892380Y-96583333D01*
X12940000Y-96440476D01*
X12987619Y-96392857D01*
X13892380Y-95440476D02*
X13892380Y-96011904D01*
X13892380Y-95726190D02*
X12892380Y-95726190D01*
X13035238Y-95821428D01*
X13130476Y-95916666D01*
X13178095Y-96011904D01*
X12892380Y-94821428D02*
X12892380Y-94726190D01*
X12940000Y-94630952D01*
X12987619Y-94583333D01*
X13082857Y-94535714D01*
X13273333Y-94488095D01*
X13511428Y-94488095D01*
X13701904Y-94535714D01*
X13797142Y-94583333D01*
X13844761Y-94630952D01*
X13892380Y-94726190D01*
X13892380Y-94821428D01*
X13844761Y-94916666D01*
X13797142Y-94964285D01*
X13701904Y-95011904D01*
X13511428Y-95059523D01*
X13273333Y-95059523D01*
X13082857Y-95011904D01*
X12987619Y-94964285D01*
X12940000Y-94916666D01*
X12892380Y-94821428D01*
X31012380Y-20928095D02*
X30012380Y-20928095D01*
X30012380Y-20690000D01*
X30060000Y-20547142D01*
X30155238Y-20451904D01*
X30250476Y-20404285D01*
X30440952Y-20356666D01*
X30583809Y-20356666D01*
X30774285Y-20404285D01*
X30869523Y-20451904D01*
X30964761Y-20547142D01*
X31012380Y-20690000D01*
X31012380Y-20928095D01*
X30107619Y-19975714D02*
X30060000Y-19928095D01*
X30012380Y-19832857D01*
X30012380Y-19594761D01*
X30060000Y-19499523D01*
X30107619Y-19451904D01*
X30202857Y-19404285D01*
X30298095Y-19404285D01*
X30440952Y-19451904D01*
X31012380Y-20023333D01*
X31012380Y-19404285D01*
X32392380Y-20928095D02*
X31392380Y-20928095D01*
X31392380Y-20690000D01*
X31440000Y-20547142D01*
X31535238Y-20451904D01*
X31630476Y-20404285D01*
X31820952Y-20356666D01*
X31963809Y-20356666D01*
X32154285Y-20404285D01*
X32249523Y-20451904D01*
X32344761Y-20547142D01*
X32392380Y-20690000D01*
X32392380Y-20928095D01*
X31392380Y-20023333D02*
X31392380Y-19404285D01*
X31773333Y-19737619D01*
X31773333Y-19594761D01*
X31820952Y-19499523D01*
X31868571Y-19451904D01*
X31963809Y-19404285D01*
X32201904Y-19404285D01*
X32297142Y-19451904D01*
X32344761Y-19499523D01*
X32392380Y-19594761D01*
X32392380Y-19880476D01*
X32344761Y-19975714D01*
X32297142Y-20023333D01*
X39512380Y-20928095D02*
X38512380Y-20928095D01*
X38512380Y-20690000D01*
X38560000Y-20547142D01*
X38655238Y-20451904D01*
X38750476Y-20404285D01*
X38940952Y-20356666D01*
X39083809Y-20356666D01*
X39274285Y-20404285D01*
X39369523Y-20451904D01*
X39464761Y-20547142D01*
X39512380Y-20690000D01*
X39512380Y-20928095D01*
X38845714Y-19499523D02*
X39512380Y-19499523D01*
X38464761Y-19737619D02*
X39179047Y-19975714D01*
X39179047Y-19356666D01*
X39512380Y-10928095D02*
X38512380Y-10928095D01*
X38512380Y-10690000D01*
X38560000Y-10547142D01*
X38655238Y-10451904D01*
X38750476Y-10404285D01*
X38940952Y-10356666D01*
X39083809Y-10356666D01*
X39274285Y-10404285D01*
X39369523Y-10451904D01*
X39464761Y-10547142D01*
X39512380Y-10690000D01*
X39512380Y-10928095D01*
X38512380Y-9451904D02*
X38512380Y-9928095D01*
X38988571Y-9975714D01*
X38940952Y-9928095D01*
X38893333Y-9832857D01*
X38893333Y-9594761D01*
X38940952Y-9499523D01*
X38988571Y-9451904D01*
X39083809Y-9404285D01*
X39321904Y-9404285D01*
X39417142Y-9451904D01*
X39464761Y-9499523D01*
X39512380Y-9594761D01*
X39512380Y-9832857D01*
X39464761Y-9928095D01*
X39417142Y-9975714D01*
X32392380Y-10928095D02*
X31392380Y-10928095D01*
X31392380Y-10690000D01*
X31440000Y-10547142D01*
X31535238Y-10451904D01*
X31630476Y-10404285D01*
X31820952Y-10356666D01*
X31963809Y-10356666D01*
X32154285Y-10404285D01*
X32249523Y-10451904D01*
X32344761Y-10547142D01*
X32392380Y-10690000D01*
X32392380Y-10928095D01*
X31392380Y-9499523D02*
X31392380Y-9690000D01*
X31440000Y-9785238D01*
X31487619Y-9832857D01*
X31630476Y-9928095D01*
X31820952Y-9975714D01*
X32201904Y-9975714D01*
X32297142Y-9928095D01*
X32344761Y-9880476D01*
X32392380Y-9785238D01*
X32392380Y-9594761D01*
X32344761Y-9499523D01*
X32297142Y-9451904D01*
X32201904Y-9404285D01*
X31963809Y-9404285D01*
X31868571Y-9451904D01*
X31820952Y-9499523D01*
X31773333Y-9594761D01*
X31773333Y-9785238D01*
X31820952Y-9880476D01*
X31868571Y-9928095D01*
X31963809Y-9975714D01*
X31012380Y-10928095D02*
X30012380Y-10928095D01*
X30012380Y-10690000D01*
X30060000Y-10547142D01*
X30155238Y-10451904D01*
X30250476Y-10404285D01*
X30440952Y-10356666D01*
X30583809Y-10356666D01*
X30774285Y-10404285D01*
X30869523Y-10451904D01*
X30964761Y-10547142D01*
X31012380Y-10690000D01*
X31012380Y-10928095D01*
X30012380Y-10023333D02*
X30012380Y-9356666D01*
X31012380Y-9785238D01*
X23892380Y-10928095D02*
X22892380Y-10928095D01*
X22892380Y-10690000D01*
X22940000Y-10547142D01*
X23035238Y-10451904D01*
X23130476Y-10404285D01*
X23320952Y-10356666D01*
X23463809Y-10356666D01*
X23654285Y-10404285D01*
X23749523Y-10451904D01*
X23844761Y-10547142D01*
X23892380Y-10690000D01*
X23892380Y-10928095D01*
X23320952Y-9785238D02*
X23273333Y-9880476D01*
X23225714Y-9928095D01*
X23130476Y-9975714D01*
X23082857Y-9975714D01*
X22987619Y-9928095D01*
X22940000Y-9880476D01*
X22892380Y-9785238D01*
X22892380Y-9594761D01*
X22940000Y-9499523D01*
X22987619Y-9451904D01*
X23082857Y-9404285D01*
X23130476Y-9404285D01*
X23225714Y-9451904D01*
X23273333Y-9499523D01*
X23320952Y-9594761D01*
X23320952Y-9785238D01*
X23368571Y-9880476D01*
X23416190Y-9928095D01*
X23511428Y-9975714D01*
X23701904Y-9975714D01*
X23797142Y-9928095D01*
X23844761Y-9880476D01*
X23892380Y-9785238D01*
X23892380Y-9594761D01*
X23844761Y-9499523D01*
X23797142Y-9451904D01*
X23701904Y-9404285D01*
X23511428Y-9404285D01*
X23416190Y-9451904D01*
X23368571Y-9499523D01*
X23320952Y-9594761D01*
X17444761Y-34987619D02*
X17349523Y-34940000D01*
X17254285Y-34844761D01*
X17111428Y-34701904D01*
X17016190Y-34654285D01*
X16920952Y-34654285D01*
X16968571Y-34892380D02*
X16873333Y-34844761D01*
X16778095Y-34749523D01*
X16730476Y-34559047D01*
X16730476Y-34225714D01*
X16778095Y-34035238D01*
X16873333Y-33940000D01*
X16968571Y-33892380D01*
X17159047Y-33892380D01*
X17254285Y-33940000D01*
X17349523Y-34035238D01*
X17397142Y-34225714D01*
X17397142Y-34559047D01*
X17349523Y-34749523D01*
X17254285Y-34844761D01*
X17159047Y-34892380D01*
X16968571Y-34892380D01*
X18349523Y-34892380D02*
X17778095Y-34892380D01*
X18063809Y-34892380D02*
X18063809Y-33892380D01*
X17968571Y-34035238D01*
X17873333Y-34130476D01*
X17778095Y-34178095D01*
X17444761Y-41987619D02*
X17349523Y-41940000D01*
X17254285Y-41844761D01*
X17111428Y-41701904D01*
X17016190Y-41654285D01*
X16920952Y-41654285D01*
X16968571Y-41892380D02*
X16873333Y-41844761D01*
X16778095Y-41749523D01*
X16730476Y-41559047D01*
X16730476Y-41225714D01*
X16778095Y-41035238D01*
X16873333Y-40940000D01*
X16968571Y-40892380D01*
X17159047Y-40892380D01*
X17254285Y-40940000D01*
X17349523Y-41035238D01*
X17397142Y-41225714D01*
X17397142Y-41559047D01*
X17349523Y-41749523D01*
X17254285Y-41844761D01*
X17159047Y-41892380D01*
X16968571Y-41892380D01*
X17778095Y-40987619D02*
X17825714Y-40940000D01*
X17920952Y-40892380D01*
X18159047Y-40892380D01*
X18254285Y-40940000D01*
X18301904Y-40987619D01*
X18349523Y-41082857D01*
X18349523Y-41178095D01*
X18301904Y-41320952D01*
X17730476Y-41892380D01*
X18349523Y-41892380D01*
X18444761Y-78987619D02*
X18349523Y-78940000D01*
X18254285Y-78844761D01*
X18111428Y-78701904D01*
X18016190Y-78654285D01*
X17920952Y-78654285D01*
X17968571Y-78892380D02*
X17873333Y-78844761D01*
X17778095Y-78749523D01*
X17730476Y-78559047D01*
X17730476Y-78225714D01*
X17778095Y-78035238D01*
X17873333Y-77940000D01*
X17968571Y-77892380D01*
X18159047Y-77892380D01*
X18254285Y-77940000D01*
X18349523Y-78035238D01*
X18397142Y-78225714D01*
X18397142Y-78559047D01*
X18349523Y-78749523D01*
X18254285Y-78844761D01*
X18159047Y-78892380D01*
X17968571Y-78892380D01*
X18730476Y-77892380D02*
X19349523Y-77892380D01*
X19016190Y-78273333D01*
X19159047Y-78273333D01*
X19254285Y-78320952D01*
X19301904Y-78368571D01*
X19349523Y-78463809D01*
X19349523Y-78701904D01*
X19301904Y-78797142D01*
X19254285Y-78844761D01*
X19159047Y-78892380D01*
X18873333Y-78892380D01*
X18778095Y-78844761D01*
X18730476Y-78797142D01*
X18444761Y-85987619D02*
X18349523Y-85940000D01*
X18254285Y-85844761D01*
X18111428Y-85701904D01*
X18016190Y-85654285D01*
X17920952Y-85654285D01*
X17968571Y-85892380D02*
X17873333Y-85844761D01*
X17778095Y-85749523D01*
X17730476Y-85559047D01*
X17730476Y-85225714D01*
X17778095Y-85035238D01*
X17873333Y-84940000D01*
X17968571Y-84892380D01*
X18159047Y-84892380D01*
X18254285Y-84940000D01*
X18349523Y-85035238D01*
X18397142Y-85225714D01*
X18397142Y-85559047D01*
X18349523Y-85749523D01*
X18254285Y-85844761D01*
X18159047Y-85892380D01*
X17968571Y-85892380D01*
X19254285Y-85225714D02*
X19254285Y-85892380D01*
X19016190Y-84844761D02*
X18778095Y-85559047D01*
X19397142Y-85559047D01*
X18718060Y-13081586D02*
X18241870Y-13414920D01*
X18718060Y-13653015D02*
X17718060Y-13653015D01*
X17718060Y-13272062D01*
X17765680Y-13176824D01*
X17813299Y-13129205D01*
X17908537Y-13081586D01*
X18051394Y-13081586D01*
X18146632Y-13129205D01*
X18194251Y-13176824D01*
X18241870Y-13272062D01*
X18241870Y-13653015D01*
X18718060Y-12129205D02*
X18718060Y-12700634D01*
X18718060Y-12414920D02*
X17718060Y-12414920D01*
X17860918Y-12510158D01*
X17956156Y-12605396D01*
X18003775Y-12700634D01*
X18762380Y-55246666D02*
X18286190Y-55580000D01*
X18762380Y-55818095D02*
X17762380Y-55818095D01*
X17762380Y-55437142D01*
X17810000Y-55341904D01*
X17857619Y-55294285D01*
X17952857Y-55246666D01*
X18095714Y-55246666D01*
X18190952Y-55294285D01*
X18238571Y-55341904D01*
X18286190Y-55437142D01*
X18286190Y-55818095D01*
X17857619Y-54865714D02*
X17810000Y-54818095D01*
X17762380Y-54722857D01*
X17762380Y-54484761D01*
X17810000Y-54389523D01*
X17857619Y-54341904D01*
X17952857Y-54294285D01*
X18048095Y-54294285D01*
X18190952Y-54341904D01*
X18762380Y-54913333D01*
X18762380Y-54294285D01*
X23822200Y-55226346D02*
X23346010Y-55559680D01*
X23822200Y-55797775D02*
X22822200Y-55797775D01*
X22822200Y-55416822D01*
X22869820Y-55321584D01*
X22917439Y-55273965D01*
X23012677Y-55226346D01*
X23155534Y-55226346D01*
X23250772Y-55273965D01*
X23298391Y-55321584D01*
X23346010Y-55416822D01*
X23346010Y-55797775D01*
X22822200Y-54893013D02*
X22822200Y-54273965D01*
X23203153Y-54607299D01*
X23203153Y-54464441D01*
X23250772Y-54369203D01*
X23298391Y-54321584D01*
X23393629Y-54273965D01*
X23631724Y-54273965D01*
X23726962Y-54321584D01*
X23774581Y-54369203D01*
X23822200Y-54464441D01*
X23822200Y-54750156D01*
X23774581Y-54845394D01*
X23726962Y-54893013D01*
X18762380Y-68246666D02*
X18286190Y-68580000D01*
X18762380Y-68818095D02*
X17762380Y-68818095D01*
X17762380Y-68437142D01*
X17810000Y-68341904D01*
X17857619Y-68294285D01*
X17952857Y-68246666D01*
X18095714Y-68246666D01*
X18190952Y-68294285D01*
X18238571Y-68341904D01*
X18286190Y-68437142D01*
X18286190Y-68818095D01*
X18095714Y-67389523D02*
X18762380Y-67389523D01*
X17714761Y-67627619D02*
X18429047Y-67865714D01*
X18429047Y-67246666D01*
X27913333Y-26642380D02*
X27580000Y-26166190D01*
X27341904Y-26642380D02*
X27341904Y-25642380D01*
X27722857Y-25642380D01*
X27818095Y-25690000D01*
X27865714Y-25737619D01*
X27913333Y-25832857D01*
X27913333Y-25975714D01*
X27865714Y-26070952D01*
X27818095Y-26118571D01*
X27722857Y-26166190D01*
X27341904Y-26166190D01*
X28770476Y-25642380D02*
X28580000Y-25642380D01*
X28484761Y-25690000D01*
X28437142Y-25737619D01*
X28341904Y-25880476D01*
X28294285Y-26070952D01*
X28294285Y-26451904D01*
X28341904Y-26547142D01*
X28389523Y-26594761D01*
X28484761Y-26642380D01*
X28675238Y-26642380D01*
X28770476Y-26594761D01*
X28818095Y-26547142D01*
X28865714Y-26451904D01*
X28865714Y-26213809D01*
X28818095Y-26118571D01*
X28770476Y-26070952D01*
X28675238Y-26023333D01*
X28484761Y-26023333D01*
X28389523Y-26070952D01*
X28341904Y-26118571D01*
X28294285Y-26213809D01*
X27880313Y-39212780D02*
X27546980Y-38736590D01*
X27308884Y-39212780D02*
X27308884Y-38212780D01*
X27689837Y-38212780D01*
X27785075Y-38260400D01*
X27832694Y-38308019D01*
X27880313Y-38403257D01*
X27880313Y-38546114D01*
X27832694Y-38641352D01*
X27785075Y-38688971D01*
X27689837Y-38736590D01*
X27308884Y-38736590D01*
X28213646Y-38212780D02*
X28880313Y-38212780D01*
X28451741Y-39212780D01*
X23756880Y-68246666D02*
X23280690Y-68580000D01*
X23756880Y-68818095D02*
X22756880Y-68818095D01*
X22756880Y-68437142D01*
X22804500Y-68341904D01*
X22852119Y-68294285D01*
X22947357Y-68246666D01*
X23090214Y-68246666D01*
X23185452Y-68294285D01*
X23233071Y-68341904D01*
X23280690Y-68437142D01*
X23280690Y-68818095D01*
X23185452Y-67675238D02*
X23137833Y-67770476D01*
X23090214Y-67818095D01*
X22994976Y-67865714D01*
X22947357Y-67865714D01*
X22852119Y-67818095D01*
X22804500Y-67770476D01*
X22756880Y-67675238D01*
X22756880Y-67484761D01*
X22804500Y-67389523D01*
X22852119Y-67341904D01*
X22947357Y-67294285D01*
X22994976Y-67294285D01*
X23090214Y-67341904D01*
X23137833Y-67389523D01*
X23185452Y-67484761D01*
X23185452Y-67675238D01*
X23233071Y-67770476D01*
X23280690Y-67818095D01*
X23375928Y-67865714D01*
X23566404Y-67865714D01*
X23661642Y-67818095D01*
X23709261Y-67770476D01*
X23756880Y-67675238D01*
X23756880Y-67484761D01*
X23709261Y-67389523D01*
X23661642Y-67341904D01*
X23566404Y-67294285D01*
X23375928Y-67294285D01*
X23280690Y-67341904D01*
X23233071Y-67389523D01*
X23185452Y-67484761D01*
X23762380Y-7246666D02*
X23286190Y-7580000D01*
X23762380Y-7818095D02*
X22762380Y-7818095D01*
X22762380Y-7437142D01*
X22810000Y-7341904D01*
X22857619Y-7294285D01*
X22952857Y-7246666D01*
X23095714Y-7246666D01*
X23190952Y-7294285D01*
X23238571Y-7341904D01*
X23286190Y-7437142D01*
X23286190Y-7818095D01*
X23762380Y-6770476D02*
X23762380Y-6580000D01*
X23714761Y-6484761D01*
X23667142Y-6437142D01*
X23524285Y-6341904D01*
X23333809Y-6294285D01*
X22952857Y-6294285D01*
X22857619Y-6341904D01*
X22810000Y-6389523D01*
X22762380Y-6484761D01*
X22762380Y-6675238D01*
X22810000Y-6770476D01*
X22857619Y-6818095D01*
X22952857Y-6865714D01*
X23190952Y-6865714D01*
X23286190Y-6818095D01*
X23333809Y-6770476D01*
X23381428Y-6675238D01*
X23381428Y-6484761D01*
X23333809Y-6389523D01*
X23286190Y-6341904D01*
X23190952Y-6294285D01*
X29434602Y-77237500D02*
X29101269Y-76761310D01*
X28863174Y-77237500D02*
X28863174Y-76237500D01*
X29244126Y-76237500D01*
X29339364Y-76285120D01*
X29386983Y-76332739D01*
X29434602Y-76427977D01*
X29434602Y-76570834D01*
X29386983Y-76666072D01*
X29339364Y-76713691D01*
X29244126Y-76761310D01*
X28863174Y-76761310D01*
X30386983Y-77237500D02*
X29815555Y-77237500D01*
X30101269Y-77237500D02*
X30101269Y-76237500D01*
X30006031Y-76380358D01*
X29910793Y-76475596D01*
X29815555Y-76523215D01*
X31006031Y-76237500D02*
X31101269Y-76237500D01*
X31196507Y-76285120D01*
X31244126Y-76332739D01*
X31291745Y-76427977D01*
X31339364Y-76618453D01*
X31339364Y-76856548D01*
X31291745Y-77047024D01*
X31244126Y-77142262D01*
X31196507Y-77189881D01*
X31101269Y-77237500D01*
X31006031Y-77237500D01*
X30910793Y-77189881D01*
X30863174Y-77142262D01*
X30815555Y-77047024D01*
X30767936Y-76856548D01*
X30767936Y-76618453D01*
X30815555Y-76427977D01*
X30863174Y-76332739D01*
X30910793Y-76285120D01*
X31006031Y-76237500D01*
X29437142Y-62222260D02*
X29103809Y-61746070D01*
X28865714Y-62222260D02*
X28865714Y-61222260D01*
X29246666Y-61222260D01*
X29341904Y-61269880D01*
X29389523Y-61317499D01*
X29437142Y-61412737D01*
X29437142Y-61555594D01*
X29389523Y-61650832D01*
X29341904Y-61698451D01*
X29246666Y-61746070D01*
X28865714Y-61746070D01*
X30389523Y-62222260D02*
X29818095Y-62222260D01*
X30103809Y-62222260D02*
X30103809Y-61222260D01*
X30008571Y-61365118D01*
X29913333Y-61460356D01*
X29818095Y-61507975D01*
X31341904Y-62222260D02*
X30770476Y-62222260D01*
X31056190Y-62222260D02*
X31056190Y-61222260D01*
X30960952Y-61365118D01*
X30865714Y-61460356D01*
X30770476Y-61507975D01*
X29437142Y-87142380D02*
X29103809Y-86666190D01*
X28865714Y-87142380D02*
X28865714Y-86142380D01*
X29246666Y-86142380D01*
X29341904Y-86190000D01*
X29389523Y-86237619D01*
X29437142Y-86332857D01*
X29437142Y-86475714D01*
X29389523Y-86570952D01*
X29341904Y-86618571D01*
X29246666Y-86666190D01*
X28865714Y-86666190D01*
X30389523Y-87142380D02*
X29818095Y-87142380D01*
X30103809Y-87142380D02*
X30103809Y-86142380D01*
X30008571Y-86285238D01*
X29913333Y-86380476D01*
X29818095Y-86428095D01*
X30770476Y-86237619D02*
X30818095Y-86190000D01*
X30913333Y-86142380D01*
X31151428Y-86142380D01*
X31246666Y-86190000D01*
X31294285Y-86237619D01*
X31341904Y-86332857D01*
X31341904Y-86428095D01*
X31294285Y-86570952D01*
X30722857Y-87142380D01*
X31341904Y-87142380D01*
X29437142Y-72229880D02*
X29103809Y-71753690D01*
X28865714Y-72229880D02*
X28865714Y-71229880D01*
X29246666Y-71229880D01*
X29341904Y-71277500D01*
X29389523Y-71325119D01*
X29437142Y-71420357D01*
X29437142Y-71563214D01*
X29389523Y-71658452D01*
X29341904Y-71706071D01*
X29246666Y-71753690D01*
X28865714Y-71753690D01*
X30389523Y-72229880D02*
X29818095Y-72229880D01*
X30103809Y-72229880D02*
X30103809Y-71229880D01*
X30008571Y-71372738D01*
X29913333Y-71467976D01*
X29818095Y-71515595D01*
X30722857Y-71229880D02*
X31341904Y-71229880D01*
X31008571Y-71610833D01*
X31151428Y-71610833D01*
X31246666Y-71658452D01*
X31294285Y-71706071D01*
X31341904Y-71801309D01*
X31341904Y-72039404D01*
X31294285Y-72134642D01*
X31246666Y-72182261D01*
X31151428Y-72229880D01*
X30865714Y-72229880D01*
X30770476Y-72182261D01*
X30722857Y-72134642D01*
X29437142Y-82142380D02*
X29103809Y-81666190D01*
X28865714Y-82142380D02*
X28865714Y-81142380D01*
X29246666Y-81142380D01*
X29341904Y-81190000D01*
X29389523Y-81237619D01*
X29437142Y-81332857D01*
X29437142Y-81475714D01*
X29389523Y-81570952D01*
X29341904Y-81618571D01*
X29246666Y-81666190D01*
X28865714Y-81666190D01*
X30389523Y-82142380D02*
X29818095Y-82142380D01*
X30103809Y-82142380D02*
X30103809Y-81142380D01*
X30008571Y-81285238D01*
X29913333Y-81380476D01*
X29818095Y-81428095D01*
X31246666Y-81475714D02*
X31246666Y-82142380D01*
X31008571Y-81094761D02*
X30770476Y-81809047D01*
X31389523Y-81809047D01*
X15202820Y-78057777D02*
X14726630Y-78391110D01*
X15202820Y-78629205D02*
X14202820Y-78629205D01*
X14202820Y-78248253D01*
X14250440Y-78153015D01*
X14298059Y-78105396D01*
X14393297Y-78057777D01*
X14536154Y-78057777D01*
X14631392Y-78105396D01*
X14679011Y-78153015D01*
X14726630Y-78248253D01*
X14726630Y-78629205D01*
X15202820Y-77105396D02*
X15202820Y-77676824D01*
X15202820Y-77391110D02*
X14202820Y-77391110D01*
X14345678Y-77486348D01*
X14440916Y-77581586D01*
X14488535Y-77676824D01*
X14202820Y-76200634D02*
X14202820Y-76676824D01*
X14679011Y-76724443D01*
X14631392Y-76676824D01*
X14583773Y-76581586D01*
X14583773Y-76343491D01*
X14631392Y-76248253D01*
X14679011Y-76200634D01*
X14774249Y-76153015D01*
X15012344Y-76153015D01*
X15107582Y-76200634D01*
X15155201Y-76248253D01*
X15202820Y-76343491D01*
X15202820Y-76581586D01*
X15155201Y-76676824D01*
X15107582Y-76724443D01*
X29437142Y-67142380D02*
X29103809Y-66666190D01*
X28865714Y-67142380D02*
X28865714Y-66142380D01*
X29246666Y-66142380D01*
X29341904Y-66190000D01*
X29389523Y-66237619D01*
X29437142Y-66332857D01*
X29437142Y-66475714D01*
X29389523Y-66570952D01*
X29341904Y-66618571D01*
X29246666Y-66666190D01*
X28865714Y-66666190D01*
X30389523Y-67142380D02*
X29818095Y-67142380D01*
X30103809Y-67142380D02*
X30103809Y-66142380D01*
X30008571Y-66285238D01*
X29913333Y-66380476D01*
X29818095Y-66428095D01*
X31246666Y-66142380D02*
X31056190Y-66142380D01*
X30960952Y-66190000D01*
X30913333Y-66237619D01*
X30818095Y-66380476D01*
X30770476Y-66570952D01*
X30770476Y-66951904D01*
X30818095Y-67047142D01*
X30865714Y-67094761D01*
X30960952Y-67142380D01*
X31151428Y-67142380D01*
X31246666Y-67094761D01*
X31294285Y-67047142D01*
X31341904Y-66951904D01*
X31341904Y-66713809D01*
X31294285Y-66618571D01*
X31246666Y-66570952D01*
X31151428Y-66523333D01*
X30960952Y-66523333D01*
X30865714Y-66570952D01*
X30818095Y-66618571D01*
X30770476Y-66713809D01*
X7426982Y-69712980D02*
X7093649Y-69236790D01*
X6855554Y-69712980D02*
X6855554Y-68712980D01*
X7236506Y-68712980D01*
X7331744Y-68760600D01*
X7379363Y-68808219D01*
X7426982Y-68903457D01*
X7426982Y-69046314D01*
X7379363Y-69141552D01*
X7331744Y-69189171D01*
X7236506Y-69236790D01*
X6855554Y-69236790D01*
X8379363Y-69712980D02*
X7807935Y-69712980D01*
X8093649Y-69712980D02*
X8093649Y-68712980D01*
X7998411Y-68855838D01*
X7903173Y-68951076D01*
X7807935Y-68998695D01*
X8712697Y-68712980D02*
X9379363Y-68712980D01*
X8950792Y-69712980D01*
M02*
