G04 #@! TF.GenerationSoftware,KiCad,Pcbnew,(5.1.5)-3*
G04 #@! TF.CreationDate,2020-07-25T11:56:43-07:00*
G04 #@! TF.ProjectId,VCF_THT,5643465f-5448-4542-9e6b-696361645f70,rev?*
G04 #@! TF.SameCoordinates,Original*
G04 #@! TF.FileFunction,Copper,L2,Bot*
G04 #@! TF.FilePolarity,Positive*
%FSLAX46Y46*%
G04 Gerber Fmt 4.6, Leading zero omitted, Abs format (unit mm)*
G04 Created by KiCad (PCBNEW (5.1.5)-3) date 2020-07-25 11:56:43*
%MOMM*%
%LPD*%
G04 APERTURE LIST*
%ADD10C,4.600000*%
%ADD11C,1.800000*%
%ADD12R,1.600000X1.600000*%
%ADD13O,1.600000X1.600000*%
%ADD14C,1.600000*%
%ADD15R,1.700000X1.700000*%
%ADD16O,1.700000X1.700000*%
%ADD17R,1.000000X2.200000*%
%ADD18R,2.200000X1.000000*%
%ADD19C,1.580000*%
%ADD20C,1.520000*%
%ADD21R,1.520000X1.520000*%
%ADD22C,0.500000*%
%ADD23C,0.254000*%
G04 APERTURE END LIST*
D10*
X8000000Y-72500000D03*
X8000000Y-82500000D03*
D11*
X4700000Y-75000000D03*
X4700000Y-77500000D03*
X4700000Y-80000000D03*
D12*
X25500000Y-24000000D03*
D13*
X25500000Y-16380000D03*
X23000000Y-32000000D03*
D14*
X33160000Y-32000000D03*
D15*
X12440000Y-26000000D03*
D16*
X12440000Y-23460000D03*
X12440000Y-20920000D03*
X12440000Y-18380000D03*
D14*
X16000000Y-5000000D03*
X16000000Y-2500000D03*
D17*
X2000000Y-7000000D03*
D18*
X5400000Y-11500000D03*
D17*
X13000000Y-11000000D03*
D18*
X8400000Y-4500000D03*
X9800000Y-1800000D03*
X9800000Y-52800000D03*
X8400000Y-55500000D03*
D17*
X13000000Y-62000000D03*
D18*
X5400000Y-62500000D03*
D17*
X2000000Y-58000000D03*
D16*
X42080180Y-90543380D03*
X42080180Y-93083380D03*
X42080180Y-95623380D03*
D15*
X42080180Y-98163380D03*
D16*
X37540000Y-57780000D03*
X35000000Y-57780000D03*
X37540000Y-55240000D03*
X35000000Y-55240000D03*
X37540000Y-52700000D03*
X35000000Y-52700000D03*
X37540000Y-50160000D03*
X35000000Y-50160000D03*
X37540000Y-47620000D03*
X35000000Y-47620000D03*
X37540000Y-45080000D03*
X35000000Y-45080000D03*
X37540000Y-42540000D03*
X35000000Y-42540000D03*
X37540000Y-40000000D03*
D15*
X35000000Y-40000000D03*
D17*
X2000000Y-93000000D03*
D18*
X5400000Y-97500000D03*
D17*
X13000000Y-97000000D03*
D18*
X8400000Y-90500000D03*
X9800000Y-87800000D03*
D11*
X4700000Y-45000000D03*
X4700000Y-42500000D03*
X4700000Y-40000000D03*
D10*
X8000000Y-47500000D03*
X8000000Y-37500000D03*
D19*
X48877220Y-91983560D03*
X50673320Y-92727460D03*
X51417220Y-94523560D03*
X50673320Y-96319660D03*
D14*
X26500000Y-52000000D03*
D12*
X29000000Y-52000000D03*
X29000000Y-43000000D03*
D14*
X26500000Y-43000000D03*
X21000000Y-24500000D03*
X21000000Y-22000000D03*
X31452820Y-2115820D03*
X28952820Y-2115820D03*
X36500000Y-27500000D03*
X36500000Y-30000000D03*
X21000000Y-16000000D03*
X21000000Y-18500000D03*
X32500000Y-96000000D03*
D12*
X30000000Y-96000000D03*
X22000000Y-96000000D03*
D14*
X24500000Y-96000000D03*
X16000000Y-94500000D03*
X16000000Y-97000000D03*
D13*
X28500000Y-24000000D03*
D12*
X28500000Y-16380000D03*
D13*
X34000000Y-16380000D03*
D12*
X34000000Y-24000000D03*
D13*
X37000000Y-24000000D03*
D12*
X37000000Y-16380000D03*
X37000000Y-6380000D03*
D13*
X37000000Y-14000000D03*
D12*
X34000000Y-14000000D03*
D13*
X34000000Y-6380000D03*
D12*
X28500000Y-6380000D03*
D13*
X28500000Y-14000000D03*
X25500000Y-6380000D03*
D12*
X25500000Y-14000000D03*
D20*
X17540000Y-38000000D03*
X20080000Y-38000000D03*
D21*
X15000000Y-38000000D03*
X15000000Y-45000000D03*
D20*
X20080000Y-45000000D03*
X17540000Y-45000000D03*
D21*
X16000000Y-82000000D03*
D20*
X21080000Y-82000000D03*
X18540000Y-82000000D03*
X18540000Y-89000000D03*
X21080000Y-89000000D03*
D21*
X16000000Y-89000000D03*
D14*
X16000000Y-18000000D03*
D13*
X16000000Y-7840000D03*
X16000000Y-60160000D03*
D14*
X16000000Y-50000000D03*
D13*
X21000000Y-50000000D03*
D14*
X21000000Y-60160000D03*
X16000000Y-63000000D03*
D13*
X16000000Y-73160000D03*
D14*
X23000000Y-28500000D03*
D13*
X33160000Y-28500000D03*
X33160000Y-36500000D03*
D14*
X23000000Y-36500000D03*
X21000000Y-73160000D03*
D13*
X21000000Y-63000000D03*
X21000000Y-12160000D03*
D14*
X21000000Y-2000000D03*
D13*
X25000000Y-79000000D03*
D14*
X35160000Y-79000000D03*
D13*
X25000000Y-64000000D03*
D14*
X35160000Y-64000000D03*
X25000000Y-89000000D03*
D13*
X35160000Y-89000000D03*
D14*
X35160000Y-74000000D03*
D13*
X25000000Y-74000000D03*
X35160000Y-84000000D03*
D14*
X25000000Y-84000000D03*
X12500000Y-82500000D03*
D13*
X12500000Y-72340000D03*
X35160000Y-69000000D03*
D14*
X25000000Y-69000000D03*
X3000000Y-67000000D03*
D13*
X13160000Y-67000000D03*
D22*
X33160000Y-36500000D02*
X31958080Y-36500000D01*
X29000000Y-39458080D02*
X29000000Y-43000000D01*
X31958080Y-36500000D02*
X29000000Y-39458080D01*
X29000000Y-44300000D02*
X29000000Y-52000000D01*
X29000000Y-43000000D02*
X29000000Y-44300000D01*
X29000000Y-53300000D02*
X29000000Y-52000000D01*
X22131370Y-63000000D02*
X29000000Y-56131370D01*
X29000000Y-56131370D02*
X29000000Y-53300000D01*
X21000000Y-63000000D02*
X22131370Y-63000000D01*
X16000000Y-90260000D02*
X16611040Y-90871040D01*
X16000000Y-89000000D02*
X16000000Y-90260000D01*
X23128960Y-90871040D02*
X25000000Y-89000000D01*
X22000000Y-90955920D02*
X22000000Y-96000000D01*
X21915120Y-90871040D02*
X22000000Y-90955920D01*
X21915120Y-90871040D02*
X23128960Y-90871040D01*
X16611040Y-90871040D02*
X21915120Y-90871040D01*
X30000000Y-97300000D02*
X30000000Y-96000000D01*
X22363000Y-97663000D02*
X29637000Y-97663000D01*
X29637000Y-97663000D02*
X30000000Y-97300000D01*
X22000000Y-96000000D02*
X22000000Y-97300000D01*
X22000000Y-97300000D02*
X22363000Y-97663000D01*
X25799999Y-79799999D02*
X25000000Y-79000000D01*
X26525220Y-80525220D02*
X25799999Y-79799999D01*
X25000000Y-89000000D02*
X26525220Y-87474780D01*
X26525220Y-87474780D02*
X26525220Y-80525220D01*
X23868630Y-79000000D02*
X25000000Y-79000000D01*
X19649999Y-74781369D02*
X23868630Y-79000000D01*
X19649999Y-72351999D02*
X19649999Y-74781369D01*
X30350001Y-61651997D02*
X19649999Y-72351999D01*
X30350001Y-42168615D02*
X30350001Y-61651997D01*
X34510001Y-38008615D02*
X30350001Y-42168615D01*
X34510001Y-33350001D02*
X34510001Y-38008615D01*
X33160000Y-32000000D02*
X34510001Y-33350001D01*
X35160000Y-79000000D02*
X33035240Y-76875240D01*
X33035240Y-52124760D02*
X35000000Y-50160000D01*
X33035240Y-76875240D02*
X33035240Y-52124760D01*
X35959999Y-79799999D02*
X35160000Y-79000000D01*
X31587862Y-98910140D02*
X37099240Y-93398762D01*
X37099240Y-93398762D02*
X37099240Y-80939240D01*
X2494200Y-40000000D02*
X797560Y-41696640D01*
X797560Y-41696640D02*
X797560Y-97149920D01*
X37099240Y-80939240D02*
X35959999Y-79799999D01*
X4700000Y-40000000D02*
X2494200Y-40000000D01*
X797560Y-97149920D02*
X2557780Y-98910140D01*
X2557780Y-98910140D02*
X31587862Y-98910140D01*
X21799999Y-72360001D02*
X24431779Y-72360001D01*
X21000000Y-73160000D02*
X21799999Y-72360001D01*
X33650000Y-40000000D02*
X35000000Y-40000000D01*
X32235230Y-41414770D02*
X33650000Y-40000000D01*
X32235230Y-64556550D02*
X32235230Y-41414770D01*
X24431779Y-72360001D02*
X32235230Y-64556550D01*
D23*
G36*
X32150240Y-76831771D02*
G01*
X32145959Y-76875240D01*
X32150240Y-76918709D01*
X32150240Y-76918716D01*
X32163045Y-77048729D01*
X32213651Y-77215552D01*
X32295829Y-77369298D01*
X32406423Y-77504057D01*
X32440196Y-77531774D01*
X33731983Y-78823561D01*
X33725000Y-78858665D01*
X33725000Y-79141335D01*
X33780147Y-79418574D01*
X33888320Y-79679727D01*
X34045363Y-79914759D01*
X34245241Y-80114637D01*
X34480273Y-80271680D01*
X34741426Y-80379853D01*
X35018665Y-80435000D01*
X35301335Y-80435000D01*
X35336438Y-80428017D01*
X35364952Y-80456531D01*
X35364957Y-80456535D01*
X36214241Y-81305820D01*
X36214241Y-83024845D01*
X36074759Y-82885363D01*
X35839727Y-82728320D01*
X35578574Y-82620147D01*
X35301335Y-82565000D01*
X35018665Y-82565000D01*
X34741426Y-82620147D01*
X34480273Y-82728320D01*
X34245241Y-82885363D01*
X34045363Y-83085241D01*
X33888320Y-83320273D01*
X33780147Y-83581426D01*
X33725000Y-83858665D01*
X33725000Y-84141335D01*
X33780147Y-84418574D01*
X33888320Y-84679727D01*
X34045363Y-84914759D01*
X34245241Y-85114637D01*
X34480273Y-85271680D01*
X34741426Y-85379853D01*
X35018665Y-85435000D01*
X35301335Y-85435000D01*
X35578574Y-85379853D01*
X35839727Y-85271680D01*
X36074759Y-85114637D01*
X36214241Y-84975155D01*
X36214240Y-88024844D01*
X36074759Y-87885363D01*
X35839727Y-87728320D01*
X35578574Y-87620147D01*
X35301335Y-87565000D01*
X35018665Y-87565000D01*
X34741426Y-87620147D01*
X34480273Y-87728320D01*
X34245241Y-87885363D01*
X34045363Y-88085241D01*
X33888320Y-88320273D01*
X33780147Y-88581426D01*
X33725000Y-88858665D01*
X33725000Y-89141335D01*
X33780147Y-89418574D01*
X33888320Y-89679727D01*
X34045363Y-89914759D01*
X34245241Y-90114637D01*
X34480273Y-90271680D01*
X34741426Y-90379853D01*
X35018665Y-90435000D01*
X35301335Y-90435000D01*
X35578574Y-90379853D01*
X35839727Y-90271680D01*
X36074759Y-90114637D01*
X36214240Y-89975156D01*
X36214240Y-93032183D01*
X33819174Y-95427249D01*
X33803603Y-95383708D01*
X33736671Y-95258486D01*
X33492702Y-95186903D01*
X32679605Y-96000000D01*
X32693748Y-96014143D01*
X32514143Y-96193748D01*
X32500000Y-96179605D01*
X31686903Y-96992702D01*
X31758486Y-97236671D01*
X31929048Y-97317376D01*
X31221284Y-98025140D01*
X30526438Y-98025140D01*
X30595045Y-97956533D01*
X30628817Y-97928817D01*
X30739411Y-97794059D01*
X30819630Y-97643979D01*
X30821589Y-97640314D01*
X30872195Y-97473490D01*
X30875683Y-97438072D01*
X30876425Y-97430545D01*
X30924482Y-97425812D01*
X31044180Y-97389502D01*
X31154494Y-97330537D01*
X31251185Y-97251185D01*
X31330537Y-97154494D01*
X31389502Y-97044180D01*
X31425812Y-96924482D01*
X31438072Y-96800000D01*
X31438072Y-96792785D01*
X31507298Y-96813097D01*
X32320395Y-96000000D01*
X31507298Y-95186903D01*
X31438072Y-95207215D01*
X31438072Y-95200000D01*
X31425812Y-95075518D01*
X31405118Y-95007298D01*
X31686903Y-95007298D01*
X32500000Y-95820395D01*
X33313097Y-95007298D01*
X33241514Y-94763329D01*
X32986004Y-94642429D01*
X32711816Y-94573700D01*
X32429488Y-94559783D01*
X32149870Y-94601213D01*
X31883708Y-94696397D01*
X31758486Y-94763329D01*
X31686903Y-95007298D01*
X31405118Y-95007298D01*
X31389502Y-94955820D01*
X31330537Y-94845506D01*
X31251185Y-94748815D01*
X31154494Y-94669463D01*
X31044180Y-94610498D01*
X30924482Y-94574188D01*
X30800000Y-94561928D01*
X29200000Y-94561928D01*
X29075518Y-94574188D01*
X28955820Y-94610498D01*
X28845506Y-94669463D01*
X28748815Y-94748815D01*
X28669463Y-94845506D01*
X28610498Y-94955820D01*
X28574188Y-95075518D01*
X28561928Y-95200000D01*
X28561928Y-96778000D01*
X25612320Y-96778000D01*
X25736671Y-96741514D01*
X25857571Y-96486004D01*
X25926300Y-96211816D01*
X25940217Y-95929488D01*
X25898787Y-95649870D01*
X25803603Y-95383708D01*
X25736671Y-95258486D01*
X25492702Y-95186903D01*
X24679605Y-96000000D01*
X24693748Y-96014143D01*
X24514143Y-96193748D01*
X24500000Y-96179605D01*
X24485858Y-96193748D01*
X24306253Y-96014143D01*
X24320395Y-96000000D01*
X23507298Y-95186903D01*
X23438072Y-95207215D01*
X23438072Y-95200000D01*
X23425812Y-95075518D01*
X23405118Y-95007298D01*
X23686903Y-95007298D01*
X24500000Y-95820395D01*
X25313097Y-95007298D01*
X25241514Y-94763329D01*
X24986004Y-94642429D01*
X24711816Y-94573700D01*
X24429488Y-94559783D01*
X24149870Y-94601213D01*
X23883708Y-94696397D01*
X23758486Y-94763329D01*
X23686903Y-95007298D01*
X23405118Y-95007298D01*
X23389502Y-94955820D01*
X23330537Y-94845506D01*
X23251185Y-94748815D01*
X23154494Y-94669463D01*
X23044180Y-94610498D01*
X22924482Y-94574188D01*
X22885000Y-94570299D01*
X22885000Y-91756040D01*
X23085491Y-91756040D01*
X23128960Y-91760321D01*
X23172429Y-91756040D01*
X23172437Y-91756040D01*
X23302450Y-91743235D01*
X23469273Y-91692629D01*
X23623019Y-91610451D01*
X23757777Y-91499857D01*
X23785494Y-91466084D01*
X24823561Y-90428017D01*
X24858665Y-90435000D01*
X25141335Y-90435000D01*
X25418574Y-90379853D01*
X25679727Y-90271680D01*
X25914759Y-90114637D01*
X26114637Y-89914759D01*
X26271680Y-89679727D01*
X26379853Y-89418574D01*
X26435000Y-89141335D01*
X26435000Y-88858665D01*
X26428017Y-88823561D01*
X27120270Y-88131309D01*
X27154037Y-88103597D01*
X27264631Y-87968839D01*
X27346809Y-87815093D01*
X27397415Y-87648270D01*
X27410220Y-87518257D01*
X27410220Y-87518249D01*
X27414501Y-87474780D01*
X27410220Y-87431311D01*
X27410220Y-80568685D01*
X27414501Y-80525219D01*
X27410220Y-80481753D01*
X27410220Y-80481743D01*
X27397415Y-80351730D01*
X27346809Y-80184907D01*
X27264631Y-80031161D01*
X27240430Y-80001672D01*
X27181752Y-79930173D01*
X27181750Y-79930171D01*
X27154037Y-79896403D01*
X27120269Y-79868690D01*
X26456535Y-79204957D01*
X26456531Y-79204952D01*
X26428017Y-79176438D01*
X26435000Y-79141335D01*
X26435000Y-78858665D01*
X26379853Y-78581426D01*
X26271680Y-78320273D01*
X26114637Y-78085241D01*
X25914759Y-77885363D01*
X25679727Y-77728320D01*
X25418574Y-77620147D01*
X25141335Y-77565000D01*
X24858665Y-77565000D01*
X24581426Y-77620147D01*
X24320273Y-77728320D01*
X24085241Y-77885363D01*
X24045406Y-77925198D01*
X20679587Y-74559379D01*
X20858665Y-74595000D01*
X21141335Y-74595000D01*
X21418574Y-74539853D01*
X21679727Y-74431680D01*
X21803408Y-74349039D01*
X23608096Y-74349039D01*
X23648754Y-74483087D01*
X23768963Y-74737420D01*
X23936481Y-74963414D01*
X24144869Y-75152385D01*
X24386119Y-75297070D01*
X24650960Y-75391909D01*
X24873000Y-75270624D01*
X24873000Y-74127000D01*
X25127000Y-74127000D01*
X25127000Y-75270624D01*
X25349040Y-75391909D01*
X25613881Y-75297070D01*
X25855131Y-75152385D01*
X26063519Y-74963414D01*
X26231037Y-74737420D01*
X26351246Y-74483087D01*
X26391904Y-74349039D01*
X26269915Y-74127000D01*
X25127000Y-74127000D01*
X24873000Y-74127000D01*
X23730085Y-74127000D01*
X23608096Y-74349039D01*
X21803408Y-74349039D01*
X21914759Y-74274637D01*
X22114637Y-74074759D01*
X22271680Y-73839727D01*
X22379853Y-73578574D01*
X22435000Y-73301335D01*
X22435000Y-73245001D01*
X23781993Y-73245001D01*
X23768963Y-73262580D01*
X23648754Y-73516913D01*
X23608096Y-73650961D01*
X23730085Y-73873000D01*
X24873000Y-73873000D01*
X24873000Y-73853000D01*
X25127000Y-73853000D01*
X25127000Y-73873000D01*
X26269915Y-73873000D01*
X26391904Y-73650961D01*
X26351246Y-73516913D01*
X26231037Y-73262580D01*
X26063519Y-73036586D01*
X25855131Y-72847615D01*
X25613881Y-72702930D01*
X25412531Y-72630827D01*
X32150240Y-65893118D01*
X32150240Y-76831771D01*
G37*
X32150240Y-76831771D02*
X32145959Y-76875240D01*
X32150240Y-76918709D01*
X32150240Y-76918716D01*
X32163045Y-77048729D01*
X32213651Y-77215552D01*
X32295829Y-77369298D01*
X32406423Y-77504057D01*
X32440196Y-77531774D01*
X33731983Y-78823561D01*
X33725000Y-78858665D01*
X33725000Y-79141335D01*
X33780147Y-79418574D01*
X33888320Y-79679727D01*
X34045363Y-79914759D01*
X34245241Y-80114637D01*
X34480273Y-80271680D01*
X34741426Y-80379853D01*
X35018665Y-80435000D01*
X35301335Y-80435000D01*
X35336438Y-80428017D01*
X35364952Y-80456531D01*
X35364957Y-80456535D01*
X36214241Y-81305820D01*
X36214241Y-83024845D01*
X36074759Y-82885363D01*
X35839727Y-82728320D01*
X35578574Y-82620147D01*
X35301335Y-82565000D01*
X35018665Y-82565000D01*
X34741426Y-82620147D01*
X34480273Y-82728320D01*
X34245241Y-82885363D01*
X34045363Y-83085241D01*
X33888320Y-83320273D01*
X33780147Y-83581426D01*
X33725000Y-83858665D01*
X33725000Y-84141335D01*
X33780147Y-84418574D01*
X33888320Y-84679727D01*
X34045363Y-84914759D01*
X34245241Y-85114637D01*
X34480273Y-85271680D01*
X34741426Y-85379853D01*
X35018665Y-85435000D01*
X35301335Y-85435000D01*
X35578574Y-85379853D01*
X35839727Y-85271680D01*
X36074759Y-85114637D01*
X36214241Y-84975155D01*
X36214240Y-88024844D01*
X36074759Y-87885363D01*
X35839727Y-87728320D01*
X35578574Y-87620147D01*
X35301335Y-87565000D01*
X35018665Y-87565000D01*
X34741426Y-87620147D01*
X34480273Y-87728320D01*
X34245241Y-87885363D01*
X34045363Y-88085241D01*
X33888320Y-88320273D01*
X33780147Y-88581426D01*
X33725000Y-88858665D01*
X33725000Y-89141335D01*
X33780147Y-89418574D01*
X33888320Y-89679727D01*
X34045363Y-89914759D01*
X34245241Y-90114637D01*
X34480273Y-90271680D01*
X34741426Y-90379853D01*
X35018665Y-90435000D01*
X35301335Y-90435000D01*
X35578574Y-90379853D01*
X35839727Y-90271680D01*
X36074759Y-90114637D01*
X36214240Y-89975156D01*
X36214240Y-93032183D01*
X33819174Y-95427249D01*
X33803603Y-95383708D01*
X33736671Y-95258486D01*
X33492702Y-95186903D01*
X32679605Y-96000000D01*
X32693748Y-96014143D01*
X32514143Y-96193748D01*
X32500000Y-96179605D01*
X31686903Y-96992702D01*
X31758486Y-97236671D01*
X31929048Y-97317376D01*
X31221284Y-98025140D01*
X30526438Y-98025140D01*
X30595045Y-97956533D01*
X30628817Y-97928817D01*
X30739411Y-97794059D01*
X30819630Y-97643979D01*
X30821589Y-97640314D01*
X30872195Y-97473490D01*
X30875683Y-97438072D01*
X30876425Y-97430545D01*
X30924482Y-97425812D01*
X31044180Y-97389502D01*
X31154494Y-97330537D01*
X31251185Y-97251185D01*
X31330537Y-97154494D01*
X31389502Y-97044180D01*
X31425812Y-96924482D01*
X31438072Y-96800000D01*
X31438072Y-96792785D01*
X31507298Y-96813097D01*
X32320395Y-96000000D01*
X31507298Y-95186903D01*
X31438072Y-95207215D01*
X31438072Y-95200000D01*
X31425812Y-95075518D01*
X31405118Y-95007298D01*
X31686903Y-95007298D01*
X32500000Y-95820395D01*
X33313097Y-95007298D01*
X33241514Y-94763329D01*
X32986004Y-94642429D01*
X32711816Y-94573700D01*
X32429488Y-94559783D01*
X32149870Y-94601213D01*
X31883708Y-94696397D01*
X31758486Y-94763329D01*
X31686903Y-95007298D01*
X31405118Y-95007298D01*
X31389502Y-94955820D01*
X31330537Y-94845506D01*
X31251185Y-94748815D01*
X31154494Y-94669463D01*
X31044180Y-94610498D01*
X30924482Y-94574188D01*
X30800000Y-94561928D01*
X29200000Y-94561928D01*
X29075518Y-94574188D01*
X28955820Y-94610498D01*
X28845506Y-94669463D01*
X28748815Y-94748815D01*
X28669463Y-94845506D01*
X28610498Y-94955820D01*
X28574188Y-95075518D01*
X28561928Y-95200000D01*
X28561928Y-96778000D01*
X25612320Y-96778000D01*
X25736671Y-96741514D01*
X25857571Y-96486004D01*
X25926300Y-96211816D01*
X25940217Y-95929488D01*
X25898787Y-95649870D01*
X25803603Y-95383708D01*
X25736671Y-95258486D01*
X25492702Y-95186903D01*
X24679605Y-96000000D01*
X24693748Y-96014143D01*
X24514143Y-96193748D01*
X24500000Y-96179605D01*
X24485858Y-96193748D01*
X24306253Y-96014143D01*
X24320395Y-96000000D01*
X23507298Y-95186903D01*
X23438072Y-95207215D01*
X23438072Y-95200000D01*
X23425812Y-95075518D01*
X23405118Y-95007298D01*
X23686903Y-95007298D01*
X24500000Y-95820395D01*
X25313097Y-95007298D01*
X25241514Y-94763329D01*
X24986004Y-94642429D01*
X24711816Y-94573700D01*
X24429488Y-94559783D01*
X24149870Y-94601213D01*
X23883708Y-94696397D01*
X23758486Y-94763329D01*
X23686903Y-95007298D01*
X23405118Y-95007298D01*
X23389502Y-94955820D01*
X23330537Y-94845506D01*
X23251185Y-94748815D01*
X23154494Y-94669463D01*
X23044180Y-94610498D01*
X22924482Y-94574188D01*
X22885000Y-94570299D01*
X22885000Y-91756040D01*
X23085491Y-91756040D01*
X23128960Y-91760321D01*
X23172429Y-91756040D01*
X23172437Y-91756040D01*
X23302450Y-91743235D01*
X23469273Y-91692629D01*
X23623019Y-91610451D01*
X23757777Y-91499857D01*
X23785494Y-91466084D01*
X24823561Y-90428017D01*
X24858665Y-90435000D01*
X25141335Y-90435000D01*
X25418574Y-90379853D01*
X25679727Y-90271680D01*
X25914759Y-90114637D01*
X26114637Y-89914759D01*
X26271680Y-89679727D01*
X26379853Y-89418574D01*
X26435000Y-89141335D01*
X26435000Y-88858665D01*
X26428017Y-88823561D01*
X27120270Y-88131309D01*
X27154037Y-88103597D01*
X27264631Y-87968839D01*
X27346809Y-87815093D01*
X27397415Y-87648270D01*
X27410220Y-87518257D01*
X27410220Y-87518249D01*
X27414501Y-87474780D01*
X27410220Y-87431311D01*
X27410220Y-80568685D01*
X27414501Y-80525219D01*
X27410220Y-80481753D01*
X27410220Y-80481743D01*
X27397415Y-80351730D01*
X27346809Y-80184907D01*
X27264631Y-80031161D01*
X27240430Y-80001672D01*
X27181752Y-79930173D01*
X27181750Y-79930171D01*
X27154037Y-79896403D01*
X27120269Y-79868690D01*
X26456535Y-79204957D01*
X26456531Y-79204952D01*
X26428017Y-79176438D01*
X26435000Y-79141335D01*
X26435000Y-78858665D01*
X26379853Y-78581426D01*
X26271680Y-78320273D01*
X26114637Y-78085241D01*
X25914759Y-77885363D01*
X25679727Y-77728320D01*
X25418574Y-77620147D01*
X25141335Y-77565000D01*
X24858665Y-77565000D01*
X24581426Y-77620147D01*
X24320273Y-77728320D01*
X24085241Y-77885363D01*
X24045406Y-77925198D01*
X20679587Y-74559379D01*
X20858665Y-74595000D01*
X21141335Y-74595000D01*
X21418574Y-74539853D01*
X21679727Y-74431680D01*
X21803408Y-74349039D01*
X23608096Y-74349039D01*
X23648754Y-74483087D01*
X23768963Y-74737420D01*
X23936481Y-74963414D01*
X24144869Y-75152385D01*
X24386119Y-75297070D01*
X24650960Y-75391909D01*
X24873000Y-75270624D01*
X24873000Y-74127000D01*
X25127000Y-74127000D01*
X25127000Y-75270624D01*
X25349040Y-75391909D01*
X25613881Y-75297070D01*
X25855131Y-75152385D01*
X26063519Y-74963414D01*
X26231037Y-74737420D01*
X26351246Y-74483087D01*
X26391904Y-74349039D01*
X26269915Y-74127000D01*
X25127000Y-74127000D01*
X24873000Y-74127000D01*
X23730085Y-74127000D01*
X23608096Y-74349039D01*
X21803408Y-74349039D01*
X21914759Y-74274637D01*
X22114637Y-74074759D01*
X22271680Y-73839727D01*
X22379853Y-73578574D01*
X22435000Y-73301335D01*
X22435000Y-73245001D01*
X23781993Y-73245001D01*
X23768963Y-73262580D01*
X23648754Y-73516913D01*
X23608096Y-73650961D01*
X23730085Y-73873000D01*
X24873000Y-73873000D01*
X24873000Y-73853000D01*
X25127000Y-73853000D01*
X25127000Y-73873000D01*
X26269915Y-73873000D01*
X26391904Y-73650961D01*
X26351246Y-73516913D01*
X26231037Y-73262580D01*
X26063519Y-73036586D01*
X25855131Y-72847615D01*
X25613881Y-72702930D01*
X25412531Y-72630827D01*
X32150240Y-65893118D01*
X32150240Y-76831771D01*
G36*
X20320273Y-728320D02*
G01*
X20085241Y-885363D01*
X19885363Y-1085241D01*
X19728320Y-1320273D01*
X19620147Y-1581426D01*
X19565000Y-1858665D01*
X19565000Y-2141335D01*
X19620147Y-2418574D01*
X19728320Y-2679727D01*
X19885363Y-2914759D01*
X20085241Y-3114637D01*
X20320273Y-3271680D01*
X20581426Y-3379853D01*
X20858665Y-3435000D01*
X21141335Y-3435000D01*
X21418574Y-3379853D01*
X21679727Y-3271680D01*
X21914759Y-3114637D01*
X22114637Y-2914759D01*
X22271680Y-2679727D01*
X22379853Y-2418574D01*
X22435000Y-2141335D01*
X22435000Y-1974485D01*
X27517820Y-1974485D01*
X27517820Y-2257155D01*
X27572967Y-2534394D01*
X27681140Y-2795547D01*
X27838183Y-3030579D01*
X28038061Y-3230457D01*
X28273093Y-3387500D01*
X28534246Y-3495673D01*
X28811485Y-3550820D01*
X29094155Y-3550820D01*
X29371394Y-3495673D01*
X29632547Y-3387500D01*
X29867579Y-3230457D01*
X30067457Y-3030579D01*
X30202820Y-2827993D01*
X30338183Y-3030579D01*
X30538061Y-3230457D01*
X30773093Y-3387500D01*
X31034246Y-3495673D01*
X31311485Y-3550820D01*
X31594155Y-3550820D01*
X31871394Y-3495673D01*
X32132547Y-3387500D01*
X32367579Y-3230457D01*
X32567457Y-3030579D01*
X32724500Y-2795547D01*
X32832673Y-2534394D01*
X32887820Y-2257155D01*
X32887820Y-1974485D01*
X32832673Y-1697246D01*
X32724500Y-1436093D01*
X32567457Y-1201061D01*
X32367579Y-1001183D01*
X32132547Y-844140D01*
X31871394Y-735967D01*
X31594155Y-680820D01*
X31311485Y-680820D01*
X31034246Y-735967D01*
X30773093Y-844140D01*
X30538061Y-1001183D01*
X30338183Y-1201061D01*
X30202820Y-1403647D01*
X30067457Y-1201061D01*
X29867579Y-1001183D01*
X29632547Y-844140D01*
X29371394Y-735967D01*
X29094155Y-680820D01*
X28811485Y-680820D01*
X28534246Y-735967D01*
X28273093Y-844140D01*
X28038061Y-1001183D01*
X27838183Y-1201061D01*
X27681140Y-1436093D01*
X27572967Y-1697246D01*
X27517820Y-1974485D01*
X22435000Y-1974485D01*
X22435000Y-1858665D01*
X22379853Y-1581426D01*
X22271680Y-1320273D01*
X22114637Y-1085241D01*
X21914759Y-885363D01*
X21679727Y-728320D01*
X21514788Y-660000D01*
X38998894Y-660000D01*
X38983048Y-39642837D01*
X38967932Y-39566842D01*
X38855990Y-39296589D01*
X38693475Y-39053368D01*
X38486632Y-38846525D01*
X38243411Y-38684010D01*
X37973158Y-38572068D01*
X37686260Y-38515000D01*
X37393740Y-38515000D01*
X37106842Y-38572068D01*
X36836589Y-38684010D01*
X36593368Y-38846525D01*
X36461513Y-38978380D01*
X36439502Y-38905820D01*
X36380537Y-38795506D01*
X36301185Y-38698815D01*
X36204494Y-38619463D01*
X36094180Y-38560498D01*
X35974482Y-38524188D01*
X35850000Y-38511928D01*
X35241817Y-38511928D01*
X35249411Y-38502675D01*
X35249412Y-38502674D01*
X35331590Y-38348928D01*
X35382196Y-38182105D01*
X35395001Y-38052092D01*
X35395001Y-38052082D01*
X35399282Y-38008616D01*
X35395001Y-37965150D01*
X35395001Y-33393470D01*
X35399282Y-33350001D01*
X35395001Y-33306532D01*
X35395001Y-33306524D01*
X35382196Y-33176511D01*
X35331590Y-33009688D01*
X35249412Y-32855942D01*
X35138818Y-32721184D01*
X35105051Y-32693472D01*
X34588017Y-32176439D01*
X34595000Y-32141335D01*
X34595000Y-31858665D01*
X34539853Y-31581426D01*
X34431680Y-31320273D01*
X34274637Y-31085241D01*
X34074759Y-30885363D01*
X33839727Y-30728320D01*
X33578574Y-30620147D01*
X33301335Y-30565000D01*
X33018665Y-30565000D01*
X32741426Y-30620147D01*
X32480273Y-30728320D01*
X32245241Y-30885363D01*
X32045363Y-31085241D01*
X31888320Y-31320273D01*
X31780147Y-31581426D01*
X31725000Y-31858665D01*
X31725000Y-32141335D01*
X31780147Y-32418574D01*
X31888320Y-32679727D01*
X32045363Y-32914759D01*
X32245241Y-33114637D01*
X32480273Y-33271680D01*
X32741426Y-33379853D01*
X33018665Y-33435000D01*
X33301335Y-33435000D01*
X33336439Y-33428017D01*
X33625001Y-33716580D01*
X33625001Y-35139378D01*
X33578574Y-35120147D01*
X33301335Y-35065000D01*
X33018665Y-35065000D01*
X32741426Y-35120147D01*
X32480273Y-35228320D01*
X32245241Y-35385363D01*
X32045363Y-35585241D01*
X32025479Y-35615000D01*
X32001549Y-35615000D01*
X31958080Y-35610719D01*
X31914611Y-35615000D01*
X31914603Y-35615000D01*
X31784590Y-35627805D01*
X31617767Y-35678411D01*
X31464021Y-35760589D01*
X31363033Y-35843468D01*
X31363031Y-35843470D01*
X31329263Y-35871183D01*
X31301550Y-35904951D01*
X28404956Y-38801546D01*
X28371183Y-38829263D01*
X28260589Y-38964022D01*
X28178411Y-39117768D01*
X28127805Y-39284591D01*
X28115000Y-39414604D01*
X28115000Y-39414611D01*
X28110719Y-39458080D01*
X28115000Y-39501549D01*
X28115001Y-41570299D01*
X28075518Y-41574188D01*
X27955820Y-41610498D01*
X27845506Y-41669463D01*
X27748815Y-41748815D01*
X27669463Y-41845506D01*
X27610498Y-41955820D01*
X27574188Y-42075518D01*
X27561928Y-42200000D01*
X27561928Y-42207215D01*
X27492702Y-42186903D01*
X26679605Y-43000000D01*
X27492702Y-43813097D01*
X27561928Y-43792785D01*
X27561928Y-43800000D01*
X27574188Y-43924482D01*
X27610498Y-44044180D01*
X27669463Y-44154494D01*
X27748815Y-44251185D01*
X27845506Y-44330537D01*
X27955820Y-44389502D01*
X28075518Y-44425812D01*
X28115000Y-44429701D01*
X28115001Y-50570299D01*
X28075518Y-50574188D01*
X27955820Y-50610498D01*
X27845506Y-50669463D01*
X27748815Y-50748815D01*
X27669463Y-50845506D01*
X27610498Y-50955820D01*
X27574188Y-51075518D01*
X27561928Y-51200000D01*
X27561928Y-51207215D01*
X27492702Y-51186903D01*
X26679605Y-52000000D01*
X27492702Y-52813097D01*
X27561928Y-52792785D01*
X27561928Y-52800000D01*
X27574188Y-52924482D01*
X27610498Y-53044180D01*
X27669463Y-53154494D01*
X27748815Y-53251185D01*
X27845506Y-53330537D01*
X27955820Y-53389502D01*
X28075518Y-53425812D01*
X28115001Y-53429701D01*
X28115000Y-55764791D01*
X21954594Y-61925198D01*
X21914759Y-61885363D01*
X21679727Y-61728320D01*
X21418574Y-61620147D01*
X21216744Y-61580000D01*
X21418574Y-61539853D01*
X21679727Y-61431680D01*
X21914759Y-61274637D01*
X22114637Y-61074759D01*
X22271680Y-60839727D01*
X22379853Y-60578574D01*
X22435000Y-60301335D01*
X22435000Y-60018665D01*
X22379853Y-59741426D01*
X22271680Y-59480273D01*
X22114637Y-59245241D01*
X21914759Y-59045363D01*
X21679727Y-58888320D01*
X21418574Y-58780147D01*
X21141335Y-58725000D01*
X20858665Y-58725000D01*
X20581426Y-58780147D01*
X20320273Y-58888320D01*
X20085241Y-59045363D01*
X19885363Y-59245241D01*
X19728320Y-59480273D01*
X19620147Y-59741426D01*
X19565000Y-60018665D01*
X19565000Y-60301335D01*
X19620147Y-60578574D01*
X19728320Y-60839727D01*
X19885363Y-61074759D01*
X20085241Y-61274637D01*
X20320273Y-61431680D01*
X20581426Y-61539853D01*
X20783256Y-61580000D01*
X20581426Y-61620147D01*
X20320273Y-61728320D01*
X20085241Y-61885363D01*
X19885363Y-62085241D01*
X19728320Y-62320273D01*
X19620147Y-62581426D01*
X19565000Y-62858665D01*
X19565000Y-63141335D01*
X19620147Y-63418574D01*
X19728320Y-63679727D01*
X19885363Y-63914759D01*
X20085241Y-64114637D01*
X20320273Y-64271680D01*
X20581426Y-64379853D01*
X20858665Y-64435000D01*
X21141335Y-64435000D01*
X21418574Y-64379853D01*
X21679727Y-64271680D01*
X21914759Y-64114637D01*
X22114637Y-63914759D01*
X22131681Y-63889250D01*
X22174839Y-63885000D01*
X22174847Y-63885000D01*
X22304860Y-63872195D01*
X22471683Y-63821589D01*
X22625429Y-63739411D01*
X22760187Y-63628817D01*
X22787904Y-63595044D01*
X29465002Y-56917947D01*
X29465002Y-61285417D01*
X26391774Y-64358646D01*
X26435000Y-64141335D01*
X26435000Y-63858665D01*
X26379853Y-63581426D01*
X26271680Y-63320273D01*
X26114637Y-63085241D01*
X25914759Y-62885363D01*
X25679727Y-62728320D01*
X25418574Y-62620147D01*
X25141335Y-62565000D01*
X24858665Y-62565000D01*
X24581426Y-62620147D01*
X24320273Y-62728320D01*
X24085241Y-62885363D01*
X23885363Y-63085241D01*
X23728320Y-63320273D01*
X23620147Y-63581426D01*
X23565000Y-63858665D01*
X23565000Y-64141335D01*
X23620147Y-64418574D01*
X23728320Y-64679727D01*
X23885363Y-64914759D01*
X24085241Y-65114637D01*
X24320273Y-65271680D01*
X24581426Y-65379853D01*
X24858665Y-65435000D01*
X25141335Y-65435000D01*
X25358646Y-65391774D01*
X19054955Y-71695465D01*
X19021182Y-71723182D01*
X18910588Y-71857941D01*
X18828410Y-72011687D01*
X18777804Y-72178510D01*
X18764999Y-72308523D01*
X18764999Y-72308530D01*
X18760718Y-72351999D01*
X18764999Y-72395468D01*
X18765000Y-74737890D01*
X18760718Y-74781369D01*
X18777804Y-74954859D01*
X18828411Y-75121682D01*
X18910589Y-75275428D01*
X18993467Y-75376415D01*
X18993470Y-75376418D01*
X19021183Y-75410186D01*
X19054950Y-75437899D01*
X23212100Y-79595049D01*
X23239813Y-79628817D01*
X23273581Y-79656530D01*
X23273583Y-79656532D01*
X23299487Y-79677791D01*
X23374571Y-79739411D01*
X23528317Y-79821589D01*
X23695140Y-79872195D01*
X23825153Y-79885000D01*
X23825163Y-79885000D01*
X23868319Y-79889250D01*
X23885363Y-79914759D01*
X24085241Y-80114637D01*
X24320273Y-80271680D01*
X24581426Y-80379853D01*
X24858665Y-80435000D01*
X25141335Y-80435000D01*
X25176438Y-80428017D01*
X25204952Y-80456531D01*
X25204957Y-80456535D01*
X25640221Y-80891800D01*
X25640221Y-82711956D01*
X25418574Y-82620147D01*
X25141335Y-82565000D01*
X24858665Y-82565000D01*
X24581426Y-82620147D01*
X24320273Y-82728320D01*
X24085241Y-82885363D01*
X23885363Y-83085241D01*
X23728320Y-83320273D01*
X23620147Y-83581426D01*
X23565000Y-83858665D01*
X23565000Y-84141335D01*
X23620147Y-84418574D01*
X23728320Y-84679727D01*
X23885363Y-84914759D01*
X24085241Y-85114637D01*
X24320273Y-85271680D01*
X24581426Y-85379853D01*
X24858665Y-85435000D01*
X25141335Y-85435000D01*
X25418574Y-85379853D01*
X25640220Y-85288044D01*
X25640220Y-87108201D01*
X25176439Y-87571983D01*
X25141335Y-87565000D01*
X24858665Y-87565000D01*
X24581426Y-87620147D01*
X24320273Y-87728320D01*
X24085241Y-87885363D01*
X23885363Y-88085241D01*
X23728320Y-88320273D01*
X23620147Y-88581426D01*
X23565000Y-88858665D01*
X23565000Y-89141335D01*
X23571983Y-89176439D01*
X22762382Y-89986040D01*
X22066788Y-89986040D01*
X22163567Y-89889261D01*
X22316233Y-89660780D01*
X22421391Y-89406907D01*
X22475000Y-89137396D01*
X22475000Y-88862604D01*
X22421391Y-88593093D01*
X22316233Y-88339220D01*
X22163567Y-88110739D01*
X21969261Y-87916433D01*
X21740780Y-87763767D01*
X21486907Y-87658609D01*
X21217396Y-87605000D01*
X20942604Y-87605000D01*
X20673093Y-87658609D01*
X20419220Y-87763767D01*
X20190739Y-87916433D01*
X19996433Y-88110739D01*
X19843767Y-88339220D01*
X19810000Y-88420740D01*
X19776233Y-88339220D01*
X19623567Y-88110739D01*
X19429261Y-87916433D01*
X19200780Y-87763767D01*
X18946907Y-87658609D01*
X18677396Y-87605000D01*
X18402604Y-87605000D01*
X18133093Y-87658609D01*
X17879220Y-87763767D01*
X17650739Y-87916433D01*
X17456433Y-88110739D01*
X17394474Y-88203467D01*
X17385812Y-88115518D01*
X17349502Y-87995820D01*
X17290537Y-87885506D01*
X17211185Y-87788815D01*
X17114494Y-87709463D01*
X17004180Y-87650498D01*
X16884482Y-87614188D01*
X16760000Y-87601928D01*
X15240000Y-87601928D01*
X15115518Y-87614188D01*
X14995820Y-87650498D01*
X14885506Y-87709463D01*
X14788815Y-87788815D01*
X14709463Y-87885506D01*
X14650498Y-87995820D01*
X14614188Y-88115518D01*
X14601928Y-88240000D01*
X14601928Y-89760000D01*
X14614188Y-89884482D01*
X14650498Y-90004180D01*
X14709463Y-90114494D01*
X14788815Y-90211185D01*
X14885506Y-90290537D01*
X14995820Y-90349502D01*
X15115518Y-90385812D01*
X15123184Y-90386567D01*
X15127805Y-90433490D01*
X15178412Y-90600313D01*
X15260590Y-90754059D01*
X15343468Y-90855046D01*
X15343471Y-90855049D01*
X15371184Y-90888817D01*
X15404951Y-90916529D01*
X15954510Y-91466089D01*
X15982223Y-91499857D01*
X16015991Y-91527570D01*
X16015993Y-91527572D01*
X16019606Y-91530537D01*
X16116981Y-91610451D01*
X16270727Y-91692629D01*
X16437550Y-91743235D01*
X16567563Y-91756040D01*
X16567573Y-91756040D01*
X16611039Y-91760321D01*
X16654506Y-91756040D01*
X21115000Y-91756040D01*
X21115001Y-94570299D01*
X21075518Y-94574188D01*
X20955820Y-94610498D01*
X20845506Y-94669463D01*
X20748815Y-94748815D01*
X20669463Y-94845506D01*
X20610498Y-94955820D01*
X20574188Y-95075518D01*
X20561928Y-95200000D01*
X20561928Y-96800000D01*
X20574188Y-96924482D01*
X20610498Y-97044180D01*
X20669463Y-97154494D01*
X20748815Y-97251185D01*
X20845506Y-97330537D01*
X20955820Y-97389502D01*
X21075518Y-97425812D01*
X21123576Y-97430545D01*
X21127805Y-97473490D01*
X21178412Y-97640313D01*
X21260590Y-97794059D01*
X21343468Y-97895046D01*
X21343471Y-97895049D01*
X21371184Y-97928817D01*
X21404952Y-97956530D01*
X21473562Y-98025140D01*
X17004256Y-98025140D01*
X17114637Y-97914759D01*
X17271680Y-97679727D01*
X17379853Y-97418574D01*
X17435000Y-97141335D01*
X17435000Y-96858665D01*
X17379853Y-96581426D01*
X17271680Y-96320273D01*
X17114637Y-96085241D01*
X16914759Y-95885363D01*
X16712173Y-95750000D01*
X16914759Y-95614637D01*
X17114637Y-95414759D01*
X17271680Y-95179727D01*
X17379853Y-94918574D01*
X17435000Y-94641335D01*
X17435000Y-94358665D01*
X17379853Y-94081426D01*
X17271680Y-93820273D01*
X17114637Y-93585241D01*
X16914759Y-93385363D01*
X16679727Y-93228320D01*
X16418574Y-93120147D01*
X16141335Y-93065000D01*
X15858665Y-93065000D01*
X15581426Y-93120147D01*
X15320273Y-93228320D01*
X15085241Y-93385363D01*
X14885363Y-93585241D01*
X14728320Y-93820273D01*
X14620147Y-94081426D01*
X14565000Y-94358665D01*
X14565000Y-94641335D01*
X14620147Y-94918574D01*
X14728320Y-95179727D01*
X14885363Y-95414759D01*
X15085241Y-95614637D01*
X15287827Y-95750000D01*
X15085241Y-95885363D01*
X14885363Y-96085241D01*
X14728320Y-96320273D01*
X14620147Y-96581426D01*
X14565000Y-96858665D01*
X14565000Y-97141335D01*
X14620147Y-97418574D01*
X14728320Y-97679727D01*
X14885363Y-97914759D01*
X14995744Y-98025140D01*
X14138072Y-98025140D01*
X14138072Y-95900000D01*
X14125812Y-95775518D01*
X14089502Y-95655820D01*
X14030537Y-95545506D01*
X13951185Y-95448815D01*
X13854494Y-95369463D01*
X13744180Y-95310498D01*
X13624482Y-95274188D01*
X13500000Y-95261928D01*
X12500000Y-95261928D01*
X12375518Y-95274188D01*
X12255820Y-95310498D01*
X12145506Y-95369463D01*
X12048815Y-95448815D01*
X11969463Y-95545506D01*
X11910498Y-95655820D01*
X11874188Y-95775518D01*
X11861928Y-95900000D01*
X11861928Y-98025140D01*
X7135596Y-98025140D01*
X7138072Y-98000000D01*
X7138072Y-97000000D01*
X7125812Y-96875518D01*
X7089502Y-96755820D01*
X7030537Y-96645506D01*
X6951185Y-96548815D01*
X6854494Y-96469463D01*
X6744180Y-96410498D01*
X6624482Y-96374188D01*
X6500000Y-96361928D01*
X4300000Y-96361928D01*
X4175518Y-96374188D01*
X4055820Y-96410498D01*
X3945506Y-96469463D01*
X3848815Y-96548815D01*
X3769463Y-96645506D01*
X3710498Y-96755820D01*
X3674188Y-96875518D01*
X3661928Y-97000000D01*
X3661928Y-98000000D01*
X3664404Y-98025140D01*
X2924359Y-98025140D01*
X1682560Y-96783342D01*
X1682560Y-94735454D01*
X1714250Y-94735000D01*
X1873000Y-94576250D01*
X1873000Y-93127000D01*
X2127000Y-93127000D01*
X2127000Y-94576250D01*
X2285750Y-94735000D01*
X2500000Y-94738072D01*
X2624482Y-94725812D01*
X2744180Y-94689502D01*
X2854494Y-94630537D01*
X2951185Y-94551185D01*
X3030537Y-94454494D01*
X3089502Y-94344180D01*
X3125812Y-94224482D01*
X3138072Y-94100000D01*
X3135000Y-93285750D01*
X2976250Y-93127000D01*
X2127000Y-93127000D01*
X1873000Y-93127000D01*
X1853000Y-93127000D01*
X1853000Y-92873000D01*
X1873000Y-92873000D01*
X1873000Y-91423750D01*
X2127000Y-91423750D01*
X2127000Y-92873000D01*
X2976250Y-92873000D01*
X3135000Y-92714250D01*
X3138072Y-91900000D01*
X3125812Y-91775518D01*
X3089502Y-91655820D01*
X3030537Y-91545506D01*
X2951185Y-91448815D01*
X2854494Y-91369463D01*
X2744180Y-91310498D01*
X2624482Y-91274188D01*
X2500000Y-91261928D01*
X2285750Y-91265000D01*
X2127000Y-91423750D01*
X1873000Y-91423750D01*
X1714250Y-91265000D01*
X1682560Y-91264546D01*
X1682560Y-90000000D01*
X6661928Y-90000000D01*
X6661928Y-91000000D01*
X6674188Y-91124482D01*
X6710498Y-91244180D01*
X6769463Y-91354494D01*
X6848815Y-91451185D01*
X6945506Y-91530537D01*
X7055820Y-91589502D01*
X7175518Y-91625812D01*
X7300000Y-91638072D01*
X9500000Y-91638072D01*
X9624482Y-91625812D01*
X9744180Y-91589502D01*
X9854494Y-91530537D01*
X9951185Y-91451185D01*
X10030537Y-91354494D01*
X10089502Y-91244180D01*
X10125812Y-91124482D01*
X10138072Y-91000000D01*
X10138072Y-90000000D01*
X10125812Y-89875518D01*
X10089502Y-89755820D01*
X10030537Y-89645506D01*
X9951185Y-89548815D01*
X9854494Y-89469463D01*
X9744180Y-89410498D01*
X9624482Y-89374188D01*
X9500000Y-89361928D01*
X7300000Y-89361928D01*
X7175518Y-89374188D01*
X7055820Y-89410498D01*
X6945506Y-89469463D01*
X6848815Y-89548815D01*
X6769463Y-89645506D01*
X6710498Y-89755820D01*
X6674188Y-89875518D01*
X6661928Y-90000000D01*
X1682560Y-90000000D01*
X1682560Y-87300000D01*
X8061928Y-87300000D01*
X8061928Y-88300000D01*
X8074188Y-88424482D01*
X8110498Y-88544180D01*
X8169463Y-88654494D01*
X8248815Y-88751185D01*
X8345506Y-88830537D01*
X8455820Y-88889502D01*
X8575518Y-88925812D01*
X8700000Y-88938072D01*
X10900000Y-88938072D01*
X11024482Y-88925812D01*
X11144180Y-88889502D01*
X11254494Y-88830537D01*
X11351185Y-88751185D01*
X11430537Y-88654494D01*
X11489502Y-88544180D01*
X11525812Y-88424482D01*
X11538072Y-88300000D01*
X11538072Y-87300000D01*
X11525812Y-87175518D01*
X11489502Y-87055820D01*
X11430537Y-86945506D01*
X11351185Y-86848815D01*
X11254494Y-86769463D01*
X11144180Y-86710498D01*
X11024482Y-86674188D01*
X10900000Y-86661928D01*
X8700000Y-86661928D01*
X8575518Y-86674188D01*
X8455820Y-86710498D01*
X8345506Y-86769463D01*
X8248815Y-86848815D01*
X8169463Y-86945506D01*
X8110498Y-87055820D01*
X8074188Y-87175518D01*
X8061928Y-87300000D01*
X1682560Y-87300000D01*
X1682560Y-74848816D01*
X3165000Y-74848816D01*
X3165000Y-75151184D01*
X3223989Y-75447743D01*
X3339701Y-75727095D01*
X3507688Y-75978505D01*
X3721495Y-76192312D01*
X3807831Y-76250000D01*
X3721495Y-76307688D01*
X3507688Y-76521495D01*
X3339701Y-76772905D01*
X3223989Y-77052257D01*
X3165000Y-77348816D01*
X3165000Y-77651184D01*
X3223989Y-77947743D01*
X3339701Y-78227095D01*
X3507688Y-78478505D01*
X3721495Y-78692312D01*
X3807831Y-78750000D01*
X3721495Y-78807688D01*
X3507688Y-79021495D01*
X3339701Y-79272905D01*
X3223989Y-79552257D01*
X3165000Y-79848816D01*
X3165000Y-80151184D01*
X3223989Y-80447743D01*
X3339701Y-80727095D01*
X3507688Y-80978505D01*
X3721495Y-81192312D01*
X3972905Y-81360299D01*
X4252257Y-81476011D01*
X4548816Y-81535000D01*
X4851184Y-81535000D01*
X5147743Y-81476011D01*
X5267955Y-81426217D01*
X5177791Y-81643892D01*
X5065000Y-82210928D01*
X5065000Y-82789072D01*
X5177791Y-83356108D01*
X5399037Y-83890244D01*
X5720237Y-84370953D01*
X6129047Y-84779763D01*
X6609756Y-85100963D01*
X7143892Y-85322209D01*
X7710928Y-85435000D01*
X8289072Y-85435000D01*
X8856108Y-85322209D01*
X9390244Y-85100963D01*
X9870953Y-84779763D01*
X10279763Y-84370953D01*
X10600963Y-83890244D01*
X10822209Y-83356108D01*
X10935000Y-82789072D01*
X10935000Y-82358665D01*
X11065000Y-82358665D01*
X11065000Y-82641335D01*
X11120147Y-82918574D01*
X11228320Y-83179727D01*
X11385363Y-83414759D01*
X11585241Y-83614637D01*
X11820273Y-83771680D01*
X12081426Y-83879853D01*
X12358665Y-83935000D01*
X12641335Y-83935000D01*
X12918574Y-83879853D01*
X13179727Y-83771680D01*
X13414759Y-83614637D01*
X13614637Y-83414759D01*
X13771680Y-83179727D01*
X13879853Y-82918574D01*
X13935000Y-82641335D01*
X13935000Y-82358665D01*
X13879853Y-82081426D01*
X13771680Y-81820273D01*
X13614637Y-81585241D01*
X13414759Y-81385363D01*
X13197208Y-81240000D01*
X14601928Y-81240000D01*
X14601928Y-82760000D01*
X14614188Y-82884482D01*
X14650498Y-83004180D01*
X14709463Y-83114494D01*
X14788815Y-83211185D01*
X14885506Y-83290537D01*
X14995820Y-83349502D01*
X15115518Y-83385812D01*
X15240000Y-83398072D01*
X16760000Y-83398072D01*
X16884482Y-83385812D01*
X17004180Y-83349502D01*
X17114494Y-83290537D01*
X17211185Y-83211185D01*
X17290537Y-83114494D01*
X17349502Y-83004180D01*
X17385812Y-82884482D01*
X17394474Y-82796533D01*
X17456433Y-82889261D01*
X17650739Y-83083567D01*
X17879220Y-83236233D01*
X18133093Y-83341391D01*
X18402604Y-83395000D01*
X18677396Y-83395000D01*
X18946907Y-83341391D01*
X19200780Y-83236233D01*
X19429261Y-83083567D01*
X19623567Y-82889261D01*
X19776233Y-82660780D01*
X19810000Y-82579260D01*
X19843767Y-82660780D01*
X19996433Y-82889261D01*
X20190739Y-83083567D01*
X20419220Y-83236233D01*
X20673093Y-83341391D01*
X20942604Y-83395000D01*
X21217396Y-83395000D01*
X21486907Y-83341391D01*
X21740780Y-83236233D01*
X21969261Y-83083567D01*
X22163567Y-82889261D01*
X22316233Y-82660780D01*
X22421391Y-82406907D01*
X22475000Y-82137396D01*
X22475000Y-81862604D01*
X22421391Y-81593093D01*
X22316233Y-81339220D01*
X22163567Y-81110739D01*
X21969261Y-80916433D01*
X21740780Y-80763767D01*
X21486907Y-80658609D01*
X21217396Y-80605000D01*
X20942604Y-80605000D01*
X20673093Y-80658609D01*
X20419220Y-80763767D01*
X20190739Y-80916433D01*
X19996433Y-81110739D01*
X19843767Y-81339220D01*
X19810000Y-81420740D01*
X19776233Y-81339220D01*
X19623567Y-81110739D01*
X19429261Y-80916433D01*
X19200780Y-80763767D01*
X18946907Y-80658609D01*
X18677396Y-80605000D01*
X18402604Y-80605000D01*
X18133093Y-80658609D01*
X17879220Y-80763767D01*
X17650739Y-80916433D01*
X17456433Y-81110739D01*
X17394474Y-81203467D01*
X17385812Y-81115518D01*
X17349502Y-80995820D01*
X17290537Y-80885506D01*
X17211185Y-80788815D01*
X17114494Y-80709463D01*
X17004180Y-80650498D01*
X16884482Y-80614188D01*
X16760000Y-80601928D01*
X15240000Y-80601928D01*
X15115518Y-80614188D01*
X14995820Y-80650498D01*
X14885506Y-80709463D01*
X14788815Y-80788815D01*
X14709463Y-80885506D01*
X14650498Y-80995820D01*
X14614188Y-81115518D01*
X14601928Y-81240000D01*
X13197208Y-81240000D01*
X13179727Y-81228320D01*
X12918574Y-81120147D01*
X12641335Y-81065000D01*
X12358665Y-81065000D01*
X12081426Y-81120147D01*
X11820273Y-81228320D01*
X11585241Y-81385363D01*
X11385363Y-81585241D01*
X11228320Y-81820273D01*
X11120147Y-82081426D01*
X11065000Y-82358665D01*
X10935000Y-82358665D01*
X10935000Y-82210928D01*
X10822209Y-81643892D01*
X10600963Y-81109756D01*
X10279763Y-80629047D01*
X9870953Y-80220237D01*
X9390244Y-79899037D01*
X8856108Y-79677791D01*
X8289072Y-79565000D01*
X7710928Y-79565000D01*
X7143892Y-79677791D01*
X6609756Y-79899037D01*
X6235000Y-80149441D01*
X6235000Y-79848816D01*
X6176011Y-79552257D01*
X6060299Y-79272905D01*
X5892312Y-79021495D01*
X5678505Y-78807688D01*
X5592169Y-78750000D01*
X5678505Y-78692312D01*
X5892312Y-78478505D01*
X6060299Y-78227095D01*
X6176011Y-77947743D01*
X6235000Y-77651184D01*
X6235000Y-77348816D01*
X6176011Y-77052257D01*
X6060299Y-76772905D01*
X5892312Y-76521495D01*
X5678505Y-76307688D01*
X5592169Y-76250000D01*
X5678505Y-76192312D01*
X5892312Y-75978505D01*
X6060299Y-75727095D01*
X6176011Y-75447743D01*
X6235000Y-75151184D01*
X6235000Y-74850559D01*
X6609756Y-75100963D01*
X7143892Y-75322209D01*
X7710928Y-75435000D01*
X8289072Y-75435000D01*
X8856108Y-75322209D01*
X9390244Y-75100963D01*
X9870953Y-74779763D01*
X10279763Y-74370953D01*
X10600963Y-73890244D01*
X10822209Y-73356108D01*
X10935000Y-72789072D01*
X10935000Y-72689040D01*
X11108091Y-72689040D01*
X11202930Y-72953881D01*
X11347615Y-73195131D01*
X11536586Y-73403519D01*
X11762580Y-73571037D01*
X12016913Y-73691246D01*
X12150961Y-73731904D01*
X12373000Y-73609915D01*
X12373000Y-72467000D01*
X12627000Y-72467000D01*
X12627000Y-73609915D01*
X12849039Y-73731904D01*
X12983087Y-73691246D01*
X13237420Y-73571037D01*
X13321058Y-73509040D01*
X14608091Y-73509040D01*
X14702930Y-73773881D01*
X14847615Y-74015131D01*
X15036586Y-74223519D01*
X15262580Y-74391037D01*
X15516913Y-74511246D01*
X15650961Y-74551904D01*
X15873000Y-74429915D01*
X15873000Y-73287000D01*
X16127000Y-73287000D01*
X16127000Y-74429915D01*
X16349039Y-74551904D01*
X16483087Y-74511246D01*
X16737420Y-74391037D01*
X16963414Y-74223519D01*
X17152385Y-74015131D01*
X17297070Y-73773881D01*
X17391909Y-73509040D01*
X17270624Y-73287000D01*
X16127000Y-73287000D01*
X15873000Y-73287000D01*
X14729376Y-73287000D01*
X14608091Y-73509040D01*
X13321058Y-73509040D01*
X13463414Y-73403519D01*
X13652385Y-73195131D01*
X13797070Y-72953881D01*
X13848249Y-72810960D01*
X14608091Y-72810960D01*
X14729376Y-73033000D01*
X15873000Y-73033000D01*
X15873000Y-71890085D01*
X16127000Y-71890085D01*
X16127000Y-73033000D01*
X17270624Y-73033000D01*
X17391909Y-72810960D01*
X17297070Y-72546119D01*
X17152385Y-72304869D01*
X16963414Y-72096481D01*
X16737420Y-71928963D01*
X16483087Y-71808754D01*
X16349039Y-71768096D01*
X16127000Y-71890085D01*
X15873000Y-71890085D01*
X15650961Y-71768096D01*
X15516913Y-71808754D01*
X15262580Y-71928963D01*
X15036586Y-72096481D01*
X14847615Y-72304869D01*
X14702930Y-72546119D01*
X14608091Y-72810960D01*
X13848249Y-72810960D01*
X13891909Y-72689040D01*
X13770624Y-72467000D01*
X12627000Y-72467000D01*
X12373000Y-72467000D01*
X11229376Y-72467000D01*
X11108091Y-72689040D01*
X10935000Y-72689040D01*
X10935000Y-72210928D01*
X10891246Y-71990960D01*
X11108091Y-71990960D01*
X11229376Y-72213000D01*
X12373000Y-72213000D01*
X12373000Y-71070085D01*
X12627000Y-71070085D01*
X12627000Y-72213000D01*
X13770624Y-72213000D01*
X13891909Y-71990960D01*
X13797070Y-71726119D01*
X13652385Y-71484869D01*
X13463414Y-71276481D01*
X13237420Y-71108963D01*
X12983087Y-70988754D01*
X12849039Y-70948096D01*
X12627000Y-71070085D01*
X12373000Y-71070085D01*
X12150961Y-70948096D01*
X12016913Y-70988754D01*
X11762580Y-71108963D01*
X11536586Y-71276481D01*
X11347615Y-71484869D01*
X11202930Y-71726119D01*
X11108091Y-71990960D01*
X10891246Y-71990960D01*
X10822209Y-71643892D01*
X10600963Y-71109756D01*
X10279763Y-70629047D01*
X9870953Y-70220237D01*
X9390244Y-69899037D01*
X8856108Y-69677791D01*
X8289072Y-69565000D01*
X7710928Y-69565000D01*
X7143892Y-69677791D01*
X6609756Y-69899037D01*
X6129047Y-70220237D01*
X5720237Y-70629047D01*
X5399037Y-71109756D01*
X5177791Y-71643892D01*
X5065000Y-72210928D01*
X5065000Y-72789072D01*
X5177791Y-73356108D01*
X5267955Y-73573783D01*
X5147743Y-73523989D01*
X4851184Y-73465000D01*
X4548816Y-73465000D01*
X4252257Y-73523989D01*
X3972905Y-73639701D01*
X3721495Y-73807688D01*
X3507688Y-74021495D01*
X3339701Y-74272905D01*
X3223989Y-74552257D01*
X3165000Y-74848816D01*
X1682560Y-74848816D01*
X1682560Y-67569252D01*
X1728320Y-67679727D01*
X1885363Y-67914759D01*
X2085241Y-68114637D01*
X2320273Y-68271680D01*
X2581426Y-68379853D01*
X2858665Y-68435000D01*
X3141335Y-68435000D01*
X3418574Y-68379853D01*
X3679727Y-68271680D01*
X3914759Y-68114637D01*
X4114637Y-67914759D01*
X4271680Y-67679727D01*
X4379853Y-67418574D01*
X4435000Y-67141335D01*
X4435000Y-66858665D01*
X11725000Y-66858665D01*
X11725000Y-67141335D01*
X11780147Y-67418574D01*
X11888320Y-67679727D01*
X12045363Y-67914759D01*
X12245241Y-68114637D01*
X12480273Y-68271680D01*
X12741426Y-68379853D01*
X13018665Y-68435000D01*
X13301335Y-68435000D01*
X13578574Y-68379853D01*
X13839727Y-68271680D01*
X14074759Y-68114637D01*
X14274637Y-67914759D01*
X14431680Y-67679727D01*
X14539853Y-67418574D01*
X14595000Y-67141335D01*
X14595000Y-66858665D01*
X14539853Y-66581426D01*
X14431680Y-66320273D01*
X14274637Y-66085241D01*
X14074759Y-65885363D01*
X13839727Y-65728320D01*
X13578574Y-65620147D01*
X13301335Y-65565000D01*
X13018665Y-65565000D01*
X12741426Y-65620147D01*
X12480273Y-65728320D01*
X12245241Y-65885363D01*
X12045363Y-66085241D01*
X11888320Y-66320273D01*
X11780147Y-66581426D01*
X11725000Y-66858665D01*
X4435000Y-66858665D01*
X4379853Y-66581426D01*
X4271680Y-66320273D01*
X4114637Y-66085241D01*
X3914759Y-65885363D01*
X3679727Y-65728320D01*
X3418574Y-65620147D01*
X3141335Y-65565000D01*
X2858665Y-65565000D01*
X2581426Y-65620147D01*
X2320273Y-65728320D01*
X2085241Y-65885363D01*
X1885363Y-66085241D01*
X1728320Y-66320273D01*
X1682560Y-66430748D01*
X1682560Y-62000000D01*
X3661928Y-62000000D01*
X3661928Y-63000000D01*
X3674188Y-63124482D01*
X3710498Y-63244180D01*
X3769463Y-63354494D01*
X3848815Y-63451185D01*
X3945506Y-63530537D01*
X4055820Y-63589502D01*
X4175518Y-63625812D01*
X4300000Y-63638072D01*
X6500000Y-63638072D01*
X6624482Y-63625812D01*
X6744180Y-63589502D01*
X6854494Y-63530537D01*
X6951185Y-63451185D01*
X7030537Y-63354494D01*
X7089502Y-63244180D01*
X7125812Y-63124482D01*
X7138072Y-63000000D01*
X7138072Y-62000000D01*
X7125812Y-61875518D01*
X7089502Y-61755820D01*
X7030537Y-61645506D01*
X6951185Y-61548815D01*
X6854494Y-61469463D01*
X6744180Y-61410498D01*
X6624482Y-61374188D01*
X6500000Y-61361928D01*
X4300000Y-61361928D01*
X4175518Y-61374188D01*
X4055820Y-61410498D01*
X3945506Y-61469463D01*
X3848815Y-61548815D01*
X3769463Y-61645506D01*
X3710498Y-61755820D01*
X3674188Y-61875518D01*
X3661928Y-62000000D01*
X1682560Y-62000000D01*
X1682560Y-60900000D01*
X11861928Y-60900000D01*
X11861928Y-63100000D01*
X11874188Y-63224482D01*
X11910498Y-63344180D01*
X11969463Y-63454494D01*
X12048815Y-63551185D01*
X12145506Y-63630537D01*
X12255820Y-63689502D01*
X12375518Y-63725812D01*
X12500000Y-63738072D01*
X13500000Y-63738072D01*
X13624482Y-63725812D01*
X13744180Y-63689502D01*
X13854494Y-63630537D01*
X13951185Y-63551185D01*
X14030537Y-63454494D01*
X14089502Y-63344180D01*
X14125812Y-63224482D01*
X14138072Y-63100000D01*
X14138072Y-60900000D01*
X14125812Y-60775518D01*
X14089502Y-60655820D01*
X14030537Y-60545506D01*
X13951185Y-60448815D01*
X13854494Y-60369463D01*
X13744180Y-60310498D01*
X13624482Y-60274188D01*
X13500000Y-60261928D01*
X12500000Y-60261928D01*
X12375518Y-60274188D01*
X12255820Y-60310498D01*
X12145506Y-60369463D01*
X12048815Y-60448815D01*
X11969463Y-60545506D01*
X11910498Y-60655820D01*
X11874188Y-60775518D01*
X11861928Y-60900000D01*
X1682560Y-60900000D01*
X1682560Y-60018665D01*
X14565000Y-60018665D01*
X14565000Y-60301335D01*
X14620147Y-60578574D01*
X14728320Y-60839727D01*
X14885363Y-61074759D01*
X15085241Y-61274637D01*
X15320273Y-61431680D01*
X15581426Y-61539853D01*
X15783256Y-61580000D01*
X15581426Y-61620147D01*
X15320273Y-61728320D01*
X15085241Y-61885363D01*
X14885363Y-62085241D01*
X14728320Y-62320273D01*
X14620147Y-62581426D01*
X14565000Y-62858665D01*
X14565000Y-63141335D01*
X14620147Y-63418574D01*
X14728320Y-63679727D01*
X14885363Y-63914759D01*
X15085241Y-64114637D01*
X15320273Y-64271680D01*
X15581426Y-64379853D01*
X15858665Y-64435000D01*
X16141335Y-64435000D01*
X16418574Y-64379853D01*
X16679727Y-64271680D01*
X16914759Y-64114637D01*
X17114637Y-63914759D01*
X17271680Y-63679727D01*
X17379853Y-63418574D01*
X17435000Y-63141335D01*
X17435000Y-62858665D01*
X17379853Y-62581426D01*
X17271680Y-62320273D01*
X17114637Y-62085241D01*
X16914759Y-61885363D01*
X16679727Y-61728320D01*
X16418574Y-61620147D01*
X16216744Y-61580000D01*
X16418574Y-61539853D01*
X16679727Y-61431680D01*
X16914759Y-61274637D01*
X17114637Y-61074759D01*
X17271680Y-60839727D01*
X17379853Y-60578574D01*
X17435000Y-60301335D01*
X17435000Y-60018665D01*
X17379853Y-59741426D01*
X17271680Y-59480273D01*
X17114637Y-59245241D01*
X16914759Y-59045363D01*
X16679727Y-58888320D01*
X16418574Y-58780147D01*
X16141335Y-58725000D01*
X15858665Y-58725000D01*
X15581426Y-58780147D01*
X15320273Y-58888320D01*
X15085241Y-59045363D01*
X14885363Y-59245241D01*
X14728320Y-59480273D01*
X14620147Y-59741426D01*
X14565000Y-60018665D01*
X1682560Y-60018665D01*
X1682560Y-59735454D01*
X1714250Y-59735000D01*
X1873000Y-59576250D01*
X1873000Y-58127000D01*
X2127000Y-58127000D01*
X2127000Y-59576250D01*
X2285750Y-59735000D01*
X2500000Y-59738072D01*
X2624482Y-59725812D01*
X2744180Y-59689502D01*
X2854494Y-59630537D01*
X2951185Y-59551185D01*
X3030537Y-59454494D01*
X3089502Y-59344180D01*
X3125812Y-59224482D01*
X3138072Y-59100000D01*
X3135000Y-58285750D01*
X2976250Y-58127000D01*
X2127000Y-58127000D01*
X1873000Y-58127000D01*
X1853000Y-58127000D01*
X1853000Y-57873000D01*
X1873000Y-57873000D01*
X1873000Y-56423750D01*
X2127000Y-56423750D01*
X2127000Y-57873000D01*
X2976250Y-57873000D01*
X3135000Y-57714250D01*
X3138072Y-56900000D01*
X3125812Y-56775518D01*
X3089502Y-56655820D01*
X3030537Y-56545506D01*
X2951185Y-56448815D01*
X2854494Y-56369463D01*
X2744180Y-56310498D01*
X2624482Y-56274188D01*
X2500000Y-56261928D01*
X2285750Y-56265000D01*
X2127000Y-56423750D01*
X1873000Y-56423750D01*
X1714250Y-56265000D01*
X1682560Y-56264546D01*
X1682560Y-55000000D01*
X6661928Y-55000000D01*
X6661928Y-56000000D01*
X6674188Y-56124482D01*
X6710498Y-56244180D01*
X6769463Y-56354494D01*
X6848815Y-56451185D01*
X6945506Y-56530537D01*
X7055820Y-56589502D01*
X7175518Y-56625812D01*
X7300000Y-56638072D01*
X9500000Y-56638072D01*
X9624482Y-56625812D01*
X9744180Y-56589502D01*
X9854494Y-56530537D01*
X9951185Y-56451185D01*
X10030537Y-56354494D01*
X10089502Y-56244180D01*
X10125812Y-56124482D01*
X10138072Y-56000000D01*
X10138072Y-55000000D01*
X10125812Y-54875518D01*
X10089502Y-54755820D01*
X10030537Y-54645506D01*
X9951185Y-54548815D01*
X9854494Y-54469463D01*
X9744180Y-54410498D01*
X9624482Y-54374188D01*
X9500000Y-54361928D01*
X7300000Y-54361928D01*
X7175518Y-54374188D01*
X7055820Y-54410498D01*
X6945506Y-54469463D01*
X6848815Y-54548815D01*
X6769463Y-54645506D01*
X6710498Y-54755820D01*
X6674188Y-54875518D01*
X6661928Y-55000000D01*
X1682560Y-55000000D01*
X1682560Y-52300000D01*
X8061928Y-52300000D01*
X8061928Y-53300000D01*
X8074188Y-53424482D01*
X8110498Y-53544180D01*
X8169463Y-53654494D01*
X8248815Y-53751185D01*
X8345506Y-53830537D01*
X8455820Y-53889502D01*
X8575518Y-53925812D01*
X8700000Y-53938072D01*
X10900000Y-53938072D01*
X11024482Y-53925812D01*
X11144180Y-53889502D01*
X11254494Y-53830537D01*
X11351185Y-53751185D01*
X11430537Y-53654494D01*
X11489502Y-53544180D01*
X11525812Y-53424482D01*
X11538072Y-53300000D01*
X11538072Y-52992702D01*
X25686903Y-52992702D01*
X25758486Y-53236671D01*
X26013996Y-53357571D01*
X26288184Y-53426300D01*
X26570512Y-53440217D01*
X26850130Y-53398787D01*
X27116292Y-53303603D01*
X27241514Y-53236671D01*
X27313097Y-52992702D01*
X26500000Y-52179605D01*
X25686903Y-52992702D01*
X11538072Y-52992702D01*
X11538072Y-52300000D01*
X11525812Y-52175518D01*
X11493959Y-52070512D01*
X25059783Y-52070512D01*
X25101213Y-52350130D01*
X25196397Y-52616292D01*
X25263329Y-52741514D01*
X25507298Y-52813097D01*
X26320395Y-52000000D01*
X25507298Y-51186903D01*
X25263329Y-51258486D01*
X25142429Y-51513996D01*
X25073700Y-51788184D01*
X25059783Y-52070512D01*
X11493959Y-52070512D01*
X11489502Y-52055820D01*
X11430537Y-51945506D01*
X11351185Y-51848815D01*
X11254494Y-51769463D01*
X11144180Y-51710498D01*
X11024482Y-51674188D01*
X10900000Y-51661928D01*
X8700000Y-51661928D01*
X8575518Y-51674188D01*
X8455820Y-51710498D01*
X8345506Y-51769463D01*
X8248815Y-51848815D01*
X8169463Y-51945506D01*
X8110498Y-52055820D01*
X8074188Y-52175518D01*
X8061928Y-52300000D01*
X1682560Y-52300000D01*
X1682560Y-46064080D01*
X3815525Y-46064080D01*
X3899208Y-46318261D01*
X4171775Y-46449158D01*
X4464642Y-46524365D01*
X4766553Y-46540991D01*
X5065907Y-46498397D01*
X5267356Y-46427662D01*
X5177791Y-46643892D01*
X5065000Y-47210928D01*
X5065000Y-47789072D01*
X5177791Y-48356108D01*
X5399037Y-48890244D01*
X5720237Y-49370953D01*
X6129047Y-49779763D01*
X6609756Y-50100963D01*
X7143892Y-50322209D01*
X7710928Y-50435000D01*
X8289072Y-50435000D01*
X8856108Y-50322209D01*
X9390244Y-50100963D01*
X9752868Y-49858665D01*
X14565000Y-49858665D01*
X14565000Y-50141335D01*
X14620147Y-50418574D01*
X14728320Y-50679727D01*
X14885363Y-50914759D01*
X15085241Y-51114637D01*
X15320273Y-51271680D01*
X15581426Y-51379853D01*
X15858665Y-51435000D01*
X16141335Y-51435000D01*
X16418574Y-51379853D01*
X16679727Y-51271680D01*
X16914759Y-51114637D01*
X17114637Y-50914759D01*
X17271680Y-50679727D01*
X17379853Y-50418574D01*
X17435000Y-50141335D01*
X17435000Y-49858665D01*
X19565000Y-49858665D01*
X19565000Y-50141335D01*
X19620147Y-50418574D01*
X19728320Y-50679727D01*
X19885363Y-50914759D01*
X20085241Y-51114637D01*
X20320273Y-51271680D01*
X20581426Y-51379853D01*
X20858665Y-51435000D01*
X21141335Y-51435000D01*
X21418574Y-51379853D01*
X21679727Y-51271680D01*
X21914759Y-51114637D01*
X22022098Y-51007298D01*
X25686903Y-51007298D01*
X26500000Y-51820395D01*
X27313097Y-51007298D01*
X27241514Y-50763329D01*
X26986004Y-50642429D01*
X26711816Y-50573700D01*
X26429488Y-50559783D01*
X26149870Y-50601213D01*
X25883708Y-50696397D01*
X25758486Y-50763329D01*
X25686903Y-51007298D01*
X22022098Y-51007298D01*
X22114637Y-50914759D01*
X22271680Y-50679727D01*
X22379853Y-50418574D01*
X22435000Y-50141335D01*
X22435000Y-49858665D01*
X22379853Y-49581426D01*
X22271680Y-49320273D01*
X22114637Y-49085241D01*
X21914759Y-48885363D01*
X21679727Y-48728320D01*
X21418574Y-48620147D01*
X21141335Y-48565000D01*
X20858665Y-48565000D01*
X20581426Y-48620147D01*
X20320273Y-48728320D01*
X20085241Y-48885363D01*
X19885363Y-49085241D01*
X19728320Y-49320273D01*
X19620147Y-49581426D01*
X19565000Y-49858665D01*
X17435000Y-49858665D01*
X17379853Y-49581426D01*
X17271680Y-49320273D01*
X17114637Y-49085241D01*
X16914759Y-48885363D01*
X16679727Y-48728320D01*
X16418574Y-48620147D01*
X16141335Y-48565000D01*
X15858665Y-48565000D01*
X15581426Y-48620147D01*
X15320273Y-48728320D01*
X15085241Y-48885363D01*
X14885363Y-49085241D01*
X14728320Y-49320273D01*
X14620147Y-49581426D01*
X14565000Y-49858665D01*
X9752868Y-49858665D01*
X9870953Y-49779763D01*
X10279763Y-49370953D01*
X10600963Y-48890244D01*
X10822209Y-48356108D01*
X10935000Y-47789072D01*
X10935000Y-47210928D01*
X10822209Y-46643892D01*
X10600963Y-46109756D01*
X10279763Y-45629047D01*
X9870953Y-45220237D01*
X9390244Y-44899037D01*
X8856108Y-44677791D01*
X8289072Y-44565000D01*
X7710928Y-44565000D01*
X7143892Y-44677791D01*
X6609756Y-44899037D01*
X6228871Y-45153537D01*
X6240991Y-44933447D01*
X6198397Y-44634093D01*
X6098222Y-44348801D01*
X6040066Y-44240000D01*
X13601928Y-44240000D01*
X13601928Y-45760000D01*
X13614188Y-45884482D01*
X13650498Y-46004180D01*
X13709463Y-46114494D01*
X13788815Y-46211185D01*
X13885506Y-46290537D01*
X13995820Y-46349502D01*
X14115518Y-46385812D01*
X14240000Y-46398072D01*
X15760000Y-46398072D01*
X15884482Y-46385812D01*
X16004180Y-46349502D01*
X16114494Y-46290537D01*
X16211185Y-46211185D01*
X16290537Y-46114494D01*
X16349502Y-46004180D01*
X16385812Y-45884482D01*
X16394474Y-45796533D01*
X16456433Y-45889261D01*
X16650739Y-46083567D01*
X16879220Y-46236233D01*
X17133093Y-46341391D01*
X17402604Y-46395000D01*
X17677396Y-46395000D01*
X17946907Y-46341391D01*
X18200780Y-46236233D01*
X18429261Y-46083567D01*
X18548691Y-45964137D01*
X19295469Y-45964137D01*
X19362206Y-46204025D01*
X19610892Y-46320924D01*
X19877606Y-46387061D01*
X20152097Y-46399895D01*
X20423817Y-46358931D01*
X20682326Y-46265744D01*
X20797794Y-46204025D01*
X20864531Y-45964137D01*
X20080000Y-45179605D01*
X19295469Y-45964137D01*
X18548691Y-45964137D01*
X18623567Y-45889261D01*
X18776233Y-45660780D01*
X18807830Y-45584499D01*
X18814256Y-45602326D01*
X18875975Y-45717794D01*
X19115863Y-45784531D01*
X19900395Y-45000000D01*
X20259605Y-45000000D01*
X21044137Y-45784531D01*
X21284025Y-45717794D01*
X21400924Y-45469108D01*
X21467061Y-45202394D01*
X21479895Y-44927903D01*
X21438931Y-44656183D01*
X21345744Y-44397674D01*
X21284025Y-44282206D01*
X21044137Y-44215469D01*
X20259605Y-45000000D01*
X19900395Y-45000000D01*
X19115863Y-44215469D01*
X18875975Y-44282206D01*
X18810400Y-44421707D01*
X18776233Y-44339220D01*
X18623567Y-44110739D01*
X18548691Y-44035863D01*
X19295469Y-44035863D01*
X20080000Y-44820395D01*
X20864531Y-44035863D01*
X20852524Y-43992702D01*
X25686903Y-43992702D01*
X25758486Y-44236671D01*
X26013996Y-44357571D01*
X26288184Y-44426300D01*
X26570512Y-44440217D01*
X26850130Y-44398787D01*
X27116292Y-44303603D01*
X27241514Y-44236671D01*
X27313097Y-43992702D01*
X26500000Y-43179605D01*
X25686903Y-43992702D01*
X20852524Y-43992702D01*
X20797794Y-43795975D01*
X20549108Y-43679076D01*
X20282394Y-43612939D01*
X20007903Y-43600105D01*
X19736183Y-43641069D01*
X19477674Y-43734256D01*
X19362206Y-43795975D01*
X19295469Y-44035863D01*
X18548691Y-44035863D01*
X18429261Y-43916433D01*
X18200780Y-43763767D01*
X17946907Y-43658609D01*
X17677396Y-43605000D01*
X17402604Y-43605000D01*
X17133093Y-43658609D01*
X16879220Y-43763767D01*
X16650739Y-43916433D01*
X16456433Y-44110739D01*
X16394474Y-44203467D01*
X16385812Y-44115518D01*
X16349502Y-43995820D01*
X16290537Y-43885506D01*
X16211185Y-43788815D01*
X16114494Y-43709463D01*
X16004180Y-43650498D01*
X15884482Y-43614188D01*
X15760000Y-43601928D01*
X14240000Y-43601928D01*
X14115518Y-43614188D01*
X13995820Y-43650498D01*
X13885506Y-43709463D01*
X13788815Y-43788815D01*
X13709463Y-43885506D01*
X13650498Y-43995820D01*
X13614188Y-44115518D01*
X13601928Y-44240000D01*
X6040066Y-44240000D01*
X6018261Y-44199208D01*
X5764080Y-44115525D01*
X4879605Y-45000000D01*
X4893748Y-45014143D01*
X4714143Y-45193748D01*
X4700000Y-45179605D01*
X3815525Y-46064080D01*
X1682560Y-46064080D01*
X1682560Y-45066553D01*
X3159009Y-45066553D01*
X3201603Y-45365907D01*
X3301778Y-45651199D01*
X3381739Y-45800792D01*
X3635920Y-45884475D01*
X4520395Y-45000000D01*
X3635920Y-44115525D01*
X3381739Y-44199208D01*
X3250842Y-44471775D01*
X3175635Y-44764642D01*
X3159009Y-45066553D01*
X1682560Y-45066553D01*
X1682560Y-42063218D01*
X2860779Y-40885000D01*
X3445210Y-40885000D01*
X3507688Y-40978505D01*
X3721495Y-41192312D01*
X3807831Y-41250000D01*
X3721495Y-41307688D01*
X3507688Y-41521495D01*
X3339701Y-41772905D01*
X3223989Y-42052257D01*
X3165000Y-42348816D01*
X3165000Y-42651184D01*
X3223989Y-42947743D01*
X3339701Y-43227095D01*
X3507688Y-43478505D01*
X3721495Y-43692312D01*
X3864310Y-43787738D01*
X3815525Y-43935920D01*
X4700000Y-44820395D01*
X5584475Y-43935920D01*
X5535690Y-43787738D01*
X5678505Y-43692312D01*
X5892312Y-43478505D01*
X6060299Y-43227095D01*
X6125158Y-43070512D01*
X25059783Y-43070512D01*
X25101213Y-43350130D01*
X25196397Y-43616292D01*
X25263329Y-43741514D01*
X25507298Y-43813097D01*
X26320395Y-43000000D01*
X25507298Y-42186903D01*
X25263329Y-42258486D01*
X25142429Y-42513996D01*
X25073700Y-42788184D01*
X25059783Y-43070512D01*
X6125158Y-43070512D01*
X6176011Y-42947743D01*
X6235000Y-42651184D01*
X6235000Y-42348816D01*
X6176011Y-42052257D01*
X6157389Y-42007298D01*
X25686903Y-42007298D01*
X26500000Y-42820395D01*
X27313097Y-42007298D01*
X27241514Y-41763329D01*
X26986004Y-41642429D01*
X26711816Y-41573700D01*
X26429488Y-41559783D01*
X26149870Y-41601213D01*
X25883708Y-41696397D01*
X25758486Y-41763329D01*
X25686903Y-42007298D01*
X6157389Y-42007298D01*
X6060299Y-41772905D01*
X5892312Y-41521495D01*
X5678505Y-41307688D01*
X5592169Y-41250000D01*
X5678505Y-41192312D01*
X5892312Y-40978505D01*
X6060299Y-40727095D01*
X6176011Y-40447743D01*
X6235000Y-40151184D01*
X6235000Y-39850559D01*
X6609756Y-40100963D01*
X7143892Y-40322209D01*
X7710928Y-40435000D01*
X8289072Y-40435000D01*
X8856108Y-40322209D01*
X9390244Y-40100963D01*
X9870953Y-39779763D01*
X10279763Y-39370953D01*
X10600963Y-38890244D01*
X10822209Y-38356108D01*
X10935000Y-37789072D01*
X10935000Y-37240000D01*
X13601928Y-37240000D01*
X13601928Y-38760000D01*
X13614188Y-38884482D01*
X13650498Y-39004180D01*
X13709463Y-39114494D01*
X13788815Y-39211185D01*
X13885506Y-39290537D01*
X13995820Y-39349502D01*
X14115518Y-39385812D01*
X14240000Y-39398072D01*
X15760000Y-39398072D01*
X15884482Y-39385812D01*
X16004180Y-39349502D01*
X16114494Y-39290537D01*
X16211185Y-39211185D01*
X16290537Y-39114494D01*
X16349502Y-39004180D01*
X16385812Y-38884482D01*
X16394474Y-38796533D01*
X16456433Y-38889261D01*
X16650739Y-39083567D01*
X16879220Y-39236233D01*
X17133093Y-39341391D01*
X17402604Y-39395000D01*
X17677396Y-39395000D01*
X17946907Y-39341391D01*
X18200780Y-39236233D01*
X18429261Y-39083567D01*
X18623567Y-38889261D01*
X18776233Y-38660780D01*
X18810000Y-38579260D01*
X18843767Y-38660780D01*
X18996433Y-38889261D01*
X19190739Y-39083567D01*
X19419220Y-39236233D01*
X19673093Y-39341391D01*
X19942604Y-39395000D01*
X20217396Y-39395000D01*
X20486907Y-39341391D01*
X20740780Y-39236233D01*
X20969261Y-39083567D01*
X21163567Y-38889261D01*
X21316233Y-38660780D01*
X21421391Y-38406907D01*
X21475000Y-38137396D01*
X21475000Y-37862604D01*
X21421391Y-37593093D01*
X21316233Y-37339220D01*
X21163567Y-37110739D01*
X20969261Y-36916433D01*
X20740780Y-36763767D01*
X20486907Y-36658609D01*
X20217396Y-36605000D01*
X19942604Y-36605000D01*
X19673093Y-36658609D01*
X19419220Y-36763767D01*
X19190739Y-36916433D01*
X18996433Y-37110739D01*
X18843767Y-37339220D01*
X18810000Y-37420740D01*
X18776233Y-37339220D01*
X18623567Y-37110739D01*
X18429261Y-36916433D01*
X18200780Y-36763767D01*
X17946907Y-36658609D01*
X17677396Y-36605000D01*
X17402604Y-36605000D01*
X17133093Y-36658609D01*
X16879220Y-36763767D01*
X16650739Y-36916433D01*
X16456433Y-37110739D01*
X16394474Y-37203467D01*
X16385812Y-37115518D01*
X16349502Y-36995820D01*
X16290537Y-36885506D01*
X16211185Y-36788815D01*
X16114494Y-36709463D01*
X16004180Y-36650498D01*
X15884482Y-36614188D01*
X15760000Y-36601928D01*
X14240000Y-36601928D01*
X14115518Y-36614188D01*
X13995820Y-36650498D01*
X13885506Y-36709463D01*
X13788815Y-36788815D01*
X13709463Y-36885506D01*
X13650498Y-36995820D01*
X13614188Y-37115518D01*
X13601928Y-37240000D01*
X10935000Y-37240000D01*
X10935000Y-37210928D01*
X10822209Y-36643892D01*
X10704065Y-36358665D01*
X21565000Y-36358665D01*
X21565000Y-36641335D01*
X21620147Y-36918574D01*
X21728320Y-37179727D01*
X21885363Y-37414759D01*
X22085241Y-37614637D01*
X22320273Y-37771680D01*
X22581426Y-37879853D01*
X22858665Y-37935000D01*
X23141335Y-37935000D01*
X23418574Y-37879853D01*
X23679727Y-37771680D01*
X23914759Y-37614637D01*
X24114637Y-37414759D01*
X24271680Y-37179727D01*
X24379853Y-36918574D01*
X24435000Y-36641335D01*
X24435000Y-36358665D01*
X24379853Y-36081426D01*
X24271680Y-35820273D01*
X24114637Y-35585241D01*
X23914759Y-35385363D01*
X23679727Y-35228320D01*
X23418574Y-35120147D01*
X23141335Y-35065000D01*
X22858665Y-35065000D01*
X22581426Y-35120147D01*
X22320273Y-35228320D01*
X22085241Y-35385363D01*
X21885363Y-35585241D01*
X21728320Y-35820273D01*
X21620147Y-36081426D01*
X21565000Y-36358665D01*
X10704065Y-36358665D01*
X10600963Y-36109756D01*
X10279763Y-35629047D01*
X9870953Y-35220237D01*
X9390244Y-34899037D01*
X8856108Y-34677791D01*
X8289072Y-34565000D01*
X7710928Y-34565000D01*
X7143892Y-34677791D01*
X6609756Y-34899037D01*
X6129047Y-35220237D01*
X5720237Y-35629047D01*
X5399037Y-36109756D01*
X5177791Y-36643892D01*
X5065000Y-37210928D01*
X5065000Y-37789072D01*
X5177791Y-38356108D01*
X5267955Y-38573783D01*
X5147743Y-38523989D01*
X4851184Y-38465000D01*
X4548816Y-38465000D01*
X4252257Y-38523989D01*
X3972905Y-38639701D01*
X3721495Y-38807688D01*
X3507688Y-39021495D01*
X3445210Y-39115000D01*
X2537665Y-39115000D01*
X2494199Y-39110719D01*
X2450733Y-39115000D01*
X2450723Y-39115000D01*
X2320710Y-39127805D01*
X2153887Y-39178411D01*
X2000141Y-39260589D01*
X2000139Y-39260590D01*
X2000140Y-39260590D01*
X1899153Y-39343468D01*
X1899151Y-39343470D01*
X1865383Y-39371183D01*
X1837670Y-39404951D01*
X660000Y-40582622D01*
X660000Y-31858665D01*
X21565000Y-31858665D01*
X21565000Y-32141335D01*
X21620147Y-32418574D01*
X21728320Y-32679727D01*
X21885363Y-32914759D01*
X22085241Y-33114637D01*
X22320273Y-33271680D01*
X22581426Y-33379853D01*
X22858665Y-33435000D01*
X23141335Y-33435000D01*
X23418574Y-33379853D01*
X23679727Y-33271680D01*
X23914759Y-33114637D01*
X24114637Y-32914759D01*
X24271680Y-32679727D01*
X24379853Y-32418574D01*
X24435000Y-32141335D01*
X24435000Y-31858665D01*
X24379853Y-31581426D01*
X24271680Y-31320273D01*
X24114637Y-31085241D01*
X23914759Y-30885363D01*
X23679727Y-30728320D01*
X23418574Y-30620147D01*
X23141335Y-30565000D01*
X22858665Y-30565000D01*
X22581426Y-30620147D01*
X22320273Y-30728320D01*
X22085241Y-30885363D01*
X21885363Y-31085241D01*
X21728320Y-31320273D01*
X21620147Y-31581426D01*
X21565000Y-31858665D01*
X660000Y-31858665D01*
X660000Y-28358665D01*
X21565000Y-28358665D01*
X21565000Y-28641335D01*
X21620147Y-28918574D01*
X21728320Y-29179727D01*
X21885363Y-29414759D01*
X22085241Y-29614637D01*
X22320273Y-29771680D01*
X22581426Y-29879853D01*
X22858665Y-29935000D01*
X23141335Y-29935000D01*
X23418574Y-29879853D01*
X23679727Y-29771680D01*
X23914759Y-29614637D01*
X24114637Y-29414759D01*
X24271680Y-29179727D01*
X24379853Y-28918574D01*
X24435000Y-28641335D01*
X24435000Y-28358665D01*
X31725000Y-28358665D01*
X31725000Y-28641335D01*
X31780147Y-28918574D01*
X31888320Y-29179727D01*
X32045363Y-29414759D01*
X32245241Y-29614637D01*
X32480273Y-29771680D01*
X32741426Y-29879853D01*
X33018665Y-29935000D01*
X33301335Y-29935000D01*
X33578574Y-29879853D01*
X33839727Y-29771680D01*
X34074759Y-29614637D01*
X34274637Y-29414759D01*
X34431680Y-29179727D01*
X34539853Y-28918574D01*
X34595000Y-28641335D01*
X34595000Y-28358665D01*
X34539853Y-28081426D01*
X34431680Y-27820273D01*
X34274637Y-27585241D01*
X34074759Y-27385363D01*
X34034803Y-27358665D01*
X35065000Y-27358665D01*
X35065000Y-27641335D01*
X35120147Y-27918574D01*
X35228320Y-28179727D01*
X35385363Y-28414759D01*
X35585241Y-28614637D01*
X35787827Y-28750000D01*
X35585241Y-28885363D01*
X35385363Y-29085241D01*
X35228320Y-29320273D01*
X35120147Y-29581426D01*
X35065000Y-29858665D01*
X35065000Y-30141335D01*
X35120147Y-30418574D01*
X35228320Y-30679727D01*
X35385363Y-30914759D01*
X35585241Y-31114637D01*
X35820273Y-31271680D01*
X36081426Y-31379853D01*
X36358665Y-31435000D01*
X36641335Y-31435000D01*
X36918574Y-31379853D01*
X37179727Y-31271680D01*
X37414759Y-31114637D01*
X37614637Y-30914759D01*
X37771680Y-30679727D01*
X37879853Y-30418574D01*
X37935000Y-30141335D01*
X37935000Y-29858665D01*
X37879853Y-29581426D01*
X37771680Y-29320273D01*
X37614637Y-29085241D01*
X37414759Y-28885363D01*
X37212173Y-28750000D01*
X37414759Y-28614637D01*
X37614637Y-28414759D01*
X37771680Y-28179727D01*
X37879853Y-27918574D01*
X37935000Y-27641335D01*
X37935000Y-27358665D01*
X37879853Y-27081426D01*
X37771680Y-26820273D01*
X37614637Y-26585241D01*
X37414759Y-26385363D01*
X37179727Y-26228320D01*
X36918574Y-26120147D01*
X36641335Y-26065000D01*
X36358665Y-26065000D01*
X36081426Y-26120147D01*
X35820273Y-26228320D01*
X35585241Y-26385363D01*
X35385363Y-26585241D01*
X35228320Y-26820273D01*
X35120147Y-27081426D01*
X35065000Y-27358665D01*
X34034803Y-27358665D01*
X33839727Y-27228320D01*
X33578574Y-27120147D01*
X33301335Y-27065000D01*
X33018665Y-27065000D01*
X32741426Y-27120147D01*
X32480273Y-27228320D01*
X32245241Y-27385363D01*
X32045363Y-27585241D01*
X31888320Y-27820273D01*
X31780147Y-28081426D01*
X31725000Y-28358665D01*
X24435000Y-28358665D01*
X24379853Y-28081426D01*
X24271680Y-27820273D01*
X24114637Y-27585241D01*
X23914759Y-27385363D01*
X23679727Y-27228320D01*
X23418574Y-27120147D01*
X23141335Y-27065000D01*
X22858665Y-27065000D01*
X22581426Y-27120147D01*
X22320273Y-27228320D01*
X22085241Y-27385363D01*
X21885363Y-27585241D01*
X21728320Y-27820273D01*
X21620147Y-28081426D01*
X21565000Y-28358665D01*
X660000Y-28358665D01*
X660000Y-25150000D01*
X10951928Y-25150000D01*
X10951928Y-26850000D01*
X10964188Y-26974482D01*
X11000498Y-27094180D01*
X11059463Y-27204494D01*
X11138815Y-27301185D01*
X11235506Y-27380537D01*
X11345820Y-27439502D01*
X11465518Y-27475812D01*
X11590000Y-27488072D01*
X13290000Y-27488072D01*
X13414482Y-27475812D01*
X13534180Y-27439502D01*
X13644494Y-27380537D01*
X13741185Y-27301185D01*
X13820537Y-27204494D01*
X13879502Y-27094180D01*
X13915812Y-26974482D01*
X13928072Y-26850000D01*
X13928072Y-25150000D01*
X13915812Y-25025518D01*
X13879502Y-24905820D01*
X13820537Y-24795506D01*
X13741185Y-24698815D01*
X13644494Y-24619463D01*
X13534180Y-24560498D01*
X13461620Y-24538487D01*
X13593475Y-24406632D01*
X13755990Y-24163411D01*
X13867932Y-23893158D01*
X13925000Y-23606260D01*
X13925000Y-23313740D01*
X13867932Y-23026842D01*
X13755990Y-22756589D01*
X13593475Y-22513368D01*
X13386632Y-22306525D01*
X13212240Y-22190000D01*
X13386632Y-22073475D01*
X13593475Y-21866632D01*
X13598798Y-21858665D01*
X19565000Y-21858665D01*
X19565000Y-22141335D01*
X19620147Y-22418574D01*
X19728320Y-22679727D01*
X19885363Y-22914759D01*
X20085241Y-23114637D01*
X20287827Y-23250000D01*
X20085241Y-23385363D01*
X19885363Y-23585241D01*
X19728320Y-23820273D01*
X19620147Y-24081426D01*
X19565000Y-24358665D01*
X19565000Y-24641335D01*
X19620147Y-24918574D01*
X19728320Y-25179727D01*
X19885363Y-25414759D01*
X20085241Y-25614637D01*
X20320273Y-25771680D01*
X20581426Y-25879853D01*
X20858665Y-25935000D01*
X21141335Y-25935000D01*
X21418574Y-25879853D01*
X21679727Y-25771680D01*
X21914759Y-25614637D01*
X22114637Y-25414759D01*
X22271680Y-25179727D01*
X22379853Y-24918574D01*
X22435000Y-24641335D01*
X22435000Y-24358665D01*
X22379853Y-24081426D01*
X22271680Y-23820273D01*
X22114637Y-23585241D01*
X21914759Y-23385363D01*
X21712173Y-23250000D01*
X21787003Y-23200000D01*
X24061928Y-23200000D01*
X24061928Y-24800000D01*
X24074188Y-24924482D01*
X24110498Y-25044180D01*
X24169463Y-25154494D01*
X24248815Y-25251185D01*
X24345506Y-25330537D01*
X24455820Y-25389502D01*
X24575518Y-25425812D01*
X24700000Y-25438072D01*
X26300000Y-25438072D01*
X26424482Y-25425812D01*
X26544180Y-25389502D01*
X26654494Y-25330537D01*
X26751185Y-25251185D01*
X26830537Y-25154494D01*
X26889502Y-25044180D01*
X26925812Y-24924482D01*
X26938072Y-24800000D01*
X26938072Y-23858665D01*
X27065000Y-23858665D01*
X27065000Y-24141335D01*
X27120147Y-24418574D01*
X27228320Y-24679727D01*
X27385363Y-24914759D01*
X27585241Y-25114637D01*
X27820273Y-25271680D01*
X28081426Y-25379853D01*
X28358665Y-25435000D01*
X28641335Y-25435000D01*
X28918574Y-25379853D01*
X29179727Y-25271680D01*
X29414759Y-25114637D01*
X29614637Y-24914759D01*
X29771680Y-24679727D01*
X29879853Y-24418574D01*
X29935000Y-24141335D01*
X29935000Y-23858665D01*
X29879853Y-23581426D01*
X29771680Y-23320273D01*
X29691317Y-23200000D01*
X32561928Y-23200000D01*
X32561928Y-24800000D01*
X32574188Y-24924482D01*
X32610498Y-25044180D01*
X32669463Y-25154494D01*
X32748815Y-25251185D01*
X32845506Y-25330537D01*
X32955820Y-25389502D01*
X33075518Y-25425812D01*
X33200000Y-25438072D01*
X34800000Y-25438072D01*
X34924482Y-25425812D01*
X35044180Y-25389502D01*
X35154494Y-25330537D01*
X35251185Y-25251185D01*
X35330537Y-25154494D01*
X35389502Y-25044180D01*
X35425812Y-24924482D01*
X35438072Y-24800000D01*
X35438072Y-23858665D01*
X35565000Y-23858665D01*
X35565000Y-24141335D01*
X35620147Y-24418574D01*
X35728320Y-24679727D01*
X35885363Y-24914759D01*
X36085241Y-25114637D01*
X36320273Y-25271680D01*
X36581426Y-25379853D01*
X36858665Y-25435000D01*
X37141335Y-25435000D01*
X37418574Y-25379853D01*
X37679727Y-25271680D01*
X37914759Y-25114637D01*
X38114637Y-24914759D01*
X38271680Y-24679727D01*
X38379853Y-24418574D01*
X38435000Y-24141335D01*
X38435000Y-23858665D01*
X38379853Y-23581426D01*
X38271680Y-23320273D01*
X38114637Y-23085241D01*
X37914759Y-22885363D01*
X37679727Y-22728320D01*
X37418574Y-22620147D01*
X37141335Y-22565000D01*
X36858665Y-22565000D01*
X36581426Y-22620147D01*
X36320273Y-22728320D01*
X36085241Y-22885363D01*
X35885363Y-23085241D01*
X35728320Y-23320273D01*
X35620147Y-23581426D01*
X35565000Y-23858665D01*
X35438072Y-23858665D01*
X35438072Y-23200000D01*
X35425812Y-23075518D01*
X35389502Y-22955820D01*
X35330537Y-22845506D01*
X35251185Y-22748815D01*
X35154494Y-22669463D01*
X35044180Y-22610498D01*
X34924482Y-22574188D01*
X34800000Y-22561928D01*
X33200000Y-22561928D01*
X33075518Y-22574188D01*
X32955820Y-22610498D01*
X32845506Y-22669463D01*
X32748815Y-22748815D01*
X32669463Y-22845506D01*
X32610498Y-22955820D01*
X32574188Y-23075518D01*
X32561928Y-23200000D01*
X29691317Y-23200000D01*
X29614637Y-23085241D01*
X29414759Y-22885363D01*
X29179727Y-22728320D01*
X28918574Y-22620147D01*
X28641335Y-22565000D01*
X28358665Y-22565000D01*
X28081426Y-22620147D01*
X27820273Y-22728320D01*
X27585241Y-22885363D01*
X27385363Y-23085241D01*
X27228320Y-23320273D01*
X27120147Y-23581426D01*
X27065000Y-23858665D01*
X26938072Y-23858665D01*
X26938072Y-23200000D01*
X26925812Y-23075518D01*
X26889502Y-22955820D01*
X26830537Y-22845506D01*
X26751185Y-22748815D01*
X26654494Y-22669463D01*
X26544180Y-22610498D01*
X26424482Y-22574188D01*
X26300000Y-22561928D01*
X24700000Y-22561928D01*
X24575518Y-22574188D01*
X24455820Y-22610498D01*
X24345506Y-22669463D01*
X24248815Y-22748815D01*
X24169463Y-22845506D01*
X24110498Y-22955820D01*
X24074188Y-23075518D01*
X24061928Y-23200000D01*
X21787003Y-23200000D01*
X21914759Y-23114637D01*
X22114637Y-22914759D01*
X22271680Y-22679727D01*
X22379853Y-22418574D01*
X22435000Y-22141335D01*
X22435000Y-21858665D01*
X22379853Y-21581426D01*
X22271680Y-21320273D01*
X22114637Y-21085241D01*
X21914759Y-20885363D01*
X21679727Y-20728320D01*
X21418574Y-20620147D01*
X21141335Y-20565000D01*
X20858665Y-20565000D01*
X20581426Y-20620147D01*
X20320273Y-20728320D01*
X20085241Y-20885363D01*
X19885363Y-21085241D01*
X19728320Y-21320273D01*
X19620147Y-21581426D01*
X19565000Y-21858665D01*
X13598798Y-21858665D01*
X13755990Y-21623411D01*
X13867932Y-21353158D01*
X13925000Y-21066260D01*
X13925000Y-20773740D01*
X13867932Y-20486842D01*
X13755990Y-20216589D01*
X13593475Y-19973368D01*
X13386632Y-19766525D01*
X13212240Y-19650000D01*
X13386632Y-19533475D01*
X13593475Y-19326632D01*
X13755990Y-19083411D01*
X13867932Y-18813158D01*
X13925000Y-18526260D01*
X13925000Y-18233740D01*
X13867932Y-17946842D01*
X13831409Y-17858665D01*
X14565000Y-17858665D01*
X14565000Y-18141335D01*
X14620147Y-18418574D01*
X14728320Y-18679727D01*
X14885363Y-18914759D01*
X15085241Y-19114637D01*
X15320273Y-19271680D01*
X15581426Y-19379853D01*
X15858665Y-19435000D01*
X16141335Y-19435000D01*
X16418574Y-19379853D01*
X16679727Y-19271680D01*
X16914759Y-19114637D01*
X17114637Y-18914759D01*
X17271680Y-18679727D01*
X17379853Y-18418574D01*
X17435000Y-18141335D01*
X17435000Y-17858665D01*
X17379853Y-17581426D01*
X17271680Y-17320273D01*
X17114637Y-17085241D01*
X16914759Y-16885363D01*
X16679727Y-16728320D01*
X16418574Y-16620147D01*
X16141335Y-16565000D01*
X15858665Y-16565000D01*
X15581426Y-16620147D01*
X15320273Y-16728320D01*
X15085241Y-16885363D01*
X14885363Y-17085241D01*
X14728320Y-17320273D01*
X14620147Y-17581426D01*
X14565000Y-17858665D01*
X13831409Y-17858665D01*
X13755990Y-17676589D01*
X13593475Y-17433368D01*
X13386632Y-17226525D01*
X13143411Y-17064010D01*
X12873158Y-16952068D01*
X12586260Y-16895000D01*
X12293740Y-16895000D01*
X12006842Y-16952068D01*
X11736589Y-17064010D01*
X11493368Y-17226525D01*
X11286525Y-17433368D01*
X11124010Y-17676589D01*
X11012068Y-17946842D01*
X10955000Y-18233740D01*
X10955000Y-18526260D01*
X11012068Y-18813158D01*
X11124010Y-19083411D01*
X11286525Y-19326632D01*
X11493368Y-19533475D01*
X11667760Y-19650000D01*
X11493368Y-19766525D01*
X11286525Y-19973368D01*
X11124010Y-20216589D01*
X11012068Y-20486842D01*
X10955000Y-20773740D01*
X10955000Y-21066260D01*
X11012068Y-21353158D01*
X11124010Y-21623411D01*
X11286525Y-21866632D01*
X11493368Y-22073475D01*
X11667760Y-22190000D01*
X11493368Y-22306525D01*
X11286525Y-22513368D01*
X11124010Y-22756589D01*
X11012068Y-23026842D01*
X10955000Y-23313740D01*
X10955000Y-23606260D01*
X11012068Y-23893158D01*
X11124010Y-24163411D01*
X11286525Y-24406632D01*
X11418380Y-24538487D01*
X11345820Y-24560498D01*
X11235506Y-24619463D01*
X11138815Y-24698815D01*
X11059463Y-24795506D01*
X11000498Y-24905820D01*
X10964188Y-25025518D01*
X10951928Y-25150000D01*
X660000Y-25150000D01*
X660000Y-15858665D01*
X19565000Y-15858665D01*
X19565000Y-16141335D01*
X19620147Y-16418574D01*
X19728320Y-16679727D01*
X19885363Y-16914759D01*
X20085241Y-17114637D01*
X20287827Y-17250000D01*
X20085241Y-17385363D01*
X19885363Y-17585241D01*
X19728320Y-17820273D01*
X19620147Y-18081426D01*
X19565000Y-18358665D01*
X19565000Y-18641335D01*
X19620147Y-18918574D01*
X19728320Y-19179727D01*
X19885363Y-19414759D01*
X20085241Y-19614637D01*
X20320273Y-19771680D01*
X20581426Y-19879853D01*
X20858665Y-19935000D01*
X21141335Y-19935000D01*
X21418574Y-19879853D01*
X21679727Y-19771680D01*
X21914759Y-19614637D01*
X22114637Y-19414759D01*
X22271680Y-19179727D01*
X22379853Y-18918574D01*
X22435000Y-18641335D01*
X22435000Y-18358665D01*
X22379853Y-18081426D01*
X22271680Y-17820273D01*
X22114637Y-17585241D01*
X21914759Y-17385363D01*
X21712173Y-17250000D01*
X21914759Y-17114637D01*
X22114637Y-16914759D01*
X22271680Y-16679727D01*
X22379853Y-16418574D01*
X22435000Y-16141335D01*
X22435000Y-15858665D01*
X22379853Y-15581426D01*
X22271680Y-15320273D01*
X22114637Y-15085241D01*
X21914759Y-14885363D01*
X21679727Y-14728320D01*
X21418574Y-14620147D01*
X21141335Y-14565000D01*
X20858665Y-14565000D01*
X20581426Y-14620147D01*
X20320273Y-14728320D01*
X20085241Y-14885363D01*
X19885363Y-15085241D01*
X19728320Y-15320273D01*
X19620147Y-15581426D01*
X19565000Y-15858665D01*
X660000Y-15858665D01*
X660000Y-11000000D01*
X3661928Y-11000000D01*
X3661928Y-12000000D01*
X3674188Y-12124482D01*
X3710498Y-12244180D01*
X3769463Y-12354494D01*
X3848815Y-12451185D01*
X3945506Y-12530537D01*
X4055820Y-12589502D01*
X4175518Y-12625812D01*
X4300000Y-12638072D01*
X6500000Y-12638072D01*
X6624482Y-12625812D01*
X6744180Y-12589502D01*
X6854494Y-12530537D01*
X6951185Y-12451185D01*
X7030537Y-12354494D01*
X7089502Y-12244180D01*
X7125812Y-12124482D01*
X7138072Y-12000000D01*
X7138072Y-11000000D01*
X7125812Y-10875518D01*
X7089502Y-10755820D01*
X7030537Y-10645506D01*
X6951185Y-10548815D01*
X6854494Y-10469463D01*
X6744180Y-10410498D01*
X6624482Y-10374188D01*
X6500000Y-10361928D01*
X4300000Y-10361928D01*
X4175518Y-10374188D01*
X4055820Y-10410498D01*
X3945506Y-10469463D01*
X3848815Y-10548815D01*
X3769463Y-10645506D01*
X3710498Y-10755820D01*
X3674188Y-10875518D01*
X3661928Y-11000000D01*
X660000Y-11000000D01*
X660000Y-9900000D01*
X11861928Y-9900000D01*
X11861928Y-12100000D01*
X11874188Y-12224482D01*
X11910498Y-12344180D01*
X11969463Y-12454494D01*
X12048815Y-12551185D01*
X12145506Y-12630537D01*
X12255820Y-12689502D01*
X12375518Y-12725812D01*
X12500000Y-12738072D01*
X13500000Y-12738072D01*
X13624482Y-12725812D01*
X13744180Y-12689502D01*
X13854494Y-12630537D01*
X13951185Y-12551185D01*
X13985772Y-12509040D01*
X19608091Y-12509040D01*
X19702930Y-12773881D01*
X19847615Y-13015131D01*
X20036586Y-13223519D01*
X20262580Y-13391037D01*
X20516913Y-13511246D01*
X20650961Y-13551904D01*
X20873000Y-13429915D01*
X20873000Y-12287000D01*
X21127000Y-12287000D01*
X21127000Y-13429915D01*
X21349039Y-13551904D01*
X21483087Y-13511246D01*
X21737420Y-13391037D01*
X21963414Y-13223519D01*
X21984741Y-13200000D01*
X24061928Y-13200000D01*
X24061928Y-14800000D01*
X24074188Y-14924482D01*
X24110498Y-15044180D01*
X24169463Y-15154494D01*
X24248815Y-15251185D01*
X24345506Y-15330537D01*
X24455820Y-15389502D01*
X24459873Y-15390731D01*
X24385363Y-15465241D01*
X24228320Y-15700273D01*
X24120147Y-15961426D01*
X24065000Y-16238665D01*
X24065000Y-16521335D01*
X24120147Y-16798574D01*
X24228320Y-17059727D01*
X24385363Y-17294759D01*
X24585241Y-17494637D01*
X24820273Y-17651680D01*
X25081426Y-17759853D01*
X25358665Y-17815000D01*
X25641335Y-17815000D01*
X25918574Y-17759853D01*
X26179727Y-17651680D01*
X26414759Y-17494637D01*
X26614637Y-17294759D01*
X26771680Y-17059727D01*
X26879853Y-16798574D01*
X26935000Y-16521335D01*
X26935000Y-16238665D01*
X26879853Y-15961426D01*
X26771680Y-15700273D01*
X26691317Y-15580000D01*
X27061928Y-15580000D01*
X27061928Y-17180000D01*
X27074188Y-17304482D01*
X27110498Y-17424180D01*
X27169463Y-17534494D01*
X27248815Y-17631185D01*
X27345506Y-17710537D01*
X27455820Y-17769502D01*
X27575518Y-17805812D01*
X27700000Y-17818072D01*
X29300000Y-17818072D01*
X29424482Y-17805812D01*
X29544180Y-17769502D01*
X29654494Y-17710537D01*
X29751185Y-17631185D01*
X29830537Y-17534494D01*
X29889502Y-17424180D01*
X29925812Y-17304482D01*
X29938072Y-17180000D01*
X29938072Y-15580000D01*
X29925812Y-15455518D01*
X29889502Y-15335820D01*
X29830537Y-15225506D01*
X29751185Y-15128815D01*
X29654494Y-15049463D01*
X29544180Y-14990498D01*
X29540127Y-14989269D01*
X29614637Y-14914759D01*
X29771680Y-14679727D01*
X29879853Y-14418574D01*
X29935000Y-14141335D01*
X29935000Y-13858665D01*
X29879853Y-13581426D01*
X29771680Y-13320273D01*
X29691317Y-13200000D01*
X32561928Y-13200000D01*
X32561928Y-14800000D01*
X32574188Y-14924482D01*
X32610498Y-15044180D01*
X32669463Y-15154494D01*
X32748815Y-15251185D01*
X32845506Y-15330537D01*
X32955820Y-15389502D01*
X32959873Y-15390731D01*
X32885363Y-15465241D01*
X32728320Y-15700273D01*
X32620147Y-15961426D01*
X32565000Y-16238665D01*
X32565000Y-16521335D01*
X32620147Y-16798574D01*
X32728320Y-17059727D01*
X32885363Y-17294759D01*
X33085241Y-17494637D01*
X33320273Y-17651680D01*
X33581426Y-17759853D01*
X33858665Y-17815000D01*
X34141335Y-17815000D01*
X34418574Y-17759853D01*
X34679727Y-17651680D01*
X34914759Y-17494637D01*
X35114637Y-17294759D01*
X35271680Y-17059727D01*
X35379853Y-16798574D01*
X35435000Y-16521335D01*
X35435000Y-16238665D01*
X35379853Y-15961426D01*
X35271680Y-15700273D01*
X35191317Y-15580000D01*
X35561928Y-15580000D01*
X35561928Y-17180000D01*
X35574188Y-17304482D01*
X35610498Y-17424180D01*
X35669463Y-17534494D01*
X35748815Y-17631185D01*
X35845506Y-17710537D01*
X35955820Y-17769502D01*
X36075518Y-17805812D01*
X36200000Y-17818072D01*
X37800000Y-17818072D01*
X37924482Y-17805812D01*
X38044180Y-17769502D01*
X38154494Y-17710537D01*
X38251185Y-17631185D01*
X38330537Y-17534494D01*
X38389502Y-17424180D01*
X38425812Y-17304482D01*
X38438072Y-17180000D01*
X38438072Y-15580000D01*
X38425812Y-15455518D01*
X38389502Y-15335820D01*
X38330537Y-15225506D01*
X38251185Y-15128815D01*
X38154494Y-15049463D01*
X38044180Y-14990498D01*
X38040127Y-14989269D01*
X38114637Y-14914759D01*
X38271680Y-14679727D01*
X38379853Y-14418574D01*
X38435000Y-14141335D01*
X38435000Y-13858665D01*
X38379853Y-13581426D01*
X38271680Y-13320273D01*
X38114637Y-13085241D01*
X37914759Y-12885363D01*
X37679727Y-12728320D01*
X37418574Y-12620147D01*
X37141335Y-12565000D01*
X36858665Y-12565000D01*
X36581426Y-12620147D01*
X36320273Y-12728320D01*
X36085241Y-12885363D01*
X35885363Y-13085241D01*
X35728320Y-13320273D01*
X35620147Y-13581426D01*
X35565000Y-13858665D01*
X35565000Y-14141335D01*
X35620147Y-14418574D01*
X35728320Y-14679727D01*
X35885363Y-14914759D01*
X35959873Y-14989269D01*
X35955820Y-14990498D01*
X35845506Y-15049463D01*
X35748815Y-15128815D01*
X35669463Y-15225506D01*
X35610498Y-15335820D01*
X35574188Y-15455518D01*
X35561928Y-15580000D01*
X35191317Y-15580000D01*
X35114637Y-15465241D01*
X35040127Y-15390731D01*
X35044180Y-15389502D01*
X35154494Y-15330537D01*
X35251185Y-15251185D01*
X35330537Y-15154494D01*
X35389502Y-15044180D01*
X35425812Y-14924482D01*
X35438072Y-14800000D01*
X35438072Y-13200000D01*
X35425812Y-13075518D01*
X35389502Y-12955820D01*
X35330537Y-12845506D01*
X35251185Y-12748815D01*
X35154494Y-12669463D01*
X35044180Y-12610498D01*
X34924482Y-12574188D01*
X34800000Y-12561928D01*
X33200000Y-12561928D01*
X33075518Y-12574188D01*
X32955820Y-12610498D01*
X32845506Y-12669463D01*
X32748815Y-12748815D01*
X32669463Y-12845506D01*
X32610498Y-12955820D01*
X32574188Y-13075518D01*
X32561928Y-13200000D01*
X29691317Y-13200000D01*
X29614637Y-13085241D01*
X29414759Y-12885363D01*
X29179727Y-12728320D01*
X28918574Y-12620147D01*
X28641335Y-12565000D01*
X28358665Y-12565000D01*
X28081426Y-12620147D01*
X27820273Y-12728320D01*
X27585241Y-12885363D01*
X27385363Y-13085241D01*
X27228320Y-13320273D01*
X27120147Y-13581426D01*
X27065000Y-13858665D01*
X27065000Y-14141335D01*
X27120147Y-14418574D01*
X27228320Y-14679727D01*
X27385363Y-14914759D01*
X27459873Y-14989269D01*
X27455820Y-14990498D01*
X27345506Y-15049463D01*
X27248815Y-15128815D01*
X27169463Y-15225506D01*
X27110498Y-15335820D01*
X27074188Y-15455518D01*
X27061928Y-15580000D01*
X26691317Y-15580000D01*
X26614637Y-15465241D01*
X26540127Y-15390731D01*
X26544180Y-15389502D01*
X26654494Y-15330537D01*
X26751185Y-15251185D01*
X26830537Y-15154494D01*
X26889502Y-15044180D01*
X26925812Y-14924482D01*
X26938072Y-14800000D01*
X26938072Y-13200000D01*
X26925812Y-13075518D01*
X26889502Y-12955820D01*
X26830537Y-12845506D01*
X26751185Y-12748815D01*
X26654494Y-12669463D01*
X26544180Y-12610498D01*
X26424482Y-12574188D01*
X26300000Y-12561928D01*
X24700000Y-12561928D01*
X24575518Y-12574188D01*
X24455820Y-12610498D01*
X24345506Y-12669463D01*
X24248815Y-12748815D01*
X24169463Y-12845506D01*
X24110498Y-12955820D01*
X24074188Y-13075518D01*
X24061928Y-13200000D01*
X21984741Y-13200000D01*
X22152385Y-13015131D01*
X22297070Y-12773881D01*
X22391909Y-12509040D01*
X22270624Y-12287000D01*
X21127000Y-12287000D01*
X20873000Y-12287000D01*
X19729376Y-12287000D01*
X19608091Y-12509040D01*
X13985772Y-12509040D01*
X14030537Y-12454494D01*
X14089502Y-12344180D01*
X14125812Y-12224482D01*
X14138072Y-12100000D01*
X14138072Y-11810960D01*
X19608091Y-11810960D01*
X19729376Y-12033000D01*
X20873000Y-12033000D01*
X20873000Y-10890085D01*
X21127000Y-10890085D01*
X21127000Y-12033000D01*
X22270624Y-12033000D01*
X22391909Y-11810960D01*
X22297070Y-11546119D01*
X22152385Y-11304869D01*
X21963414Y-11096481D01*
X21737420Y-10928963D01*
X21483087Y-10808754D01*
X21349039Y-10768096D01*
X21127000Y-10890085D01*
X20873000Y-10890085D01*
X20650961Y-10768096D01*
X20516913Y-10808754D01*
X20262580Y-10928963D01*
X20036586Y-11096481D01*
X19847615Y-11304869D01*
X19702930Y-11546119D01*
X19608091Y-11810960D01*
X14138072Y-11810960D01*
X14138072Y-9900000D01*
X14125812Y-9775518D01*
X14089502Y-9655820D01*
X14030537Y-9545506D01*
X13951185Y-9448815D01*
X13854494Y-9369463D01*
X13744180Y-9310498D01*
X13624482Y-9274188D01*
X13500000Y-9261928D01*
X12500000Y-9261928D01*
X12375518Y-9274188D01*
X12255820Y-9310498D01*
X12145506Y-9369463D01*
X12048815Y-9448815D01*
X11969463Y-9545506D01*
X11910498Y-9655820D01*
X11874188Y-9775518D01*
X11861928Y-9900000D01*
X660000Y-9900000D01*
X660000Y-8100000D01*
X861928Y-8100000D01*
X874188Y-8224482D01*
X910498Y-8344180D01*
X969463Y-8454494D01*
X1048815Y-8551185D01*
X1145506Y-8630537D01*
X1255820Y-8689502D01*
X1375518Y-8725812D01*
X1500000Y-8738072D01*
X1714250Y-8735000D01*
X1873000Y-8576250D01*
X1873000Y-7127000D01*
X2127000Y-7127000D01*
X2127000Y-8576250D01*
X2285750Y-8735000D01*
X2500000Y-8738072D01*
X2624482Y-8725812D01*
X2744180Y-8689502D01*
X2854494Y-8630537D01*
X2951185Y-8551185D01*
X3030537Y-8454494D01*
X3089502Y-8344180D01*
X3125812Y-8224482D01*
X3138072Y-8100000D01*
X3135000Y-7285750D01*
X2976250Y-7127000D01*
X2127000Y-7127000D01*
X1873000Y-7127000D01*
X1023750Y-7127000D01*
X865000Y-7285750D01*
X861928Y-8100000D01*
X660000Y-8100000D01*
X660000Y-5900000D01*
X861928Y-5900000D01*
X865000Y-6714250D01*
X1023750Y-6873000D01*
X1873000Y-6873000D01*
X1873000Y-5423750D01*
X2127000Y-5423750D01*
X2127000Y-6873000D01*
X2976250Y-6873000D01*
X3135000Y-6714250D01*
X3138072Y-5900000D01*
X3125812Y-5775518D01*
X3089502Y-5655820D01*
X3030537Y-5545506D01*
X2951185Y-5448815D01*
X2854494Y-5369463D01*
X2744180Y-5310498D01*
X2624482Y-5274188D01*
X2500000Y-5261928D01*
X2285750Y-5265000D01*
X2127000Y-5423750D01*
X1873000Y-5423750D01*
X1714250Y-5265000D01*
X1500000Y-5261928D01*
X1375518Y-5274188D01*
X1255820Y-5310498D01*
X1145506Y-5369463D01*
X1048815Y-5448815D01*
X969463Y-5545506D01*
X910498Y-5655820D01*
X874188Y-5775518D01*
X861928Y-5900000D01*
X660000Y-5900000D01*
X660000Y-4000000D01*
X6661928Y-4000000D01*
X6661928Y-5000000D01*
X6674188Y-5124482D01*
X6710498Y-5244180D01*
X6769463Y-5354494D01*
X6848815Y-5451185D01*
X6945506Y-5530537D01*
X7055820Y-5589502D01*
X7175518Y-5625812D01*
X7300000Y-5638072D01*
X9500000Y-5638072D01*
X9624482Y-5625812D01*
X9744180Y-5589502D01*
X9854494Y-5530537D01*
X9951185Y-5451185D01*
X10030537Y-5354494D01*
X10089502Y-5244180D01*
X10125812Y-5124482D01*
X10138072Y-5000000D01*
X10138072Y-4000000D01*
X10125812Y-3875518D01*
X10089502Y-3755820D01*
X10030537Y-3645506D01*
X9951185Y-3548815D01*
X9854494Y-3469463D01*
X9744180Y-3410498D01*
X9624482Y-3374188D01*
X9500000Y-3361928D01*
X7300000Y-3361928D01*
X7175518Y-3374188D01*
X7055820Y-3410498D01*
X6945506Y-3469463D01*
X6848815Y-3548815D01*
X6769463Y-3645506D01*
X6710498Y-3755820D01*
X6674188Y-3875518D01*
X6661928Y-4000000D01*
X660000Y-4000000D01*
X660000Y-1300000D01*
X8061928Y-1300000D01*
X8061928Y-2300000D01*
X8074188Y-2424482D01*
X8110498Y-2544180D01*
X8169463Y-2654494D01*
X8248815Y-2751185D01*
X8345506Y-2830537D01*
X8455820Y-2889502D01*
X8575518Y-2925812D01*
X8700000Y-2938072D01*
X10900000Y-2938072D01*
X11024482Y-2925812D01*
X11144180Y-2889502D01*
X11254494Y-2830537D01*
X11351185Y-2751185D01*
X11430537Y-2654494D01*
X11489502Y-2544180D01*
X11525812Y-2424482D01*
X11532294Y-2358665D01*
X14565000Y-2358665D01*
X14565000Y-2641335D01*
X14620147Y-2918574D01*
X14728320Y-3179727D01*
X14885363Y-3414759D01*
X15085241Y-3614637D01*
X15287827Y-3750000D01*
X15085241Y-3885363D01*
X14885363Y-4085241D01*
X14728320Y-4320273D01*
X14620147Y-4581426D01*
X14565000Y-4858665D01*
X14565000Y-5141335D01*
X14620147Y-5418574D01*
X14728320Y-5679727D01*
X14885363Y-5914759D01*
X15085241Y-6114637D01*
X15320273Y-6271680D01*
X15581426Y-6379853D01*
X15783256Y-6420000D01*
X15581426Y-6460147D01*
X15320273Y-6568320D01*
X15085241Y-6725363D01*
X14885363Y-6925241D01*
X14728320Y-7160273D01*
X14620147Y-7421426D01*
X14565000Y-7698665D01*
X14565000Y-7981335D01*
X14620147Y-8258574D01*
X14728320Y-8519727D01*
X14885363Y-8754759D01*
X15085241Y-8954637D01*
X15320273Y-9111680D01*
X15581426Y-9219853D01*
X15858665Y-9275000D01*
X16141335Y-9275000D01*
X16418574Y-9219853D01*
X16679727Y-9111680D01*
X16914759Y-8954637D01*
X17114637Y-8754759D01*
X17271680Y-8519727D01*
X17379853Y-8258574D01*
X17435000Y-7981335D01*
X17435000Y-7698665D01*
X17379853Y-7421426D01*
X17271680Y-7160273D01*
X17114637Y-6925241D01*
X16914759Y-6725363D01*
X16679727Y-6568320D01*
X16418574Y-6460147D01*
X16216744Y-6420000D01*
X16418574Y-6379853D01*
X16679727Y-6271680D01*
X16729137Y-6238665D01*
X24065000Y-6238665D01*
X24065000Y-6521335D01*
X24120147Y-6798574D01*
X24228320Y-7059727D01*
X24385363Y-7294759D01*
X24585241Y-7494637D01*
X24820273Y-7651680D01*
X25081426Y-7759853D01*
X25358665Y-7815000D01*
X25641335Y-7815000D01*
X25918574Y-7759853D01*
X26179727Y-7651680D01*
X26414759Y-7494637D01*
X26614637Y-7294759D01*
X26771680Y-7059727D01*
X26879853Y-6798574D01*
X26935000Y-6521335D01*
X26935000Y-6238665D01*
X26879853Y-5961426D01*
X26771680Y-5700273D01*
X26691317Y-5580000D01*
X27061928Y-5580000D01*
X27061928Y-7180000D01*
X27074188Y-7304482D01*
X27110498Y-7424180D01*
X27169463Y-7534494D01*
X27248815Y-7631185D01*
X27345506Y-7710537D01*
X27455820Y-7769502D01*
X27575518Y-7805812D01*
X27700000Y-7818072D01*
X29300000Y-7818072D01*
X29424482Y-7805812D01*
X29544180Y-7769502D01*
X29654494Y-7710537D01*
X29751185Y-7631185D01*
X29830537Y-7534494D01*
X29889502Y-7424180D01*
X29925812Y-7304482D01*
X29938072Y-7180000D01*
X29938072Y-6238665D01*
X32565000Y-6238665D01*
X32565000Y-6521335D01*
X32620147Y-6798574D01*
X32728320Y-7059727D01*
X32885363Y-7294759D01*
X33085241Y-7494637D01*
X33320273Y-7651680D01*
X33581426Y-7759853D01*
X33858665Y-7815000D01*
X34141335Y-7815000D01*
X34418574Y-7759853D01*
X34679727Y-7651680D01*
X34914759Y-7494637D01*
X35114637Y-7294759D01*
X35271680Y-7059727D01*
X35379853Y-6798574D01*
X35435000Y-6521335D01*
X35435000Y-6238665D01*
X35379853Y-5961426D01*
X35271680Y-5700273D01*
X35191317Y-5580000D01*
X35561928Y-5580000D01*
X35561928Y-7180000D01*
X35574188Y-7304482D01*
X35610498Y-7424180D01*
X35669463Y-7534494D01*
X35748815Y-7631185D01*
X35845506Y-7710537D01*
X35955820Y-7769502D01*
X36075518Y-7805812D01*
X36200000Y-7818072D01*
X37800000Y-7818072D01*
X37924482Y-7805812D01*
X38044180Y-7769502D01*
X38154494Y-7710537D01*
X38251185Y-7631185D01*
X38330537Y-7534494D01*
X38389502Y-7424180D01*
X38425812Y-7304482D01*
X38438072Y-7180000D01*
X38438072Y-5580000D01*
X38425812Y-5455518D01*
X38389502Y-5335820D01*
X38330537Y-5225506D01*
X38251185Y-5128815D01*
X38154494Y-5049463D01*
X38044180Y-4990498D01*
X37924482Y-4954188D01*
X37800000Y-4941928D01*
X36200000Y-4941928D01*
X36075518Y-4954188D01*
X35955820Y-4990498D01*
X35845506Y-5049463D01*
X35748815Y-5128815D01*
X35669463Y-5225506D01*
X35610498Y-5335820D01*
X35574188Y-5455518D01*
X35561928Y-5580000D01*
X35191317Y-5580000D01*
X35114637Y-5465241D01*
X34914759Y-5265363D01*
X34679727Y-5108320D01*
X34418574Y-5000147D01*
X34141335Y-4945000D01*
X33858665Y-4945000D01*
X33581426Y-5000147D01*
X33320273Y-5108320D01*
X33085241Y-5265363D01*
X32885363Y-5465241D01*
X32728320Y-5700273D01*
X32620147Y-5961426D01*
X32565000Y-6238665D01*
X29938072Y-6238665D01*
X29938072Y-5580000D01*
X29925812Y-5455518D01*
X29889502Y-5335820D01*
X29830537Y-5225506D01*
X29751185Y-5128815D01*
X29654494Y-5049463D01*
X29544180Y-4990498D01*
X29424482Y-4954188D01*
X29300000Y-4941928D01*
X27700000Y-4941928D01*
X27575518Y-4954188D01*
X27455820Y-4990498D01*
X27345506Y-5049463D01*
X27248815Y-5128815D01*
X27169463Y-5225506D01*
X27110498Y-5335820D01*
X27074188Y-5455518D01*
X27061928Y-5580000D01*
X26691317Y-5580000D01*
X26614637Y-5465241D01*
X26414759Y-5265363D01*
X26179727Y-5108320D01*
X25918574Y-5000147D01*
X25641335Y-4945000D01*
X25358665Y-4945000D01*
X25081426Y-5000147D01*
X24820273Y-5108320D01*
X24585241Y-5265363D01*
X24385363Y-5465241D01*
X24228320Y-5700273D01*
X24120147Y-5961426D01*
X24065000Y-6238665D01*
X16729137Y-6238665D01*
X16914759Y-6114637D01*
X17114637Y-5914759D01*
X17271680Y-5679727D01*
X17379853Y-5418574D01*
X17435000Y-5141335D01*
X17435000Y-4858665D01*
X17379853Y-4581426D01*
X17271680Y-4320273D01*
X17114637Y-4085241D01*
X16914759Y-3885363D01*
X16712173Y-3750000D01*
X16914759Y-3614637D01*
X17114637Y-3414759D01*
X17271680Y-3179727D01*
X17379853Y-2918574D01*
X17435000Y-2641335D01*
X17435000Y-2358665D01*
X17379853Y-2081426D01*
X17271680Y-1820273D01*
X17114637Y-1585241D01*
X16914759Y-1385363D01*
X16679727Y-1228320D01*
X16418574Y-1120147D01*
X16141335Y-1065000D01*
X15858665Y-1065000D01*
X15581426Y-1120147D01*
X15320273Y-1228320D01*
X15085241Y-1385363D01*
X14885363Y-1585241D01*
X14728320Y-1820273D01*
X14620147Y-2081426D01*
X14565000Y-2358665D01*
X11532294Y-2358665D01*
X11538072Y-2300000D01*
X11538072Y-1300000D01*
X11525812Y-1175518D01*
X11489502Y-1055820D01*
X11430537Y-945506D01*
X11351185Y-848815D01*
X11254494Y-769463D01*
X11144180Y-710498D01*
X11024482Y-674188D01*
X10900000Y-661928D01*
X8700000Y-661928D01*
X8575518Y-674188D01*
X8455820Y-710498D01*
X8345506Y-769463D01*
X8248815Y-848815D01*
X8169463Y-945506D01*
X8110498Y-1055820D01*
X8074188Y-1175518D01*
X8061928Y-1300000D01*
X660000Y-1300000D01*
X660000Y-660000D01*
X20485212Y-660000D01*
X20320273Y-728320D01*
G37*
X20320273Y-728320D02*
X20085241Y-885363D01*
X19885363Y-1085241D01*
X19728320Y-1320273D01*
X19620147Y-1581426D01*
X19565000Y-1858665D01*
X19565000Y-2141335D01*
X19620147Y-2418574D01*
X19728320Y-2679727D01*
X19885363Y-2914759D01*
X20085241Y-3114637D01*
X20320273Y-3271680D01*
X20581426Y-3379853D01*
X20858665Y-3435000D01*
X21141335Y-3435000D01*
X21418574Y-3379853D01*
X21679727Y-3271680D01*
X21914759Y-3114637D01*
X22114637Y-2914759D01*
X22271680Y-2679727D01*
X22379853Y-2418574D01*
X22435000Y-2141335D01*
X22435000Y-1974485D01*
X27517820Y-1974485D01*
X27517820Y-2257155D01*
X27572967Y-2534394D01*
X27681140Y-2795547D01*
X27838183Y-3030579D01*
X28038061Y-3230457D01*
X28273093Y-3387500D01*
X28534246Y-3495673D01*
X28811485Y-3550820D01*
X29094155Y-3550820D01*
X29371394Y-3495673D01*
X29632547Y-3387500D01*
X29867579Y-3230457D01*
X30067457Y-3030579D01*
X30202820Y-2827993D01*
X30338183Y-3030579D01*
X30538061Y-3230457D01*
X30773093Y-3387500D01*
X31034246Y-3495673D01*
X31311485Y-3550820D01*
X31594155Y-3550820D01*
X31871394Y-3495673D01*
X32132547Y-3387500D01*
X32367579Y-3230457D01*
X32567457Y-3030579D01*
X32724500Y-2795547D01*
X32832673Y-2534394D01*
X32887820Y-2257155D01*
X32887820Y-1974485D01*
X32832673Y-1697246D01*
X32724500Y-1436093D01*
X32567457Y-1201061D01*
X32367579Y-1001183D01*
X32132547Y-844140D01*
X31871394Y-735967D01*
X31594155Y-680820D01*
X31311485Y-680820D01*
X31034246Y-735967D01*
X30773093Y-844140D01*
X30538061Y-1001183D01*
X30338183Y-1201061D01*
X30202820Y-1403647D01*
X30067457Y-1201061D01*
X29867579Y-1001183D01*
X29632547Y-844140D01*
X29371394Y-735967D01*
X29094155Y-680820D01*
X28811485Y-680820D01*
X28534246Y-735967D01*
X28273093Y-844140D01*
X28038061Y-1001183D01*
X27838183Y-1201061D01*
X27681140Y-1436093D01*
X27572967Y-1697246D01*
X27517820Y-1974485D01*
X22435000Y-1974485D01*
X22435000Y-1858665D01*
X22379853Y-1581426D01*
X22271680Y-1320273D01*
X22114637Y-1085241D01*
X21914759Y-885363D01*
X21679727Y-728320D01*
X21514788Y-660000D01*
X38998894Y-660000D01*
X38983048Y-39642837D01*
X38967932Y-39566842D01*
X38855990Y-39296589D01*
X38693475Y-39053368D01*
X38486632Y-38846525D01*
X38243411Y-38684010D01*
X37973158Y-38572068D01*
X37686260Y-38515000D01*
X37393740Y-38515000D01*
X37106842Y-38572068D01*
X36836589Y-38684010D01*
X36593368Y-38846525D01*
X36461513Y-38978380D01*
X36439502Y-38905820D01*
X36380537Y-38795506D01*
X36301185Y-38698815D01*
X36204494Y-38619463D01*
X36094180Y-38560498D01*
X35974482Y-38524188D01*
X35850000Y-38511928D01*
X35241817Y-38511928D01*
X35249411Y-38502675D01*
X35249412Y-38502674D01*
X35331590Y-38348928D01*
X35382196Y-38182105D01*
X35395001Y-38052092D01*
X35395001Y-38052082D01*
X35399282Y-38008616D01*
X35395001Y-37965150D01*
X35395001Y-33393470D01*
X35399282Y-33350001D01*
X35395001Y-33306532D01*
X35395001Y-33306524D01*
X35382196Y-33176511D01*
X35331590Y-33009688D01*
X35249412Y-32855942D01*
X35138818Y-32721184D01*
X35105051Y-32693472D01*
X34588017Y-32176439D01*
X34595000Y-32141335D01*
X34595000Y-31858665D01*
X34539853Y-31581426D01*
X34431680Y-31320273D01*
X34274637Y-31085241D01*
X34074759Y-30885363D01*
X33839727Y-30728320D01*
X33578574Y-30620147D01*
X33301335Y-30565000D01*
X33018665Y-30565000D01*
X32741426Y-30620147D01*
X32480273Y-30728320D01*
X32245241Y-30885363D01*
X32045363Y-31085241D01*
X31888320Y-31320273D01*
X31780147Y-31581426D01*
X31725000Y-31858665D01*
X31725000Y-32141335D01*
X31780147Y-32418574D01*
X31888320Y-32679727D01*
X32045363Y-32914759D01*
X32245241Y-33114637D01*
X32480273Y-33271680D01*
X32741426Y-33379853D01*
X33018665Y-33435000D01*
X33301335Y-33435000D01*
X33336439Y-33428017D01*
X33625001Y-33716580D01*
X33625001Y-35139378D01*
X33578574Y-35120147D01*
X33301335Y-35065000D01*
X33018665Y-35065000D01*
X32741426Y-35120147D01*
X32480273Y-35228320D01*
X32245241Y-35385363D01*
X32045363Y-35585241D01*
X32025479Y-35615000D01*
X32001549Y-35615000D01*
X31958080Y-35610719D01*
X31914611Y-35615000D01*
X31914603Y-35615000D01*
X31784590Y-35627805D01*
X31617767Y-35678411D01*
X31464021Y-35760589D01*
X31363033Y-35843468D01*
X31363031Y-35843470D01*
X31329263Y-35871183D01*
X31301550Y-35904951D01*
X28404956Y-38801546D01*
X28371183Y-38829263D01*
X28260589Y-38964022D01*
X28178411Y-39117768D01*
X28127805Y-39284591D01*
X28115000Y-39414604D01*
X28115000Y-39414611D01*
X28110719Y-39458080D01*
X28115000Y-39501549D01*
X28115001Y-41570299D01*
X28075518Y-41574188D01*
X27955820Y-41610498D01*
X27845506Y-41669463D01*
X27748815Y-41748815D01*
X27669463Y-41845506D01*
X27610498Y-41955820D01*
X27574188Y-42075518D01*
X27561928Y-42200000D01*
X27561928Y-42207215D01*
X27492702Y-42186903D01*
X26679605Y-43000000D01*
X27492702Y-43813097D01*
X27561928Y-43792785D01*
X27561928Y-43800000D01*
X27574188Y-43924482D01*
X27610498Y-44044180D01*
X27669463Y-44154494D01*
X27748815Y-44251185D01*
X27845506Y-44330537D01*
X27955820Y-44389502D01*
X28075518Y-44425812D01*
X28115000Y-44429701D01*
X28115001Y-50570299D01*
X28075518Y-50574188D01*
X27955820Y-50610498D01*
X27845506Y-50669463D01*
X27748815Y-50748815D01*
X27669463Y-50845506D01*
X27610498Y-50955820D01*
X27574188Y-51075518D01*
X27561928Y-51200000D01*
X27561928Y-51207215D01*
X27492702Y-51186903D01*
X26679605Y-52000000D01*
X27492702Y-52813097D01*
X27561928Y-52792785D01*
X27561928Y-52800000D01*
X27574188Y-52924482D01*
X27610498Y-53044180D01*
X27669463Y-53154494D01*
X27748815Y-53251185D01*
X27845506Y-53330537D01*
X27955820Y-53389502D01*
X28075518Y-53425812D01*
X28115001Y-53429701D01*
X28115000Y-55764791D01*
X21954594Y-61925198D01*
X21914759Y-61885363D01*
X21679727Y-61728320D01*
X21418574Y-61620147D01*
X21216744Y-61580000D01*
X21418574Y-61539853D01*
X21679727Y-61431680D01*
X21914759Y-61274637D01*
X22114637Y-61074759D01*
X22271680Y-60839727D01*
X22379853Y-60578574D01*
X22435000Y-60301335D01*
X22435000Y-60018665D01*
X22379853Y-59741426D01*
X22271680Y-59480273D01*
X22114637Y-59245241D01*
X21914759Y-59045363D01*
X21679727Y-58888320D01*
X21418574Y-58780147D01*
X21141335Y-58725000D01*
X20858665Y-58725000D01*
X20581426Y-58780147D01*
X20320273Y-58888320D01*
X20085241Y-59045363D01*
X19885363Y-59245241D01*
X19728320Y-59480273D01*
X19620147Y-59741426D01*
X19565000Y-60018665D01*
X19565000Y-60301335D01*
X19620147Y-60578574D01*
X19728320Y-60839727D01*
X19885363Y-61074759D01*
X20085241Y-61274637D01*
X20320273Y-61431680D01*
X20581426Y-61539853D01*
X20783256Y-61580000D01*
X20581426Y-61620147D01*
X20320273Y-61728320D01*
X20085241Y-61885363D01*
X19885363Y-62085241D01*
X19728320Y-62320273D01*
X19620147Y-62581426D01*
X19565000Y-62858665D01*
X19565000Y-63141335D01*
X19620147Y-63418574D01*
X19728320Y-63679727D01*
X19885363Y-63914759D01*
X20085241Y-64114637D01*
X20320273Y-64271680D01*
X20581426Y-64379853D01*
X20858665Y-64435000D01*
X21141335Y-64435000D01*
X21418574Y-64379853D01*
X21679727Y-64271680D01*
X21914759Y-64114637D01*
X22114637Y-63914759D01*
X22131681Y-63889250D01*
X22174839Y-63885000D01*
X22174847Y-63885000D01*
X22304860Y-63872195D01*
X22471683Y-63821589D01*
X22625429Y-63739411D01*
X22760187Y-63628817D01*
X22787904Y-63595044D01*
X29465002Y-56917947D01*
X29465002Y-61285417D01*
X26391774Y-64358646D01*
X26435000Y-64141335D01*
X26435000Y-63858665D01*
X26379853Y-63581426D01*
X26271680Y-63320273D01*
X26114637Y-63085241D01*
X25914759Y-62885363D01*
X25679727Y-62728320D01*
X25418574Y-62620147D01*
X25141335Y-62565000D01*
X24858665Y-62565000D01*
X24581426Y-62620147D01*
X24320273Y-62728320D01*
X24085241Y-62885363D01*
X23885363Y-63085241D01*
X23728320Y-63320273D01*
X23620147Y-63581426D01*
X23565000Y-63858665D01*
X23565000Y-64141335D01*
X23620147Y-64418574D01*
X23728320Y-64679727D01*
X23885363Y-64914759D01*
X24085241Y-65114637D01*
X24320273Y-65271680D01*
X24581426Y-65379853D01*
X24858665Y-65435000D01*
X25141335Y-65435000D01*
X25358646Y-65391774D01*
X19054955Y-71695465D01*
X19021182Y-71723182D01*
X18910588Y-71857941D01*
X18828410Y-72011687D01*
X18777804Y-72178510D01*
X18764999Y-72308523D01*
X18764999Y-72308530D01*
X18760718Y-72351999D01*
X18764999Y-72395468D01*
X18765000Y-74737890D01*
X18760718Y-74781369D01*
X18777804Y-74954859D01*
X18828411Y-75121682D01*
X18910589Y-75275428D01*
X18993467Y-75376415D01*
X18993470Y-75376418D01*
X19021183Y-75410186D01*
X19054950Y-75437899D01*
X23212100Y-79595049D01*
X23239813Y-79628817D01*
X23273581Y-79656530D01*
X23273583Y-79656532D01*
X23299487Y-79677791D01*
X23374571Y-79739411D01*
X23528317Y-79821589D01*
X23695140Y-79872195D01*
X23825153Y-79885000D01*
X23825163Y-79885000D01*
X23868319Y-79889250D01*
X23885363Y-79914759D01*
X24085241Y-80114637D01*
X24320273Y-80271680D01*
X24581426Y-80379853D01*
X24858665Y-80435000D01*
X25141335Y-80435000D01*
X25176438Y-80428017D01*
X25204952Y-80456531D01*
X25204957Y-80456535D01*
X25640221Y-80891800D01*
X25640221Y-82711956D01*
X25418574Y-82620147D01*
X25141335Y-82565000D01*
X24858665Y-82565000D01*
X24581426Y-82620147D01*
X24320273Y-82728320D01*
X24085241Y-82885363D01*
X23885363Y-83085241D01*
X23728320Y-83320273D01*
X23620147Y-83581426D01*
X23565000Y-83858665D01*
X23565000Y-84141335D01*
X23620147Y-84418574D01*
X23728320Y-84679727D01*
X23885363Y-84914759D01*
X24085241Y-85114637D01*
X24320273Y-85271680D01*
X24581426Y-85379853D01*
X24858665Y-85435000D01*
X25141335Y-85435000D01*
X25418574Y-85379853D01*
X25640220Y-85288044D01*
X25640220Y-87108201D01*
X25176439Y-87571983D01*
X25141335Y-87565000D01*
X24858665Y-87565000D01*
X24581426Y-87620147D01*
X24320273Y-87728320D01*
X24085241Y-87885363D01*
X23885363Y-88085241D01*
X23728320Y-88320273D01*
X23620147Y-88581426D01*
X23565000Y-88858665D01*
X23565000Y-89141335D01*
X23571983Y-89176439D01*
X22762382Y-89986040D01*
X22066788Y-89986040D01*
X22163567Y-89889261D01*
X22316233Y-89660780D01*
X22421391Y-89406907D01*
X22475000Y-89137396D01*
X22475000Y-88862604D01*
X22421391Y-88593093D01*
X22316233Y-88339220D01*
X22163567Y-88110739D01*
X21969261Y-87916433D01*
X21740780Y-87763767D01*
X21486907Y-87658609D01*
X21217396Y-87605000D01*
X20942604Y-87605000D01*
X20673093Y-87658609D01*
X20419220Y-87763767D01*
X20190739Y-87916433D01*
X19996433Y-88110739D01*
X19843767Y-88339220D01*
X19810000Y-88420740D01*
X19776233Y-88339220D01*
X19623567Y-88110739D01*
X19429261Y-87916433D01*
X19200780Y-87763767D01*
X18946907Y-87658609D01*
X18677396Y-87605000D01*
X18402604Y-87605000D01*
X18133093Y-87658609D01*
X17879220Y-87763767D01*
X17650739Y-87916433D01*
X17456433Y-88110739D01*
X17394474Y-88203467D01*
X17385812Y-88115518D01*
X17349502Y-87995820D01*
X17290537Y-87885506D01*
X17211185Y-87788815D01*
X17114494Y-87709463D01*
X17004180Y-87650498D01*
X16884482Y-87614188D01*
X16760000Y-87601928D01*
X15240000Y-87601928D01*
X15115518Y-87614188D01*
X14995820Y-87650498D01*
X14885506Y-87709463D01*
X14788815Y-87788815D01*
X14709463Y-87885506D01*
X14650498Y-87995820D01*
X14614188Y-88115518D01*
X14601928Y-88240000D01*
X14601928Y-89760000D01*
X14614188Y-89884482D01*
X14650498Y-90004180D01*
X14709463Y-90114494D01*
X14788815Y-90211185D01*
X14885506Y-90290537D01*
X14995820Y-90349502D01*
X15115518Y-90385812D01*
X15123184Y-90386567D01*
X15127805Y-90433490D01*
X15178412Y-90600313D01*
X15260590Y-90754059D01*
X15343468Y-90855046D01*
X15343471Y-90855049D01*
X15371184Y-90888817D01*
X15404951Y-90916529D01*
X15954510Y-91466089D01*
X15982223Y-91499857D01*
X16015991Y-91527570D01*
X16015993Y-91527572D01*
X16019606Y-91530537D01*
X16116981Y-91610451D01*
X16270727Y-91692629D01*
X16437550Y-91743235D01*
X16567563Y-91756040D01*
X16567573Y-91756040D01*
X16611039Y-91760321D01*
X16654506Y-91756040D01*
X21115000Y-91756040D01*
X21115001Y-94570299D01*
X21075518Y-94574188D01*
X20955820Y-94610498D01*
X20845506Y-94669463D01*
X20748815Y-94748815D01*
X20669463Y-94845506D01*
X20610498Y-94955820D01*
X20574188Y-95075518D01*
X20561928Y-95200000D01*
X20561928Y-96800000D01*
X20574188Y-96924482D01*
X20610498Y-97044180D01*
X20669463Y-97154494D01*
X20748815Y-97251185D01*
X20845506Y-97330537D01*
X20955820Y-97389502D01*
X21075518Y-97425812D01*
X21123576Y-97430545D01*
X21127805Y-97473490D01*
X21178412Y-97640313D01*
X21260590Y-97794059D01*
X21343468Y-97895046D01*
X21343471Y-97895049D01*
X21371184Y-97928817D01*
X21404952Y-97956530D01*
X21473562Y-98025140D01*
X17004256Y-98025140D01*
X17114637Y-97914759D01*
X17271680Y-97679727D01*
X17379853Y-97418574D01*
X17435000Y-97141335D01*
X17435000Y-96858665D01*
X17379853Y-96581426D01*
X17271680Y-96320273D01*
X17114637Y-96085241D01*
X16914759Y-95885363D01*
X16712173Y-95750000D01*
X16914759Y-95614637D01*
X17114637Y-95414759D01*
X17271680Y-95179727D01*
X17379853Y-94918574D01*
X17435000Y-94641335D01*
X17435000Y-94358665D01*
X17379853Y-94081426D01*
X17271680Y-93820273D01*
X17114637Y-93585241D01*
X16914759Y-93385363D01*
X16679727Y-93228320D01*
X16418574Y-93120147D01*
X16141335Y-93065000D01*
X15858665Y-93065000D01*
X15581426Y-93120147D01*
X15320273Y-93228320D01*
X15085241Y-93385363D01*
X14885363Y-93585241D01*
X14728320Y-93820273D01*
X14620147Y-94081426D01*
X14565000Y-94358665D01*
X14565000Y-94641335D01*
X14620147Y-94918574D01*
X14728320Y-95179727D01*
X14885363Y-95414759D01*
X15085241Y-95614637D01*
X15287827Y-95750000D01*
X15085241Y-95885363D01*
X14885363Y-96085241D01*
X14728320Y-96320273D01*
X14620147Y-96581426D01*
X14565000Y-96858665D01*
X14565000Y-97141335D01*
X14620147Y-97418574D01*
X14728320Y-97679727D01*
X14885363Y-97914759D01*
X14995744Y-98025140D01*
X14138072Y-98025140D01*
X14138072Y-95900000D01*
X14125812Y-95775518D01*
X14089502Y-95655820D01*
X14030537Y-95545506D01*
X13951185Y-95448815D01*
X13854494Y-95369463D01*
X13744180Y-95310498D01*
X13624482Y-95274188D01*
X13500000Y-95261928D01*
X12500000Y-95261928D01*
X12375518Y-95274188D01*
X12255820Y-95310498D01*
X12145506Y-95369463D01*
X12048815Y-95448815D01*
X11969463Y-95545506D01*
X11910498Y-95655820D01*
X11874188Y-95775518D01*
X11861928Y-95900000D01*
X11861928Y-98025140D01*
X7135596Y-98025140D01*
X7138072Y-98000000D01*
X7138072Y-97000000D01*
X7125812Y-96875518D01*
X7089502Y-96755820D01*
X7030537Y-96645506D01*
X6951185Y-96548815D01*
X6854494Y-96469463D01*
X6744180Y-96410498D01*
X6624482Y-96374188D01*
X6500000Y-96361928D01*
X4300000Y-96361928D01*
X4175518Y-96374188D01*
X4055820Y-96410498D01*
X3945506Y-96469463D01*
X3848815Y-96548815D01*
X3769463Y-96645506D01*
X3710498Y-96755820D01*
X3674188Y-96875518D01*
X3661928Y-97000000D01*
X3661928Y-98000000D01*
X3664404Y-98025140D01*
X2924359Y-98025140D01*
X1682560Y-96783342D01*
X1682560Y-94735454D01*
X1714250Y-94735000D01*
X1873000Y-94576250D01*
X1873000Y-93127000D01*
X2127000Y-93127000D01*
X2127000Y-94576250D01*
X2285750Y-94735000D01*
X2500000Y-94738072D01*
X2624482Y-94725812D01*
X2744180Y-94689502D01*
X2854494Y-94630537D01*
X2951185Y-94551185D01*
X3030537Y-94454494D01*
X3089502Y-94344180D01*
X3125812Y-94224482D01*
X3138072Y-94100000D01*
X3135000Y-93285750D01*
X2976250Y-93127000D01*
X2127000Y-93127000D01*
X1873000Y-93127000D01*
X1853000Y-93127000D01*
X1853000Y-92873000D01*
X1873000Y-92873000D01*
X1873000Y-91423750D01*
X2127000Y-91423750D01*
X2127000Y-92873000D01*
X2976250Y-92873000D01*
X3135000Y-92714250D01*
X3138072Y-91900000D01*
X3125812Y-91775518D01*
X3089502Y-91655820D01*
X3030537Y-91545506D01*
X2951185Y-91448815D01*
X2854494Y-91369463D01*
X2744180Y-91310498D01*
X2624482Y-91274188D01*
X2500000Y-91261928D01*
X2285750Y-91265000D01*
X2127000Y-91423750D01*
X1873000Y-91423750D01*
X1714250Y-91265000D01*
X1682560Y-91264546D01*
X1682560Y-90000000D01*
X6661928Y-90000000D01*
X6661928Y-91000000D01*
X6674188Y-91124482D01*
X6710498Y-91244180D01*
X6769463Y-91354494D01*
X6848815Y-91451185D01*
X6945506Y-91530537D01*
X7055820Y-91589502D01*
X7175518Y-91625812D01*
X7300000Y-91638072D01*
X9500000Y-91638072D01*
X9624482Y-91625812D01*
X9744180Y-91589502D01*
X9854494Y-91530537D01*
X9951185Y-91451185D01*
X10030537Y-91354494D01*
X10089502Y-91244180D01*
X10125812Y-91124482D01*
X10138072Y-91000000D01*
X10138072Y-90000000D01*
X10125812Y-89875518D01*
X10089502Y-89755820D01*
X10030537Y-89645506D01*
X9951185Y-89548815D01*
X9854494Y-89469463D01*
X9744180Y-89410498D01*
X9624482Y-89374188D01*
X9500000Y-89361928D01*
X7300000Y-89361928D01*
X7175518Y-89374188D01*
X7055820Y-89410498D01*
X6945506Y-89469463D01*
X6848815Y-89548815D01*
X6769463Y-89645506D01*
X6710498Y-89755820D01*
X6674188Y-89875518D01*
X6661928Y-90000000D01*
X1682560Y-90000000D01*
X1682560Y-87300000D01*
X8061928Y-87300000D01*
X8061928Y-88300000D01*
X8074188Y-88424482D01*
X8110498Y-88544180D01*
X8169463Y-88654494D01*
X8248815Y-88751185D01*
X8345506Y-88830537D01*
X8455820Y-88889502D01*
X8575518Y-88925812D01*
X8700000Y-88938072D01*
X10900000Y-88938072D01*
X11024482Y-88925812D01*
X11144180Y-88889502D01*
X11254494Y-88830537D01*
X11351185Y-88751185D01*
X11430537Y-88654494D01*
X11489502Y-88544180D01*
X11525812Y-88424482D01*
X11538072Y-88300000D01*
X11538072Y-87300000D01*
X11525812Y-87175518D01*
X11489502Y-87055820D01*
X11430537Y-86945506D01*
X11351185Y-86848815D01*
X11254494Y-86769463D01*
X11144180Y-86710498D01*
X11024482Y-86674188D01*
X10900000Y-86661928D01*
X8700000Y-86661928D01*
X8575518Y-86674188D01*
X8455820Y-86710498D01*
X8345506Y-86769463D01*
X8248815Y-86848815D01*
X8169463Y-86945506D01*
X8110498Y-87055820D01*
X8074188Y-87175518D01*
X8061928Y-87300000D01*
X1682560Y-87300000D01*
X1682560Y-74848816D01*
X3165000Y-74848816D01*
X3165000Y-75151184D01*
X3223989Y-75447743D01*
X3339701Y-75727095D01*
X3507688Y-75978505D01*
X3721495Y-76192312D01*
X3807831Y-76250000D01*
X3721495Y-76307688D01*
X3507688Y-76521495D01*
X3339701Y-76772905D01*
X3223989Y-77052257D01*
X3165000Y-77348816D01*
X3165000Y-77651184D01*
X3223989Y-77947743D01*
X3339701Y-78227095D01*
X3507688Y-78478505D01*
X3721495Y-78692312D01*
X3807831Y-78750000D01*
X3721495Y-78807688D01*
X3507688Y-79021495D01*
X3339701Y-79272905D01*
X3223989Y-79552257D01*
X3165000Y-79848816D01*
X3165000Y-80151184D01*
X3223989Y-80447743D01*
X3339701Y-80727095D01*
X3507688Y-80978505D01*
X3721495Y-81192312D01*
X3972905Y-81360299D01*
X4252257Y-81476011D01*
X4548816Y-81535000D01*
X4851184Y-81535000D01*
X5147743Y-81476011D01*
X5267955Y-81426217D01*
X5177791Y-81643892D01*
X5065000Y-82210928D01*
X5065000Y-82789072D01*
X5177791Y-83356108D01*
X5399037Y-83890244D01*
X5720237Y-84370953D01*
X6129047Y-84779763D01*
X6609756Y-85100963D01*
X7143892Y-85322209D01*
X7710928Y-85435000D01*
X8289072Y-85435000D01*
X8856108Y-85322209D01*
X9390244Y-85100963D01*
X9870953Y-84779763D01*
X10279763Y-84370953D01*
X10600963Y-83890244D01*
X10822209Y-83356108D01*
X10935000Y-82789072D01*
X10935000Y-82358665D01*
X11065000Y-82358665D01*
X11065000Y-82641335D01*
X11120147Y-82918574D01*
X11228320Y-83179727D01*
X11385363Y-83414759D01*
X11585241Y-83614637D01*
X11820273Y-83771680D01*
X12081426Y-83879853D01*
X12358665Y-83935000D01*
X12641335Y-83935000D01*
X12918574Y-83879853D01*
X13179727Y-83771680D01*
X13414759Y-83614637D01*
X13614637Y-83414759D01*
X13771680Y-83179727D01*
X13879853Y-82918574D01*
X13935000Y-82641335D01*
X13935000Y-82358665D01*
X13879853Y-82081426D01*
X13771680Y-81820273D01*
X13614637Y-81585241D01*
X13414759Y-81385363D01*
X13197208Y-81240000D01*
X14601928Y-81240000D01*
X14601928Y-82760000D01*
X14614188Y-82884482D01*
X14650498Y-83004180D01*
X14709463Y-83114494D01*
X14788815Y-83211185D01*
X14885506Y-83290537D01*
X14995820Y-83349502D01*
X15115518Y-83385812D01*
X15240000Y-83398072D01*
X16760000Y-83398072D01*
X16884482Y-83385812D01*
X17004180Y-83349502D01*
X17114494Y-83290537D01*
X17211185Y-83211185D01*
X17290537Y-83114494D01*
X17349502Y-83004180D01*
X17385812Y-82884482D01*
X17394474Y-82796533D01*
X17456433Y-82889261D01*
X17650739Y-83083567D01*
X17879220Y-83236233D01*
X18133093Y-83341391D01*
X18402604Y-83395000D01*
X18677396Y-83395000D01*
X18946907Y-83341391D01*
X19200780Y-83236233D01*
X19429261Y-83083567D01*
X19623567Y-82889261D01*
X19776233Y-82660780D01*
X19810000Y-82579260D01*
X19843767Y-82660780D01*
X19996433Y-82889261D01*
X20190739Y-83083567D01*
X20419220Y-83236233D01*
X20673093Y-83341391D01*
X20942604Y-83395000D01*
X21217396Y-83395000D01*
X21486907Y-83341391D01*
X21740780Y-83236233D01*
X21969261Y-83083567D01*
X22163567Y-82889261D01*
X22316233Y-82660780D01*
X22421391Y-82406907D01*
X22475000Y-82137396D01*
X22475000Y-81862604D01*
X22421391Y-81593093D01*
X22316233Y-81339220D01*
X22163567Y-81110739D01*
X21969261Y-80916433D01*
X21740780Y-80763767D01*
X21486907Y-80658609D01*
X21217396Y-80605000D01*
X20942604Y-80605000D01*
X20673093Y-80658609D01*
X20419220Y-80763767D01*
X20190739Y-80916433D01*
X19996433Y-81110739D01*
X19843767Y-81339220D01*
X19810000Y-81420740D01*
X19776233Y-81339220D01*
X19623567Y-81110739D01*
X19429261Y-80916433D01*
X19200780Y-80763767D01*
X18946907Y-80658609D01*
X18677396Y-80605000D01*
X18402604Y-80605000D01*
X18133093Y-80658609D01*
X17879220Y-80763767D01*
X17650739Y-80916433D01*
X17456433Y-81110739D01*
X17394474Y-81203467D01*
X17385812Y-81115518D01*
X17349502Y-80995820D01*
X17290537Y-80885506D01*
X17211185Y-80788815D01*
X17114494Y-80709463D01*
X17004180Y-80650498D01*
X16884482Y-80614188D01*
X16760000Y-80601928D01*
X15240000Y-80601928D01*
X15115518Y-80614188D01*
X14995820Y-80650498D01*
X14885506Y-80709463D01*
X14788815Y-80788815D01*
X14709463Y-80885506D01*
X14650498Y-80995820D01*
X14614188Y-81115518D01*
X14601928Y-81240000D01*
X13197208Y-81240000D01*
X13179727Y-81228320D01*
X12918574Y-81120147D01*
X12641335Y-81065000D01*
X12358665Y-81065000D01*
X12081426Y-81120147D01*
X11820273Y-81228320D01*
X11585241Y-81385363D01*
X11385363Y-81585241D01*
X11228320Y-81820273D01*
X11120147Y-82081426D01*
X11065000Y-82358665D01*
X10935000Y-82358665D01*
X10935000Y-82210928D01*
X10822209Y-81643892D01*
X10600963Y-81109756D01*
X10279763Y-80629047D01*
X9870953Y-80220237D01*
X9390244Y-79899037D01*
X8856108Y-79677791D01*
X8289072Y-79565000D01*
X7710928Y-79565000D01*
X7143892Y-79677791D01*
X6609756Y-79899037D01*
X6235000Y-80149441D01*
X6235000Y-79848816D01*
X6176011Y-79552257D01*
X6060299Y-79272905D01*
X5892312Y-79021495D01*
X5678505Y-78807688D01*
X5592169Y-78750000D01*
X5678505Y-78692312D01*
X5892312Y-78478505D01*
X6060299Y-78227095D01*
X6176011Y-77947743D01*
X6235000Y-77651184D01*
X6235000Y-77348816D01*
X6176011Y-77052257D01*
X6060299Y-76772905D01*
X5892312Y-76521495D01*
X5678505Y-76307688D01*
X5592169Y-76250000D01*
X5678505Y-76192312D01*
X5892312Y-75978505D01*
X6060299Y-75727095D01*
X6176011Y-75447743D01*
X6235000Y-75151184D01*
X6235000Y-74850559D01*
X6609756Y-75100963D01*
X7143892Y-75322209D01*
X7710928Y-75435000D01*
X8289072Y-75435000D01*
X8856108Y-75322209D01*
X9390244Y-75100963D01*
X9870953Y-74779763D01*
X10279763Y-74370953D01*
X10600963Y-73890244D01*
X10822209Y-73356108D01*
X10935000Y-72789072D01*
X10935000Y-72689040D01*
X11108091Y-72689040D01*
X11202930Y-72953881D01*
X11347615Y-73195131D01*
X11536586Y-73403519D01*
X11762580Y-73571037D01*
X12016913Y-73691246D01*
X12150961Y-73731904D01*
X12373000Y-73609915D01*
X12373000Y-72467000D01*
X12627000Y-72467000D01*
X12627000Y-73609915D01*
X12849039Y-73731904D01*
X12983087Y-73691246D01*
X13237420Y-73571037D01*
X13321058Y-73509040D01*
X14608091Y-73509040D01*
X14702930Y-73773881D01*
X14847615Y-74015131D01*
X15036586Y-74223519D01*
X15262580Y-74391037D01*
X15516913Y-74511246D01*
X15650961Y-74551904D01*
X15873000Y-74429915D01*
X15873000Y-73287000D01*
X16127000Y-73287000D01*
X16127000Y-74429915D01*
X16349039Y-74551904D01*
X16483087Y-74511246D01*
X16737420Y-74391037D01*
X16963414Y-74223519D01*
X17152385Y-74015131D01*
X17297070Y-73773881D01*
X17391909Y-73509040D01*
X17270624Y-73287000D01*
X16127000Y-73287000D01*
X15873000Y-73287000D01*
X14729376Y-73287000D01*
X14608091Y-73509040D01*
X13321058Y-73509040D01*
X13463414Y-73403519D01*
X13652385Y-73195131D01*
X13797070Y-72953881D01*
X13848249Y-72810960D01*
X14608091Y-72810960D01*
X14729376Y-73033000D01*
X15873000Y-73033000D01*
X15873000Y-71890085D01*
X16127000Y-71890085D01*
X16127000Y-73033000D01*
X17270624Y-73033000D01*
X17391909Y-72810960D01*
X17297070Y-72546119D01*
X17152385Y-72304869D01*
X16963414Y-72096481D01*
X16737420Y-71928963D01*
X16483087Y-71808754D01*
X16349039Y-71768096D01*
X16127000Y-71890085D01*
X15873000Y-71890085D01*
X15650961Y-71768096D01*
X15516913Y-71808754D01*
X15262580Y-71928963D01*
X15036586Y-72096481D01*
X14847615Y-72304869D01*
X14702930Y-72546119D01*
X14608091Y-72810960D01*
X13848249Y-72810960D01*
X13891909Y-72689040D01*
X13770624Y-72467000D01*
X12627000Y-72467000D01*
X12373000Y-72467000D01*
X11229376Y-72467000D01*
X11108091Y-72689040D01*
X10935000Y-72689040D01*
X10935000Y-72210928D01*
X10891246Y-71990960D01*
X11108091Y-71990960D01*
X11229376Y-72213000D01*
X12373000Y-72213000D01*
X12373000Y-71070085D01*
X12627000Y-71070085D01*
X12627000Y-72213000D01*
X13770624Y-72213000D01*
X13891909Y-71990960D01*
X13797070Y-71726119D01*
X13652385Y-71484869D01*
X13463414Y-71276481D01*
X13237420Y-71108963D01*
X12983087Y-70988754D01*
X12849039Y-70948096D01*
X12627000Y-71070085D01*
X12373000Y-71070085D01*
X12150961Y-70948096D01*
X12016913Y-70988754D01*
X11762580Y-71108963D01*
X11536586Y-71276481D01*
X11347615Y-71484869D01*
X11202930Y-71726119D01*
X11108091Y-71990960D01*
X10891246Y-71990960D01*
X10822209Y-71643892D01*
X10600963Y-71109756D01*
X10279763Y-70629047D01*
X9870953Y-70220237D01*
X9390244Y-69899037D01*
X8856108Y-69677791D01*
X8289072Y-69565000D01*
X7710928Y-69565000D01*
X7143892Y-69677791D01*
X6609756Y-69899037D01*
X6129047Y-70220237D01*
X5720237Y-70629047D01*
X5399037Y-71109756D01*
X5177791Y-71643892D01*
X5065000Y-72210928D01*
X5065000Y-72789072D01*
X5177791Y-73356108D01*
X5267955Y-73573783D01*
X5147743Y-73523989D01*
X4851184Y-73465000D01*
X4548816Y-73465000D01*
X4252257Y-73523989D01*
X3972905Y-73639701D01*
X3721495Y-73807688D01*
X3507688Y-74021495D01*
X3339701Y-74272905D01*
X3223989Y-74552257D01*
X3165000Y-74848816D01*
X1682560Y-74848816D01*
X1682560Y-67569252D01*
X1728320Y-67679727D01*
X1885363Y-67914759D01*
X2085241Y-68114637D01*
X2320273Y-68271680D01*
X2581426Y-68379853D01*
X2858665Y-68435000D01*
X3141335Y-68435000D01*
X3418574Y-68379853D01*
X3679727Y-68271680D01*
X3914759Y-68114637D01*
X4114637Y-67914759D01*
X4271680Y-67679727D01*
X4379853Y-67418574D01*
X4435000Y-67141335D01*
X4435000Y-66858665D01*
X11725000Y-66858665D01*
X11725000Y-67141335D01*
X11780147Y-67418574D01*
X11888320Y-67679727D01*
X12045363Y-67914759D01*
X12245241Y-68114637D01*
X12480273Y-68271680D01*
X12741426Y-68379853D01*
X13018665Y-68435000D01*
X13301335Y-68435000D01*
X13578574Y-68379853D01*
X13839727Y-68271680D01*
X14074759Y-68114637D01*
X14274637Y-67914759D01*
X14431680Y-67679727D01*
X14539853Y-67418574D01*
X14595000Y-67141335D01*
X14595000Y-66858665D01*
X14539853Y-66581426D01*
X14431680Y-66320273D01*
X14274637Y-66085241D01*
X14074759Y-65885363D01*
X13839727Y-65728320D01*
X13578574Y-65620147D01*
X13301335Y-65565000D01*
X13018665Y-65565000D01*
X12741426Y-65620147D01*
X12480273Y-65728320D01*
X12245241Y-65885363D01*
X12045363Y-66085241D01*
X11888320Y-66320273D01*
X11780147Y-66581426D01*
X11725000Y-66858665D01*
X4435000Y-66858665D01*
X4379853Y-66581426D01*
X4271680Y-66320273D01*
X4114637Y-66085241D01*
X3914759Y-65885363D01*
X3679727Y-65728320D01*
X3418574Y-65620147D01*
X3141335Y-65565000D01*
X2858665Y-65565000D01*
X2581426Y-65620147D01*
X2320273Y-65728320D01*
X2085241Y-65885363D01*
X1885363Y-66085241D01*
X1728320Y-66320273D01*
X1682560Y-66430748D01*
X1682560Y-62000000D01*
X3661928Y-62000000D01*
X3661928Y-63000000D01*
X3674188Y-63124482D01*
X3710498Y-63244180D01*
X3769463Y-63354494D01*
X3848815Y-63451185D01*
X3945506Y-63530537D01*
X4055820Y-63589502D01*
X4175518Y-63625812D01*
X4300000Y-63638072D01*
X6500000Y-63638072D01*
X6624482Y-63625812D01*
X6744180Y-63589502D01*
X6854494Y-63530537D01*
X6951185Y-63451185D01*
X7030537Y-63354494D01*
X7089502Y-63244180D01*
X7125812Y-63124482D01*
X7138072Y-63000000D01*
X7138072Y-62000000D01*
X7125812Y-61875518D01*
X7089502Y-61755820D01*
X7030537Y-61645506D01*
X6951185Y-61548815D01*
X6854494Y-61469463D01*
X6744180Y-61410498D01*
X6624482Y-61374188D01*
X6500000Y-61361928D01*
X4300000Y-61361928D01*
X4175518Y-61374188D01*
X4055820Y-61410498D01*
X3945506Y-61469463D01*
X3848815Y-61548815D01*
X3769463Y-61645506D01*
X3710498Y-61755820D01*
X3674188Y-61875518D01*
X3661928Y-62000000D01*
X1682560Y-62000000D01*
X1682560Y-60900000D01*
X11861928Y-60900000D01*
X11861928Y-63100000D01*
X11874188Y-63224482D01*
X11910498Y-63344180D01*
X11969463Y-63454494D01*
X12048815Y-63551185D01*
X12145506Y-63630537D01*
X12255820Y-63689502D01*
X12375518Y-63725812D01*
X12500000Y-63738072D01*
X13500000Y-63738072D01*
X13624482Y-63725812D01*
X13744180Y-63689502D01*
X13854494Y-63630537D01*
X13951185Y-63551185D01*
X14030537Y-63454494D01*
X14089502Y-63344180D01*
X14125812Y-63224482D01*
X14138072Y-63100000D01*
X14138072Y-60900000D01*
X14125812Y-60775518D01*
X14089502Y-60655820D01*
X14030537Y-60545506D01*
X13951185Y-60448815D01*
X13854494Y-60369463D01*
X13744180Y-60310498D01*
X13624482Y-60274188D01*
X13500000Y-60261928D01*
X12500000Y-60261928D01*
X12375518Y-60274188D01*
X12255820Y-60310498D01*
X12145506Y-60369463D01*
X12048815Y-60448815D01*
X11969463Y-60545506D01*
X11910498Y-60655820D01*
X11874188Y-60775518D01*
X11861928Y-60900000D01*
X1682560Y-60900000D01*
X1682560Y-60018665D01*
X14565000Y-60018665D01*
X14565000Y-60301335D01*
X14620147Y-60578574D01*
X14728320Y-60839727D01*
X14885363Y-61074759D01*
X15085241Y-61274637D01*
X15320273Y-61431680D01*
X15581426Y-61539853D01*
X15783256Y-61580000D01*
X15581426Y-61620147D01*
X15320273Y-61728320D01*
X15085241Y-61885363D01*
X14885363Y-62085241D01*
X14728320Y-62320273D01*
X14620147Y-62581426D01*
X14565000Y-62858665D01*
X14565000Y-63141335D01*
X14620147Y-63418574D01*
X14728320Y-63679727D01*
X14885363Y-63914759D01*
X15085241Y-64114637D01*
X15320273Y-64271680D01*
X15581426Y-64379853D01*
X15858665Y-64435000D01*
X16141335Y-64435000D01*
X16418574Y-64379853D01*
X16679727Y-64271680D01*
X16914759Y-64114637D01*
X17114637Y-63914759D01*
X17271680Y-63679727D01*
X17379853Y-63418574D01*
X17435000Y-63141335D01*
X17435000Y-62858665D01*
X17379853Y-62581426D01*
X17271680Y-62320273D01*
X17114637Y-62085241D01*
X16914759Y-61885363D01*
X16679727Y-61728320D01*
X16418574Y-61620147D01*
X16216744Y-61580000D01*
X16418574Y-61539853D01*
X16679727Y-61431680D01*
X16914759Y-61274637D01*
X17114637Y-61074759D01*
X17271680Y-60839727D01*
X17379853Y-60578574D01*
X17435000Y-60301335D01*
X17435000Y-60018665D01*
X17379853Y-59741426D01*
X17271680Y-59480273D01*
X17114637Y-59245241D01*
X16914759Y-59045363D01*
X16679727Y-58888320D01*
X16418574Y-58780147D01*
X16141335Y-58725000D01*
X15858665Y-58725000D01*
X15581426Y-58780147D01*
X15320273Y-58888320D01*
X15085241Y-59045363D01*
X14885363Y-59245241D01*
X14728320Y-59480273D01*
X14620147Y-59741426D01*
X14565000Y-60018665D01*
X1682560Y-60018665D01*
X1682560Y-59735454D01*
X1714250Y-59735000D01*
X1873000Y-59576250D01*
X1873000Y-58127000D01*
X2127000Y-58127000D01*
X2127000Y-59576250D01*
X2285750Y-59735000D01*
X2500000Y-59738072D01*
X2624482Y-59725812D01*
X2744180Y-59689502D01*
X2854494Y-59630537D01*
X2951185Y-59551185D01*
X3030537Y-59454494D01*
X3089502Y-59344180D01*
X3125812Y-59224482D01*
X3138072Y-59100000D01*
X3135000Y-58285750D01*
X2976250Y-58127000D01*
X2127000Y-58127000D01*
X1873000Y-58127000D01*
X1853000Y-58127000D01*
X1853000Y-57873000D01*
X1873000Y-57873000D01*
X1873000Y-56423750D01*
X2127000Y-56423750D01*
X2127000Y-57873000D01*
X2976250Y-57873000D01*
X3135000Y-57714250D01*
X3138072Y-56900000D01*
X3125812Y-56775518D01*
X3089502Y-56655820D01*
X3030537Y-56545506D01*
X2951185Y-56448815D01*
X2854494Y-56369463D01*
X2744180Y-56310498D01*
X2624482Y-56274188D01*
X2500000Y-56261928D01*
X2285750Y-56265000D01*
X2127000Y-56423750D01*
X1873000Y-56423750D01*
X1714250Y-56265000D01*
X1682560Y-56264546D01*
X1682560Y-55000000D01*
X6661928Y-55000000D01*
X6661928Y-56000000D01*
X6674188Y-56124482D01*
X6710498Y-56244180D01*
X6769463Y-56354494D01*
X6848815Y-56451185D01*
X6945506Y-56530537D01*
X7055820Y-56589502D01*
X7175518Y-56625812D01*
X7300000Y-56638072D01*
X9500000Y-56638072D01*
X9624482Y-56625812D01*
X9744180Y-56589502D01*
X9854494Y-56530537D01*
X9951185Y-56451185D01*
X10030537Y-56354494D01*
X10089502Y-56244180D01*
X10125812Y-56124482D01*
X10138072Y-56000000D01*
X10138072Y-55000000D01*
X10125812Y-54875518D01*
X10089502Y-54755820D01*
X10030537Y-54645506D01*
X9951185Y-54548815D01*
X9854494Y-54469463D01*
X9744180Y-54410498D01*
X9624482Y-54374188D01*
X9500000Y-54361928D01*
X7300000Y-54361928D01*
X7175518Y-54374188D01*
X7055820Y-54410498D01*
X6945506Y-54469463D01*
X6848815Y-54548815D01*
X6769463Y-54645506D01*
X6710498Y-54755820D01*
X6674188Y-54875518D01*
X6661928Y-55000000D01*
X1682560Y-55000000D01*
X1682560Y-52300000D01*
X8061928Y-52300000D01*
X8061928Y-53300000D01*
X8074188Y-53424482D01*
X8110498Y-53544180D01*
X8169463Y-53654494D01*
X8248815Y-53751185D01*
X8345506Y-53830537D01*
X8455820Y-53889502D01*
X8575518Y-53925812D01*
X8700000Y-53938072D01*
X10900000Y-53938072D01*
X11024482Y-53925812D01*
X11144180Y-53889502D01*
X11254494Y-53830537D01*
X11351185Y-53751185D01*
X11430537Y-53654494D01*
X11489502Y-53544180D01*
X11525812Y-53424482D01*
X11538072Y-53300000D01*
X11538072Y-52992702D01*
X25686903Y-52992702D01*
X25758486Y-53236671D01*
X26013996Y-53357571D01*
X26288184Y-53426300D01*
X26570512Y-53440217D01*
X26850130Y-53398787D01*
X27116292Y-53303603D01*
X27241514Y-53236671D01*
X27313097Y-52992702D01*
X26500000Y-52179605D01*
X25686903Y-52992702D01*
X11538072Y-52992702D01*
X11538072Y-52300000D01*
X11525812Y-52175518D01*
X11493959Y-52070512D01*
X25059783Y-52070512D01*
X25101213Y-52350130D01*
X25196397Y-52616292D01*
X25263329Y-52741514D01*
X25507298Y-52813097D01*
X26320395Y-52000000D01*
X25507298Y-51186903D01*
X25263329Y-51258486D01*
X25142429Y-51513996D01*
X25073700Y-51788184D01*
X25059783Y-52070512D01*
X11493959Y-52070512D01*
X11489502Y-52055820D01*
X11430537Y-51945506D01*
X11351185Y-51848815D01*
X11254494Y-51769463D01*
X11144180Y-51710498D01*
X11024482Y-51674188D01*
X10900000Y-51661928D01*
X8700000Y-51661928D01*
X8575518Y-51674188D01*
X8455820Y-51710498D01*
X8345506Y-51769463D01*
X8248815Y-51848815D01*
X8169463Y-51945506D01*
X8110498Y-52055820D01*
X8074188Y-52175518D01*
X8061928Y-52300000D01*
X1682560Y-52300000D01*
X1682560Y-46064080D01*
X3815525Y-46064080D01*
X3899208Y-46318261D01*
X4171775Y-46449158D01*
X4464642Y-46524365D01*
X4766553Y-46540991D01*
X5065907Y-46498397D01*
X5267356Y-46427662D01*
X5177791Y-46643892D01*
X5065000Y-47210928D01*
X5065000Y-47789072D01*
X5177791Y-48356108D01*
X5399037Y-48890244D01*
X5720237Y-49370953D01*
X6129047Y-49779763D01*
X6609756Y-50100963D01*
X7143892Y-50322209D01*
X7710928Y-50435000D01*
X8289072Y-50435000D01*
X8856108Y-50322209D01*
X9390244Y-50100963D01*
X9752868Y-49858665D01*
X14565000Y-49858665D01*
X14565000Y-50141335D01*
X14620147Y-50418574D01*
X14728320Y-50679727D01*
X14885363Y-50914759D01*
X15085241Y-51114637D01*
X15320273Y-51271680D01*
X15581426Y-51379853D01*
X15858665Y-51435000D01*
X16141335Y-51435000D01*
X16418574Y-51379853D01*
X16679727Y-51271680D01*
X16914759Y-51114637D01*
X17114637Y-50914759D01*
X17271680Y-50679727D01*
X17379853Y-50418574D01*
X17435000Y-50141335D01*
X17435000Y-49858665D01*
X19565000Y-49858665D01*
X19565000Y-50141335D01*
X19620147Y-50418574D01*
X19728320Y-50679727D01*
X19885363Y-50914759D01*
X20085241Y-51114637D01*
X20320273Y-51271680D01*
X20581426Y-51379853D01*
X20858665Y-51435000D01*
X21141335Y-51435000D01*
X21418574Y-51379853D01*
X21679727Y-51271680D01*
X21914759Y-51114637D01*
X22022098Y-51007298D01*
X25686903Y-51007298D01*
X26500000Y-51820395D01*
X27313097Y-51007298D01*
X27241514Y-50763329D01*
X26986004Y-50642429D01*
X26711816Y-50573700D01*
X26429488Y-50559783D01*
X26149870Y-50601213D01*
X25883708Y-50696397D01*
X25758486Y-50763329D01*
X25686903Y-51007298D01*
X22022098Y-51007298D01*
X22114637Y-50914759D01*
X22271680Y-50679727D01*
X22379853Y-50418574D01*
X22435000Y-50141335D01*
X22435000Y-49858665D01*
X22379853Y-49581426D01*
X22271680Y-49320273D01*
X22114637Y-49085241D01*
X21914759Y-48885363D01*
X21679727Y-48728320D01*
X21418574Y-48620147D01*
X21141335Y-48565000D01*
X20858665Y-48565000D01*
X20581426Y-48620147D01*
X20320273Y-48728320D01*
X20085241Y-48885363D01*
X19885363Y-49085241D01*
X19728320Y-49320273D01*
X19620147Y-49581426D01*
X19565000Y-49858665D01*
X17435000Y-49858665D01*
X17379853Y-49581426D01*
X17271680Y-49320273D01*
X17114637Y-49085241D01*
X16914759Y-48885363D01*
X16679727Y-48728320D01*
X16418574Y-48620147D01*
X16141335Y-48565000D01*
X15858665Y-48565000D01*
X15581426Y-48620147D01*
X15320273Y-48728320D01*
X15085241Y-48885363D01*
X14885363Y-49085241D01*
X14728320Y-49320273D01*
X14620147Y-49581426D01*
X14565000Y-49858665D01*
X9752868Y-49858665D01*
X9870953Y-49779763D01*
X10279763Y-49370953D01*
X10600963Y-48890244D01*
X10822209Y-48356108D01*
X10935000Y-47789072D01*
X10935000Y-47210928D01*
X10822209Y-46643892D01*
X10600963Y-46109756D01*
X10279763Y-45629047D01*
X9870953Y-45220237D01*
X9390244Y-44899037D01*
X8856108Y-44677791D01*
X8289072Y-44565000D01*
X7710928Y-44565000D01*
X7143892Y-44677791D01*
X6609756Y-44899037D01*
X6228871Y-45153537D01*
X6240991Y-44933447D01*
X6198397Y-44634093D01*
X6098222Y-44348801D01*
X6040066Y-44240000D01*
X13601928Y-44240000D01*
X13601928Y-45760000D01*
X13614188Y-45884482D01*
X13650498Y-46004180D01*
X13709463Y-46114494D01*
X13788815Y-46211185D01*
X13885506Y-46290537D01*
X13995820Y-46349502D01*
X14115518Y-46385812D01*
X14240000Y-46398072D01*
X15760000Y-46398072D01*
X15884482Y-46385812D01*
X16004180Y-46349502D01*
X16114494Y-46290537D01*
X16211185Y-46211185D01*
X16290537Y-46114494D01*
X16349502Y-46004180D01*
X16385812Y-45884482D01*
X16394474Y-45796533D01*
X16456433Y-45889261D01*
X16650739Y-46083567D01*
X16879220Y-46236233D01*
X17133093Y-46341391D01*
X17402604Y-46395000D01*
X17677396Y-46395000D01*
X17946907Y-46341391D01*
X18200780Y-46236233D01*
X18429261Y-46083567D01*
X18548691Y-45964137D01*
X19295469Y-45964137D01*
X19362206Y-46204025D01*
X19610892Y-46320924D01*
X19877606Y-46387061D01*
X20152097Y-46399895D01*
X20423817Y-46358931D01*
X20682326Y-46265744D01*
X20797794Y-46204025D01*
X20864531Y-45964137D01*
X20080000Y-45179605D01*
X19295469Y-45964137D01*
X18548691Y-45964137D01*
X18623567Y-45889261D01*
X18776233Y-45660780D01*
X18807830Y-45584499D01*
X18814256Y-45602326D01*
X18875975Y-45717794D01*
X19115863Y-45784531D01*
X19900395Y-45000000D01*
X20259605Y-45000000D01*
X21044137Y-45784531D01*
X21284025Y-45717794D01*
X21400924Y-45469108D01*
X21467061Y-45202394D01*
X21479895Y-44927903D01*
X21438931Y-44656183D01*
X21345744Y-44397674D01*
X21284025Y-44282206D01*
X21044137Y-44215469D01*
X20259605Y-45000000D01*
X19900395Y-45000000D01*
X19115863Y-44215469D01*
X18875975Y-44282206D01*
X18810400Y-44421707D01*
X18776233Y-44339220D01*
X18623567Y-44110739D01*
X18548691Y-44035863D01*
X19295469Y-44035863D01*
X20080000Y-44820395D01*
X20864531Y-44035863D01*
X20852524Y-43992702D01*
X25686903Y-43992702D01*
X25758486Y-44236671D01*
X26013996Y-44357571D01*
X26288184Y-44426300D01*
X26570512Y-44440217D01*
X26850130Y-44398787D01*
X27116292Y-44303603D01*
X27241514Y-44236671D01*
X27313097Y-43992702D01*
X26500000Y-43179605D01*
X25686903Y-43992702D01*
X20852524Y-43992702D01*
X20797794Y-43795975D01*
X20549108Y-43679076D01*
X20282394Y-43612939D01*
X20007903Y-43600105D01*
X19736183Y-43641069D01*
X19477674Y-43734256D01*
X19362206Y-43795975D01*
X19295469Y-44035863D01*
X18548691Y-44035863D01*
X18429261Y-43916433D01*
X18200780Y-43763767D01*
X17946907Y-43658609D01*
X17677396Y-43605000D01*
X17402604Y-43605000D01*
X17133093Y-43658609D01*
X16879220Y-43763767D01*
X16650739Y-43916433D01*
X16456433Y-44110739D01*
X16394474Y-44203467D01*
X16385812Y-44115518D01*
X16349502Y-43995820D01*
X16290537Y-43885506D01*
X16211185Y-43788815D01*
X16114494Y-43709463D01*
X16004180Y-43650498D01*
X15884482Y-43614188D01*
X15760000Y-43601928D01*
X14240000Y-43601928D01*
X14115518Y-43614188D01*
X13995820Y-43650498D01*
X13885506Y-43709463D01*
X13788815Y-43788815D01*
X13709463Y-43885506D01*
X13650498Y-43995820D01*
X13614188Y-44115518D01*
X13601928Y-44240000D01*
X6040066Y-44240000D01*
X6018261Y-44199208D01*
X5764080Y-44115525D01*
X4879605Y-45000000D01*
X4893748Y-45014143D01*
X4714143Y-45193748D01*
X4700000Y-45179605D01*
X3815525Y-46064080D01*
X1682560Y-46064080D01*
X1682560Y-45066553D01*
X3159009Y-45066553D01*
X3201603Y-45365907D01*
X3301778Y-45651199D01*
X3381739Y-45800792D01*
X3635920Y-45884475D01*
X4520395Y-45000000D01*
X3635920Y-44115525D01*
X3381739Y-44199208D01*
X3250842Y-44471775D01*
X3175635Y-44764642D01*
X3159009Y-45066553D01*
X1682560Y-45066553D01*
X1682560Y-42063218D01*
X2860779Y-40885000D01*
X3445210Y-40885000D01*
X3507688Y-40978505D01*
X3721495Y-41192312D01*
X3807831Y-41250000D01*
X3721495Y-41307688D01*
X3507688Y-41521495D01*
X3339701Y-41772905D01*
X3223989Y-42052257D01*
X3165000Y-42348816D01*
X3165000Y-42651184D01*
X3223989Y-42947743D01*
X3339701Y-43227095D01*
X3507688Y-43478505D01*
X3721495Y-43692312D01*
X3864310Y-43787738D01*
X3815525Y-43935920D01*
X4700000Y-44820395D01*
X5584475Y-43935920D01*
X5535690Y-43787738D01*
X5678505Y-43692312D01*
X5892312Y-43478505D01*
X6060299Y-43227095D01*
X6125158Y-43070512D01*
X25059783Y-43070512D01*
X25101213Y-43350130D01*
X25196397Y-43616292D01*
X25263329Y-43741514D01*
X25507298Y-43813097D01*
X26320395Y-43000000D01*
X25507298Y-42186903D01*
X25263329Y-42258486D01*
X25142429Y-42513996D01*
X25073700Y-42788184D01*
X25059783Y-43070512D01*
X6125158Y-43070512D01*
X6176011Y-42947743D01*
X6235000Y-42651184D01*
X6235000Y-42348816D01*
X6176011Y-42052257D01*
X6157389Y-42007298D01*
X25686903Y-42007298D01*
X26500000Y-42820395D01*
X27313097Y-42007298D01*
X27241514Y-41763329D01*
X26986004Y-41642429D01*
X26711816Y-41573700D01*
X26429488Y-41559783D01*
X26149870Y-41601213D01*
X25883708Y-41696397D01*
X25758486Y-41763329D01*
X25686903Y-42007298D01*
X6157389Y-42007298D01*
X6060299Y-41772905D01*
X5892312Y-41521495D01*
X5678505Y-41307688D01*
X5592169Y-41250000D01*
X5678505Y-41192312D01*
X5892312Y-40978505D01*
X6060299Y-40727095D01*
X6176011Y-40447743D01*
X6235000Y-40151184D01*
X6235000Y-39850559D01*
X6609756Y-40100963D01*
X7143892Y-40322209D01*
X7710928Y-40435000D01*
X8289072Y-40435000D01*
X8856108Y-40322209D01*
X9390244Y-40100963D01*
X9870953Y-39779763D01*
X10279763Y-39370953D01*
X10600963Y-38890244D01*
X10822209Y-38356108D01*
X10935000Y-37789072D01*
X10935000Y-37240000D01*
X13601928Y-37240000D01*
X13601928Y-38760000D01*
X13614188Y-38884482D01*
X13650498Y-39004180D01*
X13709463Y-39114494D01*
X13788815Y-39211185D01*
X13885506Y-39290537D01*
X13995820Y-39349502D01*
X14115518Y-39385812D01*
X14240000Y-39398072D01*
X15760000Y-39398072D01*
X15884482Y-39385812D01*
X16004180Y-39349502D01*
X16114494Y-39290537D01*
X16211185Y-39211185D01*
X16290537Y-39114494D01*
X16349502Y-39004180D01*
X16385812Y-38884482D01*
X16394474Y-38796533D01*
X16456433Y-38889261D01*
X16650739Y-39083567D01*
X16879220Y-39236233D01*
X17133093Y-39341391D01*
X17402604Y-39395000D01*
X17677396Y-39395000D01*
X17946907Y-39341391D01*
X18200780Y-39236233D01*
X18429261Y-39083567D01*
X18623567Y-38889261D01*
X18776233Y-38660780D01*
X18810000Y-38579260D01*
X18843767Y-38660780D01*
X18996433Y-38889261D01*
X19190739Y-39083567D01*
X19419220Y-39236233D01*
X19673093Y-39341391D01*
X19942604Y-39395000D01*
X20217396Y-39395000D01*
X20486907Y-39341391D01*
X20740780Y-39236233D01*
X20969261Y-39083567D01*
X21163567Y-38889261D01*
X21316233Y-38660780D01*
X21421391Y-38406907D01*
X21475000Y-38137396D01*
X21475000Y-37862604D01*
X21421391Y-37593093D01*
X21316233Y-37339220D01*
X21163567Y-37110739D01*
X20969261Y-36916433D01*
X20740780Y-36763767D01*
X20486907Y-36658609D01*
X20217396Y-36605000D01*
X19942604Y-36605000D01*
X19673093Y-36658609D01*
X19419220Y-36763767D01*
X19190739Y-36916433D01*
X18996433Y-37110739D01*
X18843767Y-37339220D01*
X18810000Y-37420740D01*
X18776233Y-37339220D01*
X18623567Y-37110739D01*
X18429261Y-36916433D01*
X18200780Y-36763767D01*
X17946907Y-36658609D01*
X17677396Y-36605000D01*
X17402604Y-36605000D01*
X17133093Y-36658609D01*
X16879220Y-36763767D01*
X16650739Y-36916433D01*
X16456433Y-37110739D01*
X16394474Y-37203467D01*
X16385812Y-37115518D01*
X16349502Y-36995820D01*
X16290537Y-36885506D01*
X16211185Y-36788815D01*
X16114494Y-36709463D01*
X16004180Y-36650498D01*
X15884482Y-36614188D01*
X15760000Y-36601928D01*
X14240000Y-36601928D01*
X14115518Y-36614188D01*
X13995820Y-36650498D01*
X13885506Y-36709463D01*
X13788815Y-36788815D01*
X13709463Y-36885506D01*
X13650498Y-36995820D01*
X13614188Y-37115518D01*
X13601928Y-37240000D01*
X10935000Y-37240000D01*
X10935000Y-37210928D01*
X10822209Y-36643892D01*
X10704065Y-36358665D01*
X21565000Y-36358665D01*
X21565000Y-36641335D01*
X21620147Y-36918574D01*
X21728320Y-37179727D01*
X21885363Y-37414759D01*
X22085241Y-37614637D01*
X22320273Y-37771680D01*
X22581426Y-37879853D01*
X22858665Y-37935000D01*
X23141335Y-37935000D01*
X23418574Y-37879853D01*
X23679727Y-37771680D01*
X23914759Y-37614637D01*
X24114637Y-37414759D01*
X24271680Y-37179727D01*
X24379853Y-36918574D01*
X24435000Y-36641335D01*
X24435000Y-36358665D01*
X24379853Y-36081426D01*
X24271680Y-35820273D01*
X24114637Y-35585241D01*
X23914759Y-35385363D01*
X23679727Y-35228320D01*
X23418574Y-35120147D01*
X23141335Y-35065000D01*
X22858665Y-35065000D01*
X22581426Y-35120147D01*
X22320273Y-35228320D01*
X22085241Y-35385363D01*
X21885363Y-35585241D01*
X21728320Y-35820273D01*
X21620147Y-36081426D01*
X21565000Y-36358665D01*
X10704065Y-36358665D01*
X10600963Y-36109756D01*
X10279763Y-35629047D01*
X9870953Y-35220237D01*
X9390244Y-34899037D01*
X8856108Y-34677791D01*
X8289072Y-34565000D01*
X7710928Y-34565000D01*
X7143892Y-34677791D01*
X6609756Y-34899037D01*
X6129047Y-35220237D01*
X5720237Y-35629047D01*
X5399037Y-36109756D01*
X5177791Y-36643892D01*
X5065000Y-37210928D01*
X5065000Y-37789072D01*
X5177791Y-38356108D01*
X5267955Y-38573783D01*
X5147743Y-38523989D01*
X4851184Y-38465000D01*
X4548816Y-38465000D01*
X4252257Y-38523989D01*
X3972905Y-38639701D01*
X3721495Y-38807688D01*
X3507688Y-39021495D01*
X3445210Y-39115000D01*
X2537665Y-39115000D01*
X2494199Y-39110719D01*
X2450733Y-39115000D01*
X2450723Y-39115000D01*
X2320710Y-39127805D01*
X2153887Y-39178411D01*
X2000141Y-39260589D01*
X2000139Y-39260590D01*
X2000140Y-39260590D01*
X1899153Y-39343468D01*
X1899151Y-39343470D01*
X1865383Y-39371183D01*
X1837670Y-39404951D01*
X660000Y-40582622D01*
X660000Y-31858665D01*
X21565000Y-31858665D01*
X21565000Y-32141335D01*
X21620147Y-32418574D01*
X21728320Y-32679727D01*
X21885363Y-32914759D01*
X22085241Y-33114637D01*
X22320273Y-33271680D01*
X22581426Y-33379853D01*
X22858665Y-33435000D01*
X23141335Y-33435000D01*
X23418574Y-33379853D01*
X23679727Y-33271680D01*
X23914759Y-33114637D01*
X24114637Y-32914759D01*
X24271680Y-32679727D01*
X24379853Y-32418574D01*
X24435000Y-32141335D01*
X24435000Y-31858665D01*
X24379853Y-31581426D01*
X24271680Y-31320273D01*
X24114637Y-31085241D01*
X23914759Y-30885363D01*
X23679727Y-30728320D01*
X23418574Y-30620147D01*
X23141335Y-30565000D01*
X22858665Y-30565000D01*
X22581426Y-30620147D01*
X22320273Y-30728320D01*
X22085241Y-30885363D01*
X21885363Y-31085241D01*
X21728320Y-31320273D01*
X21620147Y-31581426D01*
X21565000Y-31858665D01*
X660000Y-31858665D01*
X660000Y-28358665D01*
X21565000Y-28358665D01*
X21565000Y-28641335D01*
X21620147Y-28918574D01*
X21728320Y-29179727D01*
X21885363Y-29414759D01*
X22085241Y-29614637D01*
X22320273Y-29771680D01*
X22581426Y-29879853D01*
X22858665Y-29935000D01*
X23141335Y-29935000D01*
X23418574Y-29879853D01*
X23679727Y-29771680D01*
X23914759Y-29614637D01*
X24114637Y-29414759D01*
X24271680Y-29179727D01*
X24379853Y-28918574D01*
X24435000Y-28641335D01*
X24435000Y-28358665D01*
X31725000Y-28358665D01*
X31725000Y-28641335D01*
X31780147Y-28918574D01*
X31888320Y-29179727D01*
X32045363Y-29414759D01*
X32245241Y-29614637D01*
X32480273Y-29771680D01*
X32741426Y-29879853D01*
X33018665Y-29935000D01*
X33301335Y-29935000D01*
X33578574Y-29879853D01*
X33839727Y-29771680D01*
X34074759Y-29614637D01*
X34274637Y-29414759D01*
X34431680Y-29179727D01*
X34539853Y-28918574D01*
X34595000Y-28641335D01*
X34595000Y-28358665D01*
X34539853Y-28081426D01*
X34431680Y-27820273D01*
X34274637Y-27585241D01*
X34074759Y-27385363D01*
X34034803Y-27358665D01*
X35065000Y-27358665D01*
X35065000Y-27641335D01*
X35120147Y-27918574D01*
X35228320Y-28179727D01*
X35385363Y-28414759D01*
X35585241Y-28614637D01*
X35787827Y-28750000D01*
X35585241Y-28885363D01*
X35385363Y-29085241D01*
X35228320Y-29320273D01*
X35120147Y-29581426D01*
X35065000Y-29858665D01*
X35065000Y-30141335D01*
X35120147Y-30418574D01*
X35228320Y-30679727D01*
X35385363Y-30914759D01*
X35585241Y-31114637D01*
X35820273Y-31271680D01*
X36081426Y-31379853D01*
X36358665Y-31435000D01*
X36641335Y-31435000D01*
X36918574Y-31379853D01*
X37179727Y-31271680D01*
X37414759Y-31114637D01*
X37614637Y-30914759D01*
X37771680Y-30679727D01*
X37879853Y-30418574D01*
X37935000Y-30141335D01*
X37935000Y-29858665D01*
X37879853Y-29581426D01*
X37771680Y-29320273D01*
X37614637Y-29085241D01*
X37414759Y-28885363D01*
X37212173Y-28750000D01*
X37414759Y-28614637D01*
X37614637Y-28414759D01*
X37771680Y-28179727D01*
X37879853Y-27918574D01*
X37935000Y-27641335D01*
X37935000Y-27358665D01*
X37879853Y-27081426D01*
X37771680Y-26820273D01*
X37614637Y-26585241D01*
X37414759Y-26385363D01*
X37179727Y-26228320D01*
X36918574Y-26120147D01*
X36641335Y-26065000D01*
X36358665Y-26065000D01*
X36081426Y-26120147D01*
X35820273Y-26228320D01*
X35585241Y-26385363D01*
X35385363Y-26585241D01*
X35228320Y-26820273D01*
X35120147Y-27081426D01*
X35065000Y-27358665D01*
X34034803Y-27358665D01*
X33839727Y-27228320D01*
X33578574Y-27120147D01*
X33301335Y-27065000D01*
X33018665Y-27065000D01*
X32741426Y-27120147D01*
X32480273Y-27228320D01*
X32245241Y-27385363D01*
X32045363Y-27585241D01*
X31888320Y-27820273D01*
X31780147Y-28081426D01*
X31725000Y-28358665D01*
X24435000Y-28358665D01*
X24379853Y-28081426D01*
X24271680Y-27820273D01*
X24114637Y-27585241D01*
X23914759Y-27385363D01*
X23679727Y-27228320D01*
X23418574Y-27120147D01*
X23141335Y-27065000D01*
X22858665Y-27065000D01*
X22581426Y-27120147D01*
X22320273Y-27228320D01*
X22085241Y-27385363D01*
X21885363Y-27585241D01*
X21728320Y-27820273D01*
X21620147Y-28081426D01*
X21565000Y-28358665D01*
X660000Y-28358665D01*
X660000Y-25150000D01*
X10951928Y-25150000D01*
X10951928Y-26850000D01*
X10964188Y-26974482D01*
X11000498Y-27094180D01*
X11059463Y-27204494D01*
X11138815Y-27301185D01*
X11235506Y-27380537D01*
X11345820Y-27439502D01*
X11465518Y-27475812D01*
X11590000Y-27488072D01*
X13290000Y-27488072D01*
X13414482Y-27475812D01*
X13534180Y-27439502D01*
X13644494Y-27380537D01*
X13741185Y-27301185D01*
X13820537Y-27204494D01*
X13879502Y-27094180D01*
X13915812Y-26974482D01*
X13928072Y-26850000D01*
X13928072Y-25150000D01*
X13915812Y-25025518D01*
X13879502Y-24905820D01*
X13820537Y-24795506D01*
X13741185Y-24698815D01*
X13644494Y-24619463D01*
X13534180Y-24560498D01*
X13461620Y-24538487D01*
X13593475Y-24406632D01*
X13755990Y-24163411D01*
X13867932Y-23893158D01*
X13925000Y-23606260D01*
X13925000Y-23313740D01*
X13867932Y-23026842D01*
X13755990Y-22756589D01*
X13593475Y-22513368D01*
X13386632Y-22306525D01*
X13212240Y-22190000D01*
X13386632Y-22073475D01*
X13593475Y-21866632D01*
X13598798Y-21858665D01*
X19565000Y-21858665D01*
X19565000Y-22141335D01*
X19620147Y-22418574D01*
X19728320Y-22679727D01*
X19885363Y-22914759D01*
X20085241Y-23114637D01*
X20287827Y-23250000D01*
X20085241Y-23385363D01*
X19885363Y-23585241D01*
X19728320Y-23820273D01*
X19620147Y-24081426D01*
X19565000Y-24358665D01*
X19565000Y-24641335D01*
X19620147Y-24918574D01*
X19728320Y-25179727D01*
X19885363Y-25414759D01*
X20085241Y-25614637D01*
X20320273Y-25771680D01*
X20581426Y-25879853D01*
X20858665Y-25935000D01*
X21141335Y-25935000D01*
X21418574Y-25879853D01*
X21679727Y-25771680D01*
X21914759Y-25614637D01*
X22114637Y-25414759D01*
X22271680Y-25179727D01*
X22379853Y-24918574D01*
X22435000Y-24641335D01*
X22435000Y-24358665D01*
X22379853Y-24081426D01*
X22271680Y-23820273D01*
X22114637Y-23585241D01*
X21914759Y-23385363D01*
X21712173Y-23250000D01*
X21787003Y-23200000D01*
X24061928Y-23200000D01*
X24061928Y-24800000D01*
X24074188Y-24924482D01*
X24110498Y-25044180D01*
X24169463Y-25154494D01*
X24248815Y-25251185D01*
X24345506Y-25330537D01*
X24455820Y-25389502D01*
X24575518Y-25425812D01*
X24700000Y-25438072D01*
X26300000Y-25438072D01*
X26424482Y-25425812D01*
X26544180Y-25389502D01*
X26654494Y-25330537D01*
X26751185Y-25251185D01*
X26830537Y-25154494D01*
X26889502Y-25044180D01*
X26925812Y-24924482D01*
X26938072Y-24800000D01*
X26938072Y-23858665D01*
X27065000Y-23858665D01*
X27065000Y-24141335D01*
X27120147Y-24418574D01*
X27228320Y-24679727D01*
X27385363Y-24914759D01*
X27585241Y-25114637D01*
X27820273Y-25271680D01*
X28081426Y-25379853D01*
X28358665Y-25435000D01*
X28641335Y-25435000D01*
X28918574Y-25379853D01*
X29179727Y-25271680D01*
X29414759Y-25114637D01*
X29614637Y-24914759D01*
X29771680Y-24679727D01*
X29879853Y-24418574D01*
X29935000Y-24141335D01*
X29935000Y-23858665D01*
X29879853Y-23581426D01*
X29771680Y-23320273D01*
X29691317Y-23200000D01*
X32561928Y-23200000D01*
X32561928Y-24800000D01*
X32574188Y-24924482D01*
X32610498Y-25044180D01*
X32669463Y-25154494D01*
X32748815Y-25251185D01*
X32845506Y-25330537D01*
X32955820Y-25389502D01*
X33075518Y-25425812D01*
X33200000Y-25438072D01*
X34800000Y-25438072D01*
X34924482Y-25425812D01*
X35044180Y-25389502D01*
X35154494Y-25330537D01*
X35251185Y-25251185D01*
X35330537Y-25154494D01*
X35389502Y-25044180D01*
X35425812Y-24924482D01*
X35438072Y-24800000D01*
X35438072Y-23858665D01*
X35565000Y-23858665D01*
X35565000Y-24141335D01*
X35620147Y-24418574D01*
X35728320Y-24679727D01*
X35885363Y-24914759D01*
X36085241Y-25114637D01*
X36320273Y-25271680D01*
X36581426Y-25379853D01*
X36858665Y-25435000D01*
X37141335Y-25435000D01*
X37418574Y-25379853D01*
X37679727Y-25271680D01*
X37914759Y-25114637D01*
X38114637Y-24914759D01*
X38271680Y-24679727D01*
X38379853Y-24418574D01*
X38435000Y-24141335D01*
X38435000Y-23858665D01*
X38379853Y-23581426D01*
X38271680Y-23320273D01*
X38114637Y-23085241D01*
X37914759Y-22885363D01*
X37679727Y-22728320D01*
X37418574Y-22620147D01*
X37141335Y-22565000D01*
X36858665Y-22565000D01*
X36581426Y-22620147D01*
X36320273Y-22728320D01*
X36085241Y-22885363D01*
X35885363Y-23085241D01*
X35728320Y-23320273D01*
X35620147Y-23581426D01*
X35565000Y-23858665D01*
X35438072Y-23858665D01*
X35438072Y-23200000D01*
X35425812Y-23075518D01*
X35389502Y-22955820D01*
X35330537Y-22845506D01*
X35251185Y-22748815D01*
X35154494Y-22669463D01*
X35044180Y-22610498D01*
X34924482Y-22574188D01*
X34800000Y-22561928D01*
X33200000Y-22561928D01*
X33075518Y-22574188D01*
X32955820Y-22610498D01*
X32845506Y-22669463D01*
X32748815Y-22748815D01*
X32669463Y-22845506D01*
X32610498Y-22955820D01*
X32574188Y-23075518D01*
X32561928Y-23200000D01*
X29691317Y-23200000D01*
X29614637Y-23085241D01*
X29414759Y-22885363D01*
X29179727Y-22728320D01*
X28918574Y-22620147D01*
X28641335Y-22565000D01*
X28358665Y-22565000D01*
X28081426Y-22620147D01*
X27820273Y-22728320D01*
X27585241Y-22885363D01*
X27385363Y-23085241D01*
X27228320Y-23320273D01*
X27120147Y-23581426D01*
X27065000Y-23858665D01*
X26938072Y-23858665D01*
X26938072Y-23200000D01*
X26925812Y-23075518D01*
X26889502Y-22955820D01*
X26830537Y-22845506D01*
X26751185Y-22748815D01*
X26654494Y-22669463D01*
X26544180Y-22610498D01*
X26424482Y-22574188D01*
X26300000Y-22561928D01*
X24700000Y-22561928D01*
X24575518Y-22574188D01*
X24455820Y-22610498D01*
X24345506Y-22669463D01*
X24248815Y-22748815D01*
X24169463Y-22845506D01*
X24110498Y-22955820D01*
X24074188Y-23075518D01*
X24061928Y-23200000D01*
X21787003Y-23200000D01*
X21914759Y-23114637D01*
X22114637Y-22914759D01*
X22271680Y-22679727D01*
X22379853Y-22418574D01*
X22435000Y-22141335D01*
X22435000Y-21858665D01*
X22379853Y-21581426D01*
X22271680Y-21320273D01*
X22114637Y-21085241D01*
X21914759Y-20885363D01*
X21679727Y-20728320D01*
X21418574Y-20620147D01*
X21141335Y-20565000D01*
X20858665Y-20565000D01*
X20581426Y-20620147D01*
X20320273Y-20728320D01*
X20085241Y-20885363D01*
X19885363Y-21085241D01*
X19728320Y-21320273D01*
X19620147Y-21581426D01*
X19565000Y-21858665D01*
X13598798Y-21858665D01*
X13755990Y-21623411D01*
X13867932Y-21353158D01*
X13925000Y-21066260D01*
X13925000Y-20773740D01*
X13867932Y-20486842D01*
X13755990Y-20216589D01*
X13593475Y-19973368D01*
X13386632Y-19766525D01*
X13212240Y-19650000D01*
X13386632Y-19533475D01*
X13593475Y-19326632D01*
X13755990Y-19083411D01*
X13867932Y-18813158D01*
X13925000Y-18526260D01*
X13925000Y-18233740D01*
X13867932Y-17946842D01*
X13831409Y-17858665D01*
X14565000Y-17858665D01*
X14565000Y-18141335D01*
X14620147Y-18418574D01*
X14728320Y-18679727D01*
X14885363Y-18914759D01*
X15085241Y-19114637D01*
X15320273Y-19271680D01*
X15581426Y-19379853D01*
X15858665Y-19435000D01*
X16141335Y-19435000D01*
X16418574Y-19379853D01*
X16679727Y-19271680D01*
X16914759Y-19114637D01*
X17114637Y-18914759D01*
X17271680Y-18679727D01*
X17379853Y-18418574D01*
X17435000Y-18141335D01*
X17435000Y-17858665D01*
X17379853Y-17581426D01*
X17271680Y-17320273D01*
X17114637Y-17085241D01*
X16914759Y-16885363D01*
X16679727Y-16728320D01*
X16418574Y-16620147D01*
X16141335Y-16565000D01*
X15858665Y-16565000D01*
X15581426Y-16620147D01*
X15320273Y-16728320D01*
X15085241Y-16885363D01*
X14885363Y-17085241D01*
X14728320Y-17320273D01*
X14620147Y-17581426D01*
X14565000Y-17858665D01*
X13831409Y-17858665D01*
X13755990Y-17676589D01*
X13593475Y-17433368D01*
X13386632Y-17226525D01*
X13143411Y-17064010D01*
X12873158Y-16952068D01*
X12586260Y-16895000D01*
X12293740Y-16895000D01*
X12006842Y-16952068D01*
X11736589Y-17064010D01*
X11493368Y-17226525D01*
X11286525Y-17433368D01*
X11124010Y-17676589D01*
X11012068Y-17946842D01*
X10955000Y-18233740D01*
X10955000Y-18526260D01*
X11012068Y-18813158D01*
X11124010Y-19083411D01*
X11286525Y-19326632D01*
X11493368Y-19533475D01*
X11667760Y-19650000D01*
X11493368Y-19766525D01*
X11286525Y-19973368D01*
X11124010Y-20216589D01*
X11012068Y-20486842D01*
X10955000Y-20773740D01*
X10955000Y-21066260D01*
X11012068Y-21353158D01*
X11124010Y-21623411D01*
X11286525Y-21866632D01*
X11493368Y-22073475D01*
X11667760Y-22190000D01*
X11493368Y-22306525D01*
X11286525Y-22513368D01*
X11124010Y-22756589D01*
X11012068Y-23026842D01*
X10955000Y-23313740D01*
X10955000Y-23606260D01*
X11012068Y-23893158D01*
X11124010Y-24163411D01*
X11286525Y-24406632D01*
X11418380Y-24538487D01*
X11345820Y-24560498D01*
X11235506Y-24619463D01*
X11138815Y-24698815D01*
X11059463Y-24795506D01*
X11000498Y-24905820D01*
X10964188Y-25025518D01*
X10951928Y-25150000D01*
X660000Y-25150000D01*
X660000Y-15858665D01*
X19565000Y-15858665D01*
X19565000Y-16141335D01*
X19620147Y-16418574D01*
X19728320Y-16679727D01*
X19885363Y-16914759D01*
X20085241Y-17114637D01*
X20287827Y-17250000D01*
X20085241Y-17385363D01*
X19885363Y-17585241D01*
X19728320Y-17820273D01*
X19620147Y-18081426D01*
X19565000Y-18358665D01*
X19565000Y-18641335D01*
X19620147Y-18918574D01*
X19728320Y-19179727D01*
X19885363Y-19414759D01*
X20085241Y-19614637D01*
X20320273Y-19771680D01*
X20581426Y-19879853D01*
X20858665Y-19935000D01*
X21141335Y-19935000D01*
X21418574Y-19879853D01*
X21679727Y-19771680D01*
X21914759Y-19614637D01*
X22114637Y-19414759D01*
X22271680Y-19179727D01*
X22379853Y-18918574D01*
X22435000Y-18641335D01*
X22435000Y-18358665D01*
X22379853Y-18081426D01*
X22271680Y-17820273D01*
X22114637Y-17585241D01*
X21914759Y-17385363D01*
X21712173Y-17250000D01*
X21914759Y-17114637D01*
X22114637Y-16914759D01*
X22271680Y-16679727D01*
X22379853Y-16418574D01*
X22435000Y-16141335D01*
X22435000Y-15858665D01*
X22379853Y-15581426D01*
X22271680Y-15320273D01*
X22114637Y-15085241D01*
X21914759Y-14885363D01*
X21679727Y-14728320D01*
X21418574Y-14620147D01*
X21141335Y-14565000D01*
X20858665Y-14565000D01*
X20581426Y-14620147D01*
X20320273Y-14728320D01*
X20085241Y-14885363D01*
X19885363Y-15085241D01*
X19728320Y-15320273D01*
X19620147Y-15581426D01*
X19565000Y-15858665D01*
X660000Y-15858665D01*
X660000Y-11000000D01*
X3661928Y-11000000D01*
X3661928Y-12000000D01*
X3674188Y-12124482D01*
X3710498Y-12244180D01*
X3769463Y-12354494D01*
X3848815Y-12451185D01*
X3945506Y-12530537D01*
X4055820Y-12589502D01*
X4175518Y-12625812D01*
X4300000Y-12638072D01*
X6500000Y-12638072D01*
X6624482Y-12625812D01*
X6744180Y-12589502D01*
X6854494Y-12530537D01*
X6951185Y-12451185D01*
X7030537Y-12354494D01*
X7089502Y-12244180D01*
X7125812Y-12124482D01*
X7138072Y-12000000D01*
X7138072Y-11000000D01*
X7125812Y-10875518D01*
X7089502Y-10755820D01*
X7030537Y-10645506D01*
X6951185Y-10548815D01*
X6854494Y-10469463D01*
X6744180Y-10410498D01*
X6624482Y-10374188D01*
X6500000Y-10361928D01*
X4300000Y-10361928D01*
X4175518Y-10374188D01*
X4055820Y-10410498D01*
X3945506Y-10469463D01*
X3848815Y-10548815D01*
X3769463Y-10645506D01*
X3710498Y-10755820D01*
X3674188Y-10875518D01*
X3661928Y-11000000D01*
X660000Y-11000000D01*
X660000Y-9900000D01*
X11861928Y-9900000D01*
X11861928Y-12100000D01*
X11874188Y-12224482D01*
X11910498Y-12344180D01*
X11969463Y-12454494D01*
X12048815Y-12551185D01*
X12145506Y-12630537D01*
X12255820Y-12689502D01*
X12375518Y-12725812D01*
X12500000Y-12738072D01*
X13500000Y-12738072D01*
X13624482Y-12725812D01*
X13744180Y-12689502D01*
X13854494Y-12630537D01*
X13951185Y-12551185D01*
X13985772Y-12509040D01*
X19608091Y-12509040D01*
X19702930Y-12773881D01*
X19847615Y-13015131D01*
X20036586Y-13223519D01*
X20262580Y-13391037D01*
X20516913Y-13511246D01*
X20650961Y-13551904D01*
X20873000Y-13429915D01*
X20873000Y-12287000D01*
X21127000Y-12287000D01*
X21127000Y-13429915D01*
X21349039Y-13551904D01*
X21483087Y-13511246D01*
X21737420Y-13391037D01*
X21963414Y-13223519D01*
X21984741Y-13200000D01*
X24061928Y-13200000D01*
X24061928Y-14800000D01*
X24074188Y-14924482D01*
X24110498Y-15044180D01*
X24169463Y-15154494D01*
X24248815Y-15251185D01*
X24345506Y-15330537D01*
X24455820Y-15389502D01*
X24459873Y-15390731D01*
X24385363Y-15465241D01*
X24228320Y-15700273D01*
X24120147Y-15961426D01*
X24065000Y-16238665D01*
X24065000Y-16521335D01*
X24120147Y-16798574D01*
X24228320Y-17059727D01*
X24385363Y-17294759D01*
X24585241Y-17494637D01*
X24820273Y-17651680D01*
X25081426Y-17759853D01*
X25358665Y-17815000D01*
X25641335Y-17815000D01*
X25918574Y-17759853D01*
X26179727Y-17651680D01*
X26414759Y-17494637D01*
X26614637Y-17294759D01*
X26771680Y-17059727D01*
X26879853Y-16798574D01*
X26935000Y-16521335D01*
X26935000Y-16238665D01*
X26879853Y-15961426D01*
X26771680Y-15700273D01*
X26691317Y-15580000D01*
X27061928Y-15580000D01*
X27061928Y-17180000D01*
X27074188Y-17304482D01*
X27110498Y-17424180D01*
X27169463Y-17534494D01*
X27248815Y-17631185D01*
X27345506Y-17710537D01*
X27455820Y-17769502D01*
X27575518Y-17805812D01*
X27700000Y-17818072D01*
X29300000Y-17818072D01*
X29424482Y-17805812D01*
X29544180Y-17769502D01*
X29654494Y-17710537D01*
X29751185Y-17631185D01*
X29830537Y-17534494D01*
X29889502Y-17424180D01*
X29925812Y-17304482D01*
X29938072Y-17180000D01*
X29938072Y-15580000D01*
X29925812Y-15455518D01*
X29889502Y-15335820D01*
X29830537Y-15225506D01*
X29751185Y-15128815D01*
X29654494Y-15049463D01*
X29544180Y-14990498D01*
X29540127Y-14989269D01*
X29614637Y-14914759D01*
X29771680Y-14679727D01*
X29879853Y-14418574D01*
X29935000Y-14141335D01*
X29935000Y-13858665D01*
X29879853Y-13581426D01*
X29771680Y-13320273D01*
X29691317Y-13200000D01*
X32561928Y-13200000D01*
X32561928Y-14800000D01*
X32574188Y-14924482D01*
X32610498Y-15044180D01*
X32669463Y-15154494D01*
X32748815Y-15251185D01*
X32845506Y-15330537D01*
X32955820Y-15389502D01*
X32959873Y-15390731D01*
X32885363Y-15465241D01*
X32728320Y-15700273D01*
X32620147Y-15961426D01*
X32565000Y-16238665D01*
X32565000Y-16521335D01*
X32620147Y-16798574D01*
X32728320Y-17059727D01*
X32885363Y-17294759D01*
X33085241Y-17494637D01*
X33320273Y-17651680D01*
X33581426Y-17759853D01*
X33858665Y-17815000D01*
X34141335Y-17815000D01*
X34418574Y-17759853D01*
X34679727Y-17651680D01*
X34914759Y-17494637D01*
X35114637Y-17294759D01*
X35271680Y-17059727D01*
X35379853Y-16798574D01*
X35435000Y-16521335D01*
X35435000Y-16238665D01*
X35379853Y-15961426D01*
X35271680Y-15700273D01*
X35191317Y-15580000D01*
X35561928Y-15580000D01*
X35561928Y-17180000D01*
X35574188Y-17304482D01*
X35610498Y-17424180D01*
X35669463Y-17534494D01*
X35748815Y-17631185D01*
X35845506Y-17710537D01*
X35955820Y-17769502D01*
X36075518Y-17805812D01*
X36200000Y-17818072D01*
X37800000Y-17818072D01*
X37924482Y-17805812D01*
X38044180Y-17769502D01*
X38154494Y-17710537D01*
X38251185Y-17631185D01*
X38330537Y-17534494D01*
X38389502Y-17424180D01*
X38425812Y-17304482D01*
X38438072Y-17180000D01*
X38438072Y-15580000D01*
X38425812Y-15455518D01*
X38389502Y-15335820D01*
X38330537Y-15225506D01*
X38251185Y-15128815D01*
X38154494Y-15049463D01*
X38044180Y-14990498D01*
X38040127Y-14989269D01*
X38114637Y-14914759D01*
X38271680Y-14679727D01*
X38379853Y-14418574D01*
X38435000Y-14141335D01*
X38435000Y-13858665D01*
X38379853Y-13581426D01*
X38271680Y-13320273D01*
X38114637Y-13085241D01*
X37914759Y-12885363D01*
X37679727Y-12728320D01*
X37418574Y-12620147D01*
X37141335Y-12565000D01*
X36858665Y-12565000D01*
X36581426Y-12620147D01*
X36320273Y-12728320D01*
X36085241Y-12885363D01*
X35885363Y-13085241D01*
X35728320Y-13320273D01*
X35620147Y-13581426D01*
X35565000Y-13858665D01*
X35565000Y-14141335D01*
X35620147Y-14418574D01*
X35728320Y-14679727D01*
X35885363Y-14914759D01*
X35959873Y-14989269D01*
X35955820Y-14990498D01*
X35845506Y-15049463D01*
X35748815Y-15128815D01*
X35669463Y-15225506D01*
X35610498Y-15335820D01*
X35574188Y-15455518D01*
X35561928Y-15580000D01*
X35191317Y-15580000D01*
X35114637Y-15465241D01*
X35040127Y-15390731D01*
X35044180Y-15389502D01*
X35154494Y-15330537D01*
X35251185Y-15251185D01*
X35330537Y-15154494D01*
X35389502Y-15044180D01*
X35425812Y-14924482D01*
X35438072Y-14800000D01*
X35438072Y-13200000D01*
X35425812Y-13075518D01*
X35389502Y-12955820D01*
X35330537Y-12845506D01*
X35251185Y-12748815D01*
X35154494Y-12669463D01*
X35044180Y-12610498D01*
X34924482Y-12574188D01*
X34800000Y-12561928D01*
X33200000Y-12561928D01*
X33075518Y-12574188D01*
X32955820Y-12610498D01*
X32845506Y-12669463D01*
X32748815Y-12748815D01*
X32669463Y-12845506D01*
X32610498Y-12955820D01*
X32574188Y-13075518D01*
X32561928Y-13200000D01*
X29691317Y-13200000D01*
X29614637Y-13085241D01*
X29414759Y-12885363D01*
X29179727Y-12728320D01*
X28918574Y-12620147D01*
X28641335Y-12565000D01*
X28358665Y-12565000D01*
X28081426Y-12620147D01*
X27820273Y-12728320D01*
X27585241Y-12885363D01*
X27385363Y-13085241D01*
X27228320Y-13320273D01*
X27120147Y-13581426D01*
X27065000Y-13858665D01*
X27065000Y-14141335D01*
X27120147Y-14418574D01*
X27228320Y-14679727D01*
X27385363Y-14914759D01*
X27459873Y-14989269D01*
X27455820Y-14990498D01*
X27345506Y-15049463D01*
X27248815Y-15128815D01*
X27169463Y-15225506D01*
X27110498Y-15335820D01*
X27074188Y-15455518D01*
X27061928Y-15580000D01*
X26691317Y-15580000D01*
X26614637Y-15465241D01*
X26540127Y-15390731D01*
X26544180Y-15389502D01*
X26654494Y-15330537D01*
X26751185Y-15251185D01*
X26830537Y-15154494D01*
X26889502Y-15044180D01*
X26925812Y-14924482D01*
X26938072Y-14800000D01*
X26938072Y-13200000D01*
X26925812Y-13075518D01*
X26889502Y-12955820D01*
X26830537Y-12845506D01*
X26751185Y-12748815D01*
X26654494Y-12669463D01*
X26544180Y-12610498D01*
X26424482Y-12574188D01*
X26300000Y-12561928D01*
X24700000Y-12561928D01*
X24575518Y-12574188D01*
X24455820Y-12610498D01*
X24345506Y-12669463D01*
X24248815Y-12748815D01*
X24169463Y-12845506D01*
X24110498Y-12955820D01*
X24074188Y-13075518D01*
X24061928Y-13200000D01*
X21984741Y-13200000D01*
X22152385Y-13015131D01*
X22297070Y-12773881D01*
X22391909Y-12509040D01*
X22270624Y-12287000D01*
X21127000Y-12287000D01*
X20873000Y-12287000D01*
X19729376Y-12287000D01*
X19608091Y-12509040D01*
X13985772Y-12509040D01*
X14030537Y-12454494D01*
X14089502Y-12344180D01*
X14125812Y-12224482D01*
X14138072Y-12100000D01*
X14138072Y-11810960D01*
X19608091Y-11810960D01*
X19729376Y-12033000D01*
X20873000Y-12033000D01*
X20873000Y-10890085D01*
X21127000Y-10890085D01*
X21127000Y-12033000D01*
X22270624Y-12033000D01*
X22391909Y-11810960D01*
X22297070Y-11546119D01*
X22152385Y-11304869D01*
X21963414Y-11096481D01*
X21737420Y-10928963D01*
X21483087Y-10808754D01*
X21349039Y-10768096D01*
X21127000Y-10890085D01*
X20873000Y-10890085D01*
X20650961Y-10768096D01*
X20516913Y-10808754D01*
X20262580Y-10928963D01*
X20036586Y-11096481D01*
X19847615Y-11304869D01*
X19702930Y-11546119D01*
X19608091Y-11810960D01*
X14138072Y-11810960D01*
X14138072Y-9900000D01*
X14125812Y-9775518D01*
X14089502Y-9655820D01*
X14030537Y-9545506D01*
X13951185Y-9448815D01*
X13854494Y-9369463D01*
X13744180Y-9310498D01*
X13624482Y-9274188D01*
X13500000Y-9261928D01*
X12500000Y-9261928D01*
X12375518Y-9274188D01*
X12255820Y-9310498D01*
X12145506Y-9369463D01*
X12048815Y-9448815D01*
X11969463Y-9545506D01*
X11910498Y-9655820D01*
X11874188Y-9775518D01*
X11861928Y-9900000D01*
X660000Y-9900000D01*
X660000Y-8100000D01*
X861928Y-8100000D01*
X874188Y-8224482D01*
X910498Y-8344180D01*
X969463Y-8454494D01*
X1048815Y-8551185D01*
X1145506Y-8630537D01*
X1255820Y-8689502D01*
X1375518Y-8725812D01*
X1500000Y-8738072D01*
X1714250Y-8735000D01*
X1873000Y-8576250D01*
X1873000Y-7127000D01*
X2127000Y-7127000D01*
X2127000Y-8576250D01*
X2285750Y-8735000D01*
X2500000Y-8738072D01*
X2624482Y-8725812D01*
X2744180Y-8689502D01*
X2854494Y-8630537D01*
X2951185Y-8551185D01*
X3030537Y-8454494D01*
X3089502Y-8344180D01*
X3125812Y-8224482D01*
X3138072Y-8100000D01*
X3135000Y-7285750D01*
X2976250Y-7127000D01*
X2127000Y-7127000D01*
X1873000Y-7127000D01*
X1023750Y-7127000D01*
X865000Y-7285750D01*
X861928Y-8100000D01*
X660000Y-8100000D01*
X660000Y-5900000D01*
X861928Y-5900000D01*
X865000Y-6714250D01*
X1023750Y-6873000D01*
X1873000Y-6873000D01*
X1873000Y-5423750D01*
X2127000Y-5423750D01*
X2127000Y-6873000D01*
X2976250Y-6873000D01*
X3135000Y-6714250D01*
X3138072Y-5900000D01*
X3125812Y-5775518D01*
X3089502Y-5655820D01*
X3030537Y-5545506D01*
X2951185Y-5448815D01*
X2854494Y-5369463D01*
X2744180Y-5310498D01*
X2624482Y-5274188D01*
X2500000Y-5261928D01*
X2285750Y-5265000D01*
X2127000Y-5423750D01*
X1873000Y-5423750D01*
X1714250Y-5265000D01*
X1500000Y-5261928D01*
X1375518Y-5274188D01*
X1255820Y-5310498D01*
X1145506Y-5369463D01*
X1048815Y-5448815D01*
X969463Y-5545506D01*
X910498Y-5655820D01*
X874188Y-5775518D01*
X861928Y-5900000D01*
X660000Y-5900000D01*
X660000Y-4000000D01*
X6661928Y-4000000D01*
X6661928Y-5000000D01*
X6674188Y-5124482D01*
X6710498Y-5244180D01*
X6769463Y-5354494D01*
X6848815Y-5451185D01*
X6945506Y-5530537D01*
X7055820Y-5589502D01*
X7175518Y-5625812D01*
X7300000Y-5638072D01*
X9500000Y-5638072D01*
X9624482Y-5625812D01*
X9744180Y-5589502D01*
X9854494Y-5530537D01*
X9951185Y-5451185D01*
X10030537Y-5354494D01*
X10089502Y-5244180D01*
X10125812Y-5124482D01*
X10138072Y-5000000D01*
X10138072Y-4000000D01*
X10125812Y-3875518D01*
X10089502Y-3755820D01*
X10030537Y-3645506D01*
X9951185Y-3548815D01*
X9854494Y-3469463D01*
X9744180Y-3410498D01*
X9624482Y-3374188D01*
X9500000Y-3361928D01*
X7300000Y-3361928D01*
X7175518Y-3374188D01*
X7055820Y-3410498D01*
X6945506Y-3469463D01*
X6848815Y-3548815D01*
X6769463Y-3645506D01*
X6710498Y-3755820D01*
X6674188Y-3875518D01*
X6661928Y-4000000D01*
X660000Y-4000000D01*
X660000Y-1300000D01*
X8061928Y-1300000D01*
X8061928Y-2300000D01*
X8074188Y-2424482D01*
X8110498Y-2544180D01*
X8169463Y-2654494D01*
X8248815Y-2751185D01*
X8345506Y-2830537D01*
X8455820Y-2889502D01*
X8575518Y-2925812D01*
X8700000Y-2938072D01*
X10900000Y-2938072D01*
X11024482Y-2925812D01*
X11144180Y-2889502D01*
X11254494Y-2830537D01*
X11351185Y-2751185D01*
X11430537Y-2654494D01*
X11489502Y-2544180D01*
X11525812Y-2424482D01*
X11532294Y-2358665D01*
X14565000Y-2358665D01*
X14565000Y-2641335D01*
X14620147Y-2918574D01*
X14728320Y-3179727D01*
X14885363Y-3414759D01*
X15085241Y-3614637D01*
X15287827Y-3750000D01*
X15085241Y-3885363D01*
X14885363Y-4085241D01*
X14728320Y-4320273D01*
X14620147Y-4581426D01*
X14565000Y-4858665D01*
X14565000Y-5141335D01*
X14620147Y-5418574D01*
X14728320Y-5679727D01*
X14885363Y-5914759D01*
X15085241Y-6114637D01*
X15320273Y-6271680D01*
X15581426Y-6379853D01*
X15783256Y-6420000D01*
X15581426Y-6460147D01*
X15320273Y-6568320D01*
X15085241Y-6725363D01*
X14885363Y-6925241D01*
X14728320Y-7160273D01*
X14620147Y-7421426D01*
X14565000Y-7698665D01*
X14565000Y-7981335D01*
X14620147Y-8258574D01*
X14728320Y-8519727D01*
X14885363Y-8754759D01*
X15085241Y-8954637D01*
X15320273Y-9111680D01*
X15581426Y-9219853D01*
X15858665Y-9275000D01*
X16141335Y-9275000D01*
X16418574Y-9219853D01*
X16679727Y-9111680D01*
X16914759Y-8954637D01*
X17114637Y-8754759D01*
X17271680Y-8519727D01*
X17379853Y-8258574D01*
X17435000Y-7981335D01*
X17435000Y-7698665D01*
X17379853Y-7421426D01*
X17271680Y-7160273D01*
X17114637Y-6925241D01*
X16914759Y-6725363D01*
X16679727Y-6568320D01*
X16418574Y-6460147D01*
X16216744Y-6420000D01*
X16418574Y-6379853D01*
X16679727Y-6271680D01*
X16729137Y-6238665D01*
X24065000Y-6238665D01*
X24065000Y-6521335D01*
X24120147Y-6798574D01*
X24228320Y-7059727D01*
X24385363Y-7294759D01*
X24585241Y-7494637D01*
X24820273Y-7651680D01*
X25081426Y-7759853D01*
X25358665Y-7815000D01*
X25641335Y-7815000D01*
X25918574Y-7759853D01*
X26179727Y-7651680D01*
X26414759Y-7494637D01*
X26614637Y-7294759D01*
X26771680Y-7059727D01*
X26879853Y-6798574D01*
X26935000Y-6521335D01*
X26935000Y-6238665D01*
X26879853Y-5961426D01*
X26771680Y-5700273D01*
X26691317Y-5580000D01*
X27061928Y-5580000D01*
X27061928Y-7180000D01*
X27074188Y-7304482D01*
X27110498Y-7424180D01*
X27169463Y-7534494D01*
X27248815Y-7631185D01*
X27345506Y-7710537D01*
X27455820Y-7769502D01*
X27575518Y-7805812D01*
X27700000Y-7818072D01*
X29300000Y-7818072D01*
X29424482Y-7805812D01*
X29544180Y-7769502D01*
X29654494Y-7710537D01*
X29751185Y-7631185D01*
X29830537Y-7534494D01*
X29889502Y-7424180D01*
X29925812Y-7304482D01*
X29938072Y-7180000D01*
X29938072Y-6238665D01*
X32565000Y-6238665D01*
X32565000Y-6521335D01*
X32620147Y-6798574D01*
X32728320Y-7059727D01*
X32885363Y-7294759D01*
X33085241Y-7494637D01*
X33320273Y-7651680D01*
X33581426Y-7759853D01*
X33858665Y-7815000D01*
X34141335Y-7815000D01*
X34418574Y-7759853D01*
X34679727Y-7651680D01*
X34914759Y-7494637D01*
X35114637Y-7294759D01*
X35271680Y-7059727D01*
X35379853Y-6798574D01*
X35435000Y-6521335D01*
X35435000Y-6238665D01*
X35379853Y-5961426D01*
X35271680Y-5700273D01*
X35191317Y-5580000D01*
X35561928Y-5580000D01*
X35561928Y-7180000D01*
X35574188Y-7304482D01*
X35610498Y-7424180D01*
X35669463Y-7534494D01*
X35748815Y-7631185D01*
X35845506Y-7710537D01*
X35955820Y-7769502D01*
X36075518Y-7805812D01*
X36200000Y-7818072D01*
X37800000Y-7818072D01*
X37924482Y-7805812D01*
X38044180Y-7769502D01*
X38154494Y-7710537D01*
X38251185Y-7631185D01*
X38330537Y-7534494D01*
X38389502Y-7424180D01*
X38425812Y-7304482D01*
X38438072Y-7180000D01*
X38438072Y-5580000D01*
X38425812Y-5455518D01*
X38389502Y-5335820D01*
X38330537Y-5225506D01*
X38251185Y-5128815D01*
X38154494Y-5049463D01*
X38044180Y-4990498D01*
X37924482Y-4954188D01*
X37800000Y-4941928D01*
X36200000Y-4941928D01*
X36075518Y-4954188D01*
X35955820Y-4990498D01*
X35845506Y-5049463D01*
X35748815Y-5128815D01*
X35669463Y-5225506D01*
X35610498Y-5335820D01*
X35574188Y-5455518D01*
X35561928Y-5580000D01*
X35191317Y-5580000D01*
X35114637Y-5465241D01*
X34914759Y-5265363D01*
X34679727Y-5108320D01*
X34418574Y-5000147D01*
X34141335Y-4945000D01*
X33858665Y-4945000D01*
X33581426Y-5000147D01*
X33320273Y-5108320D01*
X33085241Y-5265363D01*
X32885363Y-5465241D01*
X32728320Y-5700273D01*
X32620147Y-5961426D01*
X32565000Y-6238665D01*
X29938072Y-6238665D01*
X29938072Y-5580000D01*
X29925812Y-5455518D01*
X29889502Y-5335820D01*
X29830537Y-5225506D01*
X29751185Y-5128815D01*
X29654494Y-5049463D01*
X29544180Y-4990498D01*
X29424482Y-4954188D01*
X29300000Y-4941928D01*
X27700000Y-4941928D01*
X27575518Y-4954188D01*
X27455820Y-4990498D01*
X27345506Y-5049463D01*
X27248815Y-5128815D01*
X27169463Y-5225506D01*
X27110498Y-5335820D01*
X27074188Y-5455518D01*
X27061928Y-5580000D01*
X26691317Y-5580000D01*
X26614637Y-5465241D01*
X26414759Y-5265363D01*
X26179727Y-5108320D01*
X25918574Y-5000147D01*
X25641335Y-4945000D01*
X25358665Y-4945000D01*
X25081426Y-5000147D01*
X24820273Y-5108320D01*
X24585241Y-5265363D01*
X24385363Y-5465241D01*
X24228320Y-5700273D01*
X24120147Y-5961426D01*
X24065000Y-6238665D01*
X16729137Y-6238665D01*
X16914759Y-6114637D01*
X17114637Y-5914759D01*
X17271680Y-5679727D01*
X17379853Y-5418574D01*
X17435000Y-5141335D01*
X17435000Y-4858665D01*
X17379853Y-4581426D01*
X17271680Y-4320273D01*
X17114637Y-4085241D01*
X16914759Y-3885363D01*
X16712173Y-3750000D01*
X16914759Y-3614637D01*
X17114637Y-3414759D01*
X17271680Y-3179727D01*
X17379853Y-2918574D01*
X17435000Y-2641335D01*
X17435000Y-2358665D01*
X17379853Y-2081426D01*
X17271680Y-1820273D01*
X17114637Y-1585241D01*
X16914759Y-1385363D01*
X16679727Y-1228320D01*
X16418574Y-1120147D01*
X16141335Y-1065000D01*
X15858665Y-1065000D01*
X15581426Y-1120147D01*
X15320273Y-1228320D01*
X15085241Y-1385363D01*
X14885363Y-1585241D01*
X14728320Y-1820273D01*
X14620147Y-2081426D01*
X14565000Y-2358665D01*
X11532294Y-2358665D01*
X11538072Y-2300000D01*
X11538072Y-1300000D01*
X11525812Y-1175518D01*
X11489502Y-1055820D01*
X11430537Y-945506D01*
X11351185Y-848815D01*
X11254494Y-769463D01*
X11144180Y-710498D01*
X11024482Y-674188D01*
X10900000Y-661928D01*
X8700000Y-661928D01*
X8575518Y-674188D01*
X8455820Y-710498D01*
X8345506Y-769463D01*
X8248815Y-848815D01*
X8169463Y-945506D01*
X8110498Y-1055820D01*
X8074188Y-1175518D01*
X8061928Y-1300000D01*
X660000Y-1300000D01*
X660000Y-660000D01*
X20485212Y-660000D01*
X20320273Y-728320D01*
G36*
X33698815Y-41301185D02*
G01*
X33795506Y-41380537D01*
X33905820Y-41439502D01*
X33986466Y-41463966D01*
X33902412Y-41539731D01*
X33728359Y-41773080D01*
X33603175Y-42035901D01*
X33558524Y-42183110D01*
X33679845Y-42413000D01*
X34873000Y-42413000D01*
X34873000Y-42393000D01*
X35127000Y-42393000D01*
X35127000Y-42413000D01*
X37413000Y-42413000D01*
X37413000Y-42393000D01*
X37667000Y-42393000D01*
X37667000Y-42413000D01*
X37687000Y-42413000D01*
X37687000Y-42667000D01*
X37667000Y-42667000D01*
X37667000Y-44953000D01*
X37687000Y-44953000D01*
X37687000Y-45207000D01*
X37667000Y-45207000D01*
X37667000Y-47493000D01*
X37687000Y-47493000D01*
X37687000Y-47747000D01*
X37667000Y-47747000D01*
X37667000Y-47767000D01*
X37413000Y-47767000D01*
X37413000Y-47747000D01*
X35127000Y-47747000D01*
X35127000Y-47767000D01*
X34873000Y-47767000D01*
X34873000Y-47747000D01*
X33679845Y-47747000D01*
X33558524Y-47976890D01*
X33603175Y-48124099D01*
X33728359Y-48386920D01*
X33902412Y-48620269D01*
X34118645Y-48815178D01*
X34235534Y-48884805D01*
X34053368Y-49006525D01*
X33846525Y-49213368D01*
X33684010Y-49456589D01*
X33572068Y-49726842D01*
X33515000Y-50013740D01*
X33515000Y-50306260D01*
X33529461Y-50378960D01*
X33120230Y-50788192D01*
X33120230Y-45436890D01*
X33558524Y-45436890D01*
X33603175Y-45584099D01*
X33728359Y-45846920D01*
X33902412Y-46080269D01*
X34118645Y-46275178D01*
X34244255Y-46350000D01*
X34118645Y-46424822D01*
X33902412Y-46619731D01*
X33728359Y-46853080D01*
X33603175Y-47115901D01*
X33558524Y-47263110D01*
X33679845Y-47493000D01*
X34873000Y-47493000D01*
X34873000Y-45207000D01*
X35127000Y-45207000D01*
X35127000Y-47493000D01*
X37413000Y-47493000D01*
X37413000Y-45207000D01*
X35127000Y-45207000D01*
X34873000Y-45207000D01*
X33679845Y-45207000D01*
X33558524Y-45436890D01*
X33120230Y-45436890D01*
X33120230Y-42896890D01*
X33558524Y-42896890D01*
X33603175Y-43044099D01*
X33728359Y-43306920D01*
X33902412Y-43540269D01*
X34118645Y-43735178D01*
X34244255Y-43810000D01*
X34118645Y-43884822D01*
X33902412Y-44079731D01*
X33728359Y-44313080D01*
X33603175Y-44575901D01*
X33558524Y-44723110D01*
X33679845Y-44953000D01*
X34873000Y-44953000D01*
X34873000Y-42667000D01*
X35127000Y-42667000D01*
X35127000Y-44953000D01*
X37413000Y-44953000D01*
X37413000Y-42667000D01*
X35127000Y-42667000D01*
X34873000Y-42667000D01*
X33679845Y-42667000D01*
X33558524Y-42896890D01*
X33120230Y-42896890D01*
X33120230Y-41781348D01*
X33654451Y-41247127D01*
X33698815Y-41301185D01*
G37*
X33698815Y-41301185D02*
X33795506Y-41380537D01*
X33905820Y-41439502D01*
X33986466Y-41463966D01*
X33902412Y-41539731D01*
X33728359Y-41773080D01*
X33603175Y-42035901D01*
X33558524Y-42183110D01*
X33679845Y-42413000D01*
X34873000Y-42413000D01*
X34873000Y-42393000D01*
X35127000Y-42393000D01*
X35127000Y-42413000D01*
X37413000Y-42413000D01*
X37413000Y-42393000D01*
X37667000Y-42393000D01*
X37667000Y-42413000D01*
X37687000Y-42413000D01*
X37687000Y-42667000D01*
X37667000Y-42667000D01*
X37667000Y-44953000D01*
X37687000Y-44953000D01*
X37687000Y-45207000D01*
X37667000Y-45207000D01*
X37667000Y-47493000D01*
X37687000Y-47493000D01*
X37687000Y-47747000D01*
X37667000Y-47747000D01*
X37667000Y-47767000D01*
X37413000Y-47767000D01*
X37413000Y-47747000D01*
X35127000Y-47747000D01*
X35127000Y-47767000D01*
X34873000Y-47767000D01*
X34873000Y-47747000D01*
X33679845Y-47747000D01*
X33558524Y-47976890D01*
X33603175Y-48124099D01*
X33728359Y-48386920D01*
X33902412Y-48620269D01*
X34118645Y-48815178D01*
X34235534Y-48884805D01*
X34053368Y-49006525D01*
X33846525Y-49213368D01*
X33684010Y-49456589D01*
X33572068Y-49726842D01*
X33515000Y-50013740D01*
X33515000Y-50306260D01*
X33529461Y-50378960D01*
X33120230Y-50788192D01*
X33120230Y-45436890D01*
X33558524Y-45436890D01*
X33603175Y-45584099D01*
X33728359Y-45846920D01*
X33902412Y-46080269D01*
X34118645Y-46275178D01*
X34244255Y-46350000D01*
X34118645Y-46424822D01*
X33902412Y-46619731D01*
X33728359Y-46853080D01*
X33603175Y-47115901D01*
X33558524Y-47263110D01*
X33679845Y-47493000D01*
X34873000Y-47493000D01*
X34873000Y-45207000D01*
X35127000Y-45207000D01*
X35127000Y-47493000D01*
X37413000Y-47493000D01*
X37413000Y-45207000D01*
X35127000Y-45207000D01*
X34873000Y-45207000D01*
X33679845Y-45207000D01*
X33558524Y-45436890D01*
X33120230Y-45436890D01*
X33120230Y-42896890D01*
X33558524Y-42896890D01*
X33603175Y-43044099D01*
X33728359Y-43306920D01*
X33902412Y-43540269D01*
X34118645Y-43735178D01*
X34244255Y-43810000D01*
X34118645Y-43884822D01*
X33902412Y-44079731D01*
X33728359Y-44313080D01*
X33603175Y-44575901D01*
X33558524Y-44723110D01*
X33679845Y-44953000D01*
X34873000Y-44953000D01*
X34873000Y-42667000D01*
X35127000Y-42667000D01*
X35127000Y-44953000D01*
X37413000Y-44953000D01*
X37413000Y-42667000D01*
X35127000Y-42667000D01*
X34873000Y-42667000D01*
X33679845Y-42667000D01*
X33558524Y-42896890D01*
X33120230Y-42896890D01*
X33120230Y-41781348D01*
X33654451Y-41247127D01*
X33698815Y-41301185D01*
M02*
