M48
; DRILL file {KiCad (5.1.5)-3} date 8/9/2020 8:32:32 PM
; FORMAT={-:-/ absolute / metric / decimal}
; #@! TF.CreationDate,2020-08-09T20:32:32-07:00
; #@! TF.GenerationSoftware,Kicad,Pcbnew,(5.1.5)-3
FMAT,2
METRIC
T1C0.400
T2C0.900
T3C1.000
%
G90
G05
T1
X1.5Y-1.5
X1.5Y-3.0
X1.5Y-97.0
X1.5Y-98.5
X3.0Y-1.5
X3.0Y-98.5
X27.0Y-1.5
X27.0Y-98.5
X28.5Y-1.5
X28.5Y-3.0
X28.5Y-97.0
X28.5Y-98.5
X31.5Y-1.5
X31.5Y-3.0
X31.5Y-97.0
X31.5Y-98.5
X33.0Y-1.5
X33.0Y-98.5
X34.0Y-38.0
X40.005Y-50.8
X40.596Y-78.007
X40.908Y-33.717
X40.908Y-56.856
X41.275Y-19.364
X41.397Y-16.637
X41.656Y-48.514
X42.672Y-10.922
X44.654Y-28.48
X44.654Y-55.27
X45.72Y-6.096
X45.72Y-19.431
X45.974Y-15.24
X45.974Y-80.065
X46.0Y-34.0
X46.0Y-36.0
X46.0Y-49.0
X46.0Y-52.0
X46.0Y-58.0
X47.486Y-42.227
X47.486Y-59.927
X51.958Y-18.0
X52.0Y-13.0
X54.0Y-13.0
X65.024Y-26.035
X65.151Y-71.501
X65.151Y-85.36
X65.151Y-86.36
X66.167Y-71.501
X67.0Y-1.5
X67.0Y-98.5
X68.5Y-1.5
X68.5Y-3.0
X68.5Y-97.0
X68.5Y-98.5
X71.5Y-1.5
X71.5Y-3.0
X71.5Y-97.0
X71.5Y-98.5
X73.0Y-1.5
X73.0Y-98.5
X75.692Y-41.656
X76.2Y-91.694
X76.708Y-66.802
X97.0Y-1.5
X97.0Y-98.5
X98.5Y-1.5
X98.5Y-3.0
X98.5Y-97.0
X98.5Y-98.5
T2
X96.0Y-81.25
X98.54Y-81.25
X61.46Y-81.5
X64.0Y-81.5
X61.46Y-69.0
X64.0Y-69.0
X96.0Y-6.75
X98.54Y-6.75
X61.46Y-6.015
X64.0Y-6.015
X61.46Y-56.5
X64.0Y-56.5
X61.46Y-19.0
X64.0Y-19.0
X96.0Y-56.25
X98.54Y-56.25
X61.46Y-94.0
X64.0Y-94.0
X61.46Y-44.0
X64.0Y-44.0
X96.0Y-31.25
X98.54Y-31.25
X61.46Y-31.5
X64.0Y-31.5
T3
X72.0Y-34.75
X72.0Y-37.29
X72.0Y-39.83
X72.0Y-42.37
X72.0Y-44.91
X72.0Y-47.45
X72.0Y-49.99
X72.0Y-52.53
X72.0Y-55.07
X72.0Y-57.61
X72.0Y-60.15
X72.0Y-62.69
X54.0Y-40.0
X54.0Y-42.54
X54.0Y-45.08
X54.0Y-47.62
X54.0Y-50.16
X54.0Y-52.7
X54.0Y-55.24
X54.0Y-57.78
X56.54Y-40.0
X56.54Y-42.54
X56.54Y-45.08
X56.54Y-47.62
X56.54Y-50.16
X56.54Y-52.7
X56.54Y-55.24
X56.54Y-57.78
X68.0Y-60.0
X68.0Y-62.54
X68.0Y-65.08
X68.0Y-67.62
X68.0Y-70.16
X68.0Y-72.7
X68.0Y-75.24
X68.0Y-77.78
X28.0Y-15.0
X28.0Y-17.54
X28.0Y-20.08
X28.0Y-22.62
X28.0Y-25.16
X28.0Y-27.7
X28.0Y-30.24
X28.0Y-32.78
X68.0Y-15.0
X68.0Y-17.54
X68.0Y-20.08
X68.0Y-22.62
X68.0Y-25.16
X68.0Y-27.7
X68.0Y-30.24
X68.0Y-32.78
X28.0Y-60.0
X28.0Y-62.54
X28.0Y-65.08
X28.0Y-67.62
X28.0Y-70.16
X28.0Y-72.7
X28.0Y-75.24
X28.0Y-77.78
X32.0Y-35.0
X32.0Y-37.54
X32.0Y-40.08
X32.0Y-42.62
X32.0Y-45.16
X32.0Y-47.7
X32.0Y-50.24
X32.0Y-52.78
X32.0Y-55.32
X32.0Y-57.86
X32.0Y-60.4
X32.0Y-62.94
T1
G00X87.0Y-15.15
M15
G01X87.0Y-14.35
M16
G05
G00X90.6Y-23.95
M15
G01X89.8Y-23.95
M16
G05
G00X92.0Y-21.25
M15
G01X91.2Y-21.25
M16
G05
G00X95.0Y-14.25
M15
G01X94.2Y-14.25
M16
G05
G00X98.0Y-19.15
M15
G01X98.0Y-18.35
M16
G05
G00X87.0Y-40.15
M15
G01X87.0Y-39.35
M16
G05
G00X90.6Y-48.95
M15
G01X89.8Y-48.95
M16
G05
G00X92.0Y-46.25
M15
G01X91.2Y-46.25
M16
G05
G00X95.0Y-39.25
M15
G01X94.2Y-39.25
M16
G05
G00X98.0Y-44.15
M15
G01X98.0Y-43.35
M16
G05
G00X2.0Y-81.1
M15
G01X2.0Y-81.9
M16
G05
G00X5.0Y-86.0
M15
G01X5.8Y-86.0
M16
G05
G00X8.0Y-79.0
M15
G01X8.8Y-79.0
M16
G05
G00X9.4Y-76.3
M15
G01X10.2Y-76.3
M16
G05
G00X13.0Y-85.1
M15
G01X13.0Y-85.9
M16
G05
G00X2.0Y-18.6
M15
G01X2.0Y-19.4
M16
G05
G00X5.0Y-23.5
M15
G01X5.8Y-23.5
M16
G05
G00X8.0Y-16.5
M15
G01X8.8Y-16.5
M16
G05
G00X9.4Y-13.8
M15
G01X10.2Y-13.8
M16
G05
G00X13.0Y-22.6
M15
G01X13.0Y-23.4
M16
G05
G00X87.0Y-65.15
M15
G01X87.0Y-64.35
M16
G05
G00X90.6Y-73.95
M15
G01X89.8Y-73.95
M16
G05
G00X92.0Y-71.25
M15
G01X91.2Y-71.25
M16
G05
G00X95.0Y-64.25
M15
G01X94.2Y-64.25
M16
G05
G00X98.0Y-69.15
M15
G01X98.0Y-68.35
M16
G05
G00X87.0Y-90.15
M15
G01X87.0Y-89.35
M16
G05
G00X90.6Y-98.95
M15
G01X89.8Y-98.95
M16
G05
G00X92.0Y-96.25
M15
G01X91.2Y-96.25
M16
G05
G00X95.0Y-89.25
M15
G01X94.2Y-89.25
M16
G05
G00X98.0Y-94.15
M15
G01X98.0Y-93.35
M16
G05
G00X2.0Y-68.6
M15
G01X2.0Y-69.4
M16
G05
G00X5.0Y-73.5
M15
G01X5.8Y-73.5
M16
G05
G00X8.0Y-66.5
M15
G01X8.8Y-66.5
M16
G05
G00X9.4Y-63.8
M15
G01X10.2Y-63.8
M16
G05
G00X13.0Y-72.6
M15
G01X13.0Y-73.4
M16
G05
G00X2.0Y-31.1
M15
G01X2.0Y-31.9
M16
G05
G00X5.0Y-36.0
M15
G01X5.8Y-36.0
M16
G05
G00X8.0Y-29.0
M15
G01X8.8Y-29.0
M16
G05
G00X9.4Y-26.3
M15
G01X10.2Y-26.3
M16
G05
G00X13.0Y-35.1
M15
G01X13.0Y-35.9
M16
G05
G00X2.0Y-6.1
M15
G01X2.0Y-6.9
M16
G05
G00X5.0Y-11.0
M15
G01X5.8Y-11.0
M16
G05
G00X8.0Y-4.0
M15
G01X8.8Y-4.0
M16
G05
G00X9.4Y-1.3
M15
G01X10.2Y-1.3
M16
G05
G00X13.0Y-10.1
M15
G01X13.0Y-10.9
M16
G05
G00X2.0Y-93.6
M15
G01X2.0Y-94.4
M16
G05
G00X5.0Y-98.5
M15
G01X5.8Y-98.5
M16
G05
G00X8.0Y-91.5
M15
G01X8.8Y-91.5
M16
G05
G00X9.4Y-88.8
M15
G01X10.2Y-88.8
M16
G05
G00X13.0Y-97.6
M15
G01X13.0Y-98.4
M16
G05
G00X2.0Y-56.1
M15
G01X2.0Y-56.9
M16
G05
G00X5.0Y-61.0
M15
G01X5.8Y-61.0
M16
G05
G00X8.0Y-54.0
M15
G01X8.8Y-54.0
M16
G05
G00X9.4Y-51.3
M15
G01X10.2Y-51.3
M16
G05
G00X13.0Y-60.1
M15
G01X13.0Y-60.9
M16
G05
G00X2.0Y-43.6
M15
G01X2.0Y-44.4
M16
G05
G00X5.0Y-48.5
M15
G01X5.8Y-48.5
M16
G05
G00X8.0Y-41.5
M15
G01X8.8Y-41.5
M16
G05
G00X9.4Y-38.8
M15
G01X10.2Y-38.8
M16
G05
G00X13.0Y-47.6
M15
G01X13.0Y-48.4
M16
G05
T0
M30
