M48
; DRILL file {KiCad 9.0.0} date 2025-02-23T15:45:28-0700
; FORMAT={-:-/ absolute / inch / decimal}
; #@! TF.CreationDate,2025-02-23T15:45:28-07:00
; #@! TF.GenerationSoftware,Kicad,Pcbnew,9.0.0
; #@! TF.FileFunction,Plated,1,2,PTH
FMAT,2
INCH
; #@! TA.AperFunction,Plated,PTH,ViaDrill
T1C0.0157
; #@! TA.AperFunction,Plated,PTH,ComponentDrill
T2C0.0157
; #@! TA.AperFunction,Plated,PTH,ComponentDrill
T3C0.0300
; #@! TA.AperFunction,Plated,PTH,ComponentDrill
T4C0.0354
; #@! TA.AperFunction,Plated,PTH,ComponentDrill
T5C0.0394
; #@! TA.AperFunction,Plated,PTH,ComponentDrill
T6C0.0512
; #@! TA.AperFunction,Plated,PTH,ComponentDrill
T7C0.0906
%
G90
G05
T1
X0.045Y-4.2875
X0.0475Y-0.045
X0.74Y-0.05
X0.74Y-4.285
X0.846Y-0.05
X0.99Y-1.382
X1.046Y-4.272
X1.092Y-0.4
X1.162Y-1.534
X1.178Y-2.904
X1.236Y-2.336
X1.24Y-2.47
X1.244Y-1.266
X1.272Y-2.688
X1.342Y-2.572
X1.366Y-3.188
X1.372Y-2.902
X1.412Y-2.138
X1.464Y-0.964
X1.474Y-2.504
X1.476Y-0.402
X1.574Y-3.388
X1.662Y-2.512
X1.676Y-2.394
X1.684Y-2.052
X1.7Y-2.62
X1.708Y-1.18
X1.718Y-2.51
X1.73Y-2.706
X1.748Y-2.1125
X1.78Y-2.71
X1.782Y-2.042
X1.782Y-2.146
X1.792Y-2.378
X1.796Y-1.57
X1.808Y-3.58
X1.82Y-1.788
X1.84Y-2.492
X1.864Y-2.6
X1.864Y-3.228
X1.866Y-2.706
X1.866Y-2.972
X1.924Y-2.428
X2.004Y-2.416
X2.014Y-2.168
X2.0802Y-2.2958
X2.154Y-2.15
X2.198Y-0.132
X2.2Y-1.356
X2.302Y-0.05
X2.302Y-4.28
X2.415Y-0.05
X2.4237Y-4.28
X2.5337Y-2.025
X2.5337Y-2.29
X3.0987Y-2.08
X3.0987Y-4.285
X3.1037Y-2.27
X3.1037Y-3.745
X3.105Y-0.05
T3
X2.6846Y-2.9709
X2.6846Y-3.0709
X2.6846Y-3.1709
X2.7846Y-2.9709
X2.7846Y-3.0709
X2.7846Y-3.1709
X2.9846Y-3.1709
X2.9858Y-2.9709
T4
X2.9709Y-2.1654
X3.0709Y-2.1654
T5
X0.1378Y-1.1811
X0.1378Y-1.2795
X0.1378Y-1.378
X0.1378Y-1.9685
X0.1378Y-2.0669
X0.1378Y-2.1654
X0.1378Y-2.7559
X0.1378Y-2.8543
X0.1378Y-2.9528
X0.1378Y-3.5433
X0.1378Y-3.6417
X0.1378Y-3.7402
X0.7087Y-1.4567
X0.7087Y-1.5567
X0.7087Y-1.6567
X0.7087Y-1.7567
X0.7087Y-1.8567
X0.7087Y-1.9567
X0.7087Y-2.0567
X0.7087Y-2.1567
X0.7087Y-2.2567
X0.7087Y-2.3567
X0.7087Y-2.4567
X0.7087Y-2.5567
X0.8661Y-1.4567
X0.8661Y-1.5567
X0.8661Y-1.6567
X0.8661Y-1.7567
X0.8661Y-1.8567
X0.8661Y-1.9567
X0.8661Y-2.0567
X0.8661Y-2.1567
X0.8661Y-2.2567
X0.8661Y-2.3567
X0.8661Y-2.4567
X0.8661Y-2.5567
X0.8661Y-3.5433
X0.8661Y-3.6433
X0.8661Y-3.7433
X0.8661Y-3.8433
X0.8661Y-3.9433
X0.8661Y-4.0433
X0.8661Y-4.1433
X0.8661Y-4.2433
X0.9661Y-3.5433
X0.9661Y-3.6433
X0.9661Y-3.7433
X0.9661Y-3.8433
X0.9661Y-3.9433
X0.9661Y-4.0433
X0.9661Y-4.1433
X0.9661Y-4.2433
X2.2835Y-1.4567
X2.2835Y-1.5567
X2.2835Y-1.6567
X2.2835Y-1.7567
X2.2835Y-1.8567
X2.2835Y-1.9567
X2.2835Y-2.0567
X2.2835Y-2.1567
X2.2835Y-2.2567
X2.2835Y-2.3567
X2.2835Y-2.4567
X2.2835Y-2.5567
X2.4409Y-1.774
X2.4409Y-1.874
X2.4409Y-1.974
X2.4409Y-2.074
X2.4409Y-2.174
X2.4409Y-2.274
X2.4409Y-2.374
X2.4409Y-2.474
X2.4409Y-2.574
X2.4409Y-2.674
X2.4409Y-2.774
X2.4409Y-2.874
X3.0472Y-3.8484
X3.0472Y-4.0256
T6
X2.9488Y-3.7992
X2.9488Y-4.0748
T7
X0.2677Y-1.0827
X0.2677Y-1.4764
X0.2677Y-1.8701
X0.2677Y-2.2638
X0.2677Y-2.6575
X0.2677Y-3.0512
X0.2677Y-3.4449
X0.2677Y-3.8386
T2
G00X0.0787Y-0.378
M15
G01X0.0787Y-0.4094
M16
G05
G00X0.1969Y-0.5709
M15
G01X0.2283Y-0.5709
M16
G05
G00X0.315Y-0.2953
M15
G01X0.3465Y-0.2953
M16
G05
G00X0.3701Y-0.189
M15
G01X0.4016Y-0.189
M16
G05
G00X0.5118Y-0.5354
M15
G01X0.5118Y-0.5669
M16
G05
G00X2.6378Y-0.2126
M15
G01X2.6378Y-0.1811
M16
G05
G00X2.6378Y-0.9606
M15
G01X2.6378Y-0.9291
M16
G05
G00X2.7795Y-0.5591
M15
G01X2.748Y-0.5591
M16
G05
G00X2.7795Y-1.3071
M15
G01X2.748Y-1.3071
M16
G05
G00X2.8346Y-0.4528
M15
G01X2.8031Y-0.4528
M16
G05
G00X2.8346Y-1.2008
M15
G01X2.8031Y-1.2008
M16
G05
G00X2.9528Y-0.1772
M15
G01X2.9213Y-0.1772
M16
G05
G00X2.9528Y-0.9252
M15
G01X2.9213Y-0.9252
M16
G05
G00X3.0709Y-0.3701
M15
G01X3.0709Y-0.3386
M16
G05
G00X3.0709Y-1.1181
M15
G01X3.0709Y-1.0866
M16
G05
M30
