G04 #@! TF.GenerationSoftware,KiCad,Pcbnew,9.0.0*
G04 #@! TF.CreationDate,2025-02-23T15:30:45-07:00*
G04 #@! TF.ProjectId,NOR,4e4f522e-6b69-4636-9164-5f7063625858,rev?*
G04 #@! TF.SameCoordinates,Original*
G04 #@! TF.FileFunction,Soldermask,Bot*
G04 #@! TF.FilePolarity,Negative*
%FSLAX46Y46*%
G04 Gerber Fmt 4.6, Leading zero omitted, Abs format (unit mm)*
G04 Created by KiCad (PCBNEW 9.0.0) date 2025-02-23 15:30:45*
%MOMM*%
%LPD*%
G01*
G04 APERTURE LIST*
G04 APERTURE END LIST*
G36*
X91319517Y-98402882D02*
G01*
X91336062Y-98413938D01*
X91347118Y-98430483D01*
X91351000Y-98450000D01*
X91351000Y-99450000D01*
X91347118Y-99469517D01*
X91336062Y-99486062D01*
X91319517Y-99497118D01*
X91300000Y-99501000D01*
X89100000Y-99501000D01*
X89080483Y-99497118D01*
X89063938Y-99486062D01*
X89052882Y-99469517D01*
X89049000Y-99450000D01*
X89049000Y-98450000D01*
X89052882Y-98430483D01*
X89063938Y-98413938D01*
X89080483Y-98402882D01*
X89100000Y-98399000D01*
X91300000Y-98399000D01*
X91319517Y-98402882D01*
G37*
G36*
X13519517Y-96852882D02*
G01*
X13536062Y-96863938D01*
X13547118Y-96880483D01*
X13551000Y-96900000D01*
X13551000Y-99100000D01*
X13547118Y-99119517D01*
X13536062Y-99136062D01*
X13519517Y-99147118D01*
X13500000Y-99151000D01*
X12500000Y-99151000D01*
X12480483Y-99147118D01*
X12463938Y-99136062D01*
X12452882Y-99119517D01*
X12449000Y-99100000D01*
X12449000Y-96900000D01*
X12452882Y-96880483D01*
X12463938Y-96863938D01*
X12480483Y-96852882D01*
X12500000Y-96849000D01*
X13500000Y-96849000D01*
X13519517Y-96852882D01*
G37*
G36*
X6519517Y-97952882D02*
G01*
X6536062Y-97963938D01*
X6547118Y-97980483D01*
X6551000Y-98000000D01*
X6551000Y-99000000D01*
X6547118Y-99019517D01*
X6536062Y-99036062D01*
X6519517Y-99047118D01*
X6500000Y-99051000D01*
X4300000Y-99051000D01*
X4280483Y-99047118D01*
X4263938Y-99036062D01*
X4252882Y-99019517D01*
X4249000Y-99000000D01*
X4249000Y-98000000D01*
X4252882Y-97980483D01*
X4263938Y-97963938D01*
X4280483Y-97952882D01*
X4300000Y-97949000D01*
X6500000Y-97949000D01*
X6519517Y-97952882D01*
G37*
G36*
X92719517Y-95702882D02*
G01*
X92736062Y-95713938D01*
X92747118Y-95730483D01*
X92751000Y-95750000D01*
X92751000Y-96750000D01*
X92747118Y-96769517D01*
X92736062Y-96786062D01*
X92719517Y-96797118D01*
X92700000Y-96801000D01*
X90500000Y-96801000D01*
X90480483Y-96797118D01*
X90463938Y-96786062D01*
X90452882Y-96769517D01*
X90449000Y-96750000D01*
X90449000Y-95750000D01*
X90452882Y-95730483D01*
X90463938Y-95713938D01*
X90480483Y-95702882D01*
X90500000Y-95699000D01*
X92700000Y-95699000D01*
X92719517Y-95702882D01*
G37*
G36*
X2519517Y-92852882D02*
G01*
X2536062Y-92863938D01*
X2547118Y-92880483D01*
X2551000Y-92900000D01*
X2551000Y-95100000D01*
X2547118Y-95119517D01*
X2536062Y-95136062D01*
X2519517Y-95147118D01*
X2500000Y-95151000D01*
X1500000Y-95151000D01*
X1480483Y-95147118D01*
X1463938Y-95136062D01*
X1452882Y-95119517D01*
X1449000Y-95100000D01*
X1449000Y-92900000D01*
X1452882Y-92880483D01*
X1463938Y-92863938D01*
X1480483Y-92852882D01*
X1500000Y-92849000D01*
X2500000Y-92849000D01*
X2519517Y-92852882D01*
G37*
G36*
X64919517Y-93052882D02*
G01*
X64936062Y-93063938D01*
X64947118Y-93080483D01*
X64951000Y-93100000D01*
X64951000Y-94900000D01*
X64947118Y-94919517D01*
X64936062Y-94936062D01*
X64919517Y-94947118D01*
X64900000Y-94951000D01*
X63100000Y-94951000D01*
X63080483Y-94947118D01*
X63063938Y-94936062D01*
X63052882Y-94919517D01*
X63049000Y-94900000D01*
X63049000Y-93100000D01*
X63052882Y-93080483D01*
X63063938Y-93063938D01*
X63080483Y-93052882D01*
X63100000Y-93049000D01*
X64900000Y-93049000D01*
X64919517Y-93052882D01*
G37*
G36*
X61542553Y-93053579D02*
G01*
X61553214Y-93053579D01*
X61594865Y-93061864D01*
X61681916Y-93075651D01*
X61709918Y-93084749D01*
X61736061Y-93089950D01*
X61772956Y-93105232D01*
X61823784Y-93121748D01*
X61871399Y-93146009D01*
X61908298Y-93161293D01*
X61930463Y-93176103D01*
X61956693Y-93189468D01*
X62027990Y-93241268D01*
X62063308Y-93264867D01*
X62070846Y-93272405D01*
X62077370Y-93277145D01*
X62182854Y-93382629D01*
X62187593Y-93389152D01*
X62195133Y-93396692D01*
X62218734Y-93432014D01*
X62270531Y-93503306D01*
X62283894Y-93529533D01*
X62298707Y-93551702D01*
X62313993Y-93588605D01*
X62338251Y-93636215D01*
X62354764Y-93687035D01*
X62370050Y-93723939D01*
X62375251Y-93750086D01*
X62384348Y-93778083D01*
X62398134Y-93865125D01*
X62406421Y-93906786D01*
X62406421Y-93917447D01*
X62407683Y-93925415D01*
X62407683Y-94074584D01*
X62406421Y-94082551D01*
X62406421Y-94093214D01*
X62398133Y-94134877D01*
X62384348Y-94221916D01*
X62375251Y-94249910D01*
X62370050Y-94276061D01*
X62354762Y-94312968D01*
X62338251Y-94363784D01*
X62313995Y-94411388D01*
X62298707Y-94448298D01*
X62283892Y-94470470D01*
X62270531Y-94496693D01*
X62218742Y-94567973D01*
X62195133Y-94603308D01*
X62187591Y-94610849D01*
X62182854Y-94617370D01*
X62077370Y-94722854D01*
X62070849Y-94727591D01*
X62063308Y-94735133D01*
X62027973Y-94758742D01*
X61956693Y-94810531D01*
X61930470Y-94823892D01*
X61908298Y-94838707D01*
X61871388Y-94853995D01*
X61823784Y-94878251D01*
X61772968Y-94894762D01*
X61736061Y-94910050D01*
X61709910Y-94915251D01*
X61681916Y-94924348D01*
X61594875Y-94938133D01*
X61553214Y-94946421D01*
X61542553Y-94946421D01*
X61534585Y-94947683D01*
X61385415Y-94947683D01*
X61377447Y-94946421D01*
X61366786Y-94946421D01*
X61325125Y-94938134D01*
X61238083Y-94924348D01*
X61210086Y-94915251D01*
X61183939Y-94910050D01*
X61147035Y-94894764D01*
X61096215Y-94878251D01*
X61048605Y-94853993D01*
X61011702Y-94838707D01*
X60989533Y-94823894D01*
X60963306Y-94810531D01*
X60892014Y-94758734D01*
X60856692Y-94735133D01*
X60849152Y-94727593D01*
X60842629Y-94722854D01*
X60737145Y-94617370D01*
X60732405Y-94610846D01*
X60724867Y-94603308D01*
X60701268Y-94567990D01*
X60649468Y-94496693D01*
X60636103Y-94470463D01*
X60621293Y-94448298D01*
X60606009Y-94411399D01*
X60581748Y-94363784D01*
X60565232Y-94312956D01*
X60549950Y-94276061D01*
X60544749Y-94249918D01*
X60535651Y-94221916D01*
X60521864Y-94134867D01*
X60513579Y-94093214D01*
X60513579Y-94082552D01*
X60512317Y-94074584D01*
X60512317Y-93925415D01*
X60513579Y-93917446D01*
X60513579Y-93906786D01*
X60521863Y-93865136D01*
X60535651Y-93778083D01*
X60544750Y-93750078D01*
X60549950Y-93723939D01*
X60565231Y-93687046D01*
X60581748Y-93636215D01*
X60606011Y-93588595D01*
X60621293Y-93551702D01*
X60636101Y-93529539D01*
X60649468Y-93503306D01*
X60701277Y-93431996D01*
X60724867Y-93396692D01*
X60732402Y-93389156D01*
X60737145Y-93382629D01*
X60842629Y-93277145D01*
X60849156Y-93272402D01*
X60856692Y-93264867D01*
X60891996Y-93241277D01*
X60963306Y-93189468D01*
X60989539Y-93176101D01*
X61011702Y-93161293D01*
X61048595Y-93146011D01*
X61096215Y-93121748D01*
X61147046Y-93105231D01*
X61183939Y-93089950D01*
X61210078Y-93084750D01*
X61238083Y-93075651D01*
X61325136Y-93061863D01*
X61366786Y-93053579D01*
X61377447Y-93053579D01*
X61385415Y-93052317D01*
X61534585Y-93052317D01*
X61542553Y-93053579D01*
G37*
G36*
X98519517Y-92602882D02*
G01*
X98536062Y-92613938D01*
X98547118Y-92630483D01*
X98551000Y-92650000D01*
X98551000Y-94850000D01*
X98547118Y-94869517D01*
X98536062Y-94886062D01*
X98519517Y-94897118D01*
X98500000Y-94901000D01*
X97500000Y-94901000D01*
X97480483Y-94897118D01*
X97463938Y-94886062D01*
X97452882Y-94869517D01*
X97449000Y-94850000D01*
X97449000Y-92650000D01*
X97452882Y-92630483D01*
X97463938Y-92613938D01*
X97480483Y-92602882D01*
X97500000Y-92599000D01*
X98500000Y-92599000D01*
X98519517Y-92602882D01*
G37*
G36*
X9519517Y-90952882D02*
G01*
X9536062Y-90963938D01*
X9547118Y-90980483D01*
X9551000Y-91000000D01*
X9551000Y-92000000D01*
X9547118Y-92019517D01*
X9536062Y-92036062D01*
X9519517Y-92047118D01*
X9500000Y-92051000D01*
X7300000Y-92051000D01*
X7280483Y-92047118D01*
X7263938Y-92036062D01*
X7252882Y-92019517D01*
X7249000Y-92000000D01*
X7249000Y-91000000D01*
X7252882Y-90980483D01*
X7263938Y-90963938D01*
X7280483Y-90952882D01*
X7300000Y-90949000D01*
X9500000Y-90949000D01*
X9519517Y-90952882D01*
G37*
G36*
X87519517Y-88602882D02*
G01*
X87536062Y-88613938D01*
X87547118Y-88630483D01*
X87551000Y-88650000D01*
X87551000Y-90850000D01*
X87547118Y-90869517D01*
X87536062Y-90886062D01*
X87519517Y-90897118D01*
X87500000Y-90901000D01*
X86500000Y-90901000D01*
X86480483Y-90897118D01*
X86463938Y-90886062D01*
X86452882Y-90869517D01*
X86449000Y-90850000D01*
X86449000Y-88650000D01*
X86452882Y-88630483D01*
X86463938Y-88613938D01*
X86480483Y-88602882D01*
X86500000Y-88599000D01*
X87500000Y-88599000D01*
X87519517Y-88602882D01*
G37*
G36*
X95719517Y-88702882D02*
G01*
X95736062Y-88713938D01*
X95747118Y-88730483D01*
X95751000Y-88750000D01*
X95751000Y-89750000D01*
X95747118Y-89769517D01*
X95736062Y-89786062D01*
X95719517Y-89797118D01*
X95700000Y-89801000D01*
X93500000Y-89801000D01*
X93480483Y-89797118D01*
X93463938Y-89786062D01*
X93452882Y-89769517D01*
X93449000Y-89750000D01*
X93449000Y-88750000D01*
X93452882Y-88730483D01*
X93463938Y-88713938D01*
X93480483Y-88702882D01*
X93500000Y-88699000D01*
X95700000Y-88699000D01*
X95719517Y-88702882D01*
G37*
G36*
X10919517Y-88252882D02*
G01*
X10936062Y-88263938D01*
X10947118Y-88280483D01*
X10951000Y-88300000D01*
X10951000Y-89300000D01*
X10947118Y-89319517D01*
X10936062Y-89336062D01*
X10919517Y-89347118D01*
X10900000Y-89351000D01*
X8700000Y-89351000D01*
X8680483Y-89347118D01*
X8663938Y-89336062D01*
X8652882Y-89319517D01*
X8649000Y-89300000D01*
X8649000Y-88300000D01*
X8652882Y-88280483D01*
X8663938Y-88263938D01*
X8680483Y-88252882D01*
X8700000Y-88249000D01*
X10900000Y-88249000D01*
X10919517Y-88252882D01*
G37*
G36*
X13519517Y-84352882D02*
G01*
X13536062Y-84363938D01*
X13547118Y-84380483D01*
X13551000Y-84400000D01*
X13551000Y-86600000D01*
X13547118Y-86619517D01*
X13536062Y-86636062D01*
X13519517Y-86647118D01*
X13500000Y-86651000D01*
X12500000Y-86651000D01*
X12480483Y-86647118D01*
X12463938Y-86636062D01*
X12452882Y-86619517D01*
X12449000Y-86600000D01*
X12449000Y-84400000D01*
X12452882Y-84380483D01*
X12463938Y-84363938D01*
X12480483Y-84352882D01*
X12500000Y-84349000D01*
X13500000Y-84349000D01*
X13519517Y-84352882D01*
G37*
G36*
X6519517Y-85452882D02*
G01*
X6536062Y-85463938D01*
X6547118Y-85480483D01*
X6551000Y-85500000D01*
X6551000Y-86500000D01*
X6547118Y-86519517D01*
X6536062Y-86536062D01*
X6519517Y-86547118D01*
X6500000Y-86551000D01*
X4300000Y-86551000D01*
X4280483Y-86547118D01*
X4263938Y-86536062D01*
X4252882Y-86519517D01*
X4249000Y-86500000D01*
X4249000Y-85500000D01*
X4252882Y-85480483D01*
X4263938Y-85463938D01*
X4280483Y-85452882D01*
X4300000Y-85449000D01*
X6500000Y-85449000D01*
X6519517Y-85452882D01*
G37*
G36*
X2519517Y-80352882D02*
G01*
X2536062Y-80363938D01*
X2547118Y-80380483D01*
X2551000Y-80400000D01*
X2551000Y-82600000D01*
X2547118Y-82619517D01*
X2536062Y-82636062D01*
X2519517Y-82647118D01*
X2500000Y-82651000D01*
X1500000Y-82651000D01*
X1480483Y-82647118D01*
X1463938Y-82636062D01*
X1452882Y-82619517D01*
X1449000Y-82600000D01*
X1449000Y-80400000D01*
X1452882Y-80380483D01*
X1463938Y-80363938D01*
X1480483Y-80352882D01*
X1500000Y-80349000D01*
X2500000Y-80349000D01*
X2519517Y-80352882D01*
G37*
G36*
X64919517Y-80552882D02*
G01*
X64936062Y-80563938D01*
X64947118Y-80580483D01*
X64951000Y-80600000D01*
X64951000Y-82400000D01*
X64947118Y-82419517D01*
X64936062Y-82436062D01*
X64919517Y-82447118D01*
X64900000Y-82451000D01*
X63100000Y-82451000D01*
X63080483Y-82447118D01*
X63063938Y-82436062D01*
X63052882Y-82419517D01*
X63049000Y-82400000D01*
X63049000Y-80600000D01*
X63052882Y-80580483D01*
X63063938Y-80563938D01*
X63080483Y-80552882D01*
X63100000Y-80549000D01*
X64900000Y-80549000D01*
X64919517Y-80552882D01*
G37*
G36*
X61542553Y-80553579D02*
G01*
X61553214Y-80553579D01*
X61594865Y-80561864D01*
X61681916Y-80575651D01*
X61709918Y-80584749D01*
X61736061Y-80589950D01*
X61772956Y-80605232D01*
X61823784Y-80621748D01*
X61871399Y-80646009D01*
X61908298Y-80661293D01*
X61930463Y-80676103D01*
X61956693Y-80689468D01*
X62027990Y-80741268D01*
X62063308Y-80764867D01*
X62070846Y-80772405D01*
X62077370Y-80777145D01*
X62182854Y-80882629D01*
X62187593Y-80889152D01*
X62195133Y-80896692D01*
X62218734Y-80932014D01*
X62270531Y-81003306D01*
X62283894Y-81029533D01*
X62298707Y-81051702D01*
X62313993Y-81088605D01*
X62338251Y-81136215D01*
X62354764Y-81187035D01*
X62370050Y-81223939D01*
X62375251Y-81250086D01*
X62384348Y-81278083D01*
X62398134Y-81365125D01*
X62406421Y-81406786D01*
X62406421Y-81417447D01*
X62407683Y-81425415D01*
X62407683Y-81574584D01*
X62406421Y-81582551D01*
X62406421Y-81593214D01*
X62398133Y-81634877D01*
X62384348Y-81721916D01*
X62375251Y-81749910D01*
X62370050Y-81776061D01*
X62354762Y-81812968D01*
X62338251Y-81863784D01*
X62313995Y-81911388D01*
X62298707Y-81948298D01*
X62283892Y-81970470D01*
X62270531Y-81996693D01*
X62218742Y-82067973D01*
X62195133Y-82103308D01*
X62187591Y-82110849D01*
X62182854Y-82117370D01*
X62077370Y-82222854D01*
X62070849Y-82227591D01*
X62063308Y-82235133D01*
X62027973Y-82258742D01*
X61956693Y-82310531D01*
X61930470Y-82323892D01*
X61908298Y-82338707D01*
X61871388Y-82353995D01*
X61823784Y-82378251D01*
X61772968Y-82394762D01*
X61736061Y-82410050D01*
X61709910Y-82415251D01*
X61681916Y-82424348D01*
X61594875Y-82438133D01*
X61553214Y-82446421D01*
X61542553Y-82446421D01*
X61534585Y-82447683D01*
X61385415Y-82447683D01*
X61377447Y-82446421D01*
X61366786Y-82446421D01*
X61325125Y-82438134D01*
X61238083Y-82424348D01*
X61210086Y-82415251D01*
X61183939Y-82410050D01*
X61147035Y-82394764D01*
X61096215Y-82378251D01*
X61048605Y-82353993D01*
X61011702Y-82338707D01*
X60989533Y-82323894D01*
X60963306Y-82310531D01*
X60892014Y-82258734D01*
X60856692Y-82235133D01*
X60849152Y-82227593D01*
X60842629Y-82222854D01*
X60737145Y-82117370D01*
X60732405Y-82110846D01*
X60724867Y-82103308D01*
X60701268Y-82067990D01*
X60649468Y-81996693D01*
X60636103Y-81970463D01*
X60621293Y-81948298D01*
X60606009Y-81911399D01*
X60581748Y-81863784D01*
X60565232Y-81812956D01*
X60549950Y-81776061D01*
X60544749Y-81749918D01*
X60535651Y-81721916D01*
X60521864Y-81634867D01*
X60513579Y-81593214D01*
X60513579Y-81582552D01*
X60512317Y-81574584D01*
X60512317Y-81425415D01*
X60513579Y-81417446D01*
X60513579Y-81406786D01*
X60521863Y-81365136D01*
X60535651Y-81278083D01*
X60544750Y-81250078D01*
X60549950Y-81223939D01*
X60565231Y-81187046D01*
X60581748Y-81136215D01*
X60606011Y-81088595D01*
X60621293Y-81051702D01*
X60636101Y-81029539D01*
X60649468Y-81003306D01*
X60701277Y-80931996D01*
X60724867Y-80896692D01*
X60732402Y-80889156D01*
X60737145Y-80882629D01*
X60842629Y-80777145D01*
X60849156Y-80772402D01*
X60856692Y-80764867D01*
X60891996Y-80741277D01*
X60963306Y-80689468D01*
X60989539Y-80676101D01*
X61011702Y-80661293D01*
X61048595Y-80646011D01*
X61096215Y-80621748D01*
X61147046Y-80605231D01*
X61183939Y-80589950D01*
X61210078Y-80584750D01*
X61238083Y-80575651D01*
X61325136Y-80561863D01*
X61366786Y-80553579D01*
X61377447Y-80553579D01*
X61385415Y-80552317D01*
X61534585Y-80552317D01*
X61542553Y-80553579D01*
G37*
G36*
X96919517Y-80302882D02*
G01*
X96936062Y-80313938D01*
X96947118Y-80330483D01*
X96951000Y-80350000D01*
X96951000Y-82150000D01*
X96947118Y-82169517D01*
X96936062Y-82186062D01*
X96919517Y-82197118D01*
X96900000Y-82201000D01*
X95100000Y-82201000D01*
X95080483Y-82197118D01*
X95063938Y-82186062D01*
X95052882Y-82169517D01*
X95049000Y-82150000D01*
X95049000Y-80350000D01*
X95052882Y-80330483D01*
X95063938Y-80313938D01*
X95080483Y-80302882D01*
X95100000Y-80299000D01*
X96900000Y-80299000D01*
X96919517Y-80302882D01*
G37*
G36*
X98622553Y-80303579D02*
G01*
X98633214Y-80303579D01*
X98674865Y-80311864D01*
X98761916Y-80325651D01*
X98789918Y-80334749D01*
X98816061Y-80339950D01*
X98852956Y-80355232D01*
X98903784Y-80371748D01*
X98951399Y-80396009D01*
X98988298Y-80411293D01*
X99010463Y-80426103D01*
X99036693Y-80439468D01*
X99107990Y-80491268D01*
X99143308Y-80514867D01*
X99150846Y-80522405D01*
X99157370Y-80527145D01*
X99262854Y-80632629D01*
X99267593Y-80639152D01*
X99275133Y-80646692D01*
X99298734Y-80682014D01*
X99350531Y-80753306D01*
X99363894Y-80779533D01*
X99378707Y-80801702D01*
X99393993Y-80838605D01*
X99418251Y-80886215D01*
X99434764Y-80937035D01*
X99450050Y-80973939D01*
X99455251Y-81000086D01*
X99464348Y-81028083D01*
X99478134Y-81115125D01*
X99486421Y-81156786D01*
X99486421Y-81167447D01*
X99487683Y-81175415D01*
X99487683Y-81324584D01*
X99486421Y-81332551D01*
X99486421Y-81343214D01*
X99478133Y-81384877D01*
X99464348Y-81471916D01*
X99455251Y-81499910D01*
X99450050Y-81526061D01*
X99434762Y-81562968D01*
X99418251Y-81613784D01*
X99393995Y-81661388D01*
X99378707Y-81698298D01*
X99363892Y-81720470D01*
X99350531Y-81746693D01*
X99298742Y-81817973D01*
X99275133Y-81853308D01*
X99267591Y-81860849D01*
X99262854Y-81867370D01*
X99157370Y-81972854D01*
X99150849Y-81977591D01*
X99143308Y-81985133D01*
X99107973Y-82008742D01*
X99036693Y-82060531D01*
X99010470Y-82073892D01*
X98988298Y-82088707D01*
X98951388Y-82103995D01*
X98903784Y-82128251D01*
X98852968Y-82144762D01*
X98816061Y-82160050D01*
X98789910Y-82165251D01*
X98761916Y-82174348D01*
X98674875Y-82188133D01*
X98633214Y-82196421D01*
X98622553Y-82196421D01*
X98614585Y-82197683D01*
X98465415Y-82197683D01*
X98457447Y-82196421D01*
X98446786Y-82196421D01*
X98405125Y-82188134D01*
X98318083Y-82174348D01*
X98290086Y-82165251D01*
X98263939Y-82160050D01*
X98227035Y-82144764D01*
X98176215Y-82128251D01*
X98128605Y-82103993D01*
X98091702Y-82088707D01*
X98069533Y-82073894D01*
X98043306Y-82060531D01*
X97972014Y-82008734D01*
X97936692Y-81985133D01*
X97929152Y-81977593D01*
X97922629Y-81972854D01*
X97817145Y-81867370D01*
X97812405Y-81860846D01*
X97804867Y-81853308D01*
X97781268Y-81817990D01*
X97729468Y-81746693D01*
X97716103Y-81720463D01*
X97701293Y-81698298D01*
X97686009Y-81661399D01*
X97661748Y-81613784D01*
X97645232Y-81562956D01*
X97629950Y-81526061D01*
X97624749Y-81499918D01*
X97615651Y-81471916D01*
X97601864Y-81384867D01*
X97593579Y-81343214D01*
X97593579Y-81332552D01*
X97592317Y-81324584D01*
X97592317Y-81175415D01*
X97593579Y-81167446D01*
X97593579Y-81156786D01*
X97601863Y-81115136D01*
X97615651Y-81028083D01*
X97624750Y-81000078D01*
X97629950Y-80973939D01*
X97645231Y-80937046D01*
X97661748Y-80886215D01*
X97686011Y-80838595D01*
X97701293Y-80801702D01*
X97716101Y-80779539D01*
X97729468Y-80753306D01*
X97781277Y-80681996D01*
X97804867Y-80646692D01*
X97812402Y-80639156D01*
X97817145Y-80632629D01*
X97922629Y-80527145D01*
X97929156Y-80522402D01*
X97936692Y-80514867D01*
X97971996Y-80491277D01*
X98043306Y-80439468D01*
X98069539Y-80426101D01*
X98091702Y-80411293D01*
X98128595Y-80396011D01*
X98176215Y-80371748D01*
X98227046Y-80355231D01*
X98263939Y-80339950D01*
X98290078Y-80334750D01*
X98318083Y-80325651D01*
X98405136Y-80311863D01*
X98446786Y-80303579D01*
X98457447Y-80303579D01*
X98465415Y-80302317D01*
X98614585Y-80302317D01*
X98622553Y-80303579D01*
G37*
G36*
X9519517Y-78452882D02*
G01*
X9536062Y-78463938D01*
X9547118Y-78480483D01*
X9551000Y-78500000D01*
X9551000Y-79500000D01*
X9547118Y-79519517D01*
X9536062Y-79536062D01*
X9519517Y-79547118D01*
X9500000Y-79551000D01*
X7300000Y-79551000D01*
X7280483Y-79547118D01*
X7263938Y-79536062D01*
X7252882Y-79519517D01*
X7249000Y-79500000D01*
X7249000Y-78500000D01*
X7252882Y-78480483D01*
X7263938Y-78463938D01*
X7280483Y-78452882D01*
X7300000Y-78449000D01*
X9500000Y-78449000D01*
X9519517Y-78452882D01*
G37*
G36*
X28261546Y-76917797D02*
G01*
X28424728Y-76985389D01*
X28571588Y-77083518D01*
X28696482Y-77208412D01*
X28794611Y-77355272D01*
X28862203Y-77518454D01*
X28896661Y-77691687D01*
X28896661Y-77868313D01*
X28862203Y-78041546D01*
X28794611Y-78204728D01*
X28696482Y-78351588D01*
X28571588Y-78476482D01*
X28424728Y-78574611D01*
X28261546Y-78642203D01*
X28088313Y-78676661D01*
X27911687Y-78676661D01*
X27738454Y-78642203D01*
X27575272Y-78574611D01*
X27428412Y-78476482D01*
X27303518Y-78351588D01*
X27205389Y-78204728D01*
X27137797Y-78041546D01*
X27103339Y-77868313D01*
X27103339Y-77691687D01*
X27137797Y-77518454D01*
X27205389Y-77355272D01*
X27303518Y-77208412D01*
X27428412Y-77083518D01*
X27575272Y-76985389D01*
X27738454Y-76917797D01*
X27911687Y-76883339D01*
X28088313Y-76883339D01*
X28261546Y-76917797D01*
G37*
G36*
X68261546Y-76917797D02*
G01*
X68424728Y-76985389D01*
X68571588Y-77083518D01*
X68696482Y-77208412D01*
X68794611Y-77355272D01*
X68862203Y-77518454D01*
X68896661Y-77691687D01*
X68896661Y-77868313D01*
X68862203Y-78041546D01*
X68794611Y-78204728D01*
X68696482Y-78351588D01*
X68571588Y-78476482D01*
X68424728Y-78574611D01*
X68261546Y-78642203D01*
X68088313Y-78676661D01*
X67911687Y-78676661D01*
X67738454Y-78642203D01*
X67575272Y-78574611D01*
X67428412Y-78476482D01*
X67303518Y-78351588D01*
X67205389Y-78204728D01*
X67137797Y-78041546D01*
X67103339Y-77868313D01*
X67103339Y-77691687D01*
X67137797Y-77518454D01*
X67205389Y-77355272D01*
X67303518Y-77208412D01*
X67428412Y-77083518D01*
X67575272Y-76985389D01*
X67738454Y-76917797D01*
X67911687Y-76883339D01*
X68088313Y-76883339D01*
X68261546Y-76917797D01*
G37*
G36*
X10919517Y-75752882D02*
G01*
X10936062Y-75763938D01*
X10947118Y-75780483D01*
X10951000Y-75800000D01*
X10951000Y-76800000D01*
X10947118Y-76819517D01*
X10936062Y-76836062D01*
X10919517Y-76847118D01*
X10900000Y-76851000D01*
X8700000Y-76851000D01*
X8680483Y-76847118D01*
X8663938Y-76836062D01*
X8652882Y-76819517D01*
X8649000Y-76800000D01*
X8649000Y-75800000D01*
X8652882Y-75780483D01*
X8663938Y-75763938D01*
X8680483Y-75752882D01*
X8700000Y-75749000D01*
X10900000Y-75749000D01*
X10919517Y-75752882D01*
G37*
G36*
X28261546Y-74377797D02*
G01*
X28424728Y-74445389D01*
X28571588Y-74543518D01*
X28696482Y-74668412D01*
X28794611Y-74815272D01*
X28862203Y-74978454D01*
X28896661Y-75151687D01*
X28896661Y-75328313D01*
X28862203Y-75501546D01*
X28794611Y-75664728D01*
X28696482Y-75811588D01*
X28571588Y-75936482D01*
X28424728Y-76034611D01*
X28261546Y-76102203D01*
X28088313Y-76136661D01*
X27911687Y-76136661D01*
X27738454Y-76102203D01*
X27575272Y-76034611D01*
X27428412Y-75936482D01*
X27303518Y-75811588D01*
X27205389Y-75664728D01*
X27137797Y-75501546D01*
X27103339Y-75328313D01*
X27103339Y-75151687D01*
X27137797Y-74978454D01*
X27205389Y-74815272D01*
X27303518Y-74668412D01*
X27428412Y-74543518D01*
X27575272Y-74445389D01*
X27738454Y-74377797D01*
X27911687Y-74343339D01*
X28088313Y-74343339D01*
X28261546Y-74377797D01*
G37*
G36*
X68261546Y-74377797D02*
G01*
X68424728Y-74445389D01*
X68571588Y-74543518D01*
X68696482Y-74668412D01*
X68794611Y-74815272D01*
X68862203Y-74978454D01*
X68896661Y-75151687D01*
X68896661Y-75328313D01*
X68862203Y-75501546D01*
X68794611Y-75664728D01*
X68696482Y-75811588D01*
X68571588Y-75936482D01*
X68424728Y-76034611D01*
X68261546Y-76102203D01*
X68088313Y-76136661D01*
X67911687Y-76136661D01*
X67738454Y-76102203D01*
X67575272Y-76034611D01*
X67428412Y-75936482D01*
X67303518Y-75811588D01*
X67205389Y-75664728D01*
X67137797Y-75501546D01*
X67103339Y-75328313D01*
X67103339Y-75151687D01*
X67137797Y-74978454D01*
X67205389Y-74815272D01*
X67303518Y-74668412D01*
X67428412Y-74543518D01*
X67575272Y-74445389D01*
X67738454Y-74377797D01*
X67911687Y-74343339D01*
X68088313Y-74343339D01*
X68261546Y-74377797D01*
G37*
G36*
X91319517Y-73402882D02*
G01*
X91336062Y-73413938D01*
X91347118Y-73430483D01*
X91351000Y-73450000D01*
X91351000Y-74450000D01*
X91347118Y-74469517D01*
X91336062Y-74486062D01*
X91319517Y-74497118D01*
X91300000Y-74501000D01*
X89100000Y-74501000D01*
X89080483Y-74497118D01*
X89063938Y-74486062D01*
X89052882Y-74469517D01*
X89049000Y-74450000D01*
X89049000Y-73450000D01*
X89052882Y-73430483D01*
X89063938Y-73413938D01*
X89080483Y-73402882D01*
X89100000Y-73399000D01*
X91300000Y-73399000D01*
X91319517Y-73402882D01*
G37*
G36*
X13519517Y-71852882D02*
G01*
X13536062Y-71863938D01*
X13547118Y-71880483D01*
X13551000Y-71900000D01*
X13551000Y-74100000D01*
X13547118Y-74119517D01*
X13536062Y-74136062D01*
X13519517Y-74147118D01*
X13500000Y-74151000D01*
X12500000Y-74151000D01*
X12480483Y-74147118D01*
X12463938Y-74136062D01*
X12452882Y-74119517D01*
X12449000Y-74100000D01*
X12449000Y-71900000D01*
X12452882Y-71880483D01*
X12463938Y-71863938D01*
X12480483Y-71852882D01*
X12500000Y-71849000D01*
X13500000Y-71849000D01*
X13519517Y-71852882D01*
G37*
G36*
X6519517Y-72952882D02*
G01*
X6536062Y-72963938D01*
X6547118Y-72980483D01*
X6551000Y-73000000D01*
X6551000Y-74000000D01*
X6547118Y-74019517D01*
X6536062Y-74036062D01*
X6519517Y-74047118D01*
X6500000Y-74051000D01*
X4300000Y-74051000D01*
X4280483Y-74047118D01*
X4263938Y-74036062D01*
X4252882Y-74019517D01*
X4249000Y-74000000D01*
X4249000Y-73000000D01*
X4252882Y-72980483D01*
X4263938Y-72963938D01*
X4280483Y-72952882D01*
X4300000Y-72949000D01*
X6500000Y-72949000D01*
X6519517Y-72952882D01*
G37*
G36*
X28261546Y-71837797D02*
G01*
X28424728Y-71905389D01*
X28571588Y-72003518D01*
X28696482Y-72128412D01*
X28794611Y-72275272D01*
X28862203Y-72438454D01*
X28896661Y-72611687D01*
X28896661Y-72788313D01*
X28862203Y-72961546D01*
X28794611Y-73124728D01*
X28696482Y-73271588D01*
X28571588Y-73396482D01*
X28424728Y-73494611D01*
X28261546Y-73562203D01*
X28088313Y-73596661D01*
X27911687Y-73596661D01*
X27738454Y-73562203D01*
X27575272Y-73494611D01*
X27428412Y-73396482D01*
X27303518Y-73271588D01*
X27205389Y-73124728D01*
X27137797Y-72961546D01*
X27103339Y-72788313D01*
X27103339Y-72611687D01*
X27137797Y-72438454D01*
X27205389Y-72275272D01*
X27303518Y-72128412D01*
X27428412Y-72003518D01*
X27575272Y-71905389D01*
X27738454Y-71837797D01*
X27911687Y-71803339D01*
X28088313Y-71803339D01*
X28261546Y-71837797D01*
G37*
G36*
X68261546Y-71837797D02*
G01*
X68424728Y-71905389D01*
X68571588Y-72003518D01*
X68696482Y-72128412D01*
X68794611Y-72275272D01*
X68862203Y-72438454D01*
X68896661Y-72611687D01*
X68896661Y-72788313D01*
X68862203Y-72961546D01*
X68794611Y-73124728D01*
X68696482Y-73271588D01*
X68571588Y-73396482D01*
X68424728Y-73494611D01*
X68261546Y-73562203D01*
X68088313Y-73596661D01*
X67911687Y-73596661D01*
X67738454Y-73562203D01*
X67575272Y-73494611D01*
X67428412Y-73396482D01*
X67303518Y-73271588D01*
X67205389Y-73124728D01*
X67137797Y-72961546D01*
X67103339Y-72788313D01*
X67103339Y-72611687D01*
X67137797Y-72438454D01*
X67205389Y-72275272D01*
X67303518Y-72128412D01*
X67428412Y-72003518D01*
X67575272Y-71905389D01*
X67738454Y-71837797D01*
X67911687Y-71803339D01*
X68088313Y-71803339D01*
X68261546Y-71837797D01*
G37*
G36*
X92719517Y-70702882D02*
G01*
X92736062Y-70713938D01*
X92747118Y-70730483D01*
X92751000Y-70750000D01*
X92751000Y-71750000D01*
X92747118Y-71769517D01*
X92736062Y-71786062D01*
X92719517Y-71797118D01*
X92700000Y-71801000D01*
X90500000Y-71801000D01*
X90480483Y-71797118D01*
X90463938Y-71786062D01*
X90452882Y-71769517D01*
X90449000Y-71750000D01*
X90449000Y-70750000D01*
X90452882Y-70730483D01*
X90463938Y-70713938D01*
X90480483Y-70702882D01*
X90500000Y-70699000D01*
X92700000Y-70699000D01*
X92719517Y-70702882D01*
G37*
G36*
X28261546Y-69297797D02*
G01*
X28424728Y-69365389D01*
X28571588Y-69463518D01*
X28696482Y-69588412D01*
X28794611Y-69735272D01*
X28862203Y-69898454D01*
X28896661Y-70071687D01*
X28896661Y-70248313D01*
X28862203Y-70421546D01*
X28794611Y-70584728D01*
X28696482Y-70731588D01*
X28571588Y-70856482D01*
X28424728Y-70954611D01*
X28261546Y-71022203D01*
X28088313Y-71056661D01*
X27911687Y-71056661D01*
X27738454Y-71022203D01*
X27575272Y-70954611D01*
X27428412Y-70856482D01*
X27303518Y-70731588D01*
X27205389Y-70584728D01*
X27137797Y-70421546D01*
X27103339Y-70248313D01*
X27103339Y-70071687D01*
X27137797Y-69898454D01*
X27205389Y-69735272D01*
X27303518Y-69588412D01*
X27428412Y-69463518D01*
X27575272Y-69365389D01*
X27738454Y-69297797D01*
X27911687Y-69263339D01*
X28088313Y-69263339D01*
X28261546Y-69297797D01*
G37*
G36*
X68261546Y-69297797D02*
G01*
X68424728Y-69365389D01*
X68571588Y-69463518D01*
X68696482Y-69588412D01*
X68794611Y-69735272D01*
X68862203Y-69898454D01*
X68896661Y-70071687D01*
X68896661Y-70248313D01*
X68862203Y-70421546D01*
X68794611Y-70584728D01*
X68696482Y-70731588D01*
X68571588Y-70856482D01*
X68424728Y-70954611D01*
X68261546Y-71022203D01*
X68088313Y-71056661D01*
X67911687Y-71056661D01*
X67738454Y-71022203D01*
X67575272Y-70954611D01*
X67428412Y-70856482D01*
X67303518Y-70731588D01*
X67205389Y-70584728D01*
X67137797Y-70421546D01*
X67103339Y-70248313D01*
X67103339Y-70071687D01*
X67137797Y-69898454D01*
X67205389Y-69735272D01*
X67303518Y-69588412D01*
X67428412Y-69463518D01*
X67575272Y-69365389D01*
X67738454Y-69297797D01*
X67911687Y-69263339D01*
X68088313Y-69263339D01*
X68261546Y-69297797D01*
G37*
G36*
X2519517Y-67852882D02*
G01*
X2536062Y-67863938D01*
X2547118Y-67880483D01*
X2551000Y-67900000D01*
X2551000Y-70100000D01*
X2547118Y-70119517D01*
X2536062Y-70136062D01*
X2519517Y-70147118D01*
X2500000Y-70151000D01*
X1500000Y-70151000D01*
X1480483Y-70147118D01*
X1463938Y-70136062D01*
X1452882Y-70119517D01*
X1449000Y-70100000D01*
X1449000Y-67900000D01*
X1452882Y-67880483D01*
X1463938Y-67863938D01*
X1480483Y-67852882D01*
X1500000Y-67849000D01*
X2500000Y-67849000D01*
X2519517Y-67852882D01*
G37*
G36*
X64919517Y-68052882D02*
G01*
X64936062Y-68063938D01*
X64947118Y-68080483D01*
X64951000Y-68100000D01*
X64951000Y-69900000D01*
X64947118Y-69919517D01*
X64936062Y-69936062D01*
X64919517Y-69947118D01*
X64900000Y-69951000D01*
X63100000Y-69951000D01*
X63080483Y-69947118D01*
X63063938Y-69936062D01*
X63052882Y-69919517D01*
X63049000Y-69900000D01*
X63049000Y-68100000D01*
X63052882Y-68080483D01*
X63063938Y-68063938D01*
X63080483Y-68052882D01*
X63100000Y-68049000D01*
X64900000Y-68049000D01*
X64919517Y-68052882D01*
G37*
G36*
X61542553Y-68053579D02*
G01*
X61553214Y-68053579D01*
X61594865Y-68061864D01*
X61681916Y-68075651D01*
X61709918Y-68084749D01*
X61736061Y-68089950D01*
X61772956Y-68105232D01*
X61823784Y-68121748D01*
X61871399Y-68146009D01*
X61908298Y-68161293D01*
X61930463Y-68176103D01*
X61956693Y-68189468D01*
X62027990Y-68241268D01*
X62063308Y-68264867D01*
X62070846Y-68272405D01*
X62077370Y-68277145D01*
X62182854Y-68382629D01*
X62187593Y-68389152D01*
X62195133Y-68396692D01*
X62218734Y-68432014D01*
X62270531Y-68503306D01*
X62283894Y-68529533D01*
X62298707Y-68551702D01*
X62313993Y-68588605D01*
X62338251Y-68636215D01*
X62354764Y-68687035D01*
X62370050Y-68723939D01*
X62375251Y-68750086D01*
X62384348Y-68778083D01*
X62398134Y-68865125D01*
X62406421Y-68906786D01*
X62406421Y-68917447D01*
X62407683Y-68925415D01*
X62407683Y-69074584D01*
X62406421Y-69082551D01*
X62406421Y-69093214D01*
X62398133Y-69134877D01*
X62384348Y-69221916D01*
X62375251Y-69249910D01*
X62370050Y-69276061D01*
X62354762Y-69312968D01*
X62338251Y-69363784D01*
X62313995Y-69411388D01*
X62298707Y-69448298D01*
X62283892Y-69470470D01*
X62270531Y-69496693D01*
X62218742Y-69567973D01*
X62195133Y-69603308D01*
X62187591Y-69610849D01*
X62182854Y-69617370D01*
X62077370Y-69722854D01*
X62070849Y-69727591D01*
X62063308Y-69735133D01*
X62027973Y-69758742D01*
X61956693Y-69810531D01*
X61930470Y-69823892D01*
X61908298Y-69838707D01*
X61871388Y-69853995D01*
X61823784Y-69878251D01*
X61772968Y-69894762D01*
X61736061Y-69910050D01*
X61709910Y-69915251D01*
X61681916Y-69924348D01*
X61594875Y-69938133D01*
X61553214Y-69946421D01*
X61542553Y-69946421D01*
X61534585Y-69947683D01*
X61385415Y-69947683D01*
X61377447Y-69946421D01*
X61366786Y-69946421D01*
X61325125Y-69938134D01*
X61238083Y-69924348D01*
X61210086Y-69915251D01*
X61183939Y-69910050D01*
X61147035Y-69894764D01*
X61096215Y-69878251D01*
X61048605Y-69853993D01*
X61011702Y-69838707D01*
X60989533Y-69823894D01*
X60963306Y-69810531D01*
X60892014Y-69758734D01*
X60856692Y-69735133D01*
X60849152Y-69727593D01*
X60842629Y-69722854D01*
X60737145Y-69617370D01*
X60732405Y-69610846D01*
X60724867Y-69603308D01*
X60701268Y-69567990D01*
X60649468Y-69496693D01*
X60636103Y-69470463D01*
X60621293Y-69448298D01*
X60606009Y-69411399D01*
X60581748Y-69363784D01*
X60565232Y-69312956D01*
X60549950Y-69276061D01*
X60544749Y-69249918D01*
X60535651Y-69221916D01*
X60521864Y-69134867D01*
X60513579Y-69093214D01*
X60513579Y-69082552D01*
X60512317Y-69074584D01*
X60512317Y-68925415D01*
X60513579Y-68917446D01*
X60513579Y-68906786D01*
X60521863Y-68865136D01*
X60535651Y-68778083D01*
X60544750Y-68750078D01*
X60549950Y-68723939D01*
X60565231Y-68687046D01*
X60581748Y-68636215D01*
X60606011Y-68588595D01*
X60621293Y-68551702D01*
X60636101Y-68529539D01*
X60649468Y-68503306D01*
X60701277Y-68431996D01*
X60724867Y-68396692D01*
X60732402Y-68389156D01*
X60737145Y-68382629D01*
X60842629Y-68277145D01*
X60849156Y-68272402D01*
X60856692Y-68264867D01*
X60891996Y-68241277D01*
X60963306Y-68189468D01*
X60989539Y-68176101D01*
X61011702Y-68161293D01*
X61048595Y-68146011D01*
X61096215Y-68121748D01*
X61147046Y-68105231D01*
X61183939Y-68089950D01*
X61210078Y-68084750D01*
X61238083Y-68075651D01*
X61325136Y-68061863D01*
X61366786Y-68053579D01*
X61377447Y-68053579D01*
X61385415Y-68052317D01*
X61534585Y-68052317D01*
X61542553Y-68053579D01*
G37*
G36*
X98519517Y-67602882D02*
G01*
X98536062Y-67613938D01*
X98547118Y-67630483D01*
X98551000Y-67650000D01*
X98551000Y-69850000D01*
X98547118Y-69869517D01*
X98536062Y-69886062D01*
X98519517Y-69897118D01*
X98500000Y-69901000D01*
X97500000Y-69901000D01*
X97480483Y-69897118D01*
X97463938Y-69886062D01*
X97452882Y-69869517D01*
X97449000Y-69850000D01*
X97449000Y-67650000D01*
X97452882Y-67630483D01*
X97463938Y-67613938D01*
X97480483Y-67602882D01*
X97500000Y-67599000D01*
X98500000Y-67599000D01*
X98519517Y-67602882D01*
G37*
G36*
X28261546Y-66757797D02*
G01*
X28424728Y-66825389D01*
X28571588Y-66923518D01*
X28696482Y-67048412D01*
X28794611Y-67195272D01*
X28862203Y-67358454D01*
X28896661Y-67531687D01*
X28896661Y-67708313D01*
X28862203Y-67881546D01*
X28794611Y-68044728D01*
X28696482Y-68191588D01*
X28571588Y-68316482D01*
X28424728Y-68414611D01*
X28261546Y-68482203D01*
X28088313Y-68516661D01*
X27911687Y-68516661D01*
X27738454Y-68482203D01*
X27575272Y-68414611D01*
X27428412Y-68316482D01*
X27303518Y-68191588D01*
X27205389Y-68044728D01*
X27137797Y-67881546D01*
X27103339Y-67708313D01*
X27103339Y-67531687D01*
X27137797Y-67358454D01*
X27205389Y-67195272D01*
X27303518Y-67048412D01*
X27428412Y-66923518D01*
X27575272Y-66825389D01*
X27738454Y-66757797D01*
X27911687Y-66723339D01*
X28088313Y-66723339D01*
X28261546Y-66757797D01*
G37*
G36*
X68261546Y-66757797D02*
G01*
X68424728Y-66825389D01*
X68571588Y-66923518D01*
X68696482Y-67048412D01*
X68794611Y-67195272D01*
X68862203Y-67358454D01*
X68896661Y-67531687D01*
X68896661Y-67708313D01*
X68862203Y-67881546D01*
X68794611Y-68044728D01*
X68696482Y-68191588D01*
X68571588Y-68316482D01*
X68424728Y-68414611D01*
X68261546Y-68482203D01*
X68088313Y-68516661D01*
X67911687Y-68516661D01*
X67738454Y-68482203D01*
X67575272Y-68414611D01*
X67428412Y-68316482D01*
X67303518Y-68191588D01*
X67205389Y-68044728D01*
X67137797Y-67881546D01*
X67103339Y-67708313D01*
X67103339Y-67531687D01*
X67137797Y-67358454D01*
X67205389Y-67195272D01*
X67303518Y-67048412D01*
X67428412Y-66923518D01*
X67575272Y-66825389D01*
X67738454Y-66757797D01*
X67911687Y-66723339D01*
X68088313Y-66723339D01*
X68261546Y-66757797D01*
G37*
G36*
X9519517Y-65952882D02*
G01*
X9536062Y-65963938D01*
X9547118Y-65980483D01*
X9551000Y-66000000D01*
X9551000Y-67000000D01*
X9547118Y-67019517D01*
X9536062Y-67036062D01*
X9519517Y-67047118D01*
X9500000Y-67051000D01*
X7300000Y-67051000D01*
X7280483Y-67047118D01*
X7263938Y-67036062D01*
X7252882Y-67019517D01*
X7249000Y-67000000D01*
X7249000Y-66000000D01*
X7252882Y-65980483D01*
X7263938Y-65963938D01*
X7280483Y-65952882D01*
X7300000Y-65949000D01*
X9500000Y-65949000D01*
X9519517Y-65952882D01*
G37*
G36*
X28261546Y-64217797D02*
G01*
X28424728Y-64285389D01*
X28571588Y-64383518D01*
X28696482Y-64508412D01*
X28794611Y-64655272D01*
X28862203Y-64818454D01*
X28896661Y-64991687D01*
X28896661Y-65168313D01*
X28862203Y-65341546D01*
X28794611Y-65504728D01*
X28696482Y-65651588D01*
X28571588Y-65776482D01*
X28424728Y-65874611D01*
X28261546Y-65942203D01*
X28088313Y-65976661D01*
X27911687Y-65976661D01*
X27738454Y-65942203D01*
X27575272Y-65874611D01*
X27428412Y-65776482D01*
X27303518Y-65651588D01*
X27205389Y-65504728D01*
X27137797Y-65341546D01*
X27103339Y-65168313D01*
X27103339Y-64991687D01*
X27137797Y-64818454D01*
X27205389Y-64655272D01*
X27303518Y-64508412D01*
X27428412Y-64383518D01*
X27575272Y-64285389D01*
X27738454Y-64217797D01*
X27911687Y-64183339D01*
X28088313Y-64183339D01*
X28261546Y-64217797D01*
G37*
G36*
X68261546Y-64217797D02*
G01*
X68424728Y-64285389D01*
X68571588Y-64383518D01*
X68696482Y-64508412D01*
X68794611Y-64655272D01*
X68862203Y-64818454D01*
X68896661Y-64991687D01*
X68896661Y-65168313D01*
X68862203Y-65341546D01*
X68794611Y-65504728D01*
X68696482Y-65651588D01*
X68571588Y-65776482D01*
X68424728Y-65874611D01*
X68261546Y-65942203D01*
X68088313Y-65976661D01*
X67911687Y-65976661D01*
X67738454Y-65942203D01*
X67575272Y-65874611D01*
X67428412Y-65776482D01*
X67303518Y-65651588D01*
X67205389Y-65504728D01*
X67137797Y-65341546D01*
X67103339Y-65168313D01*
X67103339Y-64991687D01*
X67137797Y-64818454D01*
X67205389Y-64655272D01*
X67303518Y-64508412D01*
X67428412Y-64383518D01*
X67575272Y-64285389D01*
X67738454Y-64217797D01*
X67911687Y-64183339D01*
X68088313Y-64183339D01*
X68261546Y-64217797D01*
G37*
G36*
X87519517Y-63602882D02*
G01*
X87536062Y-63613938D01*
X87547118Y-63630483D01*
X87551000Y-63650000D01*
X87551000Y-65850000D01*
X87547118Y-65869517D01*
X87536062Y-65886062D01*
X87519517Y-65897118D01*
X87500000Y-65901000D01*
X86500000Y-65901000D01*
X86480483Y-65897118D01*
X86463938Y-65886062D01*
X86452882Y-65869517D01*
X86449000Y-65850000D01*
X86449000Y-63650000D01*
X86452882Y-63630483D01*
X86463938Y-63613938D01*
X86480483Y-63602882D01*
X86500000Y-63599000D01*
X87500000Y-63599000D01*
X87519517Y-63602882D01*
G37*
G36*
X95719517Y-63702882D02*
G01*
X95736062Y-63713938D01*
X95747118Y-63730483D01*
X95751000Y-63750000D01*
X95751000Y-64750000D01*
X95747118Y-64769517D01*
X95736062Y-64786062D01*
X95719517Y-64797118D01*
X95700000Y-64801000D01*
X93500000Y-64801000D01*
X93480483Y-64797118D01*
X93463938Y-64786062D01*
X93452882Y-64769517D01*
X93449000Y-64750000D01*
X93449000Y-63750000D01*
X93452882Y-63730483D01*
X93463938Y-63713938D01*
X93480483Y-63702882D01*
X93500000Y-63699000D01*
X95700000Y-63699000D01*
X95719517Y-63702882D01*
G37*
G36*
X10919517Y-63252882D02*
G01*
X10936062Y-63263938D01*
X10947118Y-63280483D01*
X10951000Y-63300000D01*
X10951000Y-64300000D01*
X10947118Y-64319517D01*
X10936062Y-64336062D01*
X10919517Y-64347118D01*
X10900000Y-64351000D01*
X8700000Y-64351000D01*
X8680483Y-64347118D01*
X8663938Y-64336062D01*
X8652882Y-64319517D01*
X8649000Y-64300000D01*
X8649000Y-63300000D01*
X8652882Y-63280483D01*
X8663938Y-63263938D01*
X8680483Y-63252882D01*
X8700000Y-63249000D01*
X10900000Y-63249000D01*
X10919517Y-63252882D01*
G37*
G36*
X32261546Y-62077797D02*
G01*
X32424728Y-62145389D01*
X32571588Y-62243518D01*
X32696482Y-62368412D01*
X32794611Y-62515272D01*
X32862203Y-62678454D01*
X32896661Y-62851687D01*
X32896661Y-63028313D01*
X32862203Y-63201546D01*
X32794611Y-63364728D01*
X32696482Y-63511588D01*
X32571588Y-63636482D01*
X32424728Y-63734611D01*
X32261546Y-63802203D01*
X32088313Y-63836661D01*
X31911687Y-63836661D01*
X31738454Y-63802203D01*
X31575272Y-63734611D01*
X31428412Y-63636482D01*
X31303518Y-63511588D01*
X31205389Y-63364728D01*
X31137797Y-63201546D01*
X31103339Y-63028313D01*
X31103339Y-62851687D01*
X31137797Y-62678454D01*
X31205389Y-62515272D01*
X31303518Y-62368412D01*
X31428412Y-62243518D01*
X31575272Y-62145389D01*
X31738454Y-62077797D01*
X31911687Y-62043339D01*
X32088313Y-62043339D01*
X32261546Y-62077797D01*
G37*
G36*
X72261546Y-61827797D02*
G01*
X72424728Y-61895389D01*
X72571588Y-61993518D01*
X72696482Y-62118412D01*
X72794611Y-62265272D01*
X72862203Y-62428454D01*
X72896661Y-62601687D01*
X72896661Y-62778313D01*
X72862203Y-62951546D01*
X72794611Y-63114728D01*
X72696482Y-63261588D01*
X72571588Y-63386482D01*
X72424728Y-63484611D01*
X72261546Y-63552203D01*
X72088313Y-63586661D01*
X71911687Y-63586661D01*
X71738454Y-63552203D01*
X71575272Y-63484611D01*
X71428412Y-63386482D01*
X71303518Y-63261588D01*
X71205389Y-63114728D01*
X71137797Y-62951546D01*
X71103339Y-62778313D01*
X71103339Y-62601687D01*
X71137797Y-62428454D01*
X71205389Y-62265272D01*
X71303518Y-62118412D01*
X71428412Y-61993518D01*
X71575272Y-61895389D01*
X71738454Y-61827797D01*
X71911687Y-61793339D01*
X72088313Y-61793339D01*
X72261546Y-61827797D01*
G37*
G36*
X28261546Y-61677797D02*
G01*
X28424728Y-61745389D01*
X28571588Y-61843518D01*
X28696482Y-61968412D01*
X28794611Y-62115272D01*
X28862203Y-62278454D01*
X28896661Y-62451687D01*
X28896661Y-62628313D01*
X28862203Y-62801546D01*
X28794611Y-62964728D01*
X28696482Y-63111588D01*
X28571588Y-63236482D01*
X28424728Y-63334611D01*
X28261546Y-63402203D01*
X28088313Y-63436661D01*
X27911687Y-63436661D01*
X27738454Y-63402203D01*
X27575272Y-63334611D01*
X27428412Y-63236482D01*
X27303518Y-63111588D01*
X27205389Y-62964728D01*
X27137797Y-62801546D01*
X27103339Y-62628313D01*
X27103339Y-62451687D01*
X27137797Y-62278454D01*
X27205389Y-62115272D01*
X27303518Y-61968412D01*
X27428412Y-61843518D01*
X27575272Y-61745389D01*
X27738454Y-61677797D01*
X27911687Y-61643339D01*
X28088313Y-61643339D01*
X28261546Y-61677797D01*
G37*
G36*
X68261546Y-61677797D02*
G01*
X68424728Y-61745389D01*
X68571588Y-61843518D01*
X68696482Y-61968412D01*
X68794611Y-62115272D01*
X68862203Y-62278454D01*
X68896661Y-62451687D01*
X68896661Y-62628313D01*
X68862203Y-62801546D01*
X68794611Y-62964728D01*
X68696482Y-63111588D01*
X68571588Y-63236482D01*
X68424728Y-63334611D01*
X68261546Y-63402203D01*
X68088313Y-63436661D01*
X67911687Y-63436661D01*
X67738454Y-63402203D01*
X67575272Y-63334611D01*
X67428412Y-63236482D01*
X67303518Y-63111588D01*
X67205389Y-62964728D01*
X67137797Y-62801546D01*
X67103339Y-62628313D01*
X67103339Y-62451687D01*
X67137797Y-62278454D01*
X67205389Y-62115272D01*
X67303518Y-61968412D01*
X67428412Y-61843518D01*
X67575272Y-61745389D01*
X67738454Y-61677797D01*
X67911687Y-61643339D01*
X68088313Y-61643339D01*
X68261546Y-61677797D01*
G37*
G36*
X13519517Y-59352882D02*
G01*
X13536062Y-59363938D01*
X13547118Y-59380483D01*
X13551000Y-59400000D01*
X13551000Y-61600000D01*
X13547118Y-61619517D01*
X13536062Y-61636062D01*
X13519517Y-61647118D01*
X13500000Y-61651000D01*
X12500000Y-61651000D01*
X12480483Y-61647118D01*
X12463938Y-61636062D01*
X12452882Y-61619517D01*
X12449000Y-61600000D01*
X12449000Y-59400000D01*
X12452882Y-59380483D01*
X12463938Y-59363938D01*
X12480483Y-59352882D01*
X12500000Y-59349000D01*
X13500000Y-59349000D01*
X13519517Y-59352882D01*
G37*
G36*
X6519517Y-60452882D02*
G01*
X6536062Y-60463938D01*
X6547118Y-60480483D01*
X6551000Y-60500000D01*
X6551000Y-61500000D01*
X6547118Y-61519517D01*
X6536062Y-61536062D01*
X6519517Y-61547118D01*
X6500000Y-61551000D01*
X4300000Y-61551000D01*
X4280483Y-61547118D01*
X4263938Y-61536062D01*
X4252882Y-61519517D01*
X4249000Y-61500000D01*
X4249000Y-60500000D01*
X4252882Y-60480483D01*
X4263938Y-60463938D01*
X4280483Y-60452882D01*
X4300000Y-60449000D01*
X6500000Y-60449000D01*
X6519517Y-60452882D01*
G37*
G36*
X32261546Y-59537797D02*
G01*
X32424728Y-59605389D01*
X32571588Y-59703518D01*
X32696482Y-59828412D01*
X32794611Y-59975272D01*
X32862203Y-60138454D01*
X32896661Y-60311687D01*
X32896661Y-60488313D01*
X32862203Y-60661546D01*
X32794611Y-60824728D01*
X32696482Y-60971588D01*
X32571588Y-61096482D01*
X32424728Y-61194611D01*
X32261546Y-61262203D01*
X32088313Y-61296661D01*
X31911687Y-61296661D01*
X31738454Y-61262203D01*
X31575272Y-61194611D01*
X31428412Y-61096482D01*
X31303518Y-60971588D01*
X31205389Y-60824728D01*
X31137797Y-60661546D01*
X31103339Y-60488313D01*
X31103339Y-60311687D01*
X31137797Y-60138454D01*
X31205389Y-59975272D01*
X31303518Y-59828412D01*
X31428412Y-59703518D01*
X31575272Y-59605389D01*
X31738454Y-59537797D01*
X31911687Y-59503339D01*
X32088313Y-59503339D01*
X32261546Y-59537797D01*
G37*
G36*
X72261546Y-59287797D02*
G01*
X72424728Y-59355389D01*
X72571588Y-59453518D01*
X72696482Y-59578412D01*
X72794611Y-59725272D01*
X72862203Y-59888454D01*
X72896661Y-60061687D01*
X72896661Y-60238313D01*
X72862203Y-60411546D01*
X72794611Y-60574728D01*
X72696482Y-60721588D01*
X72571588Y-60846482D01*
X72424728Y-60944611D01*
X72261546Y-61012203D01*
X72088313Y-61046661D01*
X71911687Y-61046661D01*
X71738454Y-61012203D01*
X71575272Y-60944611D01*
X71428412Y-60846482D01*
X71303518Y-60721588D01*
X71205389Y-60574728D01*
X71137797Y-60411546D01*
X71103339Y-60238313D01*
X71103339Y-60061687D01*
X71137797Y-59888454D01*
X71205389Y-59725272D01*
X71303518Y-59578412D01*
X71428412Y-59453518D01*
X71575272Y-59355389D01*
X71738454Y-59287797D01*
X71911687Y-59253339D01*
X72088313Y-59253339D01*
X72261546Y-59287797D01*
G37*
G36*
X28869517Y-59102882D02*
G01*
X28886062Y-59113938D01*
X28897118Y-59130483D01*
X28901000Y-59150000D01*
X28901000Y-60850000D01*
X28897118Y-60869517D01*
X28886062Y-60886062D01*
X28869517Y-60897118D01*
X28850000Y-60901000D01*
X27150000Y-60901000D01*
X27130483Y-60897118D01*
X27113938Y-60886062D01*
X27102882Y-60869517D01*
X27099000Y-60850000D01*
X27099000Y-59150000D01*
X27102882Y-59130483D01*
X27113938Y-59113938D01*
X27130483Y-59102882D01*
X27150000Y-59099000D01*
X28850000Y-59099000D01*
X28869517Y-59102882D01*
G37*
G36*
X68869517Y-59102882D02*
G01*
X68886062Y-59113938D01*
X68897118Y-59130483D01*
X68901000Y-59150000D01*
X68901000Y-60850000D01*
X68897118Y-60869517D01*
X68886062Y-60886062D01*
X68869517Y-60897118D01*
X68850000Y-60901000D01*
X67150000Y-60901000D01*
X67130483Y-60897118D01*
X67113938Y-60886062D01*
X67102882Y-60869517D01*
X67099000Y-60850000D01*
X67099000Y-59150000D01*
X67102882Y-59130483D01*
X67113938Y-59113938D01*
X67130483Y-59102882D01*
X67150000Y-59099000D01*
X68850000Y-59099000D01*
X68869517Y-59102882D01*
G37*
G36*
X32261546Y-56997797D02*
G01*
X32424728Y-57065389D01*
X32571588Y-57163518D01*
X32696482Y-57288412D01*
X32794611Y-57435272D01*
X32862203Y-57598454D01*
X32896661Y-57771687D01*
X32896661Y-57948313D01*
X32862203Y-58121546D01*
X32794611Y-58284728D01*
X32696482Y-58431588D01*
X32571588Y-58556482D01*
X32424728Y-58654611D01*
X32261546Y-58722203D01*
X32088313Y-58756661D01*
X31911687Y-58756661D01*
X31738454Y-58722203D01*
X31575272Y-58654611D01*
X31428412Y-58556482D01*
X31303518Y-58431588D01*
X31205389Y-58284728D01*
X31137797Y-58121546D01*
X31103339Y-57948313D01*
X31103339Y-57771687D01*
X31137797Y-57598454D01*
X31205389Y-57435272D01*
X31303518Y-57288412D01*
X31428412Y-57163518D01*
X31575272Y-57065389D01*
X31738454Y-56997797D01*
X31911687Y-56963339D01*
X32088313Y-56963339D01*
X32261546Y-56997797D01*
G37*
G36*
X54261546Y-56917797D02*
G01*
X54424728Y-56985389D01*
X54571588Y-57083518D01*
X54696482Y-57208412D01*
X54794611Y-57355272D01*
X54862203Y-57518454D01*
X54896661Y-57691687D01*
X54896661Y-57868313D01*
X54862203Y-58041546D01*
X54794611Y-58204728D01*
X54696482Y-58351588D01*
X54571588Y-58476482D01*
X54424728Y-58574611D01*
X54261546Y-58642203D01*
X54088313Y-58676661D01*
X53911687Y-58676661D01*
X53738454Y-58642203D01*
X53575272Y-58574611D01*
X53428412Y-58476482D01*
X53303518Y-58351588D01*
X53205389Y-58204728D01*
X53137797Y-58041546D01*
X53103339Y-57868313D01*
X53103339Y-57691687D01*
X53137797Y-57518454D01*
X53205389Y-57355272D01*
X53303518Y-57208412D01*
X53428412Y-57083518D01*
X53575272Y-56985389D01*
X53738454Y-56917797D01*
X53911687Y-56883339D01*
X54088313Y-56883339D01*
X54261546Y-56917797D01*
G37*
G36*
X56801546Y-56917797D02*
G01*
X56964728Y-56985389D01*
X57111588Y-57083518D01*
X57236482Y-57208412D01*
X57334611Y-57355272D01*
X57402203Y-57518454D01*
X57436661Y-57691687D01*
X57436661Y-57868313D01*
X57402203Y-58041546D01*
X57334611Y-58204728D01*
X57236482Y-58351588D01*
X57111588Y-58476482D01*
X56964728Y-58574611D01*
X56801546Y-58642203D01*
X56628313Y-58676661D01*
X56451687Y-58676661D01*
X56278454Y-58642203D01*
X56115272Y-58574611D01*
X55968412Y-58476482D01*
X55843518Y-58351588D01*
X55745389Y-58204728D01*
X55677797Y-58041546D01*
X55643339Y-57868313D01*
X55643339Y-57691687D01*
X55677797Y-57518454D01*
X55745389Y-57355272D01*
X55843518Y-57208412D01*
X55968412Y-57083518D01*
X56115272Y-56985389D01*
X56278454Y-56917797D01*
X56451687Y-56883339D01*
X56628313Y-56883339D01*
X56801546Y-56917797D01*
G37*
G36*
X72261546Y-56747797D02*
G01*
X72424728Y-56815389D01*
X72571588Y-56913518D01*
X72696482Y-57038412D01*
X72794611Y-57185272D01*
X72862203Y-57348454D01*
X72896661Y-57521687D01*
X72896661Y-57698313D01*
X72862203Y-57871546D01*
X72794611Y-58034728D01*
X72696482Y-58181588D01*
X72571588Y-58306482D01*
X72424728Y-58404611D01*
X72261546Y-58472203D01*
X72088313Y-58506661D01*
X71911687Y-58506661D01*
X71738454Y-58472203D01*
X71575272Y-58404611D01*
X71428412Y-58306482D01*
X71303518Y-58181588D01*
X71205389Y-58034728D01*
X71137797Y-57871546D01*
X71103339Y-57698313D01*
X71103339Y-57521687D01*
X71137797Y-57348454D01*
X71205389Y-57185272D01*
X71303518Y-57038412D01*
X71428412Y-56913518D01*
X71575272Y-56815389D01*
X71738454Y-56747797D01*
X71911687Y-56713339D01*
X72088313Y-56713339D01*
X72261546Y-56747797D01*
G37*
G36*
X2519517Y-55352882D02*
G01*
X2536062Y-55363938D01*
X2547118Y-55380483D01*
X2551000Y-55400000D01*
X2551000Y-57600000D01*
X2547118Y-57619517D01*
X2536062Y-57636062D01*
X2519517Y-57647118D01*
X2500000Y-57651000D01*
X1500000Y-57651000D01*
X1480483Y-57647118D01*
X1463938Y-57636062D01*
X1452882Y-57619517D01*
X1449000Y-57600000D01*
X1449000Y-55400000D01*
X1452882Y-55380483D01*
X1463938Y-55363938D01*
X1480483Y-55352882D01*
X1500000Y-55349000D01*
X2500000Y-55349000D01*
X2519517Y-55352882D01*
G37*
G36*
X64919517Y-55552882D02*
G01*
X64936062Y-55563938D01*
X64947118Y-55580483D01*
X64951000Y-55600000D01*
X64951000Y-57400000D01*
X64947118Y-57419517D01*
X64936062Y-57436062D01*
X64919517Y-57447118D01*
X64900000Y-57451000D01*
X63100000Y-57451000D01*
X63080483Y-57447118D01*
X63063938Y-57436062D01*
X63052882Y-57419517D01*
X63049000Y-57400000D01*
X63049000Y-55600000D01*
X63052882Y-55580483D01*
X63063938Y-55563938D01*
X63080483Y-55552882D01*
X63100000Y-55549000D01*
X64900000Y-55549000D01*
X64919517Y-55552882D01*
G37*
G36*
X61542553Y-55553579D02*
G01*
X61553214Y-55553579D01*
X61594865Y-55561864D01*
X61681916Y-55575651D01*
X61709918Y-55584749D01*
X61736061Y-55589950D01*
X61772956Y-55605232D01*
X61823784Y-55621748D01*
X61871399Y-55646009D01*
X61908298Y-55661293D01*
X61930463Y-55676103D01*
X61956693Y-55689468D01*
X62027990Y-55741268D01*
X62063308Y-55764867D01*
X62070846Y-55772405D01*
X62077370Y-55777145D01*
X62182854Y-55882629D01*
X62187593Y-55889152D01*
X62195133Y-55896692D01*
X62218734Y-55932014D01*
X62270531Y-56003306D01*
X62283894Y-56029533D01*
X62298707Y-56051702D01*
X62313993Y-56088605D01*
X62338251Y-56136215D01*
X62354764Y-56187035D01*
X62370050Y-56223939D01*
X62375251Y-56250086D01*
X62384348Y-56278083D01*
X62398134Y-56365125D01*
X62406421Y-56406786D01*
X62406421Y-56417447D01*
X62407683Y-56425415D01*
X62407683Y-56574584D01*
X62406421Y-56582551D01*
X62406421Y-56593214D01*
X62398133Y-56634877D01*
X62384348Y-56721916D01*
X62375251Y-56749910D01*
X62370050Y-56776061D01*
X62354762Y-56812968D01*
X62338251Y-56863784D01*
X62313995Y-56911388D01*
X62298707Y-56948298D01*
X62283892Y-56970470D01*
X62270531Y-56996693D01*
X62218742Y-57067973D01*
X62195133Y-57103308D01*
X62187591Y-57110849D01*
X62182854Y-57117370D01*
X62077370Y-57222854D01*
X62070849Y-57227591D01*
X62063308Y-57235133D01*
X62027973Y-57258742D01*
X61956693Y-57310531D01*
X61930470Y-57323892D01*
X61908298Y-57338707D01*
X61871388Y-57353995D01*
X61823784Y-57378251D01*
X61772968Y-57394762D01*
X61736061Y-57410050D01*
X61709910Y-57415251D01*
X61681916Y-57424348D01*
X61594875Y-57438133D01*
X61553214Y-57446421D01*
X61542553Y-57446421D01*
X61534585Y-57447683D01*
X61385415Y-57447683D01*
X61377447Y-57446421D01*
X61366786Y-57446421D01*
X61325125Y-57438134D01*
X61238083Y-57424348D01*
X61210086Y-57415251D01*
X61183939Y-57410050D01*
X61147035Y-57394764D01*
X61096215Y-57378251D01*
X61048605Y-57353993D01*
X61011702Y-57338707D01*
X60989533Y-57323894D01*
X60963306Y-57310531D01*
X60892014Y-57258734D01*
X60856692Y-57235133D01*
X60849152Y-57227593D01*
X60842629Y-57222854D01*
X60737145Y-57117370D01*
X60732405Y-57110846D01*
X60724867Y-57103308D01*
X60701268Y-57067990D01*
X60649468Y-56996693D01*
X60636103Y-56970463D01*
X60621293Y-56948298D01*
X60606009Y-56911399D01*
X60581748Y-56863784D01*
X60565232Y-56812956D01*
X60549950Y-56776061D01*
X60544749Y-56749918D01*
X60535651Y-56721916D01*
X60521864Y-56634867D01*
X60513579Y-56593214D01*
X60513579Y-56582552D01*
X60512317Y-56574584D01*
X60512317Y-56425415D01*
X60513579Y-56417446D01*
X60513579Y-56406786D01*
X60521863Y-56365136D01*
X60535651Y-56278083D01*
X60544750Y-56250078D01*
X60549950Y-56223939D01*
X60565231Y-56187046D01*
X60581748Y-56136215D01*
X60606011Y-56088595D01*
X60621293Y-56051702D01*
X60636101Y-56029539D01*
X60649468Y-56003306D01*
X60701277Y-55931996D01*
X60724867Y-55896692D01*
X60732402Y-55889156D01*
X60737145Y-55882629D01*
X60842629Y-55777145D01*
X60849156Y-55772402D01*
X60856692Y-55764867D01*
X60891996Y-55741277D01*
X60963306Y-55689468D01*
X60989539Y-55676101D01*
X61011702Y-55661293D01*
X61048595Y-55646011D01*
X61096215Y-55621748D01*
X61147046Y-55605231D01*
X61183939Y-55589950D01*
X61210078Y-55584750D01*
X61238083Y-55575651D01*
X61325136Y-55561863D01*
X61366786Y-55553579D01*
X61377447Y-55553579D01*
X61385415Y-55552317D01*
X61534585Y-55552317D01*
X61542553Y-55553579D01*
G37*
G36*
X96919517Y-55302882D02*
G01*
X96936062Y-55313938D01*
X96947118Y-55330483D01*
X96951000Y-55350000D01*
X96951000Y-57150000D01*
X96947118Y-57169517D01*
X96936062Y-57186062D01*
X96919517Y-57197118D01*
X96900000Y-57201000D01*
X95100000Y-57201000D01*
X95080483Y-57197118D01*
X95063938Y-57186062D01*
X95052882Y-57169517D01*
X95049000Y-57150000D01*
X95049000Y-55350000D01*
X95052882Y-55330483D01*
X95063938Y-55313938D01*
X95080483Y-55302882D01*
X95100000Y-55299000D01*
X96900000Y-55299000D01*
X96919517Y-55302882D01*
G37*
G36*
X98622553Y-55303579D02*
G01*
X98633214Y-55303579D01*
X98674865Y-55311864D01*
X98761916Y-55325651D01*
X98789918Y-55334749D01*
X98816061Y-55339950D01*
X98852956Y-55355232D01*
X98903784Y-55371748D01*
X98951399Y-55396009D01*
X98988298Y-55411293D01*
X99010463Y-55426103D01*
X99036693Y-55439468D01*
X99107990Y-55491268D01*
X99143308Y-55514867D01*
X99150846Y-55522405D01*
X99157370Y-55527145D01*
X99262854Y-55632629D01*
X99267593Y-55639152D01*
X99275133Y-55646692D01*
X99298734Y-55682014D01*
X99350531Y-55753306D01*
X99363894Y-55779533D01*
X99378707Y-55801702D01*
X99393993Y-55838605D01*
X99418251Y-55886215D01*
X99434764Y-55937035D01*
X99450050Y-55973939D01*
X99455251Y-56000086D01*
X99464348Y-56028083D01*
X99478134Y-56115125D01*
X99486421Y-56156786D01*
X99486421Y-56167447D01*
X99487683Y-56175415D01*
X99487683Y-56324584D01*
X99486421Y-56332551D01*
X99486421Y-56343214D01*
X99478133Y-56384877D01*
X99464348Y-56471916D01*
X99455251Y-56499910D01*
X99450050Y-56526061D01*
X99434762Y-56562968D01*
X99418251Y-56613784D01*
X99393995Y-56661388D01*
X99378707Y-56698298D01*
X99363892Y-56720470D01*
X99350531Y-56746693D01*
X99298742Y-56817973D01*
X99275133Y-56853308D01*
X99267591Y-56860849D01*
X99262854Y-56867370D01*
X99157370Y-56972854D01*
X99150849Y-56977591D01*
X99143308Y-56985133D01*
X99107973Y-57008742D01*
X99036693Y-57060531D01*
X99010470Y-57073892D01*
X98988298Y-57088707D01*
X98951388Y-57103995D01*
X98903784Y-57128251D01*
X98852968Y-57144762D01*
X98816061Y-57160050D01*
X98789910Y-57165251D01*
X98761916Y-57174348D01*
X98674875Y-57188133D01*
X98633214Y-57196421D01*
X98622553Y-57196421D01*
X98614585Y-57197683D01*
X98465415Y-57197683D01*
X98457447Y-57196421D01*
X98446786Y-57196421D01*
X98405125Y-57188134D01*
X98318083Y-57174348D01*
X98290086Y-57165251D01*
X98263939Y-57160050D01*
X98227035Y-57144764D01*
X98176215Y-57128251D01*
X98128605Y-57103993D01*
X98091702Y-57088707D01*
X98069533Y-57073894D01*
X98043306Y-57060531D01*
X97972014Y-57008734D01*
X97936692Y-56985133D01*
X97929152Y-56977593D01*
X97922629Y-56972854D01*
X97817145Y-56867370D01*
X97812405Y-56860846D01*
X97804867Y-56853308D01*
X97781268Y-56817990D01*
X97729468Y-56746693D01*
X97716103Y-56720463D01*
X97701293Y-56698298D01*
X97686009Y-56661399D01*
X97661748Y-56613784D01*
X97645232Y-56562956D01*
X97629950Y-56526061D01*
X97624749Y-56499918D01*
X97615651Y-56471916D01*
X97601864Y-56384867D01*
X97593579Y-56343214D01*
X97593579Y-56332552D01*
X97592317Y-56324584D01*
X97592317Y-56175415D01*
X97593579Y-56167446D01*
X97593579Y-56156786D01*
X97601863Y-56115136D01*
X97615651Y-56028083D01*
X97624750Y-56000078D01*
X97629950Y-55973939D01*
X97645231Y-55937046D01*
X97661748Y-55886215D01*
X97686011Y-55838595D01*
X97701293Y-55801702D01*
X97716101Y-55779539D01*
X97729468Y-55753306D01*
X97781277Y-55681996D01*
X97804867Y-55646692D01*
X97812402Y-55639156D01*
X97817145Y-55632629D01*
X97922629Y-55527145D01*
X97929156Y-55522402D01*
X97936692Y-55514867D01*
X97971996Y-55491277D01*
X98043306Y-55439468D01*
X98069539Y-55426101D01*
X98091702Y-55411293D01*
X98128595Y-55396011D01*
X98176215Y-55371748D01*
X98227046Y-55355231D01*
X98263939Y-55339950D01*
X98290078Y-55334750D01*
X98318083Y-55325651D01*
X98405136Y-55311863D01*
X98446786Y-55303579D01*
X98457447Y-55303579D01*
X98465415Y-55302317D01*
X98614585Y-55302317D01*
X98622553Y-55303579D01*
G37*
G36*
X32261546Y-54457797D02*
G01*
X32424728Y-54525389D01*
X32571588Y-54623518D01*
X32696482Y-54748412D01*
X32794611Y-54895272D01*
X32862203Y-55058454D01*
X32896661Y-55231687D01*
X32896661Y-55408313D01*
X32862203Y-55581546D01*
X32794611Y-55744728D01*
X32696482Y-55891588D01*
X32571588Y-56016482D01*
X32424728Y-56114611D01*
X32261546Y-56182203D01*
X32088313Y-56216661D01*
X31911687Y-56216661D01*
X31738454Y-56182203D01*
X31575272Y-56114611D01*
X31428412Y-56016482D01*
X31303518Y-55891588D01*
X31205389Y-55744728D01*
X31137797Y-55581546D01*
X31103339Y-55408313D01*
X31103339Y-55231687D01*
X31137797Y-55058454D01*
X31205389Y-54895272D01*
X31303518Y-54748412D01*
X31428412Y-54623518D01*
X31575272Y-54525389D01*
X31738454Y-54457797D01*
X31911687Y-54423339D01*
X32088313Y-54423339D01*
X32261546Y-54457797D01*
G37*
G36*
X54261546Y-54377797D02*
G01*
X54424728Y-54445389D01*
X54571588Y-54543518D01*
X54696482Y-54668412D01*
X54794611Y-54815272D01*
X54862203Y-54978454D01*
X54896661Y-55151687D01*
X54896661Y-55328313D01*
X54862203Y-55501546D01*
X54794611Y-55664728D01*
X54696482Y-55811588D01*
X54571588Y-55936482D01*
X54424728Y-56034611D01*
X54261546Y-56102203D01*
X54088313Y-56136661D01*
X53911687Y-56136661D01*
X53738454Y-56102203D01*
X53575272Y-56034611D01*
X53428412Y-55936482D01*
X53303518Y-55811588D01*
X53205389Y-55664728D01*
X53137797Y-55501546D01*
X53103339Y-55328313D01*
X53103339Y-55151687D01*
X53137797Y-54978454D01*
X53205389Y-54815272D01*
X53303518Y-54668412D01*
X53428412Y-54543518D01*
X53575272Y-54445389D01*
X53738454Y-54377797D01*
X53911687Y-54343339D01*
X54088313Y-54343339D01*
X54261546Y-54377797D01*
G37*
G36*
X56801546Y-54377797D02*
G01*
X56964728Y-54445389D01*
X57111588Y-54543518D01*
X57236482Y-54668412D01*
X57334611Y-54815272D01*
X57402203Y-54978454D01*
X57436661Y-55151687D01*
X57436661Y-55328313D01*
X57402203Y-55501546D01*
X57334611Y-55664728D01*
X57236482Y-55811588D01*
X57111588Y-55936482D01*
X56964728Y-56034611D01*
X56801546Y-56102203D01*
X56628313Y-56136661D01*
X56451687Y-56136661D01*
X56278454Y-56102203D01*
X56115272Y-56034611D01*
X55968412Y-55936482D01*
X55843518Y-55811588D01*
X55745389Y-55664728D01*
X55677797Y-55501546D01*
X55643339Y-55328313D01*
X55643339Y-55151687D01*
X55677797Y-54978454D01*
X55745389Y-54815272D01*
X55843518Y-54668412D01*
X55968412Y-54543518D01*
X56115272Y-54445389D01*
X56278454Y-54377797D01*
X56451687Y-54343339D01*
X56628313Y-54343339D01*
X56801546Y-54377797D01*
G37*
G36*
X72261546Y-54207797D02*
G01*
X72424728Y-54275389D01*
X72571588Y-54373518D01*
X72696482Y-54498412D01*
X72794611Y-54645272D01*
X72862203Y-54808454D01*
X72896661Y-54981687D01*
X72896661Y-55158313D01*
X72862203Y-55331546D01*
X72794611Y-55494728D01*
X72696482Y-55641588D01*
X72571588Y-55766482D01*
X72424728Y-55864611D01*
X72261546Y-55932203D01*
X72088313Y-55966661D01*
X71911687Y-55966661D01*
X71738454Y-55932203D01*
X71575272Y-55864611D01*
X71428412Y-55766482D01*
X71303518Y-55641588D01*
X71205389Y-55494728D01*
X71137797Y-55331546D01*
X71103339Y-55158313D01*
X71103339Y-54981687D01*
X71137797Y-54808454D01*
X71205389Y-54645272D01*
X71303518Y-54498412D01*
X71428412Y-54373518D01*
X71575272Y-54275389D01*
X71738454Y-54207797D01*
X71911687Y-54173339D01*
X72088313Y-54173339D01*
X72261546Y-54207797D01*
G37*
G36*
X9519517Y-53452882D02*
G01*
X9536062Y-53463938D01*
X9547118Y-53480483D01*
X9551000Y-53500000D01*
X9551000Y-54500000D01*
X9547118Y-54519517D01*
X9536062Y-54536062D01*
X9519517Y-54547118D01*
X9500000Y-54551000D01*
X7300000Y-54551000D01*
X7280483Y-54547118D01*
X7263938Y-54536062D01*
X7252882Y-54519517D01*
X7249000Y-54500000D01*
X7249000Y-53500000D01*
X7252882Y-53480483D01*
X7263938Y-53463938D01*
X7280483Y-53452882D01*
X7300000Y-53449000D01*
X9500000Y-53449000D01*
X9519517Y-53452882D01*
G37*
G36*
X32261546Y-51917797D02*
G01*
X32424728Y-51985389D01*
X32571588Y-52083518D01*
X32696482Y-52208412D01*
X32794611Y-52355272D01*
X32862203Y-52518454D01*
X32896661Y-52691687D01*
X32896661Y-52868313D01*
X32862203Y-53041546D01*
X32794611Y-53204728D01*
X32696482Y-53351588D01*
X32571588Y-53476482D01*
X32424728Y-53574611D01*
X32261546Y-53642203D01*
X32088313Y-53676661D01*
X31911687Y-53676661D01*
X31738454Y-53642203D01*
X31575272Y-53574611D01*
X31428412Y-53476482D01*
X31303518Y-53351588D01*
X31205389Y-53204728D01*
X31137797Y-53041546D01*
X31103339Y-52868313D01*
X31103339Y-52691687D01*
X31137797Y-52518454D01*
X31205389Y-52355272D01*
X31303518Y-52208412D01*
X31428412Y-52083518D01*
X31575272Y-51985389D01*
X31738454Y-51917797D01*
X31911687Y-51883339D01*
X32088313Y-51883339D01*
X32261546Y-51917797D01*
G37*
G36*
X54261546Y-51837797D02*
G01*
X54424728Y-51905389D01*
X54571588Y-52003518D01*
X54696482Y-52128412D01*
X54794611Y-52275272D01*
X54862203Y-52438454D01*
X54896661Y-52611687D01*
X54896661Y-52788313D01*
X54862203Y-52961546D01*
X54794611Y-53124728D01*
X54696482Y-53271588D01*
X54571588Y-53396482D01*
X54424728Y-53494611D01*
X54261546Y-53562203D01*
X54088313Y-53596661D01*
X53911687Y-53596661D01*
X53738454Y-53562203D01*
X53575272Y-53494611D01*
X53428412Y-53396482D01*
X53303518Y-53271588D01*
X53205389Y-53124728D01*
X53137797Y-52961546D01*
X53103339Y-52788313D01*
X53103339Y-52611687D01*
X53137797Y-52438454D01*
X53205389Y-52275272D01*
X53303518Y-52128412D01*
X53428412Y-52003518D01*
X53575272Y-51905389D01*
X53738454Y-51837797D01*
X53911687Y-51803339D01*
X54088313Y-51803339D01*
X54261546Y-51837797D01*
G37*
G36*
X56801546Y-51837797D02*
G01*
X56964728Y-51905389D01*
X57111588Y-52003518D01*
X57236482Y-52128412D01*
X57334611Y-52275272D01*
X57402203Y-52438454D01*
X57436661Y-52611687D01*
X57436661Y-52788313D01*
X57402203Y-52961546D01*
X57334611Y-53124728D01*
X57236482Y-53271588D01*
X57111588Y-53396482D01*
X56964728Y-53494611D01*
X56801546Y-53562203D01*
X56628313Y-53596661D01*
X56451687Y-53596661D01*
X56278454Y-53562203D01*
X56115272Y-53494611D01*
X55968412Y-53396482D01*
X55843518Y-53271588D01*
X55745389Y-53124728D01*
X55677797Y-52961546D01*
X55643339Y-52788313D01*
X55643339Y-52611687D01*
X55677797Y-52438454D01*
X55745389Y-52275272D01*
X55843518Y-52128412D01*
X55968412Y-52003518D01*
X56115272Y-51905389D01*
X56278454Y-51837797D01*
X56451687Y-51803339D01*
X56628313Y-51803339D01*
X56801546Y-51837797D01*
G37*
G36*
X72261546Y-51667797D02*
G01*
X72424728Y-51735389D01*
X72571588Y-51833518D01*
X72696482Y-51958412D01*
X72794611Y-52105272D01*
X72862203Y-52268454D01*
X72896661Y-52441687D01*
X72896661Y-52618313D01*
X72862203Y-52791546D01*
X72794611Y-52954728D01*
X72696482Y-53101588D01*
X72571588Y-53226482D01*
X72424728Y-53324611D01*
X72261546Y-53392203D01*
X72088313Y-53426661D01*
X71911687Y-53426661D01*
X71738454Y-53392203D01*
X71575272Y-53324611D01*
X71428412Y-53226482D01*
X71303518Y-53101588D01*
X71205389Y-52954728D01*
X71137797Y-52791546D01*
X71103339Y-52618313D01*
X71103339Y-52441687D01*
X71137797Y-52268454D01*
X71205389Y-52105272D01*
X71303518Y-51958412D01*
X71428412Y-51833518D01*
X71575272Y-51735389D01*
X71738454Y-51667797D01*
X71911687Y-51633339D01*
X72088313Y-51633339D01*
X72261546Y-51667797D01*
G37*
G36*
X10919517Y-50752882D02*
G01*
X10936062Y-50763938D01*
X10947118Y-50780483D01*
X10951000Y-50800000D01*
X10951000Y-51800000D01*
X10947118Y-51819517D01*
X10936062Y-51836062D01*
X10919517Y-51847118D01*
X10900000Y-51851000D01*
X8700000Y-51851000D01*
X8680483Y-51847118D01*
X8663938Y-51836062D01*
X8652882Y-51819517D01*
X8649000Y-51800000D01*
X8649000Y-50800000D01*
X8652882Y-50780483D01*
X8663938Y-50763938D01*
X8680483Y-50752882D01*
X8700000Y-50749000D01*
X10900000Y-50749000D01*
X10919517Y-50752882D01*
G37*
G36*
X32261546Y-49377797D02*
G01*
X32424728Y-49445389D01*
X32571588Y-49543518D01*
X32696482Y-49668412D01*
X32794611Y-49815272D01*
X32862203Y-49978454D01*
X32896661Y-50151687D01*
X32896661Y-50328313D01*
X32862203Y-50501546D01*
X32794611Y-50664728D01*
X32696482Y-50811588D01*
X32571588Y-50936482D01*
X32424728Y-51034611D01*
X32261546Y-51102203D01*
X32088313Y-51136661D01*
X31911687Y-51136661D01*
X31738454Y-51102203D01*
X31575272Y-51034611D01*
X31428412Y-50936482D01*
X31303518Y-50811588D01*
X31205389Y-50664728D01*
X31137797Y-50501546D01*
X31103339Y-50328313D01*
X31103339Y-50151687D01*
X31137797Y-49978454D01*
X31205389Y-49815272D01*
X31303518Y-49668412D01*
X31428412Y-49543518D01*
X31575272Y-49445389D01*
X31738454Y-49377797D01*
X31911687Y-49343339D01*
X32088313Y-49343339D01*
X32261546Y-49377797D01*
G37*
G36*
X54261546Y-49297797D02*
G01*
X54424728Y-49365389D01*
X54571588Y-49463518D01*
X54696482Y-49588412D01*
X54794611Y-49735272D01*
X54862203Y-49898454D01*
X54896661Y-50071687D01*
X54896661Y-50248313D01*
X54862203Y-50421546D01*
X54794611Y-50584728D01*
X54696482Y-50731588D01*
X54571588Y-50856482D01*
X54424728Y-50954611D01*
X54261546Y-51022203D01*
X54088313Y-51056661D01*
X53911687Y-51056661D01*
X53738454Y-51022203D01*
X53575272Y-50954611D01*
X53428412Y-50856482D01*
X53303518Y-50731588D01*
X53205389Y-50584728D01*
X53137797Y-50421546D01*
X53103339Y-50248313D01*
X53103339Y-50071687D01*
X53137797Y-49898454D01*
X53205389Y-49735272D01*
X53303518Y-49588412D01*
X53428412Y-49463518D01*
X53575272Y-49365389D01*
X53738454Y-49297797D01*
X53911687Y-49263339D01*
X54088313Y-49263339D01*
X54261546Y-49297797D01*
G37*
G36*
X56801546Y-49297797D02*
G01*
X56964728Y-49365389D01*
X57111588Y-49463518D01*
X57236482Y-49588412D01*
X57334611Y-49735272D01*
X57402203Y-49898454D01*
X57436661Y-50071687D01*
X57436661Y-50248313D01*
X57402203Y-50421546D01*
X57334611Y-50584728D01*
X57236482Y-50731588D01*
X57111588Y-50856482D01*
X56964728Y-50954611D01*
X56801546Y-51022203D01*
X56628313Y-51056661D01*
X56451687Y-51056661D01*
X56278454Y-51022203D01*
X56115272Y-50954611D01*
X55968412Y-50856482D01*
X55843518Y-50731588D01*
X55745389Y-50584728D01*
X55677797Y-50421546D01*
X55643339Y-50248313D01*
X55643339Y-50071687D01*
X55677797Y-49898454D01*
X55745389Y-49735272D01*
X55843518Y-49588412D01*
X55968412Y-49463518D01*
X56115272Y-49365389D01*
X56278454Y-49297797D01*
X56451687Y-49263339D01*
X56628313Y-49263339D01*
X56801546Y-49297797D01*
G37*
G36*
X72261546Y-49127797D02*
G01*
X72424728Y-49195389D01*
X72571588Y-49293518D01*
X72696482Y-49418412D01*
X72794611Y-49565272D01*
X72862203Y-49728454D01*
X72896661Y-49901687D01*
X72896661Y-50078313D01*
X72862203Y-50251546D01*
X72794611Y-50414728D01*
X72696482Y-50561588D01*
X72571588Y-50686482D01*
X72424728Y-50784611D01*
X72261546Y-50852203D01*
X72088313Y-50886661D01*
X71911687Y-50886661D01*
X71738454Y-50852203D01*
X71575272Y-50784611D01*
X71428412Y-50686482D01*
X71303518Y-50561588D01*
X71205389Y-50414728D01*
X71137797Y-50251546D01*
X71103339Y-50078313D01*
X71103339Y-49901687D01*
X71137797Y-49728454D01*
X71205389Y-49565272D01*
X71303518Y-49418412D01*
X71428412Y-49293518D01*
X71575272Y-49195389D01*
X71738454Y-49127797D01*
X71911687Y-49093339D01*
X72088313Y-49093339D01*
X72261546Y-49127797D01*
G37*
G36*
X91319517Y-48402882D02*
G01*
X91336062Y-48413938D01*
X91347118Y-48430483D01*
X91351000Y-48450000D01*
X91351000Y-49450000D01*
X91347118Y-49469517D01*
X91336062Y-49486062D01*
X91319517Y-49497118D01*
X91300000Y-49501000D01*
X89100000Y-49501000D01*
X89080483Y-49497118D01*
X89063938Y-49486062D01*
X89052882Y-49469517D01*
X89049000Y-49450000D01*
X89049000Y-48450000D01*
X89052882Y-48430483D01*
X89063938Y-48413938D01*
X89080483Y-48402882D01*
X89100000Y-48399000D01*
X91300000Y-48399000D01*
X91319517Y-48402882D01*
G37*
G36*
X13519517Y-46852882D02*
G01*
X13536062Y-46863938D01*
X13547118Y-46880483D01*
X13551000Y-46900000D01*
X13551000Y-49100000D01*
X13547118Y-49119517D01*
X13536062Y-49136062D01*
X13519517Y-49147118D01*
X13500000Y-49151000D01*
X12500000Y-49151000D01*
X12480483Y-49147118D01*
X12463938Y-49136062D01*
X12452882Y-49119517D01*
X12449000Y-49100000D01*
X12449000Y-46900000D01*
X12452882Y-46880483D01*
X12463938Y-46863938D01*
X12480483Y-46852882D01*
X12500000Y-46849000D01*
X13500000Y-46849000D01*
X13519517Y-46852882D01*
G37*
G36*
X6519517Y-47952882D02*
G01*
X6536062Y-47963938D01*
X6547118Y-47980483D01*
X6551000Y-48000000D01*
X6551000Y-49000000D01*
X6547118Y-49019517D01*
X6536062Y-49036062D01*
X6519517Y-49047118D01*
X6500000Y-49051000D01*
X4300000Y-49051000D01*
X4280483Y-49047118D01*
X4263938Y-49036062D01*
X4252882Y-49019517D01*
X4249000Y-49000000D01*
X4249000Y-48000000D01*
X4252882Y-47980483D01*
X4263938Y-47963938D01*
X4280483Y-47952882D01*
X4300000Y-47949000D01*
X6500000Y-47949000D01*
X6519517Y-47952882D01*
G37*
G36*
X32261546Y-46837797D02*
G01*
X32424728Y-46905389D01*
X32571588Y-47003518D01*
X32696482Y-47128412D01*
X32794611Y-47275272D01*
X32862203Y-47438454D01*
X32896661Y-47611687D01*
X32896661Y-47788313D01*
X32862203Y-47961546D01*
X32794611Y-48124728D01*
X32696482Y-48271588D01*
X32571588Y-48396482D01*
X32424728Y-48494611D01*
X32261546Y-48562203D01*
X32088313Y-48596661D01*
X31911687Y-48596661D01*
X31738454Y-48562203D01*
X31575272Y-48494611D01*
X31428412Y-48396482D01*
X31303518Y-48271588D01*
X31205389Y-48124728D01*
X31137797Y-47961546D01*
X31103339Y-47788313D01*
X31103339Y-47611687D01*
X31137797Y-47438454D01*
X31205389Y-47275272D01*
X31303518Y-47128412D01*
X31428412Y-47003518D01*
X31575272Y-46905389D01*
X31738454Y-46837797D01*
X31911687Y-46803339D01*
X32088313Y-46803339D01*
X32261546Y-46837797D01*
G37*
G36*
X54261546Y-46757797D02*
G01*
X54424728Y-46825389D01*
X54571588Y-46923518D01*
X54696482Y-47048412D01*
X54794611Y-47195272D01*
X54862203Y-47358454D01*
X54896661Y-47531687D01*
X54896661Y-47708313D01*
X54862203Y-47881546D01*
X54794611Y-48044728D01*
X54696482Y-48191588D01*
X54571588Y-48316482D01*
X54424728Y-48414611D01*
X54261546Y-48482203D01*
X54088313Y-48516661D01*
X53911687Y-48516661D01*
X53738454Y-48482203D01*
X53575272Y-48414611D01*
X53428412Y-48316482D01*
X53303518Y-48191588D01*
X53205389Y-48044728D01*
X53137797Y-47881546D01*
X53103339Y-47708313D01*
X53103339Y-47531687D01*
X53137797Y-47358454D01*
X53205389Y-47195272D01*
X53303518Y-47048412D01*
X53428412Y-46923518D01*
X53575272Y-46825389D01*
X53738454Y-46757797D01*
X53911687Y-46723339D01*
X54088313Y-46723339D01*
X54261546Y-46757797D01*
G37*
G36*
X56801546Y-46757797D02*
G01*
X56964728Y-46825389D01*
X57111588Y-46923518D01*
X57236482Y-47048412D01*
X57334611Y-47195272D01*
X57402203Y-47358454D01*
X57436661Y-47531687D01*
X57436661Y-47708313D01*
X57402203Y-47881546D01*
X57334611Y-48044728D01*
X57236482Y-48191588D01*
X57111588Y-48316482D01*
X56964728Y-48414611D01*
X56801546Y-48482203D01*
X56628313Y-48516661D01*
X56451687Y-48516661D01*
X56278454Y-48482203D01*
X56115272Y-48414611D01*
X55968412Y-48316482D01*
X55843518Y-48191588D01*
X55745389Y-48044728D01*
X55677797Y-47881546D01*
X55643339Y-47708313D01*
X55643339Y-47531687D01*
X55677797Y-47358454D01*
X55745389Y-47195272D01*
X55843518Y-47048412D01*
X55968412Y-46923518D01*
X56115272Y-46825389D01*
X56278454Y-46757797D01*
X56451687Y-46723339D01*
X56628313Y-46723339D01*
X56801546Y-46757797D01*
G37*
G36*
X72261546Y-46587797D02*
G01*
X72424728Y-46655389D01*
X72571588Y-46753518D01*
X72696482Y-46878412D01*
X72794611Y-47025272D01*
X72862203Y-47188454D01*
X72896661Y-47361687D01*
X72896661Y-47538313D01*
X72862203Y-47711546D01*
X72794611Y-47874728D01*
X72696482Y-48021588D01*
X72571588Y-48146482D01*
X72424728Y-48244611D01*
X72261546Y-48312203D01*
X72088313Y-48346661D01*
X71911687Y-48346661D01*
X71738454Y-48312203D01*
X71575272Y-48244611D01*
X71428412Y-48146482D01*
X71303518Y-48021588D01*
X71205389Y-47874728D01*
X71137797Y-47711546D01*
X71103339Y-47538313D01*
X71103339Y-47361687D01*
X71137797Y-47188454D01*
X71205389Y-47025272D01*
X71303518Y-46878412D01*
X71428412Y-46753518D01*
X71575272Y-46655389D01*
X71738454Y-46587797D01*
X71911687Y-46553339D01*
X72088313Y-46553339D01*
X72261546Y-46587797D01*
G37*
G36*
X92719517Y-45702882D02*
G01*
X92736062Y-45713938D01*
X92747118Y-45730483D01*
X92751000Y-45750000D01*
X92751000Y-46750000D01*
X92747118Y-46769517D01*
X92736062Y-46786062D01*
X92719517Y-46797118D01*
X92700000Y-46801000D01*
X90500000Y-46801000D01*
X90480483Y-46797118D01*
X90463938Y-46786062D01*
X90452882Y-46769517D01*
X90449000Y-46750000D01*
X90449000Y-45750000D01*
X90452882Y-45730483D01*
X90463938Y-45713938D01*
X90480483Y-45702882D01*
X90500000Y-45699000D01*
X92700000Y-45699000D01*
X92719517Y-45702882D01*
G37*
G36*
X32261546Y-44297797D02*
G01*
X32424728Y-44365389D01*
X32571588Y-44463518D01*
X32696482Y-44588412D01*
X32794611Y-44735272D01*
X32862203Y-44898454D01*
X32896661Y-45071687D01*
X32896661Y-45248313D01*
X32862203Y-45421546D01*
X32794611Y-45584728D01*
X32696482Y-45731588D01*
X32571588Y-45856482D01*
X32424728Y-45954611D01*
X32261546Y-46022203D01*
X32088313Y-46056661D01*
X31911687Y-46056661D01*
X31738454Y-46022203D01*
X31575272Y-45954611D01*
X31428412Y-45856482D01*
X31303518Y-45731588D01*
X31205389Y-45584728D01*
X31137797Y-45421546D01*
X31103339Y-45248313D01*
X31103339Y-45071687D01*
X31137797Y-44898454D01*
X31205389Y-44735272D01*
X31303518Y-44588412D01*
X31428412Y-44463518D01*
X31575272Y-44365389D01*
X31738454Y-44297797D01*
X31911687Y-44263339D01*
X32088313Y-44263339D01*
X32261546Y-44297797D01*
G37*
G36*
X54261546Y-44217797D02*
G01*
X54424728Y-44285389D01*
X54571588Y-44383518D01*
X54696482Y-44508412D01*
X54794611Y-44655272D01*
X54862203Y-44818454D01*
X54896661Y-44991687D01*
X54896661Y-45168313D01*
X54862203Y-45341546D01*
X54794611Y-45504728D01*
X54696482Y-45651588D01*
X54571588Y-45776482D01*
X54424728Y-45874611D01*
X54261546Y-45942203D01*
X54088313Y-45976661D01*
X53911687Y-45976661D01*
X53738454Y-45942203D01*
X53575272Y-45874611D01*
X53428412Y-45776482D01*
X53303518Y-45651588D01*
X53205389Y-45504728D01*
X53137797Y-45341546D01*
X53103339Y-45168313D01*
X53103339Y-44991687D01*
X53137797Y-44818454D01*
X53205389Y-44655272D01*
X53303518Y-44508412D01*
X53428412Y-44383518D01*
X53575272Y-44285389D01*
X53738454Y-44217797D01*
X53911687Y-44183339D01*
X54088313Y-44183339D01*
X54261546Y-44217797D01*
G37*
G36*
X56801546Y-44217797D02*
G01*
X56964728Y-44285389D01*
X57111588Y-44383518D01*
X57236482Y-44508412D01*
X57334611Y-44655272D01*
X57402203Y-44818454D01*
X57436661Y-44991687D01*
X57436661Y-45168313D01*
X57402203Y-45341546D01*
X57334611Y-45504728D01*
X57236482Y-45651588D01*
X57111588Y-45776482D01*
X56964728Y-45874611D01*
X56801546Y-45942203D01*
X56628313Y-45976661D01*
X56451687Y-45976661D01*
X56278454Y-45942203D01*
X56115272Y-45874611D01*
X55968412Y-45776482D01*
X55843518Y-45651588D01*
X55745389Y-45504728D01*
X55677797Y-45341546D01*
X55643339Y-45168313D01*
X55643339Y-44991687D01*
X55677797Y-44818454D01*
X55745389Y-44655272D01*
X55843518Y-44508412D01*
X55968412Y-44383518D01*
X56115272Y-44285389D01*
X56278454Y-44217797D01*
X56451687Y-44183339D01*
X56628313Y-44183339D01*
X56801546Y-44217797D01*
G37*
G36*
X72261546Y-44047797D02*
G01*
X72424728Y-44115389D01*
X72571588Y-44213518D01*
X72696482Y-44338412D01*
X72794611Y-44485272D01*
X72862203Y-44648454D01*
X72896661Y-44821687D01*
X72896661Y-44998313D01*
X72862203Y-45171546D01*
X72794611Y-45334728D01*
X72696482Y-45481588D01*
X72571588Y-45606482D01*
X72424728Y-45704611D01*
X72261546Y-45772203D01*
X72088313Y-45806661D01*
X71911687Y-45806661D01*
X71738454Y-45772203D01*
X71575272Y-45704611D01*
X71428412Y-45606482D01*
X71303518Y-45481588D01*
X71205389Y-45334728D01*
X71137797Y-45171546D01*
X71103339Y-44998313D01*
X71103339Y-44821687D01*
X71137797Y-44648454D01*
X71205389Y-44485272D01*
X71303518Y-44338412D01*
X71428412Y-44213518D01*
X71575272Y-44115389D01*
X71738454Y-44047797D01*
X71911687Y-44013339D01*
X72088313Y-44013339D01*
X72261546Y-44047797D01*
G37*
G36*
X2519517Y-42852882D02*
G01*
X2536062Y-42863938D01*
X2547118Y-42880483D01*
X2551000Y-42900000D01*
X2551000Y-45100000D01*
X2547118Y-45119517D01*
X2536062Y-45136062D01*
X2519517Y-45147118D01*
X2500000Y-45151000D01*
X1500000Y-45151000D01*
X1480483Y-45147118D01*
X1463938Y-45136062D01*
X1452882Y-45119517D01*
X1449000Y-45100000D01*
X1449000Y-42900000D01*
X1452882Y-42880483D01*
X1463938Y-42863938D01*
X1480483Y-42852882D01*
X1500000Y-42849000D01*
X2500000Y-42849000D01*
X2519517Y-42852882D01*
G37*
G36*
X64919517Y-43052882D02*
G01*
X64936062Y-43063938D01*
X64947118Y-43080483D01*
X64951000Y-43100000D01*
X64951000Y-44900000D01*
X64947118Y-44919517D01*
X64936062Y-44936062D01*
X64919517Y-44947118D01*
X64900000Y-44951000D01*
X63100000Y-44951000D01*
X63080483Y-44947118D01*
X63063938Y-44936062D01*
X63052882Y-44919517D01*
X63049000Y-44900000D01*
X63049000Y-43100000D01*
X63052882Y-43080483D01*
X63063938Y-43063938D01*
X63080483Y-43052882D01*
X63100000Y-43049000D01*
X64900000Y-43049000D01*
X64919517Y-43052882D01*
G37*
G36*
X61542553Y-43053579D02*
G01*
X61553214Y-43053579D01*
X61594865Y-43061864D01*
X61681916Y-43075651D01*
X61709918Y-43084749D01*
X61736061Y-43089950D01*
X61772956Y-43105232D01*
X61823784Y-43121748D01*
X61871399Y-43146009D01*
X61908298Y-43161293D01*
X61930463Y-43176103D01*
X61956693Y-43189468D01*
X62027990Y-43241268D01*
X62063308Y-43264867D01*
X62070846Y-43272405D01*
X62077370Y-43277145D01*
X62182854Y-43382629D01*
X62187593Y-43389152D01*
X62195133Y-43396692D01*
X62218734Y-43432014D01*
X62270531Y-43503306D01*
X62283894Y-43529533D01*
X62298707Y-43551702D01*
X62313993Y-43588605D01*
X62338251Y-43636215D01*
X62354764Y-43687035D01*
X62370050Y-43723939D01*
X62375251Y-43750086D01*
X62384348Y-43778083D01*
X62398134Y-43865125D01*
X62406421Y-43906786D01*
X62406421Y-43917447D01*
X62407683Y-43925415D01*
X62407683Y-44074584D01*
X62406421Y-44082551D01*
X62406421Y-44093214D01*
X62398133Y-44134877D01*
X62384348Y-44221916D01*
X62375251Y-44249910D01*
X62370050Y-44276061D01*
X62354762Y-44312968D01*
X62338251Y-44363784D01*
X62313995Y-44411388D01*
X62298707Y-44448298D01*
X62283892Y-44470470D01*
X62270531Y-44496693D01*
X62218742Y-44567973D01*
X62195133Y-44603308D01*
X62187591Y-44610849D01*
X62182854Y-44617370D01*
X62077370Y-44722854D01*
X62070849Y-44727591D01*
X62063308Y-44735133D01*
X62027973Y-44758742D01*
X61956693Y-44810531D01*
X61930470Y-44823892D01*
X61908298Y-44838707D01*
X61871388Y-44853995D01*
X61823784Y-44878251D01*
X61772968Y-44894762D01*
X61736061Y-44910050D01*
X61709910Y-44915251D01*
X61681916Y-44924348D01*
X61594875Y-44938133D01*
X61553214Y-44946421D01*
X61542553Y-44946421D01*
X61534585Y-44947683D01*
X61385415Y-44947683D01*
X61377447Y-44946421D01*
X61366786Y-44946421D01*
X61325125Y-44938134D01*
X61238083Y-44924348D01*
X61210086Y-44915251D01*
X61183939Y-44910050D01*
X61147035Y-44894764D01*
X61096215Y-44878251D01*
X61048605Y-44853993D01*
X61011702Y-44838707D01*
X60989533Y-44823894D01*
X60963306Y-44810531D01*
X60892014Y-44758734D01*
X60856692Y-44735133D01*
X60849152Y-44727593D01*
X60842629Y-44722854D01*
X60737145Y-44617370D01*
X60732405Y-44610846D01*
X60724867Y-44603308D01*
X60701268Y-44567990D01*
X60649468Y-44496693D01*
X60636103Y-44470463D01*
X60621293Y-44448298D01*
X60606009Y-44411399D01*
X60581748Y-44363784D01*
X60565232Y-44312956D01*
X60549950Y-44276061D01*
X60544749Y-44249918D01*
X60535651Y-44221916D01*
X60521864Y-44134867D01*
X60513579Y-44093214D01*
X60513579Y-44082552D01*
X60512317Y-44074584D01*
X60512317Y-43925415D01*
X60513579Y-43917446D01*
X60513579Y-43906786D01*
X60521863Y-43865136D01*
X60535651Y-43778083D01*
X60544750Y-43750078D01*
X60549950Y-43723939D01*
X60565231Y-43687046D01*
X60581748Y-43636215D01*
X60606011Y-43588595D01*
X60621293Y-43551702D01*
X60636101Y-43529539D01*
X60649468Y-43503306D01*
X60701277Y-43431996D01*
X60724867Y-43396692D01*
X60732402Y-43389156D01*
X60737145Y-43382629D01*
X60842629Y-43277145D01*
X60849156Y-43272402D01*
X60856692Y-43264867D01*
X60891996Y-43241277D01*
X60963306Y-43189468D01*
X60989539Y-43176101D01*
X61011702Y-43161293D01*
X61048595Y-43146011D01*
X61096215Y-43121748D01*
X61147046Y-43105231D01*
X61183939Y-43089950D01*
X61210078Y-43084750D01*
X61238083Y-43075651D01*
X61325136Y-43061863D01*
X61366786Y-43053579D01*
X61377447Y-43053579D01*
X61385415Y-43052317D01*
X61534585Y-43052317D01*
X61542553Y-43053579D01*
G37*
G36*
X98519517Y-42602882D02*
G01*
X98536062Y-42613938D01*
X98547118Y-42630483D01*
X98551000Y-42650000D01*
X98551000Y-44850000D01*
X98547118Y-44869517D01*
X98536062Y-44886062D01*
X98519517Y-44897118D01*
X98500000Y-44901000D01*
X97500000Y-44901000D01*
X97480483Y-44897118D01*
X97463938Y-44886062D01*
X97452882Y-44869517D01*
X97449000Y-44850000D01*
X97449000Y-42650000D01*
X97452882Y-42630483D01*
X97463938Y-42613938D01*
X97480483Y-42602882D01*
X97500000Y-42599000D01*
X98500000Y-42599000D01*
X98519517Y-42602882D01*
G37*
G36*
X32261546Y-41757797D02*
G01*
X32424728Y-41825389D01*
X32571588Y-41923518D01*
X32696482Y-42048412D01*
X32794611Y-42195272D01*
X32862203Y-42358454D01*
X32896661Y-42531687D01*
X32896661Y-42708313D01*
X32862203Y-42881546D01*
X32794611Y-43044728D01*
X32696482Y-43191588D01*
X32571588Y-43316482D01*
X32424728Y-43414611D01*
X32261546Y-43482203D01*
X32088313Y-43516661D01*
X31911687Y-43516661D01*
X31738454Y-43482203D01*
X31575272Y-43414611D01*
X31428412Y-43316482D01*
X31303518Y-43191588D01*
X31205389Y-43044728D01*
X31137797Y-42881546D01*
X31103339Y-42708313D01*
X31103339Y-42531687D01*
X31137797Y-42358454D01*
X31205389Y-42195272D01*
X31303518Y-42048412D01*
X31428412Y-41923518D01*
X31575272Y-41825389D01*
X31738454Y-41757797D01*
X31911687Y-41723339D01*
X32088313Y-41723339D01*
X32261546Y-41757797D01*
G37*
G36*
X54261546Y-41677797D02*
G01*
X54424728Y-41745389D01*
X54571588Y-41843518D01*
X54696482Y-41968412D01*
X54794611Y-42115272D01*
X54862203Y-42278454D01*
X54896661Y-42451687D01*
X54896661Y-42628313D01*
X54862203Y-42801546D01*
X54794611Y-42964728D01*
X54696482Y-43111588D01*
X54571588Y-43236482D01*
X54424728Y-43334611D01*
X54261546Y-43402203D01*
X54088313Y-43436661D01*
X53911687Y-43436661D01*
X53738454Y-43402203D01*
X53575272Y-43334611D01*
X53428412Y-43236482D01*
X53303518Y-43111588D01*
X53205389Y-42964728D01*
X53137797Y-42801546D01*
X53103339Y-42628313D01*
X53103339Y-42451687D01*
X53137797Y-42278454D01*
X53205389Y-42115272D01*
X53303518Y-41968412D01*
X53428412Y-41843518D01*
X53575272Y-41745389D01*
X53738454Y-41677797D01*
X53911687Y-41643339D01*
X54088313Y-41643339D01*
X54261546Y-41677797D01*
G37*
G36*
X56801546Y-41677797D02*
G01*
X56964728Y-41745389D01*
X57111588Y-41843518D01*
X57236482Y-41968412D01*
X57334611Y-42115272D01*
X57402203Y-42278454D01*
X57436661Y-42451687D01*
X57436661Y-42628313D01*
X57402203Y-42801546D01*
X57334611Y-42964728D01*
X57236482Y-43111588D01*
X57111588Y-43236482D01*
X56964728Y-43334611D01*
X56801546Y-43402203D01*
X56628313Y-43436661D01*
X56451687Y-43436661D01*
X56278454Y-43402203D01*
X56115272Y-43334611D01*
X55968412Y-43236482D01*
X55843518Y-43111588D01*
X55745389Y-42964728D01*
X55677797Y-42801546D01*
X55643339Y-42628313D01*
X55643339Y-42451687D01*
X55677797Y-42278454D01*
X55745389Y-42115272D01*
X55843518Y-41968412D01*
X55968412Y-41843518D01*
X56115272Y-41745389D01*
X56278454Y-41677797D01*
X56451687Y-41643339D01*
X56628313Y-41643339D01*
X56801546Y-41677797D01*
G37*
G36*
X72261546Y-41507797D02*
G01*
X72424728Y-41575389D01*
X72571588Y-41673518D01*
X72696482Y-41798412D01*
X72794611Y-41945272D01*
X72862203Y-42108454D01*
X72896661Y-42281687D01*
X72896661Y-42458313D01*
X72862203Y-42631546D01*
X72794611Y-42794728D01*
X72696482Y-42941588D01*
X72571588Y-43066482D01*
X72424728Y-43164611D01*
X72261546Y-43232203D01*
X72088313Y-43266661D01*
X71911687Y-43266661D01*
X71738454Y-43232203D01*
X71575272Y-43164611D01*
X71428412Y-43066482D01*
X71303518Y-42941588D01*
X71205389Y-42794728D01*
X71137797Y-42631546D01*
X71103339Y-42458313D01*
X71103339Y-42281687D01*
X71137797Y-42108454D01*
X71205389Y-41945272D01*
X71303518Y-41798412D01*
X71428412Y-41673518D01*
X71575272Y-41575389D01*
X71738454Y-41507797D01*
X71911687Y-41473339D01*
X72088313Y-41473339D01*
X72261546Y-41507797D01*
G37*
G36*
X9519517Y-40952882D02*
G01*
X9536062Y-40963938D01*
X9547118Y-40980483D01*
X9551000Y-41000000D01*
X9551000Y-42000000D01*
X9547118Y-42019517D01*
X9536062Y-42036062D01*
X9519517Y-42047118D01*
X9500000Y-42051000D01*
X7300000Y-42051000D01*
X7280483Y-42047118D01*
X7263938Y-42036062D01*
X7252882Y-42019517D01*
X7249000Y-42000000D01*
X7249000Y-41000000D01*
X7252882Y-40980483D01*
X7263938Y-40963938D01*
X7280483Y-40952882D01*
X7300000Y-40949000D01*
X9500000Y-40949000D01*
X9519517Y-40952882D01*
G37*
G36*
X32261546Y-39217797D02*
G01*
X32424728Y-39285389D01*
X32571588Y-39383518D01*
X32696482Y-39508412D01*
X32794611Y-39655272D01*
X32862203Y-39818454D01*
X32896661Y-39991687D01*
X32896661Y-40168313D01*
X32862203Y-40341546D01*
X32794611Y-40504728D01*
X32696482Y-40651588D01*
X32571588Y-40776482D01*
X32424728Y-40874611D01*
X32261546Y-40942203D01*
X32088313Y-40976661D01*
X31911687Y-40976661D01*
X31738454Y-40942203D01*
X31575272Y-40874611D01*
X31428412Y-40776482D01*
X31303518Y-40651588D01*
X31205389Y-40504728D01*
X31137797Y-40341546D01*
X31103339Y-40168313D01*
X31103339Y-39991687D01*
X31137797Y-39818454D01*
X31205389Y-39655272D01*
X31303518Y-39508412D01*
X31428412Y-39383518D01*
X31575272Y-39285389D01*
X31738454Y-39217797D01*
X31911687Y-39183339D01*
X32088313Y-39183339D01*
X32261546Y-39217797D01*
G37*
G36*
X54869517Y-39102882D02*
G01*
X54886062Y-39113938D01*
X54897118Y-39130483D01*
X54901000Y-39150000D01*
X54901000Y-40850000D01*
X54897118Y-40869517D01*
X54886062Y-40886062D01*
X54869517Y-40897118D01*
X54850000Y-40901000D01*
X53150000Y-40901000D01*
X53130483Y-40897118D01*
X53113938Y-40886062D01*
X53102882Y-40869517D01*
X53099000Y-40850000D01*
X53099000Y-39150000D01*
X53102882Y-39130483D01*
X53113938Y-39113938D01*
X53130483Y-39102882D01*
X53150000Y-39099000D01*
X54850000Y-39099000D01*
X54869517Y-39102882D01*
G37*
G36*
X87519517Y-38602882D02*
G01*
X87536062Y-38613938D01*
X87547118Y-38630483D01*
X87551000Y-38650000D01*
X87551000Y-40850000D01*
X87547118Y-40869517D01*
X87536062Y-40886062D01*
X87519517Y-40897118D01*
X87500000Y-40901000D01*
X86500000Y-40901000D01*
X86480483Y-40897118D01*
X86463938Y-40886062D01*
X86452882Y-40869517D01*
X86449000Y-40850000D01*
X86449000Y-38650000D01*
X86452882Y-38630483D01*
X86463938Y-38613938D01*
X86480483Y-38602882D01*
X86500000Y-38599000D01*
X87500000Y-38599000D01*
X87519517Y-38602882D01*
G37*
G36*
X56801546Y-39137797D02*
G01*
X56964728Y-39205389D01*
X57111588Y-39303518D01*
X57236482Y-39428412D01*
X57334611Y-39575272D01*
X57402203Y-39738454D01*
X57436661Y-39911687D01*
X57436661Y-40088313D01*
X57402203Y-40261546D01*
X57334611Y-40424728D01*
X57236482Y-40571588D01*
X57111588Y-40696482D01*
X56964728Y-40794611D01*
X56801546Y-40862203D01*
X56628313Y-40896661D01*
X56451687Y-40896661D01*
X56278454Y-40862203D01*
X56115272Y-40794611D01*
X55968412Y-40696482D01*
X55843518Y-40571588D01*
X55745389Y-40424728D01*
X55677797Y-40261546D01*
X55643339Y-40088313D01*
X55643339Y-39911687D01*
X55677797Y-39738454D01*
X55745389Y-39575272D01*
X55843518Y-39428412D01*
X55968412Y-39303518D01*
X56115272Y-39205389D01*
X56278454Y-39137797D01*
X56451687Y-39103339D01*
X56628313Y-39103339D01*
X56801546Y-39137797D01*
G37*
G36*
X72261546Y-38967797D02*
G01*
X72424728Y-39035389D01*
X72571588Y-39133518D01*
X72696482Y-39258412D01*
X72794611Y-39405272D01*
X72862203Y-39568454D01*
X72896661Y-39741687D01*
X72896661Y-39918313D01*
X72862203Y-40091546D01*
X72794611Y-40254728D01*
X72696482Y-40401588D01*
X72571588Y-40526482D01*
X72424728Y-40624611D01*
X72261546Y-40692203D01*
X72088313Y-40726661D01*
X71911687Y-40726661D01*
X71738454Y-40692203D01*
X71575272Y-40624611D01*
X71428412Y-40526482D01*
X71303518Y-40401588D01*
X71205389Y-40254728D01*
X71137797Y-40091546D01*
X71103339Y-39918313D01*
X71103339Y-39741687D01*
X71137797Y-39568454D01*
X71205389Y-39405272D01*
X71303518Y-39258412D01*
X71428412Y-39133518D01*
X71575272Y-39035389D01*
X71738454Y-38967797D01*
X71911687Y-38933339D01*
X72088313Y-38933339D01*
X72261546Y-38967797D01*
G37*
G36*
X95719517Y-38702882D02*
G01*
X95736062Y-38713938D01*
X95747118Y-38730483D01*
X95751000Y-38750000D01*
X95751000Y-39750000D01*
X95747118Y-39769517D01*
X95736062Y-39786062D01*
X95719517Y-39797118D01*
X95700000Y-39801000D01*
X93500000Y-39801000D01*
X93480483Y-39797118D01*
X93463938Y-39786062D01*
X93452882Y-39769517D01*
X93449000Y-39750000D01*
X93449000Y-38750000D01*
X93452882Y-38730483D01*
X93463938Y-38713938D01*
X93480483Y-38702882D01*
X93500000Y-38699000D01*
X95700000Y-38699000D01*
X95719517Y-38702882D01*
G37*
G36*
X10919517Y-38252882D02*
G01*
X10936062Y-38263938D01*
X10947118Y-38280483D01*
X10951000Y-38300000D01*
X10951000Y-39300000D01*
X10947118Y-39319517D01*
X10936062Y-39336062D01*
X10919517Y-39347118D01*
X10900000Y-39351000D01*
X8700000Y-39351000D01*
X8680483Y-39347118D01*
X8663938Y-39336062D01*
X8652882Y-39319517D01*
X8649000Y-39300000D01*
X8649000Y-38300000D01*
X8652882Y-38280483D01*
X8663938Y-38263938D01*
X8680483Y-38252882D01*
X8700000Y-38249000D01*
X10900000Y-38249000D01*
X10919517Y-38252882D01*
G37*
G36*
X32261546Y-36677797D02*
G01*
X32424728Y-36745389D01*
X32571588Y-36843518D01*
X32696482Y-36968412D01*
X32794611Y-37115272D01*
X32862203Y-37278454D01*
X32896661Y-37451687D01*
X32896661Y-37628313D01*
X32862203Y-37801546D01*
X32794611Y-37964728D01*
X32696482Y-38111588D01*
X32571588Y-38236482D01*
X32424728Y-38334611D01*
X32261546Y-38402203D01*
X32088313Y-38436661D01*
X31911687Y-38436661D01*
X31738454Y-38402203D01*
X31575272Y-38334611D01*
X31428412Y-38236482D01*
X31303518Y-38111588D01*
X31205389Y-37964728D01*
X31137797Y-37801546D01*
X31103339Y-37628313D01*
X31103339Y-37451687D01*
X31137797Y-37278454D01*
X31205389Y-37115272D01*
X31303518Y-36968412D01*
X31428412Y-36843518D01*
X31575272Y-36745389D01*
X31738454Y-36677797D01*
X31911687Y-36643339D01*
X32088313Y-36643339D01*
X32261546Y-36677797D01*
G37*
G36*
X72261546Y-36427797D02*
G01*
X72424728Y-36495389D01*
X72571588Y-36593518D01*
X72696482Y-36718412D01*
X72794611Y-36865272D01*
X72862203Y-37028454D01*
X72896661Y-37201687D01*
X72896661Y-37378313D01*
X72862203Y-37551546D01*
X72794611Y-37714728D01*
X72696482Y-37861588D01*
X72571588Y-37986482D01*
X72424728Y-38084611D01*
X72261546Y-38152203D01*
X72088313Y-38186661D01*
X71911687Y-38186661D01*
X71738454Y-38152203D01*
X71575272Y-38084611D01*
X71428412Y-37986482D01*
X71303518Y-37861588D01*
X71205389Y-37714728D01*
X71137797Y-37551546D01*
X71103339Y-37378313D01*
X71103339Y-37201687D01*
X71137797Y-37028454D01*
X71205389Y-36865272D01*
X71303518Y-36718412D01*
X71428412Y-36593518D01*
X71575272Y-36495389D01*
X71738454Y-36427797D01*
X71911687Y-36393339D01*
X72088313Y-36393339D01*
X72261546Y-36427797D01*
G37*
G36*
X13519517Y-34352882D02*
G01*
X13536062Y-34363938D01*
X13547118Y-34380483D01*
X13551000Y-34400000D01*
X13551000Y-36600000D01*
X13547118Y-36619517D01*
X13536062Y-36636062D01*
X13519517Y-36647118D01*
X13500000Y-36651000D01*
X12500000Y-36651000D01*
X12480483Y-36647118D01*
X12463938Y-36636062D01*
X12452882Y-36619517D01*
X12449000Y-36600000D01*
X12449000Y-34400000D01*
X12452882Y-34380483D01*
X12463938Y-34363938D01*
X12480483Y-34352882D01*
X12500000Y-34349000D01*
X13500000Y-34349000D01*
X13519517Y-34352882D01*
G37*
G36*
X6519517Y-35452882D02*
G01*
X6536062Y-35463938D01*
X6547118Y-35480483D01*
X6551000Y-35500000D01*
X6551000Y-36500000D01*
X6547118Y-36519517D01*
X6536062Y-36536062D01*
X6519517Y-36547118D01*
X6500000Y-36551000D01*
X4300000Y-36551000D01*
X4280483Y-36547118D01*
X4263938Y-36536062D01*
X4252882Y-36519517D01*
X4249000Y-36500000D01*
X4249000Y-35500000D01*
X4252882Y-35480483D01*
X4263938Y-35463938D01*
X4280483Y-35452882D01*
X4300000Y-35449000D01*
X6500000Y-35449000D01*
X6519517Y-35452882D01*
G37*
G36*
X32869517Y-34102882D02*
G01*
X32886062Y-34113938D01*
X32897118Y-34130483D01*
X32901000Y-34150000D01*
X32901000Y-35850000D01*
X32897118Y-35869517D01*
X32886062Y-35886062D01*
X32869517Y-35897118D01*
X32850000Y-35901000D01*
X31150000Y-35901000D01*
X31130483Y-35897118D01*
X31113938Y-35886062D01*
X31102882Y-35869517D01*
X31099000Y-35850000D01*
X31099000Y-34150000D01*
X31102882Y-34130483D01*
X31113938Y-34113938D01*
X31130483Y-34102882D01*
X31150000Y-34099000D01*
X32850000Y-34099000D01*
X32869517Y-34102882D01*
G37*
G36*
X72869517Y-33852882D02*
G01*
X72886062Y-33863938D01*
X72897118Y-33880483D01*
X72901000Y-33900000D01*
X72901000Y-35600000D01*
X72897118Y-35619517D01*
X72886062Y-35636062D01*
X72869517Y-35647118D01*
X72850000Y-35651000D01*
X71150000Y-35651000D01*
X71130483Y-35647118D01*
X71113938Y-35636062D01*
X71102882Y-35619517D01*
X71099000Y-35600000D01*
X71099000Y-33900000D01*
X71102882Y-33880483D01*
X71113938Y-33863938D01*
X71130483Y-33852882D01*
X71150000Y-33849000D01*
X72850000Y-33849000D01*
X72869517Y-33852882D01*
G37*
G36*
X28261546Y-31917797D02*
G01*
X28424728Y-31985389D01*
X28571588Y-32083518D01*
X28696482Y-32208412D01*
X28794611Y-32355272D01*
X28862203Y-32518454D01*
X28896661Y-32691687D01*
X28896661Y-32868313D01*
X28862203Y-33041546D01*
X28794611Y-33204728D01*
X28696482Y-33351588D01*
X28571588Y-33476482D01*
X28424728Y-33574611D01*
X28261546Y-33642203D01*
X28088313Y-33676661D01*
X27911687Y-33676661D01*
X27738454Y-33642203D01*
X27575272Y-33574611D01*
X27428412Y-33476482D01*
X27303518Y-33351588D01*
X27205389Y-33204728D01*
X27137797Y-33041546D01*
X27103339Y-32868313D01*
X27103339Y-32691687D01*
X27137797Y-32518454D01*
X27205389Y-32355272D01*
X27303518Y-32208412D01*
X27428412Y-32083518D01*
X27575272Y-31985389D01*
X27738454Y-31917797D01*
X27911687Y-31883339D01*
X28088313Y-31883339D01*
X28261546Y-31917797D01*
G37*
G36*
X68261546Y-31917797D02*
G01*
X68424728Y-31985389D01*
X68571588Y-32083518D01*
X68696482Y-32208412D01*
X68794611Y-32355272D01*
X68862203Y-32518454D01*
X68896661Y-32691687D01*
X68896661Y-32868313D01*
X68862203Y-33041546D01*
X68794611Y-33204728D01*
X68696482Y-33351588D01*
X68571588Y-33476482D01*
X68424728Y-33574611D01*
X68261546Y-33642203D01*
X68088313Y-33676661D01*
X67911687Y-33676661D01*
X67738454Y-33642203D01*
X67575272Y-33574611D01*
X67428412Y-33476482D01*
X67303518Y-33351588D01*
X67205389Y-33204728D01*
X67137797Y-33041546D01*
X67103339Y-32868313D01*
X67103339Y-32691687D01*
X67137797Y-32518454D01*
X67205389Y-32355272D01*
X67303518Y-32208412D01*
X67428412Y-32083518D01*
X67575272Y-31985389D01*
X67738454Y-31917797D01*
X67911687Y-31883339D01*
X68088313Y-31883339D01*
X68261546Y-31917797D01*
G37*
G36*
X2519517Y-30352882D02*
G01*
X2536062Y-30363938D01*
X2547118Y-30380483D01*
X2551000Y-30400000D01*
X2551000Y-32600000D01*
X2547118Y-32619517D01*
X2536062Y-32636062D01*
X2519517Y-32647118D01*
X2500000Y-32651000D01*
X1500000Y-32651000D01*
X1480483Y-32647118D01*
X1463938Y-32636062D01*
X1452882Y-32619517D01*
X1449000Y-32600000D01*
X1449000Y-30400000D01*
X1452882Y-30380483D01*
X1463938Y-30363938D01*
X1480483Y-30352882D01*
X1500000Y-30349000D01*
X2500000Y-30349000D01*
X2519517Y-30352882D01*
G37*
G36*
X64919517Y-30552882D02*
G01*
X64936062Y-30563938D01*
X64947118Y-30580483D01*
X64951000Y-30600000D01*
X64951000Y-32400000D01*
X64947118Y-32419517D01*
X64936062Y-32436062D01*
X64919517Y-32447118D01*
X64900000Y-32451000D01*
X63100000Y-32451000D01*
X63080483Y-32447118D01*
X63063938Y-32436062D01*
X63052882Y-32419517D01*
X63049000Y-32400000D01*
X63049000Y-30600000D01*
X63052882Y-30580483D01*
X63063938Y-30563938D01*
X63080483Y-30552882D01*
X63100000Y-30549000D01*
X64900000Y-30549000D01*
X64919517Y-30552882D01*
G37*
G36*
X61542553Y-30553579D02*
G01*
X61553214Y-30553579D01*
X61594865Y-30561864D01*
X61681916Y-30575651D01*
X61709918Y-30584749D01*
X61736061Y-30589950D01*
X61772956Y-30605232D01*
X61823784Y-30621748D01*
X61871399Y-30646009D01*
X61908298Y-30661293D01*
X61930463Y-30676103D01*
X61956693Y-30689468D01*
X62027990Y-30741268D01*
X62063308Y-30764867D01*
X62070846Y-30772405D01*
X62077370Y-30777145D01*
X62182854Y-30882629D01*
X62187593Y-30889152D01*
X62195133Y-30896692D01*
X62218734Y-30932014D01*
X62270531Y-31003306D01*
X62283894Y-31029533D01*
X62298707Y-31051702D01*
X62313993Y-31088605D01*
X62338251Y-31136215D01*
X62354764Y-31187035D01*
X62370050Y-31223939D01*
X62375251Y-31250086D01*
X62384348Y-31278083D01*
X62398134Y-31365125D01*
X62406421Y-31406786D01*
X62406421Y-31417447D01*
X62407683Y-31425415D01*
X62407683Y-31574584D01*
X62406421Y-31582551D01*
X62406421Y-31593214D01*
X62398133Y-31634877D01*
X62384348Y-31721916D01*
X62375251Y-31749910D01*
X62370050Y-31776061D01*
X62354762Y-31812968D01*
X62338251Y-31863784D01*
X62313995Y-31911388D01*
X62298707Y-31948298D01*
X62283892Y-31970470D01*
X62270531Y-31996693D01*
X62218742Y-32067973D01*
X62195133Y-32103308D01*
X62187591Y-32110849D01*
X62182854Y-32117370D01*
X62077370Y-32222854D01*
X62070849Y-32227591D01*
X62063308Y-32235133D01*
X62027973Y-32258742D01*
X61956693Y-32310531D01*
X61930470Y-32323892D01*
X61908298Y-32338707D01*
X61871388Y-32353995D01*
X61823784Y-32378251D01*
X61772968Y-32394762D01*
X61736061Y-32410050D01*
X61709910Y-32415251D01*
X61681916Y-32424348D01*
X61594875Y-32438133D01*
X61553214Y-32446421D01*
X61542553Y-32446421D01*
X61534585Y-32447683D01*
X61385415Y-32447683D01*
X61377447Y-32446421D01*
X61366786Y-32446421D01*
X61325125Y-32438134D01*
X61238083Y-32424348D01*
X61210086Y-32415251D01*
X61183939Y-32410050D01*
X61147035Y-32394764D01*
X61096215Y-32378251D01*
X61048605Y-32353993D01*
X61011702Y-32338707D01*
X60989533Y-32323894D01*
X60963306Y-32310531D01*
X60892014Y-32258734D01*
X60856692Y-32235133D01*
X60849152Y-32227593D01*
X60842629Y-32222854D01*
X60737145Y-32117370D01*
X60732405Y-32110846D01*
X60724867Y-32103308D01*
X60701268Y-32067990D01*
X60649468Y-31996693D01*
X60636103Y-31970463D01*
X60621293Y-31948298D01*
X60606009Y-31911399D01*
X60581748Y-31863784D01*
X60565232Y-31812956D01*
X60549950Y-31776061D01*
X60544749Y-31749918D01*
X60535651Y-31721916D01*
X60521864Y-31634867D01*
X60513579Y-31593214D01*
X60513579Y-31582552D01*
X60512317Y-31574584D01*
X60512317Y-31425415D01*
X60513579Y-31417446D01*
X60513579Y-31406786D01*
X60521863Y-31365136D01*
X60535651Y-31278083D01*
X60544750Y-31250078D01*
X60549950Y-31223939D01*
X60565231Y-31187046D01*
X60581748Y-31136215D01*
X60606011Y-31088595D01*
X60621293Y-31051702D01*
X60636101Y-31029539D01*
X60649468Y-31003306D01*
X60701277Y-30931996D01*
X60724867Y-30896692D01*
X60732402Y-30889156D01*
X60737145Y-30882629D01*
X60842629Y-30777145D01*
X60849156Y-30772402D01*
X60856692Y-30764867D01*
X60891996Y-30741277D01*
X60963306Y-30689468D01*
X60989539Y-30676101D01*
X61011702Y-30661293D01*
X61048595Y-30646011D01*
X61096215Y-30621748D01*
X61147046Y-30605231D01*
X61183939Y-30589950D01*
X61210078Y-30584750D01*
X61238083Y-30575651D01*
X61325136Y-30561863D01*
X61366786Y-30553579D01*
X61377447Y-30553579D01*
X61385415Y-30552317D01*
X61534585Y-30552317D01*
X61542553Y-30553579D01*
G37*
G36*
X96919517Y-30302882D02*
G01*
X96936062Y-30313938D01*
X96947118Y-30330483D01*
X96951000Y-30350000D01*
X96951000Y-32150000D01*
X96947118Y-32169517D01*
X96936062Y-32186062D01*
X96919517Y-32197118D01*
X96900000Y-32201000D01*
X95100000Y-32201000D01*
X95080483Y-32197118D01*
X95063938Y-32186062D01*
X95052882Y-32169517D01*
X95049000Y-32150000D01*
X95049000Y-30350000D01*
X95052882Y-30330483D01*
X95063938Y-30313938D01*
X95080483Y-30302882D01*
X95100000Y-30299000D01*
X96900000Y-30299000D01*
X96919517Y-30302882D01*
G37*
G36*
X98622553Y-30303579D02*
G01*
X98633214Y-30303579D01*
X98674865Y-30311864D01*
X98761916Y-30325651D01*
X98789918Y-30334749D01*
X98816061Y-30339950D01*
X98852956Y-30355232D01*
X98903784Y-30371748D01*
X98951399Y-30396009D01*
X98988298Y-30411293D01*
X99010463Y-30426103D01*
X99036693Y-30439468D01*
X99107990Y-30491268D01*
X99143308Y-30514867D01*
X99150846Y-30522405D01*
X99157370Y-30527145D01*
X99262854Y-30632629D01*
X99267593Y-30639152D01*
X99275133Y-30646692D01*
X99298734Y-30682014D01*
X99350531Y-30753306D01*
X99363894Y-30779533D01*
X99378707Y-30801702D01*
X99393993Y-30838605D01*
X99418251Y-30886215D01*
X99434764Y-30937035D01*
X99450050Y-30973939D01*
X99455251Y-31000086D01*
X99464348Y-31028083D01*
X99478134Y-31115125D01*
X99486421Y-31156786D01*
X99486421Y-31167447D01*
X99487683Y-31175415D01*
X99487683Y-31324584D01*
X99486421Y-31332551D01*
X99486421Y-31343214D01*
X99478133Y-31384877D01*
X99464348Y-31471916D01*
X99455251Y-31499910D01*
X99450050Y-31526061D01*
X99434762Y-31562968D01*
X99418251Y-31613784D01*
X99393995Y-31661388D01*
X99378707Y-31698298D01*
X99363892Y-31720470D01*
X99350531Y-31746693D01*
X99298742Y-31817973D01*
X99275133Y-31853308D01*
X99267591Y-31860849D01*
X99262854Y-31867370D01*
X99157370Y-31972854D01*
X99150849Y-31977591D01*
X99143308Y-31985133D01*
X99107973Y-32008742D01*
X99036693Y-32060531D01*
X99010470Y-32073892D01*
X98988298Y-32088707D01*
X98951388Y-32103995D01*
X98903784Y-32128251D01*
X98852968Y-32144762D01*
X98816061Y-32160050D01*
X98789910Y-32165251D01*
X98761916Y-32174348D01*
X98674875Y-32188133D01*
X98633214Y-32196421D01*
X98622553Y-32196421D01*
X98614585Y-32197683D01*
X98465415Y-32197683D01*
X98457447Y-32196421D01*
X98446786Y-32196421D01*
X98405125Y-32188134D01*
X98318083Y-32174348D01*
X98290086Y-32165251D01*
X98263939Y-32160050D01*
X98227035Y-32144764D01*
X98176215Y-32128251D01*
X98128605Y-32103993D01*
X98091702Y-32088707D01*
X98069533Y-32073894D01*
X98043306Y-32060531D01*
X97972014Y-32008734D01*
X97936692Y-31985133D01*
X97929152Y-31977593D01*
X97922629Y-31972854D01*
X97817145Y-31867370D01*
X97812405Y-31860846D01*
X97804867Y-31853308D01*
X97781268Y-31817990D01*
X97729468Y-31746693D01*
X97716103Y-31720463D01*
X97701293Y-31698298D01*
X97686009Y-31661399D01*
X97661748Y-31613784D01*
X97645232Y-31562956D01*
X97629950Y-31526061D01*
X97624749Y-31499918D01*
X97615651Y-31471916D01*
X97601864Y-31384867D01*
X97593579Y-31343214D01*
X97593579Y-31332552D01*
X97592317Y-31324584D01*
X97592317Y-31175415D01*
X97593579Y-31167446D01*
X97593579Y-31156786D01*
X97601863Y-31115136D01*
X97615651Y-31028083D01*
X97624750Y-31000078D01*
X97629950Y-30973939D01*
X97645231Y-30937046D01*
X97661748Y-30886215D01*
X97686011Y-30838595D01*
X97701293Y-30801702D01*
X97716101Y-30779539D01*
X97729468Y-30753306D01*
X97781277Y-30681996D01*
X97804867Y-30646692D01*
X97812402Y-30639156D01*
X97817145Y-30632629D01*
X97922629Y-30527145D01*
X97929156Y-30522402D01*
X97936692Y-30514867D01*
X97971996Y-30491277D01*
X98043306Y-30439468D01*
X98069539Y-30426101D01*
X98091702Y-30411293D01*
X98128595Y-30396011D01*
X98176215Y-30371748D01*
X98227046Y-30355231D01*
X98263939Y-30339950D01*
X98290078Y-30334750D01*
X98318083Y-30325651D01*
X98405136Y-30311863D01*
X98446786Y-30303579D01*
X98457447Y-30303579D01*
X98465415Y-30302317D01*
X98614585Y-30302317D01*
X98622553Y-30303579D01*
G37*
G36*
X28261546Y-29377797D02*
G01*
X28424728Y-29445389D01*
X28571588Y-29543518D01*
X28696482Y-29668412D01*
X28794611Y-29815272D01*
X28862203Y-29978454D01*
X28896661Y-30151687D01*
X28896661Y-30328313D01*
X28862203Y-30501546D01*
X28794611Y-30664728D01*
X28696482Y-30811588D01*
X28571588Y-30936482D01*
X28424728Y-31034611D01*
X28261546Y-31102203D01*
X28088313Y-31136661D01*
X27911687Y-31136661D01*
X27738454Y-31102203D01*
X27575272Y-31034611D01*
X27428412Y-30936482D01*
X27303518Y-30811588D01*
X27205389Y-30664728D01*
X27137797Y-30501546D01*
X27103339Y-30328313D01*
X27103339Y-30151687D01*
X27137797Y-29978454D01*
X27205389Y-29815272D01*
X27303518Y-29668412D01*
X27428412Y-29543518D01*
X27575272Y-29445389D01*
X27738454Y-29377797D01*
X27911687Y-29343339D01*
X28088313Y-29343339D01*
X28261546Y-29377797D01*
G37*
G36*
X68261546Y-29377797D02*
G01*
X68424728Y-29445389D01*
X68571588Y-29543518D01*
X68696482Y-29668412D01*
X68794611Y-29815272D01*
X68862203Y-29978454D01*
X68896661Y-30151687D01*
X68896661Y-30328313D01*
X68862203Y-30501546D01*
X68794611Y-30664728D01*
X68696482Y-30811588D01*
X68571588Y-30936482D01*
X68424728Y-31034611D01*
X68261546Y-31102203D01*
X68088313Y-31136661D01*
X67911687Y-31136661D01*
X67738454Y-31102203D01*
X67575272Y-31034611D01*
X67428412Y-30936482D01*
X67303518Y-30811588D01*
X67205389Y-30664728D01*
X67137797Y-30501546D01*
X67103339Y-30328313D01*
X67103339Y-30151687D01*
X67137797Y-29978454D01*
X67205389Y-29815272D01*
X67303518Y-29668412D01*
X67428412Y-29543518D01*
X67575272Y-29445389D01*
X67738454Y-29377797D01*
X67911687Y-29343339D01*
X68088313Y-29343339D01*
X68261546Y-29377797D01*
G37*
G36*
X9519517Y-28452882D02*
G01*
X9536062Y-28463938D01*
X9547118Y-28480483D01*
X9551000Y-28500000D01*
X9551000Y-29500000D01*
X9547118Y-29519517D01*
X9536062Y-29536062D01*
X9519517Y-29547118D01*
X9500000Y-29551000D01*
X7300000Y-29551000D01*
X7280483Y-29547118D01*
X7263938Y-29536062D01*
X7252882Y-29519517D01*
X7249000Y-29500000D01*
X7249000Y-28500000D01*
X7252882Y-28480483D01*
X7263938Y-28463938D01*
X7280483Y-28452882D01*
X7300000Y-28449000D01*
X9500000Y-28449000D01*
X9519517Y-28452882D01*
G37*
G36*
X28261546Y-26837797D02*
G01*
X28424728Y-26905389D01*
X28571588Y-27003518D01*
X28696482Y-27128412D01*
X28794611Y-27275272D01*
X28862203Y-27438454D01*
X28896661Y-27611687D01*
X28896661Y-27788313D01*
X28862203Y-27961546D01*
X28794611Y-28124728D01*
X28696482Y-28271588D01*
X28571588Y-28396482D01*
X28424728Y-28494611D01*
X28261546Y-28562203D01*
X28088313Y-28596661D01*
X27911687Y-28596661D01*
X27738454Y-28562203D01*
X27575272Y-28494611D01*
X27428412Y-28396482D01*
X27303518Y-28271588D01*
X27205389Y-28124728D01*
X27137797Y-27961546D01*
X27103339Y-27788313D01*
X27103339Y-27611687D01*
X27137797Y-27438454D01*
X27205389Y-27275272D01*
X27303518Y-27128412D01*
X27428412Y-27003518D01*
X27575272Y-26905389D01*
X27738454Y-26837797D01*
X27911687Y-26803339D01*
X28088313Y-26803339D01*
X28261546Y-26837797D01*
G37*
G36*
X68261546Y-26837797D02*
G01*
X68424728Y-26905389D01*
X68571588Y-27003518D01*
X68696482Y-27128412D01*
X68794611Y-27275272D01*
X68862203Y-27438454D01*
X68896661Y-27611687D01*
X68896661Y-27788313D01*
X68862203Y-27961546D01*
X68794611Y-28124728D01*
X68696482Y-28271588D01*
X68571588Y-28396482D01*
X68424728Y-28494611D01*
X68261546Y-28562203D01*
X68088313Y-28596661D01*
X67911687Y-28596661D01*
X67738454Y-28562203D01*
X67575272Y-28494611D01*
X67428412Y-28396482D01*
X67303518Y-28271588D01*
X67205389Y-28124728D01*
X67137797Y-27961546D01*
X67103339Y-27788313D01*
X67103339Y-27611687D01*
X67137797Y-27438454D01*
X67205389Y-27275272D01*
X67303518Y-27128412D01*
X67428412Y-27003518D01*
X67575272Y-26905389D01*
X67738454Y-26837797D01*
X67911687Y-26803339D01*
X68088313Y-26803339D01*
X68261546Y-26837797D01*
G37*
G36*
X10919517Y-25752882D02*
G01*
X10936062Y-25763938D01*
X10947118Y-25780483D01*
X10951000Y-25800000D01*
X10951000Y-26800000D01*
X10947118Y-26819517D01*
X10936062Y-26836062D01*
X10919517Y-26847118D01*
X10900000Y-26851000D01*
X8700000Y-26851000D01*
X8680483Y-26847118D01*
X8663938Y-26836062D01*
X8652882Y-26819517D01*
X8649000Y-26800000D01*
X8649000Y-25800000D01*
X8652882Y-25780483D01*
X8663938Y-25763938D01*
X8680483Y-25752882D01*
X8700000Y-25749000D01*
X10900000Y-25749000D01*
X10919517Y-25752882D01*
G37*
G36*
X28261546Y-24297797D02*
G01*
X28424728Y-24365389D01*
X28571588Y-24463518D01*
X28696482Y-24588412D01*
X28794611Y-24735272D01*
X28862203Y-24898454D01*
X28896661Y-25071687D01*
X28896661Y-25248313D01*
X28862203Y-25421546D01*
X28794611Y-25584728D01*
X28696482Y-25731588D01*
X28571588Y-25856482D01*
X28424728Y-25954611D01*
X28261546Y-26022203D01*
X28088313Y-26056661D01*
X27911687Y-26056661D01*
X27738454Y-26022203D01*
X27575272Y-25954611D01*
X27428412Y-25856482D01*
X27303518Y-25731588D01*
X27205389Y-25584728D01*
X27137797Y-25421546D01*
X27103339Y-25248313D01*
X27103339Y-25071687D01*
X27137797Y-24898454D01*
X27205389Y-24735272D01*
X27303518Y-24588412D01*
X27428412Y-24463518D01*
X27575272Y-24365389D01*
X27738454Y-24297797D01*
X27911687Y-24263339D01*
X28088313Y-24263339D01*
X28261546Y-24297797D01*
G37*
G36*
X68261546Y-24297797D02*
G01*
X68424728Y-24365389D01*
X68571588Y-24463518D01*
X68696482Y-24588412D01*
X68794611Y-24735272D01*
X68862203Y-24898454D01*
X68896661Y-25071687D01*
X68896661Y-25248313D01*
X68862203Y-25421546D01*
X68794611Y-25584728D01*
X68696482Y-25731588D01*
X68571588Y-25856482D01*
X68424728Y-25954611D01*
X68261546Y-26022203D01*
X68088313Y-26056661D01*
X67911687Y-26056661D01*
X67738454Y-26022203D01*
X67575272Y-25954611D01*
X67428412Y-25856482D01*
X67303518Y-25731588D01*
X67205389Y-25584728D01*
X67137797Y-25421546D01*
X67103339Y-25248313D01*
X67103339Y-25071687D01*
X67137797Y-24898454D01*
X67205389Y-24735272D01*
X67303518Y-24588412D01*
X67428412Y-24463518D01*
X67575272Y-24365389D01*
X67738454Y-24297797D01*
X67911687Y-24263339D01*
X68088313Y-24263339D01*
X68261546Y-24297797D01*
G37*
G36*
X91319517Y-23402882D02*
G01*
X91336062Y-23413938D01*
X91347118Y-23430483D01*
X91351000Y-23450000D01*
X91351000Y-24450000D01*
X91347118Y-24469517D01*
X91336062Y-24486062D01*
X91319517Y-24497118D01*
X91300000Y-24501000D01*
X89100000Y-24501000D01*
X89080483Y-24497118D01*
X89063938Y-24486062D01*
X89052882Y-24469517D01*
X89049000Y-24450000D01*
X89049000Y-23450000D01*
X89052882Y-23430483D01*
X89063938Y-23413938D01*
X89080483Y-23402882D01*
X89100000Y-23399000D01*
X91300000Y-23399000D01*
X91319517Y-23402882D01*
G37*
G36*
X13519517Y-21852882D02*
G01*
X13536062Y-21863938D01*
X13547118Y-21880483D01*
X13551000Y-21900000D01*
X13551000Y-24100000D01*
X13547118Y-24119517D01*
X13536062Y-24136062D01*
X13519517Y-24147118D01*
X13500000Y-24151000D01*
X12500000Y-24151000D01*
X12480483Y-24147118D01*
X12463938Y-24136062D01*
X12452882Y-24119517D01*
X12449000Y-24100000D01*
X12449000Y-21900000D01*
X12452882Y-21880483D01*
X12463938Y-21863938D01*
X12480483Y-21852882D01*
X12500000Y-21849000D01*
X13500000Y-21849000D01*
X13519517Y-21852882D01*
G37*
G36*
X6519517Y-22952882D02*
G01*
X6536062Y-22963938D01*
X6547118Y-22980483D01*
X6551000Y-23000000D01*
X6551000Y-24000000D01*
X6547118Y-24019517D01*
X6536062Y-24036062D01*
X6519517Y-24047118D01*
X6500000Y-24051000D01*
X4300000Y-24051000D01*
X4280483Y-24047118D01*
X4263938Y-24036062D01*
X4252882Y-24019517D01*
X4249000Y-24000000D01*
X4249000Y-23000000D01*
X4252882Y-22980483D01*
X4263938Y-22963938D01*
X4280483Y-22952882D01*
X4300000Y-22949000D01*
X6500000Y-22949000D01*
X6519517Y-22952882D01*
G37*
G36*
X28261546Y-21757797D02*
G01*
X28424728Y-21825389D01*
X28571588Y-21923518D01*
X28696482Y-22048412D01*
X28794611Y-22195272D01*
X28862203Y-22358454D01*
X28896661Y-22531687D01*
X28896661Y-22708313D01*
X28862203Y-22881546D01*
X28794611Y-23044728D01*
X28696482Y-23191588D01*
X28571588Y-23316482D01*
X28424728Y-23414611D01*
X28261546Y-23482203D01*
X28088313Y-23516661D01*
X27911687Y-23516661D01*
X27738454Y-23482203D01*
X27575272Y-23414611D01*
X27428412Y-23316482D01*
X27303518Y-23191588D01*
X27205389Y-23044728D01*
X27137797Y-22881546D01*
X27103339Y-22708313D01*
X27103339Y-22531687D01*
X27137797Y-22358454D01*
X27205389Y-22195272D01*
X27303518Y-22048412D01*
X27428412Y-21923518D01*
X27575272Y-21825389D01*
X27738454Y-21757797D01*
X27911687Y-21723339D01*
X28088313Y-21723339D01*
X28261546Y-21757797D01*
G37*
G36*
X68261546Y-21757797D02*
G01*
X68424728Y-21825389D01*
X68571588Y-21923518D01*
X68696482Y-22048412D01*
X68794611Y-22195272D01*
X68862203Y-22358454D01*
X68896661Y-22531687D01*
X68896661Y-22708313D01*
X68862203Y-22881546D01*
X68794611Y-23044728D01*
X68696482Y-23191588D01*
X68571588Y-23316482D01*
X68424728Y-23414611D01*
X68261546Y-23482203D01*
X68088313Y-23516661D01*
X67911687Y-23516661D01*
X67738454Y-23482203D01*
X67575272Y-23414611D01*
X67428412Y-23316482D01*
X67303518Y-23191588D01*
X67205389Y-23044728D01*
X67137797Y-22881546D01*
X67103339Y-22708313D01*
X67103339Y-22531687D01*
X67137797Y-22358454D01*
X67205389Y-22195272D01*
X67303518Y-22048412D01*
X67428412Y-21923518D01*
X67575272Y-21825389D01*
X67738454Y-21757797D01*
X67911687Y-21723339D01*
X68088313Y-21723339D01*
X68261546Y-21757797D01*
G37*
G36*
X92719517Y-20702882D02*
G01*
X92736062Y-20713938D01*
X92747118Y-20730483D01*
X92751000Y-20750000D01*
X92751000Y-21750000D01*
X92747118Y-21769517D01*
X92736062Y-21786062D01*
X92719517Y-21797118D01*
X92700000Y-21801000D01*
X90500000Y-21801000D01*
X90480483Y-21797118D01*
X90463938Y-21786062D01*
X90452882Y-21769517D01*
X90449000Y-21750000D01*
X90449000Y-20750000D01*
X90452882Y-20730483D01*
X90463938Y-20713938D01*
X90480483Y-20702882D01*
X90500000Y-20699000D01*
X92700000Y-20699000D01*
X92719517Y-20702882D01*
G37*
G36*
X28261546Y-19217797D02*
G01*
X28424728Y-19285389D01*
X28571588Y-19383518D01*
X28696482Y-19508412D01*
X28794611Y-19655272D01*
X28862203Y-19818454D01*
X28896661Y-19991687D01*
X28896661Y-20168313D01*
X28862203Y-20341546D01*
X28794611Y-20504728D01*
X28696482Y-20651588D01*
X28571588Y-20776482D01*
X28424728Y-20874611D01*
X28261546Y-20942203D01*
X28088313Y-20976661D01*
X27911687Y-20976661D01*
X27738454Y-20942203D01*
X27575272Y-20874611D01*
X27428412Y-20776482D01*
X27303518Y-20651588D01*
X27205389Y-20504728D01*
X27137797Y-20341546D01*
X27103339Y-20168313D01*
X27103339Y-19991687D01*
X27137797Y-19818454D01*
X27205389Y-19655272D01*
X27303518Y-19508412D01*
X27428412Y-19383518D01*
X27575272Y-19285389D01*
X27738454Y-19217797D01*
X27911687Y-19183339D01*
X28088313Y-19183339D01*
X28261546Y-19217797D01*
G37*
G36*
X68261546Y-19217797D02*
G01*
X68424728Y-19285389D01*
X68571588Y-19383518D01*
X68696482Y-19508412D01*
X68794611Y-19655272D01*
X68862203Y-19818454D01*
X68896661Y-19991687D01*
X68896661Y-20168313D01*
X68862203Y-20341546D01*
X68794611Y-20504728D01*
X68696482Y-20651588D01*
X68571588Y-20776482D01*
X68424728Y-20874611D01*
X68261546Y-20942203D01*
X68088313Y-20976661D01*
X67911687Y-20976661D01*
X67738454Y-20942203D01*
X67575272Y-20874611D01*
X67428412Y-20776482D01*
X67303518Y-20651588D01*
X67205389Y-20504728D01*
X67137797Y-20341546D01*
X67103339Y-20168313D01*
X67103339Y-19991687D01*
X67137797Y-19818454D01*
X67205389Y-19655272D01*
X67303518Y-19508412D01*
X67428412Y-19383518D01*
X67575272Y-19285389D01*
X67738454Y-19217797D01*
X67911687Y-19183339D01*
X68088313Y-19183339D01*
X68261546Y-19217797D01*
G37*
G36*
X2519517Y-17852882D02*
G01*
X2536062Y-17863938D01*
X2547118Y-17880483D01*
X2551000Y-17900000D01*
X2551000Y-20100000D01*
X2547118Y-20119517D01*
X2536062Y-20136062D01*
X2519517Y-20147118D01*
X2500000Y-20151000D01*
X1500000Y-20151000D01*
X1480483Y-20147118D01*
X1463938Y-20136062D01*
X1452882Y-20119517D01*
X1449000Y-20100000D01*
X1449000Y-17900000D01*
X1452882Y-17880483D01*
X1463938Y-17863938D01*
X1480483Y-17852882D01*
X1500000Y-17849000D01*
X2500000Y-17849000D01*
X2519517Y-17852882D01*
G37*
G36*
X64919517Y-18052882D02*
G01*
X64936062Y-18063938D01*
X64947118Y-18080483D01*
X64951000Y-18100000D01*
X64951000Y-19900000D01*
X64947118Y-19919517D01*
X64936062Y-19936062D01*
X64919517Y-19947118D01*
X64900000Y-19951000D01*
X63100000Y-19951000D01*
X63080483Y-19947118D01*
X63063938Y-19936062D01*
X63052882Y-19919517D01*
X63049000Y-19900000D01*
X63049000Y-18100000D01*
X63052882Y-18080483D01*
X63063938Y-18063938D01*
X63080483Y-18052882D01*
X63100000Y-18049000D01*
X64900000Y-18049000D01*
X64919517Y-18052882D01*
G37*
G36*
X61542553Y-18053579D02*
G01*
X61553214Y-18053579D01*
X61594865Y-18061864D01*
X61681916Y-18075651D01*
X61709918Y-18084749D01*
X61736061Y-18089950D01*
X61772956Y-18105232D01*
X61823784Y-18121748D01*
X61871399Y-18146009D01*
X61908298Y-18161293D01*
X61930463Y-18176103D01*
X61956693Y-18189468D01*
X62027990Y-18241268D01*
X62063308Y-18264867D01*
X62070846Y-18272405D01*
X62077370Y-18277145D01*
X62182854Y-18382629D01*
X62187593Y-18389152D01*
X62195133Y-18396692D01*
X62218734Y-18432014D01*
X62270531Y-18503306D01*
X62283894Y-18529533D01*
X62298707Y-18551702D01*
X62313993Y-18588605D01*
X62338251Y-18636215D01*
X62354764Y-18687035D01*
X62370050Y-18723939D01*
X62375251Y-18750086D01*
X62384348Y-18778083D01*
X62398134Y-18865125D01*
X62406421Y-18906786D01*
X62406421Y-18917447D01*
X62407683Y-18925415D01*
X62407683Y-19074584D01*
X62406421Y-19082551D01*
X62406421Y-19093214D01*
X62398133Y-19134877D01*
X62384348Y-19221916D01*
X62375251Y-19249910D01*
X62370050Y-19276061D01*
X62354762Y-19312968D01*
X62338251Y-19363784D01*
X62313995Y-19411388D01*
X62298707Y-19448298D01*
X62283892Y-19470470D01*
X62270531Y-19496693D01*
X62218742Y-19567973D01*
X62195133Y-19603308D01*
X62187591Y-19610849D01*
X62182854Y-19617370D01*
X62077370Y-19722854D01*
X62070849Y-19727591D01*
X62063308Y-19735133D01*
X62027973Y-19758742D01*
X61956693Y-19810531D01*
X61930470Y-19823892D01*
X61908298Y-19838707D01*
X61871388Y-19853995D01*
X61823784Y-19878251D01*
X61772968Y-19894762D01*
X61736061Y-19910050D01*
X61709910Y-19915251D01*
X61681916Y-19924348D01*
X61594875Y-19938133D01*
X61553214Y-19946421D01*
X61542553Y-19946421D01*
X61534585Y-19947683D01*
X61385415Y-19947683D01*
X61377447Y-19946421D01*
X61366786Y-19946421D01*
X61325125Y-19938134D01*
X61238083Y-19924348D01*
X61210086Y-19915251D01*
X61183939Y-19910050D01*
X61147035Y-19894764D01*
X61096215Y-19878251D01*
X61048605Y-19853993D01*
X61011702Y-19838707D01*
X60989533Y-19823894D01*
X60963306Y-19810531D01*
X60892014Y-19758734D01*
X60856692Y-19735133D01*
X60849152Y-19727593D01*
X60842629Y-19722854D01*
X60737145Y-19617370D01*
X60732405Y-19610846D01*
X60724867Y-19603308D01*
X60701268Y-19567990D01*
X60649468Y-19496693D01*
X60636103Y-19470463D01*
X60621293Y-19448298D01*
X60606009Y-19411399D01*
X60581748Y-19363784D01*
X60565232Y-19312956D01*
X60549950Y-19276061D01*
X60544749Y-19249918D01*
X60535651Y-19221916D01*
X60521864Y-19134867D01*
X60513579Y-19093214D01*
X60513579Y-19082552D01*
X60512317Y-19074584D01*
X60512317Y-18925415D01*
X60513579Y-18917446D01*
X60513579Y-18906786D01*
X60521863Y-18865136D01*
X60535651Y-18778083D01*
X60544750Y-18750078D01*
X60549950Y-18723939D01*
X60565231Y-18687046D01*
X60581748Y-18636215D01*
X60606011Y-18588595D01*
X60621293Y-18551702D01*
X60636101Y-18529539D01*
X60649468Y-18503306D01*
X60701277Y-18431996D01*
X60724867Y-18396692D01*
X60732402Y-18389156D01*
X60737145Y-18382629D01*
X60842629Y-18277145D01*
X60849156Y-18272402D01*
X60856692Y-18264867D01*
X60891996Y-18241277D01*
X60963306Y-18189468D01*
X60989539Y-18176101D01*
X61011702Y-18161293D01*
X61048595Y-18146011D01*
X61096215Y-18121748D01*
X61147046Y-18105231D01*
X61183939Y-18089950D01*
X61210078Y-18084750D01*
X61238083Y-18075651D01*
X61325136Y-18061863D01*
X61366786Y-18053579D01*
X61377447Y-18053579D01*
X61385415Y-18052317D01*
X61534585Y-18052317D01*
X61542553Y-18053579D01*
G37*
G36*
X98519517Y-17602882D02*
G01*
X98536062Y-17613938D01*
X98547118Y-17630483D01*
X98551000Y-17650000D01*
X98551000Y-19850000D01*
X98547118Y-19869517D01*
X98536062Y-19886062D01*
X98519517Y-19897118D01*
X98500000Y-19901000D01*
X97500000Y-19901000D01*
X97480483Y-19897118D01*
X97463938Y-19886062D01*
X97452882Y-19869517D01*
X97449000Y-19850000D01*
X97449000Y-17650000D01*
X97452882Y-17630483D01*
X97463938Y-17613938D01*
X97480483Y-17602882D01*
X97500000Y-17599000D01*
X98500000Y-17599000D01*
X98519517Y-17602882D01*
G37*
G36*
X28261546Y-16677797D02*
G01*
X28424728Y-16745389D01*
X28571588Y-16843518D01*
X28696482Y-16968412D01*
X28794611Y-17115272D01*
X28862203Y-17278454D01*
X28896661Y-17451687D01*
X28896661Y-17628313D01*
X28862203Y-17801546D01*
X28794611Y-17964728D01*
X28696482Y-18111588D01*
X28571588Y-18236482D01*
X28424728Y-18334611D01*
X28261546Y-18402203D01*
X28088313Y-18436661D01*
X27911687Y-18436661D01*
X27738454Y-18402203D01*
X27575272Y-18334611D01*
X27428412Y-18236482D01*
X27303518Y-18111588D01*
X27205389Y-17964728D01*
X27137797Y-17801546D01*
X27103339Y-17628313D01*
X27103339Y-17451687D01*
X27137797Y-17278454D01*
X27205389Y-17115272D01*
X27303518Y-16968412D01*
X27428412Y-16843518D01*
X27575272Y-16745389D01*
X27738454Y-16677797D01*
X27911687Y-16643339D01*
X28088313Y-16643339D01*
X28261546Y-16677797D01*
G37*
G36*
X68261546Y-16677797D02*
G01*
X68424728Y-16745389D01*
X68571588Y-16843518D01*
X68696482Y-16968412D01*
X68794611Y-17115272D01*
X68862203Y-17278454D01*
X68896661Y-17451687D01*
X68896661Y-17628313D01*
X68862203Y-17801546D01*
X68794611Y-17964728D01*
X68696482Y-18111588D01*
X68571588Y-18236482D01*
X68424728Y-18334611D01*
X68261546Y-18402203D01*
X68088313Y-18436661D01*
X67911687Y-18436661D01*
X67738454Y-18402203D01*
X67575272Y-18334611D01*
X67428412Y-18236482D01*
X67303518Y-18111588D01*
X67205389Y-17964728D01*
X67137797Y-17801546D01*
X67103339Y-17628313D01*
X67103339Y-17451687D01*
X67137797Y-17278454D01*
X67205389Y-17115272D01*
X67303518Y-16968412D01*
X67428412Y-16843518D01*
X67575272Y-16745389D01*
X67738454Y-16677797D01*
X67911687Y-16643339D01*
X68088313Y-16643339D01*
X68261546Y-16677797D01*
G37*
G36*
X9519517Y-15952882D02*
G01*
X9536062Y-15963938D01*
X9547118Y-15980483D01*
X9551000Y-16000000D01*
X9551000Y-17000000D01*
X9547118Y-17019517D01*
X9536062Y-17036062D01*
X9519517Y-17047118D01*
X9500000Y-17051000D01*
X7300000Y-17051000D01*
X7280483Y-17047118D01*
X7263938Y-17036062D01*
X7252882Y-17019517D01*
X7249000Y-17000000D01*
X7249000Y-16000000D01*
X7252882Y-15980483D01*
X7263938Y-15963938D01*
X7280483Y-15952882D01*
X7300000Y-15949000D01*
X9500000Y-15949000D01*
X9519517Y-15952882D01*
G37*
G36*
X28869517Y-14102882D02*
G01*
X28886062Y-14113938D01*
X28897118Y-14130483D01*
X28901000Y-14150000D01*
X28901000Y-15850000D01*
X28897118Y-15869517D01*
X28886062Y-15886062D01*
X28869517Y-15897118D01*
X28850000Y-15901000D01*
X27150000Y-15901000D01*
X27130483Y-15897118D01*
X27113938Y-15886062D01*
X27102882Y-15869517D01*
X27099000Y-15850000D01*
X27099000Y-14150000D01*
X27102882Y-14130483D01*
X27113938Y-14113938D01*
X27130483Y-14102882D01*
X27150000Y-14099000D01*
X28850000Y-14099000D01*
X28869517Y-14102882D01*
G37*
G36*
X68869517Y-14102882D02*
G01*
X68886062Y-14113938D01*
X68897118Y-14130483D01*
X68901000Y-14150000D01*
X68901000Y-15850000D01*
X68897118Y-15869517D01*
X68886062Y-15886062D01*
X68869517Y-15897118D01*
X68850000Y-15901000D01*
X67150000Y-15901000D01*
X67130483Y-15897118D01*
X67113938Y-15886062D01*
X67102882Y-15869517D01*
X67099000Y-15850000D01*
X67099000Y-14150000D01*
X67102882Y-14130483D01*
X67113938Y-14113938D01*
X67130483Y-14102882D01*
X67150000Y-14099000D01*
X68850000Y-14099000D01*
X68869517Y-14102882D01*
G37*
G36*
X87519517Y-13602882D02*
G01*
X87536062Y-13613938D01*
X87547118Y-13630483D01*
X87551000Y-13650000D01*
X87551000Y-15850000D01*
X87547118Y-15869517D01*
X87536062Y-15886062D01*
X87519517Y-15897118D01*
X87500000Y-15901000D01*
X86500000Y-15901000D01*
X86480483Y-15897118D01*
X86463938Y-15886062D01*
X86452882Y-15869517D01*
X86449000Y-15850000D01*
X86449000Y-13650000D01*
X86452882Y-13630483D01*
X86463938Y-13613938D01*
X86480483Y-13602882D01*
X86500000Y-13599000D01*
X87500000Y-13599000D01*
X87519517Y-13602882D01*
G37*
G36*
X95719517Y-13702882D02*
G01*
X95736062Y-13713938D01*
X95747118Y-13730483D01*
X95751000Y-13750000D01*
X95751000Y-14750000D01*
X95747118Y-14769517D01*
X95736062Y-14786062D01*
X95719517Y-14797118D01*
X95700000Y-14801000D01*
X93500000Y-14801000D01*
X93480483Y-14797118D01*
X93463938Y-14786062D01*
X93452882Y-14769517D01*
X93449000Y-14750000D01*
X93449000Y-13750000D01*
X93452882Y-13730483D01*
X93463938Y-13713938D01*
X93480483Y-13702882D01*
X93500000Y-13699000D01*
X95700000Y-13699000D01*
X95719517Y-13702882D01*
G37*
G36*
X10919517Y-13252882D02*
G01*
X10936062Y-13263938D01*
X10947118Y-13280483D01*
X10951000Y-13300000D01*
X10951000Y-14300000D01*
X10947118Y-14319517D01*
X10936062Y-14336062D01*
X10919517Y-14347118D01*
X10900000Y-14351000D01*
X8700000Y-14351000D01*
X8680483Y-14347118D01*
X8663938Y-14336062D01*
X8652882Y-14319517D01*
X8649000Y-14300000D01*
X8649000Y-13300000D01*
X8652882Y-13280483D01*
X8663938Y-13263938D01*
X8680483Y-13252882D01*
X8700000Y-13249000D01*
X10900000Y-13249000D01*
X10919517Y-13252882D01*
G37*
G36*
X13519517Y-9352882D02*
G01*
X13536062Y-9363938D01*
X13547118Y-9380483D01*
X13551000Y-9400000D01*
X13551000Y-11600000D01*
X13547118Y-11619517D01*
X13536062Y-11636062D01*
X13519517Y-11647118D01*
X13500000Y-11651000D01*
X12500000Y-11651000D01*
X12480483Y-11647118D01*
X12463938Y-11636062D01*
X12452882Y-11619517D01*
X12449000Y-11600000D01*
X12449000Y-9400000D01*
X12452882Y-9380483D01*
X12463938Y-9363938D01*
X12480483Y-9352882D01*
X12500000Y-9349000D01*
X13500000Y-9349000D01*
X13519517Y-9352882D01*
G37*
G36*
X6519517Y-10452882D02*
G01*
X6536062Y-10463938D01*
X6547118Y-10480483D01*
X6551000Y-10500000D01*
X6551000Y-11500000D01*
X6547118Y-11519517D01*
X6536062Y-11536062D01*
X6519517Y-11547118D01*
X6500000Y-11551000D01*
X4300000Y-11551000D01*
X4280483Y-11547118D01*
X4263938Y-11536062D01*
X4252882Y-11519517D01*
X4249000Y-11500000D01*
X4249000Y-10500000D01*
X4252882Y-10480483D01*
X4263938Y-10463938D01*
X4280483Y-10452882D01*
X4300000Y-10449000D01*
X6500000Y-10449000D01*
X6519517Y-10452882D01*
G37*
G36*
X96919517Y-5802882D02*
G01*
X96936062Y-5813938D01*
X96947118Y-5830483D01*
X96951000Y-5850000D01*
X96951000Y-7650000D01*
X96947118Y-7669517D01*
X96936062Y-7686062D01*
X96919517Y-7697118D01*
X96900000Y-7701000D01*
X95100000Y-7701000D01*
X95080483Y-7697118D01*
X95063938Y-7686062D01*
X95052882Y-7669517D01*
X95049000Y-7650000D01*
X95049000Y-5850000D01*
X95052882Y-5830483D01*
X95063938Y-5813938D01*
X95080483Y-5802882D01*
X95100000Y-5799000D01*
X96900000Y-5799000D01*
X96919517Y-5802882D01*
G37*
G36*
X98622553Y-5803579D02*
G01*
X98633214Y-5803579D01*
X98674865Y-5811864D01*
X98761916Y-5825651D01*
X98789918Y-5834749D01*
X98816061Y-5839950D01*
X98852956Y-5855232D01*
X98903784Y-5871748D01*
X98951399Y-5896009D01*
X98988298Y-5911293D01*
X99010463Y-5926103D01*
X99036693Y-5939468D01*
X99107990Y-5991268D01*
X99143308Y-6014867D01*
X99150846Y-6022405D01*
X99157370Y-6027145D01*
X99262854Y-6132629D01*
X99267593Y-6139152D01*
X99275133Y-6146692D01*
X99298734Y-6182014D01*
X99350531Y-6253306D01*
X99363894Y-6279533D01*
X99378707Y-6301702D01*
X99393993Y-6338605D01*
X99418251Y-6386215D01*
X99434764Y-6437035D01*
X99450050Y-6473939D01*
X99455251Y-6500086D01*
X99464348Y-6528083D01*
X99478134Y-6615125D01*
X99486421Y-6656786D01*
X99486421Y-6667447D01*
X99487683Y-6675415D01*
X99487683Y-6824584D01*
X99486421Y-6832551D01*
X99486421Y-6843214D01*
X99478133Y-6884877D01*
X99464348Y-6971916D01*
X99455251Y-6999910D01*
X99450050Y-7026061D01*
X99434762Y-7062968D01*
X99418251Y-7113784D01*
X99393995Y-7161388D01*
X99378707Y-7198298D01*
X99363892Y-7220470D01*
X99350531Y-7246693D01*
X99298742Y-7317973D01*
X99275133Y-7353308D01*
X99267591Y-7360849D01*
X99262854Y-7367370D01*
X99157370Y-7472854D01*
X99150849Y-7477591D01*
X99143308Y-7485133D01*
X99107973Y-7508742D01*
X99036693Y-7560531D01*
X99010470Y-7573892D01*
X98988298Y-7588707D01*
X98951388Y-7603995D01*
X98903784Y-7628251D01*
X98852968Y-7644762D01*
X98816061Y-7660050D01*
X98789910Y-7665251D01*
X98761916Y-7674348D01*
X98674875Y-7688133D01*
X98633214Y-7696421D01*
X98622553Y-7696421D01*
X98614585Y-7697683D01*
X98465415Y-7697683D01*
X98457447Y-7696421D01*
X98446786Y-7696421D01*
X98405125Y-7688134D01*
X98318083Y-7674348D01*
X98290086Y-7665251D01*
X98263939Y-7660050D01*
X98227035Y-7644764D01*
X98176215Y-7628251D01*
X98128605Y-7603993D01*
X98091702Y-7588707D01*
X98069533Y-7573894D01*
X98043306Y-7560531D01*
X97972014Y-7508734D01*
X97936692Y-7485133D01*
X97929152Y-7477593D01*
X97922629Y-7472854D01*
X97817145Y-7367370D01*
X97812405Y-7360846D01*
X97804867Y-7353308D01*
X97781268Y-7317990D01*
X97729468Y-7246693D01*
X97716103Y-7220463D01*
X97701293Y-7198298D01*
X97686009Y-7161399D01*
X97661748Y-7113784D01*
X97645232Y-7062956D01*
X97629950Y-7026061D01*
X97624749Y-6999918D01*
X97615651Y-6971916D01*
X97601864Y-6884867D01*
X97593579Y-6843214D01*
X97593579Y-6832552D01*
X97592317Y-6824584D01*
X97592317Y-6675415D01*
X97593579Y-6667446D01*
X97593579Y-6656786D01*
X97601863Y-6615136D01*
X97615651Y-6528083D01*
X97624750Y-6500078D01*
X97629950Y-6473939D01*
X97645231Y-6437046D01*
X97661748Y-6386215D01*
X97686011Y-6338595D01*
X97701293Y-6301702D01*
X97716101Y-6279539D01*
X97729468Y-6253306D01*
X97781277Y-6181996D01*
X97804867Y-6146692D01*
X97812402Y-6139156D01*
X97817145Y-6132629D01*
X97922629Y-6027145D01*
X97929156Y-6022402D01*
X97936692Y-6014867D01*
X97971996Y-5991277D01*
X98043306Y-5939468D01*
X98069539Y-5926101D01*
X98091702Y-5911293D01*
X98128595Y-5896011D01*
X98176215Y-5871748D01*
X98227046Y-5855231D01*
X98263939Y-5839950D01*
X98290078Y-5834750D01*
X98318083Y-5825651D01*
X98405136Y-5811863D01*
X98446786Y-5803579D01*
X98457447Y-5803579D01*
X98465415Y-5802317D01*
X98614585Y-5802317D01*
X98622553Y-5803579D01*
G37*
G36*
X2519517Y-5352882D02*
G01*
X2536062Y-5363938D01*
X2547118Y-5380483D01*
X2551000Y-5400000D01*
X2551000Y-7600000D01*
X2547118Y-7619517D01*
X2536062Y-7636062D01*
X2519517Y-7647118D01*
X2500000Y-7651000D01*
X1500000Y-7651000D01*
X1480483Y-7647118D01*
X1463938Y-7636062D01*
X1452882Y-7619517D01*
X1449000Y-7600000D01*
X1449000Y-5400000D01*
X1452882Y-5380483D01*
X1463938Y-5363938D01*
X1480483Y-5352882D01*
X1500000Y-5349000D01*
X2500000Y-5349000D01*
X2519517Y-5352882D01*
G37*
G36*
X64919517Y-5067582D02*
G01*
X64936062Y-5078638D01*
X64947118Y-5095183D01*
X64951000Y-5114700D01*
X64951000Y-6914700D01*
X64947118Y-6934217D01*
X64936062Y-6950762D01*
X64919517Y-6961818D01*
X64900000Y-6965700D01*
X63100000Y-6965700D01*
X63080483Y-6961818D01*
X63063938Y-6950762D01*
X63052882Y-6934217D01*
X63049000Y-6914700D01*
X63049000Y-5114700D01*
X63052882Y-5095183D01*
X63063938Y-5078638D01*
X63080483Y-5067582D01*
X63100000Y-5063700D01*
X64900000Y-5063700D01*
X64919517Y-5067582D01*
G37*
G36*
X61542553Y-5068279D02*
G01*
X61553214Y-5068279D01*
X61594865Y-5076564D01*
X61681916Y-5090351D01*
X61709918Y-5099449D01*
X61736061Y-5104650D01*
X61772956Y-5119932D01*
X61823784Y-5136448D01*
X61871399Y-5160709D01*
X61908298Y-5175993D01*
X61930463Y-5190803D01*
X61956693Y-5204168D01*
X62027990Y-5255968D01*
X62063308Y-5279567D01*
X62070846Y-5287105D01*
X62077370Y-5291845D01*
X62182854Y-5397329D01*
X62187593Y-5403852D01*
X62195133Y-5411392D01*
X62218734Y-5446714D01*
X62270531Y-5518006D01*
X62283894Y-5544233D01*
X62298707Y-5566402D01*
X62313993Y-5603305D01*
X62338251Y-5650915D01*
X62354764Y-5701735D01*
X62370050Y-5738639D01*
X62375251Y-5764786D01*
X62384348Y-5792783D01*
X62398134Y-5879825D01*
X62406421Y-5921486D01*
X62406421Y-5932147D01*
X62407683Y-5940115D01*
X62407683Y-6089284D01*
X62406421Y-6097251D01*
X62406421Y-6107914D01*
X62398133Y-6149577D01*
X62384348Y-6236616D01*
X62375251Y-6264610D01*
X62370050Y-6290761D01*
X62354762Y-6327668D01*
X62338251Y-6378484D01*
X62313995Y-6426088D01*
X62298707Y-6462998D01*
X62283892Y-6485170D01*
X62270531Y-6511393D01*
X62218742Y-6582673D01*
X62195133Y-6618008D01*
X62187591Y-6625549D01*
X62182854Y-6632070D01*
X62077370Y-6737554D01*
X62070849Y-6742291D01*
X62063308Y-6749833D01*
X62027973Y-6773442D01*
X61956693Y-6825231D01*
X61930470Y-6838592D01*
X61908298Y-6853407D01*
X61871388Y-6868695D01*
X61823784Y-6892951D01*
X61772968Y-6909462D01*
X61736061Y-6924750D01*
X61709910Y-6929951D01*
X61681916Y-6939048D01*
X61594875Y-6952833D01*
X61553214Y-6961121D01*
X61542553Y-6961121D01*
X61534585Y-6962383D01*
X61385415Y-6962383D01*
X61377447Y-6961121D01*
X61366786Y-6961121D01*
X61325125Y-6952834D01*
X61238083Y-6939048D01*
X61210086Y-6929951D01*
X61183939Y-6924750D01*
X61147035Y-6909464D01*
X61096215Y-6892951D01*
X61048605Y-6868693D01*
X61011702Y-6853407D01*
X60989533Y-6838594D01*
X60963306Y-6825231D01*
X60892014Y-6773434D01*
X60856692Y-6749833D01*
X60849152Y-6742293D01*
X60842629Y-6737554D01*
X60737145Y-6632070D01*
X60732405Y-6625546D01*
X60724867Y-6618008D01*
X60701268Y-6582690D01*
X60649468Y-6511393D01*
X60636103Y-6485163D01*
X60621293Y-6462998D01*
X60606009Y-6426099D01*
X60581748Y-6378484D01*
X60565232Y-6327656D01*
X60549950Y-6290761D01*
X60544749Y-6264618D01*
X60535651Y-6236616D01*
X60521864Y-6149567D01*
X60513579Y-6107914D01*
X60513579Y-6097252D01*
X60512317Y-6089284D01*
X60512317Y-5940115D01*
X60513579Y-5932146D01*
X60513579Y-5921486D01*
X60521863Y-5879836D01*
X60535651Y-5792783D01*
X60544750Y-5764778D01*
X60549950Y-5738639D01*
X60565231Y-5701746D01*
X60581748Y-5650915D01*
X60606011Y-5603295D01*
X60621293Y-5566402D01*
X60636101Y-5544239D01*
X60649468Y-5518006D01*
X60701277Y-5446696D01*
X60724867Y-5411392D01*
X60732402Y-5403856D01*
X60737145Y-5397329D01*
X60842629Y-5291845D01*
X60849156Y-5287102D01*
X60856692Y-5279567D01*
X60891996Y-5255977D01*
X60963306Y-5204168D01*
X60989539Y-5190801D01*
X61011702Y-5175993D01*
X61048595Y-5160711D01*
X61096215Y-5136448D01*
X61147046Y-5119931D01*
X61183939Y-5104650D01*
X61210078Y-5099450D01*
X61238083Y-5090351D01*
X61325136Y-5076563D01*
X61366786Y-5068279D01*
X61377447Y-5068279D01*
X61385415Y-5067017D01*
X61534585Y-5067017D01*
X61542553Y-5068279D01*
G37*
G36*
X9519517Y-3452882D02*
G01*
X9536062Y-3463938D01*
X9547118Y-3480483D01*
X9551000Y-3500000D01*
X9551000Y-4500000D01*
X9547118Y-4519517D01*
X9536062Y-4536062D01*
X9519517Y-4547118D01*
X9500000Y-4551000D01*
X7300000Y-4551000D01*
X7280483Y-4547118D01*
X7263938Y-4536062D01*
X7252882Y-4519517D01*
X7249000Y-4500000D01*
X7249000Y-3500000D01*
X7252882Y-3480483D01*
X7263938Y-3463938D01*
X7280483Y-3452882D01*
X7300000Y-3449000D01*
X9500000Y-3449000D01*
X9519517Y-3452882D01*
G37*
G36*
X10919517Y-752882D02*
G01*
X10936062Y-763938D01*
X10947118Y-780483D01*
X10951000Y-800000D01*
X10951000Y-1800000D01*
X10947118Y-1819517D01*
X10936062Y-1836062D01*
X10919517Y-1847118D01*
X10900000Y-1851000D01*
X8700000Y-1851000D01*
X8680483Y-1847118D01*
X8663938Y-1836062D01*
X8652882Y-1819517D01*
X8649000Y-1800000D01*
X8649000Y-800000D01*
X8652882Y-780483D01*
X8663938Y-763938D01*
X8680483Y-752882D01*
X8700000Y-749000D01*
X10900000Y-749000D01*
X10919517Y-752882D01*
G37*
M02*
