M48
; DRILL file {KiCad 9.0.0} date 2025-02-23T15:47:09-0700
; FORMAT={-:-/ absolute / inch / decimal}
; #@! TF.CreationDate,2025-02-23T15:47:09-07:00
; #@! TF.GenerationSoftware,Kicad,Pcbnew,9.0.0
; #@! TF.FileFunction,Plated,1,2,PTH
FMAT,2
INCH
; #@! TA.AperFunction,Plated,PTH,ViaDrill
T1C0.0157
; #@! TA.AperFunction,Plated,PTH,ComponentDrill
T2C0.0157
; #@! TA.AperFunction,Plated,PTH,ComponentDrill
T3C0.0315
; #@! TA.AperFunction,Plated,PTH,ComponentDrill
T4C0.0394
; #@! TA.AperFunction,Plated,PTH,ComponentDrill
T5C0.0906
%
G90
G05
T1
X1.063Y-2.2441
T3
X0.115Y-3.3858
X0.215Y-3.3858
X0.315Y-3.3858
T4
X0.1378Y-0.3543
X0.1378Y-0.4528
X0.1378Y-0.5512
X0.1378Y-2.2047
X0.1378Y-2.3031
X0.1378Y-2.4016
X0.9843Y-3.4252
X0.9843Y-3.5252
X0.9843Y-3.6252
X0.9843Y-3.7252
X0.9843Y-3.8252
X1.0843Y-3.4252
X1.0843Y-3.5252
X1.0843Y-3.6252
X1.0843Y-3.7252
X1.0843Y-3.8252
T5
X0.2677Y-0.2559
X0.2677Y-0.6496
X0.2677Y-2.1063
X0.2677Y-2.5
T2
G00X0.0787Y-1.0079
M15
G01X0.0787Y-1.0394
M16
G05
G00X0.0787Y-2.8583
M15
G01X0.0787Y-2.8898
M16
G05
G00X0.1969Y-1.2008
M15
G01X0.2283Y-1.2008
M16
G05
G00X0.1969Y-3.0512
M15
G01X0.2283Y-3.0512
M16
G05
G00X0.315Y-0.9252
M15
G01X0.3465Y-0.9252
M16
G05
G00X0.315Y-2.7756
M15
G01X0.3465Y-2.7756
M16
G05
G00X0.3701Y-0.8189
M15
G01X0.4016Y-0.8189
M16
G05
G00X0.3701Y-2.6693
M15
G01X0.4016Y-2.6693
M16
G05
G00X0.5118Y-1.1654
M15
G01X0.5118Y-1.1969
M16
G05
G00X0.5118Y-3.0157
M15
G01X0.5118Y-3.0472
M16
G05
M30
