G04 #@! TF.GenerationSoftware,KiCad,Pcbnew,9.0.0*
G04 #@! TF.CreationDate,2025-02-23T15:47:06-07:00*
G04 #@! TF.ProjectId,Noise_Gen,4e6f6973-655f-4476-956e-2e6b69636164,rev?*
G04 #@! TF.SameCoordinates,Original*
G04 #@! TF.FileFunction,Legend,Top*
G04 #@! TF.FilePolarity,Positive*
%FSLAX46Y46*%
G04 Gerber Fmt 4.6, Leading zero omitted, Abs format (unit mm)*
G04 Created by KiCad (PCBNEW 9.0.0) date 2025-02-23 15:47:06*
%MOMM*%
%LPD*%
G01*
G04 APERTURE LIST*
%ADD10C,0.150000*%
%ADD11C,0.120000*%
G04 APERTURE END LIST*
D10*
X11604666Y-18250819D02*
X11604666Y-18965104D01*
X11604666Y-18965104D02*
X11557047Y-19107961D01*
X11557047Y-19107961D02*
X11461809Y-19203200D01*
X11461809Y-19203200D02*
X11318952Y-19250819D01*
X11318952Y-19250819D02*
X11223714Y-19250819D01*
X12604666Y-19250819D02*
X12033238Y-19250819D01*
X12318952Y-19250819D02*
X12318952Y-18250819D01*
X12318952Y-18250819D02*
X12223714Y-18393676D01*
X12223714Y-18393676D02*
X12128476Y-18488914D01*
X12128476Y-18488914D02*
X12033238Y-18536533D01*
X11604666Y-65494819D02*
X11604666Y-66209104D01*
X11604666Y-66209104D02*
X11557047Y-66351961D01*
X11557047Y-66351961D02*
X11461809Y-66447200D01*
X11461809Y-66447200D02*
X11318952Y-66494819D01*
X11318952Y-66494819D02*
X11223714Y-66494819D01*
X12033238Y-65590057D02*
X12080857Y-65542438D01*
X12080857Y-65542438D02*
X12176095Y-65494819D01*
X12176095Y-65494819D02*
X12414190Y-65494819D01*
X12414190Y-65494819D02*
X12509428Y-65542438D01*
X12509428Y-65542438D02*
X12557047Y-65590057D01*
X12557047Y-65590057D02*
X12604666Y-65685295D01*
X12604666Y-65685295D02*
X12604666Y-65780533D01*
X12604666Y-65780533D02*
X12557047Y-65923390D01*
X12557047Y-65923390D02*
X11985619Y-66494819D01*
X11985619Y-66494819D02*
X12604666Y-66494819D01*
X2960761Y-3502819D02*
X2627428Y-3026628D01*
X2389333Y-3502819D02*
X2389333Y-2502819D01*
X2389333Y-2502819D02*
X2770285Y-2502819D01*
X2770285Y-2502819D02*
X2865523Y-2550438D01*
X2865523Y-2550438D02*
X2913142Y-2598057D01*
X2913142Y-2598057D02*
X2960761Y-2693295D01*
X2960761Y-2693295D02*
X2960761Y-2836152D01*
X2960761Y-2836152D02*
X2913142Y-2931390D01*
X2913142Y-2931390D02*
X2865523Y-2979009D01*
X2865523Y-2979009D02*
X2770285Y-3026628D01*
X2770285Y-3026628D02*
X2389333Y-3026628D01*
X3246476Y-2502819D02*
X3579809Y-3502819D01*
X3579809Y-3502819D02*
X3913142Y-2502819D01*
X4770285Y-3502819D02*
X4198857Y-3502819D01*
X4484571Y-3502819D02*
X4484571Y-2502819D01*
X4484571Y-2502819D02*
X4389333Y-2645676D01*
X4389333Y-2645676D02*
X4294095Y-2740914D01*
X4294095Y-2740914D02*
X4198857Y-2788533D01*
X2960761Y-50492819D02*
X2627428Y-50016628D01*
X2389333Y-50492819D02*
X2389333Y-49492819D01*
X2389333Y-49492819D02*
X2770285Y-49492819D01*
X2770285Y-49492819D02*
X2865523Y-49540438D01*
X2865523Y-49540438D02*
X2913142Y-49588057D01*
X2913142Y-49588057D02*
X2960761Y-49683295D01*
X2960761Y-49683295D02*
X2960761Y-49826152D01*
X2960761Y-49826152D02*
X2913142Y-49921390D01*
X2913142Y-49921390D02*
X2865523Y-49969009D01*
X2865523Y-49969009D02*
X2770285Y-50016628D01*
X2770285Y-50016628D02*
X2389333Y-50016628D01*
X3246476Y-49492819D02*
X3579809Y-50492819D01*
X3579809Y-50492819D02*
X3913142Y-49492819D01*
X4198857Y-49588057D02*
X4246476Y-49540438D01*
X4246476Y-49540438D02*
X4341714Y-49492819D01*
X4341714Y-49492819D02*
X4579809Y-49492819D01*
X4579809Y-49492819D02*
X4675047Y-49540438D01*
X4675047Y-49540438D02*
X4722666Y-49588057D01*
X4722666Y-49588057D02*
X4770285Y-49683295D01*
X4770285Y-49683295D02*
X4770285Y-49778533D01*
X4770285Y-49778533D02*
X4722666Y-49921390D01*
X4722666Y-49921390D02*
X4151238Y-50492819D01*
X4151238Y-50492819D02*
X4770285Y-50492819D01*
X25936666Y-84124819D02*
X25936666Y-84839104D01*
X25936666Y-84839104D02*
X25889047Y-84981961D01*
X25889047Y-84981961D02*
X25793809Y-85077200D01*
X25793809Y-85077200D02*
X25650952Y-85124819D01*
X25650952Y-85124819D02*
X25555714Y-85124819D01*
X26889047Y-84124819D02*
X26412857Y-84124819D01*
X26412857Y-84124819D02*
X26365238Y-84601009D01*
X26365238Y-84601009D02*
X26412857Y-84553390D01*
X26412857Y-84553390D02*
X26508095Y-84505771D01*
X26508095Y-84505771D02*
X26746190Y-84505771D01*
X26746190Y-84505771D02*
X26841428Y-84553390D01*
X26841428Y-84553390D02*
X26889047Y-84601009D01*
X26889047Y-84601009D02*
X26936666Y-84696247D01*
X26936666Y-84696247D02*
X26936666Y-84934342D01*
X26936666Y-84934342D02*
X26889047Y-85029580D01*
X26889047Y-85029580D02*
X26841428Y-85077200D01*
X26841428Y-85077200D02*
X26746190Y-85124819D01*
X26746190Y-85124819D02*
X26508095Y-85124819D01*
X26508095Y-85124819D02*
X26412857Y-85077200D01*
X26412857Y-85077200D02*
X26365238Y-85029580D01*
X23833333Y-74273580D02*
X23785714Y-74321200D01*
X23785714Y-74321200D02*
X23642857Y-74368819D01*
X23642857Y-74368819D02*
X23547619Y-74368819D01*
X23547619Y-74368819D02*
X23404762Y-74321200D01*
X23404762Y-74321200D02*
X23309524Y-74225961D01*
X23309524Y-74225961D02*
X23261905Y-74130723D01*
X23261905Y-74130723D02*
X23214286Y-73940247D01*
X23214286Y-73940247D02*
X23214286Y-73797390D01*
X23214286Y-73797390D02*
X23261905Y-73606914D01*
X23261905Y-73606914D02*
X23309524Y-73511676D01*
X23309524Y-73511676D02*
X23404762Y-73416438D01*
X23404762Y-73416438D02*
X23547619Y-73368819D01*
X23547619Y-73368819D02*
X23642857Y-73368819D01*
X23642857Y-73368819D02*
X23785714Y-73416438D01*
X23785714Y-73416438D02*
X23833333Y-73464057D01*
X24785714Y-74368819D02*
X24214286Y-74368819D01*
X24500000Y-74368819D02*
X24500000Y-73368819D01*
X24500000Y-73368819D02*
X24404762Y-73511676D01*
X24404762Y-73511676D02*
X24309524Y-73606914D01*
X24309524Y-73606914D02*
X24214286Y-73654533D01*
X20839048Y-79063866D02*
X21600953Y-79063866D01*
X21220000Y-79444819D02*
X21220000Y-78682914D01*
X13803333Y-57255580D02*
X13755714Y-57303200D01*
X13755714Y-57303200D02*
X13612857Y-57350819D01*
X13612857Y-57350819D02*
X13517619Y-57350819D01*
X13517619Y-57350819D02*
X13374762Y-57303200D01*
X13374762Y-57303200D02*
X13279524Y-57207961D01*
X13279524Y-57207961D02*
X13231905Y-57112723D01*
X13231905Y-57112723D02*
X13184286Y-56922247D01*
X13184286Y-56922247D02*
X13184286Y-56779390D01*
X13184286Y-56779390D02*
X13231905Y-56588914D01*
X13231905Y-56588914D02*
X13279524Y-56493676D01*
X13279524Y-56493676D02*
X13374762Y-56398438D01*
X13374762Y-56398438D02*
X13517619Y-56350819D01*
X13517619Y-56350819D02*
X13612857Y-56350819D01*
X13612857Y-56350819D02*
X13755714Y-56398438D01*
X13755714Y-56398438D02*
X13803333Y-56446057D01*
X14184286Y-56446057D02*
X14231905Y-56398438D01*
X14231905Y-56398438D02*
X14327143Y-56350819D01*
X14327143Y-56350819D02*
X14565238Y-56350819D01*
X14565238Y-56350819D02*
X14660476Y-56398438D01*
X14660476Y-56398438D02*
X14708095Y-56446057D01*
X14708095Y-56446057D02*
X14755714Y-56541295D01*
X14755714Y-56541295D02*
X14755714Y-56636533D01*
X14755714Y-56636533D02*
X14708095Y-56779390D01*
X14708095Y-56779390D02*
X14136667Y-57350819D01*
X14136667Y-57350819D02*
X14755714Y-57350819D01*
X23833333Y-43109580D02*
X23785714Y-43157200D01*
X23785714Y-43157200D02*
X23642857Y-43204819D01*
X23642857Y-43204819D02*
X23547619Y-43204819D01*
X23547619Y-43204819D02*
X23404762Y-43157200D01*
X23404762Y-43157200D02*
X23309524Y-43061961D01*
X23309524Y-43061961D02*
X23261905Y-42966723D01*
X23261905Y-42966723D02*
X23214286Y-42776247D01*
X23214286Y-42776247D02*
X23214286Y-42633390D01*
X23214286Y-42633390D02*
X23261905Y-42442914D01*
X23261905Y-42442914D02*
X23309524Y-42347676D01*
X23309524Y-42347676D02*
X23404762Y-42252438D01*
X23404762Y-42252438D02*
X23547619Y-42204819D01*
X23547619Y-42204819D02*
X23642857Y-42204819D01*
X23642857Y-42204819D02*
X23785714Y-42252438D01*
X23785714Y-42252438D02*
X23833333Y-42300057D01*
X24166667Y-42204819D02*
X24785714Y-42204819D01*
X24785714Y-42204819D02*
X24452381Y-42585771D01*
X24452381Y-42585771D02*
X24595238Y-42585771D01*
X24595238Y-42585771D02*
X24690476Y-42633390D01*
X24690476Y-42633390D02*
X24738095Y-42681009D01*
X24738095Y-42681009D02*
X24785714Y-42776247D01*
X24785714Y-42776247D02*
X24785714Y-43014342D01*
X24785714Y-43014342D02*
X24738095Y-43109580D01*
X24738095Y-43109580D02*
X24690476Y-43157200D01*
X24690476Y-43157200D02*
X24595238Y-43204819D01*
X24595238Y-43204819D02*
X24309524Y-43204819D01*
X24309524Y-43204819D02*
X24214286Y-43157200D01*
X24214286Y-43157200D02*
X24166667Y-43109580D01*
X23833333Y-38109580D02*
X23785714Y-38157200D01*
X23785714Y-38157200D02*
X23642857Y-38204819D01*
X23642857Y-38204819D02*
X23547619Y-38204819D01*
X23547619Y-38204819D02*
X23404762Y-38157200D01*
X23404762Y-38157200D02*
X23309524Y-38061961D01*
X23309524Y-38061961D02*
X23261905Y-37966723D01*
X23261905Y-37966723D02*
X23214286Y-37776247D01*
X23214286Y-37776247D02*
X23214286Y-37633390D01*
X23214286Y-37633390D02*
X23261905Y-37442914D01*
X23261905Y-37442914D02*
X23309524Y-37347676D01*
X23309524Y-37347676D02*
X23404762Y-37252438D01*
X23404762Y-37252438D02*
X23547619Y-37204819D01*
X23547619Y-37204819D02*
X23642857Y-37204819D01*
X23642857Y-37204819D02*
X23785714Y-37252438D01*
X23785714Y-37252438D02*
X23833333Y-37300057D01*
X24690476Y-37538152D02*
X24690476Y-38204819D01*
X24452381Y-37157200D02*
X24214286Y-37871485D01*
X24214286Y-37871485D02*
X24833333Y-37871485D01*
X23833333Y-33109580D02*
X23785714Y-33157200D01*
X23785714Y-33157200D02*
X23642857Y-33204819D01*
X23642857Y-33204819D02*
X23547619Y-33204819D01*
X23547619Y-33204819D02*
X23404762Y-33157200D01*
X23404762Y-33157200D02*
X23309524Y-33061961D01*
X23309524Y-33061961D02*
X23261905Y-32966723D01*
X23261905Y-32966723D02*
X23214286Y-32776247D01*
X23214286Y-32776247D02*
X23214286Y-32633390D01*
X23214286Y-32633390D02*
X23261905Y-32442914D01*
X23261905Y-32442914D02*
X23309524Y-32347676D01*
X23309524Y-32347676D02*
X23404762Y-32252438D01*
X23404762Y-32252438D02*
X23547619Y-32204819D01*
X23547619Y-32204819D02*
X23642857Y-32204819D01*
X23642857Y-32204819D02*
X23785714Y-32252438D01*
X23785714Y-32252438D02*
X23833333Y-32300057D01*
X24738095Y-32204819D02*
X24261905Y-32204819D01*
X24261905Y-32204819D02*
X24214286Y-32681009D01*
X24214286Y-32681009D02*
X24261905Y-32633390D01*
X24261905Y-32633390D02*
X24357143Y-32585771D01*
X24357143Y-32585771D02*
X24595238Y-32585771D01*
X24595238Y-32585771D02*
X24690476Y-32633390D01*
X24690476Y-32633390D02*
X24738095Y-32681009D01*
X24738095Y-32681009D02*
X24785714Y-32776247D01*
X24785714Y-32776247D02*
X24785714Y-33014342D01*
X24785714Y-33014342D02*
X24738095Y-33109580D01*
X24738095Y-33109580D02*
X24690476Y-33157200D01*
X24690476Y-33157200D02*
X24595238Y-33204819D01*
X24595238Y-33204819D02*
X24357143Y-33204819D01*
X24357143Y-33204819D02*
X24261905Y-33157200D01*
X24261905Y-33157200D02*
X24214286Y-33109580D01*
X23833333Y-28109580D02*
X23785714Y-28157200D01*
X23785714Y-28157200D02*
X23642857Y-28204819D01*
X23642857Y-28204819D02*
X23547619Y-28204819D01*
X23547619Y-28204819D02*
X23404762Y-28157200D01*
X23404762Y-28157200D02*
X23309524Y-28061961D01*
X23309524Y-28061961D02*
X23261905Y-27966723D01*
X23261905Y-27966723D02*
X23214286Y-27776247D01*
X23214286Y-27776247D02*
X23214286Y-27633390D01*
X23214286Y-27633390D02*
X23261905Y-27442914D01*
X23261905Y-27442914D02*
X23309524Y-27347676D01*
X23309524Y-27347676D02*
X23404762Y-27252438D01*
X23404762Y-27252438D02*
X23547619Y-27204819D01*
X23547619Y-27204819D02*
X23642857Y-27204819D01*
X23642857Y-27204819D02*
X23785714Y-27252438D01*
X23785714Y-27252438D02*
X23833333Y-27300057D01*
X24690476Y-27204819D02*
X24500000Y-27204819D01*
X24500000Y-27204819D02*
X24404762Y-27252438D01*
X24404762Y-27252438D02*
X24357143Y-27300057D01*
X24357143Y-27300057D02*
X24261905Y-27442914D01*
X24261905Y-27442914D02*
X24214286Y-27633390D01*
X24214286Y-27633390D02*
X24214286Y-28014342D01*
X24214286Y-28014342D02*
X24261905Y-28109580D01*
X24261905Y-28109580D02*
X24309524Y-28157200D01*
X24309524Y-28157200D02*
X24404762Y-28204819D01*
X24404762Y-28204819D02*
X24595238Y-28204819D01*
X24595238Y-28204819D02*
X24690476Y-28157200D01*
X24690476Y-28157200D02*
X24738095Y-28109580D01*
X24738095Y-28109580D02*
X24785714Y-28014342D01*
X24785714Y-28014342D02*
X24785714Y-27776247D01*
X24785714Y-27776247D02*
X24738095Y-27681009D01*
X24738095Y-27681009D02*
X24690476Y-27633390D01*
X24690476Y-27633390D02*
X24595238Y-27585771D01*
X24595238Y-27585771D02*
X24404762Y-27585771D01*
X24404762Y-27585771D02*
X24309524Y-27633390D01*
X24309524Y-27633390D02*
X24261905Y-27681009D01*
X24261905Y-27681009D02*
X24214286Y-27776247D01*
X16833333Y-8109580D02*
X16785714Y-8157200D01*
X16785714Y-8157200D02*
X16642857Y-8204819D01*
X16642857Y-8204819D02*
X16547619Y-8204819D01*
X16547619Y-8204819D02*
X16404762Y-8157200D01*
X16404762Y-8157200D02*
X16309524Y-8061961D01*
X16309524Y-8061961D02*
X16261905Y-7966723D01*
X16261905Y-7966723D02*
X16214286Y-7776247D01*
X16214286Y-7776247D02*
X16214286Y-7633390D01*
X16214286Y-7633390D02*
X16261905Y-7442914D01*
X16261905Y-7442914D02*
X16309524Y-7347676D01*
X16309524Y-7347676D02*
X16404762Y-7252438D01*
X16404762Y-7252438D02*
X16547619Y-7204819D01*
X16547619Y-7204819D02*
X16642857Y-7204819D01*
X16642857Y-7204819D02*
X16785714Y-7252438D01*
X16785714Y-7252438D02*
X16833333Y-7300057D01*
X17166667Y-7204819D02*
X17833333Y-7204819D01*
X17833333Y-7204819D02*
X17404762Y-8204819D01*
X16833333Y-91291580D02*
X16785714Y-91339200D01*
X16785714Y-91339200D02*
X16642857Y-91386819D01*
X16642857Y-91386819D02*
X16547619Y-91386819D01*
X16547619Y-91386819D02*
X16404762Y-91339200D01*
X16404762Y-91339200D02*
X16309524Y-91243961D01*
X16309524Y-91243961D02*
X16261905Y-91148723D01*
X16261905Y-91148723D02*
X16214286Y-90958247D01*
X16214286Y-90958247D02*
X16214286Y-90815390D01*
X16214286Y-90815390D02*
X16261905Y-90624914D01*
X16261905Y-90624914D02*
X16309524Y-90529676D01*
X16309524Y-90529676D02*
X16404762Y-90434438D01*
X16404762Y-90434438D02*
X16547619Y-90386819D01*
X16547619Y-90386819D02*
X16642857Y-90386819D01*
X16642857Y-90386819D02*
X16785714Y-90434438D01*
X16785714Y-90434438D02*
X16833333Y-90482057D01*
X17404762Y-90815390D02*
X17309524Y-90767771D01*
X17309524Y-90767771D02*
X17261905Y-90720152D01*
X17261905Y-90720152D02*
X17214286Y-90624914D01*
X17214286Y-90624914D02*
X17214286Y-90577295D01*
X17214286Y-90577295D02*
X17261905Y-90482057D01*
X17261905Y-90482057D02*
X17309524Y-90434438D01*
X17309524Y-90434438D02*
X17404762Y-90386819D01*
X17404762Y-90386819D02*
X17595238Y-90386819D01*
X17595238Y-90386819D02*
X17690476Y-90434438D01*
X17690476Y-90434438D02*
X17738095Y-90482057D01*
X17738095Y-90482057D02*
X17785714Y-90577295D01*
X17785714Y-90577295D02*
X17785714Y-90624914D01*
X17785714Y-90624914D02*
X17738095Y-90720152D01*
X17738095Y-90720152D02*
X17690476Y-90767771D01*
X17690476Y-90767771D02*
X17595238Y-90815390D01*
X17595238Y-90815390D02*
X17404762Y-90815390D01*
X17404762Y-90815390D02*
X17309524Y-90863009D01*
X17309524Y-90863009D02*
X17261905Y-90910628D01*
X17261905Y-90910628D02*
X17214286Y-91005866D01*
X17214286Y-91005866D02*
X17214286Y-91196342D01*
X17214286Y-91196342D02*
X17261905Y-91291580D01*
X17261905Y-91291580D02*
X17309524Y-91339200D01*
X17309524Y-91339200D02*
X17404762Y-91386819D01*
X17404762Y-91386819D02*
X17595238Y-91386819D01*
X17595238Y-91386819D02*
X17690476Y-91339200D01*
X17690476Y-91339200D02*
X17738095Y-91291580D01*
X17738095Y-91291580D02*
X17785714Y-91196342D01*
X17785714Y-91196342D02*
X17785714Y-91005866D01*
X17785714Y-91005866D02*
X17738095Y-90910628D01*
X17738095Y-90910628D02*
X17690476Y-90863009D01*
X17690476Y-90863009D02*
X17595238Y-90815390D01*
X12339048Y-97983866D02*
X13100953Y-97983866D01*
X12720000Y-98364819D02*
X12720000Y-97602914D01*
X16833333Y-82147580D02*
X16785714Y-82195200D01*
X16785714Y-82195200D02*
X16642857Y-82242819D01*
X16642857Y-82242819D02*
X16547619Y-82242819D01*
X16547619Y-82242819D02*
X16404762Y-82195200D01*
X16404762Y-82195200D02*
X16309524Y-82099961D01*
X16309524Y-82099961D02*
X16261905Y-82004723D01*
X16261905Y-82004723D02*
X16214286Y-81814247D01*
X16214286Y-81814247D02*
X16214286Y-81671390D01*
X16214286Y-81671390D02*
X16261905Y-81480914D01*
X16261905Y-81480914D02*
X16309524Y-81385676D01*
X16309524Y-81385676D02*
X16404762Y-81290438D01*
X16404762Y-81290438D02*
X16547619Y-81242819D01*
X16547619Y-81242819D02*
X16642857Y-81242819D01*
X16642857Y-81242819D02*
X16785714Y-81290438D01*
X16785714Y-81290438D02*
X16833333Y-81338057D01*
X17309524Y-82242819D02*
X17500000Y-82242819D01*
X17500000Y-82242819D02*
X17595238Y-82195200D01*
X17595238Y-82195200D02*
X17642857Y-82147580D01*
X17642857Y-82147580D02*
X17738095Y-82004723D01*
X17738095Y-82004723D02*
X17785714Y-81814247D01*
X17785714Y-81814247D02*
X17785714Y-81433295D01*
X17785714Y-81433295D02*
X17738095Y-81338057D01*
X17738095Y-81338057D02*
X17690476Y-81290438D01*
X17690476Y-81290438D02*
X17595238Y-81242819D01*
X17595238Y-81242819D02*
X17404762Y-81242819D01*
X17404762Y-81242819D02*
X17309524Y-81290438D01*
X17309524Y-81290438D02*
X17261905Y-81338057D01*
X17261905Y-81338057D02*
X17214286Y-81433295D01*
X17214286Y-81433295D02*
X17214286Y-81671390D01*
X17214286Y-81671390D02*
X17261905Y-81766628D01*
X17261905Y-81766628D02*
X17309524Y-81814247D01*
X17309524Y-81814247D02*
X17404762Y-81861866D01*
X17404762Y-81861866D02*
X17595238Y-81861866D01*
X17595238Y-81861866D02*
X17690476Y-81814247D01*
X17690476Y-81814247D02*
X17738095Y-81766628D01*
X17738095Y-81766628D02*
X17785714Y-81671390D01*
X12339048Y-88983866D02*
X13100953Y-88983866D01*
X12720000Y-89364819D02*
X12720000Y-88602914D01*
X5364761Y-83862057D02*
X5269523Y-83814438D01*
X5269523Y-83814438D02*
X5174285Y-83719200D01*
X5174285Y-83719200D02*
X5031428Y-83576342D01*
X5031428Y-83576342D02*
X4936190Y-83528723D01*
X4936190Y-83528723D02*
X4840952Y-83528723D01*
X4888571Y-83766819D02*
X4793333Y-83719200D01*
X4793333Y-83719200D02*
X4698095Y-83623961D01*
X4698095Y-83623961D02*
X4650476Y-83433485D01*
X4650476Y-83433485D02*
X4650476Y-83100152D01*
X4650476Y-83100152D02*
X4698095Y-82909676D01*
X4698095Y-82909676D02*
X4793333Y-82814438D01*
X4793333Y-82814438D02*
X4888571Y-82766819D01*
X4888571Y-82766819D02*
X5079047Y-82766819D01*
X5079047Y-82766819D02*
X5174285Y-82814438D01*
X5174285Y-82814438D02*
X5269523Y-82909676D01*
X5269523Y-82909676D02*
X5317142Y-83100152D01*
X5317142Y-83100152D02*
X5317142Y-83433485D01*
X5317142Y-83433485D02*
X5269523Y-83623961D01*
X5269523Y-83623961D02*
X5174285Y-83719200D01*
X5174285Y-83719200D02*
X5079047Y-83766819D01*
X5079047Y-83766819D02*
X4888571Y-83766819D01*
X6269523Y-83766819D02*
X5698095Y-83766819D01*
X5983809Y-83766819D02*
X5983809Y-82766819D01*
X5983809Y-82766819D02*
X5888571Y-82909676D01*
X5888571Y-82909676D02*
X5793333Y-83004914D01*
X5793333Y-83004914D02*
X5698095Y-83052533D01*
X5833333Y-93164819D02*
X5500000Y-92688628D01*
X5261905Y-93164819D02*
X5261905Y-92164819D01*
X5261905Y-92164819D02*
X5642857Y-92164819D01*
X5642857Y-92164819D02*
X5738095Y-92212438D01*
X5738095Y-92212438D02*
X5785714Y-92260057D01*
X5785714Y-92260057D02*
X5833333Y-92355295D01*
X5833333Y-92355295D02*
X5833333Y-92498152D01*
X5833333Y-92498152D02*
X5785714Y-92593390D01*
X5785714Y-92593390D02*
X5738095Y-92641009D01*
X5738095Y-92641009D02*
X5642857Y-92688628D01*
X5642857Y-92688628D02*
X5261905Y-92688628D01*
X6785714Y-93164819D02*
X6214286Y-93164819D01*
X6500000Y-93164819D02*
X6500000Y-92164819D01*
X6500000Y-92164819D02*
X6404762Y-92307676D01*
X6404762Y-92307676D02*
X6309524Y-92402914D01*
X6309524Y-92402914D02*
X6214286Y-92450533D01*
X16851333Y-67510819D02*
X16518000Y-67034628D01*
X16279905Y-67510819D02*
X16279905Y-66510819D01*
X16279905Y-66510819D02*
X16660857Y-66510819D01*
X16660857Y-66510819D02*
X16756095Y-66558438D01*
X16756095Y-66558438D02*
X16803714Y-66606057D01*
X16803714Y-66606057D02*
X16851333Y-66701295D01*
X16851333Y-66701295D02*
X16851333Y-66844152D01*
X16851333Y-66844152D02*
X16803714Y-66939390D01*
X16803714Y-66939390D02*
X16756095Y-66987009D01*
X16756095Y-66987009D02*
X16660857Y-67034628D01*
X16660857Y-67034628D02*
X16279905Y-67034628D01*
X17232286Y-66606057D02*
X17279905Y-66558438D01*
X17279905Y-66558438D02*
X17375143Y-66510819D01*
X17375143Y-66510819D02*
X17613238Y-66510819D01*
X17613238Y-66510819D02*
X17708476Y-66558438D01*
X17708476Y-66558438D02*
X17756095Y-66606057D01*
X17756095Y-66606057D02*
X17803714Y-66701295D01*
X17803714Y-66701295D02*
X17803714Y-66796533D01*
X17803714Y-66796533D02*
X17756095Y-66939390D01*
X17756095Y-66939390D02*
X17184667Y-67510819D01*
X17184667Y-67510819D02*
X17803714Y-67510819D01*
X23833333Y-69154819D02*
X23500000Y-68678628D01*
X23261905Y-69154819D02*
X23261905Y-68154819D01*
X23261905Y-68154819D02*
X23642857Y-68154819D01*
X23642857Y-68154819D02*
X23738095Y-68202438D01*
X23738095Y-68202438D02*
X23785714Y-68250057D01*
X23785714Y-68250057D02*
X23833333Y-68345295D01*
X23833333Y-68345295D02*
X23833333Y-68488152D01*
X23833333Y-68488152D02*
X23785714Y-68583390D01*
X23785714Y-68583390D02*
X23738095Y-68631009D01*
X23738095Y-68631009D02*
X23642857Y-68678628D01*
X23642857Y-68678628D02*
X23261905Y-68678628D01*
X24166667Y-68154819D02*
X24785714Y-68154819D01*
X24785714Y-68154819D02*
X24452381Y-68535771D01*
X24452381Y-68535771D02*
X24595238Y-68535771D01*
X24595238Y-68535771D02*
X24690476Y-68583390D01*
X24690476Y-68583390D02*
X24738095Y-68631009D01*
X24738095Y-68631009D02*
X24785714Y-68726247D01*
X24785714Y-68726247D02*
X24785714Y-68964342D01*
X24785714Y-68964342D02*
X24738095Y-69059580D01*
X24738095Y-69059580D02*
X24690476Y-69107200D01*
X24690476Y-69107200D02*
X24595238Y-69154819D01*
X24595238Y-69154819D02*
X24309524Y-69154819D01*
X24309524Y-69154819D02*
X24214286Y-69107200D01*
X24214286Y-69107200D02*
X24166667Y-69059580D01*
X13803333Y-48460819D02*
X13470000Y-47984628D01*
X13231905Y-48460819D02*
X13231905Y-47460819D01*
X13231905Y-47460819D02*
X13612857Y-47460819D01*
X13612857Y-47460819D02*
X13708095Y-47508438D01*
X13708095Y-47508438D02*
X13755714Y-47556057D01*
X13755714Y-47556057D02*
X13803333Y-47651295D01*
X13803333Y-47651295D02*
X13803333Y-47794152D01*
X13803333Y-47794152D02*
X13755714Y-47889390D01*
X13755714Y-47889390D02*
X13708095Y-47937009D01*
X13708095Y-47937009D02*
X13612857Y-47984628D01*
X13612857Y-47984628D02*
X13231905Y-47984628D01*
X14660476Y-47794152D02*
X14660476Y-48460819D01*
X14422381Y-47413200D02*
X14184286Y-48127485D01*
X14184286Y-48127485D02*
X14803333Y-48127485D01*
X23833333Y-48154819D02*
X23500000Y-47678628D01*
X23261905Y-48154819D02*
X23261905Y-47154819D01*
X23261905Y-47154819D02*
X23642857Y-47154819D01*
X23642857Y-47154819D02*
X23738095Y-47202438D01*
X23738095Y-47202438D02*
X23785714Y-47250057D01*
X23785714Y-47250057D02*
X23833333Y-47345295D01*
X23833333Y-47345295D02*
X23833333Y-47488152D01*
X23833333Y-47488152D02*
X23785714Y-47583390D01*
X23785714Y-47583390D02*
X23738095Y-47631009D01*
X23738095Y-47631009D02*
X23642857Y-47678628D01*
X23642857Y-47678628D02*
X23261905Y-47678628D01*
X24738095Y-47154819D02*
X24261905Y-47154819D01*
X24261905Y-47154819D02*
X24214286Y-47631009D01*
X24214286Y-47631009D02*
X24261905Y-47583390D01*
X24261905Y-47583390D02*
X24357143Y-47535771D01*
X24357143Y-47535771D02*
X24595238Y-47535771D01*
X24595238Y-47535771D02*
X24690476Y-47583390D01*
X24690476Y-47583390D02*
X24738095Y-47631009D01*
X24738095Y-47631009D02*
X24785714Y-47726247D01*
X24785714Y-47726247D02*
X24785714Y-47964342D01*
X24785714Y-47964342D02*
X24738095Y-48059580D01*
X24738095Y-48059580D02*
X24690476Y-48107200D01*
X24690476Y-48107200D02*
X24595238Y-48154819D01*
X24595238Y-48154819D02*
X24357143Y-48154819D01*
X24357143Y-48154819D02*
X24261905Y-48107200D01*
X24261905Y-48107200D02*
X24214286Y-48059580D01*
X14833333Y-43154819D02*
X14500000Y-42678628D01*
X14261905Y-43154819D02*
X14261905Y-42154819D01*
X14261905Y-42154819D02*
X14642857Y-42154819D01*
X14642857Y-42154819D02*
X14738095Y-42202438D01*
X14738095Y-42202438D02*
X14785714Y-42250057D01*
X14785714Y-42250057D02*
X14833333Y-42345295D01*
X14833333Y-42345295D02*
X14833333Y-42488152D01*
X14833333Y-42488152D02*
X14785714Y-42583390D01*
X14785714Y-42583390D02*
X14738095Y-42631009D01*
X14738095Y-42631009D02*
X14642857Y-42678628D01*
X14642857Y-42678628D02*
X14261905Y-42678628D01*
X15690476Y-42154819D02*
X15500000Y-42154819D01*
X15500000Y-42154819D02*
X15404762Y-42202438D01*
X15404762Y-42202438D02*
X15357143Y-42250057D01*
X15357143Y-42250057D02*
X15261905Y-42392914D01*
X15261905Y-42392914D02*
X15214286Y-42583390D01*
X15214286Y-42583390D02*
X15214286Y-42964342D01*
X15214286Y-42964342D02*
X15261905Y-43059580D01*
X15261905Y-43059580D02*
X15309524Y-43107200D01*
X15309524Y-43107200D02*
X15404762Y-43154819D01*
X15404762Y-43154819D02*
X15595238Y-43154819D01*
X15595238Y-43154819D02*
X15690476Y-43107200D01*
X15690476Y-43107200D02*
X15738095Y-43059580D01*
X15738095Y-43059580D02*
X15785714Y-42964342D01*
X15785714Y-42964342D02*
X15785714Y-42726247D01*
X15785714Y-42726247D02*
X15738095Y-42631009D01*
X15738095Y-42631009D02*
X15690476Y-42583390D01*
X15690476Y-42583390D02*
X15595238Y-42535771D01*
X15595238Y-42535771D02*
X15404762Y-42535771D01*
X15404762Y-42535771D02*
X15309524Y-42583390D01*
X15309524Y-42583390D02*
X15261905Y-42631009D01*
X15261905Y-42631009D02*
X15214286Y-42726247D01*
X14833333Y-38154819D02*
X14500000Y-37678628D01*
X14261905Y-38154819D02*
X14261905Y-37154819D01*
X14261905Y-37154819D02*
X14642857Y-37154819D01*
X14642857Y-37154819D02*
X14738095Y-37202438D01*
X14738095Y-37202438D02*
X14785714Y-37250057D01*
X14785714Y-37250057D02*
X14833333Y-37345295D01*
X14833333Y-37345295D02*
X14833333Y-37488152D01*
X14833333Y-37488152D02*
X14785714Y-37583390D01*
X14785714Y-37583390D02*
X14738095Y-37631009D01*
X14738095Y-37631009D02*
X14642857Y-37678628D01*
X14642857Y-37678628D02*
X14261905Y-37678628D01*
X15166667Y-37154819D02*
X15833333Y-37154819D01*
X15833333Y-37154819D02*
X15404762Y-38154819D01*
X14833333Y-33154819D02*
X14500000Y-32678628D01*
X14261905Y-33154819D02*
X14261905Y-32154819D01*
X14261905Y-32154819D02*
X14642857Y-32154819D01*
X14642857Y-32154819D02*
X14738095Y-32202438D01*
X14738095Y-32202438D02*
X14785714Y-32250057D01*
X14785714Y-32250057D02*
X14833333Y-32345295D01*
X14833333Y-32345295D02*
X14833333Y-32488152D01*
X14833333Y-32488152D02*
X14785714Y-32583390D01*
X14785714Y-32583390D02*
X14738095Y-32631009D01*
X14738095Y-32631009D02*
X14642857Y-32678628D01*
X14642857Y-32678628D02*
X14261905Y-32678628D01*
X15404762Y-32583390D02*
X15309524Y-32535771D01*
X15309524Y-32535771D02*
X15261905Y-32488152D01*
X15261905Y-32488152D02*
X15214286Y-32392914D01*
X15214286Y-32392914D02*
X15214286Y-32345295D01*
X15214286Y-32345295D02*
X15261905Y-32250057D01*
X15261905Y-32250057D02*
X15309524Y-32202438D01*
X15309524Y-32202438D02*
X15404762Y-32154819D01*
X15404762Y-32154819D02*
X15595238Y-32154819D01*
X15595238Y-32154819D02*
X15690476Y-32202438D01*
X15690476Y-32202438D02*
X15738095Y-32250057D01*
X15738095Y-32250057D02*
X15785714Y-32345295D01*
X15785714Y-32345295D02*
X15785714Y-32392914D01*
X15785714Y-32392914D02*
X15738095Y-32488152D01*
X15738095Y-32488152D02*
X15690476Y-32535771D01*
X15690476Y-32535771D02*
X15595238Y-32583390D01*
X15595238Y-32583390D02*
X15404762Y-32583390D01*
X15404762Y-32583390D02*
X15309524Y-32631009D01*
X15309524Y-32631009D02*
X15261905Y-32678628D01*
X15261905Y-32678628D02*
X15214286Y-32773866D01*
X15214286Y-32773866D02*
X15214286Y-32964342D01*
X15214286Y-32964342D02*
X15261905Y-33059580D01*
X15261905Y-33059580D02*
X15309524Y-33107200D01*
X15309524Y-33107200D02*
X15404762Y-33154819D01*
X15404762Y-33154819D02*
X15595238Y-33154819D01*
X15595238Y-33154819D02*
X15690476Y-33107200D01*
X15690476Y-33107200D02*
X15738095Y-33059580D01*
X15738095Y-33059580D02*
X15785714Y-32964342D01*
X15785714Y-32964342D02*
X15785714Y-32773866D01*
X15785714Y-32773866D02*
X15738095Y-32678628D01*
X15738095Y-32678628D02*
X15690476Y-32631009D01*
X15690476Y-32631009D02*
X15595238Y-32583390D01*
X22098095Y-55080819D02*
X22098095Y-55890342D01*
X22098095Y-55890342D02*
X22145714Y-55985580D01*
X22145714Y-55985580D02*
X22193333Y-56033200D01*
X22193333Y-56033200D02*
X22288571Y-56080819D01*
X22288571Y-56080819D02*
X22479047Y-56080819D01*
X22479047Y-56080819D02*
X22574285Y-56033200D01*
X22574285Y-56033200D02*
X22621904Y-55985580D01*
X22621904Y-55985580D02*
X22669523Y-55890342D01*
X22669523Y-55890342D02*
X22669523Y-55080819D01*
X23669523Y-56080819D02*
X23098095Y-56080819D01*
X23383809Y-56080819D02*
X23383809Y-55080819D01*
X23383809Y-55080819D02*
X23288571Y-55223676D01*
X23288571Y-55223676D02*
X23193333Y-55318914D01*
X23193333Y-55318914D02*
X23098095Y-55366533D01*
X0Y-31500000D02*
X0Y-20000000D01*
X-3500000Y-24200000D02*
X-3500000Y-27800000D01*
X14000000Y-20000000D02*
X14000000Y-31500000D01*
X0Y-20000000D02*
X14000000Y-20000000D01*
X0Y-27800000D02*
X-3500000Y-27800000D01*
X14000000Y-31500000D02*
X0Y-31500000D01*
X0Y-24200000D02*
X-3500000Y-24200000D01*
X14000000Y-78500000D02*
X0Y-78500000D01*
X0Y-71200000D02*
X-3500000Y-71200000D01*
X0Y-78500000D02*
X0Y-67000000D01*
X-3500000Y-71200000D02*
X-3500000Y-74800000D01*
X0Y-67000000D02*
X14000000Y-67000000D01*
X0Y-74800000D02*
X-3500000Y-74800000D01*
X14000000Y-67000000D02*
X14000000Y-78500000D01*
D11*
X-860000Y-14960000D02*
X-860000Y-8040000D01*
X-10060000Y-14560000D02*
X-10060000Y-8440000D01*
X4305000Y-16410000D02*
X-60000Y-16410000D01*
X-860000Y-8440000D02*
X-10060000Y-8440000D01*
X-860000Y-14560000D02*
X-860000Y-8440000D01*
X-60000Y-16410000D02*
X-60000Y-6590000D01*
X-60000Y-8040000D02*
X-860000Y-8040000D01*
X5060000Y-14625000D02*
X5060000Y-8375000D01*
X-860000Y-14560000D02*
X-10060000Y-14560000D01*
X4305000Y-6590000D02*
X-60000Y-6590000D01*
X-60000Y-14960000D02*
X-60000Y-8040000D01*
X-60000Y-14960000D02*
X-860000Y-14960000D01*
X-60000Y-61960000D02*
X-860000Y-61960000D01*
X-860000Y-55440000D02*
X-10060000Y-55440000D01*
X-60000Y-63410000D02*
X-60000Y-53590000D01*
X-860000Y-61960000D02*
X-860000Y-55040000D01*
X-60000Y-55040000D02*
X-860000Y-55040000D01*
X5060000Y-61625000D02*
X5060000Y-55375000D01*
X-860000Y-61560000D02*
X-10060000Y-61560000D01*
X4305000Y-53590000D02*
X-60000Y-53590000D01*
X-10060000Y-61560000D02*
X-10060000Y-55440000D01*
X-60000Y-61960000D02*
X-60000Y-55040000D01*
X-860000Y-61560000D02*
X-860000Y-55440000D01*
X4305000Y-63410000D02*
X-60000Y-63410000D01*
X28870000Y-85670000D02*
X28870000Y-98490000D01*
X26270000Y-88270000D02*
X26270000Y-85670000D01*
X23670000Y-88270000D02*
X23670000Y-98490000D01*
X23670000Y-98490000D02*
X28870000Y-98490000D01*
X23670000Y-85670000D02*
X25000000Y-85670000D01*
X23670000Y-87000000D02*
X23670000Y-85670000D01*
X26270000Y-85670000D02*
X28870000Y-85670000D01*
X23670000Y-88270000D02*
X26270000Y-88270000D01*
X26290000Y-74700000D02*
X26290000Y-75870000D01*
X22480000Y-79270000D02*
X26290000Y-79270000D01*
X22480000Y-79270000D02*
X21710000Y-78510000D01*
X21710000Y-75460000D02*
X21710000Y-75870000D01*
X22480000Y-74700000D02*
X21710000Y-75460000D01*
X21710000Y-78510000D02*
X21710000Y-78100000D01*
X22480000Y-74700000D02*
X26290000Y-74700000D01*
X26290000Y-79270000D02*
X26290000Y-78100000D01*
X15480000Y-62000000D02*
X15480000Y-60000000D01*
X12520000Y-60000000D02*
X12520000Y-62000000D01*
X25000000Y-43520000D02*
X23000000Y-43520000D01*
X23000000Y-46480000D02*
X25000000Y-46480000D01*
X25000000Y-38520000D02*
X23000000Y-38520000D01*
X23000000Y-41480000D02*
X25000000Y-41480000D01*
X23000000Y-36480000D02*
X25000000Y-36480000D01*
X25000000Y-33520000D02*
X23000000Y-33520000D01*
X23000000Y-31480000D02*
X25000000Y-31480000D01*
X25000000Y-28520000D02*
X23000000Y-28520000D01*
X16000000Y-11480000D02*
X18000000Y-11480000D01*
X18000000Y-8520000D02*
X16000000Y-8520000D01*
X20300000Y-91700000D02*
X20300000Y-93880000D01*
X14460000Y-91700000D02*
X20300000Y-91700000D01*
X13700000Y-92460000D02*
X14460000Y-91700000D01*
X14460000Y-98300000D02*
X13700000Y-97540000D01*
X13700000Y-92460000D02*
X13700000Y-93880000D01*
X20300000Y-98300000D02*
X20300000Y-96120000D01*
X13700000Y-97540000D02*
X13700000Y-96120000D01*
X20300000Y-98300000D02*
X14460000Y-98300000D01*
X13700000Y-83460000D02*
X13700000Y-84880000D01*
X13700000Y-83460000D02*
X14460000Y-82700000D01*
X14460000Y-82700000D02*
X20300000Y-82700000D01*
X14460000Y-89300000D02*
X13700000Y-88540000D01*
X20300000Y-89300000D02*
X14460000Y-89300000D01*
X20300000Y-82700000D02*
X20300000Y-84880000D01*
X20300000Y-89300000D02*
X20300000Y-87120000D01*
X13700000Y-88540000D02*
X13700000Y-87120000D01*
X7260000Y-84150000D02*
X3660000Y-84150000D01*
X7260000Y-84150000D02*
G75*
G02*
X7784184Y-84877205I-1800000J-1850000D01*
G01*
X7816400Y-87098807D02*
G75*
G02*
X5460000Y-88600000I-2356400J1098807D01*
G01*
X3135816Y-84877205D02*
G75*
G02*
X3660000Y-84150000I2324184J-1122795D01*
G01*
X5460000Y-88600000D02*
G75*
G02*
X3103600Y-87098807I0J2600000D01*
G01*
X7000000Y-96480000D02*
X5000000Y-96480000D01*
X5000000Y-93520000D02*
X7000000Y-93520000D01*
X15520000Y-72000000D02*
X15520000Y-70000000D01*
X18480000Y-70000000D02*
X18480000Y-72000000D01*
X25000000Y-72480000D02*
X23000000Y-72480000D01*
X23000000Y-69520000D02*
X25000000Y-69520000D01*
X12520000Y-53000000D02*
X12520000Y-51000000D01*
X15480000Y-51000000D02*
X15480000Y-53000000D01*
X25000000Y-51480000D02*
X23000000Y-51480000D01*
X23000000Y-48520000D02*
X25000000Y-48520000D01*
X16000000Y-46480000D02*
X14000000Y-46480000D01*
X14000000Y-43520000D02*
X16000000Y-43520000D01*
X14000000Y-38520000D02*
X16000000Y-38520000D01*
X16000000Y-41480000D02*
X14000000Y-41480000D01*
X16000000Y-36480000D02*
X14000000Y-36480000D01*
X14000000Y-33520000D02*
X16000000Y-33520000D01*
D10*
X20475000Y-62075000D02*
X20475000Y-63475000D01*
X25575000Y-57925000D02*
X25430000Y-57925000D01*
X20425000Y-62075000D02*
X20475000Y-62075000D01*
X25575000Y-62075000D02*
X25575000Y-57925000D01*
X20425000Y-57925000D02*
X20570000Y-57925000D01*
X20425000Y-62075000D02*
X20425000Y-57925000D01*
X25575000Y-62075000D02*
X25430000Y-62075000D01*
M02*
