M48
; DRILL file {KiCad 9.0.0} date 2025-02-23T16:04:57-0700
; FORMAT={-:-/ absolute / inch / decimal}
; #@! TF.CreationDate,2025-02-23T16:04:57-07:00
; #@! TF.GenerationSoftware,Kicad,Pcbnew,9.0.0
; #@! TF.FileFunction,Plated,1,2,PTH
FMAT,2
INCH
; #@! TA.AperFunction,Plated,PTH,ComponentDrill
T1C0.0157
; #@! TA.AperFunction,Plated,PTH,ComponentDrill
T2C0.0236
; #@! TA.AperFunction,Plated,PTH,ComponentDrill
T3C0.0315
; #@! TA.AperFunction,Plated,PTH,ComponentDrill
T4C0.0394
; #@! TA.AperFunction,Plated,PTH,ComponentDrill
T5C0.0906
%
G90
G05
T2
X0.3Y-3.27
X0.3Y-3.3291
T3
X0.1Y-3.82
X0.2Y-3.59
X0.3Y-3.59
X0.3543Y-1.3583
X0.3543Y-1.5748
X0.3543Y-1.8504
X0.4Y-3.59
X0.5Y-3.82
X0.5315Y-2.2441
X0.5315Y-2.4409
X0.689Y-2.126
X0.689Y-2.3622
X0.689Y-3.0906
X0.689Y-3.2677
X0.71Y-3.4613
X0.71Y-3.54
X0.71Y-3.7713
X0.71Y-3.85
X0.7283Y-2.5937
X0.7283Y-2.8937
X0.7543Y-1.3583
X0.7543Y-1.5748
X0.7543Y-1.8504
X0.8283Y-2.5937
X0.8283Y-2.8937
X0.8661Y-0.748
X0.8661Y-1.0236
X0.8661Y-1.2992
X0.8661Y-1.5748
X0.8661Y-1.8504
X0.9283Y-2.5937
X0.9283Y-2.8937
X1.0283Y-2.5937
X1.0283Y-2.8937
X1.063Y-0.748
X1.063Y-1.0236
X1.063Y-1.2992
X1.063Y-1.5748
X1.063Y-1.8504
X1.089Y-2.126
X1.089Y-2.3622
X1.089Y-3.0906
X1.089Y-3.2677
T4
X0.1378Y-0.3543
X0.1378Y-0.4528
X0.1378Y-0.5512
X0.1378Y-2.2047
X0.1378Y-2.3031
X0.1378Y-2.4016
X0.9843Y-3.4252
X0.9843Y-3.5252
X0.9843Y-3.6252
X0.9843Y-3.7252
X0.9843Y-3.8252
X1.0843Y-3.4252
X1.0843Y-3.5252
X1.0843Y-3.6252
X1.0843Y-3.7252
X1.0843Y-3.8252
T5
X0.2677Y-0.2559
X0.2677Y-0.6496
X0.2677Y-2.1063
X0.2677Y-2.5
T1
G00X0.0787Y-1.0079
M15
G01X0.0787Y-1.0394
M16
G05
G00X0.0787Y-2.8583
M15
G01X0.0787Y-2.8898
M16
G05
G00X0.1969Y-1.2008
M15
G01X0.2283Y-1.2008
M16
G05
G00X0.1969Y-3.0512
M15
G01X0.2283Y-3.0512
M16
G05
G00X0.315Y-0.9252
M15
G01X0.3465Y-0.9252
M16
G05
G00X0.315Y-2.7756
M15
G01X0.3465Y-2.7756
M16
G05
G00X0.3701Y-0.8189
M15
G01X0.4016Y-0.8189
M16
G05
G00X0.3701Y-2.6693
M15
G01X0.4016Y-2.6693
M16
G05
G00X0.5118Y-1.1654
M15
G01X0.5118Y-1.1969
M16
G05
G00X0.5118Y-3.0157
M15
G01X0.5118Y-3.0472
M16
G05
M30
