G04 #@! TF.GenerationSoftware,KiCad,Pcbnew,9.0.0*
G04 #@! TF.CreationDate,2025-02-23T16:04:55-07:00*
G04 #@! TF.ProjectId,Noise_Gen_THT,4e6f6973-655f-4476-956e-5f5448542e6b,rev?*
G04 #@! TF.SameCoordinates,Original*
G04 #@! TF.FileFunction,Legend,Top*
G04 #@! TF.FilePolarity,Positive*
%FSLAX46Y46*%
G04 Gerber Fmt 4.6, Leading zero omitted, Abs format (unit mm)*
G04 Created by KiCad (PCBNEW 9.0.0) date 2025-02-23 16:04:55*
%MOMM*%
%LPD*%
G01*
G04 APERTURE LIST*
%ADD10C,0.150000*%
%ADD11C,0.120000*%
G04 APERTURE END LIST*
D10*
X11604666Y-18250819D02*
X11604666Y-18965104D01*
X11604666Y-18965104D02*
X11557047Y-19107961D01*
X11557047Y-19107961D02*
X11461809Y-19203200D01*
X11461809Y-19203200D02*
X11318952Y-19250819D01*
X11318952Y-19250819D02*
X11223714Y-19250819D01*
X12604666Y-19250819D02*
X12033238Y-19250819D01*
X12318952Y-19250819D02*
X12318952Y-18250819D01*
X12318952Y-18250819D02*
X12223714Y-18393676D01*
X12223714Y-18393676D02*
X12128476Y-18488914D01*
X12128476Y-18488914D02*
X12033238Y-18536533D01*
X11604666Y-65494819D02*
X11604666Y-66209104D01*
X11604666Y-66209104D02*
X11557047Y-66351961D01*
X11557047Y-66351961D02*
X11461809Y-66447200D01*
X11461809Y-66447200D02*
X11318952Y-66494819D01*
X11318952Y-66494819D02*
X11223714Y-66494819D01*
X12033238Y-65590057D02*
X12080857Y-65542438D01*
X12080857Y-65542438D02*
X12176095Y-65494819D01*
X12176095Y-65494819D02*
X12414190Y-65494819D01*
X12414190Y-65494819D02*
X12509428Y-65542438D01*
X12509428Y-65542438D02*
X12557047Y-65590057D01*
X12557047Y-65590057D02*
X12604666Y-65685295D01*
X12604666Y-65685295D02*
X12604666Y-65780533D01*
X12604666Y-65780533D02*
X12557047Y-65923390D01*
X12557047Y-65923390D02*
X11985619Y-66494819D01*
X11985619Y-66494819D02*
X12604666Y-66494819D01*
X2960761Y-3502819D02*
X2627428Y-3026628D01*
X2389333Y-3502819D02*
X2389333Y-2502819D01*
X2389333Y-2502819D02*
X2770285Y-2502819D01*
X2770285Y-2502819D02*
X2865523Y-2550438D01*
X2865523Y-2550438D02*
X2913142Y-2598057D01*
X2913142Y-2598057D02*
X2960761Y-2693295D01*
X2960761Y-2693295D02*
X2960761Y-2836152D01*
X2960761Y-2836152D02*
X2913142Y-2931390D01*
X2913142Y-2931390D02*
X2865523Y-2979009D01*
X2865523Y-2979009D02*
X2770285Y-3026628D01*
X2770285Y-3026628D02*
X2389333Y-3026628D01*
X3246476Y-2502819D02*
X3579809Y-3502819D01*
X3579809Y-3502819D02*
X3913142Y-2502819D01*
X4770285Y-3502819D02*
X4198857Y-3502819D01*
X4484571Y-3502819D02*
X4484571Y-2502819D01*
X4484571Y-2502819D02*
X4389333Y-2645676D01*
X4389333Y-2645676D02*
X4294095Y-2740914D01*
X4294095Y-2740914D02*
X4198857Y-2788533D01*
X2960761Y-50492819D02*
X2627428Y-50016628D01*
X2389333Y-50492819D02*
X2389333Y-49492819D01*
X2389333Y-49492819D02*
X2770285Y-49492819D01*
X2770285Y-49492819D02*
X2865523Y-49540438D01*
X2865523Y-49540438D02*
X2913142Y-49588057D01*
X2913142Y-49588057D02*
X2960761Y-49683295D01*
X2960761Y-49683295D02*
X2960761Y-49826152D01*
X2960761Y-49826152D02*
X2913142Y-49921390D01*
X2913142Y-49921390D02*
X2865523Y-49969009D01*
X2865523Y-49969009D02*
X2770285Y-50016628D01*
X2770285Y-50016628D02*
X2389333Y-50016628D01*
X3246476Y-49492819D02*
X3579809Y-50492819D01*
X3579809Y-50492819D02*
X3913142Y-49492819D01*
X4198857Y-49588057D02*
X4246476Y-49540438D01*
X4246476Y-49540438D02*
X4341714Y-49492819D01*
X4341714Y-49492819D02*
X4579809Y-49492819D01*
X4579809Y-49492819D02*
X4675047Y-49540438D01*
X4675047Y-49540438D02*
X4722666Y-49588057D01*
X4722666Y-49588057D02*
X4770285Y-49683295D01*
X4770285Y-49683295D02*
X4770285Y-49778533D01*
X4770285Y-49778533D02*
X4722666Y-49921390D01*
X4722666Y-49921390D02*
X4151238Y-50492819D01*
X4151238Y-50492819D02*
X4770285Y-50492819D01*
X7453333Y-81131580D02*
X7405714Y-81179200D01*
X7405714Y-81179200D02*
X7262857Y-81226819D01*
X7262857Y-81226819D02*
X7167619Y-81226819D01*
X7167619Y-81226819D02*
X7024762Y-81179200D01*
X7024762Y-81179200D02*
X6929524Y-81083961D01*
X6929524Y-81083961D02*
X6881905Y-80988723D01*
X6881905Y-80988723D02*
X6834286Y-80798247D01*
X6834286Y-80798247D02*
X6834286Y-80655390D01*
X6834286Y-80655390D02*
X6881905Y-80464914D01*
X6881905Y-80464914D02*
X6929524Y-80369676D01*
X6929524Y-80369676D02*
X7024762Y-80274438D01*
X7024762Y-80274438D02*
X7167619Y-80226819D01*
X7167619Y-80226819D02*
X7262857Y-80226819D01*
X7262857Y-80226819D02*
X7405714Y-80274438D01*
X7405714Y-80274438D02*
X7453333Y-80322057D01*
X8405714Y-81226819D02*
X7834286Y-81226819D01*
X8120000Y-81226819D02*
X8120000Y-80226819D01*
X8120000Y-80226819D02*
X8024762Y-80369676D01*
X8024762Y-80369676D02*
X7929524Y-80464914D01*
X7929524Y-80464914D02*
X7834286Y-80512533D01*
X24333333Y-36849580D02*
X24285714Y-36897200D01*
X24285714Y-36897200D02*
X24142857Y-36944819D01*
X24142857Y-36944819D02*
X24047619Y-36944819D01*
X24047619Y-36944819D02*
X23904762Y-36897200D01*
X23904762Y-36897200D02*
X23809524Y-36801961D01*
X23809524Y-36801961D02*
X23761905Y-36706723D01*
X23761905Y-36706723D02*
X23714286Y-36516247D01*
X23714286Y-36516247D02*
X23714286Y-36373390D01*
X23714286Y-36373390D02*
X23761905Y-36182914D01*
X23761905Y-36182914D02*
X23809524Y-36087676D01*
X23809524Y-36087676D02*
X23904762Y-35992438D01*
X23904762Y-35992438D02*
X24047619Y-35944819D01*
X24047619Y-35944819D02*
X24142857Y-35944819D01*
X24142857Y-35944819D02*
X24285714Y-35992438D01*
X24285714Y-35992438D02*
X24333333Y-36040057D01*
X25190476Y-36278152D02*
X25190476Y-36944819D01*
X24952381Y-35897200D02*
X24714286Y-36611485D01*
X24714286Y-36611485D02*
X25333333Y-36611485D01*
X24333333Y-29849580D02*
X24285714Y-29897200D01*
X24285714Y-29897200D02*
X24142857Y-29944819D01*
X24142857Y-29944819D02*
X24047619Y-29944819D01*
X24047619Y-29944819D02*
X23904762Y-29897200D01*
X23904762Y-29897200D02*
X23809524Y-29801961D01*
X23809524Y-29801961D02*
X23761905Y-29706723D01*
X23761905Y-29706723D02*
X23714286Y-29516247D01*
X23714286Y-29516247D02*
X23714286Y-29373390D01*
X23714286Y-29373390D02*
X23761905Y-29182914D01*
X23761905Y-29182914D02*
X23809524Y-29087676D01*
X23809524Y-29087676D02*
X23904762Y-28992438D01*
X23904762Y-28992438D02*
X24047619Y-28944819D01*
X24047619Y-28944819D02*
X24142857Y-28944819D01*
X24142857Y-28944819D02*
X24285714Y-28992438D01*
X24285714Y-28992438D02*
X24333333Y-29040057D01*
X25238095Y-28944819D02*
X24761905Y-28944819D01*
X24761905Y-28944819D02*
X24714286Y-29421009D01*
X24714286Y-29421009D02*
X24761905Y-29373390D01*
X24761905Y-29373390D02*
X24857143Y-29325771D01*
X24857143Y-29325771D02*
X25095238Y-29325771D01*
X25095238Y-29325771D02*
X25190476Y-29373390D01*
X25190476Y-29373390D02*
X25238095Y-29421009D01*
X25238095Y-29421009D02*
X25285714Y-29516247D01*
X25285714Y-29516247D02*
X25285714Y-29754342D01*
X25285714Y-29754342D02*
X25238095Y-29849580D01*
X25238095Y-29849580D02*
X25190476Y-29897200D01*
X25190476Y-29897200D02*
X25095238Y-29944819D01*
X25095238Y-29944819D02*
X24857143Y-29944819D01*
X24857143Y-29944819D02*
X24761905Y-29897200D01*
X24761905Y-29897200D02*
X24714286Y-29849580D01*
X24333333Y-22849580D02*
X24285714Y-22897200D01*
X24285714Y-22897200D02*
X24142857Y-22944819D01*
X24142857Y-22944819D02*
X24047619Y-22944819D01*
X24047619Y-22944819D02*
X23904762Y-22897200D01*
X23904762Y-22897200D02*
X23809524Y-22801961D01*
X23809524Y-22801961D02*
X23761905Y-22706723D01*
X23761905Y-22706723D02*
X23714286Y-22516247D01*
X23714286Y-22516247D02*
X23714286Y-22373390D01*
X23714286Y-22373390D02*
X23761905Y-22182914D01*
X23761905Y-22182914D02*
X23809524Y-22087676D01*
X23809524Y-22087676D02*
X23904762Y-21992438D01*
X23904762Y-21992438D02*
X24047619Y-21944819D01*
X24047619Y-21944819D02*
X24142857Y-21944819D01*
X24142857Y-21944819D02*
X24285714Y-21992438D01*
X24285714Y-21992438D02*
X24333333Y-22040057D01*
X25190476Y-21944819D02*
X25000000Y-21944819D01*
X25000000Y-21944819D02*
X24904762Y-21992438D01*
X24904762Y-21992438D02*
X24857143Y-22040057D01*
X24857143Y-22040057D02*
X24761905Y-22182914D01*
X24761905Y-22182914D02*
X24714286Y-22373390D01*
X24714286Y-22373390D02*
X24714286Y-22754342D01*
X24714286Y-22754342D02*
X24761905Y-22849580D01*
X24761905Y-22849580D02*
X24809524Y-22897200D01*
X24809524Y-22897200D02*
X24904762Y-22944819D01*
X24904762Y-22944819D02*
X25095238Y-22944819D01*
X25095238Y-22944819D02*
X25190476Y-22897200D01*
X25190476Y-22897200D02*
X25238095Y-22849580D01*
X25238095Y-22849580D02*
X25285714Y-22754342D01*
X25285714Y-22754342D02*
X25285714Y-22516247D01*
X25285714Y-22516247D02*
X25238095Y-22421009D01*
X25238095Y-22421009D02*
X25190476Y-22373390D01*
X25190476Y-22373390D02*
X25095238Y-22325771D01*
X25095238Y-22325771D02*
X24904762Y-22325771D01*
X24904762Y-22325771D02*
X24809524Y-22373390D01*
X24809524Y-22373390D02*
X24761905Y-22421009D01*
X24761905Y-22421009D02*
X24714286Y-22516247D01*
X24333333Y-15849580D02*
X24285714Y-15897200D01*
X24285714Y-15897200D02*
X24142857Y-15944819D01*
X24142857Y-15944819D02*
X24047619Y-15944819D01*
X24047619Y-15944819D02*
X23904762Y-15897200D01*
X23904762Y-15897200D02*
X23809524Y-15801961D01*
X23809524Y-15801961D02*
X23761905Y-15706723D01*
X23761905Y-15706723D02*
X23714286Y-15516247D01*
X23714286Y-15516247D02*
X23714286Y-15373390D01*
X23714286Y-15373390D02*
X23761905Y-15182914D01*
X23761905Y-15182914D02*
X23809524Y-15087676D01*
X23809524Y-15087676D02*
X23904762Y-14992438D01*
X23904762Y-14992438D02*
X24047619Y-14944819D01*
X24047619Y-14944819D02*
X24142857Y-14944819D01*
X24142857Y-14944819D02*
X24285714Y-14992438D01*
X24285714Y-14992438D02*
X24333333Y-15040057D01*
X24666667Y-14944819D02*
X25333333Y-14944819D01*
X25333333Y-14944819D02*
X24904762Y-15944819D01*
X17867333Y-93577580D02*
X17819714Y-93625200D01*
X17819714Y-93625200D02*
X17676857Y-93672819D01*
X17676857Y-93672819D02*
X17581619Y-93672819D01*
X17581619Y-93672819D02*
X17438762Y-93625200D01*
X17438762Y-93625200D02*
X17343524Y-93529961D01*
X17343524Y-93529961D02*
X17295905Y-93434723D01*
X17295905Y-93434723D02*
X17248286Y-93244247D01*
X17248286Y-93244247D02*
X17248286Y-93101390D01*
X17248286Y-93101390D02*
X17295905Y-92910914D01*
X17295905Y-92910914D02*
X17343524Y-92815676D01*
X17343524Y-92815676D02*
X17438762Y-92720438D01*
X17438762Y-92720438D02*
X17581619Y-92672819D01*
X17581619Y-92672819D02*
X17676857Y-92672819D01*
X17676857Y-92672819D02*
X17819714Y-92720438D01*
X17819714Y-92720438D02*
X17867333Y-92768057D01*
X18438762Y-93101390D02*
X18343524Y-93053771D01*
X18343524Y-93053771D02*
X18295905Y-93006152D01*
X18295905Y-93006152D02*
X18248286Y-92910914D01*
X18248286Y-92910914D02*
X18248286Y-92863295D01*
X18248286Y-92863295D02*
X18295905Y-92768057D01*
X18295905Y-92768057D02*
X18343524Y-92720438D01*
X18343524Y-92720438D02*
X18438762Y-92672819D01*
X18438762Y-92672819D02*
X18629238Y-92672819D01*
X18629238Y-92672819D02*
X18724476Y-92720438D01*
X18724476Y-92720438D02*
X18772095Y-92768057D01*
X18772095Y-92768057D02*
X18819714Y-92863295D01*
X18819714Y-92863295D02*
X18819714Y-92910914D01*
X18819714Y-92910914D02*
X18772095Y-93006152D01*
X18772095Y-93006152D02*
X18724476Y-93053771D01*
X18724476Y-93053771D02*
X18629238Y-93101390D01*
X18629238Y-93101390D02*
X18438762Y-93101390D01*
X18438762Y-93101390D02*
X18343524Y-93149009D01*
X18343524Y-93149009D02*
X18295905Y-93196628D01*
X18295905Y-93196628D02*
X18248286Y-93291866D01*
X18248286Y-93291866D02*
X18248286Y-93482342D01*
X18248286Y-93482342D02*
X18295905Y-93577580D01*
X18295905Y-93577580D02*
X18343524Y-93625200D01*
X18343524Y-93625200D02*
X18438762Y-93672819D01*
X18438762Y-93672819D02*
X18629238Y-93672819D01*
X18629238Y-93672819D02*
X18724476Y-93625200D01*
X18724476Y-93625200D02*
X18772095Y-93577580D01*
X18772095Y-93577580D02*
X18819714Y-93482342D01*
X18819714Y-93482342D02*
X18819714Y-93291866D01*
X18819714Y-93291866D02*
X18772095Y-93196628D01*
X18772095Y-93196628D02*
X18724476Y-93149009D01*
X18724476Y-93149009D02*
X18629238Y-93101390D01*
X17867333Y-85703580D02*
X17819714Y-85751200D01*
X17819714Y-85751200D02*
X17676857Y-85798819D01*
X17676857Y-85798819D02*
X17581619Y-85798819D01*
X17581619Y-85798819D02*
X17438762Y-85751200D01*
X17438762Y-85751200D02*
X17343524Y-85655961D01*
X17343524Y-85655961D02*
X17295905Y-85560723D01*
X17295905Y-85560723D02*
X17248286Y-85370247D01*
X17248286Y-85370247D02*
X17248286Y-85227390D01*
X17248286Y-85227390D02*
X17295905Y-85036914D01*
X17295905Y-85036914D02*
X17343524Y-84941676D01*
X17343524Y-84941676D02*
X17438762Y-84846438D01*
X17438762Y-84846438D02*
X17581619Y-84798819D01*
X17581619Y-84798819D02*
X17676857Y-84798819D01*
X17676857Y-84798819D02*
X17819714Y-84846438D01*
X17819714Y-84846438D02*
X17867333Y-84894057D01*
X18343524Y-85798819D02*
X18534000Y-85798819D01*
X18534000Y-85798819D02*
X18629238Y-85751200D01*
X18629238Y-85751200D02*
X18676857Y-85703580D01*
X18676857Y-85703580D02*
X18772095Y-85560723D01*
X18772095Y-85560723D02*
X18819714Y-85370247D01*
X18819714Y-85370247D02*
X18819714Y-84989295D01*
X18819714Y-84989295D02*
X18772095Y-84894057D01*
X18772095Y-84894057D02*
X18724476Y-84846438D01*
X18724476Y-84846438D02*
X18629238Y-84798819D01*
X18629238Y-84798819D02*
X18438762Y-84798819D01*
X18438762Y-84798819D02*
X18343524Y-84846438D01*
X18343524Y-84846438D02*
X18295905Y-84894057D01*
X18295905Y-84894057D02*
X18248286Y-84989295D01*
X18248286Y-84989295D02*
X18248286Y-85227390D01*
X18248286Y-85227390D02*
X18295905Y-85322628D01*
X18295905Y-85322628D02*
X18343524Y-85370247D01*
X18343524Y-85370247D02*
X18438762Y-85417866D01*
X18438762Y-85417866D02*
X18629238Y-85417866D01*
X18629238Y-85417866D02*
X18724476Y-85370247D01*
X18724476Y-85370247D02*
X18772095Y-85322628D01*
X18772095Y-85322628D02*
X18819714Y-85227390D01*
X25936666Y-84124819D02*
X25936666Y-84839104D01*
X25936666Y-84839104D02*
X25889047Y-84981961D01*
X25889047Y-84981961D02*
X25793809Y-85077200D01*
X25793809Y-85077200D02*
X25650952Y-85124819D01*
X25650952Y-85124819D02*
X25555714Y-85124819D01*
X26889047Y-84124819D02*
X26412857Y-84124819D01*
X26412857Y-84124819D02*
X26365238Y-84601009D01*
X26365238Y-84601009D02*
X26412857Y-84553390D01*
X26412857Y-84553390D02*
X26508095Y-84505771D01*
X26508095Y-84505771D02*
X26746190Y-84505771D01*
X26746190Y-84505771D02*
X26841428Y-84553390D01*
X26841428Y-84553390D02*
X26889047Y-84601009D01*
X26889047Y-84601009D02*
X26936666Y-84696247D01*
X26936666Y-84696247D02*
X26936666Y-84934342D01*
X26936666Y-84934342D02*
X26889047Y-85029580D01*
X26889047Y-85029580D02*
X26841428Y-85077200D01*
X26841428Y-85077200D02*
X26746190Y-85124819D01*
X26746190Y-85124819D02*
X26508095Y-85124819D01*
X26508095Y-85124819D02*
X26412857Y-85077200D01*
X26412857Y-85077200D02*
X26365238Y-85029580D01*
X7524761Y-88942057D02*
X7429523Y-88894438D01*
X7429523Y-88894438D02*
X7334285Y-88799200D01*
X7334285Y-88799200D02*
X7191428Y-88656342D01*
X7191428Y-88656342D02*
X7096190Y-88608723D01*
X7096190Y-88608723D02*
X7000952Y-88608723D01*
X7048571Y-88846819D02*
X6953333Y-88799200D01*
X6953333Y-88799200D02*
X6858095Y-88703961D01*
X6858095Y-88703961D02*
X6810476Y-88513485D01*
X6810476Y-88513485D02*
X6810476Y-88180152D01*
X6810476Y-88180152D02*
X6858095Y-87989676D01*
X6858095Y-87989676D02*
X6953333Y-87894438D01*
X6953333Y-87894438D02*
X7048571Y-87846819D01*
X7048571Y-87846819D02*
X7239047Y-87846819D01*
X7239047Y-87846819D02*
X7334285Y-87894438D01*
X7334285Y-87894438D02*
X7429523Y-87989676D01*
X7429523Y-87989676D02*
X7477142Y-88180152D01*
X7477142Y-88180152D02*
X7477142Y-88513485D01*
X7477142Y-88513485D02*
X7429523Y-88703961D01*
X7429523Y-88703961D02*
X7334285Y-88799200D01*
X7334285Y-88799200D02*
X7239047Y-88846819D01*
X7239047Y-88846819D02*
X7048571Y-88846819D01*
X8429523Y-88846819D02*
X7858095Y-88846819D01*
X8143809Y-88846819D02*
X8143809Y-87846819D01*
X8143809Y-87846819D02*
X8048571Y-87989676D01*
X8048571Y-87989676D02*
X7953333Y-88084914D01*
X7953333Y-88084914D02*
X7858095Y-88132533D01*
X7453333Y-95196819D02*
X7120000Y-94720628D01*
X6881905Y-95196819D02*
X6881905Y-94196819D01*
X6881905Y-94196819D02*
X7262857Y-94196819D01*
X7262857Y-94196819D02*
X7358095Y-94244438D01*
X7358095Y-94244438D02*
X7405714Y-94292057D01*
X7405714Y-94292057D02*
X7453333Y-94387295D01*
X7453333Y-94387295D02*
X7453333Y-94530152D01*
X7453333Y-94530152D02*
X7405714Y-94625390D01*
X7405714Y-94625390D02*
X7358095Y-94673009D01*
X7358095Y-94673009D02*
X7262857Y-94720628D01*
X7262857Y-94720628D02*
X6881905Y-94720628D01*
X8405714Y-95196819D02*
X7834286Y-95196819D01*
X8120000Y-95196819D02*
X8120000Y-94196819D01*
X8120000Y-94196819D02*
X8024762Y-94339676D01*
X8024762Y-94339676D02*
X7929524Y-94434914D01*
X7929524Y-94434914D02*
X7834286Y-94482533D01*
X22413333Y-76644819D02*
X22080000Y-76168628D01*
X21841905Y-76644819D02*
X21841905Y-75644819D01*
X21841905Y-75644819D02*
X22222857Y-75644819D01*
X22222857Y-75644819D02*
X22318095Y-75692438D01*
X22318095Y-75692438D02*
X22365714Y-75740057D01*
X22365714Y-75740057D02*
X22413333Y-75835295D01*
X22413333Y-75835295D02*
X22413333Y-75978152D01*
X22413333Y-75978152D02*
X22365714Y-76073390D01*
X22365714Y-76073390D02*
X22318095Y-76121009D01*
X22318095Y-76121009D02*
X22222857Y-76168628D01*
X22222857Y-76168628D02*
X21841905Y-76168628D01*
X22794286Y-75740057D02*
X22841905Y-75692438D01*
X22841905Y-75692438D02*
X22937143Y-75644819D01*
X22937143Y-75644819D02*
X23175238Y-75644819D01*
X23175238Y-75644819D02*
X23270476Y-75692438D01*
X23270476Y-75692438D02*
X23318095Y-75740057D01*
X23318095Y-75740057D02*
X23365714Y-75835295D01*
X23365714Y-75835295D02*
X23365714Y-75930533D01*
X23365714Y-75930533D02*
X23318095Y-76073390D01*
X23318095Y-76073390D02*
X22746667Y-76644819D01*
X22746667Y-76644819D02*
X23365714Y-76644819D01*
X22413333Y-81144819D02*
X22080000Y-80668628D01*
X21841905Y-81144819D02*
X21841905Y-80144819D01*
X21841905Y-80144819D02*
X22222857Y-80144819D01*
X22222857Y-80144819D02*
X22318095Y-80192438D01*
X22318095Y-80192438D02*
X22365714Y-80240057D01*
X22365714Y-80240057D02*
X22413333Y-80335295D01*
X22413333Y-80335295D02*
X22413333Y-80478152D01*
X22413333Y-80478152D02*
X22365714Y-80573390D01*
X22365714Y-80573390D02*
X22318095Y-80621009D01*
X22318095Y-80621009D02*
X22222857Y-80668628D01*
X22222857Y-80668628D02*
X21841905Y-80668628D01*
X22746667Y-80144819D02*
X23365714Y-80144819D01*
X23365714Y-80144819D02*
X23032381Y-80525771D01*
X23032381Y-80525771D02*
X23175238Y-80525771D01*
X23175238Y-80525771D02*
X23270476Y-80573390D01*
X23270476Y-80573390D02*
X23318095Y-80621009D01*
X23318095Y-80621009D02*
X23365714Y-80716247D01*
X23365714Y-80716247D02*
X23365714Y-80954342D01*
X23365714Y-80954342D02*
X23318095Y-81049580D01*
X23318095Y-81049580D02*
X23270476Y-81097200D01*
X23270476Y-81097200D02*
X23175238Y-81144819D01*
X23175238Y-81144819D02*
X22889524Y-81144819D01*
X22889524Y-81144819D02*
X22794286Y-81097200D01*
X22794286Y-81097200D02*
X22746667Y-81049580D01*
X22413333Y-58144819D02*
X22080000Y-57668628D01*
X21841905Y-58144819D02*
X21841905Y-57144819D01*
X21841905Y-57144819D02*
X22222857Y-57144819D01*
X22222857Y-57144819D02*
X22318095Y-57192438D01*
X22318095Y-57192438D02*
X22365714Y-57240057D01*
X22365714Y-57240057D02*
X22413333Y-57335295D01*
X22413333Y-57335295D02*
X22413333Y-57478152D01*
X22413333Y-57478152D02*
X22365714Y-57573390D01*
X22365714Y-57573390D02*
X22318095Y-57621009D01*
X22318095Y-57621009D02*
X22222857Y-57668628D01*
X22222857Y-57668628D02*
X21841905Y-57668628D01*
X23270476Y-57478152D02*
X23270476Y-58144819D01*
X23032381Y-57097200D02*
X22794286Y-57811485D01*
X22794286Y-57811485D02*
X23413333Y-57811485D01*
X22413333Y-52144819D02*
X22080000Y-51668628D01*
X21841905Y-52144819D02*
X21841905Y-51144819D01*
X21841905Y-51144819D02*
X22222857Y-51144819D01*
X22222857Y-51144819D02*
X22318095Y-51192438D01*
X22318095Y-51192438D02*
X22365714Y-51240057D01*
X22365714Y-51240057D02*
X22413333Y-51335295D01*
X22413333Y-51335295D02*
X22413333Y-51478152D01*
X22413333Y-51478152D02*
X22365714Y-51573390D01*
X22365714Y-51573390D02*
X22318095Y-51621009D01*
X22318095Y-51621009D02*
X22222857Y-51668628D01*
X22222857Y-51668628D02*
X21841905Y-51668628D01*
X23318095Y-51144819D02*
X22841905Y-51144819D01*
X22841905Y-51144819D02*
X22794286Y-51621009D01*
X22794286Y-51621009D02*
X22841905Y-51573390D01*
X22841905Y-51573390D02*
X22937143Y-51525771D01*
X22937143Y-51525771D02*
X23175238Y-51525771D01*
X23175238Y-51525771D02*
X23270476Y-51573390D01*
X23270476Y-51573390D02*
X23318095Y-51621009D01*
X23318095Y-51621009D02*
X23365714Y-51716247D01*
X23365714Y-51716247D02*
X23365714Y-51954342D01*
X23365714Y-51954342D02*
X23318095Y-52049580D01*
X23318095Y-52049580D02*
X23270476Y-52097200D01*
X23270476Y-52097200D02*
X23175238Y-52144819D01*
X23175238Y-52144819D02*
X22937143Y-52144819D01*
X22937143Y-52144819D02*
X22841905Y-52097200D01*
X22841905Y-52097200D02*
X22794286Y-52049580D01*
X13913333Y-45144819D02*
X13580000Y-44668628D01*
X13341905Y-45144819D02*
X13341905Y-44144819D01*
X13341905Y-44144819D02*
X13722857Y-44144819D01*
X13722857Y-44144819D02*
X13818095Y-44192438D01*
X13818095Y-44192438D02*
X13865714Y-44240057D01*
X13865714Y-44240057D02*
X13913333Y-44335295D01*
X13913333Y-44335295D02*
X13913333Y-44478152D01*
X13913333Y-44478152D02*
X13865714Y-44573390D01*
X13865714Y-44573390D02*
X13818095Y-44621009D01*
X13818095Y-44621009D02*
X13722857Y-44668628D01*
X13722857Y-44668628D02*
X13341905Y-44668628D01*
X14770476Y-44144819D02*
X14580000Y-44144819D01*
X14580000Y-44144819D02*
X14484762Y-44192438D01*
X14484762Y-44192438D02*
X14437143Y-44240057D01*
X14437143Y-44240057D02*
X14341905Y-44382914D01*
X14341905Y-44382914D02*
X14294286Y-44573390D01*
X14294286Y-44573390D02*
X14294286Y-44954342D01*
X14294286Y-44954342D02*
X14341905Y-45049580D01*
X14341905Y-45049580D02*
X14389524Y-45097200D01*
X14389524Y-45097200D02*
X14484762Y-45144819D01*
X14484762Y-45144819D02*
X14675238Y-45144819D01*
X14675238Y-45144819D02*
X14770476Y-45097200D01*
X14770476Y-45097200D02*
X14818095Y-45049580D01*
X14818095Y-45049580D02*
X14865714Y-44954342D01*
X14865714Y-44954342D02*
X14865714Y-44716247D01*
X14865714Y-44716247D02*
X14818095Y-44621009D01*
X14818095Y-44621009D02*
X14770476Y-44573390D01*
X14770476Y-44573390D02*
X14675238Y-44525771D01*
X14675238Y-44525771D02*
X14484762Y-44525771D01*
X14484762Y-44525771D02*
X14389524Y-44573390D01*
X14389524Y-44573390D02*
X14341905Y-44621009D01*
X14341905Y-44621009D02*
X14294286Y-44716247D01*
X13913333Y-38144819D02*
X13580000Y-37668628D01*
X13341905Y-38144819D02*
X13341905Y-37144819D01*
X13341905Y-37144819D02*
X13722857Y-37144819D01*
X13722857Y-37144819D02*
X13818095Y-37192438D01*
X13818095Y-37192438D02*
X13865714Y-37240057D01*
X13865714Y-37240057D02*
X13913333Y-37335295D01*
X13913333Y-37335295D02*
X13913333Y-37478152D01*
X13913333Y-37478152D02*
X13865714Y-37573390D01*
X13865714Y-37573390D02*
X13818095Y-37621009D01*
X13818095Y-37621009D02*
X13722857Y-37668628D01*
X13722857Y-37668628D02*
X13341905Y-37668628D01*
X14246667Y-37144819D02*
X14913333Y-37144819D01*
X14913333Y-37144819D02*
X14484762Y-38144819D01*
X15327333Y-32644819D02*
X14994000Y-32168628D01*
X14755905Y-32644819D02*
X14755905Y-31644819D01*
X14755905Y-31644819D02*
X15136857Y-31644819D01*
X15136857Y-31644819D02*
X15232095Y-31692438D01*
X15232095Y-31692438D02*
X15279714Y-31740057D01*
X15279714Y-31740057D02*
X15327333Y-31835295D01*
X15327333Y-31835295D02*
X15327333Y-31978152D01*
X15327333Y-31978152D02*
X15279714Y-32073390D01*
X15279714Y-32073390D02*
X15232095Y-32121009D01*
X15232095Y-32121009D02*
X15136857Y-32168628D01*
X15136857Y-32168628D02*
X14755905Y-32168628D01*
X15898762Y-32073390D02*
X15803524Y-32025771D01*
X15803524Y-32025771D02*
X15755905Y-31978152D01*
X15755905Y-31978152D02*
X15708286Y-31882914D01*
X15708286Y-31882914D02*
X15708286Y-31835295D01*
X15708286Y-31835295D02*
X15755905Y-31740057D01*
X15755905Y-31740057D02*
X15803524Y-31692438D01*
X15803524Y-31692438D02*
X15898762Y-31644819D01*
X15898762Y-31644819D02*
X16089238Y-31644819D01*
X16089238Y-31644819D02*
X16184476Y-31692438D01*
X16184476Y-31692438D02*
X16232095Y-31740057D01*
X16232095Y-31740057D02*
X16279714Y-31835295D01*
X16279714Y-31835295D02*
X16279714Y-31882914D01*
X16279714Y-31882914D02*
X16232095Y-31978152D01*
X16232095Y-31978152D02*
X16184476Y-32025771D01*
X16184476Y-32025771D02*
X16089238Y-32073390D01*
X16089238Y-32073390D02*
X15898762Y-32073390D01*
X15898762Y-32073390D02*
X15803524Y-32121009D01*
X15803524Y-32121009D02*
X15755905Y-32168628D01*
X15755905Y-32168628D02*
X15708286Y-32263866D01*
X15708286Y-32263866D02*
X15708286Y-32454342D01*
X15708286Y-32454342D02*
X15755905Y-32549580D01*
X15755905Y-32549580D02*
X15803524Y-32597200D01*
X15803524Y-32597200D02*
X15898762Y-32644819D01*
X15898762Y-32644819D02*
X16089238Y-32644819D01*
X16089238Y-32644819D02*
X16184476Y-32597200D01*
X16184476Y-32597200D02*
X16232095Y-32549580D01*
X16232095Y-32549580D02*
X16279714Y-32454342D01*
X16279714Y-32454342D02*
X16279714Y-32263866D01*
X16279714Y-32263866D02*
X16232095Y-32168628D01*
X16232095Y-32168628D02*
X16184476Y-32121009D01*
X16184476Y-32121009D02*
X16089238Y-32073390D01*
X24333333Y-43849580D02*
X24285714Y-43897200D01*
X24285714Y-43897200D02*
X24142857Y-43944819D01*
X24142857Y-43944819D02*
X24047619Y-43944819D01*
X24047619Y-43944819D02*
X23904762Y-43897200D01*
X23904762Y-43897200D02*
X23809524Y-43801961D01*
X23809524Y-43801961D02*
X23761905Y-43706723D01*
X23761905Y-43706723D02*
X23714286Y-43516247D01*
X23714286Y-43516247D02*
X23714286Y-43373390D01*
X23714286Y-43373390D02*
X23761905Y-43182914D01*
X23761905Y-43182914D02*
X23809524Y-43087676D01*
X23809524Y-43087676D02*
X23904762Y-42992438D01*
X23904762Y-42992438D02*
X24047619Y-42944819D01*
X24047619Y-42944819D02*
X24142857Y-42944819D01*
X24142857Y-42944819D02*
X24285714Y-42992438D01*
X24285714Y-42992438D02*
X24333333Y-43040057D01*
X24666667Y-42944819D02*
X25285714Y-42944819D01*
X25285714Y-42944819D02*
X24952381Y-43325771D01*
X24952381Y-43325771D02*
X25095238Y-43325771D01*
X25095238Y-43325771D02*
X25190476Y-43373390D01*
X25190476Y-43373390D02*
X25238095Y-43421009D01*
X25238095Y-43421009D02*
X25285714Y-43516247D01*
X25285714Y-43516247D02*
X25285714Y-43754342D01*
X25285714Y-43754342D02*
X25238095Y-43849580D01*
X25238095Y-43849580D02*
X25190476Y-43897200D01*
X25190476Y-43897200D02*
X25095238Y-43944819D01*
X25095238Y-43944819D02*
X24809524Y-43944819D01*
X24809524Y-43944819D02*
X24714286Y-43897200D01*
X24714286Y-43897200D02*
X24666667Y-43849580D01*
X21590095Y-62954819D02*
X21590095Y-63764342D01*
X21590095Y-63764342D02*
X21637714Y-63859580D01*
X21637714Y-63859580D02*
X21685333Y-63907200D01*
X21685333Y-63907200D02*
X21780571Y-63954819D01*
X21780571Y-63954819D02*
X21971047Y-63954819D01*
X21971047Y-63954819D02*
X22066285Y-63907200D01*
X22066285Y-63907200D02*
X22113904Y-63859580D01*
X22113904Y-63859580D02*
X22161523Y-63764342D01*
X22161523Y-63764342D02*
X22161523Y-62954819D01*
X23161523Y-63954819D02*
X22590095Y-63954819D01*
X22875809Y-63954819D02*
X22875809Y-62954819D01*
X22875809Y-62954819D02*
X22780571Y-63097676D01*
X22780571Y-63097676D02*
X22685333Y-63192914D01*
X22685333Y-63192914D02*
X22590095Y-63240533D01*
X13295333Y-55477580D02*
X13247714Y-55525200D01*
X13247714Y-55525200D02*
X13104857Y-55572819D01*
X13104857Y-55572819D02*
X13009619Y-55572819D01*
X13009619Y-55572819D02*
X12866762Y-55525200D01*
X12866762Y-55525200D02*
X12771524Y-55429961D01*
X12771524Y-55429961D02*
X12723905Y-55334723D01*
X12723905Y-55334723D02*
X12676286Y-55144247D01*
X12676286Y-55144247D02*
X12676286Y-55001390D01*
X12676286Y-55001390D02*
X12723905Y-54810914D01*
X12723905Y-54810914D02*
X12771524Y-54715676D01*
X12771524Y-54715676D02*
X12866762Y-54620438D01*
X12866762Y-54620438D02*
X13009619Y-54572819D01*
X13009619Y-54572819D02*
X13104857Y-54572819D01*
X13104857Y-54572819D02*
X13247714Y-54620438D01*
X13247714Y-54620438D02*
X13295333Y-54668057D01*
X13676286Y-54668057D02*
X13723905Y-54620438D01*
X13723905Y-54620438D02*
X13819143Y-54572819D01*
X13819143Y-54572819D02*
X14057238Y-54572819D01*
X14057238Y-54572819D02*
X14152476Y-54620438D01*
X14152476Y-54620438D02*
X14200095Y-54668057D01*
X14200095Y-54668057D02*
X14247714Y-54763295D01*
X14247714Y-54763295D02*
X14247714Y-54858533D01*
X14247714Y-54858533D02*
X14200095Y-55001390D01*
X14200095Y-55001390D02*
X13628667Y-55572819D01*
X13628667Y-55572819D02*
X14247714Y-55572819D01*
X-3500000Y-24200000D02*
X-3500000Y-27800000D01*
X0Y-20000000D02*
X14000000Y-20000000D01*
X0Y-24200000D02*
X-3500000Y-24200000D01*
X0Y-27800000D02*
X-3500000Y-27800000D01*
X0Y-31500000D02*
X0Y-20000000D01*
X14000000Y-20000000D02*
X14000000Y-31500000D01*
X14000000Y-31500000D02*
X0Y-31500000D01*
X-3500000Y-71200000D02*
X-3500000Y-74800000D01*
X0Y-67000000D02*
X14000000Y-67000000D01*
X0Y-71200000D02*
X-3500000Y-71200000D01*
X0Y-74800000D02*
X-3500000Y-74800000D01*
X0Y-78500000D02*
X0Y-67000000D01*
X14000000Y-67000000D02*
X14000000Y-78500000D01*
X14000000Y-78500000D02*
X0Y-78500000D01*
D11*
X-10060000Y-14560000D02*
X-10060000Y-8440000D01*
X-860000Y-8440000D02*
X-10060000Y-8440000D01*
X-860000Y-14560000D02*
X-10060000Y-14560000D01*
X-860000Y-14560000D02*
X-860000Y-8440000D01*
X-860000Y-14960000D02*
X-860000Y-8040000D01*
X-60000Y-8040000D02*
X-860000Y-8040000D01*
X-60000Y-14960000D02*
X-860000Y-14960000D01*
X-60000Y-14960000D02*
X-60000Y-8040000D01*
X-60000Y-16410000D02*
X-60000Y-6590000D01*
X4305000Y-6590000D02*
X-60000Y-6590000D01*
X4305000Y-16410000D02*
X-60000Y-16410000D01*
X5060000Y-14625000D02*
X5060000Y-8375000D01*
X-10060000Y-61560000D02*
X-10060000Y-55440000D01*
X-860000Y-55440000D02*
X-10060000Y-55440000D01*
X-860000Y-61560000D02*
X-10060000Y-61560000D01*
X-860000Y-61560000D02*
X-860000Y-55440000D01*
X-860000Y-61960000D02*
X-860000Y-55040000D01*
X-60000Y-55040000D02*
X-860000Y-55040000D01*
X-60000Y-61960000D02*
X-860000Y-61960000D01*
X-60000Y-61960000D02*
X-60000Y-55040000D01*
X-60000Y-63410000D02*
X-60000Y-53590000D01*
X4305000Y-53590000D02*
X-60000Y-53590000D01*
X4305000Y-63410000D02*
X-60000Y-63410000D01*
X5060000Y-61625000D02*
X5060000Y-55375000D01*
X6840000Y-83808000D02*
X5570000Y-83808000D01*
X6840000Y-83848000D02*
X5570000Y-83848000D01*
X6840000Y-83888000D02*
X5571000Y-83888000D01*
X6840000Y-83928000D02*
X5573000Y-83928000D01*
X6840000Y-83968000D02*
X5576000Y-83968000D01*
X6840000Y-84008000D02*
X5579000Y-84008000D01*
X6840000Y-84048000D02*
X5583000Y-84048000D01*
X6840000Y-84088000D02*
X5588000Y-84088000D01*
X6840000Y-84128000D02*
X5594000Y-84128000D01*
X6840000Y-84168000D02*
X5601000Y-84168000D01*
X6840000Y-84208000D02*
X5608000Y-84208000D01*
X6840000Y-84248000D02*
X5616000Y-84248000D01*
X6840000Y-84288000D02*
X5625000Y-84288000D01*
X6840000Y-84328000D02*
X5635000Y-84328000D01*
X6840000Y-84368000D02*
X5646000Y-84368000D01*
X6840000Y-84408000D02*
X5657000Y-84408000D01*
X6840000Y-84448000D02*
X5670000Y-84448000D01*
X6840000Y-84488000D02*
X5683000Y-84488000D01*
X6840000Y-84529000D02*
X5697000Y-84529000D01*
X6840000Y-84569000D02*
X5713000Y-84569000D01*
X6840000Y-84609000D02*
X5729000Y-84609000D01*
X6840000Y-84649000D02*
X5746000Y-84649000D01*
X6840000Y-84689000D02*
X5764000Y-84689000D01*
X6840000Y-84729000D02*
X5783000Y-84729000D01*
X6840000Y-84769000D02*
X5803000Y-84769000D01*
X6840000Y-84809000D02*
X5824000Y-84809000D01*
X6840000Y-84849000D02*
X5847000Y-84849000D01*
X6840000Y-84889000D02*
X5870000Y-84889000D01*
X6840000Y-84929000D02*
X5895000Y-84929000D01*
X6840000Y-84969000D02*
X5921000Y-84969000D01*
X6840000Y-85009000D02*
X5948000Y-85009000D01*
X6840000Y-85049000D02*
X5977000Y-85049000D01*
X6840000Y-85089000D02*
X6007000Y-85089000D01*
X6840000Y-85129000D02*
X6039000Y-85129000D01*
X6840000Y-85169000D02*
X6073000Y-85169000D01*
X6840000Y-85209000D02*
X6108000Y-85209000D01*
X6840000Y-85249000D02*
X6145000Y-85249000D01*
X6840000Y-85289000D02*
X6184000Y-85289000D01*
X6840000Y-85329000D02*
X6225000Y-85329000D01*
X7620000Y-81358000D02*
X7620000Y-82258000D01*
X7785000Y-85889000D02*
X7455000Y-85889000D01*
X8035000Y-85849000D02*
X7205000Y-85849000D01*
X8070000Y-81808000D02*
X7170000Y-81808000D01*
X8187000Y-85809000D02*
X7053000Y-85809000D01*
X8306000Y-85769000D02*
X6934000Y-85769000D01*
X8406000Y-85729000D02*
X6834000Y-85729000D01*
X8494000Y-85689000D02*
X6746000Y-85689000D01*
X8572000Y-85649000D02*
X6668000Y-85649000D01*
X8643000Y-85609000D02*
X6597000Y-85609000D01*
X8708000Y-85569000D02*
X6532000Y-85569000D01*
X8768000Y-85529000D02*
X6472000Y-85529000D01*
X8824000Y-85489000D02*
X6416000Y-85489000D01*
X8876000Y-85449000D02*
X6364000Y-85449000D01*
X8925000Y-85409000D02*
X6315000Y-85409000D01*
X8971000Y-85369000D02*
X6269000Y-85369000D01*
X9015000Y-85329000D02*
X8400000Y-85329000D01*
X9056000Y-85289000D02*
X8400000Y-85289000D01*
X9095000Y-85249000D02*
X8400000Y-85249000D01*
X9132000Y-85209000D02*
X8400000Y-85209000D01*
X9167000Y-85169000D02*
X8400000Y-85169000D01*
X9201000Y-85129000D02*
X8400000Y-85129000D01*
X9233000Y-85089000D02*
X8400000Y-85089000D01*
X9263000Y-85049000D02*
X8400000Y-85049000D01*
X9292000Y-85009000D02*
X8400000Y-85009000D01*
X9319000Y-84969000D02*
X8400000Y-84969000D01*
X9345000Y-84929000D02*
X8400000Y-84929000D01*
X9370000Y-84889000D02*
X8400000Y-84889000D01*
X9393000Y-84849000D02*
X8400000Y-84849000D01*
X9416000Y-84809000D02*
X8400000Y-84809000D01*
X9437000Y-84769000D02*
X8400000Y-84769000D01*
X9457000Y-84729000D02*
X8400000Y-84729000D01*
X9476000Y-84689000D02*
X8400000Y-84689000D01*
X9494000Y-84649000D02*
X8400000Y-84649000D01*
X9511000Y-84609000D02*
X8400000Y-84609000D01*
X9527000Y-84569000D02*
X8400000Y-84569000D01*
X9543000Y-84529000D02*
X8400000Y-84529000D01*
X9557000Y-84488000D02*
X8400000Y-84488000D01*
X9570000Y-84448000D02*
X8400000Y-84448000D01*
X9583000Y-84408000D02*
X8400000Y-84408000D01*
X9594000Y-84368000D02*
X8400000Y-84368000D01*
X9605000Y-84328000D02*
X8400000Y-84328000D01*
X9615000Y-84288000D02*
X8400000Y-84288000D01*
X9624000Y-84248000D02*
X8400000Y-84248000D01*
X9632000Y-84208000D02*
X8400000Y-84208000D01*
X9639000Y-84168000D02*
X8400000Y-84168000D01*
X9646000Y-84128000D02*
X8400000Y-84128000D01*
X9652000Y-84088000D02*
X8400000Y-84088000D01*
X9657000Y-84048000D02*
X8400000Y-84048000D01*
X9661000Y-84008000D02*
X8400000Y-84008000D01*
X9664000Y-83968000D02*
X8400000Y-83968000D01*
X9667000Y-83928000D02*
X8400000Y-83928000D01*
X9669000Y-83888000D02*
X8400000Y-83888000D01*
X9670000Y-83808000D02*
X8400000Y-83808000D01*
X9670000Y-83848000D02*
X8400000Y-83848000D01*
X6640830Y-85654436D02*
G75*
G02*
X6640000Y-81962004I979170J1846436D01*
G01*
X8600000Y-81962004D02*
G75*
G02*
X8599170Y-85654436I-980000J-1845996D01*
G01*
X8600000Y-85653996D02*
G75*
G02*
X6640830Y-85654436I-980000J1845996D01*
G01*
X21440000Y-37740000D02*
X21440000Y-39004000D01*
X21440000Y-37740000D02*
X27560000Y-37740000D01*
X21440000Y-40996000D02*
X21440000Y-42260000D01*
X21440000Y-42260000D02*
X27560000Y-42260000D01*
X27560000Y-37740000D02*
X27560000Y-39004000D01*
X27560000Y-40996000D02*
X27560000Y-42260000D01*
X21440000Y-30740000D02*
X21440000Y-32004000D01*
X21440000Y-30740000D02*
X27560000Y-30740000D01*
X21440000Y-33996000D02*
X21440000Y-35260000D01*
X21440000Y-35260000D02*
X27560000Y-35260000D01*
X27560000Y-30740000D02*
X27560000Y-32004000D01*
X27560000Y-33996000D02*
X27560000Y-35260000D01*
X21440000Y-23740000D02*
X21440000Y-25004000D01*
X21440000Y-23740000D02*
X27560000Y-23740000D01*
X21440000Y-26996000D02*
X21440000Y-28260000D01*
X21440000Y-28260000D02*
X27560000Y-28260000D01*
X27560000Y-23740000D02*
X27560000Y-25004000D01*
X27560000Y-26996000D02*
X27560000Y-28260000D01*
X21440000Y-16740000D02*
X21440000Y-18004000D01*
X21440000Y-16740000D02*
X27560000Y-16740000D01*
X21440000Y-19996000D02*
X21440000Y-21260000D01*
X21440000Y-21260000D02*
X27560000Y-21260000D01*
X27560000Y-16740000D02*
X27560000Y-18004000D01*
X27560000Y-19996000D02*
X27560000Y-21260000D01*
X15484000Y-96750000D02*
X17054000Y-96750000D01*
X15484000Y-96790000D02*
X20584000Y-96790000D01*
X15485000Y-96710000D02*
X17054000Y-96710000D01*
X15486000Y-96670000D02*
X17054000Y-96670000D01*
X15488000Y-96630000D02*
X17054000Y-96630000D01*
X15491000Y-96590000D02*
X17054000Y-96590000D01*
X15495000Y-96550000D02*
X17054000Y-96550000D01*
X15499000Y-96510000D02*
X17054000Y-96510000D01*
X15503000Y-96470000D02*
X17054000Y-96470000D01*
X15509000Y-96430000D02*
X17054000Y-96430000D01*
X15515000Y-96390000D02*
X17054000Y-96390000D01*
X15521000Y-96350000D02*
X17054000Y-96350000D01*
X15528000Y-96310000D02*
X17054000Y-96310000D01*
X15536000Y-96270000D02*
X17054000Y-96270000D01*
X15545000Y-96230000D02*
X17054000Y-96230000D01*
X15554000Y-96190000D02*
X17054000Y-96190000D01*
X15564000Y-96150000D02*
X17054000Y-96150000D01*
X15574000Y-96110000D02*
X17054000Y-96110000D01*
X15586000Y-96069000D02*
X17054000Y-96069000D01*
X15598000Y-96029000D02*
X17054000Y-96029000D01*
X15610000Y-95989000D02*
X17054000Y-95989000D01*
X15624000Y-95949000D02*
X17054000Y-95949000D01*
X15638000Y-95909000D02*
X17054000Y-95909000D01*
X15652000Y-95869000D02*
X17054000Y-95869000D01*
X15668000Y-95829000D02*
X17054000Y-95829000D01*
X15684000Y-95789000D02*
X17054000Y-95789000D01*
X15701000Y-95749000D02*
X17054000Y-95749000D01*
X15719000Y-95709000D02*
X17054000Y-95709000D01*
X15738000Y-95669000D02*
X17054000Y-95669000D01*
X15758000Y-95629000D02*
X17054000Y-95629000D01*
X15778000Y-95589000D02*
X17054000Y-95589000D01*
X15800000Y-95549000D02*
X17054000Y-95549000D01*
X15822000Y-95509000D02*
X17054000Y-95509000D01*
X15845000Y-95469000D02*
X17054000Y-95469000D01*
X15869000Y-95429000D02*
X17054000Y-95429000D01*
X15894000Y-95389000D02*
X17054000Y-95389000D01*
X15921000Y-95349000D02*
X17054000Y-95349000D01*
X15948000Y-95309000D02*
X17054000Y-95309000D01*
X15976000Y-95269000D02*
X17054000Y-95269000D01*
X16006000Y-95229000D02*
X17054000Y-95229000D01*
X16037000Y-95189000D02*
X17054000Y-95189000D01*
X16069000Y-95149000D02*
X17054000Y-95149000D01*
X16102000Y-95109000D02*
X17054000Y-95109000D01*
X16137000Y-95069000D02*
X17054000Y-95069000D01*
X16173000Y-95029000D02*
X17054000Y-95029000D01*
X16211000Y-94989000D02*
X17054000Y-94989000D01*
X16251000Y-94949000D02*
X17054000Y-94949000D01*
X16292000Y-94909000D02*
X17054000Y-94909000D01*
X16335000Y-94869000D02*
X17054000Y-94869000D01*
X16380000Y-94829000D02*
X17054000Y-94829000D01*
X16428000Y-94789000D02*
X19640000Y-94789000D01*
X16478000Y-94749000D02*
X19590000Y-94749000D01*
X16530000Y-94709000D02*
X19538000Y-94709000D01*
X16586000Y-94669000D02*
X19482000Y-94669000D01*
X16644000Y-94629000D02*
X19424000Y-94629000D01*
X16707000Y-94589000D02*
X19361000Y-94589000D01*
X16773000Y-94549000D02*
X19295000Y-94549000D01*
X16845000Y-94509000D02*
X19223000Y-94509000D01*
X16922000Y-94469000D02*
X19146000Y-94469000D01*
X17006000Y-94429000D02*
X19062000Y-94429000D01*
X17100000Y-94389000D02*
X18968000Y-94389000D01*
X17205000Y-94349000D02*
X18863000Y-94349000D01*
X17327000Y-94309000D02*
X18741000Y-94309000D01*
X17384000Y-99390000D02*
X18684000Y-99390000D01*
X17475000Y-94269000D02*
X18593000Y-94269000D01*
X17680000Y-94229000D02*
X18388000Y-94229000D01*
X18034000Y-99990000D02*
X18034000Y-98790000D01*
X19014000Y-94829000D02*
X19688000Y-94829000D01*
X19014000Y-94869000D02*
X19733000Y-94869000D01*
X19014000Y-94909000D02*
X19776000Y-94909000D01*
X19014000Y-94949000D02*
X19817000Y-94949000D01*
X19014000Y-94989000D02*
X19857000Y-94989000D01*
X19014000Y-95029000D02*
X19895000Y-95029000D01*
X19014000Y-95069000D02*
X19931000Y-95069000D01*
X19014000Y-95109000D02*
X19966000Y-95109000D01*
X19014000Y-95149000D02*
X19999000Y-95149000D01*
X19014000Y-95189000D02*
X20031000Y-95189000D01*
X19014000Y-95229000D02*
X20062000Y-95229000D01*
X19014000Y-95269000D02*
X20092000Y-95269000D01*
X19014000Y-95309000D02*
X20120000Y-95309000D01*
X19014000Y-95349000D02*
X20147000Y-95349000D01*
X19014000Y-95389000D02*
X20174000Y-95389000D01*
X19014000Y-95429000D02*
X20199000Y-95429000D01*
X19014000Y-95469000D02*
X20223000Y-95469000D01*
X19014000Y-95509000D02*
X20246000Y-95509000D01*
X19014000Y-95549000D02*
X20268000Y-95549000D01*
X19014000Y-95589000D02*
X20290000Y-95589000D01*
X19014000Y-95629000D02*
X20310000Y-95629000D01*
X19014000Y-95669000D02*
X20330000Y-95669000D01*
X19014000Y-95709000D02*
X20349000Y-95709000D01*
X19014000Y-95749000D02*
X20367000Y-95749000D01*
X19014000Y-95789000D02*
X20384000Y-95789000D01*
X19014000Y-95829000D02*
X20400000Y-95829000D01*
X19014000Y-95869000D02*
X20416000Y-95869000D01*
X19014000Y-95909000D02*
X20430000Y-95909000D01*
X19014000Y-95949000D02*
X20444000Y-95949000D01*
X19014000Y-95989000D02*
X20458000Y-95989000D01*
X19014000Y-96029000D02*
X20470000Y-96029000D01*
X19014000Y-96069000D02*
X20482000Y-96069000D01*
X19014000Y-96110000D02*
X20494000Y-96110000D01*
X19014000Y-96150000D02*
X20504000Y-96150000D01*
X19014000Y-96190000D02*
X20514000Y-96190000D01*
X19014000Y-96230000D02*
X20523000Y-96230000D01*
X19014000Y-96270000D02*
X20532000Y-96270000D01*
X19014000Y-96310000D02*
X20540000Y-96310000D01*
X19014000Y-96350000D02*
X20547000Y-96350000D01*
X19014000Y-96390000D02*
X20553000Y-96390000D01*
X19014000Y-96430000D02*
X20559000Y-96430000D01*
X19014000Y-96470000D02*
X20565000Y-96470000D01*
X19014000Y-96510000D02*
X20569000Y-96510000D01*
X19014000Y-96550000D02*
X20573000Y-96550000D01*
X19014000Y-96590000D02*
X20577000Y-96590000D01*
X19014000Y-96630000D02*
X20580000Y-96630000D01*
X19014000Y-96670000D02*
X20582000Y-96670000D01*
X19014000Y-96710000D02*
X20583000Y-96710000D01*
X19014000Y-96750000D02*
X20584000Y-96750000D01*
X16854000Y-94484420D02*
G75*
G02*
X19213722Y-94484278I1180000J-2305580D01*
G01*
X16854000Y-99095580D02*
G75*
G02*
X16854278Y-94484278I1180000J2305580D01*
G01*
X19213722Y-94484278D02*
G75*
G02*
X19214000Y-99095580I-1179722J-2305722D01*
G01*
X15484000Y-88876000D02*
X17054000Y-88876000D01*
X15484000Y-88916000D02*
X20584000Y-88916000D01*
X15485000Y-88836000D02*
X17054000Y-88836000D01*
X15486000Y-88796000D02*
X17054000Y-88796000D01*
X15488000Y-88756000D02*
X17054000Y-88756000D01*
X15491000Y-88716000D02*
X17054000Y-88716000D01*
X15495000Y-88676000D02*
X17054000Y-88676000D01*
X15499000Y-88636000D02*
X17054000Y-88636000D01*
X15503000Y-88596000D02*
X17054000Y-88596000D01*
X15509000Y-88556000D02*
X17054000Y-88556000D01*
X15515000Y-88516000D02*
X17054000Y-88516000D01*
X15521000Y-88476000D02*
X17054000Y-88476000D01*
X15528000Y-88436000D02*
X17054000Y-88436000D01*
X15536000Y-88396000D02*
X17054000Y-88396000D01*
X15545000Y-88356000D02*
X17054000Y-88356000D01*
X15554000Y-88316000D02*
X17054000Y-88316000D01*
X15564000Y-88276000D02*
X17054000Y-88276000D01*
X15574000Y-88236000D02*
X17054000Y-88236000D01*
X15586000Y-88195000D02*
X17054000Y-88195000D01*
X15598000Y-88155000D02*
X17054000Y-88155000D01*
X15610000Y-88115000D02*
X17054000Y-88115000D01*
X15624000Y-88075000D02*
X17054000Y-88075000D01*
X15638000Y-88035000D02*
X17054000Y-88035000D01*
X15652000Y-87995000D02*
X17054000Y-87995000D01*
X15668000Y-87955000D02*
X17054000Y-87955000D01*
X15684000Y-87915000D02*
X17054000Y-87915000D01*
X15701000Y-87875000D02*
X17054000Y-87875000D01*
X15719000Y-87835000D02*
X17054000Y-87835000D01*
X15738000Y-87795000D02*
X17054000Y-87795000D01*
X15758000Y-87755000D02*
X17054000Y-87755000D01*
X15778000Y-87715000D02*
X17054000Y-87715000D01*
X15800000Y-87675000D02*
X17054000Y-87675000D01*
X15822000Y-87635000D02*
X17054000Y-87635000D01*
X15845000Y-87595000D02*
X17054000Y-87595000D01*
X15869000Y-87555000D02*
X17054000Y-87555000D01*
X15894000Y-87515000D02*
X17054000Y-87515000D01*
X15921000Y-87475000D02*
X17054000Y-87475000D01*
X15948000Y-87435000D02*
X17054000Y-87435000D01*
X15976000Y-87395000D02*
X17054000Y-87395000D01*
X16006000Y-87355000D02*
X17054000Y-87355000D01*
X16037000Y-87315000D02*
X17054000Y-87315000D01*
X16069000Y-87275000D02*
X17054000Y-87275000D01*
X16102000Y-87235000D02*
X17054000Y-87235000D01*
X16137000Y-87195000D02*
X17054000Y-87195000D01*
X16173000Y-87155000D02*
X17054000Y-87155000D01*
X16211000Y-87115000D02*
X17054000Y-87115000D01*
X16251000Y-87075000D02*
X17054000Y-87075000D01*
X16292000Y-87035000D02*
X17054000Y-87035000D01*
X16335000Y-86995000D02*
X17054000Y-86995000D01*
X16380000Y-86955000D02*
X17054000Y-86955000D01*
X16428000Y-86915000D02*
X19640000Y-86915000D01*
X16478000Y-86875000D02*
X19590000Y-86875000D01*
X16530000Y-86835000D02*
X19538000Y-86835000D01*
X16586000Y-86795000D02*
X19482000Y-86795000D01*
X16644000Y-86755000D02*
X19424000Y-86755000D01*
X16707000Y-86715000D02*
X19361000Y-86715000D01*
X16773000Y-86675000D02*
X19295000Y-86675000D01*
X16845000Y-86635000D02*
X19223000Y-86635000D01*
X16922000Y-86595000D02*
X19146000Y-86595000D01*
X17006000Y-86555000D02*
X19062000Y-86555000D01*
X17100000Y-86515000D02*
X18968000Y-86515000D01*
X17205000Y-86475000D02*
X18863000Y-86475000D01*
X17327000Y-86435000D02*
X18741000Y-86435000D01*
X17384000Y-91516000D02*
X18684000Y-91516000D01*
X17475000Y-86395000D02*
X18593000Y-86395000D01*
X17680000Y-86355000D02*
X18388000Y-86355000D01*
X18034000Y-92116000D02*
X18034000Y-90916000D01*
X19014000Y-86955000D02*
X19688000Y-86955000D01*
X19014000Y-86995000D02*
X19733000Y-86995000D01*
X19014000Y-87035000D02*
X19776000Y-87035000D01*
X19014000Y-87075000D02*
X19817000Y-87075000D01*
X19014000Y-87115000D02*
X19857000Y-87115000D01*
X19014000Y-87155000D02*
X19895000Y-87155000D01*
X19014000Y-87195000D02*
X19931000Y-87195000D01*
X19014000Y-87235000D02*
X19966000Y-87235000D01*
X19014000Y-87275000D02*
X19999000Y-87275000D01*
X19014000Y-87315000D02*
X20031000Y-87315000D01*
X19014000Y-87355000D02*
X20062000Y-87355000D01*
X19014000Y-87395000D02*
X20092000Y-87395000D01*
X19014000Y-87435000D02*
X20120000Y-87435000D01*
X19014000Y-87475000D02*
X20147000Y-87475000D01*
X19014000Y-87515000D02*
X20174000Y-87515000D01*
X19014000Y-87555000D02*
X20199000Y-87555000D01*
X19014000Y-87595000D02*
X20223000Y-87595000D01*
X19014000Y-87635000D02*
X20246000Y-87635000D01*
X19014000Y-87675000D02*
X20268000Y-87675000D01*
X19014000Y-87715000D02*
X20290000Y-87715000D01*
X19014000Y-87755000D02*
X20310000Y-87755000D01*
X19014000Y-87795000D02*
X20330000Y-87795000D01*
X19014000Y-87835000D02*
X20349000Y-87835000D01*
X19014000Y-87875000D02*
X20367000Y-87875000D01*
X19014000Y-87915000D02*
X20384000Y-87915000D01*
X19014000Y-87955000D02*
X20400000Y-87955000D01*
X19014000Y-87995000D02*
X20416000Y-87995000D01*
X19014000Y-88035000D02*
X20430000Y-88035000D01*
X19014000Y-88075000D02*
X20444000Y-88075000D01*
X19014000Y-88115000D02*
X20458000Y-88115000D01*
X19014000Y-88155000D02*
X20470000Y-88155000D01*
X19014000Y-88195000D02*
X20482000Y-88195000D01*
X19014000Y-88236000D02*
X20494000Y-88236000D01*
X19014000Y-88276000D02*
X20504000Y-88276000D01*
X19014000Y-88316000D02*
X20514000Y-88316000D01*
X19014000Y-88356000D02*
X20523000Y-88356000D01*
X19014000Y-88396000D02*
X20532000Y-88396000D01*
X19014000Y-88436000D02*
X20540000Y-88436000D01*
X19014000Y-88476000D02*
X20547000Y-88476000D01*
X19014000Y-88516000D02*
X20553000Y-88516000D01*
X19014000Y-88556000D02*
X20559000Y-88556000D01*
X19014000Y-88596000D02*
X20565000Y-88596000D01*
X19014000Y-88636000D02*
X20569000Y-88636000D01*
X19014000Y-88676000D02*
X20573000Y-88676000D01*
X19014000Y-88716000D02*
X20577000Y-88716000D01*
X19014000Y-88756000D02*
X20580000Y-88756000D01*
X19014000Y-88796000D02*
X20582000Y-88796000D01*
X19014000Y-88836000D02*
X20583000Y-88836000D01*
X19014000Y-88876000D02*
X20584000Y-88876000D01*
X16854000Y-86610420D02*
G75*
G02*
X19213722Y-86610278I1180000J-2305580D01*
G01*
X16854000Y-91221580D02*
G75*
G02*
X16854278Y-86610278I1180000J2305580D01*
G01*
X19213722Y-86610278D02*
G75*
G02*
X19214000Y-91221580I-1179722J-2305722D01*
G01*
X23670000Y-85670000D02*
X25000000Y-85670000D01*
X23670000Y-87000000D02*
X23670000Y-85670000D01*
X23670000Y-88270000D02*
X23670000Y-98490000D01*
X23670000Y-88270000D02*
X26270000Y-88270000D01*
X23670000Y-98490000D02*
X28870000Y-98490000D01*
X26270000Y-85670000D02*
X28870000Y-85670000D01*
X26270000Y-88270000D02*
X26270000Y-85670000D01*
X28870000Y-85670000D02*
X28870000Y-98490000D01*
X9420000Y-89336000D02*
X5820000Y-89336000D01*
X5295816Y-90063205D02*
G75*
G02*
X5820000Y-89336000I2324184J-1122795D01*
G01*
X7620000Y-93786000D02*
G75*
G02*
X5263600Y-92284807I0J2600000D01*
G01*
X9420000Y-89336000D02*
G75*
G02*
X9944184Y-90063205I-1800000J-1850000D01*
G01*
X9976400Y-92284807D02*
G75*
G02*
X7620000Y-93786000I-2356400J1098807D01*
G01*
X3520000Y-97028000D02*
X4410000Y-97028000D01*
X4410000Y-95718000D02*
X4410000Y-98338000D01*
X4410000Y-98338000D02*
X10830000Y-98338000D01*
X10830000Y-95718000D02*
X4410000Y-95718000D01*
X10830000Y-98338000D02*
X10830000Y-95718000D01*
X11720000Y-97028000D02*
X10830000Y-97028000D01*
X18480000Y-78500000D02*
X19370000Y-78500000D01*
X19370000Y-77190000D02*
X19370000Y-79810000D01*
X19370000Y-79810000D02*
X25790000Y-79810000D01*
X25790000Y-77190000D02*
X19370000Y-77190000D01*
X25790000Y-79810000D02*
X25790000Y-77190000D01*
X26680000Y-78500000D02*
X25790000Y-78500000D01*
X18480000Y-83000000D02*
X19370000Y-83000000D01*
X19370000Y-81690000D02*
X19370000Y-84310000D01*
X19370000Y-84310000D02*
X25790000Y-84310000D01*
X25790000Y-81690000D02*
X19370000Y-81690000D01*
X25790000Y-84310000D02*
X25790000Y-81690000D01*
X26680000Y-83000000D02*
X25790000Y-83000000D01*
X18480000Y-60000000D02*
X19370000Y-60000000D01*
X19370000Y-58690000D02*
X19370000Y-61310000D01*
X19370000Y-61310000D02*
X25790000Y-61310000D01*
X25790000Y-58690000D02*
X19370000Y-58690000D01*
X25790000Y-61310000D02*
X25790000Y-58690000D01*
X26680000Y-60000000D02*
X25790000Y-60000000D01*
X18480000Y-54000000D02*
X19370000Y-54000000D01*
X19370000Y-52690000D02*
X19370000Y-55310000D01*
X19370000Y-55310000D02*
X25790000Y-55310000D01*
X25790000Y-52690000D02*
X19370000Y-52690000D01*
X25790000Y-55310000D02*
X25790000Y-52690000D01*
X26680000Y-54000000D02*
X25790000Y-54000000D01*
X9980000Y-47000000D02*
X10870000Y-47000000D01*
X10870000Y-45690000D02*
X10870000Y-48310000D01*
X10870000Y-48310000D02*
X17290000Y-48310000D01*
X17290000Y-45690000D02*
X10870000Y-45690000D01*
X17290000Y-48310000D02*
X17290000Y-45690000D01*
X18180000Y-47000000D02*
X17290000Y-47000000D01*
X9980000Y-40000000D02*
X10870000Y-40000000D01*
X10870000Y-38690000D02*
X10870000Y-41310000D01*
X10870000Y-41310000D02*
X17290000Y-41310000D01*
X17290000Y-38690000D02*
X10870000Y-38690000D01*
X17290000Y-41310000D02*
X17290000Y-38690000D01*
X18180000Y-40000000D02*
X17290000Y-40000000D01*
X9980000Y-34500000D02*
X10870000Y-34500000D01*
X10870000Y-33190000D02*
X10870000Y-35810000D01*
X10870000Y-35810000D02*
X17290000Y-35810000D01*
X17290000Y-33190000D02*
X10870000Y-33190000D01*
X17290000Y-35810000D02*
X17290000Y-33190000D01*
X18180000Y-34500000D02*
X17290000Y-34500000D01*
X21440000Y-44740000D02*
X21440000Y-46004000D01*
X21440000Y-44740000D02*
X27560000Y-44740000D01*
X21440000Y-47996000D02*
X21440000Y-49260000D01*
X21440000Y-49260000D02*
X27560000Y-49260000D01*
X27560000Y-44740000D02*
X27560000Y-46004000D01*
X27560000Y-47996000D02*
X27560000Y-49260000D01*
X17110000Y-64550000D02*
X17110000Y-74830000D01*
X17110000Y-74830000D02*
X27510000Y-74830000D01*
X17170000Y-67040000D02*
X17170000Y-68690000D01*
X17170000Y-70690000D02*
X17170000Y-72340000D01*
X17170000Y-72340000D02*
X27450000Y-72340000D01*
X27450000Y-67040000D02*
X17170000Y-67040000D01*
X27450000Y-72340000D02*
X27450000Y-67040000D01*
X27510000Y-64550000D02*
X17110000Y-64550000D01*
X27510000Y-74830000D02*
X27510000Y-64550000D01*
X17170000Y-68690000D02*
G75*
G02*
X17170000Y-70690000I0J-1000000D01*
G01*
X11240000Y-56440000D02*
X12504000Y-56440000D01*
X11240000Y-62560000D02*
X11240000Y-56440000D01*
X11240000Y-62560000D02*
X12504000Y-62560000D01*
X14496000Y-56440000D02*
X15760000Y-56440000D01*
X14496000Y-62560000D02*
X15760000Y-62560000D01*
X15760000Y-62560000D02*
X15760000Y-56440000D01*
M02*
