G04 #@! TF.GenerationSoftware,KiCad,Pcbnew,9.0.0*
G04 #@! TF.CreationDate,2025-02-23T16:04:55-07:00*
G04 #@! TF.ProjectId,Noise_Gen_THT,4e6f6973-655f-4476-956e-5f5448542e6b,rev?*
G04 #@! TF.SameCoordinates,Original*
G04 #@! TF.FileFunction,Copper,L2,Bot*
G04 #@! TF.FilePolarity,Positive*
%FSLAX46Y46*%
G04 Gerber Fmt 4.6, Leading zero omitted, Abs format (unit mm)*
G04 Created by KiCad (PCBNEW 9.0.0) date 2025-02-23 16:04:55*
%MOMM*%
%LPD*%
G01*
G04 APERTURE LIST*
G04 #@! TA.AperFunction,ComponentPad*
%ADD10R,1.000000X2.200000*%
G04 #@! TD*
G04 #@! TA.AperFunction,ComponentPad*
%ADD11R,2.200000X1.000000*%
G04 #@! TD*
G04 #@! TA.AperFunction,ComponentPad*
%ADD12C,4.600000*%
G04 #@! TD*
G04 #@! TA.AperFunction,ComponentPad*
%ADD13C,1.800000*%
G04 #@! TD*
G04 #@! TA.AperFunction,ComponentPad*
%ADD14R,1.200000X1.200000*%
G04 #@! TD*
G04 #@! TA.AperFunction,ComponentPad*
%ADD15C,1.200000*%
G04 #@! TD*
G04 #@! TA.AperFunction,ComponentPad*
%ADD16C,1.600000*%
G04 #@! TD*
G04 #@! TA.AperFunction,ComponentPad*
%ADD17R,1.600000X1.600000*%
G04 #@! TD*
G04 #@! TA.AperFunction,ComponentPad*
%ADD18R,1.700000X1.700000*%
G04 #@! TD*
G04 #@! TA.AperFunction,ComponentPad*
%ADD19O,1.700000X1.700000*%
G04 #@! TD*
G04 #@! TA.AperFunction,ComponentPad*
%ADD20R,1.520000X1.520000*%
G04 #@! TD*
G04 #@! TA.AperFunction,ComponentPad*
%ADD21C,1.520000*%
G04 #@! TD*
G04 #@! TA.AperFunction,ComponentPad*
%ADD22O,1.600000X1.600000*%
G04 #@! TD*
G04 #@! TA.AperFunction,Conductor*
%ADD23C,0.500000*%
G04 #@! TD*
G04 APERTURE END LIST*
D10*
X2000000Y-26000000D03*
X13000000Y-30000000D03*
D11*
X5400000Y-30500000D03*
X8400000Y-23500000D03*
X9800000Y-20800000D03*
D10*
X2000000Y-73000000D03*
X13000000Y-77000000D03*
D11*
X5400000Y-77500000D03*
X8400000Y-70500000D03*
X9800000Y-67800000D03*
D12*
X6800000Y-16500000D03*
X6800000Y-6500000D03*
D13*
X3500000Y-9000000D03*
X3500000Y-11500000D03*
X3500000Y-14000000D03*
D12*
X6800000Y-63500000D03*
X6800000Y-53500000D03*
D13*
X3500000Y-56000000D03*
X3500000Y-58500000D03*
X3500000Y-61000000D03*
D14*
X7620000Y-83058000D03*
D15*
X7620000Y-84558000D03*
D16*
X22000000Y-40000000D03*
X27000000Y-40000000D03*
X22000000Y-33000000D03*
X27000000Y-33000000D03*
X22000000Y-26000000D03*
X27000000Y-26000000D03*
X22000000Y-19000000D03*
X27000000Y-19000000D03*
D17*
X18034000Y-97790000D03*
D16*
X18034000Y-95790000D03*
D17*
X18034000Y-89916000D03*
D16*
X18034000Y-87916000D03*
D18*
X25000000Y-87000000D03*
D19*
X27540000Y-87000000D03*
X25000000Y-89540000D03*
X27540000Y-89540000D03*
X25000000Y-92080000D03*
X27540000Y-92080000D03*
X25000000Y-94620000D03*
X27540000Y-94620000D03*
X25000000Y-97160000D03*
X27540000Y-97160000D03*
D20*
X10160000Y-91186000D03*
D21*
X7620000Y-91186000D03*
X5080000Y-91186000D03*
D16*
X12700000Y-97028000D03*
D22*
X2540000Y-97028000D03*
D16*
X17500000Y-78500000D03*
D22*
X27660000Y-78500000D03*
D16*
X17500000Y-83000000D03*
D22*
X27660000Y-83000000D03*
D16*
X17500000Y-60000000D03*
D22*
X27660000Y-60000000D03*
D16*
X17500000Y-54000000D03*
D22*
X27660000Y-54000000D03*
D16*
X9000000Y-47000000D03*
D22*
X19160000Y-47000000D03*
D16*
X9000000Y-40000000D03*
D22*
X19160000Y-40000000D03*
D16*
X9000000Y-34500000D03*
D22*
X19160000Y-34500000D03*
D16*
X22000000Y-47000000D03*
X27000000Y-47000000D03*
D17*
X18500000Y-73500000D03*
D22*
X21040000Y-73500000D03*
X23580000Y-73500000D03*
X26120000Y-73500000D03*
X26120000Y-65880000D03*
X23580000Y-65880000D03*
X21040000Y-65880000D03*
X18500000Y-65880000D03*
D16*
X13500000Y-62000000D03*
X13500000Y-57000000D03*
D23*
X27540000Y-87000000D02*
X25000000Y-87000000D01*
X7620000Y-84558000D02*
X7620000Y-91186000D01*
X18950000Y-87000000D02*
X18034000Y-87916000D01*
X25000000Y-87000000D02*
X18950000Y-87000000D01*
X25000000Y-74620000D02*
X26120000Y-73500000D01*
X10890000Y-87916000D02*
X7620000Y-91186000D01*
X18034000Y-87916000D02*
X10890000Y-87916000D01*
X25000000Y-87000000D02*
X25000000Y-74620000D01*
X25000000Y-97160000D02*
X24370000Y-97790000D01*
X22862630Y-71374000D02*
X26924000Y-71374000D01*
X13462000Y-97790000D02*
X12700000Y-97028000D01*
X26924000Y-71374000D02*
X29210000Y-73660000D01*
X18500000Y-67011370D02*
X22862630Y-71374000D01*
X29210000Y-73660000D02*
X29210000Y-95490000D01*
X18034000Y-97790000D02*
X13462000Y-97790000D01*
X29210000Y-95490000D02*
X28389999Y-96310001D01*
X18500000Y-65880000D02*
X18500000Y-67011370D01*
X27540000Y-97160000D02*
X25000000Y-97160000D01*
X28389999Y-96310001D02*
X27540000Y-97160000D01*
X24370000Y-97790000D02*
X18034000Y-97790000D01*
G04 #@! TA.AperFunction,Conductor*
G36*
X29914121Y-45502D02*
G01*
X29960614Y-99158D01*
X29972000Y-151500D01*
X29972000Y-73045129D01*
X29951998Y-73113250D01*
X29898342Y-73159743D01*
X29828068Y-73169847D01*
X29763488Y-73140353D01*
X29756905Y-73134224D01*
X27407519Y-70784838D01*
X27407515Y-70784834D01*
X27283284Y-70701826D01*
X27145247Y-70644649D01*
X27071976Y-70630074D01*
X27071975Y-70630073D01*
X26998711Y-70615500D01*
X26998706Y-70615500D01*
X23229001Y-70615500D01*
X23160880Y-70595498D01*
X23139906Y-70578595D01*
X19484999Y-66923688D01*
X19450973Y-66861376D01*
X19456038Y-66790561D01*
X19485000Y-66745497D01*
X19498068Y-66732430D01*
X19619129Y-66565803D01*
X19657734Y-66490034D01*
X19706481Y-66438422D01*
X19775396Y-66421356D01*
X19842598Y-66444257D01*
X19882264Y-66490034D01*
X19920871Y-66565803D01*
X20041932Y-66732430D01*
X20041934Y-66732432D01*
X20041936Y-66732435D01*
X20187564Y-66878063D01*
X20187567Y-66878065D01*
X20187570Y-66878068D01*
X20354197Y-66999129D01*
X20537710Y-67092634D01*
X20733592Y-67156280D01*
X20937019Y-67188500D01*
X20937022Y-67188500D01*
X21142978Y-67188500D01*
X21142981Y-67188500D01*
X21346408Y-67156280D01*
X21542290Y-67092634D01*
X21725803Y-66999129D01*
X21892430Y-66878068D01*
X22038068Y-66732430D01*
X22159129Y-66565803D01*
X22197734Y-66490034D01*
X22246481Y-66438422D01*
X22315396Y-66421356D01*
X22382598Y-66444257D01*
X22422264Y-66490034D01*
X22460871Y-66565803D01*
X22581932Y-66732430D01*
X22581934Y-66732432D01*
X22581936Y-66732435D01*
X22727564Y-66878063D01*
X22727567Y-66878065D01*
X22727570Y-66878068D01*
X22894197Y-66999129D01*
X23077710Y-67092634D01*
X23273592Y-67156280D01*
X23477019Y-67188500D01*
X23477022Y-67188500D01*
X23682978Y-67188500D01*
X23682981Y-67188500D01*
X23886408Y-67156280D01*
X24082290Y-67092634D01*
X24265803Y-66999129D01*
X24432430Y-66878068D01*
X24578068Y-66732430D01*
X24699129Y-66565803D01*
X24738014Y-66489486D01*
X24786759Y-66437874D01*
X24855674Y-66420807D01*
X24922876Y-66443707D01*
X24962545Y-66489487D01*
X25001298Y-66565542D01*
X25122315Y-66732107D01*
X25122317Y-66732110D01*
X25267889Y-66877682D01*
X25267892Y-66877684D01*
X25434454Y-66998699D01*
X25617900Y-67092170D01*
X25617906Y-67092173D01*
X25813705Y-67155791D01*
X25813717Y-67155794D01*
X25865999Y-67164074D01*
X25866000Y-67164074D01*
X25866000Y-66191686D01*
X25874394Y-66200080D01*
X25965606Y-66252741D01*
X26067339Y-66280000D01*
X26172661Y-66280000D01*
X26274394Y-66252741D01*
X26365606Y-66200080D01*
X26374000Y-66191686D01*
X26374000Y-67164074D01*
X26426282Y-67155794D01*
X26426294Y-67155791D01*
X26622093Y-67092173D01*
X26622099Y-67092170D01*
X26805545Y-66998699D01*
X26972107Y-66877684D01*
X26972110Y-66877682D01*
X27117682Y-66732110D01*
X27117684Y-66732107D01*
X27238699Y-66565545D01*
X27332170Y-66382099D01*
X27332173Y-66382093D01*
X27395791Y-66186295D01*
X27404074Y-66134000D01*
X26431686Y-66134000D01*
X26440080Y-66125606D01*
X26492741Y-66034394D01*
X26520000Y-65932661D01*
X26520000Y-65827339D01*
X26492741Y-65725606D01*
X26440080Y-65634394D01*
X26431686Y-65626000D01*
X27404074Y-65626000D01*
X27395791Y-65573704D01*
X27332173Y-65377906D01*
X27332170Y-65377900D01*
X27238699Y-65194454D01*
X27117684Y-65027892D01*
X27117682Y-65027889D01*
X26972110Y-64882317D01*
X26972107Y-64882315D01*
X26805545Y-64761300D01*
X26622099Y-64667829D01*
X26622093Y-64667826D01*
X26426294Y-64604208D01*
X26426296Y-64604208D01*
X26374000Y-64595925D01*
X26374000Y-65568314D01*
X26365606Y-65559920D01*
X26274394Y-65507259D01*
X26172661Y-65480000D01*
X26067339Y-65480000D01*
X25965606Y-65507259D01*
X25874394Y-65559920D01*
X25866000Y-65568314D01*
X25866000Y-64595925D01*
X25813704Y-64604208D01*
X25617906Y-64667826D01*
X25617900Y-64667829D01*
X25434454Y-64761300D01*
X25267892Y-64882315D01*
X25267889Y-64882317D01*
X25122317Y-65027889D01*
X25122315Y-65027892D01*
X25001299Y-65194455D01*
X24962545Y-65270513D01*
X24913796Y-65322127D01*
X24844881Y-65339192D01*
X24777680Y-65316290D01*
X24738013Y-65270511D01*
X24699129Y-65194197D01*
X24578068Y-65027570D01*
X24578065Y-65027567D01*
X24578063Y-65027564D01*
X24432435Y-64881936D01*
X24432432Y-64881934D01*
X24432430Y-64881932D01*
X24306999Y-64790802D01*
X24265806Y-64760873D01*
X24265805Y-64760872D01*
X24265803Y-64760871D01*
X24082290Y-64667366D01*
X24082287Y-64667365D01*
X24082285Y-64667364D01*
X23886412Y-64603721D01*
X23886410Y-64603720D01*
X23886408Y-64603720D01*
X23682981Y-64571500D01*
X23477019Y-64571500D01*
X23273592Y-64603720D01*
X23273590Y-64603720D01*
X23273587Y-64603721D01*
X23077714Y-64667364D01*
X23077708Y-64667367D01*
X22894193Y-64760873D01*
X22727567Y-64881934D01*
X22727564Y-64881936D01*
X22581936Y-65027564D01*
X22581934Y-65027567D01*
X22460873Y-65194193D01*
X22422267Y-65269962D01*
X22373518Y-65321577D01*
X22304603Y-65338643D01*
X22237402Y-65315742D01*
X22197733Y-65269962D01*
X22159129Y-65194197D01*
X22038068Y-65027570D01*
X22038065Y-65027567D01*
X22038063Y-65027564D01*
X21892435Y-64881936D01*
X21892432Y-64881934D01*
X21892430Y-64881932D01*
X21766999Y-64790802D01*
X21725806Y-64760873D01*
X21725805Y-64760872D01*
X21725803Y-64760871D01*
X21542290Y-64667366D01*
X21542287Y-64667365D01*
X21542285Y-64667364D01*
X21346412Y-64603721D01*
X21346410Y-64603720D01*
X21346408Y-64603720D01*
X21142981Y-64571500D01*
X20937019Y-64571500D01*
X20733592Y-64603720D01*
X20733590Y-64603720D01*
X20733587Y-64603721D01*
X20537714Y-64667364D01*
X20537708Y-64667367D01*
X20354193Y-64760873D01*
X20187567Y-64881934D01*
X20187564Y-64881936D01*
X20041936Y-65027564D01*
X20041934Y-65027567D01*
X19920873Y-65194193D01*
X19882267Y-65269962D01*
X19833518Y-65321577D01*
X19764603Y-65338643D01*
X19697402Y-65315742D01*
X19657733Y-65269962D01*
X19619129Y-65194197D01*
X19498068Y-65027570D01*
X19498065Y-65027567D01*
X19498063Y-65027564D01*
X19352435Y-64881936D01*
X19352432Y-64881934D01*
X19352430Y-64881932D01*
X19226999Y-64790802D01*
X19185806Y-64760873D01*
X19185805Y-64760872D01*
X19185803Y-64760871D01*
X19002290Y-64667366D01*
X19002287Y-64667365D01*
X19002285Y-64667364D01*
X18806412Y-64603721D01*
X18806410Y-64603720D01*
X18806408Y-64603720D01*
X18602981Y-64571500D01*
X18397019Y-64571500D01*
X18193592Y-64603720D01*
X18193590Y-64603720D01*
X18193587Y-64603721D01*
X17997714Y-64667364D01*
X17997708Y-64667367D01*
X17814193Y-64760873D01*
X17647567Y-64881934D01*
X17647564Y-64881936D01*
X17501936Y-65027564D01*
X17501934Y-65027567D01*
X17380873Y-65194193D01*
X17287367Y-65377708D01*
X17287364Y-65377714D01*
X17223721Y-65573587D01*
X17223720Y-65573590D01*
X17223720Y-65573592D01*
X17191500Y-65777019D01*
X17191500Y-65982981D01*
X17223702Y-66186295D01*
X17223721Y-66186412D01*
X17229999Y-66205735D01*
X17287366Y-66382290D01*
X17380871Y-66565803D01*
X17501932Y-66732430D01*
X17501934Y-66732432D01*
X17501936Y-66732435D01*
X17647558Y-66878057D01*
X17647564Y-66878062D01*
X17647570Y-66878068D01*
X17689561Y-66908575D01*
X17732914Y-66964795D01*
X17741500Y-67010511D01*
X17741500Y-67086079D01*
X17747995Y-67118727D01*
X17770649Y-67232617D01*
X17827826Y-67370654D01*
X17910834Y-67494885D01*
X22273464Y-71857515D01*
X22273465Y-71857516D01*
X22379114Y-71963165D01*
X22503346Y-72046174D01*
X22641384Y-72103351D01*
X22787924Y-72132500D01*
X22787925Y-72132500D01*
X22856825Y-72132500D01*
X22924946Y-72152502D01*
X22971439Y-72206158D01*
X22981543Y-72276432D01*
X22952049Y-72341012D01*
X22914029Y-72370765D01*
X22895746Y-72380081D01*
X22894193Y-72380873D01*
X22727567Y-72501934D01*
X22727564Y-72501936D01*
X22581936Y-72647564D01*
X22581934Y-72647567D01*
X22460873Y-72814193D01*
X22422267Y-72889962D01*
X22373518Y-72941577D01*
X22304603Y-72958643D01*
X22237402Y-72935742D01*
X22197733Y-72889962D01*
X22159129Y-72814197D01*
X22038068Y-72647570D01*
X22038065Y-72647567D01*
X22038063Y-72647564D01*
X21892435Y-72501936D01*
X21892432Y-72501934D01*
X21892430Y-72501932D01*
X21725803Y-72380871D01*
X21542290Y-72287366D01*
X21542287Y-72287365D01*
X21542285Y-72287364D01*
X21346412Y-72223721D01*
X21346410Y-72223720D01*
X21346408Y-72223720D01*
X21142981Y-72191500D01*
X20937019Y-72191500D01*
X20733592Y-72223720D01*
X20733590Y-72223720D01*
X20733587Y-72223721D01*
X20537714Y-72287364D01*
X20537708Y-72287367D01*
X20354193Y-72380873D01*
X20187567Y-72501934D01*
X20187564Y-72501936D01*
X20041933Y-72647567D01*
X20030484Y-72663326D01*
X19974260Y-72706678D01*
X19903524Y-72712752D01*
X19840733Y-72679618D01*
X19805824Y-72617797D01*
X19803272Y-72602728D01*
X19801990Y-72590804D01*
X19801988Y-72590795D01*
X19750889Y-72453797D01*
X19750887Y-72453792D01*
X19663261Y-72336738D01*
X19546207Y-72249112D01*
X19546202Y-72249110D01*
X19409204Y-72198011D01*
X19409196Y-72198009D01*
X19348649Y-72191500D01*
X19348638Y-72191500D01*
X17651362Y-72191500D01*
X17651350Y-72191500D01*
X17590803Y-72198009D01*
X17590795Y-72198011D01*
X17453797Y-72249110D01*
X17453792Y-72249112D01*
X17336738Y-72336738D01*
X17249112Y-72453792D01*
X17249110Y-72453797D01*
X17198011Y-72590795D01*
X17198009Y-72590803D01*
X17191500Y-72651350D01*
X17191500Y-74348649D01*
X17198009Y-74409196D01*
X17198011Y-74409204D01*
X17249110Y-74546202D01*
X17249112Y-74546207D01*
X17336738Y-74663261D01*
X17453792Y-74750887D01*
X17453794Y-74750888D01*
X17453796Y-74750889D01*
X17512875Y-74772924D01*
X17590795Y-74801988D01*
X17590803Y-74801990D01*
X17651350Y-74808499D01*
X17651355Y-74808499D01*
X17651362Y-74808500D01*
X17651368Y-74808500D01*
X19348632Y-74808500D01*
X19348638Y-74808500D01*
X19348645Y-74808499D01*
X19348649Y-74808499D01*
X19409196Y-74801990D01*
X19409199Y-74801989D01*
X19409201Y-74801989D01*
X19409955Y-74801708D01*
X19440441Y-74790337D01*
X19546204Y-74750889D01*
X19663261Y-74663261D01*
X19750889Y-74546204D01*
X19801989Y-74409201D01*
X19803272Y-74397271D01*
X19830439Y-74331678D01*
X19888756Y-74291186D01*
X19959708Y-74288650D01*
X20020767Y-74324876D01*
X20030480Y-74336668D01*
X20041932Y-74352430D01*
X20041934Y-74352432D01*
X20041937Y-74352436D01*
X20187564Y-74498063D01*
X20187567Y-74498065D01*
X20187570Y-74498068D01*
X20354197Y-74619129D01*
X20537710Y-74712634D01*
X20733592Y-74776280D01*
X20937019Y-74808500D01*
X20937022Y-74808500D01*
X21142978Y-74808500D01*
X21142981Y-74808500D01*
X21346408Y-74776280D01*
X21542290Y-74712634D01*
X21725803Y-74619129D01*
X21892430Y-74498068D01*
X22038068Y-74352430D01*
X22159129Y-74185803D01*
X22197734Y-74110034D01*
X22246481Y-74058422D01*
X22315396Y-74041356D01*
X22382598Y-74064257D01*
X22422264Y-74110034D01*
X22460871Y-74185803D01*
X22581932Y-74352430D01*
X22581934Y-74352432D01*
X22581936Y-74352435D01*
X22727564Y-74498063D01*
X22727567Y-74498065D01*
X22727570Y-74498068D01*
X22894197Y-74619129D01*
X23077710Y-74712634D01*
X23273592Y-74776280D01*
X23477019Y-74808500D01*
X23477022Y-74808500D01*
X23682978Y-74808500D01*
X23682981Y-74808500D01*
X23886408Y-74776280D01*
X24076565Y-74714493D01*
X24147531Y-74712466D01*
X24208329Y-74749129D01*
X24239654Y-74812841D01*
X24241500Y-74834327D01*
X24241500Y-85515500D01*
X24221498Y-85583621D01*
X24167842Y-85630114D01*
X24115500Y-85641500D01*
X24101350Y-85641500D01*
X24040803Y-85648009D01*
X24040795Y-85648011D01*
X23903797Y-85699110D01*
X23903792Y-85699112D01*
X23786738Y-85786738D01*
X23699112Y-85903792D01*
X23699110Y-85903797D01*
X23648011Y-86040795D01*
X23648009Y-86040803D01*
X23641500Y-86101350D01*
X23641500Y-86115500D01*
X23621498Y-86183621D01*
X23567842Y-86230114D01*
X23515500Y-86241500D01*
X18875290Y-86241500D01*
X18728753Y-86270649D01*
X18728750Y-86270650D01*
X18590716Y-86327826D01*
X18466483Y-86410835D01*
X18466482Y-86410836D01*
X18297051Y-86580266D01*
X18234739Y-86614291D01*
X18188247Y-86615619D01*
X18151320Y-86609771D01*
X18136981Y-86607500D01*
X17931019Y-86607500D01*
X17727592Y-86639720D01*
X17727590Y-86639720D01*
X17727587Y-86639721D01*
X17531714Y-86703364D01*
X17531708Y-86703367D01*
X17348193Y-86796873D01*
X17181567Y-86917934D01*
X17181564Y-86917936D01*
X17035936Y-87063564D01*
X17035934Y-87063567D01*
X17005424Y-87105561D01*
X16949202Y-87148915D01*
X16903488Y-87157500D01*
X10815288Y-87157500D01*
X10742024Y-87172073D01*
X10742024Y-87172074D01*
X10705388Y-87179361D01*
X10668752Y-87186649D01*
X10668748Y-87186650D01*
X10611601Y-87210321D01*
X10611602Y-87210322D01*
X10530715Y-87243826D01*
X10520397Y-87250721D01*
X10520389Y-87250725D01*
X10426571Y-87313412D01*
X10406484Y-87326835D01*
X10406482Y-87326836D01*
X10406479Y-87326839D01*
X8593595Y-89139724D01*
X8531283Y-89173750D01*
X8460468Y-89168685D01*
X8403632Y-89126138D01*
X8378821Y-89059618D01*
X8378500Y-89050629D01*
X8378500Y-85419346D01*
X8398502Y-85351225D01*
X8415400Y-85330255D01*
X8465517Y-85280139D01*
X8568074Y-85138981D01*
X8647288Y-84983516D01*
X8701205Y-84817574D01*
X8728500Y-84645241D01*
X8728500Y-84470759D01*
X8701205Y-84298426D01*
X8647288Y-84132484D01*
X8623255Y-84085317D01*
X8610151Y-84015543D01*
X8634654Y-83952607D01*
X8670889Y-83904204D01*
X8721989Y-83767201D01*
X8728500Y-83706638D01*
X8728500Y-82897019D01*
X16191500Y-82897019D01*
X16191500Y-83102981D01*
X16223720Y-83306408D01*
X16287366Y-83502290D01*
X16380871Y-83685803D01*
X16501932Y-83852430D01*
X16501934Y-83852432D01*
X16501936Y-83852435D01*
X16647564Y-83998063D01*
X16647567Y-83998065D01*
X16647570Y-83998068D01*
X16814197Y-84119129D01*
X16997710Y-84212634D01*
X17193592Y-84276280D01*
X17397019Y-84308500D01*
X17397022Y-84308500D01*
X17602978Y-84308500D01*
X17602981Y-84308500D01*
X17806408Y-84276280D01*
X18002290Y-84212634D01*
X18185803Y-84119129D01*
X18352430Y-83998068D01*
X18498068Y-83852430D01*
X18619129Y-83685803D01*
X18712634Y-83502290D01*
X18776280Y-83306408D01*
X18808500Y-83102981D01*
X18808500Y-82897019D01*
X18776280Y-82693592D01*
X18712634Y-82497710D01*
X18619129Y-82314197D01*
X18498068Y-82147570D01*
X18498065Y-82147567D01*
X18498063Y-82147564D01*
X18352435Y-82001936D01*
X18352432Y-82001934D01*
X18352430Y-82001932D01*
X18185803Y-81880871D01*
X18002290Y-81787366D01*
X18002287Y-81787365D01*
X18002285Y-81787364D01*
X17806412Y-81723721D01*
X17806410Y-81723720D01*
X17806408Y-81723720D01*
X17602981Y-81691500D01*
X17397019Y-81691500D01*
X17193592Y-81723720D01*
X17193590Y-81723720D01*
X17193587Y-81723721D01*
X16997714Y-81787364D01*
X16997708Y-81787367D01*
X16814193Y-81880873D01*
X16647567Y-82001934D01*
X16647564Y-82001936D01*
X16501936Y-82147564D01*
X16501934Y-82147567D01*
X16380873Y-82314193D01*
X16287367Y-82497708D01*
X16287364Y-82497714D01*
X16223721Y-82693587D01*
X16223720Y-82693590D01*
X16223720Y-82693592D01*
X16191500Y-82897019D01*
X8728500Y-82897019D01*
X8728500Y-82409362D01*
X8728499Y-82409350D01*
X8721990Y-82348803D01*
X8721988Y-82348795D01*
X8670889Y-82211797D01*
X8670887Y-82211792D01*
X8583261Y-82094738D01*
X8466207Y-82007112D01*
X8466202Y-82007110D01*
X8329204Y-81956011D01*
X8329196Y-81956009D01*
X8268649Y-81949500D01*
X8268638Y-81949500D01*
X6971362Y-81949500D01*
X6971350Y-81949500D01*
X6910803Y-81956009D01*
X6910795Y-81956011D01*
X6773797Y-82007110D01*
X6773792Y-82007112D01*
X6656738Y-82094738D01*
X6569112Y-82211792D01*
X6569110Y-82211797D01*
X6518011Y-82348795D01*
X6518009Y-82348803D01*
X6511500Y-82409350D01*
X6511500Y-83706649D01*
X6518009Y-83767196D01*
X6518011Y-83767204D01*
X6569110Y-83904202D01*
X6605345Y-83952607D01*
X6630155Y-84019128D01*
X6616744Y-84085317D01*
X6592713Y-84132481D01*
X6592710Y-84132488D01*
X6538796Y-84298422D01*
X6538795Y-84298426D01*
X6511500Y-84470759D01*
X6511500Y-84645241D01*
X6538795Y-84817574D01*
X6592712Y-84983516D01*
X6671926Y-85138981D01*
X6774483Y-85280139D01*
X6824596Y-85330252D01*
X6858620Y-85392562D01*
X6861500Y-85419346D01*
X6861500Y-90104930D01*
X6841498Y-90173051D01*
X6809563Y-90206865D01*
X6793625Y-90218444D01*
X6652444Y-90359625D01*
X6535083Y-90521158D01*
X6462267Y-90664068D01*
X6413518Y-90715683D01*
X6344603Y-90732749D01*
X6277402Y-90709848D01*
X6237733Y-90664068D01*
X6164916Y-90521158D01*
X6047555Y-90359625D01*
X5906374Y-90218444D01*
X5744842Y-90101084D01*
X5744841Y-90101083D01*
X5744839Y-90101082D01*
X5566935Y-90010435D01*
X5566932Y-90010434D01*
X5566930Y-90010433D01*
X5377046Y-89948736D01*
X5377042Y-89948735D01*
X5377041Y-89948735D01*
X5179833Y-89917500D01*
X4980167Y-89917500D01*
X4782959Y-89948735D01*
X4782953Y-89948736D01*
X4593069Y-90010433D01*
X4593063Y-90010436D01*
X4415157Y-90101084D01*
X4253625Y-90218444D01*
X4112444Y-90359625D01*
X3995084Y-90521157D01*
X3904436Y-90699063D01*
X3904433Y-90699069D01*
X3842736Y-90888953D01*
X3842735Y-90888958D01*
X3842735Y-90888959D01*
X3811500Y-91086167D01*
X3811500Y-91285833D01*
X3842735Y-91483041D01*
X3842736Y-91483046D01*
X3885310Y-91614075D01*
X3904435Y-91672935D01*
X3982426Y-91826000D01*
X3995084Y-91850842D01*
X4112444Y-92012374D01*
X4253625Y-92153555D01*
X4253628Y-92153557D01*
X4415161Y-92270918D01*
X4593065Y-92361565D01*
X4782959Y-92423265D01*
X4980167Y-92454500D01*
X4980170Y-92454500D01*
X5179830Y-92454500D01*
X5179833Y-92454500D01*
X5377041Y-92423265D01*
X5566935Y-92361565D01*
X5744839Y-92270918D01*
X5906372Y-92153557D01*
X6047557Y-92012372D01*
X6164918Y-91850839D01*
X6237734Y-91707929D01*
X6286481Y-91656316D01*
X6355396Y-91639250D01*
X6422598Y-91662151D01*
X6462265Y-91707929D01*
X6522426Y-91826000D01*
X6535084Y-91850842D01*
X6652444Y-92012374D01*
X6793625Y-92153555D01*
X6793628Y-92153557D01*
X6955161Y-92270918D01*
X7133065Y-92361565D01*
X7322959Y-92423265D01*
X7520167Y-92454500D01*
X7520170Y-92454500D01*
X7719830Y-92454500D01*
X7719833Y-92454500D01*
X7917041Y-92423265D01*
X8106935Y-92361565D01*
X8284839Y-92270918D01*
X8446372Y-92153557D01*
X8587557Y-92012372D01*
X8663565Y-91907756D01*
X8719786Y-91864403D01*
X8790522Y-91858328D01*
X8853314Y-91891459D01*
X8888225Y-91953279D01*
X8891500Y-91981818D01*
X8891500Y-91994649D01*
X8898009Y-92055196D01*
X8898011Y-92055204D01*
X8949110Y-92192202D01*
X8949112Y-92192207D01*
X9036738Y-92309261D01*
X9153792Y-92396887D01*
X9153794Y-92396888D01*
X9153796Y-92396889D01*
X9212875Y-92418924D01*
X9290795Y-92447988D01*
X9290803Y-92447990D01*
X9351350Y-92454499D01*
X9351355Y-92454499D01*
X9351362Y-92454500D01*
X9351368Y-92454500D01*
X10968632Y-92454500D01*
X10968638Y-92454500D01*
X10968645Y-92454499D01*
X10968649Y-92454499D01*
X11029196Y-92447990D01*
X11029199Y-92447989D01*
X11029201Y-92447989D01*
X11166204Y-92396889D01*
X11283261Y-92309261D01*
X11370889Y-92192204D01*
X11421989Y-92055201D01*
X11426594Y-92012374D01*
X11428499Y-91994649D01*
X11428500Y-91994632D01*
X11428500Y-90377367D01*
X11428499Y-90377350D01*
X11421990Y-90316803D01*
X11421988Y-90316795D01*
X11391882Y-90236080D01*
X11370889Y-90179796D01*
X11311966Y-90101084D01*
X11283261Y-90062738D01*
X11166207Y-89975112D01*
X11166202Y-89975110D01*
X11029204Y-89924011D01*
X11029196Y-89924009D01*
X10968649Y-89917500D01*
X10968638Y-89917500D01*
X10265371Y-89917500D01*
X10197250Y-89897498D01*
X10150757Y-89843842D01*
X10140653Y-89773568D01*
X10170147Y-89708988D01*
X10176276Y-89702405D01*
X11167276Y-88711405D01*
X11229588Y-88677379D01*
X11256371Y-88674500D01*
X16678216Y-88674500D01*
X16746337Y-88694502D01*
X16792830Y-88748158D01*
X16802934Y-88818432D01*
X16785391Y-88860767D01*
X16787875Y-88862124D01*
X16783555Y-88870035D01*
X16732505Y-89006906D01*
X16726000Y-89067402D01*
X16726000Y-89662000D01*
X17722314Y-89662000D01*
X17713920Y-89670394D01*
X17661259Y-89761606D01*
X17634000Y-89863339D01*
X17634000Y-89968661D01*
X17661259Y-90070394D01*
X17713920Y-90161606D01*
X17722314Y-90170000D01*
X16726000Y-90170000D01*
X16726000Y-90764597D01*
X16732505Y-90825093D01*
X16783555Y-90961964D01*
X16783555Y-90961965D01*
X16871095Y-91078904D01*
X16988034Y-91166444D01*
X17124906Y-91217494D01*
X17185402Y-91223999D01*
X17185415Y-91224000D01*
X17780000Y-91224000D01*
X17780000Y-90227686D01*
X17788394Y-90236080D01*
X17879606Y-90288741D01*
X17981339Y-90316000D01*
X18086661Y-90316000D01*
X18188394Y-90288741D01*
X18279606Y-90236080D01*
X18288000Y-90227686D01*
X18288000Y-91224000D01*
X18882585Y-91224000D01*
X18882597Y-91223999D01*
X18943093Y-91217494D01*
X19079964Y-91166444D01*
X19079965Y-91166444D01*
X19196904Y-91078904D01*
X19284444Y-90961965D01*
X19284444Y-90961964D01*
X19335494Y-90825093D01*
X19341999Y-90764597D01*
X19342000Y-90764585D01*
X19342000Y-90170000D01*
X18345686Y-90170000D01*
X18354080Y-90161606D01*
X18406741Y-90070394D01*
X18434000Y-89968661D01*
X18434000Y-89863339D01*
X18406741Y-89761606D01*
X18354080Y-89670394D01*
X18345686Y-89662000D01*
X19342000Y-89662000D01*
X19342000Y-89067414D01*
X19341999Y-89067402D01*
X19335494Y-89006906D01*
X19284444Y-88870035D01*
X19284444Y-88870034D01*
X19196904Y-88753096D01*
X19194322Y-88751163D01*
X19192386Y-88748577D01*
X19190532Y-88746723D01*
X19190798Y-88746456D01*
X19151776Y-88694326D01*
X19146713Y-88623510D01*
X19157563Y-88593099D01*
X19246634Y-88418290D01*
X19310280Y-88222408D01*
X19342500Y-88018981D01*
X19342500Y-87884500D01*
X19362502Y-87816379D01*
X19416158Y-87769886D01*
X19468500Y-87758500D01*
X23515500Y-87758500D01*
X23583621Y-87778502D01*
X23630114Y-87832158D01*
X23641500Y-87884500D01*
X23641500Y-87898649D01*
X23648009Y-87959196D01*
X23648011Y-87959204D01*
X23699110Y-88096202D01*
X23699112Y-88096207D01*
X23786738Y-88213261D01*
X23903792Y-88300887D01*
X23903796Y-88300889D01*
X24022224Y-88345061D01*
X24079059Y-88387607D01*
X24103870Y-88454128D01*
X24088778Y-88523502D01*
X24067287Y-88552211D01*
X23964176Y-88655322D01*
X23838536Y-88828249D01*
X23741493Y-89018707D01*
X23741490Y-89018713D01*
X23675440Y-89221995D01*
X23665302Y-89286000D01*
X24569297Y-89286000D01*
X24534075Y-89347007D01*
X24500000Y-89474174D01*
X24500000Y-89605826D01*
X24534075Y-89732993D01*
X24569297Y-89794000D01*
X23665302Y-89794000D01*
X23675440Y-89858004D01*
X23741490Y-90061286D01*
X23741493Y-90061292D01*
X23838536Y-90251750D01*
X23964177Y-90424679D01*
X24115320Y-90575822D01*
X24288256Y-90701468D01*
X24290052Y-90702569D01*
X24290591Y-90703164D01*
X24292258Y-90704376D01*
X24292003Y-90704726D01*
X24337682Y-90755217D01*
X24349288Y-90825259D01*
X24321183Y-90890456D01*
X24292211Y-90915559D01*
X24292258Y-90915624D01*
X24291511Y-90916166D01*
X24290052Y-90917431D01*
X24288256Y-90918531D01*
X24115320Y-91044177D01*
X23964177Y-91195320D01*
X23838536Y-91368249D01*
X23741493Y-91558707D01*
X23741490Y-91558713D01*
X23675440Y-91761995D01*
X23665302Y-91826000D01*
X24569297Y-91826000D01*
X24534075Y-91887007D01*
X24500000Y-92014174D01*
X24500000Y-92145826D01*
X24534075Y-92272993D01*
X24569297Y-92334000D01*
X23665302Y-92334000D01*
X23675440Y-92398004D01*
X23741490Y-92601286D01*
X23741493Y-92601292D01*
X23838536Y-92791750D01*
X23964177Y-92964679D01*
X24115320Y-93115822D01*
X24288256Y-93241468D01*
X24290052Y-93242569D01*
X24290591Y-93243164D01*
X24292258Y-93244376D01*
X24292003Y-93244726D01*
X24337682Y-93295217D01*
X24349288Y-93365259D01*
X24321183Y-93430456D01*
X24292211Y-93455559D01*
X24292258Y-93455624D01*
X24291511Y-93456166D01*
X24290052Y-93457431D01*
X24288256Y-93458531D01*
X24115320Y-93584177D01*
X23964177Y-93735320D01*
X23838536Y-93908249D01*
X23741493Y-94098707D01*
X23741490Y-94098713D01*
X23675440Y-94301995D01*
X23665302Y-94366000D01*
X24569297Y-94366000D01*
X24534075Y-94427007D01*
X24500000Y-94554174D01*
X24500000Y-94685826D01*
X24534075Y-94812993D01*
X24569297Y-94874000D01*
X23665302Y-94874000D01*
X23675440Y-94938004D01*
X23741490Y-95141286D01*
X23741493Y-95141292D01*
X23838536Y-95331750D01*
X23964177Y-95504679D01*
X24115320Y-95655822D01*
X24288244Y-95781460D01*
X24289560Y-95782266D01*
X24289955Y-95782703D01*
X24292258Y-95784376D01*
X24291906Y-95784859D01*
X24337196Y-95834910D01*
X24348809Y-95904950D01*
X24320712Y-95970150D01*
X24291925Y-95995098D01*
X24291996Y-95995196D01*
X24290862Y-95996019D01*
X24289580Y-95997131D01*
X24287998Y-95998100D01*
X24114993Y-96123796D01*
X24114990Y-96123798D01*
X23963798Y-96274990D01*
X23963796Y-96274993D01*
X23838108Y-96447987D01*
X23741029Y-96638515D01*
X23741026Y-96638521D01*
X23690666Y-96793516D01*
X23674951Y-96841884D01*
X23661753Y-96925212D01*
X23631342Y-96989364D01*
X23571073Y-97026891D01*
X23537305Y-97031500D01*
X19465371Y-97031500D01*
X19397250Y-97011498D01*
X19350757Y-96957842D01*
X19340093Y-96918968D01*
X19335990Y-96880803D01*
X19335988Y-96880795D01*
X19284889Y-96743797D01*
X19284887Y-96743792D01*
X19197261Y-96626738D01*
X19194149Y-96624409D01*
X19191817Y-96621294D01*
X19190889Y-96620366D01*
X19191022Y-96620232D01*
X19151602Y-96567573D01*
X19146538Y-96496757D01*
X19157391Y-96466338D01*
X19246170Y-96292099D01*
X19246173Y-96292093D01*
X19309791Y-96096296D01*
X19342000Y-95892938D01*
X19342000Y-95687061D01*
X19309791Y-95483703D01*
X19246173Y-95287906D01*
X19246170Y-95287900D01*
X19152699Y-95104454D01*
X19121583Y-95061626D01*
X19121581Y-95061626D01*
X18434000Y-95749207D01*
X18434000Y-95737339D01*
X18406741Y-95635606D01*
X18354080Y-95544394D01*
X18279606Y-95469920D01*
X18188394Y-95417259D01*
X18086661Y-95390000D01*
X18074790Y-95390000D01*
X18762372Y-94702416D01*
X18719541Y-94671298D01*
X18719540Y-94671297D01*
X18536099Y-94577829D01*
X18536093Y-94577826D01*
X18340294Y-94514208D01*
X18340298Y-94514208D01*
X18136939Y-94482000D01*
X17931061Y-94482000D01*
X17727703Y-94514208D01*
X17531906Y-94577826D01*
X17531900Y-94577829D01*
X17348452Y-94671301D01*
X17305625Y-94702416D01*
X17993209Y-95390000D01*
X17981339Y-95390000D01*
X17879606Y-95417259D01*
X17788394Y-95469920D01*
X17713920Y-95544394D01*
X17661259Y-95635606D01*
X17634000Y-95737339D01*
X17634000Y-95749211D01*
X16946415Y-95061626D01*
X16915301Y-95104452D01*
X16821829Y-95287900D01*
X16821826Y-95287906D01*
X16758208Y-95483703D01*
X16726000Y-95687061D01*
X16726000Y-95892938D01*
X16758208Y-96096296D01*
X16821826Y-96292093D01*
X16821829Y-96292099D01*
X16910608Y-96466338D01*
X16923712Y-96536115D01*
X16897012Y-96601900D01*
X16873857Y-96624404D01*
X16870739Y-96626738D01*
X16783112Y-96743792D01*
X16783110Y-96743797D01*
X16732011Y-96880795D01*
X16732009Y-96880803D01*
X16727907Y-96918968D01*
X16700738Y-96984561D01*
X16642420Y-97025052D01*
X16602629Y-97031500D01*
X14132979Y-97031500D01*
X14064858Y-97011498D01*
X14018365Y-96957842D01*
X14008530Y-96925211D01*
X14008500Y-96925019D01*
X13976280Y-96721592D01*
X13912634Y-96525710D01*
X13819129Y-96342197D01*
X13698068Y-96175570D01*
X13698065Y-96175567D01*
X13698063Y-96175564D01*
X13552435Y-96029936D01*
X13552432Y-96029934D01*
X13552430Y-96029932D01*
X13393599Y-95914535D01*
X13385806Y-95908873D01*
X13385805Y-95908872D01*
X13385803Y-95908871D01*
X13202290Y-95815366D01*
X13202287Y-95815365D01*
X13202285Y-95815364D01*
X13006412Y-95751721D01*
X13006410Y-95751720D01*
X13006408Y-95751720D01*
X12802981Y-95719500D01*
X12597019Y-95719500D01*
X12393592Y-95751720D01*
X12393590Y-95751720D01*
X12393587Y-95751721D01*
X12197714Y-95815364D01*
X12197708Y-95815367D01*
X12014193Y-95908873D01*
X11847567Y-96029934D01*
X11847564Y-96029936D01*
X11701936Y-96175564D01*
X11701934Y-96175567D01*
X11580873Y-96342193D01*
X11487367Y-96525708D01*
X11487364Y-96525714D01*
X11423721Y-96721587D01*
X11423720Y-96721590D01*
X11423720Y-96721592D01*
X11391500Y-96925019D01*
X11391500Y-97130981D01*
X11423720Y-97334408D01*
X11423721Y-97334412D01*
X11470413Y-97478116D01*
X11487366Y-97530290D01*
X11580871Y-97713803D01*
X11701932Y-97880430D01*
X11701934Y-97880432D01*
X11701936Y-97880435D01*
X11847564Y-98026063D01*
X11847567Y-98026065D01*
X11847570Y-98026068D01*
X12014197Y-98147129D01*
X12197710Y-98240634D01*
X12393592Y-98304280D01*
X12597019Y-98336500D01*
X12597022Y-98336500D01*
X12802982Y-98336500D01*
X12813409Y-98334848D01*
X12854246Y-98328380D01*
X12924655Y-98337478D01*
X12963052Y-98363733D01*
X12978485Y-98379166D01*
X13102716Y-98462174D01*
X13240754Y-98519351D01*
X13387294Y-98548500D01*
X13387295Y-98548500D01*
X13536705Y-98548500D01*
X16602629Y-98548500D01*
X16670750Y-98568502D01*
X16717243Y-98622158D01*
X16727907Y-98661032D01*
X16732009Y-98699196D01*
X16732011Y-98699204D01*
X16783110Y-98836202D01*
X16783112Y-98836207D01*
X16870738Y-98953261D01*
X16987792Y-99040887D01*
X16987794Y-99040888D01*
X16987796Y-99040889D01*
X17046875Y-99062924D01*
X17124795Y-99091988D01*
X17124803Y-99091990D01*
X17185350Y-99098499D01*
X17185355Y-99098499D01*
X17185362Y-99098500D01*
X17185368Y-99098500D01*
X18882632Y-99098500D01*
X18882638Y-99098500D01*
X18882645Y-99098499D01*
X18882649Y-99098499D01*
X18943196Y-99091990D01*
X18943199Y-99091989D01*
X18943201Y-99091989D01*
X19080204Y-99040889D01*
X19197261Y-98953261D01*
X19284889Y-98836204D01*
X19335989Y-98699201D01*
X19335990Y-98699196D01*
X19340093Y-98661032D01*
X19367262Y-98595439D01*
X19425580Y-98554948D01*
X19465371Y-98548500D01*
X24444701Y-98548500D01*
X24444705Y-98548500D01*
X24444706Y-98548500D01*
X24517976Y-98533925D01*
X24591247Y-98519351D01*
X24649779Y-98495105D01*
X24656429Y-98493172D01*
X24681530Y-98493237D01*
X24711320Y-98489711D01*
X24893084Y-98518500D01*
X24893087Y-98518500D01*
X25106913Y-98518500D01*
X25106916Y-98518500D01*
X25318116Y-98485049D01*
X25521483Y-98418972D01*
X25712009Y-98321894D01*
X25885004Y-98196206D01*
X26036206Y-98045004D01*
X26090380Y-97970438D01*
X26094783Y-97967043D01*
X26097092Y-97961988D01*
X26122589Y-97945601D01*
X26146602Y-97927085D01*
X26153383Y-97925811D01*
X26156818Y-97923604D01*
X26192316Y-97918500D01*
X26347684Y-97918500D01*
X26415805Y-97938502D01*
X26449618Y-97970438D01*
X26503794Y-98045004D01*
X26503796Y-98045006D01*
X26503798Y-98045009D01*
X26654990Y-98196201D01*
X26654993Y-98196203D01*
X26654996Y-98196206D01*
X26827991Y-98321894D01*
X27018517Y-98418972D01*
X27221878Y-98485047D01*
X27221879Y-98485047D01*
X27221884Y-98485049D01*
X27433084Y-98518500D01*
X27433087Y-98518500D01*
X27646913Y-98518500D01*
X27646916Y-98518500D01*
X27858116Y-98485049D01*
X28061483Y-98418972D01*
X28252009Y-98321894D01*
X28425004Y-98196206D01*
X28576206Y-98045004D01*
X28701894Y-97872009D01*
X28798972Y-97681483D01*
X28865049Y-97478116D01*
X28898500Y-97266916D01*
X28898500Y-97053084D01*
X28884081Y-96962050D01*
X28893180Y-96891641D01*
X28919435Y-96853245D01*
X28930797Y-96841884D01*
X28979165Y-96793516D01*
X29756906Y-96015774D01*
X29819217Y-95981751D01*
X29890032Y-95986815D01*
X29946868Y-96029362D01*
X29971679Y-96095882D01*
X29972000Y-96104871D01*
X29972000Y-99848500D01*
X29951998Y-99916621D01*
X29898342Y-99963114D01*
X29846000Y-99974500D01*
X151500Y-99974500D01*
X83379Y-99954498D01*
X36886Y-99900842D01*
X25500Y-99848500D01*
X25500Y-96925019D01*
X1231500Y-96925019D01*
X1231500Y-97130981D01*
X1263720Y-97334408D01*
X1263721Y-97334412D01*
X1310413Y-97478116D01*
X1327366Y-97530290D01*
X1420871Y-97713803D01*
X1541932Y-97880430D01*
X1541934Y-97880432D01*
X1541936Y-97880435D01*
X1687564Y-98026063D01*
X1687567Y-98026065D01*
X1687570Y-98026068D01*
X1854197Y-98147129D01*
X2037710Y-98240634D01*
X2233592Y-98304280D01*
X2437019Y-98336500D01*
X2437022Y-98336500D01*
X2642978Y-98336500D01*
X2642981Y-98336500D01*
X2846408Y-98304280D01*
X3042290Y-98240634D01*
X3225803Y-98147129D01*
X3392430Y-98026068D01*
X3538068Y-97880430D01*
X3659129Y-97713803D01*
X3752634Y-97530290D01*
X3816280Y-97334408D01*
X3848500Y-97130981D01*
X3848500Y-96925019D01*
X3816280Y-96721592D01*
X3752634Y-96525710D01*
X3659129Y-96342197D01*
X3538068Y-96175570D01*
X3538065Y-96175567D01*
X3538063Y-96175564D01*
X3392435Y-96029936D01*
X3392432Y-96029934D01*
X3392430Y-96029932D01*
X3233599Y-95914535D01*
X3225806Y-95908873D01*
X3225805Y-95908872D01*
X3225803Y-95908871D01*
X3042290Y-95815366D01*
X3042287Y-95815365D01*
X3042285Y-95815364D01*
X2846412Y-95751721D01*
X2846410Y-95751720D01*
X2846408Y-95751720D01*
X2642981Y-95719500D01*
X2437019Y-95719500D01*
X2233592Y-95751720D01*
X2233590Y-95751720D01*
X2233587Y-95751721D01*
X2037714Y-95815364D01*
X2037708Y-95815367D01*
X1854193Y-95908873D01*
X1687567Y-96029934D01*
X1687564Y-96029936D01*
X1541936Y-96175564D01*
X1541934Y-96175567D01*
X1420873Y-96342193D01*
X1327367Y-96525708D01*
X1327364Y-96525714D01*
X1263721Y-96721587D01*
X1263720Y-96721590D01*
X1263720Y-96721592D01*
X1231500Y-96925019D01*
X25500Y-96925019D01*
X25500Y-76951350D01*
X3791500Y-76951350D01*
X3791500Y-78048649D01*
X3798009Y-78109196D01*
X3798011Y-78109204D01*
X3849110Y-78246202D01*
X3849112Y-78246207D01*
X3936738Y-78363261D01*
X4053792Y-78450887D01*
X4053794Y-78450888D01*
X4053796Y-78450889D01*
X4112875Y-78472924D01*
X4190795Y-78501988D01*
X4190803Y-78501990D01*
X4251350Y-78508499D01*
X4251355Y-78508499D01*
X4251362Y-78508500D01*
X4251368Y-78508500D01*
X6548632Y-78508500D01*
X6548638Y-78508500D01*
X6548645Y-78508499D01*
X6548649Y-78508499D01*
X6609196Y-78501990D01*
X6609199Y-78501989D01*
X6609201Y-78501989D01*
X6746204Y-78450889D01*
X6863261Y-78363261D01*
X6950887Y-78246207D01*
X6950887Y-78246206D01*
X6950889Y-78246204D01*
X7001989Y-78109201D01*
X7008500Y-78048638D01*
X7008500Y-76951362D01*
X7008499Y-76951350D01*
X7001990Y-76890803D01*
X7001988Y-76890795D01*
X6950889Y-76753797D01*
X6950887Y-76753792D01*
X6863261Y-76636738D01*
X6746207Y-76549112D01*
X6746202Y-76549110D01*
X6609204Y-76498011D01*
X6609196Y-76498009D01*
X6548649Y-76491500D01*
X6548638Y-76491500D01*
X4251362Y-76491500D01*
X4251350Y-76491500D01*
X4190803Y-76498009D01*
X4190795Y-76498011D01*
X4053797Y-76549110D01*
X4053792Y-76549112D01*
X3936738Y-76636738D01*
X3849112Y-76753792D01*
X3849110Y-76753797D01*
X3798011Y-76890795D01*
X3798009Y-76890803D01*
X3791500Y-76951350D01*
X25500Y-76951350D01*
X25500Y-75851350D01*
X11991500Y-75851350D01*
X11991500Y-78148649D01*
X11998009Y-78209196D01*
X11998011Y-78209204D01*
X12049110Y-78346202D01*
X12049112Y-78346207D01*
X12136738Y-78463261D01*
X12253792Y-78550887D01*
X12253794Y-78550888D01*
X12253796Y-78550889D01*
X12312875Y-78572924D01*
X12390795Y-78601988D01*
X12390803Y-78601990D01*
X12451350Y-78608499D01*
X12451355Y-78608499D01*
X12451362Y-78608500D01*
X12451368Y-78608500D01*
X13548632Y-78608500D01*
X13548638Y-78608500D01*
X13548645Y-78608499D01*
X13548649Y-78608499D01*
X13609196Y-78601990D01*
X13609199Y-78601989D01*
X13609201Y-78601989D01*
X13746204Y-78550889D01*
X13863261Y-78463261D01*
X13912849Y-78397019D01*
X16191500Y-78397019D01*
X16191500Y-78602981D01*
X16223720Y-78806408D01*
X16287366Y-79002290D01*
X16380871Y-79185803D01*
X16501932Y-79352430D01*
X16501934Y-79352432D01*
X16501936Y-79352435D01*
X16647564Y-79498063D01*
X16647567Y-79498065D01*
X16647570Y-79498068D01*
X16814197Y-79619129D01*
X16997710Y-79712634D01*
X17193592Y-79776280D01*
X17397019Y-79808500D01*
X17397022Y-79808500D01*
X17602978Y-79808500D01*
X17602981Y-79808500D01*
X17806408Y-79776280D01*
X18002290Y-79712634D01*
X18185803Y-79619129D01*
X18352430Y-79498068D01*
X18498068Y-79352430D01*
X18619129Y-79185803D01*
X18712634Y-79002290D01*
X18776280Y-78806408D01*
X18808500Y-78602981D01*
X18808500Y-78397019D01*
X18776280Y-78193592D01*
X18712634Y-77997710D01*
X18619129Y-77814197D01*
X18498068Y-77647570D01*
X18498065Y-77647567D01*
X18498063Y-77647564D01*
X18352435Y-77501936D01*
X18352432Y-77501934D01*
X18352430Y-77501932D01*
X18185803Y-77380871D01*
X18002290Y-77287366D01*
X18002287Y-77287365D01*
X18002285Y-77287364D01*
X17806412Y-77223721D01*
X17806410Y-77223720D01*
X17806408Y-77223720D01*
X17602981Y-77191500D01*
X17397019Y-77191500D01*
X17193592Y-77223720D01*
X17193590Y-77223720D01*
X17193587Y-77223721D01*
X16997714Y-77287364D01*
X16997708Y-77287367D01*
X16814193Y-77380873D01*
X16647567Y-77501934D01*
X16647564Y-77501936D01*
X16501936Y-77647564D01*
X16501934Y-77647567D01*
X16380873Y-77814193D01*
X16287367Y-77997708D01*
X16287364Y-77997714D01*
X16223721Y-78193587D01*
X16223720Y-78193590D01*
X16223720Y-78193592D01*
X16191500Y-78397019D01*
X13912849Y-78397019D01*
X13950889Y-78346204D01*
X14001989Y-78209201D01*
X14008500Y-78148638D01*
X14008500Y-75851362D01*
X14008499Y-75851350D01*
X14001990Y-75790803D01*
X14001988Y-75790795D01*
X13950889Y-75653797D01*
X13950887Y-75653792D01*
X13863261Y-75536738D01*
X13746207Y-75449112D01*
X13746202Y-75449110D01*
X13609204Y-75398011D01*
X13609196Y-75398009D01*
X13548649Y-75391500D01*
X13548638Y-75391500D01*
X12451362Y-75391500D01*
X12451350Y-75391500D01*
X12390803Y-75398009D01*
X12390795Y-75398011D01*
X12253797Y-75449110D01*
X12253792Y-75449112D01*
X12136738Y-75536738D01*
X12049112Y-75653792D01*
X12049110Y-75653797D01*
X11998011Y-75790795D01*
X11998009Y-75790803D01*
X11991500Y-75851350D01*
X25500Y-75851350D01*
X25500Y-74148597D01*
X992000Y-74148597D01*
X998505Y-74209093D01*
X1049555Y-74345964D01*
X1049555Y-74345965D01*
X1137095Y-74462904D01*
X1254034Y-74550444D01*
X1390906Y-74601494D01*
X1451402Y-74607999D01*
X1451415Y-74608000D01*
X1746000Y-74608000D01*
X2254000Y-74608000D01*
X2548585Y-74608000D01*
X2548597Y-74607999D01*
X2609093Y-74601494D01*
X2745964Y-74550444D01*
X2745965Y-74550444D01*
X2862904Y-74462904D01*
X2950444Y-74345965D01*
X2950444Y-74345964D01*
X3001494Y-74209093D01*
X3007999Y-74148597D01*
X3008000Y-74148585D01*
X3008000Y-73254000D01*
X2254000Y-73254000D01*
X2254000Y-74608000D01*
X1746000Y-74608000D01*
X1746000Y-73254000D01*
X992000Y-73254000D01*
X992000Y-74148597D01*
X25500Y-74148597D01*
X25500Y-71851402D01*
X992000Y-71851402D01*
X992000Y-72746000D01*
X1746000Y-72746000D01*
X1746000Y-72560218D01*
X1800000Y-72560218D01*
X1800000Y-73439782D01*
X1830448Y-73513291D01*
X1886709Y-73569552D01*
X1960218Y-73600000D01*
X2039782Y-73600000D01*
X2113291Y-73569552D01*
X2169552Y-73513291D01*
X2200000Y-73439782D01*
X2200000Y-72746000D01*
X2254000Y-72746000D01*
X3008000Y-72746000D01*
X3008000Y-71851414D01*
X3007999Y-71851402D01*
X3001494Y-71790906D01*
X2950444Y-71654035D01*
X2950444Y-71654034D01*
X2862904Y-71537095D01*
X2745965Y-71449555D01*
X2609093Y-71398505D01*
X2548597Y-71392000D01*
X2254000Y-71392000D01*
X2254000Y-72746000D01*
X2200000Y-72746000D01*
X2200000Y-72560218D01*
X2169552Y-72486709D01*
X2113291Y-72430448D01*
X2039782Y-72400000D01*
X1960218Y-72400000D01*
X1886709Y-72430448D01*
X1830448Y-72486709D01*
X1800000Y-72560218D01*
X1746000Y-72560218D01*
X1746000Y-71392000D01*
X1451402Y-71392000D01*
X1390906Y-71398505D01*
X1254035Y-71449555D01*
X1254034Y-71449555D01*
X1137095Y-71537095D01*
X1049555Y-71654034D01*
X1049555Y-71654035D01*
X998505Y-71790906D01*
X992000Y-71851402D01*
X25500Y-71851402D01*
X25500Y-69951350D01*
X6791500Y-69951350D01*
X6791500Y-71048649D01*
X6798009Y-71109196D01*
X6798011Y-71109204D01*
X6849110Y-71246202D01*
X6849112Y-71246207D01*
X6936738Y-71363261D01*
X7053792Y-71450887D01*
X7053794Y-71450888D01*
X7053796Y-71450889D01*
X7112875Y-71472924D01*
X7190795Y-71501988D01*
X7190803Y-71501990D01*
X7251350Y-71508499D01*
X7251355Y-71508499D01*
X7251362Y-71508500D01*
X7251368Y-71508500D01*
X9548632Y-71508500D01*
X9548638Y-71508500D01*
X9548645Y-71508499D01*
X9548649Y-71508499D01*
X9609196Y-71501990D01*
X9609199Y-71501989D01*
X9609201Y-71501989D01*
X9746204Y-71450889D01*
X9863261Y-71363261D01*
X9950889Y-71246204D01*
X10001989Y-71109201D01*
X10008500Y-71048638D01*
X10008500Y-69951362D01*
X10008499Y-69951350D01*
X10001990Y-69890803D01*
X10001988Y-69890795D01*
X9950889Y-69753797D01*
X9950887Y-69753792D01*
X9863261Y-69636738D01*
X9746207Y-69549112D01*
X9746202Y-69549110D01*
X9609204Y-69498011D01*
X9609196Y-69498009D01*
X9548649Y-69491500D01*
X9548638Y-69491500D01*
X7251362Y-69491500D01*
X7251350Y-69491500D01*
X7190803Y-69498009D01*
X7190795Y-69498011D01*
X7053797Y-69549110D01*
X7053792Y-69549112D01*
X6936738Y-69636738D01*
X6849112Y-69753792D01*
X6849110Y-69753797D01*
X6798011Y-69890795D01*
X6798009Y-69890803D01*
X6791500Y-69951350D01*
X25500Y-69951350D01*
X25500Y-67251350D01*
X8191500Y-67251350D01*
X8191500Y-68348649D01*
X8198009Y-68409196D01*
X8198011Y-68409204D01*
X8249110Y-68546202D01*
X8249112Y-68546207D01*
X8336738Y-68663261D01*
X8453792Y-68750887D01*
X8453794Y-68750888D01*
X8453796Y-68750889D01*
X8512875Y-68772924D01*
X8590795Y-68801988D01*
X8590803Y-68801990D01*
X8651350Y-68808499D01*
X8651355Y-68808499D01*
X8651362Y-68808500D01*
X8651368Y-68808500D01*
X10948632Y-68808500D01*
X10948638Y-68808500D01*
X10948645Y-68808499D01*
X10948649Y-68808499D01*
X11009196Y-68801990D01*
X11009199Y-68801989D01*
X11009201Y-68801989D01*
X11146204Y-68750889D01*
X11263261Y-68663261D01*
X11350889Y-68546204D01*
X11401989Y-68409201D01*
X11408500Y-68348638D01*
X11408500Y-67251362D01*
X11408499Y-67251350D01*
X11401990Y-67190803D01*
X11401988Y-67190795D01*
X11350889Y-67053797D01*
X11350887Y-67053792D01*
X11263261Y-66936738D01*
X11146207Y-66849112D01*
X11146202Y-66849110D01*
X11009204Y-66798011D01*
X11009196Y-66798009D01*
X10948649Y-66791500D01*
X10948638Y-66791500D01*
X8651362Y-66791500D01*
X8651350Y-66791500D01*
X8590803Y-66798009D01*
X8590795Y-66798011D01*
X8453797Y-66849110D01*
X8453792Y-66849112D01*
X8336738Y-66936738D01*
X8249112Y-67053792D01*
X8249110Y-67053797D01*
X8198011Y-67190795D01*
X8198009Y-67190803D01*
X8191500Y-67251350D01*
X25500Y-67251350D01*
X25500Y-55889149D01*
X2091500Y-55889149D01*
X2091500Y-56110851D01*
X2123707Y-56314197D01*
X2126183Y-56329829D01*
X2194690Y-56540671D01*
X2194692Y-56540676D01*
X2295343Y-56738215D01*
X2295345Y-56738218D01*
X2425658Y-56917578D01*
X2582417Y-57074337D01*
X2582420Y-57074339D01*
X2582424Y-57074343D01*
X2621841Y-57102981D01*
X2683892Y-57148064D01*
X2727245Y-57204287D01*
X2733320Y-57275023D01*
X2700188Y-57337815D01*
X2683892Y-57351936D01*
X2582417Y-57425662D01*
X2425658Y-57582421D01*
X2295345Y-57761781D01*
X2194693Y-57959322D01*
X2194690Y-57959328D01*
X2126183Y-58170170D01*
X2126182Y-58170175D01*
X2126182Y-58170176D01*
X2091500Y-58389149D01*
X2091500Y-58610851D01*
X2126182Y-58829824D01*
X2126183Y-58829829D01*
X2194690Y-59040671D01*
X2194692Y-59040676D01*
X2295343Y-59238215D01*
X2295345Y-59238218D01*
X2425658Y-59417578D01*
X2582418Y-59574338D01*
X2582421Y-59574340D01*
X2582424Y-59574343D01*
X2684316Y-59648372D01*
X2727670Y-59704594D01*
X2733745Y-59775331D01*
X2700613Y-59838122D01*
X2700221Y-59838461D01*
X2700035Y-59840825D01*
X3375052Y-60515842D01*
X3307007Y-60534075D01*
X3192993Y-60599901D01*
X3099901Y-60692993D01*
X3034075Y-60807007D01*
X3015842Y-60875052D01*
X2340825Y-60200035D01*
X2340823Y-60200035D01*
X2295772Y-60262043D01*
X2195156Y-60459514D01*
X2195155Y-60459516D01*
X2126670Y-60670289D01*
X2092000Y-60889191D01*
X2092000Y-61110808D01*
X2126670Y-61329710D01*
X2195155Y-61540483D01*
X2195156Y-61540485D01*
X2295770Y-61737952D01*
X2340824Y-61799963D01*
X3015841Y-61124946D01*
X3034075Y-61192993D01*
X3099901Y-61307007D01*
X3192993Y-61400099D01*
X3307007Y-61465925D01*
X3375051Y-61484157D01*
X2700035Y-62159173D01*
X2700035Y-62159174D01*
X2762047Y-62204229D01*
X2959514Y-62304843D01*
X2959516Y-62304844D01*
X3170289Y-62373329D01*
X3389191Y-62408000D01*
X3610809Y-62408000D01*
X3829710Y-62373329D01*
X4026815Y-62309285D01*
X4097783Y-62307257D01*
X4158581Y-62343919D01*
X4189906Y-62407631D01*
X4184682Y-62470733D01*
X4173642Y-62502285D01*
X4097015Y-62721275D01*
X4097012Y-62721283D01*
X4026819Y-63028814D01*
X3991500Y-63342276D01*
X3991500Y-63657723D01*
X4026819Y-63971185D01*
X4063362Y-64131289D01*
X4097012Y-64278718D01*
X4097014Y-64278724D01*
X4097013Y-64278724D01*
X4201189Y-64576442D01*
X4201200Y-64576469D01*
X4338063Y-64860668D01*
X4505890Y-65127762D01*
X4505894Y-65127768D01*
X4702563Y-65374381D01*
X4702572Y-65374391D01*
X4925608Y-65597427D01*
X4925618Y-65597436D01*
X5172231Y-65794105D01*
X5172238Y-65794109D01*
X5172241Y-65794112D01*
X5225122Y-65827339D01*
X5439331Y-65961936D01*
X5439334Y-65961937D01*
X5439335Y-65961938D01*
X5723540Y-66098804D01*
X5723556Y-66098809D01*
X5723557Y-66098810D01*
X6021275Y-66202986D01*
X6021278Y-66202986D01*
X6021282Y-66202988D01*
X6328818Y-66273181D01*
X6551088Y-66298225D01*
X6642276Y-66308500D01*
X6642278Y-66308500D01*
X6957724Y-66308500D01*
X7037332Y-66299529D01*
X7271182Y-66273181D01*
X7578718Y-66202988D01*
X7876460Y-66098804D01*
X8160665Y-65961938D01*
X8427759Y-65794112D01*
X8674383Y-65597435D01*
X8897435Y-65374383D01*
X9094112Y-65127759D01*
X9261938Y-64860665D01*
X9398804Y-64576460D01*
X9502988Y-64278718D01*
X9573181Y-63971182D01*
X9608500Y-63657722D01*
X9608500Y-63342278D01*
X9601063Y-63276278D01*
X9598225Y-63251088D01*
X9573181Y-63028818D01*
X9502988Y-62721282D01*
X9490574Y-62685806D01*
X9398810Y-62423557D01*
X9398809Y-62423556D01*
X9398804Y-62423540D01*
X9261938Y-62139335D01*
X9261937Y-62139334D01*
X9261936Y-62139331D01*
X9207169Y-62052172D01*
X9109681Y-61897019D01*
X12191500Y-61897019D01*
X12191500Y-62102981D01*
X12223720Y-62306408D01*
X12223721Y-62306412D01*
X12261778Y-62423540D01*
X12287366Y-62502290D01*
X12380871Y-62685803D01*
X12501932Y-62852430D01*
X12501934Y-62852432D01*
X12501936Y-62852435D01*
X12647564Y-62998063D01*
X12647567Y-62998065D01*
X12647570Y-62998068D01*
X12814197Y-63119129D01*
X12997710Y-63212634D01*
X13193592Y-63276280D01*
X13397019Y-63308500D01*
X13397022Y-63308500D01*
X13602978Y-63308500D01*
X13602981Y-63308500D01*
X13806408Y-63276280D01*
X14002290Y-63212634D01*
X14185803Y-63119129D01*
X14352430Y-62998068D01*
X14498068Y-62852430D01*
X14619129Y-62685803D01*
X14712634Y-62502290D01*
X14776280Y-62306408D01*
X14808500Y-62102981D01*
X14808500Y-61897019D01*
X14776280Y-61693592D01*
X14712634Y-61497710D01*
X14619129Y-61314197D01*
X14498068Y-61147570D01*
X14498065Y-61147567D01*
X14498063Y-61147564D01*
X14352435Y-61001936D01*
X14352432Y-61001934D01*
X14352430Y-61001932D01*
X14213778Y-60901196D01*
X14185806Y-60880873D01*
X14185805Y-60880872D01*
X14185803Y-60880871D01*
X14002290Y-60787366D01*
X14002287Y-60787365D01*
X14002285Y-60787364D01*
X13806412Y-60723721D01*
X13806410Y-60723720D01*
X13806408Y-60723720D01*
X13602981Y-60691500D01*
X13397019Y-60691500D01*
X13193592Y-60723720D01*
X13193590Y-60723720D01*
X13193587Y-60723721D01*
X12997714Y-60787364D01*
X12997708Y-60787367D01*
X12814193Y-60880873D01*
X12647567Y-61001934D01*
X12647564Y-61001936D01*
X12501936Y-61147564D01*
X12501934Y-61147567D01*
X12380873Y-61314193D01*
X12287367Y-61497708D01*
X12287364Y-61497714D01*
X12223721Y-61693587D01*
X12223720Y-61693590D01*
X12223720Y-61693592D01*
X12191500Y-61897019D01*
X9109681Y-61897019D01*
X9094112Y-61872241D01*
X9094109Y-61872236D01*
X9094105Y-61872231D01*
X8897436Y-61625618D01*
X8897427Y-61625608D01*
X8674391Y-61402572D01*
X8674381Y-61402563D01*
X8427768Y-61205894D01*
X8427762Y-61205890D01*
X8160668Y-61038063D01*
X7876469Y-60901200D01*
X7876464Y-60901198D01*
X7876460Y-60901196D01*
X7876454Y-60901193D01*
X7876442Y-60901189D01*
X7578724Y-60797013D01*
X7271185Y-60726819D01*
X6957724Y-60691500D01*
X6957722Y-60691500D01*
X6642278Y-60691500D01*
X6642276Y-60691500D01*
X6328814Y-60726819D01*
X6021275Y-60797013D01*
X5723557Y-60901189D01*
X5723530Y-60901200D01*
X5439331Y-61038063D01*
X5172237Y-61205890D01*
X5172233Y-61205893D01*
X5106351Y-61258432D01*
X5040621Y-61285266D01*
X4970817Y-61272304D01*
X4919103Y-61223661D01*
X4901897Y-61154781D01*
X4903343Y-61140209D01*
X4908000Y-61110807D01*
X4908000Y-60889191D01*
X4873329Y-60670289D01*
X4804844Y-60459516D01*
X4804843Y-60459514D01*
X4704229Y-60262047D01*
X4659174Y-60200035D01*
X4659173Y-60200035D01*
X3984157Y-60875051D01*
X3965925Y-60807007D01*
X3900099Y-60692993D01*
X3807007Y-60599901D01*
X3692993Y-60534075D01*
X3624946Y-60515841D01*
X4243768Y-59897019D01*
X16191500Y-59897019D01*
X16191500Y-60102981D01*
X16223720Y-60306408D01*
X16287366Y-60502290D01*
X16380871Y-60685803D01*
X16501932Y-60852430D01*
X16501934Y-60852432D01*
X16501936Y-60852435D01*
X16647564Y-60998063D01*
X16647567Y-60998065D01*
X16647570Y-60998068D01*
X16814197Y-61119129D01*
X16997710Y-61212634D01*
X17193592Y-61276280D01*
X17397019Y-61308500D01*
X17397022Y-61308500D01*
X17602978Y-61308500D01*
X17602981Y-61308500D01*
X17806408Y-61276280D01*
X18002290Y-61212634D01*
X18185803Y-61119129D01*
X18352430Y-60998068D01*
X18498068Y-60852430D01*
X18619129Y-60685803D01*
X18712634Y-60502290D01*
X18776280Y-60306408D01*
X18808500Y-60102981D01*
X18808500Y-59897019D01*
X26351500Y-59897019D01*
X26351500Y-60102981D01*
X26383720Y-60306408D01*
X26447366Y-60502290D01*
X26540871Y-60685803D01*
X26661932Y-60852430D01*
X26661934Y-60852432D01*
X26661936Y-60852435D01*
X26807564Y-60998063D01*
X26807567Y-60998065D01*
X26807570Y-60998068D01*
X26974197Y-61119129D01*
X27157710Y-61212634D01*
X27353592Y-61276280D01*
X27557019Y-61308500D01*
X27557022Y-61308500D01*
X27762978Y-61308500D01*
X27762981Y-61308500D01*
X27966408Y-61276280D01*
X28162290Y-61212634D01*
X28345803Y-61119129D01*
X28512430Y-60998068D01*
X28658068Y-60852430D01*
X28779129Y-60685803D01*
X28872634Y-60502290D01*
X28936280Y-60306408D01*
X28968500Y-60102981D01*
X28968500Y-59897019D01*
X28936280Y-59693592D01*
X28872634Y-59497710D01*
X28779129Y-59314197D01*
X28658068Y-59147570D01*
X28658065Y-59147567D01*
X28658063Y-59147564D01*
X28512435Y-59001936D01*
X28512432Y-59001934D01*
X28512430Y-59001932D01*
X28345803Y-58880871D01*
X28162290Y-58787366D01*
X28162287Y-58787365D01*
X28162285Y-58787364D01*
X27966412Y-58723721D01*
X27966410Y-58723720D01*
X27966408Y-58723720D01*
X27762981Y-58691500D01*
X27557019Y-58691500D01*
X27353592Y-58723720D01*
X27353590Y-58723720D01*
X27353587Y-58723721D01*
X27157714Y-58787364D01*
X27157708Y-58787367D01*
X26974193Y-58880873D01*
X26807567Y-59001934D01*
X26807564Y-59001936D01*
X26661936Y-59147564D01*
X26661934Y-59147567D01*
X26540873Y-59314193D01*
X26447367Y-59497708D01*
X26447364Y-59497714D01*
X26383721Y-59693587D01*
X26383720Y-59693590D01*
X26383720Y-59693592D01*
X26351500Y-59897019D01*
X18808500Y-59897019D01*
X18776280Y-59693592D01*
X18712634Y-59497710D01*
X18619129Y-59314197D01*
X18498068Y-59147570D01*
X18498065Y-59147567D01*
X18498063Y-59147564D01*
X18352435Y-59001936D01*
X18352432Y-59001934D01*
X18352430Y-59001932D01*
X18185803Y-58880871D01*
X18002290Y-58787366D01*
X18002287Y-58787365D01*
X18002285Y-58787364D01*
X17806412Y-58723721D01*
X17806410Y-58723720D01*
X17806408Y-58723720D01*
X17602981Y-58691500D01*
X17397019Y-58691500D01*
X17193592Y-58723720D01*
X17193590Y-58723720D01*
X17193587Y-58723721D01*
X16997714Y-58787364D01*
X16997708Y-58787367D01*
X16814193Y-58880873D01*
X16647567Y-59001934D01*
X16647564Y-59001936D01*
X16501936Y-59147564D01*
X16501934Y-59147567D01*
X16380873Y-59314193D01*
X16287367Y-59497708D01*
X16287364Y-59497714D01*
X16223721Y-59693587D01*
X16223720Y-59693590D01*
X16223720Y-59693592D01*
X16191500Y-59897019D01*
X4243768Y-59897019D01*
X4286695Y-59854092D01*
X4267863Y-59782263D01*
X4268696Y-59753724D01*
X4266254Y-59725283D01*
X4269718Y-59718717D01*
X4269935Y-59711297D01*
X4286063Y-59687742D01*
X4299387Y-59662492D01*
X4309136Y-59654044D01*
X4310046Y-59652716D01*
X4311261Y-59652203D01*
X4315676Y-59648377D01*
X4417576Y-59574343D01*
X4574343Y-59417576D01*
X4704657Y-59238215D01*
X4805308Y-59040676D01*
X4873818Y-58829824D01*
X4908500Y-58610851D01*
X4908500Y-58389149D01*
X4873818Y-58170176D01*
X4805308Y-57959324D01*
X4704657Y-57761785D01*
X4574343Y-57582424D01*
X4574341Y-57582421D01*
X4417578Y-57425658D01*
X4316108Y-57351936D01*
X4272754Y-57295713D01*
X4266679Y-57224977D01*
X4299811Y-57162186D01*
X4316108Y-57148064D01*
X4378159Y-57102981D01*
X4417576Y-57074343D01*
X4574343Y-56917576D01*
X4589279Y-56897019D01*
X12191500Y-56897019D01*
X12191500Y-57102981D01*
X12222026Y-57295713D01*
X12223721Y-57306412D01*
X12262466Y-57425658D01*
X12287366Y-57502290D01*
X12380871Y-57685803D01*
X12501932Y-57852430D01*
X12501934Y-57852432D01*
X12501936Y-57852435D01*
X12647564Y-57998063D01*
X12647567Y-57998065D01*
X12647570Y-57998068D01*
X12814197Y-58119129D01*
X12997710Y-58212634D01*
X13193592Y-58276280D01*
X13397019Y-58308500D01*
X13397022Y-58308500D01*
X13602978Y-58308500D01*
X13602981Y-58308500D01*
X13806408Y-58276280D01*
X14002290Y-58212634D01*
X14185803Y-58119129D01*
X14352430Y-57998068D01*
X14498068Y-57852430D01*
X14619129Y-57685803D01*
X14712634Y-57502290D01*
X14776280Y-57306408D01*
X14808500Y-57102981D01*
X14808500Y-56897019D01*
X14776280Y-56693592D01*
X14712634Y-56497710D01*
X14619129Y-56314197D01*
X14498068Y-56147570D01*
X14498065Y-56147567D01*
X14498063Y-56147564D01*
X14352435Y-56001936D01*
X14352432Y-56001934D01*
X14352430Y-56001932D01*
X14185803Y-55880871D01*
X14002290Y-55787366D01*
X14002287Y-55787365D01*
X14002285Y-55787364D01*
X13806412Y-55723721D01*
X13806410Y-55723720D01*
X13806408Y-55723720D01*
X13602981Y-55691500D01*
X13397019Y-55691500D01*
X13193592Y-55723720D01*
X13193590Y-55723720D01*
X13193587Y-55723721D01*
X12997714Y-55787364D01*
X12997708Y-55787367D01*
X12814193Y-55880873D01*
X12647567Y-56001934D01*
X12647564Y-56001936D01*
X12501936Y-56147564D01*
X12501934Y-56147567D01*
X12380873Y-56314193D01*
X12287367Y-56497708D01*
X12287364Y-56497714D01*
X12223721Y-56693587D01*
X12223720Y-56693590D01*
X12223720Y-56693592D01*
X12191500Y-56897019D01*
X4589279Y-56897019D01*
X4704657Y-56738215D01*
X4805308Y-56540676D01*
X4873818Y-56329824D01*
X4908500Y-56110851D01*
X4908500Y-55889149D01*
X4903922Y-55860247D01*
X4913021Y-55789840D01*
X4958743Y-55735525D01*
X5026571Y-55714552D01*
X5094970Y-55733578D01*
X5106931Y-55742029D01*
X5172231Y-55794105D01*
X5172238Y-55794109D01*
X5172241Y-55794112D01*
X5277501Y-55860251D01*
X5439331Y-55961936D01*
X5439334Y-55961937D01*
X5439335Y-55961938D01*
X5723540Y-56098804D01*
X5723556Y-56098809D01*
X5723557Y-56098810D01*
X6021275Y-56202986D01*
X6021278Y-56202986D01*
X6021282Y-56202988D01*
X6328818Y-56273181D01*
X6551088Y-56298225D01*
X6642276Y-56308500D01*
X6642278Y-56308500D01*
X6957724Y-56308500D01*
X7037332Y-56299529D01*
X7271182Y-56273181D01*
X7578718Y-56202988D01*
X7876460Y-56098804D01*
X8160665Y-55961938D01*
X8427759Y-55794112D01*
X8674383Y-55597435D01*
X8897435Y-55374383D01*
X9094112Y-55127759D01*
X9261938Y-54860665D01*
X9398804Y-54576460D01*
X9476942Y-54353153D01*
X9502986Y-54278724D01*
X9502986Y-54278723D01*
X9502988Y-54278718D01*
X9573181Y-53971182D01*
X9581537Y-53897019D01*
X16191500Y-53897019D01*
X16191500Y-54102981D01*
X16223720Y-54306408D01*
X16287366Y-54502290D01*
X16380871Y-54685803D01*
X16501932Y-54852430D01*
X16501934Y-54852432D01*
X16501936Y-54852435D01*
X16647564Y-54998063D01*
X16647567Y-54998065D01*
X16647570Y-54998068D01*
X16814197Y-55119129D01*
X16997710Y-55212634D01*
X17193592Y-55276280D01*
X17397019Y-55308500D01*
X17397022Y-55308500D01*
X17602978Y-55308500D01*
X17602981Y-55308500D01*
X17806408Y-55276280D01*
X18002290Y-55212634D01*
X18185803Y-55119129D01*
X18352430Y-54998068D01*
X18498068Y-54852430D01*
X18619129Y-54685803D01*
X18712634Y-54502290D01*
X18776280Y-54306408D01*
X18808500Y-54102981D01*
X18808500Y-53897019D01*
X26351500Y-53897019D01*
X26351500Y-54102981D01*
X26383720Y-54306408D01*
X26447366Y-54502290D01*
X26540871Y-54685803D01*
X26661932Y-54852430D01*
X26661934Y-54852432D01*
X26661936Y-54852435D01*
X26807564Y-54998063D01*
X26807567Y-54998065D01*
X26807570Y-54998068D01*
X26974197Y-55119129D01*
X27157710Y-55212634D01*
X27353592Y-55276280D01*
X27557019Y-55308500D01*
X27557022Y-55308500D01*
X27762978Y-55308500D01*
X27762981Y-55308500D01*
X27966408Y-55276280D01*
X28162290Y-55212634D01*
X28345803Y-55119129D01*
X28512430Y-54998068D01*
X28658068Y-54852430D01*
X28779129Y-54685803D01*
X28872634Y-54502290D01*
X28936280Y-54306408D01*
X28968500Y-54102981D01*
X28968500Y-53897019D01*
X28936280Y-53693592D01*
X28872634Y-53497710D01*
X28779129Y-53314197D01*
X28658068Y-53147570D01*
X28658065Y-53147567D01*
X28658063Y-53147564D01*
X28512435Y-53001936D01*
X28512432Y-53001934D01*
X28512430Y-53001932D01*
X28345803Y-52880871D01*
X28162290Y-52787366D01*
X28162287Y-52787365D01*
X28162285Y-52787364D01*
X27966412Y-52723721D01*
X27966410Y-52723720D01*
X27966408Y-52723720D01*
X27762981Y-52691500D01*
X27557019Y-52691500D01*
X27353592Y-52723720D01*
X27353590Y-52723720D01*
X27353587Y-52723721D01*
X27157714Y-52787364D01*
X27157708Y-52787367D01*
X26974193Y-52880873D01*
X26807567Y-53001934D01*
X26807564Y-53001936D01*
X26661936Y-53147564D01*
X26661934Y-53147567D01*
X26540873Y-53314193D01*
X26447367Y-53497708D01*
X26447364Y-53497714D01*
X26383721Y-53693587D01*
X26383720Y-53693590D01*
X26383720Y-53693592D01*
X26351500Y-53897019D01*
X18808500Y-53897019D01*
X18776280Y-53693592D01*
X18712634Y-53497710D01*
X18619129Y-53314197D01*
X18498068Y-53147570D01*
X18498065Y-53147567D01*
X18498063Y-53147564D01*
X18352435Y-53001936D01*
X18352432Y-53001934D01*
X18352430Y-53001932D01*
X18185803Y-52880871D01*
X18002290Y-52787366D01*
X18002287Y-52787365D01*
X18002285Y-52787364D01*
X17806412Y-52723721D01*
X17806410Y-52723720D01*
X17806408Y-52723720D01*
X17602981Y-52691500D01*
X17397019Y-52691500D01*
X17193592Y-52723720D01*
X17193590Y-52723720D01*
X17193587Y-52723721D01*
X16997714Y-52787364D01*
X16997708Y-52787367D01*
X16814193Y-52880873D01*
X16647567Y-53001934D01*
X16647564Y-53001936D01*
X16501936Y-53147564D01*
X16501934Y-53147567D01*
X16380873Y-53314193D01*
X16287367Y-53497708D01*
X16287364Y-53497714D01*
X16223721Y-53693587D01*
X16223720Y-53693590D01*
X16223720Y-53693592D01*
X16191500Y-53897019D01*
X9581537Y-53897019D01*
X9608500Y-53657722D01*
X9608500Y-53342278D01*
X9573181Y-53028818D01*
X9502988Y-52721282D01*
X9398804Y-52423540D01*
X9261938Y-52139335D01*
X9261937Y-52139334D01*
X9261936Y-52139331D01*
X9094109Y-51872237D01*
X9094105Y-51872231D01*
X8897436Y-51625618D01*
X8897427Y-51625608D01*
X8674391Y-51402572D01*
X8674381Y-51402563D01*
X8427768Y-51205894D01*
X8427762Y-51205890D01*
X8160668Y-51038063D01*
X7876469Y-50901200D01*
X7876464Y-50901198D01*
X7876460Y-50901196D01*
X7876454Y-50901193D01*
X7876442Y-50901189D01*
X7578724Y-50797013D01*
X7271185Y-50726819D01*
X6957724Y-50691500D01*
X6957722Y-50691500D01*
X6642278Y-50691500D01*
X6642276Y-50691500D01*
X6328814Y-50726819D01*
X6021275Y-50797013D01*
X5723557Y-50901189D01*
X5723530Y-50901200D01*
X5439331Y-51038063D01*
X5172237Y-51205890D01*
X5172231Y-51205894D01*
X4925618Y-51402563D01*
X4925608Y-51402572D01*
X4702572Y-51625608D01*
X4702563Y-51625618D01*
X4505894Y-51872231D01*
X4505890Y-51872237D01*
X4338063Y-52139331D01*
X4201200Y-52423530D01*
X4201189Y-52423557D01*
X4097013Y-52721275D01*
X4026819Y-53028814D01*
X3991500Y-53342276D01*
X3991500Y-53657723D01*
X4026819Y-53971185D01*
X4056900Y-54102977D01*
X4097012Y-54278718D01*
X4097014Y-54278724D01*
X4097013Y-54278724D01*
X4184474Y-54528673D01*
X4188093Y-54599577D01*
X4152804Y-54661183D01*
X4089811Y-54693929D01*
X4026609Y-54690121D01*
X3829827Y-54626183D01*
X3829831Y-54626183D01*
X3789063Y-54619726D01*
X3610851Y-54591500D01*
X3389149Y-54591500D01*
X3170176Y-54626182D01*
X3170170Y-54626183D01*
X2959328Y-54694690D01*
X2959322Y-54694693D01*
X2761781Y-54795345D01*
X2582421Y-54925658D01*
X2425658Y-55082421D01*
X2295345Y-55261781D01*
X2194693Y-55459322D01*
X2194690Y-55459328D01*
X2126183Y-55670170D01*
X2126182Y-55670175D01*
X2126182Y-55670176D01*
X2091500Y-55889149D01*
X25500Y-55889149D01*
X25500Y-46897019D01*
X7691500Y-46897019D01*
X7691500Y-47102981D01*
X7723720Y-47306408D01*
X7787366Y-47502290D01*
X7880871Y-47685803D01*
X8001932Y-47852430D01*
X8001934Y-47852432D01*
X8001936Y-47852435D01*
X8147564Y-47998063D01*
X8147567Y-47998065D01*
X8147570Y-47998068D01*
X8314197Y-48119129D01*
X8497710Y-48212634D01*
X8693592Y-48276280D01*
X8897019Y-48308500D01*
X8897022Y-48308500D01*
X9102978Y-48308500D01*
X9102981Y-48308500D01*
X9306408Y-48276280D01*
X9502290Y-48212634D01*
X9685803Y-48119129D01*
X9852430Y-47998068D01*
X9998068Y-47852430D01*
X10119129Y-47685803D01*
X10212634Y-47502290D01*
X10276280Y-47306408D01*
X10308500Y-47102981D01*
X10308500Y-46897019D01*
X17851500Y-46897019D01*
X17851500Y-47102981D01*
X17883720Y-47306408D01*
X17947366Y-47502290D01*
X18040871Y-47685803D01*
X18161932Y-47852430D01*
X18161934Y-47852432D01*
X18161936Y-47852435D01*
X18307564Y-47998063D01*
X18307567Y-47998065D01*
X18307570Y-47998068D01*
X18474197Y-48119129D01*
X18657710Y-48212634D01*
X18853592Y-48276280D01*
X19057019Y-48308500D01*
X19057022Y-48308500D01*
X19262978Y-48308500D01*
X19262981Y-48308500D01*
X19466408Y-48276280D01*
X19662290Y-48212634D01*
X19845803Y-48119129D01*
X20012430Y-47998068D01*
X20158068Y-47852430D01*
X20279129Y-47685803D01*
X20372634Y-47502290D01*
X20436280Y-47306408D01*
X20455551Y-47184731D01*
X20485964Y-47120580D01*
X20546232Y-47083053D01*
X20617221Y-47084067D01*
X20676393Y-47123300D01*
X20704448Y-47184730D01*
X20723720Y-47306408D01*
X20787366Y-47502290D01*
X20880871Y-47685803D01*
X21001932Y-47852430D01*
X21001934Y-47852432D01*
X21001936Y-47852435D01*
X21147564Y-47998063D01*
X21147567Y-47998065D01*
X21147570Y-47998068D01*
X21314197Y-48119129D01*
X21497710Y-48212634D01*
X21693592Y-48276280D01*
X21897019Y-48308500D01*
X21897022Y-48308500D01*
X22102978Y-48308500D01*
X22102981Y-48308500D01*
X22306408Y-48276280D01*
X22502290Y-48212634D01*
X22685803Y-48119129D01*
X22852430Y-47998068D01*
X22998068Y-47852430D01*
X23119129Y-47685803D01*
X23212634Y-47502290D01*
X23276280Y-47306408D01*
X23308500Y-47102981D01*
X23308500Y-46897019D01*
X25691500Y-46897019D01*
X25691500Y-47102981D01*
X25723720Y-47306408D01*
X25787366Y-47502290D01*
X25880871Y-47685803D01*
X26001932Y-47852430D01*
X26001934Y-47852432D01*
X26001936Y-47852435D01*
X26147564Y-47998063D01*
X26147567Y-47998065D01*
X26147570Y-47998068D01*
X26314197Y-48119129D01*
X26497710Y-48212634D01*
X26693592Y-48276280D01*
X26897019Y-48308500D01*
X26897022Y-48308500D01*
X27102978Y-48308500D01*
X27102981Y-48308500D01*
X27306408Y-48276280D01*
X27502290Y-48212634D01*
X27685803Y-48119129D01*
X27852430Y-47998068D01*
X27998068Y-47852430D01*
X28119129Y-47685803D01*
X28212634Y-47502290D01*
X28276280Y-47306408D01*
X28308500Y-47102981D01*
X28308500Y-46897019D01*
X28276280Y-46693592D01*
X28212634Y-46497710D01*
X28119129Y-46314197D01*
X27998068Y-46147570D01*
X27998065Y-46147567D01*
X27998063Y-46147564D01*
X27852435Y-46001936D01*
X27852432Y-46001934D01*
X27852430Y-46001932D01*
X27685803Y-45880871D01*
X27502290Y-45787366D01*
X27502287Y-45787365D01*
X27502285Y-45787364D01*
X27306412Y-45723721D01*
X27306410Y-45723720D01*
X27306408Y-45723720D01*
X27102981Y-45691500D01*
X26897019Y-45691500D01*
X26693592Y-45723720D01*
X26693590Y-45723720D01*
X26693587Y-45723721D01*
X26497714Y-45787364D01*
X26497708Y-45787367D01*
X26314193Y-45880873D01*
X26147567Y-46001934D01*
X26147564Y-46001936D01*
X26001936Y-46147564D01*
X26001934Y-46147567D01*
X25880873Y-46314193D01*
X25787367Y-46497708D01*
X25787364Y-46497714D01*
X25723721Y-46693587D01*
X25723720Y-46693590D01*
X25723720Y-46693592D01*
X25691500Y-46897019D01*
X23308500Y-46897019D01*
X23276280Y-46693592D01*
X23212634Y-46497710D01*
X23119129Y-46314197D01*
X22998068Y-46147570D01*
X22998065Y-46147567D01*
X22998063Y-46147564D01*
X22852435Y-46001936D01*
X22852432Y-46001934D01*
X22852430Y-46001932D01*
X22685803Y-45880871D01*
X22502290Y-45787366D01*
X22502287Y-45787365D01*
X22502285Y-45787364D01*
X22306412Y-45723721D01*
X22306410Y-45723720D01*
X22306408Y-45723720D01*
X22102981Y-45691500D01*
X21897019Y-45691500D01*
X21693592Y-45723720D01*
X21693590Y-45723720D01*
X21693587Y-45723721D01*
X21497714Y-45787364D01*
X21497708Y-45787367D01*
X21314193Y-45880873D01*
X21147567Y-46001934D01*
X21147564Y-46001936D01*
X21001936Y-46147564D01*
X21001934Y-46147567D01*
X20880873Y-46314193D01*
X20787367Y-46497708D01*
X20787364Y-46497714D01*
X20723721Y-46693587D01*
X20704449Y-46815266D01*
X20674036Y-46879419D01*
X20613768Y-46916946D01*
X20542779Y-46915932D01*
X20483607Y-46876699D01*
X20455551Y-46815266D01*
X20436280Y-46693592D01*
X20372634Y-46497710D01*
X20279129Y-46314197D01*
X20158068Y-46147570D01*
X20158065Y-46147567D01*
X20158063Y-46147564D01*
X20012435Y-46001936D01*
X20012432Y-46001934D01*
X20012430Y-46001932D01*
X19845803Y-45880871D01*
X19662290Y-45787366D01*
X19662287Y-45787365D01*
X19662285Y-45787364D01*
X19466412Y-45723721D01*
X19466410Y-45723720D01*
X19466408Y-45723720D01*
X19262981Y-45691500D01*
X19057019Y-45691500D01*
X18853592Y-45723720D01*
X18853590Y-45723720D01*
X18853587Y-45723721D01*
X18657714Y-45787364D01*
X18657708Y-45787367D01*
X18474193Y-45880873D01*
X18307567Y-46001934D01*
X18307564Y-46001936D01*
X18161936Y-46147564D01*
X18161934Y-46147567D01*
X18040873Y-46314193D01*
X17947367Y-46497708D01*
X17947364Y-46497714D01*
X17883721Y-46693587D01*
X17883720Y-46693590D01*
X17883720Y-46693592D01*
X17851500Y-46897019D01*
X10308500Y-46897019D01*
X10276280Y-46693592D01*
X10212634Y-46497710D01*
X10119129Y-46314197D01*
X9998068Y-46147570D01*
X9998065Y-46147567D01*
X9998063Y-46147564D01*
X9852435Y-46001936D01*
X9852432Y-46001934D01*
X9852430Y-46001932D01*
X9685803Y-45880871D01*
X9502290Y-45787366D01*
X9502287Y-45787365D01*
X9502285Y-45787364D01*
X9306412Y-45723721D01*
X9306410Y-45723720D01*
X9306408Y-45723720D01*
X9102981Y-45691500D01*
X8897019Y-45691500D01*
X8693592Y-45723720D01*
X8693590Y-45723720D01*
X8693587Y-45723721D01*
X8497714Y-45787364D01*
X8497708Y-45787367D01*
X8314193Y-45880873D01*
X8147567Y-46001934D01*
X8147564Y-46001936D01*
X8001936Y-46147564D01*
X8001934Y-46147567D01*
X7880873Y-46314193D01*
X7787367Y-46497708D01*
X7787364Y-46497714D01*
X7723721Y-46693587D01*
X7723720Y-46693590D01*
X7723720Y-46693592D01*
X7691500Y-46897019D01*
X25500Y-46897019D01*
X25500Y-39897019D01*
X7691500Y-39897019D01*
X7691500Y-40102981D01*
X7723720Y-40306408D01*
X7787366Y-40502290D01*
X7880871Y-40685803D01*
X8001932Y-40852430D01*
X8001934Y-40852432D01*
X8001936Y-40852435D01*
X8147564Y-40998063D01*
X8147567Y-40998065D01*
X8147570Y-40998068D01*
X8314197Y-41119129D01*
X8497710Y-41212634D01*
X8693592Y-41276280D01*
X8897019Y-41308500D01*
X8897022Y-41308500D01*
X9102978Y-41308500D01*
X9102981Y-41308500D01*
X9306408Y-41276280D01*
X9502290Y-41212634D01*
X9685803Y-41119129D01*
X9852430Y-40998068D01*
X9998068Y-40852430D01*
X10119129Y-40685803D01*
X10212634Y-40502290D01*
X10276280Y-40306408D01*
X10308500Y-40102981D01*
X10308500Y-39897019D01*
X17851500Y-39897019D01*
X17851500Y-40102981D01*
X17883720Y-40306408D01*
X17947366Y-40502290D01*
X18040871Y-40685803D01*
X18161932Y-40852430D01*
X18161934Y-40852432D01*
X18161936Y-40852435D01*
X18307564Y-40998063D01*
X18307567Y-40998065D01*
X18307570Y-40998068D01*
X18474197Y-41119129D01*
X18657710Y-41212634D01*
X18853592Y-41276280D01*
X19057019Y-41308500D01*
X19057022Y-41308500D01*
X19262978Y-41308500D01*
X19262981Y-41308500D01*
X19466408Y-41276280D01*
X19662290Y-41212634D01*
X19845803Y-41119129D01*
X20012430Y-40998068D01*
X20158068Y-40852430D01*
X20279129Y-40685803D01*
X20372634Y-40502290D01*
X20436280Y-40306408D01*
X20455551Y-40184731D01*
X20485964Y-40120580D01*
X20546232Y-40083053D01*
X20617221Y-40084067D01*
X20676393Y-40123300D01*
X20704448Y-40184730D01*
X20723720Y-40306408D01*
X20787366Y-40502290D01*
X20880871Y-40685803D01*
X21001932Y-40852430D01*
X21001934Y-40852432D01*
X21001936Y-40852435D01*
X21147564Y-40998063D01*
X21147567Y-40998065D01*
X21147570Y-40998068D01*
X21314197Y-41119129D01*
X21497710Y-41212634D01*
X21693592Y-41276280D01*
X21897019Y-41308500D01*
X21897022Y-41308500D01*
X22102978Y-41308500D01*
X22102981Y-41308500D01*
X22306408Y-41276280D01*
X22502290Y-41212634D01*
X22685803Y-41119129D01*
X22852430Y-40998068D01*
X22998068Y-40852430D01*
X23119129Y-40685803D01*
X23212634Y-40502290D01*
X23276280Y-40306408D01*
X23308500Y-40102981D01*
X23308500Y-39897019D01*
X25691500Y-39897019D01*
X25691500Y-40102981D01*
X25723720Y-40306408D01*
X25787366Y-40502290D01*
X25880871Y-40685803D01*
X26001932Y-40852430D01*
X26001934Y-40852432D01*
X26001936Y-40852435D01*
X26147564Y-40998063D01*
X26147567Y-40998065D01*
X26147570Y-40998068D01*
X26314197Y-41119129D01*
X26497710Y-41212634D01*
X26693592Y-41276280D01*
X26897019Y-41308500D01*
X26897022Y-41308500D01*
X27102978Y-41308500D01*
X27102981Y-41308500D01*
X27306408Y-41276280D01*
X27502290Y-41212634D01*
X27685803Y-41119129D01*
X27852430Y-40998068D01*
X27998068Y-40852430D01*
X28119129Y-40685803D01*
X28212634Y-40502290D01*
X28276280Y-40306408D01*
X28308500Y-40102981D01*
X28308500Y-39897019D01*
X28276280Y-39693592D01*
X28212634Y-39497710D01*
X28119129Y-39314197D01*
X27998068Y-39147570D01*
X27998065Y-39147567D01*
X27998063Y-39147564D01*
X27852435Y-39001936D01*
X27852432Y-39001934D01*
X27852430Y-39001932D01*
X27685803Y-38880871D01*
X27502290Y-38787366D01*
X27502287Y-38787365D01*
X27502285Y-38787364D01*
X27306412Y-38723721D01*
X27306410Y-38723720D01*
X27306408Y-38723720D01*
X27102981Y-38691500D01*
X26897019Y-38691500D01*
X26693592Y-38723720D01*
X26693590Y-38723720D01*
X26693587Y-38723721D01*
X26497714Y-38787364D01*
X26497708Y-38787367D01*
X26314193Y-38880873D01*
X26147567Y-39001934D01*
X26147564Y-39001936D01*
X26001936Y-39147564D01*
X26001934Y-39147567D01*
X25880873Y-39314193D01*
X25787367Y-39497708D01*
X25787364Y-39497714D01*
X25723721Y-39693587D01*
X25723720Y-39693590D01*
X25723720Y-39693592D01*
X25691500Y-39897019D01*
X23308500Y-39897019D01*
X23276280Y-39693592D01*
X23212634Y-39497710D01*
X23119129Y-39314197D01*
X22998068Y-39147570D01*
X22998065Y-39147567D01*
X22998063Y-39147564D01*
X22852435Y-39001936D01*
X22852432Y-39001934D01*
X22852430Y-39001932D01*
X22685803Y-38880871D01*
X22502290Y-38787366D01*
X22502287Y-38787365D01*
X22502285Y-38787364D01*
X22306412Y-38723721D01*
X22306410Y-38723720D01*
X22306408Y-38723720D01*
X22102981Y-38691500D01*
X21897019Y-38691500D01*
X21693592Y-38723720D01*
X21693590Y-38723720D01*
X21693587Y-38723721D01*
X21497714Y-38787364D01*
X21497708Y-38787367D01*
X21314193Y-38880873D01*
X21147567Y-39001934D01*
X21147564Y-39001936D01*
X21001936Y-39147564D01*
X21001934Y-39147567D01*
X20880873Y-39314193D01*
X20787367Y-39497708D01*
X20787364Y-39497714D01*
X20723721Y-39693587D01*
X20704449Y-39815266D01*
X20674036Y-39879419D01*
X20613768Y-39916946D01*
X20542779Y-39915932D01*
X20483607Y-39876699D01*
X20455551Y-39815266D01*
X20436280Y-39693592D01*
X20372634Y-39497710D01*
X20279129Y-39314197D01*
X20158068Y-39147570D01*
X20158065Y-39147567D01*
X20158063Y-39147564D01*
X20012435Y-39001936D01*
X20012432Y-39001934D01*
X20012430Y-39001932D01*
X19845803Y-38880871D01*
X19662290Y-38787366D01*
X19662287Y-38787365D01*
X19662285Y-38787364D01*
X19466412Y-38723721D01*
X19466410Y-38723720D01*
X19466408Y-38723720D01*
X19262981Y-38691500D01*
X19057019Y-38691500D01*
X18853592Y-38723720D01*
X18853590Y-38723720D01*
X18853587Y-38723721D01*
X18657714Y-38787364D01*
X18657708Y-38787367D01*
X18474193Y-38880873D01*
X18307567Y-39001934D01*
X18307564Y-39001936D01*
X18161936Y-39147564D01*
X18161934Y-39147567D01*
X18040873Y-39314193D01*
X17947367Y-39497708D01*
X17947364Y-39497714D01*
X17883721Y-39693587D01*
X17883720Y-39693590D01*
X17883720Y-39693592D01*
X17851500Y-39897019D01*
X10308500Y-39897019D01*
X10276280Y-39693592D01*
X10212634Y-39497710D01*
X10119129Y-39314197D01*
X9998068Y-39147570D01*
X9998065Y-39147567D01*
X9998063Y-39147564D01*
X9852435Y-39001936D01*
X9852432Y-39001934D01*
X9852430Y-39001932D01*
X9685803Y-38880871D01*
X9502290Y-38787366D01*
X9502287Y-38787365D01*
X9502285Y-38787364D01*
X9306412Y-38723721D01*
X9306410Y-38723720D01*
X9306408Y-38723720D01*
X9102981Y-38691500D01*
X8897019Y-38691500D01*
X8693592Y-38723720D01*
X8693590Y-38723720D01*
X8693587Y-38723721D01*
X8497714Y-38787364D01*
X8497708Y-38787367D01*
X8314193Y-38880873D01*
X8147567Y-39001934D01*
X8147564Y-39001936D01*
X8001936Y-39147564D01*
X8001934Y-39147567D01*
X7880873Y-39314193D01*
X7787367Y-39497708D01*
X7787364Y-39497714D01*
X7723721Y-39693587D01*
X7723720Y-39693590D01*
X7723720Y-39693592D01*
X7691500Y-39897019D01*
X25500Y-39897019D01*
X25500Y-34397019D01*
X7691500Y-34397019D01*
X7691500Y-34602981D01*
X7723720Y-34806408D01*
X7787366Y-35002290D01*
X7880871Y-35185803D01*
X8001932Y-35352430D01*
X8001934Y-35352432D01*
X8001936Y-35352435D01*
X8147564Y-35498063D01*
X8147567Y-35498065D01*
X8147570Y-35498068D01*
X8314197Y-35619129D01*
X8497710Y-35712634D01*
X8693592Y-35776280D01*
X8897019Y-35808500D01*
X8897022Y-35808500D01*
X9102978Y-35808500D01*
X9102981Y-35808500D01*
X9306408Y-35776280D01*
X9502290Y-35712634D01*
X9685803Y-35619129D01*
X9852430Y-35498068D01*
X9998068Y-35352430D01*
X10119129Y-35185803D01*
X10212634Y-35002290D01*
X10276280Y-34806408D01*
X10308500Y-34602981D01*
X10308500Y-34397019D01*
X17851500Y-34397019D01*
X17851500Y-34602981D01*
X17883720Y-34806408D01*
X17947366Y-35002290D01*
X18040871Y-35185803D01*
X18161932Y-35352430D01*
X18161934Y-35352432D01*
X18161936Y-35352435D01*
X18307564Y-35498063D01*
X18307567Y-35498065D01*
X18307570Y-35498068D01*
X18474197Y-35619129D01*
X18657710Y-35712634D01*
X18853592Y-35776280D01*
X19057019Y-35808500D01*
X19057022Y-35808500D01*
X19262978Y-35808500D01*
X19262981Y-35808500D01*
X19466408Y-35776280D01*
X19662290Y-35712634D01*
X19845803Y-35619129D01*
X20012430Y-35498068D01*
X20158068Y-35352430D01*
X20279129Y-35185803D01*
X20372634Y-35002290D01*
X20436280Y-34806408D01*
X20468500Y-34602981D01*
X20468500Y-34397019D01*
X20436280Y-34193592D01*
X20372634Y-33997710D01*
X20279129Y-33814197D01*
X20158068Y-33647570D01*
X20158065Y-33647567D01*
X20158063Y-33647564D01*
X20012435Y-33501936D01*
X20012432Y-33501934D01*
X20012430Y-33501932D01*
X19845803Y-33380871D01*
X19662290Y-33287366D01*
X19662287Y-33287365D01*
X19662285Y-33287364D01*
X19466412Y-33223721D01*
X19466410Y-33223720D01*
X19466408Y-33223720D01*
X19262981Y-33191500D01*
X19057019Y-33191500D01*
X18853592Y-33223720D01*
X18853590Y-33223720D01*
X18853587Y-33223721D01*
X18657714Y-33287364D01*
X18657708Y-33287367D01*
X18474193Y-33380873D01*
X18307567Y-33501934D01*
X18307564Y-33501936D01*
X18161936Y-33647564D01*
X18161934Y-33647567D01*
X18040873Y-33814193D01*
X17947367Y-33997708D01*
X17947364Y-33997714D01*
X17883721Y-34193587D01*
X17883720Y-34193590D01*
X17883720Y-34193592D01*
X17851500Y-34397019D01*
X10308500Y-34397019D01*
X10276280Y-34193592D01*
X10212634Y-33997710D01*
X10119129Y-33814197D01*
X9998068Y-33647570D01*
X9998065Y-33647567D01*
X9998063Y-33647564D01*
X9852435Y-33501936D01*
X9852432Y-33501934D01*
X9852430Y-33501932D01*
X9685803Y-33380871D01*
X9502290Y-33287366D01*
X9502287Y-33287365D01*
X9502285Y-33287364D01*
X9306412Y-33223721D01*
X9306410Y-33223720D01*
X9306408Y-33223720D01*
X9102981Y-33191500D01*
X8897019Y-33191500D01*
X8693592Y-33223720D01*
X8693590Y-33223720D01*
X8693587Y-33223721D01*
X8497714Y-33287364D01*
X8497708Y-33287367D01*
X8314193Y-33380873D01*
X8147567Y-33501934D01*
X8147564Y-33501936D01*
X8001936Y-33647564D01*
X8001934Y-33647567D01*
X7880873Y-33814193D01*
X7787367Y-33997708D01*
X7787364Y-33997714D01*
X7723721Y-34193587D01*
X7723720Y-34193590D01*
X7723720Y-34193592D01*
X7691500Y-34397019D01*
X25500Y-34397019D01*
X25500Y-32897019D01*
X20691500Y-32897019D01*
X20691500Y-33102981D01*
X20723720Y-33306408D01*
X20723721Y-33306412D01*
X20787249Y-33501932D01*
X20787366Y-33502290D01*
X20880871Y-33685803D01*
X21001932Y-33852430D01*
X21001934Y-33852432D01*
X21001936Y-33852435D01*
X21147564Y-33998063D01*
X21147567Y-33998065D01*
X21147570Y-33998068D01*
X21314197Y-34119129D01*
X21497710Y-34212634D01*
X21693592Y-34276280D01*
X21897019Y-34308500D01*
X21897022Y-34308500D01*
X22102978Y-34308500D01*
X22102981Y-34308500D01*
X22306408Y-34276280D01*
X22502290Y-34212634D01*
X22685803Y-34119129D01*
X22852430Y-33998068D01*
X22998068Y-33852430D01*
X23119129Y-33685803D01*
X23212634Y-33502290D01*
X23276280Y-33306408D01*
X23308500Y-33102981D01*
X23308500Y-32897019D01*
X25691500Y-32897019D01*
X25691500Y-33102981D01*
X25723720Y-33306408D01*
X25723721Y-33306412D01*
X25787249Y-33501932D01*
X25787366Y-33502290D01*
X25880871Y-33685803D01*
X26001932Y-33852430D01*
X26001934Y-33852432D01*
X26001936Y-33852435D01*
X26147564Y-33998063D01*
X26147567Y-33998065D01*
X26147570Y-33998068D01*
X26314197Y-34119129D01*
X26497710Y-34212634D01*
X26693592Y-34276280D01*
X26897019Y-34308500D01*
X26897022Y-34308500D01*
X27102978Y-34308500D01*
X27102981Y-34308500D01*
X27306408Y-34276280D01*
X27502290Y-34212634D01*
X27685803Y-34119129D01*
X27852430Y-33998068D01*
X27998068Y-33852430D01*
X28119129Y-33685803D01*
X28212634Y-33502290D01*
X28276280Y-33306408D01*
X28308500Y-33102981D01*
X28308500Y-32897019D01*
X28276280Y-32693592D01*
X28212634Y-32497710D01*
X28119129Y-32314197D01*
X27998068Y-32147570D01*
X27998065Y-32147567D01*
X27998063Y-32147564D01*
X27852435Y-32001936D01*
X27852432Y-32001934D01*
X27852430Y-32001932D01*
X27685803Y-31880871D01*
X27502290Y-31787366D01*
X27502287Y-31787365D01*
X27502285Y-31787364D01*
X27306412Y-31723721D01*
X27306410Y-31723720D01*
X27306408Y-31723720D01*
X27102981Y-31691500D01*
X26897019Y-31691500D01*
X26693592Y-31723720D01*
X26693590Y-31723720D01*
X26693587Y-31723721D01*
X26497714Y-31787364D01*
X26497708Y-31787367D01*
X26314193Y-31880873D01*
X26147567Y-32001934D01*
X26147564Y-32001936D01*
X26001936Y-32147564D01*
X26001934Y-32147567D01*
X25880873Y-32314193D01*
X25787367Y-32497708D01*
X25787364Y-32497714D01*
X25723721Y-32693587D01*
X25723720Y-32693590D01*
X25723720Y-32693592D01*
X25691500Y-32897019D01*
X23308500Y-32897019D01*
X23276280Y-32693592D01*
X23212634Y-32497710D01*
X23119129Y-32314197D01*
X22998068Y-32147570D01*
X22998065Y-32147567D01*
X22998063Y-32147564D01*
X22852435Y-32001936D01*
X22852432Y-32001934D01*
X22852430Y-32001932D01*
X22685803Y-31880871D01*
X22502290Y-31787366D01*
X22502287Y-31787365D01*
X22502285Y-31787364D01*
X22306412Y-31723721D01*
X22306410Y-31723720D01*
X22306408Y-31723720D01*
X22102981Y-31691500D01*
X21897019Y-31691500D01*
X21693592Y-31723720D01*
X21693590Y-31723720D01*
X21693587Y-31723721D01*
X21497714Y-31787364D01*
X21497708Y-31787367D01*
X21314193Y-31880873D01*
X21147567Y-32001934D01*
X21147564Y-32001936D01*
X21001936Y-32147564D01*
X21001934Y-32147567D01*
X20880873Y-32314193D01*
X20787367Y-32497708D01*
X20787364Y-32497714D01*
X20723721Y-32693587D01*
X20723720Y-32693590D01*
X20723720Y-32693592D01*
X20691500Y-32897019D01*
X25500Y-32897019D01*
X25500Y-29951350D01*
X3791500Y-29951350D01*
X3791500Y-31048649D01*
X3798009Y-31109196D01*
X3798011Y-31109204D01*
X3849110Y-31246202D01*
X3849112Y-31246207D01*
X3936738Y-31363261D01*
X4053792Y-31450887D01*
X4053794Y-31450888D01*
X4053796Y-31450889D01*
X4112875Y-31472924D01*
X4190795Y-31501988D01*
X4190803Y-31501990D01*
X4251350Y-31508499D01*
X4251355Y-31508499D01*
X4251362Y-31508500D01*
X4251368Y-31508500D01*
X6548632Y-31508500D01*
X6548638Y-31508500D01*
X6548645Y-31508499D01*
X6548649Y-31508499D01*
X6609196Y-31501990D01*
X6609199Y-31501989D01*
X6609201Y-31501989D01*
X6746204Y-31450889D01*
X6863261Y-31363261D01*
X6950887Y-31246207D01*
X6950887Y-31246206D01*
X6950889Y-31246204D01*
X7001989Y-31109201D01*
X7008500Y-31048638D01*
X7008500Y-29951362D01*
X7008499Y-29951350D01*
X7001990Y-29890803D01*
X7001988Y-29890795D01*
X6950889Y-29753797D01*
X6950887Y-29753792D01*
X6863261Y-29636738D01*
X6746207Y-29549112D01*
X6746202Y-29549110D01*
X6609204Y-29498011D01*
X6609196Y-29498009D01*
X6548649Y-29491500D01*
X6548638Y-29491500D01*
X4251362Y-29491500D01*
X4251350Y-29491500D01*
X4190803Y-29498009D01*
X4190795Y-29498011D01*
X4053797Y-29549110D01*
X4053792Y-29549112D01*
X3936738Y-29636738D01*
X3849112Y-29753792D01*
X3849110Y-29753797D01*
X3798011Y-29890795D01*
X3798009Y-29890803D01*
X3791500Y-29951350D01*
X25500Y-29951350D01*
X25500Y-28851350D01*
X11991500Y-28851350D01*
X11991500Y-31148649D01*
X11998009Y-31209196D01*
X11998011Y-31209204D01*
X12049110Y-31346202D01*
X12049112Y-31346207D01*
X12136738Y-31463261D01*
X12253792Y-31550887D01*
X12253794Y-31550888D01*
X12253796Y-31550889D01*
X12312875Y-31572924D01*
X12390795Y-31601988D01*
X12390803Y-31601990D01*
X12451350Y-31608499D01*
X12451355Y-31608499D01*
X12451362Y-31608500D01*
X12451368Y-31608500D01*
X13548632Y-31608500D01*
X13548638Y-31608500D01*
X13548645Y-31608499D01*
X13548649Y-31608499D01*
X13609196Y-31601990D01*
X13609199Y-31601989D01*
X13609201Y-31601989D01*
X13746204Y-31550889D01*
X13863261Y-31463261D01*
X13950889Y-31346204D01*
X14001989Y-31209201D01*
X14008500Y-31148638D01*
X14008500Y-28851362D01*
X14008499Y-28851350D01*
X14001990Y-28790803D01*
X14001988Y-28790795D01*
X13950889Y-28653797D01*
X13950887Y-28653792D01*
X13863261Y-28536738D01*
X13746207Y-28449112D01*
X13746202Y-28449110D01*
X13609204Y-28398011D01*
X13609196Y-28398009D01*
X13548649Y-28391500D01*
X13548638Y-28391500D01*
X12451362Y-28391500D01*
X12451350Y-28391500D01*
X12390803Y-28398009D01*
X12390795Y-28398011D01*
X12253797Y-28449110D01*
X12253792Y-28449112D01*
X12136738Y-28536738D01*
X12049112Y-28653792D01*
X12049110Y-28653797D01*
X11998011Y-28790795D01*
X11998009Y-28790803D01*
X11991500Y-28851350D01*
X25500Y-28851350D01*
X25500Y-27148597D01*
X992000Y-27148597D01*
X998505Y-27209093D01*
X1049555Y-27345964D01*
X1049555Y-27345965D01*
X1137095Y-27462904D01*
X1254034Y-27550444D01*
X1390906Y-27601494D01*
X1451402Y-27607999D01*
X1451415Y-27608000D01*
X1746000Y-27608000D01*
X2254000Y-27608000D01*
X2548585Y-27608000D01*
X2548597Y-27607999D01*
X2609093Y-27601494D01*
X2745964Y-27550444D01*
X2745965Y-27550444D01*
X2862904Y-27462904D01*
X2950444Y-27345965D01*
X2950444Y-27345964D01*
X3001494Y-27209093D01*
X3007999Y-27148597D01*
X3008000Y-27148585D01*
X3008000Y-26254000D01*
X2254000Y-26254000D01*
X2254000Y-27608000D01*
X1746000Y-27608000D01*
X1746000Y-26254000D01*
X992000Y-26254000D01*
X992000Y-27148597D01*
X25500Y-27148597D01*
X25500Y-24851402D01*
X992000Y-24851402D01*
X992000Y-25746000D01*
X1746000Y-25746000D01*
X1746000Y-25560218D01*
X1800000Y-25560218D01*
X1800000Y-26439782D01*
X1830448Y-26513291D01*
X1886709Y-26569552D01*
X1960218Y-26600000D01*
X2039782Y-26600000D01*
X2113291Y-26569552D01*
X2169552Y-26513291D01*
X2200000Y-26439782D01*
X2200000Y-25897019D01*
X20691500Y-25897019D01*
X20691500Y-26102981D01*
X20723720Y-26306408D01*
X20787366Y-26502290D01*
X20880871Y-26685803D01*
X21001932Y-26852430D01*
X21001934Y-26852432D01*
X21001936Y-26852435D01*
X21147564Y-26998063D01*
X21147567Y-26998065D01*
X21147570Y-26998068D01*
X21314197Y-27119129D01*
X21497710Y-27212634D01*
X21693592Y-27276280D01*
X21897019Y-27308500D01*
X21897022Y-27308500D01*
X22102978Y-27308500D01*
X22102981Y-27308500D01*
X22306408Y-27276280D01*
X22502290Y-27212634D01*
X22685803Y-27119129D01*
X22852430Y-26998068D01*
X22998068Y-26852430D01*
X23119129Y-26685803D01*
X23212634Y-26502290D01*
X23276280Y-26306408D01*
X23308500Y-26102981D01*
X23308500Y-25897019D01*
X25691500Y-25897019D01*
X25691500Y-26102981D01*
X25723720Y-26306408D01*
X25787366Y-26502290D01*
X25880871Y-26685803D01*
X26001932Y-26852430D01*
X26001934Y-26852432D01*
X26001936Y-26852435D01*
X26147564Y-26998063D01*
X26147567Y-26998065D01*
X26147570Y-26998068D01*
X26314197Y-27119129D01*
X26497710Y-27212634D01*
X26693592Y-27276280D01*
X26897019Y-27308500D01*
X26897022Y-27308500D01*
X27102978Y-27308500D01*
X27102981Y-27308500D01*
X27306408Y-27276280D01*
X27502290Y-27212634D01*
X27685803Y-27119129D01*
X27852430Y-26998068D01*
X27998068Y-26852430D01*
X28119129Y-26685803D01*
X28212634Y-26502290D01*
X28276280Y-26306408D01*
X28308500Y-26102981D01*
X28308500Y-25897019D01*
X28276280Y-25693592D01*
X28212634Y-25497710D01*
X28119129Y-25314197D01*
X27998068Y-25147570D01*
X27998065Y-25147567D01*
X27998063Y-25147564D01*
X27852435Y-25001936D01*
X27852432Y-25001934D01*
X27852430Y-25001932D01*
X27685803Y-24880871D01*
X27502290Y-24787366D01*
X27502287Y-24787365D01*
X27502285Y-24787364D01*
X27306412Y-24723721D01*
X27306410Y-24723720D01*
X27306408Y-24723720D01*
X27102981Y-24691500D01*
X26897019Y-24691500D01*
X26693592Y-24723720D01*
X26693590Y-24723720D01*
X26693587Y-24723721D01*
X26497714Y-24787364D01*
X26497708Y-24787367D01*
X26314193Y-24880873D01*
X26147567Y-25001934D01*
X26147564Y-25001936D01*
X26001936Y-25147564D01*
X26001934Y-25147567D01*
X25880873Y-25314193D01*
X25787367Y-25497708D01*
X25787364Y-25497714D01*
X25723721Y-25693587D01*
X25723720Y-25693590D01*
X25723720Y-25693592D01*
X25691500Y-25897019D01*
X23308500Y-25897019D01*
X23276280Y-25693592D01*
X23212634Y-25497710D01*
X23119129Y-25314197D01*
X22998068Y-25147570D01*
X22998065Y-25147567D01*
X22998063Y-25147564D01*
X22852435Y-25001936D01*
X22852432Y-25001934D01*
X22852430Y-25001932D01*
X22685803Y-24880871D01*
X22502290Y-24787366D01*
X22502287Y-24787365D01*
X22502285Y-24787364D01*
X22306412Y-24723721D01*
X22306410Y-24723720D01*
X22306408Y-24723720D01*
X22102981Y-24691500D01*
X21897019Y-24691500D01*
X21693592Y-24723720D01*
X21693590Y-24723720D01*
X21693587Y-24723721D01*
X21497714Y-24787364D01*
X21497708Y-24787367D01*
X21314193Y-24880873D01*
X21147567Y-25001934D01*
X21147564Y-25001936D01*
X21001936Y-25147564D01*
X21001934Y-25147567D01*
X20880873Y-25314193D01*
X20787367Y-25497708D01*
X20787364Y-25497714D01*
X20723721Y-25693587D01*
X20723720Y-25693590D01*
X20723720Y-25693592D01*
X20691500Y-25897019D01*
X2200000Y-25897019D01*
X2200000Y-25746000D01*
X2254000Y-25746000D01*
X3008000Y-25746000D01*
X3008000Y-24851414D01*
X3007999Y-24851402D01*
X3001494Y-24790906D01*
X2950444Y-24654035D01*
X2950444Y-24654034D01*
X2862904Y-24537095D01*
X2745965Y-24449555D01*
X2609093Y-24398505D01*
X2548597Y-24392000D01*
X2254000Y-24392000D01*
X2254000Y-25746000D01*
X2200000Y-25746000D01*
X2200000Y-25560218D01*
X2169552Y-25486709D01*
X2113291Y-25430448D01*
X2039782Y-25400000D01*
X1960218Y-25400000D01*
X1886709Y-25430448D01*
X1830448Y-25486709D01*
X1800000Y-25560218D01*
X1746000Y-25560218D01*
X1746000Y-24392000D01*
X1451402Y-24392000D01*
X1390906Y-24398505D01*
X1254035Y-24449555D01*
X1254034Y-24449555D01*
X1137095Y-24537095D01*
X1049555Y-24654034D01*
X1049555Y-24654035D01*
X998505Y-24790906D01*
X992000Y-24851402D01*
X25500Y-24851402D01*
X25500Y-22951350D01*
X6791500Y-22951350D01*
X6791500Y-24048649D01*
X6798009Y-24109196D01*
X6798011Y-24109204D01*
X6849110Y-24246202D01*
X6849112Y-24246207D01*
X6936738Y-24363261D01*
X7053792Y-24450887D01*
X7053794Y-24450888D01*
X7053796Y-24450889D01*
X7112875Y-24472924D01*
X7190795Y-24501988D01*
X7190803Y-24501990D01*
X7251350Y-24508499D01*
X7251355Y-24508499D01*
X7251362Y-24508500D01*
X7251368Y-24508500D01*
X9548632Y-24508500D01*
X9548638Y-24508500D01*
X9548645Y-24508499D01*
X9548649Y-24508499D01*
X9609196Y-24501990D01*
X9609199Y-24501989D01*
X9609201Y-24501989D01*
X9746204Y-24450889D01*
X9863261Y-24363261D01*
X9950889Y-24246204D01*
X10001989Y-24109201D01*
X10008500Y-24048638D01*
X10008500Y-22951362D01*
X10008499Y-22951350D01*
X10001990Y-22890803D01*
X10001988Y-22890795D01*
X9950889Y-22753797D01*
X9950887Y-22753792D01*
X9863261Y-22636738D01*
X9746207Y-22549112D01*
X9746202Y-22549110D01*
X9609204Y-22498011D01*
X9609196Y-22498009D01*
X9548649Y-22491500D01*
X9548638Y-22491500D01*
X7251362Y-22491500D01*
X7251350Y-22491500D01*
X7190803Y-22498009D01*
X7190795Y-22498011D01*
X7053797Y-22549110D01*
X7053792Y-22549112D01*
X6936738Y-22636738D01*
X6849112Y-22753792D01*
X6849110Y-22753797D01*
X6798011Y-22890795D01*
X6798009Y-22890803D01*
X6791500Y-22951350D01*
X25500Y-22951350D01*
X25500Y-20251350D01*
X8191500Y-20251350D01*
X8191500Y-21348649D01*
X8198009Y-21409196D01*
X8198011Y-21409204D01*
X8249110Y-21546202D01*
X8249112Y-21546207D01*
X8336738Y-21663261D01*
X8453792Y-21750887D01*
X8453794Y-21750888D01*
X8453796Y-21750889D01*
X8512875Y-21772924D01*
X8590795Y-21801988D01*
X8590803Y-21801990D01*
X8651350Y-21808499D01*
X8651355Y-21808499D01*
X8651362Y-21808500D01*
X8651368Y-21808500D01*
X10948632Y-21808500D01*
X10948638Y-21808500D01*
X10948645Y-21808499D01*
X10948649Y-21808499D01*
X11009196Y-21801990D01*
X11009199Y-21801989D01*
X11009201Y-21801989D01*
X11146204Y-21750889D01*
X11263261Y-21663261D01*
X11350889Y-21546204D01*
X11401989Y-21409201D01*
X11408500Y-21348638D01*
X11408500Y-20251362D01*
X11404337Y-20212635D01*
X11401990Y-20190803D01*
X11401988Y-20190795D01*
X11350889Y-20053797D01*
X11350887Y-20053792D01*
X11263261Y-19936738D01*
X11146207Y-19849112D01*
X11146202Y-19849110D01*
X11009204Y-19798011D01*
X11009196Y-19798009D01*
X10948649Y-19791500D01*
X10948638Y-19791500D01*
X8651362Y-19791500D01*
X8651350Y-19791500D01*
X8590803Y-19798009D01*
X8590795Y-19798011D01*
X8453797Y-19849110D01*
X8453792Y-19849112D01*
X8336738Y-19936738D01*
X8249112Y-20053792D01*
X8249110Y-20053797D01*
X8198011Y-20190795D01*
X8198009Y-20190803D01*
X8191500Y-20251350D01*
X25500Y-20251350D01*
X25500Y-8889149D01*
X2091500Y-8889149D01*
X2091500Y-9110851D01*
X2117211Y-9273181D01*
X2126183Y-9329829D01*
X2194690Y-9540671D01*
X2194692Y-9540676D01*
X2194693Y-9540677D01*
X2295345Y-9738218D01*
X2425658Y-9917578D01*
X2582417Y-10074337D01*
X2582420Y-10074339D01*
X2582424Y-10074343D01*
X2683892Y-10148064D01*
X2727245Y-10204287D01*
X2733320Y-10275023D01*
X2700188Y-10337815D01*
X2683892Y-10351936D01*
X2582417Y-10425662D01*
X2425658Y-10582421D01*
X2295345Y-10761781D01*
X2194693Y-10959322D01*
X2194690Y-10959328D01*
X2126183Y-11170170D01*
X2126182Y-11170175D01*
X2126182Y-11170176D01*
X2091500Y-11389149D01*
X2091500Y-11610851D01*
X2126182Y-11829824D01*
X2126183Y-11829829D01*
X2194690Y-12040671D01*
X2194692Y-12040676D01*
X2194693Y-12040677D01*
X2295345Y-12238218D01*
X2425658Y-12417578D01*
X2582418Y-12574338D01*
X2582421Y-12574340D01*
X2582424Y-12574343D01*
X2684316Y-12648372D01*
X2727670Y-12704594D01*
X2733745Y-12775331D01*
X2700613Y-12838122D01*
X2700221Y-12838461D01*
X2700035Y-12840825D01*
X3375052Y-13515842D01*
X3307007Y-13534075D01*
X3192993Y-13599901D01*
X3099901Y-13692993D01*
X3034075Y-13807007D01*
X3015842Y-13875052D01*
X2340825Y-13200035D01*
X2340823Y-13200035D01*
X2295772Y-13262043D01*
X2195156Y-13459514D01*
X2195155Y-13459516D01*
X2126670Y-13670289D01*
X2092000Y-13889191D01*
X2092000Y-14110808D01*
X2126670Y-14329710D01*
X2195155Y-14540483D01*
X2195156Y-14540485D01*
X2295770Y-14737952D01*
X2340824Y-14799963D01*
X3015841Y-14124946D01*
X3034075Y-14192993D01*
X3099901Y-14307007D01*
X3192993Y-14400099D01*
X3307007Y-14465925D01*
X3375051Y-14484157D01*
X2700035Y-15159173D01*
X2700035Y-15159174D01*
X2762047Y-15204229D01*
X2959514Y-15304843D01*
X2959516Y-15304844D01*
X3170289Y-15373329D01*
X3389191Y-15408000D01*
X3610809Y-15408000D01*
X3829710Y-15373329D01*
X4026815Y-15309285D01*
X4097783Y-15307257D01*
X4158581Y-15343919D01*
X4189906Y-15407631D01*
X4184682Y-15470733D01*
X4132133Y-15620908D01*
X4097015Y-15721275D01*
X4097012Y-15721283D01*
X4026819Y-16028814D01*
X3991500Y-16342276D01*
X3991500Y-16657723D01*
X4026819Y-16971185D01*
X4063362Y-17131289D01*
X4097012Y-17278718D01*
X4097014Y-17278724D01*
X4097013Y-17278724D01*
X4201189Y-17576442D01*
X4201200Y-17576469D01*
X4338063Y-17860668D01*
X4505890Y-18127762D01*
X4505894Y-18127768D01*
X4702563Y-18374381D01*
X4702572Y-18374391D01*
X4925608Y-18597427D01*
X4925618Y-18597436D01*
X5172231Y-18794105D01*
X5172238Y-18794109D01*
X5172241Y-18794112D01*
X5302215Y-18875779D01*
X5439331Y-18961936D01*
X5439334Y-18961937D01*
X5439335Y-18961938D01*
X5723540Y-19098804D01*
X5723556Y-19098809D01*
X5723557Y-19098810D01*
X6021275Y-19202986D01*
X6021278Y-19202986D01*
X6021282Y-19202988D01*
X6328818Y-19273181D01*
X6551088Y-19298225D01*
X6642276Y-19308500D01*
X6642278Y-19308500D01*
X6957724Y-19308500D01*
X7037332Y-19299529D01*
X7271182Y-19273181D01*
X7578718Y-19202988D01*
X7876460Y-19098804D01*
X8160665Y-18961938D01*
X8263983Y-18897019D01*
X20691500Y-18897019D01*
X20691500Y-19102981D01*
X20723720Y-19306408D01*
X20723721Y-19306412D01*
X20724399Y-19308500D01*
X20787366Y-19502290D01*
X20880871Y-19685803D01*
X21001932Y-19852430D01*
X21001934Y-19852432D01*
X21001936Y-19852435D01*
X21147564Y-19998063D01*
X21147567Y-19998065D01*
X21147570Y-19998068D01*
X21314197Y-20119129D01*
X21497710Y-20212634D01*
X21693592Y-20276280D01*
X21897019Y-20308500D01*
X21897022Y-20308500D01*
X22102978Y-20308500D01*
X22102981Y-20308500D01*
X22306408Y-20276280D01*
X22502290Y-20212634D01*
X22685803Y-20119129D01*
X22852430Y-19998068D01*
X22998068Y-19852430D01*
X23119129Y-19685803D01*
X23212634Y-19502290D01*
X23276280Y-19306408D01*
X23308500Y-19102981D01*
X23308500Y-18897019D01*
X25691500Y-18897019D01*
X25691500Y-19102981D01*
X25723720Y-19306408D01*
X25723721Y-19306412D01*
X25724399Y-19308500D01*
X25787366Y-19502290D01*
X25880871Y-19685803D01*
X26001932Y-19852430D01*
X26001934Y-19852432D01*
X26001936Y-19852435D01*
X26147564Y-19998063D01*
X26147567Y-19998065D01*
X26147570Y-19998068D01*
X26314197Y-20119129D01*
X26497710Y-20212634D01*
X26693592Y-20276280D01*
X26897019Y-20308500D01*
X26897022Y-20308500D01*
X27102978Y-20308500D01*
X27102981Y-20308500D01*
X27306408Y-20276280D01*
X27502290Y-20212634D01*
X27685803Y-20119129D01*
X27852430Y-19998068D01*
X27998068Y-19852430D01*
X28119129Y-19685803D01*
X28212634Y-19502290D01*
X28276280Y-19306408D01*
X28308500Y-19102981D01*
X28308500Y-18897019D01*
X28276280Y-18693592D01*
X28212634Y-18497710D01*
X28119129Y-18314197D01*
X27998068Y-18147570D01*
X27998065Y-18147567D01*
X27998063Y-18147564D01*
X27852435Y-18001936D01*
X27852432Y-18001934D01*
X27852430Y-18001932D01*
X27685803Y-17880871D01*
X27502290Y-17787366D01*
X27502287Y-17787365D01*
X27502285Y-17787364D01*
X27306412Y-17723721D01*
X27306410Y-17723720D01*
X27306408Y-17723720D01*
X27102981Y-17691500D01*
X26897019Y-17691500D01*
X26693592Y-17723720D01*
X26693590Y-17723720D01*
X26693587Y-17723721D01*
X26497714Y-17787364D01*
X26497708Y-17787367D01*
X26314193Y-17880873D01*
X26147567Y-18001934D01*
X26147564Y-18001936D01*
X26001936Y-18147564D01*
X26001934Y-18147567D01*
X25880873Y-18314193D01*
X25787367Y-18497708D01*
X25787364Y-18497714D01*
X25723721Y-18693587D01*
X25723720Y-18693590D01*
X25723720Y-18693592D01*
X25691500Y-18897019D01*
X23308500Y-18897019D01*
X23276280Y-18693592D01*
X23212634Y-18497710D01*
X23119129Y-18314197D01*
X22998068Y-18147570D01*
X22998065Y-18147567D01*
X22998063Y-18147564D01*
X22852435Y-18001936D01*
X22852432Y-18001934D01*
X22852430Y-18001932D01*
X22685803Y-17880871D01*
X22502290Y-17787366D01*
X22502287Y-17787365D01*
X22502285Y-17787364D01*
X22306412Y-17723721D01*
X22306410Y-17723720D01*
X22306408Y-17723720D01*
X22102981Y-17691500D01*
X21897019Y-17691500D01*
X21693592Y-17723720D01*
X21693590Y-17723720D01*
X21693587Y-17723721D01*
X21497714Y-17787364D01*
X21497708Y-17787367D01*
X21314193Y-17880873D01*
X21147567Y-18001934D01*
X21147564Y-18001936D01*
X21001936Y-18147564D01*
X21001934Y-18147567D01*
X20880873Y-18314193D01*
X20787367Y-18497708D01*
X20787364Y-18497714D01*
X20723721Y-18693587D01*
X20723720Y-18693590D01*
X20723720Y-18693592D01*
X20691500Y-18897019D01*
X8263983Y-18897019D01*
X8427759Y-18794112D01*
X8427894Y-18794003D01*
X8428460Y-18793554D01*
X8428460Y-18793553D01*
X8440814Y-18783700D01*
X8674383Y-18597435D01*
X8897435Y-18374383D01*
X9094112Y-18127759D01*
X9261938Y-17860665D01*
X9398804Y-17576460D01*
X9502988Y-17278718D01*
X9573181Y-16971182D01*
X9608500Y-16657722D01*
X9608500Y-16342278D01*
X9573181Y-16028818D01*
X9502988Y-15721282D01*
X9415317Y-15470733D01*
X9398810Y-15423557D01*
X9398809Y-15423556D01*
X9398804Y-15423540D01*
X9261938Y-15139335D01*
X9261937Y-15139334D01*
X9261936Y-15139331D01*
X9094109Y-14872237D01*
X9094105Y-14872231D01*
X8897436Y-14625618D01*
X8897427Y-14625608D01*
X8674391Y-14402572D01*
X8674381Y-14402563D01*
X8427768Y-14205894D01*
X8427762Y-14205890D01*
X8160668Y-14038063D01*
X7876469Y-13901200D01*
X7876464Y-13901198D01*
X7876460Y-13901196D01*
X7876454Y-13901193D01*
X7876442Y-13901189D01*
X7578724Y-13797013D01*
X7271185Y-13726819D01*
X6957724Y-13691500D01*
X6957722Y-13691500D01*
X6642278Y-13691500D01*
X6642276Y-13691500D01*
X6328814Y-13726819D01*
X6021275Y-13797013D01*
X5723557Y-13901189D01*
X5723530Y-13901200D01*
X5439331Y-14038063D01*
X5172237Y-14205890D01*
X5172233Y-14205893D01*
X5106351Y-14258432D01*
X5040621Y-14285266D01*
X4970817Y-14272304D01*
X4919103Y-14223661D01*
X4901897Y-14154781D01*
X4903343Y-14140209D01*
X4908000Y-14110807D01*
X4908000Y-13889191D01*
X4873329Y-13670289D01*
X4804844Y-13459516D01*
X4804843Y-13459514D01*
X4704229Y-13262047D01*
X4659174Y-13200035D01*
X4659173Y-13200035D01*
X3984157Y-13875051D01*
X3965925Y-13807007D01*
X3900099Y-13692993D01*
X3807007Y-13599901D01*
X3692993Y-13534075D01*
X3624946Y-13515841D01*
X4299963Y-12840824D01*
X4299177Y-12830839D01*
X4272328Y-12796019D01*
X4266254Y-12725283D01*
X4299387Y-12662492D01*
X4315676Y-12648377D01*
X4417576Y-12574343D01*
X4574343Y-12417576D01*
X4704657Y-12238215D01*
X4805308Y-12040676D01*
X4873818Y-11829824D01*
X4908500Y-11610851D01*
X4908500Y-11389149D01*
X4873818Y-11170176D01*
X4805308Y-10959324D01*
X4704657Y-10761785D01*
X4574343Y-10582424D01*
X4574341Y-10582421D01*
X4417578Y-10425658D01*
X4316108Y-10351936D01*
X4272754Y-10295713D01*
X4266679Y-10224977D01*
X4299811Y-10162186D01*
X4316108Y-10148064D01*
X4417576Y-10074343D01*
X4574343Y-9917576D01*
X4704657Y-9738215D01*
X4805308Y-9540676D01*
X4873818Y-9329824D01*
X4908500Y-9110851D01*
X4908500Y-8889149D01*
X4903922Y-8860247D01*
X4913021Y-8789840D01*
X4958743Y-8735525D01*
X5026571Y-8714552D01*
X5094970Y-8733578D01*
X5106931Y-8742029D01*
X5172231Y-8794105D01*
X5172238Y-8794109D01*
X5172241Y-8794112D01*
X5277501Y-8860251D01*
X5439331Y-8961936D01*
X5439334Y-8961937D01*
X5439335Y-8961938D01*
X5723540Y-9098804D01*
X5723556Y-9098809D01*
X5723557Y-9098810D01*
X6021275Y-9202986D01*
X6021278Y-9202986D01*
X6021282Y-9202988D01*
X6328818Y-9273181D01*
X6551088Y-9298225D01*
X6642276Y-9308500D01*
X6642278Y-9308500D01*
X6957724Y-9308500D01*
X7037332Y-9299529D01*
X7271182Y-9273181D01*
X7578718Y-9202988D01*
X7876460Y-9098804D01*
X8160665Y-8961938D01*
X8427759Y-8794112D01*
X8674383Y-8597435D01*
X8897435Y-8374383D01*
X9094112Y-8127759D01*
X9261938Y-7860665D01*
X9398804Y-7576460D01*
X9502988Y-7278718D01*
X9573181Y-6971182D01*
X9608500Y-6657722D01*
X9608500Y-6342278D01*
X9573181Y-6028818D01*
X9502988Y-5721282D01*
X9398804Y-5423540D01*
X9261938Y-5139335D01*
X9261937Y-5139334D01*
X9261936Y-5139331D01*
X9094109Y-4872237D01*
X9094105Y-4872231D01*
X8897436Y-4625618D01*
X8897427Y-4625608D01*
X8674391Y-4402572D01*
X8674381Y-4402563D01*
X8427768Y-4205894D01*
X8427762Y-4205890D01*
X8160668Y-4038063D01*
X7876469Y-3901200D01*
X7876464Y-3901198D01*
X7876460Y-3901196D01*
X7876454Y-3901193D01*
X7876442Y-3901189D01*
X7578724Y-3797013D01*
X7271185Y-3726819D01*
X6957724Y-3691500D01*
X6957722Y-3691500D01*
X6642278Y-3691500D01*
X6642276Y-3691500D01*
X6328814Y-3726819D01*
X6021275Y-3797013D01*
X5723557Y-3901189D01*
X5723530Y-3901200D01*
X5439331Y-4038063D01*
X5172237Y-4205890D01*
X5172231Y-4205894D01*
X4925618Y-4402563D01*
X4925608Y-4402572D01*
X4702572Y-4625608D01*
X4702563Y-4625618D01*
X4505894Y-4872231D01*
X4505890Y-4872237D01*
X4338063Y-5139331D01*
X4201200Y-5423530D01*
X4201189Y-5423557D01*
X4097013Y-5721275D01*
X4026819Y-6028814D01*
X3991500Y-6342276D01*
X3991500Y-6657723D01*
X4026819Y-6971185D01*
X4063362Y-7131289D01*
X4097012Y-7278718D01*
X4097014Y-7278724D01*
X4097013Y-7278724D01*
X4184474Y-7528673D01*
X4188093Y-7599577D01*
X4152804Y-7661183D01*
X4089811Y-7693929D01*
X4026609Y-7690121D01*
X3829827Y-7626183D01*
X3829831Y-7626183D01*
X3789063Y-7619726D01*
X3610851Y-7591500D01*
X3389149Y-7591500D01*
X3170176Y-7626182D01*
X3170170Y-7626183D01*
X2959328Y-7694690D01*
X2959322Y-7694693D01*
X2761781Y-7795345D01*
X2582421Y-7925658D01*
X2425658Y-8082421D01*
X2295345Y-8261781D01*
X2194693Y-8459322D01*
X2194690Y-8459328D01*
X2126183Y-8670170D01*
X2126182Y-8670175D01*
X2126182Y-8670176D01*
X2091500Y-8889149D01*
X25500Y-8889149D01*
X25500Y-151500D01*
X45502Y-83379D01*
X99158Y-36886D01*
X151500Y-25500D01*
X29846000Y-25500D01*
X29914121Y-45502D01*
G37*
G04 #@! TD.AperFunction*
G04 #@! TA.AperFunction,Conductor*
G36*
X27074075Y-94427007D02*
G01*
X27040000Y-94554174D01*
X27040000Y-94685826D01*
X27074075Y-94812993D01*
X27109297Y-94874000D01*
X25430703Y-94874000D01*
X25465925Y-94812993D01*
X25500000Y-94685826D01*
X25500000Y-94554174D01*
X25465925Y-94427007D01*
X25430703Y-94366000D01*
X27109297Y-94366000D01*
X27074075Y-94427007D01*
G37*
G04 #@! TD.AperFunction*
G04 #@! TA.AperFunction,Conductor*
G36*
X25254000Y-94189297D02*
G01*
X25192993Y-94154075D01*
X25065826Y-94120000D01*
X24934174Y-94120000D01*
X24807007Y-94154075D01*
X24746000Y-94189297D01*
X24746000Y-92510702D01*
X24807007Y-92545925D01*
X24934174Y-92580000D01*
X25065826Y-92580000D01*
X25192993Y-92545925D01*
X25254000Y-92510702D01*
X25254000Y-94189297D01*
G37*
G04 #@! TD.AperFunction*
G04 #@! TA.AperFunction,Conductor*
G36*
X27794000Y-94189297D02*
G01*
X27732993Y-94154075D01*
X27605826Y-94120000D01*
X27474174Y-94120000D01*
X27347007Y-94154075D01*
X27286000Y-94189297D01*
X27286000Y-92510702D01*
X27347007Y-92545925D01*
X27474174Y-92580000D01*
X27605826Y-92580000D01*
X27732993Y-92545925D01*
X27794000Y-92510702D01*
X27794000Y-94189297D01*
G37*
G04 #@! TD.AperFunction*
G04 #@! TA.AperFunction,Conductor*
G36*
X27074075Y-91887007D02*
G01*
X27040000Y-92014174D01*
X27040000Y-92145826D01*
X27074075Y-92272993D01*
X27109297Y-92334000D01*
X25430703Y-92334000D01*
X25465925Y-92272993D01*
X25500000Y-92145826D01*
X25500000Y-92014174D01*
X25465925Y-91887007D01*
X25430703Y-91826000D01*
X27109297Y-91826000D01*
X27074075Y-91887007D01*
G37*
G04 #@! TD.AperFunction*
G04 #@! TA.AperFunction,Conductor*
G36*
X25254000Y-91649297D02*
G01*
X25192993Y-91614075D01*
X25065826Y-91580000D01*
X24934174Y-91580000D01*
X24807007Y-91614075D01*
X24746000Y-91649297D01*
X24746000Y-89970702D01*
X24807007Y-90005925D01*
X24934174Y-90040000D01*
X25065826Y-90040000D01*
X25192993Y-90005925D01*
X25254000Y-89970702D01*
X25254000Y-91649297D01*
G37*
G04 #@! TD.AperFunction*
G04 #@! TA.AperFunction,Conductor*
G36*
X27794000Y-91649297D02*
G01*
X27732993Y-91614075D01*
X27605826Y-91580000D01*
X27474174Y-91580000D01*
X27347007Y-91614075D01*
X27286000Y-91649297D01*
X27286000Y-89970702D01*
X27347007Y-90005925D01*
X27474174Y-90040000D01*
X27605826Y-90040000D01*
X27732993Y-90005925D01*
X27794000Y-89970702D01*
X27794000Y-91649297D01*
G37*
G04 #@! TD.AperFunction*
G04 #@! TA.AperFunction,Conductor*
G36*
X27074075Y-89347007D02*
G01*
X27040000Y-89474174D01*
X27040000Y-89605826D01*
X27074075Y-89732993D01*
X27109297Y-89794000D01*
X25430703Y-89794000D01*
X25465925Y-89732993D01*
X25500000Y-89605826D01*
X25500000Y-89474174D01*
X25465925Y-89347007D01*
X25430703Y-89286000D01*
X27109297Y-89286000D01*
X27074075Y-89347007D01*
G37*
G04 #@! TD.AperFunction*
M02*
