G04 #@! TF.GenerationSoftware,KiCad,Pcbnew,(5.1.5)-3*
G04 #@! TF.CreationDate,2020-08-13T18:34:56-07:00*
G04 #@! TF.ProjectId,Noise_Gen_THT,4e6f6973-655f-4476-956e-5f5448542e6b,rev?*
G04 #@! TF.SameCoordinates,Original*
G04 #@! TF.FileFunction,Soldermask,Top*
G04 #@! TF.FilePolarity,Negative*
%FSLAX46Y46*%
G04 Gerber Fmt 4.6, Leading zero omitted, Abs format (unit mm)*
G04 Created by KiCad (PCBNEW (5.1.5)-3) date 2020-08-13 18:34:56*
%MOMM*%
%LPD*%
G04 APERTURE LIST*
%ADD10C,0.100000*%
G04 APERTURE END LIST*
D10*
G36*
X18885000Y-98641000D02*
G01*
X17183000Y-98641000D01*
X17183000Y-96939000D01*
X18885000Y-96939000D01*
X18885000Y-98641000D01*
G37*
G36*
X25113512Y-96263927D02*
G01*
X25262812Y-96293624D01*
X25426784Y-96361544D01*
X25574354Y-96460147D01*
X25699853Y-96585646D01*
X25798456Y-96733216D01*
X25866376Y-96897188D01*
X25901000Y-97071259D01*
X25901000Y-97248741D01*
X25866376Y-97422812D01*
X25798456Y-97586784D01*
X25699853Y-97734354D01*
X25574354Y-97859853D01*
X25426784Y-97958456D01*
X25262812Y-98026376D01*
X25113512Y-98056073D01*
X25088742Y-98061000D01*
X24911258Y-98061000D01*
X24886488Y-98056073D01*
X24737188Y-98026376D01*
X24573216Y-97958456D01*
X24425646Y-97859853D01*
X24300147Y-97734354D01*
X24201544Y-97586784D01*
X24133624Y-97422812D01*
X24099000Y-97248741D01*
X24099000Y-97071259D01*
X24133624Y-96897188D01*
X24201544Y-96733216D01*
X24300147Y-96585646D01*
X24425646Y-96460147D01*
X24573216Y-96361544D01*
X24737188Y-96293624D01*
X24886488Y-96263927D01*
X24911258Y-96259000D01*
X25088742Y-96259000D01*
X25113512Y-96263927D01*
G37*
G36*
X27653512Y-96263927D02*
G01*
X27802812Y-96293624D01*
X27966784Y-96361544D01*
X28114354Y-96460147D01*
X28239853Y-96585646D01*
X28338456Y-96733216D01*
X28406376Y-96897188D01*
X28441000Y-97071259D01*
X28441000Y-97248741D01*
X28406376Y-97422812D01*
X28338456Y-97586784D01*
X28239853Y-97734354D01*
X28114354Y-97859853D01*
X27966784Y-97958456D01*
X27802812Y-98026376D01*
X27653512Y-98056073D01*
X27628742Y-98061000D01*
X27451258Y-98061000D01*
X27426488Y-98056073D01*
X27277188Y-98026376D01*
X27113216Y-97958456D01*
X26965646Y-97859853D01*
X26840147Y-97734354D01*
X26741544Y-97586784D01*
X26673624Y-97422812D01*
X26639000Y-97248741D01*
X26639000Y-97071259D01*
X26673624Y-96897188D01*
X26741544Y-96733216D01*
X26840147Y-96585646D01*
X26965646Y-96460147D01*
X27113216Y-96361544D01*
X27277188Y-96293624D01*
X27426488Y-96263927D01*
X27451258Y-96259000D01*
X27628742Y-96259000D01*
X27653512Y-96263927D01*
G37*
G36*
X12948228Y-96209703D02*
G01*
X13103100Y-96273853D01*
X13242481Y-96366985D01*
X13361015Y-96485519D01*
X13454147Y-96624900D01*
X13518297Y-96779772D01*
X13551000Y-96944184D01*
X13551000Y-97111816D01*
X13518297Y-97276228D01*
X13454147Y-97431100D01*
X13361015Y-97570481D01*
X13242481Y-97689015D01*
X13103100Y-97782147D01*
X12948228Y-97846297D01*
X12783816Y-97879000D01*
X12616184Y-97879000D01*
X12451772Y-97846297D01*
X12296900Y-97782147D01*
X12157519Y-97689015D01*
X12038985Y-97570481D01*
X11945853Y-97431100D01*
X11881703Y-97276228D01*
X11849000Y-97111816D01*
X11849000Y-96944184D01*
X11881703Y-96779772D01*
X11945853Y-96624900D01*
X12038985Y-96485519D01*
X12157519Y-96366985D01*
X12296900Y-96273853D01*
X12451772Y-96209703D01*
X12616184Y-96177000D01*
X12783816Y-96177000D01*
X12948228Y-96209703D01*
G37*
G36*
X2788228Y-96209703D02*
G01*
X2943100Y-96273853D01*
X3082481Y-96366985D01*
X3201015Y-96485519D01*
X3294147Y-96624900D01*
X3358297Y-96779772D01*
X3391000Y-96944184D01*
X3391000Y-97111816D01*
X3358297Y-97276228D01*
X3294147Y-97431100D01*
X3201015Y-97570481D01*
X3082481Y-97689015D01*
X2943100Y-97782147D01*
X2788228Y-97846297D01*
X2623816Y-97879000D01*
X2456184Y-97879000D01*
X2291772Y-97846297D01*
X2136900Y-97782147D01*
X1997519Y-97689015D01*
X1878985Y-97570481D01*
X1785853Y-97431100D01*
X1721703Y-97276228D01*
X1689000Y-97111816D01*
X1689000Y-96944184D01*
X1721703Y-96779772D01*
X1785853Y-96624900D01*
X1878985Y-96485519D01*
X1997519Y-96366985D01*
X2136900Y-96273853D01*
X2291772Y-96209703D01*
X2456184Y-96177000D01*
X2623816Y-96177000D01*
X2788228Y-96209703D01*
G37*
G36*
X18282228Y-94971703D02*
G01*
X18437100Y-95035853D01*
X18576481Y-95128985D01*
X18695015Y-95247519D01*
X18788147Y-95386900D01*
X18852297Y-95541772D01*
X18885000Y-95706184D01*
X18885000Y-95873816D01*
X18852297Y-96038228D01*
X18788147Y-96193100D01*
X18695015Y-96332481D01*
X18576481Y-96451015D01*
X18437100Y-96544147D01*
X18282228Y-96608297D01*
X18117816Y-96641000D01*
X17950184Y-96641000D01*
X17785772Y-96608297D01*
X17630900Y-96544147D01*
X17491519Y-96451015D01*
X17372985Y-96332481D01*
X17279853Y-96193100D01*
X17215703Y-96038228D01*
X17183000Y-95873816D01*
X17183000Y-95706184D01*
X17215703Y-95541772D01*
X17279853Y-95386900D01*
X17372985Y-95247519D01*
X17491519Y-95128985D01*
X17630900Y-95035853D01*
X17785772Y-94971703D01*
X17950184Y-94939000D01*
X18117816Y-94939000D01*
X18282228Y-94971703D01*
G37*
G36*
X27653512Y-93723927D02*
G01*
X27802812Y-93753624D01*
X27966784Y-93821544D01*
X28114354Y-93920147D01*
X28239853Y-94045646D01*
X28338456Y-94193216D01*
X28406376Y-94357188D01*
X28441000Y-94531259D01*
X28441000Y-94708741D01*
X28406376Y-94882812D01*
X28338456Y-95046784D01*
X28239853Y-95194354D01*
X28114354Y-95319853D01*
X27966784Y-95418456D01*
X27802812Y-95486376D01*
X27653512Y-95516073D01*
X27628742Y-95521000D01*
X27451258Y-95521000D01*
X27426488Y-95516073D01*
X27277188Y-95486376D01*
X27113216Y-95418456D01*
X26965646Y-95319853D01*
X26840147Y-95194354D01*
X26741544Y-95046784D01*
X26673624Y-94882812D01*
X26639000Y-94708741D01*
X26639000Y-94531259D01*
X26673624Y-94357188D01*
X26741544Y-94193216D01*
X26840147Y-94045646D01*
X26965646Y-93920147D01*
X27113216Y-93821544D01*
X27277188Y-93753624D01*
X27426488Y-93723927D01*
X27451258Y-93719000D01*
X27628742Y-93719000D01*
X27653512Y-93723927D01*
G37*
G36*
X25113512Y-93723927D02*
G01*
X25262812Y-93753624D01*
X25426784Y-93821544D01*
X25574354Y-93920147D01*
X25699853Y-94045646D01*
X25798456Y-94193216D01*
X25866376Y-94357188D01*
X25901000Y-94531259D01*
X25901000Y-94708741D01*
X25866376Y-94882812D01*
X25798456Y-95046784D01*
X25699853Y-95194354D01*
X25574354Y-95319853D01*
X25426784Y-95418456D01*
X25262812Y-95486376D01*
X25113512Y-95516073D01*
X25088742Y-95521000D01*
X24911258Y-95521000D01*
X24886488Y-95516073D01*
X24737188Y-95486376D01*
X24573216Y-95418456D01*
X24425646Y-95319853D01*
X24300147Y-95194354D01*
X24201544Y-95046784D01*
X24133624Y-94882812D01*
X24099000Y-94708741D01*
X24099000Y-94531259D01*
X24133624Y-94357188D01*
X24201544Y-94193216D01*
X24300147Y-94045646D01*
X24425646Y-93920147D01*
X24573216Y-93821544D01*
X24737188Y-93753624D01*
X24886488Y-93723927D01*
X24911258Y-93719000D01*
X25088742Y-93719000D01*
X25113512Y-93723927D01*
G37*
G36*
X25113512Y-91183927D02*
G01*
X25262812Y-91213624D01*
X25426784Y-91281544D01*
X25574354Y-91380147D01*
X25699853Y-91505646D01*
X25798456Y-91653216D01*
X25866376Y-91817188D01*
X25901000Y-91991259D01*
X25901000Y-92168741D01*
X25866376Y-92342812D01*
X25798456Y-92506784D01*
X25699853Y-92654354D01*
X25574354Y-92779853D01*
X25426784Y-92878456D01*
X25262812Y-92946376D01*
X25113512Y-92976073D01*
X25088742Y-92981000D01*
X24911258Y-92981000D01*
X24886488Y-92976073D01*
X24737188Y-92946376D01*
X24573216Y-92878456D01*
X24425646Y-92779853D01*
X24300147Y-92654354D01*
X24201544Y-92506784D01*
X24133624Y-92342812D01*
X24099000Y-92168741D01*
X24099000Y-91991259D01*
X24133624Y-91817188D01*
X24201544Y-91653216D01*
X24300147Y-91505646D01*
X24425646Y-91380147D01*
X24573216Y-91281544D01*
X24737188Y-91213624D01*
X24886488Y-91183927D01*
X24911258Y-91179000D01*
X25088742Y-91179000D01*
X25113512Y-91183927D01*
G37*
G36*
X27653512Y-91183927D02*
G01*
X27802812Y-91213624D01*
X27966784Y-91281544D01*
X28114354Y-91380147D01*
X28239853Y-91505646D01*
X28338456Y-91653216D01*
X28406376Y-91817188D01*
X28441000Y-91991259D01*
X28441000Y-92168741D01*
X28406376Y-92342812D01*
X28338456Y-92506784D01*
X28239853Y-92654354D01*
X28114354Y-92779853D01*
X27966784Y-92878456D01*
X27802812Y-92946376D01*
X27653512Y-92976073D01*
X27628742Y-92981000D01*
X27451258Y-92981000D01*
X27426488Y-92976073D01*
X27277188Y-92946376D01*
X27113216Y-92878456D01*
X26965646Y-92779853D01*
X26840147Y-92654354D01*
X26741544Y-92506784D01*
X26673624Y-92342812D01*
X26639000Y-92168741D01*
X26639000Y-91991259D01*
X26673624Y-91817188D01*
X26741544Y-91653216D01*
X26840147Y-91505646D01*
X26965646Y-91380147D01*
X27113216Y-91281544D01*
X27277188Y-91213624D01*
X27426488Y-91183927D01*
X27451258Y-91179000D01*
X27628742Y-91179000D01*
X27653512Y-91183927D01*
G37*
G36*
X7856560Y-90406166D02*
G01*
X8004153Y-90467301D01*
X8136982Y-90556055D01*
X8249945Y-90669018D01*
X8338699Y-90801847D01*
X8399834Y-90949440D01*
X8431000Y-91106123D01*
X8431000Y-91265877D01*
X8399834Y-91422560D01*
X8338699Y-91570153D01*
X8249945Y-91702982D01*
X8136982Y-91815945D01*
X8004153Y-91904699D01*
X8004152Y-91904700D01*
X8004151Y-91904700D01*
X7856560Y-91965834D01*
X7699878Y-91997000D01*
X7540122Y-91997000D01*
X7383440Y-91965834D01*
X7235849Y-91904700D01*
X7235848Y-91904700D01*
X7235847Y-91904699D01*
X7103018Y-91815945D01*
X6990055Y-91702982D01*
X6901301Y-91570153D01*
X6840166Y-91422560D01*
X6809000Y-91265877D01*
X6809000Y-91106123D01*
X6840166Y-90949440D01*
X6901301Y-90801847D01*
X6990055Y-90669018D01*
X7103018Y-90556055D01*
X7235847Y-90467301D01*
X7383440Y-90406166D01*
X7540122Y-90375000D01*
X7699878Y-90375000D01*
X7856560Y-90406166D01*
G37*
G36*
X5316560Y-90406166D02*
G01*
X5464153Y-90467301D01*
X5596982Y-90556055D01*
X5709945Y-90669018D01*
X5798699Y-90801847D01*
X5859834Y-90949440D01*
X5891000Y-91106123D01*
X5891000Y-91265877D01*
X5859834Y-91422560D01*
X5798699Y-91570153D01*
X5709945Y-91702982D01*
X5596982Y-91815945D01*
X5464153Y-91904699D01*
X5464152Y-91904700D01*
X5464151Y-91904700D01*
X5316560Y-91965834D01*
X5159878Y-91997000D01*
X5000122Y-91997000D01*
X4843440Y-91965834D01*
X4695849Y-91904700D01*
X4695848Y-91904700D01*
X4695847Y-91904699D01*
X4563018Y-91815945D01*
X4450055Y-91702982D01*
X4361301Y-91570153D01*
X4300166Y-91422560D01*
X4269000Y-91265877D01*
X4269000Y-91106123D01*
X4300166Y-90949440D01*
X4361301Y-90801847D01*
X4450055Y-90669018D01*
X4563018Y-90556055D01*
X4695847Y-90467301D01*
X4843440Y-90406166D01*
X5000122Y-90375000D01*
X5159878Y-90375000D01*
X5316560Y-90406166D01*
G37*
G36*
X10971000Y-91997000D02*
G01*
X9349000Y-91997000D01*
X9349000Y-90375000D01*
X10971000Y-90375000D01*
X10971000Y-91997000D01*
G37*
G36*
X18885000Y-90767000D02*
G01*
X17183000Y-90767000D01*
X17183000Y-89065000D01*
X18885000Y-89065000D01*
X18885000Y-90767000D01*
G37*
G36*
X27653512Y-88643927D02*
G01*
X27802812Y-88673624D01*
X27966784Y-88741544D01*
X28114354Y-88840147D01*
X28239853Y-88965646D01*
X28338456Y-89113216D01*
X28406376Y-89277188D01*
X28441000Y-89451259D01*
X28441000Y-89628741D01*
X28406376Y-89802812D01*
X28338456Y-89966784D01*
X28239853Y-90114354D01*
X28114354Y-90239853D01*
X27966784Y-90338456D01*
X27802812Y-90406376D01*
X27653512Y-90436073D01*
X27628742Y-90441000D01*
X27451258Y-90441000D01*
X27426488Y-90436073D01*
X27277188Y-90406376D01*
X27113216Y-90338456D01*
X26965646Y-90239853D01*
X26840147Y-90114354D01*
X26741544Y-89966784D01*
X26673624Y-89802812D01*
X26639000Y-89628741D01*
X26639000Y-89451259D01*
X26673624Y-89277188D01*
X26741544Y-89113216D01*
X26840147Y-88965646D01*
X26965646Y-88840147D01*
X27113216Y-88741544D01*
X27277188Y-88673624D01*
X27426488Y-88643927D01*
X27451258Y-88639000D01*
X27628742Y-88639000D01*
X27653512Y-88643927D01*
G37*
G36*
X25113512Y-88643927D02*
G01*
X25262812Y-88673624D01*
X25426784Y-88741544D01*
X25574354Y-88840147D01*
X25699853Y-88965646D01*
X25798456Y-89113216D01*
X25866376Y-89277188D01*
X25901000Y-89451259D01*
X25901000Y-89628741D01*
X25866376Y-89802812D01*
X25798456Y-89966784D01*
X25699853Y-90114354D01*
X25574354Y-90239853D01*
X25426784Y-90338456D01*
X25262812Y-90406376D01*
X25113512Y-90436073D01*
X25088742Y-90441000D01*
X24911258Y-90441000D01*
X24886488Y-90436073D01*
X24737188Y-90406376D01*
X24573216Y-90338456D01*
X24425646Y-90239853D01*
X24300147Y-90114354D01*
X24201544Y-89966784D01*
X24133624Y-89802812D01*
X24099000Y-89628741D01*
X24099000Y-89451259D01*
X24133624Y-89277188D01*
X24201544Y-89113216D01*
X24300147Y-88965646D01*
X24425646Y-88840147D01*
X24573216Y-88741544D01*
X24737188Y-88673624D01*
X24886488Y-88643927D01*
X24911258Y-88639000D01*
X25088742Y-88639000D01*
X25113512Y-88643927D01*
G37*
G36*
X18282228Y-87097703D02*
G01*
X18437100Y-87161853D01*
X18576481Y-87254985D01*
X18695015Y-87373519D01*
X18788147Y-87512900D01*
X18852297Y-87667772D01*
X18885000Y-87832184D01*
X18885000Y-87999816D01*
X18852297Y-88164228D01*
X18788147Y-88319100D01*
X18695015Y-88458481D01*
X18576481Y-88577015D01*
X18437100Y-88670147D01*
X18282228Y-88734297D01*
X18117816Y-88767000D01*
X17950184Y-88767000D01*
X17785772Y-88734297D01*
X17630900Y-88670147D01*
X17491519Y-88577015D01*
X17372985Y-88458481D01*
X17279853Y-88319100D01*
X17215703Y-88164228D01*
X17183000Y-87999816D01*
X17183000Y-87832184D01*
X17215703Y-87667772D01*
X17279853Y-87512900D01*
X17372985Y-87373519D01*
X17491519Y-87254985D01*
X17630900Y-87161853D01*
X17785772Y-87097703D01*
X17950184Y-87065000D01*
X18117816Y-87065000D01*
X18282228Y-87097703D01*
G37*
G36*
X25901000Y-87901000D02*
G01*
X24099000Y-87901000D01*
X24099000Y-86099000D01*
X25901000Y-86099000D01*
X25901000Y-87901000D01*
G37*
G36*
X27653512Y-86103927D02*
G01*
X27802812Y-86133624D01*
X27966784Y-86201544D01*
X28114354Y-86300147D01*
X28239853Y-86425646D01*
X28338456Y-86573216D01*
X28406376Y-86737188D01*
X28436073Y-86886488D01*
X28441000Y-86911258D01*
X28441000Y-87088742D01*
X28439217Y-87097705D01*
X28406376Y-87262812D01*
X28338456Y-87426784D01*
X28239853Y-87574354D01*
X28114354Y-87699853D01*
X27966784Y-87798456D01*
X27802812Y-87866376D01*
X27653512Y-87896073D01*
X27628742Y-87901000D01*
X27451258Y-87901000D01*
X27426488Y-87896073D01*
X27277188Y-87866376D01*
X27113216Y-87798456D01*
X26965646Y-87699853D01*
X26840147Y-87574354D01*
X26741544Y-87426784D01*
X26673624Y-87262812D01*
X26640783Y-87097705D01*
X26639000Y-87088742D01*
X26639000Y-86911258D01*
X26643927Y-86886488D01*
X26673624Y-86737188D01*
X26741544Y-86573216D01*
X26840147Y-86425646D01*
X26965646Y-86300147D01*
X27113216Y-86201544D01*
X27277188Y-86133624D01*
X27426488Y-86103927D01*
X27451258Y-86099000D01*
X27628742Y-86099000D01*
X27653512Y-86103927D01*
G37*
G36*
X8271000Y-83709000D02*
G01*
X7899891Y-83709000D01*
X7875505Y-83711402D01*
X7852056Y-83718515D01*
X7830445Y-83730066D01*
X7811503Y-83745611D01*
X7795958Y-83764553D01*
X7784407Y-83786164D01*
X7777294Y-83809613D01*
X7774892Y-83833999D01*
X7777294Y-83858385D01*
X7784407Y-83881834D01*
X7795958Y-83903445D01*
X7811503Y-83922387D01*
X7830445Y-83937932D01*
X7852055Y-83949483D01*
X7928364Y-83981091D01*
X8034988Y-84052335D01*
X8125665Y-84143012D01*
X8196909Y-84249636D01*
X8245983Y-84368110D01*
X8271000Y-84493882D01*
X8271000Y-84622118D01*
X8245983Y-84747890D01*
X8196909Y-84866364D01*
X8125665Y-84972988D01*
X8034988Y-85063665D01*
X7928364Y-85134909D01*
X7928363Y-85134910D01*
X7928362Y-85134910D01*
X7809890Y-85183983D01*
X7684119Y-85209000D01*
X7555881Y-85209000D01*
X7430110Y-85183983D01*
X7311638Y-85134910D01*
X7311637Y-85134910D01*
X7311636Y-85134909D01*
X7205012Y-85063665D01*
X7114335Y-84972988D01*
X7043091Y-84866364D01*
X6994017Y-84747890D01*
X6969000Y-84622118D01*
X6969000Y-84493882D01*
X6994017Y-84368110D01*
X7043091Y-84249636D01*
X7114335Y-84143012D01*
X7205012Y-84052335D01*
X7311636Y-83981091D01*
X7387945Y-83949483D01*
X7409555Y-83937932D01*
X7428497Y-83922387D01*
X7444042Y-83903445D01*
X7455593Y-83881834D01*
X7462706Y-83858385D01*
X7465108Y-83833999D01*
X7462706Y-83809613D01*
X7455593Y-83786164D01*
X7444042Y-83764553D01*
X7428497Y-83745611D01*
X7409555Y-83730066D01*
X7387944Y-83718515D01*
X7364495Y-83711402D01*
X7340109Y-83709000D01*
X6969000Y-83709000D01*
X6969000Y-82407000D01*
X8271000Y-82407000D01*
X8271000Y-83709000D01*
G37*
G36*
X27908228Y-82181703D02*
G01*
X28063100Y-82245853D01*
X28202481Y-82338985D01*
X28321015Y-82457519D01*
X28414147Y-82596900D01*
X28478297Y-82751772D01*
X28511000Y-82916184D01*
X28511000Y-83083816D01*
X28478297Y-83248228D01*
X28414147Y-83403100D01*
X28321015Y-83542481D01*
X28202481Y-83661015D01*
X28063100Y-83754147D01*
X27908228Y-83818297D01*
X27743816Y-83851000D01*
X27576184Y-83851000D01*
X27411772Y-83818297D01*
X27256900Y-83754147D01*
X27117519Y-83661015D01*
X26998985Y-83542481D01*
X26905853Y-83403100D01*
X26841703Y-83248228D01*
X26809000Y-83083816D01*
X26809000Y-82916184D01*
X26841703Y-82751772D01*
X26905853Y-82596900D01*
X26998985Y-82457519D01*
X27117519Y-82338985D01*
X27256900Y-82245853D01*
X27411772Y-82181703D01*
X27576184Y-82149000D01*
X27743816Y-82149000D01*
X27908228Y-82181703D01*
G37*
G36*
X17748228Y-82181703D02*
G01*
X17903100Y-82245853D01*
X18042481Y-82338985D01*
X18161015Y-82457519D01*
X18254147Y-82596900D01*
X18318297Y-82751772D01*
X18351000Y-82916184D01*
X18351000Y-83083816D01*
X18318297Y-83248228D01*
X18254147Y-83403100D01*
X18161015Y-83542481D01*
X18042481Y-83661015D01*
X17903100Y-83754147D01*
X17748228Y-83818297D01*
X17583816Y-83851000D01*
X17416184Y-83851000D01*
X17251772Y-83818297D01*
X17096900Y-83754147D01*
X16957519Y-83661015D01*
X16838985Y-83542481D01*
X16745853Y-83403100D01*
X16681703Y-83248228D01*
X16649000Y-83083816D01*
X16649000Y-82916184D01*
X16681703Y-82751772D01*
X16745853Y-82596900D01*
X16838985Y-82457519D01*
X16957519Y-82338985D01*
X17096900Y-82245853D01*
X17251772Y-82181703D01*
X17416184Y-82149000D01*
X17583816Y-82149000D01*
X17748228Y-82181703D01*
G37*
G36*
X27908228Y-77681703D02*
G01*
X28063100Y-77745853D01*
X28202481Y-77838985D01*
X28321015Y-77957519D01*
X28414147Y-78096900D01*
X28478297Y-78251772D01*
X28511000Y-78416184D01*
X28511000Y-78583816D01*
X28478297Y-78748228D01*
X28414147Y-78903100D01*
X28321015Y-79042481D01*
X28202481Y-79161015D01*
X28063100Y-79254147D01*
X27908228Y-79318297D01*
X27743816Y-79351000D01*
X27576184Y-79351000D01*
X27411772Y-79318297D01*
X27256900Y-79254147D01*
X27117519Y-79161015D01*
X26998985Y-79042481D01*
X26905853Y-78903100D01*
X26841703Y-78748228D01*
X26809000Y-78583816D01*
X26809000Y-78416184D01*
X26841703Y-78251772D01*
X26905853Y-78096900D01*
X26998985Y-77957519D01*
X27117519Y-77838985D01*
X27256900Y-77745853D01*
X27411772Y-77681703D01*
X27576184Y-77649000D01*
X27743816Y-77649000D01*
X27908228Y-77681703D01*
G37*
G36*
X17748228Y-77681703D02*
G01*
X17903100Y-77745853D01*
X18042481Y-77838985D01*
X18161015Y-77957519D01*
X18254147Y-78096900D01*
X18318297Y-78251772D01*
X18351000Y-78416184D01*
X18351000Y-78583816D01*
X18318297Y-78748228D01*
X18254147Y-78903100D01*
X18161015Y-79042481D01*
X18042481Y-79161015D01*
X17903100Y-79254147D01*
X17748228Y-79318297D01*
X17583816Y-79351000D01*
X17416184Y-79351000D01*
X17251772Y-79318297D01*
X17096900Y-79254147D01*
X16957519Y-79161015D01*
X16838985Y-79042481D01*
X16745853Y-78903100D01*
X16681703Y-78748228D01*
X16649000Y-78583816D01*
X16649000Y-78416184D01*
X16681703Y-78251772D01*
X16745853Y-78096900D01*
X16838985Y-77957519D01*
X16957519Y-77838985D01*
X17096900Y-77745853D01*
X17251772Y-77681703D01*
X17416184Y-77649000D01*
X17583816Y-77649000D01*
X17748228Y-77681703D01*
G37*
G36*
X13551000Y-78151000D02*
G01*
X12449000Y-78151000D01*
X12449000Y-75849000D01*
X13551000Y-75849000D01*
X13551000Y-78151000D01*
G37*
G36*
X6551000Y-78051000D02*
G01*
X4249000Y-78051000D01*
X4249000Y-76949000D01*
X6551000Y-76949000D01*
X6551000Y-78051000D01*
G37*
G36*
X19351000Y-74351000D02*
G01*
X17649000Y-74351000D01*
X17649000Y-72649000D01*
X19351000Y-72649000D01*
X19351000Y-74351000D01*
G37*
G36*
X21288228Y-72681703D02*
G01*
X21443100Y-72745853D01*
X21582481Y-72838985D01*
X21701015Y-72957519D01*
X21794147Y-73096900D01*
X21858297Y-73251772D01*
X21891000Y-73416184D01*
X21891000Y-73583816D01*
X21858297Y-73748228D01*
X21794147Y-73903100D01*
X21701015Y-74042481D01*
X21582481Y-74161015D01*
X21443100Y-74254147D01*
X21288228Y-74318297D01*
X21123816Y-74351000D01*
X20956184Y-74351000D01*
X20791772Y-74318297D01*
X20636900Y-74254147D01*
X20497519Y-74161015D01*
X20378985Y-74042481D01*
X20285853Y-73903100D01*
X20221703Y-73748228D01*
X20189000Y-73583816D01*
X20189000Y-73416184D01*
X20221703Y-73251772D01*
X20285853Y-73096900D01*
X20378985Y-72957519D01*
X20497519Y-72838985D01*
X20636900Y-72745853D01*
X20791772Y-72681703D01*
X20956184Y-72649000D01*
X21123816Y-72649000D01*
X21288228Y-72681703D01*
G37*
G36*
X23828228Y-72681703D02*
G01*
X23983100Y-72745853D01*
X24122481Y-72838985D01*
X24241015Y-72957519D01*
X24334147Y-73096900D01*
X24398297Y-73251772D01*
X24431000Y-73416184D01*
X24431000Y-73583816D01*
X24398297Y-73748228D01*
X24334147Y-73903100D01*
X24241015Y-74042481D01*
X24122481Y-74161015D01*
X23983100Y-74254147D01*
X23828228Y-74318297D01*
X23663816Y-74351000D01*
X23496184Y-74351000D01*
X23331772Y-74318297D01*
X23176900Y-74254147D01*
X23037519Y-74161015D01*
X22918985Y-74042481D01*
X22825853Y-73903100D01*
X22761703Y-73748228D01*
X22729000Y-73583816D01*
X22729000Y-73416184D01*
X22761703Y-73251772D01*
X22825853Y-73096900D01*
X22918985Y-72957519D01*
X23037519Y-72838985D01*
X23176900Y-72745853D01*
X23331772Y-72681703D01*
X23496184Y-72649000D01*
X23663816Y-72649000D01*
X23828228Y-72681703D01*
G37*
G36*
X26368228Y-72681703D02*
G01*
X26523100Y-72745853D01*
X26662481Y-72838985D01*
X26781015Y-72957519D01*
X26874147Y-73096900D01*
X26938297Y-73251772D01*
X26971000Y-73416184D01*
X26971000Y-73583816D01*
X26938297Y-73748228D01*
X26874147Y-73903100D01*
X26781015Y-74042481D01*
X26662481Y-74161015D01*
X26523100Y-74254147D01*
X26368228Y-74318297D01*
X26203816Y-74351000D01*
X26036184Y-74351000D01*
X25871772Y-74318297D01*
X25716900Y-74254147D01*
X25577519Y-74161015D01*
X25458985Y-74042481D01*
X25365853Y-73903100D01*
X25301703Y-73748228D01*
X25269000Y-73583816D01*
X25269000Y-73416184D01*
X25301703Y-73251772D01*
X25365853Y-73096900D01*
X25458985Y-72957519D01*
X25577519Y-72838985D01*
X25716900Y-72745853D01*
X25871772Y-72681703D01*
X26036184Y-72649000D01*
X26203816Y-72649000D01*
X26368228Y-72681703D01*
G37*
G36*
X2551000Y-74151000D02*
G01*
X1449000Y-74151000D01*
X1449000Y-71849000D01*
X2551000Y-71849000D01*
X2551000Y-74151000D01*
G37*
G36*
X9551000Y-71051000D02*
G01*
X7249000Y-71051000D01*
X7249000Y-69949000D01*
X9551000Y-69949000D01*
X9551000Y-71051000D01*
G37*
G36*
X10951000Y-68351000D02*
G01*
X8649000Y-68351000D01*
X8649000Y-67249000D01*
X10951000Y-67249000D01*
X10951000Y-68351000D01*
G37*
G36*
X18748228Y-65061703D02*
G01*
X18903100Y-65125853D01*
X19042481Y-65218985D01*
X19161015Y-65337519D01*
X19254147Y-65476900D01*
X19318297Y-65631772D01*
X19351000Y-65796184D01*
X19351000Y-65963816D01*
X19318297Y-66128228D01*
X19254147Y-66283100D01*
X19161015Y-66422481D01*
X19042481Y-66541015D01*
X18903100Y-66634147D01*
X18748228Y-66698297D01*
X18583816Y-66731000D01*
X18416184Y-66731000D01*
X18251772Y-66698297D01*
X18096900Y-66634147D01*
X17957519Y-66541015D01*
X17838985Y-66422481D01*
X17745853Y-66283100D01*
X17681703Y-66128228D01*
X17649000Y-65963816D01*
X17649000Y-65796184D01*
X17681703Y-65631772D01*
X17745853Y-65476900D01*
X17838985Y-65337519D01*
X17957519Y-65218985D01*
X18096900Y-65125853D01*
X18251772Y-65061703D01*
X18416184Y-65029000D01*
X18583816Y-65029000D01*
X18748228Y-65061703D01*
G37*
G36*
X21288228Y-65061703D02*
G01*
X21443100Y-65125853D01*
X21582481Y-65218985D01*
X21701015Y-65337519D01*
X21794147Y-65476900D01*
X21858297Y-65631772D01*
X21891000Y-65796184D01*
X21891000Y-65963816D01*
X21858297Y-66128228D01*
X21794147Y-66283100D01*
X21701015Y-66422481D01*
X21582481Y-66541015D01*
X21443100Y-66634147D01*
X21288228Y-66698297D01*
X21123816Y-66731000D01*
X20956184Y-66731000D01*
X20791772Y-66698297D01*
X20636900Y-66634147D01*
X20497519Y-66541015D01*
X20378985Y-66422481D01*
X20285853Y-66283100D01*
X20221703Y-66128228D01*
X20189000Y-65963816D01*
X20189000Y-65796184D01*
X20221703Y-65631772D01*
X20285853Y-65476900D01*
X20378985Y-65337519D01*
X20497519Y-65218985D01*
X20636900Y-65125853D01*
X20791772Y-65061703D01*
X20956184Y-65029000D01*
X21123816Y-65029000D01*
X21288228Y-65061703D01*
G37*
G36*
X23828228Y-65061703D02*
G01*
X23983100Y-65125853D01*
X24122481Y-65218985D01*
X24241015Y-65337519D01*
X24334147Y-65476900D01*
X24398297Y-65631772D01*
X24431000Y-65796184D01*
X24431000Y-65963816D01*
X24398297Y-66128228D01*
X24334147Y-66283100D01*
X24241015Y-66422481D01*
X24122481Y-66541015D01*
X23983100Y-66634147D01*
X23828228Y-66698297D01*
X23663816Y-66731000D01*
X23496184Y-66731000D01*
X23331772Y-66698297D01*
X23176900Y-66634147D01*
X23037519Y-66541015D01*
X22918985Y-66422481D01*
X22825853Y-66283100D01*
X22761703Y-66128228D01*
X22729000Y-65963816D01*
X22729000Y-65796184D01*
X22761703Y-65631772D01*
X22825853Y-65476900D01*
X22918985Y-65337519D01*
X23037519Y-65218985D01*
X23176900Y-65125853D01*
X23331772Y-65061703D01*
X23496184Y-65029000D01*
X23663816Y-65029000D01*
X23828228Y-65061703D01*
G37*
G36*
X26368228Y-65061703D02*
G01*
X26523100Y-65125853D01*
X26662481Y-65218985D01*
X26781015Y-65337519D01*
X26874147Y-65476900D01*
X26938297Y-65631772D01*
X26971000Y-65796184D01*
X26971000Y-65963816D01*
X26938297Y-66128228D01*
X26874147Y-66283100D01*
X26781015Y-66422481D01*
X26662481Y-66541015D01*
X26523100Y-66634147D01*
X26368228Y-66698297D01*
X26203816Y-66731000D01*
X26036184Y-66731000D01*
X25871772Y-66698297D01*
X25716900Y-66634147D01*
X25577519Y-66541015D01*
X25458985Y-66422481D01*
X25365853Y-66283100D01*
X25301703Y-66128228D01*
X25269000Y-65963816D01*
X25269000Y-65796184D01*
X25301703Y-65631772D01*
X25365853Y-65476900D01*
X25458985Y-65337519D01*
X25577519Y-65218985D01*
X25716900Y-65125853D01*
X25871772Y-65061703D01*
X26036184Y-65029000D01*
X26203816Y-65029000D01*
X26368228Y-65061703D01*
G37*
G36*
X7334358Y-61209232D02*
G01*
X7485761Y-61239348D01*
X7913616Y-61416571D01*
X8298675Y-61673859D01*
X8626141Y-62001325D01*
X8883429Y-62386384D01*
X9060652Y-62814239D01*
X9151000Y-63268447D01*
X9151000Y-63731553D01*
X9060652Y-64185761D01*
X8883429Y-64613616D01*
X8626141Y-64998675D01*
X8298675Y-65326141D01*
X7913616Y-65583429D01*
X7485761Y-65760652D01*
X7334358Y-65790768D01*
X7031555Y-65851000D01*
X6568445Y-65851000D01*
X6265642Y-65790768D01*
X6114239Y-65760652D01*
X5686384Y-65583429D01*
X5301325Y-65326141D01*
X4973859Y-64998675D01*
X4716571Y-64613616D01*
X4539348Y-64185761D01*
X4449000Y-63731553D01*
X4449000Y-63268447D01*
X4539348Y-62814239D01*
X4716571Y-62386384D01*
X4973859Y-62001325D01*
X5301325Y-61673859D01*
X5686384Y-61416571D01*
X6114239Y-61239348D01*
X6265642Y-61209232D01*
X6568445Y-61149000D01*
X7031555Y-61149000D01*
X7334358Y-61209232D01*
G37*
G36*
X13748228Y-61181703D02*
G01*
X13903100Y-61245853D01*
X14042481Y-61338985D01*
X14161015Y-61457519D01*
X14254147Y-61596900D01*
X14318297Y-61751772D01*
X14351000Y-61916184D01*
X14351000Y-62083816D01*
X14318297Y-62248228D01*
X14254147Y-62403100D01*
X14161015Y-62542481D01*
X14042481Y-62661015D01*
X13903100Y-62754147D01*
X13748228Y-62818297D01*
X13583816Y-62851000D01*
X13416184Y-62851000D01*
X13251772Y-62818297D01*
X13096900Y-62754147D01*
X12957519Y-62661015D01*
X12838985Y-62542481D01*
X12745853Y-62403100D01*
X12681703Y-62248228D01*
X12649000Y-62083816D01*
X12649000Y-61916184D01*
X12681703Y-61751772D01*
X12745853Y-61596900D01*
X12838985Y-61457519D01*
X12957519Y-61338985D01*
X13096900Y-61245853D01*
X13251772Y-61181703D01*
X13416184Y-61149000D01*
X13583816Y-61149000D01*
X13748228Y-61181703D01*
G37*
G36*
X3777395Y-60085546D02*
G01*
X3950466Y-60157234D01*
X3950467Y-60157235D01*
X4106227Y-60261310D01*
X4238690Y-60393773D01*
X4238691Y-60393775D01*
X4342766Y-60549534D01*
X4414454Y-60722605D01*
X4451000Y-60906333D01*
X4451000Y-61093667D01*
X4414454Y-61277395D01*
X4342766Y-61450466D01*
X4291081Y-61527818D01*
X4238690Y-61606227D01*
X4106227Y-61738690D01*
X4086648Y-61751772D01*
X3950466Y-61842766D01*
X3777395Y-61914454D01*
X3593667Y-61951000D01*
X3406333Y-61951000D01*
X3222605Y-61914454D01*
X3049534Y-61842766D01*
X2913352Y-61751772D01*
X2893773Y-61738690D01*
X2761310Y-61606227D01*
X2708919Y-61527818D01*
X2657234Y-61450466D01*
X2585546Y-61277395D01*
X2549000Y-61093667D01*
X2549000Y-60906333D01*
X2585546Y-60722605D01*
X2657234Y-60549534D01*
X2761309Y-60393775D01*
X2761310Y-60393773D01*
X2893773Y-60261310D01*
X3049533Y-60157235D01*
X3049534Y-60157234D01*
X3222605Y-60085546D01*
X3406333Y-60049000D01*
X3593667Y-60049000D01*
X3777395Y-60085546D01*
G37*
G36*
X27908228Y-59181703D02*
G01*
X28063100Y-59245853D01*
X28202481Y-59338985D01*
X28321015Y-59457519D01*
X28414147Y-59596900D01*
X28478297Y-59751772D01*
X28511000Y-59916184D01*
X28511000Y-60083816D01*
X28478297Y-60248228D01*
X28414147Y-60403100D01*
X28321015Y-60542481D01*
X28202481Y-60661015D01*
X28063100Y-60754147D01*
X27908228Y-60818297D01*
X27743816Y-60851000D01*
X27576184Y-60851000D01*
X27411772Y-60818297D01*
X27256900Y-60754147D01*
X27117519Y-60661015D01*
X26998985Y-60542481D01*
X26905853Y-60403100D01*
X26841703Y-60248228D01*
X26809000Y-60083816D01*
X26809000Y-59916184D01*
X26841703Y-59751772D01*
X26905853Y-59596900D01*
X26998985Y-59457519D01*
X27117519Y-59338985D01*
X27256900Y-59245853D01*
X27411772Y-59181703D01*
X27576184Y-59149000D01*
X27743816Y-59149000D01*
X27908228Y-59181703D01*
G37*
G36*
X17748228Y-59181703D02*
G01*
X17903100Y-59245853D01*
X18042481Y-59338985D01*
X18161015Y-59457519D01*
X18254147Y-59596900D01*
X18318297Y-59751772D01*
X18351000Y-59916184D01*
X18351000Y-60083816D01*
X18318297Y-60248228D01*
X18254147Y-60403100D01*
X18161015Y-60542481D01*
X18042481Y-60661015D01*
X17903100Y-60754147D01*
X17748228Y-60818297D01*
X17583816Y-60851000D01*
X17416184Y-60851000D01*
X17251772Y-60818297D01*
X17096900Y-60754147D01*
X16957519Y-60661015D01*
X16838985Y-60542481D01*
X16745853Y-60403100D01*
X16681703Y-60248228D01*
X16649000Y-60083816D01*
X16649000Y-59916184D01*
X16681703Y-59751772D01*
X16745853Y-59596900D01*
X16838985Y-59457519D01*
X16957519Y-59338985D01*
X17096900Y-59245853D01*
X17251772Y-59181703D01*
X17416184Y-59149000D01*
X17583816Y-59149000D01*
X17748228Y-59181703D01*
G37*
G36*
X3777395Y-57585546D02*
G01*
X3950466Y-57657234D01*
X4027818Y-57708919D01*
X4106227Y-57761310D01*
X4238690Y-57893773D01*
X4238691Y-57893775D01*
X4342766Y-58049534D01*
X4414454Y-58222605D01*
X4451000Y-58406333D01*
X4451000Y-58593667D01*
X4414454Y-58777395D01*
X4342766Y-58950466D01*
X4342765Y-58950467D01*
X4238690Y-59106227D01*
X4106227Y-59238690D01*
X4027818Y-59291081D01*
X3950466Y-59342766D01*
X3777395Y-59414454D01*
X3593667Y-59451000D01*
X3406333Y-59451000D01*
X3222605Y-59414454D01*
X3049534Y-59342766D01*
X2972182Y-59291081D01*
X2893773Y-59238690D01*
X2761310Y-59106227D01*
X2657235Y-58950467D01*
X2657234Y-58950466D01*
X2585546Y-58777395D01*
X2549000Y-58593667D01*
X2549000Y-58406333D01*
X2585546Y-58222605D01*
X2657234Y-58049534D01*
X2761309Y-57893775D01*
X2761310Y-57893773D01*
X2893773Y-57761310D01*
X2972182Y-57708919D01*
X3049534Y-57657234D01*
X3222605Y-57585546D01*
X3406333Y-57549000D01*
X3593667Y-57549000D01*
X3777395Y-57585546D01*
G37*
G36*
X13748228Y-56181703D02*
G01*
X13903100Y-56245853D01*
X14042481Y-56338985D01*
X14161015Y-56457519D01*
X14254147Y-56596900D01*
X14318297Y-56751772D01*
X14351000Y-56916184D01*
X14351000Y-57083816D01*
X14318297Y-57248228D01*
X14254147Y-57403100D01*
X14161015Y-57542481D01*
X14042481Y-57661015D01*
X13903100Y-57754147D01*
X13748228Y-57818297D01*
X13583816Y-57851000D01*
X13416184Y-57851000D01*
X13251772Y-57818297D01*
X13096900Y-57754147D01*
X12957519Y-57661015D01*
X12838985Y-57542481D01*
X12745853Y-57403100D01*
X12681703Y-57248228D01*
X12649000Y-57083816D01*
X12649000Y-56916184D01*
X12681703Y-56751772D01*
X12745853Y-56596900D01*
X12838985Y-56457519D01*
X12957519Y-56338985D01*
X13096900Y-56245853D01*
X13251772Y-56181703D01*
X13416184Y-56149000D01*
X13583816Y-56149000D01*
X13748228Y-56181703D01*
G37*
G36*
X3777395Y-55085546D02*
G01*
X3950466Y-55157234D01*
X3950467Y-55157235D01*
X4106227Y-55261310D01*
X4238690Y-55393773D01*
X4238691Y-55393775D01*
X4342766Y-55549534D01*
X4414454Y-55722605D01*
X4451000Y-55906333D01*
X4451000Y-56093667D01*
X4414454Y-56277395D01*
X4342766Y-56450466D01*
X4291081Y-56527818D01*
X4238690Y-56606227D01*
X4106227Y-56738690D01*
X4086648Y-56751772D01*
X3950466Y-56842766D01*
X3777395Y-56914454D01*
X3593667Y-56951000D01*
X3406333Y-56951000D01*
X3222605Y-56914454D01*
X3049534Y-56842766D01*
X2913352Y-56751772D01*
X2893773Y-56738690D01*
X2761310Y-56606227D01*
X2708919Y-56527818D01*
X2657234Y-56450466D01*
X2585546Y-56277395D01*
X2549000Y-56093667D01*
X2549000Y-55906333D01*
X2585546Y-55722605D01*
X2657234Y-55549534D01*
X2761309Y-55393775D01*
X2761310Y-55393773D01*
X2893773Y-55261310D01*
X3049533Y-55157235D01*
X3049534Y-55157234D01*
X3222605Y-55085546D01*
X3406333Y-55049000D01*
X3593667Y-55049000D01*
X3777395Y-55085546D01*
G37*
G36*
X7334358Y-51209232D02*
G01*
X7485761Y-51239348D01*
X7913616Y-51416571D01*
X8298675Y-51673859D01*
X8626141Y-52001325D01*
X8883429Y-52386384D01*
X8883430Y-52386386D01*
X9060652Y-52814240D01*
X9151000Y-53268445D01*
X9151000Y-53731555D01*
X9060652Y-54185760D01*
X8912895Y-54542480D01*
X8883429Y-54613616D01*
X8626141Y-54998675D01*
X8298675Y-55326141D01*
X7913616Y-55583429D01*
X7485761Y-55760652D01*
X7334358Y-55790768D01*
X7031555Y-55851000D01*
X6568445Y-55851000D01*
X6265642Y-55790768D01*
X6114239Y-55760652D01*
X5686384Y-55583429D01*
X5301325Y-55326141D01*
X4973859Y-54998675D01*
X4716571Y-54613616D01*
X4687106Y-54542480D01*
X4539348Y-54185760D01*
X4449000Y-53731555D01*
X4449000Y-53268445D01*
X4539348Y-52814240D01*
X4716570Y-52386386D01*
X4716571Y-52386384D01*
X4973859Y-52001325D01*
X5301325Y-51673859D01*
X5686384Y-51416571D01*
X6114239Y-51239348D01*
X6265642Y-51209232D01*
X6568445Y-51149000D01*
X7031555Y-51149000D01*
X7334358Y-51209232D01*
G37*
G36*
X27908228Y-53181703D02*
G01*
X28063100Y-53245853D01*
X28202481Y-53338985D01*
X28321015Y-53457519D01*
X28414147Y-53596900D01*
X28478297Y-53751772D01*
X28511000Y-53916184D01*
X28511000Y-54083816D01*
X28478297Y-54248228D01*
X28414147Y-54403100D01*
X28321015Y-54542481D01*
X28202481Y-54661015D01*
X28063100Y-54754147D01*
X27908228Y-54818297D01*
X27743816Y-54851000D01*
X27576184Y-54851000D01*
X27411772Y-54818297D01*
X27256900Y-54754147D01*
X27117519Y-54661015D01*
X26998985Y-54542481D01*
X26905853Y-54403100D01*
X26841703Y-54248228D01*
X26809000Y-54083816D01*
X26809000Y-53916184D01*
X26841703Y-53751772D01*
X26905853Y-53596900D01*
X26998985Y-53457519D01*
X27117519Y-53338985D01*
X27256900Y-53245853D01*
X27411772Y-53181703D01*
X27576184Y-53149000D01*
X27743816Y-53149000D01*
X27908228Y-53181703D01*
G37*
G36*
X17748228Y-53181703D02*
G01*
X17903100Y-53245853D01*
X18042481Y-53338985D01*
X18161015Y-53457519D01*
X18254147Y-53596900D01*
X18318297Y-53751772D01*
X18351000Y-53916184D01*
X18351000Y-54083816D01*
X18318297Y-54248228D01*
X18254147Y-54403100D01*
X18161015Y-54542481D01*
X18042481Y-54661015D01*
X17903100Y-54754147D01*
X17748228Y-54818297D01*
X17583816Y-54851000D01*
X17416184Y-54851000D01*
X17251772Y-54818297D01*
X17096900Y-54754147D01*
X16957519Y-54661015D01*
X16838985Y-54542481D01*
X16745853Y-54403100D01*
X16681703Y-54248228D01*
X16649000Y-54083816D01*
X16649000Y-53916184D01*
X16681703Y-53751772D01*
X16745853Y-53596900D01*
X16838985Y-53457519D01*
X16957519Y-53338985D01*
X17096900Y-53245853D01*
X17251772Y-53181703D01*
X17416184Y-53149000D01*
X17583816Y-53149000D01*
X17748228Y-53181703D01*
G37*
G36*
X19408228Y-46181703D02*
G01*
X19563100Y-46245853D01*
X19702481Y-46338985D01*
X19821015Y-46457519D01*
X19914147Y-46596900D01*
X19978297Y-46751772D01*
X20011000Y-46916184D01*
X20011000Y-47083816D01*
X19978297Y-47248228D01*
X19914147Y-47403100D01*
X19821015Y-47542481D01*
X19702481Y-47661015D01*
X19563100Y-47754147D01*
X19408228Y-47818297D01*
X19243816Y-47851000D01*
X19076184Y-47851000D01*
X18911772Y-47818297D01*
X18756900Y-47754147D01*
X18617519Y-47661015D01*
X18498985Y-47542481D01*
X18405853Y-47403100D01*
X18341703Y-47248228D01*
X18309000Y-47083816D01*
X18309000Y-46916184D01*
X18341703Y-46751772D01*
X18405853Y-46596900D01*
X18498985Y-46457519D01*
X18617519Y-46338985D01*
X18756900Y-46245853D01*
X18911772Y-46181703D01*
X19076184Y-46149000D01*
X19243816Y-46149000D01*
X19408228Y-46181703D01*
G37*
G36*
X9248228Y-46181703D02*
G01*
X9403100Y-46245853D01*
X9542481Y-46338985D01*
X9661015Y-46457519D01*
X9754147Y-46596900D01*
X9818297Y-46751772D01*
X9851000Y-46916184D01*
X9851000Y-47083816D01*
X9818297Y-47248228D01*
X9754147Y-47403100D01*
X9661015Y-47542481D01*
X9542481Y-47661015D01*
X9403100Y-47754147D01*
X9248228Y-47818297D01*
X9083816Y-47851000D01*
X8916184Y-47851000D01*
X8751772Y-47818297D01*
X8596900Y-47754147D01*
X8457519Y-47661015D01*
X8338985Y-47542481D01*
X8245853Y-47403100D01*
X8181703Y-47248228D01*
X8149000Y-47083816D01*
X8149000Y-46916184D01*
X8181703Y-46751772D01*
X8245853Y-46596900D01*
X8338985Y-46457519D01*
X8457519Y-46338985D01*
X8596900Y-46245853D01*
X8751772Y-46181703D01*
X8916184Y-46149000D01*
X9083816Y-46149000D01*
X9248228Y-46181703D01*
G37*
G36*
X22248228Y-46181703D02*
G01*
X22403100Y-46245853D01*
X22542481Y-46338985D01*
X22661015Y-46457519D01*
X22754147Y-46596900D01*
X22818297Y-46751772D01*
X22851000Y-46916184D01*
X22851000Y-47083816D01*
X22818297Y-47248228D01*
X22754147Y-47403100D01*
X22661015Y-47542481D01*
X22542481Y-47661015D01*
X22403100Y-47754147D01*
X22248228Y-47818297D01*
X22083816Y-47851000D01*
X21916184Y-47851000D01*
X21751772Y-47818297D01*
X21596900Y-47754147D01*
X21457519Y-47661015D01*
X21338985Y-47542481D01*
X21245853Y-47403100D01*
X21181703Y-47248228D01*
X21149000Y-47083816D01*
X21149000Y-46916184D01*
X21181703Y-46751772D01*
X21245853Y-46596900D01*
X21338985Y-46457519D01*
X21457519Y-46338985D01*
X21596900Y-46245853D01*
X21751772Y-46181703D01*
X21916184Y-46149000D01*
X22083816Y-46149000D01*
X22248228Y-46181703D01*
G37*
G36*
X27248228Y-46181703D02*
G01*
X27403100Y-46245853D01*
X27542481Y-46338985D01*
X27661015Y-46457519D01*
X27754147Y-46596900D01*
X27818297Y-46751772D01*
X27851000Y-46916184D01*
X27851000Y-47083816D01*
X27818297Y-47248228D01*
X27754147Y-47403100D01*
X27661015Y-47542481D01*
X27542481Y-47661015D01*
X27403100Y-47754147D01*
X27248228Y-47818297D01*
X27083816Y-47851000D01*
X26916184Y-47851000D01*
X26751772Y-47818297D01*
X26596900Y-47754147D01*
X26457519Y-47661015D01*
X26338985Y-47542481D01*
X26245853Y-47403100D01*
X26181703Y-47248228D01*
X26149000Y-47083816D01*
X26149000Y-46916184D01*
X26181703Y-46751772D01*
X26245853Y-46596900D01*
X26338985Y-46457519D01*
X26457519Y-46338985D01*
X26596900Y-46245853D01*
X26751772Y-46181703D01*
X26916184Y-46149000D01*
X27083816Y-46149000D01*
X27248228Y-46181703D01*
G37*
G36*
X19408228Y-39181703D02*
G01*
X19563100Y-39245853D01*
X19702481Y-39338985D01*
X19821015Y-39457519D01*
X19914147Y-39596900D01*
X19978297Y-39751772D01*
X20011000Y-39916184D01*
X20011000Y-40083816D01*
X19978297Y-40248228D01*
X19914147Y-40403100D01*
X19821015Y-40542481D01*
X19702481Y-40661015D01*
X19563100Y-40754147D01*
X19408228Y-40818297D01*
X19243816Y-40851000D01*
X19076184Y-40851000D01*
X18911772Y-40818297D01*
X18756900Y-40754147D01*
X18617519Y-40661015D01*
X18498985Y-40542481D01*
X18405853Y-40403100D01*
X18341703Y-40248228D01*
X18309000Y-40083816D01*
X18309000Y-39916184D01*
X18341703Y-39751772D01*
X18405853Y-39596900D01*
X18498985Y-39457519D01*
X18617519Y-39338985D01*
X18756900Y-39245853D01*
X18911772Y-39181703D01*
X19076184Y-39149000D01*
X19243816Y-39149000D01*
X19408228Y-39181703D01*
G37*
G36*
X9248228Y-39181703D02*
G01*
X9403100Y-39245853D01*
X9542481Y-39338985D01*
X9661015Y-39457519D01*
X9754147Y-39596900D01*
X9818297Y-39751772D01*
X9851000Y-39916184D01*
X9851000Y-40083816D01*
X9818297Y-40248228D01*
X9754147Y-40403100D01*
X9661015Y-40542481D01*
X9542481Y-40661015D01*
X9403100Y-40754147D01*
X9248228Y-40818297D01*
X9083816Y-40851000D01*
X8916184Y-40851000D01*
X8751772Y-40818297D01*
X8596900Y-40754147D01*
X8457519Y-40661015D01*
X8338985Y-40542481D01*
X8245853Y-40403100D01*
X8181703Y-40248228D01*
X8149000Y-40083816D01*
X8149000Y-39916184D01*
X8181703Y-39751772D01*
X8245853Y-39596900D01*
X8338985Y-39457519D01*
X8457519Y-39338985D01*
X8596900Y-39245853D01*
X8751772Y-39181703D01*
X8916184Y-39149000D01*
X9083816Y-39149000D01*
X9248228Y-39181703D01*
G37*
G36*
X27248228Y-39181703D02*
G01*
X27403100Y-39245853D01*
X27542481Y-39338985D01*
X27661015Y-39457519D01*
X27754147Y-39596900D01*
X27818297Y-39751772D01*
X27851000Y-39916184D01*
X27851000Y-40083816D01*
X27818297Y-40248228D01*
X27754147Y-40403100D01*
X27661015Y-40542481D01*
X27542481Y-40661015D01*
X27403100Y-40754147D01*
X27248228Y-40818297D01*
X27083816Y-40851000D01*
X26916184Y-40851000D01*
X26751772Y-40818297D01*
X26596900Y-40754147D01*
X26457519Y-40661015D01*
X26338985Y-40542481D01*
X26245853Y-40403100D01*
X26181703Y-40248228D01*
X26149000Y-40083816D01*
X26149000Y-39916184D01*
X26181703Y-39751772D01*
X26245853Y-39596900D01*
X26338985Y-39457519D01*
X26457519Y-39338985D01*
X26596900Y-39245853D01*
X26751772Y-39181703D01*
X26916184Y-39149000D01*
X27083816Y-39149000D01*
X27248228Y-39181703D01*
G37*
G36*
X22248228Y-39181703D02*
G01*
X22403100Y-39245853D01*
X22542481Y-39338985D01*
X22661015Y-39457519D01*
X22754147Y-39596900D01*
X22818297Y-39751772D01*
X22851000Y-39916184D01*
X22851000Y-40083816D01*
X22818297Y-40248228D01*
X22754147Y-40403100D01*
X22661015Y-40542481D01*
X22542481Y-40661015D01*
X22403100Y-40754147D01*
X22248228Y-40818297D01*
X22083816Y-40851000D01*
X21916184Y-40851000D01*
X21751772Y-40818297D01*
X21596900Y-40754147D01*
X21457519Y-40661015D01*
X21338985Y-40542481D01*
X21245853Y-40403100D01*
X21181703Y-40248228D01*
X21149000Y-40083816D01*
X21149000Y-39916184D01*
X21181703Y-39751772D01*
X21245853Y-39596900D01*
X21338985Y-39457519D01*
X21457519Y-39338985D01*
X21596900Y-39245853D01*
X21751772Y-39181703D01*
X21916184Y-39149000D01*
X22083816Y-39149000D01*
X22248228Y-39181703D01*
G37*
G36*
X9248228Y-33681703D02*
G01*
X9403100Y-33745853D01*
X9542481Y-33838985D01*
X9661015Y-33957519D01*
X9754147Y-34096900D01*
X9818297Y-34251772D01*
X9851000Y-34416184D01*
X9851000Y-34583816D01*
X9818297Y-34748228D01*
X9754147Y-34903100D01*
X9661015Y-35042481D01*
X9542481Y-35161015D01*
X9403100Y-35254147D01*
X9248228Y-35318297D01*
X9083816Y-35351000D01*
X8916184Y-35351000D01*
X8751772Y-35318297D01*
X8596900Y-35254147D01*
X8457519Y-35161015D01*
X8338985Y-35042481D01*
X8245853Y-34903100D01*
X8181703Y-34748228D01*
X8149000Y-34583816D01*
X8149000Y-34416184D01*
X8181703Y-34251772D01*
X8245853Y-34096900D01*
X8338985Y-33957519D01*
X8457519Y-33838985D01*
X8596900Y-33745853D01*
X8751772Y-33681703D01*
X8916184Y-33649000D01*
X9083816Y-33649000D01*
X9248228Y-33681703D01*
G37*
G36*
X19408228Y-33681703D02*
G01*
X19563100Y-33745853D01*
X19702481Y-33838985D01*
X19821015Y-33957519D01*
X19914147Y-34096900D01*
X19978297Y-34251772D01*
X20011000Y-34416184D01*
X20011000Y-34583816D01*
X19978297Y-34748228D01*
X19914147Y-34903100D01*
X19821015Y-35042481D01*
X19702481Y-35161015D01*
X19563100Y-35254147D01*
X19408228Y-35318297D01*
X19243816Y-35351000D01*
X19076184Y-35351000D01*
X18911772Y-35318297D01*
X18756900Y-35254147D01*
X18617519Y-35161015D01*
X18498985Y-35042481D01*
X18405853Y-34903100D01*
X18341703Y-34748228D01*
X18309000Y-34583816D01*
X18309000Y-34416184D01*
X18341703Y-34251772D01*
X18405853Y-34096900D01*
X18498985Y-33957519D01*
X18617519Y-33838985D01*
X18756900Y-33745853D01*
X18911772Y-33681703D01*
X19076184Y-33649000D01*
X19243816Y-33649000D01*
X19408228Y-33681703D01*
G37*
G36*
X22248228Y-32181703D02*
G01*
X22403100Y-32245853D01*
X22542481Y-32338985D01*
X22661015Y-32457519D01*
X22754147Y-32596900D01*
X22818297Y-32751772D01*
X22851000Y-32916184D01*
X22851000Y-33083816D01*
X22818297Y-33248228D01*
X22754147Y-33403100D01*
X22661015Y-33542481D01*
X22542481Y-33661015D01*
X22403100Y-33754147D01*
X22248228Y-33818297D01*
X22083816Y-33851000D01*
X21916184Y-33851000D01*
X21751772Y-33818297D01*
X21596900Y-33754147D01*
X21457519Y-33661015D01*
X21338985Y-33542481D01*
X21245853Y-33403100D01*
X21181703Y-33248228D01*
X21149000Y-33083816D01*
X21149000Y-32916184D01*
X21181703Y-32751772D01*
X21245853Y-32596900D01*
X21338985Y-32457519D01*
X21457519Y-32338985D01*
X21596900Y-32245853D01*
X21751772Y-32181703D01*
X21916184Y-32149000D01*
X22083816Y-32149000D01*
X22248228Y-32181703D01*
G37*
G36*
X27248228Y-32181703D02*
G01*
X27403100Y-32245853D01*
X27542481Y-32338985D01*
X27661015Y-32457519D01*
X27754147Y-32596900D01*
X27818297Y-32751772D01*
X27851000Y-32916184D01*
X27851000Y-33083816D01*
X27818297Y-33248228D01*
X27754147Y-33403100D01*
X27661015Y-33542481D01*
X27542481Y-33661015D01*
X27403100Y-33754147D01*
X27248228Y-33818297D01*
X27083816Y-33851000D01*
X26916184Y-33851000D01*
X26751772Y-33818297D01*
X26596900Y-33754147D01*
X26457519Y-33661015D01*
X26338985Y-33542481D01*
X26245853Y-33403100D01*
X26181703Y-33248228D01*
X26149000Y-33083816D01*
X26149000Y-32916184D01*
X26181703Y-32751772D01*
X26245853Y-32596900D01*
X26338985Y-32457519D01*
X26457519Y-32338985D01*
X26596900Y-32245853D01*
X26751772Y-32181703D01*
X26916184Y-32149000D01*
X27083816Y-32149000D01*
X27248228Y-32181703D01*
G37*
G36*
X13551000Y-31151000D02*
G01*
X12449000Y-31151000D01*
X12449000Y-28849000D01*
X13551000Y-28849000D01*
X13551000Y-31151000D01*
G37*
G36*
X6551000Y-31051000D02*
G01*
X4249000Y-31051000D01*
X4249000Y-29949000D01*
X6551000Y-29949000D01*
X6551000Y-31051000D01*
G37*
G36*
X2551000Y-27151000D02*
G01*
X1449000Y-27151000D01*
X1449000Y-24849000D01*
X2551000Y-24849000D01*
X2551000Y-27151000D01*
G37*
G36*
X27248228Y-25181703D02*
G01*
X27403100Y-25245853D01*
X27542481Y-25338985D01*
X27661015Y-25457519D01*
X27754147Y-25596900D01*
X27818297Y-25751772D01*
X27851000Y-25916184D01*
X27851000Y-26083816D01*
X27818297Y-26248228D01*
X27754147Y-26403100D01*
X27661015Y-26542481D01*
X27542481Y-26661015D01*
X27403100Y-26754147D01*
X27248228Y-26818297D01*
X27083816Y-26851000D01*
X26916184Y-26851000D01*
X26751772Y-26818297D01*
X26596900Y-26754147D01*
X26457519Y-26661015D01*
X26338985Y-26542481D01*
X26245853Y-26403100D01*
X26181703Y-26248228D01*
X26149000Y-26083816D01*
X26149000Y-25916184D01*
X26181703Y-25751772D01*
X26245853Y-25596900D01*
X26338985Y-25457519D01*
X26457519Y-25338985D01*
X26596900Y-25245853D01*
X26751772Y-25181703D01*
X26916184Y-25149000D01*
X27083816Y-25149000D01*
X27248228Y-25181703D01*
G37*
G36*
X22248228Y-25181703D02*
G01*
X22403100Y-25245853D01*
X22542481Y-25338985D01*
X22661015Y-25457519D01*
X22754147Y-25596900D01*
X22818297Y-25751772D01*
X22851000Y-25916184D01*
X22851000Y-26083816D01*
X22818297Y-26248228D01*
X22754147Y-26403100D01*
X22661015Y-26542481D01*
X22542481Y-26661015D01*
X22403100Y-26754147D01*
X22248228Y-26818297D01*
X22083816Y-26851000D01*
X21916184Y-26851000D01*
X21751772Y-26818297D01*
X21596900Y-26754147D01*
X21457519Y-26661015D01*
X21338985Y-26542481D01*
X21245853Y-26403100D01*
X21181703Y-26248228D01*
X21149000Y-26083816D01*
X21149000Y-25916184D01*
X21181703Y-25751772D01*
X21245853Y-25596900D01*
X21338985Y-25457519D01*
X21457519Y-25338985D01*
X21596900Y-25245853D01*
X21751772Y-25181703D01*
X21916184Y-25149000D01*
X22083816Y-25149000D01*
X22248228Y-25181703D01*
G37*
G36*
X9551000Y-24051000D02*
G01*
X7249000Y-24051000D01*
X7249000Y-22949000D01*
X9551000Y-22949000D01*
X9551000Y-24051000D01*
G37*
G36*
X10951000Y-21351000D02*
G01*
X8649000Y-21351000D01*
X8649000Y-20249000D01*
X10951000Y-20249000D01*
X10951000Y-21351000D01*
G37*
G36*
X27248228Y-18181703D02*
G01*
X27403100Y-18245853D01*
X27542481Y-18338985D01*
X27661015Y-18457519D01*
X27754147Y-18596900D01*
X27818297Y-18751772D01*
X27851000Y-18916184D01*
X27851000Y-19083816D01*
X27818297Y-19248228D01*
X27754147Y-19403100D01*
X27661015Y-19542481D01*
X27542481Y-19661015D01*
X27403100Y-19754147D01*
X27248228Y-19818297D01*
X27083816Y-19851000D01*
X26916184Y-19851000D01*
X26751772Y-19818297D01*
X26596900Y-19754147D01*
X26457519Y-19661015D01*
X26338985Y-19542481D01*
X26245853Y-19403100D01*
X26181703Y-19248228D01*
X26149000Y-19083816D01*
X26149000Y-18916184D01*
X26181703Y-18751772D01*
X26245853Y-18596900D01*
X26338985Y-18457519D01*
X26457519Y-18338985D01*
X26596900Y-18245853D01*
X26751772Y-18181703D01*
X26916184Y-18149000D01*
X27083816Y-18149000D01*
X27248228Y-18181703D01*
G37*
G36*
X22248228Y-18181703D02*
G01*
X22403100Y-18245853D01*
X22542481Y-18338985D01*
X22661015Y-18457519D01*
X22754147Y-18596900D01*
X22818297Y-18751772D01*
X22851000Y-18916184D01*
X22851000Y-19083816D01*
X22818297Y-19248228D01*
X22754147Y-19403100D01*
X22661015Y-19542481D01*
X22542481Y-19661015D01*
X22403100Y-19754147D01*
X22248228Y-19818297D01*
X22083816Y-19851000D01*
X21916184Y-19851000D01*
X21751772Y-19818297D01*
X21596900Y-19754147D01*
X21457519Y-19661015D01*
X21338985Y-19542481D01*
X21245853Y-19403100D01*
X21181703Y-19248228D01*
X21149000Y-19083816D01*
X21149000Y-18916184D01*
X21181703Y-18751772D01*
X21245853Y-18596900D01*
X21338985Y-18457519D01*
X21457519Y-18338985D01*
X21596900Y-18245853D01*
X21751772Y-18181703D01*
X21916184Y-18149000D01*
X22083816Y-18149000D01*
X22248228Y-18181703D01*
G37*
G36*
X7334358Y-14209232D02*
G01*
X7485761Y-14239348D01*
X7913616Y-14416571D01*
X8298675Y-14673859D01*
X8626141Y-15001325D01*
X8883429Y-15386384D01*
X9060652Y-15814239D01*
X9151000Y-16268447D01*
X9151000Y-16731553D01*
X9060652Y-17185761D01*
X8883429Y-17613616D01*
X8626141Y-17998675D01*
X8298675Y-18326141D01*
X7913616Y-18583429D01*
X7485761Y-18760652D01*
X7334358Y-18790768D01*
X7031555Y-18851000D01*
X6568445Y-18851000D01*
X6265642Y-18790768D01*
X6114239Y-18760652D01*
X5686384Y-18583429D01*
X5301325Y-18326141D01*
X4973859Y-17998675D01*
X4716571Y-17613616D01*
X4539348Y-17185761D01*
X4449000Y-16731553D01*
X4449000Y-16268447D01*
X4539348Y-15814239D01*
X4716571Y-15386384D01*
X4973859Y-15001325D01*
X5301325Y-14673859D01*
X5686384Y-14416571D01*
X6114239Y-14239348D01*
X6265642Y-14209232D01*
X6568445Y-14149000D01*
X7031555Y-14149000D01*
X7334358Y-14209232D01*
G37*
G36*
X3777395Y-13085546D02*
G01*
X3950466Y-13157234D01*
X3950467Y-13157235D01*
X4106227Y-13261310D01*
X4238690Y-13393773D01*
X4238691Y-13393775D01*
X4342766Y-13549534D01*
X4414454Y-13722605D01*
X4451000Y-13906333D01*
X4451000Y-14093667D01*
X4414454Y-14277395D01*
X4342766Y-14450466D01*
X4342765Y-14450467D01*
X4238690Y-14606227D01*
X4106227Y-14738690D01*
X4027818Y-14791081D01*
X3950466Y-14842766D01*
X3777395Y-14914454D01*
X3593667Y-14951000D01*
X3406333Y-14951000D01*
X3222605Y-14914454D01*
X3049534Y-14842766D01*
X2972182Y-14791081D01*
X2893773Y-14738690D01*
X2761310Y-14606227D01*
X2657235Y-14450467D01*
X2657234Y-14450466D01*
X2585546Y-14277395D01*
X2549000Y-14093667D01*
X2549000Y-13906333D01*
X2585546Y-13722605D01*
X2657234Y-13549534D01*
X2761309Y-13393775D01*
X2761310Y-13393773D01*
X2893773Y-13261310D01*
X3049533Y-13157235D01*
X3049534Y-13157234D01*
X3222605Y-13085546D01*
X3406333Y-13049000D01*
X3593667Y-13049000D01*
X3777395Y-13085546D01*
G37*
G36*
X3777395Y-10585546D02*
G01*
X3950466Y-10657234D01*
X3950467Y-10657235D01*
X4106227Y-10761310D01*
X4238690Y-10893773D01*
X4238691Y-10893775D01*
X4342766Y-11049534D01*
X4414454Y-11222605D01*
X4451000Y-11406333D01*
X4451000Y-11593667D01*
X4414454Y-11777395D01*
X4342766Y-11950466D01*
X4342765Y-11950467D01*
X4238690Y-12106227D01*
X4106227Y-12238690D01*
X4027818Y-12291081D01*
X3950466Y-12342766D01*
X3777395Y-12414454D01*
X3593667Y-12451000D01*
X3406333Y-12451000D01*
X3222605Y-12414454D01*
X3049534Y-12342766D01*
X2972182Y-12291081D01*
X2893773Y-12238690D01*
X2761310Y-12106227D01*
X2657235Y-11950467D01*
X2657234Y-11950466D01*
X2585546Y-11777395D01*
X2549000Y-11593667D01*
X2549000Y-11406333D01*
X2585546Y-11222605D01*
X2657234Y-11049534D01*
X2761309Y-10893775D01*
X2761310Y-10893773D01*
X2893773Y-10761310D01*
X3049533Y-10657235D01*
X3049534Y-10657234D01*
X3222605Y-10585546D01*
X3406333Y-10549000D01*
X3593667Y-10549000D01*
X3777395Y-10585546D01*
G37*
G36*
X3777395Y-8085546D02*
G01*
X3950466Y-8157234D01*
X3950467Y-8157235D01*
X4106227Y-8261310D01*
X4238690Y-8393773D01*
X4238691Y-8393775D01*
X4342766Y-8549534D01*
X4414454Y-8722605D01*
X4451000Y-8906333D01*
X4451000Y-9093667D01*
X4414454Y-9277395D01*
X4342766Y-9450466D01*
X4342765Y-9450467D01*
X4238690Y-9606227D01*
X4106227Y-9738690D01*
X4027818Y-9791081D01*
X3950466Y-9842766D01*
X3777395Y-9914454D01*
X3593667Y-9951000D01*
X3406333Y-9951000D01*
X3222605Y-9914454D01*
X3049534Y-9842766D01*
X2972182Y-9791081D01*
X2893773Y-9738690D01*
X2761310Y-9606227D01*
X2657235Y-9450467D01*
X2657234Y-9450466D01*
X2585546Y-9277395D01*
X2549000Y-9093667D01*
X2549000Y-8906333D01*
X2585546Y-8722605D01*
X2657234Y-8549534D01*
X2761309Y-8393775D01*
X2761310Y-8393773D01*
X2893773Y-8261310D01*
X3049533Y-8157235D01*
X3049534Y-8157234D01*
X3222605Y-8085546D01*
X3406333Y-8049000D01*
X3593667Y-8049000D01*
X3777395Y-8085546D01*
G37*
G36*
X7334358Y-4209232D02*
G01*
X7485761Y-4239348D01*
X7913616Y-4416571D01*
X8298675Y-4673859D01*
X8626141Y-5001325D01*
X8883429Y-5386384D01*
X9060652Y-5814239D01*
X9151000Y-6268447D01*
X9151000Y-6731553D01*
X9060652Y-7185761D01*
X8883429Y-7613616D01*
X8626141Y-7998675D01*
X8298675Y-8326141D01*
X7913616Y-8583429D01*
X7485761Y-8760652D01*
X7334358Y-8790768D01*
X7031555Y-8851000D01*
X6568445Y-8851000D01*
X6265642Y-8790768D01*
X6114239Y-8760652D01*
X5686384Y-8583429D01*
X5301325Y-8326141D01*
X4973859Y-7998675D01*
X4716571Y-7613616D01*
X4539348Y-7185761D01*
X4449000Y-6731553D01*
X4449000Y-6268447D01*
X4539348Y-5814239D01*
X4716571Y-5386384D01*
X4973859Y-5001325D01*
X5301325Y-4673859D01*
X5686384Y-4416571D01*
X6114239Y-4239348D01*
X6265642Y-4209232D01*
X6568445Y-4149000D01*
X7031555Y-4149000D01*
X7334358Y-4209232D01*
G37*
M02*
