M48
; DRILL file {KiCad (5.1.5)-3} date 8/8/2020 6:50:54 PM
; FORMAT={-:-/ absolute / metric / decimal}
; #@! TF.CreationDate,2020-08-08T18:50:54-07:00
; #@! TF.GenerationSoftware,Kicad,Pcbnew,(5.1.5)-3
FMAT,2
METRIC
T1C0.400
T2C0.800
T3C0.900
T4C1.000
%
G90
G05
T1
X42.418Y-55.372
X42.418Y-58.698
X75.184Y-39.37
X76.708Y-62.23
T2
X73.5Y-92.92
X73.5Y-95.46
X73.5Y-98.0
X49.5Y-35.0
X52.0Y-35.0
X77.5Y-82.0
X77.5Y-92.16
X8.84Y-31.0
X19.0Y-31.0
X22.5Y-18.0
X22.5Y-28.16
X77.5Y-50.0
X77.5Y-60.16
X73.5Y-67.92
X73.5Y-70.46
X73.5Y-73.0
X58.5Y-77.5
X61.0Y-77.5
X80.84Y-95.0
X91.0Y-95.0
X40.5Y-77.5
X43.0Y-77.5
X22.5Y-82.0
X22.5Y-92.16
X61.0Y-84.38
X61.0Y-92.0
X17.5Y-18.0
X17.5Y-28.16
X80.84Y-79.0
X91.0Y-79.0
X73.5Y-17.92
X73.5Y-20.46
X73.5Y-23.0
X82.5Y-82.0
X82.5Y-92.16
X17.5Y-82.0
X17.5Y-92.16
X73.5Y-3.92
X73.5Y-6.46
X73.5Y-9.0
X40.5Y-16.5
X43.0Y-16.5
X22.5Y-66.0
X22.5Y-76.16
X41.5Y-62.0
X41.5Y-69.62
X8.84Y-47.0
X19.0Y-47.0
X47.0Y-9.0
X47.0Y-11.54
X47.0Y-14.08
X47.0Y-16.62
X47.0Y-19.16
X47.0Y-21.7
X47.0Y-24.24
X54.62Y-9.0
X54.62Y-11.54
X54.62Y-14.08
X54.62Y-16.62
X54.62Y-19.16
X54.62Y-21.7
X54.62Y-24.24
X82.5Y-18.0
X82.5Y-28.16
X80.84Y-15.0
X91.0Y-15.0
X22.5Y-50.0
X22.5Y-60.16
X17.5Y-50.0
X17.5Y-60.16
X73.5Y-79.92
X73.5Y-82.46
X73.5Y-85.0
X8.84Y-15.0
X19.0Y-15.0
X47.0Y-40.0
X47.0Y-42.54
X47.0Y-45.08
X47.0Y-47.62
X47.0Y-50.16
X47.0Y-52.7
X47.0Y-55.24
X54.62Y-40.0
X54.62Y-42.54
X54.62Y-45.08
X54.62Y-47.62
X54.62Y-50.16
X54.62Y-52.7
X54.62Y-55.24
X41.5Y-4.38
X41.5Y-12.0
X82.5Y-66.0
X82.5Y-76.16
X77.5Y-34.0
X77.5Y-44.16
X73.5Y-32.92
X73.5Y-35.46
X73.5Y-38.0
X82.5Y-50.0
X82.5Y-60.16
X45.84Y-63.0
X56.0Y-63.0
X17.5Y-66.0
X17.5Y-76.16
X22.5Y-34.0
X22.5Y-44.16
X82.5Y-1.5
X82.5Y-11.66
X77.5Y-18.0
X77.5Y-28.16
X22.5Y-1.5
X22.5Y-11.66
X58.5Y-16.5
X61.0Y-16.5
X80.84Y-31.0
X91.0Y-31.0
X46.0Y-30.0
X56.16Y-30.0
X8.84Y-79.0
X19.0Y-79.0
X17.5Y-34.0
X17.5Y-44.16
X41.5Y-23.38
X41.5Y-31.0
X61.0Y-23.38
X61.0Y-31.0
X80.84Y-47.0
X91.0Y-47.0
X82.5Y-34.0
X82.5Y-44.16
X17.5Y-1.5
X17.5Y-11.66
X80.84Y-63.0
X91.0Y-63.0
X8.84Y-95.0
X19.0Y-95.0
X8.84Y-63.0
X19.0Y-63.0
X41.5Y-84.38
X41.5Y-92.0
X47.0Y-70.0
X47.0Y-72.54
X47.0Y-75.08
X47.0Y-77.62
X47.0Y-80.16
X47.0Y-82.7
X47.0Y-85.24
X54.62Y-70.0
X54.62Y-72.54
X54.62Y-75.08
X54.62Y-77.62
X54.62Y-80.16
X54.62Y-82.7
X54.62Y-85.24
X77.5Y-66.0
X77.5Y-76.16
X77.5Y-1.5
X77.5Y-11.66
T3
X2.0Y-31.0
X4.54Y-31.0
X2.0Y-63.0
X4.54Y-63.0
X95.46Y-95.0
X98.0Y-95.0
X2.0Y-15.0
X4.54Y-15.0
X95.46Y-79.0
X98.0Y-79.0
X95.46Y-15.0
X98.0Y-15.0
X2.0Y-95.0
X4.54Y-95.0
X2.0Y-47.0
X4.54Y-47.0
X95.46Y-31.0
X98.0Y-31.0
X95.46Y-63.0
X98.0Y-63.0
X2.0Y-79.0
X4.54Y-79.0
X95.46Y-47.0
X98.0Y-47.0
T4
X68.0Y-18.0
X68.0Y-20.54
X68.0Y-23.08
X68.0Y-25.62
X68.0Y-28.16
X68.0Y-30.7
X68.0Y-33.24
X68.0Y-35.78
X32.0Y-44.0
X32.0Y-46.54
X32.0Y-49.08
X32.0Y-51.62
X32.0Y-54.16
X32.0Y-56.7
X32.0Y-59.24
X32.0Y-61.78
X33.0Y-79.0
X33.0Y-81.54
X33.0Y-84.08
X33.0Y-86.62
X33.0Y-89.16
X33.0Y-91.7
X33.0Y-94.24
X33.0Y-96.78
X35.54Y-79.0
X35.54Y-81.54
X35.54Y-84.08
X35.54Y-86.62
X35.54Y-89.16
X35.54Y-91.7
X35.54Y-94.24
X35.54Y-96.78
X28.0Y-68.0
X28.0Y-70.54
X28.0Y-73.08
X28.0Y-75.62
X28.0Y-78.16
X28.0Y-80.7
X28.0Y-83.24
X28.0Y-85.78
X72.0Y-44.0
X72.0Y-46.54
X72.0Y-49.08
X72.0Y-51.62
X72.0Y-54.16
X72.0Y-56.7
X72.0Y-59.24
X72.0Y-61.78
X28.0Y-18.0
X28.0Y-20.54
X28.0Y-23.08
X28.0Y-25.62
X28.0Y-28.16
X28.0Y-30.7
X28.0Y-33.24
X28.0Y-35.78
X68.0Y-68.0
X68.0Y-70.54
X68.0Y-73.08
X68.0Y-75.62
X68.0Y-78.16
X68.0Y-80.7
X68.0Y-83.24
X68.0Y-85.78
T1
G00X87.0Y-19.4
M15
G01X87.0Y-18.6
M16
G05
G00X90.6Y-28.2
M15
G01X89.8Y-28.2
M16
G05
G00X92.0Y-25.5
M15
G01X91.2Y-25.5
M16
G05
G00X95.0Y-18.5
M15
G01X94.2Y-18.5
M16
G05
G00X98.0Y-23.4
M15
G01X98.0Y-22.6
M16
G05
G00X2.0Y-38.6
M15
G01X2.0Y-39.4
M16
G05
G00X5.0Y-43.5
M15
G01X5.8Y-43.5
M16
G05
G00X8.0Y-36.5
M15
G01X8.8Y-36.5
M16
G05
G00X9.4Y-33.8
M15
G01X10.2Y-33.8
M16
G05
G00X13.0Y-42.6
M15
G01X13.0Y-43.4
M16
G05
G00X87.0Y-51.4
M15
G01X87.0Y-50.6
M16
G05
G00X90.6Y-60.2
M15
G01X89.8Y-60.2
M16
G05
G00X92.0Y-57.5
M15
G01X91.2Y-57.5
M16
G05
G00X95.0Y-50.5
M15
G01X94.2Y-50.5
M16
G05
G00X98.0Y-55.4
M15
G01X98.0Y-54.6
M16
G05
G00X87.0Y-67.4
M15
G01X87.0Y-66.6
M16
G05
G00X90.6Y-76.2
M15
G01X89.8Y-76.2
M16
G05
G00X92.0Y-73.5
M15
G01X91.2Y-73.5
M16
G05
G00X95.0Y-66.5
M15
G01X94.2Y-66.5
M16
G05
G00X98.0Y-71.4
M15
G01X98.0Y-70.6
M16
G05
G00X87.0Y-3.4
M15
G01X87.0Y-2.6
M16
G05
G00X90.6Y-12.2
M15
G01X89.8Y-12.2
M16
G05
G00X92.0Y-9.5
M15
G01X91.2Y-9.5
M16
G05
G00X95.0Y-2.5
M15
G01X94.2Y-2.5
M16
G05
G00X98.0Y-7.4
M15
G01X98.0Y-6.6
M16
G05
G00X2.0Y-22.6
M15
G01X2.0Y-23.4
M16
G05
G00X5.0Y-27.5
M15
G01X5.8Y-27.5
M16
G05
G00X8.0Y-20.5
M15
G01X8.8Y-20.5
M16
G05
G00X9.4Y-17.8
M15
G01X10.2Y-17.8
M16
G05
G00X13.0Y-26.6
M15
G01X13.0Y-27.4
M16
G05
G00X87.0Y-35.4
M15
G01X87.0Y-34.6
M16
G05
G00X90.6Y-44.2
M15
G01X89.8Y-44.2
M16
G05
G00X92.0Y-41.5
M15
G01X91.2Y-41.5
M16
G05
G00X95.0Y-34.5
M15
G01X94.2Y-34.5
M16
G05
G00X98.0Y-39.4
M15
G01X98.0Y-38.6
M16
G05
G00X87.0Y-83.4
M15
G01X87.0Y-82.6
M16
G05
G00X90.6Y-92.2
M15
G01X89.8Y-92.2
M16
G05
G00X92.0Y-89.5
M15
G01X91.2Y-89.5
M16
G05
G00X95.0Y-82.5
M15
G01X94.2Y-82.5
M16
G05
G00X98.0Y-87.4
M15
G01X98.0Y-86.6
M16
G05
G00X2.0Y-86.6
M15
G01X2.0Y-87.4
M16
G05
G00X5.0Y-91.5
M15
G01X5.8Y-91.5
M16
G05
G00X8.0Y-84.5
M15
G01X8.8Y-84.5
M16
G05
G00X9.4Y-81.8
M15
G01X10.2Y-81.8
M16
G05
G00X13.0Y-90.6
M15
G01X13.0Y-91.4
M16
G05
G00X2.0Y-54.6
M15
G01X2.0Y-55.4
M16
G05
G00X5.0Y-59.5
M15
G01X5.8Y-59.5
M16
G05
G00X8.0Y-52.5
M15
G01X8.8Y-52.5
M16
G05
G00X9.4Y-49.8
M15
G01X10.2Y-49.8
M16
G05
G00X13.0Y-58.6
M15
G01X13.0Y-59.4
M16
G05
G00X2.0Y-70.6
M15
G01X2.0Y-71.4
M16
G05
G00X5.0Y-75.5
M15
G01X5.8Y-75.5
M16
G05
G00X8.0Y-68.5
M15
G01X8.8Y-68.5
M16
G05
G00X9.4Y-65.8
M15
G01X10.2Y-65.8
M16
G05
G00X13.0Y-74.6
M15
G01X13.0Y-75.4
M16
G05
G00X2.0Y-6.6
M15
G01X2.0Y-7.4
M16
G05
G00X5.0Y-11.5
M15
G01X5.8Y-11.5
M16
G05
G00X8.0Y-4.5
M15
G01X8.8Y-4.5
M16
G05
G00X9.4Y-1.8
M15
G01X10.2Y-1.8
M16
G05
G00X13.0Y-10.6
M15
G01X13.0Y-11.4
M16
G05
T0
M30
