G04 #@! TF.GenerationSoftware,KiCad,Pcbnew,9.0.0*
G04 #@! TF.CreationDate,2025-02-23T15:49:32-07:00*
G04 #@! TF.ProjectId,Patch_Bay,50617463-685f-4426-9179-2e6b69636164,rev?*
G04 #@! TF.SameCoordinates,Original*
G04 #@! TF.FileFunction,Legend,Top*
G04 #@! TF.FilePolarity,Positive*
%FSLAX46Y46*%
G04 Gerber Fmt 4.6, Leading zero omitted, Abs format (unit mm)*
G04 Created by KiCad (PCBNEW 9.0.0) date 2025-02-23 15:49:32*
%MOMM*%
%LPD*%
G01*
G04 APERTURE LIST*
%ADD10C,0.150000*%
%ADD11C,0.120000*%
G04 APERTURE END LIST*
D10*
X14666666Y-7454819D02*
X14666666Y-8169104D01*
X14666666Y-8169104D02*
X14619047Y-8311961D01*
X14619047Y-8311961D02*
X14523809Y-8407200D01*
X14523809Y-8407200D02*
X14380952Y-8454819D01*
X14380952Y-8454819D02*
X14285714Y-8454819D01*
X15666666Y-8454819D02*
X15095238Y-8454819D01*
X15380952Y-8454819D02*
X15380952Y-7454819D01*
X15380952Y-7454819D02*
X15285714Y-7597676D01*
X15285714Y-7597676D02*
X15190476Y-7692914D01*
X15190476Y-7692914D02*
X15095238Y-7740533D01*
X14666666Y-19454819D02*
X14666666Y-20169104D01*
X14666666Y-20169104D02*
X14619047Y-20311961D01*
X14619047Y-20311961D02*
X14523809Y-20407200D01*
X14523809Y-20407200D02*
X14380952Y-20454819D01*
X14380952Y-20454819D02*
X14285714Y-20454819D01*
X15095238Y-19550057D02*
X15142857Y-19502438D01*
X15142857Y-19502438D02*
X15238095Y-19454819D01*
X15238095Y-19454819D02*
X15476190Y-19454819D01*
X15476190Y-19454819D02*
X15571428Y-19502438D01*
X15571428Y-19502438D02*
X15619047Y-19550057D01*
X15619047Y-19550057D02*
X15666666Y-19645295D01*
X15666666Y-19645295D02*
X15666666Y-19740533D01*
X15666666Y-19740533D02*
X15619047Y-19883390D01*
X15619047Y-19883390D02*
X15047619Y-20454819D01*
X15047619Y-20454819D02*
X15666666Y-20454819D01*
X14666666Y-31454819D02*
X14666666Y-32169104D01*
X14666666Y-32169104D02*
X14619047Y-32311961D01*
X14619047Y-32311961D02*
X14523809Y-32407200D01*
X14523809Y-32407200D02*
X14380952Y-32454819D01*
X14380952Y-32454819D02*
X14285714Y-32454819D01*
X15047619Y-31454819D02*
X15666666Y-31454819D01*
X15666666Y-31454819D02*
X15333333Y-31835771D01*
X15333333Y-31835771D02*
X15476190Y-31835771D01*
X15476190Y-31835771D02*
X15571428Y-31883390D01*
X15571428Y-31883390D02*
X15619047Y-31931009D01*
X15619047Y-31931009D02*
X15666666Y-32026247D01*
X15666666Y-32026247D02*
X15666666Y-32264342D01*
X15666666Y-32264342D02*
X15619047Y-32359580D01*
X15619047Y-32359580D02*
X15571428Y-32407200D01*
X15571428Y-32407200D02*
X15476190Y-32454819D01*
X15476190Y-32454819D02*
X15190476Y-32454819D01*
X15190476Y-32454819D02*
X15095238Y-32407200D01*
X15095238Y-32407200D02*
X15047619Y-32359580D01*
X14666666Y-43454819D02*
X14666666Y-44169104D01*
X14666666Y-44169104D02*
X14619047Y-44311961D01*
X14619047Y-44311961D02*
X14523809Y-44407200D01*
X14523809Y-44407200D02*
X14380952Y-44454819D01*
X14380952Y-44454819D02*
X14285714Y-44454819D01*
X15571428Y-43788152D02*
X15571428Y-44454819D01*
X15333333Y-43407200D02*
X15095238Y-44121485D01*
X15095238Y-44121485D02*
X15714285Y-44121485D01*
X14666666Y-55454819D02*
X14666666Y-56169104D01*
X14666666Y-56169104D02*
X14619047Y-56311961D01*
X14619047Y-56311961D02*
X14523809Y-56407200D01*
X14523809Y-56407200D02*
X14380952Y-56454819D01*
X14380952Y-56454819D02*
X14285714Y-56454819D01*
X15619047Y-55454819D02*
X15142857Y-55454819D01*
X15142857Y-55454819D02*
X15095238Y-55931009D01*
X15095238Y-55931009D02*
X15142857Y-55883390D01*
X15142857Y-55883390D02*
X15238095Y-55835771D01*
X15238095Y-55835771D02*
X15476190Y-55835771D01*
X15476190Y-55835771D02*
X15571428Y-55883390D01*
X15571428Y-55883390D02*
X15619047Y-55931009D01*
X15619047Y-55931009D02*
X15666666Y-56026247D01*
X15666666Y-56026247D02*
X15666666Y-56264342D01*
X15666666Y-56264342D02*
X15619047Y-56359580D01*
X15619047Y-56359580D02*
X15571428Y-56407200D01*
X15571428Y-56407200D02*
X15476190Y-56454819D01*
X15476190Y-56454819D02*
X15238095Y-56454819D01*
X15238095Y-56454819D02*
X15142857Y-56407200D01*
X15142857Y-56407200D02*
X15095238Y-56359580D01*
X14666666Y-67454819D02*
X14666666Y-68169104D01*
X14666666Y-68169104D02*
X14619047Y-68311961D01*
X14619047Y-68311961D02*
X14523809Y-68407200D01*
X14523809Y-68407200D02*
X14380952Y-68454819D01*
X14380952Y-68454819D02*
X14285714Y-68454819D01*
X15571428Y-67454819D02*
X15380952Y-67454819D01*
X15380952Y-67454819D02*
X15285714Y-67502438D01*
X15285714Y-67502438D02*
X15238095Y-67550057D01*
X15238095Y-67550057D02*
X15142857Y-67692914D01*
X15142857Y-67692914D02*
X15095238Y-67883390D01*
X15095238Y-67883390D02*
X15095238Y-68264342D01*
X15095238Y-68264342D02*
X15142857Y-68359580D01*
X15142857Y-68359580D02*
X15190476Y-68407200D01*
X15190476Y-68407200D02*
X15285714Y-68454819D01*
X15285714Y-68454819D02*
X15476190Y-68454819D01*
X15476190Y-68454819D02*
X15571428Y-68407200D01*
X15571428Y-68407200D02*
X15619047Y-68359580D01*
X15619047Y-68359580D02*
X15666666Y-68264342D01*
X15666666Y-68264342D02*
X15666666Y-68026247D01*
X15666666Y-68026247D02*
X15619047Y-67931009D01*
X15619047Y-67931009D02*
X15571428Y-67883390D01*
X15571428Y-67883390D02*
X15476190Y-67835771D01*
X15476190Y-67835771D02*
X15285714Y-67835771D01*
X15285714Y-67835771D02*
X15190476Y-67883390D01*
X15190476Y-67883390D02*
X15142857Y-67931009D01*
X15142857Y-67931009D02*
X15095238Y-68026247D01*
X14666666Y-79454819D02*
X14666666Y-80169104D01*
X14666666Y-80169104D02*
X14619047Y-80311961D01*
X14619047Y-80311961D02*
X14523809Y-80407200D01*
X14523809Y-80407200D02*
X14380952Y-80454819D01*
X14380952Y-80454819D02*
X14285714Y-80454819D01*
X15047619Y-79454819D02*
X15714285Y-79454819D01*
X15714285Y-79454819D02*
X15285714Y-80454819D01*
X14666666Y-91454819D02*
X14666666Y-92169104D01*
X14666666Y-92169104D02*
X14619047Y-92311961D01*
X14619047Y-92311961D02*
X14523809Y-92407200D01*
X14523809Y-92407200D02*
X14380952Y-92454819D01*
X14380952Y-92454819D02*
X14285714Y-92454819D01*
X15285714Y-91883390D02*
X15190476Y-91835771D01*
X15190476Y-91835771D02*
X15142857Y-91788152D01*
X15142857Y-91788152D02*
X15095238Y-91692914D01*
X15095238Y-91692914D02*
X15095238Y-91645295D01*
X15095238Y-91645295D02*
X15142857Y-91550057D01*
X15142857Y-91550057D02*
X15190476Y-91502438D01*
X15190476Y-91502438D02*
X15285714Y-91454819D01*
X15285714Y-91454819D02*
X15476190Y-91454819D01*
X15476190Y-91454819D02*
X15571428Y-91502438D01*
X15571428Y-91502438D02*
X15619047Y-91550057D01*
X15619047Y-91550057D02*
X15666666Y-91645295D01*
X15666666Y-91645295D02*
X15666666Y-91692914D01*
X15666666Y-91692914D02*
X15619047Y-91788152D01*
X15619047Y-91788152D02*
X15571428Y-91835771D01*
X15571428Y-91835771D02*
X15476190Y-91883390D01*
X15476190Y-91883390D02*
X15285714Y-91883390D01*
X15285714Y-91883390D02*
X15190476Y-91931009D01*
X15190476Y-91931009D02*
X15142857Y-91978628D01*
X15142857Y-91978628D02*
X15095238Y-92073866D01*
X15095238Y-92073866D02*
X15095238Y-92264342D01*
X15095238Y-92264342D02*
X15142857Y-92359580D01*
X15142857Y-92359580D02*
X15190476Y-92407200D01*
X15190476Y-92407200D02*
X15285714Y-92454819D01*
X15285714Y-92454819D02*
X15476190Y-92454819D01*
X15476190Y-92454819D02*
X15571428Y-92407200D01*
X15571428Y-92407200D02*
X15619047Y-92359580D01*
X15619047Y-92359580D02*
X15666666Y-92264342D01*
X15666666Y-92264342D02*
X15666666Y-92073866D01*
X15666666Y-92073866D02*
X15619047Y-91978628D01*
X15619047Y-91978628D02*
X15571428Y-91931009D01*
X15571428Y-91931009D02*
X15476190Y-91883390D01*
X20936666Y-40774819D02*
X20936666Y-41489104D01*
X20936666Y-41489104D02*
X20889047Y-41631961D01*
X20889047Y-41631961D02*
X20793809Y-41727200D01*
X20793809Y-41727200D02*
X20650952Y-41774819D01*
X20650952Y-41774819D02*
X20555714Y-41774819D01*
X21460476Y-41774819D02*
X21650952Y-41774819D01*
X21650952Y-41774819D02*
X21746190Y-41727200D01*
X21746190Y-41727200D02*
X21793809Y-41679580D01*
X21793809Y-41679580D02*
X21889047Y-41536723D01*
X21889047Y-41536723D02*
X21936666Y-41346247D01*
X21936666Y-41346247D02*
X21936666Y-40965295D01*
X21936666Y-40965295D02*
X21889047Y-40870057D01*
X21889047Y-40870057D02*
X21841428Y-40822438D01*
X21841428Y-40822438D02*
X21746190Y-40774819D01*
X21746190Y-40774819D02*
X21555714Y-40774819D01*
X21555714Y-40774819D02*
X21460476Y-40822438D01*
X21460476Y-40822438D02*
X21412857Y-40870057D01*
X21412857Y-40870057D02*
X21365238Y-40965295D01*
X21365238Y-40965295D02*
X21365238Y-41203390D01*
X21365238Y-41203390D02*
X21412857Y-41298628D01*
X21412857Y-41298628D02*
X21460476Y-41346247D01*
X21460476Y-41346247D02*
X21555714Y-41393866D01*
X21555714Y-41393866D02*
X21746190Y-41393866D01*
X21746190Y-41393866D02*
X21841428Y-41346247D01*
X21841428Y-41346247D02*
X21889047Y-41298628D01*
X21889047Y-41298628D02*
X21936666Y-41203390D01*
X0Y-2000000D02*
X14000000Y-2000000D01*
X14000000Y-2000000D02*
X14000000Y-13500000D01*
X0Y-9800000D02*
X-3500000Y-9800000D01*
X-3500000Y-6200000D02*
X-3500000Y-9800000D01*
X14000000Y-13500000D02*
X0Y-13500000D01*
X0Y-6200000D02*
X-3500000Y-6200000D01*
X0Y-13500000D02*
X0Y-2000000D01*
X0Y-14000000D02*
X14000000Y-14000000D01*
X0Y-25500000D02*
X0Y-14000000D01*
X14000000Y-25500000D02*
X0Y-25500000D01*
X14000000Y-14000000D02*
X14000000Y-25500000D01*
X-3500000Y-18200000D02*
X-3500000Y-21800000D01*
X0Y-18200000D02*
X-3500000Y-18200000D01*
X0Y-21800000D02*
X-3500000Y-21800000D01*
X0Y-26000000D02*
X14000000Y-26000000D01*
X0Y-37500000D02*
X0Y-26000000D01*
X14000000Y-26000000D02*
X14000000Y-37500000D01*
X-3500000Y-30200000D02*
X-3500000Y-33800000D01*
X14000000Y-37500000D02*
X0Y-37500000D01*
X0Y-30200000D02*
X-3500000Y-30200000D01*
X0Y-33800000D02*
X-3500000Y-33800000D01*
X0Y-42200000D02*
X-3500000Y-42200000D01*
X14000000Y-38000000D02*
X14000000Y-49500000D01*
X0Y-45800000D02*
X-3500000Y-45800000D01*
X14000000Y-49500000D02*
X0Y-49500000D01*
X0Y-49500000D02*
X0Y-38000000D01*
X0Y-38000000D02*
X14000000Y-38000000D01*
X-3500000Y-42200000D02*
X-3500000Y-45800000D01*
X0Y-57800000D02*
X-3500000Y-57800000D01*
X14000000Y-61500000D02*
X0Y-61500000D01*
X14000000Y-50000000D02*
X14000000Y-61500000D01*
X0Y-50000000D02*
X14000000Y-50000000D01*
X0Y-54200000D02*
X-3500000Y-54200000D01*
X0Y-61500000D02*
X0Y-50000000D01*
X-3500000Y-54200000D02*
X-3500000Y-57800000D01*
X0Y-62000000D02*
X14000000Y-62000000D01*
X14000000Y-73500000D02*
X0Y-73500000D01*
X0Y-73500000D02*
X0Y-62000000D01*
X0Y-69800000D02*
X-3500000Y-69800000D01*
X-3500000Y-66200000D02*
X-3500000Y-69800000D01*
X14000000Y-62000000D02*
X14000000Y-73500000D01*
X0Y-66200000D02*
X-3500000Y-66200000D01*
X14000000Y-74000000D02*
X14000000Y-85500000D01*
X-3500000Y-78200000D02*
X-3500000Y-81800000D01*
X0Y-81800000D02*
X-3500000Y-81800000D01*
X14000000Y-85500000D02*
X0Y-85500000D01*
X0Y-74000000D02*
X14000000Y-74000000D01*
X0Y-78200000D02*
X-3500000Y-78200000D01*
X0Y-85500000D02*
X0Y-74000000D01*
X0Y-97500000D02*
X0Y-86000000D01*
X0Y-90200000D02*
X-3500000Y-90200000D01*
X0Y-86000000D02*
X14000000Y-86000000D01*
X14000000Y-86000000D02*
X14000000Y-97500000D01*
X14000000Y-97500000D02*
X0Y-97500000D01*
X0Y-93800000D02*
X-3500000Y-93800000D01*
X-3500000Y-90200000D02*
X-3500000Y-93800000D01*
D11*
X21270000Y-42320000D02*
X23870000Y-42320000D01*
X18670000Y-57680000D02*
X23870000Y-57680000D01*
X21270000Y-44920000D02*
X21270000Y-42320000D01*
X23870000Y-42320000D02*
X23870000Y-57680000D01*
X18670000Y-44920000D02*
X18670000Y-57680000D01*
X18670000Y-43650000D02*
X18670000Y-42320000D01*
X18670000Y-44920000D02*
X21270000Y-44920000D01*
X18670000Y-42320000D02*
X20000000Y-42320000D01*
M02*
