G04 #@! TF.GenerationSoftware,KiCad,Pcbnew,(5.1.5)-3*
G04 #@! TF.CreationDate,2020-07-27T18:32:53-07:00*
G04 #@! TF.ProjectId,Patch_Bay,50617463-685f-4426-9179-2e6b69636164,rev?*
G04 #@! TF.SameCoordinates,Original*
G04 #@! TF.FileFunction,Copper,L2,Bot*
G04 #@! TF.FilePolarity,Positive*
%FSLAX46Y46*%
G04 Gerber Fmt 4.6, Leading zero omitted, Abs format (unit mm)*
G04 Created by KiCad (PCBNEW (5.1.5)-3) date 2020-07-27 18:32:53*
%MOMM*%
%LPD*%
G04 APERTURE LIST*
%ADD10R,1.000000X2.200000*%
%ADD11R,2.200000X1.000000*%
%ADD12O,1.700000X1.700000*%
%ADD13R,1.700000X1.700000*%
%ADD14C,0.254000*%
G04 APERTURE END LIST*
D10*
X2000000Y-8000000D03*
D11*
X5400000Y-12500000D03*
D10*
X13000000Y-12000000D03*
D11*
X8400000Y-5500000D03*
X9800000Y-2800000D03*
X9800000Y-14800000D03*
X8400000Y-17500000D03*
D10*
X13000000Y-24000000D03*
D11*
X5400000Y-24500000D03*
D10*
X2000000Y-20000000D03*
X2000000Y-32000000D03*
D11*
X5400000Y-36500000D03*
D10*
X13000000Y-36000000D03*
D11*
X8400000Y-29500000D03*
X9800000Y-26800000D03*
X9800000Y-38800000D03*
X8400000Y-41500000D03*
D10*
X13000000Y-48000000D03*
D11*
X5400000Y-48500000D03*
D10*
X2000000Y-44000000D03*
X2000000Y-56000000D03*
D11*
X5400000Y-60500000D03*
D10*
X13000000Y-60000000D03*
D11*
X8400000Y-53500000D03*
X9800000Y-50800000D03*
X9800000Y-62800000D03*
X8400000Y-65500000D03*
D10*
X13000000Y-72000000D03*
D11*
X5400000Y-72500000D03*
D10*
X2000000Y-68000000D03*
X2000000Y-80000000D03*
D11*
X5400000Y-84500000D03*
D10*
X13000000Y-84000000D03*
D11*
X8400000Y-77500000D03*
X9800000Y-74800000D03*
X9800000Y-86800000D03*
X8400000Y-89500000D03*
D10*
X13000000Y-96000000D03*
D11*
X5400000Y-96500000D03*
D10*
X2000000Y-92000000D03*
D12*
X22540000Y-56350000D03*
X20000000Y-56350000D03*
X22540000Y-53810000D03*
X20000000Y-53810000D03*
X22540000Y-51270000D03*
X20000000Y-51270000D03*
X22540000Y-48730000D03*
X20000000Y-48730000D03*
X22540000Y-46190000D03*
X20000000Y-46190000D03*
X22540000Y-43650000D03*
D13*
X20000000Y-43650000D03*
D14*
G36*
X24340001Y-99340000D02*
G01*
X660000Y-99340000D01*
X660000Y-96000000D01*
X3661928Y-96000000D01*
X3661928Y-97000000D01*
X3674188Y-97124482D01*
X3710498Y-97244180D01*
X3769463Y-97354494D01*
X3848815Y-97451185D01*
X3945506Y-97530537D01*
X4055820Y-97589502D01*
X4175518Y-97625812D01*
X4300000Y-97638072D01*
X6500000Y-97638072D01*
X6624482Y-97625812D01*
X6744180Y-97589502D01*
X6854494Y-97530537D01*
X6951185Y-97451185D01*
X7030537Y-97354494D01*
X7089502Y-97244180D01*
X7125812Y-97124482D01*
X7138072Y-97000000D01*
X7138072Y-96000000D01*
X7125812Y-95875518D01*
X7089502Y-95755820D01*
X7030537Y-95645506D01*
X6951185Y-95548815D01*
X6854494Y-95469463D01*
X6744180Y-95410498D01*
X6624482Y-95374188D01*
X6500000Y-95361928D01*
X4300000Y-95361928D01*
X4175518Y-95374188D01*
X4055820Y-95410498D01*
X3945506Y-95469463D01*
X3848815Y-95548815D01*
X3769463Y-95645506D01*
X3710498Y-95755820D01*
X3674188Y-95875518D01*
X3661928Y-96000000D01*
X660000Y-96000000D01*
X660000Y-94900000D01*
X11861928Y-94900000D01*
X11861928Y-97100000D01*
X11874188Y-97224482D01*
X11910498Y-97344180D01*
X11969463Y-97454494D01*
X12048815Y-97551185D01*
X12145506Y-97630537D01*
X12255820Y-97689502D01*
X12375518Y-97725812D01*
X12500000Y-97738072D01*
X13500000Y-97738072D01*
X13624482Y-97725812D01*
X13744180Y-97689502D01*
X13854494Y-97630537D01*
X13951185Y-97551185D01*
X14030537Y-97454494D01*
X14089502Y-97344180D01*
X14125812Y-97224482D01*
X14138072Y-97100000D01*
X14138072Y-94900000D01*
X14125812Y-94775518D01*
X14089502Y-94655820D01*
X14030537Y-94545506D01*
X13951185Y-94448815D01*
X13854494Y-94369463D01*
X13744180Y-94310498D01*
X13624482Y-94274188D01*
X13500000Y-94261928D01*
X12500000Y-94261928D01*
X12375518Y-94274188D01*
X12255820Y-94310498D01*
X12145506Y-94369463D01*
X12048815Y-94448815D01*
X11969463Y-94545506D01*
X11910498Y-94655820D01*
X11874188Y-94775518D01*
X11861928Y-94900000D01*
X660000Y-94900000D01*
X660000Y-93100000D01*
X861928Y-93100000D01*
X874188Y-93224482D01*
X910498Y-93344180D01*
X969463Y-93454494D01*
X1048815Y-93551185D01*
X1145506Y-93630537D01*
X1255820Y-93689502D01*
X1375518Y-93725812D01*
X1500000Y-93738072D01*
X1714250Y-93735000D01*
X1873000Y-93576250D01*
X1873000Y-92127000D01*
X2127000Y-92127000D01*
X2127000Y-93576250D01*
X2285750Y-93735000D01*
X2500000Y-93738072D01*
X2624482Y-93725812D01*
X2744180Y-93689502D01*
X2854494Y-93630537D01*
X2951185Y-93551185D01*
X3030537Y-93454494D01*
X3089502Y-93344180D01*
X3125812Y-93224482D01*
X3138072Y-93100000D01*
X3135000Y-92285750D01*
X2976250Y-92127000D01*
X2127000Y-92127000D01*
X1873000Y-92127000D01*
X1023750Y-92127000D01*
X865000Y-92285750D01*
X861928Y-93100000D01*
X660000Y-93100000D01*
X660000Y-90900000D01*
X861928Y-90900000D01*
X865000Y-91714250D01*
X1023750Y-91873000D01*
X1873000Y-91873000D01*
X1873000Y-90423750D01*
X2127000Y-90423750D01*
X2127000Y-91873000D01*
X2976250Y-91873000D01*
X3135000Y-91714250D01*
X3138072Y-90900000D01*
X3125812Y-90775518D01*
X3089502Y-90655820D01*
X3030537Y-90545506D01*
X2951185Y-90448815D01*
X2854494Y-90369463D01*
X2744180Y-90310498D01*
X2624482Y-90274188D01*
X2500000Y-90261928D01*
X2285750Y-90265000D01*
X2127000Y-90423750D01*
X1873000Y-90423750D01*
X1714250Y-90265000D01*
X1500000Y-90261928D01*
X1375518Y-90274188D01*
X1255820Y-90310498D01*
X1145506Y-90369463D01*
X1048815Y-90448815D01*
X969463Y-90545506D01*
X910498Y-90655820D01*
X874188Y-90775518D01*
X861928Y-90900000D01*
X660000Y-90900000D01*
X660000Y-89000000D01*
X6661928Y-89000000D01*
X6661928Y-90000000D01*
X6674188Y-90124482D01*
X6710498Y-90244180D01*
X6769463Y-90354494D01*
X6848815Y-90451185D01*
X6945506Y-90530537D01*
X7055820Y-90589502D01*
X7175518Y-90625812D01*
X7300000Y-90638072D01*
X9500000Y-90638072D01*
X9624482Y-90625812D01*
X9744180Y-90589502D01*
X9854494Y-90530537D01*
X9951185Y-90451185D01*
X10030537Y-90354494D01*
X10089502Y-90244180D01*
X10125812Y-90124482D01*
X10138072Y-90000000D01*
X10138072Y-89000000D01*
X10125812Y-88875518D01*
X10089502Y-88755820D01*
X10030537Y-88645506D01*
X9951185Y-88548815D01*
X9854494Y-88469463D01*
X9744180Y-88410498D01*
X9624482Y-88374188D01*
X9500000Y-88361928D01*
X7300000Y-88361928D01*
X7175518Y-88374188D01*
X7055820Y-88410498D01*
X6945506Y-88469463D01*
X6848815Y-88548815D01*
X6769463Y-88645506D01*
X6710498Y-88755820D01*
X6674188Y-88875518D01*
X6661928Y-89000000D01*
X660000Y-89000000D01*
X660000Y-86300000D01*
X8061928Y-86300000D01*
X8061928Y-87300000D01*
X8074188Y-87424482D01*
X8110498Y-87544180D01*
X8169463Y-87654494D01*
X8248815Y-87751185D01*
X8345506Y-87830537D01*
X8455820Y-87889502D01*
X8575518Y-87925812D01*
X8700000Y-87938072D01*
X10900000Y-87938072D01*
X11024482Y-87925812D01*
X11144180Y-87889502D01*
X11254494Y-87830537D01*
X11351185Y-87751185D01*
X11430537Y-87654494D01*
X11489502Y-87544180D01*
X11525812Y-87424482D01*
X11538072Y-87300000D01*
X11538072Y-86300000D01*
X11525812Y-86175518D01*
X11489502Y-86055820D01*
X11430537Y-85945506D01*
X11351185Y-85848815D01*
X11254494Y-85769463D01*
X11144180Y-85710498D01*
X11024482Y-85674188D01*
X10900000Y-85661928D01*
X8700000Y-85661928D01*
X8575518Y-85674188D01*
X8455820Y-85710498D01*
X8345506Y-85769463D01*
X8248815Y-85848815D01*
X8169463Y-85945506D01*
X8110498Y-86055820D01*
X8074188Y-86175518D01*
X8061928Y-86300000D01*
X660000Y-86300000D01*
X660000Y-84000000D01*
X3661928Y-84000000D01*
X3661928Y-85000000D01*
X3674188Y-85124482D01*
X3710498Y-85244180D01*
X3769463Y-85354494D01*
X3848815Y-85451185D01*
X3945506Y-85530537D01*
X4055820Y-85589502D01*
X4175518Y-85625812D01*
X4300000Y-85638072D01*
X6500000Y-85638072D01*
X6624482Y-85625812D01*
X6744180Y-85589502D01*
X6854494Y-85530537D01*
X6951185Y-85451185D01*
X7030537Y-85354494D01*
X7089502Y-85244180D01*
X7125812Y-85124482D01*
X7138072Y-85000000D01*
X7138072Y-84000000D01*
X7125812Y-83875518D01*
X7089502Y-83755820D01*
X7030537Y-83645506D01*
X6951185Y-83548815D01*
X6854494Y-83469463D01*
X6744180Y-83410498D01*
X6624482Y-83374188D01*
X6500000Y-83361928D01*
X4300000Y-83361928D01*
X4175518Y-83374188D01*
X4055820Y-83410498D01*
X3945506Y-83469463D01*
X3848815Y-83548815D01*
X3769463Y-83645506D01*
X3710498Y-83755820D01*
X3674188Y-83875518D01*
X3661928Y-84000000D01*
X660000Y-84000000D01*
X660000Y-82900000D01*
X11861928Y-82900000D01*
X11861928Y-85100000D01*
X11874188Y-85224482D01*
X11910498Y-85344180D01*
X11969463Y-85454494D01*
X12048815Y-85551185D01*
X12145506Y-85630537D01*
X12255820Y-85689502D01*
X12375518Y-85725812D01*
X12500000Y-85738072D01*
X13500000Y-85738072D01*
X13624482Y-85725812D01*
X13744180Y-85689502D01*
X13854494Y-85630537D01*
X13951185Y-85551185D01*
X14030537Y-85454494D01*
X14089502Y-85344180D01*
X14125812Y-85224482D01*
X14138072Y-85100000D01*
X14138072Y-82900000D01*
X14125812Y-82775518D01*
X14089502Y-82655820D01*
X14030537Y-82545506D01*
X13951185Y-82448815D01*
X13854494Y-82369463D01*
X13744180Y-82310498D01*
X13624482Y-82274188D01*
X13500000Y-82261928D01*
X12500000Y-82261928D01*
X12375518Y-82274188D01*
X12255820Y-82310498D01*
X12145506Y-82369463D01*
X12048815Y-82448815D01*
X11969463Y-82545506D01*
X11910498Y-82655820D01*
X11874188Y-82775518D01*
X11861928Y-82900000D01*
X660000Y-82900000D01*
X660000Y-81100000D01*
X861928Y-81100000D01*
X874188Y-81224482D01*
X910498Y-81344180D01*
X969463Y-81454494D01*
X1048815Y-81551185D01*
X1145506Y-81630537D01*
X1255820Y-81689502D01*
X1375518Y-81725812D01*
X1500000Y-81738072D01*
X1714250Y-81735000D01*
X1873000Y-81576250D01*
X1873000Y-80127000D01*
X2127000Y-80127000D01*
X2127000Y-81576250D01*
X2285750Y-81735000D01*
X2500000Y-81738072D01*
X2624482Y-81725812D01*
X2744180Y-81689502D01*
X2854494Y-81630537D01*
X2951185Y-81551185D01*
X3030537Y-81454494D01*
X3089502Y-81344180D01*
X3125812Y-81224482D01*
X3138072Y-81100000D01*
X3135000Y-80285750D01*
X2976250Y-80127000D01*
X2127000Y-80127000D01*
X1873000Y-80127000D01*
X1023750Y-80127000D01*
X865000Y-80285750D01*
X861928Y-81100000D01*
X660000Y-81100000D01*
X660000Y-78900000D01*
X861928Y-78900000D01*
X865000Y-79714250D01*
X1023750Y-79873000D01*
X1873000Y-79873000D01*
X1873000Y-78423750D01*
X2127000Y-78423750D01*
X2127000Y-79873000D01*
X2976250Y-79873000D01*
X3135000Y-79714250D01*
X3138072Y-78900000D01*
X3125812Y-78775518D01*
X3089502Y-78655820D01*
X3030537Y-78545506D01*
X2951185Y-78448815D01*
X2854494Y-78369463D01*
X2744180Y-78310498D01*
X2624482Y-78274188D01*
X2500000Y-78261928D01*
X2285750Y-78265000D01*
X2127000Y-78423750D01*
X1873000Y-78423750D01*
X1714250Y-78265000D01*
X1500000Y-78261928D01*
X1375518Y-78274188D01*
X1255820Y-78310498D01*
X1145506Y-78369463D01*
X1048815Y-78448815D01*
X969463Y-78545506D01*
X910498Y-78655820D01*
X874188Y-78775518D01*
X861928Y-78900000D01*
X660000Y-78900000D01*
X660000Y-77000000D01*
X6661928Y-77000000D01*
X6661928Y-78000000D01*
X6674188Y-78124482D01*
X6710498Y-78244180D01*
X6769463Y-78354494D01*
X6848815Y-78451185D01*
X6945506Y-78530537D01*
X7055820Y-78589502D01*
X7175518Y-78625812D01*
X7300000Y-78638072D01*
X9500000Y-78638072D01*
X9624482Y-78625812D01*
X9744180Y-78589502D01*
X9854494Y-78530537D01*
X9951185Y-78451185D01*
X10030537Y-78354494D01*
X10089502Y-78244180D01*
X10125812Y-78124482D01*
X10138072Y-78000000D01*
X10138072Y-77000000D01*
X10125812Y-76875518D01*
X10089502Y-76755820D01*
X10030537Y-76645506D01*
X9951185Y-76548815D01*
X9854494Y-76469463D01*
X9744180Y-76410498D01*
X9624482Y-76374188D01*
X9500000Y-76361928D01*
X7300000Y-76361928D01*
X7175518Y-76374188D01*
X7055820Y-76410498D01*
X6945506Y-76469463D01*
X6848815Y-76548815D01*
X6769463Y-76645506D01*
X6710498Y-76755820D01*
X6674188Y-76875518D01*
X6661928Y-77000000D01*
X660000Y-77000000D01*
X660000Y-74300000D01*
X8061928Y-74300000D01*
X8061928Y-75300000D01*
X8074188Y-75424482D01*
X8110498Y-75544180D01*
X8169463Y-75654494D01*
X8248815Y-75751185D01*
X8345506Y-75830537D01*
X8455820Y-75889502D01*
X8575518Y-75925812D01*
X8700000Y-75938072D01*
X10900000Y-75938072D01*
X11024482Y-75925812D01*
X11144180Y-75889502D01*
X11254494Y-75830537D01*
X11351185Y-75751185D01*
X11430537Y-75654494D01*
X11489502Y-75544180D01*
X11525812Y-75424482D01*
X11538072Y-75300000D01*
X11538072Y-74300000D01*
X11525812Y-74175518D01*
X11489502Y-74055820D01*
X11430537Y-73945506D01*
X11351185Y-73848815D01*
X11254494Y-73769463D01*
X11144180Y-73710498D01*
X11024482Y-73674188D01*
X10900000Y-73661928D01*
X8700000Y-73661928D01*
X8575518Y-73674188D01*
X8455820Y-73710498D01*
X8345506Y-73769463D01*
X8248815Y-73848815D01*
X8169463Y-73945506D01*
X8110498Y-74055820D01*
X8074188Y-74175518D01*
X8061928Y-74300000D01*
X660000Y-74300000D01*
X660000Y-72000000D01*
X3661928Y-72000000D01*
X3661928Y-73000000D01*
X3674188Y-73124482D01*
X3710498Y-73244180D01*
X3769463Y-73354494D01*
X3848815Y-73451185D01*
X3945506Y-73530537D01*
X4055820Y-73589502D01*
X4175518Y-73625812D01*
X4300000Y-73638072D01*
X6500000Y-73638072D01*
X6624482Y-73625812D01*
X6744180Y-73589502D01*
X6854494Y-73530537D01*
X6951185Y-73451185D01*
X7030537Y-73354494D01*
X7089502Y-73244180D01*
X7125812Y-73124482D01*
X7138072Y-73000000D01*
X7138072Y-72000000D01*
X7125812Y-71875518D01*
X7089502Y-71755820D01*
X7030537Y-71645506D01*
X6951185Y-71548815D01*
X6854494Y-71469463D01*
X6744180Y-71410498D01*
X6624482Y-71374188D01*
X6500000Y-71361928D01*
X4300000Y-71361928D01*
X4175518Y-71374188D01*
X4055820Y-71410498D01*
X3945506Y-71469463D01*
X3848815Y-71548815D01*
X3769463Y-71645506D01*
X3710498Y-71755820D01*
X3674188Y-71875518D01*
X3661928Y-72000000D01*
X660000Y-72000000D01*
X660000Y-70900000D01*
X11861928Y-70900000D01*
X11861928Y-73100000D01*
X11874188Y-73224482D01*
X11910498Y-73344180D01*
X11969463Y-73454494D01*
X12048815Y-73551185D01*
X12145506Y-73630537D01*
X12255820Y-73689502D01*
X12375518Y-73725812D01*
X12500000Y-73738072D01*
X13500000Y-73738072D01*
X13624482Y-73725812D01*
X13744180Y-73689502D01*
X13854494Y-73630537D01*
X13951185Y-73551185D01*
X14030537Y-73454494D01*
X14089502Y-73344180D01*
X14125812Y-73224482D01*
X14138072Y-73100000D01*
X14138072Y-70900000D01*
X14125812Y-70775518D01*
X14089502Y-70655820D01*
X14030537Y-70545506D01*
X13951185Y-70448815D01*
X13854494Y-70369463D01*
X13744180Y-70310498D01*
X13624482Y-70274188D01*
X13500000Y-70261928D01*
X12500000Y-70261928D01*
X12375518Y-70274188D01*
X12255820Y-70310498D01*
X12145506Y-70369463D01*
X12048815Y-70448815D01*
X11969463Y-70545506D01*
X11910498Y-70655820D01*
X11874188Y-70775518D01*
X11861928Y-70900000D01*
X660000Y-70900000D01*
X660000Y-69100000D01*
X861928Y-69100000D01*
X874188Y-69224482D01*
X910498Y-69344180D01*
X969463Y-69454494D01*
X1048815Y-69551185D01*
X1145506Y-69630537D01*
X1255820Y-69689502D01*
X1375518Y-69725812D01*
X1500000Y-69738072D01*
X1714250Y-69735000D01*
X1873000Y-69576250D01*
X1873000Y-68127000D01*
X2127000Y-68127000D01*
X2127000Y-69576250D01*
X2285750Y-69735000D01*
X2500000Y-69738072D01*
X2624482Y-69725812D01*
X2744180Y-69689502D01*
X2854494Y-69630537D01*
X2951185Y-69551185D01*
X3030537Y-69454494D01*
X3089502Y-69344180D01*
X3125812Y-69224482D01*
X3138072Y-69100000D01*
X3135000Y-68285750D01*
X2976250Y-68127000D01*
X2127000Y-68127000D01*
X1873000Y-68127000D01*
X1023750Y-68127000D01*
X865000Y-68285750D01*
X861928Y-69100000D01*
X660000Y-69100000D01*
X660000Y-66900000D01*
X861928Y-66900000D01*
X865000Y-67714250D01*
X1023750Y-67873000D01*
X1873000Y-67873000D01*
X1873000Y-66423750D01*
X2127000Y-66423750D01*
X2127000Y-67873000D01*
X2976250Y-67873000D01*
X3135000Y-67714250D01*
X3138072Y-66900000D01*
X3125812Y-66775518D01*
X3089502Y-66655820D01*
X3030537Y-66545506D01*
X2951185Y-66448815D01*
X2854494Y-66369463D01*
X2744180Y-66310498D01*
X2624482Y-66274188D01*
X2500000Y-66261928D01*
X2285750Y-66265000D01*
X2127000Y-66423750D01*
X1873000Y-66423750D01*
X1714250Y-66265000D01*
X1500000Y-66261928D01*
X1375518Y-66274188D01*
X1255820Y-66310498D01*
X1145506Y-66369463D01*
X1048815Y-66448815D01*
X969463Y-66545506D01*
X910498Y-66655820D01*
X874188Y-66775518D01*
X861928Y-66900000D01*
X660000Y-66900000D01*
X660000Y-65000000D01*
X6661928Y-65000000D01*
X6661928Y-66000000D01*
X6674188Y-66124482D01*
X6710498Y-66244180D01*
X6769463Y-66354494D01*
X6848815Y-66451185D01*
X6945506Y-66530537D01*
X7055820Y-66589502D01*
X7175518Y-66625812D01*
X7300000Y-66638072D01*
X9500000Y-66638072D01*
X9624482Y-66625812D01*
X9744180Y-66589502D01*
X9854494Y-66530537D01*
X9951185Y-66451185D01*
X10030537Y-66354494D01*
X10089502Y-66244180D01*
X10125812Y-66124482D01*
X10138072Y-66000000D01*
X10138072Y-65000000D01*
X10125812Y-64875518D01*
X10089502Y-64755820D01*
X10030537Y-64645506D01*
X9951185Y-64548815D01*
X9854494Y-64469463D01*
X9744180Y-64410498D01*
X9624482Y-64374188D01*
X9500000Y-64361928D01*
X7300000Y-64361928D01*
X7175518Y-64374188D01*
X7055820Y-64410498D01*
X6945506Y-64469463D01*
X6848815Y-64548815D01*
X6769463Y-64645506D01*
X6710498Y-64755820D01*
X6674188Y-64875518D01*
X6661928Y-65000000D01*
X660000Y-65000000D01*
X660000Y-62300000D01*
X8061928Y-62300000D01*
X8061928Y-63300000D01*
X8074188Y-63424482D01*
X8110498Y-63544180D01*
X8169463Y-63654494D01*
X8248815Y-63751185D01*
X8345506Y-63830537D01*
X8455820Y-63889502D01*
X8575518Y-63925812D01*
X8700000Y-63938072D01*
X10900000Y-63938072D01*
X11024482Y-63925812D01*
X11144180Y-63889502D01*
X11254494Y-63830537D01*
X11351185Y-63751185D01*
X11430537Y-63654494D01*
X11489502Y-63544180D01*
X11525812Y-63424482D01*
X11538072Y-63300000D01*
X11538072Y-62300000D01*
X11525812Y-62175518D01*
X11489502Y-62055820D01*
X11430537Y-61945506D01*
X11351185Y-61848815D01*
X11254494Y-61769463D01*
X11144180Y-61710498D01*
X11024482Y-61674188D01*
X10900000Y-61661928D01*
X8700000Y-61661928D01*
X8575518Y-61674188D01*
X8455820Y-61710498D01*
X8345506Y-61769463D01*
X8248815Y-61848815D01*
X8169463Y-61945506D01*
X8110498Y-62055820D01*
X8074188Y-62175518D01*
X8061928Y-62300000D01*
X660000Y-62300000D01*
X660000Y-60000000D01*
X3661928Y-60000000D01*
X3661928Y-61000000D01*
X3674188Y-61124482D01*
X3710498Y-61244180D01*
X3769463Y-61354494D01*
X3848815Y-61451185D01*
X3945506Y-61530537D01*
X4055820Y-61589502D01*
X4175518Y-61625812D01*
X4300000Y-61638072D01*
X6500000Y-61638072D01*
X6624482Y-61625812D01*
X6744180Y-61589502D01*
X6854494Y-61530537D01*
X6951185Y-61451185D01*
X7030537Y-61354494D01*
X7089502Y-61244180D01*
X7125812Y-61124482D01*
X7138072Y-61000000D01*
X7138072Y-60000000D01*
X7125812Y-59875518D01*
X7089502Y-59755820D01*
X7030537Y-59645506D01*
X6951185Y-59548815D01*
X6854494Y-59469463D01*
X6744180Y-59410498D01*
X6624482Y-59374188D01*
X6500000Y-59361928D01*
X4300000Y-59361928D01*
X4175518Y-59374188D01*
X4055820Y-59410498D01*
X3945506Y-59469463D01*
X3848815Y-59548815D01*
X3769463Y-59645506D01*
X3710498Y-59755820D01*
X3674188Y-59875518D01*
X3661928Y-60000000D01*
X660000Y-60000000D01*
X660000Y-58900000D01*
X11861928Y-58900000D01*
X11861928Y-61100000D01*
X11874188Y-61224482D01*
X11910498Y-61344180D01*
X11969463Y-61454494D01*
X12048815Y-61551185D01*
X12145506Y-61630537D01*
X12255820Y-61689502D01*
X12375518Y-61725812D01*
X12500000Y-61738072D01*
X13500000Y-61738072D01*
X13624482Y-61725812D01*
X13744180Y-61689502D01*
X13854494Y-61630537D01*
X13951185Y-61551185D01*
X14030537Y-61454494D01*
X14089502Y-61344180D01*
X14125812Y-61224482D01*
X14138072Y-61100000D01*
X14138072Y-58900000D01*
X14125812Y-58775518D01*
X14089502Y-58655820D01*
X14030537Y-58545506D01*
X13951185Y-58448815D01*
X13854494Y-58369463D01*
X13744180Y-58310498D01*
X13624482Y-58274188D01*
X13500000Y-58261928D01*
X12500000Y-58261928D01*
X12375518Y-58274188D01*
X12255820Y-58310498D01*
X12145506Y-58369463D01*
X12048815Y-58448815D01*
X11969463Y-58545506D01*
X11910498Y-58655820D01*
X11874188Y-58775518D01*
X11861928Y-58900000D01*
X660000Y-58900000D01*
X660000Y-57100000D01*
X861928Y-57100000D01*
X874188Y-57224482D01*
X910498Y-57344180D01*
X969463Y-57454494D01*
X1048815Y-57551185D01*
X1145506Y-57630537D01*
X1255820Y-57689502D01*
X1375518Y-57725812D01*
X1500000Y-57738072D01*
X1714250Y-57735000D01*
X1873000Y-57576250D01*
X1873000Y-56127000D01*
X2127000Y-56127000D01*
X2127000Y-57576250D01*
X2285750Y-57735000D01*
X2500000Y-57738072D01*
X2624482Y-57725812D01*
X2744180Y-57689502D01*
X2854494Y-57630537D01*
X2951185Y-57551185D01*
X3030537Y-57454494D01*
X3089502Y-57344180D01*
X3125812Y-57224482D01*
X3138072Y-57100000D01*
X3136589Y-56706890D01*
X18558524Y-56706890D01*
X18603175Y-56854099D01*
X18728359Y-57116920D01*
X18902412Y-57350269D01*
X19118645Y-57545178D01*
X19368748Y-57694157D01*
X19643109Y-57791481D01*
X19873000Y-57670814D01*
X19873000Y-56477000D01*
X20127000Y-56477000D01*
X20127000Y-57670814D01*
X20356891Y-57791481D01*
X20631252Y-57694157D01*
X20881355Y-57545178D01*
X21097588Y-57350269D01*
X21270000Y-57119120D01*
X21442412Y-57350269D01*
X21658645Y-57545178D01*
X21908748Y-57694157D01*
X22183109Y-57791481D01*
X22413000Y-57670814D01*
X22413000Y-56477000D01*
X22667000Y-56477000D01*
X22667000Y-57670814D01*
X22896891Y-57791481D01*
X23171252Y-57694157D01*
X23421355Y-57545178D01*
X23637588Y-57350269D01*
X23811641Y-57116920D01*
X23936825Y-56854099D01*
X23981476Y-56706890D01*
X23860155Y-56477000D01*
X22667000Y-56477000D01*
X22413000Y-56477000D01*
X20127000Y-56477000D01*
X19873000Y-56477000D01*
X18679845Y-56477000D01*
X18558524Y-56706890D01*
X3136589Y-56706890D01*
X3135000Y-56285750D01*
X2976250Y-56127000D01*
X2127000Y-56127000D01*
X1873000Y-56127000D01*
X1023750Y-56127000D01*
X865000Y-56285750D01*
X861928Y-57100000D01*
X660000Y-57100000D01*
X660000Y-54900000D01*
X861928Y-54900000D01*
X865000Y-55714250D01*
X1023750Y-55873000D01*
X1873000Y-55873000D01*
X1873000Y-54423750D01*
X2127000Y-54423750D01*
X2127000Y-55873000D01*
X2976250Y-55873000D01*
X3135000Y-55714250D01*
X3138072Y-54900000D01*
X3125812Y-54775518D01*
X3089502Y-54655820D01*
X3030537Y-54545506D01*
X2951185Y-54448815D01*
X2854494Y-54369463D01*
X2744180Y-54310498D01*
X2624482Y-54274188D01*
X2500000Y-54261928D01*
X2285750Y-54265000D01*
X2127000Y-54423750D01*
X1873000Y-54423750D01*
X1714250Y-54265000D01*
X1500000Y-54261928D01*
X1375518Y-54274188D01*
X1255820Y-54310498D01*
X1145506Y-54369463D01*
X1048815Y-54448815D01*
X969463Y-54545506D01*
X910498Y-54655820D01*
X874188Y-54775518D01*
X861928Y-54900000D01*
X660000Y-54900000D01*
X660000Y-53000000D01*
X6661928Y-53000000D01*
X6661928Y-54000000D01*
X6674188Y-54124482D01*
X6710498Y-54244180D01*
X6769463Y-54354494D01*
X6848815Y-54451185D01*
X6945506Y-54530537D01*
X7055820Y-54589502D01*
X7175518Y-54625812D01*
X7300000Y-54638072D01*
X9500000Y-54638072D01*
X9624482Y-54625812D01*
X9744180Y-54589502D01*
X9854494Y-54530537D01*
X9951185Y-54451185D01*
X10030537Y-54354494D01*
X10089502Y-54244180D01*
X10125812Y-54124482D01*
X10138072Y-54000000D01*
X10138072Y-53000000D01*
X10125812Y-52875518D01*
X10089502Y-52755820D01*
X10030537Y-52645506D01*
X9951185Y-52548815D01*
X9854494Y-52469463D01*
X9744180Y-52410498D01*
X9624482Y-52374188D01*
X9500000Y-52361928D01*
X7300000Y-52361928D01*
X7175518Y-52374188D01*
X7055820Y-52410498D01*
X6945506Y-52469463D01*
X6848815Y-52548815D01*
X6769463Y-52645506D01*
X6710498Y-52755820D01*
X6674188Y-52875518D01*
X6661928Y-53000000D01*
X660000Y-53000000D01*
X660000Y-50300000D01*
X8061928Y-50300000D01*
X8061928Y-51300000D01*
X8074188Y-51424482D01*
X8110498Y-51544180D01*
X8169463Y-51654494D01*
X8248815Y-51751185D01*
X8345506Y-51830537D01*
X8455820Y-51889502D01*
X8575518Y-51925812D01*
X8700000Y-51938072D01*
X10900000Y-51938072D01*
X11024482Y-51925812D01*
X11144180Y-51889502D01*
X11254494Y-51830537D01*
X11351185Y-51751185D01*
X11430537Y-51654494D01*
X11489502Y-51544180D01*
X11525812Y-51424482D01*
X11538072Y-51300000D01*
X11538072Y-50300000D01*
X11525812Y-50175518D01*
X11489502Y-50055820D01*
X11430537Y-49945506D01*
X11351185Y-49848815D01*
X11254494Y-49769463D01*
X11144180Y-49710498D01*
X11024482Y-49674188D01*
X10900000Y-49661928D01*
X8700000Y-49661928D01*
X8575518Y-49674188D01*
X8455820Y-49710498D01*
X8345506Y-49769463D01*
X8248815Y-49848815D01*
X8169463Y-49945506D01*
X8110498Y-50055820D01*
X8074188Y-50175518D01*
X8061928Y-50300000D01*
X660000Y-50300000D01*
X660000Y-48000000D01*
X3661928Y-48000000D01*
X3661928Y-49000000D01*
X3674188Y-49124482D01*
X3710498Y-49244180D01*
X3769463Y-49354494D01*
X3848815Y-49451185D01*
X3945506Y-49530537D01*
X4055820Y-49589502D01*
X4175518Y-49625812D01*
X4300000Y-49638072D01*
X6500000Y-49638072D01*
X6624482Y-49625812D01*
X6744180Y-49589502D01*
X6854494Y-49530537D01*
X6951185Y-49451185D01*
X7030537Y-49354494D01*
X7089502Y-49244180D01*
X7125812Y-49124482D01*
X7138072Y-49000000D01*
X7138072Y-48000000D01*
X7125812Y-47875518D01*
X7089502Y-47755820D01*
X7030537Y-47645506D01*
X6951185Y-47548815D01*
X6854494Y-47469463D01*
X6744180Y-47410498D01*
X6624482Y-47374188D01*
X6500000Y-47361928D01*
X4300000Y-47361928D01*
X4175518Y-47374188D01*
X4055820Y-47410498D01*
X3945506Y-47469463D01*
X3848815Y-47548815D01*
X3769463Y-47645506D01*
X3710498Y-47755820D01*
X3674188Y-47875518D01*
X3661928Y-48000000D01*
X660000Y-48000000D01*
X660000Y-46900000D01*
X11861928Y-46900000D01*
X11861928Y-49100000D01*
X11874188Y-49224482D01*
X11910498Y-49344180D01*
X11969463Y-49454494D01*
X12048815Y-49551185D01*
X12145506Y-49630537D01*
X12255820Y-49689502D01*
X12375518Y-49725812D01*
X12500000Y-49738072D01*
X13500000Y-49738072D01*
X13624482Y-49725812D01*
X13744180Y-49689502D01*
X13854494Y-49630537D01*
X13951185Y-49551185D01*
X14030537Y-49454494D01*
X14089502Y-49344180D01*
X14125812Y-49224482D01*
X14138072Y-49100000D01*
X14138072Y-46900000D01*
X14125812Y-46775518D01*
X14089502Y-46655820D01*
X14030537Y-46545506D01*
X13951185Y-46448815D01*
X13854494Y-46369463D01*
X13744180Y-46310498D01*
X13624482Y-46274188D01*
X13500000Y-46261928D01*
X12500000Y-46261928D01*
X12375518Y-46274188D01*
X12255820Y-46310498D01*
X12145506Y-46369463D01*
X12048815Y-46448815D01*
X11969463Y-46545506D01*
X11910498Y-46655820D01*
X11874188Y-46775518D01*
X11861928Y-46900000D01*
X660000Y-46900000D01*
X660000Y-45100000D01*
X861928Y-45100000D01*
X874188Y-45224482D01*
X910498Y-45344180D01*
X969463Y-45454494D01*
X1048815Y-45551185D01*
X1145506Y-45630537D01*
X1255820Y-45689502D01*
X1375518Y-45725812D01*
X1500000Y-45738072D01*
X1714250Y-45735000D01*
X1873000Y-45576250D01*
X1873000Y-44127000D01*
X2127000Y-44127000D01*
X2127000Y-45576250D01*
X2285750Y-45735000D01*
X2500000Y-45738072D01*
X2624482Y-45725812D01*
X2744180Y-45689502D01*
X2854494Y-45630537D01*
X2951185Y-45551185D01*
X3030537Y-45454494D01*
X3089502Y-45344180D01*
X3125812Y-45224482D01*
X3138072Y-45100000D01*
X3135809Y-44500000D01*
X18511928Y-44500000D01*
X18524188Y-44624482D01*
X18560498Y-44744180D01*
X18619463Y-44854494D01*
X18698815Y-44951185D01*
X18795506Y-45030537D01*
X18905820Y-45089502D01*
X18978380Y-45111513D01*
X18846525Y-45243368D01*
X18684010Y-45486589D01*
X18572068Y-45756842D01*
X18515000Y-46043740D01*
X18515000Y-46336260D01*
X18572068Y-46623158D01*
X18684010Y-46893411D01*
X18846525Y-47136632D01*
X19053368Y-47343475D01*
X19227760Y-47460000D01*
X19053368Y-47576525D01*
X18846525Y-47783368D01*
X18684010Y-48026589D01*
X18572068Y-48296842D01*
X18515000Y-48583740D01*
X18515000Y-48876260D01*
X18572068Y-49163158D01*
X18684010Y-49433411D01*
X18846525Y-49676632D01*
X19053368Y-49883475D01*
X19227760Y-50000000D01*
X19053368Y-50116525D01*
X18846525Y-50323368D01*
X18684010Y-50566589D01*
X18572068Y-50836842D01*
X18515000Y-51123740D01*
X18515000Y-51416260D01*
X18572068Y-51703158D01*
X18684010Y-51973411D01*
X18846525Y-52216632D01*
X19053368Y-52423475D01*
X19227760Y-52540000D01*
X19053368Y-52656525D01*
X18846525Y-52863368D01*
X18684010Y-53106589D01*
X18572068Y-53376842D01*
X18515000Y-53663740D01*
X18515000Y-53956260D01*
X18572068Y-54243158D01*
X18684010Y-54513411D01*
X18846525Y-54756632D01*
X19053368Y-54963475D01*
X19235534Y-55085195D01*
X19118645Y-55154822D01*
X18902412Y-55349731D01*
X18728359Y-55583080D01*
X18603175Y-55845901D01*
X18558524Y-55993110D01*
X18679845Y-56223000D01*
X19873000Y-56223000D01*
X19873000Y-56203000D01*
X20127000Y-56203000D01*
X20127000Y-56223000D01*
X22413000Y-56223000D01*
X22413000Y-56203000D01*
X22667000Y-56203000D01*
X22667000Y-56223000D01*
X23860155Y-56223000D01*
X23981476Y-55993110D01*
X23936825Y-55845901D01*
X23811641Y-55583080D01*
X23637588Y-55349731D01*
X23421355Y-55154822D01*
X23304466Y-55085195D01*
X23486632Y-54963475D01*
X23693475Y-54756632D01*
X23855990Y-54513411D01*
X23967932Y-54243158D01*
X24025000Y-53956260D01*
X24025000Y-53663740D01*
X23967932Y-53376842D01*
X23855990Y-53106589D01*
X23693475Y-52863368D01*
X23486632Y-52656525D01*
X23312240Y-52540000D01*
X23486632Y-52423475D01*
X23693475Y-52216632D01*
X23855990Y-51973411D01*
X23967932Y-51703158D01*
X24025000Y-51416260D01*
X24025000Y-51123740D01*
X23967932Y-50836842D01*
X23855990Y-50566589D01*
X23693475Y-50323368D01*
X23486632Y-50116525D01*
X23312240Y-50000000D01*
X23486632Y-49883475D01*
X23693475Y-49676632D01*
X23855990Y-49433411D01*
X23967932Y-49163158D01*
X24025000Y-48876260D01*
X24025000Y-48583740D01*
X23967932Y-48296842D01*
X23855990Y-48026589D01*
X23693475Y-47783368D01*
X23486632Y-47576525D01*
X23312240Y-47460000D01*
X23486632Y-47343475D01*
X23693475Y-47136632D01*
X23855990Y-46893411D01*
X23967932Y-46623158D01*
X24025000Y-46336260D01*
X24025000Y-46043740D01*
X23967932Y-45756842D01*
X23855990Y-45486589D01*
X23693475Y-45243368D01*
X23486632Y-45036525D01*
X23304466Y-44914805D01*
X23421355Y-44845178D01*
X23637588Y-44650269D01*
X23811641Y-44416920D01*
X23936825Y-44154099D01*
X23981476Y-44006890D01*
X23860155Y-43777000D01*
X22667000Y-43777000D01*
X22667000Y-43797000D01*
X22413000Y-43797000D01*
X22413000Y-43777000D01*
X20127000Y-43777000D01*
X20127000Y-43797000D01*
X19873000Y-43797000D01*
X19873000Y-43777000D01*
X18673750Y-43777000D01*
X18515000Y-43935750D01*
X18511928Y-44500000D01*
X3135809Y-44500000D01*
X3135000Y-44285750D01*
X2976250Y-44127000D01*
X2127000Y-44127000D01*
X1873000Y-44127000D01*
X1023750Y-44127000D01*
X865000Y-44285750D01*
X861928Y-45100000D01*
X660000Y-45100000D01*
X660000Y-42900000D01*
X861928Y-42900000D01*
X865000Y-43714250D01*
X1023750Y-43873000D01*
X1873000Y-43873000D01*
X1873000Y-42423750D01*
X2127000Y-42423750D01*
X2127000Y-43873000D01*
X2976250Y-43873000D01*
X3135000Y-43714250D01*
X3138072Y-42900000D01*
X3128224Y-42800000D01*
X18511928Y-42800000D01*
X18515000Y-43364250D01*
X18673750Y-43523000D01*
X19873000Y-43523000D01*
X19873000Y-42323750D01*
X20127000Y-42323750D01*
X20127000Y-43523000D01*
X22413000Y-43523000D01*
X22413000Y-42329186D01*
X22667000Y-42329186D01*
X22667000Y-43523000D01*
X23860155Y-43523000D01*
X23981476Y-43293110D01*
X23936825Y-43145901D01*
X23811641Y-42883080D01*
X23637588Y-42649731D01*
X23421355Y-42454822D01*
X23171252Y-42305843D01*
X22896891Y-42208519D01*
X22667000Y-42329186D01*
X22413000Y-42329186D01*
X22183109Y-42208519D01*
X21908748Y-42305843D01*
X21658645Y-42454822D01*
X21462498Y-42631626D01*
X21439502Y-42555820D01*
X21380537Y-42445506D01*
X21301185Y-42348815D01*
X21204494Y-42269463D01*
X21094180Y-42210498D01*
X20974482Y-42174188D01*
X20850000Y-42161928D01*
X20285750Y-42165000D01*
X20127000Y-42323750D01*
X19873000Y-42323750D01*
X19714250Y-42165000D01*
X19150000Y-42161928D01*
X19025518Y-42174188D01*
X18905820Y-42210498D01*
X18795506Y-42269463D01*
X18698815Y-42348815D01*
X18619463Y-42445506D01*
X18560498Y-42555820D01*
X18524188Y-42675518D01*
X18511928Y-42800000D01*
X3128224Y-42800000D01*
X3125812Y-42775518D01*
X3089502Y-42655820D01*
X3030537Y-42545506D01*
X2951185Y-42448815D01*
X2854494Y-42369463D01*
X2744180Y-42310498D01*
X2624482Y-42274188D01*
X2500000Y-42261928D01*
X2285750Y-42265000D01*
X2127000Y-42423750D01*
X1873000Y-42423750D01*
X1714250Y-42265000D01*
X1500000Y-42261928D01*
X1375518Y-42274188D01*
X1255820Y-42310498D01*
X1145506Y-42369463D01*
X1048815Y-42448815D01*
X969463Y-42545506D01*
X910498Y-42655820D01*
X874188Y-42775518D01*
X861928Y-42900000D01*
X660000Y-42900000D01*
X660000Y-41000000D01*
X6661928Y-41000000D01*
X6661928Y-42000000D01*
X6674188Y-42124482D01*
X6710498Y-42244180D01*
X6769463Y-42354494D01*
X6848815Y-42451185D01*
X6945506Y-42530537D01*
X7055820Y-42589502D01*
X7175518Y-42625812D01*
X7300000Y-42638072D01*
X9500000Y-42638072D01*
X9624482Y-42625812D01*
X9744180Y-42589502D01*
X9854494Y-42530537D01*
X9951185Y-42451185D01*
X10030537Y-42354494D01*
X10089502Y-42244180D01*
X10125812Y-42124482D01*
X10138072Y-42000000D01*
X10138072Y-41000000D01*
X10125812Y-40875518D01*
X10089502Y-40755820D01*
X10030537Y-40645506D01*
X9951185Y-40548815D01*
X9854494Y-40469463D01*
X9744180Y-40410498D01*
X9624482Y-40374188D01*
X9500000Y-40361928D01*
X7300000Y-40361928D01*
X7175518Y-40374188D01*
X7055820Y-40410498D01*
X6945506Y-40469463D01*
X6848815Y-40548815D01*
X6769463Y-40645506D01*
X6710498Y-40755820D01*
X6674188Y-40875518D01*
X6661928Y-41000000D01*
X660000Y-41000000D01*
X660000Y-38300000D01*
X8061928Y-38300000D01*
X8061928Y-39300000D01*
X8074188Y-39424482D01*
X8110498Y-39544180D01*
X8169463Y-39654494D01*
X8248815Y-39751185D01*
X8345506Y-39830537D01*
X8455820Y-39889502D01*
X8575518Y-39925812D01*
X8700000Y-39938072D01*
X10900000Y-39938072D01*
X11024482Y-39925812D01*
X11144180Y-39889502D01*
X11254494Y-39830537D01*
X11351185Y-39751185D01*
X11430537Y-39654494D01*
X11489502Y-39544180D01*
X11525812Y-39424482D01*
X11538072Y-39300000D01*
X11538072Y-38300000D01*
X11525812Y-38175518D01*
X11489502Y-38055820D01*
X11430537Y-37945506D01*
X11351185Y-37848815D01*
X11254494Y-37769463D01*
X11144180Y-37710498D01*
X11024482Y-37674188D01*
X10900000Y-37661928D01*
X8700000Y-37661928D01*
X8575518Y-37674188D01*
X8455820Y-37710498D01*
X8345506Y-37769463D01*
X8248815Y-37848815D01*
X8169463Y-37945506D01*
X8110498Y-38055820D01*
X8074188Y-38175518D01*
X8061928Y-38300000D01*
X660000Y-38300000D01*
X660000Y-36000000D01*
X3661928Y-36000000D01*
X3661928Y-37000000D01*
X3674188Y-37124482D01*
X3710498Y-37244180D01*
X3769463Y-37354494D01*
X3848815Y-37451185D01*
X3945506Y-37530537D01*
X4055820Y-37589502D01*
X4175518Y-37625812D01*
X4300000Y-37638072D01*
X6500000Y-37638072D01*
X6624482Y-37625812D01*
X6744180Y-37589502D01*
X6854494Y-37530537D01*
X6951185Y-37451185D01*
X7030537Y-37354494D01*
X7089502Y-37244180D01*
X7125812Y-37124482D01*
X7138072Y-37000000D01*
X7138072Y-36000000D01*
X7125812Y-35875518D01*
X7089502Y-35755820D01*
X7030537Y-35645506D01*
X6951185Y-35548815D01*
X6854494Y-35469463D01*
X6744180Y-35410498D01*
X6624482Y-35374188D01*
X6500000Y-35361928D01*
X4300000Y-35361928D01*
X4175518Y-35374188D01*
X4055820Y-35410498D01*
X3945506Y-35469463D01*
X3848815Y-35548815D01*
X3769463Y-35645506D01*
X3710498Y-35755820D01*
X3674188Y-35875518D01*
X3661928Y-36000000D01*
X660000Y-36000000D01*
X660000Y-34900000D01*
X11861928Y-34900000D01*
X11861928Y-37100000D01*
X11874188Y-37224482D01*
X11910498Y-37344180D01*
X11969463Y-37454494D01*
X12048815Y-37551185D01*
X12145506Y-37630537D01*
X12255820Y-37689502D01*
X12375518Y-37725812D01*
X12500000Y-37738072D01*
X13500000Y-37738072D01*
X13624482Y-37725812D01*
X13744180Y-37689502D01*
X13854494Y-37630537D01*
X13951185Y-37551185D01*
X14030537Y-37454494D01*
X14089502Y-37344180D01*
X14125812Y-37224482D01*
X14138072Y-37100000D01*
X14138072Y-34900000D01*
X14125812Y-34775518D01*
X14089502Y-34655820D01*
X14030537Y-34545506D01*
X13951185Y-34448815D01*
X13854494Y-34369463D01*
X13744180Y-34310498D01*
X13624482Y-34274188D01*
X13500000Y-34261928D01*
X12500000Y-34261928D01*
X12375518Y-34274188D01*
X12255820Y-34310498D01*
X12145506Y-34369463D01*
X12048815Y-34448815D01*
X11969463Y-34545506D01*
X11910498Y-34655820D01*
X11874188Y-34775518D01*
X11861928Y-34900000D01*
X660000Y-34900000D01*
X660000Y-33100000D01*
X861928Y-33100000D01*
X874188Y-33224482D01*
X910498Y-33344180D01*
X969463Y-33454494D01*
X1048815Y-33551185D01*
X1145506Y-33630537D01*
X1255820Y-33689502D01*
X1375518Y-33725812D01*
X1500000Y-33738072D01*
X1714250Y-33735000D01*
X1873000Y-33576250D01*
X1873000Y-32127000D01*
X2127000Y-32127000D01*
X2127000Y-33576250D01*
X2285750Y-33735000D01*
X2500000Y-33738072D01*
X2624482Y-33725812D01*
X2744180Y-33689502D01*
X2854494Y-33630537D01*
X2951185Y-33551185D01*
X3030537Y-33454494D01*
X3089502Y-33344180D01*
X3125812Y-33224482D01*
X3138072Y-33100000D01*
X3135000Y-32285750D01*
X2976250Y-32127000D01*
X2127000Y-32127000D01*
X1873000Y-32127000D01*
X1023750Y-32127000D01*
X865000Y-32285750D01*
X861928Y-33100000D01*
X660000Y-33100000D01*
X660000Y-30900000D01*
X861928Y-30900000D01*
X865000Y-31714250D01*
X1023750Y-31873000D01*
X1873000Y-31873000D01*
X1873000Y-30423750D01*
X2127000Y-30423750D01*
X2127000Y-31873000D01*
X2976250Y-31873000D01*
X3135000Y-31714250D01*
X3138072Y-30900000D01*
X3125812Y-30775518D01*
X3089502Y-30655820D01*
X3030537Y-30545506D01*
X2951185Y-30448815D01*
X2854494Y-30369463D01*
X2744180Y-30310498D01*
X2624482Y-30274188D01*
X2500000Y-30261928D01*
X2285750Y-30265000D01*
X2127000Y-30423750D01*
X1873000Y-30423750D01*
X1714250Y-30265000D01*
X1500000Y-30261928D01*
X1375518Y-30274188D01*
X1255820Y-30310498D01*
X1145506Y-30369463D01*
X1048815Y-30448815D01*
X969463Y-30545506D01*
X910498Y-30655820D01*
X874188Y-30775518D01*
X861928Y-30900000D01*
X660000Y-30900000D01*
X660000Y-29000000D01*
X6661928Y-29000000D01*
X6661928Y-30000000D01*
X6674188Y-30124482D01*
X6710498Y-30244180D01*
X6769463Y-30354494D01*
X6848815Y-30451185D01*
X6945506Y-30530537D01*
X7055820Y-30589502D01*
X7175518Y-30625812D01*
X7300000Y-30638072D01*
X9500000Y-30638072D01*
X9624482Y-30625812D01*
X9744180Y-30589502D01*
X9854494Y-30530537D01*
X9951185Y-30451185D01*
X10030537Y-30354494D01*
X10089502Y-30244180D01*
X10125812Y-30124482D01*
X10138072Y-30000000D01*
X10138072Y-29000000D01*
X10125812Y-28875518D01*
X10089502Y-28755820D01*
X10030537Y-28645506D01*
X9951185Y-28548815D01*
X9854494Y-28469463D01*
X9744180Y-28410498D01*
X9624482Y-28374188D01*
X9500000Y-28361928D01*
X7300000Y-28361928D01*
X7175518Y-28374188D01*
X7055820Y-28410498D01*
X6945506Y-28469463D01*
X6848815Y-28548815D01*
X6769463Y-28645506D01*
X6710498Y-28755820D01*
X6674188Y-28875518D01*
X6661928Y-29000000D01*
X660000Y-29000000D01*
X660000Y-26300000D01*
X8061928Y-26300000D01*
X8061928Y-27300000D01*
X8074188Y-27424482D01*
X8110498Y-27544180D01*
X8169463Y-27654494D01*
X8248815Y-27751185D01*
X8345506Y-27830537D01*
X8455820Y-27889502D01*
X8575518Y-27925812D01*
X8700000Y-27938072D01*
X10900000Y-27938072D01*
X11024482Y-27925812D01*
X11144180Y-27889502D01*
X11254494Y-27830537D01*
X11351185Y-27751185D01*
X11430537Y-27654494D01*
X11489502Y-27544180D01*
X11525812Y-27424482D01*
X11538072Y-27300000D01*
X11538072Y-26300000D01*
X11525812Y-26175518D01*
X11489502Y-26055820D01*
X11430537Y-25945506D01*
X11351185Y-25848815D01*
X11254494Y-25769463D01*
X11144180Y-25710498D01*
X11024482Y-25674188D01*
X10900000Y-25661928D01*
X8700000Y-25661928D01*
X8575518Y-25674188D01*
X8455820Y-25710498D01*
X8345506Y-25769463D01*
X8248815Y-25848815D01*
X8169463Y-25945506D01*
X8110498Y-26055820D01*
X8074188Y-26175518D01*
X8061928Y-26300000D01*
X660000Y-26300000D01*
X660000Y-24000000D01*
X3661928Y-24000000D01*
X3661928Y-25000000D01*
X3674188Y-25124482D01*
X3710498Y-25244180D01*
X3769463Y-25354494D01*
X3848815Y-25451185D01*
X3945506Y-25530537D01*
X4055820Y-25589502D01*
X4175518Y-25625812D01*
X4300000Y-25638072D01*
X6500000Y-25638072D01*
X6624482Y-25625812D01*
X6744180Y-25589502D01*
X6854494Y-25530537D01*
X6951185Y-25451185D01*
X7030537Y-25354494D01*
X7089502Y-25244180D01*
X7125812Y-25124482D01*
X7138072Y-25000000D01*
X7138072Y-24000000D01*
X7125812Y-23875518D01*
X7089502Y-23755820D01*
X7030537Y-23645506D01*
X6951185Y-23548815D01*
X6854494Y-23469463D01*
X6744180Y-23410498D01*
X6624482Y-23374188D01*
X6500000Y-23361928D01*
X4300000Y-23361928D01*
X4175518Y-23374188D01*
X4055820Y-23410498D01*
X3945506Y-23469463D01*
X3848815Y-23548815D01*
X3769463Y-23645506D01*
X3710498Y-23755820D01*
X3674188Y-23875518D01*
X3661928Y-24000000D01*
X660000Y-24000000D01*
X660000Y-22900000D01*
X11861928Y-22900000D01*
X11861928Y-25100000D01*
X11874188Y-25224482D01*
X11910498Y-25344180D01*
X11969463Y-25454494D01*
X12048815Y-25551185D01*
X12145506Y-25630537D01*
X12255820Y-25689502D01*
X12375518Y-25725812D01*
X12500000Y-25738072D01*
X13500000Y-25738072D01*
X13624482Y-25725812D01*
X13744180Y-25689502D01*
X13854494Y-25630537D01*
X13951185Y-25551185D01*
X14030537Y-25454494D01*
X14089502Y-25344180D01*
X14125812Y-25224482D01*
X14138072Y-25100000D01*
X14138072Y-22900000D01*
X14125812Y-22775518D01*
X14089502Y-22655820D01*
X14030537Y-22545506D01*
X13951185Y-22448815D01*
X13854494Y-22369463D01*
X13744180Y-22310498D01*
X13624482Y-22274188D01*
X13500000Y-22261928D01*
X12500000Y-22261928D01*
X12375518Y-22274188D01*
X12255820Y-22310498D01*
X12145506Y-22369463D01*
X12048815Y-22448815D01*
X11969463Y-22545506D01*
X11910498Y-22655820D01*
X11874188Y-22775518D01*
X11861928Y-22900000D01*
X660000Y-22900000D01*
X660000Y-21100000D01*
X861928Y-21100000D01*
X874188Y-21224482D01*
X910498Y-21344180D01*
X969463Y-21454494D01*
X1048815Y-21551185D01*
X1145506Y-21630537D01*
X1255820Y-21689502D01*
X1375518Y-21725812D01*
X1500000Y-21738072D01*
X1714250Y-21735000D01*
X1873000Y-21576250D01*
X1873000Y-20127000D01*
X2127000Y-20127000D01*
X2127000Y-21576250D01*
X2285750Y-21735000D01*
X2500000Y-21738072D01*
X2624482Y-21725812D01*
X2744180Y-21689502D01*
X2854494Y-21630537D01*
X2951185Y-21551185D01*
X3030537Y-21454494D01*
X3089502Y-21344180D01*
X3125812Y-21224482D01*
X3138072Y-21100000D01*
X3135000Y-20285750D01*
X2976250Y-20127000D01*
X2127000Y-20127000D01*
X1873000Y-20127000D01*
X1023750Y-20127000D01*
X865000Y-20285750D01*
X861928Y-21100000D01*
X660000Y-21100000D01*
X660000Y-18900000D01*
X861928Y-18900000D01*
X865000Y-19714250D01*
X1023750Y-19873000D01*
X1873000Y-19873000D01*
X1873000Y-18423750D01*
X2127000Y-18423750D01*
X2127000Y-19873000D01*
X2976250Y-19873000D01*
X3135000Y-19714250D01*
X3138072Y-18900000D01*
X3125812Y-18775518D01*
X3089502Y-18655820D01*
X3030537Y-18545506D01*
X2951185Y-18448815D01*
X2854494Y-18369463D01*
X2744180Y-18310498D01*
X2624482Y-18274188D01*
X2500000Y-18261928D01*
X2285750Y-18265000D01*
X2127000Y-18423750D01*
X1873000Y-18423750D01*
X1714250Y-18265000D01*
X1500000Y-18261928D01*
X1375518Y-18274188D01*
X1255820Y-18310498D01*
X1145506Y-18369463D01*
X1048815Y-18448815D01*
X969463Y-18545506D01*
X910498Y-18655820D01*
X874188Y-18775518D01*
X861928Y-18900000D01*
X660000Y-18900000D01*
X660000Y-17000000D01*
X6661928Y-17000000D01*
X6661928Y-18000000D01*
X6674188Y-18124482D01*
X6710498Y-18244180D01*
X6769463Y-18354494D01*
X6848815Y-18451185D01*
X6945506Y-18530537D01*
X7055820Y-18589502D01*
X7175518Y-18625812D01*
X7300000Y-18638072D01*
X9500000Y-18638072D01*
X9624482Y-18625812D01*
X9744180Y-18589502D01*
X9854494Y-18530537D01*
X9951185Y-18451185D01*
X10030537Y-18354494D01*
X10089502Y-18244180D01*
X10125812Y-18124482D01*
X10138072Y-18000000D01*
X10138072Y-17000000D01*
X10125812Y-16875518D01*
X10089502Y-16755820D01*
X10030537Y-16645506D01*
X9951185Y-16548815D01*
X9854494Y-16469463D01*
X9744180Y-16410498D01*
X9624482Y-16374188D01*
X9500000Y-16361928D01*
X7300000Y-16361928D01*
X7175518Y-16374188D01*
X7055820Y-16410498D01*
X6945506Y-16469463D01*
X6848815Y-16548815D01*
X6769463Y-16645506D01*
X6710498Y-16755820D01*
X6674188Y-16875518D01*
X6661928Y-17000000D01*
X660000Y-17000000D01*
X660000Y-14300000D01*
X8061928Y-14300000D01*
X8061928Y-15300000D01*
X8074188Y-15424482D01*
X8110498Y-15544180D01*
X8169463Y-15654494D01*
X8248815Y-15751185D01*
X8345506Y-15830537D01*
X8455820Y-15889502D01*
X8575518Y-15925812D01*
X8700000Y-15938072D01*
X10900000Y-15938072D01*
X11024482Y-15925812D01*
X11144180Y-15889502D01*
X11254494Y-15830537D01*
X11351185Y-15751185D01*
X11430537Y-15654494D01*
X11489502Y-15544180D01*
X11525812Y-15424482D01*
X11538072Y-15300000D01*
X11538072Y-14300000D01*
X11525812Y-14175518D01*
X11489502Y-14055820D01*
X11430537Y-13945506D01*
X11351185Y-13848815D01*
X11254494Y-13769463D01*
X11144180Y-13710498D01*
X11024482Y-13674188D01*
X10900000Y-13661928D01*
X8700000Y-13661928D01*
X8575518Y-13674188D01*
X8455820Y-13710498D01*
X8345506Y-13769463D01*
X8248815Y-13848815D01*
X8169463Y-13945506D01*
X8110498Y-14055820D01*
X8074188Y-14175518D01*
X8061928Y-14300000D01*
X660000Y-14300000D01*
X660000Y-12000000D01*
X3661928Y-12000000D01*
X3661928Y-13000000D01*
X3674188Y-13124482D01*
X3710498Y-13244180D01*
X3769463Y-13354494D01*
X3848815Y-13451185D01*
X3945506Y-13530537D01*
X4055820Y-13589502D01*
X4175518Y-13625812D01*
X4300000Y-13638072D01*
X6500000Y-13638072D01*
X6624482Y-13625812D01*
X6744180Y-13589502D01*
X6854494Y-13530537D01*
X6951185Y-13451185D01*
X7030537Y-13354494D01*
X7089502Y-13244180D01*
X7125812Y-13124482D01*
X7138072Y-13000000D01*
X7138072Y-12000000D01*
X7125812Y-11875518D01*
X7089502Y-11755820D01*
X7030537Y-11645506D01*
X6951185Y-11548815D01*
X6854494Y-11469463D01*
X6744180Y-11410498D01*
X6624482Y-11374188D01*
X6500000Y-11361928D01*
X4300000Y-11361928D01*
X4175518Y-11374188D01*
X4055820Y-11410498D01*
X3945506Y-11469463D01*
X3848815Y-11548815D01*
X3769463Y-11645506D01*
X3710498Y-11755820D01*
X3674188Y-11875518D01*
X3661928Y-12000000D01*
X660000Y-12000000D01*
X660000Y-10900000D01*
X11861928Y-10900000D01*
X11861928Y-13100000D01*
X11874188Y-13224482D01*
X11910498Y-13344180D01*
X11969463Y-13454494D01*
X12048815Y-13551185D01*
X12145506Y-13630537D01*
X12255820Y-13689502D01*
X12375518Y-13725812D01*
X12500000Y-13738072D01*
X13500000Y-13738072D01*
X13624482Y-13725812D01*
X13744180Y-13689502D01*
X13854494Y-13630537D01*
X13951185Y-13551185D01*
X14030537Y-13454494D01*
X14089502Y-13344180D01*
X14125812Y-13224482D01*
X14138072Y-13100000D01*
X14138072Y-10900000D01*
X14125812Y-10775518D01*
X14089502Y-10655820D01*
X14030537Y-10545506D01*
X13951185Y-10448815D01*
X13854494Y-10369463D01*
X13744180Y-10310498D01*
X13624482Y-10274188D01*
X13500000Y-10261928D01*
X12500000Y-10261928D01*
X12375518Y-10274188D01*
X12255820Y-10310498D01*
X12145506Y-10369463D01*
X12048815Y-10448815D01*
X11969463Y-10545506D01*
X11910498Y-10655820D01*
X11874188Y-10775518D01*
X11861928Y-10900000D01*
X660000Y-10900000D01*
X660000Y-9100000D01*
X861928Y-9100000D01*
X874188Y-9224482D01*
X910498Y-9344180D01*
X969463Y-9454494D01*
X1048815Y-9551185D01*
X1145506Y-9630537D01*
X1255820Y-9689502D01*
X1375518Y-9725812D01*
X1500000Y-9738072D01*
X1714250Y-9735000D01*
X1873000Y-9576250D01*
X1873000Y-8127000D01*
X2127000Y-8127000D01*
X2127000Y-9576250D01*
X2285750Y-9735000D01*
X2500000Y-9738072D01*
X2624482Y-9725812D01*
X2744180Y-9689502D01*
X2854494Y-9630537D01*
X2951185Y-9551185D01*
X3030537Y-9454494D01*
X3089502Y-9344180D01*
X3125812Y-9224482D01*
X3138072Y-9100000D01*
X3135000Y-8285750D01*
X2976250Y-8127000D01*
X2127000Y-8127000D01*
X1873000Y-8127000D01*
X1023750Y-8127000D01*
X865000Y-8285750D01*
X861928Y-9100000D01*
X660000Y-9100000D01*
X660000Y-6900000D01*
X861928Y-6900000D01*
X865000Y-7714250D01*
X1023750Y-7873000D01*
X1873000Y-7873000D01*
X1873000Y-6423750D01*
X2127000Y-6423750D01*
X2127000Y-7873000D01*
X2976250Y-7873000D01*
X3135000Y-7714250D01*
X3138072Y-6900000D01*
X3125812Y-6775518D01*
X3089502Y-6655820D01*
X3030537Y-6545506D01*
X2951185Y-6448815D01*
X2854494Y-6369463D01*
X2744180Y-6310498D01*
X2624482Y-6274188D01*
X2500000Y-6261928D01*
X2285750Y-6265000D01*
X2127000Y-6423750D01*
X1873000Y-6423750D01*
X1714250Y-6265000D01*
X1500000Y-6261928D01*
X1375518Y-6274188D01*
X1255820Y-6310498D01*
X1145506Y-6369463D01*
X1048815Y-6448815D01*
X969463Y-6545506D01*
X910498Y-6655820D01*
X874188Y-6775518D01*
X861928Y-6900000D01*
X660000Y-6900000D01*
X660000Y-5000000D01*
X6661928Y-5000000D01*
X6661928Y-6000000D01*
X6674188Y-6124482D01*
X6710498Y-6244180D01*
X6769463Y-6354494D01*
X6848815Y-6451185D01*
X6945506Y-6530537D01*
X7055820Y-6589502D01*
X7175518Y-6625812D01*
X7300000Y-6638072D01*
X9500000Y-6638072D01*
X9624482Y-6625812D01*
X9744180Y-6589502D01*
X9854494Y-6530537D01*
X9951185Y-6451185D01*
X10030537Y-6354494D01*
X10089502Y-6244180D01*
X10125812Y-6124482D01*
X10138072Y-6000000D01*
X10138072Y-5000000D01*
X10125812Y-4875518D01*
X10089502Y-4755820D01*
X10030537Y-4645506D01*
X9951185Y-4548815D01*
X9854494Y-4469463D01*
X9744180Y-4410498D01*
X9624482Y-4374188D01*
X9500000Y-4361928D01*
X7300000Y-4361928D01*
X7175518Y-4374188D01*
X7055820Y-4410498D01*
X6945506Y-4469463D01*
X6848815Y-4548815D01*
X6769463Y-4645506D01*
X6710498Y-4755820D01*
X6674188Y-4875518D01*
X6661928Y-5000000D01*
X660000Y-5000000D01*
X660000Y-2300000D01*
X8061928Y-2300000D01*
X8061928Y-3300000D01*
X8074188Y-3424482D01*
X8110498Y-3544180D01*
X8169463Y-3654494D01*
X8248815Y-3751185D01*
X8345506Y-3830537D01*
X8455820Y-3889502D01*
X8575518Y-3925812D01*
X8700000Y-3938072D01*
X10900000Y-3938072D01*
X11024482Y-3925812D01*
X11144180Y-3889502D01*
X11254494Y-3830537D01*
X11351185Y-3751185D01*
X11430537Y-3654494D01*
X11489502Y-3544180D01*
X11525812Y-3424482D01*
X11538072Y-3300000D01*
X11538072Y-2300000D01*
X11525812Y-2175518D01*
X11489502Y-2055820D01*
X11430537Y-1945506D01*
X11351185Y-1848815D01*
X11254494Y-1769463D01*
X11144180Y-1710498D01*
X11024482Y-1674188D01*
X10900000Y-1661928D01*
X8700000Y-1661928D01*
X8575518Y-1674188D01*
X8455820Y-1710498D01*
X8345506Y-1769463D01*
X8248815Y-1848815D01*
X8169463Y-1945506D01*
X8110498Y-2055820D01*
X8074188Y-2175518D01*
X8061928Y-2300000D01*
X660000Y-2300000D01*
X660000Y-660000D01*
X24340000Y-660000D01*
X24340001Y-99340000D01*
G37*
X24340001Y-99340000D02*
X660000Y-99340000D01*
X660000Y-96000000D01*
X3661928Y-96000000D01*
X3661928Y-97000000D01*
X3674188Y-97124482D01*
X3710498Y-97244180D01*
X3769463Y-97354494D01*
X3848815Y-97451185D01*
X3945506Y-97530537D01*
X4055820Y-97589502D01*
X4175518Y-97625812D01*
X4300000Y-97638072D01*
X6500000Y-97638072D01*
X6624482Y-97625812D01*
X6744180Y-97589502D01*
X6854494Y-97530537D01*
X6951185Y-97451185D01*
X7030537Y-97354494D01*
X7089502Y-97244180D01*
X7125812Y-97124482D01*
X7138072Y-97000000D01*
X7138072Y-96000000D01*
X7125812Y-95875518D01*
X7089502Y-95755820D01*
X7030537Y-95645506D01*
X6951185Y-95548815D01*
X6854494Y-95469463D01*
X6744180Y-95410498D01*
X6624482Y-95374188D01*
X6500000Y-95361928D01*
X4300000Y-95361928D01*
X4175518Y-95374188D01*
X4055820Y-95410498D01*
X3945506Y-95469463D01*
X3848815Y-95548815D01*
X3769463Y-95645506D01*
X3710498Y-95755820D01*
X3674188Y-95875518D01*
X3661928Y-96000000D01*
X660000Y-96000000D01*
X660000Y-94900000D01*
X11861928Y-94900000D01*
X11861928Y-97100000D01*
X11874188Y-97224482D01*
X11910498Y-97344180D01*
X11969463Y-97454494D01*
X12048815Y-97551185D01*
X12145506Y-97630537D01*
X12255820Y-97689502D01*
X12375518Y-97725812D01*
X12500000Y-97738072D01*
X13500000Y-97738072D01*
X13624482Y-97725812D01*
X13744180Y-97689502D01*
X13854494Y-97630537D01*
X13951185Y-97551185D01*
X14030537Y-97454494D01*
X14089502Y-97344180D01*
X14125812Y-97224482D01*
X14138072Y-97100000D01*
X14138072Y-94900000D01*
X14125812Y-94775518D01*
X14089502Y-94655820D01*
X14030537Y-94545506D01*
X13951185Y-94448815D01*
X13854494Y-94369463D01*
X13744180Y-94310498D01*
X13624482Y-94274188D01*
X13500000Y-94261928D01*
X12500000Y-94261928D01*
X12375518Y-94274188D01*
X12255820Y-94310498D01*
X12145506Y-94369463D01*
X12048815Y-94448815D01*
X11969463Y-94545506D01*
X11910498Y-94655820D01*
X11874188Y-94775518D01*
X11861928Y-94900000D01*
X660000Y-94900000D01*
X660000Y-93100000D01*
X861928Y-93100000D01*
X874188Y-93224482D01*
X910498Y-93344180D01*
X969463Y-93454494D01*
X1048815Y-93551185D01*
X1145506Y-93630537D01*
X1255820Y-93689502D01*
X1375518Y-93725812D01*
X1500000Y-93738072D01*
X1714250Y-93735000D01*
X1873000Y-93576250D01*
X1873000Y-92127000D01*
X2127000Y-92127000D01*
X2127000Y-93576250D01*
X2285750Y-93735000D01*
X2500000Y-93738072D01*
X2624482Y-93725812D01*
X2744180Y-93689502D01*
X2854494Y-93630537D01*
X2951185Y-93551185D01*
X3030537Y-93454494D01*
X3089502Y-93344180D01*
X3125812Y-93224482D01*
X3138072Y-93100000D01*
X3135000Y-92285750D01*
X2976250Y-92127000D01*
X2127000Y-92127000D01*
X1873000Y-92127000D01*
X1023750Y-92127000D01*
X865000Y-92285750D01*
X861928Y-93100000D01*
X660000Y-93100000D01*
X660000Y-90900000D01*
X861928Y-90900000D01*
X865000Y-91714250D01*
X1023750Y-91873000D01*
X1873000Y-91873000D01*
X1873000Y-90423750D01*
X2127000Y-90423750D01*
X2127000Y-91873000D01*
X2976250Y-91873000D01*
X3135000Y-91714250D01*
X3138072Y-90900000D01*
X3125812Y-90775518D01*
X3089502Y-90655820D01*
X3030537Y-90545506D01*
X2951185Y-90448815D01*
X2854494Y-90369463D01*
X2744180Y-90310498D01*
X2624482Y-90274188D01*
X2500000Y-90261928D01*
X2285750Y-90265000D01*
X2127000Y-90423750D01*
X1873000Y-90423750D01*
X1714250Y-90265000D01*
X1500000Y-90261928D01*
X1375518Y-90274188D01*
X1255820Y-90310498D01*
X1145506Y-90369463D01*
X1048815Y-90448815D01*
X969463Y-90545506D01*
X910498Y-90655820D01*
X874188Y-90775518D01*
X861928Y-90900000D01*
X660000Y-90900000D01*
X660000Y-89000000D01*
X6661928Y-89000000D01*
X6661928Y-90000000D01*
X6674188Y-90124482D01*
X6710498Y-90244180D01*
X6769463Y-90354494D01*
X6848815Y-90451185D01*
X6945506Y-90530537D01*
X7055820Y-90589502D01*
X7175518Y-90625812D01*
X7300000Y-90638072D01*
X9500000Y-90638072D01*
X9624482Y-90625812D01*
X9744180Y-90589502D01*
X9854494Y-90530537D01*
X9951185Y-90451185D01*
X10030537Y-90354494D01*
X10089502Y-90244180D01*
X10125812Y-90124482D01*
X10138072Y-90000000D01*
X10138072Y-89000000D01*
X10125812Y-88875518D01*
X10089502Y-88755820D01*
X10030537Y-88645506D01*
X9951185Y-88548815D01*
X9854494Y-88469463D01*
X9744180Y-88410498D01*
X9624482Y-88374188D01*
X9500000Y-88361928D01*
X7300000Y-88361928D01*
X7175518Y-88374188D01*
X7055820Y-88410498D01*
X6945506Y-88469463D01*
X6848815Y-88548815D01*
X6769463Y-88645506D01*
X6710498Y-88755820D01*
X6674188Y-88875518D01*
X6661928Y-89000000D01*
X660000Y-89000000D01*
X660000Y-86300000D01*
X8061928Y-86300000D01*
X8061928Y-87300000D01*
X8074188Y-87424482D01*
X8110498Y-87544180D01*
X8169463Y-87654494D01*
X8248815Y-87751185D01*
X8345506Y-87830537D01*
X8455820Y-87889502D01*
X8575518Y-87925812D01*
X8700000Y-87938072D01*
X10900000Y-87938072D01*
X11024482Y-87925812D01*
X11144180Y-87889502D01*
X11254494Y-87830537D01*
X11351185Y-87751185D01*
X11430537Y-87654494D01*
X11489502Y-87544180D01*
X11525812Y-87424482D01*
X11538072Y-87300000D01*
X11538072Y-86300000D01*
X11525812Y-86175518D01*
X11489502Y-86055820D01*
X11430537Y-85945506D01*
X11351185Y-85848815D01*
X11254494Y-85769463D01*
X11144180Y-85710498D01*
X11024482Y-85674188D01*
X10900000Y-85661928D01*
X8700000Y-85661928D01*
X8575518Y-85674188D01*
X8455820Y-85710498D01*
X8345506Y-85769463D01*
X8248815Y-85848815D01*
X8169463Y-85945506D01*
X8110498Y-86055820D01*
X8074188Y-86175518D01*
X8061928Y-86300000D01*
X660000Y-86300000D01*
X660000Y-84000000D01*
X3661928Y-84000000D01*
X3661928Y-85000000D01*
X3674188Y-85124482D01*
X3710498Y-85244180D01*
X3769463Y-85354494D01*
X3848815Y-85451185D01*
X3945506Y-85530537D01*
X4055820Y-85589502D01*
X4175518Y-85625812D01*
X4300000Y-85638072D01*
X6500000Y-85638072D01*
X6624482Y-85625812D01*
X6744180Y-85589502D01*
X6854494Y-85530537D01*
X6951185Y-85451185D01*
X7030537Y-85354494D01*
X7089502Y-85244180D01*
X7125812Y-85124482D01*
X7138072Y-85000000D01*
X7138072Y-84000000D01*
X7125812Y-83875518D01*
X7089502Y-83755820D01*
X7030537Y-83645506D01*
X6951185Y-83548815D01*
X6854494Y-83469463D01*
X6744180Y-83410498D01*
X6624482Y-83374188D01*
X6500000Y-83361928D01*
X4300000Y-83361928D01*
X4175518Y-83374188D01*
X4055820Y-83410498D01*
X3945506Y-83469463D01*
X3848815Y-83548815D01*
X3769463Y-83645506D01*
X3710498Y-83755820D01*
X3674188Y-83875518D01*
X3661928Y-84000000D01*
X660000Y-84000000D01*
X660000Y-82900000D01*
X11861928Y-82900000D01*
X11861928Y-85100000D01*
X11874188Y-85224482D01*
X11910498Y-85344180D01*
X11969463Y-85454494D01*
X12048815Y-85551185D01*
X12145506Y-85630537D01*
X12255820Y-85689502D01*
X12375518Y-85725812D01*
X12500000Y-85738072D01*
X13500000Y-85738072D01*
X13624482Y-85725812D01*
X13744180Y-85689502D01*
X13854494Y-85630537D01*
X13951185Y-85551185D01*
X14030537Y-85454494D01*
X14089502Y-85344180D01*
X14125812Y-85224482D01*
X14138072Y-85100000D01*
X14138072Y-82900000D01*
X14125812Y-82775518D01*
X14089502Y-82655820D01*
X14030537Y-82545506D01*
X13951185Y-82448815D01*
X13854494Y-82369463D01*
X13744180Y-82310498D01*
X13624482Y-82274188D01*
X13500000Y-82261928D01*
X12500000Y-82261928D01*
X12375518Y-82274188D01*
X12255820Y-82310498D01*
X12145506Y-82369463D01*
X12048815Y-82448815D01*
X11969463Y-82545506D01*
X11910498Y-82655820D01*
X11874188Y-82775518D01*
X11861928Y-82900000D01*
X660000Y-82900000D01*
X660000Y-81100000D01*
X861928Y-81100000D01*
X874188Y-81224482D01*
X910498Y-81344180D01*
X969463Y-81454494D01*
X1048815Y-81551185D01*
X1145506Y-81630537D01*
X1255820Y-81689502D01*
X1375518Y-81725812D01*
X1500000Y-81738072D01*
X1714250Y-81735000D01*
X1873000Y-81576250D01*
X1873000Y-80127000D01*
X2127000Y-80127000D01*
X2127000Y-81576250D01*
X2285750Y-81735000D01*
X2500000Y-81738072D01*
X2624482Y-81725812D01*
X2744180Y-81689502D01*
X2854494Y-81630537D01*
X2951185Y-81551185D01*
X3030537Y-81454494D01*
X3089502Y-81344180D01*
X3125812Y-81224482D01*
X3138072Y-81100000D01*
X3135000Y-80285750D01*
X2976250Y-80127000D01*
X2127000Y-80127000D01*
X1873000Y-80127000D01*
X1023750Y-80127000D01*
X865000Y-80285750D01*
X861928Y-81100000D01*
X660000Y-81100000D01*
X660000Y-78900000D01*
X861928Y-78900000D01*
X865000Y-79714250D01*
X1023750Y-79873000D01*
X1873000Y-79873000D01*
X1873000Y-78423750D01*
X2127000Y-78423750D01*
X2127000Y-79873000D01*
X2976250Y-79873000D01*
X3135000Y-79714250D01*
X3138072Y-78900000D01*
X3125812Y-78775518D01*
X3089502Y-78655820D01*
X3030537Y-78545506D01*
X2951185Y-78448815D01*
X2854494Y-78369463D01*
X2744180Y-78310498D01*
X2624482Y-78274188D01*
X2500000Y-78261928D01*
X2285750Y-78265000D01*
X2127000Y-78423750D01*
X1873000Y-78423750D01*
X1714250Y-78265000D01*
X1500000Y-78261928D01*
X1375518Y-78274188D01*
X1255820Y-78310498D01*
X1145506Y-78369463D01*
X1048815Y-78448815D01*
X969463Y-78545506D01*
X910498Y-78655820D01*
X874188Y-78775518D01*
X861928Y-78900000D01*
X660000Y-78900000D01*
X660000Y-77000000D01*
X6661928Y-77000000D01*
X6661928Y-78000000D01*
X6674188Y-78124482D01*
X6710498Y-78244180D01*
X6769463Y-78354494D01*
X6848815Y-78451185D01*
X6945506Y-78530537D01*
X7055820Y-78589502D01*
X7175518Y-78625812D01*
X7300000Y-78638072D01*
X9500000Y-78638072D01*
X9624482Y-78625812D01*
X9744180Y-78589502D01*
X9854494Y-78530537D01*
X9951185Y-78451185D01*
X10030537Y-78354494D01*
X10089502Y-78244180D01*
X10125812Y-78124482D01*
X10138072Y-78000000D01*
X10138072Y-77000000D01*
X10125812Y-76875518D01*
X10089502Y-76755820D01*
X10030537Y-76645506D01*
X9951185Y-76548815D01*
X9854494Y-76469463D01*
X9744180Y-76410498D01*
X9624482Y-76374188D01*
X9500000Y-76361928D01*
X7300000Y-76361928D01*
X7175518Y-76374188D01*
X7055820Y-76410498D01*
X6945506Y-76469463D01*
X6848815Y-76548815D01*
X6769463Y-76645506D01*
X6710498Y-76755820D01*
X6674188Y-76875518D01*
X6661928Y-77000000D01*
X660000Y-77000000D01*
X660000Y-74300000D01*
X8061928Y-74300000D01*
X8061928Y-75300000D01*
X8074188Y-75424482D01*
X8110498Y-75544180D01*
X8169463Y-75654494D01*
X8248815Y-75751185D01*
X8345506Y-75830537D01*
X8455820Y-75889502D01*
X8575518Y-75925812D01*
X8700000Y-75938072D01*
X10900000Y-75938072D01*
X11024482Y-75925812D01*
X11144180Y-75889502D01*
X11254494Y-75830537D01*
X11351185Y-75751185D01*
X11430537Y-75654494D01*
X11489502Y-75544180D01*
X11525812Y-75424482D01*
X11538072Y-75300000D01*
X11538072Y-74300000D01*
X11525812Y-74175518D01*
X11489502Y-74055820D01*
X11430537Y-73945506D01*
X11351185Y-73848815D01*
X11254494Y-73769463D01*
X11144180Y-73710498D01*
X11024482Y-73674188D01*
X10900000Y-73661928D01*
X8700000Y-73661928D01*
X8575518Y-73674188D01*
X8455820Y-73710498D01*
X8345506Y-73769463D01*
X8248815Y-73848815D01*
X8169463Y-73945506D01*
X8110498Y-74055820D01*
X8074188Y-74175518D01*
X8061928Y-74300000D01*
X660000Y-74300000D01*
X660000Y-72000000D01*
X3661928Y-72000000D01*
X3661928Y-73000000D01*
X3674188Y-73124482D01*
X3710498Y-73244180D01*
X3769463Y-73354494D01*
X3848815Y-73451185D01*
X3945506Y-73530537D01*
X4055820Y-73589502D01*
X4175518Y-73625812D01*
X4300000Y-73638072D01*
X6500000Y-73638072D01*
X6624482Y-73625812D01*
X6744180Y-73589502D01*
X6854494Y-73530537D01*
X6951185Y-73451185D01*
X7030537Y-73354494D01*
X7089502Y-73244180D01*
X7125812Y-73124482D01*
X7138072Y-73000000D01*
X7138072Y-72000000D01*
X7125812Y-71875518D01*
X7089502Y-71755820D01*
X7030537Y-71645506D01*
X6951185Y-71548815D01*
X6854494Y-71469463D01*
X6744180Y-71410498D01*
X6624482Y-71374188D01*
X6500000Y-71361928D01*
X4300000Y-71361928D01*
X4175518Y-71374188D01*
X4055820Y-71410498D01*
X3945506Y-71469463D01*
X3848815Y-71548815D01*
X3769463Y-71645506D01*
X3710498Y-71755820D01*
X3674188Y-71875518D01*
X3661928Y-72000000D01*
X660000Y-72000000D01*
X660000Y-70900000D01*
X11861928Y-70900000D01*
X11861928Y-73100000D01*
X11874188Y-73224482D01*
X11910498Y-73344180D01*
X11969463Y-73454494D01*
X12048815Y-73551185D01*
X12145506Y-73630537D01*
X12255820Y-73689502D01*
X12375518Y-73725812D01*
X12500000Y-73738072D01*
X13500000Y-73738072D01*
X13624482Y-73725812D01*
X13744180Y-73689502D01*
X13854494Y-73630537D01*
X13951185Y-73551185D01*
X14030537Y-73454494D01*
X14089502Y-73344180D01*
X14125812Y-73224482D01*
X14138072Y-73100000D01*
X14138072Y-70900000D01*
X14125812Y-70775518D01*
X14089502Y-70655820D01*
X14030537Y-70545506D01*
X13951185Y-70448815D01*
X13854494Y-70369463D01*
X13744180Y-70310498D01*
X13624482Y-70274188D01*
X13500000Y-70261928D01*
X12500000Y-70261928D01*
X12375518Y-70274188D01*
X12255820Y-70310498D01*
X12145506Y-70369463D01*
X12048815Y-70448815D01*
X11969463Y-70545506D01*
X11910498Y-70655820D01*
X11874188Y-70775518D01*
X11861928Y-70900000D01*
X660000Y-70900000D01*
X660000Y-69100000D01*
X861928Y-69100000D01*
X874188Y-69224482D01*
X910498Y-69344180D01*
X969463Y-69454494D01*
X1048815Y-69551185D01*
X1145506Y-69630537D01*
X1255820Y-69689502D01*
X1375518Y-69725812D01*
X1500000Y-69738072D01*
X1714250Y-69735000D01*
X1873000Y-69576250D01*
X1873000Y-68127000D01*
X2127000Y-68127000D01*
X2127000Y-69576250D01*
X2285750Y-69735000D01*
X2500000Y-69738072D01*
X2624482Y-69725812D01*
X2744180Y-69689502D01*
X2854494Y-69630537D01*
X2951185Y-69551185D01*
X3030537Y-69454494D01*
X3089502Y-69344180D01*
X3125812Y-69224482D01*
X3138072Y-69100000D01*
X3135000Y-68285750D01*
X2976250Y-68127000D01*
X2127000Y-68127000D01*
X1873000Y-68127000D01*
X1023750Y-68127000D01*
X865000Y-68285750D01*
X861928Y-69100000D01*
X660000Y-69100000D01*
X660000Y-66900000D01*
X861928Y-66900000D01*
X865000Y-67714250D01*
X1023750Y-67873000D01*
X1873000Y-67873000D01*
X1873000Y-66423750D01*
X2127000Y-66423750D01*
X2127000Y-67873000D01*
X2976250Y-67873000D01*
X3135000Y-67714250D01*
X3138072Y-66900000D01*
X3125812Y-66775518D01*
X3089502Y-66655820D01*
X3030537Y-66545506D01*
X2951185Y-66448815D01*
X2854494Y-66369463D01*
X2744180Y-66310498D01*
X2624482Y-66274188D01*
X2500000Y-66261928D01*
X2285750Y-66265000D01*
X2127000Y-66423750D01*
X1873000Y-66423750D01*
X1714250Y-66265000D01*
X1500000Y-66261928D01*
X1375518Y-66274188D01*
X1255820Y-66310498D01*
X1145506Y-66369463D01*
X1048815Y-66448815D01*
X969463Y-66545506D01*
X910498Y-66655820D01*
X874188Y-66775518D01*
X861928Y-66900000D01*
X660000Y-66900000D01*
X660000Y-65000000D01*
X6661928Y-65000000D01*
X6661928Y-66000000D01*
X6674188Y-66124482D01*
X6710498Y-66244180D01*
X6769463Y-66354494D01*
X6848815Y-66451185D01*
X6945506Y-66530537D01*
X7055820Y-66589502D01*
X7175518Y-66625812D01*
X7300000Y-66638072D01*
X9500000Y-66638072D01*
X9624482Y-66625812D01*
X9744180Y-66589502D01*
X9854494Y-66530537D01*
X9951185Y-66451185D01*
X10030537Y-66354494D01*
X10089502Y-66244180D01*
X10125812Y-66124482D01*
X10138072Y-66000000D01*
X10138072Y-65000000D01*
X10125812Y-64875518D01*
X10089502Y-64755820D01*
X10030537Y-64645506D01*
X9951185Y-64548815D01*
X9854494Y-64469463D01*
X9744180Y-64410498D01*
X9624482Y-64374188D01*
X9500000Y-64361928D01*
X7300000Y-64361928D01*
X7175518Y-64374188D01*
X7055820Y-64410498D01*
X6945506Y-64469463D01*
X6848815Y-64548815D01*
X6769463Y-64645506D01*
X6710498Y-64755820D01*
X6674188Y-64875518D01*
X6661928Y-65000000D01*
X660000Y-65000000D01*
X660000Y-62300000D01*
X8061928Y-62300000D01*
X8061928Y-63300000D01*
X8074188Y-63424482D01*
X8110498Y-63544180D01*
X8169463Y-63654494D01*
X8248815Y-63751185D01*
X8345506Y-63830537D01*
X8455820Y-63889502D01*
X8575518Y-63925812D01*
X8700000Y-63938072D01*
X10900000Y-63938072D01*
X11024482Y-63925812D01*
X11144180Y-63889502D01*
X11254494Y-63830537D01*
X11351185Y-63751185D01*
X11430537Y-63654494D01*
X11489502Y-63544180D01*
X11525812Y-63424482D01*
X11538072Y-63300000D01*
X11538072Y-62300000D01*
X11525812Y-62175518D01*
X11489502Y-62055820D01*
X11430537Y-61945506D01*
X11351185Y-61848815D01*
X11254494Y-61769463D01*
X11144180Y-61710498D01*
X11024482Y-61674188D01*
X10900000Y-61661928D01*
X8700000Y-61661928D01*
X8575518Y-61674188D01*
X8455820Y-61710498D01*
X8345506Y-61769463D01*
X8248815Y-61848815D01*
X8169463Y-61945506D01*
X8110498Y-62055820D01*
X8074188Y-62175518D01*
X8061928Y-62300000D01*
X660000Y-62300000D01*
X660000Y-60000000D01*
X3661928Y-60000000D01*
X3661928Y-61000000D01*
X3674188Y-61124482D01*
X3710498Y-61244180D01*
X3769463Y-61354494D01*
X3848815Y-61451185D01*
X3945506Y-61530537D01*
X4055820Y-61589502D01*
X4175518Y-61625812D01*
X4300000Y-61638072D01*
X6500000Y-61638072D01*
X6624482Y-61625812D01*
X6744180Y-61589502D01*
X6854494Y-61530537D01*
X6951185Y-61451185D01*
X7030537Y-61354494D01*
X7089502Y-61244180D01*
X7125812Y-61124482D01*
X7138072Y-61000000D01*
X7138072Y-60000000D01*
X7125812Y-59875518D01*
X7089502Y-59755820D01*
X7030537Y-59645506D01*
X6951185Y-59548815D01*
X6854494Y-59469463D01*
X6744180Y-59410498D01*
X6624482Y-59374188D01*
X6500000Y-59361928D01*
X4300000Y-59361928D01*
X4175518Y-59374188D01*
X4055820Y-59410498D01*
X3945506Y-59469463D01*
X3848815Y-59548815D01*
X3769463Y-59645506D01*
X3710498Y-59755820D01*
X3674188Y-59875518D01*
X3661928Y-60000000D01*
X660000Y-60000000D01*
X660000Y-58900000D01*
X11861928Y-58900000D01*
X11861928Y-61100000D01*
X11874188Y-61224482D01*
X11910498Y-61344180D01*
X11969463Y-61454494D01*
X12048815Y-61551185D01*
X12145506Y-61630537D01*
X12255820Y-61689502D01*
X12375518Y-61725812D01*
X12500000Y-61738072D01*
X13500000Y-61738072D01*
X13624482Y-61725812D01*
X13744180Y-61689502D01*
X13854494Y-61630537D01*
X13951185Y-61551185D01*
X14030537Y-61454494D01*
X14089502Y-61344180D01*
X14125812Y-61224482D01*
X14138072Y-61100000D01*
X14138072Y-58900000D01*
X14125812Y-58775518D01*
X14089502Y-58655820D01*
X14030537Y-58545506D01*
X13951185Y-58448815D01*
X13854494Y-58369463D01*
X13744180Y-58310498D01*
X13624482Y-58274188D01*
X13500000Y-58261928D01*
X12500000Y-58261928D01*
X12375518Y-58274188D01*
X12255820Y-58310498D01*
X12145506Y-58369463D01*
X12048815Y-58448815D01*
X11969463Y-58545506D01*
X11910498Y-58655820D01*
X11874188Y-58775518D01*
X11861928Y-58900000D01*
X660000Y-58900000D01*
X660000Y-57100000D01*
X861928Y-57100000D01*
X874188Y-57224482D01*
X910498Y-57344180D01*
X969463Y-57454494D01*
X1048815Y-57551185D01*
X1145506Y-57630537D01*
X1255820Y-57689502D01*
X1375518Y-57725812D01*
X1500000Y-57738072D01*
X1714250Y-57735000D01*
X1873000Y-57576250D01*
X1873000Y-56127000D01*
X2127000Y-56127000D01*
X2127000Y-57576250D01*
X2285750Y-57735000D01*
X2500000Y-57738072D01*
X2624482Y-57725812D01*
X2744180Y-57689502D01*
X2854494Y-57630537D01*
X2951185Y-57551185D01*
X3030537Y-57454494D01*
X3089502Y-57344180D01*
X3125812Y-57224482D01*
X3138072Y-57100000D01*
X3136589Y-56706890D01*
X18558524Y-56706890D01*
X18603175Y-56854099D01*
X18728359Y-57116920D01*
X18902412Y-57350269D01*
X19118645Y-57545178D01*
X19368748Y-57694157D01*
X19643109Y-57791481D01*
X19873000Y-57670814D01*
X19873000Y-56477000D01*
X20127000Y-56477000D01*
X20127000Y-57670814D01*
X20356891Y-57791481D01*
X20631252Y-57694157D01*
X20881355Y-57545178D01*
X21097588Y-57350269D01*
X21270000Y-57119120D01*
X21442412Y-57350269D01*
X21658645Y-57545178D01*
X21908748Y-57694157D01*
X22183109Y-57791481D01*
X22413000Y-57670814D01*
X22413000Y-56477000D01*
X22667000Y-56477000D01*
X22667000Y-57670814D01*
X22896891Y-57791481D01*
X23171252Y-57694157D01*
X23421355Y-57545178D01*
X23637588Y-57350269D01*
X23811641Y-57116920D01*
X23936825Y-56854099D01*
X23981476Y-56706890D01*
X23860155Y-56477000D01*
X22667000Y-56477000D01*
X22413000Y-56477000D01*
X20127000Y-56477000D01*
X19873000Y-56477000D01*
X18679845Y-56477000D01*
X18558524Y-56706890D01*
X3136589Y-56706890D01*
X3135000Y-56285750D01*
X2976250Y-56127000D01*
X2127000Y-56127000D01*
X1873000Y-56127000D01*
X1023750Y-56127000D01*
X865000Y-56285750D01*
X861928Y-57100000D01*
X660000Y-57100000D01*
X660000Y-54900000D01*
X861928Y-54900000D01*
X865000Y-55714250D01*
X1023750Y-55873000D01*
X1873000Y-55873000D01*
X1873000Y-54423750D01*
X2127000Y-54423750D01*
X2127000Y-55873000D01*
X2976250Y-55873000D01*
X3135000Y-55714250D01*
X3138072Y-54900000D01*
X3125812Y-54775518D01*
X3089502Y-54655820D01*
X3030537Y-54545506D01*
X2951185Y-54448815D01*
X2854494Y-54369463D01*
X2744180Y-54310498D01*
X2624482Y-54274188D01*
X2500000Y-54261928D01*
X2285750Y-54265000D01*
X2127000Y-54423750D01*
X1873000Y-54423750D01*
X1714250Y-54265000D01*
X1500000Y-54261928D01*
X1375518Y-54274188D01*
X1255820Y-54310498D01*
X1145506Y-54369463D01*
X1048815Y-54448815D01*
X969463Y-54545506D01*
X910498Y-54655820D01*
X874188Y-54775518D01*
X861928Y-54900000D01*
X660000Y-54900000D01*
X660000Y-53000000D01*
X6661928Y-53000000D01*
X6661928Y-54000000D01*
X6674188Y-54124482D01*
X6710498Y-54244180D01*
X6769463Y-54354494D01*
X6848815Y-54451185D01*
X6945506Y-54530537D01*
X7055820Y-54589502D01*
X7175518Y-54625812D01*
X7300000Y-54638072D01*
X9500000Y-54638072D01*
X9624482Y-54625812D01*
X9744180Y-54589502D01*
X9854494Y-54530537D01*
X9951185Y-54451185D01*
X10030537Y-54354494D01*
X10089502Y-54244180D01*
X10125812Y-54124482D01*
X10138072Y-54000000D01*
X10138072Y-53000000D01*
X10125812Y-52875518D01*
X10089502Y-52755820D01*
X10030537Y-52645506D01*
X9951185Y-52548815D01*
X9854494Y-52469463D01*
X9744180Y-52410498D01*
X9624482Y-52374188D01*
X9500000Y-52361928D01*
X7300000Y-52361928D01*
X7175518Y-52374188D01*
X7055820Y-52410498D01*
X6945506Y-52469463D01*
X6848815Y-52548815D01*
X6769463Y-52645506D01*
X6710498Y-52755820D01*
X6674188Y-52875518D01*
X6661928Y-53000000D01*
X660000Y-53000000D01*
X660000Y-50300000D01*
X8061928Y-50300000D01*
X8061928Y-51300000D01*
X8074188Y-51424482D01*
X8110498Y-51544180D01*
X8169463Y-51654494D01*
X8248815Y-51751185D01*
X8345506Y-51830537D01*
X8455820Y-51889502D01*
X8575518Y-51925812D01*
X8700000Y-51938072D01*
X10900000Y-51938072D01*
X11024482Y-51925812D01*
X11144180Y-51889502D01*
X11254494Y-51830537D01*
X11351185Y-51751185D01*
X11430537Y-51654494D01*
X11489502Y-51544180D01*
X11525812Y-51424482D01*
X11538072Y-51300000D01*
X11538072Y-50300000D01*
X11525812Y-50175518D01*
X11489502Y-50055820D01*
X11430537Y-49945506D01*
X11351185Y-49848815D01*
X11254494Y-49769463D01*
X11144180Y-49710498D01*
X11024482Y-49674188D01*
X10900000Y-49661928D01*
X8700000Y-49661928D01*
X8575518Y-49674188D01*
X8455820Y-49710498D01*
X8345506Y-49769463D01*
X8248815Y-49848815D01*
X8169463Y-49945506D01*
X8110498Y-50055820D01*
X8074188Y-50175518D01*
X8061928Y-50300000D01*
X660000Y-50300000D01*
X660000Y-48000000D01*
X3661928Y-48000000D01*
X3661928Y-49000000D01*
X3674188Y-49124482D01*
X3710498Y-49244180D01*
X3769463Y-49354494D01*
X3848815Y-49451185D01*
X3945506Y-49530537D01*
X4055820Y-49589502D01*
X4175518Y-49625812D01*
X4300000Y-49638072D01*
X6500000Y-49638072D01*
X6624482Y-49625812D01*
X6744180Y-49589502D01*
X6854494Y-49530537D01*
X6951185Y-49451185D01*
X7030537Y-49354494D01*
X7089502Y-49244180D01*
X7125812Y-49124482D01*
X7138072Y-49000000D01*
X7138072Y-48000000D01*
X7125812Y-47875518D01*
X7089502Y-47755820D01*
X7030537Y-47645506D01*
X6951185Y-47548815D01*
X6854494Y-47469463D01*
X6744180Y-47410498D01*
X6624482Y-47374188D01*
X6500000Y-47361928D01*
X4300000Y-47361928D01*
X4175518Y-47374188D01*
X4055820Y-47410498D01*
X3945506Y-47469463D01*
X3848815Y-47548815D01*
X3769463Y-47645506D01*
X3710498Y-47755820D01*
X3674188Y-47875518D01*
X3661928Y-48000000D01*
X660000Y-48000000D01*
X660000Y-46900000D01*
X11861928Y-46900000D01*
X11861928Y-49100000D01*
X11874188Y-49224482D01*
X11910498Y-49344180D01*
X11969463Y-49454494D01*
X12048815Y-49551185D01*
X12145506Y-49630537D01*
X12255820Y-49689502D01*
X12375518Y-49725812D01*
X12500000Y-49738072D01*
X13500000Y-49738072D01*
X13624482Y-49725812D01*
X13744180Y-49689502D01*
X13854494Y-49630537D01*
X13951185Y-49551185D01*
X14030537Y-49454494D01*
X14089502Y-49344180D01*
X14125812Y-49224482D01*
X14138072Y-49100000D01*
X14138072Y-46900000D01*
X14125812Y-46775518D01*
X14089502Y-46655820D01*
X14030537Y-46545506D01*
X13951185Y-46448815D01*
X13854494Y-46369463D01*
X13744180Y-46310498D01*
X13624482Y-46274188D01*
X13500000Y-46261928D01*
X12500000Y-46261928D01*
X12375518Y-46274188D01*
X12255820Y-46310498D01*
X12145506Y-46369463D01*
X12048815Y-46448815D01*
X11969463Y-46545506D01*
X11910498Y-46655820D01*
X11874188Y-46775518D01*
X11861928Y-46900000D01*
X660000Y-46900000D01*
X660000Y-45100000D01*
X861928Y-45100000D01*
X874188Y-45224482D01*
X910498Y-45344180D01*
X969463Y-45454494D01*
X1048815Y-45551185D01*
X1145506Y-45630537D01*
X1255820Y-45689502D01*
X1375518Y-45725812D01*
X1500000Y-45738072D01*
X1714250Y-45735000D01*
X1873000Y-45576250D01*
X1873000Y-44127000D01*
X2127000Y-44127000D01*
X2127000Y-45576250D01*
X2285750Y-45735000D01*
X2500000Y-45738072D01*
X2624482Y-45725812D01*
X2744180Y-45689502D01*
X2854494Y-45630537D01*
X2951185Y-45551185D01*
X3030537Y-45454494D01*
X3089502Y-45344180D01*
X3125812Y-45224482D01*
X3138072Y-45100000D01*
X3135809Y-44500000D01*
X18511928Y-44500000D01*
X18524188Y-44624482D01*
X18560498Y-44744180D01*
X18619463Y-44854494D01*
X18698815Y-44951185D01*
X18795506Y-45030537D01*
X18905820Y-45089502D01*
X18978380Y-45111513D01*
X18846525Y-45243368D01*
X18684010Y-45486589D01*
X18572068Y-45756842D01*
X18515000Y-46043740D01*
X18515000Y-46336260D01*
X18572068Y-46623158D01*
X18684010Y-46893411D01*
X18846525Y-47136632D01*
X19053368Y-47343475D01*
X19227760Y-47460000D01*
X19053368Y-47576525D01*
X18846525Y-47783368D01*
X18684010Y-48026589D01*
X18572068Y-48296842D01*
X18515000Y-48583740D01*
X18515000Y-48876260D01*
X18572068Y-49163158D01*
X18684010Y-49433411D01*
X18846525Y-49676632D01*
X19053368Y-49883475D01*
X19227760Y-50000000D01*
X19053368Y-50116525D01*
X18846525Y-50323368D01*
X18684010Y-50566589D01*
X18572068Y-50836842D01*
X18515000Y-51123740D01*
X18515000Y-51416260D01*
X18572068Y-51703158D01*
X18684010Y-51973411D01*
X18846525Y-52216632D01*
X19053368Y-52423475D01*
X19227760Y-52540000D01*
X19053368Y-52656525D01*
X18846525Y-52863368D01*
X18684010Y-53106589D01*
X18572068Y-53376842D01*
X18515000Y-53663740D01*
X18515000Y-53956260D01*
X18572068Y-54243158D01*
X18684010Y-54513411D01*
X18846525Y-54756632D01*
X19053368Y-54963475D01*
X19235534Y-55085195D01*
X19118645Y-55154822D01*
X18902412Y-55349731D01*
X18728359Y-55583080D01*
X18603175Y-55845901D01*
X18558524Y-55993110D01*
X18679845Y-56223000D01*
X19873000Y-56223000D01*
X19873000Y-56203000D01*
X20127000Y-56203000D01*
X20127000Y-56223000D01*
X22413000Y-56223000D01*
X22413000Y-56203000D01*
X22667000Y-56203000D01*
X22667000Y-56223000D01*
X23860155Y-56223000D01*
X23981476Y-55993110D01*
X23936825Y-55845901D01*
X23811641Y-55583080D01*
X23637588Y-55349731D01*
X23421355Y-55154822D01*
X23304466Y-55085195D01*
X23486632Y-54963475D01*
X23693475Y-54756632D01*
X23855990Y-54513411D01*
X23967932Y-54243158D01*
X24025000Y-53956260D01*
X24025000Y-53663740D01*
X23967932Y-53376842D01*
X23855990Y-53106589D01*
X23693475Y-52863368D01*
X23486632Y-52656525D01*
X23312240Y-52540000D01*
X23486632Y-52423475D01*
X23693475Y-52216632D01*
X23855990Y-51973411D01*
X23967932Y-51703158D01*
X24025000Y-51416260D01*
X24025000Y-51123740D01*
X23967932Y-50836842D01*
X23855990Y-50566589D01*
X23693475Y-50323368D01*
X23486632Y-50116525D01*
X23312240Y-50000000D01*
X23486632Y-49883475D01*
X23693475Y-49676632D01*
X23855990Y-49433411D01*
X23967932Y-49163158D01*
X24025000Y-48876260D01*
X24025000Y-48583740D01*
X23967932Y-48296842D01*
X23855990Y-48026589D01*
X23693475Y-47783368D01*
X23486632Y-47576525D01*
X23312240Y-47460000D01*
X23486632Y-47343475D01*
X23693475Y-47136632D01*
X23855990Y-46893411D01*
X23967932Y-46623158D01*
X24025000Y-46336260D01*
X24025000Y-46043740D01*
X23967932Y-45756842D01*
X23855990Y-45486589D01*
X23693475Y-45243368D01*
X23486632Y-45036525D01*
X23304466Y-44914805D01*
X23421355Y-44845178D01*
X23637588Y-44650269D01*
X23811641Y-44416920D01*
X23936825Y-44154099D01*
X23981476Y-44006890D01*
X23860155Y-43777000D01*
X22667000Y-43777000D01*
X22667000Y-43797000D01*
X22413000Y-43797000D01*
X22413000Y-43777000D01*
X20127000Y-43777000D01*
X20127000Y-43797000D01*
X19873000Y-43797000D01*
X19873000Y-43777000D01*
X18673750Y-43777000D01*
X18515000Y-43935750D01*
X18511928Y-44500000D01*
X3135809Y-44500000D01*
X3135000Y-44285750D01*
X2976250Y-44127000D01*
X2127000Y-44127000D01*
X1873000Y-44127000D01*
X1023750Y-44127000D01*
X865000Y-44285750D01*
X861928Y-45100000D01*
X660000Y-45100000D01*
X660000Y-42900000D01*
X861928Y-42900000D01*
X865000Y-43714250D01*
X1023750Y-43873000D01*
X1873000Y-43873000D01*
X1873000Y-42423750D01*
X2127000Y-42423750D01*
X2127000Y-43873000D01*
X2976250Y-43873000D01*
X3135000Y-43714250D01*
X3138072Y-42900000D01*
X3128224Y-42800000D01*
X18511928Y-42800000D01*
X18515000Y-43364250D01*
X18673750Y-43523000D01*
X19873000Y-43523000D01*
X19873000Y-42323750D01*
X20127000Y-42323750D01*
X20127000Y-43523000D01*
X22413000Y-43523000D01*
X22413000Y-42329186D01*
X22667000Y-42329186D01*
X22667000Y-43523000D01*
X23860155Y-43523000D01*
X23981476Y-43293110D01*
X23936825Y-43145901D01*
X23811641Y-42883080D01*
X23637588Y-42649731D01*
X23421355Y-42454822D01*
X23171252Y-42305843D01*
X22896891Y-42208519D01*
X22667000Y-42329186D01*
X22413000Y-42329186D01*
X22183109Y-42208519D01*
X21908748Y-42305843D01*
X21658645Y-42454822D01*
X21462498Y-42631626D01*
X21439502Y-42555820D01*
X21380537Y-42445506D01*
X21301185Y-42348815D01*
X21204494Y-42269463D01*
X21094180Y-42210498D01*
X20974482Y-42174188D01*
X20850000Y-42161928D01*
X20285750Y-42165000D01*
X20127000Y-42323750D01*
X19873000Y-42323750D01*
X19714250Y-42165000D01*
X19150000Y-42161928D01*
X19025518Y-42174188D01*
X18905820Y-42210498D01*
X18795506Y-42269463D01*
X18698815Y-42348815D01*
X18619463Y-42445506D01*
X18560498Y-42555820D01*
X18524188Y-42675518D01*
X18511928Y-42800000D01*
X3128224Y-42800000D01*
X3125812Y-42775518D01*
X3089502Y-42655820D01*
X3030537Y-42545506D01*
X2951185Y-42448815D01*
X2854494Y-42369463D01*
X2744180Y-42310498D01*
X2624482Y-42274188D01*
X2500000Y-42261928D01*
X2285750Y-42265000D01*
X2127000Y-42423750D01*
X1873000Y-42423750D01*
X1714250Y-42265000D01*
X1500000Y-42261928D01*
X1375518Y-42274188D01*
X1255820Y-42310498D01*
X1145506Y-42369463D01*
X1048815Y-42448815D01*
X969463Y-42545506D01*
X910498Y-42655820D01*
X874188Y-42775518D01*
X861928Y-42900000D01*
X660000Y-42900000D01*
X660000Y-41000000D01*
X6661928Y-41000000D01*
X6661928Y-42000000D01*
X6674188Y-42124482D01*
X6710498Y-42244180D01*
X6769463Y-42354494D01*
X6848815Y-42451185D01*
X6945506Y-42530537D01*
X7055820Y-42589502D01*
X7175518Y-42625812D01*
X7300000Y-42638072D01*
X9500000Y-42638072D01*
X9624482Y-42625812D01*
X9744180Y-42589502D01*
X9854494Y-42530537D01*
X9951185Y-42451185D01*
X10030537Y-42354494D01*
X10089502Y-42244180D01*
X10125812Y-42124482D01*
X10138072Y-42000000D01*
X10138072Y-41000000D01*
X10125812Y-40875518D01*
X10089502Y-40755820D01*
X10030537Y-40645506D01*
X9951185Y-40548815D01*
X9854494Y-40469463D01*
X9744180Y-40410498D01*
X9624482Y-40374188D01*
X9500000Y-40361928D01*
X7300000Y-40361928D01*
X7175518Y-40374188D01*
X7055820Y-40410498D01*
X6945506Y-40469463D01*
X6848815Y-40548815D01*
X6769463Y-40645506D01*
X6710498Y-40755820D01*
X6674188Y-40875518D01*
X6661928Y-41000000D01*
X660000Y-41000000D01*
X660000Y-38300000D01*
X8061928Y-38300000D01*
X8061928Y-39300000D01*
X8074188Y-39424482D01*
X8110498Y-39544180D01*
X8169463Y-39654494D01*
X8248815Y-39751185D01*
X8345506Y-39830537D01*
X8455820Y-39889502D01*
X8575518Y-39925812D01*
X8700000Y-39938072D01*
X10900000Y-39938072D01*
X11024482Y-39925812D01*
X11144180Y-39889502D01*
X11254494Y-39830537D01*
X11351185Y-39751185D01*
X11430537Y-39654494D01*
X11489502Y-39544180D01*
X11525812Y-39424482D01*
X11538072Y-39300000D01*
X11538072Y-38300000D01*
X11525812Y-38175518D01*
X11489502Y-38055820D01*
X11430537Y-37945506D01*
X11351185Y-37848815D01*
X11254494Y-37769463D01*
X11144180Y-37710498D01*
X11024482Y-37674188D01*
X10900000Y-37661928D01*
X8700000Y-37661928D01*
X8575518Y-37674188D01*
X8455820Y-37710498D01*
X8345506Y-37769463D01*
X8248815Y-37848815D01*
X8169463Y-37945506D01*
X8110498Y-38055820D01*
X8074188Y-38175518D01*
X8061928Y-38300000D01*
X660000Y-38300000D01*
X660000Y-36000000D01*
X3661928Y-36000000D01*
X3661928Y-37000000D01*
X3674188Y-37124482D01*
X3710498Y-37244180D01*
X3769463Y-37354494D01*
X3848815Y-37451185D01*
X3945506Y-37530537D01*
X4055820Y-37589502D01*
X4175518Y-37625812D01*
X4300000Y-37638072D01*
X6500000Y-37638072D01*
X6624482Y-37625812D01*
X6744180Y-37589502D01*
X6854494Y-37530537D01*
X6951185Y-37451185D01*
X7030537Y-37354494D01*
X7089502Y-37244180D01*
X7125812Y-37124482D01*
X7138072Y-37000000D01*
X7138072Y-36000000D01*
X7125812Y-35875518D01*
X7089502Y-35755820D01*
X7030537Y-35645506D01*
X6951185Y-35548815D01*
X6854494Y-35469463D01*
X6744180Y-35410498D01*
X6624482Y-35374188D01*
X6500000Y-35361928D01*
X4300000Y-35361928D01*
X4175518Y-35374188D01*
X4055820Y-35410498D01*
X3945506Y-35469463D01*
X3848815Y-35548815D01*
X3769463Y-35645506D01*
X3710498Y-35755820D01*
X3674188Y-35875518D01*
X3661928Y-36000000D01*
X660000Y-36000000D01*
X660000Y-34900000D01*
X11861928Y-34900000D01*
X11861928Y-37100000D01*
X11874188Y-37224482D01*
X11910498Y-37344180D01*
X11969463Y-37454494D01*
X12048815Y-37551185D01*
X12145506Y-37630537D01*
X12255820Y-37689502D01*
X12375518Y-37725812D01*
X12500000Y-37738072D01*
X13500000Y-37738072D01*
X13624482Y-37725812D01*
X13744180Y-37689502D01*
X13854494Y-37630537D01*
X13951185Y-37551185D01*
X14030537Y-37454494D01*
X14089502Y-37344180D01*
X14125812Y-37224482D01*
X14138072Y-37100000D01*
X14138072Y-34900000D01*
X14125812Y-34775518D01*
X14089502Y-34655820D01*
X14030537Y-34545506D01*
X13951185Y-34448815D01*
X13854494Y-34369463D01*
X13744180Y-34310498D01*
X13624482Y-34274188D01*
X13500000Y-34261928D01*
X12500000Y-34261928D01*
X12375518Y-34274188D01*
X12255820Y-34310498D01*
X12145506Y-34369463D01*
X12048815Y-34448815D01*
X11969463Y-34545506D01*
X11910498Y-34655820D01*
X11874188Y-34775518D01*
X11861928Y-34900000D01*
X660000Y-34900000D01*
X660000Y-33100000D01*
X861928Y-33100000D01*
X874188Y-33224482D01*
X910498Y-33344180D01*
X969463Y-33454494D01*
X1048815Y-33551185D01*
X1145506Y-33630537D01*
X1255820Y-33689502D01*
X1375518Y-33725812D01*
X1500000Y-33738072D01*
X1714250Y-33735000D01*
X1873000Y-33576250D01*
X1873000Y-32127000D01*
X2127000Y-32127000D01*
X2127000Y-33576250D01*
X2285750Y-33735000D01*
X2500000Y-33738072D01*
X2624482Y-33725812D01*
X2744180Y-33689502D01*
X2854494Y-33630537D01*
X2951185Y-33551185D01*
X3030537Y-33454494D01*
X3089502Y-33344180D01*
X3125812Y-33224482D01*
X3138072Y-33100000D01*
X3135000Y-32285750D01*
X2976250Y-32127000D01*
X2127000Y-32127000D01*
X1873000Y-32127000D01*
X1023750Y-32127000D01*
X865000Y-32285750D01*
X861928Y-33100000D01*
X660000Y-33100000D01*
X660000Y-30900000D01*
X861928Y-30900000D01*
X865000Y-31714250D01*
X1023750Y-31873000D01*
X1873000Y-31873000D01*
X1873000Y-30423750D01*
X2127000Y-30423750D01*
X2127000Y-31873000D01*
X2976250Y-31873000D01*
X3135000Y-31714250D01*
X3138072Y-30900000D01*
X3125812Y-30775518D01*
X3089502Y-30655820D01*
X3030537Y-30545506D01*
X2951185Y-30448815D01*
X2854494Y-30369463D01*
X2744180Y-30310498D01*
X2624482Y-30274188D01*
X2500000Y-30261928D01*
X2285750Y-30265000D01*
X2127000Y-30423750D01*
X1873000Y-30423750D01*
X1714250Y-30265000D01*
X1500000Y-30261928D01*
X1375518Y-30274188D01*
X1255820Y-30310498D01*
X1145506Y-30369463D01*
X1048815Y-30448815D01*
X969463Y-30545506D01*
X910498Y-30655820D01*
X874188Y-30775518D01*
X861928Y-30900000D01*
X660000Y-30900000D01*
X660000Y-29000000D01*
X6661928Y-29000000D01*
X6661928Y-30000000D01*
X6674188Y-30124482D01*
X6710498Y-30244180D01*
X6769463Y-30354494D01*
X6848815Y-30451185D01*
X6945506Y-30530537D01*
X7055820Y-30589502D01*
X7175518Y-30625812D01*
X7300000Y-30638072D01*
X9500000Y-30638072D01*
X9624482Y-30625812D01*
X9744180Y-30589502D01*
X9854494Y-30530537D01*
X9951185Y-30451185D01*
X10030537Y-30354494D01*
X10089502Y-30244180D01*
X10125812Y-30124482D01*
X10138072Y-30000000D01*
X10138072Y-29000000D01*
X10125812Y-28875518D01*
X10089502Y-28755820D01*
X10030537Y-28645506D01*
X9951185Y-28548815D01*
X9854494Y-28469463D01*
X9744180Y-28410498D01*
X9624482Y-28374188D01*
X9500000Y-28361928D01*
X7300000Y-28361928D01*
X7175518Y-28374188D01*
X7055820Y-28410498D01*
X6945506Y-28469463D01*
X6848815Y-28548815D01*
X6769463Y-28645506D01*
X6710498Y-28755820D01*
X6674188Y-28875518D01*
X6661928Y-29000000D01*
X660000Y-29000000D01*
X660000Y-26300000D01*
X8061928Y-26300000D01*
X8061928Y-27300000D01*
X8074188Y-27424482D01*
X8110498Y-27544180D01*
X8169463Y-27654494D01*
X8248815Y-27751185D01*
X8345506Y-27830537D01*
X8455820Y-27889502D01*
X8575518Y-27925812D01*
X8700000Y-27938072D01*
X10900000Y-27938072D01*
X11024482Y-27925812D01*
X11144180Y-27889502D01*
X11254494Y-27830537D01*
X11351185Y-27751185D01*
X11430537Y-27654494D01*
X11489502Y-27544180D01*
X11525812Y-27424482D01*
X11538072Y-27300000D01*
X11538072Y-26300000D01*
X11525812Y-26175518D01*
X11489502Y-26055820D01*
X11430537Y-25945506D01*
X11351185Y-25848815D01*
X11254494Y-25769463D01*
X11144180Y-25710498D01*
X11024482Y-25674188D01*
X10900000Y-25661928D01*
X8700000Y-25661928D01*
X8575518Y-25674188D01*
X8455820Y-25710498D01*
X8345506Y-25769463D01*
X8248815Y-25848815D01*
X8169463Y-25945506D01*
X8110498Y-26055820D01*
X8074188Y-26175518D01*
X8061928Y-26300000D01*
X660000Y-26300000D01*
X660000Y-24000000D01*
X3661928Y-24000000D01*
X3661928Y-25000000D01*
X3674188Y-25124482D01*
X3710498Y-25244180D01*
X3769463Y-25354494D01*
X3848815Y-25451185D01*
X3945506Y-25530537D01*
X4055820Y-25589502D01*
X4175518Y-25625812D01*
X4300000Y-25638072D01*
X6500000Y-25638072D01*
X6624482Y-25625812D01*
X6744180Y-25589502D01*
X6854494Y-25530537D01*
X6951185Y-25451185D01*
X7030537Y-25354494D01*
X7089502Y-25244180D01*
X7125812Y-25124482D01*
X7138072Y-25000000D01*
X7138072Y-24000000D01*
X7125812Y-23875518D01*
X7089502Y-23755820D01*
X7030537Y-23645506D01*
X6951185Y-23548815D01*
X6854494Y-23469463D01*
X6744180Y-23410498D01*
X6624482Y-23374188D01*
X6500000Y-23361928D01*
X4300000Y-23361928D01*
X4175518Y-23374188D01*
X4055820Y-23410498D01*
X3945506Y-23469463D01*
X3848815Y-23548815D01*
X3769463Y-23645506D01*
X3710498Y-23755820D01*
X3674188Y-23875518D01*
X3661928Y-24000000D01*
X660000Y-24000000D01*
X660000Y-22900000D01*
X11861928Y-22900000D01*
X11861928Y-25100000D01*
X11874188Y-25224482D01*
X11910498Y-25344180D01*
X11969463Y-25454494D01*
X12048815Y-25551185D01*
X12145506Y-25630537D01*
X12255820Y-25689502D01*
X12375518Y-25725812D01*
X12500000Y-25738072D01*
X13500000Y-25738072D01*
X13624482Y-25725812D01*
X13744180Y-25689502D01*
X13854494Y-25630537D01*
X13951185Y-25551185D01*
X14030537Y-25454494D01*
X14089502Y-25344180D01*
X14125812Y-25224482D01*
X14138072Y-25100000D01*
X14138072Y-22900000D01*
X14125812Y-22775518D01*
X14089502Y-22655820D01*
X14030537Y-22545506D01*
X13951185Y-22448815D01*
X13854494Y-22369463D01*
X13744180Y-22310498D01*
X13624482Y-22274188D01*
X13500000Y-22261928D01*
X12500000Y-22261928D01*
X12375518Y-22274188D01*
X12255820Y-22310498D01*
X12145506Y-22369463D01*
X12048815Y-22448815D01*
X11969463Y-22545506D01*
X11910498Y-22655820D01*
X11874188Y-22775518D01*
X11861928Y-22900000D01*
X660000Y-22900000D01*
X660000Y-21100000D01*
X861928Y-21100000D01*
X874188Y-21224482D01*
X910498Y-21344180D01*
X969463Y-21454494D01*
X1048815Y-21551185D01*
X1145506Y-21630537D01*
X1255820Y-21689502D01*
X1375518Y-21725812D01*
X1500000Y-21738072D01*
X1714250Y-21735000D01*
X1873000Y-21576250D01*
X1873000Y-20127000D01*
X2127000Y-20127000D01*
X2127000Y-21576250D01*
X2285750Y-21735000D01*
X2500000Y-21738072D01*
X2624482Y-21725812D01*
X2744180Y-21689502D01*
X2854494Y-21630537D01*
X2951185Y-21551185D01*
X3030537Y-21454494D01*
X3089502Y-21344180D01*
X3125812Y-21224482D01*
X3138072Y-21100000D01*
X3135000Y-20285750D01*
X2976250Y-20127000D01*
X2127000Y-20127000D01*
X1873000Y-20127000D01*
X1023750Y-20127000D01*
X865000Y-20285750D01*
X861928Y-21100000D01*
X660000Y-21100000D01*
X660000Y-18900000D01*
X861928Y-18900000D01*
X865000Y-19714250D01*
X1023750Y-19873000D01*
X1873000Y-19873000D01*
X1873000Y-18423750D01*
X2127000Y-18423750D01*
X2127000Y-19873000D01*
X2976250Y-19873000D01*
X3135000Y-19714250D01*
X3138072Y-18900000D01*
X3125812Y-18775518D01*
X3089502Y-18655820D01*
X3030537Y-18545506D01*
X2951185Y-18448815D01*
X2854494Y-18369463D01*
X2744180Y-18310498D01*
X2624482Y-18274188D01*
X2500000Y-18261928D01*
X2285750Y-18265000D01*
X2127000Y-18423750D01*
X1873000Y-18423750D01*
X1714250Y-18265000D01*
X1500000Y-18261928D01*
X1375518Y-18274188D01*
X1255820Y-18310498D01*
X1145506Y-18369463D01*
X1048815Y-18448815D01*
X969463Y-18545506D01*
X910498Y-18655820D01*
X874188Y-18775518D01*
X861928Y-18900000D01*
X660000Y-18900000D01*
X660000Y-17000000D01*
X6661928Y-17000000D01*
X6661928Y-18000000D01*
X6674188Y-18124482D01*
X6710498Y-18244180D01*
X6769463Y-18354494D01*
X6848815Y-18451185D01*
X6945506Y-18530537D01*
X7055820Y-18589502D01*
X7175518Y-18625812D01*
X7300000Y-18638072D01*
X9500000Y-18638072D01*
X9624482Y-18625812D01*
X9744180Y-18589502D01*
X9854494Y-18530537D01*
X9951185Y-18451185D01*
X10030537Y-18354494D01*
X10089502Y-18244180D01*
X10125812Y-18124482D01*
X10138072Y-18000000D01*
X10138072Y-17000000D01*
X10125812Y-16875518D01*
X10089502Y-16755820D01*
X10030537Y-16645506D01*
X9951185Y-16548815D01*
X9854494Y-16469463D01*
X9744180Y-16410498D01*
X9624482Y-16374188D01*
X9500000Y-16361928D01*
X7300000Y-16361928D01*
X7175518Y-16374188D01*
X7055820Y-16410498D01*
X6945506Y-16469463D01*
X6848815Y-16548815D01*
X6769463Y-16645506D01*
X6710498Y-16755820D01*
X6674188Y-16875518D01*
X6661928Y-17000000D01*
X660000Y-17000000D01*
X660000Y-14300000D01*
X8061928Y-14300000D01*
X8061928Y-15300000D01*
X8074188Y-15424482D01*
X8110498Y-15544180D01*
X8169463Y-15654494D01*
X8248815Y-15751185D01*
X8345506Y-15830537D01*
X8455820Y-15889502D01*
X8575518Y-15925812D01*
X8700000Y-15938072D01*
X10900000Y-15938072D01*
X11024482Y-15925812D01*
X11144180Y-15889502D01*
X11254494Y-15830537D01*
X11351185Y-15751185D01*
X11430537Y-15654494D01*
X11489502Y-15544180D01*
X11525812Y-15424482D01*
X11538072Y-15300000D01*
X11538072Y-14300000D01*
X11525812Y-14175518D01*
X11489502Y-14055820D01*
X11430537Y-13945506D01*
X11351185Y-13848815D01*
X11254494Y-13769463D01*
X11144180Y-13710498D01*
X11024482Y-13674188D01*
X10900000Y-13661928D01*
X8700000Y-13661928D01*
X8575518Y-13674188D01*
X8455820Y-13710498D01*
X8345506Y-13769463D01*
X8248815Y-13848815D01*
X8169463Y-13945506D01*
X8110498Y-14055820D01*
X8074188Y-14175518D01*
X8061928Y-14300000D01*
X660000Y-14300000D01*
X660000Y-12000000D01*
X3661928Y-12000000D01*
X3661928Y-13000000D01*
X3674188Y-13124482D01*
X3710498Y-13244180D01*
X3769463Y-13354494D01*
X3848815Y-13451185D01*
X3945506Y-13530537D01*
X4055820Y-13589502D01*
X4175518Y-13625812D01*
X4300000Y-13638072D01*
X6500000Y-13638072D01*
X6624482Y-13625812D01*
X6744180Y-13589502D01*
X6854494Y-13530537D01*
X6951185Y-13451185D01*
X7030537Y-13354494D01*
X7089502Y-13244180D01*
X7125812Y-13124482D01*
X7138072Y-13000000D01*
X7138072Y-12000000D01*
X7125812Y-11875518D01*
X7089502Y-11755820D01*
X7030537Y-11645506D01*
X6951185Y-11548815D01*
X6854494Y-11469463D01*
X6744180Y-11410498D01*
X6624482Y-11374188D01*
X6500000Y-11361928D01*
X4300000Y-11361928D01*
X4175518Y-11374188D01*
X4055820Y-11410498D01*
X3945506Y-11469463D01*
X3848815Y-11548815D01*
X3769463Y-11645506D01*
X3710498Y-11755820D01*
X3674188Y-11875518D01*
X3661928Y-12000000D01*
X660000Y-12000000D01*
X660000Y-10900000D01*
X11861928Y-10900000D01*
X11861928Y-13100000D01*
X11874188Y-13224482D01*
X11910498Y-13344180D01*
X11969463Y-13454494D01*
X12048815Y-13551185D01*
X12145506Y-13630537D01*
X12255820Y-13689502D01*
X12375518Y-13725812D01*
X12500000Y-13738072D01*
X13500000Y-13738072D01*
X13624482Y-13725812D01*
X13744180Y-13689502D01*
X13854494Y-13630537D01*
X13951185Y-13551185D01*
X14030537Y-13454494D01*
X14089502Y-13344180D01*
X14125812Y-13224482D01*
X14138072Y-13100000D01*
X14138072Y-10900000D01*
X14125812Y-10775518D01*
X14089502Y-10655820D01*
X14030537Y-10545506D01*
X13951185Y-10448815D01*
X13854494Y-10369463D01*
X13744180Y-10310498D01*
X13624482Y-10274188D01*
X13500000Y-10261928D01*
X12500000Y-10261928D01*
X12375518Y-10274188D01*
X12255820Y-10310498D01*
X12145506Y-10369463D01*
X12048815Y-10448815D01*
X11969463Y-10545506D01*
X11910498Y-10655820D01*
X11874188Y-10775518D01*
X11861928Y-10900000D01*
X660000Y-10900000D01*
X660000Y-9100000D01*
X861928Y-9100000D01*
X874188Y-9224482D01*
X910498Y-9344180D01*
X969463Y-9454494D01*
X1048815Y-9551185D01*
X1145506Y-9630537D01*
X1255820Y-9689502D01*
X1375518Y-9725812D01*
X1500000Y-9738072D01*
X1714250Y-9735000D01*
X1873000Y-9576250D01*
X1873000Y-8127000D01*
X2127000Y-8127000D01*
X2127000Y-9576250D01*
X2285750Y-9735000D01*
X2500000Y-9738072D01*
X2624482Y-9725812D01*
X2744180Y-9689502D01*
X2854494Y-9630537D01*
X2951185Y-9551185D01*
X3030537Y-9454494D01*
X3089502Y-9344180D01*
X3125812Y-9224482D01*
X3138072Y-9100000D01*
X3135000Y-8285750D01*
X2976250Y-8127000D01*
X2127000Y-8127000D01*
X1873000Y-8127000D01*
X1023750Y-8127000D01*
X865000Y-8285750D01*
X861928Y-9100000D01*
X660000Y-9100000D01*
X660000Y-6900000D01*
X861928Y-6900000D01*
X865000Y-7714250D01*
X1023750Y-7873000D01*
X1873000Y-7873000D01*
X1873000Y-6423750D01*
X2127000Y-6423750D01*
X2127000Y-7873000D01*
X2976250Y-7873000D01*
X3135000Y-7714250D01*
X3138072Y-6900000D01*
X3125812Y-6775518D01*
X3089502Y-6655820D01*
X3030537Y-6545506D01*
X2951185Y-6448815D01*
X2854494Y-6369463D01*
X2744180Y-6310498D01*
X2624482Y-6274188D01*
X2500000Y-6261928D01*
X2285750Y-6265000D01*
X2127000Y-6423750D01*
X1873000Y-6423750D01*
X1714250Y-6265000D01*
X1500000Y-6261928D01*
X1375518Y-6274188D01*
X1255820Y-6310498D01*
X1145506Y-6369463D01*
X1048815Y-6448815D01*
X969463Y-6545506D01*
X910498Y-6655820D01*
X874188Y-6775518D01*
X861928Y-6900000D01*
X660000Y-6900000D01*
X660000Y-5000000D01*
X6661928Y-5000000D01*
X6661928Y-6000000D01*
X6674188Y-6124482D01*
X6710498Y-6244180D01*
X6769463Y-6354494D01*
X6848815Y-6451185D01*
X6945506Y-6530537D01*
X7055820Y-6589502D01*
X7175518Y-6625812D01*
X7300000Y-6638072D01*
X9500000Y-6638072D01*
X9624482Y-6625812D01*
X9744180Y-6589502D01*
X9854494Y-6530537D01*
X9951185Y-6451185D01*
X10030537Y-6354494D01*
X10089502Y-6244180D01*
X10125812Y-6124482D01*
X10138072Y-6000000D01*
X10138072Y-5000000D01*
X10125812Y-4875518D01*
X10089502Y-4755820D01*
X10030537Y-4645506D01*
X9951185Y-4548815D01*
X9854494Y-4469463D01*
X9744180Y-4410498D01*
X9624482Y-4374188D01*
X9500000Y-4361928D01*
X7300000Y-4361928D01*
X7175518Y-4374188D01*
X7055820Y-4410498D01*
X6945506Y-4469463D01*
X6848815Y-4548815D01*
X6769463Y-4645506D01*
X6710498Y-4755820D01*
X6674188Y-4875518D01*
X6661928Y-5000000D01*
X660000Y-5000000D01*
X660000Y-2300000D01*
X8061928Y-2300000D01*
X8061928Y-3300000D01*
X8074188Y-3424482D01*
X8110498Y-3544180D01*
X8169463Y-3654494D01*
X8248815Y-3751185D01*
X8345506Y-3830537D01*
X8455820Y-3889502D01*
X8575518Y-3925812D01*
X8700000Y-3938072D01*
X10900000Y-3938072D01*
X11024482Y-3925812D01*
X11144180Y-3889502D01*
X11254494Y-3830537D01*
X11351185Y-3751185D01*
X11430537Y-3654494D01*
X11489502Y-3544180D01*
X11525812Y-3424482D01*
X11538072Y-3300000D01*
X11538072Y-2300000D01*
X11525812Y-2175518D01*
X11489502Y-2055820D01*
X11430537Y-1945506D01*
X11351185Y-1848815D01*
X11254494Y-1769463D01*
X11144180Y-1710498D01*
X11024482Y-1674188D01*
X10900000Y-1661928D01*
X8700000Y-1661928D01*
X8575518Y-1674188D01*
X8455820Y-1710498D01*
X8345506Y-1769463D01*
X8248815Y-1848815D01*
X8169463Y-1945506D01*
X8110498Y-2055820D01*
X8074188Y-2175518D01*
X8061928Y-2300000D01*
X660000Y-2300000D01*
X660000Y-660000D01*
X24340000Y-660000D01*
X24340001Y-99340000D01*
M02*
