M48
; DRILL file {KiCad 9.0.0} date 2025-02-23T16:09:49-0700
; FORMAT={-:-/ absolute / inch / decimal}
; #@! TF.CreationDate,2025-02-23T16:09:49-07:00
; #@! TF.GenerationSoftware,Kicad,Pcbnew,9.0.0
; #@! TF.FileFunction,Plated,1,2,PTH
FMAT,2
INCH
; #@! TA.AperFunction,Plated,PTH,ComponentDrill
T1C0.0157
; #@! TA.AperFunction,Plated,PTH,ComponentDrill
T2C0.0315
; #@! TA.AperFunction,Plated,PTH,ComponentDrill
T3C0.0354
; #@! TA.AperFunction,Plated,PTH,ComponentDrill
T4C0.0394
; #@! TA.AperFunction,Plated,PTH,ComponentDrill
T5C0.0906
%
G90
G05
T2
X0.1181Y-2.6378
X0.4921Y-2.848
X0.4921Y-3.248
X0.5181Y-2.6378
X0.5906Y-1.4961
X0.5906Y-1.7717
X0.6299Y-0.0984
X0.6299Y-0.1969
X0.6299Y-0.3087
X0.6299Y-0.7087
X0.6299Y-1.9685
X0.6299Y-2.3685
X0.6299Y-2.4803
X0.6299Y-2.8803
X0.6299Y-3.2283
X0.6299Y-3.5039
X0.6299Y-3.7205
X0.6299Y-3.8189
X0.6906Y-1.4961
X0.6906Y-1.7717
X0.7299Y-3.2283
X0.7299Y-3.5039
X0.7906Y-1.4961
X0.7906Y-1.7717
X0.8268Y-0.0787
X0.8268Y-0.4787
X0.8268Y-0.6299
X0.8268Y-0.7283
X0.8268Y-0.8661
X0.8268Y-0.9646
X0.8268Y-1.9685
X0.8268Y-2.3685
X0.8268Y-2.4803
X0.8268Y-2.8803
X0.8299Y-3.2283
X0.8299Y-3.5039
X0.8661Y-3.7795
X0.9055Y-1.122
X0.9055Y-1.2598
X0.9055Y-1.437
X0.9646Y-3.7795
X0.9843Y-2.5197
X0.9843Y-2.7165
X0.9843Y-2.9134
X0.9843Y-3.1102
X0.9843Y-3.3071
X0.9843Y-3.5039
X1.0039Y-0.2512
X1.0039Y-0.5512
X1.0039Y-0.6449
X1.0039Y-0.9449
X1.0433Y-1.6929
X1.0433Y-2.0472
X1.122Y-0.2512
X1.122Y-0.5512
X1.122Y-0.6449
X1.122Y-0.9449
X1.1399Y-0.0833
X1.1417Y-1.6929
X1.1417Y-2.0472
X1.1811Y-3.7795
X1.2383Y-0.0833
X1.2795Y-3.7795
X1.3055Y-1.122
X1.3055Y-1.2598
X1.3055Y-1.437
X1.3386Y-0.2512
X1.3386Y-0.5512
X1.3386Y-0.6449
X1.3386Y-0.9449
X1.3843Y-2.5197
X1.3843Y-2.7165
X1.3843Y-2.9134
X1.3843Y-3.1102
X1.3843Y-3.3071
X1.3843Y-3.5039
X1.437Y-1.0827
X1.437Y-1.1811
X1.4567Y-0.2512
X1.4567Y-0.5512
X1.4567Y-0.6449
X1.4567Y-0.9449
T3
X1.9243Y-3.6214
X1.995Y-3.6507
X1.995Y-3.7921
X2.0243Y-3.7214
T4
X0.185Y-1.5748
X0.185Y-1.6732
X0.185Y-1.7717
X0.185Y-2.9528
X0.185Y-3.0512
X0.185Y-3.1496
X0.4898Y-0.7236
X0.4898Y-0.8236
X0.4898Y-0.9236
X0.4898Y-1.0236
X1.378Y-1.5748
X1.378Y-1.6748
X1.378Y-1.7748
X1.378Y-1.8748
X1.378Y-1.9748
X1.378Y-2.0748
X1.378Y-2.1748
X1.378Y-2.2748
X1.478Y-1.5748
X1.478Y-1.6748
X1.478Y-1.7748
X1.478Y-1.8748
X1.478Y-1.9748
X1.478Y-2.0748
X1.478Y-2.1748
X1.478Y-2.2748
X1.6567Y-3.5647
X1.6567Y-3.6647
X1.6567Y-3.7647
X1.6567Y-3.8647
T5
X0.315Y-1.4764
X0.315Y-1.8701
X0.315Y-2.8543
X0.315Y-3.248
T1
G00X0.0787Y-0.2598
M15
G01X0.0787Y-0.2913
M16
G05
G00X0.0787Y-2.2677
M15
G01X0.0787Y-2.2992
M16
G05
G00X0.0787Y-3.6457
M15
G01X0.0787Y-3.6772
M16
G05
G00X0.1969Y-0.4528
M15
G01X0.2283Y-0.4528
M16
G05
G00X0.1969Y-2.4606
M15
G01X0.2283Y-2.4606
M16
G05
G00X0.1969Y-3.8386
M15
G01X0.2283Y-3.8386
M16
G05
G00X0.315Y-0.1772
M15
G01X0.3465Y-0.1772
M16
G05
G00X0.315Y-2.185
M15
G01X0.3465Y-2.185
M16
G05
G00X0.315Y-3.563
M15
G01X0.3465Y-3.563
M16
G05
G00X0.3701Y-0.0709
M15
G01X0.4016Y-0.0709
M16
G05
G00X0.3701Y-2.0787
M15
G01X0.4016Y-2.0787
M16
G05
G00X0.3701Y-3.4567
M15
G01X0.4016Y-3.4567
M16
G05
G00X0.5118Y-0.4173
M15
G01X0.5118Y-0.4488
M16
G05
G00X0.5118Y-2.4252
M15
G01X0.5118Y-2.4567
M16
G05
G00X0.5118Y-3.8031
M15
G01X0.5118Y-3.8346
M16
G05
M30
