G04 #@! TF.GenerationSoftware,KiCad,Pcbnew,9.0.0*
G04 #@! TF.CreationDate,2025-02-23T16:09:46-07:00*
G04 #@! TF.ProjectId,VCF_THT,5643465f-5448-4542-9e6b-696361645f70,rev?*
G04 #@! TF.SameCoordinates,Original*
G04 #@! TF.FileFunction,Copper,L1,Top*
G04 #@! TF.FilePolarity,Positive*
%FSLAX46Y46*%
G04 Gerber Fmt 4.6, Leading zero omitted, Abs format (unit mm)*
G04 Created by KiCad (PCBNEW 9.0.0) date 2025-02-23 16:09:46*
%MOMM*%
%LPD*%
G01*
G04 APERTURE LIST*
G04 #@! TA.AperFunction,ComponentPad*
%ADD10R,1.000000X2.200000*%
G04 #@! TD*
G04 #@! TA.AperFunction,ComponentPad*
%ADD11R,2.200000X1.000000*%
G04 #@! TD*
G04 #@! TA.AperFunction,ComponentPad*
%ADD12R,1.700000X1.700000*%
G04 #@! TD*
G04 #@! TA.AperFunction,ComponentPad*
%ADD13O,1.700000X1.700000*%
G04 #@! TD*
G04 #@! TA.AperFunction,ComponentPad*
%ADD14C,4.600000*%
G04 #@! TD*
G04 #@! TA.AperFunction,ComponentPad*
%ADD15C,1.800000*%
G04 #@! TD*
G04 #@! TA.AperFunction,ComponentPad*
%ADD16C,1.580000*%
G04 #@! TD*
G04 #@! TA.AperFunction,ComponentPad*
%ADD17R,1.600000X1.600000*%
G04 #@! TD*
G04 #@! TA.AperFunction,ComponentPad*
%ADD18C,1.600000*%
G04 #@! TD*
G04 #@! TA.AperFunction,ComponentPad*
%ADD19O,1.600000X1.600000*%
G04 #@! TD*
G04 #@! TA.AperFunction,ComponentPad*
%ADD20R,1.520000X1.520000*%
G04 #@! TD*
G04 #@! TA.AperFunction,ComponentPad*
%ADD21C,1.520000*%
G04 #@! TD*
G04 #@! TA.AperFunction,Conductor*
%ADD22C,0.250000*%
G04 #@! TD*
G04 #@! TA.AperFunction,Conductor*
%ADD23C,0.500000*%
G04 #@! TD*
G04 APERTURE END LIST*
D10*
X2000000Y-7000000D03*
X13000000Y-11000000D03*
D11*
X5400000Y-11500000D03*
X8400000Y-4500000D03*
X9800000Y-1800000D03*
D10*
X2000000Y-58000000D03*
X13000000Y-62000000D03*
D11*
X5400000Y-62500000D03*
X8400000Y-55500000D03*
X9800000Y-52800000D03*
D12*
X12440000Y-26000000D03*
D13*
X12440000Y-23460000D03*
X12440000Y-20920000D03*
X12440000Y-18380000D03*
D12*
X42080180Y-98163380D03*
D13*
X42080180Y-95623380D03*
X42080180Y-93083380D03*
X42080180Y-90543380D03*
D12*
X35000000Y-40000000D03*
D13*
X37540000Y-40000000D03*
X35000000Y-42540000D03*
X37540000Y-42540000D03*
X35000000Y-45080000D03*
X37540000Y-45080000D03*
X35000000Y-47620000D03*
X37540000Y-47620000D03*
X35000000Y-50160000D03*
X37540000Y-50160000D03*
X35000000Y-52700000D03*
X37540000Y-52700000D03*
X35000000Y-55240000D03*
X37540000Y-55240000D03*
X35000000Y-57780000D03*
X37540000Y-57780000D03*
D10*
X2000000Y-93000000D03*
X13000000Y-97000000D03*
D11*
X5400000Y-97500000D03*
X8400000Y-90500000D03*
X9800000Y-87800000D03*
D14*
X8000000Y-47500000D03*
X8000000Y-37500000D03*
D15*
X4700000Y-40000000D03*
X4700000Y-42500000D03*
X4700000Y-45000000D03*
D14*
X8000000Y-82500000D03*
X8000000Y-72500000D03*
D15*
X4700000Y-75000000D03*
X4700000Y-77500000D03*
X4700000Y-80000000D03*
D16*
X50673320Y-92727460D03*
X51417220Y-94523560D03*
X50673320Y-96319660D03*
X48877220Y-91983560D03*
D17*
X29000000Y-52000000D03*
D18*
X26500000Y-52000000D03*
X31452820Y-2115820D03*
X28952820Y-2115820D03*
X36500000Y-30000000D03*
X36500000Y-27500000D03*
X21000000Y-16000000D03*
X21000000Y-18500000D03*
D17*
X30000000Y-96000000D03*
D18*
X32500000Y-96000000D03*
D17*
X22000000Y-96000000D03*
D18*
X24500000Y-96000000D03*
X16000000Y-97000000D03*
X16000000Y-94500000D03*
D17*
X28500000Y-16380000D03*
D19*
X28500000Y-24000000D03*
D17*
X37000000Y-16380000D03*
D19*
X37000000Y-24000000D03*
D17*
X37000000Y-6380000D03*
D19*
X37000000Y-14000000D03*
D17*
X34000000Y-14000000D03*
D19*
X34000000Y-6380000D03*
D17*
X28500000Y-6380000D03*
D19*
X28500000Y-14000000D03*
D20*
X15000000Y-38000000D03*
D21*
X17540000Y-38000000D03*
X20080000Y-38000000D03*
D20*
X15000000Y-45000000D03*
D21*
X17540000Y-45000000D03*
X20080000Y-45000000D03*
D20*
X16000000Y-82000000D03*
D21*
X18540000Y-82000000D03*
X21080000Y-82000000D03*
D20*
X16000000Y-89000000D03*
D21*
X18540000Y-89000000D03*
X21080000Y-89000000D03*
D18*
X16000000Y-18000000D03*
D19*
X16000000Y-7840000D03*
D18*
X16000000Y-50000000D03*
D19*
X16000000Y-60160000D03*
D18*
X21000000Y-60160000D03*
D19*
X21000000Y-50000000D03*
D18*
X16000000Y-63000000D03*
D19*
X16000000Y-73160000D03*
D18*
X33160000Y-32000000D03*
D19*
X23000000Y-32000000D03*
D18*
X23000000Y-28500000D03*
D19*
X33160000Y-28500000D03*
D18*
X23000000Y-36500000D03*
D19*
X33160000Y-36500000D03*
D18*
X21000000Y-73160000D03*
D19*
X21000000Y-63000000D03*
D18*
X21000000Y-2000000D03*
D19*
X21000000Y-12160000D03*
D18*
X35160000Y-79000000D03*
D19*
X25000000Y-79000000D03*
D18*
X35160000Y-64000000D03*
D19*
X25000000Y-64000000D03*
D18*
X25000000Y-89000000D03*
D19*
X35160000Y-89000000D03*
D18*
X35160000Y-74000000D03*
D19*
X25000000Y-74000000D03*
D18*
X25000000Y-84000000D03*
D19*
X35160000Y-84000000D03*
D18*
X12500000Y-82500000D03*
D19*
X12500000Y-72340000D03*
D18*
X25000000Y-69000000D03*
D19*
X35160000Y-69000000D03*
D18*
X3000000Y-67000000D03*
D19*
X13160000Y-67000000D03*
D17*
X25500000Y-14000000D03*
D19*
X25500000Y-6380000D03*
D17*
X34000000Y-24000000D03*
D19*
X34000000Y-16380000D03*
D17*
X25500000Y-24000000D03*
D19*
X25500000Y-16380000D03*
D18*
X16000000Y-5000000D03*
X16000000Y-2500000D03*
X21000000Y-22000000D03*
X21000000Y-24500000D03*
D17*
X29000000Y-43000000D03*
D18*
X26500000Y-43000000D03*
D22*
X16799999Y-5799999D02*
X16799999Y-7040001D01*
X16000000Y-5000000D02*
X16799999Y-5799999D01*
X16799999Y-7040001D02*
X16000000Y-7840000D01*
X5400000Y-11500000D02*
X7000000Y-11500000D01*
X7000000Y-11500000D02*
X16000000Y-2500000D01*
X26500000Y-22000000D02*
X28500000Y-24000000D01*
X32950000Y-24000000D02*
X28500000Y-24000000D01*
X21000000Y-22000000D02*
X26500000Y-22000000D01*
X34000000Y-24000000D02*
X32950000Y-24000000D01*
X19868630Y-24500000D02*
X21000000Y-24500000D01*
X19429999Y-20070001D02*
X20200001Y-19299999D01*
X20200001Y-19299999D02*
X21000000Y-18500000D01*
X13804900Y-24020780D02*
X13804900Y-22284900D01*
X12440000Y-20920000D02*
X13289999Y-20070001D01*
X18532919Y-20070001D02*
X18532919Y-23164289D01*
X13289999Y-21769999D02*
X12440000Y-20920000D01*
X18532919Y-23164289D02*
X19868630Y-24500000D01*
X871220Y-62671960D02*
X871220Y-35283778D01*
X871220Y-35283778D02*
X11428098Y-24726900D01*
X11428098Y-24726900D02*
X13098780Y-24726900D01*
X13804900Y-22284900D02*
X13289999Y-21769999D01*
X13098780Y-24726900D02*
X13804900Y-24020780D01*
X5199260Y-67000000D02*
X871220Y-62671960D01*
X13289999Y-20070001D02*
X18532919Y-20070001D01*
X13160000Y-67000000D02*
X5199260Y-67000000D01*
X18532919Y-20070001D02*
X19429999Y-20070001D01*
X37000000Y-24000000D02*
X37000000Y-27000000D01*
X38397180Y-22602820D02*
X37799999Y-23200001D01*
X34673540Y-2115820D02*
X37000000Y-4442280D01*
X37799999Y-23200001D02*
X37000000Y-24000000D01*
X37000000Y-6380000D02*
X37000000Y-7430000D01*
X31452820Y-2115820D02*
X34673540Y-2115820D01*
X37000000Y-27000000D02*
X36500000Y-27500000D01*
X37000000Y-7430000D02*
X38397180Y-8827180D01*
X38397180Y-8827180D02*
X38397180Y-22602820D01*
X37000000Y-4442280D02*
X37000000Y-6380000D01*
X21000000Y-2000000D02*
X28837000Y-2000000D01*
X12440000Y-23460000D02*
X10957560Y-21977560D01*
X21000000Y-5644600D02*
X21000000Y-2000000D01*
X28837000Y-2000000D02*
X28952820Y-2115820D01*
X10957560Y-15687040D02*
X21000000Y-5644600D01*
X10957560Y-21977560D02*
X10957560Y-15687040D01*
X30890278Y-71114920D02*
X34710082Y-71114920D01*
X23000000Y-82000000D02*
X21080000Y-82000000D01*
X39009320Y-66815682D02*
X39009320Y-32509320D01*
X25000000Y-84000000D02*
X23000000Y-82000000D01*
X21080000Y-80925198D02*
X30890278Y-71114920D01*
X34710082Y-71114920D02*
X39009320Y-66815682D01*
X39009320Y-32509320D02*
X36500000Y-30000000D01*
X21080000Y-82000000D02*
X21080000Y-80925198D01*
X34000000Y-6380000D02*
X28500000Y-6380000D01*
X21000000Y-16000000D02*
X28500000Y-8500000D01*
X28500000Y-8500000D02*
X28500000Y-6380000D01*
X3205480Y-89321640D02*
X8383840Y-94500000D01*
X3000000Y-73300000D02*
X4700000Y-75000000D01*
X4700000Y-75000000D02*
X3205480Y-76494520D01*
X3000000Y-67000000D02*
X3000000Y-73300000D01*
X18540000Y-91960000D02*
X18540000Y-89000000D01*
X3205480Y-76494520D02*
X3205480Y-89321640D01*
X16000000Y-94500000D02*
X18540000Y-91960000D01*
X8383840Y-94500000D02*
X16000000Y-94500000D01*
X14574999Y-98425001D02*
X15200001Y-97799999D01*
X15200001Y-97799999D02*
X16000000Y-97000000D01*
X6750000Y-97500000D02*
X7675001Y-98425001D01*
X5400000Y-97500000D02*
X6750000Y-97500000D01*
X7675001Y-98425001D02*
X14574999Y-98425001D01*
X25500000Y-16380000D02*
X26631370Y-16380000D01*
X26631370Y-16380000D02*
X28500000Y-16380000D01*
X17540000Y-38000000D02*
X17540000Y-36925198D01*
X24175720Y-34015680D02*
X28950000Y-29241400D01*
X28950000Y-28500000D02*
X25500000Y-25050000D01*
X17540000Y-36925198D02*
X20449518Y-34015680D01*
X25500000Y-25050000D02*
X25500000Y-24000000D01*
X33160000Y-28500000D02*
X28950000Y-28500000D01*
X28950000Y-29241400D02*
X28950000Y-28500000D01*
X20449518Y-34015680D02*
X24175720Y-34015680D01*
X34000000Y-16380000D02*
X35131370Y-16380000D01*
X35131370Y-16380000D02*
X37000000Y-16380000D01*
X37000000Y-14000000D02*
X35868630Y-14000000D01*
X35868630Y-14000000D02*
X34000000Y-14000000D01*
X25500000Y-14000000D02*
X28500000Y-14000000D01*
X34366200Y-27696160D02*
X34366200Y-29136340D01*
X19735800Y-21455380D02*
X19735800Y-22650800D01*
X22895560Y-61895560D02*
X25000000Y-64000000D01*
X19557510Y-47017510D02*
X20564821Y-47017511D01*
X25500000Y-6380000D02*
X24700001Y-7179999D01*
X27122120Y-23291800D02*
X27122120Y-24444960D01*
X22252940Y-18938240D02*
X19735800Y-21455380D01*
X20548600Y-17259300D02*
X21590000Y-17259300D01*
X34366200Y-29136340D02*
X33454340Y-30048200D01*
X24074701Y-7179999D02*
X19651980Y-11602720D01*
X20564821Y-47017511D02*
X22895560Y-49348250D01*
X20359020Y-23274020D02*
X23121620Y-23274020D01*
X32907882Y-26237842D02*
X34366200Y-27696160D01*
X23121620Y-23274020D02*
X23893780Y-22501860D01*
X32491800Y-30048200D02*
X17540000Y-45000000D01*
X28915002Y-26237842D02*
X32907882Y-26237842D01*
X21590000Y-17259300D02*
X22252940Y-17922240D01*
X19651980Y-16362680D02*
X20548600Y-17259300D01*
X26332180Y-22501860D02*
X27122120Y-23291800D01*
X22252940Y-17922240D02*
X22252940Y-18938240D01*
X17540000Y-45000000D02*
X19557510Y-47017510D01*
X23893780Y-22501860D02*
X26332180Y-22501860D01*
X24700001Y-7179999D02*
X24074701Y-7179999D01*
X33454340Y-30048200D02*
X32491800Y-30048200D01*
X19651980Y-11602720D02*
X19651980Y-16362680D01*
X27122120Y-24444960D02*
X28915002Y-26237842D01*
X19735800Y-22650800D02*
X20359020Y-23274020D01*
X22895560Y-49348250D02*
X22895560Y-61895560D01*
X14834020Y-65184020D02*
X25636220Y-65184020D01*
X13000000Y-62000000D02*
X13000000Y-63350000D01*
X36202081Y-55240000D02*
X37540000Y-55240000D01*
X35000000Y-55240000D02*
X36202081Y-55240000D01*
X13000000Y-63350000D02*
X14834020Y-65184020D01*
X33611820Y-56628180D02*
X35000000Y-55240000D01*
X25636220Y-65184020D02*
X33611820Y-57208420D01*
X33611820Y-57208420D02*
X33611820Y-56628180D01*
X9090000Y-60160000D02*
X14868630Y-60160000D01*
X6750000Y-62500000D02*
X9090000Y-60160000D01*
X5400000Y-62500000D02*
X6750000Y-62500000D01*
X14868630Y-60160000D02*
X16000000Y-60160000D01*
X6203110Y-65634030D02*
X3169920Y-62600840D01*
X23000000Y-28500000D02*
X23000000Y-29631370D01*
X33525970Y-65634030D02*
X6203110Y-65634030D01*
X23000000Y-29631370D02*
X23000000Y-32000000D01*
X11340000Y-26000000D02*
X12440000Y-26000000D01*
X20500000Y-26000000D02*
X23000000Y-28500000D01*
X3169920Y-62600840D02*
X3169920Y-34170080D01*
X3169920Y-34170080D02*
X11340000Y-26000000D01*
X35160000Y-64000000D02*
X33525970Y-65634030D01*
X12440000Y-26000000D02*
X20500000Y-26000000D01*
X12820000Y-18000000D02*
X12440000Y-18380000D01*
X16000000Y-18000000D02*
X12820000Y-18000000D01*
X42080180Y-90543380D02*
X47437040Y-90543380D01*
X47437040Y-90543380D02*
X48877220Y-91983560D01*
X40802560Y-96199960D02*
X41478200Y-96875600D01*
X41478200Y-96875600D02*
X49000152Y-96875600D01*
X49000152Y-96875600D02*
X49556092Y-96319660D01*
X42080180Y-93083380D02*
X40802560Y-94361000D01*
X49556092Y-96319660D02*
X50673320Y-96319660D01*
X40802560Y-94361000D02*
X40802560Y-96199960D01*
X42080180Y-95623380D02*
X43282261Y-95623380D01*
X43282261Y-95623380D02*
X44382081Y-94523560D01*
X44382081Y-94523560D02*
X50299992Y-94523560D01*
X50299992Y-94523560D02*
X51417220Y-94523560D01*
X51790548Y-92727460D02*
X50673320Y-92727460D01*
X50660300Y-98163380D02*
X52890420Y-95933260D01*
X42080180Y-98163380D02*
X50660300Y-98163380D01*
X52890420Y-93827332D02*
X51790548Y-92727460D01*
X52890420Y-95933260D02*
X52890420Y-93827332D01*
X36337919Y-57780000D02*
X35000000Y-57780000D01*
X37540000Y-57780000D02*
X36337919Y-57780000D01*
X36337919Y-52700000D02*
X35000000Y-52700000D01*
X37540000Y-52700000D02*
X36337919Y-52700000D01*
D23*
X35000000Y-50160000D02*
X37540000Y-50160000D01*
X35000000Y-40000000D02*
X37540000Y-40000000D01*
D22*
X22200001Y-37299999D02*
X22200001Y-37485801D01*
X16649700Y-42340300D02*
X16649700Y-39822120D01*
X15000000Y-43990000D02*
X16649700Y-42340300D01*
X15814660Y-39824660D02*
X15000000Y-39010000D01*
X23000000Y-36500000D02*
X22200001Y-37299999D01*
X15000000Y-45000000D02*
X15000000Y-43990000D01*
X19861142Y-39824660D02*
X16649700Y-39822120D01*
X16649700Y-39822120D02*
X15814660Y-39824660D01*
X15000000Y-39010000D02*
X15000000Y-38000000D01*
X22200001Y-37485801D02*
X19861142Y-39824660D01*
X18540000Y-86460000D02*
X21080000Y-89000000D01*
X18540000Y-82000000D02*
X18540000Y-86460000D01*
X4704360Y-42504360D02*
X7543800Y-42504360D01*
X11930380Y-46890940D02*
X11930380Y-47718980D01*
X20200001Y-50799999D02*
X21000000Y-50000000D01*
X15430500Y-51219100D02*
X19780900Y-51219100D01*
X4700000Y-42500000D02*
X4704360Y-42504360D01*
X19780900Y-51219100D02*
X20200001Y-50799999D01*
X7543800Y-42504360D02*
X11930380Y-46890940D01*
X11930380Y-47718980D02*
X15430500Y-51219100D01*
X5200000Y-43000000D02*
X4700000Y-42500000D01*
X36385001Y-76356371D02*
X36385001Y-82774999D01*
X35959999Y-83200001D02*
X35160000Y-84000000D01*
X35160000Y-75131370D02*
X36385001Y-76356371D01*
X35160000Y-84000000D02*
X35160000Y-89000000D01*
X35160000Y-74000000D02*
X35160000Y-75131370D01*
X36385001Y-82774999D02*
X35959999Y-83200001D01*
X4700000Y-77500000D02*
X9846998Y-77500000D01*
X9846998Y-77500000D02*
X18346998Y-69000000D01*
X4700000Y-80000000D02*
X4908440Y-79791560D01*
X4700000Y-78727208D02*
X4700000Y-77500000D01*
X23868630Y-69000000D02*
X25000000Y-69000000D01*
X4700000Y-80000000D02*
X4700000Y-78727208D01*
X18346998Y-69000000D02*
X23868630Y-69000000D01*
X16327120Y-47467520D02*
X16304260Y-48564370D01*
X16000000Y-63000000D02*
X18160000Y-63000000D01*
X16000000Y-48868630D02*
X16000000Y-50000000D01*
X16304260Y-48564370D02*
X16000000Y-48868630D01*
X22584878Y-35250120D02*
X23680420Y-35250120D01*
X23680420Y-35250120D02*
X24348440Y-35918140D01*
X22301200Y-49390300D02*
X20378420Y-47467520D01*
X23660100Y-37767260D02*
X23166938Y-37767260D01*
X20378420Y-47467520D02*
X16327120Y-47467520D01*
X24348440Y-37078920D02*
X23660100Y-37767260D01*
X20080000Y-38000000D02*
X20080000Y-37754998D01*
X16304260Y-44629938D02*
X16327120Y-47467520D01*
X24348440Y-35918140D02*
X24348440Y-37078920D01*
X23166938Y-37767260D02*
X16304260Y-44629938D01*
X20080000Y-37754998D02*
X22584878Y-35250120D01*
X22301200Y-58858800D02*
X22301200Y-49390300D01*
X18160000Y-63000000D02*
X21000000Y-60160000D01*
X21000000Y-60160000D02*
X22301200Y-58858800D01*
X16000000Y-82000000D02*
X13000000Y-82000000D01*
X16000000Y-80990000D02*
X16000000Y-82000000D01*
X34034999Y-70125001D02*
X26864999Y-70125001D01*
X26864999Y-70125001D02*
X16000000Y-80990000D01*
X35160000Y-69000000D02*
X34034999Y-70125001D01*
X13000000Y-82000000D02*
X12500000Y-82500000D01*
G04 #@! TA.AperFunction,Conductor*
G36*
X236223Y-62829227D02*
G01*
X270145Y-62876255D01*
X309817Y-62972029D01*
X309819Y-62972034D01*
X329798Y-63001934D01*
X379149Y-63075793D01*
X379151Y-63075795D01*
X2806619Y-65503263D01*
X2840645Y-65565575D01*
X2835580Y-65636390D01*
X2793033Y-65693226D01*
X2737238Y-65716806D01*
X2693591Y-65723719D01*
X2497714Y-65787364D01*
X2497708Y-65787367D01*
X2314193Y-65880873D01*
X2147567Y-66001934D01*
X2147564Y-66001936D01*
X2001936Y-66147564D01*
X2001934Y-66147567D01*
X1880873Y-66314193D01*
X1787367Y-66497708D01*
X1787364Y-66497714D01*
X1723721Y-66693587D01*
X1723720Y-66693590D01*
X1723720Y-66693592D01*
X1691500Y-66897019D01*
X1691500Y-67102981D01*
X1723720Y-67306408D01*
X1723721Y-67306412D01*
X1784045Y-67492071D01*
X1787366Y-67502290D01*
X1880871Y-67685803D01*
X2001932Y-67852430D01*
X2001934Y-67852432D01*
X2001936Y-67852435D01*
X2147564Y-67998063D01*
X2147567Y-67998065D01*
X2147570Y-67998068D01*
X2314197Y-68119129D01*
X2314204Y-68119133D01*
X2314560Y-68119391D01*
X2357915Y-68175613D01*
X2366500Y-68221328D01*
X2366500Y-73237606D01*
X2366500Y-73362394D01*
X2390845Y-73484785D01*
X2438600Y-73600075D01*
X2507929Y-73703833D01*
X2507931Y-73703835D01*
X3307901Y-74503805D01*
X3341927Y-74566117D01*
X3338639Y-74631836D01*
X3326183Y-74670170D01*
X3326182Y-74670175D01*
X3326182Y-74670176D01*
X3291500Y-74889149D01*
X3291500Y-75110851D01*
X3318936Y-75284074D01*
X3326182Y-75329825D01*
X3338639Y-75368163D01*
X3340665Y-75439131D01*
X3307901Y-75496193D01*
X2801647Y-76002449D01*
X2713407Y-76090689D01*
X2713406Y-76090691D01*
X2644081Y-76194443D01*
X2596326Y-76309732D01*
X2571980Y-76432123D01*
X2571980Y-76432126D01*
X2571980Y-89259246D01*
X2571980Y-89384034D01*
X2596325Y-89506425D01*
X2644080Y-89621715D01*
X2713409Y-89725473D01*
X7891769Y-94903833D01*
X7980007Y-94992071D01*
X8083765Y-95061400D01*
X8199055Y-95109155D01*
X8321446Y-95133500D01*
X14778670Y-95133500D01*
X14846791Y-95153502D01*
X14880606Y-95185439D01*
X14934796Y-95260025D01*
X15001932Y-95352430D01*
X15001934Y-95352432D01*
X15001936Y-95352435D01*
X15147564Y-95498063D01*
X15147567Y-95498065D01*
X15147570Y-95498068D01*
X15314197Y-95619129D01*
X15350710Y-95637733D01*
X15402325Y-95686482D01*
X15419391Y-95755397D01*
X15396490Y-95822598D01*
X15350711Y-95862266D01*
X15317417Y-95879230D01*
X15314193Y-95880873D01*
X15147567Y-96001934D01*
X15147564Y-96001936D01*
X15001936Y-96147564D01*
X15001934Y-96147567D01*
X14880873Y-96314193D01*
X14787367Y-96497708D01*
X14787364Y-96497714D01*
X14723721Y-96693587D01*
X14723720Y-96693590D01*
X14723720Y-96693592D01*
X14691500Y-96897019D01*
X14691500Y-97102981D01*
X14714926Y-97250887D01*
X14723790Y-97306851D01*
X14714690Y-97377263D01*
X14688437Y-97415657D01*
X14349500Y-97754596D01*
X14322129Y-97769541D01*
X14295902Y-97786397D01*
X14289602Y-97787302D01*
X14287188Y-97788621D01*
X14260404Y-97791501D01*
X14134500Y-97791501D01*
X14066379Y-97771499D01*
X14019886Y-97717843D01*
X14008500Y-97665501D01*
X14008500Y-95851367D01*
X14008499Y-95851350D01*
X14001990Y-95790803D01*
X14001988Y-95790795D01*
X13950889Y-95653797D01*
X13950887Y-95653792D01*
X13863261Y-95536738D01*
X13746207Y-95449112D01*
X13746202Y-95449110D01*
X13609204Y-95398011D01*
X13609196Y-95398009D01*
X13548649Y-95391500D01*
X13548638Y-95391500D01*
X12451362Y-95391500D01*
X12451350Y-95391500D01*
X12390803Y-95398009D01*
X12390795Y-95398011D01*
X12253797Y-95449110D01*
X12253792Y-95449112D01*
X12136738Y-95536738D01*
X12049112Y-95653792D01*
X12049110Y-95653797D01*
X11998011Y-95790795D01*
X11998009Y-95790803D01*
X11991500Y-95851350D01*
X11991500Y-97665501D01*
X11971498Y-97733622D01*
X11917842Y-97780115D01*
X11865500Y-97791501D01*
X7989595Y-97791501D01*
X7921474Y-97771499D01*
X7900500Y-97754596D01*
X7153835Y-97007931D01*
X7153833Y-97007929D01*
X7050075Y-96938600D01*
X7050074Y-96938599D01*
X7044928Y-96935161D01*
X7046336Y-96933053D01*
X7003618Y-96891052D01*
X6995639Y-96873776D01*
X6950889Y-96753796D01*
X6950886Y-96753792D01*
X6950886Y-96753791D01*
X6863261Y-96636738D01*
X6746207Y-96549112D01*
X6746202Y-96549110D01*
X6609204Y-96498011D01*
X6609196Y-96498009D01*
X6548649Y-96491500D01*
X6548638Y-96491500D01*
X4251362Y-96491500D01*
X4251350Y-96491500D01*
X4190803Y-96498009D01*
X4190795Y-96498011D01*
X4053797Y-96549110D01*
X4053792Y-96549112D01*
X3936738Y-96636738D01*
X3849112Y-96753792D01*
X3849110Y-96753797D01*
X3798011Y-96890795D01*
X3798009Y-96890803D01*
X3791500Y-96951350D01*
X3791500Y-98048649D01*
X3798009Y-98109196D01*
X3798011Y-98109204D01*
X3849110Y-98246202D01*
X3849112Y-98246207D01*
X3936738Y-98363261D01*
X4053792Y-98450887D01*
X4053794Y-98450888D01*
X4053796Y-98450889D01*
X4073269Y-98458152D01*
X4190795Y-98501988D01*
X4190803Y-98501990D01*
X4251350Y-98508499D01*
X4251355Y-98508499D01*
X4251362Y-98508500D01*
X4251368Y-98508500D01*
X6548632Y-98508500D01*
X6548638Y-98508500D01*
X6548645Y-98508499D01*
X6548649Y-98508499D01*
X6609196Y-98501990D01*
X6609199Y-98501989D01*
X6609201Y-98501989D01*
X6713149Y-98463217D01*
X6783960Y-98458152D01*
X6846270Y-98492174D01*
X7182930Y-98828834D01*
X7271168Y-98917072D01*
X7374926Y-98986401D01*
X7490216Y-99034156D01*
X7612607Y-99058501D01*
X7612608Y-99058501D01*
X14637392Y-99058501D01*
X14637393Y-99058501D01*
X14759784Y-99034156D01*
X14875074Y-98986401D01*
X14978832Y-98917072D01*
X15584340Y-98311562D01*
X15646653Y-98277538D01*
X15693147Y-98276209D01*
X15693588Y-98276278D01*
X15693592Y-98276280D01*
X15897019Y-98308500D01*
X15897022Y-98308500D01*
X16102978Y-98308500D01*
X16102981Y-98308500D01*
X16306408Y-98276280D01*
X16502290Y-98212634D01*
X16685803Y-98119129D01*
X16852430Y-97998068D01*
X16998068Y-97852430D01*
X17119129Y-97685803D01*
X17212634Y-97502290D01*
X17276280Y-97306408D01*
X17308500Y-97102981D01*
X17308500Y-96897019D01*
X17276280Y-96693592D01*
X17212634Y-96497710D01*
X17119129Y-96314197D01*
X16998068Y-96147570D01*
X16998065Y-96147567D01*
X16998063Y-96147564D01*
X16852435Y-96001936D01*
X16852432Y-96001934D01*
X16852430Y-96001932D01*
X16685803Y-95880871D01*
X16649289Y-95862266D01*
X16597674Y-95813519D01*
X16580608Y-95744605D01*
X16603508Y-95677403D01*
X16649288Y-95637733D01*
X16685803Y-95619129D01*
X16852430Y-95498068D01*
X16998068Y-95352430D01*
X17119129Y-95185803D01*
X17136684Y-95151350D01*
X20691500Y-95151350D01*
X20691500Y-96848649D01*
X20698009Y-96909196D01*
X20698011Y-96909204D01*
X20749110Y-97046202D01*
X20749112Y-97046207D01*
X20836738Y-97163261D01*
X20953792Y-97250887D01*
X20953794Y-97250888D01*
X20953796Y-97250889D01*
X21012875Y-97272924D01*
X21090795Y-97301988D01*
X21090803Y-97301990D01*
X21151350Y-97308499D01*
X21151355Y-97308499D01*
X21151362Y-97308500D01*
X21151368Y-97308500D01*
X22848632Y-97308500D01*
X22848638Y-97308500D01*
X22848645Y-97308499D01*
X22848649Y-97308499D01*
X22909196Y-97301990D01*
X22909199Y-97301989D01*
X22909201Y-97301989D01*
X23046204Y-97250889D01*
X23097923Y-97212173D01*
X23163261Y-97163261D01*
X23250887Y-97046207D01*
X23250887Y-97046206D01*
X23250889Y-97046204D01*
X23301989Y-96909201D01*
X23308500Y-96848638D01*
X23308500Y-96839811D01*
X23312124Y-96825517D01*
X23324169Y-96805140D01*
X23332038Y-96782815D01*
X23341898Y-96775150D01*
X23348253Y-96764401D01*
X23369404Y-96753770D01*
X23388093Y-96739244D01*
X23402627Y-96737072D01*
X23404816Y-96735972D01*
X24100000Y-96040788D01*
X24100000Y-96052661D01*
X24127259Y-96154394D01*
X24179920Y-96245606D01*
X24254394Y-96320080D01*
X24345606Y-96372741D01*
X24447339Y-96400000D01*
X24459210Y-96400000D01*
X23771626Y-97087582D01*
X23771626Y-97087583D01*
X23814454Y-97118699D01*
X23997900Y-97212170D01*
X23997906Y-97212173D01*
X24193705Y-97275791D01*
X24193701Y-97275791D01*
X24397061Y-97308000D01*
X24602939Y-97308000D01*
X24806296Y-97275791D01*
X25002093Y-97212173D01*
X25002099Y-97212170D01*
X25185541Y-97118701D01*
X25228372Y-97087582D01*
X25228372Y-97087581D01*
X24540791Y-96400000D01*
X24552661Y-96400000D01*
X24654394Y-96372741D01*
X24745606Y-96320080D01*
X24820080Y-96245606D01*
X24872741Y-96154394D01*
X24900000Y-96052661D01*
X24900000Y-96040791D01*
X25587581Y-96728372D01*
X25587582Y-96728372D01*
X25618701Y-96685541D01*
X25712170Y-96502099D01*
X25712173Y-96502093D01*
X25775791Y-96306296D01*
X25808000Y-96102938D01*
X25808000Y-95897061D01*
X25775791Y-95693703D01*
X25712173Y-95497906D01*
X25712170Y-95497900D01*
X25618699Y-95314454D01*
X25587583Y-95271626D01*
X25587582Y-95271626D01*
X24900000Y-95959208D01*
X24900000Y-95947339D01*
X24872741Y-95845606D01*
X24820080Y-95754394D01*
X24745606Y-95679920D01*
X24654394Y-95627259D01*
X24552661Y-95600000D01*
X24540790Y-95600000D01*
X24989439Y-95151350D01*
X28691500Y-95151350D01*
X28691500Y-96848649D01*
X28698009Y-96909196D01*
X28698011Y-96909204D01*
X28749110Y-97046202D01*
X28749112Y-97046207D01*
X28836738Y-97163261D01*
X28953792Y-97250887D01*
X28953794Y-97250888D01*
X28953796Y-97250889D01*
X29012875Y-97272924D01*
X29090795Y-97301988D01*
X29090803Y-97301990D01*
X29151350Y-97308499D01*
X29151355Y-97308499D01*
X29151362Y-97308500D01*
X29151368Y-97308500D01*
X30848632Y-97308500D01*
X30848638Y-97308500D01*
X30848645Y-97308499D01*
X30848649Y-97308499D01*
X30909196Y-97301990D01*
X30909199Y-97301989D01*
X30909201Y-97301989D01*
X31046204Y-97250889D01*
X31097923Y-97212173D01*
X31163261Y-97163261D01*
X31250887Y-97046207D01*
X31250887Y-97046206D01*
X31250889Y-97046204D01*
X31301989Y-96909201D01*
X31308500Y-96848638D01*
X31308500Y-96839811D01*
X31312124Y-96825517D01*
X31324169Y-96805140D01*
X31332038Y-96782815D01*
X31341898Y-96775150D01*
X31348253Y-96764401D01*
X31369404Y-96753770D01*
X31388093Y-96739244D01*
X31402627Y-96737072D01*
X31404816Y-96735972D01*
X32100000Y-96040788D01*
X32100000Y-96052661D01*
X32127259Y-96154394D01*
X32179920Y-96245606D01*
X32254394Y-96320080D01*
X32345606Y-96372741D01*
X32447339Y-96400000D01*
X32459210Y-96400000D01*
X31771626Y-97087582D01*
X31771626Y-97087583D01*
X31814454Y-97118699D01*
X31997900Y-97212170D01*
X31997906Y-97212173D01*
X32193705Y-97275791D01*
X32193701Y-97275791D01*
X32397061Y-97308000D01*
X32602939Y-97308000D01*
X32806296Y-97275791D01*
X33002093Y-97212173D01*
X33002099Y-97212170D01*
X33185541Y-97118701D01*
X33228372Y-97087582D01*
X33228372Y-97087581D01*
X32540791Y-96400000D01*
X32552661Y-96400000D01*
X32654394Y-96372741D01*
X32745606Y-96320080D01*
X32820080Y-96245606D01*
X32872741Y-96154394D01*
X32900000Y-96052661D01*
X32900000Y-96040791D01*
X33587581Y-96728372D01*
X33587582Y-96728372D01*
X33618701Y-96685541D01*
X33712170Y-96502099D01*
X33712173Y-96502093D01*
X33775791Y-96306296D01*
X33808000Y-96102938D01*
X33808000Y-95897061D01*
X33775791Y-95693703D01*
X33712173Y-95497906D01*
X33712170Y-95497900D01*
X33618699Y-95314454D01*
X33587583Y-95271626D01*
X33587582Y-95271626D01*
X32900000Y-95959208D01*
X32900000Y-95947339D01*
X32872741Y-95845606D01*
X32820080Y-95754394D01*
X32745606Y-95679920D01*
X32654394Y-95627259D01*
X32552661Y-95600000D01*
X32540790Y-95600000D01*
X33228372Y-94912416D01*
X33185541Y-94881298D01*
X33185540Y-94881297D01*
X33002099Y-94787829D01*
X33002093Y-94787826D01*
X32806294Y-94724208D01*
X32806298Y-94724208D01*
X32602939Y-94692000D01*
X32397061Y-94692000D01*
X32193703Y-94724208D01*
X31997906Y-94787826D01*
X31997900Y-94787829D01*
X31814452Y-94881301D01*
X31771625Y-94912416D01*
X32459209Y-95600000D01*
X32447339Y-95600000D01*
X32345606Y-95627259D01*
X32254394Y-95679920D01*
X32179920Y-95754394D01*
X32127259Y-95845606D01*
X32100000Y-95947339D01*
X32100000Y-95959209D01*
X31400816Y-95260025D01*
X31374665Y-95254531D01*
X31324106Y-95204689D01*
X31312124Y-95174480D01*
X31308500Y-95160185D01*
X31308500Y-95151362D01*
X31301989Y-95090799D01*
X31267394Y-94998047D01*
X31267393Y-94998043D01*
X31250889Y-94953797D01*
X31250887Y-94953792D01*
X31163261Y-94836738D01*
X31046207Y-94749112D01*
X31046202Y-94749110D01*
X30909204Y-94698011D01*
X30909196Y-94698009D01*
X30848649Y-94691500D01*
X30848638Y-94691500D01*
X29151362Y-94691500D01*
X29151350Y-94691500D01*
X29090803Y-94698009D01*
X29090795Y-94698011D01*
X28953797Y-94749110D01*
X28953792Y-94749112D01*
X28836738Y-94836738D01*
X28749112Y-94953792D01*
X28749110Y-94953797D01*
X28698011Y-95090795D01*
X28698009Y-95090803D01*
X28691500Y-95151350D01*
X24989439Y-95151350D01*
X25228372Y-94912416D01*
X25185541Y-94881298D01*
X25185540Y-94881297D01*
X25002099Y-94787829D01*
X25002093Y-94787826D01*
X24806294Y-94724208D01*
X24806298Y-94724208D01*
X24602939Y-94692000D01*
X24397061Y-94692000D01*
X24193703Y-94724208D01*
X23997906Y-94787826D01*
X23997900Y-94787829D01*
X23814452Y-94881301D01*
X23771625Y-94912416D01*
X24459209Y-95600000D01*
X24447339Y-95600000D01*
X24345606Y-95627259D01*
X24254394Y-95679920D01*
X24179920Y-95754394D01*
X24127259Y-95845606D01*
X24100000Y-95947339D01*
X24100000Y-95959209D01*
X23400816Y-95260025D01*
X23374665Y-95254531D01*
X23324106Y-95204689D01*
X23312124Y-95174480D01*
X23308500Y-95160185D01*
X23308500Y-95151362D01*
X23301989Y-95090799D01*
X23267394Y-94998047D01*
X23267393Y-94998043D01*
X23250889Y-94953797D01*
X23250887Y-94953792D01*
X23163261Y-94836738D01*
X23046207Y-94749112D01*
X23046202Y-94749110D01*
X22909204Y-94698011D01*
X22909196Y-94698009D01*
X22848649Y-94691500D01*
X22848638Y-94691500D01*
X21151362Y-94691500D01*
X21151350Y-94691500D01*
X21090803Y-94698009D01*
X21090795Y-94698011D01*
X20953797Y-94749110D01*
X20953792Y-94749112D01*
X20836738Y-94836738D01*
X20749112Y-94953792D01*
X20749110Y-94953797D01*
X20698011Y-95090795D01*
X20698009Y-95090803D01*
X20691500Y-95151350D01*
X17136684Y-95151350D01*
X17212634Y-95002290D01*
X17276280Y-94806408D01*
X17308500Y-94602981D01*
X17308500Y-94397019D01*
X17276280Y-94193592D01*
X17276277Y-94193583D01*
X17276208Y-94193146D01*
X17285307Y-94122735D01*
X17311557Y-94084345D01*
X19032071Y-92363833D01*
X19101400Y-92260075D01*
X19149155Y-92144785D01*
X19173500Y-92022394D01*
X19173500Y-90171887D01*
X19193502Y-90103766D01*
X19225439Y-90069951D01*
X19366372Y-89967557D01*
X19507557Y-89826372D01*
X19624918Y-89664839D01*
X19697734Y-89521929D01*
X19746481Y-89470316D01*
X19815396Y-89453250D01*
X19882598Y-89476151D01*
X19922265Y-89521929D01*
X19995082Y-89664839D01*
X19995084Y-89664842D01*
X20112444Y-89826374D01*
X20253625Y-89967555D01*
X20306818Y-90006202D01*
X20415161Y-90084918D01*
X20593065Y-90175565D01*
X20782959Y-90237265D01*
X20980167Y-90268500D01*
X20980170Y-90268500D01*
X21179830Y-90268500D01*
X21179833Y-90268500D01*
X21377041Y-90237265D01*
X21566935Y-90175565D01*
X21744839Y-90084918D01*
X21906372Y-89967557D01*
X22047557Y-89826372D01*
X22164918Y-89664839D01*
X22255565Y-89486935D01*
X22317265Y-89297041D01*
X22348500Y-89099833D01*
X22348500Y-88900167D01*
X22348001Y-88897019D01*
X23691500Y-88897019D01*
X23691500Y-89102981D01*
X23723720Y-89306408D01*
X23723721Y-89306412D01*
X23785975Y-89498011D01*
X23787366Y-89502290D01*
X23880871Y-89685803D01*
X24001932Y-89852430D01*
X24001934Y-89852432D01*
X24001936Y-89852435D01*
X24147564Y-89998063D01*
X24147567Y-89998065D01*
X24147570Y-89998068D01*
X24314197Y-90119129D01*
X24497710Y-90212634D01*
X24693592Y-90276280D01*
X24897019Y-90308500D01*
X24897022Y-90308500D01*
X25102978Y-90308500D01*
X25102981Y-90308500D01*
X25306408Y-90276280D01*
X25502290Y-90212634D01*
X25685803Y-90119129D01*
X25852430Y-89998068D01*
X25998068Y-89852430D01*
X26119129Y-89685803D01*
X26212634Y-89502290D01*
X26276280Y-89306408D01*
X26308500Y-89102981D01*
X26308500Y-88897019D01*
X26276280Y-88693592D01*
X26212634Y-88497710D01*
X26119129Y-88314197D01*
X25998068Y-88147570D01*
X25998065Y-88147567D01*
X25998063Y-88147564D01*
X25852435Y-88001936D01*
X25852432Y-88001934D01*
X25852430Y-88001932D01*
X25685803Y-87880871D01*
X25502290Y-87787366D01*
X25502287Y-87787365D01*
X25502285Y-87787364D01*
X25306412Y-87723721D01*
X25306410Y-87723720D01*
X25306408Y-87723720D01*
X25102981Y-87691500D01*
X24897019Y-87691500D01*
X24693592Y-87723720D01*
X24693590Y-87723720D01*
X24693587Y-87723721D01*
X24497714Y-87787364D01*
X24497708Y-87787367D01*
X24314193Y-87880873D01*
X24147567Y-88001934D01*
X24147564Y-88001936D01*
X24001936Y-88147564D01*
X24001934Y-88147567D01*
X23880873Y-88314193D01*
X23787367Y-88497708D01*
X23787364Y-88497714D01*
X23723721Y-88693587D01*
X23723720Y-88693590D01*
X23723720Y-88693592D01*
X23691500Y-88897019D01*
X22348001Y-88897019D01*
X22317265Y-88702959D01*
X22255565Y-88513065D01*
X22164918Y-88335161D01*
X22047557Y-88173628D01*
X22047555Y-88173625D01*
X21906374Y-88032444D01*
X21744842Y-87915084D01*
X21744841Y-87915083D01*
X21744839Y-87915082D01*
X21566935Y-87824435D01*
X21566932Y-87824434D01*
X21566930Y-87824433D01*
X21377046Y-87762736D01*
X21377042Y-87762735D01*
X21377041Y-87762735D01*
X21179833Y-87731500D01*
X20980167Y-87731500D01*
X20808107Y-87758751D01*
X20737697Y-87749652D01*
X20699302Y-87723398D01*
X19210405Y-86234501D01*
X19176379Y-86172189D01*
X19173500Y-86145406D01*
X19173500Y-83171887D01*
X19193502Y-83103766D01*
X19225439Y-83069951D01*
X19366372Y-82967557D01*
X19507557Y-82826372D01*
X19624918Y-82664839D01*
X19697734Y-82521929D01*
X19746481Y-82470316D01*
X19815396Y-82453250D01*
X19882598Y-82476151D01*
X19922265Y-82521929D01*
X19995082Y-82664839D01*
X19995084Y-82664842D01*
X20112444Y-82826374D01*
X20253625Y-82967555D01*
X20287458Y-82992136D01*
X20415161Y-83084918D01*
X20593065Y-83175565D01*
X20782959Y-83237265D01*
X20980167Y-83268500D01*
X20980170Y-83268500D01*
X21179830Y-83268500D01*
X21179833Y-83268500D01*
X21377041Y-83237265D01*
X21566935Y-83175565D01*
X21744839Y-83084918D01*
X21906372Y-82967557D01*
X22047557Y-82826372D01*
X22149951Y-82685438D01*
X22206173Y-82642085D01*
X22251887Y-82633500D01*
X22685406Y-82633500D01*
X22753527Y-82653502D01*
X22774501Y-82670405D01*
X23688437Y-83584341D01*
X23722463Y-83646653D01*
X23723791Y-83693147D01*
X23723721Y-83693588D01*
X23723720Y-83693592D01*
X23691500Y-83897019D01*
X23691500Y-84102981D01*
X23723720Y-84306408D01*
X23723721Y-84306412D01*
X23745805Y-84374381D01*
X23787366Y-84502290D01*
X23880871Y-84685803D01*
X24001932Y-84852430D01*
X24001934Y-84852432D01*
X24001936Y-84852435D01*
X24147564Y-84998063D01*
X24147567Y-84998065D01*
X24147570Y-84998068D01*
X24314197Y-85119129D01*
X24497710Y-85212634D01*
X24693592Y-85276280D01*
X24897019Y-85308500D01*
X24897022Y-85308500D01*
X25102978Y-85308500D01*
X25102981Y-85308500D01*
X25306408Y-85276280D01*
X25502290Y-85212634D01*
X25685803Y-85119129D01*
X25852430Y-84998068D01*
X25998068Y-84852430D01*
X26119129Y-84685803D01*
X26212634Y-84502290D01*
X26276280Y-84306408D01*
X26308500Y-84102981D01*
X26308500Y-83897019D01*
X26276280Y-83693592D01*
X26212634Y-83497710D01*
X26119129Y-83314197D01*
X25998068Y-83147570D01*
X25998065Y-83147567D01*
X25998063Y-83147564D01*
X25852435Y-83001936D01*
X25852432Y-83001934D01*
X25852430Y-83001932D01*
X25685803Y-82880871D01*
X25502290Y-82787366D01*
X25502287Y-82787365D01*
X25502285Y-82787364D01*
X25306412Y-82723721D01*
X25306410Y-82723720D01*
X25306408Y-82723720D01*
X25102981Y-82691500D01*
X24897019Y-82691500D01*
X24693592Y-82723720D01*
X24693588Y-82723721D01*
X24693147Y-82723791D01*
X24622736Y-82714691D01*
X24584341Y-82688437D01*
X23403835Y-81507931D01*
X23403833Y-81507929D01*
X23300075Y-81438600D01*
X23184785Y-81390845D01*
X23111086Y-81376185D01*
X23062396Y-81366500D01*
X23062394Y-81366500D01*
X22251887Y-81366500D01*
X22183766Y-81346498D01*
X22149951Y-81314561D01*
X22135404Y-81294539D01*
X22047557Y-81173628D01*
X22047554Y-81173625D01*
X22047552Y-81173622D01*
X21976610Y-81102680D01*
X21942584Y-81040368D01*
X21947649Y-80969553D01*
X21976608Y-80924492D01*
X23546689Y-79354411D01*
X23608999Y-79320387D01*
X23679814Y-79325452D01*
X23736650Y-79367999D01*
X23755615Y-79404571D01*
X23787366Y-79502290D01*
X23880871Y-79685803D01*
X24001932Y-79852430D01*
X24001934Y-79852432D01*
X24001936Y-79852435D01*
X24147564Y-79998063D01*
X24147567Y-79998065D01*
X24147570Y-79998068D01*
X24314197Y-80119129D01*
X24497710Y-80212634D01*
X24693592Y-80276280D01*
X24897019Y-80308500D01*
X24897022Y-80308500D01*
X25102978Y-80308500D01*
X25102981Y-80308500D01*
X25306408Y-80276280D01*
X25502290Y-80212634D01*
X25685803Y-80119129D01*
X25852430Y-79998068D01*
X25998068Y-79852430D01*
X26119129Y-79685803D01*
X26212634Y-79502290D01*
X26276280Y-79306408D01*
X26308500Y-79102981D01*
X26308500Y-78897019D01*
X26276280Y-78693592D01*
X26212634Y-78497710D01*
X26119129Y-78314197D01*
X25998068Y-78147570D01*
X25998065Y-78147567D01*
X25998063Y-78147564D01*
X25852435Y-78001936D01*
X25852432Y-78001934D01*
X25852430Y-78001932D01*
X25685803Y-77880871D01*
X25502290Y-77787366D01*
X25421096Y-77760984D01*
X25404571Y-77755615D01*
X25345966Y-77715541D01*
X25318329Y-77650144D01*
X25330436Y-77580187D01*
X25354410Y-77546690D01*
X29004082Y-73897019D01*
X33851500Y-73897019D01*
X33851500Y-74102981D01*
X33883702Y-74306295D01*
X33883721Y-74306412D01*
X33947305Y-74502104D01*
X33947366Y-74502290D01*
X34040871Y-74685803D01*
X34161932Y-74852430D01*
X34161934Y-74852432D01*
X34161936Y-74852435D01*
X34307564Y-74998063D01*
X34307567Y-74998065D01*
X34307570Y-74998068D01*
X34474197Y-75119129D01*
X34474203Y-75119132D01*
X34478083Y-75121951D01*
X34521438Y-75178174D01*
X34527602Y-75199306D01*
X34536427Y-75243670D01*
X34550845Y-75316155D01*
X34598600Y-75431445D01*
X34667929Y-75535203D01*
X34667931Y-75535205D01*
X35714596Y-76581870D01*
X35748622Y-76644182D01*
X35751501Y-76670965D01*
X35751501Y-77642928D01*
X35731499Y-77711049D01*
X35677843Y-77757542D01*
X35607569Y-77767646D01*
X35586565Y-77762761D01*
X35466412Y-77723721D01*
X35466410Y-77723720D01*
X35466408Y-77723720D01*
X35262981Y-77691500D01*
X35057019Y-77691500D01*
X34853592Y-77723720D01*
X34853590Y-77723720D01*
X34853587Y-77723721D01*
X34657714Y-77787364D01*
X34657708Y-77787367D01*
X34474193Y-77880873D01*
X34307567Y-78001934D01*
X34307564Y-78001936D01*
X34161936Y-78147564D01*
X34161934Y-78147567D01*
X34040873Y-78314193D01*
X33947367Y-78497708D01*
X33947364Y-78497714D01*
X33883721Y-78693587D01*
X33883720Y-78693590D01*
X33883720Y-78693592D01*
X33851500Y-78897019D01*
X33851500Y-79102981D01*
X33883720Y-79306408D01*
X33883721Y-79306412D01*
X33933406Y-79459328D01*
X33947366Y-79502290D01*
X34040871Y-79685803D01*
X34161932Y-79852430D01*
X34161934Y-79852432D01*
X34161936Y-79852435D01*
X34307564Y-79998063D01*
X34307567Y-79998065D01*
X34307570Y-79998068D01*
X34474197Y-80119129D01*
X34657710Y-80212634D01*
X34853592Y-80276280D01*
X35057019Y-80308500D01*
X35057022Y-80308500D01*
X35262978Y-80308500D01*
X35262981Y-80308500D01*
X35466408Y-80276280D01*
X35586567Y-80237237D01*
X35657532Y-80235210D01*
X35718330Y-80271872D01*
X35749655Y-80335584D01*
X35751501Y-80357071D01*
X35751501Y-82460403D01*
X35742715Y-82490323D01*
X35736088Y-82520789D01*
X35732274Y-82525883D01*
X35731499Y-82528524D01*
X35714596Y-82549499D01*
X35575657Y-82688437D01*
X35513345Y-82722462D01*
X35466851Y-82723790D01*
X35409402Y-82714691D01*
X35262981Y-82691500D01*
X35057019Y-82691500D01*
X34853592Y-82723720D01*
X34853590Y-82723720D01*
X34853587Y-82723721D01*
X34657714Y-82787364D01*
X34657708Y-82787367D01*
X34474193Y-82880873D01*
X34307567Y-83001934D01*
X34307564Y-83001936D01*
X34161936Y-83147564D01*
X34161934Y-83147567D01*
X34040873Y-83314193D01*
X33947367Y-83497708D01*
X33947364Y-83497714D01*
X33883721Y-83693587D01*
X33883720Y-83693590D01*
X33883720Y-83693592D01*
X33851500Y-83897019D01*
X33851500Y-84102981D01*
X33883720Y-84306408D01*
X33883721Y-84306412D01*
X33905805Y-84374381D01*
X33947366Y-84502290D01*
X34040871Y-84685803D01*
X34161932Y-84852430D01*
X34161934Y-84852432D01*
X34161936Y-84852435D01*
X34307564Y-84998063D01*
X34307567Y-84998065D01*
X34307570Y-84998068D01*
X34474197Y-85119129D01*
X34474204Y-85119133D01*
X34474560Y-85119391D01*
X34517915Y-85175613D01*
X34526500Y-85221328D01*
X34526500Y-87778670D01*
X34506498Y-87846791D01*
X34474561Y-87880606D01*
X34307567Y-88001934D01*
X34307564Y-88001936D01*
X34161936Y-88147564D01*
X34161934Y-88147567D01*
X34040873Y-88314193D01*
X33947367Y-88497708D01*
X33947364Y-88497714D01*
X33883721Y-88693587D01*
X33883720Y-88693590D01*
X33883720Y-88693592D01*
X33851500Y-88897019D01*
X33851500Y-89102981D01*
X33883720Y-89306408D01*
X33883721Y-89306412D01*
X33945975Y-89498011D01*
X33947366Y-89502290D01*
X34040871Y-89685803D01*
X34161932Y-89852430D01*
X34161934Y-89852432D01*
X34161936Y-89852435D01*
X34307564Y-89998063D01*
X34307567Y-89998065D01*
X34307570Y-89998068D01*
X34474197Y-90119129D01*
X34657710Y-90212634D01*
X34853592Y-90276280D01*
X35057019Y-90308500D01*
X35057022Y-90308500D01*
X35262978Y-90308500D01*
X35262981Y-90308500D01*
X35466408Y-90276280D01*
X35662290Y-90212634D01*
X35845803Y-90119129D01*
X36012430Y-89998068D01*
X36158068Y-89852430D01*
X36279129Y-89685803D01*
X36372634Y-89502290D01*
X36436280Y-89306408D01*
X36468500Y-89102981D01*
X36468500Y-88897019D01*
X36436280Y-88693592D01*
X36372634Y-88497710D01*
X36279129Y-88314197D01*
X36158068Y-88147570D01*
X36158065Y-88147567D01*
X36158063Y-88147564D01*
X36012435Y-88001936D01*
X36012432Y-88001934D01*
X36012430Y-88001932D01*
X35928390Y-87940874D01*
X35845439Y-87880606D01*
X35802085Y-87824384D01*
X35793500Y-87778670D01*
X35793500Y-85221328D01*
X35813502Y-85153207D01*
X35845440Y-85119391D01*
X35845795Y-85119133D01*
X35845803Y-85119129D01*
X36012430Y-84998068D01*
X36158068Y-84852430D01*
X36279129Y-84685803D01*
X36372634Y-84502290D01*
X36436280Y-84306408D01*
X36468500Y-84102981D01*
X36468500Y-83897019D01*
X36436280Y-83693592D01*
X36436278Y-83693588D01*
X36436209Y-83693147D01*
X36436921Y-83687633D01*
X36434979Y-83682426D01*
X36441423Y-83652800D01*
X36445309Y-83622736D01*
X36449201Y-83617042D01*
X36450070Y-83613052D01*
X36471550Y-83584357D01*
X36471561Y-83584342D01*
X36479461Y-83576442D01*
X36877073Y-83178832D01*
X36946402Y-83075074D01*
X36980782Y-82992071D01*
X36994156Y-82959784D01*
X37018501Y-82837393D01*
X37018501Y-76293977D01*
X36994156Y-76171586D01*
X36946401Y-76056296D01*
X36877072Y-75952538D01*
X36788834Y-75864300D01*
X36056611Y-75132077D01*
X36022585Y-75069765D01*
X36027650Y-74998950D01*
X36056609Y-74953888D01*
X36158068Y-74852430D01*
X36279129Y-74685803D01*
X36372634Y-74502290D01*
X36436280Y-74306408D01*
X36468500Y-74102981D01*
X36468500Y-73897019D01*
X36436280Y-73693592D01*
X36372634Y-73497710D01*
X36279129Y-73314197D01*
X36158068Y-73147570D01*
X36158065Y-73147567D01*
X36158063Y-73147564D01*
X36012435Y-73001936D01*
X36012432Y-73001934D01*
X36012430Y-73001932D01*
X35880390Y-72906000D01*
X35845806Y-72880873D01*
X35845805Y-72880872D01*
X35845803Y-72880871D01*
X35662290Y-72787366D01*
X35662287Y-72787365D01*
X35662285Y-72787364D01*
X35466412Y-72723721D01*
X35466410Y-72723720D01*
X35466408Y-72723720D01*
X35262981Y-72691500D01*
X35057019Y-72691500D01*
X34853592Y-72723720D01*
X34853590Y-72723720D01*
X34853587Y-72723721D01*
X34657714Y-72787364D01*
X34657708Y-72787367D01*
X34474193Y-72880873D01*
X34307567Y-73001934D01*
X34307564Y-73001936D01*
X34161936Y-73147564D01*
X34161934Y-73147567D01*
X34040873Y-73314193D01*
X33947367Y-73497708D01*
X33947364Y-73497714D01*
X33883721Y-73693587D01*
X33883720Y-73693590D01*
X33883720Y-73693592D01*
X33851500Y-73897019D01*
X29004082Y-73897019D01*
X31115777Y-71785325D01*
X31178089Y-71751299D01*
X31204872Y-71748420D01*
X34772475Y-71748420D01*
X34772476Y-71748420D01*
X34894867Y-71724075D01*
X35010157Y-71676320D01*
X35113915Y-71606991D01*
X38880819Y-67840087D01*
X38943127Y-67806065D01*
X39013942Y-67811129D01*
X39070778Y-67853676D01*
X39095589Y-67920196D01*
X39095910Y-67929246D01*
X39080502Y-99848561D01*
X39060467Y-99916672D01*
X39006789Y-99963139D01*
X38954502Y-99974500D01*
X164052Y-99974500D01*
X95931Y-99954498D01*
X49438Y-99900842D01*
X38052Y-99848535D01*
X36460Y-94148597D01*
X992000Y-94148597D01*
X998505Y-94209093D01*
X1049555Y-94345964D01*
X1049555Y-94345965D01*
X1137095Y-94462904D01*
X1254034Y-94550444D01*
X1390906Y-94601494D01*
X1451402Y-94607999D01*
X1451415Y-94608000D01*
X1746000Y-94608000D01*
X2254000Y-94608000D01*
X2548585Y-94608000D01*
X2548597Y-94607999D01*
X2609093Y-94601494D01*
X2745964Y-94550444D01*
X2745965Y-94550444D01*
X2862904Y-94462904D01*
X2950444Y-94345965D01*
X2950444Y-94345964D01*
X3001494Y-94209093D01*
X3007999Y-94148597D01*
X3008000Y-94148585D01*
X3008000Y-93254000D01*
X2254000Y-93254000D01*
X2254000Y-94608000D01*
X1746000Y-94608000D01*
X1746000Y-93254000D01*
X992000Y-93254000D01*
X992000Y-94148597D01*
X36460Y-94148597D01*
X36195Y-93201844D01*
X35818Y-91851402D01*
X992000Y-91851402D01*
X992000Y-92746000D01*
X1746000Y-92746000D01*
X1746000Y-92560218D01*
X1800000Y-92560218D01*
X1800000Y-93439782D01*
X1830448Y-93513291D01*
X1886709Y-93569552D01*
X1960218Y-93600000D01*
X2039782Y-93600000D01*
X2113291Y-93569552D01*
X2169552Y-93513291D01*
X2200000Y-93439782D01*
X2200000Y-92746000D01*
X2254000Y-92746000D01*
X3008000Y-92746000D01*
X3008000Y-91851414D01*
X3007999Y-91851402D01*
X3001494Y-91790906D01*
X2950444Y-91654035D01*
X2950444Y-91654034D01*
X2862904Y-91537095D01*
X2745965Y-91449555D01*
X2609093Y-91398505D01*
X2548597Y-91392000D01*
X2254000Y-91392000D01*
X2254000Y-92746000D01*
X2200000Y-92746000D01*
X2200000Y-92560218D01*
X2169552Y-92486709D01*
X2113291Y-92430448D01*
X2039782Y-92400000D01*
X1960218Y-92400000D01*
X1886709Y-92430448D01*
X1830448Y-92486709D01*
X1800000Y-92560218D01*
X1746000Y-92560218D01*
X1746000Y-91392000D01*
X1451402Y-91392000D01*
X1390906Y-91398505D01*
X1254035Y-91449555D01*
X1254034Y-91449555D01*
X1137095Y-91537095D01*
X1049555Y-91654034D01*
X1049555Y-91654035D01*
X998505Y-91790906D01*
X992000Y-91851402D01*
X35818Y-91851402D01*
X35817Y-91848070D01*
X33932Y-85098799D01*
X27737Y-62924506D01*
X47720Y-62856383D01*
X101363Y-62809875D01*
X171634Y-62799751D01*
X236223Y-62829227D01*
G37*
G04 #@! TD.AperFunction*
G04 #@! TA.AperFunction,Conductor*
G36*
X23784003Y-69635066D02*
G01*
X23789452Y-69633962D01*
X23817704Y-69644961D01*
X23846791Y-69653502D01*
X23851805Y-69658238D01*
X23855612Y-69659720D01*
X23880606Y-69685439D01*
X23921553Y-69741797D01*
X24001932Y-69852430D01*
X24001934Y-69852432D01*
X24001936Y-69852435D01*
X24147564Y-69998063D01*
X24147567Y-69998065D01*
X24147570Y-69998068D01*
X24314197Y-70119129D01*
X24497710Y-70212634D01*
X24693592Y-70276280D01*
X24897019Y-70308500D01*
X24897022Y-70308500D01*
X25102978Y-70308500D01*
X25102981Y-70308500D01*
X25306408Y-70276280D01*
X25502290Y-70212634D01*
X25566540Y-70179896D01*
X25636315Y-70166792D01*
X25702099Y-70193491D01*
X25743006Y-70251518D01*
X25746048Y-70322450D01*
X25712837Y-70381258D01*
X22478253Y-73615842D01*
X22415941Y-73649868D01*
X22345126Y-73644803D01*
X22288290Y-73602256D01*
X22263479Y-73535736D01*
X22269325Y-73487812D01*
X22276280Y-73466408D01*
X22308500Y-73262981D01*
X22308500Y-73057019D01*
X22276280Y-72853592D01*
X22212634Y-72657710D01*
X22119129Y-72474197D01*
X21998068Y-72307570D01*
X21998065Y-72307567D01*
X21998063Y-72307564D01*
X21852435Y-72161936D01*
X21852432Y-72161934D01*
X21852430Y-72161932D01*
X21685803Y-72040871D01*
X21502290Y-71947366D01*
X21502287Y-71947365D01*
X21502285Y-71947364D01*
X21306412Y-71883721D01*
X21306410Y-71883720D01*
X21306408Y-71883720D01*
X21102981Y-71851500D01*
X20897019Y-71851500D01*
X20693592Y-71883720D01*
X20693590Y-71883720D01*
X20693587Y-71883721D01*
X20497714Y-71947364D01*
X20497708Y-71947367D01*
X20314193Y-72040873D01*
X20147567Y-72161934D01*
X20147564Y-72161936D01*
X20001936Y-72307564D01*
X20001934Y-72307567D01*
X19880873Y-72474193D01*
X19787367Y-72657708D01*
X19787364Y-72657714D01*
X19723721Y-72853587D01*
X19723720Y-72853590D01*
X19723720Y-72853592D01*
X19691500Y-73057019D01*
X19691500Y-73262981D01*
X19723720Y-73466408D01*
X19723720Y-73466410D01*
X19723721Y-73466412D01*
X19783329Y-73649868D01*
X19787366Y-73662290D01*
X19880871Y-73845803D01*
X20001932Y-74012430D01*
X20001934Y-74012432D01*
X20001936Y-74012435D01*
X20147564Y-74158063D01*
X20147567Y-74158065D01*
X20147570Y-74158068D01*
X20314197Y-74279129D01*
X20497710Y-74372634D01*
X20693592Y-74436280D01*
X20897019Y-74468500D01*
X20897022Y-74468500D01*
X21102978Y-74468500D01*
X21102981Y-74468500D01*
X21306408Y-74436280D01*
X21327810Y-74429325D01*
X21398774Y-74427296D01*
X21459573Y-74463957D01*
X21490901Y-74527668D01*
X21482810Y-74598202D01*
X21455842Y-74638253D01*
X15596167Y-80497929D01*
X15507931Y-80586164D01*
X15507926Y-80586171D01*
X15448237Y-80675502D01*
X15393760Y-80721030D01*
X15343472Y-80731500D01*
X15191350Y-80731500D01*
X15130803Y-80738009D01*
X15130795Y-80738011D01*
X14993797Y-80789110D01*
X14993792Y-80789112D01*
X14876738Y-80876738D01*
X14789112Y-80993792D01*
X14789110Y-80993797D01*
X14738011Y-81130795D01*
X14738009Y-81130803D01*
X14731500Y-81191350D01*
X14731500Y-81240500D01*
X14711498Y-81308621D01*
X14657842Y-81355114D01*
X14605500Y-81366500D01*
X13187849Y-81366500D01*
X13130646Y-81352767D01*
X13002286Y-81287364D01*
X12806412Y-81223721D01*
X12806410Y-81223720D01*
X12806408Y-81223720D01*
X12602981Y-81191500D01*
X12397019Y-81191500D01*
X12193592Y-81223720D01*
X12193590Y-81223720D01*
X12193587Y-81223721D01*
X11997714Y-81287364D01*
X11997708Y-81287367D01*
X11814193Y-81380873D01*
X11647567Y-81501934D01*
X11647564Y-81501936D01*
X11501936Y-81647564D01*
X11501934Y-81647567D01*
X11380873Y-81814193D01*
X11287367Y-81997708D01*
X11287364Y-81997714D01*
X11223721Y-82193587D01*
X11223720Y-82193590D01*
X11223720Y-82193592D01*
X11191500Y-82397019D01*
X11191500Y-82602981D01*
X11222043Y-82795818D01*
X11223721Y-82806412D01*
X11277258Y-82971182D01*
X11287366Y-83002290D01*
X11380871Y-83185803D01*
X11380873Y-83185806D01*
X11399097Y-83210889D01*
X11501932Y-83352430D01*
X11501934Y-83352432D01*
X11501936Y-83352435D01*
X11647564Y-83498063D01*
X11647567Y-83498065D01*
X11647570Y-83498068D01*
X11814197Y-83619129D01*
X11997710Y-83712634D01*
X12193592Y-83776280D01*
X12397019Y-83808500D01*
X12397022Y-83808500D01*
X12602978Y-83808500D01*
X12602981Y-83808500D01*
X12806408Y-83776280D01*
X13002290Y-83712634D01*
X13185803Y-83619129D01*
X13352430Y-83498068D01*
X13498068Y-83352430D01*
X13619129Y-83185803D01*
X13712634Y-83002290D01*
X13776280Y-82806408D01*
X13786831Y-82739787D01*
X13817244Y-82675636D01*
X13877512Y-82638109D01*
X13911280Y-82633500D01*
X14605500Y-82633500D01*
X14673621Y-82653502D01*
X14720114Y-82707158D01*
X14731500Y-82759500D01*
X14731500Y-82808649D01*
X14738009Y-82869196D01*
X14738011Y-82869204D01*
X14789110Y-83006202D01*
X14789112Y-83006207D01*
X14876738Y-83123261D01*
X14993792Y-83210887D01*
X14993794Y-83210888D01*
X14993796Y-83210889D01*
X15052875Y-83232924D01*
X15130795Y-83261988D01*
X15130803Y-83261990D01*
X15191350Y-83268499D01*
X15191355Y-83268499D01*
X15191362Y-83268500D01*
X15191368Y-83268500D01*
X16808632Y-83268500D01*
X16808638Y-83268500D01*
X16808645Y-83268499D01*
X16808649Y-83268499D01*
X16869196Y-83261990D01*
X16869199Y-83261989D01*
X16869201Y-83261989D01*
X17006204Y-83210889D01*
X17049029Y-83178831D01*
X17123261Y-83123261D01*
X17210887Y-83006207D01*
X17210887Y-83006206D01*
X17210889Y-83006204D01*
X17261989Y-82869201D01*
X17265409Y-82837395D01*
X17268499Y-82808649D01*
X17268500Y-82808632D01*
X17268500Y-82795818D01*
X17288502Y-82727697D01*
X17342158Y-82681204D01*
X17412432Y-82671100D01*
X17477012Y-82700594D01*
X17496433Y-82721754D01*
X17572443Y-82826372D01*
X17572445Y-82826374D01*
X17572447Y-82826377D01*
X17713622Y-82967552D01*
X17713625Y-82967554D01*
X17713628Y-82967557D01*
X17854561Y-83069951D01*
X17897915Y-83126173D01*
X17906500Y-83171887D01*
X17906500Y-86397606D01*
X17906500Y-86522394D01*
X17930845Y-86644785D01*
X17978600Y-86760075D01*
X18047929Y-86863833D01*
X18047931Y-86863835D01*
X18700501Y-87516405D01*
X18734527Y-87578717D01*
X18729462Y-87649532D01*
X18686915Y-87706368D01*
X18620395Y-87731179D01*
X18611406Y-87731500D01*
X18440167Y-87731500D01*
X18242959Y-87762735D01*
X18242953Y-87762736D01*
X18053069Y-87824433D01*
X18053063Y-87824436D01*
X17875157Y-87915084D01*
X17713625Y-88032444D01*
X17572444Y-88173625D01*
X17496436Y-88278242D01*
X17440213Y-88321596D01*
X17369477Y-88327671D01*
X17306685Y-88294539D01*
X17271774Y-88232719D01*
X17268500Y-88204181D01*
X17268500Y-88191367D01*
X17268499Y-88191350D01*
X17261990Y-88130803D01*
X17261988Y-88130795D01*
X17213924Y-88001934D01*
X17210889Y-87993796D01*
X17210888Y-87993794D01*
X17210887Y-87993792D01*
X17123261Y-87876738D01*
X17006207Y-87789112D01*
X17006202Y-87789110D01*
X16869204Y-87738011D01*
X16869196Y-87738009D01*
X16808649Y-87731500D01*
X16808638Y-87731500D01*
X15191362Y-87731500D01*
X15191350Y-87731500D01*
X15130803Y-87738009D01*
X15130795Y-87738011D01*
X14993797Y-87789110D01*
X14993792Y-87789112D01*
X14876738Y-87876738D01*
X14789112Y-87993792D01*
X14789110Y-87993797D01*
X14738011Y-88130795D01*
X14738009Y-88130803D01*
X14731500Y-88191350D01*
X14731500Y-89808649D01*
X14738009Y-89869196D01*
X14738011Y-89869204D01*
X14789110Y-90006202D01*
X14789112Y-90006207D01*
X14876738Y-90123261D01*
X14993792Y-90210887D01*
X14993794Y-90210888D01*
X14993796Y-90210889D01*
X15052875Y-90232924D01*
X15130795Y-90261988D01*
X15130803Y-90261990D01*
X15191350Y-90268499D01*
X15191355Y-90268499D01*
X15191362Y-90268500D01*
X15191368Y-90268500D01*
X16808632Y-90268500D01*
X16808638Y-90268500D01*
X16808645Y-90268499D01*
X16808649Y-90268499D01*
X16869196Y-90261990D01*
X16869199Y-90261989D01*
X16869201Y-90261989D01*
X17006204Y-90210889D01*
X17058305Y-90171887D01*
X17123261Y-90123261D01*
X17210887Y-90006207D01*
X17210887Y-90006206D01*
X17210889Y-90006204D01*
X17261989Y-89869201D01*
X17263792Y-89852435D01*
X17268499Y-89808649D01*
X17268500Y-89808632D01*
X17268500Y-89795818D01*
X17288502Y-89727697D01*
X17342158Y-89681204D01*
X17412432Y-89671100D01*
X17477012Y-89700594D01*
X17496433Y-89721754D01*
X17572443Y-89826372D01*
X17572445Y-89826374D01*
X17572447Y-89826377D01*
X17713622Y-89967552D01*
X17713625Y-89967554D01*
X17713628Y-89967557D01*
X17854561Y-90069951D01*
X17897915Y-90126173D01*
X17906500Y-90171887D01*
X17906500Y-91645405D01*
X17886498Y-91713526D01*
X17869595Y-91734500D01*
X16415658Y-93188436D01*
X16353346Y-93222462D01*
X16306853Y-93223790D01*
X16183850Y-93204308D01*
X16102981Y-93191500D01*
X15897019Y-93191500D01*
X15693592Y-93223720D01*
X15693590Y-93223720D01*
X15693587Y-93223721D01*
X15497714Y-93287364D01*
X15497708Y-93287367D01*
X15314193Y-93380873D01*
X15147567Y-93501934D01*
X15147564Y-93501936D01*
X15001936Y-93647564D01*
X15001934Y-93647567D01*
X14880606Y-93814561D01*
X14824384Y-93857915D01*
X14778670Y-93866500D01*
X8698434Y-93866500D01*
X8630313Y-93846498D01*
X8609339Y-93829595D01*
X4731094Y-89951350D01*
X6791500Y-89951350D01*
X6791500Y-91048649D01*
X6798009Y-91109196D01*
X6798011Y-91109204D01*
X6849110Y-91246202D01*
X6849112Y-91246207D01*
X6936738Y-91363261D01*
X7053792Y-91450887D01*
X7053794Y-91450888D01*
X7053796Y-91450889D01*
X7112875Y-91472924D01*
X7190795Y-91501988D01*
X7190803Y-91501990D01*
X7251350Y-91508499D01*
X7251355Y-91508499D01*
X7251362Y-91508500D01*
X7251368Y-91508500D01*
X9548632Y-91508500D01*
X9548638Y-91508500D01*
X9548645Y-91508499D01*
X9548649Y-91508499D01*
X9609196Y-91501990D01*
X9609199Y-91501989D01*
X9609201Y-91501989D01*
X9746204Y-91450889D01*
X9863261Y-91363261D01*
X9950889Y-91246204D01*
X10001989Y-91109201D01*
X10008500Y-91048638D01*
X10008500Y-89951362D01*
X10008499Y-89951350D01*
X10001990Y-89890803D01*
X10001988Y-89890795D01*
X9971342Y-89808632D01*
X9950889Y-89753796D01*
X9950888Y-89753794D01*
X9950887Y-89753792D01*
X9863261Y-89636738D01*
X9746207Y-89549112D01*
X9746202Y-89549110D01*
X9609204Y-89498011D01*
X9609196Y-89498009D01*
X9548649Y-89491500D01*
X9548638Y-89491500D01*
X7251362Y-89491500D01*
X7251350Y-89491500D01*
X7190803Y-89498009D01*
X7190795Y-89498011D01*
X7053797Y-89549110D01*
X7053792Y-89549112D01*
X6936738Y-89636738D01*
X6849112Y-89753792D01*
X6849110Y-89753797D01*
X6798011Y-89890795D01*
X6798009Y-89890803D01*
X6791500Y-89951350D01*
X4731094Y-89951350D01*
X3875885Y-89096141D01*
X3841859Y-89033829D01*
X3838980Y-89007046D01*
X3838980Y-87251350D01*
X8191500Y-87251350D01*
X8191500Y-88348649D01*
X8198009Y-88409196D01*
X8198011Y-88409204D01*
X8249110Y-88546202D01*
X8249112Y-88546207D01*
X8336738Y-88663261D01*
X8453792Y-88750887D01*
X8453794Y-88750888D01*
X8453796Y-88750889D01*
X8512875Y-88772924D01*
X8590795Y-88801988D01*
X8590803Y-88801990D01*
X8651350Y-88808499D01*
X8651355Y-88808499D01*
X8651362Y-88808500D01*
X8651368Y-88808500D01*
X10948632Y-88808500D01*
X10948638Y-88808500D01*
X10948645Y-88808499D01*
X10948649Y-88808499D01*
X11009196Y-88801990D01*
X11009199Y-88801989D01*
X11009201Y-88801989D01*
X11146204Y-88750889D01*
X11263261Y-88663261D01*
X11350889Y-88546204D01*
X11401989Y-88409201D01*
X11408500Y-88348638D01*
X11408500Y-87251362D01*
X11408499Y-87251350D01*
X11401990Y-87190803D01*
X11401988Y-87190795D01*
X11350889Y-87053797D01*
X11350887Y-87053792D01*
X11263261Y-86936738D01*
X11146207Y-86849112D01*
X11146202Y-86849110D01*
X11009204Y-86798011D01*
X11009196Y-86798009D01*
X10948649Y-86791500D01*
X10948638Y-86791500D01*
X8651362Y-86791500D01*
X8651350Y-86791500D01*
X8590803Y-86798009D01*
X8590795Y-86798011D01*
X8453797Y-86849110D01*
X8453792Y-86849112D01*
X8336738Y-86936738D01*
X8249112Y-87053792D01*
X8249110Y-87053797D01*
X8198011Y-87190795D01*
X8198009Y-87190803D01*
X8191500Y-87251350D01*
X3838980Y-87251350D01*
X3838980Y-81347697D01*
X3858982Y-81279576D01*
X3912638Y-81233083D01*
X3982912Y-81222979D01*
X4022176Y-81235427D01*
X4159324Y-81305308D01*
X4370176Y-81373818D01*
X4589149Y-81408500D01*
X4589152Y-81408500D01*
X4810848Y-81408500D01*
X4810851Y-81408500D01*
X5029824Y-81373818D01*
X5226611Y-81309877D01*
X5297576Y-81307850D01*
X5358374Y-81344513D01*
X5389699Y-81408225D01*
X5384474Y-81471326D01*
X5297013Y-81721275D01*
X5226819Y-82028814D01*
X5191500Y-82342276D01*
X5191500Y-82657723D01*
X5226819Y-82971185D01*
X5252778Y-83084915D01*
X5297012Y-83278718D01*
X5297014Y-83278724D01*
X5297013Y-83278724D01*
X5401189Y-83576442D01*
X5401200Y-83576469D01*
X5538063Y-83860668D01*
X5705890Y-84127762D01*
X5705894Y-84127768D01*
X5902563Y-84374381D01*
X5902572Y-84374391D01*
X6125608Y-84597427D01*
X6125618Y-84597436D01*
X6372231Y-84794105D01*
X6372238Y-84794109D01*
X6372241Y-84794112D01*
X6465054Y-84852430D01*
X6639331Y-84961936D01*
X6639334Y-84961937D01*
X6639335Y-84961938D01*
X6923540Y-85098804D01*
X6923556Y-85098809D01*
X6923557Y-85098810D01*
X7221275Y-85202986D01*
X7221278Y-85202986D01*
X7221282Y-85202988D01*
X7528818Y-85273181D01*
X7751088Y-85298225D01*
X7842276Y-85308500D01*
X7842278Y-85308500D01*
X8157724Y-85308500D01*
X8237332Y-85299529D01*
X8471182Y-85273181D01*
X8778718Y-85202988D01*
X9076460Y-85098804D01*
X9360665Y-84961938D01*
X9627759Y-84794112D01*
X9874383Y-84597435D01*
X10097435Y-84374383D01*
X10294112Y-84127759D01*
X10461938Y-83860665D01*
X10598804Y-83576460D01*
X10702988Y-83278718D01*
X10773181Y-82971182D01*
X10808500Y-82657722D01*
X10808500Y-82342278D01*
X10773181Y-82028818D01*
X10702988Y-81721282D01*
X10677195Y-81647570D01*
X10598810Y-81423557D01*
X10598809Y-81423556D01*
X10598804Y-81423540D01*
X10461938Y-81139335D01*
X10461937Y-81139334D01*
X10461936Y-81139331D01*
X10321032Y-80915084D01*
X10294112Y-80872241D01*
X10294109Y-80872237D01*
X10294105Y-80872231D01*
X10097436Y-80625618D01*
X10097427Y-80625608D01*
X9874391Y-80402572D01*
X9874381Y-80402563D01*
X9627768Y-80205894D01*
X9627762Y-80205890D01*
X9360668Y-80038063D01*
X9076469Y-79901200D01*
X9076464Y-79901198D01*
X9076460Y-79901196D01*
X9076454Y-79901193D01*
X9076442Y-79901189D01*
X8778724Y-79797013D01*
X8471185Y-79726819D01*
X8157724Y-79691500D01*
X8157722Y-79691500D01*
X7842278Y-79691500D01*
X7842276Y-79691500D01*
X7528814Y-79726819D01*
X7221275Y-79797013D01*
X6923557Y-79901189D01*
X6923530Y-79901200D01*
X6639331Y-80038063D01*
X6372241Y-80205888D01*
X6306930Y-80257971D01*
X6241199Y-80284804D01*
X6171396Y-80271842D01*
X6119682Y-80223198D01*
X6102476Y-80154318D01*
X6103923Y-80139746D01*
X6108500Y-80110851D01*
X6108500Y-79889152D01*
X6108500Y-79889149D01*
X6073818Y-79670176D01*
X6005308Y-79459324D01*
X5904657Y-79261785D01*
X5774343Y-79082424D01*
X5774341Y-79082421D01*
X5617578Y-78925658D01*
X5516108Y-78851936D01*
X5472754Y-78795713D01*
X5466679Y-78724977D01*
X5499811Y-78662186D01*
X5516108Y-78648064D01*
X5617576Y-78574343D01*
X5774343Y-78417576D01*
X5904657Y-78238215D01*
X5922959Y-78202296D01*
X5971707Y-78150681D01*
X6035225Y-78133500D01*
X9909391Y-78133500D01*
X9909392Y-78133500D01*
X10031783Y-78109155D01*
X10147073Y-78061400D01*
X10250831Y-77992071D01*
X14595323Y-73647578D01*
X14657631Y-73613556D01*
X14728446Y-73618620D01*
X14785282Y-73661167D01*
X14796681Y-73679473D01*
X14881299Y-73845544D01*
X15002315Y-74012107D01*
X15002317Y-74012110D01*
X15147889Y-74157682D01*
X15147892Y-74157684D01*
X15314454Y-74278699D01*
X15497900Y-74372170D01*
X15497906Y-74372173D01*
X15693705Y-74435791D01*
X15693717Y-74435794D01*
X15745999Y-74444074D01*
X15746000Y-74444074D01*
X15746000Y-73471686D01*
X15754394Y-73480080D01*
X15845606Y-73532741D01*
X15947339Y-73560000D01*
X16052661Y-73560000D01*
X16154394Y-73532741D01*
X16245606Y-73480080D01*
X16254000Y-73471686D01*
X16254000Y-74444074D01*
X16306282Y-74435794D01*
X16306294Y-74435791D01*
X16502093Y-74372173D01*
X16502099Y-74372170D01*
X16685545Y-74278699D01*
X16852107Y-74157684D01*
X16852110Y-74157682D01*
X16997682Y-74012110D01*
X16997684Y-74012107D01*
X17118699Y-73845545D01*
X17212170Y-73662099D01*
X17212173Y-73662093D01*
X17275791Y-73466295D01*
X17284074Y-73414000D01*
X16311686Y-73414000D01*
X16320080Y-73405606D01*
X16372741Y-73314394D01*
X16400000Y-73212661D01*
X16400000Y-73107339D01*
X16372741Y-73005606D01*
X16320080Y-72914394D01*
X16311686Y-72906000D01*
X17284074Y-72906000D01*
X17275791Y-72853704D01*
X17212173Y-72657906D01*
X17212170Y-72657900D01*
X17118699Y-72474454D01*
X16997684Y-72307892D01*
X16997682Y-72307889D01*
X16852110Y-72162317D01*
X16852107Y-72162315D01*
X16685544Y-72041299D01*
X16519473Y-71956681D01*
X16467858Y-71907932D01*
X16450792Y-71839017D01*
X16473693Y-71771816D01*
X16487570Y-71755331D01*
X18572497Y-69670405D01*
X18634809Y-69636379D01*
X18661592Y-69633500D01*
X23778670Y-69633500D01*
X23784003Y-69635066D01*
G37*
G04 #@! TD.AperFunction*
G04 #@! TA.AperFunction,Conductor*
G36*
X23676483Y-74313584D02*
G01*
X23733319Y-74356131D01*
X23752284Y-74392704D01*
X23787826Y-74502093D01*
X23787829Y-74502099D01*
X23881300Y-74685545D01*
X24002315Y-74852107D01*
X24002317Y-74852110D01*
X24147889Y-74997682D01*
X24147892Y-74997684D01*
X24314454Y-75118699D01*
X24497900Y-75212170D01*
X24497906Y-75212173D01*
X24693705Y-75275791D01*
X24693717Y-75275794D01*
X24745999Y-75284074D01*
X24746000Y-75284074D01*
X24746000Y-74311686D01*
X24754394Y-74320080D01*
X24845606Y-74372741D01*
X24947339Y-74400000D01*
X25052661Y-74400000D01*
X25154394Y-74372741D01*
X25245606Y-74320080D01*
X25254000Y-74311686D01*
X25254000Y-75284074D01*
X25306282Y-75275794D01*
X25306294Y-75275791D01*
X25502093Y-75212173D01*
X25502104Y-75212168D01*
X25598666Y-75162967D01*
X25668443Y-75149862D01*
X25734228Y-75176561D01*
X25775135Y-75234589D01*
X25778176Y-75305520D01*
X25744965Y-75364328D01*
X20676167Y-80433127D01*
X20587931Y-80521362D01*
X20587926Y-80521369D01*
X20544630Y-80586167D01*
X20518600Y-80625123D01*
X20518395Y-80625618D01*
X20470846Y-80740410D01*
X20449259Y-80848931D01*
X20416351Y-80911841D01*
X20399741Y-80926285D01*
X20253625Y-81032444D01*
X20112444Y-81173625D01*
X19995083Y-81335158D01*
X19922267Y-81478068D01*
X19873518Y-81529683D01*
X19804603Y-81546749D01*
X19737402Y-81523848D01*
X19697733Y-81478068D01*
X19694298Y-81471326D01*
X19624918Y-81335161D01*
X19615063Y-81321596D01*
X19507555Y-81173625D01*
X19366374Y-81032444D01*
X19204842Y-80915084D01*
X19204841Y-80915083D01*
X19204839Y-80915082D01*
X19026935Y-80824435D01*
X19026932Y-80824434D01*
X19026930Y-80824433D01*
X18837046Y-80762736D01*
X18837042Y-80762735D01*
X18837041Y-80762735D01*
X18639833Y-80731500D01*
X18440167Y-80731500D01*
X18242959Y-80762735D01*
X18242953Y-80762736D01*
X18053069Y-80824433D01*
X18053063Y-80824436D01*
X17875157Y-80915084D01*
X17713625Y-81032444D01*
X17572444Y-81173625D01*
X17496436Y-81278242D01*
X17440213Y-81321596D01*
X17369477Y-81327671D01*
X17306685Y-81294539D01*
X17271774Y-81232719D01*
X17268500Y-81204181D01*
X17268500Y-81191367D01*
X17268499Y-81191350D01*
X17261990Y-81130803D01*
X17261988Y-81130795D01*
X17210889Y-80993797D01*
X17210889Y-80993796D01*
X17192741Y-80969553D01*
X17139842Y-80898888D01*
X17115032Y-80832370D01*
X17130123Y-80762996D01*
X17151612Y-80734290D01*
X23543361Y-74342541D01*
X23605668Y-74308519D01*
X23676483Y-74313584D01*
G37*
G04 #@! TD.AperFunction*
G04 #@! TA.AperFunction,Conductor*
G36*
X33615888Y-58169233D02*
G01*
X33648727Y-58171582D01*
X33650965Y-58173257D01*
X33653742Y-58173576D01*
X33679221Y-58194410D01*
X33705563Y-58214129D01*
X33707201Y-58217288D01*
X33708704Y-58218517D01*
X33724528Y-58250701D01*
X33741028Y-58301483D01*
X33838106Y-58492009D01*
X33963794Y-58665004D01*
X33963796Y-58665006D01*
X33963798Y-58665009D01*
X34114990Y-58816201D01*
X34114993Y-58816203D01*
X34114996Y-58816206D01*
X34287991Y-58941894D01*
X34478517Y-59038972D01*
X34681878Y-59105047D01*
X34681879Y-59105047D01*
X34681884Y-59105049D01*
X34893084Y-59138500D01*
X34893087Y-59138500D01*
X35106913Y-59138500D01*
X35106916Y-59138500D01*
X35318116Y-59105049D01*
X35521483Y-59038972D01*
X35712009Y-58941894D01*
X35885004Y-58816206D01*
X36036206Y-58665004D01*
X36161894Y-58492009D01*
X36161899Y-58491997D01*
X36162561Y-58490920D01*
X36162924Y-58490591D01*
X36164804Y-58488004D01*
X36165347Y-58488398D01*
X36215204Y-58443283D01*
X36285244Y-58431670D01*
X36350445Y-58459766D01*
X36375021Y-58488130D01*
X36375196Y-58488004D01*
X36376668Y-58490030D01*
X36377439Y-58490920D01*
X36378105Y-58492007D01*
X36378106Y-58492009D01*
X36503794Y-58665004D01*
X36503796Y-58665006D01*
X36503798Y-58665009D01*
X36654990Y-58816201D01*
X36654993Y-58816203D01*
X36654996Y-58816206D01*
X36827991Y-58941894D01*
X37018517Y-59038972D01*
X37221878Y-59105047D01*
X37221879Y-59105047D01*
X37221884Y-59105049D01*
X37433084Y-59138500D01*
X37433087Y-59138500D01*
X37646913Y-59138500D01*
X37646916Y-59138500D01*
X37858116Y-59105049D01*
X38061483Y-59038972D01*
X38192619Y-58972154D01*
X38262394Y-58959051D01*
X38328178Y-58985751D01*
X38369085Y-59043778D01*
X38375820Y-59084422D01*
X38375820Y-66501086D01*
X38355818Y-66569207D01*
X38338915Y-66590181D01*
X36515094Y-68414001D01*
X36452782Y-68448027D01*
X36381966Y-68442962D01*
X36325131Y-68400415D01*
X36313733Y-68382110D01*
X36279128Y-68314196D01*
X36274990Y-68308500D01*
X36158068Y-68147570D01*
X36158065Y-68147567D01*
X36158063Y-68147564D01*
X36012435Y-68001936D01*
X36012432Y-68001934D01*
X36012430Y-68001932D01*
X35845803Y-67880871D01*
X35662290Y-67787366D01*
X35662287Y-67787365D01*
X35662285Y-67787364D01*
X35466412Y-67723721D01*
X35466410Y-67723720D01*
X35466408Y-67723720D01*
X35262981Y-67691500D01*
X35057019Y-67691500D01*
X34853592Y-67723720D01*
X34853590Y-67723720D01*
X34853587Y-67723721D01*
X34657714Y-67787364D01*
X34657708Y-67787367D01*
X34474193Y-67880873D01*
X34307567Y-68001934D01*
X34307564Y-68001936D01*
X34161936Y-68147564D01*
X34161934Y-68147567D01*
X34040873Y-68314193D01*
X33947367Y-68497708D01*
X33947364Y-68497714D01*
X33883721Y-68693587D01*
X33883720Y-68693590D01*
X33883720Y-68693592D01*
X33851500Y-68897019D01*
X33851500Y-69102981D01*
X33877117Y-69264720D01*
X33883790Y-69306851D01*
X33883077Y-69312362D01*
X33885020Y-69317570D01*
X33878575Y-69347197D01*
X33874690Y-69377263D01*
X33870797Y-69382955D01*
X33869930Y-69386945D01*
X33848439Y-69415655D01*
X33809502Y-69454594D01*
X33747190Y-69488621D01*
X33720404Y-69491501D01*
X26802602Y-69491501D01*
X26729567Y-69506029D01*
X26680214Y-69515846D01*
X26680212Y-69515846D01*
X26680211Y-69515847D01*
X26564922Y-69563602D01*
X26461170Y-69632927D01*
X26461168Y-69632928D01*
X26381258Y-69712838D01*
X26318945Y-69746863D01*
X26248130Y-69741797D01*
X26191294Y-69699250D01*
X26166484Y-69632730D01*
X26179896Y-69566540D01*
X26212634Y-69502290D01*
X26276280Y-69306408D01*
X26308500Y-69102981D01*
X26308500Y-68897019D01*
X26276280Y-68693592D01*
X26212634Y-68497710D01*
X26119129Y-68314197D01*
X25998068Y-68147570D01*
X25998065Y-68147567D01*
X25998063Y-68147564D01*
X25852435Y-68001936D01*
X25852432Y-68001934D01*
X25852430Y-68001932D01*
X25685803Y-67880871D01*
X25502290Y-67787366D01*
X25502287Y-67787365D01*
X25502285Y-67787364D01*
X25306412Y-67723721D01*
X25306410Y-67723720D01*
X25306408Y-67723720D01*
X25102981Y-67691500D01*
X24897019Y-67691500D01*
X24693592Y-67723720D01*
X24693590Y-67723720D01*
X24693587Y-67723721D01*
X24497714Y-67787364D01*
X24497708Y-67787367D01*
X24314193Y-67880873D01*
X24147567Y-68001934D01*
X24147564Y-68001936D01*
X24001936Y-68147564D01*
X24001934Y-68147567D01*
X23880606Y-68314561D01*
X23824384Y-68357915D01*
X23778670Y-68366500D01*
X18284601Y-68366500D01*
X18211566Y-68381028D01*
X18162213Y-68390845D01*
X18162211Y-68390845D01*
X18162210Y-68390846D01*
X18046921Y-68438601D01*
X17943169Y-68507926D01*
X17943162Y-68507931D01*
X13893998Y-72557095D01*
X13831686Y-72591121D01*
X13804903Y-72594000D01*
X12811686Y-72594000D01*
X12820080Y-72585606D01*
X12872741Y-72494394D01*
X12900000Y-72392661D01*
X12900000Y-72287339D01*
X12872741Y-72185606D01*
X12820080Y-72094394D01*
X12811686Y-72086000D01*
X13784074Y-72086000D01*
X13775791Y-72033704D01*
X13712173Y-71837906D01*
X13712170Y-71837900D01*
X13618699Y-71654454D01*
X13497684Y-71487892D01*
X13497682Y-71487889D01*
X13352110Y-71342317D01*
X13352107Y-71342315D01*
X13185545Y-71221300D01*
X13002099Y-71127829D01*
X13002093Y-71127826D01*
X12806294Y-71064208D01*
X12806296Y-71064208D01*
X12754000Y-71055925D01*
X12754000Y-72028314D01*
X12745606Y-72019920D01*
X12654394Y-71967259D01*
X12552661Y-71940000D01*
X12447339Y-71940000D01*
X12345606Y-71967259D01*
X12254394Y-72019920D01*
X12246000Y-72028314D01*
X12246000Y-71055925D01*
X12193704Y-71064208D01*
X11997906Y-71127826D01*
X11997900Y-71127829D01*
X11814454Y-71221300D01*
X11647892Y-71342315D01*
X11647889Y-71342317D01*
X11502317Y-71487889D01*
X11502315Y-71487892D01*
X11381300Y-71654454D01*
X11287829Y-71837900D01*
X11287826Y-71837906D01*
X11224208Y-72033704D01*
X11215926Y-72086000D01*
X12188314Y-72086000D01*
X12179920Y-72094394D01*
X12127259Y-72185606D01*
X12100000Y-72287339D01*
X12100000Y-72392661D01*
X12127259Y-72494394D01*
X12179920Y-72585606D01*
X12188314Y-72594000D01*
X11215926Y-72594000D01*
X11224208Y-72646295D01*
X11287826Y-72842093D01*
X11287829Y-72842099D01*
X11381300Y-73025545D01*
X11502315Y-73192107D01*
X11502317Y-73192110D01*
X11647889Y-73337682D01*
X11647892Y-73337684D01*
X11814454Y-73458699D01*
X11997900Y-73552170D01*
X11997906Y-73552173D01*
X12193705Y-73615791D01*
X12193717Y-73615794D01*
X12245999Y-73624074D01*
X12246000Y-73624074D01*
X12246000Y-72651686D01*
X12254394Y-72660080D01*
X12345606Y-72712741D01*
X12447339Y-72740000D01*
X12552661Y-72740000D01*
X12654394Y-72712741D01*
X12745606Y-72660080D01*
X12754000Y-72651686D01*
X12754000Y-73644903D01*
X12733998Y-73713024D01*
X12717095Y-73733998D01*
X9621499Y-76829595D01*
X9559187Y-76863621D01*
X9532404Y-76866500D01*
X6035225Y-76866500D01*
X5967104Y-76846498D01*
X5922959Y-76797704D01*
X5904656Y-76761784D01*
X5774341Y-76582421D01*
X5617578Y-76425658D01*
X5516108Y-76351936D01*
X5472754Y-76295713D01*
X5466679Y-76224977D01*
X5499811Y-76162186D01*
X5516108Y-76148064D01*
X5617576Y-76074343D01*
X5774343Y-75917576D01*
X5904657Y-75738215D01*
X6005308Y-75540676D01*
X6073818Y-75329824D01*
X6108500Y-75110851D01*
X6108500Y-74889149D01*
X6103922Y-74860247D01*
X6113021Y-74789840D01*
X6158743Y-74735525D01*
X6226571Y-74714552D01*
X6294970Y-74733578D01*
X6306931Y-74742029D01*
X6372231Y-74794105D01*
X6372238Y-74794109D01*
X6372241Y-74794112D01*
X6465054Y-74852430D01*
X6639331Y-74961936D01*
X6639334Y-74961937D01*
X6639335Y-74961938D01*
X6923540Y-75098804D01*
X6923556Y-75098809D01*
X6923557Y-75098810D01*
X7221275Y-75202986D01*
X7221278Y-75202986D01*
X7221282Y-75202988D01*
X7528818Y-75273181D01*
X7751088Y-75298225D01*
X7842276Y-75308500D01*
X7842278Y-75308500D01*
X8157724Y-75308500D01*
X8237332Y-75299529D01*
X8471182Y-75273181D01*
X8778718Y-75202988D01*
X9076460Y-75098804D01*
X9360665Y-74961938D01*
X9627759Y-74794112D01*
X9874383Y-74597435D01*
X10097435Y-74374383D01*
X10269945Y-74158063D01*
X10294105Y-74127768D01*
X10294105Y-74127766D01*
X10294112Y-74127759D01*
X10461938Y-73860665D01*
X10598804Y-73576460D01*
X10682356Y-73337682D01*
X10702986Y-73278724D01*
X10702986Y-73278723D01*
X10702988Y-73278718D01*
X10773181Y-72971182D01*
X10808500Y-72657722D01*
X10808500Y-72342278D01*
X10773181Y-72028818D01*
X10702988Y-71721282D01*
X10687255Y-71676320D01*
X10598810Y-71423557D01*
X10598809Y-71423556D01*
X10598804Y-71423540D01*
X10461938Y-71139335D01*
X10461937Y-71139334D01*
X10461936Y-71139331D01*
X10353661Y-70967013D01*
X10294112Y-70872241D01*
X10294109Y-70872237D01*
X10294105Y-70872231D01*
X10097436Y-70625618D01*
X10097427Y-70625608D01*
X9874391Y-70402572D01*
X9874381Y-70402563D01*
X9627768Y-70205894D01*
X9627762Y-70205890D01*
X9360668Y-70038063D01*
X9076469Y-69901200D01*
X9076464Y-69901198D01*
X9076460Y-69901196D01*
X9076454Y-69901193D01*
X9076442Y-69901189D01*
X8778724Y-69797013D01*
X8471185Y-69726819D01*
X8157724Y-69691500D01*
X8157722Y-69691500D01*
X7842278Y-69691500D01*
X7842276Y-69691500D01*
X7528814Y-69726819D01*
X7221275Y-69797013D01*
X6923557Y-69901189D01*
X6923530Y-69901200D01*
X6639331Y-70038063D01*
X6372237Y-70205890D01*
X6372231Y-70205894D01*
X6125618Y-70402563D01*
X6125608Y-70402572D01*
X5902572Y-70625608D01*
X5902563Y-70625618D01*
X5705894Y-70872231D01*
X5705890Y-70872237D01*
X5538063Y-71139331D01*
X5401200Y-71423530D01*
X5401189Y-71423557D01*
X5297013Y-71721275D01*
X5226819Y-72028814D01*
X5191500Y-72342276D01*
X5191500Y-72657723D01*
X5226819Y-72971185D01*
X5246411Y-73057022D01*
X5297012Y-73278718D01*
X5297014Y-73278724D01*
X5297013Y-73278724D01*
X5384474Y-73528673D01*
X5388093Y-73599577D01*
X5352804Y-73661183D01*
X5289811Y-73693929D01*
X5226609Y-73690121D01*
X5029827Y-73626183D01*
X5029831Y-73626183D01*
X4989063Y-73619726D01*
X4810851Y-73591500D01*
X4589149Y-73591500D01*
X4370176Y-73626182D01*
X4370170Y-73626183D01*
X4331836Y-73638639D01*
X4260868Y-73640666D01*
X4203805Y-73607901D01*
X3670405Y-73074501D01*
X3636379Y-73012189D01*
X3633500Y-72985406D01*
X3633500Y-68221328D01*
X3653502Y-68153207D01*
X3685440Y-68119391D01*
X3685795Y-68119133D01*
X3685803Y-68119129D01*
X3852430Y-67998068D01*
X3998068Y-67852430D01*
X4119129Y-67685803D01*
X4212634Y-67502290D01*
X4276280Y-67306408D01*
X4283192Y-67262762D01*
X4313604Y-67198611D01*
X4373873Y-67161084D01*
X4444862Y-67162098D01*
X4496736Y-67193380D01*
X4707189Y-67403833D01*
X4795427Y-67492071D01*
X4899185Y-67561400D01*
X5014475Y-67609155D01*
X5136866Y-67633500D01*
X11938670Y-67633500D01*
X12006791Y-67653502D01*
X12040606Y-67685439D01*
X12040873Y-67685806D01*
X12161932Y-67852430D01*
X12161934Y-67852432D01*
X12161936Y-67852435D01*
X12307564Y-67998063D01*
X12307567Y-67998065D01*
X12307570Y-67998068D01*
X12474197Y-68119129D01*
X12657710Y-68212634D01*
X12853592Y-68276280D01*
X13057019Y-68308500D01*
X13057022Y-68308500D01*
X13262978Y-68308500D01*
X13262981Y-68308500D01*
X13466408Y-68276280D01*
X13662290Y-68212634D01*
X13845803Y-68119129D01*
X14012430Y-67998068D01*
X14158068Y-67852430D01*
X14279129Y-67685803D01*
X14372634Y-67502290D01*
X14436280Y-67306408D01*
X14468500Y-67102981D01*
X14468500Y-66897019D01*
X14436280Y-66693592D01*
X14372634Y-66497710D01*
X14348697Y-66450732D01*
X14335593Y-66380957D01*
X14362293Y-66315172D01*
X14420320Y-66274265D01*
X14460964Y-66267530D01*
X33588363Y-66267530D01*
X33588364Y-66267530D01*
X33710755Y-66243185D01*
X33826045Y-66195430D01*
X33929803Y-66126101D01*
X34744340Y-65311562D01*
X34806653Y-65277538D01*
X34853147Y-65276209D01*
X34853588Y-65276278D01*
X34853592Y-65276280D01*
X35057019Y-65308500D01*
X35057022Y-65308500D01*
X35262978Y-65308500D01*
X35262981Y-65308500D01*
X35466408Y-65276280D01*
X35662290Y-65212634D01*
X35845803Y-65119129D01*
X36012430Y-64998068D01*
X36158068Y-64852430D01*
X36279129Y-64685803D01*
X36372634Y-64502290D01*
X36436280Y-64306408D01*
X36468500Y-64102981D01*
X36468500Y-63897019D01*
X36436280Y-63693592D01*
X36372634Y-63497710D01*
X36279129Y-63314197D01*
X36158068Y-63147570D01*
X36158065Y-63147567D01*
X36158063Y-63147564D01*
X36012435Y-63001936D01*
X36012432Y-63001934D01*
X36012430Y-63001932D01*
X35845803Y-62880871D01*
X35662290Y-62787366D01*
X35662287Y-62787365D01*
X35662285Y-62787364D01*
X35466412Y-62723721D01*
X35466410Y-62723720D01*
X35466408Y-62723720D01*
X35262981Y-62691500D01*
X35057019Y-62691500D01*
X34853592Y-62723720D01*
X34853590Y-62723720D01*
X34853587Y-62723721D01*
X34657714Y-62787364D01*
X34657708Y-62787367D01*
X34474193Y-62880873D01*
X34307567Y-63001934D01*
X34307564Y-63001936D01*
X34161936Y-63147564D01*
X34161934Y-63147567D01*
X34040873Y-63314193D01*
X33947367Y-63497708D01*
X33947364Y-63497714D01*
X33883721Y-63693587D01*
X33883720Y-63693590D01*
X33883720Y-63693592D01*
X33851500Y-63897019D01*
X33851500Y-64102981D01*
X33854058Y-64119129D01*
X33883790Y-64306851D01*
X33874690Y-64377263D01*
X33848437Y-64415657D01*
X33300471Y-64963625D01*
X33238158Y-64997650D01*
X33211375Y-65000530D01*
X27019804Y-65000530D01*
X26951683Y-64980528D01*
X26905190Y-64926872D01*
X26895086Y-64856598D01*
X26924580Y-64792018D01*
X26930709Y-64785435D01*
X30218135Y-61498009D01*
X33515602Y-58200541D01*
X33518051Y-58199204D01*
X33519496Y-58196809D01*
X33549032Y-58182287D01*
X33577912Y-58166517D01*
X33580701Y-58166716D01*
X33583208Y-58165484D01*
X33615888Y-58169233D01*
G37*
G04 #@! TD.AperFunction*
G04 #@! TA.AperFunction,Conductor*
G36*
X30114724Y-70778503D02*
G01*
X30161217Y-70832159D01*
X30171321Y-70902433D01*
X30141827Y-70967013D01*
X30135698Y-70973596D01*
X26364328Y-74744965D01*
X26302016Y-74778991D01*
X26231200Y-74773926D01*
X26174365Y-74731379D01*
X26149554Y-74664859D01*
X26162967Y-74598666D01*
X26212168Y-74502104D01*
X26212173Y-74502093D01*
X26275791Y-74306295D01*
X26284074Y-74254000D01*
X25311686Y-74254000D01*
X25320080Y-74245606D01*
X25372741Y-74154394D01*
X25400000Y-74052661D01*
X25400000Y-73947339D01*
X25372741Y-73845606D01*
X25320080Y-73754394D01*
X25311686Y-73746000D01*
X26284074Y-73746000D01*
X26275791Y-73693704D01*
X26212173Y-73497906D01*
X26212170Y-73497900D01*
X26118699Y-73314454D01*
X25997684Y-73147892D01*
X25997682Y-73147889D01*
X25852110Y-73002317D01*
X25852107Y-73002315D01*
X25685545Y-72881300D01*
X25502099Y-72787829D01*
X25502093Y-72787826D01*
X25392705Y-72752284D01*
X25334099Y-72712210D01*
X25306462Y-72646814D01*
X25318569Y-72576857D01*
X25342538Y-72543364D01*
X27090499Y-70795405D01*
X27152811Y-70761380D01*
X27179594Y-70758501D01*
X30046603Y-70758501D01*
X30114724Y-70778503D01*
G37*
G04 #@! TD.AperFunction*
G04 #@! TA.AperFunction,Conductor*
G36*
X2454452Y-34700616D02*
G01*
X2511288Y-34743163D01*
X2536099Y-34809683D01*
X2536420Y-34818672D01*
X2536420Y-56266000D01*
X2516418Y-56334121D01*
X2462762Y-56380614D01*
X2410420Y-56392000D01*
X2254000Y-56392000D01*
X2254000Y-59608000D01*
X2410420Y-59608000D01*
X2478541Y-59628002D01*
X2525034Y-59681658D01*
X2536420Y-59734000D01*
X2536420Y-62663236D01*
X2546105Y-62711926D01*
X2560765Y-62785625D01*
X2608520Y-62900915D01*
X2677849Y-63004673D01*
X5711039Y-66037863D01*
X5799277Y-66126101D01*
X5810604Y-66133669D01*
X5813695Y-66135735D01*
X5859223Y-66190212D01*
X5868071Y-66260655D01*
X5837429Y-66324699D01*
X5777027Y-66362011D01*
X5743693Y-66366500D01*
X5513854Y-66366500D01*
X5445733Y-66346498D01*
X5424759Y-66329595D01*
X1541625Y-62446461D01*
X1507599Y-62384149D01*
X1504720Y-62357366D01*
X1504720Y-59734000D01*
X1524722Y-59665879D01*
X1578378Y-59619386D01*
X1630720Y-59608000D01*
X1746000Y-59608000D01*
X1746000Y-57560218D01*
X1800000Y-57560218D01*
X1800000Y-58439782D01*
X1830448Y-58513291D01*
X1886709Y-58569552D01*
X1960218Y-58600000D01*
X2039782Y-58600000D01*
X2113291Y-58569552D01*
X2169552Y-58513291D01*
X2200000Y-58439782D01*
X2200000Y-57560218D01*
X2169552Y-57486709D01*
X2113291Y-57430448D01*
X2039782Y-57400000D01*
X1960218Y-57400000D01*
X1886709Y-57430448D01*
X1830448Y-57486709D01*
X1800000Y-57560218D01*
X1746000Y-57560218D01*
X1746000Y-56392000D01*
X1630720Y-56392000D01*
X1562599Y-56371998D01*
X1516106Y-56318342D01*
X1504720Y-56266000D01*
X1504720Y-35598372D01*
X1524722Y-35530251D01*
X1541625Y-35509277D01*
X2321325Y-34729577D01*
X2383637Y-34695551D01*
X2454452Y-34700616D01*
G37*
G04 #@! TD.AperFunction*
G04 #@! TA.AperFunction,Conductor*
G36*
X35158504Y-27794551D02*
G01*
X35174748Y-27796415D01*
X35190135Y-27808997D01*
X35208212Y-27817253D01*
X35217662Y-27831506D01*
X35229709Y-27841357D01*
X35245532Y-27873540D01*
X35287366Y-28002290D01*
X35380871Y-28185803D01*
X35501932Y-28352430D01*
X35501934Y-28352432D01*
X35501936Y-28352435D01*
X35647564Y-28498063D01*
X35647567Y-28498065D01*
X35647570Y-28498068D01*
X35814197Y-28619129D01*
X35850710Y-28637733D01*
X35902325Y-28686482D01*
X35919391Y-28755397D01*
X35896490Y-28822598D01*
X35850711Y-28862266D01*
X35817417Y-28879230D01*
X35814193Y-28880873D01*
X35647567Y-29001934D01*
X35647564Y-29001936D01*
X35501936Y-29147564D01*
X35501934Y-29147567D01*
X35380873Y-29314193D01*
X35287367Y-29497708D01*
X35287364Y-29497714D01*
X35223721Y-29693587D01*
X35223720Y-29693590D01*
X35223720Y-29693592D01*
X35191500Y-29897019D01*
X35191500Y-30102981D01*
X35223720Y-30306408D01*
X35223721Y-30306412D01*
X35241859Y-30362236D01*
X35287366Y-30502290D01*
X35380871Y-30685803D01*
X35501932Y-30852430D01*
X35501934Y-30852432D01*
X35501936Y-30852435D01*
X35647564Y-30998063D01*
X35647567Y-30998065D01*
X35647570Y-30998068D01*
X35814197Y-31119129D01*
X35997710Y-31212634D01*
X36193592Y-31276280D01*
X36397019Y-31308500D01*
X36397022Y-31308500D01*
X36602978Y-31308500D01*
X36602981Y-31308500D01*
X36806408Y-31276280D01*
X36806411Y-31276278D01*
X36806853Y-31276209D01*
X36877264Y-31285309D01*
X36915659Y-31311563D01*
X38338915Y-32734819D01*
X38372941Y-32797131D01*
X38375820Y-32823914D01*
X38375820Y-38695577D01*
X38355818Y-38763698D01*
X38302162Y-38810191D01*
X38231888Y-38820295D01*
X38192618Y-38807844D01*
X38061490Y-38741031D01*
X38061478Y-38741026D01*
X37858120Y-38674952D01*
X37858123Y-38674952D01*
X37818801Y-38668724D01*
X37646916Y-38641500D01*
X37433084Y-38641500D01*
X37221884Y-38674951D01*
X37221878Y-38674952D01*
X37018521Y-38741026D01*
X37018515Y-38741029D01*
X36827987Y-38838108D01*
X36654995Y-38963794D01*
X36552018Y-39066771D01*
X36489706Y-39100796D01*
X36418890Y-39095730D01*
X36362054Y-39053184D01*
X36344871Y-39021715D01*
X36300889Y-38903796D01*
X36300886Y-38903792D01*
X36300886Y-38903791D01*
X36213261Y-38786738D01*
X36096207Y-38699112D01*
X36096202Y-38699110D01*
X35959204Y-38648011D01*
X35959196Y-38648009D01*
X35898649Y-38641500D01*
X35898638Y-38641500D01*
X34101362Y-38641500D01*
X34101350Y-38641500D01*
X34040803Y-38648009D01*
X34040795Y-38648011D01*
X33903797Y-38699110D01*
X33903792Y-38699112D01*
X33786738Y-38786738D01*
X33699112Y-38903792D01*
X33699110Y-38903797D01*
X33648011Y-39040795D01*
X33648009Y-39040803D01*
X33641500Y-39101350D01*
X33641500Y-40898649D01*
X33648009Y-40959196D01*
X33648011Y-40959204D01*
X33699110Y-41096202D01*
X33699112Y-41096207D01*
X33786738Y-41213261D01*
X33903792Y-41300887D01*
X33903796Y-41300889D01*
X34022224Y-41345061D01*
X34079059Y-41387607D01*
X34103870Y-41454128D01*
X34088778Y-41523502D01*
X34067287Y-41552211D01*
X33964176Y-41655322D01*
X33838536Y-41828249D01*
X33741493Y-42018707D01*
X33741490Y-42018713D01*
X33675440Y-42221995D01*
X33665302Y-42286000D01*
X34569297Y-42286000D01*
X34534075Y-42347007D01*
X34500000Y-42474174D01*
X34500000Y-42605826D01*
X34534075Y-42732993D01*
X34569297Y-42794000D01*
X33665302Y-42794000D01*
X33675440Y-42858004D01*
X33741490Y-43061286D01*
X33741493Y-43061292D01*
X33838536Y-43251750D01*
X33964177Y-43424679D01*
X34115320Y-43575822D01*
X34288256Y-43701468D01*
X34290052Y-43702569D01*
X34290591Y-43703164D01*
X34292258Y-43704376D01*
X34292003Y-43704726D01*
X34337682Y-43755217D01*
X34349288Y-43825259D01*
X34321183Y-43890456D01*
X34292211Y-43915559D01*
X34292258Y-43915624D01*
X34291511Y-43916166D01*
X34290052Y-43917431D01*
X34288256Y-43918531D01*
X34115320Y-44044177D01*
X33964177Y-44195320D01*
X33838536Y-44368249D01*
X33741493Y-44558707D01*
X33741490Y-44558713D01*
X33675440Y-44761995D01*
X33665302Y-44826000D01*
X34569297Y-44826000D01*
X34534075Y-44887007D01*
X34500000Y-45014174D01*
X34500000Y-45145826D01*
X34534075Y-45272993D01*
X34569297Y-45334000D01*
X33665302Y-45334000D01*
X33675440Y-45398004D01*
X33741490Y-45601286D01*
X33741493Y-45601292D01*
X33838536Y-45791750D01*
X33964177Y-45964679D01*
X34115320Y-46115822D01*
X34288256Y-46241468D01*
X34290052Y-46242569D01*
X34290591Y-46243164D01*
X34292258Y-46244376D01*
X34292003Y-46244726D01*
X34337682Y-46295217D01*
X34349288Y-46365259D01*
X34321183Y-46430456D01*
X34292211Y-46455559D01*
X34292258Y-46455624D01*
X34291511Y-46456166D01*
X34290052Y-46457431D01*
X34288256Y-46458531D01*
X34115320Y-46584177D01*
X33964177Y-46735320D01*
X33838536Y-46908249D01*
X33741493Y-47098707D01*
X33741490Y-47098713D01*
X33675440Y-47301995D01*
X33665302Y-47366000D01*
X34569297Y-47366000D01*
X34534075Y-47427007D01*
X34500000Y-47554174D01*
X34500000Y-47685826D01*
X34534075Y-47812993D01*
X34569297Y-47874000D01*
X33665302Y-47874000D01*
X33675440Y-47938004D01*
X33741490Y-48141286D01*
X33741493Y-48141292D01*
X33838536Y-48331750D01*
X33964177Y-48504679D01*
X34115320Y-48655822D01*
X34288244Y-48781460D01*
X34289560Y-48782266D01*
X34289955Y-48782703D01*
X34292258Y-48784376D01*
X34291906Y-48784859D01*
X34337196Y-48834910D01*
X34348809Y-48904950D01*
X34320712Y-48970150D01*
X34291925Y-48995098D01*
X34291996Y-48995196D01*
X34290862Y-48996019D01*
X34289580Y-48997131D01*
X34287998Y-48998100D01*
X34114996Y-49123794D01*
X34114990Y-49123798D01*
X33963798Y-49274990D01*
X33963796Y-49274993D01*
X33838108Y-49447987D01*
X33741029Y-49638515D01*
X33741026Y-49638521D01*
X33674952Y-49841878D01*
X33674951Y-49841883D01*
X33674951Y-49841884D01*
X33641500Y-50053084D01*
X33641500Y-50266916D01*
X33669178Y-50441668D01*
X33674952Y-50478121D01*
X33697883Y-50548695D01*
X33741028Y-50681483D01*
X33838106Y-50872009D01*
X33963794Y-51045004D01*
X33963796Y-51045006D01*
X33963798Y-51045009D01*
X34114990Y-51196201D01*
X34114993Y-51196203D01*
X34114996Y-51196206D01*
X34287991Y-51321894D01*
X34287996Y-51321896D01*
X34289088Y-51322566D01*
X34289418Y-51322931D01*
X34291996Y-51324804D01*
X34291602Y-51325345D01*
X34336721Y-51375213D01*
X34348328Y-51445255D01*
X34320226Y-51510453D01*
X34291870Y-51535023D01*
X34291996Y-51535196D01*
X34289982Y-51536658D01*
X34289088Y-51537434D01*
X34287987Y-51538108D01*
X34114993Y-51663796D01*
X34114990Y-51663798D01*
X33963798Y-51814990D01*
X33963796Y-51814993D01*
X33838108Y-51987987D01*
X33741029Y-52178515D01*
X33741026Y-52178521D01*
X33674952Y-52381878D01*
X33674951Y-52381883D01*
X33674951Y-52381884D01*
X33641500Y-52593084D01*
X33641500Y-52806916D01*
X33657701Y-52909204D01*
X33674952Y-53018121D01*
X33738002Y-53212170D01*
X33741028Y-53221483D01*
X33838106Y-53412009D01*
X33963794Y-53585004D01*
X33963796Y-53585006D01*
X33963798Y-53585009D01*
X34114990Y-53736201D01*
X34114993Y-53736203D01*
X34114996Y-53736206D01*
X34287991Y-53861894D01*
X34287996Y-53861896D01*
X34289088Y-53862566D01*
X34289418Y-53862931D01*
X34291996Y-53864804D01*
X34291602Y-53865345D01*
X34336721Y-53915213D01*
X34348328Y-53985255D01*
X34320226Y-54050453D01*
X34291870Y-54075023D01*
X34291996Y-54075196D01*
X34289982Y-54076658D01*
X34289088Y-54077434D01*
X34287987Y-54078108D01*
X34114993Y-54203796D01*
X34114990Y-54203798D01*
X33963798Y-54354990D01*
X33963796Y-54354993D01*
X33838108Y-54527987D01*
X33741029Y-54718515D01*
X33741026Y-54718521D01*
X33674952Y-54921878D01*
X33674951Y-54921883D01*
X33674951Y-54921884D01*
X33641500Y-55133084D01*
X33641500Y-55346916D01*
X33674951Y-55558116D01*
X33674952Y-55558122D01*
X33678320Y-55568488D01*
X33680344Y-55639456D01*
X33647581Y-55696513D01*
X33207987Y-56136109D01*
X33119747Y-56224349D01*
X33119746Y-56224351D01*
X33105143Y-56246207D01*
X33050420Y-56328105D01*
X33002665Y-56443395D01*
X32992848Y-56492748D01*
X32978320Y-56565783D01*
X32978320Y-56893825D01*
X32958318Y-56961946D01*
X32941415Y-56982920D01*
X26407493Y-63516841D01*
X26345181Y-63550867D01*
X26274366Y-63545802D01*
X26217530Y-63503255D01*
X26206136Y-63484957D01*
X26119129Y-63314197D01*
X25998068Y-63147570D01*
X25998065Y-63147567D01*
X25998063Y-63147564D01*
X25852435Y-63001936D01*
X25852432Y-63001934D01*
X25852430Y-63001932D01*
X25685803Y-62880871D01*
X25502290Y-62787366D01*
X25502287Y-62787365D01*
X25502285Y-62787364D01*
X25306412Y-62723721D01*
X25306410Y-62723720D01*
X25306408Y-62723720D01*
X25102981Y-62691500D01*
X24897019Y-62691500D01*
X24829533Y-62702188D01*
X24693146Y-62723790D01*
X24622735Y-62714690D01*
X24584341Y-62688436D01*
X23565965Y-61670060D01*
X23531939Y-61607748D01*
X23529060Y-61580965D01*
X23529060Y-51897061D01*
X25192000Y-51897061D01*
X25192000Y-52102938D01*
X25224208Y-52306296D01*
X25287826Y-52502093D01*
X25287829Y-52502099D01*
X25381297Y-52685540D01*
X25381298Y-52685541D01*
X25412416Y-52728372D01*
X26100000Y-52040788D01*
X26100000Y-52052661D01*
X26127259Y-52154394D01*
X26179920Y-52245606D01*
X26254394Y-52320080D01*
X26345606Y-52372741D01*
X26447339Y-52400000D01*
X26459210Y-52400000D01*
X25771626Y-53087582D01*
X25771626Y-53087583D01*
X25814454Y-53118699D01*
X25997900Y-53212170D01*
X25997906Y-53212173D01*
X26193705Y-53275791D01*
X26193701Y-53275791D01*
X26397061Y-53308000D01*
X26602939Y-53308000D01*
X26806296Y-53275791D01*
X27002093Y-53212173D01*
X27002099Y-53212170D01*
X27185541Y-53118701D01*
X27228372Y-53087582D01*
X27228372Y-53087581D01*
X26540791Y-52400000D01*
X26552661Y-52400000D01*
X26654394Y-52372741D01*
X26745606Y-52320080D01*
X26820080Y-52245606D01*
X26872741Y-52154394D01*
X26900000Y-52052661D01*
X26900000Y-52040791D01*
X27599179Y-52739970D01*
X27625330Y-52745463D01*
X27675891Y-52795304D01*
X27690305Y-52845372D01*
X27691139Y-52845283D01*
X27698009Y-52909196D01*
X27698011Y-52909204D01*
X27749110Y-53046202D01*
X27749112Y-53046207D01*
X27836738Y-53163261D01*
X27953792Y-53250887D01*
X27953794Y-53250888D01*
X27953796Y-53250889D01*
X28012875Y-53272924D01*
X28090795Y-53301988D01*
X28090803Y-53301990D01*
X28151350Y-53308499D01*
X28151355Y-53308499D01*
X28151362Y-53308500D01*
X28151368Y-53308500D01*
X29848632Y-53308500D01*
X29848638Y-53308500D01*
X29848645Y-53308499D01*
X29848649Y-53308499D01*
X29909196Y-53301990D01*
X29909199Y-53301989D01*
X29909201Y-53301989D01*
X30046204Y-53250889D01*
X30085485Y-53221484D01*
X30163261Y-53163261D01*
X30250887Y-53046207D01*
X30250887Y-53046206D01*
X30250889Y-53046204D01*
X30301989Y-52909201D01*
X30308500Y-52848638D01*
X30308500Y-51151362D01*
X30308499Y-51151350D01*
X30301990Y-51090803D01*
X30301988Y-51090795D01*
X30272924Y-51012875D01*
X30250889Y-50953796D01*
X30250888Y-50953794D01*
X30250887Y-50953792D01*
X30163261Y-50836738D01*
X30046207Y-50749112D01*
X30046202Y-50749110D01*
X29909204Y-50698011D01*
X29909196Y-50698009D01*
X29848649Y-50691500D01*
X29848638Y-50691500D01*
X28151362Y-50691500D01*
X28151350Y-50691500D01*
X28090803Y-50698009D01*
X28090795Y-50698011D01*
X27953797Y-50749110D01*
X27953792Y-50749112D01*
X27836738Y-50836738D01*
X27749112Y-50953792D01*
X27749110Y-50953797D01*
X27698011Y-51090795D01*
X27698009Y-51090803D01*
X27691139Y-51154717D01*
X27690034Y-51154598D01*
X27667925Y-51217233D01*
X27611849Y-51260777D01*
X27596079Y-51263129D01*
X26900000Y-51959208D01*
X26900000Y-51947339D01*
X26872741Y-51845606D01*
X26820080Y-51754394D01*
X26745606Y-51679920D01*
X26654394Y-51627259D01*
X26552661Y-51600000D01*
X26540790Y-51600000D01*
X27228372Y-50912416D01*
X27185541Y-50881298D01*
X27185540Y-50881297D01*
X27002099Y-50787829D01*
X27002093Y-50787826D01*
X26806294Y-50724208D01*
X26806298Y-50724208D01*
X26602939Y-50692000D01*
X26397061Y-50692000D01*
X26193703Y-50724208D01*
X25997906Y-50787826D01*
X25997900Y-50787829D01*
X25814452Y-50881301D01*
X25771625Y-50912416D01*
X26459209Y-51600000D01*
X26447339Y-51600000D01*
X26345606Y-51627259D01*
X26254394Y-51679920D01*
X26179920Y-51754394D01*
X26127259Y-51845606D01*
X26100000Y-51947339D01*
X26100000Y-51959209D01*
X25412416Y-51271625D01*
X25381301Y-51314452D01*
X25287829Y-51497900D01*
X25287826Y-51497906D01*
X25224208Y-51693703D01*
X25192000Y-51897061D01*
X23529060Y-51897061D01*
X23529060Y-49285857D01*
X23529059Y-49285853D01*
X23504715Y-49163465D01*
X23488283Y-49123794D01*
X23456961Y-49048175D01*
X23387632Y-48944417D01*
X23387627Y-48944411D01*
X20968659Y-46525444D01*
X20968653Y-46525439D01*
X20911285Y-46487107D01*
X20911283Y-46487105D01*
X20864900Y-46456113D01*
X20864899Y-46456112D01*
X20864897Y-46456111D01*
X20749607Y-46408356D01*
X20688176Y-46396136D01*
X20645206Y-46387589D01*
X20582296Y-46354681D01*
X20547165Y-46292986D01*
X20550966Y-46222091D01*
X20592491Y-46164505D01*
X20612586Y-46151743D01*
X20744578Y-46084490D01*
X20779734Y-46058946D01*
X20120790Y-45400000D01*
X20132661Y-45400000D01*
X20234394Y-45372741D01*
X20325606Y-45320080D01*
X20400080Y-45245606D01*
X20452741Y-45154394D01*
X20480000Y-45052661D01*
X20480000Y-45040788D01*
X21138946Y-45699734D01*
X21164488Y-45664580D01*
X21255100Y-45486744D01*
X21255103Y-45486738D01*
X21316776Y-45296930D01*
X21319992Y-45276628D01*
X21319992Y-45276626D01*
X21348000Y-45099791D01*
X21348000Y-44900209D01*
X21316776Y-44703070D01*
X21255103Y-44513261D01*
X21255100Y-44513255D01*
X21164489Y-44335421D01*
X21164483Y-44335410D01*
X21138947Y-44300264D01*
X21138944Y-44300264D01*
X20480000Y-44959208D01*
X20480000Y-44947339D01*
X20452741Y-44845606D01*
X20400080Y-44754394D01*
X20325606Y-44679920D01*
X20234394Y-44627259D01*
X20132661Y-44600000D01*
X20120789Y-44600000D01*
X20770322Y-43950466D01*
X20779734Y-43941054D01*
X20779734Y-43941053D01*
X20744576Y-43915509D01*
X20566744Y-43824899D01*
X20566738Y-43824896D01*
X20376929Y-43763223D01*
X20179791Y-43732000D01*
X20008092Y-43732000D01*
X19939971Y-43711998D01*
X19893478Y-43658342D01*
X19883374Y-43588068D01*
X19912868Y-43523488D01*
X19918983Y-43516919D01*
X20538841Y-42897061D01*
X25192000Y-42897061D01*
X25192000Y-43102938D01*
X25224208Y-43306296D01*
X25287826Y-43502093D01*
X25287829Y-43502099D01*
X25381297Y-43685540D01*
X25381298Y-43685541D01*
X25412416Y-43728372D01*
X26100000Y-43040788D01*
X26100000Y-43052661D01*
X26127259Y-43154394D01*
X26179920Y-43245606D01*
X26254394Y-43320080D01*
X26345606Y-43372741D01*
X26447339Y-43400000D01*
X26459210Y-43400000D01*
X25771626Y-44087582D01*
X25771626Y-44087583D01*
X25814454Y-44118699D01*
X25997900Y-44212170D01*
X25997906Y-44212173D01*
X26193705Y-44275791D01*
X26193701Y-44275791D01*
X26397061Y-44308000D01*
X26602939Y-44308000D01*
X26806296Y-44275791D01*
X27002093Y-44212173D01*
X27002099Y-44212170D01*
X27185541Y-44118701D01*
X27228372Y-44087582D01*
X27228372Y-44087581D01*
X26540791Y-43400000D01*
X26552661Y-43400000D01*
X26654394Y-43372741D01*
X26745606Y-43320080D01*
X26820080Y-43245606D01*
X26872741Y-43154394D01*
X26900000Y-43052661D01*
X26900000Y-43040791D01*
X27599179Y-43739970D01*
X27625330Y-43745463D01*
X27675891Y-43795304D01*
X27690305Y-43845372D01*
X27691139Y-43845283D01*
X27698009Y-43909196D01*
X27698011Y-43909204D01*
X27749110Y-44046202D01*
X27749112Y-44046207D01*
X27836738Y-44163261D01*
X27953792Y-44250887D01*
X27953794Y-44250888D01*
X27953796Y-44250889D01*
X28012875Y-44272924D01*
X28090795Y-44301988D01*
X28090803Y-44301990D01*
X28151350Y-44308499D01*
X28151355Y-44308499D01*
X28151362Y-44308500D01*
X28151368Y-44308500D01*
X29848632Y-44308500D01*
X29848638Y-44308500D01*
X29848645Y-44308499D01*
X29848649Y-44308499D01*
X29909196Y-44301990D01*
X29909199Y-44301989D01*
X29909201Y-44301989D01*
X30046204Y-44250889D01*
X30097923Y-44212173D01*
X30163261Y-44163261D01*
X30250887Y-44046207D01*
X30250887Y-44046206D01*
X30250889Y-44046204D01*
X30298509Y-43918531D01*
X30301988Y-43909204D01*
X30301990Y-43909196D01*
X30308499Y-43848649D01*
X30308500Y-43848632D01*
X30308500Y-42151367D01*
X30308499Y-42151350D01*
X30301990Y-42090803D01*
X30301988Y-42090795D01*
X30250889Y-41953797D01*
X30250887Y-41953792D01*
X30163261Y-41836738D01*
X30046207Y-41749112D01*
X30046202Y-41749110D01*
X29909204Y-41698011D01*
X29909196Y-41698009D01*
X29848649Y-41691500D01*
X29848638Y-41691500D01*
X28151362Y-41691500D01*
X28151350Y-41691500D01*
X28090803Y-41698009D01*
X28090795Y-41698011D01*
X27953797Y-41749110D01*
X27953792Y-41749112D01*
X27836738Y-41836738D01*
X27749112Y-41953792D01*
X27749110Y-41953797D01*
X27698011Y-42090795D01*
X27698009Y-42090803D01*
X27691139Y-42154717D01*
X27690034Y-42154598D01*
X27667925Y-42217233D01*
X27611849Y-42260777D01*
X27596079Y-42263129D01*
X26900000Y-42959208D01*
X26900000Y-42947339D01*
X26872741Y-42845606D01*
X26820080Y-42754394D01*
X26745606Y-42679920D01*
X26654394Y-42627259D01*
X26552661Y-42600000D01*
X26540790Y-42600000D01*
X27228372Y-41912416D01*
X27185541Y-41881298D01*
X27185540Y-41881297D01*
X27002099Y-41787829D01*
X27002093Y-41787826D01*
X26806294Y-41724208D01*
X26806298Y-41724208D01*
X26602939Y-41692000D01*
X26397061Y-41692000D01*
X26193703Y-41724208D01*
X25997906Y-41787826D01*
X25997900Y-41787829D01*
X25814452Y-41881301D01*
X25771625Y-41912416D01*
X26459209Y-42600000D01*
X26447339Y-42600000D01*
X26345606Y-42627259D01*
X26254394Y-42679920D01*
X26179920Y-42754394D01*
X26127259Y-42845606D01*
X26100000Y-42947339D01*
X26100000Y-42959209D01*
X25412416Y-42271625D01*
X25381301Y-42314452D01*
X25287829Y-42497900D01*
X25287826Y-42497906D01*
X25224208Y-42693703D01*
X25192000Y-42897061D01*
X20538841Y-42897061D01*
X27038883Y-36397019D01*
X31851500Y-36397019D01*
X31851500Y-36602981D01*
X31880981Y-36789112D01*
X31883721Y-36806412D01*
X31944604Y-36993792D01*
X31947366Y-37002290D01*
X32040871Y-37185803D01*
X32161932Y-37352430D01*
X32161934Y-37352432D01*
X32161936Y-37352435D01*
X32307564Y-37498063D01*
X32307567Y-37498065D01*
X32307570Y-37498068D01*
X32474197Y-37619129D01*
X32657710Y-37712634D01*
X32853592Y-37776280D01*
X33057019Y-37808500D01*
X33057022Y-37808500D01*
X33262978Y-37808500D01*
X33262981Y-37808500D01*
X33466408Y-37776280D01*
X33662290Y-37712634D01*
X33845803Y-37619129D01*
X34012430Y-37498068D01*
X34158068Y-37352430D01*
X34279129Y-37185803D01*
X34372634Y-37002290D01*
X34436280Y-36806408D01*
X34468500Y-36602981D01*
X34468500Y-36397019D01*
X34436280Y-36193592D01*
X34372634Y-35997710D01*
X34279129Y-35814197D01*
X34158068Y-35647570D01*
X34158065Y-35647567D01*
X34158063Y-35647564D01*
X34012435Y-35501936D01*
X34012432Y-35501934D01*
X34012430Y-35501932D01*
X33845803Y-35380871D01*
X33662290Y-35287366D01*
X33662287Y-35287365D01*
X33662285Y-35287364D01*
X33466412Y-35223721D01*
X33466410Y-35223720D01*
X33466408Y-35223720D01*
X33262981Y-35191500D01*
X33057019Y-35191500D01*
X32853592Y-35223720D01*
X32853590Y-35223720D01*
X32853587Y-35223721D01*
X32657714Y-35287364D01*
X32657708Y-35287367D01*
X32474193Y-35380873D01*
X32307567Y-35501934D01*
X32307564Y-35501936D01*
X32161936Y-35647564D01*
X32161934Y-35647567D01*
X32040873Y-35814193D01*
X31947367Y-35997708D01*
X31947364Y-35997714D01*
X31883721Y-36193587D01*
X31883720Y-36193590D01*
X31883720Y-36193592D01*
X31851500Y-36397019D01*
X27038883Y-36397019D01*
X31636703Y-31799199D01*
X31699013Y-31765175D01*
X31769828Y-31770240D01*
X31826664Y-31812787D01*
X31851475Y-31879307D01*
X31851431Y-31892068D01*
X31851500Y-31892068D01*
X31851500Y-31897019D01*
X31851500Y-32102981D01*
X31883720Y-32306408D01*
X31947366Y-32502290D01*
X32040871Y-32685803D01*
X32161932Y-32852430D01*
X32161934Y-32852432D01*
X32161936Y-32852435D01*
X32307564Y-32998063D01*
X32307567Y-32998065D01*
X32307570Y-32998068D01*
X32474197Y-33119129D01*
X32657710Y-33212634D01*
X32853592Y-33276280D01*
X33057019Y-33308500D01*
X33057022Y-33308500D01*
X33262978Y-33308500D01*
X33262981Y-33308500D01*
X33466408Y-33276280D01*
X33662290Y-33212634D01*
X33845803Y-33119129D01*
X34012430Y-32998068D01*
X34158068Y-32852430D01*
X34279129Y-32685803D01*
X34372634Y-32502290D01*
X34436280Y-32306408D01*
X34468500Y-32102981D01*
X34468500Y-31897019D01*
X34436280Y-31693592D01*
X34372634Y-31497710D01*
X34279129Y-31314197D01*
X34158068Y-31147570D01*
X34158065Y-31147567D01*
X34158063Y-31147564D01*
X34012435Y-31001936D01*
X34012432Y-31001934D01*
X34012430Y-31001932D01*
X33959649Y-30963584D01*
X33845806Y-30880872D01*
X33754275Y-30834235D01*
X33702660Y-30785486D01*
X33685594Y-30716571D01*
X33708495Y-30649370D01*
X33749393Y-30613226D01*
X33749268Y-30613039D01*
X33750649Y-30612116D01*
X33752092Y-30610841D01*
X33754407Y-30609603D01*
X33754415Y-30609600D01*
X33858173Y-30540271D01*
X34858272Y-29540173D01*
X34927601Y-29436415D01*
X34975355Y-29321125D01*
X34999700Y-29198734D01*
X34999700Y-29073946D01*
X34999700Y-27912477D01*
X35004306Y-27896790D01*
X35003839Y-27880446D01*
X35014102Y-27863425D01*
X35019702Y-27844356D01*
X35032059Y-27833648D01*
X35040502Y-27819648D01*
X35058336Y-27810879D01*
X35073358Y-27797863D01*
X35089541Y-27795536D01*
X35104214Y-27788322D01*
X35123959Y-27790587D01*
X35143632Y-27787759D01*
X35158504Y-27794551D01*
G37*
G04 #@! TD.AperFunction*
G04 #@! TA.AperFunction,Conductor*
G36*
X37074075Y-47427007D02*
G01*
X37040000Y-47554174D01*
X37040000Y-47685826D01*
X37074075Y-47812993D01*
X37109297Y-47874000D01*
X35430703Y-47874000D01*
X35465925Y-47812993D01*
X35500000Y-47685826D01*
X35500000Y-47554174D01*
X35465925Y-47427007D01*
X35430703Y-47366000D01*
X37109297Y-47366000D01*
X37074075Y-47427007D01*
G37*
G04 #@! TD.AperFunction*
G04 #@! TA.AperFunction,Conductor*
G36*
X35254000Y-47189297D02*
G01*
X35192993Y-47154075D01*
X35065826Y-47120000D01*
X34934174Y-47120000D01*
X34807007Y-47154075D01*
X34746000Y-47189297D01*
X34746000Y-45510702D01*
X34807007Y-45545925D01*
X34934174Y-45580000D01*
X35065826Y-45580000D01*
X35192993Y-45545925D01*
X35254000Y-45510702D01*
X35254000Y-47189297D01*
G37*
G04 #@! TD.AperFunction*
G04 #@! TA.AperFunction,Conductor*
G36*
X37794000Y-47189297D02*
G01*
X37732993Y-47154075D01*
X37605826Y-47120000D01*
X37474174Y-47120000D01*
X37347007Y-47154075D01*
X37286000Y-47189297D01*
X37286000Y-45510702D01*
X37347007Y-45545925D01*
X37474174Y-45580000D01*
X37605826Y-45580000D01*
X37732993Y-45545925D01*
X37794000Y-45510702D01*
X37794000Y-47189297D01*
G37*
G04 #@! TD.AperFunction*
G04 #@! TA.AperFunction,Conductor*
G36*
X37074075Y-44887007D02*
G01*
X37040000Y-45014174D01*
X37040000Y-45145826D01*
X37074075Y-45272993D01*
X37109297Y-45334000D01*
X35430703Y-45334000D01*
X35465925Y-45272993D01*
X35500000Y-45145826D01*
X35500000Y-45014174D01*
X35465925Y-44887007D01*
X35430703Y-44826000D01*
X37109297Y-44826000D01*
X37074075Y-44887007D01*
G37*
G04 #@! TD.AperFunction*
G04 #@! TA.AperFunction,Conductor*
G36*
X7297327Y-43157862D02*
G01*
X7318301Y-43174765D01*
X8679151Y-44535615D01*
X8713177Y-44597927D01*
X8708112Y-44668742D01*
X8665565Y-44725578D01*
X8599045Y-44750389D01*
X8562019Y-44747551D01*
X8471187Y-44726819D01*
X8157724Y-44691500D01*
X8157722Y-44691500D01*
X7842278Y-44691500D01*
X7842276Y-44691500D01*
X7528814Y-44726819D01*
X7221275Y-44797013D01*
X6923557Y-44901189D01*
X6923530Y-44901200D01*
X6639331Y-45038063D01*
X6372237Y-45205890D01*
X6372233Y-45205893D01*
X6306351Y-45258432D01*
X6240621Y-45285266D01*
X6170817Y-45272304D01*
X6119103Y-45223661D01*
X6101897Y-45154781D01*
X6103343Y-45140209D01*
X6108000Y-45110807D01*
X6108000Y-44889191D01*
X6073329Y-44670289D01*
X6004844Y-44459516D01*
X6004843Y-44459514D01*
X5904229Y-44262047D01*
X5859174Y-44200035D01*
X5184157Y-44875051D01*
X5165925Y-44807007D01*
X5100099Y-44692993D01*
X5007007Y-44599901D01*
X4892993Y-44534075D01*
X4824946Y-44515841D01*
X5499963Y-43840824D01*
X5499177Y-43830839D01*
X5472328Y-43796019D01*
X5466254Y-43725283D01*
X5499387Y-43662492D01*
X5515676Y-43648377D01*
X5617576Y-43574343D01*
X5774343Y-43417576D01*
X5904657Y-43238215D01*
X5920737Y-43206655D01*
X5969484Y-43155042D01*
X6033003Y-43137860D01*
X7229206Y-43137860D01*
X7297327Y-43157862D01*
G37*
G04 #@! TD.AperFunction*
G04 #@! TA.AperFunction,Conductor*
G36*
X35254000Y-44649297D02*
G01*
X35192993Y-44614075D01*
X35065826Y-44580000D01*
X34934174Y-44580000D01*
X34807007Y-44614075D01*
X34746000Y-44649297D01*
X34746000Y-42970702D01*
X34807007Y-43005925D01*
X34934174Y-43040000D01*
X35065826Y-43040000D01*
X35192993Y-43005925D01*
X35254000Y-42970702D01*
X35254000Y-44649297D01*
G37*
G04 #@! TD.AperFunction*
G04 #@! TA.AperFunction,Conductor*
G36*
X37794000Y-44649297D02*
G01*
X37732993Y-44614075D01*
X37605826Y-44580000D01*
X37474174Y-44580000D01*
X37347007Y-44614075D01*
X37286000Y-44649297D01*
X37286000Y-42970702D01*
X37347007Y-43005925D01*
X37474174Y-43040000D01*
X37605826Y-43040000D01*
X37732993Y-43005925D01*
X37794000Y-42970702D01*
X37794000Y-44649297D01*
G37*
G04 #@! TD.AperFunction*
G04 #@! TA.AperFunction,Conductor*
G36*
X37074075Y-42347007D02*
G01*
X37040000Y-42474174D01*
X37040000Y-42605826D01*
X37074075Y-42732993D01*
X37109297Y-42794000D01*
X35430703Y-42794000D01*
X35465925Y-42732993D01*
X35500000Y-42605826D01*
X35500000Y-42474174D01*
X35465925Y-42347007D01*
X35430703Y-42286000D01*
X37109297Y-42286000D01*
X37074075Y-42347007D01*
G37*
G04 #@! TD.AperFunction*
G04 #@! TA.AperFunction,Conductor*
G36*
X39070751Y-45502D02*
G01*
X39117244Y-99158D01*
X39128630Y-151561D01*
X39124667Y-8360367D01*
X39104632Y-8428478D01*
X39050954Y-8474945D01*
X38980675Y-8485015D01*
X38916109Y-8455491D01*
X38893901Y-8430306D01*
X38889254Y-8423352D01*
X38889251Y-8423347D01*
X38801013Y-8335109D01*
X38174492Y-7708588D01*
X38140466Y-7646276D01*
X38145531Y-7575461D01*
X38162719Y-7543983D01*
X38163257Y-7543263D01*
X38163261Y-7543261D01*
X38250889Y-7426204D01*
X38301989Y-7289201D01*
X38305774Y-7254000D01*
X38308499Y-7228649D01*
X38308500Y-7228632D01*
X38308500Y-5531367D01*
X38308499Y-5531350D01*
X38301990Y-5470803D01*
X38301988Y-5470795D01*
X38261879Y-5363261D01*
X38250889Y-5333796D01*
X38250888Y-5333794D01*
X38250887Y-5333792D01*
X38163261Y-5216738D01*
X38046207Y-5129112D01*
X38046202Y-5129110D01*
X37909204Y-5078011D01*
X37909196Y-5078009D01*
X37848649Y-5071500D01*
X37848638Y-5071500D01*
X37759500Y-5071500D01*
X37691379Y-5051498D01*
X37644886Y-4997842D01*
X37633500Y-4945500D01*
X37633500Y-4379887D01*
X37633499Y-4379883D01*
X37609155Y-4257495D01*
X37561400Y-4142205D01*
X37492071Y-4038447D01*
X37403833Y-3950209D01*
X35077373Y-1623749D01*
X34973615Y-1554420D01*
X34858325Y-1506665D01*
X34784626Y-1492005D01*
X34735936Y-1482320D01*
X34735934Y-1482320D01*
X32674150Y-1482320D01*
X32606029Y-1462318D01*
X32572214Y-1430381D01*
X32511269Y-1346498D01*
X32450888Y-1263390D01*
X32450885Y-1263387D01*
X32450883Y-1263384D01*
X32305255Y-1117756D01*
X32305252Y-1117754D01*
X32305250Y-1117752D01*
X32145842Y-1001936D01*
X32138626Y-996693D01*
X32138625Y-996692D01*
X32138623Y-996691D01*
X31955110Y-903186D01*
X31955107Y-903185D01*
X31955105Y-903184D01*
X31759232Y-839541D01*
X31759230Y-839540D01*
X31759228Y-839540D01*
X31555801Y-807320D01*
X31349839Y-807320D01*
X31146412Y-839540D01*
X31146410Y-839540D01*
X31146407Y-839541D01*
X30950534Y-903184D01*
X30950528Y-903187D01*
X30767013Y-996693D01*
X30600387Y-1117754D01*
X30600384Y-1117756D01*
X30454756Y-1263384D01*
X30454754Y-1263387D01*
X30333693Y-1430013D01*
X30315087Y-1466530D01*
X30266338Y-1518145D01*
X30197423Y-1535211D01*
X30130222Y-1512310D01*
X30090553Y-1466530D01*
X30072134Y-1430381D01*
X30071949Y-1430017D01*
X29950888Y-1263390D01*
X29950885Y-1263387D01*
X29950883Y-1263384D01*
X29805255Y-1117756D01*
X29805252Y-1117754D01*
X29805250Y-1117752D01*
X29645842Y-1001936D01*
X29638626Y-996693D01*
X29638625Y-996692D01*
X29638623Y-996691D01*
X29455110Y-903186D01*
X29455107Y-903185D01*
X29455105Y-903184D01*
X29259232Y-839541D01*
X29259230Y-839540D01*
X29259228Y-839540D01*
X29055801Y-807320D01*
X28849839Y-807320D01*
X28646412Y-839540D01*
X28646410Y-839540D01*
X28646407Y-839541D01*
X28450534Y-903184D01*
X28450528Y-903187D01*
X28267013Y-996693D01*
X28100387Y-1117754D01*
X28100384Y-1117756D01*
X27954752Y-1263388D01*
X27917575Y-1314560D01*
X27861353Y-1357914D01*
X27815638Y-1366500D01*
X22221330Y-1366500D01*
X22153209Y-1346498D01*
X22119394Y-1314561D01*
X22071241Y-1248285D01*
X21998068Y-1147570D01*
X21998065Y-1147567D01*
X21998063Y-1147564D01*
X21852435Y-1001936D01*
X21852432Y-1001934D01*
X21852430Y-1001932D01*
X21726999Y-910802D01*
X21685806Y-880873D01*
X21685805Y-880872D01*
X21685803Y-880871D01*
X21502290Y-787366D01*
X21502287Y-787365D01*
X21502285Y-787364D01*
X21306412Y-723721D01*
X21306410Y-723720D01*
X21306408Y-723720D01*
X21102981Y-691500D01*
X20897019Y-691500D01*
X20693592Y-723720D01*
X20693590Y-723720D01*
X20693587Y-723721D01*
X20497714Y-787364D01*
X20497708Y-787367D01*
X20314193Y-880873D01*
X20147567Y-1001934D01*
X20147564Y-1001936D01*
X20001936Y-1147564D01*
X20001934Y-1147567D01*
X19880873Y-1314193D01*
X19787367Y-1497708D01*
X19787364Y-1497714D01*
X19723721Y-1693587D01*
X19723720Y-1693590D01*
X19723720Y-1693592D01*
X19691500Y-1897019D01*
X19691500Y-2102981D01*
X19705851Y-2193587D01*
X19723721Y-2306412D01*
X19757119Y-2409201D01*
X19787366Y-2502290D01*
X19880686Y-2685439D01*
X19880873Y-2685806D01*
X19900990Y-2713494D01*
X20001932Y-2852430D01*
X20001934Y-2852432D01*
X20001936Y-2852435D01*
X20147564Y-2998063D01*
X20147567Y-2998065D01*
X20147570Y-2998068D01*
X20314197Y-3119129D01*
X20314204Y-3119133D01*
X20314560Y-3119391D01*
X20357915Y-3175613D01*
X20366500Y-3221328D01*
X20366500Y-5330006D01*
X20346498Y-5398127D01*
X20329595Y-5419101D01*
X17489135Y-8259560D01*
X17426823Y-8293586D01*
X17356007Y-8288521D01*
X17299172Y-8245974D01*
X17274361Y-8179454D01*
X17275591Y-8150754D01*
X17276278Y-8146411D01*
X17276280Y-8146408D01*
X17308500Y-7942981D01*
X17308500Y-7737019D01*
X17276280Y-7533592D01*
X17276277Y-7533585D01*
X17275527Y-7528845D01*
X17284626Y-7458434D01*
X17295207Y-7439138D01*
X17361399Y-7340076D01*
X17409154Y-7224786D01*
X17433499Y-7102395D01*
X17433499Y-5737605D01*
X17409154Y-5615214D01*
X17361399Y-5499924D01*
X17295210Y-5400866D01*
X17273996Y-5333114D01*
X17275527Y-5311154D01*
X17276277Y-5306415D01*
X17276280Y-5306408D01*
X17308500Y-5102981D01*
X17308500Y-4897019D01*
X17276280Y-4693592D01*
X17212634Y-4497710D01*
X17119129Y-4314197D01*
X16998068Y-4147570D01*
X16998065Y-4147567D01*
X16998063Y-4147564D01*
X16852435Y-4001936D01*
X16852432Y-4001934D01*
X16852430Y-4001932D01*
X16685803Y-3880871D01*
X16649289Y-3862266D01*
X16597674Y-3813519D01*
X16580608Y-3744605D01*
X16603508Y-3677403D01*
X16649288Y-3637733D01*
X16685803Y-3619129D01*
X16852430Y-3498068D01*
X16998068Y-3352430D01*
X17119129Y-3185803D01*
X17212634Y-3002290D01*
X17276280Y-2806408D01*
X17308500Y-2602981D01*
X17308500Y-2397019D01*
X17276280Y-2193592D01*
X17212634Y-1997710D01*
X17119129Y-1814197D01*
X16998068Y-1647570D01*
X16998065Y-1647567D01*
X16998063Y-1647564D01*
X16852435Y-1501936D01*
X16852432Y-1501934D01*
X16852430Y-1501932D01*
X16685803Y-1380871D01*
X16502290Y-1287366D01*
X16502287Y-1287365D01*
X16502285Y-1287364D01*
X16306412Y-1223721D01*
X16306410Y-1223720D01*
X16306408Y-1223720D01*
X16102981Y-1191500D01*
X15897019Y-1191500D01*
X15693592Y-1223720D01*
X15693590Y-1223720D01*
X15693587Y-1223721D01*
X15497714Y-1287364D01*
X15497708Y-1287367D01*
X15314193Y-1380873D01*
X15147567Y-1501934D01*
X15147564Y-1501936D01*
X15001936Y-1647564D01*
X15001934Y-1647567D01*
X14880873Y-1814193D01*
X14787367Y-1997708D01*
X14787364Y-1997714D01*
X14723721Y-2193587D01*
X14723720Y-2193590D01*
X14723720Y-2193592D01*
X14691500Y-2397019D01*
X14691500Y-2602981D01*
X14696334Y-2633500D01*
X14723790Y-2806853D01*
X14714690Y-2877264D01*
X14688436Y-2915658D01*
X6999993Y-10604101D01*
X6937681Y-10638127D01*
X6866866Y-10633062D01*
X6835389Y-10615874D01*
X6746207Y-10549112D01*
X6746202Y-10549110D01*
X6609204Y-10498011D01*
X6609196Y-10498009D01*
X6548649Y-10491500D01*
X6548638Y-10491500D01*
X4251362Y-10491500D01*
X4251350Y-10491500D01*
X4190803Y-10498009D01*
X4190795Y-10498011D01*
X4053797Y-10549110D01*
X4053792Y-10549112D01*
X3936738Y-10636738D01*
X3849112Y-10753792D01*
X3849110Y-10753797D01*
X3798011Y-10890795D01*
X3798009Y-10890803D01*
X3791500Y-10951350D01*
X3791500Y-12048649D01*
X3798009Y-12109196D01*
X3798011Y-12109204D01*
X3849110Y-12246202D01*
X3849112Y-12246207D01*
X3936738Y-12363261D01*
X4053792Y-12450887D01*
X4053794Y-12450888D01*
X4053796Y-12450889D01*
X4095101Y-12466295D01*
X4190795Y-12501988D01*
X4190803Y-12501990D01*
X4251350Y-12508499D01*
X4251355Y-12508499D01*
X4251362Y-12508500D01*
X4251368Y-12508500D01*
X6548632Y-12508500D01*
X6548638Y-12508500D01*
X6548645Y-12508499D01*
X6548649Y-12508499D01*
X6609196Y-12501990D01*
X6609199Y-12501989D01*
X6609201Y-12501989D01*
X6746204Y-12450889D01*
X6863261Y-12363261D01*
X6950887Y-12246207D01*
X6950887Y-12246206D01*
X6950889Y-12246204D01*
X6962805Y-12214256D01*
X7005349Y-12157423D01*
X7056913Y-12137682D01*
X7056322Y-12134708D01*
X7071099Y-12131768D01*
X7184785Y-12109155D01*
X7300075Y-12061400D01*
X7403833Y-11992071D01*
X14476405Y-4919497D01*
X14538717Y-4885472D01*
X14609532Y-4890537D01*
X14666368Y-4933084D01*
X14691179Y-4999604D01*
X14691500Y-5008593D01*
X14691500Y-5102981D01*
X14714185Y-5246204D01*
X14723721Y-5306412D01*
X14787268Y-5501990D01*
X14787366Y-5502290D01*
X14874267Y-5672842D01*
X14880873Y-5685806D01*
X14910802Y-5726999D01*
X15001932Y-5852430D01*
X15001934Y-5852432D01*
X15001936Y-5852435D01*
X15147564Y-5998063D01*
X15147567Y-5998065D01*
X15147570Y-5998068D01*
X15314197Y-6119129D01*
X15497710Y-6212634D01*
X15693592Y-6276280D01*
X15815267Y-6295551D01*
X15879419Y-6325964D01*
X15916946Y-6386232D01*
X15915932Y-6457221D01*
X15876699Y-6516393D01*
X15815267Y-6544448D01*
X15693592Y-6563720D01*
X15693590Y-6563720D01*
X15693587Y-6563721D01*
X15497714Y-6627364D01*
X15497708Y-6627367D01*
X15314193Y-6720873D01*
X15147567Y-6841934D01*
X15147564Y-6841936D01*
X15001936Y-6987564D01*
X15001934Y-6987567D01*
X14880873Y-7154193D01*
X14787367Y-7337708D01*
X14787364Y-7337714D01*
X14723721Y-7533587D01*
X14723720Y-7533590D01*
X14723720Y-7533592D01*
X14691500Y-7737019D01*
X14691500Y-7942981D01*
X14723720Y-8146408D01*
X14723721Y-8146412D01*
X14785032Y-8335109D01*
X14787366Y-8342290D01*
X14880871Y-8525803D01*
X14880873Y-8525806D01*
X14910802Y-8566999D01*
X15001932Y-8692430D01*
X15001934Y-8692432D01*
X15001936Y-8692435D01*
X15147564Y-8838063D01*
X15147567Y-8838065D01*
X15147570Y-8838068D01*
X15314197Y-8959129D01*
X15497710Y-9052634D01*
X15693592Y-9116280D01*
X15897019Y-9148500D01*
X15897022Y-9148500D01*
X16102978Y-9148500D01*
X16102981Y-9148500D01*
X16306408Y-9116280D01*
X16306411Y-9116278D01*
X16310754Y-9115591D01*
X16381165Y-9124691D01*
X16435479Y-9170412D01*
X16456452Y-9238241D01*
X16437425Y-9306640D01*
X16419560Y-9329135D01*
X14223595Y-11525101D01*
X14161283Y-11559126D01*
X14090468Y-11554062D01*
X14033632Y-11511515D01*
X14008821Y-11444995D01*
X14008500Y-11436006D01*
X14008500Y-9851367D01*
X14008499Y-9851350D01*
X14001990Y-9790803D01*
X14001988Y-9790795D01*
X13950889Y-9653797D01*
X13950887Y-9653792D01*
X13863261Y-9536738D01*
X13746207Y-9449112D01*
X13746202Y-9449110D01*
X13609204Y-9398011D01*
X13609196Y-9398009D01*
X13548649Y-9391500D01*
X13548638Y-9391500D01*
X12451362Y-9391500D01*
X12451350Y-9391500D01*
X12390803Y-9398009D01*
X12390795Y-9398011D01*
X12253797Y-9449110D01*
X12253792Y-9449112D01*
X12136738Y-9536738D01*
X12049112Y-9653792D01*
X12049110Y-9653797D01*
X11998011Y-9790795D01*
X11998009Y-9790803D01*
X11991500Y-9851350D01*
X11991500Y-12148649D01*
X11998009Y-12209196D01*
X11998011Y-12209204D01*
X12049110Y-12346202D01*
X12049112Y-12346207D01*
X12136738Y-12463261D01*
X12253792Y-12550887D01*
X12253794Y-12550888D01*
X12253796Y-12550889D01*
X12312875Y-12572924D01*
X12390795Y-12601988D01*
X12390803Y-12601990D01*
X12451350Y-12608499D01*
X12451355Y-12608499D01*
X12451362Y-12608500D01*
X12836006Y-12608500D01*
X12904127Y-12628502D01*
X12950620Y-12682158D01*
X12960724Y-12752432D01*
X12931230Y-12817012D01*
X12925101Y-12823595D01*
X10465491Y-15283204D01*
X10465486Y-15283211D01*
X10396161Y-15386963D01*
X10348406Y-15502252D01*
X10324060Y-15624643D01*
X10324060Y-15624646D01*
X10324060Y-21915166D01*
X10324060Y-22039954D01*
X10348405Y-22162345D01*
X10396160Y-22277635D01*
X10465489Y-22381393D01*
X10465491Y-22381395D01*
X11087581Y-23003485D01*
X11121607Y-23065797D01*
X11118321Y-23131510D01*
X11114952Y-23141879D01*
X11114951Y-23141882D01*
X11114951Y-23141884D01*
X11081500Y-23353084D01*
X11081500Y-23566916D01*
X11113047Y-23766093D01*
X11114952Y-23778121D01*
X11181026Y-23981478D01*
X11181029Y-23981485D01*
X11187331Y-23993853D01*
X11200434Y-24063630D01*
X11173733Y-24129414D01*
X11132426Y-24160602D01*
X11133484Y-24162581D01*
X11128023Y-24165499D01*
X11024269Y-24234826D01*
X11024262Y-24234831D01*
X379151Y-34879942D01*
X379146Y-34879949D01*
X309819Y-34983703D01*
X309817Y-34983707D01*
X267908Y-35084884D01*
X223360Y-35140165D01*
X155996Y-35162585D01*
X87205Y-35145026D01*
X38827Y-35093064D01*
X25500Y-35036665D01*
X25500Y-8148597D01*
X992000Y-8148597D01*
X998505Y-8209093D01*
X1049555Y-8345964D01*
X1049555Y-8345965D01*
X1137095Y-8462904D01*
X1254034Y-8550444D01*
X1390906Y-8601494D01*
X1451402Y-8607999D01*
X1451415Y-8608000D01*
X1746000Y-8608000D01*
X2254000Y-8608000D01*
X2548585Y-8608000D01*
X2548597Y-8607999D01*
X2609093Y-8601494D01*
X2745964Y-8550444D01*
X2745965Y-8550444D01*
X2862904Y-8462904D01*
X2950444Y-8345965D01*
X2950444Y-8345964D01*
X3001494Y-8209093D01*
X3007999Y-8148597D01*
X3008000Y-8148585D01*
X3008000Y-7254000D01*
X2254000Y-7254000D01*
X2254000Y-8608000D01*
X1746000Y-8608000D01*
X1746000Y-7254000D01*
X992000Y-7254000D01*
X992000Y-8148597D01*
X25500Y-8148597D01*
X25500Y-5851402D01*
X992000Y-5851402D01*
X992000Y-6746000D01*
X1746000Y-6746000D01*
X1746000Y-6560218D01*
X1800000Y-6560218D01*
X1800000Y-7439782D01*
X1830448Y-7513291D01*
X1886709Y-7569552D01*
X1960218Y-7600000D01*
X2039782Y-7600000D01*
X2113291Y-7569552D01*
X2169552Y-7513291D01*
X2200000Y-7439782D01*
X2200000Y-6746000D01*
X2254000Y-6746000D01*
X3008000Y-6746000D01*
X3008000Y-5851414D01*
X3007999Y-5851402D01*
X3001494Y-5790906D01*
X2950444Y-5654035D01*
X2950444Y-5654034D01*
X2862904Y-5537095D01*
X2745965Y-5449555D01*
X2609093Y-5398505D01*
X2548597Y-5392000D01*
X2254000Y-5392000D01*
X2254000Y-6746000D01*
X2200000Y-6746000D01*
X2200000Y-6560218D01*
X2169552Y-6486709D01*
X2113291Y-6430448D01*
X2039782Y-6400000D01*
X1960218Y-6400000D01*
X1886709Y-6430448D01*
X1830448Y-6486709D01*
X1800000Y-6560218D01*
X1746000Y-6560218D01*
X1746000Y-5392000D01*
X1451402Y-5392000D01*
X1390906Y-5398505D01*
X1254035Y-5449555D01*
X1254034Y-5449555D01*
X1137095Y-5537095D01*
X1049555Y-5654034D01*
X1049555Y-5654035D01*
X998505Y-5790906D01*
X992000Y-5851402D01*
X25500Y-5851402D01*
X25500Y-3951350D01*
X6791500Y-3951350D01*
X6791500Y-5048649D01*
X6798009Y-5109196D01*
X6798011Y-5109204D01*
X6849110Y-5246202D01*
X6849112Y-5246207D01*
X6936738Y-5363261D01*
X7053792Y-5450887D01*
X7053794Y-5450888D01*
X7053796Y-5450889D01*
X7107166Y-5470795D01*
X7190795Y-5501988D01*
X7190803Y-5501990D01*
X7251350Y-5508499D01*
X7251355Y-5508499D01*
X7251362Y-5508500D01*
X7251368Y-5508500D01*
X9548632Y-5508500D01*
X9548638Y-5508500D01*
X9548645Y-5508499D01*
X9548649Y-5508499D01*
X9609196Y-5501990D01*
X9609199Y-5501989D01*
X9609201Y-5501989D01*
X9614738Y-5499924D01*
X9628045Y-5494960D01*
X9746204Y-5450889D01*
X9813026Y-5400867D01*
X9863261Y-5363261D01*
X9950887Y-5246207D01*
X9950887Y-5246206D01*
X9950889Y-5246204D01*
X10001989Y-5109201D01*
X10002579Y-5103721D01*
X10008499Y-5048649D01*
X10008500Y-5048632D01*
X10008500Y-3951367D01*
X10008499Y-3951350D01*
X10001990Y-3890803D01*
X10001988Y-3890795D01*
X9950889Y-3753797D01*
X9950887Y-3753792D01*
X9863261Y-3636738D01*
X9746207Y-3549112D01*
X9746202Y-3549110D01*
X9609204Y-3498011D01*
X9609196Y-3498009D01*
X9548649Y-3491500D01*
X9548638Y-3491500D01*
X7251362Y-3491500D01*
X7251350Y-3491500D01*
X7190803Y-3498009D01*
X7190795Y-3498011D01*
X7053797Y-3549110D01*
X7053792Y-3549112D01*
X6936738Y-3636738D01*
X6849112Y-3753792D01*
X6849110Y-3753797D01*
X6798011Y-3890795D01*
X6798009Y-3890803D01*
X6791500Y-3951350D01*
X25500Y-3951350D01*
X25500Y-1251350D01*
X8191500Y-1251350D01*
X8191500Y-2348649D01*
X8198009Y-2409196D01*
X8198011Y-2409204D01*
X8249110Y-2546202D01*
X8249112Y-2546207D01*
X8336738Y-2663261D01*
X8453792Y-2750887D01*
X8453794Y-2750888D01*
X8453796Y-2750889D01*
X8491924Y-2765110D01*
X8590795Y-2801988D01*
X8590803Y-2801990D01*
X8651350Y-2808499D01*
X8651355Y-2808499D01*
X8651362Y-2808500D01*
X8651368Y-2808500D01*
X10948632Y-2808500D01*
X10948638Y-2808500D01*
X10948645Y-2808499D01*
X10948649Y-2808499D01*
X11009196Y-2801990D01*
X11009199Y-2801989D01*
X11009201Y-2801989D01*
X11010175Y-2801626D01*
X11051465Y-2786225D01*
X11146204Y-2750889D01*
X11188365Y-2719328D01*
X11263261Y-2663261D01*
X11350887Y-2546207D01*
X11350887Y-2546206D01*
X11350889Y-2546204D01*
X11401989Y-2409201D01*
X11403299Y-2397022D01*
X11408499Y-2348649D01*
X11408500Y-2348632D01*
X11408500Y-1251367D01*
X11408499Y-1251350D01*
X11401990Y-1190803D01*
X11401988Y-1190795D01*
X11350889Y-1053797D01*
X11350887Y-1053792D01*
X11263261Y-936738D01*
X11146207Y-849112D01*
X11146202Y-849110D01*
X11009204Y-798011D01*
X11009196Y-798009D01*
X10948649Y-791500D01*
X10948638Y-791500D01*
X8651362Y-791500D01*
X8651350Y-791500D01*
X8590803Y-798009D01*
X8590795Y-798011D01*
X8453797Y-849110D01*
X8453792Y-849112D01*
X8336738Y-936738D01*
X8249112Y-1053792D01*
X8249110Y-1053797D01*
X8198011Y-1190795D01*
X8198009Y-1190803D01*
X8191500Y-1251350D01*
X25500Y-1251350D01*
X25500Y-151500D01*
X45502Y-83379D01*
X99158Y-36886D01*
X151500Y-25500D01*
X39002630Y-25500D01*
X39070751Y-45502D01*
G37*
G04 #@! TD.AperFunction*
G04 #@! TA.AperFunction,Conductor*
G36*
X27738936Y-2653502D02*
G01*
X27783081Y-2702296D01*
X27825845Y-2786225D01*
X27833693Y-2801626D01*
X27837167Y-2806408D01*
X27954752Y-2968250D01*
X27954754Y-2968252D01*
X27954756Y-2968255D01*
X28100384Y-3113883D01*
X28100387Y-3113885D01*
X28100390Y-3113888D01*
X28267017Y-3234949D01*
X28450530Y-3328454D01*
X28646412Y-3392100D01*
X28849839Y-3424320D01*
X28849842Y-3424320D01*
X29055798Y-3424320D01*
X29055801Y-3424320D01*
X29259228Y-3392100D01*
X29455110Y-3328454D01*
X29638623Y-3234949D01*
X29805250Y-3113888D01*
X29950888Y-2968250D01*
X30071949Y-2801623D01*
X30090553Y-2765109D01*
X30139301Y-2713494D01*
X30208215Y-2696428D01*
X30275417Y-2719328D01*
X30315086Y-2765108D01*
X30333691Y-2801623D01*
X30454752Y-2968250D01*
X30454754Y-2968252D01*
X30454756Y-2968255D01*
X30600384Y-3113883D01*
X30600387Y-3113885D01*
X30600390Y-3113888D01*
X30767017Y-3234949D01*
X30950530Y-3328454D01*
X31146412Y-3392100D01*
X31349839Y-3424320D01*
X31349842Y-3424320D01*
X31555798Y-3424320D01*
X31555801Y-3424320D01*
X31759228Y-3392100D01*
X31955110Y-3328454D01*
X32138623Y-3234949D01*
X32305250Y-3113888D01*
X32450888Y-2968250D01*
X32566953Y-2808500D01*
X32572214Y-2801259D01*
X32628436Y-2757905D01*
X32674150Y-2749320D01*
X34358946Y-2749320D01*
X34427067Y-2769322D01*
X34448041Y-2786225D01*
X36329595Y-4667779D01*
X36344539Y-4695147D01*
X36361396Y-4721376D01*
X36362301Y-4727674D01*
X36363621Y-4730091D01*
X36366500Y-4756874D01*
X36366500Y-4945500D01*
X36346498Y-5013621D01*
X36292842Y-5060114D01*
X36240500Y-5071500D01*
X36151350Y-5071500D01*
X36090803Y-5078009D01*
X36090795Y-5078011D01*
X35953797Y-5129110D01*
X35953792Y-5129112D01*
X35836738Y-5216738D01*
X35749112Y-5333792D01*
X35749110Y-5333797D01*
X35698011Y-5470795D01*
X35698009Y-5470803D01*
X35691500Y-5531350D01*
X35691500Y-7228649D01*
X35698009Y-7289196D01*
X35698011Y-7289204D01*
X35749110Y-7426202D01*
X35749112Y-7426207D01*
X35836738Y-7543261D01*
X35953792Y-7630887D01*
X35953794Y-7630888D01*
X35953796Y-7630889D01*
X35995050Y-7646276D01*
X36090795Y-7681988D01*
X36090803Y-7681990D01*
X36151350Y-7688499D01*
X36151355Y-7688499D01*
X36151362Y-7688500D01*
X36343472Y-7688500D01*
X36411593Y-7708502D01*
X36448237Y-7744498D01*
X36507929Y-7833833D01*
X36507931Y-7833835D01*
X37726775Y-9052679D01*
X37760801Y-9114991D01*
X37763680Y-9141774D01*
X37763680Y-12714937D01*
X37743678Y-12783058D01*
X37690022Y-12829551D01*
X37619748Y-12839655D01*
X37580478Y-12827204D01*
X37502297Y-12787369D01*
X37502285Y-12787364D01*
X37306412Y-12723721D01*
X37306410Y-12723720D01*
X37306408Y-12723720D01*
X37102981Y-12691500D01*
X36897019Y-12691500D01*
X36693592Y-12723720D01*
X36693590Y-12723720D01*
X36693587Y-12723721D01*
X36497714Y-12787364D01*
X36497708Y-12787367D01*
X36314193Y-12880873D01*
X36147567Y-13001934D01*
X36147564Y-13001936D01*
X36001936Y-13147564D01*
X36001934Y-13147567D01*
X35880606Y-13314561D01*
X35824384Y-13357915D01*
X35778670Y-13366500D01*
X35434500Y-13366500D01*
X35366379Y-13346498D01*
X35319886Y-13292842D01*
X35308500Y-13240500D01*
X35308500Y-13151367D01*
X35308499Y-13151350D01*
X35301990Y-13090803D01*
X35301988Y-13090795D01*
X35250889Y-12953797D01*
X35250887Y-12953792D01*
X35163261Y-12836738D01*
X35046207Y-12749112D01*
X35046202Y-12749110D01*
X34909204Y-12698011D01*
X34909196Y-12698009D01*
X34848649Y-12691500D01*
X34848638Y-12691500D01*
X33151362Y-12691500D01*
X33151350Y-12691500D01*
X33090803Y-12698009D01*
X33090795Y-12698011D01*
X32953797Y-12749110D01*
X32953792Y-12749112D01*
X32836738Y-12836738D01*
X32749112Y-12953792D01*
X32749110Y-12953797D01*
X32698011Y-13090795D01*
X32698009Y-13090803D01*
X32691500Y-13151350D01*
X32691500Y-14848649D01*
X32698009Y-14909196D01*
X32698011Y-14909204D01*
X32749110Y-15046202D01*
X32749112Y-15046207D01*
X32836738Y-15163261D01*
X32953792Y-15250887D01*
X32953794Y-15250887D01*
X32953796Y-15250889D01*
X33006677Y-15270613D01*
X33063511Y-15313158D01*
X33088322Y-15379678D01*
X33073231Y-15449052D01*
X33051739Y-15477762D01*
X33001932Y-15527569D01*
X32880873Y-15694193D01*
X32787367Y-15877708D01*
X32787364Y-15877714D01*
X32723721Y-16073587D01*
X32723720Y-16073590D01*
X32723720Y-16073592D01*
X32691500Y-16277019D01*
X32691500Y-16482981D01*
X32723720Y-16686408D01*
X32723721Y-16686412D01*
X32786905Y-16880873D01*
X32787366Y-16882290D01*
X32880871Y-17065803D01*
X33001932Y-17232430D01*
X33001934Y-17232432D01*
X33001936Y-17232435D01*
X33147564Y-17378063D01*
X33147567Y-17378065D01*
X33147570Y-17378068D01*
X33314197Y-17499129D01*
X33497710Y-17592634D01*
X33693592Y-17656280D01*
X33897019Y-17688500D01*
X33897022Y-17688500D01*
X34102978Y-17688500D01*
X34102981Y-17688500D01*
X34306408Y-17656280D01*
X34502290Y-17592634D01*
X34685803Y-17499129D01*
X34852430Y-17378068D01*
X34998068Y-17232430D01*
X35119127Y-17065806D01*
X35119394Y-17065439D01*
X35175616Y-17022085D01*
X35221330Y-17013500D01*
X35565500Y-17013500D01*
X35633621Y-17033502D01*
X35680114Y-17087158D01*
X35691500Y-17139500D01*
X35691500Y-17228649D01*
X35698009Y-17289196D01*
X35698011Y-17289204D01*
X35749110Y-17426202D01*
X35749112Y-17426207D01*
X35836738Y-17543261D01*
X35953792Y-17630887D01*
X35953794Y-17630888D01*
X35953796Y-17630889D01*
X35998519Y-17647570D01*
X36090795Y-17681988D01*
X36090803Y-17681990D01*
X36151350Y-17688499D01*
X36151355Y-17688499D01*
X36151362Y-17688500D01*
X37637680Y-17688500D01*
X37705801Y-17708502D01*
X37752294Y-17762158D01*
X37763680Y-17814500D01*
X37763680Y-22288226D01*
X37743678Y-22356347D01*
X37726779Y-22377316D01*
X37470596Y-22633500D01*
X37415658Y-22688438D01*
X37353346Y-22722463D01*
X37306852Y-22723791D01*
X37306412Y-22723721D01*
X37306408Y-22723720D01*
X37102981Y-22691500D01*
X36897019Y-22691500D01*
X36693592Y-22723720D01*
X36693590Y-22723720D01*
X36693587Y-22723721D01*
X36497714Y-22787364D01*
X36497708Y-22787367D01*
X36314193Y-22880873D01*
X36147567Y-23001934D01*
X36147564Y-23001936D01*
X36001936Y-23147564D01*
X36001934Y-23147567D01*
X35880873Y-23314193D01*
X35787367Y-23497708D01*
X35787364Y-23497714D01*
X35723721Y-23693587D01*
X35723720Y-23693590D01*
X35723720Y-23693592D01*
X35691500Y-23897019D01*
X35691500Y-24102981D01*
X35717162Y-24265000D01*
X35723721Y-24306412D01*
X35728413Y-24320854D01*
X35787366Y-24502290D01*
X35880871Y-24685803D01*
X36001932Y-24852430D01*
X36001934Y-24852432D01*
X36001936Y-24852435D01*
X36147564Y-24998063D01*
X36147567Y-24998065D01*
X36147570Y-24998068D01*
X36314197Y-25119129D01*
X36314204Y-25119133D01*
X36314560Y-25119391D01*
X36357915Y-25175613D01*
X36366500Y-25221328D01*
X36366500Y-26088719D01*
X36346498Y-26156840D01*
X36292842Y-26203333D01*
X36260213Y-26213167D01*
X36193591Y-26223719D01*
X35997714Y-26287364D01*
X35997708Y-26287367D01*
X35814193Y-26380873D01*
X35647567Y-26501934D01*
X35647564Y-26501936D01*
X35501936Y-26647564D01*
X35501934Y-26647567D01*
X35380873Y-26814193D01*
X35287367Y-26997708D01*
X35287364Y-26997714D01*
X35223721Y-27193587D01*
X35223720Y-27193590D01*
X35223720Y-27193592D01*
X35191648Y-27396089D01*
X35191500Y-27397022D01*
X35191500Y-27399750D01*
X35191205Y-27400751D01*
X35191111Y-27401957D01*
X35190857Y-27401937D01*
X35171498Y-27467871D01*
X35117842Y-27514364D01*
X35047568Y-27524468D01*
X34982988Y-27494974D01*
X34949092Y-27447969D01*
X34927602Y-27396089D01*
X34927600Y-27396085D01*
X34902486Y-27358499D01*
X34858271Y-27292327D01*
X34770033Y-27204089D01*
X33311715Y-25745771D01*
X33207957Y-25676442D01*
X33092667Y-25628687D01*
X33018968Y-25614027D01*
X32970278Y-25604342D01*
X32970276Y-25604342D01*
X29229596Y-25604342D01*
X29199680Y-25595558D01*
X29169211Y-25588930D01*
X29164115Y-25585115D01*
X29161475Y-25584340D01*
X29140501Y-25567437D01*
X28981435Y-25408371D01*
X28947409Y-25346059D01*
X28952474Y-25275244D01*
X28995021Y-25218408D01*
X29013315Y-25207016D01*
X29185803Y-25119129D01*
X29352430Y-24998068D01*
X29498068Y-24852430D01*
X29619127Y-24685806D01*
X29619394Y-24685439D01*
X29675616Y-24642085D01*
X29721330Y-24633500D01*
X32565500Y-24633500D01*
X32633621Y-24653502D01*
X32680114Y-24707158D01*
X32691500Y-24759500D01*
X32691500Y-24848649D01*
X32698009Y-24909196D01*
X32698011Y-24909204D01*
X32749110Y-25046202D01*
X32749112Y-25046207D01*
X32836738Y-25163261D01*
X32953792Y-25250887D01*
X32953794Y-25250888D01*
X32953796Y-25250889D01*
X32995050Y-25266276D01*
X33090795Y-25301988D01*
X33090803Y-25301990D01*
X33151350Y-25308499D01*
X33151355Y-25308499D01*
X33151362Y-25308500D01*
X33151368Y-25308500D01*
X34848632Y-25308500D01*
X34848638Y-25308500D01*
X34848645Y-25308499D01*
X34848649Y-25308499D01*
X34909196Y-25301990D01*
X34909199Y-25301989D01*
X34909201Y-25301989D01*
X35046204Y-25250889D01*
X35089594Y-25218408D01*
X35163261Y-25163261D01*
X35250887Y-25046207D01*
X35250887Y-25046206D01*
X35250889Y-25046204D01*
X35301989Y-24909201D01*
X35308093Y-24852430D01*
X35308499Y-24848649D01*
X35308500Y-24848632D01*
X35308500Y-23151367D01*
X35308499Y-23151350D01*
X35301990Y-23090803D01*
X35301988Y-23090795D01*
X35263108Y-22986556D01*
X35250889Y-22953796D01*
X35250888Y-22953794D01*
X35250887Y-22953792D01*
X35163261Y-22836738D01*
X35046207Y-22749112D01*
X35046202Y-22749110D01*
X34909204Y-22698011D01*
X34909196Y-22698009D01*
X34848649Y-22691500D01*
X34848638Y-22691500D01*
X33151362Y-22691500D01*
X33151350Y-22691500D01*
X33090803Y-22698009D01*
X33090795Y-22698011D01*
X32953797Y-22749110D01*
X32953792Y-22749112D01*
X32836738Y-22836738D01*
X32749112Y-22953792D01*
X32749110Y-22953797D01*
X32698011Y-23090795D01*
X32698009Y-23090803D01*
X32691500Y-23151350D01*
X32691500Y-23240500D01*
X32671498Y-23308621D01*
X32617842Y-23355114D01*
X32565500Y-23366500D01*
X29721330Y-23366500D01*
X29653209Y-23346498D01*
X29619394Y-23314561D01*
X29555548Y-23226685D01*
X29498068Y-23147570D01*
X29498065Y-23147567D01*
X29498063Y-23147564D01*
X29352435Y-23001936D01*
X29352432Y-23001934D01*
X29352430Y-23001932D01*
X29185803Y-22880871D01*
X29002290Y-22787366D01*
X29002287Y-22787365D01*
X29002285Y-22787364D01*
X28806412Y-22723721D01*
X28806410Y-22723720D01*
X28806408Y-22723720D01*
X28602981Y-22691500D01*
X28397019Y-22691500D01*
X28193592Y-22723720D01*
X28193588Y-22723721D01*
X28193147Y-22723791D01*
X28122736Y-22714691D01*
X28084341Y-22688437D01*
X26903835Y-21507931D01*
X26903833Y-21507929D01*
X26800075Y-21438600D01*
X26684785Y-21390845D01*
X26611086Y-21376185D01*
X26562396Y-21366500D01*
X26562394Y-21366500D01*
X22221330Y-21366500D01*
X22153209Y-21346498D01*
X22119394Y-21314561D01*
X22071241Y-21248285D01*
X21998068Y-21147570D01*
X21998065Y-21147567D01*
X21998063Y-21147564D01*
X21852435Y-21001936D01*
X21852432Y-21001934D01*
X21852430Y-21001932D01*
X21685803Y-20880871D01*
X21522615Y-20797722D01*
X21471000Y-20748973D01*
X21453934Y-20680058D01*
X21476835Y-20612857D01*
X21490716Y-20596366D01*
X22745012Y-19342073D01*
X22814341Y-19238315D01*
X22862095Y-19123024D01*
X22863649Y-19115215D01*
X22868265Y-19092012D01*
X22886439Y-19000639D01*
X22886440Y-19000632D01*
X22886440Y-17859847D01*
X22886439Y-17859843D01*
X22877420Y-17814500D01*
X22862095Y-17737455D01*
X22848108Y-17703687D01*
X22814341Y-17622165D01*
X22745012Y-17518407D01*
X22108233Y-16881628D01*
X22074207Y-16819316D01*
X22079272Y-16748501D01*
X22095389Y-16718477D01*
X22119129Y-16685803D01*
X22212634Y-16502290D01*
X22276280Y-16306408D01*
X22308500Y-16102981D01*
X22308500Y-15897019D01*
X22276280Y-15693592D01*
X22276277Y-15693583D01*
X22276208Y-15693146D01*
X22285307Y-15622735D01*
X22311559Y-15584343D01*
X23976406Y-13919496D01*
X24038717Y-13885472D01*
X24109533Y-13890537D01*
X24166368Y-13933084D01*
X24191179Y-13999604D01*
X24191500Y-14008593D01*
X24191500Y-14848649D01*
X24198009Y-14909196D01*
X24198011Y-14909204D01*
X24249110Y-15046202D01*
X24249112Y-15046207D01*
X24336738Y-15163261D01*
X24453792Y-15250887D01*
X24453794Y-15250887D01*
X24453796Y-15250889D01*
X24506677Y-15270613D01*
X24563511Y-15313158D01*
X24588322Y-15379678D01*
X24573231Y-15449052D01*
X24551739Y-15477762D01*
X24501932Y-15527569D01*
X24380873Y-15694193D01*
X24287367Y-15877708D01*
X24287364Y-15877714D01*
X24223721Y-16073587D01*
X24223720Y-16073590D01*
X24223720Y-16073592D01*
X24191500Y-16277019D01*
X24191500Y-16482981D01*
X24223720Y-16686408D01*
X24223721Y-16686412D01*
X24286905Y-16880873D01*
X24287366Y-16882290D01*
X24380871Y-17065803D01*
X24501932Y-17232430D01*
X24501934Y-17232432D01*
X24501936Y-17232435D01*
X24647564Y-17378063D01*
X24647567Y-17378065D01*
X24647570Y-17378068D01*
X24814197Y-17499129D01*
X24997710Y-17592634D01*
X25193592Y-17656280D01*
X25397019Y-17688500D01*
X25397022Y-17688500D01*
X25602978Y-17688500D01*
X25602981Y-17688500D01*
X25806408Y-17656280D01*
X26002290Y-17592634D01*
X26185803Y-17499129D01*
X26352430Y-17378068D01*
X26498068Y-17232430D01*
X26619127Y-17065806D01*
X26619394Y-17065439D01*
X26675616Y-17022085D01*
X26721330Y-17013500D01*
X27065500Y-17013500D01*
X27133621Y-17033502D01*
X27180114Y-17087158D01*
X27191500Y-17139500D01*
X27191500Y-17228649D01*
X27198009Y-17289196D01*
X27198011Y-17289204D01*
X27249110Y-17426202D01*
X27249112Y-17426207D01*
X27336738Y-17543261D01*
X27453792Y-17630887D01*
X27453794Y-17630888D01*
X27453796Y-17630889D01*
X27498519Y-17647570D01*
X27590795Y-17681988D01*
X27590803Y-17681990D01*
X27651350Y-17688499D01*
X27651355Y-17688499D01*
X27651362Y-17688500D01*
X27651368Y-17688500D01*
X29348632Y-17688500D01*
X29348638Y-17688500D01*
X29348645Y-17688499D01*
X29348649Y-17688499D01*
X29409196Y-17681990D01*
X29409199Y-17681989D01*
X29409201Y-17681989D01*
X29546204Y-17630889D01*
X29549993Y-17628053D01*
X29663261Y-17543261D01*
X29750887Y-17426207D01*
X29750887Y-17426206D01*
X29750889Y-17426204D01*
X29801989Y-17289201D01*
X29808093Y-17232430D01*
X29808499Y-17228649D01*
X29808500Y-17228632D01*
X29808500Y-15531367D01*
X29808499Y-15531350D01*
X29801990Y-15470803D01*
X29801988Y-15470795D01*
X29768002Y-15379678D01*
X29750889Y-15333796D01*
X29750888Y-15333794D01*
X29750887Y-15333792D01*
X29663261Y-15216738D01*
X29546207Y-15129112D01*
X29546203Y-15129110D01*
X29493323Y-15109387D01*
X29436487Y-15066841D01*
X29411677Y-15000320D01*
X29426769Y-14930946D01*
X29448258Y-14902239D01*
X29498068Y-14852430D01*
X29619129Y-14685803D01*
X29712634Y-14502290D01*
X29776280Y-14306408D01*
X29808500Y-14102981D01*
X29808500Y-13897019D01*
X29776280Y-13693592D01*
X29712634Y-13497710D01*
X29619129Y-13314197D01*
X29498068Y-13147570D01*
X29498065Y-13147567D01*
X29498063Y-13147564D01*
X29352435Y-13001936D01*
X29352432Y-13001934D01*
X29352430Y-13001932D01*
X29185803Y-12880871D01*
X29002290Y-12787366D01*
X29002287Y-12787365D01*
X29002285Y-12787364D01*
X28806412Y-12723721D01*
X28806410Y-12723720D01*
X28806408Y-12723720D01*
X28602981Y-12691500D01*
X28397019Y-12691500D01*
X28193592Y-12723720D01*
X28193590Y-12723720D01*
X28193587Y-12723721D01*
X27997714Y-12787364D01*
X27997708Y-12787367D01*
X27814193Y-12880873D01*
X27647567Y-13001934D01*
X27647564Y-13001936D01*
X27501936Y-13147564D01*
X27501934Y-13147567D01*
X27380606Y-13314561D01*
X27324384Y-13357915D01*
X27278670Y-13366500D01*
X26934500Y-13366500D01*
X26866379Y-13346498D01*
X26819886Y-13292842D01*
X26808500Y-13240500D01*
X26808500Y-13151367D01*
X26808499Y-13151350D01*
X26801990Y-13090803D01*
X26801988Y-13090795D01*
X26750889Y-12953797D01*
X26750887Y-12953792D01*
X26663261Y-12836738D01*
X26546207Y-12749112D01*
X26546202Y-12749110D01*
X26409204Y-12698011D01*
X26409196Y-12698009D01*
X26348649Y-12691500D01*
X26348638Y-12691500D01*
X25508595Y-12691500D01*
X25440474Y-12671498D01*
X25393981Y-12617842D01*
X25383877Y-12547568D01*
X25413371Y-12482988D01*
X25419500Y-12476405D01*
X27199635Y-10696270D01*
X28992072Y-8903833D01*
X29061401Y-8800075D01*
X29109155Y-8684784D01*
X29133500Y-8562393D01*
X29133500Y-8437606D01*
X29133500Y-7814500D01*
X29153502Y-7746379D01*
X29207158Y-7699886D01*
X29259500Y-7688500D01*
X29348632Y-7688500D01*
X29348638Y-7688500D01*
X29348645Y-7688499D01*
X29348649Y-7688499D01*
X29409196Y-7681990D01*
X29409199Y-7681989D01*
X29409201Y-7681989D01*
X29546204Y-7630889D01*
X29628141Y-7569552D01*
X29663261Y-7543261D01*
X29750887Y-7426207D01*
X29750887Y-7426206D01*
X29750889Y-7426204D01*
X29801989Y-7289201D01*
X29805774Y-7254000D01*
X29808499Y-7228649D01*
X29808500Y-7228632D01*
X29808500Y-7139500D01*
X29828502Y-7071379D01*
X29882158Y-7024886D01*
X29934500Y-7013500D01*
X32778670Y-7013500D01*
X32846791Y-7033502D01*
X32880606Y-7065439D01*
X32907458Y-7102397D01*
X33001932Y-7232430D01*
X33001934Y-7232432D01*
X33001936Y-7232435D01*
X33147564Y-7378063D01*
X33147567Y-7378065D01*
X33147570Y-7378068D01*
X33314197Y-7499129D01*
X33497710Y-7592634D01*
X33693592Y-7656280D01*
X33897019Y-7688500D01*
X33897022Y-7688500D01*
X34102978Y-7688500D01*
X34102981Y-7688500D01*
X34306408Y-7656280D01*
X34502290Y-7592634D01*
X34685803Y-7499129D01*
X34852430Y-7378068D01*
X34998068Y-7232430D01*
X35119129Y-7065803D01*
X35212634Y-6882290D01*
X35276280Y-6686408D01*
X35308500Y-6482981D01*
X35308500Y-6277019D01*
X35276280Y-6073592D01*
X35212634Y-5877710D01*
X35119129Y-5694197D01*
X34998068Y-5527570D01*
X34998065Y-5527567D01*
X34998063Y-5527564D01*
X34852435Y-5381936D01*
X34852432Y-5381934D01*
X34852430Y-5381932D01*
X34685803Y-5260871D01*
X34502290Y-5167366D01*
X34502287Y-5167365D01*
X34502285Y-5167364D01*
X34306412Y-5103721D01*
X34306410Y-5103720D01*
X34306408Y-5103720D01*
X34102981Y-5071500D01*
X33897019Y-5071500D01*
X33693592Y-5103720D01*
X33693590Y-5103720D01*
X33693587Y-5103721D01*
X33497714Y-5167364D01*
X33497708Y-5167367D01*
X33314193Y-5260873D01*
X33147567Y-5381934D01*
X33147564Y-5381936D01*
X33001936Y-5527564D01*
X33001934Y-5527567D01*
X32880606Y-5694561D01*
X32824384Y-5737915D01*
X32778670Y-5746500D01*
X29934500Y-5746500D01*
X29866379Y-5726498D01*
X29819886Y-5672842D01*
X29808500Y-5620500D01*
X29808500Y-5531367D01*
X29808499Y-5531350D01*
X29801990Y-5470803D01*
X29801988Y-5470795D01*
X29761879Y-5363261D01*
X29750889Y-5333796D01*
X29750888Y-5333794D01*
X29750887Y-5333792D01*
X29663261Y-5216738D01*
X29546207Y-5129112D01*
X29546202Y-5129110D01*
X29409204Y-5078011D01*
X29409196Y-5078009D01*
X29348649Y-5071500D01*
X29348638Y-5071500D01*
X27651362Y-5071500D01*
X27651350Y-5071500D01*
X27590803Y-5078009D01*
X27590795Y-5078011D01*
X27453797Y-5129110D01*
X27453792Y-5129112D01*
X27336738Y-5216738D01*
X27249112Y-5333792D01*
X27249110Y-5333797D01*
X27198011Y-5470795D01*
X27198009Y-5470803D01*
X27191500Y-5531350D01*
X27191500Y-7228649D01*
X27198009Y-7289196D01*
X27198011Y-7289204D01*
X27249110Y-7426202D01*
X27249112Y-7426207D01*
X27336738Y-7543261D01*
X27453792Y-7630887D01*
X27453794Y-7630888D01*
X27453796Y-7630889D01*
X27495050Y-7646276D01*
X27590795Y-7681988D01*
X27590803Y-7681990D01*
X27651350Y-7688499D01*
X27651355Y-7688499D01*
X27651362Y-7688500D01*
X27740500Y-7688500D01*
X27808621Y-7708502D01*
X27855114Y-7762158D01*
X27866500Y-7814500D01*
X27866500Y-8185405D01*
X27846498Y-8253526D01*
X27829595Y-8274500D01*
X21415658Y-14688436D01*
X21353346Y-14722462D01*
X21306853Y-14723790D01*
X21183850Y-14704308D01*
X21102981Y-14691500D01*
X20897019Y-14691500D01*
X20693592Y-14723720D01*
X20693590Y-14723720D01*
X20693587Y-14723721D01*
X20497714Y-14787364D01*
X20497707Y-14787367D01*
X20468681Y-14802157D01*
X20398905Y-14815260D01*
X20333120Y-14788559D01*
X20292215Y-14730531D01*
X20285480Y-14689889D01*
X20285480Y-13469550D01*
X20305482Y-13401429D01*
X20359138Y-13354936D01*
X20429412Y-13344832D01*
X20468685Y-13357284D01*
X20497901Y-13372171D01*
X20497906Y-13372173D01*
X20693705Y-13435791D01*
X20693717Y-13435794D01*
X20745999Y-13444074D01*
X20746000Y-13444074D01*
X20746000Y-12471686D01*
X20754394Y-12480080D01*
X20845606Y-12532741D01*
X20947339Y-12560000D01*
X21052661Y-12560000D01*
X21154394Y-12532741D01*
X21245606Y-12480080D01*
X21254000Y-12471686D01*
X21254000Y-13444074D01*
X21306282Y-13435794D01*
X21306294Y-13435791D01*
X21502093Y-13372173D01*
X21502099Y-13372170D01*
X21685545Y-13278699D01*
X21852107Y-13157684D01*
X21852110Y-13157682D01*
X21997682Y-13012110D01*
X21997684Y-13012107D01*
X22118699Y-12845545D01*
X22212170Y-12662099D01*
X22212173Y-12662093D01*
X22275791Y-12466295D01*
X22284074Y-12414000D01*
X21311686Y-12414000D01*
X21320080Y-12405606D01*
X21372741Y-12314394D01*
X21400000Y-12212661D01*
X21400000Y-12107339D01*
X21372741Y-12005606D01*
X21320080Y-11914394D01*
X21311686Y-11906000D01*
X22284074Y-11906000D01*
X22275791Y-11853704D01*
X22212173Y-11657906D01*
X22212170Y-11657900D01*
X22118699Y-11474454D01*
X21997684Y-11307892D01*
X21997682Y-11307889D01*
X21852110Y-11162317D01*
X21852107Y-11162315D01*
X21685545Y-11041300D01*
X21502099Y-10947829D01*
X21502092Y-10947826D01*
X21471726Y-10937959D01*
X21413122Y-10897885D01*
X21385486Y-10832487D01*
X21397594Y-10762531D01*
X21421564Y-10729039D01*
X24300200Y-7850404D01*
X24362512Y-7816378D01*
X24389295Y-7813499D01*
X24762394Y-7813499D01*
X24762395Y-7813499D01*
X24884786Y-7789154D01*
X25000076Y-7741399D01*
X25099134Y-7675210D01*
X25166884Y-7653996D01*
X25188845Y-7655527D01*
X25193585Y-7656277D01*
X25193592Y-7656280D01*
X25397019Y-7688500D01*
X25397022Y-7688500D01*
X25602978Y-7688500D01*
X25602981Y-7688500D01*
X25806408Y-7656280D01*
X26002290Y-7592634D01*
X26185803Y-7499129D01*
X26352430Y-7378068D01*
X26498068Y-7232430D01*
X26619129Y-7065803D01*
X26712634Y-6882290D01*
X26776280Y-6686408D01*
X26808500Y-6482981D01*
X26808500Y-6277019D01*
X26776280Y-6073592D01*
X26712634Y-5877710D01*
X26619129Y-5694197D01*
X26498068Y-5527570D01*
X26498065Y-5527567D01*
X26498063Y-5527564D01*
X26352435Y-5381936D01*
X26352432Y-5381934D01*
X26352430Y-5381932D01*
X26185803Y-5260871D01*
X26002290Y-5167366D01*
X26002287Y-5167365D01*
X26002285Y-5167364D01*
X25806412Y-5103721D01*
X25806410Y-5103720D01*
X25806408Y-5103720D01*
X25602981Y-5071500D01*
X25397019Y-5071500D01*
X25193592Y-5103720D01*
X25193590Y-5103720D01*
X25193587Y-5103721D01*
X24997714Y-5167364D01*
X24997708Y-5167367D01*
X24814193Y-5260873D01*
X24647567Y-5381934D01*
X24647564Y-5381936D01*
X24501936Y-5527564D01*
X24501934Y-5527567D01*
X24380873Y-5694193D01*
X24287367Y-5877708D01*
X24287364Y-5877714D01*
X24223721Y-6073587D01*
X24223720Y-6073590D01*
X24223720Y-6073592D01*
X24191618Y-6276280D01*
X24191500Y-6277022D01*
X24191500Y-6420499D01*
X24171498Y-6488620D01*
X24117842Y-6535113D01*
X24065500Y-6546499D01*
X24012304Y-6546499D01*
X23943337Y-6560218D01*
X23889916Y-6570844D01*
X23889914Y-6570844D01*
X23889913Y-6570845D01*
X23774624Y-6618600D01*
X23670872Y-6687925D01*
X23670865Y-6687930D01*
X19159911Y-11198884D01*
X19159909Y-11198887D01*
X19090580Y-11302645D01*
X19042825Y-11417935D01*
X19033008Y-11467288D01*
X19018480Y-11540323D01*
X19018480Y-11540326D01*
X19018480Y-16300286D01*
X19018480Y-16425074D01*
X19042825Y-16547465D01*
X19090580Y-16662755D01*
X19159909Y-16766513D01*
X19159911Y-16766515D01*
X19942263Y-17548867D01*
X19976289Y-17611179D01*
X19971224Y-17681994D01*
X19955104Y-17712023D01*
X19880873Y-17814193D01*
X19787367Y-17997708D01*
X19787364Y-17997714D01*
X19723721Y-18193587D01*
X19723720Y-18193590D01*
X19723720Y-18193592D01*
X19691500Y-18397019D01*
X19691500Y-18602981D01*
X19706568Y-18698116D01*
X19723790Y-18806851D01*
X19714690Y-18877263D01*
X19688437Y-18915657D01*
X19204500Y-19399596D01*
X19142187Y-19433621D01*
X19115404Y-19436501D01*
X16587753Y-19436501D01*
X16519632Y-19416499D01*
X16473139Y-19362843D01*
X16463035Y-19292569D01*
X16492529Y-19227989D01*
X16530547Y-19198236D01*
X16685803Y-19119129D01*
X16852430Y-18998068D01*
X16998068Y-18852430D01*
X17119129Y-18685803D01*
X17212634Y-18502290D01*
X17276280Y-18306408D01*
X17308500Y-18102981D01*
X17308500Y-17897019D01*
X17276280Y-17693592D01*
X17212634Y-17497710D01*
X17119129Y-17314197D01*
X16998068Y-17147570D01*
X16998065Y-17147567D01*
X16998063Y-17147564D01*
X16852435Y-17001936D01*
X16852432Y-17001934D01*
X16852430Y-17001932D01*
X16726999Y-16910802D01*
X16685806Y-16880873D01*
X16685805Y-16880872D01*
X16685803Y-16880871D01*
X16502290Y-16787366D01*
X16502287Y-16787365D01*
X16502285Y-16787364D01*
X16306412Y-16723721D01*
X16306410Y-16723720D01*
X16306408Y-16723720D01*
X16102981Y-16691500D01*
X15897019Y-16691500D01*
X15693592Y-16723720D01*
X15693590Y-16723720D01*
X15693587Y-16723721D01*
X15497714Y-16787364D01*
X15497708Y-16787367D01*
X15314193Y-16880873D01*
X15147567Y-17001934D01*
X15147564Y-17001936D01*
X15001936Y-17147564D01*
X15001934Y-17147567D01*
X14880606Y-17314561D01*
X14824384Y-17357915D01*
X14778670Y-17366500D01*
X13397196Y-17366500D01*
X13329075Y-17346498D01*
X13323135Y-17342436D01*
X13152012Y-17218108D01*
X13152011Y-17218107D01*
X13152009Y-17218106D01*
X12961483Y-17121028D01*
X12961480Y-17121027D01*
X12961478Y-17121026D01*
X12758120Y-17054952D01*
X12758123Y-17054952D01*
X12718801Y-17048724D01*
X12546916Y-17021500D01*
X12333084Y-17021500D01*
X12121884Y-17054951D01*
X12121878Y-17054952D01*
X11918521Y-17121026D01*
X11918509Y-17121031D01*
X11774262Y-17194529D01*
X11704486Y-17207633D01*
X11638701Y-17180933D01*
X11597795Y-17122905D01*
X11591060Y-17082262D01*
X11591060Y-16001634D01*
X11611062Y-15933513D01*
X11627965Y-15912539D01*
X16499204Y-11041300D01*
X21492071Y-6048433D01*
X21561400Y-5944675D01*
X21609155Y-5829385D01*
X21633500Y-5706994D01*
X21633500Y-5582206D01*
X21633500Y-3221328D01*
X21653502Y-3153207D01*
X21685440Y-3119391D01*
X21685795Y-3119133D01*
X21685803Y-3119129D01*
X21852430Y-2998068D01*
X21998068Y-2852430D01*
X22094772Y-2719328D01*
X22119394Y-2685439D01*
X22175616Y-2642085D01*
X22221330Y-2633500D01*
X27670815Y-2633500D01*
X27738936Y-2653502D01*
G37*
G04 #@! TD.AperFunction*
M02*
