M48
; DRILL file {KiCad 9.0.0} date 2025-02-23T16:01:51-0700
; FORMAT={-:-/ absolute / inch / decimal}
; #@! TF.CreationDate,2025-02-23T16:01:51-07:00
; #@! TF.GenerationSoftware,Kicad,Pcbnew,9.0.0
; #@! TF.FileFunction,Plated,1,2,PTH
FMAT,2
INCH
; #@! TA.AperFunction,Plated,PTH,ViaDrill
T1C0.0157
; #@! TA.AperFunction,Plated,PTH,ComponentDrill
T2C0.0157
; #@! TA.AperFunction,Plated,PTH,ComponentDrill
T3C0.0315
; #@! TA.AperFunction,Plated,PTH,ComponentDrill
T4C0.0354
; #@! TA.AperFunction,Plated,PTH,ComponentDrill
T5C0.0394
%
G90
G05
T1
X1.67Y-2.18
X1.67Y-2.3109
X2.96Y-1.55
X3.02Y-2.45
T3
X0.348Y-0.5906
X0.348Y-1.2205
X0.348Y-1.8504
X0.348Y-2.4803
X0.348Y-3.1102
X0.348Y-3.7402
X0.689Y-0.0591
X0.689Y-0.4591
X0.689Y-0.7087
X0.689Y-1.1087
X0.689Y-1.3386
X0.689Y-1.7386
X0.689Y-1.9685
X0.689Y-2.3685
X0.689Y-2.5984
X0.689Y-2.9984
X0.689Y-3.2283
X0.689Y-3.6283
X0.748Y-0.5906
X0.748Y-1.2205
X0.748Y-1.8504
X0.748Y-2.4803
X0.748Y-3.1102
X0.748Y-3.7402
X0.8858Y-0.0591
X0.8858Y-0.4591
X0.8858Y-0.7087
X0.8858Y-1.1087
X0.8858Y-1.3386
X0.8858Y-1.7386
X0.8858Y-1.9685
X0.8858Y-2.3685
X0.8858Y-2.5984
X0.8858Y-2.9984
X0.8858Y-3.2283
X0.8858Y-3.6283
X1.5945Y-0.6496
X1.5945Y-3.0512
X1.6339Y-0.1724
X1.6339Y-0.4724
X1.6339Y-0.9205
X1.6339Y-1.2205
X1.6339Y-2.4409
X1.6339Y-2.7409
X1.6339Y-3.322
X1.6339Y-3.622
X1.6929Y-0.6496
X1.6929Y-3.0512
X1.8047Y-2.4803
X1.811Y-1.1811
X1.8504Y-0.3543
X1.8504Y-0.4543
X1.8504Y-0.5543
X1.8504Y-0.6543
X1.8504Y-0.7543
X1.8504Y-0.8543
X1.8504Y-0.9543
X1.8504Y-1.5748
X1.8504Y-1.6748
X1.8504Y-1.7748
X1.8504Y-1.8748
X1.8504Y-1.9748
X1.8504Y-2.0748
X1.8504Y-2.1748
X1.8504Y-2.7559
X1.8504Y-2.8559
X1.8504Y-2.9559
X1.8504Y-3.0559
X1.8504Y-3.1559
X1.8504Y-3.2559
X1.8504Y-3.3559
X1.9488Y-1.378
X2.0472Y-1.378
X2.1504Y-0.3543
X2.1504Y-0.4543
X2.1504Y-0.5543
X2.1504Y-0.6543
X2.1504Y-0.7543
X2.1504Y-0.8543
X2.1504Y-0.9543
X2.1504Y-1.5748
X2.1504Y-1.6748
X2.1504Y-1.7748
X2.1504Y-1.8748
X2.1504Y-1.9748
X2.1504Y-2.0748
X2.1504Y-2.1748
X2.1504Y-2.7559
X2.1504Y-2.8559
X2.1504Y-2.9559
X2.1504Y-3.0559
X2.1504Y-3.1559
X2.1504Y-3.2559
X2.1504Y-3.3559
X2.2047Y-2.4803
X2.211Y-1.1811
X2.3031Y-0.6496
X2.3031Y-3.0512
X2.4016Y-0.6496
X2.4016Y-0.9205
X2.4016Y-1.2205
X2.4016Y-3.0512
X2.4016Y-3.322
X2.4016Y-3.622
X2.8937Y-0.1543
X2.8937Y-0.2543
X2.8937Y-0.3543
X2.8937Y-0.7055
X2.8937Y-0.8055
X2.8937Y-0.9055
X2.8937Y-1.2961
X2.8937Y-1.3961
X2.8937Y-1.4961
X2.8937Y-2.674
X2.8937Y-2.774
X2.8937Y-2.874
X2.8937Y-3.1465
X2.8937Y-3.2465
X2.8937Y-3.3465
X2.8937Y-3.6583
X2.8937Y-3.7583
X2.8937Y-3.8583
X3.0512Y-0.0591
X3.0512Y-0.4591
X3.0512Y-0.7087
X3.0512Y-1.1087
X3.0512Y-1.3386
X3.0512Y-1.7386
X3.0512Y-1.9685
X3.0512Y-2.3685
X3.0512Y-2.5984
X3.0512Y-2.9984
X3.0512Y-3.2283
X3.0512Y-3.6283
X3.1827Y-0.5906
X3.1827Y-1.2205
X3.1827Y-1.8504
X3.1827Y-2.4803
X3.1827Y-3.1102
X3.1827Y-3.7402
X3.248Y-0.0591
X3.248Y-0.4591
X3.248Y-0.7087
X3.248Y-1.1087
X3.248Y-1.3386
X3.248Y-1.7386
X3.248Y-1.9685
X3.248Y-2.3685
X3.248Y-2.5984
X3.248Y-2.9984
X3.248Y-3.2283
X3.248Y-3.6283
X3.5827Y-0.5906
X3.5827Y-1.2205
X3.5827Y-1.8504
X3.5827Y-2.4803
X3.5827Y-3.1102
X3.5827Y-3.7402
T4
X0.0787Y-0.5906
X0.0787Y-1.2205
X0.0787Y-1.8504
X0.0787Y-2.4803
X0.0787Y-3.1102
X0.0787Y-3.7402
X0.1787Y-0.5906
X0.1787Y-1.2205
X0.1787Y-1.8504
X0.1787Y-2.4803
X0.1787Y-3.1102
X0.1787Y-3.7402
X3.7583Y-0.5906
X3.7583Y-1.2205
X3.7583Y-1.8504
X3.7583Y-2.4803
X3.7583Y-3.1102
X3.7583Y-3.7402
X3.8583Y-0.5906
X3.8583Y-1.2205
X3.8583Y-1.8504
X3.8583Y-2.4803
X3.8583Y-3.1102
X3.8583Y-3.7402
T5
X1.1024Y-0.7087
X1.1024Y-0.8087
X1.1024Y-0.9087
X1.1024Y-1.0087
X1.1024Y-1.1087
X1.1024Y-1.2087
X1.1024Y-1.3087
X1.1024Y-1.4087
X1.1024Y-2.6772
X1.1024Y-2.7772
X1.1024Y-2.8772
X1.1024Y-2.9772
X1.1024Y-3.0772
X1.1024Y-3.1772
X1.1024Y-3.2772
X1.1024Y-3.3772
X1.2598Y-1.7323
X1.2598Y-1.8323
X1.2598Y-1.9323
X1.2598Y-2.0323
X1.2598Y-2.1323
X1.2598Y-2.2323
X1.2598Y-2.3323
X1.2598Y-2.4323
X1.2992Y-3.1102
X1.2992Y-3.2102
X1.2992Y-3.3102
X1.2992Y-3.4102
X1.2992Y-3.5102
X1.2992Y-3.6102
X1.2992Y-3.7102
X1.2992Y-3.8102
X1.3992Y-3.1102
X1.3992Y-3.2102
X1.3992Y-3.3102
X1.3992Y-3.4102
X1.3992Y-3.5102
X1.3992Y-3.6102
X1.3992Y-3.7102
X1.3992Y-3.8102
X2.6772Y-0.7087
X2.6772Y-0.8087
X2.6772Y-0.9087
X2.6772Y-1.0087
X2.6772Y-1.1087
X2.6772Y-1.2087
X2.6772Y-1.3087
X2.6772Y-1.4087
X2.6772Y-2.6772
X2.6772Y-2.7772
X2.6772Y-2.8772
X2.6772Y-2.9772
X2.6772Y-3.0772
X2.6772Y-3.1772
X2.6772Y-3.2772
X2.6772Y-3.3772
X2.8346Y-1.7323
X2.8346Y-1.8323
X2.8346Y-1.9323
X2.8346Y-2.0323
X2.8346Y-2.1323
X2.8346Y-2.2323
X2.8346Y-2.3323
X2.8346Y-2.4323
T2
G00X0.0787Y-0.2598
M15
G01X0.0787Y-0.2913
M16
G05
G00X0.0787Y-0.8898
M15
G01X0.0787Y-0.9213
M16
G05
G00X0.0787Y-1.5197
M15
G01X0.0787Y-1.5512
M16
G05
G00X0.0787Y-2.1496
M15
G01X0.0787Y-2.1811
M16
G05
G00X0.0787Y-2.7795
M15
G01X0.0787Y-2.811
M16
G05
G00X0.0787Y-3.4094
M15
G01X0.0787Y-3.4409
M16
G05
G00X0.1969Y-0.4528
M15
G01X0.2283Y-0.4528
M16
G05
G00X0.1969Y-1.0827
M15
G01X0.2283Y-1.0827
M16
G05
G00X0.1969Y-1.7126
M15
G01X0.2283Y-1.7126
M16
G05
G00X0.1969Y-2.3425
M15
G01X0.2283Y-2.3425
M16
G05
G00X0.1969Y-2.9724
M15
G01X0.2283Y-2.9724
M16
G05
G00X0.1969Y-3.6024
M15
G01X0.2283Y-3.6024
M16
G05
G00X0.315Y-0.1772
M15
G01X0.3465Y-0.1772
M16
G05
G00X0.315Y-0.8071
M15
G01X0.3465Y-0.8071
M16
G05
G00X0.315Y-1.437
M15
G01X0.3465Y-1.437
M16
G05
G00X0.315Y-2.0669
M15
G01X0.3465Y-2.0669
M16
G05
G00X0.315Y-2.6969
M15
G01X0.3465Y-2.6969
M16
G05
G00X0.315Y-3.3268
M15
G01X0.3465Y-3.3268
M16
G05
G00X0.3701Y-0.0709
M15
G01X0.4016Y-0.0709
M16
G05
G00X0.3701Y-0.7008
M15
G01X0.4016Y-0.7008
M16
G05
G00X0.3701Y-1.3307
M15
G01X0.4016Y-1.3307
M16
G05
G00X0.3701Y-1.9606
M15
G01X0.4016Y-1.9606
M16
G05
G00X0.3701Y-2.5906
M15
G01X0.4016Y-2.5906
M16
G05
G00X0.3701Y-3.2205
M15
G01X0.4016Y-3.2205
M16
G05
G00X0.5118Y-0.4173
M15
G01X0.5118Y-0.4488
M16
G05
G00X0.5118Y-1.0472
M15
G01X0.5118Y-1.0787
M16
G05
G00X0.5118Y-1.6772
M15
G01X0.5118Y-1.7087
M16
G05
G00X0.5118Y-2.3071
M15
G01X0.5118Y-2.3386
M16
G05
G00X0.5118Y-2.937
M15
G01X0.5118Y-2.9685
M16
G05
G00X0.5118Y-3.5669
M15
G01X0.5118Y-3.5984
M16
G05
G00X3.4252Y-0.1339
M15
G01X3.4252Y-0.1024
M16
G05
G00X3.4252Y-0.7638
M15
G01X3.4252Y-0.7323
M16
G05
G00X3.4252Y-1.3937
M15
G01X3.4252Y-1.3622
M16
G05
G00X3.4252Y-2.0236
M15
G01X3.4252Y-1.9921
M16
G05
G00X3.4252Y-2.6535
M15
G01X3.4252Y-2.622
M16
G05
G00X3.4252Y-3.2835
M15
G01X3.4252Y-3.252
M16
G05
G00X3.5669Y-0.4803
M15
G01X3.5354Y-0.4803
M16
G05
G00X3.5669Y-1.1102
M15
G01X3.5354Y-1.1102
M16
G05
G00X3.5669Y-1.7402
M15
G01X3.5354Y-1.7402
M16
G05
G00X3.5669Y-2.3701
M15
G01X3.5354Y-2.3701
M16
G05
G00X3.5669Y-3.0
M15
G01X3.5354Y-3.0
M16
G05
G00X3.5669Y-3.6299
M15
G01X3.5354Y-3.6299
M16
G05
G00X3.622Y-0.374
M15
G01X3.5906Y-0.374
M16
G05
G00X3.622Y-1.0039
M15
G01X3.5906Y-1.0039
M16
G05
G00X3.622Y-1.6339
M15
G01X3.5906Y-1.6339
M16
G05
G00X3.622Y-2.2638
M15
G01X3.5906Y-2.2638
M16
G05
G00X3.622Y-2.8937
M15
G01X3.5906Y-2.8937
M16
G05
G00X3.622Y-3.5236
M15
G01X3.5906Y-3.5236
M16
G05
G00X3.7402Y-0.0984
M15
G01X3.7087Y-0.0984
M16
G05
G00X3.7402Y-0.7283
M15
G01X3.7087Y-0.7283
M16
G05
G00X3.7402Y-1.3583
M15
G01X3.7087Y-1.3583
M16
G05
G00X3.7402Y-1.9882
M15
G01X3.7087Y-1.9882
M16
G05
G00X3.7402Y-2.6181
M15
G01X3.7087Y-2.6181
M16
G05
G00X3.7402Y-3.248
M15
G01X3.7087Y-3.248
M16
G05
G00X3.8583Y-0.2913
M15
G01X3.8583Y-0.2598
M16
G05
G00X3.8583Y-0.9213
M15
G01X3.8583Y-0.8898
M16
G05
G00X3.8583Y-1.5512
M15
G01X3.8583Y-1.5197
M16
G05
G00X3.8583Y-2.1811
M15
G01X3.8583Y-2.1496
M16
G05
G00X3.8583Y-2.811
M15
G01X3.8583Y-2.7795
M16
G05
G00X3.8583Y-3.4409
M15
G01X3.8583Y-3.4094
M16
G05
M30
