M48
; DRILL file {KiCad (5.1.5)-3} date 12/5/2020 8:34:49 PM
; FORMAT={-:-/ absolute / metric / decimal}
; #@! TF.CreationDate,2020-12-05T20:34:49-07:00
; #@! TF.GenerationSoftware,Kicad,Pcbnew,(5.1.5)-3
FMAT,2
METRIC
T1C0.400
T2C0.500
T3C0.762
T4C0.800
T5C0.900
T6C1.000
T7C1.300
T8C2.300
%
G90
G05
T1
X1.1Y-108.9
X1.25Y-1.15
X18.65Y-1.2
X18.65Y-108.8
X21.25Y-1.2
X22.1Y-63.5
X22.1Y-87.9
X25.35Y-55.9
X25.4Y-63.5
X25.45Y-75.75
X25.5Y-48.95
X26.55Y-108.7
X30.0Y-76.85
X33.25Y-50.6
X33.35Y-54.75
X33.9Y-82.4
X35.9Y-76.8
X37.85Y-66.55
X40.9Y-66.5
X41.8Y-78.05
X42.4Y-82.45
X46.7Y-47.7
X47.2Y-81.95
X48.909Y-96.81
X53.9Y-32.2
X56.35Y-80.55
X56.4Y-48.5
X63.05Y-49.9
X63.8Y-44.6
X73.35Y-26.95
X78.75Y-1.1
X78.75Y-108.9
X81.25Y-108.9
X81.35Y-1.1
X98.75Y-108.8
X98.85Y-1.1
T2
X35.46Y-88.73
X38.0Y-91.27
X40.54Y-88.73
X35.46Y-97.73
X38.0Y-100.27
X40.54Y-97.73
T3
X88.19Y-67.46
X88.19Y-70.0
X88.19Y-72.54
X90.73Y-67.46
X90.73Y-70.0
X90.73Y-72.54
X95.81Y-72.54
X95.84Y-67.46
T4
X28.0Y-19.0
X38.16Y-19.0
X60.0Y-94.0
X70.16Y-94.0
X28.0Y-39.0
X38.16Y-39.0
X60.0Y-89.0
X70.16Y-89.0
X30.0Y-98.0
X30.0Y-100.0
X76.0Y-88.38
X76.0Y-96.0
X59.0Y-7.84
X59.0Y-18.0
X48.75Y-79.0
X51.25Y-79.0
X59.0Y-23.0
X59.0Y-28.0
X28.0Y-4.0
X38.16Y-4.0
X54.0Y-107.0
X64.16Y-107.0
X28.0Y-29.0
X38.16Y-29.0
X60.0Y-59.0
X70.16Y-59.0
X48.75Y-50.0
X51.25Y-50.0
X89.0Y-96.84
X89.0Y-107.0
X48.75Y-28.0
X51.25Y-28.0
X28.0Y-44.0
X38.16Y-44.0
X28.0Y-34.0
X38.16Y-34.0
X91.0Y-78.0
X96.0Y-78.0
X58.0Y-100.0
X63.0Y-100.0
X28.0Y-9.0
X38.16Y-9.0
X76.0Y-78.38
X76.0Y-86.0
X69.0Y-34.92
X69.0Y-37.46
X69.0Y-40.0
X28.0Y-24.0
X38.16Y-24.0
X60.0Y-74.0
X70.16Y-74.0
X60.0Y-84.0
X70.16Y-84.0
X48.75Y-6.0
X51.25Y-6.0
X28.0Y-14.0
X38.16Y-14.0
X60.0Y-69.0
X70.16Y-69.0
X76.0Y-68.38
X76.0Y-76.0
X65.0Y-9.92
X65.0Y-12.46
X65.0Y-15.0
X46.19Y-57.0
X46.19Y-59.54
X46.19Y-62.08
X46.19Y-64.62
X46.19Y-67.16
X46.19Y-69.7
X46.19Y-72.24
X53.81Y-57.0
X53.81Y-59.54
X53.81Y-62.08
X53.81Y-64.62
X53.81Y-67.16
X53.81Y-69.7
X53.81Y-72.24
X28.0Y-69.0
X38.16Y-69.0
X28.0Y-59.0
X38.16Y-59.0
X60.0Y-54.0
X70.16Y-54.0
X28.0Y-84.0
X38.16Y-84.0
X27.84Y-107.0
X38.0Y-107.0
X76.0Y-58.38
X76.0Y-66.0
X46.19Y-86.0
X46.19Y-88.54
X46.19Y-91.08
X46.19Y-93.62
X46.19Y-96.16
X46.19Y-98.7
X46.19Y-101.24
X53.81Y-86.0
X53.81Y-88.54
X53.81Y-91.08
X53.81Y-93.62
X53.81Y-96.16
X53.81Y-98.7
X53.81Y-101.24
X46.19Y-35.0
X46.19Y-37.54
X46.19Y-40.08
X46.19Y-42.62
X53.81Y-35.0
X53.81Y-37.54
X53.81Y-40.08
X53.81Y-42.62
X91.0Y-60.0
X96.0Y-60.0
X41.0Y-107.0
X51.16Y-107.0
X28.0Y-49.0
X38.16Y-49.0
X28.0Y-74.0
X38.16Y-74.0
X58.0Y-48.0
X63.0Y-48.0
X60.0Y-64.0
X70.16Y-64.0
X58.0Y-4.0
X68.16Y-4.0
X71.0Y-7.0
X71.0Y-17.16
X43.0Y-25.0
X43.0Y-30.0
X28.0Y-64.0
X38.16Y-64.0
X76.0Y-7.04
X76.0Y-17.2
X28.0Y-79.0
X38.16Y-79.0
X60.0Y-79.0
X70.16Y-79.0
X60.45Y-32.44
X60.45Y-42.6
X69.0Y-44.92
X69.0Y-47.46
X69.0Y-50.0
X30.0Y-90.0
X30.0Y-92.0
X28.0Y-54.0
X38.16Y-54.0
X72.0Y-4.0
X77.0Y-4.0
X46.19Y-13.0
X46.19Y-15.54
X46.19Y-18.08
X46.19Y-20.62
X53.81Y-13.0
X53.81Y-15.54
X53.81Y-18.08
X53.81Y-20.62
T5
X95.46Y-102.0
X98.0Y-102.0
T6
X82.0Y-27.06
X82.0Y-29.6
X82.0Y-32.14
X82.0Y-34.68
X82.0Y-37.22
X82.0Y-39.76
X82.0Y-42.3
X82.0Y-44.84
X82.0Y-47.38
X82.0Y-49.92
X82.0Y-52.46
X82.0Y-55.0
X3.5Y-62.0
X3.5Y-64.5
X3.5Y-67.0
X22.0Y-44.76
X22.0Y-47.3
X22.0Y-49.84
X22.0Y-52.38
X22.0Y-54.92
X22.0Y-57.46
X22.0Y-60.0
X3.5Y-40.0
X3.5Y-42.5
X3.5Y-45.0
X18.0Y-40.0
X18.0Y-42.54
X18.0Y-45.08
X18.0Y-47.62
X18.0Y-50.16
X18.0Y-52.7
X18.0Y-55.24
X22.0Y-90.0
X22.0Y-92.54
X22.0Y-95.08
X22.0Y-97.62
X22.0Y-100.16
X22.0Y-102.7
X22.0Y-105.24
X22.0Y-107.78
X24.54Y-90.0
X24.54Y-92.54
X24.54Y-95.08
X24.54Y-97.62
X24.54Y-100.16
X24.54Y-102.7
X24.54Y-105.24
X24.54Y-107.78
X96.5Y-43.0
X96.5Y-45.5
X96.5Y-48.0
X78.0Y-27.06
X78.0Y-29.6
X78.0Y-32.14
X78.0Y-34.68
X78.0Y-37.22
X78.0Y-39.76
X78.0Y-42.3
X78.0Y-44.84
X78.0Y-47.38
X78.0Y-49.92
X78.0Y-52.46
X78.0Y-55.0
T7
X63.0Y-22.0
X63.0Y-27.0
X73.0Y-24.5
X67.5Y-102.5
X77.5Y-100.0
X77.5Y-105.0
T8
X93.2Y-40.5
X93.2Y-50.5
X6.8Y-59.5
X6.8Y-69.5
X6.8Y-37.5
X6.8Y-47.5
T1
G00X87.0Y-84.4
M15
G01X87.0Y-83.6
M16
G05
G00X90.6Y-93.2
M15
G01X89.8Y-93.2
M16
G05
G00X92.0Y-90.5
M15
G01X91.2Y-90.5
M16
G05
G00X95.0Y-83.5
M15
G01X94.2Y-83.5
M16
G05
G00X98.0Y-88.4
M15
G01X98.0Y-87.6
M16
G05
G00X2.0Y-21.6
M15
G01X2.0Y-22.4
M16
G05
G00X5.0Y-26.5
M15
G01X5.8Y-26.5
M16
G05
G00X8.0Y-19.5
M15
G01X8.8Y-19.5
M16
G05
G00X9.4Y-16.8
M15
G01X10.2Y-16.8
M16
G05
G00X13.0Y-25.6
M15
G01X13.0Y-26.4
M16
G05
G00X87.0Y-4.4
M15
G01X87.0Y-3.6
M16
G05
G00X90.6Y-13.2
M15
G01X89.8Y-13.2
M16
G05
G00X92.0Y-10.5
M15
G01X91.2Y-10.5
M16
G05
G00X95.0Y-3.5
M15
G01X94.2Y-3.5
M16
G05
G00X98.0Y-8.4
M15
G01X98.0Y-7.6
M16
G05
G00X87.0Y-19.4
M15
G01X87.0Y-18.6
M16
G05
G00X90.6Y-28.2
M15
G01X89.8Y-28.2
M16
G05
G00X92.0Y-25.5
M15
G01X91.2Y-25.5
M16
G05
G00X95.0Y-18.5
M15
G01X94.2Y-18.5
M16
G05
G00X98.0Y-23.4
M15
G01X98.0Y-22.6
M16
G05
G00X2.0Y-86.6
M15
G01X2.0Y-87.4
M16
G05
G00X5.0Y-91.5
M15
G01X5.8Y-91.5
M16
G05
G00X8.0Y-84.5
M15
G01X8.8Y-84.5
M16
G05
G00X9.4Y-81.8
M15
G01X10.2Y-81.8
M16
G05
G00X13.0Y-90.6
M15
G01X13.0Y-91.4
M16
G05
G00X2.0Y-101.6
M15
G01X2.0Y-102.4
M16
G05
G00X5.0Y-106.5
M15
G01X5.8Y-106.5
M16
G05
G00X8.0Y-99.5
M15
G01X8.8Y-99.5
M16
G05
G00X9.4Y-96.8
M15
G01X10.2Y-96.8
M16
G05
G00X13.0Y-105.6
M15
G01X13.0Y-106.4
M16
G05
T0
M30
