M48
; DRILL file {KiCad 9.0.0} date 2025-02-23T15:55:52-0700
; FORMAT={-:-/ absolute / inch / decimal}
; #@! TF.CreationDate,2025-02-23T15:55:52-07:00
; #@! TF.GenerationSoftware,Kicad,Pcbnew,9.0.0
; #@! TF.FileFunction,Plated,1,2,PTH
FMAT,2
INCH
; #@! TA.AperFunction,Plated,PTH,ViaDrill
T1C0.0157
; #@! TA.AperFunction,Plated,PTH,ComponentDrill
T2C0.0157
; #@! TA.AperFunction,Plated,PTH,ComponentDrill
T3C0.0300
; #@! TA.AperFunction,Plated,PTH,ComponentDrill
T4C0.0315
; #@! TA.AperFunction,Plated,PTH,ComponentDrill
T5C0.0354
; #@! TA.AperFunction,Plated,PTH,ComponentDrill
T6C0.0394
; #@! TA.AperFunction,Plated,PTH,ComponentDrill
T7C0.0512
; #@! TA.AperFunction,Plated,PTH,ComponentDrill
T8C0.0906
%
G90
G05
T1
X0.045Y-4.2875
X0.0475Y-0.045
X0.74Y-0.05
X0.74Y-4.285
X0.835Y-3.455
X0.8425Y-0.05
X1.1475Y-4.2575
X1.915Y-2.9225
X1.955Y-2.9175
X1.99Y-1.645
X1.9925Y-1.285
X1.9925Y-1.4575
X2.13Y-1.8575
X2.1435Y-1.5575
X2.305Y-0.0525
X2.4237Y-4.28
X2.5337Y-2.025
X2.5337Y-2.29
X3.0987Y-2.08
X3.0987Y-4.285
X3.1037Y-2.27
X3.1037Y-3.745
T3
X2.6846Y-2.9709
X2.6846Y-3.0709
X2.6846Y-3.1709
X2.7846Y-2.9709
X2.7846Y-3.0709
X2.7846Y-3.1709
X2.9846Y-3.1709
X2.9858Y-2.9709
T4
X0.5118Y-1.6929
X0.5118Y-1.9929
X0.5118Y-2.3622
X0.5118Y-2.7622
X0.5118Y-3.2283
X0.5118Y-3.6283
X0.9843Y-1.1811
X1.063Y-0.1575
X1.063Y-0.3543
X1.063Y-0.5843
X1.063Y-0.9843
X1.1024Y-1.4961
X1.1024Y-1.6929
X1.2205Y-3.5827
X1.2205Y-3.6614
X1.2205Y-3.8189
X1.2205Y-3.8976
X1.2598Y-0.6299
X1.2598Y-0.9843
X1.2598Y-1.8835
X1.2598Y-2.2835
X1.2598Y-2.4346
X1.2598Y-2.8346
X1.2598Y-2.9528
X1.2598Y-3.2528
X1.2843Y-1.1811
X1.2992Y-1.4961
X1.2992Y-1.6929
X1.3598Y-0.6299
X1.3598Y-0.9843
X1.411Y-1.1811
X1.4173Y-1.7717
X1.4173Y-1.8717
X1.4173Y-1.9717
X1.4173Y-2.0717
X1.4173Y-2.6378
X1.4173Y-2.7378
X1.4173Y-2.8378
X1.4173Y-2.9378
X1.4173Y-3.0378
X1.4173Y-3.1378
X1.4173Y-3.2378
X1.4567Y-4.2126
X1.4598Y-0.6299
X1.4598Y-0.9843
X1.463Y-0.1575
X1.463Y-0.3543
X1.4961Y-2.3622
X1.5157Y-1.5354
X1.5945Y-2.3622
X1.6142Y-1.5354
X1.6457Y-0.3543
X1.6472Y-0.1575
X1.6535Y-4.2126
X1.6929Y-0.6299
X1.6929Y-0.9843
X1.7173Y-1.7717
X1.7173Y-1.8717
X1.7173Y-1.9717
X1.7173Y-2.0717
X1.7173Y-2.6378
X1.7173Y-2.7378
X1.7173Y-2.8378
X1.7173Y-2.9378
X1.7173Y-3.0378
X1.7173Y-3.1378
X1.7173Y-3.2378
X1.7669Y-2.3622
X1.7717Y-2.2047
X1.7929Y-0.6299
X1.7929Y-0.9843
X1.811Y-1.1811
X1.8898Y-3.2283
X1.8898Y-3.4252
X1.8898Y-3.622
X1.8898Y-3.8189
X1.8898Y-4.0157
X1.8898Y-4.2126
X1.8929Y-0.6299
X1.8929Y-0.9843
X1.8953Y-3.0315
X1.9291Y-1.1811
X2.0457Y-0.3543
X2.0472Y-0.1575
X2.0669Y-2.3622
X2.0717Y-2.2047
X2.126Y-1.1811
X2.2898Y-3.2283
X2.2898Y-3.4252
X2.2898Y-3.622
X2.2898Y-3.8189
X2.2898Y-4.0157
X2.2898Y-4.2126
X2.2953Y-3.0315
X2.4803Y-3.7008
X2.4803Y-4.1008
X2.5197Y-0.1906
X2.5197Y-0.5906
X2.5197Y-0.978
X2.5197Y-1.378
X2.6772Y-3.7008
X2.6772Y-4.1008
T5
X2.9709Y-2.1654
X3.0709Y-2.1654
T6
X0.1378Y-1.1811
X0.1378Y-1.2795
X0.1378Y-1.378
X0.1378Y-1.9685
X0.1378Y-2.0669
X0.1378Y-2.1654
X0.1378Y-2.7559
X0.1378Y-2.8543
X0.1378Y-2.9528
X0.1378Y-3.5433
X0.1378Y-3.6417
X0.1378Y-3.7402
X0.7087Y-1.4567
X0.7087Y-1.5567
X0.7087Y-1.6567
X0.7087Y-1.7567
X0.7087Y-1.8567
X0.7087Y-1.9567
X0.7087Y-2.0567
X0.7087Y-2.1567
X0.7087Y-2.2567
X0.7087Y-2.3567
X0.7087Y-2.4567
X0.7087Y-2.5567
X0.8661Y-1.4567
X0.8661Y-1.5567
X0.8661Y-1.6567
X0.8661Y-1.7567
X0.8661Y-1.8567
X0.8661Y-1.9567
X0.8661Y-2.0567
X0.8661Y-2.1567
X0.8661Y-2.2567
X0.8661Y-2.3567
X0.8661Y-2.4567
X0.8661Y-2.5567
X0.8661Y-3.5433
X0.8661Y-3.6433
X0.8661Y-3.7433
X0.8661Y-3.8433
X0.8661Y-3.9433
X0.8661Y-4.0433
X0.8661Y-4.1433
X0.8661Y-4.2433
X0.9661Y-3.5433
X0.9661Y-3.6433
X0.9661Y-3.7433
X0.9661Y-3.8433
X0.9661Y-3.9433
X0.9661Y-4.0433
X0.9661Y-4.1433
X0.9661Y-4.2433
X2.2835Y-1.4567
X2.2835Y-1.5567
X2.2835Y-1.6567
X2.2835Y-1.7567
X2.2835Y-1.8567
X2.2835Y-1.9567
X2.2835Y-2.0567
X2.2835Y-2.1567
X2.2835Y-2.2567
X2.2835Y-2.3567
X2.2835Y-2.4567
X2.2835Y-2.5567
X2.4409Y-1.774
X2.4409Y-1.874
X2.4409Y-1.974
X2.4409Y-2.074
X2.4409Y-2.174
X2.4409Y-2.274
X2.4409Y-2.374
X2.4409Y-2.474
X2.4409Y-2.574
X2.4409Y-2.674
X2.4409Y-2.774
X2.4409Y-2.874
X3.0472Y-3.8484
X3.0472Y-4.0256
T7
X2.9488Y-3.7992
X2.9488Y-4.0748
T8
X0.2677Y-1.0827
X0.2677Y-1.4764
X0.2677Y-1.8701
X0.2677Y-2.2638
X0.2677Y-2.6575
X0.2677Y-3.0512
X0.2677Y-3.4449
X0.2677Y-3.8386
T2
G00X0.0787Y-0.378
M15
G01X0.0787Y-0.4094
M16
G05
G00X0.1969Y-0.5709
M15
G01X0.2283Y-0.5709
M16
G05
G00X0.315Y-0.2953
M15
G01X0.3465Y-0.2953
M16
G05
G00X0.3701Y-0.189
M15
G01X0.4016Y-0.189
M16
G05
G00X0.5118Y-0.5354
M15
G01X0.5118Y-0.5669
M16
G05
G00X2.6378Y-0.2126
M15
G01X2.6378Y-0.1811
M16
G05
G00X2.6378Y-0.9606
M15
G01X2.6378Y-0.9291
M16
G05
G00X2.7795Y-0.5591
M15
G01X2.748Y-0.5591
M16
G05
G00X2.7795Y-1.3071
M15
G01X2.748Y-1.3071
M16
G05
G00X2.8346Y-0.4528
M15
G01X2.8031Y-0.4528
M16
G05
G00X2.8346Y-1.2008
M15
G01X2.8031Y-1.2008
M16
G05
G00X2.9528Y-0.1772
M15
G01X2.9213Y-0.1772
M16
G05
G00X2.9528Y-0.9252
M15
G01X2.9213Y-0.9252
M16
G05
G00X3.0709Y-0.3701
M15
G01X3.0709Y-0.3386
M16
G05
G00X3.0709Y-1.1181
M15
G01X3.0709Y-1.0866
M16
G05
M30
