G04 #@! TF.GenerationSoftware,KiCad,Pcbnew,9.0.0*
G04 #@! TF.CreationDate,2025-02-23T15:48:18-07:00*
G04 #@! TF.ProjectId,Notch_Filter,4e6f7463-685f-4466-996c-7465722e6b69,rev?*
G04 #@! TF.SameCoordinates,Original*
G04 #@! TF.FileFunction,Legend,Top*
G04 #@! TF.FilePolarity,Positive*
%FSLAX46Y46*%
G04 Gerber Fmt 4.6, Leading zero omitted, Abs format (unit mm)*
G04 Created by KiCad (PCBNEW 9.0.0) date 2025-02-23 15:48:18*
%MOMM*%
%LPD*%
G01*
G04 APERTURE LIST*
%ADD10C,0.150000*%
%ADD11C,0.120000*%
G04 APERTURE END LIST*
D10*
X18833333Y-10609580D02*
X18785714Y-10657200D01*
X18785714Y-10657200D02*
X18642857Y-10704819D01*
X18642857Y-10704819D02*
X18547619Y-10704819D01*
X18547619Y-10704819D02*
X18404762Y-10657200D01*
X18404762Y-10657200D02*
X18309524Y-10561961D01*
X18309524Y-10561961D02*
X18261905Y-10466723D01*
X18261905Y-10466723D02*
X18214286Y-10276247D01*
X18214286Y-10276247D02*
X18214286Y-10133390D01*
X18214286Y-10133390D02*
X18261905Y-9942914D01*
X18261905Y-9942914D02*
X18309524Y-9847676D01*
X18309524Y-9847676D02*
X18404762Y-9752438D01*
X18404762Y-9752438D02*
X18547619Y-9704819D01*
X18547619Y-9704819D02*
X18642857Y-9704819D01*
X18642857Y-9704819D02*
X18785714Y-9752438D01*
X18785714Y-9752438D02*
X18833333Y-9800057D01*
X19785714Y-10704819D02*
X19214286Y-10704819D01*
X19500000Y-10704819D02*
X19500000Y-9704819D01*
X19500000Y-9704819D02*
X19404762Y-9847676D01*
X19404762Y-9847676D02*
X19309524Y-9942914D01*
X19309524Y-9942914D02*
X19214286Y-9990533D01*
X18833333Y-20609580D02*
X18785714Y-20657200D01*
X18785714Y-20657200D02*
X18642857Y-20704819D01*
X18642857Y-20704819D02*
X18547619Y-20704819D01*
X18547619Y-20704819D02*
X18404762Y-20657200D01*
X18404762Y-20657200D02*
X18309524Y-20561961D01*
X18309524Y-20561961D02*
X18261905Y-20466723D01*
X18261905Y-20466723D02*
X18214286Y-20276247D01*
X18214286Y-20276247D02*
X18214286Y-20133390D01*
X18214286Y-20133390D02*
X18261905Y-19942914D01*
X18261905Y-19942914D02*
X18309524Y-19847676D01*
X18309524Y-19847676D02*
X18404762Y-19752438D01*
X18404762Y-19752438D02*
X18547619Y-19704819D01*
X18547619Y-19704819D02*
X18642857Y-19704819D01*
X18642857Y-19704819D02*
X18785714Y-19752438D01*
X18785714Y-19752438D02*
X18833333Y-19800057D01*
X19214286Y-19800057D02*
X19261905Y-19752438D01*
X19261905Y-19752438D02*
X19357143Y-19704819D01*
X19357143Y-19704819D02*
X19595238Y-19704819D01*
X19595238Y-19704819D02*
X19690476Y-19752438D01*
X19690476Y-19752438D02*
X19738095Y-19800057D01*
X19738095Y-19800057D02*
X19785714Y-19895295D01*
X19785714Y-19895295D02*
X19785714Y-19990533D01*
X19785714Y-19990533D02*
X19738095Y-20133390D01*
X19738095Y-20133390D02*
X19166667Y-20704819D01*
X19166667Y-20704819D02*
X19785714Y-20704819D01*
X18833333Y-94609580D02*
X18785714Y-94657200D01*
X18785714Y-94657200D02*
X18642857Y-94704819D01*
X18642857Y-94704819D02*
X18547619Y-94704819D01*
X18547619Y-94704819D02*
X18404762Y-94657200D01*
X18404762Y-94657200D02*
X18309524Y-94561961D01*
X18309524Y-94561961D02*
X18261905Y-94466723D01*
X18261905Y-94466723D02*
X18214286Y-94276247D01*
X18214286Y-94276247D02*
X18214286Y-94133390D01*
X18214286Y-94133390D02*
X18261905Y-93942914D01*
X18261905Y-93942914D02*
X18309524Y-93847676D01*
X18309524Y-93847676D02*
X18404762Y-93752438D01*
X18404762Y-93752438D02*
X18547619Y-93704819D01*
X18547619Y-93704819D02*
X18642857Y-93704819D01*
X18642857Y-93704819D02*
X18785714Y-93752438D01*
X18785714Y-93752438D02*
X18833333Y-93800057D01*
X19166667Y-93704819D02*
X19785714Y-93704819D01*
X19785714Y-93704819D02*
X19452381Y-94085771D01*
X19452381Y-94085771D02*
X19595238Y-94085771D01*
X19595238Y-94085771D02*
X19690476Y-94133390D01*
X19690476Y-94133390D02*
X19738095Y-94181009D01*
X19738095Y-94181009D02*
X19785714Y-94276247D01*
X19785714Y-94276247D02*
X19785714Y-94514342D01*
X19785714Y-94514342D02*
X19738095Y-94609580D01*
X19738095Y-94609580D02*
X19690476Y-94657200D01*
X19690476Y-94657200D02*
X19595238Y-94704819D01*
X19595238Y-94704819D02*
X19309524Y-94704819D01*
X19309524Y-94704819D02*
X19214286Y-94657200D01*
X19214286Y-94657200D02*
X19166667Y-94609580D01*
X18822873Y-40861920D02*
X18775254Y-40909540D01*
X18775254Y-40909540D02*
X18632397Y-40957159D01*
X18632397Y-40957159D02*
X18537159Y-40957159D01*
X18537159Y-40957159D02*
X18394302Y-40909540D01*
X18394302Y-40909540D02*
X18299064Y-40814301D01*
X18299064Y-40814301D02*
X18251445Y-40719063D01*
X18251445Y-40719063D02*
X18203826Y-40528587D01*
X18203826Y-40528587D02*
X18203826Y-40385730D01*
X18203826Y-40385730D02*
X18251445Y-40195254D01*
X18251445Y-40195254D02*
X18299064Y-40100016D01*
X18299064Y-40100016D02*
X18394302Y-40004778D01*
X18394302Y-40004778D02*
X18537159Y-39957159D01*
X18537159Y-39957159D02*
X18632397Y-39957159D01*
X18632397Y-39957159D02*
X18775254Y-40004778D01*
X18775254Y-40004778D02*
X18822873Y-40052397D01*
X19680016Y-40290492D02*
X19680016Y-40957159D01*
X19441921Y-39909540D02*
X19203826Y-40623825D01*
X19203826Y-40623825D02*
X19822873Y-40623825D01*
X18830793Y-45648120D02*
X18783174Y-45695740D01*
X18783174Y-45695740D02*
X18640317Y-45743359D01*
X18640317Y-45743359D02*
X18545079Y-45743359D01*
X18545079Y-45743359D02*
X18402222Y-45695740D01*
X18402222Y-45695740D02*
X18306984Y-45600501D01*
X18306984Y-45600501D02*
X18259365Y-45505263D01*
X18259365Y-45505263D02*
X18211746Y-45314787D01*
X18211746Y-45314787D02*
X18211746Y-45171930D01*
X18211746Y-45171930D02*
X18259365Y-44981454D01*
X18259365Y-44981454D02*
X18306984Y-44886216D01*
X18306984Y-44886216D02*
X18402222Y-44790978D01*
X18402222Y-44790978D02*
X18545079Y-44743359D01*
X18545079Y-44743359D02*
X18640317Y-44743359D01*
X18640317Y-44743359D02*
X18783174Y-44790978D01*
X18783174Y-44790978D02*
X18830793Y-44838597D01*
X19735555Y-44743359D02*
X19259365Y-44743359D01*
X19259365Y-44743359D02*
X19211746Y-45219549D01*
X19211746Y-45219549D02*
X19259365Y-45171930D01*
X19259365Y-45171930D02*
X19354603Y-45124311D01*
X19354603Y-45124311D02*
X19592698Y-45124311D01*
X19592698Y-45124311D02*
X19687936Y-45171930D01*
X19687936Y-45171930D02*
X19735555Y-45219549D01*
X19735555Y-45219549D02*
X19783174Y-45314787D01*
X19783174Y-45314787D02*
X19783174Y-45552882D01*
X19783174Y-45552882D02*
X19735555Y-45648120D01*
X19735555Y-45648120D02*
X19687936Y-45695740D01*
X19687936Y-45695740D02*
X19592698Y-45743359D01*
X19592698Y-45743359D02*
X19354603Y-45743359D01*
X19354603Y-45743359D02*
X19259365Y-45695740D01*
X19259365Y-45695740D02*
X19211746Y-45648120D01*
X18830793Y-64617640D02*
X18783174Y-64665260D01*
X18783174Y-64665260D02*
X18640317Y-64712879D01*
X18640317Y-64712879D02*
X18545079Y-64712879D01*
X18545079Y-64712879D02*
X18402222Y-64665260D01*
X18402222Y-64665260D02*
X18306984Y-64570021D01*
X18306984Y-64570021D02*
X18259365Y-64474783D01*
X18259365Y-64474783D02*
X18211746Y-64284307D01*
X18211746Y-64284307D02*
X18211746Y-64141450D01*
X18211746Y-64141450D02*
X18259365Y-63950974D01*
X18259365Y-63950974D02*
X18306984Y-63855736D01*
X18306984Y-63855736D02*
X18402222Y-63760498D01*
X18402222Y-63760498D02*
X18545079Y-63712879D01*
X18545079Y-63712879D02*
X18640317Y-63712879D01*
X18640317Y-63712879D02*
X18783174Y-63760498D01*
X18783174Y-63760498D02*
X18830793Y-63808117D01*
X19687936Y-63712879D02*
X19497460Y-63712879D01*
X19497460Y-63712879D02*
X19402222Y-63760498D01*
X19402222Y-63760498D02*
X19354603Y-63808117D01*
X19354603Y-63808117D02*
X19259365Y-63950974D01*
X19259365Y-63950974D02*
X19211746Y-64141450D01*
X19211746Y-64141450D02*
X19211746Y-64522402D01*
X19211746Y-64522402D02*
X19259365Y-64617640D01*
X19259365Y-64617640D02*
X19306984Y-64665260D01*
X19306984Y-64665260D02*
X19402222Y-64712879D01*
X19402222Y-64712879D02*
X19592698Y-64712879D01*
X19592698Y-64712879D02*
X19687936Y-64665260D01*
X19687936Y-64665260D02*
X19735555Y-64617640D01*
X19735555Y-64617640D02*
X19783174Y-64522402D01*
X19783174Y-64522402D02*
X19783174Y-64284307D01*
X19783174Y-64284307D02*
X19735555Y-64189069D01*
X19735555Y-64189069D02*
X19687936Y-64141450D01*
X19687936Y-64141450D02*
X19592698Y-64093831D01*
X19592698Y-64093831D02*
X19402222Y-64093831D01*
X19402222Y-64093831D02*
X19306984Y-64141450D01*
X19306984Y-64141450D02*
X19259365Y-64189069D01*
X19259365Y-64189069D02*
X19211746Y-64284307D01*
X18828253Y-99632880D02*
X18780634Y-99680500D01*
X18780634Y-99680500D02*
X18637777Y-99728119D01*
X18637777Y-99728119D02*
X18542539Y-99728119D01*
X18542539Y-99728119D02*
X18399682Y-99680500D01*
X18399682Y-99680500D02*
X18304444Y-99585261D01*
X18304444Y-99585261D02*
X18256825Y-99490023D01*
X18256825Y-99490023D02*
X18209206Y-99299547D01*
X18209206Y-99299547D02*
X18209206Y-99156690D01*
X18209206Y-99156690D02*
X18256825Y-98966214D01*
X18256825Y-98966214D02*
X18304444Y-98870976D01*
X18304444Y-98870976D02*
X18399682Y-98775738D01*
X18399682Y-98775738D02*
X18542539Y-98728119D01*
X18542539Y-98728119D02*
X18637777Y-98728119D01*
X18637777Y-98728119D02*
X18780634Y-98775738D01*
X18780634Y-98775738D02*
X18828253Y-98823357D01*
X19161587Y-98728119D02*
X19828253Y-98728119D01*
X19828253Y-98728119D02*
X19399682Y-99728119D01*
X7985166Y-12368319D02*
X7985166Y-13082604D01*
X7985166Y-13082604D02*
X7937547Y-13225461D01*
X7937547Y-13225461D02*
X7842309Y-13320700D01*
X7842309Y-13320700D02*
X7699452Y-13368319D01*
X7699452Y-13368319D02*
X7604214Y-13368319D01*
X8985166Y-13368319D02*
X8413738Y-13368319D01*
X8699452Y-13368319D02*
X8699452Y-12368319D01*
X8699452Y-12368319D02*
X8604214Y-12511176D01*
X8604214Y-12511176D02*
X8508976Y-12606414D01*
X8508976Y-12606414D02*
X8413738Y-12654033D01*
X6504346Y-86698739D02*
X6504346Y-87413024D01*
X6504346Y-87413024D02*
X6456727Y-87555881D01*
X6456727Y-87555881D02*
X6361489Y-87651120D01*
X6361489Y-87651120D02*
X6218632Y-87698739D01*
X6218632Y-87698739D02*
X6123394Y-87698739D01*
X6932918Y-86793977D02*
X6980537Y-86746358D01*
X6980537Y-86746358D02*
X7075775Y-86698739D01*
X7075775Y-86698739D02*
X7313870Y-86698739D01*
X7313870Y-86698739D02*
X7409108Y-86746358D01*
X7409108Y-86746358D02*
X7456727Y-86793977D01*
X7456727Y-86793977D02*
X7504346Y-86889215D01*
X7504346Y-86889215D02*
X7504346Y-86984453D01*
X7504346Y-86984453D02*
X7456727Y-87127310D01*
X7456727Y-87127310D02*
X6885299Y-87698739D01*
X6885299Y-87698739D02*
X7504346Y-87698739D01*
X26396666Y-31784819D02*
X26396666Y-32499104D01*
X26396666Y-32499104D02*
X26349047Y-32641961D01*
X26349047Y-32641961D02*
X26253809Y-32737200D01*
X26253809Y-32737200D02*
X26110952Y-32784819D01*
X26110952Y-32784819D02*
X26015714Y-32784819D01*
X26777619Y-31784819D02*
X27396666Y-31784819D01*
X27396666Y-31784819D02*
X27063333Y-32165771D01*
X27063333Y-32165771D02*
X27206190Y-32165771D01*
X27206190Y-32165771D02*
X27301428Y-32213390D01*
X27301428Y-32213390D02*
X27349047Y-32261009D01*
X27349047Y-32261009D02*
X27396666Y-32356247D01*
X27396666Y-32356247D02*
X27396666Y-32594342D01*
X27396666Y-32594342D02*
X27349047Y-32689580D01*
X27349047Y-32689580D02*
X27301428Y-32737200D01*
X27301428Y-32737200D02*
X27206190Y-32784819D01*
X27206190Y-32784819D02*
X26920476Y-32784819D01*
X26920476Y-32784819D02*
X26825238Y-32737200D01*
X26825238Y-32737200D02*
X26777619Y-32689580D01*
X7985166Y-48868319D02*
X7985166Y-49582604D01*
X7985166Y-49582604D02*
X7937547Y-49725461D01*
X7937547Y-49725461D02*
X7842309Y-49820700D01*
X7842309Y-49820700D02*
X7699452Y-49868319D01*
X7699452Y-49868319D02*
X7604214Y-49868319D01*
X8889928Y-49201652D02*
X8889928Y-49868319D01*
X8651833Y-48820700D02*
X8413738Y-49534985D01*
X8413738Y-49534985D02*
X9032785Y-49534985D01*
X26904761Y-69050057D02*
X26809523Y-69002438D01*
X26809523Y-69002438D02*
X26714285Y-68907200D01*
X26714285Y-68907200D02*
X26571428Y-68764342D01*
X26571428Y-68764342D02*
X26476190Y-68716723D01*
X26476190Y-68716723D02*
X26380952Y-68716723D01*
X26428571Y-68954819D02*
X26333333Y-68907200D01*
X26333333Y-68907200D02*
X26238095Y-68811961D01*
X26238095Y-68811961D02*
X26190476Y-68621485D01*
X26190476Y-68621485D02*
X26190476Y-68288152D01*
X26190476Y-68288152D02*
X26238095Y-68097676D01*
X26238095Y-68097676D02*
X26333333Y-68002438D01*
X26333333Y-68002438D02*
X26428571Y-67954819D01*
X26428571Y-67954819D02*
X26619047Y-67954819D01*
X26619047Y-67954819D02*
X26714285Y-68002438D01*
X26714285Y-68002438D02*
X26809523Y-68097676D01*
X26809523Y-68097676D02*
X26857142Y-68288152D01*
X26857142Y-68288152D02*
X26857142Y-68621485D01*
X26857142Y-68621485D02*
X26809523Y-68811961D01*
X26809523Y-68811961D02*
X26714285Y-68907200D01*
X26714285Y-68907200D02*
X26619047Y-68954819D01*
X26619047Y-68954819D02*
X26428571Y-68954819D01*
X27809523Y-68954819D02*
X27238095Y-68954819D01*
X27523809Y-68954819D02*
X27523809Y-67954819D01*
X27523809Y-67954819D02*
X27428571Y-68097676D01*
X27428571Y-68097676D02*
X27333333Y-68192914D01*
X27333333Y-68192914D02*
X27238095Y-68240533D01*
X26912381Y-75087517D02*
X26817143Y-75039898D01*
X26817143Y-75039898D02*
X26721905Y-74944660D01*
X26721905Y-74944660D02*
X26579048Y-74801802D01*
X26579048Y-74801802D02*
X26483810Y-74754183D01*
X26483810Y-74754183D02*
X26388572Y-74754183D01*
X26436191Y-74992279D02*
X26340953Y-74944660D01*
X26340953Y-74944660D02*
X26245715Y-74849421D01*
X26245715Y-74849421D02*
X26198096Y-74658945D01*
X26198096Y-74658945D02*
X26198096Y-74325612D01*
X26198096Y-74325612D02*
X26245715Y-74135136D01*
X26245715Y-74135136D02*
X26340953Y-74039898D01*
X26340953Y-74039898D02*
X26436191Y-73992279D01*
X26436191Y-73992279D02*
X26626667Y-73992279D01*
X26626667Y-73992279D02*
X26721905Y-74039898D01*
X26721905Y-74039898D02*
X26817143Y-74135136D01*
X26817143Y-74135136D02*
X26864762Y-74325612D01*
X26864762Y-74325612D02*
X26864762Y-74658945D01*
X26864762Y-74658945D02*
X26817143Y-74849421D01*
X26817143Y-74849421D02*
X26721905Y-74944660D01*
X26721905Y-74944660D02*
X26626667Y-74992279D01*
X26626667Y-74992279D02*
X26436191Y-74992279D01*
X27245715Y-74087517D02*
X27293334Y-74039898D01*
X27293334Y-74039898D02*
X27388572Y-73992279D01*
X27388572Y-73992279D02*
X27626667Y-73992279D01*
X27626667Y-73992279D02*
X27721905Y-74039898D01*
X27721905Y-74039898D02*
X27769524Y-74087517D01*
X27769524Y-74087517D02*
X27817143Y-74182755D01*
X27817143Y-74182755D02*
X27817143Y-74277993D01*
X27817143Y-74277993D02*
X27769524Y-74420850D01*
X27769524Y-74420850D02*
X27198096Y-74992279D01*
X27198096Y-74992279D02*
X27817143Y-74992279D01*
X26904761Y-81050057D02*
X26809523Y-81002438D01*
X26809523Y-81002438D02*
X26714285Y-80907200D01*
X26714285Y-80907200D02*
X26571428Y-80764342D01*
X26571428Y-80764342D02*
X26476190Y-80716723D01*
X26476190Y-80716723D02*
X26380952Y-80716723D01*
X26428571Y-80954819D02*
X26333333Y-80907200D01*
X26333333Y-80907200D02*
X26238095Y-80811961D01*
X26238095Y-80811961D02*
X26190476Y-80621485D01*
X26190476Y-80621485D02*
X26190476Y-80288152D01*
X26190476Y-80288152D02*
X26238095Y-80097676D01*
X26238095Y-80097676D02*
X26333333Y-80002438D01*
X26333333Y-80002438D02*
X26428571Y-79954819D01*
X26428571Y-79954819D02*
X26619047Y-79954819D01*
X26619047Y-79954819D02*
X26714285Y-80002438D01*
X26714285Y-80002438D02*
X26809523Y-80097676D01*
X26809523Y-80097676D02*
X26857142Y-80288152D01*
X26857142Y-80288152D02*
X26857142Y-80621485D01*
X26857142Y-80621485D02*
X26809523Y-80811961D01*
X26809523Y-80811961D02*
X26714285Y-80907200D01*
X26714285Y-80907200D02*
X26619047Y-80954819D01*
X26619047Y-80954819D02*
X26428571Y-80954819D01*
X27190476Y-79954819D02*
X27809523Y-79954819D01*
X27809523Y-79954819D02*
X27476190Y-80335771D01*
X27476190Y-80335771D02*
X27619047Y-80335771D01*
X27619047Y-80335771D02*
X27714285Y-80383390D01*
X27714285Y-80383390D02*
X27761904Y-80431009D01*
X27761904Y-80431009D02*
X27809523Y-80526247D01*
X27809523Y-80526247D02*
X27809523Y-80764342D01*
X27809523Y-80764342D02*
X27761904Y-80859580D01*
X27761904Y-80859580D02*
X27714285Y-80907200D01*
X27714285Y-80907200D02*
X27619047Y-80954819D01*
X27619047Y-80954819D02*
X27333333Y-80954819D01*
X27333333Y-80954819D02*
X27238095Y-80907200D01*
X27238095Y-80907200D02*
X27190476Y-80859580D01*
X18833333Y-15754819D02*
X18500000Y-15278628D01*
X18261905Y-15754819D02*
X18261905Y-14754819D01*
X18261905Y-14754819D02*
X18642857Y-14754819D01*
X18642857Y-14754819D02*
X18738095Y-14802438D01*
X18738095Y-14802438D02*
X18785714Y-14850057D01*
X18785714Y-14850057D02*
X18833333Y-14945295D01*
X18833333Y-14945295D02*
X18833333Y-15088152D01*
X18833333Y-15088152D02*
X18785714Y-15183390D01*
X18785714Y-15183390D02*
X18738095Y-15231009D01*
X18738095Y-15231009D02*
X18642857Y-15278628D01*
X18642857Y-15278628D02*
X18261905Y-15278628D01*
X19785714Y-15754819D02*
X19214286Y-15754819D01*
X19500000Y-15754819D02*
X19500000Y-14754819D01*
X19500000Y-14754819D02*
X19404762Y-14897676D01*
X19404762Y-14897676D02*
X19309524Y-14992914D01*
X19309524Y-14992914D02*
X19214286Y-15040533D01*
X18833333Y-25754819D02*
X18500000Y-25278628D01*
X18261905Y-25754819D02*
X18261905Y-24754819D01*
X18261905Y-24754819D02*
X18642857Y-24754819D01*
X18642857Y-24754819D02*
X18738095Y-24802438D01*
X18738095Y-24802438D02*
X18785714Y-24850057D01*
X18785714Y-24850057D02*
X18833333Y-24945295D01*
X18833333Y-24945295D02*
X18833333Y-25088152D01*
X18833333Y-25088152D02*
X18785714Y-25183390D01*
X18785714Y-25183390D02*
X18738095Y-25231009D01*
X18738095Y-25231009D02*
X18642857Y-25278628D01*
X18642857Y-25278628D02*
X18261905Y-25278628D01*
X19214286Y-24850057D02*
X19261905Y-24802438D01*
X19261905Y-24802438D02*
X19357143Y-24754819D01*
X19357143Y-24754819D02*
X19595238Y-24754819D01*
X19595238Y-24754819D02*
X19690476Y-24802438D01*
X19690476Y-24802438D02*
X19738095Y-24850057D01*
X19738095Y-24850057D02*
X19785714Y-24945295D01*
X19785714Y-24945295D02*
X19785714Y-25040533D01*
X19785714Y-25040533D02*
X19738095Y-25183390D01*
X19738095Y-25183390D02*
X19166667Y-25754819D01*
X19166667Y-25754819D02*
X19785714Y-25754819D01*
X18833333Y-1154819D02*
X18500000Y-678628D01*
X18261905Y-1154819D02*
X18261905Y-154819D01*
X18261905Y-154819D02*
X18642857Y-154819D01*
X18642857Y-154819D02*
X18738095Y-202438D01*
X18738095Y-202438D02*
X18785714Y-250057D01*
X18785714Y-250057D02*
X18833333Y-345295D01*
X18833333Y-345295D02*
X18833333Y-488152D01*
X18833333Y-488152D02*
X18785714Y-583390D01*
X18785714Y-583390D02*
X18738095Y-631009D01*
X18738095Y-631009D02*
X18642857Y-678628D01*
X18642857Y-678628D02*
X18261905Y-678628D01*
X19166667Y-154819D02*
X19785714Y-154819D01*
X19785714Y-154819D02*
X19452381Y-535771D01*
X19452381Y-535771D02*
X19595238Y-535771D01*
X19595238Y-535771D02*
X19690476Y-583390D01*
X19690476Y-583390D02*
X19738095Y-631009D01*
X19738095Y-631009D02*
X19785714Y-726247D01*
X19785714Y-726247D02*
X19785714Y-964342D01*
X19785714Y-964342D02*
X19738095Y-1059580D01*
X19738095Y-1059580D02*
X19690476Y-1107200D01*
X19690476Y-1107200D02*
X19595238Y-1154819D01*
X19595238Y-1154819D02*
X19309524Y-1154819D01*
X19309524Y-1154819D02*
X19214286Y-1107200D01*
X19214286Y-1107200D02*
X19166667Y-1059580D01*
X18833333Y-30754819D02*
X18500000Y-30278628D01*
X18261905Y-30754819D02*
X18261905Y-29754819D01*
X18261905Y-29754819D02*
X18642857Y-29754819D01*
X18642857Y-29754819D02*
X18738095Y-29802438D01*
X18738095Y-29802438D02*
X18785714Y-29850057D01*
X18785714Y-29850057D02*
X18833333Y-29945295D01*
X18833333Y-29945295D02*
X18833333Y-30088152D01*
X18833333Y-30088152D02*
X18785714Y-30183390D01*
X18785714Y-30183390D02*
X18738095Y-30231009D01*
X18738095Y-30231009D02*
X18642857Y-30278628D01*
X18642857Y-30278628D02*
X18261905Y-30278628D01*
X19690476Y-30088152D02*
X19690476Y-30754819D01*
X19452381Y-29707200D02*
X19214286Y-30421485D01*
X19214286Y-30421485D02*
X19833333Y-30421485D01*
X18833333Y-84754819D02*
X18500000Y-84278628D01*
X18261905Y-84754819D02*
X18261905Y-83754819D01*
X18261905Y-83754819D02*
X18642857Y-83754819D01*
X18642857Y-83754819D02*
X18738095Y-83802438D01*
X18738095Y-83802438D02*
X18785714Y-83850057D01*
X18785714Y-83850057D02*
X18833333Y-83945295D01*
X18833333Y-83945295D02*
X18833333Y-84088152D01*
X18833333Y-84088152D02*
X18785714Y-84183390D01*
X18785714Y-84183390D02*
X18738095Y-84231009D01*
X18738095Y-84231009D02*
X18642857Y-84278628D01*
X18642857Y-84278628D02*
X18261905Y-84278628D01*
X19738095Y-83754819D02*
X19261905Y-83754819D01*
X19261905Y-83754819D02*
X19214286Y-84231009D01*
X19214286Y-84231009D02*
X19261905Y-84183390D01*
X19261905Y-84183390D02*
X19357143Y-84135771D01*
X19357143Y-84135771D02*
X19595238Y-84135771D01*
X19595238Y-84135771D02*
X19690476Y-84183390D01*
X19690476Y-84183390D02*
X19738095Y-84231009D01*
X19738095Y-84231009D02*
X19785714Y-84326247D01*
X19785714Y-84326247D02*
X19785714Y-84564342D01*
X19785714Y-84564342D02*
X19738095Y-84659580D01*
X19738095Y-84659580D02*
X19690476Y-84707200D01*
X19690476Y-84707200D02*
X19595238Y-84754819D01*
X19595238Y-84754819D02*
X19357143Y-84754819D01*
X19357143Y-84754819D02*
X19261905Y-84707200D01*
X19261905Y-84707200D02*
X19214286Y-84659580D01*
X18833333Y-69754819D02*
X18500000Y-69278628D01*
X18261905Y-69754819D02*
X18261905Y-68754819D01*
X18261905Y-68754819D02*
X18642857Y-68754819D01*
X18642857Y-68754819D02*
X18738095Y-68802438D01*
X18738095Y-68802438D02*
X18785714Y-68850057D01*
X18785714Y-68850057D02*
X18833333Y-68945295D01*
X18833333Y-68945295D02*
X18833333Y-69088152D01*
X18833333Y-69088152D02*
X18785714Y-69183390D01*
X18785714Y-69183390D02*
X18738095Y-69231009D01*
X18738095Y-69231009D02*
X18642857Y-69278628D01*
X18642857Y-69278628D02*
X18261905Y-69278628D01*
X19690476Y-68754819D02*
X19500000Y-68754819D01*
X19500000Y-68754819D02*
X19404762Y-68802438D01*
X19404762Y-68802438D02*
X19357143Y-68850057D01*
X19357143Y-68850057D02*
X19261905Y-68992914D01*
X19261905Y-68992914D02*
X19214286Y-69183390D01*
X19214286Y-69183390D02*
X19214286Y-69564342D01*
X19214286Y-69564342D02*
X19261905Y-69659580D01*
X19261905Y-69659580D02*
X19309524Y-69707200D01*
X19309524Y-69707200D02*
X19404762Y-69754819D01*
X19404762Y-69754819D02*
X19595238Y-69754819D01*
X19595238Y-69754819D02*
X19690476Y-69707200D01*
X19690476Y-69707200D02*
X19738095Y-69659580D01*
X19738095Y-69659580D02*
X19785714Y-69564342D01*
X19785714Y-69564342D02*
X19785714Y-69326247D01*
X19785714Y-69326247D02*
X19738095Y-69231009D01*
X19738095Y-69231009D02*
X19690476Y-69183390D01*
X19690476Y-69183390D02*
X19595238Y-69135771D01*
X19595238Y-69135771D02*
X19404762Y-69135771D01*
X19404762Y-69135771D02*
X19309524Y-69183390D01*
X19309524Y-69183390D02*
X19261905Y-69231009D01*
X19261905Y-69231009D02*
X19214286Y-69326247D01*
X18833033Y-35900019D02*
X18499700Y-35423828D01*
X18261605Y-35900019D02*
X18261605Y-34900019D01*
X18261605Y-34900019D02*
X18642557Y-34900019D01*
X18642557Y-34900019D02*
X18737795Y-34947638D01*
X18737795Y-34947638D02*
X18785414Y-34995257D01*
X18785414Y-34995257D02*
X18833033Y-35090495D01*
X18833033Y-35090495D02*
X18833033Y-35233352D01*
X18833033Y-35233352D02*
X18785414Y-35328590D01*
X18785414Y-35328590D02*
X18737795Y-35376209D01*
X18737795Y-35376209D02*
X18642557Y-35423828D01*
X18642557Y-35423828D02*
X18261605Y-35423828D01*
X19166367Y-34900019D02*
X19833033Y-34900019D01*
X19833033Y-34900019D02*
X19404462Y-35900019D01*
X18833333Y-89754819D02*
X18500000Y-89278628D01*
X18261905Y-89754819D02*
X18261905Y-88754819D01*
X18261905Y-88754819D02*
X18642857Y-88754819D01*
X18642857Y-88754819D02*
X18738095Y-88802438D01*
X18738095Y-88802438D02*
X18785714Y-88850057D01*
X18785714Y-88850057D02*
X18833333Y-88945295D01*
X18833333Y-88945295D02*
X18833333Y-89088152D01*
X18833333Y-89088152D02*
X18785714Y-89183390D01*
X18785714Y-89183390D02*
X18738095Y-89231009D01*
X18738095Y-89231009D02*
X18642857Y-89278628D01*
X18642857Y-89278628D02*
X18261905Y-89278628D01*
X19404762Y-89183390D02*
X19309524Y-89135771D01*
X19309524Y-89135771D02*
X19261905Y-89088152D01*
X19261905Y-89088152D02*
X19214286Y-88992914D01*
X19214286Y-88992914D02*
X19214286Y-88945295D01*
X19214286Y-88945295D02*
X19261905Y-88850057D01*
X19261905Y-88850057D02*
X19309524Y-88802438D01*
X19309524Y-88802438D02*
X19404762Y-88754819D01*
X19404762Y-88754819D02*
X19595238Y-88754819D01*
X19595238Y-88754819D02*
X19690476Y-88802438D01*
X19690476Y-88802438D02*
X19738095Y-88850057D01*
X19738095Y-88850057D02*
X19785714Y-88945295D01*
X19785714Y-88945295D02*
X19785714Y-88992914D01*
X19785714Y-88992914D02*
X19738095Y-89088152D01*
X19738095Y-89088152D02*
X19690476Y-89135771D01*
X19690476Y-89135771D02*
X19595238Y-89183390D01*
X19595238Y-89183390D02*
X19404762Y-89183390D01*
X19404762Y-89183390D02*
X19309524Y-89231009D01*
X19309524Y-89231009D02*
X19261905Y-89278628D01*
X19261905Y-89278628D02*
X19214286Y-89373866D01*
X19214286Y-89373866D02*
X19214286Y-89564342D01*
X19214286Y-89564342D02*
X19261905Y-89659580D01*
X19261905Y-89659580D02*
X19309524Y-89707200D01*
X19309524Y-89707200D02*
X19404762Y-89754819D01*
X19404762Y-89754819D02*
X19595238Y-89754819D01*
X19595238Y-89754819D02*
X19690476Y-89707200D01*
X19690476Y-89707200D02*
X19738095Y-89659580D01*
X19738095Y-89659580D02*
X19785714Y-89564342D01*
X19785714Y-89564342D02*
X19785714Y-89373866D01*
X19785714Y-89373866D02*
X19738095Y-89278628D01*
X19738095Y-89278628D02*
X19690476Y-89231009D01*
X19690476Y-89231009D02*
X19595238Y-89183390D01*
X18828253Y-74862739D02*
X18494920Y-74386548D01*
X18256825Y-74862739D02*
X18256825Y-73862739D01*
X18256825Y-73862739D02*
X18637777Y-73862739D01*
X18637777Y-73862739D02*
X18733015Y-73910358D01*
X18733015Y-73910358D02*
X18780634Y-73957977D01*
X18780634Y-73957977D02*
X18828253Y-74053215D01*
X18828253Y-74053215D02*
X18828253Y-74196072D01*
X18828253Y-74196072D02*
X18780634Y-74291310D01*
X18780634Y-74291310D02*
X18733015Y-74338929D01*
X18733015Y-74338929D02*
X18637777Y-74386548D01*
X18637777Y-74386548D02*
X18256825Y-74386548D01*
X19304444Y-74862739D02*
X19494920Y-74862739D01*
X19494920Y-74862739D02*
X19590158Y-74815120D01*
X19590158Y-74815120D02*
X19637777Y-74767500D01*
X19637777Y-74767500D02*
X19733015Y-74624643D01*
X19733015Y-74624643D02*
X19780634Y-74434167D01*
X19780634Y-74434167D02*
X19780634Y-74053215D01*
X19780634Y-74053215D02*
X19733015Y-73957977D01*
X19733015Y-73957977D02*
X19685396Y-73910358D01*
X19685396Y-73910358D02*
X19590158Y-73862739D01*
X19590158Y-73862739D02*
X19399682Y-73862739D01*
X19399682Y-73862739D02*
X19304444Y-73910358D01*
X19304444Y-73910358D02*
X19256825Y-73957977D01*
X19256825Y-73957977D02*
X19209206Y-74053215D01*
X19209206Y-74053215D02*
X19209206Y-74291310D01*
X19209206Y-74291310D02*
X19256825Y-74386548D01*
X19256825Y-74386548D02*
X19304444Y-74434167D01*
X19304444Y-74434167D02*
X19399682Y-74481786D01*
X19399682Y-74481786D02*
X19590158Y-74481786D01*
X19590158Y-74481786D02*
X19685396Y-74434167D01*
X19685396Y-74434167D02*
X19733015Y-74386548D01*
X19733015Y-74386548D02*
X19780634Y-74291310D01*
X18357142Y-79733199D02*
X18023809Y-79257008D01*
X17785714Y-79733199D02*
X17785714Y-78733199D01*
X17785714Y-78733199D02*
X18166666Y-78733199D01*
X18166666Y-78733199D02*
X18261904Y-78780818D01*
X18261904Y-78780818D02*
X18309523Y-78828437D01*
X18309523Y-78828437D02*
X18357142Y-78923675D01*
X18357142Y-78923675D02*
X18357142Y-79066532D01*
X18357142Y-79066532D02*
X18309523Y-79161770D01*
X18309523Y-79161770D02*
X18261904Y-79209389D01*
X18261904Y-79209389D02*
X18166666Y-79257008D01*
X18166666Y-79257008D02*
X17785714Y-79257008D01*
X19309523Y-79733199D02*
X18738095Y-79733199D01*
X19023809Y-79733199D02*
X19023809Y-78733199D01*
X19023809Y-78733199D02*
X18928571Y-78876056D01*
X18928571Y-78876056D02*
X18833333Y-78971294D01*
X18833333Y-78971294D02*
X18738095Y-79018913D01*
X19928571Y-78733199D02*
X20023809Y-78733199D01*
X20023809Y-78733199D02*
X20119047Y-78780818D01*
X20119047Y-78780818D02*
X20166666Y-78828437D01*
X20166666Y-78828437D02*
X20214285Y-78923675D01*
X20214285Y-78923675D02*
X20261904Y-79114151D01*
X20261904Y-79114151D02*
X20261904Y-79352246D01*
X20261904Y-79352246D02*
X20214285Y-79542722D01*
X20214285Y-79542722D02*
X20166666Y-79637960D01*
X20166666Y-79637960D02*
X20119047Y-79685580D01*
X20119047Y-79685580D02*
X20023809Y-79733199D01*
X20023809Y-79733199D02*
X19928571Y-79733199D01*
X19928571Y-79733199D02*
X19833333Y-79685580D01*
X19833333Y-79685580D02*
X19785714Y-79637960D01*
X19785714Y-79637960D02*
X19738095Y-79542722D01*
X19738095Y-79542722D02*
X19690476Y-79352246D01*
X19690476Y-79352246D02*
X19690476Y-79114151D01*
X19690476Y-79114151D02*
X19738095Y-78923675D01*
X19738095Y-78923675D02*
X19785714Y-78828437D01*
X19785714Y-78828437D02*
X19833333Y-78780818D01*
X19833333Y-78780818D02*
X19928571Y-78733199D01*
X18235255Y-57343459D02*
X18235255Y-58152982D01*
X18235255Y-58152982D02*
X18282874Y-58248220D01*
X18282874Y-58248220D02*
X18330493Y-58295840D01*
X18330493Y-58295840D02*
X18425731Y-58343459D01*
X18425731Y-58343459D02*
X18616207Y-58343459D01*
X18616207Y-58343459D02*
X18711445Y-58295840D01*
X18711445Y-58295840D02*
X18759064Y-58248220D01*
X18759064Y-58248220D02*
X18806683Y-58152982D01*
X18806683Y-58152982D02*
X18806683Y-57343459D01*
X19806683Y-58343459D02*
X19235255Y-58343459D01*
X19520969Y-58343459D02*
X19520969Y-57343459D01*
X19520969Y-57343459D02*
X19425731Y-57486316D01*
X19425731Y-57486316D02*
X19330493Y-57581554D01*
X19330493Y-57581554D02*
X19235255Y-57629173D01*
X26960641Y-87016397D02*
X26865403Y-86968778D01*
X26865403Y-86968778D02*
X26770165Y-86873540D01*
X26770165Y-86873540D02*
X26627308Y-86730682D01*
X26627308Y-86730682D02*
X26532070Y-86683063D01*
X26532070Y-86683063D02*
X26436832Y-86683063D01*
X26484451Y-86921159D02*
X26389213Y-86873540D01*
X26389213Y-86873540D02*
X26293975Y-86778301D01*
X26293975Y-86778301D02*
X26246356Y-86587825D01*
X26246356Y-86587825D02*
X26246356Y-86254492D01*
X26246356Y-86254492D02*
X26293975Y-86064016D01*
X26293975Y-86064016D02*
X26389213Y-85968778D01*
X26389213Y-85968778D02*
X26484451Y-85921159D01*
X26484451Y-85921159D02*
X26674927Y-85921159D01*
X26674927Y-85921159D02*
X26770165Y-85968778D01*
X26770165Y-85968778D02*
X26865403Y-86064016D01*
X26865403Y-86064016D02*
X26913022Y-86254492D01*
X26913022Y-86254492D02*
X26913022Y-86587825D01*
X26913022Y-86587825D02*
X26865403Y-86778301D01*
X26865403Y-86778301D02*
X26770165Y-86873540D01*
X26770165Y-86873540D02*
X26674927Y-86921159D01*
X26674927Y-86921159D02*
X26484451Y-86921159D01*
X27770165Y-86254492D02*
X27770165Y-86921159D01*
X27532070Y-85873540D02*
X27293975Y-86587825D01*
X27293975Y-86587825D02*
X27913022Y-86587825D01*
X4104761Y-30504819D02*
X3771428Y-30028628D01*
X3533333Y-30504819D02*
X3533333Y-29504819D01*
X3533333Y-29504819D02*
X3914285Y-29504819D01*
X3914285Y-29504819D02*
X4009523Y-29552438D01*
X4009523Y-29552438D02*
X4057142Y-29600057D01*
X4057142Y-29600057D02*
X4104761Y-29695295D01*
X4104761Y-29695295D02*
X4104761Y-29838152D01*
X4104761Y-29838152D02*
X4057142Y-29933390D01*
X4057142Y-29933390D02*
X4009523Y-29981009D01*
X4009523Y-29981009D02*
X3914285Y-30028628D01*
X3914285Y-30028628D02*
X3533333Y-30028628D01*
X4390476Y-29504819D02*
X4723809Y-30504819D01*
X4723809Y-30504819D02*
X5057142Y-29504819D01*
X5914285Y-30504819D02*
X5342857Y-30504819D01*
X5628571Y-30504819D02*
X5628571Y-29504819D01*
X5628571Y-29504819D02*
X5533333Y-29647676D01*
X5533333Y-29647676D02*
X5438095Y-29742914D01*
X5438095Y-29742914D02*
X5342857Y-29790533D01*
X4104761Y-66504819D02*
X3771428Y-66028628D01*
X3533333Y-66504819D02*
X3533333Y-65504819D01*
X3533333Y-65504819D02*
X3914285Y-65504819D01*
X3914285Y-65504819D02*
X4009523Y-65552438D01*
X4009523Y-65552438D02*
X4057142Y-65600057D01*
X4057142Y-65600057D02*
X4104761Y-65695295D01*
X4104761Y-65695295D02*
X4104761Y-65838152D01*
X4104761Y-65838152D02*
X4057142Y-65933390D01*
X4057142Y-65933390D02*
X4009523Y-65981009D01*
X4009523Y-65981009D02*
X3914285Y-66028628D01*
X3914285Y-66028628D02*
X3533333Y-66028628D01*
X4390476Y-65504819D02*
X4723809Y-66504819D01*
X4723809Y-66504819D02*
X5057142Y-65504819D01*
X5342857Y-65600057D02*
X5390476Y-65552438D01*
X5390476Y-65552438D02*
X5485714Y-65504819D01*
X5485714Y-65504819D02*
X5723809Y-65504819D01*
X5723809Y-65504819D02*
X5819047Y-65552438D01*
X5819047Y-65552438D02*
X5866666Y-65600057D01*
X5866666Y-65600057D02*
X5914285Y-65695295D01*
X5914285Y-65695295D02*
X5914285Y-65790533D01*
X5914285Y-65790533D02*
X5866666Y-65933390D01*
X5866666Y-65933390D02*
X5295238Y-66504819D01*
X5295238Y-66504819D02*
X5914285Y-66504819D01*
X4104761Y-83504819D02*
X3771428Y-83028628D01*
X3533333Y-83504819D02*
X3533333Y-82504819D01*
X3533333Y-82504819D02*
X3914285Y-82504819D01*
X3914285Y-82504819D02*
X4009523Y-82552438D01*
X4009523Y-82552438D02*
X4057142Y-82600057D01*
X4057142Y-82600057D02*
X4104761Y-82695295D01*
X4104761Y-82695295D02*
X4104761Y-82838152D01*
X4104761Y-82838152D02*
X4057142Y-82933390D01*
X4057142Y-82933390D02*
X4009523Y-82981009D01*
X4009523Y-82981009D02*
X3914285Y-83028628D01*
X3914285Y-83028628D02*
X3533333Y-83028628D01*
X4390476Y-82504819D02*
X4723809Y-83504819D01*
X4723809Y-83504819D02*
X5057142Y-82504819D01*
X5295238Y-82504819D02*
X5914285Y-82504819D01*
X5914285Y-82504819D02*
X5580952Y-82885771D01*
X5580952Y-82885771D02*
X5723809Y-82885771D01*
X5723809Y-82885771D02*
X5819047Y-82933390D01*
X5819047Y-82933390D02*
X5866666Y-82981009D01*
X5866666Y-82981009D02*
X5914285Y-83076247D01*
X5914285Y-83076247D02*
X5914285Y-83314342D01*
X5914285Y-83314342D02*
X5866666Y-83409580D01*
X5866666Y-83409580D02*
X5819047Y-83457200D01*
X5819047Y-83457200D02*
X5723809Y-83504819D01*
X5723809Y-83504819D02*
X5438095Y-83504819D01*
X5438095Y-83504819D02*
X5342857Y-83457200D01*
X5342857Y-83457200D02*
X5295238Y-83409580D01*
D11*
X20000000Y-6520000D02*
X18000000Y-6520000D01*
X18000000Y-9480000D02*
X20000000Y-9480000D01*
X18000000Y-19480000D02*
X20000000Y-19480000D01*
X20000000Y-16520000D02*
X18000000Y-16520000D01*
X18000000Y-93480000D02*
X20000000Y-93480000D01*
X20000000Y-90520000D02*
X18000000Y-90520000D01*
X18000000Y-39480000D02*
X20000000Y-39480000D01*
X20000000Y-36520000D02*
X18000000Y-36520000D01*
X20000000Y-41520000D02*
X18000000Y-41520000D01*
X18000000Y-44480000D02*
X20000000Y-44480000D01*
X20000000Y-60520000D02*
X18000000Y-60520000D01*
X18000000Y-63480000D02*
X20000000Y-63480000D01*
X20000000Y-95520000D02*
X18000000Y-95520000D01*
X18000000Y-98480000D02*
X20000000Y-98480000D01*
D10*
X0Y-4700000D02*
X-3500000Y-4700000D01*
X0Y-8300000D02*
X-3500000Y-8300000D01*
X0Y-500000D02*
X14000000Y-500000D01*
X0Y-12000000D02*
X0Y-500000D01*
X-3500000Y-4700000D02*
X-3500000Y-8300000D01*
X14000000Y-500000D02*
X14000000Y-12000000D01*
X14000000Y-12000000D02*
X0Y-12000000D01*
X0Y-92200000D02*
X-3500000Y-92200000D01*
X0Y-99500000D02*
X0Y-88000000D01*
X0Y-88000000D02*
X14000000Y-88000000D01*
X0Y-95800000D02*
X-3500000Y-95800000D01*
X-3500000Y-92200000D02*
X-3500000Y-95800000D01*
X14000000Y-99500000D02*
X0Y-99500000D01*
X14000000Y-88000000D02*
X14000000Y-99500000D01*
D11*
X24130000Y-31330000D02*
X24130000Y-10890000D01*
X29330000Y-10890000D02*
X24130000Y-10890000D01*
X26730000Y-28730000D02*
X26730000Y-31330000D01*
X26730000Y-31330000D02*
X24130000Y-31330000D01*
X29330000Y-28730000D02*
X26730000Y-28730000D01*
X29330000Y-30000000D02*
X29330000Y-31330000D01*
X29330000Y-28730000D02*
X29330000Y-10890000D01*
X29330000Y-31330000D02*
X28000000Y-31330000D01*
D10*
X0Y-44800000D02*
X-3500000Y-44800000D01*
X14000000Y-37000000D02*
X14000000Y-48500000D01*
X14000000Y-48500000D02*
X0Y-48500000D01*
X0Y-37000000D02*
X14000000Y-37000000D01*
X0Y-41200000D02*
X-3500000Y-41200000D01*
X-3500000Y-41200000D02*
X-3500000Y-44800000D01*
X0Y-48500000D02*
X0Y-37000000D01*
D11*
X26240000Y-67580000D02*
X26240000Y-66650000D01*
X26240000Y-64420000D02*
X26240000Y-65350000D01*
X26240000Y-64420000D02*
X27700000Y-64420000D01*
X26240000Y-67580000D02*
X28400000Y-67580000D01*
X28580000Y-72760000D02*
X28580000Y-70600000D01*
X25420000Y-72760000D02*
X26350000Y-72760000D01*
X25420000Y-72760000D02*
X25420000Y-71300000D01*
X28580000Y-72760000D02*
X27650000Y-72760000D01*
X26240000Y-79580000D02*
X26240000Y-78650000D01*
X26240000Y-79580000D02*
X28400000Y-79580000D01*
X26240000Y-76420000D02*
X27700000Y-76420000D01*
X26240000Y-76420000D02*
X26240000Y-77350000D01*
X20000000Y-14480000D02*
X18000000Y-14480000D01*
X18000000Y-11520000D02*
X20000000Y-11520000D01*
X20000000Y-24480000D02*
X18000000Y-24480000D01*
X18000000Y-21520000D02*
X20000000Y-21520000D01*
X18000000Y-1520000D02*
X20000000Y-1520000D01*
X20000000Y-4480000D02*
X18000000Y-4480000D01*
X18000000Y-26520000D02*
X20000000Y-26520000D01*
X20000000Y-29480000D02*
X18000000Y-29480000D01*
X18000000Y-80520000D02*
X20000000Y-80520000D01*
X20000000Y-83480000D02*
X18000000Y-83480000D01*
X18000000Y-65520000D02*
X20000000Y-65520000D01*
X20000000Y-68480000D02*
X18000000Y-68480000D01*
X18000000Y-31520000D02*
X20000000Y-31520000D01*
X20000000Y-34480000D02*
X18000000Y-34480000D01*
X18000000Y-85520000D02*
X20000000Y-85520000D01*
X20000000Y-88480000D02*
X18000000Y-88480000D01*
X18000000Y-70520000D02*
X20000000Y-70520000D01*
X20000000Y-73480000D02*
X18000000Y-73480000D01*
X18000000Y-75520000D02*
X20000000Y-75520000D01*
X20000000Y-78480000D02*
X18000000Y-78480000D01*
D10*
X13920000Y-50460000D02*
X24080000Y-50460000D01*
X13920000Y-55286000D02*
X13920000Y-50460000D01*
X24080000Y-50460000D02*
X24080000Y-55286000D01*
X24080000Y-53508000D02*
X23445000Y-53508000D01*
X23445000Y-52238000D02*
X24080000Y-52238000D01*
X23445000Y-53508000D02*
X23445000Y-52238000D01*
X24080000Y-55286000D02*
X13920000Y-55286000D01*
D11*
X28580000Y-84760000D02*
X27650000Y-84760000D01*
X28580000Y-84760000D02*
X28580000Y-82600000D01*
X25420000Y-84760000D02*
X26350000Y-84760000D01*
X25420000Y-84760000D02*
X25420000Y-83300000D01*
X1140000Y-24960000D02*
X1140000Y-18040000D01*
X5505000Y-26410000D02*
X1140000Y-26410000D01*
X340000Y-24560000D02*
X340000Y-18440000D01*
X340000Y-24560000D02*
X-8860000Y-24560000D01*
X340000Y-24960000D02*
X340000Y-18040000D01*
X6260000Y-24625000D02*
X6260000Y-18375000D01*
X1140000Y-24960000D02*
X340000Y-24960000D01*
X5505000Y-16590000D02*
X1140000Y-16590000D01*
X1140000Y-18040000D02*
X340000Y-18040000D01*
X-8860000Y-24560000D02*
X-8860000Y-18440000D01*
X340000Y-18440000D02*
X-8860000Y-18440000D01*
X1140000Y-26410000D02*
X1140000Y-16590000D01*
X340000Y-60560000D02*
X340000Y-54440000D01*
X5505000Y-62410000D02*
X1140000Y-62410000D01*
X5505000Y-52590000D02*
X1140000Y-52590000D01*
X340000Y-60560000D02*
X-8860000Y-60560000D01*
X-8860000Y-60560000D02*
X-8860000Y-54440000D01*
X340000Y-54440000D02*
X-8860000Y-54440000D01*
X340000Y-60960000D02*
X340000Y-54040000D01*
X1140000Y-54040000D02*
X340000Y-54040000D01*
X1140000Y-60960000D02*
X340000Y-60960000D01*
X1140000Y-60960000D02*
X1140000Y-54040000D01*
X6260000Y-60625000D02*
X6260000Y-54375000D01*
X1140000Y-62410000D02*
X1140000Y-52590000D01*
X6260000Y-77625000D02*
X6260000Y-71375000D01*
X340000Y-71440000D02*
X-8860000Y-71440000D01*
X1140000Y-71040000D02*
X340000Y-71040000D01*
X1140000Y-79410000D02*
X1140000Y-69590000D01*
X1140000Y-77960000D02*
X1140000Y-71040000D01*
X340000Y-77560000D02*
X340000Y-71440000D01*
X340000Y-77960000D02*
X340000Y-71040000D01*
X340000Y-77560000D02*
X-8860000Y-77560000D01*
X5505000Y-79410000D02*
X1140000Y-79410000D01*
X-8860000Y-77560000D02*
X-8860000Y-71440000D01*
X5505000Y-69590000D02*
X1140000Y-69590000D01*
X1140000Y-77960000D02*
X340000Y-77960000D01*
M02*
