G04 #@! TF.GenerationSoftware,KiCad,Pcbnew,(5.1.5)-3*
G04 #@! TF.CreationDate,2020-08-10T17:15:24-07:00*
G04 #@! TF.ProjectId,Notch_Filter,4e6f7463-685f-4466-996c-7465722e6b69,rev?*
G04 #@! TF.SameCoordinates,Original*
G04 #@! TF.FileFunction,Soldermask,Top*
G04 #@! TF.FilePolarity,Negative*
%FSLAX46Y46*%
G04 Gerber Fmt 4.6, Leading zero omitted, Abs format (unit mm)*
G04 Created by KiCad (PCBNEW (5.1.5)-3) date 2020-08-10 17:15:24*
%MOMM*%
%LPD*%
G04 APERTURE LIST*
%ADD10C,0.100000*%
G04 APERTURE END LIST*
D10*
G36*
X13551000Y-99151000D02*
G01*
X12449000Y-99151000D01*
X12449000Y-96849000D01*
X13551000Y-96849000D01*
X13551000Y-99151000D01*
G37*
G36*
X6551000Y-99051000D02*
G01*
X4249000Y-99051000D01*
X4249000Y-97949000D01*
X6551000Y-97949000D01*
X6551000Y-99051000D01*
G37*
G36*
X18051000Y-98301000D02*
G01*
X15949000Y-98301000D01*
X15949000Y-95699000D01*
X18051000Y-95699000D01*
X18051000Y-98301000D01*
G37*
G36*
X22051000Y-98301000D02*
G01*
X19949000Y-98301000D01*
X19949000Y-95699000D01*
X22051000Y-95699000D01*
X22051000Y-98301000D01*
G37*
G36*
X2551000Y-95151000D02*
G01*
X1449000Y-95151000D01*
X1449000Y-92849000D01*
X2551000Y-92849000D01*
X2551000Y-95151000D01*
G37*
G36*
X22051000Y-93301000D02*
G01*
X19949000Y-93301000D01*
X19949000Y-90699000D01*
X22051000Y-90699000D01*
X22051000Y-93301000D01*
G37*
G36*
X18051000Y-93301000D02*
G01*
X15949000Y-93301000D01*
X15949000Y-90699000D01*
X18051000Y-90699000D01*
X18051000Y-93301000D01*
G37*
G36*
X9551000Y-92051000D02*
G01*
X7249000Y-92051000D01*
X7249000Y-90949000D01*
X9551000Y-90949000D01*
X9551000Y-92051000D01*
G37*
G36*
X10951000Y-89351000D02*
G01*
X8649000Y-89351000D01*
X8649000Y-88249000D01*
X10951000Y-88249000D01*
X10951000Y-89351000D01*
G37*
G36*
X22051000Y-88301000D02*
G01*
X19949000Y-88301000D01*
X19949000Y-85699000D01*
X22051000Y-85699000D01*
X22051000Y-88301000D01*
G37*
G36*
X18051000Y-88301000D02*
G01*
X15949000Y-88301000D01*
X15949000Y-85699000D01*
X18051000Y-85699000D01*
X18051000Y-88301000D01*
G37*
G36*
X27451000Y-85501000D02*
G01*
X26549000Y-85501000D01*
X26549000Y-84499000D01*
X27451000Y-84499000D01*
X27451000Y-85501000D01*
G37*
G36*
X28401000Y-83501000D02*
G01*
X27499000Y-83501000D01*
X27499000Y-82499000D01*
X28401000Y-82499000D01*
X28401000Y-83501000D01*
G37*
G36*
X26501000Y-83501000D02*
G01*
X25599000Y-83501000D01*
X25599000Y-82499000D01*
X26501000Y-82499000D01*
X26501000Y-83501000D01*
G37*
G36*
X22051000Y-83301000D02*
G01*
X19949000Y-83301000D01*
X19949000Y-80699000D01*
X22051000Y-80699000D01*
X22051000Y-83301000D01*
G37*
G36*
X18051000Y-83301000D02*
G01*
X15949000Y-83301000D01*
X15949000Y-80699000D01*
X18051000Y-80699000D01*
X18051000Y-83301000D01*
G37*
G36*
X8534358Y-77209232D02*
G01*
X8685761Y-77239348D01*
X9113616Y-77416571D01*
X9498675Y-77673859D01*
X9826141Y-78001325D01*
X10083429Y-78386384D01*
X10260652Y-78814239D01*
X10351000Y-79268447D01*
X10351000Y-79731553D01*
X10260652Y-80185761D01*
X10083429Y-80613616D01*
X9826141Y-80998675D01*
X9498675Y-81326141D01*
X9113616Y-81583429D01*
X8685761Y-81760652D01*
X8534358Y-81790768D01*
X8231555Y-81851000D01*
X7768445Y-81851000D01*
X7465642Y-81790768D01*
X7314239Y-81760652D01*
X6886384Y-81583429D01*
X6501325Y-81326141D01*
X6173859Y-80998675D01*
X5916571Y-80613616D01*
X5739348Y-80185761D01*
X5649000Y-79731553D01*
X5649000Y-79268447D01*
X5739348Y-78814239D01*
X5916571Y-78386384D01*
X6173859Y-78001325D01*
X6501325Y-77673859D01*
X6886384Y-77416571D01*
X7314239Y-77239348D01*
X7465642Y-77209232D01*
X7768445Y-77149000D01*
X8231555Y-77149000D01*
X8534358Y-77209232D01*
G37*
G36*
X28501000Y-79401000D02*
G01*
X27499000Y-79401000D01*
X27499000Y-78499000D01*
X28501000Y-78499000D01*
X28501000Y-79401000D01*
G37*
G36*
X26501000Y-78451000D02*
G01*
X25499000Y-78451000D01*
X25499000Y-77549000D01*
X26501000Y-77549000D01*
X26501000Y-78451000D01*
G37*
G36*
X22051000Y-78301000D02*
G01*
X19949000Y-78301000D01*
X19949000Y-75699000D01*
X22051000Y-75699000D01*
X22051000Y-78301000D01*
G37*
G36*
X18051000Y-78301000D02*
G01*
X15949000Y-78301000D01*
X15949000Y-75699000D01*
X18051000Y-75699000D01*
X18051000Y-78301000D01*
G37*
G36*
X4977395Y-76085546D02*
G01*
X5150466Y-76157234D01*
X5150467Y-76157235D01*
X5306227Y-76261310D01*
X5438690Y-76393773D01*
X5438691Y-76393775D01*
X5542766Y-76549534D01*
X5614454Y-76722605D01*
X5651000Y-76906333D01*
X5651000Y-77093667D01*
X5614454Y-77277395D01*
X5542766Y-77450466D01*
X5542765Y-77450467D01*
X5438690Y-77606227D01*
X5306227Y-77738690D01*
X5227818Y-77791081D01*
X5150466Y-77842766D01*
X4977395Y-77914454D01*
X4793667Y-77951000D01*
X4606333Y-77951000D01*
X4422605Y-77914454D01*
X4249534Y-77842766D01*
X4172182Y-77791081D01*
X4093773Y-77738690D01*
X3961310Y-77606227D01*
X3857235Y-77450467D01*
X3857234Y-77450466D01*
X3785546Y-77277395D01*
X3749000Y-77093667D01*
X3749000Y-76906333D01*
X3785546Y-76722605D01*
X3857234Y-76549534D01*
X3961309Y-76393775D01*
X3961310Y-76393773D01*
X4093773Y-76261310D01*
X4249533Y-76157235D01*
X4249534Y-76157234D01*
X4422605Y-76085546D01*
X4606333Y-76049000D01*
X4793667Y-76049000D01*
X4977395Y-76085546D01*
G37*
G36*
X28501000Y-77501000D02*
G01*
X27499000Y-77501000D01*
X27499000Y-76599000D01*
X28501000Y-76599000D01*
X28501000Y-77501000D01*
G37*
G36*
X4977395Y-73585546D02*
G01*
X5150466Y-73657234D01*
X5150467Y-73657235D01*
X5306227Y-73761310D01*
X5438690Y-73893773D01*
X5438691Y-73893775D01*
X5542766Y-74049534D01*
X5614454Y-74222605D01*
X5651000Y-74406333D01*
X5651000Y-74593667D01*
X5614454Y-74777395D01*
X5542766Y-74950466D01*
X5542765Y-74950467D01*
X5438690Y-75106227D01*
X5306227Y-75238690D01*
X5227818Y-75291081D01*
X5150466Y-75342766D01*
X4977395Y-75414454D01*
X4793667Y-75451000D01*
X4606333Y-75451000D01*
X4422605Y-75414454D01*
X4249534Y-75342766D01*
X4172182Y-75291081D01*
X4093773Y-75238690D01*
X3961310Y-75106227D01*
X3857235Y-74950467D01*
X3857234Y-74950466D01*
X3785546Y-74777395D01*
X3749000Y-74593667D01*
X3749000Y-74406333D01*
X3785546Y-74222605D01*
X3857234Y-74049534D01*
X3961309Y-73893775D01*
X3961310Y-73893773D01*
X4093773Y-73761310D01*
X4249533Y-73657235D01*
X4249534Y-73657234D01*
X4422605Y-73585546D01*
X4606333Y-73549000D01*
X4793667Y-73549000D01*
X4977395Y-73585546D01*
G37*
G36*
X27451000Y-73501000D02*
G01*
X26549000Y-73501000D01*
X26549000Y-72499000D01*
X27451000Y-72499000D01*
X27451000Y-73501000D01*
G37*
G36*
X18051000Y-73301000D02*
G01*
X15949000Y-73301000D01*
X15949000Y-70699000D01*
X18051000Y-70699000D01*
X18051000Y-73301000D01*
G37*
G36*
X22051000Y-73301000D02*
G01*
X19949000Y-73301000D01*
X19949000Y-70699000D01*
X22051000Y-70699000D01*
X22051000Y-73301000D01*
G37*
G36*
X4977395Y-71085546D02*
G01*
X5150466Y-71157234D01*
X5150467Y-71157235D01*
X5306227Y-71261310D01*
X5438690Y-71393773D01*
X5438691Y-71393775D01*
X5542766Y-71549534D01*
X5614454Y-71722605D01*
X5651000Y-71906333D01*
X5651000Y-72093667D01*
X5614454Y-72277395D01*
X5542766Y-72450466D01*
X5491081Y-72527818D01*
X5438690Y-72606227D01*
X5306227Y-72738690D01*
X5227818Y-72791081D01*
X5150466Y-72842766D01*
X4977395Y-72914454D01*
X4793667Y-72951000D01*
X4606333Y-72951000D01*
X4422605Y-72914454D01*
X4249534Y-72842766D01*
X4172182Y-72791081D01*
X4093773Y-72738690D01*
X3961310Y-72606227D01*
X3908919Y-72527818D01*
X3857234Y-72450466D01*
X3785546Y-72277395D01*
X3749000Y-72093667D01*
X3749000Y-71906333D01*
X3785546Y-71722605D01*
X3857234Y-71549534D01*
X3961309Y-71393775D01*
X3961310Y-71393773D01*
X4093773Y-71261310D01*
X4249533Y-71157235D01*
X4249534Y-71157234D01*
X4422605Y-71085546D01*
X4606333Y-71049000D01*
X4793667Y-71049000D01*
X4977395Y-71085546D01*
G37*
G36*
X8534358Y-67209232D02*
G01*
X8685761Y-67239348D01*
X9113616Y-67416571D01*
X9498675Y-67673859D01*
X9826141Y-68001325D01*
X10083429Y-68386384D01*
X10260652Y-68814239D01*
X10351000Y-69268447D01*
X10351000Y-69731553D01*
X10260652Y-70185761D01*
X10083429Y-70613616D01*
X9826141Y-70998675D01*
X9498675Y-71326141D01*
X9113616Y-71583429D01*
X8685761Y-71760652D01*
X8534358Y-71790768D01*
X8231555Y-71851000D01*
X7768445Y-71851000D01*
X7465642Y-71790768D01*
X7314239Y-71760652D01*
X6886384Y-71583429D01*
X6501325Y-71326141D01*
X6173859Y-70998675D01*
X5916571Y-70613616D01*
X5739348Y-70185761D01*
X5649000Y-69731553D01*
X5649000Y-69268447D01*
X5739348Y-68814239D01*
X5916571Y-68386384D01*
X6173859Y-68001325D01*
X6501325Y-67673859D01*
X6886384Y-67416571D01*
X7314239Y-67239348D01*
X7465642Y-67209232D01*
X7768445Y-67149000D01*
X8231555Y-67149000D01*
X8534358Y-67209232D01*
G37*
G36*
X28401000Y-71501000D02*
G01*
X27499000Y-71501000D01*
X27499000Y-70499000D01*
X28401000Y-70499000D01*
X28401000Y-71501000D01*
G37*
G36*
X26501000Y-71501000D02*
G01*
X25599000Y-71501000D01*
X25599000Y-70499000D01*
X26501000Y-70499000D01*
X26501000Y-71501000D01*
G37*
G36*
X18051000Y-68301000D02*
G01*
X15949000Y-68301000D01*
X15949000Y-65699000D01*
X18051000Y-65699000D01*
X18051000Y-68301000D01*
G37*
G36*
X22051000Y-68301000D02*
G01*
X19949000Y-68301000D01*
X19949000Y-65699000D01*
X22051000Y-65699000D01*
X22051000Y-68301000D01*
G37*
G36*
X28501000Y-67401000D02*
G01*
X27499000Y-67401000D01*
X27499000Y-66499000D01*
X28501000Y-66499000D01*
X28501000Y-67401000D01*
G37*
G36*
X26501000Y-66451000D02*
G01*
X25499000Y-66451000D01*
X25499000Y-65549000D01*
X26501000Y-65549000D01*
X26501000Y-66451000D01*
G37*
G36*
X28501000Y-65501000D02*
G01*
X27499000Y-65501000D01*
X27499000Y-64599000D01*
X28501000Y-64599000D01*
X28501000Y-65501000D01*
G37*
G36*
X8534358Y-60209232D02*
G01*
X8685761Y-60239348D01*
X9113616Y-60416571D01*
X9498675Y-60673859D01*
X9826141Y-61001325D01*
X10083429Y-61386384D01*
X10260652Y-61814239D01*
X10351000Y-62268447D01*
X10351000Y-62731553D01*
X10260652Y-63185761D01*
X10083429Y-63613616D01*
X9826141Y-63998675D01*
X9498675Y-64326141D01*
X9113616Y-64583429D01*
X8685761Y-64760652D01*
X8534358Y-64790768D01*
X8231555Y-64851000D01*
X7768445Y-64851000D01*
X7465642Y-64790768D01*
X7314239Y-64760652D01*
X6886384Y-64583429D01*
X6501325Y-64326141D01*
X6173859Y-63998675D01*
X5916571Y-63613616D01*
X5739348Y-63185761D01*
X5649000Y-62731553D01*
X5649000Y-62268447D01*
X5739348Y-61814239D01*
X5916571Y-61386384D01*
X6173859Y-61001325D01*
X6501325Y-60673859D01*
X6886384Y-60416571D01*
X7314239Y-60239348D01*
X7465642Y-60209232D01*
X7768445Y-60149000D01*
X8231555Y-60149000D01*
X8534358Y-60209232D01*
G37*
G36*
X22051000Y-63301000D02*
G01*
X19949000Y-63301000D01*
X19949000Y-60699000D01*
X22051000Y-60699000D01*
X22051000Y-63301000D01*
G37*
G36*
X18051000Y-63301000D02*
G01*
X15949000Y-63301000D01*
X15949000Y-60699000D01*
X18051000Y-60699000D01*
X18051000Y-63301000D01*
G37*
G36*
X4977395Y-59085546D02*
G01*
X5150466Y-59157234D01*
X5150467Y-59157235D01*
X5306227Y-59261310D01*
X5438690Y-59393773D01*
X5438691Y-59393775D01*
X5542766Y-59549534D01*
X5614454Y-59722605D01*
X5651000Y-59906333D01*
X5651000Y-60093667D01*
X5614454Y-60277395D01*
X5542766Y-60450466D01*
X5542765Y-60450467D01*
X5438690Y-60606227D01*
X5306227Y-60738690D01*
X5227818Y-60791081D01*
X5150466Y-60842766D01*
X4977395Y-60914454D01*
X4793667Y-60951000D01*
X4606333Y-60951000D01*
X4422605Y-60914454D01*
X4249534Y-60842766D01*
X4172182Y-60791081D01*
X4093773Y-60738690D01*
X3961310Y-60606227D01*
X3857235Y-60450467D01*
X3857234Y-60450466D01*
X3785546Y-60277395D01*
X3749000Y-60093667D01*
X3749000Y-59906333D01*
X3785546Y-59722605D01*
X3857234Y-59549534D01*
X3961309Y-59393775D01*
X3961310Y-59393773D01*
X4093773Y-59261310D01*
X4249533Y-59157235D01*
X4249534Y-59157234D01*
X4422605Y-59085546D01*
X4606333Y-59049000D01*
X4793667Y-59049000D01*
X4977395Y-59085546D01*
G37*
G36*
X4977395Y-56585546D02*
G01*
X5150466Y-56657234D01*
X5150467Y-56657235D01*
X5306227Y-56761310D01*
X5438690Y-56893773D01*
X5438691Y-56893775D01*
X5542766Y-57049534D01*
X5614454Y-57222605D01*
X5651000Y-57406333D01*
X5651000Y-57593667D01*
X5614454Y-57777395D01*
X5542766Y-57950466D01*
X5542765Y-57950467D01*
X5438690Y-58106227D01*
X5306227Y-58238690D01*
X5227818Y-58291081D01*
X5150466Y-58342766D01*
X4977395Y-58414454D01*
X4793667Y-58451000D01*
X4606333Y-58451000D01*
X4422605Y-58414454D01*
X4249534Y-58342766D01*
X4172182Y-58291081D01*
X4093773Y-58238690D01*
X3961310Y-58106227D01*
X3857235Y-57950467D01*
X3857234Y-57950466D01*
X3785546Y-57777395D01*
X3749000Y-57593667D01*
X3749000Y-57406333D01*
X3785546Y-57222605D01*
X3857234Y-57049534D01*
X3961309Y-56893775D01*
X3961310Y-56893773D01*
X4093773Y-56761310D01*
X4249533Y-56657235D01*
X4249534Y-56657234D01*
X4422605Y-56585546D01*
X4606333Y-56549000D01*
X4793667Y-56549000D01*
X4977395Y-56585546D01*
G37*
G36*
X23115000Y-56670500D02*
G01*
X22505000Y-56670500D01*
X22505000Y-55425500D01*
X23115000Y-55425500D01*
X23115000Y-56670500D01*
G37*
G36*
X18035000Y-56670500D02*
G01*
X17425000Y-56670500D01*
X17425000Y-55425500D01*
X18035000Y-55425500D01*
X18035000Y-56670500D01*
G37*
G36*
X16765000Y-56670500D02*
G01*
X16155000Y-56670500D01*
X16155000Y-55425500D01*
X16765000Y-55425500D01*
X16765000Y-56670500D01*
G37*
G36*
X15495000Y-56670500D02*
G01*
X14885000Y-56670500D01*
X14885000Y-55425500D01*
X15495000Y-55425500D01*
X15495000Y-56670500D01*
G37*
G36*
X19305000Y-56670500D02*
G01*
X18695000Y-56670500D01*
X18695000Y-55425500D01*
X19305000Y-55425500D01*
X19305000Y-56670500D01*
G37*
G36*
X21845000Y-56670500D02*
G01*
X21235000Y-56670500D01*
X21235000Y-55425500D01*
X21845000Y-55425500D01*
X21845000Y-56670500D01*
G37*
G36*
X20575000Y-56670500D02*
G01*
X19965000Y-56670500D01*
X19965000Y-55425500D01*
X20575000Y-55425500D01*
X20575000Y-56670500D01*
G37*
G36*
X4977395Y-54085546D02*
G01*
X5150466Y-54157234D01*
X5150467Y-54157235D01*
X5306227Y-54261310D01*
X5438690Y-54393773D01*
X5438691Y-54393775D01*
X5542766Y-54549534D01*
X5614454Y-54722605D01*
X5651000Y-54906333D01*
X5651000Y-55093667D01*
X5614454Y-55277395D01*
X5542766Y-55450466D01*
X5542765Y-55450467D01*
X5438690Y-55606227D01*
X5306227Y-55738690D01*
X5227818Y-55791081D01*
X5150466Y-55842766D01*
X4977395Y-55914454D01*
X4793667Y-55951000D01*
X4606333Y-55951000D01*
X4422605Y-55914454D01*
X4249534Y-55842766D01*
X4172182Y-55791081D01*
X4093773Y-55738690D01*
X3961310Y-55606227D01*
X3857235Y-55450467D01*
X3857234Y-55450466D01*
X3785546Y-55277395D01*
X3749000Y-55093667D01*
X3749000Y-54906333D01*
X3785546Y-54722605D01*
X3857234Y-54549534D01*
X3961309Y-54393775D01*
X3961310Y-54393773D01*
X4093773Y-54261310D01*
X4249533Y-54157235D01*
X4249534Y-54157234D01*
X4422605Y-54085546D01*
X4606333Y-54049000D01*
X4793667Y-54049000D01*
X4977395Y-54085546D01*
G37*
G36*
X8534358Y-50209232D02*
G01*
X8685761Y-50239348D01*
X9113616Y-50416571D01*
X9498675Y-50673859D01*
X9826141Y-51001325D01*
X10083429Y-51386384D01*
X10260652Y-51814239D01*
X10351000Y-52268447D01*
X10351000Y-52731553D01*
X10260652Y-53185761D01*
X10083429Y-53613616D01*
X9826141Y-53998675D01*
X9498675Y-54326141D01*
X9113616Y-54583429D01*
X8685761Y-54760652D01*
X8534358Y-54790768D01*
X8231555Y-54851000D01*
X7768445Y-54851000D01*
X7465642Y-54790768D01*
X7314239Y-54760652D01*
X6886384Y-54583429D01*
X6501325Y-54326141D01*
X6173859Y-53998675D01*
X5916571Y-53613616D01*
X5739348Y-53185761D01*
X5649000Y-52731553D01*
X5649000Y-52268447D01*
X5739348Y-51814239D01*
X5916571Y-51386384D01*
X6173859Y-51001325D01*
X6501325Y-50673859D01*
X6886384Y-50416571D01*
X7314239Y-50239348D01*
X7465642Y-50209232D01*
X7768445Y-50149000D01*
X8231555Y-50149000D01*
X8534358Y-50209232D01*
G37*
G36*
X23115000Y-50320500D02*
G01*
X22505000Y-50320500D01*
X22505000Y-49075500D01*
X23115000Y-49075500D01*
X23115000Y-50320500D01*
G37*
G36*
X21845000Y-50320500D02*
G01*
X21235000Y-50320500D01*
X21235000Y-49075500D01*
X21845000Y-49075500D01*
X21845000Y-50320500D01*
G37*
G36*
X20575000Y-50320500D02*
G01*
X19965000Y-50320500D01*
X19965000Y-49075500D01*
X20575000Y-49075500D01*
X20575000Y-50320500D01*
G37*
G36*
X19305000Y-50320500D02*
G01*
X18695000Y-50320500D01*
X18695000Y-49075500D01*
X19305000Y-49075500D01*
X19305000Y-50320500D01*
G37*
G36*
X16765000Y-50320500D02*
G01*
X16155000Y-50320500D01*
X16155000Y-49075500D01*
X16765000Y-49075500D01*
X16765000Y-50320500D01*
G37*
G36*
X18035000Y-50320500D02*
G01*
X17425000Y-50320500D01*
X17425000Y-49075500D01*
X18035000Y-49075500D01*
X18035000Y-50320500D01*
G37*
G36*
X15495000Y-50320500D02*
G01*
X14885000Y-50320500D01*
X14885000Y-49075500D01*
X15495000Y-49075500D01*
X15495000Y-50320500D01*
G37*
G36*
X13551000Y-48151000D02*
G01*
X12449000Y-48151000D01*
X12449000Y-45849000D01*
X13551000Y-45849000D01*
X13551000Y-48151000D01*
G37*
G36*
X6551000Y-48051000D02*
G01*
X4249000Y-48051000D01*
X4249000Y-46949000D01*
X6551000Y-46949000D01*
X6551000Y-48051000D01*
G37*
G36*
X22051000Y-44301000D02*
G01*
X19949000Y-44301000D01*
X19949000Y-41699000D01*
X22051000Y-41699000D01*
X22051000Y-44301000D01*
G37*
G36*
X18051000Y-44301000D02*
G01*
X15949000Y-44301000D01*
X15949000Y-41699000D01*
X18051000Y-41699000D01*
X18051000Y-44301000D01*
G37*
G36*
X2551000Y-44151000D02*
G01*
X1449000Y-44151000D01*
X1449000Y-41849000D01*
X2551000Y-41849000D01*
X2551000Y-44151000D01*
G37*
G36*
X9551000Y-41051000D02*
G01*
X7249000Y-41051000D01*
X7249000Y-39949000D01*
X9551000Y-39949000D01*
X9551000Y-41051000D01*
G37*
G36*
X22051000Y-39301000D02*
G01*
X19949000Y-39301000D01*
X19949000Y-36699000D01*
X22051000Y-36699000D01*
X22051000Y-39301000D01*
G37*
G36*
X18051000Y-39301000D02*
G01*
X15949000Y-39301000D01*
X15949000Y-36699000D01*
X18051000Y-36699000D01*
X18051000Y-39301000D01*
G37*
G36*
X10951000Y-38351000D02*
G01*
X8649000Y-38351000D01*
X8649000Y-37249000D01*
X10951000Y-37249000D01*
X10951000Y-38351000D01*
G37*
G36*
X22051000Y-34301000D02*
G01*
X19949000Y-34301000D01*
X19949000Y-31699000D01*
X22051000Y-31699000D01*
X22051000Y-34301000D01*
G37*
G36*
X18051000Y-34301000D02*
G01*
X15949000Y-34301000D01*
X15949000Y-31699000D01*
X18051000Y-31699000D01*
X18051000Y-34301000D01*
G37*
G36*
X28901000Y-30901000D02*
G01*
X27099000Y-30901000D01*
X27099000Y-29099000D01*
X28901000Y-29099000D01*
X28901000Y-30901000D01*
G37*
G36*
X25573512Y-29103927D02*
G01*
X25722812Y-29133624D01*
X25886784Y-29201544D01*
X26034354Y-29300147D01*
X26159853Y-29425646D01*
X26258456Y-29573216D01*
X26326376Y-29737188D01*
X26361000Y-29911259D01*
X26361000Y-30088741D01*
X26326376Y-30262812D01*
X26258456Y-30426784D01*
X26159853Y-30574354D01*
X26034354Y-30699853D01*
X25886784Y-30798456D01*
X25722812Y-30866376D01*
X25573512Y-30896073D01*
X25548742Y-30901000D01*
X25371258Y-30901000D01*
X25346488Y-30896073D01*
X25197188Y-30866376D01*
X25033216Y-30798456D01*
X24885646Y-30699853D01*
X24760147Y-30574354D01*
X24661544Y-30426784D01*
X24593624Y-30262812D01*
X24559000Y-30088741D01*
X24559000Y-29911259D01*
X24593624Y-29737188D01*
X24661544Y-29573216D01*
X24760147Y-29425646D01*
X24885646Y-29300147D01*
X25033216Y-29201544D01*
X25197188Y-29133624D01*
X25346488Y-29103927D01*
X25371258Y-29099000D01*
X25548742Y-29099000D01*
X25573512Y-29103927D01*
G37*
G36*
X18051000Y-29301000D02*
G01*
X15949000Y-29301000D01*
X15949000Y-26699000D01*
X18051000Y-26699000D01*
X18051000Y-29301000D01*
G37*
G36*
X22051000Y-29301000D02*
G01*
X19949000Y-29301000D01*
X19949000Y-26699000D01*
X22051000Y-26699000D01*
X22051000Y-29301000D01*
G37*
G36*
X8534358Y-24209232D02*
G01*
X8685761Y-24239348D01*
X9113616Y-24416571D01*
X9498675Y-24673859D01*
X9826141Y-25001325D01*
X10083429Y-25386384D01*
X10249111Y-25786376D01*
X10260652Y-25814240D01*
X10351000Y-26268445D01*
X10351000Y-26731555D01*
X10345312Y-26760148D01*
X10260652Y-27185761D01*
X10083429Y-27613616D01*
X9826141Y-27998675D01*
X9498675Y-28326141D01*
X9113616Y-28583429D01*
X8685761Y-28760652D01*
X8534358Y-28790768D01*
X8231555Y-28851000D01*
X7768445Y-28851000D01*
X7465642Y-28790768D01*
X7314239Y-28760652D01*
X6886384Y-28583429D01*
X6501325Y-28326141D01*
X6173859Y-27998675D01*
X5916571Y-27613616D01*
X5739348Y-27185761D01*
X5654688Y-26760148D01*
X5649000Y-26731555D01*
X5649000Y-26268445D01*
X5739348Y-25814240D01*
X5750890Y-25786376D01*
X5916571Y-25386384D01*
X6173859Y-25001325D01*
X6501325Y-24673859D01*
X6886384Y-24416571D01*
X7314239Y-24239348D01*
X7465642Y-24209232D01*
X7768445Y-24149000D01*
X8231555Y-24149000D01*
X8534358Y-24209232D01*
G37*
G36*
X25573512Y-26563927D02*
G01*
X25722812Y-26593624D01*
X25886784Y-26661544D01*
X26034354Y-26760147D01*
X26159853Y-26885646D01*
X26258456Y-27033216D01*
X26326376Y-27197188D01*
X26361000Y-27371259D01*
X26361000Y-27548741D01*
X26326376Y-27722812D01*
X26258456Y-27886784D01*
X26159853Y-28034354D01*
X26034354Y-28159853D01*
X25886784Y-28258456D01*
X25722812Y-28326376D01*
X25573512Y-28356073D01*
X25548742Y-28361000D01*
X25371258Y-28361000D01*
X25346488Y-28356073D01*
X25197188Y-28326376D01*
X25033216Y-28258456D01*
X24885646Y-28159853D01*
X24760147Y-28034354D01*
X24661544Y-27886784D01*
X24593624Y-27722812D01*
X24559000Y-27548741D01*
X24559000Y-27371259D01*
X24593624Y-27197188D01*
X24661544Y-27033216D01*
X24760147Y-26885646D01*
X24885646Y-26760147D01*
X25033216Y-26661544D01*
X25197188Y-26593624D01*
X25346488Y-26563927D01*
X25371258Y-26559000D01*
X25548742Y-26559000D01*
X25573512Y-26563927D01*
G37*
G36*
X28113512Y-26563927D02*
G01*
X28262812Y-26593624D01*
X28426784Y-26661544D01*
X28574354Y-26760147D01*
X28699853Y-26885646D01*
X28798456Y-27033216D01*
X28866376Y-27197188D01*
X28901000Y-27371259D01*
X28901000Y-27548741D01*
X28866376Y-27722812D01*
X28798456Y-27886784D01*
X28699853Y-28034354D01*
X28574354Y-28159853D01*
X28426784Y-28258456D01*
X28262812Y-28326376D01*
X28113512Y-28356073D01*
X28088742Y-28361000D01*
X27911258Y-28361000D01*
X27886488Y-28356073D01*
X27737188Y-28326376D01*
X27573216Y-28258456D01*
X27425646Y-28159853D01*
X27300147Y-28034354D01*
X27201544Y-27886784D01*
X27133624Y-27722812D01*
X27099000Y-27548741D01*
X27099000Y-27371259D01*
X27133624Y-27197188D01*
X27201544Y-27033216D01*
X27300147Y-26885646D01*
X27425646Y-26760147D01*
X27573216Y-26661544D01*
X27737188Y-26593624D01*
X27886488Y-26563927D01*
X27911258Y-26559000D01*
X28088742Y-26559000D01*
X28113512Y-26563927D01*
G37*
G36*
X28113512Y-24023927D02*
G01*
X28262812Y-24053624D01*
X28426784Y-24121544D01*
X28574354Y-24220147D01*
X28699853Y-24345646D01*
X28798456Y-24493216D01*
X28866376Y-24657188D01*
X28901000Y-24831259D01*
X28901000Y-25008741D01*
X28866376Y-25182812D01*
X28798456Y-25346784D01*
X28699853Y-25494354D01*
X28574354Y-25619853D01*
X28426784Y-25718456D01*
X28262812Y-25786376D01*
X28113512Y-25816073D01*
X28088742Y-25821000D01*
X27911258Y-25821000D01*
X27886488Y-25816073D01*
X27737188Y-25786376D01*
X27573216Y-25718456D01*
X27425646Y-25619853D01*
X27300147Y-25494354D01*
X27201544Y-25346784D01*
X27133624Y-25182812D01*
X27099000Y-25008741D01*
X27099000Y-24831259D01*
X27133624Y-24657188D01*
X27201544Y-24493216D01*
X27300147Y-24345646D01*
X27425646Y-24220147D01*
X27573216Y-24121544D01*
X27737188Y-24053624D01*
X27886488Y-24023927D01*
X27911258Y-24019000D01*
X28088742Y-24019000D01*
X28113512Y-24023927D01*
G37*
G36*
X25573512Y-24023927D02*
G01*
X25722812Y-24053624D01*
X25886784Y-24121544D01*
X26034354Y-24220147D01*
X26159853Y-24345646D01*
X26258456Y-24493216D01*
X26326376Y-24657188D01*
X26361000Y-24831259D01*
X26361000Y-25008741D01*
X26326376Y-25182812D01*
X26258456Y-25346784D01*
X26159853Y-25494354D01*
X26034354Y-25619853D01*
X25886784Y-25718456D01*
X25722812Y-25786376D01*
X25573512Y-25816073D01*
X25548742Y-25821000D01*
X25371258Y-25821000D01*
X25346488Y-25816073D01*
X25197188Y-25786376D01*
X25033216Y-25718456D01*
X24885646Y-25619853D01*
X24760147Y-25494354D01*
X24661544Y-25346784D01*
X24593624Y-25182812D01*
X24559000Y-25008741D01*
X24559000Y-24831259D01*
X24593624Y-24657188D01*
X24661544Y-24493216D01*
X24760147Y-24345646D01*
X24885646Y-24220147D01*
X25033216Y-24121544D01*
X25197188Y-24053624D01*
X25346488Y-24023927D01*
X25371258Y-24019000D01*
X25548742Y-24019000D01*
X25573512Y-24023927D01*
G37*
G36*
X4977395Y-23085546D02*
G01*
X5150466Y-23157234D01*
X5150467Y-23157235D01*
X5306227Y-23261310D01*
X5438690Y-23393773D01*
X5438691Y-23393775D01*
X5542766Y-23549534D01*
X5614454Y-23722605D01*
X5651000Y-23906333D01*
X5651000Y-24093667D01*
X5614454Y-24277395D01*
X5542766Y-24450466D01*
X5542765Y-24450467D01*
X5438690Y-24606227D01*
X5306227Y-24738690D01*
X5227818Y-24791081D01*
X5150466Y-24842766D01*
X4977395Y-24914454D01*
X4793667Y-24951000D01*
X4606333Y-24951000D01*
X4422605Y-24914454D01*
X4249534Y-24842766D01*
X4172182Y-24791081D01*
X4093773Y-24738690D01*
X3961310Y-24606227D01*
X3857235Y-24450467D01*
X3857234Y-24450466D01*
X3785546Y-24277395D01*
X3749000Y-24093667D01*
X3749000Y-23906333D01*
X3785546Y-23722605D01*
X3857234Y-23549534D01*
X3961309Y-23393775D01*
X3961310Y-23393773D01*
X4093773Y-23261310D01*
X4249533Y-23157235D01*
X4249534Y-23157234D01*
X4422605Y-23085546D01*
X4606333Y-23049000D01*
X4793667Y-23049000D01*
X4977395Y-23085546D01*
G37*
G36*
X22051000Y-24301000D02*
G01*
X19949000Y-24301000D01*
X19949000Y-21699000D01*
X22051000Y-21699000D01*
X22051000Y-24301000D01*
G37*
G36*
X18051000Y-24301000D02*
G01*
X15949000Y-24301000D01*
X15949000Y-21699000D01*
X18051000Y-21699000D01*
X18051000Y-24301000D01*
G37*
G36*
X25573512Y-21483927D02*
G01*
X25722812Y-21513624D01*
X25886784Y-21581544D01*
X26034354Y-21680147D01*
X26159853Y-21805646D01*
X26258456Y-21953216D01*
X26326376Y-22117188D01*
X26361000Y-22291259D01*
X26361000Y-22468741D01*
X26326376Y-22642812D01*
X26258456Y-22806784D01*
X26159853Y-22954354D01*
X26034354Y-23079853D01*
X25886784Y-23178456D01*
X25722812Y-23246376D01*
X25573512Y-23276073D01*
X25548742Y-23281000D01*
X25371258Y-23281000D01*
X25346488Y-23276073D01*
X25197188Y-23246376D01*
X25033216Y-23178456D01*
X24885646Y-23079853D01*
X24760147Y-22954354D01*
X24661544Y-22806784D01*
X24593624Y-22642812D01*
X24559000Y-22468741D01*
X24559000Y-22291259D01*
X24593624Y-22117188D01*
X24661544Y-21953216D01*
X24760147Y-21805646D01*
X24885646Y-21680147D01*
X25033216Y-21581544D01*
X25197188Y-21513624D01*
X25346488Y-21483927D01*
X25371258Y-21479000D01*
X25548742Y-21479000D01*
X25573512Y-21483927D01*
G37*
G36*
X28113512Y-21483927D02*
G01*
X28262812Y-21513624D01*
X28426784Y-21581544D01*
X28574354Y-21680147D01*
X28699853Y-21805646D01*
X28798456Y-21953216D01*
X28866376Y-22117188D01*
X28901000Y-22291259D01*
X28901000Y-22468741D01*
X28866376Y-22642812D01*
X28798456Y-22806784D01*
X28699853Y-22954354D01*
X28574354Y-23079853D01*
X28426784Y-23178456D01*
X28262812Y-23246376D01*
X28113512Y-23276073D01*
X28088742Y-23281000D01*
X27911258Y-23281000D01*
X27886488Y-23276073D01*
X27737188Y-23246376D01*
X27573216Y-23178456D01*
X27425646Y-23079853D01*
X27300147Y-22954354D01*
X27201544Y-22806784D01*
X27133624Y-22642812D01*
X27099000Y-22468741D01*
X27099000Y-22291259D01*
X27133624Y-22117188D01*
X27201544Y-21953216D01*
X27300147Y-21805646D01*
X27425646Y-21680147D01*
X27573216Y-21581544D01*
X27737188Y-21513624D01*
X27886488Y-21483927D01*
X27911258Y-21479000D01*
X28088742Y-21479000D01*
X28113512Y-21483927D01*
G37*
G36*
X4977395Y-20585546D02*
G01*
X5150466Y-20657234D01*
X5150467Y-20657235D01*
X5306227Y-20761310D01*
X5438690Y-20893773D01*
X5438691Y-20893775D01*
X5542766Y-21049534D01*
X5614454Y-21222605D01*
X5651000Y-21406333D01*
X5651000Y-21593667D01*
X5614454Y-21777395D01*
X5542766Y-21950466D01*
X5540927Y-21953218D01*
X5438690Y-22106227D01*
X5306227Y-22238690D01*
X5227818Y-22291081D01*
X5150466Y-22342766D01*
X4977395Y-22414454D01*
X4793667Y-22451000D01*
X4606333Y-22451000D01*
X4422605Y-22414454D01*
X4249534Y-22342766D01*
X4172182Y-22291081D01*
X4093773Y-22238690D01*
X3961310Y-22106227D01*
X3859073Y-21953218D01*
X3857234Y-21950466D01*
X3785546Y-21777395D01*
X3749000Y-21593667D01*
X3749000Y-21406333D01*
X3785546Y-21222605D01*
X3857234Y-21049534D01*
X3961309Y-20893775D01*
X3961310Y-20893773D01*
X4093773Y-20761310D01*
X4249533Y-20657235D01*
X4249534Y-20657234D01*
X4422605Y-20585546D01*
X4606333Y-20549000D01*
X4793667Y-20549000D01*
X4977395Y-20585546D01*
G37*
G36*
X28113512Y-18943927D02*
G01*
X28262812Y-18973624D01*
X28426784Y-19041544D01*
X28574354Y-19140147D01*
X28699853Y-19265646D01*
X28798456Y-19413216D01*
X28866376Y-19577188D01*
X28901000Y-19751259D01*
X28901000Y-19928741D01*
X28866376Y-20102812D01*
X28798456Y-20266784D01*
X28699853Y-20414354D01*
X28574354Y-20539853D01*
X28426784Y-20638456D01*
X28262812Y-20706376D01*
X28113512Y-20736073D01*
X28088742Y-20741000D01*
X27911258Y-20741000D01*
X27886488Y-20736073D01*
X27737188Y-20706376D01*
X27573216Y-20638456D01*
X27425646Y-20539853D01*
X27300147Y-20414354D01*
X27201544Y-20266784D01*
X27133624Y-20102812D01*
X27099000Y-19928741D01*
X27099000Y-19751259D01*
X27133624Y-19577188D01*
X27201544Y-19413216D01*
X27300147Y-19265646D01*
X27425646Y-19140147D01*
X27573216Y-19041544D01*
X27737188Y-18973624D01*
X27886488Y-18943927D01*
X27911258Y-18939000D01*
X28088742Y-18939000D01*
X28113512Y-18943927D01*
G37*
G36*
X25573512Y-18943927D02*
G01*
X25722812Y-18973624D01*
X25886784Y-19041544D01*
X26034354Y-19140147D01*
X26159853Y-19265646D01*
X26258456Y-19413216D01*
X26326376Y-19577188D01*
X26361000Y-19751259D01*
X26361000Y-19928741D01*
X26326376Y-20102812D01*
X26258456Y-20266784D01*
X26159853Y-20414354D01*
X26034354Y-20539853D01*
X25886784Y-20638456D01*
X25722812Y-20706376D01*
X25573512Y-20736073D01*
X25548742Y-20741000D01*
X25371258Y-20741000D01*
X25346488Y-20736073D01*
X25197188Y-20706376D01*
X25033216Y-20638456D01*
X24885646Y-20539853D01*
X24760147Y-20414354D01*
X24661544Y-20266784D01*
X24593624Y-20102812D01*
X24559000Y-19928741D01*
X24559000Y-19751259D01*
X24593624Y-19577188D01*
X24661544Y-19413216D01*
X24760147Y-19265646D01*
X24885646Y-19140147D01*
X25033216Y-19041544D01*
X25197188Y-18973624D01*
X25346488Y-18943927D01*
X25371258Y-18939000D01*
X25548742Y-18939000D01*
X25573512Y-18943927D01*
G37*
G36*
X4977395Y-18085546D02*
G01*
X5150466Y-18157234D01*
X5150467Y-18157235D01*
X5306227Y-18261310D01*
X5438690Y-18393773D01*
X5438691Y-18393775D01*
X5542766Y-18549534D01*
X5614454Y-18722605D01*
X5651000Y-18906333D01*
X5651000Y-19093667D01*
X5614454Y-19277395D01*
X5542766Y-19450466D01*
X5542765Y-19450467D01*
X5438690Y-19606227D01*
X5306227Y-19738690D01*
X5287416Y-19751259D01*
X5150466Y-19842766D01*
X4977395Y-19914454D01*
X4793667Y-19951000D01*
X4606333Y-19951000D01*
X4422605Y-19914454D01*
X4249534Y-19842766D01*
X4112584Y-19751259D01*
X4093773Y-19738690D01*
X3961310Y-19606227D01*
X3857235Y-19450467D01*
X3857234Y-19450466D01*
X3785546Y-19277395D01*
X3749000Y-19093667D01*
X3749000Y-18906333D01*
X3785546Y-18722605D01*
X3857234Y-18549534D01*
X3961309Y-18393775D01*
X3961310Y-18393773D01*
X4093773Y-18261310D01*
X4249533Y-18157235D01*
X4249534Y-18157234D01*
X4422605Y-18085546D01*
X4606333Y-18049000D01*
X4793667Y-18049000D01*
X4977395Y-18085546D01*
G37*
G36*
X18051000Y-19301000D02*
G01*
X15949000Y-19301000D01*
X15949000Y-16699000D01*
X18051000Y-16699000D01*
X18051000Y-19301000D01*
G37*
G36*
X22051000Y-19301000D02*
G01*
X19949000Y-19301000D01*
X19949000Y-16699000D01*
X22051000Y-16699000D01*
X22051000Y-19301000D01*
G37*
G36*
X8534358Y-14209232D02*
G01*
X8685761Y-14239348D01*
X9113616Y-14416571D01*
X9498675Y-14673859D01*
X9826141Y-15001325D01*
X10083429Y-15386384D01*
X10083430Y-15386386D01*
X10260652Y-15814240D01*
X10351000Y-16268445D01*
X10351000Y-16731555D01*
X10322821Y-16873218D01*
X10260652Y-17185761D01*
X10083429Y-17613616D01*
X9826141Y-17998675D01*
X9498675Y-18326141D01*
X9113616Y-18583429D01*
X8685761Y-18760652D01*
X8534358Y-18790768D01*
X8231555Y-18851000D01*
X7768445Y-18851000D01*
X7465642Y-18790768D01*
X7314239Y-18760652D01*
X6886384Y-18583429D01*
X6501325Y-18326141D01*
X6173859Y-17998675D01*
X5916571Y-17613616D01*
X5739348Y-17185761D01*
X5677179Y-16873218D01*
X5649000Y-16731555D01*
X5649000Y-16268445D01*
X5739348Y-15814240D01*
X5916570Y-15386386D01*
X5916571Y-15386384D01*
X6173859Y-15001325D01*
X6501325Y-14673859D01*
X6886384Y-14416571D01*
X7314239Y-14239348D01*
X7465642Y-14209232D01*
X7768445Y-14149000D01*
X8231555Y-14149000D01*
X8534358Y-14209232D01*
G37*
G36*
X28113512Y-16403927D02*
G01*
X28262812Y-16433624D01*
X28426784Y-16501544D01*
X28574354Y-16600147D01*
X28699853Y-16725646D01*
X28798456Y-16873216D01*
X28866376Y-17037188D01*
X28901000Y-17211259D01*
X28901000Y-17388741D01*
X28866376Y-17562812D01*
X28798456Y-17726784D01*
X28699853Y-17874354D01*
X28574354Y-17999853D01*
X28426784Y-18098456D01*
X28262812Y-18166376D01*
X28113512Y-18196073D01*
X28088742Y-18201000D01*
X27911258Y-18201000D01*
X27886488Y-18196073D01*
X27737188Y-18166376D01*
X27573216Y-18098456D01*
X27425646Y-17999853D01*
X27300147Y-17874354D01*
X27201544Y-17726784D01*
X27133624Y-17562812D01*
X27099000Y-17388741D01*
X27099000Y-17211259D01*
X27133624Y-17037188D01*
X27201544Y-16873216D01*
X27300147Y-16725646D01*
X27425646Y-16600147D01*
X27573216Y-16501544D01*
X27737188Y-16433624D01*
X27886488Y-16403927D01*
X27911258Y-16399000D01*
X28088742Y-16399000D01*
X28113512Y-16403927D01*
G37*
G36*
X25573512Y-16403927D02*
G01*
X25722812Y-16433624D01*
X25886784Y-16501544D01*
X26034354Y-16600147D01*
X26159853Y-16725646D01*
X26258456Y-16873216D01*
X26326376Y-17037188D01*
X26361000Y-17211259D01*
X26361000Y-17388741D01*
X26326376Y-17562812D01*
X26258456Y-17726784D01*
X26159853Y-17874354D01*
X26034354Y-17999853D01*
X25886784Y-18098456D01*
X25722812Y-18166376D01*
X25573512Y-18196073D01*
X25548742Y-18201000D01*
X25371258Y-18201000D01*
X25346488Y-18196073D01*
X25197188Y-18166376D01*
X25033216Y-18098456D01*
X24885646Y-17999853D01*
X24760147Y-17874354D01*
X24661544Y-17726784D01*
X24593624Y-17562812D01*
X24559000Y-17388741D01*
X24559000Y-17211259D01*
X24593624Y-17037188D01*
X24661544Y-16873216D01*
X24760147Y-16725646D01*
X24885646Y-16600147D01*
X25033216Y-16501544D01*
X25197188Y-16433624D01*
X25346488Y-16403927D01*
X25371258Y-16399000D01*
X25548742Y-16399000D01*
X25573512Y-16403927D01*
G37*
G36*
X28113512Y-13863927D02*
G01*
X28262812Y-13893624D01*
X28426784Y-13961544D01*
X28574354Y-14060147D01*
X28699853Y-14185646D01*
X28798456Y-14333216D01*
X28866376Y-14497188D01*
X28901000Y-14671259D01*
X28901000Y-14848741D01*
X28866376Y-15022812D01*
X28798456Y-15186784D01*
X28699853Y-15334354D01*
X28574354Y-15459853D01*
X28426784Y-15558456D01*
X28262812Y-15626376D01*
X28113512Y-15656073D01*
X28088742Y-15661000D01*
X27911258Y-15661000D01*
X27886488Y-15656073D01*
X27737188Y-15626376D01*
X27573216Y-15558456D01*
X27425646Y-15459853D01*
X27300147Y-15334354D01*
X27201544Y-15186784D01*
X27133624Y-15022812D01*
X27099000Y-14848741D01*
X27099000Y-14671259D01*
X27133624Y-14497188D01*
X27201544Y-14333216D01*
X27300147Y-14185646D01*
X27425646Y-14060147D01*
X27573216Y-13961544D01*
X27737188Y-13893624D01*
X27886488Y-13863927D01*
X27911258Y-13859000D01*
X28088742Y-13859000D01*
X28113512Y-13863927D01*
G37*
G36*
X25573512Y-13863927D02*
G01*
X25722812Y-13893624D01*
X25886784Y-13961544D01*
X26034354Y-14060147D01*
X26159853Y-14185646D01*
X26258456Y-14333216D01*
X26326376Y-14497188D01*
X26361000Y-14671259D01*
X26361000Y-14848741D01*
X26326376Y-15022812D01*
X26258456Y-15186784D01*
X26159853Y-15334354D01*
X26034354Y-15459853D01*
X25886784Y-15558456D01*
X25722812Y-15626376D01*
X25573512Y-15656073D01*
X25548742Y-15661000D01*
X25371258Y-15661000D01*
X25346488Y-15656073D01*
X25197188Y-15626376D01*
X25033216Y-15558456D01*
X24885646Y-15459853D01*
X24760147Y-15334354D01*
X24661544Y-15186784D01*
X24593624Y-15022812D01*
X24559000Y-14848741D01*
X24559000Y-14671259D01*
X24593624Y-14497188D01*
X24661544Y-14333216D01*
X24760147Y-14185646D01*
X24885646Y-14060147D01*
X25033216Y-13961544D01*
X25197188Y-13893624D01*
X25346488Y-13863927D01*
X25371258Y-13859000D01*
X25548742Y-13859000D01*
X25573512Y-13863927D01*
G37*
G36*
X18051000Y-14301000D02*
G01*
X15949000Y-14301000D01*
X15949000Y-11699000D01*
X18051000Y-11699000D01*
X18051000Y-14301000D01*
G37*
G36*
X22051000Y-14301000D02*
G01*
X19949000Y-14301000D01*
X19949000Y-11699000D01*
X22051000Y-11699000D01*
X22051000Y-14301000D01*
G37*
G36*
X25573512Y-11323927D02*
G01*
X25722812Y-11353624D01*
X25886784Y-11421544D01*
X26034354Y-11520147D01*
X26159853Y-11645646D01*
X26258456Y-11793216D01*
X26326376Y-11957188D01*
X26361000Y-12131259D01*
X26361000Y-12308741D01*
X26326376Y-12482812D01*
X26258456Y-12646784D01*
X26159853Y-12794354D01*
X26034354Y-12919853D01*
X25886784Y-13018456D01*
X25722812Y-13086376D01*
X25573512Y-13116073D01*
X25548742Y-13121000D01*
X25371258Y-13121000D01*
X25346488Y-13116073D01*
X25197188Y-13086376D01*
X25033216Y-13018456D01*
X24885646Y-12919853D01*
X24760147Y-12794354D01*
X24661544Y-12646784D01*
X24593624Y-12482812D01*
X24559000Y-12308741D01*
X24559000Y-12131259D01*
X24593624Y-11957188D01*
X24661544Y-11793216D01*
X24760147Y-11645646D01*
X24885646Y-11520147D01*
X25033216Y-11421544D01*
X25197188Y-11353624D01*
X25346488Y-11323927D01*
X25371258Y-11319000D01*
X25548742Y-11319000D01*
X25573512Y-11323927D01*
G37*
G36*
X28113512Y-11323927D02*
G01*
X28262812Y-11353624D01*
X28426784Y-11421544D01*
X28574354Y-11520147D01*
X28699853Y-11645646D01*
X28798456Y-11793216D01*
X28866376Y-11957188D01*
X28901000Y-12131259D01*
X28901000Y-12308741D01*
X28866376Y-12482812D01*
X28798456Y-12646784D01*
X28699853Y-12794354D01*
X28574354Y-12919853D01*
X28426784Y-13018456D01*
X28262812Y-13086376D01*
X28113512Y-13116073D01*
X28088742Y-13121000D01*
X27911258Y-13121000D01*
X27886488Y-13116073D01*
X27737188Y-13086376D01*
X27573216Y-13018456D01*
X27425646Y-12919853D01*
X27300147Y-12794354D01*
X27201544Y-12646784D01*
X27133624Y-12482812D01*
X27099000Y-12308741D01*
X27099000Y-12131259D01*
X27133624Y-11957188D01*
X27201544Y-11793216D01*
X27300147Y-11645646D01*
X27425646Y-11520147D01*
X27573216Y-11421544D01*
X27737188Y-11353624D01*
X27886488Y-11323927D01*
X27911258Y-11319000D01*
X28088742Y-11319000D01*
X28113512Y-11323927D01*
G37*
G36*
X13551000Y-11651000D02*
G01*
X12449000Y-11651000D01*
X12449000Y-9349000D01*
X13551000Y-9349000D01*
X13551000Y-11651000D01*
G37*
G36*
X6551000Y-11551000D02*
G01*
X4249000Y-11551000D01*
X4249000Y-10449000D01*
X6551000Y-10449000D01*
X6551000Y-11551000D01*
G37*
G36*
X18051000Y-9301000D02*
G01*
X15949000Y-9301000D01*
X15949000Y-6699000D01*
X18051000Y-6699000D01*
X18051000Y-9301000D01*
G37*
G36*
X22051000Y-9301000D02*
G01*
X19949000Y-9301000D01*
X19949000Y-6699000D01*
X22051000Y-6699000D01*
X22051000Y-9301000D01*
G37*
G36*
X2551000Y-7651000D02*
G01*
X1449000Y-7651000D01*
X1449000Y-5349000D01*
X2551000Y-5349000D01*
X2551000Y-7651000D01*
G37*
G36*
X9551000Y-4551000D02*
G01*
X7249000Y-4551000D01*
X7249000Y-3449000D01*
X9551000Y-3449000D01*
X9551000Y-4551000D01*
G37*
G36*
X18051000Y-4301000D02*
G01*
X15949000Y-4301000D01*
X15949000Y-1699000D01*
X18051000Y-1699000D01*
X18051000Y-4301000D01*
G37*
G36*
X22051000Y-4301000D02*
G01*
X19949000Y-4301000D01*
X19949000Y-1699000D01*
X22051000Y-1699000D01*
X22051000Y-4301000D01*
G37*
G36*
X10951000Y-1851000D02*
G01*
X8649000Y-1851000D01*
X8649000Y-749000D01*
X10951000Y-749000D01*
X10951000Y-1851000D01*
G37*
M02*
